<svg width="40" height="40" viewBox="0 0 40 40" fill="none" xmlns="http://www.w3.org/2000/svg">
<path d="M20.0001 39.3062C30.6651 39.3062 39.3107 30.6606 39.3107 19.9956C39.3107 9.33069 30.6651 0.685059 20.0001 0.685059C9.33512 0.685059 0.689453 9.33069 0.689453 19.9956C0.689453 30.6606 9.33512 39.3062 20.0001 39.3062Z" fill="white"/>
<path d="M7.97179 15.2187C7.85307 23.4072 12.8627 30.371 19.9015 33.6514C26.8419 30.5147 31.8766 23.6321 31.9422 15.4874C31.9463 14.7497 31.9098 14.0123 31.8328 13.2786C24.7709 8.08753 15.1563 8.08247 8.08895 13.2661C8.08895 13.2848 8.08895 13.3036 8.08114 13.3223C8.01866 13.9456 7.97179 14.5783 7.97179 15.2187ZM9.47297 14.3189C13.2236 11.7009 16.7758 11.0917 18.594 10.9683H18.6206C19.2454 10.923 19.686 10.9183 19.8484 10.9183H19.9999C20.1561 10.9183 20.6029 10.9183 21.2277 10.9667H21.2449H21.2496C23.0663 11.0932 26.617 11.7009 30.3676 14.3174C30.515 16.5063 30.275 18.704 29.6584 20.8094C29.0306 22.9962 27.9715 25.0351 26.5436 26.8063C24.8612 28.8995 22.6305 30.6178 19.9187 31.9362C17.2241 30.6303 15.0059 28.9214 13.3204 26.8516C11.8943 25.0925 10.8323 23.0672 10.1962 20.8938C9.56602 18.7626 9.31955 16.5364 9.46828 14.3189H9.47297Z" fill="url(#paint0_linear_14963_33152)"/>
<path d="M7.97187 15.2187C7.98124 14.5782 8.02342 13.9456 8.09059 13.3223C8.09059 13.3036 8.09059 13.2848 8.0984 13.2661C8.10621 13.2473 8.0984 13.2114 8.10933 13.1848C8.12808 13.0177 8.14839 12.8521 8.17182 12.6881C8.39713 11.0888 8.8168 9.5229 9.42149 8.02525C10.5349 5.26678 12.2464 2.78968 14.4327 0.772461L14.3593 0.792768L14.1546 0.856814C7.36795 2.94289 2.19152 8.46399 0.546663 15.3709C-1.09819 22.2778 1.03407 29.5394 6.15203 34.4605C6.55349 34.5839 6.95963 34.6933 7.37046 34.7917C9.94843 35.3906 12.6196 35.4724 15.2294 35.0322C16.7764 34.7837 18.2865 34.344 19.7251 33.7232L19.8063 33.6857L19.85 33.6654L19.8969 33.6435C12.8581 30.3663 7.84846 23.4072 7.97187 15.2187Z" fill="url(#paint1_linear_14963_33152)"/>
<path d="M25.7232 0.84732C22.0441 -0.256342 18.1258 -0.282363 14.4323 0.77234C12.2438 2.78892 10.5301 5.26607 9.41489 8.02513C8.81019 9.52278 8.39053 11.0886 8.16522 12.688C8.14178 12.8442 8.12148 13.0176 8.10273 13.1847C8.10273 13.2113 8.09492 13.2378 8.0918 13.2659C15.1592 8.08232 24.7737 8.08738 31.8357 13.2784L31.9669 13.3784C32.1746 13.5346 32.3793 13.6908 32.5808 13.858C33.8156 14.8596 34.9277 16.0037 35.894 17.2665C36.0314 17.4477 36.1658 17.632 36.2986 17.8163C37.7733 19.8833 38.8381 22.2138 39.4353 24.6817C41.9357 14.3538 35.9084 3.87708 25.7232 0.84732Z" fill="url(#paint2_linear_14963_33152)"/>
<path d="M36.2961 17.8162C36.1633 17.6319 36.029 17.4475 35.8915 17.2663C34.9253 16.0036 33.8131 14.8595 32.5783 13.8579C32.3768 13.7016 32.1722 13.5345 31.9644 13.3783L31.8332 13.2783C31.9083 14.0095 31.9433 14.7443 31.9379 15.4793C31.8723 23.624 26.8376 30.5066 19.8972 33.6433L19.8504 33.6652L19.8066 33.6855L19.7254 33.723C18.2868 34.3438 16.7767 34.7835 15.2297 35.032C12.6199 35.4721 9.94874 35.3904 7.37077 34.7914C6.95421 34.6946 6.53765 34.5847 6.12109 34.4618C11.3052 39.4011 18.7299 41.201 25.6004 39.184C32.4709 37.167 37.7444 31.6393 39.4359 24.6816C38.8378 22.2135 37.7719 19.8829 36.2961 17.8162Z" fill="url(#paint3_linear_14963_33152)"/>
<path d="M18.7784 21.6328V24.9132C18.7801 25.1382 18.9625 25.32 19.1876 25.3209H20.6685C20.8933 25.32 21.0753 25.138 21.0762 24.9132V21.6328C22.3424 21.0876 23.0512 19.7277 22.773 18.3775C22.4947 17.0274 21.3059 16.0586 19.9273 16.0586C18.5487 16.0586 17.3599 17.0274 17.0816 18.3775C16.8033 19.7277 17.5121 21.0876 18.7784 21.6328Z" fill="url(#paint4_linear_14963_33152)"/>
<path opacity="0.17" d="M25.7239 0.847439C24.1174 0.366318 22.457 0.088186 20.7815 0.0195312C19.496 2.46398 19.0508 5.26357 19.5146 7.98619C19.5954 8.46048 19.7029 8.92985 19.8364 9.39208C19.9285 9.39208 20.0191 9.39208 20.1113 9.39208C24.3298 9.42022 28.4311 10.7835 31.827 13.2864L31.9583 13.3863C32.166 13.5426 32.3706 13.6988 32.5722 13.8659C33.807 14.8676 34.9191 16.0117 35.8854 17.2744C36.0041 17.4306 36.1181 17.5868 36.2321 17.743C37.431 17.3091 38.5567 16.6949 39.5703 15.9216C38.0615 8.74148 32.7504 2.9594 25.7239 0.847439Z" fill="url(#paint5_radial_14963_33152)"/>
<path opacity="0.3" d="M29.8541 24.124C27.7211 28.3422 24.207 31.702 19.8973 33.6434L19.8504 33.6653L19.8067 33.6856L19.7254 33.7231C18.2868 34.3439 16.7767 34.7836 15.2297 35.0321C15.0735 35.0587 14.9173 35.0836 14.7611 35.1071C14.6322 36.265 14.6642 37.4352 14.8564 38.5843C14.9017 38.8545 14.9579 39.1201 15.0204 39.3841C23.9824 41.6533 33.3351 37.5065 37.6708 29.3414C35.8329 26.662 33.0335 24.7935 29.8541 24.124Z" fill="url(#paint6_radial_14963_33152)"/>
<defs>
<linearGradient id="paint0_linear_14963_33152" x1="7.96554" y1="21.5139" x2="31.939" y2="21.5139" gradientUnits="userSpaceOnUse">
<stop stop-color="#E6E6E6"/>
<stop offset="0.16" stop-color="#F6F6F6"/>
<stop offset="0.3" stop-color="white"/>
<stop offset="0.7" stop-color="white"/>
<stop offset="0.84" stop-color="#F6F6F6"/>
<stop offset="1" stop-color="#E6E6E6"/>
</linearGradient>
<linearGradient id="paint1_linear_14963_33152" x1="0.00195059" y1="18.04" x2="19.8936" y2="18.04" gradientUnits="userSpaceOnUse">
<stop stop-color="#D61132"/>
<stop offset="0.35" stop-color="#EE1144"/>
<stop offset="1" stop-color="#EE4466"/>
</linearGradient>
<linearGradient id="paint2_linear_14963_33152" x1="27.0654" y1="24.641" x2="23.4259" y2="2.20352" gradientUnits="userSpaceOnUse">
<stop stop-color="#1B84E2"/>
<stop offset="0.35" stop-color="#2299FF"/>
<stop offset="1" stop-color="#0085FF"/>
</linearGradient>
<linearGradient id="paint3_linear_14963_33152" x1="8.35021" y1="34.1486" x2="35.5972" y2="18.4172" gradientUnits="userSpaceOnUse">
<stop stop-color="#FFCC22"/>
<stop offset="0.6" stop-color="#FFCC22"/>
<stop offset="1" stop-color="#FF9C28"/>
</linearGradient>
<linearGradient id="paint4_linear_14963_33152" x1="19.4934" y1="16.2842" x2="22.4017" y2="24.2734" gradientUnits="userSpaceOnUse">
<stop stop-color="#5D687A"/>
<stop offset="1" stop-color="#242A36"/>
</linearGradient>
<radialGradient id="paint5_radial_14963_33152" cx="0" cy="0" r="1" gradientUnits="userSpaceOnUse" gradientTransform="translate(28.4608 0.528508) rotate(-11.2021) scale(12.6033 12.4925)">
<stop stop-color="white"/>
<stop offset="1" stop-color="white" stop-opacity="0"/>
</radialGradient>
<radialGradient id="paint6_radial_14963_33152" cx="0" cy="0" r="1" gradientUnits="userSpaceOnUse" gradientTransform="translate(21.892 85.6579) scale(12.6155 12.6154)">
<stop stop-color="white"/>
<stop offset="1" stop-color="white" stop-opacity="0"/>
</radialGradient>
</defs>
</svg>
