<svg width="100" height="20" viewBox="0 0 100 20" fill="none" xmlns="http://www.w3.org/2000/svg">
<style>
    :root {
        --a1-color: #071D2B;
    }

    @media (prefers-color-scheme: dark) {
        :root {
            --a1-color: #E8EAED;
        }
    }
</style>
<path d="M18.1222 15.8323C18.1222 10.4902 17.6506 0.8786 10.1567 0.781923C2.90664 0.688391 1.34401 10.3621 1.85178 15.7933C2.14278 16.2023 2.46379 16.5884 2.8108 16.9484C4.61284 18.8134 9.93098 18.5944 9.93098 18.5944C9.93098 18.5944 15.8691 18.6004 17.7182 16.3583C17.8582 16.1883 17.9932 16.0133 18.1222 15.8323Z" fill="white"/>
<path d="M8.57895 2.49281C9.85998 1.61478 11.623 2.0918 12.287 3.49583L18.1222 15.8331C19.2902 14.2101 19.9852 12.2231 20.0002 10.072C20.0392 4.54786 15.5931 0.0397439 10.07 0.000742916C4.54684 -0.0382581 0.0387296 4.40786 0.000728589 9.931C-0.0142718 12.1161 0.673746 14.1401 1.85178 15.7931L2.08578 15.7421L5.89388 14.9021C6.00088 14.8781 6.05788 15.0231 5.96388 15.0791L2.8108 16.9482C4.61285 18.8132 7.13291 19.9813 9.93098 20.0003C13.0641 20.0223 15.8691 18.6002 17.7182 16.3582L8.17494 6.3119C7.10591 5.18587 7.29691 3.37083 8.57895 2.49281ZM10.37 13.8331L4.22584 14.3661C3.56082 14.4241 3.0018 13.8731 3.04981 13.2061C3.09781 12.5401 3.73082 12.075 4.38084 12.2281L10.384 13.6421C10.491 13.6681 10.479 13.8231 10.37 13.8331ZM7.52592 8.42996L14.9761 14.4571C15.0611 14.5261 14.9841 14.6611 14.8811 14.6221L5.91988 11.226C4.97985 10.87 4.58284 9.75799 5.08286 8.88597C5.58387 8.01495 6.7449 7.79794 7.52592 8.42996Z" fill="#FF7800"/>
<path d="M29.7643 4.29658H27.4641L23.3337 15.734H25.0939C25.4239 15.734 25.724 15.5243 25.844 15.2146L26.534 13.3467H31.6445L32.3345 15.2146C32.4545 15.5243 32.7446 15.734 33.0846 15.734H34.8348L31.0144 5.17562C30.8244 4.6462 30.3244 4.29658 29.7643 4.29658ZM27.2641 11.3888L29.0843 6.48418L30.9044 11.3888H27.2641Z" fill="var(--a1-color)"/>
<path d="M40.6753 7.16343C40.3452 7.16343 40.0452 7.3732 39.9252 7.68286L37.975 12.9671L36.0248 7.68286C35.9048 7.3732 35.6148 7.16343 35.2748 7.16343H33.6146L36.8949 15.744H39.0551L42.3354 7.16343H40.6753Z" fill="var(--a1-color)"/>
<path d="M46.2357 6.93368C44.4155 6.93368 43.2454 7.74279 42.6354 9.32106L43.9455 9.78056C44.2555 9.89044 44.6155 9.79055 44.8256 9.53083C45.1056 9.18121 45.4256 8.89153 46.2157 8.89153C47.2058 8.89153 47.6158 9.24115 47.6958 10.1801L45.0456 10.6396C42.5954 11.0392 42.2953 12.5475 42.2953 13.3766C42.2953 14.2057 42.9254 15.9838 45.2956 15.9838C46.4957 15.9838 47.3558 15.5442 47.9158 15.0048C47.9458 15.4144 48.2859 15.744 48.7059 15.744H49.796V10.2101C49.796 7.90262 48.3359 6.93368 46.2357 6.93368ZM45.6256 14.2756C44.7956 14.2756 44.3855 13.9959 44.3855 13.4665C44.3855 12.9371 44.7756 12.3777 46.1057 12.148C46.8357 12.0181 47.4158 11.9082 47.7958 11.8383V12.3777C47.7958 13.4965 46.6857 14.2756 45.6256 14.2756Z" fill="var(--a1-color)"/>
<path d="M58.1468 13.2467C58.1468 12.3777 57.7068 11.6085 57.0367 11.149C57.0167 11.1291 56.9867 11.1191 56.9667 11.0991C56.9567 11.0891 56.9367 11.0791 56.9267 11.0791C56.8467 11.0292 56.7667 10.9892 56.6767 10.9493C56.3667 10.7994 56.0267 10.6696 56.0267 10.6696C55.8866 10.6196 55.7366 10.5597 55.5866 10.5097C54.1165 10.0203 53.4064 9.90041 53.4064 9.41094C53.4064 8.97143 53.9265 8.75167 54.4765 8.75167C54.8265 8.75167 55.3266 8.86155 55.7266 9.361L55.7366 9.37099C55.7466 9.38098 55.7566 9.39096 55.7666 9.40095L55.7766 9.41094C55.9166 9.56078 56.1167 9.65068 56.3367 9.65068C56.4267 9.65068 56.5067 9.6307 56.5867 9.61072H56.5967L57.7968 9.20117C57.3868 7.82268 56.1067 6.92367 54.3965 6.92367C53.7365 6.92367 53.1864 7.02356 52.7564 7.20336C51.8763 7.533 51.2562 8.37208 51.2562 9.37099C51.2562 10.31 51.8163 11.1091 52.6164 11.4787C53.0064 11.6785 53.4764 11.8483 54.0265 12.0081C55.5666 12.4676 55.9366 12.7673 55.9366 13.3067C55.9366 13.3766 55.9266 13.4365 55.9166 13.4965C55.8866 13.6063 55.8266 13.7062 55.7566 13.7861C55.5366 14.0159 55.1366 14.1258 54.6065 14.1258C53.9465 14.1258 53.3564 13.8561 52.9564 13.1768C52.7664 12.8572 52.3663 12.7173 52.0163 12.8472L50.8162 13.2667C51.3162 14.7151 52.3163 15.9837 54.5965 15.9837C55.6366 15.9837 56.4667 15.754 57.0567 15.3544C57.7168 14.8849 58.1468 14.1158 58.1468 13.2467Z" fill="var(--a1-color)"/>
<path d="M63.6473 8.92148C64.0873 8.92148 64.4473 8.56187 64.4473 8.12236V7.14343H61.9671V4.98579H60.597C60.1569 4.98579 59.7969 5.3454 59.7969 5.78492V7.15342H59.3969C58.9568 7.15342 58.5968 7.51302 58.5968 7.95254V8.93147H59.7969V12.098C59.7969 12.6074 59.8069 13.0769 59.8169 13.4765C59.8269 13.886 59.9369 14.2856 60.1469 14.6752C60.377 15.0947 60.717 15.3944 61.167 15.5842C61.6171 15.774 62.1271 15.8739 62.6972 15.8839C63.2672 15.8938 63.8473 15.8439 64.4473 15.734V14.805C64.4473 14.3555 64.0773 13.9959 63.6273 14.0059C63.4272 14.0159 63.2372 14.0059 63.0572 13.9959C62.6372 13.966 62.3371 13.8061 62.1371 13.5065C62.0371 13.3466 61.9771 13.1369 61.9771 12.8672C61.9671 12.5975 61.9671 12.2978 61.9671 11.9681V8.92148H63.6473Z" fill="var(--a1-color)"/>
<path d="M78.3486 5.63511C77.2485 4.49636 75.8484 3.91699 74.1882 3.91699C72.5281 3.91699 71.128 4.49636 70.0279 5.63511C68.9278 6.77386 68.3677 8.24225 68.3677 10.0003C68.3677 11.7584 68.9278 13.2268 70.0279 14.3655C71.128 15.5043 72.5281 16.0837 74.1882 16.0837C75.8484 16.0837 77.2485 15.5043 78.3486 14.3655C79.4487 13.2268 80.0088 11.7584 80.0088 10.0003C80.0088 8.24225 79.4487 6.77386 78.3486 5.63511ZM76.8585 12.997C76.1484 13.7662 75.2483 14.1558 74.1882 14.1558C73.1381 14.1558 72.2481 13.7662 71.528 12.997C70.8079 12.2279 70.4479 11.219 70.4479 10.0003C70.4479 8.78166 70.8079 7.77277 71.528 7.00361C72.2481 6.23445 73.1381 5.84488 74.1882 5.84488C75.2483 5.84488 76.1384 6.23445 76.8585 7.00361C77.5685 7.77277 77.9386 8.78166 77.9386 10.0003C77.9386 11.219 77.5685 12.2279 76.8585 12.997Z" fill="var(--a1-color)"/>
<path d="M85.8593 6.85375C85.7192 6.85375 85.5792 6.86374 85.4492 6.88372C85.0792 6.93367 84.7292 7.05354 84.3991 7.22335C83.9291 7.47308 83.5791 7.80272 83.329 8.20228H83.289V7.7228C83.289 7.39316 83.019 7.11347 82.679 7.11347H81.1988V15.1247C81.1988 15.4543 81.4689 15.734 81.8089 15.734H83.459V10.7894C83.459 10.2201 83.6291 9.76057 83.9791 9.40096C84.3291 9.04136 84.7492 8.86155 85.2492 8.86155C86.1993 8.86155 86.6793 9.4609 86.6793 10.6496V15.1347C86.6793 15.4643 86.9494 15.744 87.2894 15.744H88.9395V10.24C88.9395 9.84048 88.8995 9.48088 88.8295 9.15124C88.4695 7.82269 87.2794 6.85375 85.8593 6.85375Z" fill="var(--a1-color)"/>
<path d="M97.0403 13.2168L98.4004 13.6064C97.6803 15.2046 96.4202 16.0037 94.62 16.0037C93.2799 16.0037 92.1898 15.5742 91.3298 14.7251C90.4697 13.8661 90.0496 12.7773 90.0496 11.4587C90.0496 10.1501 90.4597 9.05135 91.2897 8.17231C92.1098 7.29327 93.1499 6.85375 94.41 6.85375C95.6601 6.85375 96.7002 7.27329 97.5203 8.11238C98.3404 8.95146 98.7504 10.0902 98.7504 11.5286V12.068H92.3698C92.4799 12.6974 92.7399 13.1968 93.1499 13.5764C93.5599 13.956 94.06 14.1458 94.65 14.1458C95.3201 14.1458 95.8502 13.926 96.2302 13.4765C96.4302 13.2467 96.7402 13.1369 97.0403 13.2168ZM94.44 8.61183C93.9 8.61183 93.4499 8.77165 93.0899 9.10129C92.7299 9.43093 92.4998 9.90042 92.3798 10.5297H96.3702C96.3302 9.90042 96.1402 9.43093 95.7701 9.10129C95.4201 8.77165 94.9701 8.61183 94.44 8.61183Z" fill="var(--a1-color)"/>
</svg>
