<svg width="24" height="24" viewBox="0 0 24 24" fill="none" xmlns="http://www.w3.org/2000/svg">
<style>
    :root {
        --fingerprint-color: #071D2B;
    }

    @media (prefers-color-scheme: dark) {
        :root {
            --fingerprint-color: #E8EAED;
        }
    }
</style>
<path d="M11.3474 21.4011L12.52 20.2252C13.0119 19.5907 13.2434 18.9724 13.8491 19.4923C13.8491 19.4923 15.0372 20.4331 16.1281 20.9923M11.4766 17.4293C11.3861 18.8235 9.7223 20.3377 9.00588 20.7959M17.9952 19.3922C14.8429 17.7828 13.3838 16.2098 12.9903 15.6775C11.7268 13.9684 11.2041 12.9435 11.9357 12.277C12.6673 11.6104 13.4071 12.8549 14.2266 13.7502C14.859 14.4411 16.4448 15.4956 18.772 16.9502M19.732 14.959C17.9122 14.0037 15.1428 11.4599 14.5544 10.779C13.2408 9.25883 11.3015 9.66038 10.1651 10.8308C9.25985 11.7642 9.19622 13.1057 9.61366 14.2798C10.4041 16.5051 9.01569 17.8162 7.96615 18.455M5.07113 15C5.31087 13.9509 5.08096 12.7176 5 11.9156M16.0904 6.44035C13.4181 4.76088 8.29759 4.18731 5.73733 9.28853M6.53951 16.6924C6.98471 16.1558 7.51491 15.2405 7.29253 13.3692C6.98471 10.779 8.27071 8.97345 9.61366 8.18615C10.9949 7.37639 13.4353 6.879 15.6133 8.71446C16.4739 9.46777 18.4492 11.3356 19.8474 12.277M19.5876 9.25883C19.0347 8.73673 18.186 8.15874 17.7597 7.63931M17.4216 4.66395C12.9902 1.90112 9.12758 3.04898 6.48354 4.72458" stroke="var(--fingerprint-color)" stroke-width="1.5" stroke-linecap="round" stroke-linejoin="round"/>
</svg>
