<svg width="24" height="24" viewBox="0 0 24 24" fill="none" xmlns="http://www.w3.org/2000/svg">
<style>
    :root {
        --lock-color: #071D2B;
    }

    @media (prefers-color-scheme: dark) {
        :root {
            --lock-color: #E8EAED;
        }
    }
</style>
<path d="M17.5426 8.47385C16.2624 6.81701 14.2559 5.75 12.0001 5.75C9.76696 5.75 7.77804 6.79572 6.49634 8.42419M19.5216 6.1599C17.6888 4.06968 14.9986 2.75 12.0001 2.75C9.03921 2.75 6.37888 4.03683 4.54785 6.08174M8.50012 13.75V12.25C8.50012 10.6 9.46607 8.75 12.0001 8.75C14.5342 8.75 15.5001 10.6 15.5001 12.25V13.75M12.0001 17.25C12.4141 17.25 12.7501 16.914 12.7501 16.5C12.7501 16.086 12.4141 15.75 12.0001 15.75C11.5861 15.75 11.2501 16.086 11.2501 16.5C11.2501 16.914 11.5861 17.25 12.0001 17.25ZM12.0001 17.25V18.75M16.8126 20.75H7.18762C6.8095 20.75 6.50012 20.4688 6.50012 20.125V14.375C6.50012 14.0312 6.8095 13.75 7.18762 13.75H16.8126C17.1907 13.75 17.5001 14.0312 17.5001 14.375V20.125C17.5001 20.4688 17.1907 20.75 16.8126 20.75Z" stroke="var(--lock-color)" stroke-width="1.5" stroke-linecap="round" stroke-linejoin="round"/>
</svg>
