<svg width="115" height="32" viewBox="0 0 115 32" fill="none" xmlns="http://www.w3.org/2000/svg">
<style>
    :root {
        --marker-orange-color: #FFDDBF;
    }

    @media (prefers-color-scheme: dark) {
        :root {
            --marker-orange-color: #0F4062;
        }
    }
</style>
<path d="M8.09554 15.8204L8.12624 15.8124C30.6124 12.1134 43.1047 11.7431 65.2339 12.1129C87.3631 12.4828 93.2958 16.7345 95.5723 19.88C96.6431 21.3594 97 23.2088 97 24.3184C97 25.428 96.012 25.0593 95.2139 25.0588C94.1446 25.0581 93.7877 25.7979 92.3585 25.7985C90.9293 25.7992 68.0878 26.1684 68.0878 26.1684C55.4765 26.5383 30.2569 27.6472 18.1201 30.237C8.28377 32.3358 5.62629 32.8267 4.20009 30.237C2.7739 27.6472 2.37493 25.7979 2.05774 22.8396C1.4887 17.5325 5.2446 16.5592 8.09554 15.8204Z" fill="var(--marker-orange-color)"/>
</svg>
