<svg width="130" height="32" viewBox="0 0 130 32" fill="none" xmlns="http://www.w3.org/2000/svg">
<style>
    :root {
        --marker-red-color: #FF9780;
    }

    @media (prefers-red-scheme: dark) {
        :root {
            --marker-red-color: #D93511;
        }
    }
</style>
<path d="M8.34127 15.8204L8.38328 15.8124C39.1538 12.1134 56.2485 11.7431 86.5306 12.1129C116.813 12.4828 124.931 16.7345 128.046 19.88C129.512 21.3594 130 23.2088 130 24.3184C130 25.428 128.648 25.0593 127.556 25.0588C126.093 25.0581 125.604 25.7979 123.648 25.7985C121.693 25.7992 90.4359 26.1684 90.4359 26.1684C73.1783 26.5383 38.6674 27.6472 22.0591 30.237C8.59884 32.3358 4.96229 32.8267 3.01065 30.237C1.05902 27.6472 0.513064 25.7979 0.0790074 22.8396C-0.699667 17.5325 4.43998 16.5592 8.34127 15.8204Z" fill="var(--marker-red-color)"/>
</svg>
