<svg width="114" height="32" viewBox="0 0 114 32" fill="none" xmlns="http://www.w3.org/2000/svg">
<style>
    :root {
        --marker-green-color: #BBED58;
    }

    @media (prefers-color-scheme: dark) {
        :root {
            --marker-green-color: #388700;
        }
    }
</style>
<path d="M7.31465 15.8204L7.35149 15.8124C34.3349 12.1134 49.3256 11.7431 75.8807 12.1129C102.436 12.4828 109.555 16.7345 112.287 19.88C113.572 21.3594 114 23.2088 114 24.3184C114 25.428 112.814 25.0593 111.857 25.0588C110.574 25.0581 110.145 25.7979 108.43 25.7985C106.715 25.7992 79.3053 26.1684 79.3053 26.1684C64.1718 26.5383 33.9083 27.6472 19.3441 30.237C7.54053 32.3358 4.35154 32.8267 2.64011 30.237C0.928681 27.6472 0.449918 25.7979 0.0692834 22.8396C-0.613554 17.5325 3.89353 16.5592 7.31465 15.8204Z" fill="var(--marker-green-color)"/>
</svg>
