<svg width="24" height="24" viewBox="0 0 24 24" fill="none" xmlns="http://www.w3.org/2000/svg">
<path d="M12 22C17.5228 22 22 17.5228 22 12C22 6.47715 17.5228 2 12 2C6.47715 2 2 6.47715 2 12C2 17.5228 6.47715 22 12 22Z" fill="url(#paint0_linear_10453_11901)"/>
<path d="M14.548 10.2807H9.52508V9.74365C9.52508 7.90286 10.6244 7.04696 11.9584 7.04696C13.2916 7.04696 14.548 7.87771 14.548 9.74365V10.2807ZM12.715 14.5714C12.715 14.9664 12.395 15.2857 12.0008 15.2857C11.6057 15.2857 11.2864 14.9664 11.2864 14.5714V13.1422C11.2864 12.7479 11.6057 12.4279 12.0008 12.4279C12.3936 12.4279 12.715 12.75 12.715 13.1429V14.5714ZM15.9286 10.2857H15.5736V9.87786C15.5736 7.42857 14.0179 6 11.9336 6C9.84929 6 8.42715 7.42857 8.42715 9.87786V10.2857H8.07143C7.47929 10.2857 7 10.765 7 11.3571V15.93C7 16.5214 7.47929 17 8.07143 17H15.9286C16.5208 17 17.0008 16.5214 17.0008 15.93V11.3571C17.0008 10.765 16.5208 10.2857 15.9286 10.2857Z" fill="#071D2B"/>
<path d="M14.548 10.2807H9.52508V9.74365C9.52508 7.90286 10.6244 7.04696 11.9584 7.04696C13.2916 7.04696 14.548 7.87771 14.548 9.74365V10.2807ZM12.715 14.5714C12.715 14.9664 12.395 15.2857 12.0008 15.2857C11.6057 15.2857 11.2864 14.9664 11.2864 14.5714V13.1422C11.2864 12.7479 11.6057 12.4279 12.0008 12.4279C12.3936 12.4279 12.715 12.75 12.715 13.1429V14.5714ZM15.9286 10.2857H15.5736V9.87786C15.5736 7.42857 14.0179 6 11.9336 6C9.84929 6 8.42715 7.42857 8.42715 9.87786V10.2857H8.07143C7.47929 10.2857 7 10.765 7 11.3571V15.93C7 16.5214 7.47929 17 8.07143 17H15.9286C16.5208 17 17.0008 16.5214 17.0008 15.93V11.3571C17.0008 10.765 16.5208 10.2857 15.9286 10.2857Z" fill="#071D2B"/>
<defs>
<linearGradient id="paint0_linear_10453_11901" x1="2" y1="2" x2="22" y2="22" gradientUnits="userSpaceOnUse">
<stop stop-color="#FFBF00"/>
<stop offset="0.500024" stop-color="#FFBF00"/>
<stop offset="1" stop-color="#FF7800"/>
</linearGradient>
</defs>
</svg>
