<?xml version="1.0" encoding="UTF-8" standalone="no"?>
<svg
   xmlns:dc="http://purl.org/dc/elements/1.1/"
   xmlns:cc="http://creativecommons.org/ns#"
   xmlns:rdf="http://www.w3.org/1999/02/22-rdf-syntax-ns#"
   xmlns:svg="http://www.w3.org/2000/svg"
   xmlns="http://www.w3.org/2000/svg"
   version="1.1"
   id="svg2"
   xml:space="preserve"
   width="42.666668"
   height="42.666668"
   viewBox="0 0 42.666668 42.666668"><metadata
     id="metadata8"><rdf:RDF><cc:Work
         rdf:about=""><dc:format>image/svg+xml</dc:format><dc:type
           rdf:resource="http://purl.org/dc/dcmitype/StillImage" /></cc:Work></rdf:RDF></metadata><defs
     id="defs6" /><g
     id="g10"
     transform="matrix(1.3333333,0,0,-1.3333333,0,42.666667)"><g
       id="g12"
       transform="scale(0.1)"><path
         d="M 95.0391,306.086 C 39.1211,281.098 0,224.977 0,159.957 0,94.9414 39.1211,38.8164 95.0391,13.7852 V 306.086"
         style="fill:#ed1d24;fill-opacity:1;fill-rule:evenodd;stroke:none"
         id="path14" /><path
         d="M 95.0391,105.594 V 13.8125 C 114.902,4.96094 136.848,-0.0507813 159.988,-0.0507813 c 69.285,0 128.285,44.0390813 150.528,105.6447813 H 95.0391"
         style="fill:#100f0d;fill-opacity:1;fill-rule:evenodd;stroke:none"
         id="path16" /><path
         d="M 310.516,214.285 H 95.0391 V 105.594 H 310.516 c 6.156,16.98 9.484,35.269 9.484,54.363 0,19.051 -3.328,37.387 -9.484,54.328"
         style="fill:#ffffff;fill-opacity:1;fill-rule:evenodd;stroke:none"
         id="path18" /><path
         d="M 95.0391,214.285 H 310.516 c -22.243,61.645 -81.243,105.684 -150.528,105.684 -23.14,0 -45.086,-5.012 -64.9489,-13.86 v -91.824"
         style="fill:#227236;fill-opacity:1;fill-rule:evenodd;stroke:none"
         id="path20" /></g></g></svg>
