<?xml version="1.0" encoding="UTF-8" standalone="no"?>
<svg
   xmlns:dc="http://purl.org/dc/elements/1.1/"
   xmlns:cc="http://creativecommons.org/ns#"
   xmlns:rdf="http://www.w3.org/1999/02/22-rdf-syntax-ns#"
   xmlns:svg="http://www.w3.org/2000/svg"
   xmlns="http://www.w3.org/2000/svg"
   version="1.1"
   id="svg2"
   xml:space="preserve"
   width="42.666668"
   height="42.666668"
   viewBox="0 0 42.666668 42.666668"><metadata
     id="metadata8"><rdf:RDF><cc:Work
         rdf:about=""><dc:format>image/svg+xml</dc:format><dc:type
           rdf:resource="http://purl.org/dc/dcmitype/StillImage" /></cc:Work></rdf:RDF></metadata><defs
     id="defs6" /><g
     id="g10"
     transform="matrix(1.3333333,0,0,-1.3333333,0,42.666667)"><g
       id="g12"
       transform="scale(0.1)"><path
         d="M 3.875,194.941 H 316.129 C 300.18,266.496 236.359,320 160,320 83.6445,320 19.8203,266.496 3.875,194.941"
         style="fill:#100f0d;fill-opacity:1;fill-rule:nonzero;stroke:none"
         id="path14" /><path
         d="m 320,160 c 0,15.363 -2.207,30.199 -6.25,44.262 L 160.563,0.015625 C 248.668,0.320313 320,71.8242 320,160"
         style="fill:#d01e27;fill-opacity:1;fill-rule:nonzero;stroke:none"
         id="path16" /><path
         d="M 6.25391,204.262 C 2.21094,190.199 0,175.363 0,160 0,71.8242 71.332,0.320313 159.438,0.015625 L 6.25391,204.262"
         style="fill:#d01e27;fill-opacity:1;fill-rule:nonzero;stroke:none"
         id="path18" /><path
         d="m 254.344,125.059 52.414,69.882 H 13.2422 L 65.6563,125.059 H 254.344"
         style="fill:#396dbe;fill-opacity:1;fill-rule:nonzero;stroke:none"
         id="path20" /><path
         d="m 264.828,194.941 -53.422,10.227 45.442,29.891 -53.266,-10.996 30.543,45.003 -45.008,-30.543 10.996,53.266 L 170.227,246.348 160,299.77 149.773,246.348 119.887,291.789 130.883,238.523 85.875,269.066 116.422,224.063 63.1523,235.059 108.594,205.168 55.1719,194.941 H 264.828"
         style="fill:#f7cf0d;fill-opacity:1;fill-rule:nonzero;stroke:none"
         id="path22" /><path
         d="m 160,0 0.672,0.015625 v 0 h -0.109 L 254.344,125.059 H 65.6563 L 159.438,0.015625 160,0"
         style="fill:#ffffff;fill-opacity:1;fill-rule:nonzero;stroke:none"
         id="path24" /></g></g></svg>
