<?xml version="1.0" encoding="UTF-8" standalone="no"?>
<svg
   xmlns:dc="http://purl.org/dc/elements/1.1/"
   xmlns:cc="http://creativecommons.org/ns#"
   xmlns:rdf="http://www.w3.org/1999/02/22-rdf-syntax-ns#"
   xmlns:svg="http://www.w3.org/2000/svg"
   xmlns="http://www.w3.org/2000/svg"
   version="1.1"
   id="svg2"
   xml:space="preserve"
   width="42.666668"
   height="42.666668"
   viewBox="0 0 42.666668 42.666668"><metadata
     id="metadata8"><rdf:RDF><cc:Work
         rdf:about=""><dc:format>image/svg+xml</dc:format><dc:type
           rdf:resource="http://purl.org/dc/dcmitype/StillImage" /></cc:Work></rdf:RDF></metadata><defs
     id="defs6" /><g
     id="g10"
     transform="matrix(1.3333333,0,0,-1.3333333,0,42.666667)"><g
       id="g12"
       transform="scale(0.1)"><path
         d="M 160.012,-0.0390625 C 248.133,-0.0390625 320,71.8477 320,159.977 320,248.117 248.133,320.012 160.012,320.012 71.8906,320.012 0,248.117 0,159.977 0,71.8477 71.8906,-0.0390625 160.012,-0.0390625"
         style="fill:#273375;fill-opacity:1;fill-rule:evenodd;stroke:none"
         id="path14" /><path
         d="m 50.168,272.699 c 0,1.172 0,2.367 0,3.528 -1.2266,-1.161 -2.418,-2.332 -3.625,-3.528 1.2304,0 2.4453,0 3.625,0"
         style="fill:#ffffff;fill-opacity:1;fill-rule:nonzero;stroke:none"
         id="path16" /><path
         d="m 159.684,199.996 0.269,-0.047 c -0.031,3.215 0.051,6.485 -0.066,9.676 -15.77,9.676 -31.524,19.289 -47.27,28.953 -1.445,0.813 -2.855,2.02 -4.547,1.973 -4.769,-0.082 -9.5778,0.094 -14.3395,-0.141 21.8985,-13.742 44.0505,-26.738 65.9535,-40.414 z M 42.1133,240.41 c -4.711,0.235 -9.5117,0.059 -14.2539,0.141 -1.3399,0.094 -2.5547,-0.715 -3.75,-1.43 -1.5821,-0.996 -3.1563,-1.941 -4.7305,-2.937 -2.4531,-4.469 -4.6797,-9.071 -6.6992,-13.793 9.8476,5.933 19.668,11.906 29.4336,18.019 z m 97.1097,78.281 c -20.473,-12.578 -41.0589,-24.8 -61.4535,-37.515 4.6016,-0.184 9.25,0 13.8633,-0.098 1.168,-0.086 2.336,0.27 3.3828,0.973 20.6134,12.726 41.3904,25.16 61.9884,37.961 -6.024,-0.094 -11.945,-0.551 -17.781,-1.321 z M 50.168,276.227 c 6.0976,5.75 12.6406,11.031 19.5547,15.769 0,-6.418 0,-12.871 0.0117,-19.297 30.0312,0 60.1206,0 90.1876,0 0.031,-7.933 0.031,-15.836 -0.035,-23.765 -30.032,0 -60.1214,0 -90.1526,0 -0.043,-16.313 0,-32.668 -0.043,-48.985 -6.4844,0 -12.9805,0 -19.5234,0 -0.0313,16.317 0,32.672 0,48.985 -7.6953,0 -15.3867,0 -23.086,0 5.7227,8.531 12.2657,16.519 19.461,23.765 1.2304,0 2.4453,0 3.625,0 0,1.172 0,2.367 0,3.528"
         style="fill:#d11d2c;fill-opacity:1;fill-rule:nonzero;stroke:none"
         id="path18" /><path
         d="m 19.3789,236.184 c 1.5742,0.996 3.1484,1.941 4.7305,2.937 1.1953,0.715 2.4101,1.524 3.75,1.43 4.7422,-0.082 9.5429,0.094 14.2539,-0.141 -9.7656,-6.113 -19.586,-12.086 -29.4336,-18.019 -0.9102,-2.172 -1.8047,-4.375 -2.6289,-6.602 10.9687,6.656 21.9961,13.32 32.9961,19.961 0.0312,-11.945 0,-23.871 0.0312,-35.801 2.3516,0 4.7266,0 7.0899,0 -0.0313,16.317 0,32.672 0,48.985 -7.6953,0 -15.3867,0 -23.086,0 -2.7695,-4.114 -5.3242,-8.364 -7.7031,-12.75"
         style="fill:#ffffff;fill-opacity:1;fill-rule:nonzero;stroke:none"
         id="path20" /><path
         d="m 112.617,238.578 c 15.746,-9.664 31.5,-19.277 47.27,-28.953 l 0.019,5.148 c -14.019,8.625 -28.179,16.879 -42.113,25.696 14,0.176 28.094,0 42.113,0.082 v 8.383 h -0.019 c -6.934,0 -13.864,0 -20.793,0 -23.121,0 -46.2542,0 -69.3596,0 -0.043,-16.313 0,-32.668 -0.043,-48.985 2.2109,0 4.4649,0 6.6641,0 0,11.93 -0.043,23.856 0.0429,35.801 18.6172,-11.195 37.1646,-22.516 55.7616,-33.742 1.528,-0.891 2.996,-2.258 4.785,-2.059 7.575,0.047 15.16,-0.051 22.739,0.047 -21.903,13.676 -44.055,26.672 -65.9535,40.414 4.7617,0.235 9.5705,0.059 14.3395,0.141 1.692,0.047 3.102,-1.16 4.547,-1.973"
         style="fill:#ffffff;fill-opacity:1;fill-rule:nonzero;stroke:none"
         id="path22" /><path
         d="m 159.906,281.133 c -14.019,0.086 -28.113,-0.141 -42.113,0.086 13.918,8.863 28.211,16.886 42.094,25.855 l 0.019,2.231 v 10.734 h -0.515 l -2.387,-0.027 c -20.598,-12.801 -41.375,-25.235 -61.9884,-37.961 -1.0468,-0.703 -2.2148,-1.059 -3.3828,-0.973 -4.6133,0.098 -9.2617,-0.086 -13.8633,0.098 20.3946,12.715 40.9805,24.937 61.4535,37.515 h -0.051 c -1.93,-0.265 -3.817,-0.543 -5.762,-0.843 l -0.504,-0.102 c -1.953,-0.355 -3.886,-0.715 -5.832,-1.109 -16.844,-10.321 -33.7771,-20.504 -50.6756,-30.742 -0.0195,3.507 -0.0195,6.968 -0.0195,10.468 l -0.0234,-0.031 c -2.25,-1.394 -4.4532,-2.828 -6.6328,-4.336 0,-6.418 0,-12.871 0.0117,-19.297 23.0898,0 46.2226,0 69.3596,0 6.937,0 13.875,0 20.812,0 v 8.434"
         style="fill:#ffffff;fill-opacity:1;fill-rule:nonzero;stroke:none"
         id="path24" /><path
         d="m 187.395,224 c 0,-65.27 5.207,-88.449 23.07,-106.344 17.863,-17.8943 24.633,-20.7146 29.613,-23.4568 5.746,3.1641 12.367,6.6408 28.559,22.8278 16.011,16.016 23.758,39.102 23.758,108.086 -11.649,-4.988 -17.45,-6.629 -27.633,-6.601 -7.547,-0.739 -19.184,4.097 -26.145,7.258 -4.547,-2.895 -11.144,-6.348 -23.004,-6.735 -13.691,-0.574 -18.031,1.637 -28.218,4.965 v 0"
         style="fill:#c1cf1b;fill-opacity:1;fill-rule:nonzero;stroke:none"
         id="path26" /><path
         d="m 190.547,219.879 c 0,-20.195 -1.192,-47.715 3.074,-63.637 4.285,-15.992 5.27,-18.336 8.492,-23.914 l 75.082,0.559 c 4.641,8.031 4.875,13.008 8.313,25.843 3.43,12.793 4.293,41.305 4.394,62.54 -7.55,-3.825 -17.437,-6.536 -27.035,-5.348 -7.695,0.558 -14.804,2.234 -23.082,6.695 -7.18,-4.101 -9.683,-5.976 -21.539,-6.453 -9.234,-0.434 -16.711,-1.148 -27.699,3.715 v 0"
         style="fill:#ffffff;fill-opacity:1;fill-rule:nonzero;stroke:none"
         id="path28" /><path
         d="m 202.273,132.77 c 5.344,-10.723 30.54,-31.27 37.907,-35.5239 8.406,4.8519 30.633,25.1599 36.828,35.5239 h -74.735"
         style="fill:#a5cdee;fill-opacity:1;fill-rule:nonzero;stroke:none"
         id="path30" /><path
         d="m 241.617,189.98 c 2.375,-5.324 9.985,-11.203 12.078,-14.082 -2.664,-2.882 -3.195,-2.57 -2.847,-7.921 4.632,4.621 4.715,5.101 7.695,4.402 6.523,-6.211 1.168,-19.543 -4.227,-22.441 -5.39,-3.094 -4.41,0.109 -12.492,-3.77 3.703,-3.02 7.996,0.445 11.504,-0.48 1.906,-2.157 -0.906,-6.086 0.578,-9.79 3.102,0.286 2.727,6.254 3.449,8.418 2.266,7.926 15.883,13.454 16.575,20.727 2.871,1.285 5.742,0.402 9.23,-1.469 -1.738,6.813 -7.488,6.742 -9.031,8.867 -3.668,5.348 -6.922,11.446 -14.762,13.032 -5.949,1.199 -5.504,-0.364 -9.316,2.117 -2.375,1.762 -9.586,5.094 -8.434,2.39 v 0"
         style="fill:#f68d11;fill-opacity:1;fill-rule:nonzero;stroke:none"
         id="path32" /><path
         d="m 222.594,167.395 c 3.828,4.488 5.722,13.652 7.418,16.761 3.914,-0.898 3.875,-1.496 8.676,1.301 -6.45,1.746 -6.934,1.59 -7.676,4.43 2.707,8.398 17.574,10.113 22.785,6.922 5.387,-3.102 1.961,-3.774 9.332,-8.774 1.066,4.535 -4.149,6.535 -4.93,9.926 1.11,2.613 6.067,2.078 8.809,5.055 -1.711,2.48 -7.074,-0.621 -9.418,-1.024 -8.41,-1.793 -19.899,7.106 -26.965,4.289 -2.535,1.821 -3.055,4.653 -2.953,8.469 -5.508,-4.648 -2.75,-9.461 -4.004,-11.758 -3.242,-5.59 -7.383,-11.179 -5.188,-18.527 1.668,-5.574 2.911,-4.473 2.391,-8.844 -0.527,-2.824 -0.25,-10.461 1.723,-8.226"
         style="fill:#f68d11;fill-opacity:1;fill-rule:nonzero;stroke:none"
         id="path34" /><path
         d="m 253.695,164.238 c -6.007,0.801 -15.215,-2.39 -18.882,-2.617 -1.219,3.66 -0.665,3.934 -5.657,6.406 1.77,-6.164 2.16,-6.48 -0.004,-8.554 -8.941,-2.133 -18.172,9.113 -18,15.011 -0.004,5.996 2.371,3.551 3.047,12.153 -4.625,-1.473 -3.719,-6.766 -6.359,-9.157 -2.922,-0.449 -5.004,3.875 -9.098,4.571 -1.34,-2.68 4.219,-5.449 5.789,-7.153 5.961,-5.933 3.922,-19.91 10.102,-24.222 -0.324,-3.008 -2.594,-4.899 -6.074,-6.789 7.019,-2.086 9.918,2.652 12.625,2.816 6.695,0.246 13.855,-0.238 19.312,5.352 4.149,4.246 2.512,4.683 6.707,6.523 2.805,1.031 9.52,5.211 6.492,5.66 v 0"
         style="fill:#f68d11;fill-opacity:1;fill-rule:nonzero;stroke:none"
         id="path36" /><path
         d="m 257.492,185.109 1.238,-1.183 -1.238,-1.184 -1.238,1.184 1.238,1.183"
         style="fill:#ffffff;fill-opacity:1;fill-rule:nonzero;stroke:none"
         id="path38" /><path
         d="m 219.695,183.051 0.516,1.597 1.676,-0.492 -0.516,-1.597 -1.676,0.492"
         style="fill:#ffffff;fill-opacity:1;fill-rule:nonzero;stroke:none"
         id="path40" /><path
         d="m 241.141,153.773 -1.703,-0.402 -0.426,1.621 1.703,0.406 0.426,-1.625"
         style="fill:#ffffff;fill-opacity:1;fill-rule:nonzero;stroke:none"
         id="path42" /></g></g></svg>
