<?xml version="1.0" encoding="UTF-8" standalone="no"?>
<svg
   xmlns:dc="http://purl.org/dc/elements/1.1/"
   xmlns:cc="http://creativecommons.org/ns#"
   xmlns:rdf="http://www.w3.org/1999/02/22-rdf-syntax-ns#"
   xmlns:svg="http://www.w3.org/2000/svg"
   xmlns="http://www.w3.org/2000/svg"
   version="1.1"
   id="svg2"
   xml:space="preserve"
   width="42.666668"
   height="42.666668"
   viewBox="0 0 42.666668 42.666668"><metadata
     id="metadata8"><rdf:RDF><cc:Work
         rdf:about=""><dc:format>image/svg+xml</dc:format><dc:type
           rdf:resource="http://purl.org/dc/dcmitype/StillImage" /></cc:Work></rdf:RDF></metadata><defs
     id="defs6" /><g
     id="g10"
     transform="matrix(1.3333333,0,0,-1.3333333,0,42.666667)"><g
       id="g12"
       transform="scale(0.1)"><path
         d="M 159.988,0 C 248.105,0 320,71.8984 320,160.012 320,248.129 248.105,320 159.988,320 71.875,320 0,248.129 0,160.012 0,71.8984 71.875,0 159.988,0"
         style="fill:#e51e25;fill-opacity:1;fill-rule:evenodd;stroke:none"
         id="path14" /><path
         d="m 126.449,239.16 c -2.687,0 -4.39,1.012 -4.39,2.156 0,1.122 1.703,1.961 4.39,1.961 2.699,0 4.371,-0.925 4.371,-2.047 0,-1.14 -1.672,-2.07 -4.371,-2.07 z m 67.102,4.117 c 2.687,0 4.39,-0.839 4.39,-1.961 0,-1.144 -1.703,-2.156 -4.39,-2.156 -2.699,0 -4.371,0.93 -4.371,2.07 0,1.122 1.672,2.047 4.371,2.047 z m 59.133,-135.273 c -3,3.527 -6.344,3.773 -10.532,-0.727 -4.386,-0.132 -7.453,-0.211 -11.851,-0.359 2.355,1.988 3.609,3.512 5.969,5.496 3.621,-1.148 7.16,-0.758 8.695,3.285 1.176,1.367 2.48,2.168 5.48,2.281 -2.078,1.735 -3.804,2.368 -7.547,0.637 -5.523,2.485 -5.984,-1.039 -6.968,-3.344 -3.746,-2.457 -6.77,-4.539 -10.512,-6.992 -7.629,2.227 -13.82,3.473 -21.441,5.692 1.652,1.711 3.308,3.269 4.964,4.988 0.434,1.449 -0.328,2.187 -1.578,2.406 -12.328,2.5 -19.371,7.363 -23.66,19.719 -1.793,5.172 2.078,6.703 3.41,3.539 1.848,-4.387 3.867,-9.211 9.403,-12.937 1.91,-1.29 7.586,-0.243 4.242,2.898 -3.5,2.781 -4.985,4.004 -6.715,10.805 0,3.472 3.605,5.019 5.625,1.707 2.141,-6.793 2.371,-9.723 6.246,-14.09 2.949,-3.32 6.801,-5.535 8.699,-5.5 3.446,0.066 6.899,3.683 2.301,6.308 -6.73,2.637 -9.203,6.25 -10.187,9.68 -1.086,5.988 0.093,8.895 3.793,5.945 5.246,-5.816 15.253,-16.675 20.484,-21.718 5.883,-4.41 12.609,-4.547 17.992,-0.086 3.063,3.449 1.973,7.187 -2.836,6.371 -10.844,-0.895 -19.074,4.383 -28.074,18.609 -1.781,3.238 -2.27,7.836 1.641,4.414 4.496,-5.941 11.043,-11.011 17.14,-13.176 6.098,-2.16 11.746,-1.414 13.11,0.918 2.261,3.868 1.746,8.122 -2.344,6.715 -3.356,-1.152 -8.098,-1.453 -13.028,0.426 -4.925,1.879 -10.042,5.934 -15.496,12.813 -1.855,3.894 -1.238,7.183 2.516,5.179 8.922,-7.402 20.418,-13.394 26.305,-9.785 4.308,2.645 4.394,9.402 -1.086,8.973 -11.055,-1.492 -15.235,0.922 -25.836,10.086 -2.43,1.761 -2.254,6.215 1.578,3.367 8.934,-5.617 21.113,-7.817 25.898,-4.883 4.305,2.641 3.668,10.684 -3.582,7.824 -5.789,-3.445 -12.211,-3.343 -25.047,5.625 -3.234,2.621 -0.824,6.067 1.833,4.586 10.324,-5.758 25.359,-8.211 29.289,3.473 1.507,4.48 -1.235,7.09 -5.286,3.988 -8.859,-8.015 -18.918,-4.07 -24.535,-0.043 -1.472,0.059 -4.59,5.637 0.617,4.774 13.446,-3.016 26.739,-0.407 29.141,8.91 1.418,3.023 -1.344,8.355 -6.246,3.879 -6.465,-6.235 -13.309,-6.45 -21.891,-6.395 -4.39,0.887 -4.425,5.617 -0.769,6.309 6.789,-0.149 13.496,2.758 18.863,5.715 5.231,2.929 9.594,7.066 10.957,12.789 0.848,5.125 -4.187,10.562 -7.246,5.136 -4.488,-7.968 -14.457,-15.449 -25.516,-16.796 -0.57,0.941 -2.035,3.359 -3.816,2.687 -6.508,-2.465 -15.504,-6.605 -22.914,-10.703 -1.609,-0.887 0.281,-5.192 0.641,-6.84 0.367,-4.211 -0.926,-6.898 -2.262,-8.465 -1.332,-1.562 -4.965,-2.59 -7.012,-2.047 -4.094,1.094 -6.293,4.645 -5.605,10.957 0.211,0.668 0.386,3.703 3.73,7.653 1.68,1.988 4.031,4.519 7.758,6.547 3.73,2.023 9.371,3.144 16.156,4.625 4.133,0.808 6.231,2.363 6.481,4.027 -1.977,-0.457 -5.219,-2.137 -7.352,-1.727 -2.098,0.403 -3.156,1.418 -4.094,2.004 1.559,0.324 4.422,-0.047 6.969,-0.043 2.551,0.004 4.801,0.539 6.313,0.789 3.136,0.516 5.629,1.797 7.117,4.668 0.644,3.094 -1.422,3.653 -3.367,1.664 -1.649,-1.687 -1.977,-2.379 -3.028,-3.113 -1.047,-0.734 -2.808,-1.441 -4.07,-1.664 -2.555,-0.445 -5.074,-0.949 -8.336,-0.168 0.645,0.805 2.098,2.109 3.41,2.918 1.317,0.809 2.606,1.207 3.84,1.004 0.82,-0.141 1.891,-0.871 2.77,-2.219 0.543,3.395 -0.418,7.211 -9.657,5.629 0.125,2.543 -5.379,3.656 -8.695,3.602 l -0.004,0.004 c -1.879,-0.032 -5.73,-1.133 -8.508,-2.43 -4.386,-1.328 -8.746,-2.301 -13.851,-2.664 2.949,-2.477 3.527,-2.617 6.5,-4.731 -4.504,-1.636 -7.989,-5.031 -9.551,-7.25 3.934,-0.187 5.23,0.145 6.566,-0.425 -5.476,-1.586 -7.957,-2.516 -10.851,-5.414 1.023,-0.188 2.547,-0.458 3.199,-0.704 l -0.066,-1.086 c -1.254,-0.785 -6.051,-6.437 -7.477,-7.757 -1.426,1.32 -6.223,6.972 -7.477,7.757 l -0.066,1.086 c 0.652,0.246 2.176,0.516 3.199,0.704 -2.894,2.898 -5.375,3.828 -10.851,5.414 1.336,0.57 2.633,0.238 6.566,0.425 -1.562,2.219 -5.047,5.614 -9.551,7.25 2.973,2.114 3.551,2.254 6.5,4.731 -5.105,0.363 -9.465,1.336 -13.851,2.664 -2.778,1.297 -6.629,2.398 -8.508,2.43 l -0.004,-0.004 c -3.316,0.054 -8.82,-1.059 -8.695,-3.602 -9.239,1.582 -10.199,-2.234 -9.657,-5.629 0.879,1.348 1.95,2.078 2.77,2.219 1.234,0.203 2.523,-0.195 3.84,-1.004 1.312,-0.809 2.765,-2.113 3.41,-2.918 -3.262,-0.781 -5.781,-0.277 -8.336,0.168 -1.262,0.223 -3.023,0.93 -4.07,1.664 -1.047,0.734 -1.379,1.426 -3.028,3.113 -1.945,1.989 -4.0113,1.43 -3.3668,-1.664 1.4888,-2.871 3.9808,-4.152 7.1168,-4.668 1.512,-0.25 3.762,-0.785 6.313,-0.789 2.547,-0.004 5.41,0.367 6.969,0.043 -0.938,-0.586 -1.996,-1.601 -4.094,-2.004 -2.133,-0.41 -5.375,1.27 -7.352,1.727 0.25,-1.664 2.348,-3.219 6.481,-4.027 6.785,-1.481 12.426,-2.602 16.156,-4.625 3.727,-2.028 6.078,-4.559 7.758,-6.547 3.344,-3.95 3.519,-6.985 3.73,-7.653 0.688,-6.312 -1.511,-9.863 -5.605,-10.957 -2.047,-0.543 -5.68,0.485 -7.012,2.047 -1.336,1.567 -2.629,4.254 -2.262,8.465 0.36,1.648 2.25,5.953 0.641,6.84 -7.41,4.098 -16.406,8.238 -22.914,10.703 -1.781,0.672 -3.246,-1.746 -3.816,-2.687 -11.059,1.347 -21.0277,8.828 -25.516,16.796 -3.0586,5.426 -8.0938,-0.011 -7.2461,-5.136 1.3672,-5.723 5.7265,-9.86 10.9531,-12.789 5.3711,-2.957 12.0781,-5.864 18.8672,-5.715 3.6558,-0.692 3.6208,-5.422 -0.7695,-6.309 -8.5782,-0.055 -15.4258,0.16 -21.8907,6.395 -4.9023,4.476 -7.664,-0.856 -6.2461,-3.879 2.4024,-9.317 15.6954,-11.926 29.1407,-8.91 5.2074,0.863 2.0894,-4.715 0.6172,-4.774 -5.6172,-4.027 -15.6758,-7.972 -24.5352,0.043 -4.0547,3.102 -6.793,0.492 -5.2852,-3.988 3.9297,-11.684 18.9649,-9.231 29.2891,-3.473 2.6565,1.481 5.0665,-1.965 1.8325,-4.586 -12.8364,-8.968 -19.2583,-9.07 -25.0473,-5.625 -7.25,2.86 -7.8868,-5.183 -3.5821,-7.824 4.7852,-2.934 16.9649,-0.734 25.9024,4.883 3.828,2.848 4.004,-1.606 1.5742,-3.367 -10.6016,-9.164 -14.7813,-11.578 -25.832,-10.086 -5.4844,0.429 -5.4024,-6.328 -1.0899,-8.973 5.8867,-3.609 17.3828,2.383 26.3047,9.785 3.754,2.004 4.371,-1.285 2.516,-5.179 -5.4535,-6.879 -10.5668,-10.934 -15.4965,-12.813 -4.9297,-1.879 -9.6718,-1.578 -13.0234,-0.426 -4.0938,1.407 -4.6094,-2.847 -2.3477,-6.715 1.3633,-2.332 7.0118,-3.078 13.1094,-0.918 6.0977,2.165 12.6445,7.235 17.1402,13.176 3.911,3.422 3.422,-1.176 1.641,-4.414 -8.9999,-14.226 -17.2304,-19.504 -28.0742,-18.609 -4.8085,0.816 -5.8984,-2.922 -2.8359,-6.371 5.3828,-4.461 12.1094,-4.324 17.9922,0.086 5.2305,5.043 15.2379,15.902 20.4839,21.718 3.7,2.95 4.879,0.043 3.793,-5.945 -0.984,-3.43 -3.457,-7.043 -10.187,-9.68 -4.5977,-2.625 -1.145,-6.242 2.301,-6.308 1.898,-0.035 5.75,2.18 8.699,5.5 3.879,4.367 4.105,7.297 6.246,14.09 2.02,3.312 5.625,1.765 5.625,-1.707 -1.73,-6.801 -3.215,-8.024 -6.715,-10.805 -3.344,-3.141 2.332,-4.188 4.242,-2.898 5.536,3.726 7.555,8.55 9.403,12.937 1.332,3.164 5.203,1.633 3.41,-3.539 -4.289,-12.356 -11.332,-17.219 -23.66,-19.719 -1.25,-0.219 -2.012,-0.957 -1.578,-2.406 1.656,-1.719 3.312,-3.277 4.964,-4.988 -7.621,-2.219 -13.812,-3.465 -21.441,-5.692 -3.7422,2.453 -6.7656,4.535 -10.5117,6.992 -0.9844,2.305 -1.4453,5.829 -6.9687,3.344 -3.7422,1.731 -5.4688,1.098 -7.5469,-0.637 3,-0.113 4.3047,-0.914 5.4805,-2.281 1.5351,-4.043 5.0742,-4.433 8.6953,-3.285 2.3593,-1.984 3.6133,-3.508 5.9687,-5.496 -4.3984,0.148 -7.4648,0.227 -11.8515,0.359 -4.1875,4.5 -7.5313,4.254 -10.5313,0.727 -2.2851,-0.352 -3.2539,-0.402 -4.8164,-3.176 2.4609,1.008 4.0078,1.313 5.0742,0.211 4.4531,-2.582 7.3633,-2.004 9.5703,0 4.2969,-0.262 8.168,-0.484 12.4688,-0.766 -1.5781,-1.343 -3.7461,-2.054 -5.3281,-3.41 -6.4532,1.844 -9.8204,-0.64 -10.9571,-5.906 -0.8633,-2.125 -1.2695,-4.3125 -0.8945,-6.5859 0.625,2.0781 1.6289,3.8672 3.4727,4.9883 5.7539,-1.461 7.9179,0.8867 8.2304,4.3281 2.7735,2.2617 6.9531,2.7575 9.7188,5.0505 3.2343,-1.035 4.8008,-1.675 8.0585,-2.707 1.156,-3.5193 3.777,-4.9138 8.035,-4.0076 5.067,-0.1601 4.172,-2.2382 4.582,-3.9023 1.348,2.3906 1.313,4.7109 -1.808,6.8242 -1.137,3.0817 -3.653,4.4847 -6.95,2.7067 -3.105,0.879 -3.921,2.149 -7.0152,3.028 7.8242,2.492 13.3712,3.05 21.1872,5.539 1.957,-1.844 3.508,-3.168 5.481,-4.817 1.039,-0.621 2.031,-0.777 2.644,0 4.899,7.09 7.082,13.336 11.637,18.012 1.738,1.934 3.938,4.543 6.375,5.18 1.219,0.316 2.711,0.125 3.664,-0.914 0.953,-1.043 1.703,-2.961 1.387,-5.821 -0.457,-4.105 -1.449,-5.406 -2.602,-7.867 -1.152,-2.461 -2.558,-3.976 -4.008,-5.859 -2.894,-3.774 -6.71,-5.969 -8.972,-7.442 -4.52,-2.9488 -6.434,-1.6558 -9.934,-1.4683 -4.523,-0.5079 -5.726,-2.711 -2.023,-5.7579 3.461,-1.8007 6.57,-2.0234 9.101,-1.5546 2.172,0.4023 4.711,3.2031 6.524,4.7109 2.035,2.3555 5.414,-0.4375 3.109,-3.1758 -4.187,-4.9765 -8.371,-8.2578 -13.535,-8.1875 -5.426,-0.7305 -4.41,-3.7773 -0.809,-5.2656 6.481,-2.6719 12.332,2.3359 15.305,5.6289 2.293,2.5078 3.922,2.6055 3.516,-1.2773 -2.278,-7.0352 -5.387,-9.754 -10.465,-10.1055 -4.121,0.3828 -4.164,-2.7969 -1.152,-4.9453 6.863,-4.75 11.832,3.3398 14.156,8.2265 1.652,4.4102 4.191,2.3164 4.453,-1.3203 0.035,-4.8554 -2.16,-8.8203 -8.035,-13.7929 4.496,-7.1602 9.734,-14.4454 14.238,-21.6329 v 0 0 0 0 c 4.504,7.1875 9.742,14.4727 14.238,21.6329 -5.875,4.9726 -8.07,8.9375 -8.035,13.7929 0.262,3.6367 2.801,5.7305 4.453,1.3203 2.324,-4.8867 7.293,-12.9765 14.157,-8.2265 3.011,2.1484 2.968,5.3281 -1.153,4.9453 -5.078,0.3515 -8.187,3.0703 -10.465,10.1055 -0.406,3.8828 1.223,3.7851 3.516,1.2773 2.973,-3.293 8.824,-8.3008 15.305,-5.6289 3.601,1.4883 4.617,4.5351 -0.809,5.2656 -5.164,-0.0703 -9.348,3.211 -13.535,8.1875 -2.305,2.7383 1.074,5.5313 3.109,3.1758 1.813,-1.5078 4.356,-4.3086 6.524,-4.7109 2.531,-0.4688 5.64,-0.2461 9.101,1.5546 3.703,3.0469 2.5,5.25 -2.023,5.7579 -3.5,-0.1875 -5.414,-1.4805 -9.934,1.4683 -2.261,1.473 -6.078,3.668 -8.972,7.442 -1.45,1.883 -2.856,3.398 -4.008,5.859 -1.153,2.461 -2.145,3.762 -2.602,7.867 -0.316,2.86 0.434,4.778 1.387,5.821 0.953,1.039 2.445,1.23 3.664,0.914 2.437,-0.637 4.637,-3.246 6.375,-5.18 4.555,-4.676 6.738,-10.922 11.637,-18.012 0.613,-0.777 1.605,-0.621 2.644,0 1.973,1.649 3.524,2.973 5.481,4.817 7.816,-2.489 13.363,-3.047 21.187,-5.539 -3.094,-0.879 -3.91,-2.149 -7.015,-3.028 -3.297,1.778 -5.813,0.375 -6.95,-2.7067 -3.121,-2.1133 -3.156,-4.4336 -1.808,-6.8242 0.41,1.6641 -0.485,3.7422 4.582,3.9023 4.258,-0.9062 6.879,0.4883 8.035,4.0076 3.258,1.032 4.824,1.672 8.059,2.707 2.765,-2.293 6.949,-2.7888 9.718,-5.0505 0.317,-3.4414 2.477,-5.7891 8.231,-4.3281 1.844,-1.1211 2.847,-2.9102 3.472,-4.9883 0.375,2.2734 -0.031,4.4609 -0.894,6.5859 -1.137,5.266 -4.504,7.75 -10.957,5.906 -1.578,1.356 -3.75,2.067 -5.328,3.41 4.301,0.282 8.172,0.504 12.468,0.766 2.208,-2.004 5.118,-2.582 9.571,0 1.066,1.102 2.617,0.797 5.074,-0.211 -1.562,2.774 -2.531,2.824 -4.816,3.176"
         style="fill:#100f0d;fill-opacity:1;fill-rule:nonzero;stroke:none"
         id="path16" /></g></g></svg>
