<?xml version="1.0" encoding="UTF-8" standalone="no"?>
<svg
   xmlns:dc="http://purl.org/dc/elements/1.1/"
   xmlns:cc="http://creativecommons.org/ns#"
   xmlns:rdf="http://www.w3.org/1999/02/22-rdf-syntax-ns#"
   xmlns:svg="http://www.w3.org/2000/svg"
   xmlns="http://www.w3.org/2000/svg"
   version="1.1"
   id="svg2"
   xml:space="preserve"
   width="42.666668"
   height="42.666668"
   viewBox="0 0 42.666668 42.666668"><metadata
     id="metadata8"><rdf:RDF><cc:Work
         rdf:about=""><dc:format>image/svg+xml</dc:format><dc:type
           rdf:resource="http://purl.org/dc/dcmitype/StillImage" /></cc:Work></rdf:RDF></metadata><defs
     id="defs6" /><g
     id="g10"
     transform="matrix(1.3333333,0,0,-1.3333333,0,42.666667)"><g
       id="g12"
       transform="scale(0.1)"><path
         d="M 9.45703,214.359 H 310.52 c 6.152,-16.988 9.48,-35.273 9.48,-54.347 0,-19.098 -3.328,-37.391 -9.48,-54.328 H 9.45703 C 3.32813,122.621 0,140.914 0,160.012 c 0,19.074 3.32813,37.359 9.45703,54.347"
         style="fill:#293d98;fill-opacity:1;fill-rule:evenodd;stroke:none"
         id="path14" /><path
         d="M 310.52,214.359 H 9.45703 c 22.26957,61.61 81.26957,105.645 150.51997,105.645 69.308,0 128.296,-44.035 150.543,-105.645"
         style="fill:#db1e25;fill-opacity:1;fill-rule:evenodd;stroke:none"
         id="path16" /><path
         d="M 9.45703,105.637 H 310.52 C 288.273,44.0781 229.285,-0.00390625 159.977,-0.00390625 90.7266,-0.00390625 31.7266,44.0781 9.45703,105.637"
         style="fill:#efa110;fill-opacity:1;fill-rule:evenodd;stroke:none"
         id="path18" /></g></g></svg>
