<?xml version="1.0" encoding="UTF-8" standalone="no"?>
<svg
   xmlns:dc="http://purl.org/dc/elements/1.1/"
   xmlns:cc="http://creativecommons.org/ns#"
   xmlns:rdf="http://www.w3.org/1999/02/22-rdf-syntax-ns#"
   xmlns:svg="http://www.w3.org/2000/svg"
   xmlns="http://www.w3.org/2000/svg"
   version="1.1"
   id="svg2"
   xml:space="preserve"
   width="42.666668"
   height="42.666668"
   viewBox="0 0 42.666668 42.666668"><metadata
     id="metadata8"><rdf:RDF><cc:Work
         rdf:about=""><dc:format>image/svg+xml</dc:format><dc:type
           rdf:resource="http://purl.org/dc/dcmitype/StillImage" /></cc:Work></rdf:RDF></metadata><defs
     id="defs6" /><g
     id="g10"
     transform="matrix(1.3333333,0,0,-1.3333333,0,42.666667)"><g
       id="g12"
       transform="scale(0.1)"><path
         d="M 159.992,320 C 71.8711,320 0,248.121 0,159.992 H 320 C 320,248.121 248.129,320 159.992,320"
         style="fill:#d01e27;fill-opacity:1;fill-rule:evenodd;stroke:none"
         id="path14" /><path
         d="M 159.992,0 C 248.129,0 320,71.8672 320,159.992 H 0 C 0,71.8672 71.8711,0 159.992,0"
         style="fill:#131211;fill-opacity:1;fill-rule:evenodd;stroke:none"
         id="path16" /><path
         d="m 217.785,91.6836 c -4.93,7.4805 -12.875,12.1714 -19.355,18.2034 -2.438,-2.707 -4.77,-5.414 -7.125,-8.293 6.582,-1.446 12.875,-4.9456 16.488,-10.7815 2.262,-2.9922 4.031,-8.2148 8.645,-7.5703 3.328,1.2461 3.156,5.9297 1.347,8.4414"
         style="fill:#f4d60c;fill-opacity:1;fill-rule:nonzero;stroke:none"
         id="path18" /><path
         d="m 194.473,169.648 c 0.09,-15.375 -7.094,-30.242 -18.543,-40.23 4.855,-3.41 9.8,-6.828 14.761,-10.273 1.809,1.976 3.582,3.98 5.395,5.953 -1.356,1.156 -2.68,2.261 -4.031,3.336 2.418,3.414 4.758,6.914 6.914,10.519 1.629,-0.726 3.25,-1.523 4.879,-2.34 1.968,4.067 3.781,8.274 5.218,12.606 -1.718,0.551 -3.437,1.078 -5.136,1.726 1.066,3.942 1.886,8.09 2.425,12.227 1.813,-0.09 3.614,-0.188 5.379,-0.352 0.09,2.325 0.289,4.586 0.289,6.828 0,2.258 -0.199,4.5 -0.289,6.844 -1.765,-0.086 -3.566,-0.168 -5.379,-0.265 -0.613,4.043 -1.445,8.093 -2.343,12.062 1.617,0.719 3.254,1.356 4.941,1.973 -1.324,4.324 -3.047,8.386 -5.105,12.34 -1.723,-0.719 -3.332,-1.532 -4.969,-2.25 -2.262,3.511 -4.488,6.929 -6.824,10.441 1.23,1.078 2.593,2.246 3.937,3.418 -2.781,3.516 -6.039,6.754 -9.523,9.543 -1.371,-1.344 -2.641,-2.621 -3.864,-3.953 -3.339,2.34 -6.789,4.586 -10.199,6.746 0.817,1.699 1.637,3.426 2.43,5.133 -4.035,2.074 -8.176,3.789 -12.426,5.125 -0.605,-1.711 -1.347,-3.418 -1.972,-5.125 -3.954,0.804 -7.915,1.527 -12,1.98 -0.446,-3.969 -0.782,-7.918 -0.954,-11.969 25.829,-2.257 47.528,-26.023 46.989,-52.043"
         style="fill:#f4d60c;fill-opacity:1;fill-rule:nonzero;stroke:none"
         id="path20" /><path
         d="m 132.617,154.805 c 1.613,-0.91 3.231,-1.891 4.68,-3.145 16.402,-14.851 35.308,-26.562 52.945,-39.797 2.137,-1.437 4.688,-4.597 7.113,-1.808 -25.312,18.996 -52.574,36.015 -74.039,59.511 -2.211,2.692 -3.769,5.856 -5.125,9 -1.128,-2.882 -2.32,-5.855 -3.136,-8.918 -2.867,-11.781 4.441,-23.664 14.593,-29.253 20.801,-11.793 41.52,-23.68 61.207,-37.082 1.2,1.355 2.356,2.593 3.418,3.867 -20.425,15.945 -43.582,28.816 -61.656,47.625"
         style="fill:#f4d60c;fill-opacity:1;fill-rule:nonzero;stroke:none"
         id="path22" /><path
         d="m 158.996,119.797 c -17.012,-5.953 -36.629,-2.172 -50.391,9.254 -2.636,-3.043 -5.269,-6.207 -7.683,-9.453 3.332,-2.52 6.766,-4.86 10.351,-6.918 -0.82,-1.715 -1.714,-3.325 -2.507,-4.961 4.062,-2.063 8.297,-3.864 12.589,-5.223 0.567,1.723 1.075,3.41 1.637,5.137 4.063,-1.078 8.176,-1.977 12.332,-2.426 -0.09,-1.812 -0.195,-3.699 -0.371,-5.5078 4.613,-0.3398 9.082,-0.3398 13.684,0 -0.199,1.8088 -0.25,3.6138 -0.36,5.4178 4.153,0.449 8.286,1.242 12.332,2.434 0.567,-1.731 1.102,-3.332 1.645,-5.055 2.051,0.727 4.23,1.445 6.289,2.172 -1.07,3.695 -1.438,7.727 -3.164,11.145 -1.981,1.64 -4.203,2.71 -6.383,3.984"
         style="fill:#f4d60c;fill-opacity:1;fill-rule:nonzero;stroke:none"
         id="path24" /><path
         d="m 136.344,201.133 c 1.961,5.363 3.531,10.914 5.457,16.289 1.824,-5.41 3.543,-10.832 5.304,-16.27 5.766,-0.113 11.493,-0.05 17.219,-0.05 -4.562,-3.497 -9.304,-6.743 -13.875,-10.266 1.766,-5.457 3.528,-10.914 5.262,-16.383 -4.66,3.352 -9.262,6.805 -13.965,10.09 -4.637,-3.316 -9.187,-6.719 -13.848,-9.961 1.61,5.488 3.582,10.848 5.168,16.379 -4.601,3.367 -9.253,6.676 -13.793,10.141 5.68,0 11.372,0.031 17.071,0.031"
         style="fill:#f4d60c;fill-opacity:1;fill-rule:nonzero;stroke:none"
         id="path26" /></g></g></svg>
