<?xml version="1.0" encoding="UTF-8" standalone="no"?>
<svg
   xmlns:dc="http://purl.org/dc/elements/1.1/"
   xmlns:cc="http://creativecommons.org/ns#"
   xmlns:rdf="http://www.w3.org/1999/02/22-rdf-syntax-ns#"
   xmlns:svg="http://www.w3.org/2000/svg"
   xmlns="http://www.w3.org/2000/svg"
   version="1.1"
   id="svg2"
   xml:space="preserve"
   width="42.666668"
   height="42.666668"
   viewBox="0 0 42.666668 42.666668"><metadata
     id="metadata8"><rdf:RDF><cc:Work
         rdf:about=""><dc:format>image/svg+xml</dc:format><dc:type
           rdf:resource="http://purl.org/dc/dcmitype/StillImage" /></cc:Work></rdf:RDF></metadata><defs
     id="defs6" /><g
     id="g10"
     transform="matrix(1.3333333,0,0,-1.3333333,0,42.666667)"><g
       id="g12"
       transform="scale(0.1)"><path
         d="M 9.47656,105.652 H 310.504 C 288.27,44.043 229.266,-0.00390625 159.988,-0.00390625 90.7305,-0.00390625 31.7305,44.043 9.47656,105.652"
         style="fill:#7cace1;fill-opacity:1;fill-rule:evenodd;stroke:none"
         id="path14" /><path
         d="M 9.47656,214.352 H 310.504 C 288.27,275.953 229.266,320.004 159.988,320.004 90.7305,320.004 31.7305,275.953 9.47656,214.352"
         style="fill:#7cace1;fill-opacity:1;fill-rule:evenodd;stroke:none"
         id="path16" /><path
         d="M 310.504,105.664 H 9.47656 C 3.34375,122.617 0,140.922 0,159.996 c 0,19.086 3.34375,37.387 9.47656,54.356 H 310.504 c 6.133,-16.969 9.496,-35.27 9.496,-54.356 0,-19.074 -3.363,-37.371 -9.496,-54.332"
         style="fill:#ffffff;fill-opacity:1;fill-rule:evenodd;stroke:none"
         id="path18" /><path
         d="m 159.508,112.676 -0.531,1.14 c -0.024,0.239 -0.149,3.743 -0.289,7.774 -0.133,4.027 -0.278,8.324 -0.325,9.523 -0.047,1.192 -0.121,3.442 -0.172,4.989 -0.031,1.543 -0.113,3.058 -0.144,3.355 l -0.035,0.547 -0.203,-0.547 c -0.512,-1.371 -0.555,-1.621 -0.676,-3.957 -0.176,-3.469 -0.278,-3.832 -1.91,-7.105 -1.176,-2.372 -1.344,-2.735 -1.649,-4 -0.32,-1.313 -0.379,-2.301 -0.215,-3.692 0.153,-1.269 0.172,-1.988 0.039,-2.687 -0.293,-1.727 -1.269,-3.426 -2.304,-4.036 l -1.684,0.27 0.442,1.047 0.925,1.945 c 0.176,0.852 0.121,2.707 -0.132,4.055 l -0.18,2.137 c 0,1.738 0.273,2.812 1.324,5.078 1.723,3.668 1.863,4.343 1.899,9.328 l 0.015,2.449 -0.219,-0.441 c -0.211,-0.383 -4.789,-10.188 -9.304,-19.899 -0.778,-1.652 -1.524,-3.16 -1.668,-3.328 l -1.473,-0.144 -0.172,0.687 c 0,0.488 0.207,1.031 2.699,7.535 2.985,7.754 5.59,14.496 6.301,16.344 l 0.426,1.23 -1.547,-1.793 -0.863,-1.699 c -1.461,-3.168 -1.934,-3.765 -4.863,-6.25 -1.582,-1.34 -2.52,-2.301 -3.204,-3.324 -0.73,-1.082 -0.855,-1.375 -1.336,-2.973 -0.464,-1.55 -0.839,-2.296 -1.566,-3.183 -1.469,-1.778 -3.637,-2.606 -4.391,-1.649 v 0.832 l 0.774,0.5 c 1.351,0.707 2.176,2.129 2.91,5.055 0.473,1.828 0.652,2.301 1.285,3.324 0.668,1.059 1.363,1.844 2.805,3.145 1.773,1.613 2.34,2.203 2.894,3.062 0.672,1.024 1.536,2.75 2.164,4.317 l 0.821,1.871 0.254,0.613 c -0.016,0.012 -1.582,-1.367 -3.473,-3.09 -1.883,-1.722 -6.219,-5.652 -9.617,-8.754 -3.41,-3.082 -6.344,-5.703 -6.551,-5.804 l -1.449,0.539 c -0.106,0.605 -0.93,-0.274 16.73,18.105 1.106,1.156 2.004,2.11 1.985,2.117 l -1.129,-0.527 c -0.981,-0.504 -1.207,-0.672 -2.254,-1.605 -2.094,-1.93 -3.125,-2.664 -4.465,-3.211 -0.348,-0.145 -1.519,-0.559 -2.605,-0.918 -2.188,-0.723 -3.004,-1.086 -4.137,-1.789 -1.004,-0.633 -1.746,-1.297 -2.485,-2.2 -0.8,-1.015 -1.187,-1.41 -1.835,-1.906 -1.172,-0.89 -2.633,-1.406 -3.957,-1.422 l -1.672,0.637 0.027,0.852 0.883,0.293 c 1.746,0.195 3.066,1.167 4.937,3.652 l 1.489,1.769 2.777,1.868 c 0.539,0.246 1.008,0.421 3.519,1.363 l 1.34,0.539 c 1.192,0.605 2.555,1.695 4.614,3.719 l 1.918,1.797 0.285,0.273 c -0.016,0.016 -1.028,-0.328 -2.242,-0.773 -7.094,-2.582 -18,-6.559 -20.141,-7.344 -2.363,-0.852 -2.719,-0.961 -3.297,-0.922 l -0.711,0.758 c 0,0.636 0.305,0.918 1.84,1.578 0.535,0.226 2.801,1.226 5.031,2.219 2.235,0.996 6.016,2.668 8.383,3.722 8.176,3.61 9.598,4.239 9.82,4.364 l -0.586,0.07 c -1.152,-0.067 -2.027,-0.246 -2.933,-0.594 -3.778,-1.422 -4.668,-1.574 -8.008,-1.348 -2.563,0.18 -3.445,0.18 -4.527,0.008 -1.477,-0.215 -2.297,-0.461 -3.2,-0.937 -2.636,-1.399 -3.187,-1.563 -4.992,-1.563 -1.078,0.004 -1.281,0.035 -1.887,0.227 -1.121,0.367 -1.636,0.867 -1.636,1.57 l 0.64,0.672 0.801,-0.184 1.414,-0.128 c 1.364,0.078 2.5,0.527 4.84,1.925 1.246,0.75 1.899,1.004 3.309,1.34 0.742,0.184 0.949,0.192 4.101,0.199 3.582,0 3.524,-0.015 5.324,0.493 1.243,0.351 2,0.636 3.524,1.293 l 1.851,0.722 0.747,0.305 -0.454,0.066 c -0.461,0 -12.515,0.383 -22.453,0.719 -3.996,0.133 -4.207,0.16 -4.566,0.602 l 0.508,1.347 c 0.242,0.106 2.711,0.211 13.804,0.582 7.422,0.254 13.563,0.489 13.629,0.504 l -2.254,0.746 -1.679,0.117 c -1.301,0 -2.84,0.125 -3.789,0.305 -0.985,0.18 -1.981,0.57 -4.192,1.621 -2.203,1.055 -3.008,1.364 -4.406,1.641 -1.203,0.254 -2.102,0.265 -3.707,0.078 -1.906,-0.223 -3.297,0 -4.832,0.773 -1.625,0.825 -2.445,2.184 -1.746,2.879 l 1.234,-0.136 c 0.981,-0.762 1.723,-1.008 3.301,-1.086 0.82,-0.039 1.238,-0.008 2.719,0.211 2.062,0.296 2.871,0.324 4.176,0.082 1.191,-0.215 2.078,-0.508 4.296,-1.493 3.02,-1.324 3.664,-1.441 8.235,-1.496 1.703,-0.007 3.082,-0.007 3.054,0 -0.031,0.039 -13.093,5.809 -14.843,6.563 -0.336,0.152 -1.825,0.816 -3.313,1.465 -1.469,0.664 -3.293,1.457 -3.988,1.761 -2.285,0.993 -2.481,1.141 -2.578,1.743 l 1.144,0.933 c 0.223,-0.027 2.918,-0.965 6.297,-2.187 3.266,-1.184 8.887,-3.231 12.508,-4.543 3.617,-1.313 6.652,-2.422 6.75,-2.453 l 0.051,0.089 -1.672,1.364 -1.688,0.816 c -3.394,1.488 -4.062,1.957 -6.421,4.621 -1.477,1.656 -1.883,2.051 -2.891,2.805 -1.137,0.848 -2.215,1.359 -3.785,1.809 -1.559,0.433 -2.567,0.914 -3.403,1.621 -1.343,1.125 -2.16,2.632 -1.929,3.566 l 0.765,0.73 0.887,-0.761 0.805,-0.996 c 0.976,-0.918 1.945,-1.344 4.566,-1.993 3.102,-0.773 3.969,-1.308 6.871,-4.234 1.41,-1.418 2.153,-2.098 2.586,-2.383 1.024,-0.656 2.906,-1.566 4.5,-2.175 l 2.141,-0.852 0.648,-0.262 c 0.012,0.031 -0.269,0.332 -8.484,8.867 -2.852,2.977 -6.203,6.442 -7.426,7.715 -1.207,1.258 -2.25,2.422 -2.324,2.574 l 0.125,1.051 0.605,0.262 c 0.637,0 0.262,0.309 5.075,-4.055 1.296,-1.172 5.3,-4.812 8.921,-8.093 3.614,-3.266 6.61,-5.961 6.649,-5.981 l -0.922,1.832 -1.504,1.692 c -2.379,2.464 -2.773,3.109 -3.914,6.425 -0.859,2.516 -1.195,3.223 -2.141,4.547 -0.574,0.828 -1.031,1.281 -2.191,2.192 -1.477,1.156 -1.996,1.742 -2.605,2.953 -0.657,1.277 -0.848,2.797 -0.485,3.558 l 0.977,0.723 0.703,-0.961 0.5,-1.68 c 0.519,-0.98 1.801,-2.172 3.777,-3.535 1.363,-0.937 2.606,-2.445 3.332,-4.019 l 0.84,-2.078 c 0.649,-1.708 1.078,-2.594 1.602,-3.333 0.636,-0.925 2.011,-2.437 3.027,-3.382 l 1.617,-1.567 0.695,-0.668 c 0.028,0.016 -0.269,0.801 -0.632,1.739 -0.36,0.941 -1.399,3.64 -2.313,5.992 -0.894,2.351 -2.668,6.922 -3.918,10.144 -1.25,3.239 -2.316,6.067 -2.39,6.289 l 0.281,1.219 1.433,-0.308 c 0.106,-0.125 1,-2.004 2.024,-4.172 1.008,-2.168 3.508,-7.516 5.547,-11.868 2.035,-4.363 3.734,-7.949 3.754,-7.976 l -0.153,2.191 c -0.05,0.258 -0.386,1.227 -0.75,2.18 -1.199,3.129 -1.312,3.914 -1.054,7.418 0.171,2.262 0.152,3.269 -0.118,4.551 -0.269,1.328 -0.464,1.851 -1.23,3.187 -0.965,1.711 -1.277,2.75 -1.277,4.215 0,1.211 0.406,2.551 0.961,3.016 l 1.515,0.043 0.047,-0.563 c -0.359,-1.402 -0.359,-1.422 -0.269,-2.094 0.164,-1.25 0.64,-2.382 1.765,-4.132 0.863,-1.352 1.125,-1.879 1.375,-2.789 0.426,-1.422 0.477,-2.024 0.457,-5.282 l -0.023,-3.004 0.39,-1.312 c 0.379,-1.266 0.953,-2.777 1.328,-3.539 l 0.684,-1.559 0.508,-1.097 c 0.027,0.07 0.113,1.976 0.187,4.234 0.067,2.258 0.239,7.25 0.368,11.074 0.14,3.828 0.285,7.676 0.308,8.555 l 0.137,1.988 c 0.219,1.008 1.363,1.231 1.801,0.344 0.16,-0.34 0.175,-0.789 0.445,-8.371 0.047,-1.477 0.16,-4.719 0.258,-7.219 0.094,-2.484 0.195,-5.898 0.258,-7.59 0.054,-1.679 0.121,-3.203 0.156,-3.394 0.058,-0.328 0.062,-0.301 0.398,0.722 0.391,1.176 0.414,1.34 0.52,3.914 0.094,1.789 0.265,3.036 0.558,3.821 0.09,0.187 0.696,1.504 1.391,2.91 1.281,2.644 1.508,3.246 1.805,4.887 0.16,0.875 0.16,1.519 -0.016,2.789 l -0.121,1.593 c 0.012,1.946 1.121,4.297 2.391,5.043 l 1.691,-0.261 -0.441,-1.055 c -0.825,-0.941 -1.071,-1.918 -1.024,-3.766 l 0.231,-2.218 c 0.281,-1.594 0.304,-2.356 0.097,-3.559 -0.222,-1.336 -0.445,-1.941 -1.445,-4.121 -1.5,-3.215 -1.578,-3.609 -1.66,-8.137 -0.035,-1.738 -0.051,-3.172 -0.035,-3.18 l 0.179,0.336 c 0.09,0.207 1.914,4.145 4.075,8.758 2.164,4.617 4.445,9.477 5.05,10.809 1.903,4.086 1.965,4.172 2.676,4.172 l 0.863,-0.852 c 0.032,-0.437 -0.093,-0.789 -2.589,-7.254 -1.426,-3.738 -2.789,-7.261 -3.008,-7.84 -1.266,-3.246 -3.863,-10.062 -3.863,-10.129 l 0.417,0.395 c 0.911,1.016 1.333,1.641 1.883,2.855 1.512,3.305 2.016,3.973 4.739,6.293 3.035,2.571 4,3.852 4.75,6.372 0.425,1.421 0.621,1.898 1.109,2.648 0.988,1.512 2.699,2.719 3.894,2.719 l 1.024,-0.434 -0.719,-1.242 c -0.797,-0.402 -1.461,-1.117 -1.992,-2.18 -0.426,-0.836 -0.652,-1.465 -1.012,-2.937 -0.414,-1.649 -0.644,-2.27 -1.144,-3.074 -0.801,-1.332 -1.512,-2.137 -3.555,-3.957 -1.219,-1.102 -1.906,-1.879 -2.488,-2.805 -0.625,-1.008 -1.391,-2.547 -1.84,-3.735 l -0.789,-1.851 -0.399,-0.906 c 0.02,-0.02 1.598,1.394 3.516,3.125 1.902,1.734 5.063,4.613 7.023,6.398 1.965,1.777 4.743,4.289 6.153,5.59 1.426,1.293 2.742,2.437 2.933,2.535 l 1.254,-0.137 0.075,-1.062 c -0.106,-0.215 -3.399,-3.703 -9.375,-9.934 -5.09,-5.285 -9.219,-9.621 -9.211,-9.629 l 2.195,1.125 1.504,1.309 c 2.512,2.297 3.051,2.609 6.777,3.84 2.11,0.707 3.278,1.215 4.324,1.906 0.996,0.66 1.414,1.031 2.399,2.227 l 1.472,1.57 c 1.184,0.976 2.77,1.594 4.153,1.605 l 1.57,-0.488 0.137,-0.992 -0.887,-0.297 c -1.773,-0.203 -3.074,-1.16 -4.945,-3.664 -1.09,-1.441 -1.742,-2.098 -2.848,-2.82 -1.062,-0.692 -1.793,-1.032 -4.363,-1.95 -1.824,-0.652 -2.438,-0.964 -3.563,-1.835 -1.031,-0.782 -1.558,-1.254 -2.98,-2.645 l -1.832,-1.746 -0.371,-0.356 c 0.039,0 1.023,0.356 2.219,0.786 3.183,1.156 21.187,7.718 21.964,8.003 1.043,0.391 1.614,0.399 1.977,0.036 l -0.231,-1.43 c -0.132,-0.086 -2.859,-1.324 -6.07,-2.731 -3.207,-1.417 -7.121,-3.16 -8.719,-3.867 -1.589,-0.699 -4.39,-1.949 -6.23,-2.754 -1.84,-0.808 -3.445,-1.539 -3.566,-1.601 l 0.582,-0.074 c 1.308,0.082 1.984,0.234 3.597,0.828 3.235,1.191 4.043,1.308 7.473,1.09 2.641,-0.172 3.769,-0.145 5.148,0.128 1.11,0.215 1.977,0.524 2.86,1.012 1.199,0.688 1.711,0.918 2.543,1.145 1.031,0.277 2.738,0.312 3.621,0.086 1.219,-0.348 1.816,-0.821 1.902,-1.528 l -0.172,-0.586 -1.254,-0.039 -1.386,0.133 c -1.364,-0.07 -2.504,-0.523 -4.875,-1.941 l -2.004,-0.969 c -1.68,-0.543 -1.68,-0.543 -5.336,-0.547 -3.535,-0.004 -3.571,-0.012 -5.106,-0.43 -1.222,-0.336 -2.226,-0.691 -3.675,-1.296 l -2.125,-0.86 -0.762,-0.265 0.379,-0.024 c 0.203,-0.004 6.117,-0.211 13.125,-0.433 7.008,-0.227 12.918,-0.446 13.113,-0.461 l 1.195,-1.055 -0.91,-0.832 c -0.207,-0.043 -1.64,-0.121 -3.16,-0.172 -3.488,-0.113 -7.152,-0.23 -10.063,-0.328 -1.257,-0.051 -4.839,-0.164 -7.964,-0.258 -3.145,-0.102 -5.813,-0.207 -5.922,-0.23 l 0.621,-0.332 c 1.121,-0.375 2.043,-0.532 3.207,-0.532 1.199,0 2.894,-0.136 3.797,-0.297 0.984,-0.179 1.996,-0.574 4.203,-1.636 2.133,-1.016 2.769,-1.258 4.027,-1.559 1.231,-0.285 2.434,-0.336 4.035,-0.16 1.969,0.227 3.188,0.051 4.746,-0.723 0.942,-0.465 1.782,-1.168 1.993,-1.687 l -0.301,-1.406 -1.098,0.335 c -0.773,0.68 -1.691,0.985 -3.258,1.067 -0.808,0.039 -1.207,0.008 -2.425,-0.184 -1.926,-0.293 -2.996,-0.34 -4.106,-0.179 -1.148,0.175 -2.113,0.453 -3.285,0.964 l -2.043,0.903 c -2.297,0.988 -3.191,1.133 -7.512,1.176 -3.121,0.023 -3.14,0.023 -2.812,-0.129 0.347,-0.16 8.82,-3.903 12.543,-5.543 7.715,-3.395 10.683,-4.707 11.043,-4.891 l 0.847,-0.965 -0.414,-0.816 c -0.398,-0.215 -0.964,-0.121 -2.293,0.359 -0.656,0.238 -4.984,1.813 -9.64,3.508 -9.684,3.516 -14.114,5.117 -14.34,5.195 l 1.418,-1.289 1.855,-0.961 c 2.485,-1.07 3.688,-1.785 4.727,-2.765 l 1.758,-1.899 1.82,-1.933 c 1.238,-1.157 3.031,-2.168 4.395,-2.516 1.168,-0.297 1.761,-0.508 2.519,-0.894 1.281,-0.653 2.387,-1.747 2.949,-2.875 l 0.258,-1.161 -0.242,-0.859 -1.348,0.434 -1.476,1.589 c -0.922,0.633 -2.043,1.036 -4.504,1.629 -1.41,0.328 -2.36,0.754 -3.559,1.571 -0.574,0.382 -1.273,1.039 -2.73,2.496 -1.449,1.468 -2.16,2.109 -2.645,2.422 -0.957,0.609 -2.984,1.597 -4.367,2.109 l -2,0.805 -0.867,0.332 c -0.027,-0.012 1.242,-1.325 5.25,-5.5 1.14,-1.18 2.551,-2.657 3.156,-3.278 0.594,-0.617 3.02,-3.144 5.387,-5.605 2.523,-2.621 4.359,-4.598 4.422,-4.754 l -0.11,-1.066 -0.605,-0.266 -0.649,0.148 -1.714,1.457 -2.743,2.497 c -0.714,0.656 -2.515,2.281 -3.988,3.613 -3.937,3.547 -7.711,6.996 -9.769,8.863 -0.997,0.895 -1.817,1.629 -1.836,1.617 l 0.976,-1.886 1.59,-1.786 c 2.223,-2.32 2.727,-3.148 3.789,-6.23 0.777,-2.266 1.184,-3.16 1.875,-4.191 0.746,-1.165 1.25,-1.684 2.488,-2.637 l 1.469,-1.274 c 1.945,-2.144 2.457,-5.437 0.922,-5.941 l -0.965,0.887 c 0,1.492 -1.211,3.074 -3.726,4.851 -1.536,1.094 -2.332,1.856 -3.079,2.985 -0.64,0.98 -0.835,1.375 -1.597,3.355 -0.68,1.738 -1.145,2.742 -1.512,3.301 -0.617,0.914 -2.101,2.551 -3.723,4.117 -1.003,0.973 -1.796,1.703 -1.777,1.641 0.024,-0.071 0.832,-2.188 1.809,-4.7 0.972,-2.515 2.519,-6.496 3.418,-8.847 0.91,-2.348 2.179,-5.656 2.824,-7.352 0.652,-1.668 1.211,-3.203 1.242,-3.379 l -0.316,-1.05 -1.426,0.308 c -0.082,0.129 -1.684,3.453 -3.52,7.399 -1.855,3.945 -3.714,7.953 -4.168,8.89 -0.445,0.949 -1.445,3.078 -2.211,4.731 l -1.41,2.992 -0.011,-0.481 c -0.067,-0.968 0.175,-1.996 0.898,-3.867 1.207,-3.137 1.32,-3.984 1.047,-7.394 -0.266,-3.434 0.039,-5.45 1.07,-7.27 0.852,-1.488 0.988,-1.762 1.184,-2.387 0.543,-1.601 0.512,-3.289 -0.078,-4.613 l -1.11,-1.09 -0.918,0.356 -0.039,0.594 c 0.305,0.992 0.356,1.421 0.278,2.058 -0.168,1.227 -0.668,2.356 -1.778,4.106 -0.886,1.39 -1.187,2.043 -1.519,3.253 l -0.274,1.008 0.028,3.012 c 0,1.742 -0.028,3.254 -0.071,3.566 -0.222,1.321 -0.871,3.239 -1.793,5.305 l -0.777,1.848 -0.285,0.652 c -0.024,0 -0.094,-1.332 -0.145,-2.961 -0.175,-5.347 -0.605,-17.242 -0.715,-20.148 -0.089,-2.414 -0.14,-2.899 -0.257,-3.149 l -1.34,-0.437"
         style="fill:#f3ae0d;fill-opacity:1;fill-rule:nonzero;stroke:none"
         id="path20" /><path
         d="m 159.449,179.152 0.574,12.317 0.071,0.621 0.027,-0.59 c 0,-0.32 0.098,-3.125 0.211,-6.25 0.121,-3.113 0.215,-5.781 0.215,-5.941 v -0.27 l 0.43,0.024 0.433,0.023 -0.019,0.715 c -0.004,0.394 -0.094,2.812 -0.176,5.367 -0.094,2.566 -0.25,6.844 -0.328,9.516 -0.399,11.226 -0.43,11.824 -0.567,12.019 l -0.562,0.121 c -0.235,-0.234 -0.25,-0.386 -0.649,-12.051 -0.511,-14.875 -0.539,-15.433 -0.476,-15.585 z m -4.051,-0.695 0.082,1.043 c -0.109,1.93 -0.218,2.379 -1.343,5.082 -0.676,1.645 -0.84,2.383 -0.84,3.828 0.012,1.031 0.109,1.985 0.34,3.031 0.051,0.157 0.066,-0.617 0.066,-1.718 0,-1.356 0.035,-2.157 0.117,-2.496 0.137,-0.645 0.535,-1.649 1.344,-3.442 0.731,-1.586 0.965,-2.265 1.375,-3.863 0.297,-1.203 0.223,-1.113 0.902,-1.059 l 0.2,0.946 c -0.286,0.988 -0.641,1.921 -1.239,3.238 -0.57,1.246 -0.988,2.371 -1.363,3.594 -0.496,1.648 -0.559,2.375 -0.465,4.906 0.082,2.156 0.028,3.176 -0.285,4.402 -0.266,1.055 -0.574,1.715 -1.473,3.145 -0.808,1.277 -1.043,1.715 -1.359,2.558 -0.508,1.36 -0.605,2.586 -0.316,3.461 l -0.032,0.774 c -0.671,0 -1.226,-1.297 -1.23,-2.903 0,-1.289 0.226,-2.136 0.973,-3.453 1.156,-2.078 1.293,-2.461 1.589,-4.25 0.176,-0.875 0.196,-2.758 0.055,-4.277 -0.141,-1.496 -0.125,-3.352 0.035,-4.125 0.164,-0.848 0.352,-1.414 1.047,-3.219 l 0.66,-1.887 0.27,-2.722 v -0.699 l 0.387,0.054 z m 10.102,-0.105 0.051,0.281 0.121,0.707 c 0.047,0.281 0.082,1.543 0.082,2.89 0,3.512 0.223,5.489 0.793,6.961 l 0.965,2.106 c 1.5,3.199 1.746,4.617 1.269,7.348 -0.164,1.043 -0.222,1.605 -0.222,2.585 0,1.825 0.289,2.79 1.086,3.766 l 0.351,0.609 -0.601,0.032 -0.122,-0.043 -1.652,-2.024 c -0.555,-1.254 -0.656,-2.242 -0.43,-4.179 0.188,-1.743 0.145,-2.391 -0.269,-4.075 -0.285,-1.14 -0.617,-1.933 -1.555,-3.726 -1.672,-3.199 -1.82,-3.813 -1.965,-7.344 -0.093,-2.113 -0.168,-2.496 -0.808,-4.226 l -0.285,-1.067 0.871,-0.144 0.8,2.296 c 0.141,0.551 0.196,1.036 0.262,2.891 0.078,3.016 0.227,3.774 1.039,5.371 l 1.262,2.012 -0.344,-0.816 c -0.562,-1.196 -1,-2.403 -1.176,-3.161 -0.097,-0.539 -0.117,-1.164 -0.113,-3.316 0.016,-2.379 0,-2.781 -0.187,-3.898 -0.262,-1.84 -0.282,-1.672 0.222,-1.782 z m 8.191,11.41 c 2.676,7.004 4.903,12.808 4.922,12.91 l -0.312,0.617 c -0.309,0 -0.5,-0.273 -1.133,-1.637 -2.52,-5.367 -3.883,-8.308 -3.898,-8.425 l -0.082,-0.172 c -0.028,-0.024 -1.305,-2.735 -2.84,-6.004 -1.52,-3.27 -3.094,-6.621 -3.485,-7.453 l -0.703,-1.516 0.805,-0.273 5.187,10.839 0.063,0.129 0.238,0.379 c 0.27,0.485 0.485,1.098 -2.375,-6.367 -0.535,-1.387 -1.172,-3.074 -1.437,-3.738 l -0.422,-1.25 -0.09,-0.156 0.207,-0.465 0.394,-0.137 c 0.032,-0.008 2.266,5.723 4.961,12.719 z m -22.046,-12.586 0.316,0.269 c -0.027,0.071 -1.035,2.809 -2.266,6.082 -1.226,3.278 -2.218,5.961 -2.215,5.973 l 0.711,-1.418 c 2.473,-5.293 4.805,-10.242 4.852,-10.281 l 0.766,0.351 c -0.024,0.051 -0.625,1.336 -1.352,2.868 -5.066,10.804 -8.355,17.824 -9.176,19.585 -0.527,1.129 -1.023,2.172 -1.117,2.329 l -0.836,-0.133 c 0,-0.164 1.914,-5.137 7.637,-19.973 0.543,-1.41 1.265,-3.289 1.605,-4.18 l 0.657,-1.621 z m 20.875,-1.922 c 0.433,0.676 1.16,2.187 1.699,3.539 0.832,2.109 1.879,4.016 2.793,5.113 l 1.34,1.367 0.839,0.848 0.047,0.012 2.575,2.719 c 0.761,1.164 0.988,1.695 1.417,3.414 0.528,2.14 0.875,3.007 1.594,4.027 l 1.617,1.469 0.539,0.332 0.024,0.261 -0.582,0.102 c -0.824,0 -2.082,-0.809 -2.938,-1.875 -0.656,-0.805 -1.007,-1.5 -1.418,-2.937 l -0.64,-1.805 -1.469,-2.254 -0.504,-0.633 -0.215,-0.215 -0.664,-0.586 -1.812,-1.586 c -2.274,-1.91 -2.653,-2.421 -4.246,-5.761 -0.789,-1.633 -1.106,-2.098 -2.278,-3.325 l -0.812,-0.851 0.387,-0.27 0.46,-0.23 1.743,1.93 c 0.488,0.66 0.843,1.343 1.425,2.711 0.809,1.886 1.215,2.578 2.122,3.507 l 2.394,1.946 0.492,0.312 -0.668,-0.609 c -2.23,-2.047 -2.648,-2.66 -3.914,-5.805 -0.73,-1.832 -1.273,-2.875 -2.371,-4.527 l -0.144,-0.223 0.359,-0.254 0.457,-0.258 z m -24.266,-0.152 0.375,0.25 -0.137,0.32 -1.504,2.629 -1.39,1.508 c -2.039,1.886 -2.879,3.226 -3.469,5.464 -0.328,1.325 -0.324,1.524 0.035,0.575 l 0.883,-1.981 c 0.609,-1.215 1.242,-2.008 2.355,-3.012 1.375,-1.222 2.274,-2.136 3.075,-3.132 l 1.023,-1.328 0.242,-0.282 0.828,0.524 c 0,0.218 -1.019,1.34 -2.824,3.121 -2.266,2.246 -3.41,3.609 -4.008,4.734 -0.222,0.41 -0.691,1.512 -1.054,2.457 -0.36,0.942 -0.805,2.016 -0.996,2.375 l -1.676,2.418 -1.813,1.34 -0.031,0.016 -0.504,0.468 c -1.172,0.825 -2.285,1.93 -2.812,2.817 l -0.657,1.855 -0.086,0.657 -0.566,-0.325 0.098,-2.281 c 0.429,-1.351 1.297,-2.469 2.707,-3.543 1.187,-0.918 1.863,-1.582 2.468,-2.461 1,-1.469 1.211,-1.902 2.145,-4.613 1.168,-3.328 1.508,-3.859 3.91,-6.34 1.293,-1.328 1.606,-1.781 2.391,-3.363 l 0.582,-1.117 z m 30.496,1.449 c 2.129,2.23 4.348,4.519 4.895,5.094 l 1.972,2.054 c 0.547,0.563 1.832,1.895 2.863,2.965 1.036,1.078 1.965,2.066 2.051,2.184 l 0.364,0.382 1.707,1.747 c 1.242,1.32 1.488,1.617 1.488,1.828 l -0.469,0.351 c -0.172,-0.039 -2.937,-2.457 -4.351,-3.82 l -0.508,-0.473 -1.278,-1.121 c -3.379,-3.074 -6.589,-5.98 -10.445,-9.488 l -4.234,-3.859 0.258,-0.274 0.343,-0.273 c 0.024,0 0.922,0.765 1.977,1.695 5.57,4.996 8.062,7.184 7.726,6.812 -0.207,-0.226 -2.058,-2.167 -4.117,-4.316 -2.047,-2.148 -3.98,-4.152 -4.269,-4.488 l -0.543,-0.574 0.3,-0.235 0.325,-0.238 c 0.035,0 1.812,1.824 3.945,4.047 z m -33.195,-3.797 0.258,0.242 -0.204,0.238 c -0.261,0.282 -2.925,3.114 -3.89,4.133 -3.106,3.274 -4.938,5.219 -4.91,5.235 0.011,0.019 1.66,-1.438 3.648,-3.239 5.16,-4.683 6.082,-5.515 6.156,-5.515 l 0.325,0.277 0.269,0.281 -1.078,0.953 c -0.574,0.536 -1.899,1.723 -2.914,2.649 -4.223,3.824 -5.809,5.265 -9.5,8.629 -2.16,1.933 -4.516,4.078 -5.242,4.742 l -1.684,1.492 -0.855,-0.289 1.398,-1.598 c 1.867,-1.937 5.668,-5.875 14.961,-15.523 1.555,-1.629 2.883,-2.957 2.91,-2.957 z m 31.754,-3.465 0.152,0.145 c 0.164,-0.043 1.523,1.121 2.969,2.535 1.578,1.554 2.156,2.066 3.254,2.898 1.101,0.821 1.886,1.188 4.675,2.192 2.86,1.027 4.176,1.957 5.715,4.019 1.973,2.664 3.758,3.996 5.391,4.008 l 0.23,0.586 c -0.566,0.351 -2.113,0.144 -3.347,-0.453 -0.918,-0.438 -1.711,-1.082 -2.45,-1.973 -1.214,-1.465 -1.531,-1.808 -2.21,-2.301 -1.477,-1.047 -2.586,-1.59 -4.715,-2.273 -3.813,-1.227 -4.477,-1.59 -7.016,-3.914 l -1.398,-1.219 c -0.368,-0.277 -1.602,-0.93 -2.516,-1.336 l -0.734,-0.387 0.515,-0.742 2.735,1.364 1.836,1.574 c 1.796,1.722 2.593,2.293 3.996,2.847 l 2.824,0.762 -1.047,-0.445 c -1.367,-0.531 -2.398,-1.035 -3.059,-1.504 -0.254,-0.188 -1.254,-1.121 -2.23,-2.074 -1.672,-1.649 -2.383,-2.262 -3.758,-3.207 l -0.574,-0.469 0.613,-0.774 z m -34.102,0.289 0.219,0.356 -1.446,1.32 c -0.898,0.715 -1.578,1.098 -3.015,1.672 -2.82,1.144 -3.934,1.906 -5.223,3.558 -1.074,1.407 -1.051,1.454 0.16,0.25 1.766,-1.754 2.364,-2.121 5.223,-3.187 1.664,-0.613 2.727,-1.109 4.09,-1.922 l 0.976,-0.551 0.317,0.403 0.125,0.507 c -0.371,0.282 -2.688,1.356 -3.938,1.813 -1.422,0.531 -3.836,1.703 -4.726,2.308 l -2.02,1.825 c -2.472,2.457 -2.801,2.754 -3.613,3.261 -1.145,0.707 -1.863,0.993 -3.484,1.372 -2.282,0.531 -3.45,1 -4.547,1.8 l -1.211,1.45 -0.578,0.359 c -0.524,-0.641 0.632,-2.555 2.195,-3.598 0.75,-0.511 1.379,-0.777 2.809,-1.172 2.281,-0.636 3.644,-1.48 5.628,-3.496 l 1.313,-1.363 0.766,-0.887 c 1.402,-1.515 2.406,-2.183 5.089,-3.367 l 1.879,-0.898 2.149,-1.719 0.582,-0.449 z m 46.656,1.391 c 4.754,2.105 9.825,4.347 11.27,4.98 1.445,0.637 2.777,1.25 2.965,1.36 l -0.129,0.773 c -0.207,-0.012 -5.664,-1.961 -12.153,-4.32 -6.476,-2.364 -12.347,-4.496 -13.066,-4.77 l -1.191,-0.5 0.062,-0.097 0.254,-0.543 c 0.086,-0.028 9.465,3.226 11.934,4.152 1.285,0.473 0,-0.121 -5.079,-2.375 -3.078,-1.367 -5.796,-2.57 -6.042,-2.676 l -0.434,-0.195 0.168,-0.383 0.156,-0.398 1.324,0.586 c 0.731,0.328 5.203,2.308 9.961,4.406 z m -48.281,-4.625 0.168,0.414 -1.676,0.734 -0.164,0.071 -10.094,4.582 -0.281,0.164 0.227,-0.047 12.367,-4.453 0.223,0.371 0.144,0.367 -0.23,0.086 c -0.207,0.074 -2.688,0.976 -16.789,6.094 -10.43,3.789 -9.657,3.539 -9.93,3.269 -0.391,-0.391 -0.082,-0.574 4.859,-2.75 3.594,-1.586 20.907,-9.238 20.985,-9.277 z m 39.344,-3.891 1.894,0.676 2.004,0.82 c 1.192,0.485 3.418,1.141 4.324,1.274 0.407,0.058 1.5,0.07 3.129,0.035 2.743,-0.059 3.512,0 4.883,0.34 0.992,0.242 1.75,0.597 3.36,1.558 1.91,1.129 3.257,1.59 4.691,1.59 l 1.34,-0.176 0.609,-0.066 -0.027,0.391 c -0.324,0.558 -1.528,0.945 -2.938,0.945 -1.445,0 -2.304,-0.262 -4.183,-1.27 -1.196,-0.648 -1.731,-0.851 -2.969,-1.097 -1.184,-0.235 -2.551,-0.328 -3.824,-0.25 -0.598,0.043 -1.903,0.093 -2.891,0.129 -2.211,0.062 -2.797,-0.024 -4.711,-0.672 -1.351,-0.477 -3.058,-1.051 -3.269,-1.121 -0.188,-0.059 -0.438,-0.079 -1.746,-0.141 l -1.489,-0.094 -0.265,-0.031 0.093,-0.465 0.098,-0.465 h 0.504 l 2.934,0.336 2.195,0.762 2.301,0.809 c 1.367,0.359 3.043,0.351 4.937,-0.008 0.516,-0.11 0.43,-0.114 -1.289,-0.114 -2.562,0 -2.941,-0.078 -5.922,-1.367 -1.894,-0.804 -3.277,-1.254 -5.191,-1.636 l -0.129,-0.43 0.098,-0.512 c 0.05,-0.148 0.25,-0.109 1.449,0.25 z m -40.317,0.285 0.055,0.352 -0.734,0.265 c -1.696,0.61 -2.129,0.688 -4.629,0.762 -2.563,0.078 -3.387,0.188 -4.457,0.586 l -0.856,0.277 -0.152,0.063 -0.512,0.332 -1.586,0.969 c 0,0.039 0.035,0.023 1.317,-0.531 0.937,-0.418 2.199,-0.825 2.898,-0.934 0.289,-0.051 1.731,-0.098 3.188,-0.098 2.207,0 2.886,-0.027 3.984,-0.168 l 1.582,-0.207 0.367,0.446 0.059,0.492 c -0.113,0.125 -1.731,0.219 -4.578,0.281 -4.711,0.09 -5.442,0.211 -8.035,1.348 -2.946,1.312 -3.766,1.574 -5.43,1.757 -0.883,0.102 -0.996,0.094 -2.742,-0.16 -1.93,-0.273 -3.278,-0.332 -4.262,-0.168 l -2.047,0.715 -0.488,0.324 -0.156,0.141 -0.161,0.152 -0.25,-0.125 0.59,-1.183 c 0.578,-0.539 1.211,-0.887 2.137,-1.188 1.043,-0.359 1.937,-0.437 3.234,-0.308 2.078,0.226 2.25,0.23 3.235,0.09 1.91,-0.282 2.925,-0.622 5.304,-1.782 3.395,-1.66 3.903,-1.777 7.938,-1.961 1.91,-0.074 2.496,-0.199 4.273,-0.867 z m 53.996,-3.625 c 9.778,0.332 13.262,0.485 13.43,0.563 l 0.012,0.66 c -0.285,0.133 -0.508,0.148 -8.074,0.387 -7.524,0.238 -18.813,0.609 -19.727,0.644 l -0.641,0.02 0.012,-0.422 0.004,-0.41 5.086,-0.231 c 2.777,-0.121 5.824,-0.242 6.734,-0.277 0.907,-0.035 1.641,-0.078 1.618,-0.094 -0.016,-0.023 -7.645,-0.301 -11.52,-0.426 l -1.961,-0.054 v -0.422 -0.426 l 0.906,0.027 c 0.508,0.012 6.844,0.223 14.121,0.461 z m -54.187,-0.086 v 0.438 l -6.816,0.281 c -3.766,0.152 -6.84,0.289 -6.848,0.313 l 0.117,0.023 13.426,0.473 0.121,0.429 v 0.403 l -0.699,-0.024 c -0.375,-0.008 -6.727,-0.23 -14.086,-0.476 -7.375,-0.258 -13.481,-0.496 -13.59,-0.543 l 0.082,-0.746 c 0.164,-0.055 4.535,-0.231 9.754,-0.387 9.535,-0.309 18.355,-0.602 18.465,-0.621 z m 66.609,-8.625 c 0.235,0.629 -0.914,1.703 -2.398,2.274 -1.293,0.476 -2.289,0.554 -4.5,0.312 -1.215,-0.133 -1.371,-0.133 -2.262,0 -1.984,0.285 -2.847,0.582 -5.679,1.934 -1.016,0.473 -2.024,0.949 -2.29,1.043 -1.203,0.473 -2.304,0.629 -5.328,0.758 -1.64,0.078 -1.816,0.105 -2.726,0.367 l -1.653,0.551 -0.683,0.254 -0.09,-0.461 0.016,-0.539 2.789,-0.864 c 0.429,-0.078 1.429,-0.144 2.722,-0.16 1.145,-0.039 2.301,-0.101 2.621,-0.141 1.247,-0.191 2.848,-0.851 4.239,-1.761 l 0.609,-0.426 -0.633,0.285 -2.836,1.11 c -0.761,0.23 -0.765,0.23 -4.152,0.292 -2.512,0.047 -3.637,0.094 -4.289,0.204 l -1.184,0.164 -0.3,0.035 -0.098,-0.473 -0.074,-0.488 c 0.136,-0.133 1.695,-0.227 4.597,-0.289 5.121,-0.098 5.289,-0.129 9.063,-1.805 l 2.066,-0.828 c 1.723,-0.539 3.305,-0.633 5.145,-0.297 0.918,0.16 1.414,0.199 2.679,0.199 1.364,0 1.637,-0.015 2.207,-0.183 l 1.778,-0.891 0.519,-0.39 z m -90.238,-0.164 c 0.774,0.071 1.805,0.465 3.106,1.157 1.406,0.75 2.074,0.984 3.527,1.234 1.23,0.211 2.816,0.226 4.742,0.086 1.617,-0.133 3.383,-0.113 4.16,0.027 0.848,0.172 2,0.531 3.547,1.113 1.535,0.575 2.082,0.692 3.652,0.747 l 1.391,0.101 0.176,0.035 -0.039,0.461 -0.102,0.469 -1.105,-0.059 c -1.684,-0.082 -2.555,-0.277 -4.383,-1.007 l -2.41,-0.864 c -1.098,-0.289 -2.543,-0.34 -3.875,-0.152 -1.684,0.242 -1.645,0.269 0.242,0.269 2.535,0 2.922,0.102 5.883,1.375 1.683,0.723 2.871,1.125 4.551,1.5 l 0.82,0.188 -0.055,0.379 -0.254,0.613 c -0.398,0 -2.543,-0.722 -4.078,-1.398 -1.512,-0.641 -2.605,-1.039 -4.105,-1.438 l -1.117,-0.304 -3.399,-0.012 c -3.195,-0.016 -3.457,-0.02 -4.223,-0.195 -1.597,-0.364 -1.914,-0.504 -4.101,-1.786 -2.332,-1.382 -4.399,-1.847 -5.887,-1.336 l -0.613,-0.285 c 0.273,-0.461 1.113,-0.855 2.183,-0.968 0.586,-0.059 0.766,-0.055 1.766,0.05 z m 87.656,-8.222 c 0.36,0.363 0.047,0.578 -2.484,1.695 -5.473,2.422 -7.672,3.398 -10.629,4.691 -1.734,0.758 -4.117,1.809 -5.281,2.332 -6.633,2.93 -7.399,3.258 -7.473,3.184 l -0.191,-0.375 -0.133,-0.305 3.492,-1.574 c 6.82,-3.074 8.484,-3.848 8.465,-3.879 -0.02,-0.015 -2.109,0.727 -9.766,3.512 -1.425,0.516 -2.582,0.891 -2.625,0.851 l -0.195,-0.375 0.105,-0.386 c 0.497,-0.188 6.536,-2.383 15.872,-5.762 5.418,-1.98 9.945,-3.621 10.054,-3.656 z m -84,1.414 c 2.227,0.816 8.016,2.918 12.832,4.672 4.809,1.753 8.844,3.234 8.989,3.289 l 0.23,0.101 -0.152,0.352 -0.239,0.355 c -0.039,0 -2.832,-0.98 -6.218,-2.176 -3.391,-1.191 -6.172,-2.168 -6.192,-2.156 -0.004,0.02 2.645,1.219 5.907,2.656 3.269,1.446 5.98,2.645 6.043,2.688 l -0.063,0.398 -0.227,0.36 c -0.062,0 -3.425,-1.481 -7.5,-3.278 -4.082,-1.8 -8.843,-3.918 -10.597,-4.687 -1.754,-0.785 -4.02,-1.777 -5.043,-2.231 -2.379,-1.058 -2.59,-1.16 -2.692,-1.414 l -0.007,-0.222 0.031,-0.071 0.496,-0.144 c 0.187,0.008 2.156,0.691 4.402,1.508 z m 51.715,19.238 -0.762,0.645 -2.093,1.371 c -0.61,0.199 -0.797,0.222 -1.981,0.226 -1.289,0 -1.289,0 -1.836,-0.265 l -1.476,-1.02 c -1.055,-0.855 -1.387,-1.004 -1.68,-0.809 l -0.18,0.317 0.426,0.238 1.735,0.945 c 1.101,0.809 1.8,1.059 3.082,1.059 1.636,0 3.164,-0.582 4.285,-1.633 z m -24.586,0.027 c -0.168,0.278 1,1.407 1.961,1.91 0.965,0.493 1.684,0.692 2.715,0.747 1.535,0.074 2.184,-0.114 3.469,-1.071 1.019,-0.738 1.219,-0.832 1.722,-0.91 l 0.403,-0.238 -0.188,-0.317 -0.566,0.024 -1.121,0.801 c -1.379,1.168 -2.266,1.453 -3.942,1.297 -1.504,-0.145 -2.632,-0.692 -3.507,-1.696 z m 21.508,-0.601 0.981,0.785 -1.899,1.199 0.109,-0.277 0.161,-1.797 z m -2.969,-0.289 -0.109,1.914 0.07,0.265 -1.5,-0.859 0.082,-0.895 1.766,-0.792 z m -0.343,-0.336 c -1.036,0.187 -1.84,0.523 -2.192,0.91 l -0.183,0.211 0.496,0.441 c 1.019,0.934 1.949,1.332 3.195,1.399 0.961,0.043 1.594,-0.094 2.566,-0.567 l 1.629,-1.16 -1.519,-0.855 c -1.328,-0.469 -2.789,-0.594 -3.992,-0.379 z m -14.207,0.535 0.148,1.797 0.105,0.277 -1.898,-1.262 0.902,-0.668 z m 2.917,-0.234 1.239,0.871 -0.305,0.468 -1.492,0.875 0.07,-0.281 -0.172,-1.992 c -0.386,-0.344 -0.336,-0.336 0.66,0.059 z m -2.832,-0.293 c -0.937,0.171 -2.015,0.546 -2.523,0.89 l -0.418,0.336 1.641,1.16 c 0.918,0.453 1.66,0.614 2.597,0.567 1.207,-0.071 2.141,-0.481 3.157,-1.399 l 0.507,-0.441 -0.207,-0.211 c -0.711,-0.77 -3.004,-1.207 -4.754,-0.902 z m 13.68,-1.012 -1.574,0.707 -1.078,1.09 c 0.082,0.14 0.301,0.054 1.316,-0.516 1.328,-0.726 1.996,-0.926 3.141,-0.926 1.078,0.004 1.996,0.219 3.347,0.778 1.122,0.465 1.133,0.465 0.852,0.218 -1.473,-1.285 -4.227,-1.906 -6.004,-1.351 z m -13.637,-0.067 c -1.058,0.219 -2.343,0.825 -3.015,1.418 -0.293,0.247 -0.278,0.247 0.797,-0.207 1.961,-0.832 3.632,-1.019 4.98,-0.57 l 1.426,0.649 c 0.992,0.574 1.309,0.699 1.418,0.589 l -0.234,-0.437 c -0.696,-0.719 -1.801,-1.317 -2.801,-1.496 z m 9.938,-2.679 c -0.426,0.976 -0.781,2.187 -0.93,3.121 -0.133,0.984 -0.047,2.945 0.188,3.859 0.289,1.235 0.359,1.364 0.937,1.742 1.281,0.836 2.496,1.336 3.692,1.539 l 3.234,-0.171 c 1.266,-0.364 2.852,-1.321 3.77,-2.293 l 0.484,-0.426 v -0.031 l 0.137,-0.297 0.175,-0.242 -0.175,0.085 -0.746,0.489 -0.668,0.398 -0.114,0.059 -1.851,1.004 c -1.16,0.476 -1.852,0.613 -3.141,0.621 -0.976,0.008 -1.277,-0.031 -1.82,-0.196 -1.332,-0.375 -2.598,-1.128 -2.965,-1.726 -0.828,-1.434 -1.074,-3.289 -0.621,-5.047 l 1.277,-2.574 0.242,-0.399 -0.402,-0.164 -0.309,-0.168 z m -3.977,-0.649 -0.398,0.164 0.254,0.407 c 0.441,0.472 1.031,1.664 1.285,2.566 l 0.184,1.813 c 0,1.011 -0.024,1.199 -0.235,1.847 -0.488,1.492 -0.82,1.899 -2.133,2.555 -1.277,0.637 -2.289,0.855 -3.636,0.769 -1.739,-0.113 -3.407,-0.753 -5.469,-2.148 l -0.551,-0.133 c 0.586,0.805 1.715,1.731 2.817,2.289 1.179,0.621 2.175,0.856 3.472,0.856 1.727,0 3.176,-0.469 4.934,-1.614 l 0.726,-0.98 c 0.621,-1.898 0.621,-4.297 0,-6.309 l -0.953,-2.25 z m -1.511,-2.523 c -0.93,0.414 -1.274,1.558 -0.661,2.215 l 1.004,0.472 -0.082,-0.171 -0.648,-0.817 0.531,-0.824 1.492,0.492 0.145,0.32 0.094,-0.25 1.074,-0.976 1.887,0.039 1.078,1.086 0.16,-0.199 1.379,-0.555 0.496,0.461 -0.559,1.254 -0.265,0.136 0.238,0.004 1.008,-0.472 -0.051,-1.762 -1.859,-0.488 -0.414,0.152 -0.145,0.094 -0.344,-0.02 c -1.117,-0.449 -2.316,-0.468 -3.273,-0.047 l -0.84,-0.089 z m 4.98,-5.641 0.715,0.324 1.711,1.129 0.433,0.145 0.618,0.027 0.394,0.047 -0.355,0.219 -0.231,0.113 -0.351,0.332 -2.012,1.051 -1.266,-0.168 -0.777,-0.262 -0.773,0.262 -1.305,0.156 -2.008,-1.039 -0.777,-0.594 0.281,-0.109 0.254,0.066 -0.203,0.083 1.433,0.23 c 1.368,0.23 1.379,0.23 1.852,0.074 l 2.086,-0.082 c 0.629,0.184 1.203,0.188 2.265,0.02 1.508,-0.262 1.543,-0.282 0.348,-0.282 -0.937,0 -1.238,-0.039 -2,-0.222 -1.133,-0.297 -1.793,-0.305 -2.894,-0.024 -1.047,0.274 -2.551,0.375 -2.551,0.188 l 0.277,-0.172 1.567,-0.957 1.429,-0.66 z m -4.051,-3.238 c 0.118,0.914 0.852,1.887 1.672,2.23 l 0.367,0.215 0.145,0.004 0.082,0.051 -0.367,0.105 -1.996,1.168 -1.602,0.887 -0.523,0.133 0.121,0.297 1.109,0.91 c 1.047,0.949 1.473,1.16 2.285,1.16 l 1.117,-0.191 0.481,-0.188 0.559,0.192 2.156,-0.012 1.215,-0.926 1.129,-0.941 0.335,-0.231 -0.234,-0.082 -0.32,-0.09 -0.684,-0.171 -0.855,-0.528 c -0.918,-1.004 -1.321,-1.285 -2.024,-1.367 l -0.511,-0.191 1.39,-0.766 0.207,-0.113 0.051,-0.028 0.238,-0.613 0.321,-0.914 0.043,-0.383 -0.2,0.481 c -0.402,0.976 -1.168,1.597 -2.257,1.82 l -1.918,-0.293 -1.407,-1.57 -0.183,-0.438 z m 5.403,-4.234 1.152,0.152 3.105,0.852 c 0.973,0.351 2.684,1.167 3.192,1.503 l 0.695,0.469 0.281,0.278 0.008,0.015 0.867,0.516 0.129,0.101 3.262,3.125 c 0.77,1.008 1.563,2.196 1.535,2.258 l 0.028,0.074 c 0.125,0 1.152,2.141 1.511,3.125 1.289,3.555 1.383,7.938 0.242,11.473 l -0.898,2.266 -0.07,0.109 -0.895,1.75 -0.836,1.25 c -0.66,0.953 -2.359,2.789 -3.386,3.598 -1.582,1.289 -3.786,2.535 -5.665,3.226 -3.597,1.332 -7.902,1.531 -11.691,0.547 -1.144,-0.289 -2.383,-0.742 -2.383,-0.855 l -0.125,-0.043 -2.703,-1.309 -0.816,-0.562 c -0.93,-0.567 -1.52,-1.047 -2.59,-2.09 -1.024,-0.981 -1.754,-1.84 -2.192,-2.52 l -0.546,-0.804 c -0.871,-1.141 -1.95,-3.563 -2.442,-5.485 -0.914,-3.562 -0.64,-7.637 0.719,-11.082 0.398,-1.031 1.312,-2.773 1.707,-3.305 l 0.75,-1.046 3.109,-3.309 c 0.789,-0.648 2.606,-1.836 3.532,-2.313 3.468,-1.777 7.671,-2.503 11.414,-1.964 z m -40.075,-7.102 c 1.469,0.371 2.665,1.188 3.79,2.566 1.296,1.582 1.992,2.18 3.609,3.122 0.801,0.46 1.715,0.82 3.824,1.515 3.379,1.121 4.02,1.488 6.574,3.867 1.118,1.047 1.934,1.575 3.496,2.289 l 0.997,0.504 -0.215,0.399 c -0.262,0.398 -0.262,0.398 -1.438,-0.164 -1.461,-0.7 -2.074,-1.117 -3.402,-2.407 -2.324,-2.238 -3.285,-2.796 -5.891,-3.429 l -0.965,-0.203 1.036,0.449 c 1.39,0.523 2.417,1.023 3.07,1.508 0.254,0.183 1.238,1.093 2.187,2.035 1.731,1.719 2.321,2.219 3.614,3.101 l 0.718,0.582 -0.539,0.797 c -0.191,0 -2.105,-1.664 -3.535,-3.047 -2.621,-2.578 -3.918,-3.48 -6.137,-4.296 l -1.964,-0.731 c -1.61,-0.59 -2.868,-1.301 -3.864,-2.172 l -1.398,-1.785 -0.031,-0.031 -0.446,-0.461 -2.316,-2.375 c -0.945,-0.68 -1.863,-1.043 -2.629,-1.043 l -0.566,-0.219 0.429,-0.433 z m 77.129,-0.383 c 0.325,0.656 -0.597,2.242 -1.863,3.215 -0.836,0.641 -1.734,1.051 -3.191,1.449 -1.446,0.407 -2.141,0.711 -3.364,1.516 -1.078,0.73 -1.882,1.492 -3.566,3.379 -2.141,2.383 -2.742,2.816 -5.707,4.137 -0.961,0.421 -1.844,0.843 -1.977,0.921 l -1.996,1.594 -0.765,0.688 -0.27,-0.375 -0.246,-0.434 1.656,-1.473 c 0.856,-0.621 1.496,-0.968 2.789,-1.484 2.891,-1.156 4.082,-2.012 5.512,-3.941 0.82,-1.094 0.77,-1.082 -0.398,0.086 -1.789,1.777 -2.473,2.207 -5.262,3.23 -1.68,0.617 -2.797,1.141 -4.113,1.934 l -0.961,0.539 -0.496,-0.789 c 0,-0.18 2.351,-1.336 3.855,-1.879 1.438,-0.528 3.789,-1.668 4.734,-2.278 0.493,-0.308 1.18,-0.941 2.489,-2.242 2.093,-2.105 2.48,-2.445 3.539,-3.082 1.051,-0.621 1.605,-0.836 3.109,-1.18 2.332,-0.531 3.664,-1.078 4.75,-1.937 l 1.094,-1.289 z m -5.445,-6.777 c 0.023,0.351 0.133,0.23 -4.922,5.492 -2.344,2.426 -5.222,5.399 -6.387,6.621 -2.378,2.481 -5.816,6.051 -7.078,7.363 l -0.929,0.86 -0.332,-0.242 -0.223,-0.254 0.305,-0.356 c 0.324,-0.359 5.172,-5.504 6.449,-6.871 2.351,-2.472 2.64,-2.812 1.383,-1.672 -3.282,2.996 -8.762,7.946 -8.848,8.012 l -0.41,-0.215 -0.285,-0.285 2.445,-2.227 c 1.332,-1.23 3.672,-3.332 5.168,-4.691 1.512,-1.363 3.543,-3.207 4.527,-4.113 1,-0.899 2.352,-2.129 3.028,-2.742 l 2.808,-2.555 c 2.555,-2.32 2.699,-2.438 3.008,-2.41 z m -67.465,-0.192 c 0.098,0.055 1.977,1.731 4.153,3.704 2.183,1.988 5.675,5.152 7.746,7.043 2.086,1.886 4.203,3.82 4.699,4.277 l 2.453,2.23 1.539,1.383 -0.269,0.274 -0.336,0.273 c -0.051,0 -0.938,-0.769 -1.985,-1.695 -1.051,-0.938 -3.129,-2.793 -4.613,-4.133 -1.512,-1.332 -2.883,-2.555 -3.082,-2.719 l -0.32,-0.304 0.281,0.339 1.301,1.387 c 0.562,0.574 1.828,1.883 2.808,2.93 0.988,1.043 2.262,2.363 2.809,2.937 l 1.519,1.574 0.493,0.532 -0.258,0.254 -0.352,0.242 c -0.078,0 -1.379,-1.344 -5.762,-5.918 -2.703,-2.824 -11.859,-12.363 -12.761,-13.317 l -0.766,-1.089 0.07,-0.289 z m 7.688,-5.269 c 1.074,0.437 2.316,1.609 2.961,2.812 l 0.664,1.848 0.726,1.973 c 0.699,1.418 2.051,2.976 4.028,4.613 2.746,2.305 2.988,2.633 4.476,5.613 1.192,2.426 1.442,2.793 2.789,4.164 l 0.629,0.645 -0.379,0.262 -0.445,0.261 -1.727,-1.89 c -0.535,-0.719 -0.808,-1.239 -1.488,-2.789 l -0.984,-2.047 c -0.68,-1.153 -2.059,-2.473 -3.508,-3.375 l -0.5,-0.313 0.656,0.61 c 2.086,1.871 2.766,2.843 3.668,5.144 0.813,2.149 1.207,2.942 2.227,4.539 l 0.441,0.914 -0.07,0.028 -0.688,0.433 c -0.207,0 -1.254,-2.047 -2.019,-3.976 -0.774,-1.957 -1.864,-3.965 -2.707,-4.996 -0.508,-0.618 -0.813,-0.911 -2.063,-2.02 -1.867,-1.652 -2.969,-3.004 -3.601,-4.363 l -0.653,-2.184 -0.75,-2.375 c -0.59,-1.429 -1.515,-2.554 -2.492,-3.023 l -0.445,-0.586 z m 52.105,-0.301 c 0.375,0.66 0.094,2.367 -0.574,3.481 -0.668,1.113 -1.145,1.609 -2.602,2.707 -1.902,1.441 -3.007,3.222 -4.242,6.785 -1.082,3.14 -1.496,3.836 -3.828,6.258 -1.359,1.418 -1.664,1.839 -2.422,3.41 -0.527,1.066 -0.652,1.246 -0.762,0.988 l -0.109,-0.098 -0.281,-0.152 -0.238,-0.176 0.421,-0.879 c 0.747,-1.496 1.266,-2.179 2.743,-3.656 1.906,-1.89 2.468,-2.695 3.058,-4.379 l 0.543,-2.355 -0.051,0.066 -1.082,2.68 c -0.66,1.34 -1.203,1.996 -3.421,4.027 -1.059,0.981 -1.79,1.785 -2.708,3.028 l -0.839,0.589 -0.082,-0.054 -0.5,-0.328 c 0,-0.207 1.211,-1.528 3.089,-3.395 3.012,-2.973 3.614,-3.836 4.723,-6.723 0.762,-1.984 1.27,-3.058 1.867,-3.89 0.727,-1 1.227,-1.473 2.571,-2.426 1.203,-0.855 2.394,-1.84 2.519,-2.102 l 0.188,-0.074 0.035,-0.019 0.121,-0.25 1.07,-1.836 0.172,-0.832 0.063,-0.52 z m -7.836,-4.519 0.094,0.328 c 0,0.105 -1.906,5.133 -4.25,11.187 -2.328,6.059 -4.547,11.789 -4.91,12.77 -0.391,0.965 -0.695,1.781 -0.715,1.789 l -0.406,-0.117 -0.352,-0.285 c 0.012,-0.075 1.047,-2.809 2.266,-6.083 1.226,-3.269 2.222,-5.957 2.215,-5.972 l -0.407,0.746 c -0.343,0.762 -3,6.445 -4.406,9.426 l -0.75,1.527 -0.754,-0.352 c 0.024,-0.05 0.801,-1.722 1.727,-3.695 0.922,-1.988 2.613,-5.578 3.726,-7.984 5.258,-11.246 6.188,-13.168 6.368,-13.309 z m -36.508,0.019 c 0.098,0.098 2.586,5.363 5.536,11.684 2.968,6.316 5.574,11.898 5.796,12.402 l 0.438,0.926 -0.641,0.246 c -0.172,0.031 -0.414,-0.445 -2.64,-5.094 -2.321,-4.859 -3.258,-6.758 -3.129,-6.39 0.023,0.097 0.558,1.531 1.207,3.195 2.363,6.172 3.254,8.473 3.297,8.652 l -0.321,0.317 -0.406,0.117 c -0.023,-0.008 -0.465,-1.141 -0.973,-2.492 -0.531,-1.356 -0.98,-2.551 -1.011,-2.649 l -7.844,-20.496 z m 8.629,-2.543 1.403,1.512 c 0.625,1.16 0.957,2.711 0.812,3.949 -0.316,2.578 -0.293,2.981 0.141,4.735 0.285,1.195 0.586,1.921 1.746,4.195 0.543,1.113 1.117,2.332 1.25,2.711 0.32,0.976 0.457,2.062 0.512,3.871 0.066,2.32 0.238,3.121 0.933,4.855 l -0.304,0.965 -0.387,0.035 -0.34,-0.976 c -0.613,-1.668 -0.629,-1.778 -0.707,-4.223 -0.082,-3 -0.238,-3.75 -1.051,-5.351 l -1.238,-2.012 0.457,1.09 c 1.082,2.355 1.207,3.007 1.144,5.875 -0.035,2.113 0.047,3.441 0.329,5.101 l 0.105,0.809 -0.992,0.113 c -0.164,-0.234 -0.278,-2.125 -0.293,-4.539 -0.039,-4.352 -0.262,-5.449 -1.758,-8.406 -0.922,-1.852 -1.383,-3.434 -1.461,-4.949 -0.035,-0.762 0,-1.164 0.207,-2.309 0.172,-1.105 0.231,-1.641 0.231,-2.641 -0.012,-1.824 -0.278,-2.789 -1.086,-3.765 l -0.34,-0.602 z m 18.594,-0.078 c 0.727,0.57 1.059,2.738 0.66,4.301 -0.222,0.844 -0.394,1.207 -1.136,2.543 -1.032,1.797 -1.399,3.285 -1.399,5.652 l 0.098,2.223 c 0.097,1.117 0.097,3.332 0,3.945 -0.16,0.801 -0.407,1.567 -1.09,3.395 -0.723,1.89 -0.801,2.281 -0.902,4.164 l -0.153,1.121 -0.496,-0.059 -0.398,-0.043 v -0.476 l 0.359,-2.934 0.746,-1.98 c 0.852,-2.024 1.176,-3.223 1.176,-4.45 l -0.363,-2.961 c -0.086,-0.394 -0.102,-0.234 -0.071,1.25 0.047,2.614 -0.09,3.208 -1.394,5.985 -0.68,1.445 -1.231,3 -1.543,4.394 l -0.363,0.848 -0.864,-0.187 0.754,-2.489 0.738,-1.683 c 0.536,-1.16 1.153,-2.813 1.465,-4.024 0.309,-1.172 0.375,-2.121 0.301,-4.32 -0.133,-3.703 0.18,-5.094 1.652,-7.379 1.09,-1.727 1.551,-2.707 1.825,-3.969 l -0.078,-2.386 0.062,-0.649 z m -9.004,-1.008 c 0.145,0.188 0.176,0.504 0.262,2.555 0.117,3.363 0.34,9.336 0.613,17.836 0.121,3.246 0.227,6.215 0.231,6.578 l 0.019,0.672 -0.433,0.031 -0.43,-0.168 c 0,-0.105 -0.094,-2.254 -0.215,-4.773 -0.113,-2.516 -0.211,-4.672 -0.207,-4.782 l -0.215,-3.335 -0.043,0.535 c 0,0.32 -0.09,3.148 -0.207,6.293 -0.113,3.125 -0.211,5.816 -0.211,5.972 v 0.27 h -0.437 -0.453 l 0.023,-0.606 c 0.02,-0.339 0.121,-3.304 0.242,-6.609 0.781,-22.492 0.672,-20.234 0.903,-20.52 z m -0.75,-0.613 c -0.523,0.363 -0.566,0.602 -0.668,4.137 -0.074,2.718 -0.113,3.566 -0.215,5.965 -0.019,0.519 -0.156,4.402 -0.289,8.628 -0.14,4.219 -0.285,7.887 -0.316,8.137 l -0.035,0.469 -0.203,-0.539 c -0.5,-1.317 -0.598,-1.942 -0.696,-4.16 -0.148,-3.219 -0.258,-3.637 -1.867,-6.844 -1.172,-2.344 -1.445,-3.016 -1.715,-4.191 -0.277,-1.204 -0.336,-2.391 -0.172,-3.641 0.219,-1.621 0.172,-2.457 -0.214,-3.656 -0.43,-1.328 -1.356,-2.645 -2.137,-3.024 l -1.598,0.301 0.442,1.027 0.925,1.965 c 0.172,0.801 0.11,2.762 -0.132,4.051 -0.258,1.441 -0.297,2.207 -0.133,3.309 0.199,1.324 0.515,2.277 1.496,4.359 1.527,3.309 1.644,3.914 1.68,9.211 0.015,1.156 0,2.086 -0.036,2.047 -0.023,-0.031 -0.773,-1.621 -1.66,-3.531 -0.898,-1.915 -1.793,-3.84 -2.015,-4.286 -0.192,-0.437 -0.743,-1.621 -1.223,-2.64 -2.32,-4.969 -5.684,-12.157 -5.891,-12.598 l -0.476,-0.676 -1.129,-0.199 -0.406,1.027 c 0.015,0.223 0.503,1.594 1.128,3.235 0.614,1.562 2.239,5.797 3.629,9.429 1.391,3.618 2.907,7.543 3.356,8.719 1.305,3.395 1.371,3.535 1.328,3.574 l -1.539,-1.734 -0.836,-1.672 c -1.504,-3.25 -1.93,-3.804 -4.566,-6.043 -1.844,-1.562 -2.805,-2.527 -3.508,-3.582 -0.696,-1.012 -0.949,-1.574 -1.364,-2.984 -0.363,-1.27 -0.593,-1.785 -1.074,-2.535 -0.968,-1.512 -2.707,-2.731 -3.883,-2.731 l -1.168,0.852 0.942,0.89 c 0.769,0.399 1.355,1.067 1.894,2.118 0.477,0.906 0.723,1.648 1.11,3.277 0.414,1.742 1.113,3.121 2.293,4.453 l 2.066,2 c 1.742,1.578 2.231,2.133 2.981,3.457 0.695,1.203 1.062,1.981 1.714,3.606 l 0.864,1.964 0.133,0.493 -4.977,-4.5 c -1.371,-1.262 -2.164,-1.969 -6.309,-5.731 -2.074,-1.894 -4.707,-4.281 -5.855,-5.32 -1.133,-1.039 -2.188,-1.965 -2.332,-2.051 l -1.262,0.027 -0.129,1.141 c 0.121,0.227 1.582,1.809 3.59,3.922 1.863,1.941 4.383,4.558 5.574,5.808 1.2,1.243 3.028,3.149 4.071,4.235 1.043,1.082 2.394,2.484 2.996,3.109 1.972,2.039 2.41,2.52 2.355,2.52 l -2.301,-1.196 -1.371,-1.218 c -2.617,-2.368 -3.265,-2.739 -6.879,-3.907 -3.433,-1.105 -5.003,-2.058 -6.578,-3.992 -0.961,-1.195 -1.363,-1.574 -2.132,-2.097 -1.114,-0.762 -2.415,-1.188 -3.622,-1.196 -0.968,-0.008 -1.55,0.254 -1.757,0.821 l 0.109,0.664 0.883,0.297 c 1.746,0.195 3.054,1.156 4.949,3.664 1.93,2.543 2.984,3.242 7.199,4.757 2.664,0.961 3.531,1.559 6.574,4.532 l 1.872,1.754 0.285,0.273 c -0.024,0.031 -5.75,-2.043 -17.215,-6.23 -8.301,-3.028 -7.918,-2.899 -8.402,-2.825 l -0.774,0.805 0.856,1.082 c 0.398,0.195 4.476,2.004 11.082,4.93 1.027,0.449 4.406,1.937 7.515,3.312 3.125,1.371 5.699,2.539 5.754,2.582 l -2.191,-0.152 -1.664,-0.496 c -3.301,-1.266 -4.676,-1.504 -7.231,-1.309 -2.441,0.188 -4.113,0.211 -5.101,0.043 -1.832,-0.269 -2.219,-0.418 -4.5,-1.609 -1.352,-0.699 -2.157,-0.895 -3.723,-0.895 -1.063,0.004 -1.25,0.028 -1.856,0.227 l -0.996,0.465 -0.433,1.562 1.234,0.031 1.414,-0.128 c 1.348,0.066 2.446,0.5 4.746,1.867 1.321,0.777 1.918,1.035 3.231,1.359 0.879,0.219 0.902,0.223 4.312,0.223 l 3.438,0.015 0.933,0.231 c 1.391,0.363 2.696,0.801 4.235,1.453 l 2.054,0.82 0.747,0.309 -0.915,0.07 -1.128,0.039 c -0.09,0.016 -1.125,0.043 -2.317,0.078 -1.199,0.028 -2.617,0.075 -3.152,0.094 -0.524,0.024 -4.531,0.16 -8.891,0.293 -9.984,0.309 -10.179,0.316 -10.574,0.481 v 1.675 c 0.32,0.133 1.035,0.16 15.5,0.649 2.016,0.07 4.805,0.172 6.191,0.215 1.391,0.043 2.844,0.101 3.243,0.121 l 1.648,0.043 0.941,0.078 -2.515,0.762 -2.149,0.125 c -3.187,0.085 -4.144,0.332 -7.168,1.816 -2.324,1.137 -3.14,1.441 -4.711,1.746 -1.089,0.211 -2.058,0.223 -3.66,0.031 -1.008,-0.101 -1.359,-0.121 -1.992,-0.039 -2.535,0.313 -4.726,1.766 -4.726,3.141 l 0.253,0.582 0.559,0.203 0.695,-0.391 2.215,-0.957 c 1.071,-0.199 1.891,-0.16 3.824,0.118 2.016,0.289 2.731,0.32 4.032,0.089 1.195,-0.203 2.215,-0.55 4.191,-1.433 3.109,-1.379 3.762,-1.512 8.453,-1.574 1.715,-0.036 3.094,-0.036 3.059,0 -0.035,0.027 -2.485,1.113 -5.434,2.414 -5.594,2.457 -7.457,3.289 -12.457,5.5 -1.637,0.726 -3.586,1.578 -4.281,1.882 -2.274,0.989 -2.481,1.141 -2.578,1.743 l 1.144,0.921 c 0.223,-0.023 2.891,-0.941 6.172,-2.136 10.68,-3.867 19.27,-6.996 19.403,-7.035 l -1.434,1.293 -1.981,1.019 c -3.355,1.488 -3.953,1.902 -6.304,4.535 -1.524,1.723 -2.297,2.442 -3.348,3.145 -1.144,0.777 -1.851,1.078 -3.238,1.457 -2.102,0.57 -3.469,1.387 -4.508,2.656 l -0.945,2.586 0.765,0.719 0.875,-0.735 c 0.442,-0.871 1.395,-1.648 2.692,-2.203 0.781,-0.328 1.39,-0.508 3.265,-0.957 1.399,-0.332 2.231,-0.703 3.493,-1.531 0.656,-0.438 1.203,-0.953 2.8,-2.547 1.426,-1.43 2.157,-2.105 2.618,-2.406 0.937,-0.606 3.046,-1.621 4.394,-2.125 l 2.102,-0.848 0.91,-0.402 -0.512,0.523 c -0.269,0.289 -1.461,1.528 -2.629,2.746 -1.176,1.223 -2.637,2.754 -3.269,3.399 -0.629,0.652 -2.043,2.121 -3.149,3.269 -1.109,1.157 -2.519,2.629 -3.129,3.278 -1.84,1.89 -2.914,3.015 -4.293,4.433 l -1.398,1.61 0.125,1.054 0.605,0.266 0.633,-0.129 1.754,-1.508 c 0.832,-0.742 3.512,-3.176 5.969,-5.39 2.426,-2.211 4.976,-4.52 5.644,-5.129 3.977,-3.606 6.684,-6.047 6.707,-6.028 l -0.964,1.868 -1.364,1.554 c -2.539,2.621 -2.937,3.274 -4.031,6.457 -0.883,2.578 -1.25,3.375 -2.156,4.653 -0.645,0.886 -1.078,1.343 -2.239,2.214 -1.453,1.118 -2.058,1.829 -2.671,3.125 -0.434,0.93 -0.594,1.676 -0.571,2.528 l 0.262,1.012 1.082,0.527 0.492,-0.887 1.27,-2.73 c 0.633,-0.739 1.281,-1.285 2.609,-2.219 1.293,-0.918 1.824,-1.406 2.496,-2.289 0.906,-1.195 1.184,-1.719 2.117,-4.156 0.957,-2.485 1.239,-2.957 2.618,-4.59 l 4.328,-4.321 c 0,0.024 -0.309,0.821 -0.684,1.79 -0.363,0.968 -1.047,2.71 -1.488,3.894 -0.461,1.172 -1.57,4.059 -2.485,6.406 -0.902,2.364 -1.812,4.707 -2.011,5.211 -1.895,4.953 -2.555,6.668 -2.617,6.938 l 0.793,1.328 1.293,-1.16 c 0.191,-0.399 1.886,-4.039 3.777,-8.074 1.898,-4.04 4.14,-8.833 4.996,-10.649 0.852,-1.824 1.695,-3.621 1.883,-3.992 l 0.328,-0.676 -0.051,0.942 c -0.051,1.171 -0.168,1.636 -0.797,3.253 -1.301,3.364 -1.41,4.079 -1.129,7.68 0.16,2.008 0.121,3.27 -0.129,4.567 -0.246,1.246 -0.445,1.765 -1.238,3.167 -0.75,1.321 -0.945,1.829 -1.156,2.856 -0.238,1.285 -0.109,2.566 0.351,3.594 0.485,1.082 1.54,1.496 2.012,0.793 0.149,-0.231 0.16,-0.149 -0.168,-1.426 -0.351,-1.277 0.227,-3.043 1.711,-5.363 0.848,-1.332 1.188,-2.063 1.469,-3.082 0.34,-1.321 0.383,-1.872 0.363,-4.981 -0.023,-2.836 -0.023,-2.957 0.16,-3.648 0.379,-1.387 0.938,-2.91 1.551,-4.274 l 0.848,-2.039 0.316,-0.695 0.074,0.648 c 0,0.391 0.051,1.653 0.071,2.797 0.062,1.153 0.144,3.797 0.222,5.871 0.059,2.078 0.137,4.176 0.157,4.657 0.023,0.484 0.129,3.316 0.234,6.296 0.094,2.977 0.203,5.551 0.254,5.743 l 0.914,0.882 0.887,-0.586 c 0.132,-0.293 0.195,-1.046 0.312,-4.789 0.207,-5.918 0.375,-10.812 0.434,-11.996 0.019,-0.476 0.097,-2.781 0.168,-5.113 0.074,-2.324 0.156,-4.406 0.179,-4.613 l 0.039,-0.383 0.297,0.766 c 0.418,1.16 0.524,1.757 0.606,3.941 0.094,2.086 0.222,2.965 0.519,3.898 0.086,0.297 0.735,1.692 1.418,3.102 1.293,2.648 1.52,3.25 1.817,4.887 0.16,0.871 0.16,1.523 -0.016,2.793 -0.156,1.277 -0.156,1.988 0.016,2.789 0.328,1.683 1.265,3.254 2.25,3.847 l 1.695,-0.261 -0.441,-1.055 c -1.071,-1.242 -1.293,-2.941 -0.793,-6.035 0.297,-1.781 0.316,-2.219 0.129,-3.395 -0.211,-1.238 -0.555,-2.222 -1.512,-4.304 -0.488,-1.016 -0.965,-2.172 -1.078,-2.543 -0.266,-0.836 -0.457,-2.024 -0.504,-3.348 -0.094,-1.356 -0.113,-5.375 -0.043,-5.301 0.051,0.055 0.515,1.059 2.496,5.301 0.176,0.394 1.543,3.324 3.035,6.504 1.484,3.183 3.043,6.539 3.473,7.461 1.679,3.629 2.015,4.281 2.316,4.515 l 1.227,0.02 0.226,-0.734 c 0,-0.493 -0.168,-0.969 -2.496,-7.032 -1.367,-3.574 -2.664,-6.914 -2.859,-7.41 l -0.856,-2.187 c -0.461,-1.239 -1.175,-3.09 -2.539,-6.66 -0.383,-0.981 -0.683,-1.801 -0.664,-1.825 l 1.555,1.774 0.887,1.773 c 1.078,2.328 1.617,3.168 2.664,4.227 l 1.894,1.707 c 2.094,1.73 3.574,3.449 4.266,4.937 l 0.586,1.676 c 0.332,1.18 0.547,1.703 1.035,2.461 0.988,1.512 2.699,2.715 3.894,2.715 l 1.024,-0.434 -0.738,-1.25 -1.879,-1.98 c -0.496,-0.969 -0.715,-1.578 -1.157,-3.274 -0.722,-2.906 -1.542,-4.105 -4.82,-7.054 -1.195,-1.078 -1.898,-1.903 -2.461,-2.852 -0.57,-0.973 -1.308,-2.504 -1.695,-3.516 l -0.84,-1.945 -0.266,-0.789 6.372,5.766 c 5.957,5.457 12.906,11.715 13.171,11.859 l 1.254,-0.144 0.102,-1.028 c -0.102,-0.172 -1.242,-1.453 -2.637,-2.89 -1.355,-1.414 -3.89,-4.071 -5.648,-5.899 -1.758,-1.816 -4.067,-4.223 -5.117,-5.324 -1.059,-1.113 -2.364,-2.465 -2.907,-3.027 l -1.656,-1.711 -0.648,-0.739 2.351,1.235 1.293,1.136 c 1.473,1.352 2.567,2.2 3.43,2.637 0.586,0.297 1.496,0.633 3.402,1.262 3.582,1.18 5.039,2.066 6.641,4.027 l 1.316,1.469 c 1.254,1.121 2.903,1.793 4.43,1.805 l 1.531,-0.477 0.137,-0.992 -0.867,-0.297 -1.825,-0.566 c -0.843,-0.438 -1.984,-1.555 -3.168,-3.114 -1.035,-1.367 -1.46,-1.824 -2.359,-2.476 -1.137,-0.836 -1.918,-1.215 -4.355,-2.102 -3.09,-1.125 -3.993,-1.711 -6.926,-4.574 l -1.867,-1.785 -0.399,-0.399 c 0.039,0 5.668,2.047 18.262,6.637 3.559,1.305 6.648,2.391 6.836,2.43 0.937,0.144 1.551,-0.52 1.164,-1.266 -0.184,-0.359 -0.488,-0.523 -3.148,-1.695 -1.325,-0.582 -3.883,-1.719 -5.7,-2.52 -1.816,-0.812 -3.972,-1.761 -4.781,-2.113 -0.82,-0.355 -2.965,-1.309 -4.793,-2.121 -1.809,-0.805 -4.051,-1.789 -4.937,-2.184 -0.903,-0.394 -1.688,-0.757 -1.723,-0.796 l 2.062,0.125 1.219,0.312 1.754,0.633 c 2.574,0.933 3.566,1.055 6.59,0.847 3.258,-0.214 4.492,-0.156 6.242,0.34 0.754,0.2 0.988,0.309 2.817,1.266 1.328,0.68 2.187,0.894 3.632,0.894 1.188,0 1.782,-0.105 2.614,-0.492 l 0.937,-1.175 -0.172,-0.586 -1.254,-0.032 -1.386,0.133 c -1.34,-0.07 -2.473,-0.512 -4.868,-1.933 -1.214,-0.719 -2.039,-1.055 -3.367,-1.372 -0.547,-0.125 -1.097,-0.148 -4.113,-0.156 l -3.473,-0.012 -1.011,-0.261 c -1.395,-0.379 -2.825,-0.879 -4.243,-1.485 l -2.015,-0.804 -0.621,-0.301 c 0.082,-0.012 2.019,-0.078 4.277,-0.152 2.254,-0.071 4.574,-0.141 5.172,-0.168 0.555,-0.024 4.582,-0.161 8.926,-0.305 4.34,-0.133 8.07,-0.293 8.32,-0.332 1.262,-0.25 1.262,-1.586 0,-1.832 l -1.914,-0.129 c -0.801,-0.027 -3.734,-0.125 -6.5,-0.219 -2.762,-0.082 -5.598,-0.172 -6.285,-0.207 -1.774,-0.062 -5.406,-0.183 -9.192,-0.293 -1.785,-0.066 -3.25,-0.133 -3.293,-0.16 l 2.426,-0.758 1.41,-0.09 c 1.246,0 3.032,-0.136 3.899,-0.293 0.984,-0.179 1.996,-0.574 4.203,-1.636 2.07,-0.989 2.711,-1.246 3.734,-1.496 1.539,-0.379 2.504,-0.426 4.375,-0.211 1.875,0.211 3.176,0.011 4.688,-0.731 1.722,-0.844 2.605,-2.207 1.883,-2.933 l -1.336,0.211 c -0.703,0.64 -2.094,1.05 -3.567,1.05 -0.367,0 -1.453,-0.113 -2.39,-0.246 -2.02,-0.301 -2.746,-0.308 -4.063,-0.086 -1.242,0.207 -2.07,0.485 -4.055,1.371 -3.289,1.465 -3.824,1.559 -8.453,1.621 -1.758,0.02 -3.172,0.02 -3.148,0 0.015,-0.019 0.871,-0.406 1.883,-0.859 1.019,-0.445 2.492,-1.094 3.277,-1.437 2.461,-1.086 14.684,-6.477 16.563,-7.301 2.773,-1.219 2.906,-1.301 3.003,-1.934 l -1.128,-0.926 c -0.239,0.024 -2.743,0.899 -5.735,1.981 -2.926,1.066 -8.515,3.094 -12.414,4.504 -3.898,1.41 -7.176,2.601 -7.277,2.64 l 0.304,-0.484 c 0.934,-0.801 1.524,-1.148 2.84,-1.726 3.289,-1.407 4.114,-1.993 6.434,-4.61 1.473,-1.66 2.14,-2.305 3.152,-3.008 1.145,-0.797 1.977,-1.175 3.395,-1.578 1.363,-0.379 2.191,-0.722 2.945,-1.219 2.113,-1.406 3.223,-3.828 2.113,-4.601 l -1.222,0.605 c -0.668,1.293 -2.285,2.27 -4.793,2.864 -1.992,0.476 -2.379,0.597 -3.149,0.961 -1.515,0.714 -2.367,1.402 -4.543,3.66 -0.918,0.937 -1.699,1.656 -2.172,1.992 -0.918,0.664 -3.054,1.711 -4.796,2.363 l -2.11,0.848 -0.726,0.34 0.515,-0.528 1.508,-1.578 c 0.57,-0.578 1.984,-2.066 3.188,-3.312 1.191,-1.25 2.613,-2.715 3.152,-3.274 0.531,-0.554 1.933,-2.004 3.098,-3.226 1.175,-1.227 3.183,-3.313 4.48,-4.649 1.301,-1.355 2.383,-2.547 2.43,-2.699 l -0.11,-1.062 -0.605,-0.266 c -0.649,0 0.156,-0.672 -9.813,8.355 -1.222,1.114 -2.394,2.18 -2.597,2.364 -0.207,0.195 -1.157,1.05 -2.102,1.886 -0.926,0.872 -2.703,2.469 -3.926,3.59 -1.23,1.114 -2.242,2 -2.261,2 l 0.968,-1.875 1.454,-1.66 c 2.429,-2.516 2.851,-3.187 3.917,-6.34 0.875,-2.539 1.11,-3.031 1.922,-4.277 0.707,-1.09 1.297,-1.695 2.477,-2.602 1.098,-0.832 1.684,-1.429 2.211,-2.257 1.062,-1.629 1.375,-3.817 0.648,-4.622 l -0.886,-0.339 -0.586,1.132 c -0.082,1.086 -0.86,2.301 -2.157,3.461 l -1.683,1.27 c -1.391,0.984 -2.215,1.777 -2.914,2.844 -0.602,0.879 -0.992,1.726 -1.785,3.773 -0.778,2.051 -1.071,2.594 -2.004,3.785 l -4.852,4.942 c -0.012,-0.012 0.508,-1.371 1.145,-3.036 1.504,-3.871 5.668,-14.644 6.398,-16.566 l 1.129,-2.926 c 0.637,-1.636 0.727,-1.996 0.605,-2.394 l -1.418,-0.43 c -0.355,0.231 -0.218,-0.031 -3.437,6.852 -2.438,5.203 -3.078,6.593 -4.176,8.914 l -0.429,0.937 -0.606,1.309 c -0.348,0.719 -1.141,2.422 -1.793,3.793 l -1.176,2.515 -0.011,-0.5 c -0.051,-0.988 0.168,-1.992 0.836,-3.718 1.281,-3.344 1.398,-4.106 1.097,-7.629 -0.269,-3.25 0.063,-5.399 1.078,-7.176 l 0.746,-1.34 c 1.364,-2.512 0.954,-6.25 -0.742,-6.758 l -0.906,0.301 c -0.141,0.234 -0.164,0.152 0.176,1.426 0.343,1.254 -0.27,3.133 -1.703,5.363 -0.805,1.215 -1.223,2.106 -1.473,3.078 -0.352,1.332 -0.391,1.871 -0.367,4.977 l 0.019,2.937 -0.273,1 c -0.375,1.313 -0.832,2.567 -1.531,4.118 l -0.793,1.886 -0.297,0.696 c -0.028,0.039 -0.098,-1.29 -0.149,-2.934 -0.164,-4.984 -0.679,-19.41 -0.761,-21.297 -0.051,-1.402 -0.114,-1.82 -0.211,-2.051 l -1.313,-0.445"
         style="fill:#812c1a;fill-opacity:1;fill-rule:nonzero;stroke:none"
         id="path22" /></g></g></svg>
