<?xml version="1.0" encoding="UTF-8" standalone="no"?>
<svg
   xmlns:dc="http://purl.org/dc/elements/1.1/"
   xmlns:cc="http://creativecommons.org/ns#"
   xmlns:rdf="http://www.w3.org/1999/02/22-rdf-syntax-ns#"
   xmlns:svg="http://www.w3.org/2000/svg"
   xmlns="http://www.w3.org/2000/svg"
   version="1.1"
   id="svg2"
   xml:space="preserve"
   width="42.666668"
   height="42.666668"
   viewBox="0 0 42.666668 42.666668"><metadata
     id="metadata8"><rdf:RDF><cc:Work
         rdf:about=""><dc:format>image/svg+xml</dc:format><dc:type
           rdf:resource="http://purl.org/dc/dcmitype/StillImage" /></cc:Work></rdf:RDF></metadata><defs
     id="defs6" /><g
     id="g10"
     transform="matrix(1.3333333,0,0,-1.3333333,0,42.666667)"><g
       id="g12"
       transform="scale(0.1)"><path
         d="m 160,0 c 47.988,0 91.125,21.3047 120.512,54.9297 L 0,160 C 0,71.875 71.8906,0 160,0"
         style="fill:#202459;fill-opacity:1;fill-rule:nonzero;stroke:none"
         id="path14" /><path
         d="M 160,320 C 71.8906,320 0,248.121 0,160 L 280.512,265.07 C 251.125,298.691 207.988,320 160,320"
         style="fill:#202459;fill-opacity:1;fill-rule:nonzero;stroke:none"
         id="path16" /><path
         d="m 291.648,250.715 c -3.453,5 -7.214,9.765 -11.203,14.332 L 0,160 280.445,54.9531 c 3.985,4.5664 7.75,9.3321 11.203,14.3282 L 49.4688,160 291.648,250.715"
         style="fill:#bd1e24;fill-opacity:1;fill-rule:nonzero;stroke:none"
         id="path18" /><path
         d="M 49.4688,160 291.594,69.3047 C 309.465,95.1094 320,126.348 320,160 c 0,33.648 -10.535,64.887 -28.406,90.695 L 49.4688,160"
         style="fill:#ffffff;fill-opacity:1;fill-rule:evenodd;stroke:none"
         id="path20" /><path
         d="m 235.59,136.613 c 0,0 -2.152,1.762 0.39,4.598 -1.371,1.176 -0.097,3.426 -0.097,3.426 0,0 -2.348,0.879 0.097,4.5 -1.761,1.172 -0.98,3.812 -0.98,3.812 0,0 -5.77,2.153 -0.293,4.207 -4.496,-1.957 -8.703,2.641 -8.703,2.641 l -6.555,-0.195 c -1.109,5.445 -9.75,0.714 -3.328,16.336 -1.66,0.292 -3.519,0.781 -5.379,-0.59 -1.855,-1.368 -7.137,-4.301 -10.269,-1.368 -3.129,2.934 2.054,7.141 2.152,7.239 0.098,0.097 6.945,3.617 7.922,5.965 -0.098,1.761 -2.246,3.132 -0.293,6.945 2.25,3.621 16.043,7.043 22.305,8.219 3.031,1.367 4.398,4.007 4.398,4.007 l 0.688,-2.542 c 0,0 13.886,4.109 14.574,6.066 0.683,1.957 0.293,-1.762 0.293,-1.762 5.476,0.488 12.422,5.184 13.398,3.031 4.598,0.883 13.403,4.793 13.403,4.793 0,0 3.031,0.098 0.878,-3.226 1.372,-2.152 -0.39,-4.012 -0.488,-4.012 -0.098,0 0.586,-2.152 -1.176,-3.324 0.59,-1.859 -1.074,-3.324 -1.074,-3.324 0,0 0.781,-2.25 -2.348,-3.426 0.293,-1.957 -1.761,-2.348 -1.761,-2.348 0,0 0.297,-2.054 -1.074,-2.933 0,-1.567 -1.567,-2.348 -1.567,-2.348 0,0 0.981,-0.586 -0.39,-1.566 -1.372,-0.977 -15.551,-9.684 -15.551,-9.586 0,0.097 10.367,-1.86 11.051,-2.25 0.683,-0.391 8.511,-5.575 8.511,-5.575 l -7.926,-9.781 c 0,0 -8.8,0.977 -9.191,0.488 -0.394,-0.488 1.856,-0.683 2.348,-1.464 0.488,-0.786 1.269,-2.645 2.836,-2.45 1.562,0.2 -2.938,-2.836 -5.871,-3.128 0,-1.075 3.718,-1.172 4.695,-0.293 0.98,0.878 -2.348,-2.543 -2.738,-3.032 -0.391,-0.488 4.402,0.684 4.402,0.684 0,0 -0.781,-3.227 -4.988,-4.207 1.664,-2.738 0.976,-4.496 0.879,-4.496 -0.098,0 -2.739,2.738 -5.282,2.25 0.684,-2.645 2.739,-5.086 3.328,-5.481 0.586,-0.39 -4.597,-0.293 -5.285,1.176 -0.683,1.465 -1.269,-3.523 0.586,-5.086 -2.148,-0.098 -4.008,1.172 -4.008,1.172 0,0 -1.273,-2.934 -0.39,-4.402 0.879,-1.465 -3.031,2.933 -3.031,2.933 l -7.434,-3.129 -1.664,2.836 v 0"
         style="fill:#98301e;fill-opacity:1;fill-rule:nonzero;stroke:none"
         id="path22" /><path
         d="m 234.707,157.453 c 0.117,0 0.231,-0.07 0.277,-0.187 0.059,-0.149 -0.011,-0.317 -0.16,-0.383 -0.133,-0.059 -0.265,-0.11 -0.398,-0.156 -1.172,-0.489 -1.793,-1.016 -1.781,-1.524 0.015,-0.867 1.828,-1.738 2.46,-1.976 0.145,-0.055 0.223,-0.211 0.18,-0.36 -0.008,-0.023 -0.695,-2.449 0.86,-3.484 0.066,-0.043 0.109,-0.113 0.125,-0.192 0.015,-0.078 0,-0.156 -0.043,-0.222 -0.887,-1.313 -1.231,-2.418 -0.989,-3.196 0.2,-0.636 0.727,-0.851 0.75,-0.863 0.078,-0.027 0.145,-0.094 0.172,-0.176 0.028,-0.082 0.024,-0.171 -0.019,-0.246 -0.012,-0.019 -1.133,-2.05 0.031,-3.05 0.062,-0.051 0.098,-0.125 0.105,-0.208 0.004,-0.078 -0.023,-0.156 -0.078,-0.214 -0.832,-0.93 -1.222,-1.825 -1.156,-2.661 0.074,-0.96 0.727,-1.503 0.727,-1.503 0.035,-0.032 0.054,-0.055 0.074,-0.086 l 1.531,-2.614 7.195,3.028 c 0.118,0.05 0.25,0.019 0.336,-0.075 0.789,-0.886 1.653,-1.824 2.262,-2.449 -0.281,1.614 0.621,3.731 0.668,3.836 0.035,0.082 0.105,0.145 0.191,0.168 0.086,0.024 0.176,0.012 0.25,-0.039 0.012,-0.012 1.434,-0.965 3.168,-1.109 -1.011,1.449 -1.004,3.953 -0.675,4.859 0.117,0.32 0.289,0.481 0.511,0.481 0.317,0 0.469,-0.329 0.52,-0.438 0.363,-0.781 2.668,-1.199 4.187,-1.199 0.098,0 0.184,0 0.258,0.004 -0.891,0.894 -2.465,3.07 -3.043,5.297 -0.023,0.082 -0.008,0.164 0.035,0.234 0.043,0.07 0.114,0.117 0.196,0.133 0.218,0.043 0.449,0.062 0.679,0.062 1.953,0 3.801,-1.496 4.532,-2.117 0.117,0.598 0.125,1.996 -1.008,3.86 -0.047,0.082 -0.055,0.179 -0.02,0.269 0.035,0.086 0.113,0.152 0.207,0.172 3.039,0.707 4.203,2.601 4.594,3.504 -0.98,-0.231 -3.016,-0.688 -3.734,-0.688 -0.114,0 -0.387,0 -0.493,0.223 -0.058,0.121 -0.039,0.266 0.055,0.379 0.164,0.207 0.789,0.871 1.449,1.574 0.16,0.168 0.328,0.344 0.493,0.52 -0.454,-0.094 -0.942,-0.137 -1.368,-0.137 -1.254,0 -2.597,0.312 -2.597,1.184 0,0.152 0.117,0.281 0.269,0.296 2.043,0.204 4.844,1.797 5.692,2.524 h -0.024 c -1.375,0 -2.137,1.34 -2.64,2.226 -0.079,0.137 -0.153,0.266 -0.219,0.371 -0.188,0.301 -0.852,0.543 -1.336,0.715 -0.578,0.211 -0.996,0.364 -1.086,0.684 -0.039,0.141 -0.004,0.285 0.094,0.41 0.129,0.164 0.382,0.25 1.34,0.25 2.238,0 7.003,-0.508 7.957,-0.609 l 7.617,9.402 c -1.387,0.918 -7.625,5.043 -8.219,5.383 -0.566,0.316 -9.969,2.156 -10.867,2.215 -0.016,-0.004 -0.028,-0.004 -0.039,-0.004 -0.078,0 -0.157,0.031 -0.211,0.086 -0.055,0.058 -0.086,0.133 -0.086,0.211 0,0.125 0.086,0.234 0.199,0.281 0.563,0.273 13.949,8.457 15.477,9.547 0.394,0.285 0.613,0.554 0.605,0.762 -0.004,0.187 -0.195,0.308 -0.195,0.308 -0.094,0.059 -0.149,0.16 -0.141,0.27 0.004,0.105 0.067,0.203 0.16,0.25 0.016,0.007 1.403,0.722 1.403,2.082 0,0.101 0.05,0.195 0.136,0.25 1.192,0.761 0.946,2.625 0.942,2.64 -0.024,0.157 0.082,0.305 0.238,0.336 0.07,0.012 1.77,0.364 1.524,2.012 -0.02,0.137 0.058,0.269 0.191,0.32 2.805,1.055 2.195,2.969 2.168,3.051 -0.039,0.113 -0.004,0.238 0.086,0.316 0.012,0.016 1.508,1.368 0.988,3.016 -0.039,0.125 0.008,0.262 0.117,0.336 1.285,0.855 1.114,2.301 1.051,2.844 -0.023,0.203 -0.035,0.316 0.063,0.429 0.023,0.028 0.054,0.051 0.086,0.067 0.128,0.129 1.582,1.703 0.378,3.59 -0.062,0.097 -0.062,0.222 0,0.32 0.657,1.012 0.875,1.785 0.629,2.238 -0.261,0.477 -1.007,0.528 -1.195,0.532 -0.84,-0.368 -8.977,-3.938 -13.406,-4.786 -0.137,-0.027 -0.27,0.043 -0.328,0.168 -0.075,0.164 -0.243,0.387 -0.836,0.387 -1.032,0 -2.715,-0.648 -4.668,-1.398 -2.403,-0.926 -5.125,-1.973 -7.602,-2.196 -0.086,-0.007 -0.172,0.028 -0.234,0.09 -0.063,0.063 -0.094,0.149 -0.086,0.238 0.047,0.442 0.086,0.926 0.101,1.329 -1.711,-2.09 -13.222,-5.543 -14.589,-5.95 -0.075,-0.019 -0.161,-0.011 -0.231,0.028 -0.066,0.039 -0.117,0.105 -0.141,0.179 l -0.503,1.879 c -0.602,-0.883 -1.95,-2.531 -4.172,-3.539 -0.024,-0.008 -0.043,-0.015 -0.071,-0.019 -7.769,-1.457 -20.07,-4.813 -22.101,-8.082 -1.293,-2.524 -0.695,-3.899 -0.164,-5.11 0.242,-0.554 0.469,-1.078 0.5,-1.664 0.004,-0.043 -0.004,-0.086 -0.024,-0.129 -0.586,-1.41 -3.172,-3.394 -7.675,-5.898 -0.172,-0.094 -0.29,-0.16 -0.336,-0.188 -0.008,-0.007 -0.024,-0.019 -0.036,-0.031 -0.695,-0.601 -2.964,-2.719 -3.007,-4.742 -0.012,-0.77 0.285,-1.426 0.91,-2.016 0.836,-0.781 1.902,-1.179 3.179,-1.175 3.133,0 6.356,2.304 6.711,2.57 0.895,0.652 1.879,0.973 3.024,0.973 0.758,0 1.484,-0.133 2.187,-0.262 l 0.399,-0.074 c 0.086,-0.016 0.164,-0.071 0.207,-0.149 0.043,-0.078 0.051,-0.172 0.015,-0.254 -4.183,-10.172 -1.949,-11.437 0.415,-12.781 1.191,-0.676 2.421,-1.371 2.871,-3.137 l 6.308,0.188 c 0.082,-0.004 0.172,-0.031 0.231,-0.098 0.027,-0.027 2.816,-3.027 6.168,-3.027 0.629,0 1.246,0.105 1.836,0.316 0.109,0.043 0.242,0.098 0.378,0.149 0.036,0.011 0.067,0.019 0.102,0.019 z m 13.117,-24.074 c -0.148,0 -0.402,0.016 -3.219,3.176 l -7.238,-3.051 c -0.137,-0.055 -0.297,-0.004 -0.371,0.125 l -1.641,2.797 c -0.175,0.16 -0.828,0.832 -0.906,1.894 -0.066,0.934 0.313,1.899 1.125,2.875 -0.961,1.082 -0.379,2.684 -0.086,3.317 -0.261,0.172 -0.629,0.504 -0.808,1.074 -0.297,0.918 0.008,2.086 0.898,3.477 -1.332,1.105 -1.074,3.007 -0.926,3.707 -0.711,0.3 -2.578,1.199 -2.601,2.425 -0.008,0.422 0.191,0.817 0.609,1.184 -0.09,-0.004 -0.18,-0.004 -0.269,-0.004 -3.297,0 -5.973,2.566 -6.512,3.121 l -6.422,-0.191 c -0.137,0 -0.269,0.093 -0.297,0.238 -0.344,1.684 -1.461,2.316 -2.64,2.984 -2.457,1.395 -4.997,2.836 -0.809,13.184 l -0.039,0.008 c -0.676,0.121 -1.375,0.25 -2.082,0.25 -1.027,0 -1.875,-0.274 -2.672,-0.86 -0.371,-0.273 -3.738,-2.683 -7.063,-2.683 -1.429,0 -2.636,0.449 -3.585,1.336 -0.747,0.703 -1.114,1.527 -1.094,2.461 0.043,2.207 2.258,4.355 3.211,5.179 l 0.035,0.032 c 0.035,0.035 0.058,0.046 0.433,0.257 5.34,2.965 6.977,4.645 7.391,5.543 -0.039,0.454 -0.23,0.891 -0.445,1.391 -0.555,1.27 -1.242,2.848 0.191,5.641 2.828,4.55 21.528,8.183 22.477,8.363 2.871,1.312 4.215,3.84 4.226,3.863 0.055,0.11 0.172,0.172 0.293,0.16 0.125,-0.015 0.227,-0.101 0.254,-0.218 l 0.61,-2.25 c 5.328,1.593 13.632,4.496 14.086,5.793 0.179,0.519 0.316,0.765 0.582,0.765 0.093,0 0.183,-0.039 0.25,-0.113 0.078,-0.086 0.25,-0.277 0.074,-2.18 2.301,0.278 4.832,1.254 7.082,2.117 2.004,0.774 3.738,1.442 4.879,1.442 0.586,0 1.008,-0.18 1.254,-0.528 4.566,0.938 13.046,4.696 13.132,4.735 0.036,0.015 0.075,0.023 0.11,0.023 h 0.039 c 0.215,0 1.312,-0.039 1.75,-0.84 0.344,-0.636 0.16,-1.539 -0.551,-2.687 0.832,-1.449 0.371,-2.738 0.012,-3.395 -0.012,-0.027 -0.278,-0.5 -0.551,-0.753 0,-0.008 0.004,-0.016 0.004,-0.028 0.062,-0.555 0.258,-2.211 -1.133,-3.277 0.391,-1.617 -0.699,-2.903 -1.09,-3.301 0.117,-0.598 0.239,-2.449 -2.355,-3.519 0.094,-1.434 -0.985,-2.141 -1.766,-2.383 0.035,-0.602 -0.012,-2.063 -1.097,-2.867 -0.071,-1.168 -0.903,-1.911 -1.387,-2.247 0.086,-0.128 0.156,-0.289 0.164,-0.476 0.015,-0.426 -0.274,-0.856 -0.856,-1.274 -1.004,-0.714 -11.793,-7.378 -14.824,-9.175 2.559,-0.434 9.68,-1.805 10.301,-2.161 0.684,-0.39 8.207,-5.375 8.527,-5.585 0.067,-0.047 0.117,-0.118 0.129,-0.204 0.012,-0.082 -0.012,-0.164 -0.062,-0.23 l -7.926,-9.781 c -0.063,-0.078 -0.164,-0.117 -0.262,-0.11 -0.054,0.008 -5.644,0.625 -8.054,0.625 -0.27,0 -0.465,-0.007 -0.602,-0.015 0.144,-0.063 0.32,-0.125 0.457,-0.176 0.629,-0.227 1.34,-0.484 1.637,-0.957 0.07,-0.113 0.148,-0.25 0.23,-0.399 0.461,-0.808 1.168,-2.054 2.317,-1.91 0.062,0.008 0.121,0.012 0.168,0.012 0.343,0 0.48,-0.207 0.488,-0.383 0.039,-0.781 -3.598,-2.844 -6.012,-3.285 0.301,-0.195 0.969,-0.359 1.824,-0.359 0.969,0 1.852,0.207 2.196,0.515 0.168,0.153 0.246,0.223 0.379,0.223 0.117,0 0.226,-0.07 0.273,-0.18 0.09,-0.211 0.09,-0.211 -1.539,-1.941 -0.391,-0.418 -0.793,-0.844 -1.074,-1.149 0.933,0.114 2.785,0.532 3.754,0.77 0.097,0.023 0.207,-0.008 0.281,-0.078 0.07,-0.074 0.101,-0.18 0.078,-0.281 -0.035,-0.133 -0.824,-3.219 -4.824,-4.325 1.293,-2.336 0.961,-3.996 0.726,-4.41 -0.093,-0.164 -0.215,-0.195 -0.3,-0.195 -0.125,0 -0.176,0.043 -0.403,0.234 -0.594,0.516 -2.414,2.074 -4.254,2.074 -0.082,0 -0.164,-0.003 -0.246,-0.011 0.727,-2.395 2.567,-4.621 3.113,-4.985 0.172,-0.117 0.2,-0.281 0.165,-0.398 -0.071,-0.223 -0.274,-0.34 -1.157,-0.34 -1.093,0 -4.019,0.266 -4.687,1.469 -0.09,-0.305 -0.164,-0.906 -0.117,-1.68 0.039,-0.644 0.23,-2.226 1.125,-2.98 0.093,-0.078 0.129,-0.207 0.089,-0.325 -0.039,-0.113 -0.144,-0.195 -0.265,-0.199 -1.715,-0.082 -3.242,0.664 -3.879,1.032 -0.285,-0.774 -0.914,-2.758 -0.281,-3.813 0.132,-0.223 0.23,-0.41 0.129,-0.59 -0.051,-0.09 -0.168,-0.156 -0.274,-0.156 h -0.004"
         style="fill:#100f0d;fill-opacity:1;fill-rule:nonzero;stroke:none"
         id="path24" /><path
         d="m 178.137,142.438 c 0.172,0 10.797,0.171 15.676,2.96 2.437,-3.832 5.746,-6.445 5.746,-6.445 l 1.57,5.574 c 0,0 3.832,-0.175 4.18,-1.047 -0.524,-1.042 -0.7,-2.437 -0.7,-2.437 0,0 2.614,-0.176 2.789,-0.523 0.172,-0.348 -0.699,-3.309 -0.699,-3.309 l 11.149,-2.613 c 0,0 0.871,4.355 1.742,3.832 0.871,-0.524 4.703,-5.922 10.105,-6.27 5.399,-0.347 5.746,4.528 5.746,4.528 l 1.219,-0.696 c 0,0 2.266,4.875 2.613,4.875 0.348,0 0.872,-0.695 3.832,-0.695 0.872,-1.043 1.219,-3.484 1.219,-3.484 0,0 -3.308,-3.309 -2.261,-5.922 1.042,-2.614 1.218,-1.914 1.218,-1.914 l 24.035,-5.75 c 0,0 1.223,-1.914 -0.871,-2.961 0,-0.172 -24.211,5.574 -24.211,5.574 0,0 -2.261,-2.613 -4.004,-2.09 -1.742,0.523 -0.523,-1.047 -0.523,-1.047 l 26.129,-2.09 c 0,0 1.914,-2.437 0.519,-3.133 -1.742,-0.175 -28.214,1.743 -28.214,1.743 0,0 -1.571,-3.313 -3.313,-0.524 -1.219,-1.918 -2.609,0.524 -2.609,0.524 0,0 -2.266,-1.743 -2.614,0.172 -1.917,-1.391 -3.136,0.871 -3.136,0.871 l -11.149,0.699 -0.695,-1.047 c 0,0 1.914,-0.523 -1.047,-1.742 -2.961,-1.219 17.77,-0.696 18.289,-0.871 0.524,-0.176 -1.39,-1.742 -1.39,-1.742 0,0 10.625,-0.696 12.539,1.57 1.918,2.262 -0.696,-2.961 -0.696,-2.961 0,0 8.36,0.348 8.36,0.695 0,0.348 -0.172,-2.613 -5.922,-2.265 3.484,-2.266 7.84,-3.657 7.84,-3.657 0,0 -4.356,-1.047 -9.407,0.172 0.872,-2.262 4.704,-4.351 4.704,-4.351 0,0 -2.79,-2.442 -9.059,3.48 1.742,-3.133 0.348,-4.351 0.176,-4.004 -0.176,0.348 -3.137,4.703 -10.106,6.27 4.356,-2.785 2.442,-4.008 2.442,-4.008 0,0 -2.266,4.008 -5.922,0 -1.395,3.66 -6.793,5.75 -13.414,6.098 -2.09,2.437 -3.309,1.742 -8.188,3.136 -2.789,3.133 -6.793,6.617 -6.793,6.617 0,0 0.172,4.704 4.875,4.18 0.524,-1.566 0.524,-1.043 0.524,-1.043 0,0 5.226,1.914 6.793,-0.695 2.265,4.004 5.402,0.598 5.922,-0.797 1.503,-0.219 9.058,-0.426 9.058,-0.426 0,0 -0.871,1.571 -0.348,1.395 0.524,-0.172 4.704,1.566 4.532,2.09 -0.176,0.523 -0.352,2.265 0.343,2.089 0.7,-0.171 -5.921,0.872 -9.578,-1.914 -1.218,1.219 -0.347,4.528 -0.347,4.528 l -10.801,2.265 -0.524,-2.789 c 0,0 -3.132,-0.519 -2.96,0.176 0.175,0.695 -0.696,-2.437 -0.696,-2.437 0,0 -4.179,1.043 -4.179,1.218 0,0.172 1.218,6.27 1.218,6.094 0,-0.172 -3.484,-0.348 -8.359,-4.004 -1.395,4.356 -12.367,10.102 -12.367,10.278 v 0"
         style="fill:#fabd14;fill-opacity:1;fill-rule:nonzero;stroke:none"
         id="path26" /><path
         d="m 237.867,122.863 23.141,-1.851 c -6.442,1.476 -16.559,3.875 -18.668,4.375 -0.457,-0.492 -2.094,-2.129 -3.625,-2.129 -0.199,0 -0.391,0.027 -0.57,0.082 -0.352,0.105 -0.5,0.098 -0.555,0.09 0.008,-0.11 0.129,-0.356 0.277,-0.567 z m 10.524,-8.066 0.144,-0.051 0.024,0.004 -0.164,0.07 c 0,0 -0.004,-0.015 -0.004,-0.023 z m -21.418,-4.121 c 6.558,-1.477 9.57,-5.356 10.183,-6.246 0.047,0.062 0.106,0.16 0.157,0.304 0.121,0.36 0.292,1.395 -0.735,3.246 l 0.461,0.36 c 3.414,-3.227 5.738,-3.902 7.086,-3.902 0.52,0 0.906,0.101 1.168,0.207 -1.063,0.64 -3.656,2.359 -4.379,4.242 l -0.203,0.527 0.551,-0.133 c 1.601,-0.386 3.297,-0.582 5.047,-0.582 1.293,0 2.379,0.11 3.125,0.215 -1.528,0.563 -4.407,1.734 -6.836,3.313 l -0.942,0.613 1.121,-0.067 c 0.305,-0.019 0.606,-0.027 0.891,-0.027 2.781,0 3.945,0.887 4.422,1.535 -1.703,-0.258 -5.809,-0.453 -7.758,-0.535 l -0.504,-0.019 0.227,0.449 c 0.457,0.914 0.929,1.961 1.183,2.633 -1,-1.172 -4.097,-1.77 -9.207,-1.77 -2,0 -3.558,0.102 -3.574,0.102 l -0.75,0.05 0.582,0.477 c 0.559,0.457 1.07,0.961 1.281,1.242 -0.437,0.016 -1.41,0.016 -1.777,0.016 -0.594,0 -1.285,-0.004 -2.047,-0.004 -0.926,-0.004 -1.949,-0.008 -3.016,-0.008 -11.562,0 -11.648,0.43 -11.73,0.844 -0.066,0.347 0.336,0.512 0.465,0.566 1.453,0.598 1.473,0.938 1.473,0.942 -0.004,0.062 -0.211,0.191 -0.391,0.242 l -0.399,0.105 1.02,1.532 11.484,-0.719 0.078,-0.145 c 0.004,-0.011 0.649,-1.168 1.645,-1.168 0.34,0 0.691,0.133 1.055,0.399 l 0.383,0.273 0.082,-0.461 c 0.105,-0.582 0.386,-0.656 0.617,-0.656 0.543,0 1.285,0.477 1.523,0.664 l 0.27,0.207 0.168,-0.297 c 0.179,-0.308 0.761,-1.105 1.316,-1.105 0.274,0 0.539,0.199 0.789,0.593 l 0.254,0.399 0.25,-0.399 c 0.402,-0.648 0.813,-0.976 1.215,-0.976 0.719,0 1.379,1.059 1.574,1.469 l 0.09,0.183 0.199,-0.015 c 0.242,-0.016 24.258,-1.75 27.832,-1.75 0.117,0 0.211,0 0.281,0.004 0.153,0.089 0.239,0.207 0.278,0.371 0.14,0.64 -0.524,1.714 -0.871,2.187 l -26.125,2.094 -0.082,0.101 c -0.196,0.25 -0.629,0.887 -0.422,1.317 0.07,0.14 0.23,0.312 0.601,0.312 0.176,0 0.395,-0.039 0.664,-0.117 0.125,-0.039 0.258,-0.058 0.399,-0.058 1.492,0 3.277,2.039 3.297,2.058 l 0.117,0.137 0.176,-0.043 c 9.156,-2.176 22.91,-5.399 24.078,-5.563 0.508,0.27 0.824,0.614 0.941,1.032 0.156,0.57 -0.086,1.144 -0.203,1.371 l -23.742,5.679 c -0.055,-0.035 -0.117,-0.054 -0.191,-0.054 -0.266,0 -0.594,0.168 -1.403,2.187 -1.008,2.52 1.641,5.516 2.227,6.133 -0.086,0.5 -0.414,2.219 -1.051,3.09 -2.16,0.016 -3.012,0.398 -3.469,0.605 -0.051,0.024 -0.105,0.047 -0.144,0.067 -0.36,-0.446 -1.477,-2.66 -2.418,-4.684 l -0.137,-0.293 -1.125,0.645 c -0.254,-1.25 -1.355,-4.653 -5.992,-4.356 -4.367,0.282 -7.738,3.782 -9.356,5.465 -0.39,0.406 -0.73,0.758 -0.882,0.848 -0.317,-0.078 -0.926,-1.778 -1.297,-3.637 l -0.063,-0.301 -11.75,2.754 0.09,0.305 c 0.359,1.226 0.719,2.695 0.707,3.07 -0.293,0.149 -1.508,0.313 -2.535,0.379 l -0.313,0.024 0.039,0.308 c 0.008,0.059 0.172,1.328 0.653,2.383 -0.371,0.359 -2.051,0.664 -3.621,0.758 l -1.621,-5.774 -0.352,0.278 c -0.031,0.023 -3.238,2.578 -5.66,6.281 -4.137,-2.207 -11.887,-2.719 -14.606,-2.832 0.047,-0.031 0.094,-0.059 0.145,-0.086 2.734,-1.629 9.844,-5.863 11.387,-9.453 3.75,2.73 6.617,3.418 7.714,3.68 0.094,0.023 0.188,0.046 0.254,0.062 l 0.024,0.074 0.23,0.016 h 0.297 v -0.426 l -0.035,-0.035 c -0.152,-0.645 -0.988,-4.832 -1.156,-5.777 0.496,-0.188 2.105,-0.629 3.648,-1.02 0.313,1.137 0.488,1.75 0.602,2.086 0.004,0.02 0.008,0.043 0.015,0.066 0.008,0.039 0.016,0.067 0.02,0.079 l 0.019,-0.004 c 0.102,0.254 0.165,0.254 0.27,0.254 h 0.145 l 0.089,-0.118 c 0.075,-0.09 0.071,-0.175 0.051,-0.277 0.074,-0.027 0.258,-0.07 0.66,-0.07 0.614,0 1.383,0.101 1.742,0.152 l 0.54,2.879 11.402,-2.391 -0.082,-0.3 c -0.215,-0.821 -0.578,-3.032 0.113,-4.051 2.192,1.535 5.301,1.863 7.559,1.863 0.761,0 1.371,-0.039 1.715,-0.059 v 0 l 0.015,-0.003 c 0.098,0.027 0.203,0.027 0.313,0 0.285,-0.071 0.281,-0.282 0.273,-0.34 l -0.031,-0.262 -0.293,-0.004 c -0.027,0 -0.074,0.004 -0.137,0.004 -0.137,-0.211 -0.121,-1.18 0.047,-1.684 0.031,-0.093 0.043,-0.246 -0.086,-0.425 -0.508,-0.704 -3.668,-1.989 -4.551,-2.063 0.078,-0.23 0.246,-0.601 0.438,-0.945 l 0.25,-0.453 -0.52,0.011 c -0.308,0.012 -7.59,0.211 -9.093,0.43 l -0.172,0.023 -0.063,0.165 c -0.316,0.847 -1.703,2.492 -3.121,2.492 -0.851,0 -1.613,-0.586 -2.266,-1.739 l -0.25,-0.441 -0.261,0.434 c -0.489,0.82 -1.453,1.23 -2.864,1.23 -1.476,0 -2.992,-0.465 -3.441,-0.613 -0.066,-0.102 -0.172,-0.149 -0.266,-0.149 -0.242,0 -0.371,0.157 -0.71,1.153 -0.165,0.011 -0.329,0.019 -0.485,0.019 -3.336,0 -3.805,-3.093 -3.867,-3.801 0.664,-0.582 4.148,-3.675 6.652,-6.48 1.489,-0.422 2.641,-0.648 3.567,-0.832 2.015,-0.398 3.144,-0.617 4.597,-2.277 6.852,-0.383 11.789,-2.555 13.368,-5.856 1.031,1.028 2.062,1.547 3.066,1.547 1.43,0 2.387,-1.043 2.797,-1.598 0.047,0.094 0.09,0.215 0.086,0.368 -0.004,0.441 -0.367,1.402 -2.723,2.91 z m 10.132,-6.914 c -0.156,0 -0.292,0.082 -0.359,0.222 -0.019,0.039 -2.363,3.852 -8.344,5.7 1.106,-0.899 1.661,-1.727 1.661,-2.469 0,-0.723 -0.536,-1.07 -0.559,-1.086 l -0.262,-0.164 -0.152,0.269 c -0.012,0.016 -0.949,1.629 -2.504,1.629 -0.934,0 -1.922,-0.566 -2.945,-1.683 l -0.325,-0.356 -0.168,0.449 c -1.269,3.332 -6.187,5.54 -13.152,5.907 l -0.129,0.008 -0.082,0.097 c -1.359,1.586 -2.297,1.774 -4.347,2.176 -0.954,0.187 -2.141,0.422 -3.696,0.867 l -0.082,0.024 -0.058,0.062 c -2.743,3.086 -6.723,6.559 -6.766,6.594 l -0.106,0.094 0.004,0.14 c 0.004,0.043 0.219,4.504 4.469,4.504 0.238,0 0.485,-0.012 0.738,-0.039 l 0.188,-0.023 0.062,-0.18 c 0.137,-0.414 0.231,-0.66 0.293,-0.805 0.493,0.164 2.051,0.641 3.621,0.641 1.415,0 2.45,-0.379 3.098,-1.137 0.719,1.098 1.57,1.649 2.543,1.649 1.641,0 3.129,-1.653 3.609,-2.704 1.504,-0.175 6.704,-0.339 8.352,-0.386 -0.437,0.898 -0.309,1.117 -0.254,1.207 0.094,0.16 0.285,0.226 0.496,0.156 0.727,0.004 3.754,1.328 4.129,1.797 -0.098,0.363 -0.23,1.234 -0.066,1.824 -0.34,0.02 -0.766,0.035 -1.25,0.035 -2.246,0 -5.36,-0.332 -7.43,-1.91 l -0.207,-0.156 -0.184,0.183 c -1.105,1.11 -0.683,3.633 -0.496,4.512 l -10.207,2.141 -0.504,-2.696 -0.203,-0.035 c -0.047,-0.007 -1.164,-0.191 -2.043,-0.191 -0.359,0 -0.633,0.031 -0.832,0.098 -0.152,-0.543 -0.383,-1.372 -0.547,-1.957 l -0.078,-0.278 -0.277,0.071 c -4.406,1.101 -4.406,1.238 -4.406,1.507 0,0.211 0.804,4.211 1.113,5.657 -1.125,-0.266 -4.016,-0.981 -7.781,-3.805 l -0.332,-0.25 -0.129,0.398 c -1.106,3.453 -8.758,8.008 -11.27,9.504 -1.109,0.66 -1.109,0.66 -1.109,0.864 v 0.292 l 0.293,0.004 c 0.105,0 10.687,0.153 15.531,2.922 l 0.246,0.141 0.153,-0.238 c 1.925,-3.028 4.429,-5.309 5.335,-6.086 l 1.508,5.363 0.235,-0.012 c 0.945,-0.043 4.054,-0.258 4.441,-1.23 l 0.051,-0.125 -0.059,-0.121 c -0.351,-0.696 -0.539,-1.575 -0.621,-2.032 2.477,-0.191 2.652,-0.543 2.711,-0.664 0.141,-0.285 -0.059,-1.367 -0.59,-3.222 l 10.547,-2.473 c 0.328,1.551 0.957,3.813 1.82,3.813 0.106,0 0.207,-0.028 0.301,-0.086 0.219,-0.129 0.531,-0.454 1.004,-0.946 1.567,-1.629 4.828,-5.015 8.969,-5.281 5.015,-0.324 5.418,4.074 5.433,4.254 l 0.036,0.469 1.343,-0.77 c 2.223,4.754 2.536,4.754 2.746,4.754 0.153,0 0.29,-0.059 0.461,-0.137 0.43,-0.195 1.231,-0.558 3.371,-0.558 h 0.141 l 0.09,-0.106 c 0.91,-1.097 1.269,-3.527 1.281,-3.633 l 0.024,-0.144 -0.106,-0.106 c -0.031,-0.031 -3.156,-3.203 -2.199,-5.605 0.418,-1.039 0.672,-1.492 0.809,-1.687 l 0.207,-0.047 24.152,-5.778 0.062,-0.101 c 0.028,-0.039 0.602,-0.957 0.329,-1.942 -0.153,-0.558 -0.54,-1.015 -1.153,-1.355 v -0.121 l -0.308,-0.004 c -0.129,0 -0.887,0.156 -2.067,0.418 0.375,-0.57 0.938,-1.586 0.762,-2.371 -0.078,-0.352 -0.301,-0.629 -0.641,-0.797 l -0.047,-0.024 -0.054,-0.007 c -0.082,-0.008 -0.215,-0.012 -0.395,-0.012 -3.422,0 -25.375,1.574 -27.679,1.738 -0.254,-0.461 -1,-1.625 -2.016,-1.625 -0.527,0 -1.02,0.305 -1.477,0.906 -0.308,-0.347 -0.652,-0.523 -1.031,-0.523 -0.754,0 -1.363,0.719 -1.656,1.133 -0.36,-0.231 -1.024,-0.602 -1.621,-0.602 -0.313,0 -0.821,0.106 -1.082,0.735 -0.352,-0.192 -0.703,-0.289 -1.055,-0.289 -1.113,0 -1.84,0.96 -2.078,1.335 l -10.824,0.676 -0.403,-0.605 c 0.211,-0.121 0.442,-0.321 0.457,-0.625 0.032,-0.488 -0.472,-0.938 -1.632,-1.438 0.929,-0.183 3.691,-0.355 10.835,-0.355 1.067,0 2.09,0.004 3.016,0.004 0.762,0.004 1.453,0.004 2.047,0.004 1.863,0 2.066,-0.02 2.168,-0.055 0.156,-0.051 0.258,-0.168 0.285,-0.32 0.059,-0.297 -0.285,-0.782 -1.016,-1.446 0.641,-0.027 1.649,-0.062 2.801,-0.062 4.793,0 7.907,0.555 8.758,1.562 0.477,0.567 0.676,0.676 0.859,0.676 0.125,0 0.239,-0.062 0.305,-0.168 0.082,-0.137 0.274,-0.441 -1.144,-3.34 3.379,0.149 6.984,0.387 7.629,0.575 0.066,0.097 0.152,0.125 0.226,0.128 l 0.566,0.372 -0.253,-0.708 c 0,-0.066 -0.024,-0.128 -0.067,-0.183 -0.285,-0.758 -1.336,-2.344 -5.062,-2.395 3.215,-1.879 6.8,-3.039 6.84,-3.05 l 1.007,-0.325 -1.027,-0.246 c -0.074,-0.019 -1.805,-0.426 -4.359,-0.426 -1.575,0 -3.114,0.157 -4.579,0.461 1.153,-1.929 4.274,-3.648 4.305,-3.668 l 0.375,-0.203 -0.32,-0.281 c -0.027,-0.023 -0.668,-0.57 -1.965,-0.57 -1.305,0 -3.437,0.566 -6.426,3.105 0.543,-1.535 0.227,-2.394 0.028,-2.73 -0.172,-0.289 -0.399,-0.457 -0.622,-0.457"
         style="fill:#100f0d;fill-opacity:1;fill-rule:nonzero;stroke:none"
         id="path28" /><path
         d="m 191.723,156.723 c 0,0 -7.317,-6.274 0,-9.93 0.347,2.437 0.871,2.785 0.871,2.785 0,0 6.097,-2.262 9.754,3.137 -1.567,2.265 -4.356,1.394 -4.356,1.394 0,0 -5.746,0 -6.269,2.614 v 0"
         style="fill:#fabd14;fill-opacity:1;fill-rule:nonzero;stroke:none"
         id="path30" /><path
         d="m 191.586,156.188 c -0.859,-0.84 -3.082,-3.262 -2.793,-5.629 0.16,-1.301 1.07,-2.414 2.699,-3.313 0.336,2.035 0.797,2.488 0.938,2.578 l 0.125,0.086 0.14,-0.051 c 0.016,-0.007 1.246,-0.453 2.895,-0.453 1.859,0 4.461,0.578 6.394,3.305 -0.812,1.039 -1.925,1.266 -2.738,1.266 -0.668,0 -1.16,-0.153 -1.164,-0.153 l -0.09,-0.011 c -0.226,0 -5.332,0.027 -6.406,2.375 z m 0.371,-9.844 -0.367,0.183 c -2.047,1.024 -3.188,2.356 -3.383,3.961 -0.398,3.227 3.172,6.328 3.324,6.457 l 0.383,0.328 0.102,-0.496 c 0.382,-1.929 4.375,-2.367 5.937,-2.371 0.149,0.039 0.649,0.164 1.293,0.164 0.992,0 2.383,-0.293 3.348,-1.687 l 0.113,-0.164 -0.113,-0.168 c -2.094,-3.09 -4.965,-3.738 -7.004,-3.738 -1.383,0 -2.469,0.289 -2.902,0.421 -0.133,-0.218 -0.442,-0.863 -0.672,-2.484 l -0.059,-0.406"
         style="fill:#100f0d;fill-opacity:1;fill-rule:nonzero;stroke:none"
         id="path32" /><path
         d="m 192.961,149.352 -0.387,0.449 5.055,4.355 0.387,-0.449 -5.055,-4.355"
         style="fill:#100f0d;fill-opacity:1;fill-rule:nonzero;stroke:none"
         id="path34" /><path
         d="m 191.965,156.668 v 0 c 0,0 0.976,0.98 1.269,2.152 0.293,1.176 -0.39,2.446 0.786,3.524 1.171,1.074 16.625,7.629 17.898,8.898 1.273,1.274 3.617,4.012 3.914,4.598 0.293,0.586 1.172,-2.934 -1.469,-4.5 2.836,0.785 4.696,1.664 5.867,1.273 -1.171,-1.664 -4.3,-4.402 -5.769,-4.402 3.426,1.273 6.555,2.348 7.434,1.664 0.878,-0.687 -4.207,-4.109 -6.258,-4.305 3.422,0.879 8.019,2.25 8.605,0.782 -1.859,-0.586 -1.273,-1.075 -5.086,-3.227 -0.488,-0.391 -2.933,-0.488 -2.933,-0.488 2.933,0.293 6.945,1.465 7.336,-0.688 -2.348,-0.879 -3.231,-2.051 -5.188,-2.543 -1.953,-0.488 -6.453,-1.367 -9.191,-2.445 -2.739,-1.074 -6.75,-4.203 -6.75,-4.203 0,0 -8.707,-0.293 -8.707,-0.195 0,0.097 -1.66,4.007 -1.758,4.105 v 0"
         style="fill:#ffffff;fill-opacity:1;fill-rule:nonzero;stroke:none"
         id="path36" /><path
         d="m 193.93,152.84 c 0.062,0 0.152,-0.004 0.277,-0.004 1.684,0 7.313,0.187 8.117,0.215 0.586,0.449 4.176,3.176 6.746,4.187 2.106,0.828 5.2,1.532 7.457,2.043 0.7,0.16 1.309,0.297 1.774,0.414 0.992,0.246 1.691,0.676 2.5,1.172 0.66,0.406 1.398,0.863 2.402,1.266 -0.16,0.402 -0.598,0.789 -1.976,0.789 -0.7,0 -1.504,-0.098 -2.204,-0.199 -0.816,-0.301 -2.71,-0.379 -2.789,-0.383 -0.16,-0.004 -0.296,0.113 -0.308,0.273 -0.012,0.16 0.105,0.301 0.265,0.317 0.594,0.058 1.254,0.16 1.887,0.254 0.266,0.039 0.527,0.082 0.789,0.117 0.067,0.027 0.094,0.047 0.102,0.054 0.015,0.012 0.027,0.02 0.043,0.028 1.906,1.078 2.683,1.719 3.254,2.187 0.464,0.387 0.797,0.66 1.476,0.922 -0.222,0.141 -0.594,0.211 -1.109,0.211 -1.5,0 -3.895,-0.629 -5.82,-1.133 -0.43,-0.164 -0.829,-0.265 -1.149,-0.297 -0.152,-0.015 -0.297,0.094 -0.32,0.247 -0.028,0.152 0.066,0.3 0.219,0.335 0.316,0.083 0.64,0.168 0.972,0.254 l 0.129,0.036 c 2.258,0.843 5.078,3.011 5.035,3.519 -0.074,0.047 -0.265,0.125 -0.664,0.125 -1.152,0 -3.211,-0.68 -4.887,-1.277 -0.679,-0.395 -1.246,-0.598 -1.687,-0.598 -0.145,0 -0.266,0.102 -0.293,0.242 -0.023,0.145 0.055,0.282 0.191,0.332 0.52,0.196 1.036,0.383 1.539,0.563 1.379,0.816 2.942,2.281 3.809,3.359 -0.734,0.035 -1.781,-0.285 -3.109,-0.707 -0.637,-0.199 -1.364,-0.43 -2.157,-0.648 -0.14,-0.039 -0.293,0.035 -0.351,0.172 -0.059,0.136 -0.004,0.293 0.121,0.371 1.094,0.644 1.488,1.629 1.629,2.34 0.109,0.578 0.078,1.082 0.019,1.402 -0.711,-1 -2.644,-3.219 -3.73,-4.305 -0.664,-0.664 -4.328,-2.387 -9.848,-4.941 -3.711,-1.719 -7.547,-3.496 -8.062,-3.969 -0.668,-0.613 -0.645,-1.281 -0.617,-2.055 0.015,-0.429 0.035,-0.875 -0.079,-1.32 -0.242,-0.973 -0.91,-1.805 -1.207,-2.137 0.372,-0.769 1.317,-2.98 1.614,-3.773 z m 0.277,-0.598 c -0.156,0 -0.281,0.004 -0.367,0.008 -0.098,0.004 -0.375,0.016 -0.41,0.262 -0.125,0.383 -1.551,3.707 -1.703,3.98 -0.063,0.082 -0.079,0.196 -0.039,0.289 0.015,0.039 0.039,0.074 0.07,0.102 0.035,0.035 0.922,0.941 1.191,2.012 0.09,0.363 0.074,0.746 0.063,1.152 -0.032,0.805 -0.063,1.719 0.804,2.516 0.547,0.5 3.469,1.867 8.215,4.066 4.239,1.961 9.039,4.187 9.676,4.824 1.285,1.285 3.594,3.988 3.859,4.52 0.102,0.207 0.274,0.23 0.34,0.23 0.336,0 0.449,-0.426 0.489,-0.566 0.242,-0.883 0.16,-2.434 -0.805,-3.625 0.289,0.086 0.566,0.176 0.828,0.258 1.301,0.41 2.328,0.734 3.156,0.734 0.281,0 0.528,-0.035 0.75,-0.109 0.09,-0.032 0.16,-0.102 0.192,-0.192 0.027,-0.086 0.011,-0.183 -0.043,-0.262 -0.535,-0.761 -1.551,-1.828 -2.653,-2.738 1.493,0.473 2.496,0.68 3.215,0.68 0.461,0 0.805,-0.09 1.043,-0.274 0.168,-0.132 0.238,-0.324 0.207,-0.546 -0.109,-0.708 -1.527,-1.852 -3.043,-2.774 1.25,0.285 2.469,0.508 3.391,0.508 1.043,0 1.66,-0.274 1.883,-0.836 0.031,-0.074 0.031,-0.16 -0.004,-0.234 -0.039,-0.075 -0.102,-0.133 -0.18,-0.157 -0.863,-0.273 -1.156,-0.515 -1.687,-0.957 -0.469,-0.386 -1.079,-0.886 -2.305,-1.636 0.301,0.023 0.601,0.039 0.887,0.039 0.582,0 2.347,0 2.621,-1.512 0.027,-0.141 -0.051,-0.281 -0.188,-0.332 -1.074,-0.402 -1.824,-0.863 -2.551,-1.309 -0.812,-0.5 -1.586,-0.972 -2.664,-1.242 -0.468,-0.117 -1.086,-0.258 -1.785,-0.418 -2.242,-0.508 -5.308,-1.207 -7.375,-2.015 -2.664,-1.047 -6.633,-4.133 -6.672,-4.165 -0.05,-0.039 -0.109,-0.062 -0.172,-0.062 -0.066,-0.004 -6.418,-0.215 -8.234,-0.219"
         style="fill:#100f0d;fill-opacity:1;fill-rule:nonzero;stroke:none"
         id="path38" /><path
         d="m 266.594,162.637 16.922,-3.231 c 0,0 1.859,2.153 0.879,3.328 2.543,0.586 1.859,3.911 1.859,3.911 0,0 2.934,1.273 0.488,4.207 1.664,1.664 -0.39,2.933 -0.39,2.933 0,0 0.683,2.938 -1.465,3.231 0.586,2.347 -3.719,3.129 -3.719,3.129 0,0 -8.902,-2.446 -15.16,-2.641 2.055,-2.055 -0.785,-3.324 -0.785,-3.324 0,0 1.664,-1.176 1.175,-2.153 -0.488,-0.98 0.293,-2.054 -1.859,-2.742 2.836,-1.269 -0.293,-3.422 -0.293,-3.422 0,0 3.129,-2.152 2.348,-3.226 v 0"
         style="fill:#ffffff;fill-opacity:1;fill-rule:nonzero;stroke:none"
         id="path40" /><path
         d="m 267,162.859 16.398,-3.129 c 0.504,0.637 1.391,2.067 0.77,2.813 l -0.309,0.371 0.469,0.109 c 2.238,0.516 1.66,3.438 1.637,3.563 l -0.047,0.234 0.219,0.098 c 0.008,0.004 1.019,0.461 1.242,1.391 0.16,0.683 -0.133,1.476 -0.863,2.351 l -0.172,0.211 0.191,0.192 c 0.414,0.414 0.602,0.828 0.555,1.23 -0.082,0.723 -0.887,1.234 -0.895,1.242 l -0.179,0.11 0.047,0.207 c 0.003,0.015 0.332,1.472 -0.247,2.308 -0.214,0.317 -0.535,0.5 -0.972,0.559 l -0.328,0.047 0.082,0.32 c 0.097,0.391 0.039,0.746 -0.176,1.078 -0.711,1.106 -2.848,1.594 -3.242,1.676 -0.817,-0.219 -8.668,-2.301 -14.551,-2.606 0.351,-0.5 0.484,-1 0.394,-1.492 -0.144,-0.781 -0.82,-1.328 -1.269,-1.609 0.512,-0.453 1.344,-1.371 0.91,-2.238 -0.125,-0.247 -0.152,-0.516 -0.184,-0.797 -0.066,-0.629 -0.136,-1.332 -1.246,-1.86 0.481,-0.328 0.743,-0.722 0.786,-1.179 0.082,-0.914 -0.786,-1.774 -1.278,-2.188 0.672,-0.5 2.086,-1.664 2.254,-2.644 0.024,-0.125 0.024,-0.25 0.004,-0.368 z m 16.629,-3.773 -17.551,3.348 0.277,0.375 c 0.04,0.054 0.086,0.148 0.059,0.32 -0.141,0.82 -1.734,2.074 -2.336,2.488 l -0.355,0.246 0.355,0.246 c 0.399,0.274 1.418,1.153 1.352,1.895 -0.035,0.387 -0.375,0.726 -1.012,1.012 l -0.707,0.32 0.738,0.234 c 1.321,0.418 1.375,0.938 1.442,1.59 0.035,0.309 0.07,0.656 0.242,0.996 0.305,0.614 -0.703,1.512 -1.078,1.782 l -0.422,0.296 0.469,0.215 c 0.011,0.004 1.179,0.543 1.339,1.403 0.079,0.449 -0.136,0.933 -0.644,1.441 l -0.484,0.484 0.683,0.024 c 6.152,0.191 15.004,2.605 15.094,2.629 l 0.062,0.019 0.071,-0.011 c 0.113,-0.024 2.777,-0.524 3.699,-1.95 0.246,-0.386 0.348,-0.8 0.305,-1.242 0.457,-0.121 0.82,-0.371 1.082,-0.75 0.586,-0.851 0.453,-2.098 0.371,-2.578 0.304,-0.23 0.91,-0.785 1,-1.555 0.058,-0.523 -0.125,-1.035 -0.543,-1.523 0.734,-0.957 1.011,-1.856 0.816,-2.672 -0.223,-0.93 -0.988,-1.469 -1.367,-1.684 0.184,-1.218 0.012,-3.265 -1.738,-3.925 0.586,-1.356 -1.032,-3.258 -1.11,-3.344 l -0.109,-0.129"
         style="fill:#100f0d;fill-opacity:1;fill-rule:nonzero;stroke:none"
         id="path42" /><path
         d="m 202.637,130.699 -0.578,0.133 2.261,10.102 0.578,-0.129 -2.261,-10.106"
         style="fill:#100f0d;fill-opacity:1;fill-rule:nonzero;stroke:none"
         id="path44" /><path
         d="m 206.297,133.668 -0.582,0.125 0.699,3.309 0.578,-0.125 -0.695,-3.309"
         style="fill:#100f0d;fill-opacity:1;fill-rule:nonzero;stroke:none"
         id="path46" /><path
         d="m 217.086,131.195 -0.563,0.192 1.047,3.133 0.563,-0.188 -1.047,-3.137"
         style="fill:#100f0d;fill-opacity:1;fill-rule:nonzero;stroke:none"
         id="path48" /><path
         d="m 239.746,108.648 h -0.594 c -0.05,0.247 -0.906,1.09 -7.754,3.504 -0.824,0.293 -0.89,0.317 -0.804,0.594 0,0.012 0.086,0.27 0.39,0.195 0.493,-0.125 4.188,0.305 5.403,0.446 0.621,0.07 0.746,0.086 0.797,0.086 l 0.007,-0.594 c -0.05,0 -0.367,-0.039 -0.738,-0.082 -1.609,-0.188 -2.961,-0.332 -3.945,-0.41 6.336,-2.282 7.238,-3.149 7.238,-3.739"
         style="fill:#100f0d;fill-opacity:1;fill-rule:nonzero;stroke:none"
         id="path50" /><path
         d="m 227.27,111.707 c -1.977,1.273 -4.27,2.57 -5.387,2.984 -0.457,-0.015 -0.789,0 -0.899,0.047 l -0.207,0.297 c 0.004,0.149 0.094,0.262 0.274,0.332 0.183,0.074 0.496,0.031 0.89,-0.094 1.5,0.063 4.59,0.45 4.934,0.727 l 0.414,-0.422 c -0.351,-0.351 -2.434,-0.668 -4.121,-0.808 1.52,-0.731 3.402,-1.907 4.422,-2.567 l -0.32,-0.496"
         style="fill:#100f0d;fill-opacity:1;fill-rule:nonzero;stroke:none"
         id="path52" /><path
         d="m 216.5,112.512 c -0.867,0 -2.734,1.121 -5.574,3 -0.242,0.164 -0.477,0.316 -0.641,0.426 -0.14,0.046 -0.246,0.101 -0.308,0.164 -0.215,0.214 -0.082,0.402 -0.051,0.437 0.137,0.172 0.172,0.215 0.656,-0.094 0.781,-0.203 3.402,-0.257 5.691,-0.187 l 0.02,-0.594 c -1.086,-0.031 -3.109,-0.07 -4.586,0.047 2.824,-1.856 4.445,-2.731 4.828,-2.606 l 0.188,-0.562 c -0.063,-0.02 -0.137,-0.031 -0.223,-0.031"
         style="fill:#100f0d;fill-opacity:1;fill-rule:nonzero;stroke:none"
         id="path54" /><path
         d="m 205.945,115.848 c -2.925,0.586 -4.195,2.011 -5.316,3.269 -0.258,0.289 -0.5,0.563 -0.754,0.817 l -0.723,0.718 0.996,-0.218 c 1.028,-0.231 2.922,-0.895 4.176,-1.332 0.543,-0.192 1.102,-0.387 1.196,-0.407 l -0.036,-0.187 v -0.403 c -0.101,0 -0.242,0.043 -1.355,0.434 -0.902,0.316 -2.137,0.75 -3.125,1.047 0.023,-0.023 0.043,-0.047 0.066,-0.074 1.11,-1.246 2.258,-2.539 4.993,-3.082 l -0.118,-0.582"
         style="fill:#100f0d;fill-opacity:1;fill-rule:nonzero;stroke:none"
         id="path56" /><path
         d="m 206.656,120.469 c -0.136,0.109 -1.047,0.461 -1.847,0.773 -3.594,1.391 -5.196,2.141 -5.196,2.903 v 0.414 l 0.391,-0.133 c 1.273,-0.422 3.648,-1.215 5.754,-0.688 l 0.144,-0.578 c -1.652,-0.41 -3.414,-0.086 -4.765,0.293 1.109,-0.582 2.929,-1.289 3.886,-1.656 1.782,-0.692 2.02,-0.805 2.118,-1 l -0.532,-0.266 c 0.024,-0.043 0.047,-0.062 0.047,-0.062"
         style="fill:#100f0d;fill-opacity:1;fill-rule:nonzero;stroke:none"
         id="path58" /><path
         d="m 242.527,125.477 -0.578,0.128 0.696,3.137 0.578,-0.129 -0.696,-3.136"
         style="fill:#100f0d;fill-opacity:1;fill-rule:nonzero;stroke:none"
         id="path60" /><path
         d="m 213.742,120.672 -0.492,0.332 c 0.906,1.359 -0.082,2.476 -0.094,2.484 l 0.442,0.399 c 0.453,-0.5 1.074,-1.821 0.144,-3.215"
         style="fill:#100f0d;fill-opacity:1;fill-rule:nonzero;stroke:none"
         id="path62" /><path
         d="m 235.992,121.938 -0.054,0.589 1.917,0.176 0.051,-0.594 -1.914,-0.171"
         style="fill:#100f0d;fill-opacity:1;fill-rule:nonzero;stroke:none"
         id="path64" /><path
         d="m 225.645,122.637 -3.485,0.519 0.086,0.586 3.484,-0.519 -0.085,-0.586"
         style="fill:#100f0d;fill-opacity:1;fill-rule:nonzero;stroke:none"
         id="path66" /><path
         d="m 226.727,128.598 c -0.356,0.07 -0.411,0.25 -0.395,0.386 0.035,0.305 0.043,0.379 2.418,0.297 0.684,-0.019 1.246,0.172 1.66,0.586 0.903,0.891 0.871,2.52 0.871,2.535 l 0.59,0.016 c 0.004,-0.078 0.039,-1.895 -1.039,-2.973 -0.535,-0.531 -1.246,-0.785 -2.102,-0.754 -1.628,0.051 -1.933,0.012 -1.988,-0.003 0.071,0.019 0.172,0.109 0.18,0.246 0.008,0.097 -0.035,0.175 -0.086,0.222 l -0.109,-0.558"
         style="fill:#100f0d;fill-opacity:1;fill-rule:nonzero;stroke:none"
         id="path68" /><path
         d="m 230.668,125.457 c -0.691,0 -1.262,0.195 -1.699,0.59 -1.094,0.976 -0.922,2.797 -0.914,2.875 l 0.59,-0.063 c 0,-0.015 -0.149,-1.597 0.718,-2.375 0.473,-0.418 1.176,-0.535 2.09,-0.347 2.567,1.851 2.742,3.75 2.848,4.883 0.031,0.328 0.054,0.589 0.125,0.8 0.199,0.594 -0.656,0.887 -0.692,0.899 l 0.188,0.562 c 0.504,-0.168 1.371,-0.726 1.066,-1.648 -0.047,-0.149 -0.07,-0.387 -0.097,-0.668 -0.114,-1.242 -0.309,-3.324 -3.141,-5.348 l -0.051,-0.035 -0.058,-0.012 c -0.348,-0.078 -0.672,-0.113 -0.973,-0.113"
         style="fill:#100f0d;fill-opacity:1;fill-rule:nonzero;stroke:none"
         id="path70" /><path
         d="m 233.184,124.172 c -0.633,0 -1.239,0.176 -1.649,0.516 -0.371,0.308 -0.527,0.71 -0.445,1.128 l 0.582,-0.117 c -0.039,-0.199 0.043,-0.386 0.246,-0.554 0.434,-0.364 1.383,-0.551 2.289,-0.188 1.309,0.523 3.316,4.219 3.043,6.137 -0.062,0.437 -0.223,0.722 -0.473,0.84 -0.484,0.234 -1.265,-0.114 -1.527,-0.27 l -0.301,0.512 c 0.047,0.027 1.219,0.711 2.086,0.293 0.442,-0.211 0.711,-0.645 0.805,-1.289 0.32,-2.258 -1.84,-6.145 -3.414,-6.774 -0.395,-0.16 -0.824,-0.234 -1.242,-0.234"
         style="fill:#100f0d;fill-opacity:1;fill-rule:nonzero;stroke:none"
         id="path72" /><path
         d="m 237.871,123.508 -0.066,0.59 c 0.062,0.011 0.308,0.175 0.703,0.804 0.867,1.375 1.894,4.149 1.488,5.571 -0.129,0.449 -0.332,0.718 -0.609,0.808 -0.512,0.164 -1.231,-0.285 -1.461,-0.472 l -0.371,0.464 c 0.043,0.036 1.097,0.868 2.011,0.571 0.481,-0.153 0.817,-0.559 1,-1.211 0.465,-1.621 -0.656,-4.711 -1.664,-6.215 -0.386,-0.578 -0.726,-0.875 -1.031,-0.91"
         style="fill:#100f0d;fill-opacity:1;fill-rule:nonzero;stroke:none"
         id="path74" /><path
         d="m 241.949,130.23 c -0.527,0.454 -1.328,0.059 -1.336,0.055 l -0.265,0.531 c 0.047,0.024 1.164,0.571 1.988,-0.136 l -0.387,-0.45"
         style="fill:#100f0d;fill-opacity:1;fill-rule:nonzero;stroke:none"
         id="path76" /><path
         d="m 236.824,123.164 c -0.746,0 -1.886,0.223 -2.383,1.297 l 0.536,0.25 c 0.507,-1.102 2.027,-0.984 2.3,-0.914 l 0.145,-0.574 c -0.113,-0.028 -0.332,-0.059 -0.598,-0.059"
         style="fill:#100f0d;fill-opacity:1;fill-rule:nonzero;stroke:none"
         id="path78" /><path
         d="m 226.508,126.539 -0.031,0.59 c 0.328,0.019 1.968,0.101 2.07,0.101 v -0.593 c -0.086,0 -1.266,-0.059 -2.039,-0.098"
         style="fill:#100f0d;fill-opacity:1;fill-rule:nonzero;stroke:none"
         id="path80" /><path
         d="m 233.082,118.352 -0.266,0.531 c 0.235,0.172 0.52,1.672 0.618,3.273 l 0.007,0.114 1.696,1.695 1.035,-1.43 0.203,-3.312 -0.594,-0.035 -0.187,3.14 -0.531,0.727 -1.043,-1.047 c -0.082,-1.281 -0.317,-3.344 -0.938,-3.656"
         style="fill:#100f0d;fill-opacity:1;fill-rule:nonzero;stroke:none"
         id="path82" /><path
         d="m 230.344,118.742 -0.27,0.531 c 0.235,0.153 0.528,1.543 0.621,2.985 l 0.008,0.094 2.004,2.476 0.211,-0.398 c 0.039,-0.075 0.98,-1.864 1.078,-2.059 l -0.531,-0.266 c -0.067,0.133 -0.57,1.094 -0.863,1.649 l -1.321,-1.629 c -0.07,-0.98 -0.293,-3.059 -0.937,-3.383"
         style="fill:#100f0d;fill-opacity:1;fill-rule:nonzero;stroke:none"
         id="path84" /><path
         d="m 227.48,119.027 -0.218,0.551 c 0.191,0.149 0.355,1.332 0.433,1.899 0.055,0.398 0.11,0.777 0.172,1.027 0.215,0.863 1.949,1.855 2.297,2.047 l 0.301,0.164 0.117,-0.32 c 0.703,-1.911 0.703,-2 0.703,-2.059 h -0.59 0.293 l -0.289,-0.047 c -0.023,0.106 -0.281,0.832 -0.551,1.566 -0.73,-0.441 -1.609,-1.097 -1.707,-1.496 -0.054,-0.218 -0.105,-0.582 -0.16,-0.964 -0.183,-1.348 -0.332,-2.18 -0.801,-2.368"
         style="fill:#100f0d;fill-opacity:1;fill-rule:nonzero;stroke:none"
         id="path86" /><path
         d="M 224.734,119.973 224.141,120 c 0.101,2.23 2.816,4.883 3.621,4.883 0.164,0 0.312,-0.07 0.426,-0.195 0.39,-0.434 0.296,-1.563 0.261,-1.899 l -0.59,0.066 c 0.071,0.637 0.012,1.336 -0.117,1.442 -0.469,-0.067 -2.918,-2.328 -3.008,-4.324"
         style="fill:#100f0d;fill-opacity:1;fill-rule:nonzero;stroke:none"
         id="path88" /><path
         d="m 196.363,157.336 -0.59,0.031 c 0.004,0.086 0.118,2.102 1.09,2.86 0.321,0.25 1.004,0.582 1.867,1.007 1.575,0.774 3.723,1.829 4.333,2.739 0.246,0.371 0.371,0.554 0.625,0.41 0.25,-0.145 0.167,-0.313 -0.075,-0.813 -0.324,-0.668 -1.316,-2.699 -1.101,-3.281 l -0.559,-0.203 c -0.195,0.535 0.113,1.504 0.59,2.59 -0.977,-0.707 -2.363,-1.391 -3.551,-1.973 -0.801,-0.394 -1.492,-0.734 -1.762,-0.945 -0.632,-0.492 -0.839,-1.914 -0.867,-2.422"
         style="fill:#100f0d;fill-opacity:1;fill-rule:nonzero;stroke:none"
         id="path90" /><path
         d="m 199.777,157.758 -0.566,0.168 c 0.402,1.375 -1.406,2.054 -1.481,2.086 l 0.204,0.554 c 0.832,-0.304 2.293,-1.281 1.843,-2.808"
         style="fill:#100f0d;fill-opacity:1;fill-rule:nonzero;stroke:none"
         id="path92" /><path
         d="m 198.762,160.602 c -0.797,0 -1.442,-0.645 -1.442,-1.442 0,-0.793 0.645,-1.441 1.442,-1.441 0.793,0 1.441,0.648 1.441,1.441 0,0.797 -0.648,1.442 -1.441,1.442 z m 0,-3.227 c -0.985,0 -1.789,0.801 -1.789,1.785 0,0.985 0.804,1.789 1.789,1.789 0.984,0 1.785,-0.804 1.785,-1.789 0,-0.984 -0.801,-1.785 -1.785,-1.785"
         style="fill:#100f0d;fill-opacity:1;fill-rule:nonzero;stroke:none"
         id="path94" /><path
         d="m 284.137,162.59 c -0.407,0.734 -2.922,1.609 -3.555,1.609 -0.695,0 -15.074,1.692 -15.684,1.762 l 0.071,0.59 c 4.156,-0.492 15.066,-1.762 15.613,-1.762 0.715,0 3.504,-0.883 4.074,-1.91 l -0.519,-0.289"
         style="fill:#100f0d;fill-opacity:1;fill-rule:nonzero;stroke:none"
         id="path96" /><path
         d="m 286.543,166.348 -20.836,0.492 0.016,0.59 20.832,-0.489 -0.012,-0.593"
         style="fill:#100f0d;fill-opacity:1;fill-rule:nonzero;stroke:none"
         id="path98" /><path
         d="m 265.828,167.328 -0.035,0.59 c 7.582,0.453 19.961,1.691 20.898,3.098 l 0.493,-0.328 c -1.411,-2.118 -19.317,-3.239 -21.356,-3.36"
         style="fill:#100f0d;fill-opacity:1;fill-rule:nonzero;stroke:none"
         id="path100" /><path
         d="m 266.434,171.633 -0.067,0.59 c 0.051,0.007 5.024,0.543 9.957,1.039 10.156,1.023 10.235,0.902 10.375,0.691 l -0.492,-0.332 c 0.051,-0.074 0.121,-0.105 0.152,-0.109 -0.718,0.125 -12.308,-1.051 -19.925,-1.879"
         style="fill:#100f0d;fill-opacity:1;fill-rule:nonzero;stroke:none"
         id="path102" /><path
         d="m 265.762,174.078 -0.094,0.586 c 0.051,0.008 4.875,0.77 9.664,1.457 9.914,1.426 9.996,1.219 10.121,0.906 l -0.551,-0.222 c 0.043,-0.098 0.121,-0.137 0.149,-0.145 -0.817,0.207 -11.981,-1.43 -19.289,-2.582"
         style="fill:#100f0d;fill-opacity:1;fill-rule:nonzero;stroke:none"
         id="path104" /><path
         d="m 216.516,175.605 -0.59,0.079 c 0.562,4.312 -5.34,10.847 -5.403,10.91 l 0.438,0.402 c 0.254,-0.277 6.152,-6.805 5.555,-11.391"
         style="fill:#100f0d;fill-opacity:1;fill-rule:nonzero;stroke:none"
         id="path106" /><path
         d="m 230.781,166.902 c -1.156,0 -2.281,0.219 -3.297,0.657 -1.25,0.539 -2.132,1.339 -2.351,2.14 -0.184,0.848 0.301,1.168 0.656,1.406 0.395,0.258 0.68,0.45 0.512,1.25 -0.289,2.168 -4.797,2.883 -6.719,3.188 -0.613,0.098 -0.945,0.152 -1.117,0.219 -0.828,0.308 -2.543,2.75 -2.879,3.238 l 0.488,0.336 c 0.739,-1.066 2.094,-2.832 2.598,-3.02 0.125,-0.046 0.531,-0.113 1.004,-0.187 2.226,-0.356 6.863,-1.09 7.207,-3.672 0.25,-1.176 -0.336,-1.562 -0.766,-1.848 -0.336,-0.222 -0.504,-0.336 -0.41,-0.769 0.164,-0.594 0.957,-1.281 2.012,-1.738 2.265,-0.977 5.121,-0.762 7.633,0.57 l 0.277,-0.527 c -1.555,-0.821 -3.234,-1.243 -4.848,-1.243"
         style="fill:#100f0d;fill-opacity:1;fill-rule:nonzero;stroke:none"
         id="path108" /><path
         d="m 235.504,164.184 c -0.133,0 -0.262,0.007 -0.391,0.015 -2.765,0.211 -4.398,2.571 -4.465,2.672 l 0.493,0.332 c 0.011,-0.019 1.543,-2.226 4.023,-2.414 1.84,-0.137 3.754,0.852 5.684,2.938 l 0.437,-0.403 c -1.93,-2.086 -3.875,-3.14 -5.781,-3.14"
         style="fill:#100f0d;fill-opacity:1;fill-rule:nonzero;stroke:none"
         id="path110" /><path
         d="m 240.281,164.102 c -1.465,0 -2.461,0.507 -2.484,0.519 l 0.277,0.524 c 0.196,-0.102 4.797,-2.415 8.703,4.097 l 0.508,-0.304 c -2.379,-3.969 -5.09,-4.836 -7.004,-4.836"
         style="fill:#100f0d;fill-opacity:1;fill-rule:nonzero;stroke:none"
         id="path112" /><path
         d="m 244.43,163.254 c -1.864,0 -2.805,0.762 -2.867,0.816 l 0.378,0.453 c 0.024,-0.015 2.379,-1.875 7.204,0.719 l 0.281,-0.523 c -2.09,-1.121 -3.75,-1.465 -4.996,-1.465"
         style="fill:#100f0d;fill-opacity:1;fill-rule:nonzero;stroke:none"
         id="path114" /><path
         d="m 264.137,165.457 c -0.399,0.313 -4.844,1.344 -7.871,1.973 l 0.121,0.582 c 1.785,-0.371 7.656,-1.625 8.168,-2.137 l -0.418,-0.418"
         style="fill:#100f0d;fill-opacity:1;fill-rule:nonzero;stroke:none"
         id="path116" /><path
         d="m 264.434,168.895 c -1.774,0.066 -5.157,0.191 -5.274,0.195 v 0.59 c 0.102,0 4.43,-0.16 5.293,-0.196 l -0.019,-0.589"
         style="fill:#100f0d;fill-opacity:1;fill-rule:nonzero;stroke:none"
         id="path118" /><path
         d="m 265.855,170.887 c -0.792,1.254 -6.355,1.367 -9.906,1.136 l -0.035,0.59 c 0.938,0.063 9.207,0.543 10.441,-1.41 l -0.5,-0.316"
         style="fill:#100f0d;fill-opacity:1;fill-rule:nonzero;stroke:none"
         id="path120" /><path
         d="m 265,173.789 c -0.547,0.383 -7.105,0.844 -12.992,1.07 l 0.023,0.59 c 3.832,-0.144 12.813,-0.566 13.418,-1.273 L 265,173.789"
         style="fill:#100f0d;fill-opacity:1;fill-rule:nonzero;stroke:none"
         id="path122" /><path
         d="m 254.934,161.957 -0.157,0.57 c 1.539,0.422 2.461,0.493 2.735,0.219 l -0.418,-0.422 c 0.015,-0.015 0.031,-0.019 0.031,-0.019 -0.215,0.09 -1.309,-0.11 -2.191,-0.348"
         style="fill:#100f0d;fill-opacity:1;fill-rule:nonzero;stroke:none"
         id="path124" /><path
         d="m 254.535,155.02 c -2.73,0 -4.664,1.632 -4.762,1.718 l 0.387,0.45 c 0.028,-0.024 2.762,-2.329 6.176,-1.309 l 0.172,-0.57 c -0.692,-0.204 -1.352,-0.289 -1.973,-0.289"
         style="fill:#100f0d;fill-opacity:1;fill-rule:nonzero;stroke:none"
         id="path126" /><path
         d="m 256.043,151.688 c -2.621,0 -4.531,0.847 -4.637,0.898 l 0.246,0.535 c 0.032,-0.012 3.192,-1.41 6.856,-0.566 l 0.133,-0.578 c -0.914,-0.207 -1.789,-0.289 -2.598,-0.289"
         style="fill:#100f0d;fill-opacity:1;fill-rule:nonzero;stroke:none"
         id="path128" /><path
         d="m 257.43,148.305 c -2.176,0 -4.864,1.773 -4.989,1.859 l 0.329,0.492 c 0.031,-0.019 3.156,-2.082 5.164,-1.715 l 0.105,-0.582 c -0.195,-0.039 -0.402,-0.054 -0.609,-0.054"
         style="fill:#100f0d;fill-opacity:1;fill-rule:nonzero;stroke:none"
         id="path130" /><path
         d="m 253.195,146.563 c -0.058,0.515 -1.34,1.675 -2.23,2.335 l 0.351,0.477 c 0.395,-0.289 2.36,-1.789 2.465,-2.746 l -0.586,-0.066"
         style="fill:#100f0d;fill-opacity:1;fill-rule:nonzero;stroke:none"
         id="path132" /><path
         d="m 251.004,142.125 c -2.543,1.32 -3.254,4.848 -3.285,4.996 l 0.582,0.113 c 0.008,-0.031 0.691,-3.394 2.976,-4.586 l -0.273,-0.523"
         style="fill:#100f0d;fill-opacity:1;fill-rule:nonzero;stroke:none"
         id="path134" /><path
         d="m 247.797,137.977 c -2.82,2.918 -1.785,7.511 -1.738,7.707 l 0.578,-0.137 c -0.012,-0.043 -1.004,-4.477 1.586,-7.16 l -0.426,-0.41"
         style="fill:#100f0d;fill-opacity:1;fill-rule:nonzero;stroke:none"
         id="path136" /><path
         d="m 243.145,139.516 c -0.067,0.136 -0.102,0.367 0.046,2.222 0.012,0.137 0.02,0.235 0.024,0.262 l 0.59,-0.004 c 0,-0.023 -0.008,-0.137 -0.02,-0.305 -0.094,-1.152 -0.125,-1.804 -0.094,-1.949 0,0 -0.003,0.016 -0.015,0.039 l -0.531,-0.265"
         style="fill:#100f0d;fill-opacity:1;fill-rule:nonzero;stroke:none"
         id="path138" /><path
         d="m 225.918,159.504 -0.031,0.59 5.23,0.293 c 0.242,0.105 0.766,0.414 0.836,0.789 0.043,0.226 -0.086,0.476 -0.383,0.754 l 0.403,0.433 c 0.457,-0.422 0.644,-0.859 0.562,-1.297 -0.144,-0.789 -1.129,-1.203 -1.238,-1.25 l -0.098,-0.019 -5.281,-0.293"
         style="fill:#100f0d;fill-opacity:1;fill-rule:nonzero;stroke:none"
         id="path140" /><path
         d="m 242.996,153.75 c -0.211,0 -0.449,0.07 -0.703,0.215 -0.574,0.316 -1.301,1.398 -2.137,2.648 -0.558,0.84 -1.14,1.703 -1.66,2.305 -1.101,1.27 -5.43,1.73 -6.047,1.758 l 0.012,0.59 c 0.047,0 5.098,-0.36 6.48,-1.957 0.547,-0.633 1.137,-1.512 1.707,-2.364 0.731,-1.09 1.485,-2.215 1.93,-2.465 0.227,-0.125 0.41,-0.167 0.52,-0.121 0.093,0.039 0.129,0.137 0.129,0.137 l 0.57,-0.16 c -0.012,-0.039 -0.117,-0.375 -0.473,-0.523 -0.101,-0.043 -0.211,-0.063 -0.328,-0.063"
         style="fill:#100f0d;fill-opacity:1;fill-rule:nonzero;stroke:none"
         id="path142" /><path
         d="m 240.609,149.086 c -2.261,1.508 0.379,6.07 0.493,6.266 l 0.511,-0.301 c -0.691,-1.184 -2.168,-4.477 -0.675,-5.473 l -0.329,-0.492"
         style="fill:#100f0d;fill-opacity:1;fill-rule:nonzero;stroke:none"
         id="path144" /><path
         d="m 239.211,145.289 c -2.051,1.727 0.34,4.965 0.441,5.102 l 0.477,-0.356 c -0.024,-0.027 -2.16,-2.926 -0.535,-4.289 l -0.383,-0.457"
         style="fill:#100f0d;fill-opacity:1;fill-rule:nonzero;stroke:none"
         id="path146" /><path
         d="m 239.105,140.602 c -2.402,2.195 -0.464,5.429 -0.445,5.461 l 0.508,-0.309 c -0.07,-0.117 -1.703,-2.852 0.34,-4.715 l -0.403,-0.437"
         style="fill:#100f0d;fill-opacity:1;fill-rule:nonzero;stroke:none"
         id="path148" /><path
         d="m 235.352,152.336 c -0.157,0 -0.301,0.027 -0.422,0.09 l 0.265,0.531 c 0.504,-0.258 2.387,0.938 2.692,1.211 l 0.414,-0.426 c -0.02,-0.015 -1.824,-1.406 -2.949,-1.406"
         style="fill:#100f0d;fill-opacity:1;fill-rule:nonzero;stroke:none"
         id="path150" /><path
         d="m 237.309,148.09 c -0.817,0 -1.606,0.762 -1.7,0.855 l 0.418,0.418 c 0.219,-0.215 0.895,-0.758 1.383,-0.672 l 0.098,-0.586 c -0.067,-0.011 -0.133,-0.015 -0.199,-0.015"
         style="fill:#100f0d;fill-opacity:1;fill-rule:nonzero;stroke:none"
         id="path152" /><path
         d="m 237.164,143.359 -1.41,0.965 0.336,0.492 1.41,-0.968 -0.336,-0.489"
         style="fill:#100f0d;fill-opacity:1;fill-rule:nonzero;stroke:none"
         id="path154" /><path
         d="m 237.18,140.066 -1.219,0.739 0.305,0.508 1.218,-0.739 -0.304,-0.508"
         style="fill:#100f0d;fill-opacity:1;fill-rule:nonzero;stroke:none"
         id="path156" /><path
         d="m 216.531,188.133 c -1.41,0 -2.574,0.59 -2.648,0.629 l 0.273,0.527 c 0.028,-0.012 2.449,-1.238 4.332,-0.016 2.098,1.364 11.996,6.411 14.575,7.235 2.429,0.777 3.835,5.433 4.328,7.402 l 0.574,-0.144 c -0.641,-2.563 -2.106,-6.985 -4.723,-7.825 -2.551,-0.812 -12.351,-5.812 -14.429,-7.164 -0.747,-0.484 -1.547,-0.644 -2.282,-0.644"
         style="fill:#100f0d;fill-opacity:1;fill-rule:nonzero;stroke:none"
         id="path158" /><path
         d="m 235.809,198 -0.164,0.566 14.335,4.2 c 0.313,0.285 2.231,2.148 2.321,5.297 l 0.59,-0.016 c -0.106,-3.692 -2.477,-5.692 -2.575,-5.774 L 250.27,202.234 235.809,198"
         style="fill:#100f0d;fill-opacity:1;fill-rule:nonzero;stroke:none"
         id="path160" /><path
         d="m 251.594,203.852 -0.059,0.589 c 0.141,0.016 14.133,1.473 14.133,6.497 h 0.594 c 0,-5.555 -14.071,-7.028 -14.668,-7.086"
         style="fill:#100f0d;fill-opacity:1;fill-rule:nonzero;stroke:none"
         id="path162" /><path
         d="m 263.777,206.945 -0.152,0.575 c 4.184,1.136 15.285,4.355 16.422,5.574 l 0.433,-0.406 c -1.457,-1.559 -15.144,-5.321 -16.703,-5.743"
         style="fill:#100f0d;fill-opacity:1;fill-rule:nonzero;stroke:none"
         id="path164" /><path
         d="M 221.668,185.473 221.395,186 c 0.375,0.195 9.191,4.746 10.632,5.262 0.809,0.289 2.387,2 2.203,3.074 -0.14,0.809 -1.335,0.98 -2.308,0.98 v 0.59 c 2.18,0 2.773,-0.801 2.891,-1.472 0.25,-1.446 -1.559,-3.364 -2.586,-3.731 -1.407,-0.5 -10.469,-5.183 -10.559,-5.23"
         style="fill:#100f0d;fill-opacity:1;fill-rule:nonzero;stroke:none"
         id="path166" /><path
         d="m 225.953,183.586 v 0.297 l -0.113,0.273 c 0.062,0.032 0.437,0.262 0.871,0.532 2.102,1.3 6.977,4.324 9.039,4.906 0.578,0.844 0.719,1.746 0.355,2.316 -0.308,0.492 -0.933,0.68 -1.765,0.528 l -0.11,0.582 c 1.075,0.195 1.938,-0.094 2.379,-0.793 0.512,-0.809 0.344,-1.985 -0.437,-3.067 l -0.063,-0.086 -0.105,-0.027 c -1.906,-0.477 -7.047,-3.664 -8.984,-4.863 -0.961,-0.598 -0.961,-0.598 -1.067,-0.598"
         style="fill:#100f0d;fill-opacity:1;fill-rule:nonzero;stroke:none"
         id="path168" /><path
         d="m 228.965,181.871 -0.266,0.531 c 0.082,0.039 8.258,4.133 10.281,5.582 0.309,0.719 0.301,1.278 -0.015,1.657 -0.602,0.722 -2.11,0.703 -2.32,0.648 l -0.043,0.168 -0.188,0.379 c 0.277,0.137 2.008,0.16 2.875,-0.672 0.422,-0.406 0.797,-1.164 0.203,-2.492 l -0.031,-0.07 -0.063,-0.047 c -1.953,-1.442 -10.089,-5.512 -10.433,-5.684"
         style="fill:#100f0d;fill-opacity:1;fill-rule:nonzero;stroke:none"
         id="path170" /><path
         d="m 234.688,193.477 -0.188,0.562 15.922,5.309 c 0.207,0.48 0.551,1.547 0.246,2.168 -0.129,0.254 -0.359,0.418 -0.707,0.488 l 0.121,0.582 c 0.531,-0.113 0.906,-0.387 1.117,-0.813 0.528,-1.07 -0.261,-2.726 -0.293,-2.796 l -0.054,-0.114 -16.164,-5.386"
         style="fill:#100f0d;fill-opacity:1;fill-rule:nonzero;stroke:none"
         id="path172" /><path
         d="m 251.328,199.848 -0.14,0.574 c 0.105,0.027 10.5,2.531 12.82,3.844 0.726,1.148 0.027,1.941 -0.664,2.507 -0.149,0.118 -0.246,0.2 -0.246,0.356 h 0.593 c 0,0.113 -0.062,0.18 -0.062,0.18 0.016,-0.016 0.047,-0.043 0.09,-0.079 1.281,-1.042 1.535,-2.171 0.746,-3.351 l -0.039,-0.059 -0.059,-0.031 c -2.273,-1.348 -12.601,-3.836 -13.039,-3.941"
         style="fill:#100f0d;fill-opacity:1;fill-rule:nonzero;stroke:none"
         id="path174" /><path
         d="m 264.605,204.273 -0.16,0.571 15.118,4.219 0.16,-0.575 -15.118,-4.215"
         style="fill:#100f0d;fill-opacity:1;fill-rule:nonzero;stroke:none"
         id="path176" /><path
         d="m 265.434,201.086 -0.172,0.566 13.164,4.012 0.176,-0.566 -13.168,-4.012"
         style="fill:#100f0d;fill-opacity:1;fill-rule:nonzero;stroke:none"
         id="path178" /><path
         d="m 265.844,198.309 -0.168,0.57 11.621,3.492 0.172,-0.566 -11.625,-3.496"
         style="fill:#100f0d;fill-opacity:1;fill-rule:nonzero;stroke:none"
         id="path180" /><path
         d="m 266.668,195.941 -0.176,0.567 c 3.129,0.969 8.422,2.586 8.731,2.586 v -0.297 l 0.019,-0.293 c -0.363,-0.051 -5.328,-1.559 -8.574,-2.563"
         style="fill:#100f0d;fill-opacity:1;fill-rule:nonzero;stroke:none"
         id="path182" /><path
         d="m 268.133,193.789 -0.223,0.551 5.348,2.16 0.222,-0.551 -5.347,-2.16"
         style="fill:#100f0d;fill-opacity:1;fill-rule:nonzero;stroke:none"
         id="path184" /><path
         d="m 267.523,191.121 -0.238,0.543 c 4.481,1.981 4.676,1.981 4.746,1.981 v -0.297 l 0.043,-0.293 c -0.269,-0.063 -2.933,-1.219 -4.551,-1.934"
         style="fill:#100f0d;fill-opacity:1;fill-rule:nonzero;stroke:none"
         id="path186" /><path
         d="m 266.707,188.758 -0.254,0.535 4.113,1.953 0.258,-0.535 -4.117,-1.953"
         style="fill:#100f0d;fill-opacity:1;fill-rule:nonzero;stroke:none"
         id="path188" /><path
         d="m 264.301,185.688 -0.582,0.093 c 0.058,0.356 -0.188,0.481 -0.235,0.504 l 0.223,0.547 c 0.258,-0.102 0.707,-0.473 0.594,-1.144"
         style="fill:#100f0d;fill-opacity:1;fill-rule:nonzero;stroke:none"
         id="path190" /><path
         d="m 248.926,175.59 -0.485,0.34 c 0.883,1.261 2.102,1.691 3.082,2.035 0.672,0.238 1.254,0.441 1.547,0.848 l 0.032,0.035 c 0.468,0.468 0.675,0.879 0.605,1.191 -0.09,0.395 -0.59,0.582 -0.59,0.582 l 0.192,0.559 c 0.031,-0.012 0.816,-0.293 0.976,-1.008 0.121,-0.524 -0.133,-1.106 -0.746,-1.727 -0.406,-0.543 -1.094,-0.785 -1.82,-1.039 -0.946,-0.336 -2.02,-0.711 -2.793,-1.816"
         style="fill:#100f0d;fill-opacity:1;fill-rule:nonzero;stroke:none"
         id="path192" /><path
         d="m 236.832,190.594 -0.16,0.57 c 4.297,1.203 12.644,3.613 13.516,4.09 1.035,0.562 1.425,1.219 1.429,1.223 l 0.059,0.101 0.109,0.035 c 0.086,0.028 8.653,2.649 12.949,4.278 0.489,0.855 0.641,1.574 0.43,2.07 -0.223,0.539 -0.805,0.691 -0.805,0.691 l 0.133,0.578 c 0.035,-0.011 0.871,-0.218 1.219,-1.031 0.297,-0.707 0.125,-1.613 -0.52,-2.703 l -0.05,-0.086 -0.098,-0.039 c -4.027,-1.531 -11.984,-3.988 -12.98,-4.293 -0.165,-0.238 -0.641,-0.832 -1.59,-1.348 -1.149,-0.625 -13.129,-3.996 -13.641,-4.136"
         style="fill:#100f0d;fill-opacity:1;fill-rule:nonzero;stroke:none"
         id="path194" /><path
         d="m 239.934,187.719 -0.188,0.558 c 4.856,1.621 12.238,4.125 12.68,4.387 0.242,0.184 0.363,0.742 0.387,0.926 l 0.027,0.187 0.18,0.059 c 0.093,0.027 9.359,2.887 11.976,4.394 0.426,0.321 0.953,0.821 0.899,1.317 -0.067,0.566 -0.864,0.93 -0.872,0.933 l 0.239,0.543 c 0.043,-0.019 1.117,-0.496 1.218,-1.41 0.075,-0.621 -0.32,-1.254 -1.16,-1.879 -2.531,-1.461 -10.617,-4 -11.953,-4.41 -0.058,-0.301 -0.222,-0.859 -0.594,-1.14 -0.418,-0.313 -9.933,-3.5 -12.839,-4.465"
         style="fill:#100f0d;fill-opacity:1;fill-rule:nonzero;stroke:none"
         id="path196" /><path
         d="m 243.348,185.258 -0.227,0.547 c 0.348,0.144 8.567,3.508 9.899,3.918 1.23,0.379 2.007,1.332 2.015,1.343 l 0.055,0.067 0.082,0.027 c 0.082,0.028 8.168,2.766 10.715,4.278 0.586,0.562 0.843,1.062 0.754,1.445 -0.114,0.465 -0.735,0.742 -0.965,0.808 l 0.168,0.571 c 0.047,-0.016 1.152,-0.348 1.371,-1.239 0.148,-0.613 -0.168,-1.3 -0.942,-2.039 l -0.05,-0.039 c -2.465,-1.476 -9.883,-4.015 -10.782,-4.32 -0.218,-0.25 -1.027,-1.094 -2.246,-1.469 -1.308,-0.402 -9.765,-3.863 -9.847,-3.898"
         style="fill:#100f0d;fill-opacity:1;fill-rule:nonzero;stroke:none"
         id="path198" /><path
         d="m 245.82,182.789 -0.234,0.547 10.707,4.586 0.617,1.137 0.102,0.039 c 0.066,0.027 6.758,2.664 9.519,3.886 0.953,0.754 1.008,1.121 0.989,1.243 -0.043,0.261 -0.575,0.449 -0.926,0.574 -0.125,0.043 -0.239,0.086 -0.336,0.125 l 0.234,0.547 c 0.086,-0.039 0.188,-0.075 0.297,-0.114 0.516,-0.179 1.219,-0.429 1.316,-1.035 0.086,-0.519 -0.308,-1.101 -1.238,-1.828 l -0.062,-0.035 c -2.567,-1.141 -8.625,-3.539 -9.477,-3.875 l -0.613,-1.129 -10.895,-4.668"
         style="fill:#100f0d;fill-opacity:1;fill-rule:nonzero;stroke:none"
         id="path200" /><path
         d="m 258.047,186.074 -0.211,0.555 c 0.055,0.019 5.359,2.066 7.781,3.379 0.758,0.48 1.215,1.008 1.301,1.512 0.07,0.425 -0.145,0.703 -0.156,0.714 l 0.461,0.375 c 0.015,-0.019 0.386,-0.476 0.281,-1.168 -0.109,-0.687 -0.641,-1.343 -1.586,-1.945 -2.477,-1.34 -7.816,-3.398 -7.871,-3.422"
         style="fill:#100f0d;fill-opacity:1;fill-rule:nonzero;stroke:none"
         id="path202" /><path
         d="m 253.27,180.551 -0.325,0.496 4.215,2.777 c 0.094,0.047 6.473,3.391 8.137,4.223 0.391,0.285 0.594,0.558 0.59,0.793 -0.008,0.265 -0.285,0.449 -0.285,0.449 l 0.316,0.504 c 0.023,-0.016 0.543,-0.352 0.559,-0.938 0.011,-0.449 -0.274,-0.89 -0.856,-1.3 l -0.035,-0.028 c -1.625,-0.812 -8.059,-4.179 -8.121,-4.214 l -4.195,-2.762"
         style="fill:#100f0d;fill-opacity:1;fill-rule:nonzero;stroke:none"
         id="path204" /><path
         d="m 257.672,183.402 -0.484,0.344 c 0,0 0.093,0.149 0.046,0.336 -0.046,0.199 -0.246,0.395 -0.566,0.57 l -0.285,0.157 0.18,0.269 c 0.812,1.219 0.746,1.727 0.636,1.926 -0.172,0.301 -0.679,0.285 -0.683,0.285 l -0.571,-0.023 0.981,1.535 c -0.024,0.222 -0.219,0.996 -1.828,1.379 l -0.274,0.062 0.047,0.278 c 0.274,1.523 -1.683,2.66 -1.703,2.671 l -0.195,0.114 0.054,0.218 c 0.008,0.04 0.227,1.067 -1.125,2.055 l -0.179,0.133 0.078,0.211 c 0.445,1.187 -0.559,2.297 -0.938,2.715 -0.144,0.16 -0.211,0.234 -0.211,0.367 h 0.594 -0.297 l 0.254,0.144 c 0.016,-0.023 0.055,-0.062 0.102,-0.113 0.383,-0.426 1.511,-1.672 1.121,-3.109 1.144,-0.922 1.23,-1.895 1.207,-2.324 0.504,-0.332 1.941,-1.411 1.855,-2.914 2.121,-0.602 2.035,-1.934 2.032,-1.993 l -0.008,-0.074 -0.512,-0.805 c 0.254,-0.07 0.543,-0.218 0.715,-0.519 0.297,-0.527 0.137,-1.277 -0.492,-2.293 0.324,-0.231 0.523,-0.496 0.593,-0.801 0.098,-0.437 -0.121,-0.765 -0.144,-0.801"
         style="fill:#100f0d;fill-opacity:1;fill-rule:nonzero;stroke:none"
         id="path206" /><path
         d="m 247.648,180.27 -0.394,0.441 c 1.836,1.633 9.101,4.394 9.559,4.394 v -0.296 l 0.027,-0.293 c -0.418,-0.071 -7.383,-2.641 -9.192,-4.246"
         style="fill:#100f0d;fill-opacity:1;fill-rule:nonzero;stroke:none"
         id="path208" /><path
         d="m 248.492,178.789 v 0.672 c 0,0.105 -0.035,0.187 -0.109,0.258 -0.281,0.265 -0.992,0.285 -1.223,0.269 l -0.371,-0.023 0.063,0.367 c 0.027,0.188 0.046,0.723 -0.231,0.984 -0.187,0.176 -0.512,0.219 -0.957,0.118 l -0.418,-0.09 0.063,0.422 c 0.144,1.035 0.007,1.754 -0.399,2.078 -0.566,0.445 -1.558,0.078 -1.566,0.074 l -0.52,-0.203 0.121,0.543 c 0.047,0.23 0.106,0.898 -0.218,1.187 -0.309,0.278 -0.907,0.157 -1.352,0.008 l -0.449,-0.148 0.058,0.468 c 0.086,0.645 -0.023,1.137 -0.316,1.461 -0.453,0.493 -1.219,0.469 -1.227,0.469 l -0.027,0.59 c 0.043,0.004 1.043,0.043 1.684,-0.652 0.347,-0.379 0.515,-0.883 0.507,-1.508 0.661,0.148 1.168,0.066 1.516,-0.246 0.391,-0.352 0.461,-0.903 0.453,-1.293 0.453,0.094 1.164,0.14 1.703,-0.285 0.528,-0.418 0.75,-1.168 0.661,-2.235 0.46,0.035 0.828,-0.078 1.093,-0.332 0.352,-0.332 0.422,-0.828 0.426,-1.16 0.379,-0.016 0.977,-0.098 1.332,-0.434 0.063,-0.054 0.113,-0.121 0.156,-0.187 0.868,0.578 1.723,0.457 2.11,0.355 0.308,0.34 1.097,1.051 2.133,0.77 l -0.157,-0.574 c -0.922,0.254 -1.629,-0.699 -1.636,-0.711 l -0.137,-0.188 -0.219,0.09 c -0.043,0.016 -1.078,0.422 -2.051,-0.461 l -0.496,-0.453"
         style="fill:#100f0d;fill-opacity:1;fill-rule:nonzero;stroke:none"
         id="path210" /><path
         d="m 231.855,180.023 -0.285,0.52 c 3.66,2.023 9.231,5.152 9.59,5.484 -0.027,-0.023 -0.074,-0.093 -0.074,-0.191 h 0.594 c 0,-0.219 0,-0.379 -9.825,-5.813"
         style="fill:#100f0d;fill-opacity:1;fill-rule:nonzero;stroke:none"
         id="path212" /><path
         d="m 236.086,179.313 -0.313,0.503 7.305,4.528 0.313,-0.504 -7.305,-4.527"
         style="fill:#100f0d;fill-opacity:1;fill-rule:nonzero;stroke:none"
         id="path214" /><path
         d="m 239.473,177.766 -0.297,0.511 c 2.308,1.34 6.062,3.547 6.316,3.758 l 0.176,-0.207 h 0.328 c 0,-0.226 0,-0.273 -6.523,-4.062"
         style="fill:#100f0d;fill-opacity:1;fill-rule:nonzero;stroke:none"
         id="path216" /><path
         d="m 241.656,176.59 c -0.047,0 -0.086,0.004 -0.125,0.012 l 0.114,0.578 c 0.558,-0.11 3.187,1.699 5.308,3.437 l 0.375,-0.461 c -1.047,-0.855 -4.457,-3.566 -5.672,-3.566"
         style="fill:#100f0d;fill-opacity:1;fill-rule:nonzero;stroke:none"
         id="path218" /><path
         d="m 244.07,176.105 -0.23,0.543 c 2.101,0.903 4.64,2.825 4.668,2.844 l 0.359,-0.472 c -0.105,-0.079 -2.629,-1.985 -4.797,-2.915"
         style="fill:#100f0d;fill-opacity:1;fill-rule:nonzero;stroke:none"
         id="path220" /><path
         d="m 247.176,176.109 -0.274,0.528 c 3.676,1.914 4.145,2.918 4.2,3.183 0.003,0.024 0.043,0.051 0.027,0.071 l 0.461,0.371 c 0.039,-0.047 0.164,-0.235 0.094,-0.567 -0.196,-0.925 -1.715,-2.129 -4.508,-3.586"
         style="fill:#100f0d;fill-opacity:1;fill-rule:nonzero;stroke:none"
         id="path222" /></g></g></svg>
