<?xml version="1.0" encoding="UTF-8" standalone="no"?>
<svg
   xmlns:dc="http://purl.org/dc/elements/1.1/"
   xmlns:cc="http://creativecommons.org/ns#"
   xmlns:rdf="http://www.w3.org/1999/02/22-rdf-syntax-ns#"
   xmlns:svg="http://www.w3.org/2000/svg"
   xmlns="http://www.w3.org/2000/svg"
   version="1.1"
   id="svg2"
   xml:space="preserve"
   width="42.666668"
   height="42.666668"
   viewBox="0 0 42.666668 42.666668"><metadata
     id="metadata8"><rdf:RDF><cc:Work
         rdf:about=""><dc:format>image/svg+xml</dc:format><dc:type
           rdf:resource="http://purl.org/dc/dcmitype/StillImage" /></cc:Work></rdf:RDF></metadata><defs
     id="defs6" /><g
     id="g10"
     transform="matrix(1.3333333,0,0,-1.3333333,0,42.666667)"><g
       id="g12"
       transform="scale(0.1)"><path
         d="M 9.48047,214.355 H 310.516 c 6.117,-16.984 9.484,-35.269 9.484,-54.343 0,-19.09 -3.367,-37.383 -9.484,-54.321 H 9.48047 C 3.375,122.629 0,140.922 0,160.012 c 0,19.074 3.375,37.359 9.48047,54.343"
         style="fill:#ffffff;fill-opacity:1;fill-rule:evenodd;stroke:none"
         id="path14" /><path
         d="M 310.516,214.355 H 9.48047 C 31.7188,275.953 90.7188,319.992 160.004,319.992 c 69.238,0 128.226,-44.039 150.512,-105.637"
         style="fill:#ec1e37;fill-opacity:1;fill-rule:evenodd;stroke:none"
         id="path16" /><path
         d="M 9.48047,105.641 H 310.516 C 288.23,44.0859 229.242,0.0117188 160.004,0.0117188 90.7188,0.0117188 31.7188,44.0859 9.48047,105.641"
         style="fill:#ec1e37;fill-opacity:1;fill-rule:evenodd;stroke:none"
         id="path18" /></g></g></svg>
