<?xml version="1.0" encoding="UTF-8" standalone="no"?>
<svg
   xmlns:dc="http://purl.org/dc/elements/1.1/"
   xmlns:cc="http://creativecommons.org/ns#"
   xmlns:rdf="http://www.w3.org/1999/02/22-rdf-syntax-ns#"
   xmlns:svg="http://www.w3.org/2000/svg"
   xmlns="http://www.w3.org/2000/svg"
   version="1.1"
   id="svg2"
   xml:space="preserve"
   width="42.666668"
   height="42.666668"
   viewBox="0 0 42.666668 42.666668"><metadata
     id="metadata8"><rdf:RDF><cc:Work
         rdf:about=""><dc:format>image/svg+xml</dc:format><dc:type
           rdf:resource="http://purl.org/dc/dcmitype/StillImage" /></cc:Work></rdf:RDF></metadata><defs
     id="defs6" /><g
     id="g10"
     transform="matrix(1.3333333,0,0,-1.3333333,0,42.666667)"><g
       id="g12"
       transform="scale(0.1)"><path
         d="M 160.012,-0.0390625 C 248.133,-0.0390625 320,71.8477 320,159.977 320,248.117 248.133,320.012 160.012,320.012 71.8906,320.012 0,248.117 0,159.977 0,71.8477 71.8906,-0.0390625 160.012,-0.0390625"
         style="fill:#292e7b;fill-opacity:1;fill-rule:evenodd;stroke:none"
         id="path14" /><path
         d="m 50.168,272.699 c 0,1.172 0,2.367 0,3.528 -1.2266,-1.161 -2.4219,-2.332 -3.625,-3.528 1.2304,0 2.4453,0 3.625,0"
         style="fill:#ffffff;fill-opacity:1;fill-rule:nonzero;stroke:none"
         id="path16" /><path
         d="m 159.684,199.996 0.269,-0.047 c -0.031,3.215 0.051,6.485 -0.066,9.676 -15.77,9.676 -31.524,19.289 -47.27,28.953 -1.445,0.813 -2.855,2.02 -4.547,1.973 -4.769,-0.082 -9.5778,0.094 -14.3395,-0.141 21.8945,-13.742 44.0505,-26.738 65.9535,-40.414 z M 42.1133,240.41 c -4.711,0.235 -9.5117,0.059 -14.2539,0.141 -1.3399,0.094 -2.5547,-0.715 -3.75,-1.43 -1.5821,-0.996 -3.1563,-1.941 -4.7305,-2.937 -2.4531,-4.469 -4.6797,-9.071 -6.6992,-13.793 9.8476,5.933 19.668,11.906 29.4336,18.019 z m 97.1097,78.281 c -20.473,-12.578 -41.0589,-24.8 -61.4535,-37.515 4.6016,-0.184 9.25,0 13.8633,-0.098 1.168,-0.086 2.336,0.27 3.3828,0.973 20.6094,12.726 41.3904,25.16 61.9884,37.961 -6.024,-0.094 -11.945,-0.551 -17.781,-1.321 z M 50.168,276.227 c 6.0976,5.75 12.6406,11.031 19.5547,15.769 0,-6.418 0,-12.871 0.0117,-19.297 30.0312,0 60.1206,0 90.1876,0 0.031,-7.933 0.031,-15.836 -0.035,-23.765 -30.032,0 -60.1214,0 -90.1526,0 -0.043,-16.313 0,-32.668 -0.043,-48.985 -6.4844,0 -12.9805,0 -19.5234,0 -0.0313,16.317 0,32.672 0,48.985 -7.6953,0 -15.3867,0 -23.086,0 5.7227,8.531 12.2657,16.519 19.461,23.765 1.2304,0 2.4453,0 3.625,0 0,1.172 0,2.367 0,3.528"
         style="fill:#ed1d24;fill-opacity:1;fill-rule:nonzero;stroke:none"
         id="path18" /><path
         d="m 88.0742,154.453 c 1.8008,5.598 3.5117,11.235 5.4375,16.805 1.9414,-5.57 3.6406,-11.207 5.4375,-16.805 5.6018,2 11.0428,4.277 16.6448,6.199 -3.207,-4.976 -6.512,-9.836 -9.766,-14.73 5.004,-3.149 10.199,-5.977 15.192,-9.125 -5.887,-0.633 -11.727,-1.039 -17.629,-1.617 0.757,-5.891 1.664,-11.778 2.437,-17.668 -4.117,4.273 -8.1288,8.683 -12.3163,12.859 -4.1758,-4.176 -8.1679,-8.586 -12.3047,-12.859 0.7578,5.89 1.6524,11.777 2.4258,17.668 -5.8867,0.578 -11.7305,0.937 -17.6133,1.617 4.9883,3.148 10.1758,5.976 15.1875,9.125 -3.2539,4.894 -6.5625,9.754 -9.7617,14.73 5.6133,-1.922 11.0664,-4.199 16.6289,-6.199"
         style="fill:#ffffff;fill-opacity:1;fill-rule:nonzero;stroke:none"
         id="path20" /><path
         d="m 19.3789,236.184 c 1.5742,0.996 3.1484,1.941 4.7305,2.937 1.1953,0.715 2.4101,1.524 3.75,1.43 4.7422,-0.082 9.5429,0.094 14.2539,-0.141 -9.7656,-6.113 -19.586,-12.086 -29.4336,-18.019 -0.9102,-2.172 -1.8047,-4.375 -2.6289,-6.602 10.9687,6.656 21.9961,13.32 32.9961,19.961 0.0312,-11.945 0,-23.871 0.0312,-35.801 2.3516,0 4.7266,0 7.0899,0 -0.0313,16.317 0,32.672 0,48.985 -7.6953,0 -15.3867,0 -23.086,0 -2.7695,-4.114 -5.3242,-8.364 -7.7031,-12.75"
         style="fill:#ffffff;fill-opacity:1;fill-rule:nonzero;stroke:none"
         id="path22" /><path
         d="m 234.473,227.746 c -0.399,-2.73 -0.825,-5.441 -1.137,-8.226 2.012,1.933 3.824,4.011 5.82,6 1.989,-1.989 3.766,-4.067 5.821,-5.95 -0.332,2.735 -0.77,5.446 -1.149,8.176 2.731,0.387 5.539,0.422 8.285,0.805 -2.269,1.558 -4.738,2.887 -7.047,4.32 1.403,2.391 3.079,4.613 4.524,7.039 -2.641,-0.914 -5.18,-2.09 -7.875,-2.906 -0.848,2.609 -1.617,5.246 -2.559,7.863 -0.953,-2.617 -1.711,-5.254 -2.554,-7.863 -2.704,0.816 -5.274,1.992 -7.911,2.906 1.469,-2.426 3.11,-4.648 4.52,-7.039 -2.305,-1.433 -4.75,-2.703 -7.02,-4.32 2.731,-0.383 5.52,-0.418 8.282,-0.805"
         style="fill:#ffffff;fill-opacity:1;fill-rule:nonzero;stroke:none"
         id="path24" /><path
         d="m 245.012,106.824 c 1.547,2.242 3.133,4.535 4.578,6.875 -2.641,-0.898 -5.246,-1.969 -7.828,-2.879 -0.973,2.387 -1.446,5.34 -2.606,7.375 -1.195,-2.035 -1.66,-4.988 -2.613,-7.375 -2.645,0.91 -5.215,1.981 -7.852,2.879 1.469,-2.34 2.973,-4.633 4.59,-6.875 -2.297,-1.66 -4.867,-2.875 -7.207,-4.433 2.805,-0.286 5.59,-0.512 8.332,-0.731 -0.332,-2.7811 -0.758,-5.5389 -1.07,-8.2772 2.012,1.8828 3.824,4.0039 5.82,5.9414 1.989,-1.9375 3.766,-4.0586 5.821,-5.9414 -0.332,2.7383 -0.805,5.4961 -1.106,8.2772 2.758,0.219 5.555,0.445 8.344,0.731 -2.328,1.558 -4.887,2.773 -7.203,4.433"
         style="fill:#ffffff;fill-opacity:1;fill-rule:nonzero;stroke:none"
         id="path26" /><path
         d="m 294.297,189.895 c -2.332,1.613 -4.891,2.859 -7.219,4.398 1.57,2.312 3.11,4.648 4.61,6.953 -2.672,-0.918 -5.215,-1.996 -7.86,-2.894 -1.012,2.519 -1.34,5.312 -2.75,7.617 -0.863,-2.539 -1.664,-5.098 -2.469,-7.617 -2.648,0.898 -5.187,1.976 -7.859,2.894 1.461,-2.355 2.969,-4.641 4.598,-6.914 -2.27,-1.637 -4.864,-2.824 -7.18,-4.437 2.785,-0.297 5.551,-0.477 8.316,-0.704 -0.332,-2.785 -0.8,-5.476 -1.089,-8.285 2.043,1.895 3.89,4.012 5.82,5.957 1.996,-1.945 3.808,-4.062 5.769,-5.957 -0.226,2.766 -0.765,5.5 -1.027,8.285 2.731,0.227 5.52,0.45 8.34,0.704"
         style="fill:#ffffff;fill-opacity:1;fill-rule:nonzero;stroke:none"
         id="path28" /><path
         d="m 260.156,163.398 c -0.812,1.418 -1.035,3.415 -2.09,4.5 -0.996,-1.046 -1.332,-3.082 -2.062,-4.5 -1.711,-0.136 -3.453,-0.226 -5.164,-0.382 1.078,-1.414 2.648,-2.313 3.933,-3.586 -0.48,-1.692 -0.906,-3.446 -1.285,-5.157 1.539,0.903 3.078,1.848 4.578,2.793 1.532,-0.945 3.055,-1.89 4.602,-2.793 -0.379,1.711 -0.801,3.465 -1.273,5.157 1.273,1.273 2.828,2.172 3.906,3.586 -1.727,0.156 -3.434,0.246 -5.145,0.382"
         style="fill:#ffffff;fill-opacity:1;fill-rule:nonzero;stroke:none"
         id="path30" /><path
         d="m 197.699,181.668 c 1.457,2.316 3.168,4.527 4.528,6.937 -2.594,-0.894 -5.149,-1.882 -7.696,-2.875 -1.058,2.567 -1.664,5.254 -2.711,7.821 -1.043,-2.567 -1.64,-5.254 -2.64,-7.821 -2.606,0.993 -5.16,1.981 -7.754,2.875 1.351,-2.41 3.015,-4.621 4.515,-6.937 -2.347,-1.5 -4.8,-2.801 -7.101,-4.367 2.758,-0.375 5.512,-0.461 8.254,-0.742 -0.332,-2.797 -0.817,-5.489 -1.035,-8.289 1.988,1.886 3.781,4.023 5.761,5.957 1.985,-1.934 3.801,-4.071 5.762,-5.957 -0.23,2.8 -0.687,5.492 -1.035,8.289 2.746,0.281 5.5,0.398 8.246,0.742 -2.266,1.566 -4.723,2.867 -7.094,4.367"
         style="fill:#ffffff;fill-opacity:1;fill-rule:nonzero;stroke:none"
         id="path32" /><path
         d="m 112.617,238.578 c 15.746,-9.664 31.5,-19.277 47.27,-28.953 0.019,-0.797 0,0 0,0 l 0.019,5.148 c -14.019,8.625 -28.179,16.879 -42.113,25.696 14,0.176 28.094,0 42.113,0.082 v 8.383 h -0.019 c -6.934,0 -13.864,0 -20.793,0 -23.121,0 -46.2542,0 -69.3596,0 -0.043,-16.313 0,-32.668 -0.043,-48.985 2.2109,0 4.4649,0 6.6641,0 0,11.93 -0.043,23.856 0.0429,35.801 18.6172,-11.195 37.1646,-22.516 55.7616,-33.742 1.528,-0.891 2.996,-2.258 4.785,-2.059 7.575,0.047 15.16,-0.051 22.739,0.047 -21.903,13.676 -44.059,26.672 -65.9535,40.414 4.7617,0.235 9.5705,0.059 14.3395,0.141 1.692,0.047 3.102,-1.16 4.547,-1.973"
         style="fill:#ffffff;fill-opacity:1;fill-rule:nonzero;stroke:none"
         id="path34" /><path
         d="m 159.906,281.133 c -14.019,0.086 -28.113,-0.141 -42.113,0.086 13.918,8.863 28.211,16.886 42.094,25.855 0.019,0.746 0.008,1.485 0.019,2.231 v 10.734 c -0.156,0 -0.332,0 -0.515,0 -0.801,0 -1.582,0 -2.387,-0.027 -20.598,-12.801 -41.379,-25.235 -61.9884,-37.961 -1.0468,-0.703 -2.2148,-1.059 -3.3828,-0.973 -4.6133,0.098 -9.2617,-0.086 -13.8633,0.098 20.3946,12.715 40.9805,24.937 61.4535,37.515 -0.028,0 -0.051,0 -0.051,0 -1.93,-0.265 -3.817,-0.543 -5.762,-0.843 -0.168,-0.047 -0.32,-0.102 -0.504,-0.102 -1.953,-0.355 -3.886,-0.715 -5.832,-1.109 -16.844,-10.321 -33.781,-20.504 -50.6756,-30.742 -0.0195,3.507 -0.0195,6.968 -0.0195,10.468 -0.0234,-0.031 -0.0234,-0.031 -0.0234,-0.031 -2.25,-1.394 -4.4532,-2.828 -6.6328,-4.336 0,-6.418 0,-12.871 0.0117,-19.297 23.0898,0 46.2226,0 69.3596,0 6.937,0 13.875,0 20.812,0 v 8.434"
         style="fill:#ffffff;fill-opacity:1;fill-rule:nonzero;stroke:none"
         id="path36" /></g></g></svg>
