<?xml version="1.0" encoding="UTF-8" standalone="no"?>
<svg
   xmlns:dc="http://purl.org/dc/elements/1.1/"
   xmlns:cc="http://creativecommons.org/ns#"
   xmlns:rdf="http://www.w3.org/1999/02/22-rdf-syntax-ns#"
   xmlns:svg="http://www.w3.org/2000/svg"
   xmlns="http://www.w3.org/2000/svg"
   version="1.1"
   id="svg2"
   xml:space="preserve"
   width="42.666668"
   height="42.666668"
   viewBox="0 0 42.666668 42.666668"><metadata
     id="metadata8"><rdf:RDF><cc:Work
         rdf:about=""><dc:format>image/svg+xml</dc:format><dc:type
           rdf:resource="http://purl.org/dc/dcmitype/StillImage" /></cc:Work></rdf:RDF></metadata><defs
     id="defs6" /><g
     id="g10"
     transform="matrix(1.3333333,0,0,-1.3333333,0,42.666667)"><g
       id="g12"
       transform="scale(0.1)"><path
         d="M 160.012,320.02 C 71.8711,320.02 0,248.125 0,159.996 0,135.563 5.54297,112.387 15.4063,91.6367 H 304.598 C 314.457,112.387 320,135.563 320,159.996 320,248.125 248.129,320.02 160.012,320.02"
         style="fill:#5482cb;fill-opacity:1;fill-rule:evenodd;stroke:none"
         id="path14" /><path
         d="M 24.8125,74.6445 C 53.2227,29.8438 103.223,-0.0195313 160.012,-0.0195313 c 56.773,0 106.765,29.8633313 135.176,74.6640313 H 24.8125"
         style="fill:#5482cb;fill-opacity:1;fill-rule:evenodd;stroke:none"
         id="path16" /><path
         d="M 37.1797,57.6328 C 42.2422,51.5781 47.7461,45.9063 53.6289,40.6445 H 266.375 c 5.879,5.2618 11.383,10.9336 16.445,16.9883 H 37.1797"
         style="fill:#f4d60c;fill-opacity:1;fill-rule:nonzero;stroke:none"
         id="path18" /><path
         d="M 24.7852,74.6406 H 295.223 c 3.453,5.4571 6.597,11.1211 9.382,16.9961 H 15.3945 c 2.793,-5.875 5.9258,-11.539 9.3907,-16.9961"
         style="fill:#f4d60c;fill-opacity:1;fill-rule:nonzero;stroke:none"
         id="path20" /><path
         d="M 76.6016,186.184 66.0781,216.844 35.3984,227.285 66.0547,237.801 76.4922,268.48 87,237.828 117.695,227.395 87.0313,216.883 76.6016,186.184"
         style="fill:#ffffff;fill-opacity:1;fill-rule:nonzero;stroke:none"
         id="path22" /><path
         d="m 76.5977,193.051 -8.7696,25.547 -25.5781,8.687 25.5586,8.77 8.6914,25.578 8.7539,-25.555 25.5821,-8.691 -25.5508,-8.766 -8.6875,-25.57"
         style="fill:#d41b34;fill-opacity:1;fill-rule:nonzero;stroke:none"
         id="path24" /></g></g></svg>
