<?xml version="1.0" encoding="UTF-8" standalone="no"?>
<svg
   xmlns:dc="http://purl.org/dc/elements/1.1/"
   xmlns:cc="http://creativecommons.org/ns#"
   xmlns:rdf="http://www.w3.org/1999/02/22-rdf-syntax-ns#"
   xmlns:svg="http://www.w3.org/2000/svg"
   xmlns="http://www.w3.org/2000/svg"
   version="1.1"
   id="svg2"
   xml:space="preserve"
   width="42.666668"
   height="42.666668"
   viewBox="0 0 42.666668 42.666668"><metadata
     id="metadata8"><rdf:RDF><cc:Work
         rdf:about=""><dc:format>image/svg+xml</dc:format><dc:type
           rdf:resource="http://purl.org/dc/dcmitype/StillImage" /></cc:Work></rdf:RDF></metadata><defs
     id="defs6" /><g
     id="g10"
     transform="matrix(1.3333333,0,0,-1.3333333,0,42.666667)"><g
       id="g12"
       transform="scale(0.1)"><path
         d="m 313.957,116.598 c 2.27,8.047 3.934,16.336 4.93,24.832 l 0.011,0.078 H 127.363 V 63.7383 14.6875 3.75391 3.33594 h 0.004 c 3.926,-0.82031 7.91,-1.45703 11.934,-1.97656 l 1.465,-0.1875 c 4.074,-0.488286 8.191,-0.847661 12.343,-1.027349 h 0.028 V 0.210938 63.7383 115.734 h 160.57 l 0.25,0.864"
         style="fill:#facc07;fill-opacity:1;fill-rule:nonzero;stroke:none"
         id="path14" /><path
         d="m 153.137,309.051 v 10.804 h -0.028 c -4.148,-0.179 -8.254,-0.535 -12.324,-1.023 l -1.508,-0.195 c -4.011,-0.516 -7.992,-1.157 -11.91,-1.973 h -0.004 v -0.418 -5.461 -1.734 -125.082 h 190.832 c -0.605,4.023 -1.402,7.98 -2.312,11.898 l -0.317,1.371 c -0.953,3.946 -2.031,7.844 -3.261,11.676 l -0.282,0.824 H 153.137 v 99.313"
         style="fill:#facc07;fill-opacity:1;fill-rule:nonzero;stroke:none"
         id="path16" /><path
         d="M 6.29297,115.734 H 59.1328 V 35.9609 C 67.1211,29.4414 75.7461,23.6875 84.9023,18.7891 V 63.7383 141.508 H 1.10547 c 1.02344,-8.828 2.77734,-17.438 5.1875,-25.774"
         style="fill:#facc07;fill-opacity:1;fill-rule:nonzero;stroke:none"
         id="path18" /><path
         d="M 1.80859,183.969 H 84.9023 V 301.211 C 75.7461,296.316 67.1211,290.559 59.1328,284.043 V 209.738 H 7.97266 C 5.24609,201.418 3.14453,192.816 1.80859,183.969"
         style="fill:#facc07;fill-opacity:1;fill-rule:nonzero;stroke:none"
         id="path20" /><path
         d="m 318.207,183.926 c -62.727,0 -125.43,0 -188.137,0 v 0.043 h -2.707 v 125.082 1.734 5.461 0.313 C 112.34,313.402 98.0859,308.137 84.9023,301.102 V 183.969 h -2.7109 v -0.043 c -26.7969,0 -53.6016,0 -80.39452,0 C 0.621094,176.105 0,168.137 0,159.996 0,153.738 0.472656,147.59 1.18359,141.508 H 82.6406 84.9023 V 63.7383 18.8789 C 96.6406,12.6172 109.258,7.84375 122.492,4.65234 V 4.46875 c 1.61,-0.39062 3.242,-0.71484 4.871,-1.05469 V 3.75391 14.6875 63.7383 141.508 h 2.707 188.754 c 0.703,6.082 1.176,12.23 1.176,18.488 0,8.141 -0.625,16.109 -1.793,23.93"
         style="fill:#d41b34;fill-opacity:1;fill-rule:nonzero;stroke:none"
         id="path22" /><path
         d="M 59.1328,35.9609 V 115.734 H 6.29297 C 3.88672,124.051 2.14063,132.637 1.11328,141.441 6.35938,96.3828 30.4258,56.9297 65.2344,31.2188 63.1602,32.75 61.125,34.332 59.1328,35.9609"
         style="fill:#284fa8;fill-opacity:1;fill-rule:evenodd;stroke:none"
         id="path24" /><path
         d="M 313.707,115.734 H 153.137 V 0.144531 c 2.273,-0.097656 4.558,-0.1718748 6.859,-0.1718748 72.895,0 134.637,49.2148438 153.809,116.1053438 l -0.098,-0.344"
         style="fill:#284fa8;fill-opacity:1;fill-rule:evenodd;stroke:none"
         id="path26" /><path
         d="m 59.1328,209.738 v 74.305 C 35.6172,264.867 17.6445,239.164 7.97656,209.738 H 59.1328"
         style="fill:#284fa8;fill-opacity:1;fill-rule:evenodd;stroke:none"
         id="path28" /><path
         d="M 153.137,319.789 V 209.738 h 158.886 l 0.18,-0.531 c -20.84,64.188 -81.242,110.824 -152.207,110.824 -2.301,0 -4.586,-0.078 -6.859,-0.176 v -0.066"
         style="fill:#284fa8;fill-opacity:1;fill-rule:evenodd;stroke:none"
         id="path30" /></g></g></svg>
