<?xml version="1.0" encoding="UTF-8" standalone="no"?>
<svg
   xmlns:dc="http://purl.org/dc/elements/1.1/"
   xmlns:cc="http://creativecommons.org/ns#"
   xmlns:rdf="http://www.w3.org/1999/02/22-rdf-syntax-ns#"
   xmlns:svg="http://www.w3.org/2000/svg"
   xmlns="http://www.w3.org/2000/svg"
   version="1.1"
   id="svg2"
   xml:space="preserve"
   width="42.666668"
   height="42.666668"
   viewBox="0 0 42.666668 42.666668"><metadata
     id="metadata8"><rdf:RDF><cc:Work
         rdf:about=""><dc:format>image/svg+xml</dc:format><dc:type
           rdf:resource="http://purl.org/dc/dcmitype/StillImage" /></cc:Work></rdf:RDF></metadata><defs
     id="defs6" /><g
     id="g10"
     transform="matrix(1.3333333,0,0,-1.3333333,0,42.666667)"><g
       id="g12"
       transform="scale(0.1)"><path
         d="M 9.48047,214.355 H 310.516 C 316.625,197.379 320,179.09 320,159.992 c 0,-19.051 -3.375,-37.379 -9.484,-54.316 H 9.48047 C 3.36719,122.613 0,140.941 0,159.992 c 0,19.098 3.36719,37.387 9.48047,54.363"
         style="fill:#e11935;fill-opacity:1;fill-rule:evenodd;stroke:none"
         id="path14" /><path
         d="M 310.516,214.355 H 9.48047 C 31.7383,275.957 90.7383,319.996 160,319.996 c 69.258,0 128.258,-44.039 150.516,-105.641"
         style="fill:#3e99c8;fill-opacity:1;fill-rule:evenodd;stroke:none"
         id="path16" /><path
         d="M 9.48047,105.676 H 310.516 C 288.258,44.0664 229.258,0.015625 160,0.015625 90.7383,0.015625 31.7383,44.0664 9.48047,105.676"
         style="fill:#33b35e;fill-opacity:1;fill-rule:evenodd;stroke:none"
         id="path18" /><path
         d="m 132.293,204.77 c 16.633,5.738 36.266,1.101 48.328,-11.602 -11.801,7.766 -27.898,8.254 -40.207,1.152 -12.246,-6.617 -20.434,-20.297 -20.164,-34.285 -0.27,-14.156 8.074,-28.008 20.563,-34.586 12.21,-6.84 28.101,-6.219 39.898,1.41 -10.125,-10.457 -25.387,-15.66 -39.813,-13.632 -13.66,1.765 -26.296,9.839 -33.574,21.574 -8.074,12.484 -9.6013,29.027 -3.953,42.75 5.055,12.754 15.863,23.031 28.922,27.219"
         style="fill:#ffffff;fill-opacity:1;fill-rule:nonzero;stroke:none"
         id="path20" /><path
         d="m 194.879,185.055 c 2.023,-4.106 3.281,-8.696 5.133,-12.883 4.304,1.676 8.371,3.883 12.73,5.558 -1.762,-4.281 -3.937,-8.425 -5.652,-12.75 4.219,-1.761 8.605,-3.179 12.906,-4.855 -4.121,-2.031 -8.687,-3.309 -12.906,-5.16 1.715,-4.277 3.89,-8.336 5.586,-12.664 -4.293,1.722 -8.446,3.883 -12.754,5.562 -1.672,-4.289 -3.277,-8.562 -4.871,-12.883 -2.031,4.145 -3.309,8.688 -5.156,12.883 -4.305,-1.679 -8.344,-3.84 -12.649,-5.562 1.68,4.328 3.883,8.429 5.567,12.75 -4.219,1.765 -8.606,3.219 -12.883,4.898 4.121,2.028 8.664,3.27 12.883,5.121 -1.684,4.321 -3.887,8.379 -5.567,12.66 4.305,-1.675 8.43,-3.882 12.734,-5.558 1.696,4.273 3.192,8.605 4.899,12.883"
         style="fill:#ffffff;fill-opacity:1;fill-rule:nonzero;stroke:none"
         id="path22" /></g></g></svg>
