<?xml version="1.0" encoding="UTF-8" standalone="no"?>
<svg
   xmlns:dc="http://purl.org/dc/elements/1.1/"
   xmlns:cc="http://creativecommons.org/ns#"
   xmlns:rdf="http://www.w3.org/1999/02/22-rdf-syntax-ns#"
   xmlns:svg="http://www.w3.org/2000/svg"
   xmlns="http://www.w3.org/2000/svg"
   version="1.1"
   id="svg2"
   xml:space="preserve"
   width="42.666668"
   height="42.666668"
   viewBox="0 0 42.666668 42.666668"><metadata
     id="metadata8"><rdf:RDF><cc:Work
         rdf:about=""><dc:format>image/svg+xml</dc:format><dc:type
           rdf:resource="http://purl.org/dc/dcmitype/StillImage" /></cc:Work></rdf:RDF></metadata><defs
     id="defs6" /><g
     id="g10"
     transform="matrix(1.3333333,0,0,-1.3333333,0,42.666667)"><g
       id="g12"
       transform="scale(0.1)"><path
         d="m 160.852,160.391 -1.7,-0.782 1.7,0.782"
         style="fill:#bababa;fill-opacity:1;fill-rule:evenodd;stroke:none"
         id="path14" /><path
         d="m 160.004,320.004 c -49.738,0 -94.3009,-22.902 -123.6876,-58.699 0.5625,-1.7 1.1211,-3.399 1.6719,-5.11 4.8867,-0.054 9.7656,0.055 14.6484,-0.054 -3.8086,-3.004 -7.875,-5.743 -11.8125,-8.692 1.5156,-4.676 3.0742,-9.328 4.5078,-14 -4.0117,2.836 -7.9297,5.789 -11.9101,8.633 -3.9727,-2.844 -7.8906,-5.797 -11.9141,-8.633 1.4258,4.551 2.9219,9.102 4.4063,13.66 C 9.53906,222.016 0,192.09 0,160 0,71.8828 71.8867,0.00390625 160.004,0.00390625 c 28.109,0 54.559,7.32422375 77.559,20.14449375 1.269,3.9961 2.574,7.9805 3.863,11.9649 -3.934,2.9531 -8,5.6836 -11.867,8.6914 4.933,0.1133 9.82,0 14.707,0.0547 1.496,4.6133 2.953,9.2304 4.504,13.8398 1.773,-4.5586 3.054,-9.2265 4.613,-13.8398 4.375,-0.0547 8.742,0.0078 13.144,-0.0547 C 299.309,70.1406 320,112.73 320,160 c 0,88.125 -71.875,160.004 -159.996,160.004"
         style="fill:#2b368b;fill-opacity:1;fill-rule:evenodd;stroke:none"
         id="path16" /><path
         d="m 273.324,272.754 -0.601,0.605 H 47.1211 C 122.535,197.992 197.906,122.648 273.324,47.2227 c -0.047,75.1643 0,150.3673 0,225.5313"
         style="fill:#fac807;fill-opacity:1;fill-rule:evenodd;stroke:none"
         id="path18" /><path
         d="m 59.9648,242.523 c 0.0977,1.008 0.6915,-0.222 0.6915,-0.543 1.3945,-4.238 2.746,-8.476 4.1289,-12.722 4.8828,-0.043 9.7617,0.062 14.6601,-0.043 -3.8203,-3.008 -7.8906,-5.75 -11.8125,-8.703 1.5117,-4.657 3.0547,-9.324 4.5078,-14 -4.0351,2.843 -7.9414,5.789 -11.9179,8.636 -3.9688,-2.847 -7.8829,-5.793 -11.9063,-8.636 1.4453,4.676 3.0039,9.343 4.5078,14 -3.9179,2.953 -7.9961,5.695 -11.8633,8.703 4.9414,0.105 9.8204,0 14.7071,0.043 1.4531,4.398 2.8398,8.863 4.2968,13.265"
         style="fill:#ffffff;fill-opacity:1;fill-rule:evenodd;stroke:none"
         id="path20" /><path
         d="m 82.4961,202.438 c -4.8789,-0.059 -9.7773,0.054 -14.6914,-0.059 3.8476,-3.008 7.9375,-5.731 11.8555,-8.691 -1.5118,-4.672 -3.0625,-9.34 -4.5079,-14 4.0157,2.839 7.9454,5.796 11.918,8.636 3.957,-2.84 7.8828,-5.797 11.8985,-8.636 -1.4454,4.66 -2.9961,9.328 -4.504,14 3.9141,2.96 7.9962,5.683 11.8052,8.691 -4.879,0.113 -9.7661,0 -14.6528,0.059 -1.5547,4.613 -2.8359,9.289 -4.6133,13.839 C 85.4492,211.668 84,207.051 82.4961,202.438"
         style="fill:#ffffff;fill-opacity:1;fill-rule:evenodd;stroke:none"
         id="path22" /><path
         d="m 109.332,175.617 c -4.891,-0.058 -9.7773,0.039 -14.7109,-0.058 3.875,-3.012 7.9449,-5.746 11.8629,-8.688 -1.507,-4.676 -3.05,-9.34 -4.511,-14.019 4.011,2.859 7.937,5.8 11.914,8.656 3.968,-2.856 7.886,-5.797 11.91,-8.656 -1.445,4.679 -3.004,9.343 -4.508,14.019 3.926,2.942 7.992,5.676 11.813,8.688 -4.875,0.097 -9.774,0 -14.649,0.058 -1.562,4.61 -2.848,9.27 -4.613,13.824 -1.57,-4.613 -3.004,-9.214 -4.508,-13.824"
         style="fill:#ffffff;fill-opacity:1;fill-rule:evenodd;stroke:none"
         id="path24" /><path
         d="m 121.453,148.719 c 3.86,-2.992 7.938,-5.731 11.863,-8.68 -1.515,-4.68 -3.062,-9.332 -4.515,-14.004 4.031,2.836 7.945,5.793 11.906,8.629 3.984,-2.836 7.902,-5.793 11.934,-8.629 -1.45,4.672 -3.012,9.324 -4.516,14.004 3.922,2.949 7.992,5.688 11.852,8.68 -4.95,0.117 -9.817,0 -14.7,0.058 -1.5,4.625 -2.953,9.231 -4.511,13.848 -1.766,-4.559 -3.055,-9.223 -4.614,-13.848 -4.879,-0.058 -9.761,0.059 -14.699,-0.058"
         style="fill:#ffffff;fill-opacity:1;fill-rule:evenodd;stroke:none"
         id="path26" /><path
         d="m 148.285,121.902 c 3.86,-3.007 7.942,-5.734 11.856,-8.687 -1.5,-4.68 -3.063,-9.34 -4.504,-14.0002 4.015,2.8362 7.933,5.7892 11.906,8.6252 3.965,-2.836 7.902,-5.789 11.922,-8.6252 -1.457,4.6602 -3,9.3202 -4.508,14.0002 3.914,2.953 7.988,5.68 11.797,8.687 -4.879,0.098 -9.766,0 -14.645,0.055 -1.55,4.504 -2.796,9.328 -4.566,13.578 -1.766,-4.305 -2.992,-9.074 -4.555,-13.578 -4.879,-0.055 -9.765,0.043 -14.703,-0.055"
         style="fill:#ffffff;fill-opacity:1;fill-rule:evenodd;stroke:none"
         id="path28" /><path
         d="m 175.113,95.0742 c 3.867,-3.0078 7.95,-5.7461 11.856,-8.6953 -1.5,-4.6641 -3.055,-9.332 -4.504,-14 4.015,2.8516 7.949,5.7891 11.914,8.6406 3.965,-2.8515 7.887,-5.789 11.91,-8.6406 -1.434,4.668 -3.012,9.3359 -4.508,14 3.918,2.9492 7.992,5.6875 11.86,8.6953 -4.93,0.1094 -9.828,0 -14.707,0.0508 -1.496,4.6172 -2.942,9.23 -4.504,13.844 -1.77,-4.563 -3.063,-9.2268 -4.621,-13.844 -4.871,-0.0508 -9.758,0.0586 -14.696,-0.0508"
         style="fill:#ffffff;fill-opacity:1;fill-rule:evenodd;stroke:none"
         id="path30" /><path
         d="m 216.645,68.3008 c -4.887,-0.0508 -9.766,0.0625 -14.696,-0.0508 3.856,-3.0039 7.934,-5.7422 11.852,-8.6953 -1.504,-4.668 -3.055,-9.332 -4.5,-14 4.015,2.8437 7.941,5.7891 11.91,8.6406 3.973,-2.8515 7.883,-5.7969 11.902,-8.6406 -1.449,4.668 -3,9.332 -4.496,14 3.922,2.9531 8.004,5.6914 11.863,8.6953 -4.949,0.1133 -9.828,0 -14.71,0.0508 -1.555,4.6133 -2.844,9.2851 -4.618,13.8437 -1.554,-4.6132 -3.007,-9.2304 -4.507,-13.8437"
         style="fill:#ffffff;fill-opacity:1;fill-rule:evenodd;stroke:none"
         id="path32" /><path
         d="m 36.2891,261.441 c -3.6719,-4.48 -7.0938,-9.156 -10.2696,-14.003 -1.5156,-4.668 -3.0507,-9.333 -4.5117,-13.989 4.0235,2.836 7.9414,5.789 11.9141,8.633 3.9804,-2.844 7.8984,-5.797 11.9101,-8.633 -1.4336,4.672 -2.9922,9.324 -4.5078,14 3.9375,2.949 8.0039,5.688 11.8125,8.692 -4.8828,0.109 -9.7617,0 -14.6484,0.05 -0.5899,1.832 -1.1875,3.653 -1.7852,5.469 l 0.086,-0.219"
         style="fill:#ffffff;fill-opacity:1;fill-rule:evenodd;stroke:none"
         id="path34" /><path
         d="m 248.77,54.6992 c -1.551,-4.6094 -3.008,-9.2265 -4.504,-13.8398 -4.887,-0.0547 -9.774,0.0586 -14.707,-0.0547 3.867,-3.0078 7.933,-5.7383 11.867,-8.6914 -1.309,-4.0391 -2.629,-8.0703 -3.914,-12.1211 10.531,5.8555 20.328,12.8398 29.234,20.8125 -4.48,0.0664 -8.918,0 -13.363,0.0547 -1.559,4.6133 -2.84,9.2812 -4.613,13.8398"
         style="fill:#ffffff;fill-opacity:1;fill-rule:evenodd;stroke:none"
         id="path36" /><path
         d="m 102.254,289.535 -0.789,-0.347 0.789,0.347"
         style="fill:#b9babb;fill-opacity:1;fill-rule:evenodd;stroke:none"
         id="path38" /></g></g></svg>
