<?xml version="1.0" encoding="UTF-8" standalone="no"?>
<svg
   xmlns:dc="http://purl.org/dc/elements/1.1/"
   xmlns:cc="http://creativecommons.org/ns#"
   xmlns:rdf="http://www.w3.org/1999/02/22-rdf-syntax-ns#"
   xmlns:svg="http://www.w3.org/2000/svg"
   xmlns="http://www.w3.org/2000/svg"
   version="1.1"
   id="svg2"
   xml:space="preserve"
   width="42.666668"
   height="42.666668"
   viewBox="0 0 42.666668 42.666668"><metadata
     id="metadata8"><rdf:RDF><cc:Work
         rdf:about=""><dc:format>image/svg+xml</dc:format><dc:type
           rdf:resource="http://purl.org/dc/dcmitype/StillImage" /></cc:Work></rdf:RDF></metadata><defs
     id="defs6" /><g
     id="g10"
     transform="matrix(1.3333333,0,0,-1.3333333,0,42.666667)"><g
       id="g12"
       transform="scale(0.1)"><path
         d="M 105.656,9.50391 V 310.5 c 16.977,6.129 35.266,9.473 54.34,9.473 19.094,0 37.383,-3.344 54.344,-9.473 V 9.50391 C 197.379,3.37109 179.09,0.0273438 159.996,0.0273438 c -19.074,0 -37.363,3.3437462 -54.34,9.4765662"
         style="fill:#fbc317;fill-opacity:1;fill-rule:evenodd;stroke:none"
         id="path14" /><path
         d="M 105.656,310.5 V 9.50391 C 44.0469,31.7539 0,90.7422 0,160.008 0,229.258 44.0469,288.246 105.656,310.5"
         style="fill:#283478;fill-opacity:1;fill-rule:evenodd;stroke:none"
         id="path16" /><path
         d="M 214.34,9.50391 V 310.5 C 275.953,288.246 320,229.258 320,160.008 320,90.7422 275.953,31.7539 214.34,9.50391"
         style="fill:#283478;fill-opacity:1;fill-rule:evenodd;stroke:none"
         id="path18" /><path
         d="m 159.766,213.875 0.597,-0.266 c 3.485,-9.746 7.414,-19.73 14.797,-27.214 -3.074,0.785 -6.238,1.375 -9.426,1.41 0,-13.953 0,-27.875 0.032,-41.828 4.019,-0.563 8.019,-1.184 12.031,-1.774 0.394,1.539 0.426,3.117 0.637,4.692 1.171,10.91 4.058,21.511 7.339,31.953 0.489,2.289 2.989,4.328 2.372,6.66 -1.942,-0.106 -3.614,-1.254 -5.524,-1.418 6.477,6.902 15.473,11.367 24.785,12.844 1.215,0.132 0.231,-1.278 -0.129,-1.809 -12.507,-19.109 -21.402,-41.371 -21.203,-64.512 -6.828,0.391 -13.465,2.36 -20.308,2.758 -0.032,-9.824 -0.032,-19.668 -0.032,-29.488 -3.839,-0.031 -7.64,-0.031 -11.48,0 0,9.82 0,19.664 -0.031,29.488 -6.825,-0.398 -13.461,-2.367 -20.297,-2.758 0.199,23.141 -8.707,45.375 -21.211,64.512 -0.352,0.531 -1.348,1.941 -0.133,1.809 9.324,-1.477 18.328,-5.942 24.797,-12.844 -1.93,0.164 -3.613,1.355 -5.512,1.418 -0.656,-2.07 1.461,-3.973 2.09,-5.914 3.582,-11.09 6.606,-22.449 7.75,-34.078 0.109,-1.11 0.199,-2.231 0.496,-3.313 4.02,0.59 8.012,1.211 12.02,1.774 0.031,13.953 0.031,27.875 0.031,41.828 -3.184,-0.035 -6.34,-0.625 -9.422,-1.41 7.453,7.585 11.391,17.66 14.934,27.48"
         style="fill:#100f0d;fill-opacity:1;fill-rule:nonzero;stroke:none"
         id="path20" /></g></g></svg>
