<?xml version="1.0" encoding="UTF-8" standalone="no"?>
<svg
   xmlns:dc="http://purl.org/dc/elements/1.1/"
   xmlns:cc="http://creativecommons.org/ns#"
   xmlns:rdf="http://www.w3.org/1999/02/22-rdf-syntax-ns#"
   xmlns:svg="http://www.w3.org/2000/svg"
   xmlns="http://www.w3.org/2000/svg"
   version="1.1"
   id="svg2"
   xml:space="preserve"
   width="42.666668"
   height="42.666668"
   viewBox="0 0 42.666668 42.666668"><metadata
     id="metadata8"><rdf:RDF><cc:Work
         rdf:about=""><dc:format>image/svg+xml</dc:format><dc:type
           rdf:resource="http://purl.org/dc/dcmitype/StillImage" /></cc:Work></rdf:RDF></metadata><defs
     id="defs6" /><g
     id="g10"
     transform="matrix(1.3333333,0,0,-1.3333333,0,42.666667)"><g
       id="g12"
       transform="scale(0.1)"><path
         d="m 160,0.00390625 c 88.129,0 160,71.89059375 160,160.00409375 0,88.105 -71.871,159.988 -160,159.988 C 71.8906,319.996 0,248.113 0,160.008 0,71.8945 71.8906,0.00390625 160,0.00390625"
         style="fill:#21684c;fill-opacity:1;fill-rule:evenodd;stroke:none"
         id="path14" /><path
         d="m 144.621,74.3672 c 47.18,0 85.645,38.4648 85.645,85.6408 0,47.176 -38.465,85.633 -85.645,85.633 -47.1522,0 -85.6366,-38.457 -85.6366,-85.633 0,-47.176 38.4844,-85.6408 85.6366,-85.6408"
         style="fill:#ee1f3f;fill-opacity:1;fill-rule:evenodd;stroke:none"
         id="path16" /></g></g></svg>
