<?xml version="1.0" encoding="UTF-8" standalone="no"?>
<svg
   xmlns:dc="http://purl.org/dc/elements/1.1/"
   xmlns:cc="http://creativecommons.org/ns#"
   xmlns:rdf="http://www.w3.org/1999/02/22-rdf-syntax-ns#"
   xmlns:svg="http://www.w3.org/2000/svg"
   xmlns="http://www.w3.org/2000/svg"
   version="1.1"
   id="svg2"
   xml:space="preserve"
   width="42.666668"
   height="42.666668"
   viewBox="0 0 42.666668 42.666668"><metadata
     id="metadata8"><rdf:RDF><cc:Work
         rdf:about=""><dc:format>image/svg+xml</dc:format><dc:type
           rdf:resource="http://purl.org/dc/dcmitype/StillImage" /></cc:Work></rdf:RDF></metadata><defs
     id="defs6" /><g
     id="g10"
     transform="matrix(1.3333333,0,0,-1.3333333,0,42.666667)"><g
       id="g12"
       transform="scale(0.1)"><path
         d="M 105.66,9.48047 V 310.547 c 16.961,6.121 35.258,9.461 54.328,9.461 19.082,0 37.391,-3.34 54.364,-9.461 V 9.48047 C 197.379,3.36328 179.07,0.00390625 159.988,0.00390625 c -19.07,0 -37.367,3.35937375 -54.328,9.47656375"
         style="fill:#f5e229;fill-opacity:1;fill-rule:evenodd;stroke:none"
         id="path14" /><path
         d="M 105.648,310.535 V 9.48047 C 44.0508,31.7344 0,90.75 0,160.008 0,229.277 44.0508,288.281 105.648,310.535"
         style="fill:#100f0d;fill-opacity:1;fill-rule:evenodd;stroke:none"
         id="path16" /><path
         d="M 214.352,9.48047 V 310.535 C 275.957,288.281 320,229.277 320,160.008 320,90.75 275.957,31.7344 214.352,9.48047"
         style="fill:#ec1e37;fill-opacity:1;fill-rule:evenodd;stroke:none"
         id="path18" /></g></g></svg>
