<?xml version="1.0" encoding="UTF-8" standalone="no"?>
<svg
   xmlns:dc="http://purl.org/dc/elements/1.1/"
   xmlns:cc="http://creativecommons.org/ns#"
   xmlns:rdf="http://www.w3.org/1999/02/22-rdf-syntax-ns#"
   xmlns:svg="http://www.w3.org/2000/svg"
   xmlns="http://www.w3.org/2000/svg"
   version="1.1"
   id="svg2"
   xml:space="preserve"
   width="42.666668"
   height="42.666668"
   viewBox="0 0 42.666668 42.666668"><metadata
     id="metadata8"><rdf:RDF><cc:Work
         rdf:about=""><dc:format>image/svg+xml</dc:format><dc:type
           rdf:resource="http://purl.org/dc/dcmitype/StillImage" /></cc:Work></rdf:RDF></metadata><defs
     id="defs6" /><g
     id="g10"
     transform="matrix(1.3333333,0,0,-1.3333333,0,42.666667)"><g
       id="g12"
       transform="scale(0.1)"><path
         d="M 159.988,320.016 C 71.8516,320.016 0,248.117 0,159.996 h 320 c 0,88.121 -71.871,160.02 -160.012,160.02"
         style="fill:#ee222d;fill-opacity:1;fill-rule:evenodd;stroke:none"
         id="path14" /><path
         d="M 0,159.996 C 0,71.8516 71.8516,-0.015625 159.988,-0.015625 248.129,-0.015625 320,71.8516 320,159.996 H 0"
         style="fill:#2ca241;fill-opacity:1;fill-rule:evenodd;stroke:none"
         id="path16" /><path
         d="m 148.238,177.973 c 4.219,11.547 7.602,23.5 11.75,35.078 3.934,-11.645 7.633,-23.324 11.426,-35.035 12.422,-0.246 24.75,-0.11 37.078,-0.11 -9.82,-7.531 -20.031,-14.515 -29.875,-22.109 3.805,-11.754 7.594,-23.5 11.328,-35.277 -10.031,7.21 -19.941,14.648 -30.074,21.726 -9.98,-7.141 -19.785,-14.469 -29.824,-21.453 3.473,11.816 7.723,23.363 11.137,35.273 -9.914,7.254 -19.934,14.379 -29.707,21.84 12.23,0 24.492,0.067 36.761,0.067"
         style="fill:#f7cf0d;fill-opacity:1;fill-rule:nonzero;stroke:none"
         id="path18" /></g></g></svg>
