<?xml version="1.0" encoding="UTF-8" standalone="no"?>
<svg
   xmlns:dc="http://purl.org/dc/elements/1.1/"
   xmlns:cc="http://creativecommons.org/ns#"
   xmlns:rdf="http://www.w3.org/1999/02/22-rdf-syntax-ns#"
   xmlns:svg="http://www.w3.org/2000/svg"
   xmlns="http://www.w3.org/2000/svg"
   version="1.1"
   id="svg2"
   xml:space="preserve"
   width="42.666668"
   height="42.666668"
   viewBox="0 0 42.666668 42.666668"><metadata
     id="metadata8"><rdf:RDF><cc:Work
         rdf:about=""><dc:format>image/svg+xml</dc:format><dc:type
           rdf:resource="http://purl.org/dc/dcmitype/StillImage" /></cc:Work></rdf:RDF></metadata><defs
     id="defs6" /><g
     id="g10"
     transform="matrix(1.3333333,0,0,-1.3333333,0,42.666667)"><g
       id="g12"
       transform="scale(0.1)"><path
         d="M 9.48047,214.34 H 310.516 c 6.132,-16.945 9.484,-35.254 9.484,-54.324 0,-19.098 -3.352,-37.387 -9.484,-54.371 H 9.48047 C 3.34766,122.629 0,140.918 0,160.016 c 0,19.07 3.34766,37.379 9.48047,54.324"
         style="fill:#2f9a6b;fill-opacity:1;fill-rule:evenodd;stroke:none"
         id="path14" /><path
         d="M 310.516,214.359 H 9.48047 C 31.7227,275.965 90.7227,320.023 159.988,320.023 c 69.27,0 128.266,-44.058 150.528,-105.664"
         style="fill:#ffffff;fill-opacity:1;fill-rule:evenodd;stroke:none"
         id="path16" /><path
         d="M 9.48047,105.645 H 310.516 C 288.254,44.043 229.258,-0.015625 159.988,-0.015625 90.7227,-0.015625 31.7227,44.043 9.48047,105.645"
         style="fill:#d72425;fill-opacity:1;fill-rule:evenodd;stroke:none"
         id="path18" /></g></g></svg>
