<?xml version="1.0" encoding="UTF-8" standalone="no"?>
<svg
   xmlns:dc="http://purl.org/dc/elements/1.1/"
   xmlns:cc="http://creativecommons.org/ns#"
   xmlns:rdf="http://www.w3.org/1999/02/22-rdf-syntax-ns#"
   xmlns:svg="http://www.w3.org/2000/svg"
   xmlns="http://www.w3.org/2000/svg"
   version="1.1"
   id="svg2"
   xml:space="preserve"
   width="42.666668"
   height="42.666668"
   viewBox="0 0 42.666668 42.666668"><metadata
     id="metadata8"><rdf:RDF><cc:Work
         rdf:about=""><dc:format>image/svg+xml</dc:format><dc:type
           rdf:resource="http://purl.org/dc/dcmitype/StillImage" /></cc:Work></rdf:RDF></metadata><defs
     id="defs6" /><g
     id="g10"
     transform="matrix(1.3333333,0,0,-1.3333333,0,42.666667)"><g
       id="g12"
       transform="scale(0.1)"><path
         d="M 160.004,0.00390625 C 248.113,0.00390625 320,71.8516 320,160.008 320,248.117 248.113,319.996 160.004,319.996 71.8672,319.996 0,248.117 0,160.008 0,71.8516 71.8672,0.00390625 160.004,0.00390625"
         style="fill:#ffffff;fill-opacity:1;fill-rule:evenodd;stroke:none"
         id="path14" /><path
         d="m 160.004,319.996 c -31.117,0 -60.2071,-8.965 -84.7852,-24.43 22.4609,-8.816 44.8862,-17.89 67.3042,-26.867 -22.398,-9.347 -45.1558,-17.929 -67.5542,-27.277 22.4687,-8.988 45.0002,-17.996 67.4652,-27 -22.153,-9.438 -44.9965,-17.934 -67.3559,-27.274 22.3594,-9.332 45.1169,-17.886 67.4449,-27.21 C 120.059,150.844 97.5039,142.059 75.0781,132.824 97.5039,123.613 120.016,114.852 142.484,105.73 120.234,96.3867 97.3672,87.8008 75.0781,78.5 97.3242,69.3359 120.125,60.4844 142.523,51.4063 120.195,42.2852 97.6367,33.3477 75.1953,24.4492 99.7969,8.94922 128.887,0.00390625 160.004,0.00390625 248.113,0.00390625 320,71.8516 320,160.008 c 0,88.109 -71.887,159.988 -159.996,159.988"
         style="fill:#d01e27;fill-opacity:1;fill-rule:nonzero;stroke:none"
         id="path16" /></g></g></svg>
