<?xml version="1.0" encoding="UTF-8" standalone="no"?>
<svg
   xmlns:dc="http://purl.org/dc/elements/1.1/"
   xmlns:cc="http://creativecommons.org/ns#"
   xmlns:rdf="http://www.w3.org/1999/02/22-rdf-syntax-ns#"
   xmlns:svg="http://www.w3.org/2000/svg"
   xmlns="http://www.w3.org/2000/svg"
   version="1.1"
   id="svg2"
   xml:space="preserve"
   width="42.666668"
   height="42.666668"
   viewBox="0 0 42.666668 42.666668"><metadata
     id="metadata8"><rdf:RDF><cc:Work
         rdf:about=""><dc:format>image/svg+xml</dc:format><dc:type
           rdf:resource="http://purl.org/dc/dcmitype/StillImage" /></cc:Work></rdf:RDF></metadata><defs
     id="defs6" /><g
     id="g10"
     transform="matrix(1.3333333,0,0,-1.3333333,0,42.666667)"><g
       id="g12"
       transform="scale(0.1)"><path
         d="m 303.176,88.6875 c -30.828,18.4685 -61.625,36.9575 -92.438,55.4025 3.086,10.312 3.086,21.476 0,31.797 30.813,18.465 61.61,36.961 92.41,55.449 -3.757,7.484 -8.062,14.644 -12.886,21.406 -30.766,-18.531 -61.621,-37.004 -92.418,-55.449 -9.477,9.465 -22.465,15.348 -35.903,15.727 -14.711,0.671 -29.437,-5.301 -39.812,-15.727 -30.7774,18.426 -61.6056,36.898 -92.4142,55.43 -4.832,-6.766 -9.1289,-13.93 -12.914,-21.434 30.8398,-18.441 61.6445,-36.961 92.4452,-55.402 -3.066,-10.321 -3.066,-21.485 0,-31.797 C 78.4453,125.621 47.6211,107.133 16.8164,88.6641 20.5859,81.1602 24.8828,74.0156 29.7344,67.2305 60.5,85.7891 91.3516,104.254 122.129,122.676 c 9.367,-9.363 22.195,-15.203 35.531,-15.684 14.817,-0.785 29.695,5.196 40.184,15.684 30.797,-18.422 61.633,-36.8869 92.418,-55.4221 4.843,6.7617 9.16,13.9297 12.914,21.4336"
         style="fill:#ffffff;fill-opacity:1;fill-rule:nonzero;stroke:none"
         id="path14" /><path
         d="m 122.129,197.293 c 10.375,10.426 25.101,16.398 39.812,15.727 13.438,-0.379 26.426,-6.29 35.903,-15.727 30.797,18.426 61.652,36.918 92.418,55.449 -29.082,40.672 -76.672,67.274 -130.278,67.274 -53.605,0 -101.2106,-26.602 -130.2692,-67.293 30.8086,-18.532 61.6368,-37.004 92.4142,-55.43"
         style="fill:#d01e27;fill-opacity:1;fill-rule:evenodd;stroke:none"
         id="path16" /><path
         d="M 303.176,88.6875 C 313.934,110.164 320,134.387 320,159.996 c 0,25.594 -6.066,49.832 -16.852,71.34 -30.8,-18.488 -61.597,-36.984 -92.41,-55.449 3.086,-10.321 3.086,-21.485 0,-31.797 30.813,-18.445 61.61,-36.934 92.438,-55.4025"
         style="fill:#39b73e;fill-opacity:1;fill-rule:evenodd;stroke:none"
         id="path18" /><path
         d="m 109.246,144.09 c -3.066,10.312 -3.066,21.476 0,31.797 C 78.4453,194.328 47.6406,212.848 16.8008,231.289 6.06641,209.813 0,185.59 0,159.996 0,134.387 6.06641,110.164 16.8164,88.6641 47.6211,107.133 78.4453,125.621 109.246,144.09"
         style="fill:#39b73e;fill-opacity:1;fill-rule:evenodd;stroke:none"
         id="path20" /><path
         d="m 197.844,122.676 c -10.489,-10.488 -25.367,-16.469 -40.184,-15.684 -13.336,0.481 -26.164,6.321 -35.531,15.684 C 91.3516,104.254 60.5,85.7891 29.7344,67.2305 58.793,26.5664 106.41,-0.015625 159.984,-0.015625 c 53.606,0 101.215,26.601525 130.278,67.269525 -30.785,18.5352 -61.621,37.0001 -92.418,55.4221"
         style="fill:#d01e27;fill-opacity:1;fill-rule:evenodd;stroke:none"
         id="path22" /><path
         d="m 156.914,182.512 c 1.121,1.629 1.926,3.648 3.07,5.113 1.172,-1.465 1.977,-3.484 3.106,-5.113 2.012,-0.024 4.058,0.019 6.074,0 -0.891,-1.86 -2.223,-3.516 -2.906,-5.418 0.918,-1.789 1.996,-3.489 2.98,-5.25 -2.062,0.043 -4.16,0.086 -6.222,-0.028 -1.032,-1.675 -1.86,-3.539 -3.032,-5.074 -1.144,1.535 -2,3.399 -3.019,5.074 -2.055,0.114 -4.16,0.071 -6.227,0.028 1.051,1.761 2.043,3.48 3.071,5.25 -0.821,1.902 -2.055,3.558 -2.981,5.418 2.02,0.019 4.043,-0.024 6.086,0"
         style="fill:#39b73e;fill-opacity:1;fill-rule:nonzero;stroke:none"
         id="path24" /><path
         d="m 157.359,181.477 c 1.137,1.191 1.594,2.875 2.625,4.136 1.059,-1.261 1.465,-2.988 2.653,-4.136 1.59,-0.047 3.183,0 4.785,0.039 -0.785,-1.43 -1.66,-2.801 -2.43,-4.219 0.43,-1.57 1.903,-2.828 2.235,-4.402 -1.536,0 -3.11,0.066 -4.637,0 -1.102,-1.192 -1.617,-2.856 -2.606,-4.204 -0.832,1.301 -1.531,2.739 -2.355,4.047 -1.524,0.535 -3.418,-0.203 -4.941,0.36 0.761,1.324 1.613,2.672 2.289,4.019 -0.637,1.528 -1.668,2.903 -2.407,4.399 1.602,-0.039 3.192,-0.086 4.789,-0.039"
         style="fill:#d01e27;fill-opacity:1;fill-rule:nonzero;stroke:none"
         id="path26" /><path
         d="m 137.055,148.207 c 1.05,1.773 2.035,3.531 3.093,5.285 1.059,-1.754 2.028,-3.512 3.067,-5.258 2.058,-0.14 4.133,-0.027 6.207,-0.027 -1,-1.777 -2.074,-3.555 -3.043,-5.355 0.879,-1.844 2.043,-3.551 2.992,-5.372 -2.055,-0.046 -4.098,0.067 -6.137,-0.046 -1.109,-1.664 -1.957,-3.645 -3.086,-5.145 -1.148,1.551 -2.043,3.5 -3.093,5.145 -2.032,0.066 -4.114,0 -6.133,0.066 0.914,1.801 2.121,3.508 2.988,5.375 -0.918,1.824 -2.125,3.484 -2.972,5.332 2.054,-0.051 4.085,-0.066 6.117,0"
         style="fill:#39b73e;fill-opacity:1;fill-rule:nonzero;stroke:none"
         id="path28" /><path
         d="m 137.762,147.211 c 0.859,1.328 1.539,2.762 2.386,4.113 0.832,-1.351 1.547,-2.742 2.407,-4.09 1.609,-0.312 3.34,-0.023 5.004,-0.156 -0.801,-1.39 -1.704,-2.785 -2.438,-4.265 0.688,-1.461 1.672,-2.762 2.352,-4.25 -1.618,-0.067 -3.239,0.066 -4.852,-0.067 -0.926,-1.234 -1.48,-2.898 -2.473,-3.973 -0.988,1.028 -1.566,2.739 -2.472,3.997 -1.621,0.109 -3.235,-0.024 -4.856,0.066 0.668,1.465 1.711,2.766 2.34,4.289 -0.668,1.438 -1.734,2.746 -2.34,4.246 1.672,0.067 3.328,-0.199 4.942,0.09"
         style="fill:#d01e27;fill-opacity:1;fill-rule:nonzero;stroke:none"
         id="path30" /><path
         d="m 176.781,148.227 c 1.039,1.746 2.016,3.503 3.067,5.257 1.043,-1.754 2.007,-3.511 3.05,-5.281 2.059,-0.113 4.09,-0.051 6.122,0 -0.848,-1.848 -2.032,-3.504 -2.969,-5.328 0.867,-1.863 2.07,-3.57 3.019,-5.371 -2.062,-0.066 -4.113,0 -6.152,-0.066 -1.063,-1.641 -1.945,-3.594 -3.07,-5.137 -1.133,1.496 -2.008,3.472 -3.106,5.137 -2.043,0.113 -4.062,0 -6.109,0.046 0.937,1.821 2.086,3.528 2.965,5.368 -0.961,1.8 -2.028,3.574 -3.028,5.351 2.067,0 4.129,-0.113 6.211,0.024"
         style="fill:#39b73e;fill-opacity:1;fill-rule:nonzero;stroke:none"
         id="path32" /><path
         d="m 177.438,147.234 c 0.835,1.348 1.554,2.739 2.406,4.09 0.851,-1.351 1.527,-2.785 2.39,-4.113 1.621,-0.27 3.27,-0.023 4.942,-0.09 -0.656,-1.5 -1.645,-2.808 -2.391,-4.246 0.707,-1.48 1.664,-2.824 2.391,-4.289 -1.645,-0.09 -3.262,0.043 -4.852,-0.066 -0.929,-1.258 -1.508,-2.969 -2.48,-3.997 -1.004,1.028 -1.571,2.739 -2.465,3.973 -1.645,0.133 -3.262,0 -4.852,0.067 0.645,1.488 1.657,2.789 2.325,4.25 -0.735,1.48 -1.61,2.875 -2.414,4.265 1.632,0.133 3.367,-0.156 5,0.156"
         style="fill:#d01e27;fill-opacity:1;fill-rule:nonzero;stroke:none"
         id="path34" /></g></g></svg>
