<?xml version="1.0" encoding="UTF-8" standalone="no"?>
<svg
   xmlns:dc="http://purl.org/dc/elements/1.1/"
   xmlns:cc="http://creativecommons.org/ns#"
   xmlns:rdf="http://www.w3.org/1999/02/22-rdf-syntax-ns#"
   xmlns:svg="http://www.w3.org/2000/svg"
   xmlns="http://www.w3.org/2000/svg"
   version="1.1"
   id="svg2"
   xml:space="preserve"
   width="42.666668"
   height="42.666668"
   viewBox="0 0 42.666668 42.666668"><metadata
     id="metadata8"><rdf:RDF><cc:Work
         rdf:about=""><dc:format>image/svg+xml</dc:format><dc:type
           rdf:resource="http://purl.org/dc/dcmitype/StillImage" /></cc:Work></rdf:RDF></metadata><defs
     id="defs6" /><g
     id="g10"
     transform="matrix(1.3333333,0,0,-1.3333333,0,42.666667)"><g
       id="g12"
       transform="scale(0.1)"><path
         d="M 1.33984,181.129 285.41,60.5742 c 8.738,11.0117 16.18,23.3281 21.934,36.9024 L 12.6445,222.535 C 6.89453,209.004 3.18359,195.07 1.33984,181.129"
         style="fill:#100f0d;fill-opacity:1;fill-rule:evenodd;stroke:none"
         id="path14" /><path
         d="M 318.676,138.879 34.582,259.438 C 25.8359,248.426 18.3984,236.086 12.6445,222.535 L 307.344,97.4766 c 5.761,13.5314 9.465,27.4644 11.332,41.4024"
         style="fill:#ffffff;fill-opacity:1;fill-rule:evenodd;stroke:none"
         id="path16" /><path
         d="m 318.629,138.895 c 9.199,69.546 -28.481,139.757 -96.082,168.449 -67.606,28.691 -144.2775,7.019 -187.9337,-47.922 L 318.629,138.895"
         style="fill:#f0e20b;fill-opacity:1;fill-rule:evenodd;stroke:none"
         id="path18" /><path
         d="M 1.36719,181.117 C -7.82422,111.563 29.8398,41.3359 97.4414,12.6523 165.055,-16.0313 241.738,5.63281 285.391,60.582 L 1.36719,181.117"
         style="fill:#f0e20b;fill-opacity:1;fill-rule:evenodd;stroke:none"
         id="path20" /><path
         d="m 152.824,97.957 c -5.726,0.7618 -10.98,2.582 -14.629,5.078 -0.707,0.488 -1.371,0.883 -1.472,0.883 -0.11,0 -0.196,-0.535 -0.196,-1.203 0,-1.883 -0.757,-2.8322 -2.66,-3.3283 -1.824,-0.4726 -4.605,0.4805 -6.859,2.3513 -2.332,1.938 -5.028,3.418 -7.309,4.008 -1.879,0.492 -4.375,0.414 -6.176,-0.191 -0.835,-0.282 -1.789,-0.676 -2.121,-0.883 -0.328,-0.203 -0.695,-0.367 -0.816,-0.367 -0.316,0 -0.273,2.023 0.059,2.672 0.441,0.851 1.527,1.687 2.793,2.148 0.64,0.234 1.164,0.531 1.164,0.664 0,0.137 -0.215,0.625 -0.481,1.082 -0.855,1.504 -0.504,2.957 0.992,4.102 1.532,1.172 4.125,1.375 6.418,0.5 0.578,-0.219 1.117,-0.399 1.196,-0.399 0.304,0 0.121,0.422 -0.711,1.633 -0.957,1.402 -1.149,2.094 -1.032,3.766 0.157,2.109 1.875,3.84 3.989,3.992 1.718,0.125 2.789,-0.457 5.332,-2.875 7.59,-7.238 15.84,-11.227 25.461,-12.305 2.429,-0.273 7.316,-0.129 10.183,0.305 8.66,1.305 17.383,5.66 24.196,12.074 1.886,1.781 2.796,2.25 4.343,2.258 1.348,0.004 2.289,-0.43 3.254,-1.496 0.879,-0.977 1.18,-1.903 1.082,-3.383 -0.062,-0.949 -0.215,-1.418 -0.781,-2.34 -0.832,-1.355 -0.691,-1.48 0.961,-0.84 2.23,0.867 4.976,0.465 6.461,-0.941 1.305,-1.242 1.426,-2.481 0.414,-4.16 -0.371,-0.617 -0.672,-1.192 -0.672,-1.285 0,-0.168 0.281,-0.247 1.637,-0.465 1.769,-0.285 2.785,-1.602 2.785,-3.614 0,-0.601 -0.074,-1.093 -0.164,-1.093 -0.09,0 -0.762,0.246 -1.492,0.547 -2.067,0.851 -3.239,1.07 -5.653,1.054 -1.84,-0.011 -2.472,-0.097 -3.754,-0.515 -1.961,-0.641 -4.058,-1.875 -5.765,-3.403 -1.887,-1.679 -3.074,-2.2067 -4.906,-2.1911 -1.704,0.0156 -2.872,0.5121 -3.485,1.4841 -0.328,0.52 -0.379,0.836 -0.297,2.016 0.051,0.766 0.043,1.391 -0.019,1.391 -0.067,0 -0.731,-0.418 -1.477,-0.938 -1.965,-1.348 -3.215,-2.016 -5.465,-2.906 -6.855,-2.7151 -16.754,-3.8909 -24.328,-2.887 v 0"
         style="fill:#d11e27;fill-opacity:1;fill-rule:nonzero;stroke:none"
         id="path22" /><path
         d="m 155.961,111.137 c -11.414,1.097 -22.336,7.043 -28.977,16.465 -7.207,9.832 -9.48,22.812 -7.281,34.683 1.172,5.406 3.531,10.813 7.559,14.66 -3.211,-6.804 -4.293,-14.605 -2.582,-21.976 2.66,-14.719 15.097,-27.18 29.98,-29.332 5.887,-1.707 11.977,0.093 17.598,1.918 12.406,4.375 21.855,16.148 23.012,29.312 0.984,7.121 -0.11,14.528 -3.317,20.977 1.828,-0.965 4.137,-4.758 5.5,-7.309 4.735,-9.172 4.949,-20.16 2.16,-29.949 -3.777,-12.453 -13.3,-23.363 -25.886,-27.328 -5.711,-1.867 -11.786,-2.438 -17.766,-2.121 v 0"
         style="fill:#d11e27;fill-opacity:1;fill-rule:nonzero;stroke:none"
         id="path24" /><path
         d="m 98.4727,127.488 c -0.7461,0.117 -1.5743,-0.621 -1.2891,-1.39 0.5391,-0.778 1.4687,-1.16 2.3047,-1.532 2.0077,-0.804 4.1957,-1.121 6.3517,-1.066 -0.742,0 0.258,-0.008 0.535,0 1.707,-0.004 3.406,0.301 5.012,0.883 0.89,0.312 2.031,0.597 2.394,1.586 0.36,0.64 -0.289,1.285 -0.941,1.156 -0.906,-0.199 -1.758,-0.609 -2.66,-0.848 -1.942,-0.547 -3.992,-0.757 -6.004,-0.593 -1.473,0.179 -2.903,0.652 -4.2658,1.226 -0.4727,0.207 -0.9141,0.512 -1.4375,0.578 v 0"
         style="fill:#d11e27;fill-opacity:1;fill-rule:nonzero;stroke:none"
         id="path26" /><path
         d="m 99.3047,130.559 c -0.7578,0.113 -1.4063,-0.758 -1.0938,-1.454 0.5821,-0.839 1.5586,-1.289 2.4731,-1.683 1.589,-0.637 3.316,-0.902 5.023,-0.852 -0.648,0 0.223,-0.007 0.461,0 1.453,0 2.895,0.285 4.238,0.836 0.821,0.321 1.824,0.629 2.168,1.535 0.266,0.497 0.063,1.215 -0.562,1.254 -0.571,0.028 -1.063,-0.336 -1.59,-0.496 -1.918,-0.793 -4.031,-1.129 -6.102,-0.953 -1.289,0.168 -2.519,0.645 -3.687,1.195 -0.438,0.211 -0.8361,0.543 -1.3283,0.618 v 0"
         style="fill:#d11e27;fill-opacity:1;fill-rule:nonzero;stroke:none"
         id="path28" /><path
         d="m 100.324,133.504 c -0.6482,0.074 -1.0935,-0.656 -0.9842,-1.238 0.0977,-0.512 0.5586,-0.86 0.9372,-1.172 1.578,-1.153 3.575,-1.645 5.512,-1.578 -0.754,0 1.008,-0.016 0.469,0 1.226,0.004 2.437,0.304 3.543,0.836 0.734,0.32 1.597,0.691 1.847,1.531 0.118,0.39 0.192,0.957 -0.25,1.176 -0.46,0.257 -0.921,-0.141 -1.339,-0.301 -1.418,-0.723 -2.996,-1.121 -4.59,-1.117 -1.375,-0.043 -2.672,0.535 -3.867,1.156 -0.43,0.223 -0.789,0.605 -1.278,0.707 v 0"
         style="fill:#d11e27;fill-opacity:1;fill-rule:nonzero;stroke:none"
         id="path30" /><path
         d="m 89.4531,176.949 c -0.9648,-0.965 -0.2265,-2.742 -0.2812,-4.004 0.5,-3.894 1.1211,-7.836 2.5742,-11.5 1.7812,-3.582 5.5586,-5.496 7.8477,-8.66 0.8202,-1.523 0.5272,-3.355 0.7032,-5.023 0.133,-4.547 0.094,-9.098 0.012,-13.645 2.054,-1.027 4.285,-2.066 6.644,-1.668 1.399,0.332 3.996,0.539 4.289,1.934 -0.113,7.84 -0.187,15.683 -0.293,23.519 -0.793,2.403 -3.238,3.649 -5.066,5.184 -1.508,1.484 -2.91,3.086 -4.195,4.762 -0.778,1.308 -3.8091,1.777 -2.7114,-0.496 0.6406,-1.969 2.2854,-3.434 2.6954,-5.504 0.09,-1.133 1.441,-3.215 0.285,-3.879 -0.734,1.25 -1.797,2.312 -3.1601,2.945 -1.3086,0.981 -3.4766,1.387 -3.9492,3.113 -0.3477,2.45 -1.6016,4.668 -3.2227,6.504 0.418,2.199 0.0039,4.949 -1.8984,6.356 l -0.2735,0.062 v 0 0"
         style="fill:#d11e27;fill-opacity:1;fill-rule:nonzero;stroke:none"
         id="path32" /><path
         d="m 92.3828,176.512 c -0.875,-0.145 -0.8437,-1.258 -0.4375,-1.848 0.4297,-1.269 0.5469,-2.644 0.3125,-3.965 1.5586,-1.828 2.7656,-4.008 3.1289,-6.402 0.0117,-0.902 0.9571,-1.199 1.5703,-1.645 1.4414,-0.918 3.063,-1.582 4.348,-2.73 0.269,-0.289 0.472,-0.602 0.281,-0.012 -0.199,0.754 -0.305,1.586 -0.895,2.156 -0.8082,0.868 -1.8199,1.645 -2.9957,1.911 -0.0976,1.218 -0.6797,2.336 -1.2148,3.41 -0.5938,1.031 -1.2149,2.133 -2.2305,2.801 0.043,1.804 0.0117,3.695 -0.7656,5.363 -0.2266,0.426 -0.5625,0.933 -1.0977,0.961 h -0.0039"
         style="fill:#d11e27;fill-opacity:1;fill-rule:nonzero;stroke:none"
         id="path34" /><path
         d="m 94.8359,175.789 c -0.6093,-0.18 -0.4921,-0.934 -0.3007,-1.394 0.2929,-1.278 0.3398,-2.594 0.3164,-3.899 1.1211,-0.887 1.8242,-2.176 2.4609,-3.43 0.4023,-0.836 0.7813,-1.699 0.9336,-2.621 0.9102,-0.3 1.707,-0.871 2.4179,-1.5 -0.281,0.852 -0.9101,1.512 -1.332,2.289 -0.4609,0.809 -0.8984,1.657 -1.0937,2.571 -0.875,0.933 -1.3555,2.258 -1.1641,3.539 0.0391,1.41 -0.4179,2.871 -1.3633,3.937 -0.2382,0.235 -0.5234,0.492 -0.875,0.508 v 0"
         style="fill:#d11e27;fill-opacity:1;fill-rule:nonzero;stroke:none"
         id="path36" /><path
         d="m 97.625,175.391 c -0.332,-0.059 -0.5312,-0.375 -0.7109,-0.629 -0.0664,-0.262 0.25,-0.539 0.3007,-0.821 0.3868,-0.972 0.5352,-2.039 0.418,-3.082 -0.0273,-0.742 0.2383,-1.464 0.6172,-2.089 0.1094,0.46 0.5352,0.793 1,0.839 0.168,0.032 0.418,-0.054 0.3203,0.204 -0.1172,1.414 -0.3359,2.839 -0.8281,4.175 -0.1914,0.477 -0.4102,0.981 -0.8242,1.309 -0.086,0.058 -0.1836,0.109 -0.293,0.094 v 0"
         style="fill:#d11e27;fill-opacity:1;fill-rule:nonzero;stroke:none"
         id="path38" /><path
         d="m 221.527,127.488 c 0.746,0.117 1.575,-0.621 1.289,-1.39 -0.539,-0.778 -1.468,-1.16 -2.304,-1.532 -2.008,-0.804 -4.196,-1.121 -6.352,-1.066 0.742,0 -0.258,-0.008 -0.535,0 -1.707,-0.004 -3.406,0.301 -5.012,0.883 -0.89,0.312 -2.031,0.597 -2.394,1.586 -0.36,0.64 0.289,1.285 0.941,1.156 0.906,-0.199 1.758,-0.609 2.66,-0.848 1.942,-0.547 3.993,-0.757 6.004,-0.593 1.473,0.179 2.903,0.652 4.266,1.226 0.473,0.207 0.914,0.512 1.437,0.578 v 0"
         style="fill:#d11e27;fill-opacity:1;fill-rule:nonzero;stroke:none"
         id="path40" /><path
         d="m 220.695,130.559 c 0.758,0.113 1.407,-0.758 1.094,-1.454 -0.582,-0.839 -1.559,-1.289 -2.473,-1.683 -1.589,-0.637 -3.316,-0.902 -5.023,-0.852 0.648,0 -0.223,-0.007 -0.461,0 -1.453,0 -2.894,0.285 -4.238,0.836 -0.821,0.321 -1.824,0.629 -2.168,1.535 -0.266,0.497 -0.063,1.215 0.562,1.254 0.571,0.028 1.063,-0.336 1.59,-0.496 1.918,-0.793 4.031,-1.129 6.102,-0.953 1.289,0.168 2.519,0.645 3.687,1.195 0.438,0.211 0.832,0.543 1.328,0.618 v 0"
         style="fill:#d11e27;fill-opacity:1;fill-rule:nonzero;stroke:none"
         id="path42" /><path
         d="m 219.676,133.504 c 0.648,0.074 1.094,-0.656 0.984,-1.238 -0.097,-0.512 -0.558,-0.86 -0.937,-1.172 -1.578,-1.153 -3.575,-1.645 -5.512,-1.578 0.754,0 -1.008,-0.016 -0.469,0 -1.226,0.004 -2.437,0.304 -3.543,0.836 -0.734,0.32 -1.597,0.691 -1.847,1.531 -0.118,0.39 -0.192,0.957 0.25,1.176 0.461,0.257 0.921,-0.141 1.339,-0.301 1.418,-0.723 2.997,-1.121 4.59,-1.117 1.375,-0.043 2.672,0.535 3.867,1.156 0.43,0.223 0.79,0.605 1.278,0.707 v 0"
         style="fill:#d11e27;fill-opacity:1;fill-rule:nonzero;stroke:none"
         id="path44" /><path
         d="m 230.547,176.949 c 0.965,-0.965 0.226,-2.742 0.281,-4.004 -0.5,-3.894 -1.121,-7.836 -2.574,-11.5 -1.777,-3.582 -5.559,-5.496 -7.848,-8.66 -0.82,-1.523 -0.527,-3.355 -0.703,-5.023 -0.133,-4.547 -0.094,-9.098 -0.012,-13.645 -2.054,-1.027 -4.285,-2.066 -6.644,-1.668 -1.399,0.332 -3.996,0.539 -4.289,1.934 0.113,7.84 0.187,15.683 0.293,23.519 0.793,2.403 3.238,3.649 5.066,5.184 1.508,1.484 2.91,3.086 4.196,4.762 0.777,1.308 3.808,1.777 2.71,-0.496 -0.64,-1.969 -2.285,-3.434 -2.695,-5.504 -0.09,-1.133 -1.441,-3.215 -0.285,-3.879 0.734,1.25 1.797,2.312 3.16,2.945 1.309,0.981 3.477,1.387 3.949,3.113 0.348,2.45 1.606,4.668 3.223,6.504 -0.418,2.199 -0.004,4.949 1.898,6.356 l 0.274,0.062 v 0 0"
         style="fill:#d11e27;fill-opacity:1;fill-rule:nonzero;stroke:none"
         id="path46" /><path
         d="m 227.613,176.512 c 0.879,-0.145 0.848,-1.258 0.442,-1.848 -0.43,-1.269 -0.547,-2.644 -0.313,-3.965 -1.558,-1.828 -2.765,-4.008 -3.129,-6.402 -0.008,-0.902 -0.957,-1.199 -1.57,-1.645 -1.441,-0.918 -3.063,-1.582 -4.348,-2.73 -0.269,-0.289 -0.472,-0.602 -0.281,-0.012 0.199,0.754 0.305,1.586 0.895,2.156 0.808,0.868 1.82,1.645 2.996,1.911 0.097,1.218 0.679,2.336 1.215,3.41 0.593,1.031 1.214,2.133 2.23,2.801 -0.039,1.804 -0.012,3.695 0.766,5.363 0.226,0.426 0.562,0.933 1.097,0.961 v 0"
         style="fill:#d11e27;fill-opacity:1;fill-rule:nonzero;stroke:none"
         id="path48" /><path
         d="m 225.164,175.789 c 0.609,-0.18 0.492,-0.934 0.301,-1.394 -0.293,-1.278 -0.34,-2.594 -0.317,-3.899 -1.121,-0.887 -1.824,-2.176 -2.46,-3.43 -0.403,-0.836 -0.782,-1.699 -0.934,-2.621 -0.91,-0.3 -1.707,-0.871 -2.418,-1.5 0.281,0.852 0.91,1.512 1.332,2.289 0.461,0.809 0.898,1.657 1.094,2.571 0.875,0.933 1.355,2.258 1.164,3.539 -0.039,1.41 0.418,2.871 1.363,3.937 0.238,0.235 0.524,0.492 0.875,0.508 v 0"
         style="fill:#d11e27;fill-opacity:1;fill-rule:nonzero;stroke:none"
         id="path50" /><path
         d="m 222.371,175.391 c 0.332,-0.059 0.535,-0.375 0.715,-0.629 0.066,-0.262 -0.25,-0.539 -0.301,-0.821 -0.387,-0.972 -0.531,-2.039 -0.418,-3.082 0.028,-0.742 -0.238,-1.464 -0.617,-2.089 -0.105,0.46 -0.535,0.793 -1,0.839 -0.168,0.032 -0.418,-0.054 -0.32,0.204 0.121,1.414 0.336,2.839 0.828,4.175 0.191,0.477 0.41,0.981 0.824,1.309 0.086,0.058 0.184,0.109 0.289,0.094 v 0"
         style="fill:#d11e27;fill-opacity:1;fill-rule:nonzero;stroke:none"
         id="path52" /><path
         d="m 158.719,125.688 c -3.992,0.382 -7.594,3.292 -8.824,7.101 0.066,0.656 0.882,-0.367 1.269,-0.437 0.727,-0.403 1.508,-0.735 2.344,-0.786 1.051,-0.449 1.703,-1.488 2.707,-2.027 0.465,-0.363 2.117,-1.078 1.808,0.078 -0.386,0.602 -0.652,1.367 -0.32,2.059 0.563,1.226 1.422,2.297 2.289,3.32 0.637,0.215 1.063,-1.043 1.52,-1.465 0.629,-0.972 1.39,-2.152 1.019,-3.359 -0.359,-0.445 -0.597,-1.789 0.367,-1.336 1.188,0.519 2.165,1.402 3.153,2.223 0.859,0.601 1.965,0.644 2.871,1.171 0.418,0.11 1.293,0.946 1.476,0.481 -0.496,-1.324 -1.328,-2.516 -2.214,-3.609 -1.438,-1.645 -3.383,-2.879 -5.559,-3.227 -1.285,-0.234 -2.605,-0.285 -3.906,-0.187 v 0"
         style="fill:#d11e27;fill-opacity:1;fill-rule:nonzero;stroke:none"
         id="path54" /><path
         d="m 163.41,130.352 c 0.09,0.8 -0.094,1.621 -0.504,2.347 -0.629,1.281 -1.515,2.414 -2.379,3.539 -0.816,0.477 -1.269,-1.082 -1.812,-1.531 -0.844,-1.266 -1.906,-2.559 -1.957,-4.152 -0.477,-0.739 -1.36,0.605 -1.742,1.047 -0.731,1.031 -1.286,2.253 -1.196,3.546 -0.086,2.082 0.317,4.153 1.075,6.086 0.57,1.653 1.5,3.258 1.406,5.063 0.066,1.355 -0.211,2.855 -1.309,3.769 -1.047,0.821 0.676,0.997 1.227,0.571 0.933,-0.063 1.441,-1.614 2.301,-1.227 0.339,0.809 0.406,1.774 1.109,2.403 0.691,0.945 1.414,-0.403 1.648,-1.032 0.489,-0.554 -0.027,-1.926 0.766,-1.961 0.945,0.664 1.625,1.782 2.836,2.028 0.492,0.277 1.332,0.035 0.684,-0.532 -0.899,-0.839 -1.665,-1.89 -1.829,-3.144 -0.273,-1.57 0.118,-3.16 0.805,-4.574 1.313,-2.782 2.332,-5.918 1.664,-9.008 -0.308,-1.375 -1.238,-2.559 -2.375,-3.356 -0.14,-0.086 -0.367,-0.082 -0.418,0.118 v 0"
         style="fill:#d11e27;fill-opacity:1;fill-rule:nonzero;stroke:none"
         id="path56" /><path
         d="m 161.992,151.234 c -0.433,0.778 -0.957,1.543 -1.679,2.071 -0.704,0 -1.137,-0.891 -1.618,-1.356 -0.336,-0.621 -0.742,-1.668 -1.57,-0.851 -1.312,0.769 -1.547,2.449 -1.539,3.836 -0.082,2.246 0.82,4.339 1.625,6.386 0.512,1.278 0.387,2.719 0.074,4.032 -0.394,1.507 -1.601,2.55 -2.531,3.726 0.062,0.453 1.25,0.207 1.699,0.121 0.992,-0.254 1.586,-1.133 2.328,-1.754 0.528,0.16 0.313,1.223 0.559,1.727 0.015,0.703 0.957,1.633 1.344,0.625 0.578,-0.645 -0.02,-1.914 0.726,-2.313 0.715,0.262 1.067,1.043 1.738,1.395 0.661,0.449 1.59,0.5 2.301,0.148 0.25,-0.656 -0.781,-1.199 -1.082,-1.769 -1.195,-1.481 -1.617,-3.524 -1.105,-5.36 0.41,-1.437 1.129,-2.781 1.379,-4.269 0.297,-1.672 0.289,-3.426 -0.145,-5.074 -0.258,-1 -1.125,-1.668 -2.019,-2.086 -0.219,0.207 -0.336,0.508 -0.485,0.765 v 0"
         style="fill:#d11e27;fill-opacity:1;fill-rule:nonzero;stroke:none"
         id="path58" /><path
         d="m 157.52,169.797 c -0.997,0.726 -1.325,1.422 -1.325,2.797 0,0.703 0.129,1.086 0.594,1.722 0.684,0.95 0.559,1.247 -0.406,0.969 -1.559,-0.445 -2.301,-0.039 -2.352,1.285 -0.023,0.649 0.114,0.926 0.985,1.973 0.699,0.84 0.953,1.281 0.812,1.422 -0.137,0.133 -0.961,-0.582 -2.656,-2.309 -1.352,-1.375 -2.871,-2.777 -3.379,-3.121 -2.91,-1.965 -5.691,-2.269 -6.961,-0.758 -0.648,0.774 -0.613,1.207 0.137,1.672 0.347,0.215 0.929,0.707 1.301,1.094 0.871,0.906 3.472,2.785 4.761,3.434 1.047,0.531 1.293,0.886 0.614,0.886 -0.879,0 -3.707,-1.84 -5.856,-3.808 -0.629,-0.582 -1.535,-1.231 -2.012,-1.442 -1.07,-0.472 -3.175,-0.648 -4.109,-0.34 -0.66,0.219 -1.863,1.356 -1.863,1.762 0,0.106 0.273,0.344 0.609,0.524 0.332,0.175 0.934,0.613 1.332,0.957 1.715,1.507 4.965,3.054 7.543,3.597 0.82,0.172 0.52,0.586 -0.394,0.543 -1.774,-0.074 -5.29,-1.722 -7.391,-3.457 -2.461,-2.027 -6.172,-1.836 -7.367,0.383 -0.207,0.383 -0.328,0.738 -0.27,0.797 0.055,0.055 0.785,0.273 1.625,0.484 0.903,0.231 2.696,0.973 4.41,1.828 2.696,1.34 3.493,1.629 5.348,1.926 0.836,0.137 0.879,0.543 0.066,0.637 -1.043,0.125 -2.64,-0.399 -5.472,-1.789 -3.629,-1.785 -4.649,-2.094 -6.563,-1.981 -1.746,0.106 -2.73,0.551 -4.148,1.891 -0.926,0.879 -2.238,3.109 -1.981,3.367 0.063,0.063 0.489,0 0.946,-0.133 0.507,-0.148 1.968,-0.25 3.722,-0.254 2.461,-0.003 3.114,0.059 4.426,0.438 2.192,0.633 5.106,2.113 7.098,3.605 3.812,2.848 6.926,3.997 10.886,4.012 3.661,0.016 5.989,-0.832 8.051,-2.922 0.699,-0.707 1.293,-1.164 1.391,-1.066 0.09,0.09 0.191,1.324 0.223,2.746 0,0 1.074,0.105 1.304,-0.199 0,-2.305 0.028,-2.485 0.36,-2.485 0.218,0 0.453,0.227 0.597,0.575 0.313,0.754 1.473,1.789 2.711,2.414 2.68,1.359 7.313,1.398 11.035,0.101 1.567,-0.551 3.305,-1.535 4.961,-2.812 1.664,-1.278 5.063,-2.989 7.071,-3.559 2.035,-0.574 5.617,-0.719 7.453,-0.305 0.758,0.172 1.468,0.317 1.582,0.317 0.676,0 -0.477,-2.258 -1.832,-3.582 -2.477,-2.418 -5.699,-2.406 -10.231,0.035 -2.824,1.523 -6.203,2.352 -6.203,1.523 0,-0.171 0.176,-0.285 0.442,-0.285 0.98,0 2.878,-0.66 5.519,-1.914 2.863,-1.359 4.469,-1.933 5.422,-1.933 0.691,0 0.715,-0.43 0.066,-1.375 -0.679,-1.012 -1.839,-1.512 -3.48,-1.508 -1.567,0.008 -2.434,0.347 -3.832,1.512 -2.344,1.945 -8.172,4.117 -7.949,2.957 0.047,-0.231 0.328,-0.372 0.925,-0.465 2.032,-0.309 4.414,-1.446 6.852,-3.27 0.75,-0.566 1.531,-1.121 1.73,-1.238 0.332,-0.195 0.34,-0.258 0.075,-0.75 -0.438,-0.817 -1.539,-1.449 -2.735,-1.574 -1.547,-0.16 -2.894,0.3 -4.289,1.468 -2.937,2.461 -5.711,4.243 -6.597,4.243 -0.727,0 -0.399,-0.403 0.878,-1.079 1.68,-0.89 3.407,-2.093 4.68,-3.261 0.602,-0.559 1.278,-1.11 1.504,-1.231 0.531,-0.281 0.512,-0.699 -0.074,-1.465 -0.598,-0.781 -1.586,-1.125 -2.867,-0.988 -2.559,0.27 -4.551,1.5 -7.684,4.754 -1.223,1.27 -2.316,2.309 -2.43,2.309 -0.418,0 -0.171,-0.567 0.637,-1.473 1,-1.117 1.192,-1.746 0.813,-2.656 -0.332,-0.805 -0.887,-0.992 -2.032,-0.684 -1.168,0.317 -1.351,0.031 -0.586,-0.922 1.145,-1.425 0.973,-3.168 -0.425,-4.363 -0.434,-0.371 -0.891,-0.676 -1.016,-0.676 -0.121,0 -0.43,0.317 -0.684,0.703 -0.898,1.368 -1.691,1.36 -2.566,-0.023 -0.305,-0.481 -0.562,-0.871 -0.57,-0.867 -0.012,0 -0.422,0.297 -0.91,0.66 v 0"
         style="fill:#d11e27;fill-opacity:1;fill-rule:nonzero;stroke:none"
         id="path60" /><path
         d="m 161.973,197.563 -1.516,-1.204 -1.363,1.028 v -8.207 l 2.879,-0.035 v 8.418"
         style="fill:#d11e27;fill-opacity:1;fill-rule:nonzero;stroke:none"
         id="path62" /><path
         d="m 152.57,206.074 c -0.3,-3.879 -1.285,-6.586 -2.656,-9.57 l 3.285,3.047 2.285,-2.715 2.473,2.762 2.523,-2.332 2.426,2.425 2.52,-2.949 2.187,2.426 3.711,-2.664 c -1.347,2.984 -3.168,5.516 -2.941,9.719 -3.594,-2.672 -12.133,-3.157 -15.813,-0.149 v 0"
         style="fill:#d11e27;fill-opacity:1;fill-rule:nonzero;stroke:none"
         id="path64" /><path
         d="m 159.098,208.055 c -1.321,-0.024 -2.711,-0.043 -3.961,-0.285 -0.867,-0.172 -1.653,-0.454 -2.313,-0.918 0.11,-2.524 12.129,-3.579 15.356,-0.047 -0.676,0.492 -1.504,0.785 -2.418,0.965 -1.203,0.23 -2.535,0.253 -3.797,0.277 0,-0.692 0.004,-1.391 0.004,-2.082 l -2.871,0.008 v 2.082 0"
         style="fill:#d11e27;fill-opacity:1;fill-rule:nonzero;stroke:none"
         id="path66" /><path
         d="m 161.449,220.949 -1.867,-0.015 v -14.606 l 1.906,-0.012 -0.039,14.633"
         style="fill:#d11e27;fill-opacity:1;fill-rule:nonzero;stroke:none"
         id="path68" /><path
         d="m 161.445,220.574 -0.711,-6.992 7.196,-3.516 -3.645,4.872 4.973,1.609 -7.813,4.027"
         style="fill:#d11e27;fill-opacity:1;fill-rule:nonzero;stroke:none"
         id="path70" /><path
         d="m 160.645,222.398 c -1.09,0 -1.899,-0.41 -1.899,-0.894 0,-0.484 0.809,-0.899 1.899,-0.899 1.093,0 1.894,0.415 1.894,0.899 0,0.484 -0.801,0.894 -1.894,0.894"
         style="fill:#d11e27;fill-opacity:1;fill-rule:nonzero;stroke:none"
         id="path72" /><path
         d="m 157.352,99.7031 c 1.179,0.3909 1.851,1.1059 2.336,2.4849 0.238,0.687 0.402,1.402 0.359,1.585 -0.102,0.442 -0.609,0.418 -1.172,-0.05 -0.383,-0.321 -0.43,-0.485 -0.32,-1.141 0.281,-1.656 -0.309,-2.066 -3.446,-2.406 -0.308,-0.031 -1.211,0.023 -2.004,0.121 -1.488,0.183 -2.019,0.039 -1.48,-0.4142 0.164,-0.1367 0.578,-0.3203 0.922,-0.4023 0.836,-0.2188 3.91,-0.0742 4.805,0.2226 v 0"
         style="fill:#f0e20b;fill-opacity:1;fill-rule:nonzero;stroke:none"
         id="path74" /><path
         d="m 163.852,99.9805 c 0.175,0.1605 0.789,0.4415 1.355,0.6245 0.758,0.243 1.148,0.504 1.469,0.981 0.918,1.367 0.746,2.551 -0.606,4.141 -0.734,0.863 -1.058,0.839 -1.644,-0.118 -0.504,-0.828 -0.492,-0.882 0.234,-1.074 0.383,-0.094 0.746,-0.375 0.949,-0.722 0.793,-1.372 0.559,-2.223 -0.617,-2.231 -1.062,-0.008 -1.355,-0.16 -1.644,-0.848 -0.149,-0.359 -0.27,-0.7418 -0.27,-0.8512 0,-0.289 0.402,-0.2383 0.774,0.0977 v 0"
         style="fill:#f0e20b;fill-opacity:1;fill-rule:nonzero;stroke:none"
         id="path76" /><path
         d="m 161.719,101.527 c 0.203,0.547 0.273,1.524 0.25,3.524 -0.016,1.519 -0.074,2.808 -0.133,2.867 -0.18,0.18 -1.055,-0.387 -1.168,-0.75 -0.063,-0.191 0.035,-0.629 0.215,-0.973 0.269,-0.527 0.305,-1.023 0.222,-3.093 -0.105,-2.622 0.067,-3.063 0.614,-1.575 v 0"
         style="fill:#f0e20b;fill-opacity:1;fill-rule:nonzero;stroke:none"
         id="path78" /><path
         d="m 156.715,102.777 c 0.105,0.489 0.242,1.489 0.305,2.219 0.058,0.731 0.21,1.652 0.328,2.055 0.304,1.023 0,1.293 -0.809,0.719 l -0.601,-0.43 0.125,-1.473 c 0.117,-1.324 -0.094,-3.793 -0.399,-4.754 -0.086,-0.254 0.035,-0.187 0.367,0.203 0.27,0.313 0.578,0.973 0.684,1.461"
         style="fill:#f0e20b;fill-opacity:1;fill-rule:nonzero;stroke:none"
         id="path80" /><path
         d="m 152.273,102.063 c 1.079,0.906 0.957,2.449 1.196,3.707 -0.028,0.835 0.535,1.835 0.172,2.566 -1.008,-0.184 -1.629,-1.141 -1.114,-2.094 0.043,-1.105 0.004,-2.308 -0.566,-3.285 -0.465,-0.641 -1.934,-0.48 -1.867,0.426 0.371,1.363 -1.266,0.699 -1.903,0.344 -0.492,-0.344 -1.531,-0.372 -1.168,0.488 -0.242,1.144 -1.71,0.43 -2.511,0.433 -0.754,0.012 -0.063,1.532 -1.145,1.262 -2.015,0.16 -4.238,-0.015 -5.98,1.199 -1.02,0.493 -0.867,1.719 -0.336,2.512 0.633,1.086 0.812,2.442 1.82,3.281 0.996,0.957 -0.937,0.551 -1.375,0.231 -0.973,-0.531 -0.07,-1.899 -0.863,-2.66 -0.465,-0.785 -1.074,-1.871 -2.153,-1.723 -1.546,0.293 -2.441,1.734 -3.554,2.699 -0.949,0.192 -0.414,-1.543 0.078,-1.906 0.969,-0.73 2.105,-1.262 3.277,-1.574 1.168,0.187 1.207,-1.34 2.203,-1.582 1.832,-0.852 3.871,-1.11 5.868,-1.211 0.785,-0.067 0.343,-1.461 1.375,-1.188 0.578,-0.148 1.878,0.215 1.945,-0.453 -0.875,-1.039 0.836,-1.015 1.469,-0.828 0.812,0.121 1.847,0.434 2.062,-0.68 0.68,-0.714 1.922,-0.609 2.746,-0.199 0.117,0.067 0.227,0.145 0.324,0.235 v 0"
         style="fill:#f0e20b;fill-opacity:1;fill-rule:nonzero;stroke:none"
         id="path82" /><path
         d="m 134.594,111.02 c 0.328,0.418 0.82,1.257 1.094,1.875 0.265,0.617 0.671,1.32 0.894,1.558 0.52,0.563 0.231,0.91 -0.609,0.723 -0.446,-0.098 -0.625,-0.262 -0.7,-0.645 -0.25,-1.254 -0.707,-2.539 -1.113,-3.136 -0.73,-1.082 -0.75,-1.125 -0.449,-1.125 0.156,0 0.555,0.335 0.883,0.75 v 0"
         style="fill:#f0e20b;fill-opacity:1;fill-rule:nonzero;stroke:none"
         id="path84" /><path
         d="m 130.746,115.082 c 0.399,0 0.496,-0.293 0.281,-0.852 -0.148,-0.386 -0.632,-0.398 -0.777,-0.019 -0.172,0.445 0.07,0.871 0.496,0.871 z m -7.234,2.883 c -0.828,0 -0.864,-0.524 -0.055,-0.805 0.391,-0.137 0.723,-0.465 0.988,-1 0.785,-1.562 1.246,-1.844 3.336,-2.023 l 1.34,-0.121 0.067,-0.813 c 0.031,-0.449 0.136,-0.824 0.242,-0.824 0.101,0 0.621,0.226 1.144,0.492 0.981,0.496 1.914,1.656 1.914,2.375 0,0.473 -0.785,0.981 -1.496,0.981 -0.316,0 -0.922,-0.254 -1.398,-0.602 -1.492,-1.078 -3.086,-0.859 -3.957,0.543 -0.715,1.16 -1.465,1.797 -2.125,1.797 v 0"
         style="fill:#f0e20b;fill-opacity:1;fill-rule:nonzero;stroke:none"
         id="path86" /><path
         d="m 186.938,115.746 c 0.41,0 0.48,-0.09 0.527,-0.676 0.043,-0.484 -0.043,-0.781 -0.313,-1.023 -0.367,-0.332 -0.398,-0.328 -0.722,0.164 -0.457,0.699 -0.176,1.535 0.508,1.535 z m -0.067,1.152 c -0.539,-0.019 -0.699,-0.136 -1.043,-0.644 -0.562,-0.836 -0.617,-2.645 -0.101,-3.281 0.324,-0.399 0.371,-0.407 1.054,-0.121 0.953,0.398 1.114,0.382 1.11,-0.129 -0.004,-1.309 -1.879,-3.828 -3.844,-5.168 -0.531,-0.36 -1.004,-0.762 -1.055,-0.899 -0.14,-0.371 0.586,-0.289 1.481,0.168 1.218,0.621 2.816,2.254 3.472,3.539 0.524,1.028 0.598,1.379 0.66,3.172 0.055,1.656 0.012,2.141 -0.269,2.692 -0.316,0.617 -0.414,0.671 -1.203,0.671 -0.094,0 -0.18,0.004 -0.262,0 v 0"
         style="fill:#f0e20b;fill-opacity:1;fill-rule:nonzero;stroke:none"
         id="path88" /><path
         d="m 177.957,103.121 c 1.731,0.852 2.75,1.809 3.406,3.195 0.313,0.661 0.567,1.282 0.567,1.391 0,0.238 -0.852,0.637 -1.364,0.637 -0.507,0 -0.613,0.351 -0.394,1.324 0.215,0.949 -0.043,2.137 -0.461,2.137 -0.152,0 -0.418,-0.219 -0.594,-0.489 -0.273,-0.418 -0.289,-0.597 -0.086,-1.203 0.297,-0.898 0.063,-1.57 -0.742,-2.144 -0.383,-0.274 -0.594,-0.586 -0.594,-0.891 0,-0.258 0.035,-0.469 0.075,-0.469 0.039,0 0.46,0.219 0.933,0.485 l 0.863,0.48 0.508,-0.398 c 0.278,-0.219 0.512,-0.578 0.512,-0.797 0,-1.051 -3.004,-2.82 -5.066,-2.988 -1.098,-0.086 -1.286,-0.047 -1.665,0.332 -0.312,0.308 -0.402,0.57 -0.324,0.937 0.059,0.281 0.164,0.789 0.239,1.137 0.187,0.914 -0.207,0.789 -0.887,-0.281 -0.559,-0.883 -0.723,-1.828 -0.41,-2.325 0.257,-0.406 1.965,-0.793 3.175,-0.718 0.762,0.043 1.512,0.257 2.309,0.648 v 0"
         style="fill:#f0e20b;fill-opacity:1;fill-rule:nonzero;stroke:none"
         id="path90" /><path
         d="m 189.508,109.563 c 1.086,1.085 1.547,2.41 1.555,4.453 l 0.003,1.535 0.899,0.426 c 1.168,0.554 2.273,1.664 2.273,2.277 0,0.633 -0.277,0.601 -0.789,-0.086 -0.371,-0.504 -0.863,-0.805 -2.672,-1.637 -0.453,-0.207 -0.484,-0.32 -0.586,-2.23 -0.125,-2.203 -0.421,-3.031 -1.652,-4.535 -0.754,-0.918 -0.781,-1.039 -0.258,-1.039 0.215,0 0.766,0.375 1.227,0.836"
         style="fill:#f0e20b;fill-opacity:1;fill-rule:nonzero;stroke:none"
         id="path92" /><path
         d="m 177.648,110.793 c 0.106,0.316 -0.496,0.543 -0.757,0.285 -0.11,-0.109 -0.137,-0.301 -0.063,-0.422 0.172,-0.273 0.715,-0.179 0.82,0.137 v 0"
         style="fill:#f0e20b;fill-opacity:1;fill-rule:nonzero;stroke:none"
         id="path94" /><path
         d="m 194,115.027 c 0.105,0.317 -0.496,0.543 -0.754,0.286 -0.113,-0.114 -0.141,-0.301 -0.07,-0.426 0.172,-0.274 0.719,-0.184 0.824,0.14 v 0"
         style="fill:#f0e20b;fill-opacity:1;fill-rule:nonzero;stroke:none"
         id="path96" /><path
         d="m 171.637,116.809 c 0.601,0.039 0.867,-0.704 0.738,-1.192 -0.227,-0.668 -1.047,-0.238 -1.211,0.242 -0.305,0.426 -0.117,1.004 0.473,0.95 z m 2.683,9.679 c -0.422,-0.203 -0.64,-0.66 -0.933,-1.008 -0.215,-0.14 -0.043,-0.277 0.078,-0.414 0.746,-0.8 1.062,-1.886 1.418,-2.902 0.347,-1.191 0.785,-2.476 0.422,-3.723 -0.145,-0.476 -0.52,-0.968 -1.078,-0.812 -0.899,0.055 -1.782,0.293 -2.68,0.285 -0.801,-0.043 -1.418,-0.769 -2.238,-0.691 -0.52,-0.035 -0.5,1.07 -0.985,0.773 -0.238,-0.574 -0.121,-1.215 -0.152,-1.824 0.094,-0.09 0.348,-0.012 0.5,-0.039 h 1.609 c 0.114,-0.555 0.102,-1.192 0.5,-1.637 0.559,-0.195 1.188,-0.027 1.719,0.192 0.57,0.265 0.645,0.949 0.809,1.484 0.168,0.574 0.921,0.422 1.363,0.648 1.086,0.317 1.797,1.442 1.73,2.551 -0.07,1.692 -0.714,3.285 -1.207,4.887 -0.246,0.707 -0.414,1.441 -0.703,2.133 -0.031,0.058 -0.101,0.109 -0.172,0.097 v 0"
         style="fill:#f0e20b;fill-opacity:1;fill-rule:nonzero;stroke:none"
         id="path98" /><path
         d="m 148.906,121.133 c 0.09,0 0.168,-0.055 0.285,-0.172 0.153,-0.152 0.235,-0.414 0.168,-0.586 -0.156,-0.398 -0.882,-0.383 -1.035,0.02 -0.074,0.195 0.02,0.414 0.239,0.574 0.156,0.109 0.253,0.168 0.343,0.164 z m 0.426,1.23 c -0.269,0.008 -0.57,-0.093 -0.867,-0.304 -1.574,-1.098 -1.977,-2.403 -0.906,-2.911 0.781,-0.375 0.586,-0.816 -0.649,-1.433 -1.765,-0.883 -3.324,-0.774 -6.289,0.453 -0.726,0.301 -0.914,0.184 -0.746,-0.48 0.16,-0.657 0.762,-1.012 2.246,-1.348 1.598,-0.367 3.527,-0.25 4.77,0.285 0.605,0.262 1.328,0.809 1.933,1.469 l 0.961,1.054 1.117,-0.14 c 1.379,-0.168 1.407,-0.184 1.407,-0.84 0,-0.523 0.031,-0.535 1.296,-0.656 0.711,-0.067 1.649,-0.129 2.086,-0.129 0.563,-0.004 0.875,-0.102 1.063,-0.363 0.25,-0.344 0.398,-0.364 2.48,-0.176 1.946,0.176 2.329,0.164 3.207,-0.137 0.625,-0.211 1.309,-0.297 1.832,-0.242 1.489,0.168 3.547,1.387 3.844,2.285 0.035,0.109 0.578,0.301 1.203,0.426 1.504,0.301 1.571,0.629 0.164,0.804 -0.609,0.079 -1.523,0.297 -2.031,0.5 -0.512,0.2 -1.211,0.368 -1.555,0.368 -0.757,0 -1.468,-0.473 -1.468,-0.961 0,-0.317 0.109,-0.352 1.008,-0.258 0.843,0.086 1.089,0.035 1.531,-0.316 0.293,-0.231 0.488,-0.5 0.426,-0.598 -0.196,-0.324 -1.957,-1.125 -2.735,-1.25 -0.519,-0.082 -0.941,-0.027 -1.351,0.183 -0.68,0.356 -1.688,0.411 -1.875,0.106 -0.082,-0.137 -0.297,-0.051 -0.594,0.23 l -0.461,0.434 -1.043,-0.434 c -1.063,-0.441 -1.453,-0.425 -1.453,0.082 0,0.231 -0.313,0.258 -1.875,0.157 -1.727,-0.114 -1.906,-0.082 -2.231,0.277 -0.297,0.332 -0.304,0.445 -0.089,0.789 0.195,0.313 0.195,0.449 0.007,0.637 -0.183,0.183 -0.429,0.179 -1.109,0 -1.715,-0.461 -2.199,-0.203 -2.199,1.137 0,0.804 -0.461,1.292 -1.055,1.3 v 0"
         style="fill:#f0e20b;fill-opacity:1;fill-rule:nonzero;stroke:none"
         id="path100" /><path
         d="m 145.828,119.887 c 1.047,0.66 1.024,0.609 1.172,2.453 0.105,1.297 0.086,1.394 -0.266,1.394 -0.511,0 -0.777,-0.562 -0.777,-1.632 0,-0.688 -0.105,-0.997 -0.473,-1.36 -0.871,-0.871 -3.031,-0.472 -3.3,0.606 -0.094,0.371 0.027,0.707 0.476,1.347 0.945,1.34 0.731,1.668 -0.426,0.653 -0.793,-0.696 -0.937,-0.719 -0.785,-0.118 0.137,0.555 -0.152,0.774 -0.801,0.61 -0.332,-0.082 -0.511,-0.289 -0.589,-0.692 -0.079,-0.394 -0.258,-0.613 -0.571,-0.687 -0.523,-0.137 -1.418,0.363 -1.418,0.785 0,0.313 1.336,1.945 3.051,3.727 0.649,0.675 1.18,1.3 1.18,1.398 0,0.094 -0.348,0.168 -0.77,0.168 -0.617,0 -0.769,-0.066 -0.769,-0.351 0,-0.196 -0.864,-1.329 -1.922,-2.52 -2.207,-2.488 -2.391,-3.004 -1.301,-3.668 0.879,-0.539 2.008,-0.496 2.891,0.105 l 0.718,0.489 v -0.887 c 0,-1.129 0.223,-1.535 1.11,-2.004 1.117,-0.59 2.465,-0.519 3.57,0.184 v 0"
         style="fill:#f0e20b;fill-opacity:1;fill-rule:nonzero;stroke:none"
         id="path102" /><path
         d="m 184.305,128.348 c 1.285,0.074 0.824,-1.801 -0.262,-0.95 -0.563,0.282 -0.375,0.985 0.262,0.95 z m 4.578,1.347 c 0.984,-0.261 -0.18,-2.144 -0.703,-0.953 -0.16,0.457 0.222,0.969 0.703,0.953 z m 3.262,5.547 c -0.817,-0.488 -0.176,-1.515 -0.055,-2.199 -0.332,-0.93 -1.527,-1.18 -2.402,-1.352 -1.235,-0.207 -2.11,-1.238 -2.579,-2.336 -0.254,-0.71 -0.867,-1.82 -1.539,-0.734 -0.582,0.59 -1.648,1.059 -2.336,0.371 -0.523,-0.5 -0.656,-1.23 -0.851,-1.894 -0.309,0.511 -0.445,1.269 -1.102,1.433 -1.043,-0.148 -0.664,-1.465 -0.176,-2.008 0.446,-0.632 0.875,-1.464 0.438,-2.214 -0.387,-0.907 -1.719,-1.512 -2.5,-0.743 -0.73,0.387 -0.242,1.766 -0.965,1.84 -0.355,-0.258 -0.383,-1.699 -0.953,-0.918 -0.414,0.668 -0.195,1.586 -0.699,2.188 -0.594,-0.074 -1.071,-1.102 -0.875,-1.649 0.793,-1.07 1.121,-2.414 1.429,-3.687 0.196,-0.512 -0.027,-1.547 0.45,-1.75 0.332,0.82 0.023,1.754 0.285,2.586 0.773,0.094 1.637,-0.258 2.449,-0.071 1.16,0.153 2.059,1.133 2.469,2.176 0.121,0.785 -0.024,1.582 -0.047,2.371 0.918,-0.14 1.871,-0.136 2.754,-0.437 0.437,-0.672 -0.137,-1.61 -0.258,-2.344 -0.461,-1.496 -1.633,-2.578 -2.773,-3.582 -0.473,-0.281 -0.539,-1.027 0.164,-0.625 1.531,0.656 2.672,2.039 3.328,3.543 0.48,1.152 0.094,2.438 0.406,3.617 0.465,0.887 1.574,0.699 2.398,0.699 0.852,0.032 1.579,1.024 1.293,1.852 -0.269,0.961 0.747,1.422 1.442,1.766 0.918,0.464 1.625,1.41 1.555,2.472 -0.04,0.547 -0.012,1.578 -0.75,1.629 v 0"
         style="fill:#f0e20b;fill-opacity:1;fill-rule:nonzero;stroke:none"
         id="path104" /><path
         d="m 137.844,121.105 c 0.035,0.184 -0.063,0.317 -0.231,0.317 -0.355,0 -0.574,-0.313 -0.402,-0.582 0.172,-0.281 0.559,-0.125 0.633,0.265 v 0"
         style="fill:#f0e20b;fill-opacity:1;fill-rule:nonzero;stroke:none"
         id="path106" /><path
         d="m 152.883,122.785 c 0,0.274 -0.106,0.379 -0.336,0.332 -0.5,-0.094 -0.559,-0.73 -0.063,-0.73 0.274,0 0.399,0.121 0.399,0.398"
         style="fill:#f0e20b;fill-opacity:1;fill-rule:nonzero;stroke:none"
         id="path108" /><path
         d="m 133.117,126.23 c 0.313,0.004 0.969,-0.296 0.352,-0.488 -0.43,-0.332 -0.914,0.336 -0.352,0.488 z m 1.692,1.157 c 0.55,-0.313 -0.352,-0.817 -0.731,-0.75 -0.5,-0.149 -0.508,0.359 -0.066,0.461 0.25,0.129 0.511,0.265 0.797,0.289 z m -0.536,4.426 c -0.601,0.125 -0.98,-0.383 -1.183,-0.868 -0.449,-0.754 -1,-1.527 -1.805,-1.925 -0.578,-0.165 -1.211,0.058 -1.711,0.355 -0.594,0.297 -0.461,1.016 -0.715,1.512 -0.429,0.336 -1.195,-0.149 -1.179,-0.672 -0.047,-0.707 0.613,-1.113 1.164,-1.387 0.465,-0.285 1.14,-0.445 1.324,-1.023 -0.012,-0.489 0.187,-1.051 0.781,-0.864 0.672,0.012 0.844,-0.8 0.574,-1.289 -0.277,-0.55 -0.46,-1.199 -0.328,-1.812 0.317,-0.27 0.645,0.453 0.875,0.66 0.157,0.211 0.317,0.418 0.473,0.629 1.184,-0.063 2.363,-0.215 3.551,-0.172 0.844,0.016 1.558,0.535 2.097,1.145 0.758,0.793 1.379,1.726 2.247,2.41 0.617,0.148 0.285,1.312 -0.36,0.976 -0.578,-0.218 -0.762,-0.875 -1.164,-1.293 -0.684,-0.828 -1.383,-1.668 -2.246,-2.32 -0.629,-0.258 -1.352,-0.145 -1.996,0 -0.27,0.238 0.531,0.43 0.644,0.691 0.372,0.372 0.813,0.719 1.028,1.207 -0.207,0.45 -0.836,0.485 -1.278,0.493 -1.089,-0.129 -1.921,-1.047 -3.023,-1.133 -0.836,-0.028 -0.402,0.879 -0.023,1.187 0.734,0.875 1.531,1.7 2.3,2.543 0.219,0.266 1.008,0.516 0.504,0.883 -0.176,0.063 -0.367,0.063 -0.551,0.067 v 0"
         style="fill:#f0e20b;fill-opacity:1;fill-rule:nonzero;stroke:none"
         id="path110" /><path
         d="m 146.438,125.465 c 0,0.418 -0.75,0.355 -0.833,-0.067 -0.054,-0.269 0.032,-0.335 0.379,-0.285 0.25,0.035 0.454,0.192 0.454,0.352"
         style="fill:#f0e20b;fill-opacity:1;fill-rule:nonzero;stroke:none"
         id="path112" /><path
         d="m 179.586,128.398 c 0.074,0.399 -0.481,0.668 -0.773,0.375 -0.293,-0.293 -0.024,-0.851 0.371,-0.773 0.183,0.035 0.367,0.215 0.402,0.398 v 0"
         style="fill:#f0e20b;fill-opacity:1;fill-rule:nonzero;stroke:none"
         id="path114" /><path
         d="m 127.996,132.461 c 0.524,0.445 0.527,0.477 0.305,1.457 -0.321,1.379 -0.301,1.523 0.222,1.656 0.665,0.168 2.344,-0.734 2.719,-1.457 0.289,-0.558 0.281,-0.597 -0.211,-1.054 -0.527,-0.489 -0.523,-1.059 0.004,-1.059 0.438,0 1.649,1.144 1.649,1.559 0,0.57 -1.344,1.917 -2.407,2.414 -0.656,0.304 -1.312,0.449 -2.074,0.453 -1.359,0 -1.543,-0.293 -1.176,-1.879 0.434,-1.852 -0.156,-2.106 -1.648,-0.707 -1.109,1.039 -1.547,2.121 -1.539,3.82 0,1.824 0.699,2.727 2.273,2.941 1.043,0.137 1.016,0.383 -0.058,0.543 -1.567,0.239 -2.891,-0.808 -3.395,-2.679 -0.558,-2.074 0.723,-4.602 2.988,-5.903 1.188,-0.679 1.661,-0.699 2.348,-0.105"
         style="fill:#f0e20b;fill-opacity:1;fill-rule:nonzero;stroke:none"
         id="path116" /><path
         d="m 189.777,134.734 c 0.129,0.129 0.231,0.414 0.231,0.637 0,0.223 0.219,0.699 0.48,1.059 0.266,0.355 0.485,0.722 0.485,0.812 0,0.363 -0.602,0.352 -1.075,-0.023 -0.488,-0.379 -0.851,-0.391 -0.851,-0.02 0,0.094 0.23,0.281 0.516,0.422 0.703,0.344 0.761,0.684 0.167,0.953 -0.761,0.348 -1.527,-0.285 -1.609,-1.332 -0.051,-0.695 0.008,-0.816 0.543,-1.133 0.492,-0.289 0.586,-0.445 0.5,-0.859 -0.141,-0.719 0.16,-0.969 0.613,-0.516 v 0"
         style="fill:#f0e20b;fill-opacity:1;fill-rule:nonzero;stroke:none"
         id="path118" /><path
         d="m 195.586,135.395 c 0.426,0.378 0.773,0.816 0.773,0.96 0,0.145 0.368,0.528 0.817,0.852 1.273,0.914 1.554,1.844 0.984,3.266 -0.222,0.558 -0.922,1.332 -2.437,2.699 -1.168,1.051 -2.243,1.914 -2.379,1.914 -0.414,0 -0.34,-1.527 0.078,-1.66 0.758,-0.242 1.219,-0.551 2.41,-1.625 1.383,-1.25 2.023,-2.422 1.676,-3.071 -0.336,-0.632 -0.781,-0.433 -2,0.875 -0.645,0.688 -1.281,1.25 -1.41,1.25 -0.141,0 -0.243,-0.25 -0.243,-0.597 0,-0.442 0.235,-0.856 0.868,-1.563 1.031,-1.144 1.132,-1.836 0.355,-2.445 -0.277,-0.219 -0.562,-0.398 -0.633,-0.398 -0.07,0 -0.297,0.343 -0.504,0.757 -0.433,0.879 -3.074,3.668 -3.468,3.668 -0.184,0 -0.274,-0.226 -0.274,-0.668 0,-0.535 0.11,-0.726 0.535,-0.945 0.524,-0.273 1.821,-1.574 3.121,-3.148 0.372,-0.453 0.739,-0.817 0.821,-0.821 0.074,0 0.488,0.317 0.91,0.7 v 0"
         style="fill:#f0e20b;fill-opacity:1;fill-rule:nonzero;stroke:none"
         id="path120" /><path
         d="m 198.176,142.809 c -0.172,0.554 -3.715,4.203 -4.078,4.203 -0.192,0 -0.25,-0.227 -0.203,-0.809 0.05,-0.703 0.125,-0.824 0.613,-0.949 0.301,-0.082 1.234,-0.816 2.07,-1.629 0.836,-0.812 1.57,-1.43 1.629,-1.367 0.059,0.058 0.047,0.305 -0.031,0.551 v 0"
         style="fill:#f0e20b;fill-opacity:1;fill-rule:nonzero;stroke:none"
         id="path122" /><path
         d="m 177.012,101.754 c 0,-0.266 -0.239,-0.484 -0.528,-0.484 -0.293,0 -0.527,0.218 -0.527,0.484 0,0.266 0.234,0.48 0.527,0.48 0.289,0 0.528,-0.214 0.528,-0.48"
         style="fill:#f0e20b;fill-opacity:1;fill-rule:nonzero;stroke:none"
         id="path124" /><path
         d="m 178.871,102.375 c 0,-0.266 -0.234,-0.484 -0.527,-0.484 -0.289,0 -0.528,0.218 -0.528,0.484 0,0.266 0.239,0.484 0.528,0.484 0.293,0 0.527,-0.218 0.527,-0.484"
         style="fill:#f0e20b;fill-opacity:1;fill-rule:nonzero;stroke:none"
         id="path126" /></g></g></svg>
