<?xml version="1.0" encoding="UTF-8" standalone="no"?>
<svg
   xmlns:dc="http://purl.org/dc/elements/1.1/"
   xmlns:cc="http://creativecommons.org/ns#"
   xmlns:rdf="http://www.w3.org/1999/02/22-rdf-syntax-ns#"
   xmlns:svg="http://www.w3.org/2000/svg"
   xmlns="http://www.w3.org/2000/svg"
   version="1.1"
   id="svg2"
   xml:space="preserve"
   width="42.666668"
   height="42.666668"
   viewBox="0 0 42.666668 42.666668"><metadata
     id="metadata8"><rdf:RDF><cc:Work
         rdf:about=""><dc:format>image/svg+xml</dc:format><dc:type
           rdf:resource="http://purl.org/dc/dcmitype/StillImage" /></cc:Work></rdf:RDF></metadata><defs
     id="defs6" /><g
     id="g10"
     transform="matrix(1.3333333,0,0,-1.3333333,0,42.666667)"><g
       id="g12"
       transform="scale(0.1)"><path
         d="M 310.523,105.633 H 9.48438 C 31.7383,44.0352 90.7383,-0.0117188 160.004,-0.0117188 c 69.273,0 128.266,44.0469188 150.519,105.6447188"
         style="fill:#237838;fill-opacity:1;fill-rule:evenodd;stroke:none"
         id="path14" /><path
         d="M 310.516,214.367 H 9.48438 C 31.7617,275.949 90.6914,320.012 160.043,320.012 c 69.262,0 128.195,-44.063 150.473,-105.645"
         style="fill:#d72624;fill-opacity:1;fill-rule:evenodd;stroke:none"
         id="path16" /><path
         d="M 310.523,105.648 H 9.47656 C 3.34375,122.617 0,140.914 0,160 c 0,19.086 3.34375,37.383 9.47656,54.352 H 310.523 C 316.652,197.383 320,179.086 320,160 c 0,-19.086 -3.348,-37.383 -9.477,-54.352"
         style="fill:#f2e505;fill-opacity:1;fill-rule:evenodd;stroke:none"
         id="path18" /></g></g></svg>
