<?xml version="1.0" encoding="UTF-8" standalone="no"?>
<svg
   xmlns:dc="http://purl.org/dc/elements/1.1/"
   xmlns:cc="http://creativecommons.org/ns#"
   xmlns:rdf="http://www.w3.org/1999/02/22-rdf-syntax-ns#"
   xmlns:svg="http://www.w3.org/2000/svg"
   xmlns="http://www.w3.org/2000/svg"
   version="1.1"
   id="svg2"
   xml:space="preserve"
   width="42.666668"
   height="42.666668"
   viewBox="0 0 42.666668 42.666668"><metadata
     id="metadata8"><rdf:RDF><cc:Work
         rdf:about=""><dc:format>image/svg+xml</dc:format><dc:type
           rdf:resource="http://purl.org/dc/dcmitype/StillImage" /></cc:Work></rdf:RDF></metadata><defs
     id="defs6" /><g
     id="g10"
     transform="matrix(1.3333333,0,0,-1.3333333,0,42.666667)"><g
       id="g12"
       transform="scale(0.1)"><path
         d="M 180.543,318.672 C 132.973,324.766 83.1563,309.652 46.7461,273.25 10.3438,236.848 -4.76953,187.027 1.33203,139.449 L 180.543,318.672"
         style="fill:#f4d909;fill-opacity:1;fill-rule:evenodd;stroke:none"
         id="path14" /><path
         d="M 273.242,46.7461 C 210.891,-15.6133 109.145,-15.6094 46.7773,46.7656 L 273.234,273.234 c 62.375,-62.375 62.375,-164.121 0.008,-226.4879"
         style="fill:#293781;fill-opacity:1;fill-rule:evenodd;stroke:none"
         id="path16" /><path
         d="M 180.57,318.699 1.30859,139.426 C 5.66406,105.508 20.8086,72.7227 46.7773,46.7656 L 273.234,273.234 c -25.968,25.957 -58.738,41.114 -92.664,45.465"
         style="fill:#ffffff;fill-opacity:1;fill-rule:evenodd;stroke:none"
         id="path18" /><path
         d="m 131.227,152.434 c -3.575,-9.235 -11.043,-16.832 -20.157,-20.614 -8.992,-3.816 -19.5427,-3.816 -28.5348,0 -9.1875,3.817 -16.7071,11.496 -20.25,20.821 -4.1914,10.722 -2.9727,23.347 3.2421,33.023 5.9961,9.586 16.5586,16.106 27.8086,17.094 14.4181,1.515 29.1601,-6.371 35.9531,-19.153 5.176,-9.437 5.926,-21.167 1.938,-31.171 z m 7.671,18.73 c -1.476,12.895 -9.347,24.77 -20.531,31.297 -5.008,2.977 -10.613,4.855 -16.39,5.594 -1.602,2.984 -3.3325,5.871 -5.0239,8.812 h -0.2968 c -1.6993,-2.941 -3.4415,-5.855 -5.0665,-8.812 -8.9414,-1.098 -17.4765,-5.117 -24.0078,-11.34 -7.0859,-6.672 -11.7304,-15.879 -12.8945,-25.551 -3.0312,-1.73 -6.0469,-3.48 -9.0781,-5.219 3.0039,-1.75 6.0117,-3.507 9.0508,-5.203 1.1914,-9.652 5.8086,-18.82 12.8632,-25.496 6.5274,-6.25 15.0704,-10.328 24.043,-11.402 1.7109,-3.031 3.4727,-6.071 5.2383,-9.078 1.7461,3.007 3.5043,6.047 5.2463,9.078 13.152,1.519 25.269,9.707 31.695,21.269 2.742,4.785 4.473,10.149 5.192,15.629 3.042,1.664 6.042,3.453 9.054,5.203 -3.039,1.739 -6.047,3.489 -9.094,5.219"
         style="fill:#131210;fill-opacity:1;fill-rule:nonzero;stroke:none"
         id="path20" /><path
         d="m 96.6563,190.965 0.2968,-0.031 c 2.4102,-4.079 4.7659,-8.192 7.1449,-12.325 4.855,-0.039 9.734,0 14.59,-0.039 -2.375,-4.222 -4.829,-8.422 -7.231,-12.625 2.375,-4.222 4.856,-8.425 7.231,-12.652 -4.704,-0.023 -9.438,0 -14.172,-0.023 l -0.801,-0.719 c -2.305,-3.961 -4.5939,-7.949 -6.9103,-11.879 -2.3359,3.93 -4.6289,7.918 -6.918,11.879 l -0.7969,0.719 c -4.746,0.023 -9.4765,0 -14.1835,0.023 2.3828,4.227 4.8632,8.43 7.2382,12.652 -2.4101,4.203 -4.8554,8.403 -7.2382,12.625 4.8632,0.039 9.746,0 14.5937,0.039 2.3828,4.133 4.7461,8.246 7.1563,12.356"
         style="fill:#dd1e25;fill-opacity:1;fill-rule:nonzero;stroke:none"
         id="path22" /></g></g></svg>
