<?xml version="1.0" encoding="UTF-8" standalone="no"?>
<svg
   xmlns:dc="http://purl.org/dc/elements/1.1/"
   xmlns:cc="http://creativecommons.org/ns#"
   xmlns:rdf="http://www.w3.org/1999/02/22-rdf-syntax-ns#"
   xmlns:svg="http://www.w3.org/2000/svg"
   xmlns="http://www.w3.org/2000/svg"
   version="1.1"
   id="svg2"
   xml:space="preserve"
   width="42.666668"
   height="42.666668"
   viewBox="0 0 42.666668 42.666668"><metadata
     id="metadata8"><rdf:RDF><cc:Work
         rdf:about=""><dc:format>image/svg+xml</dc:format><dc:type
           rdf:resource="http://purl.org/dc/dcmitype/StillImage" /></cc:Work></rdf:RDF></metadata><defs
     id="defs6" /><g
     id="g10"
     transform="matrix(1.3333333,0,0,-1.3333333,0,42.666667)"><g
       id="g12"
       transform="scale(0.1)"><path
         d="M 159.992,-0.0195313 C 248.109,-0.0195313 320,71.8633 320,160.004 320,248.141 248.109,320.016 159.992,320.016 71.875,320.016 0,248.141 0,160.004 0,71.8633 71.875,-0.0195313 159.992,-0.0195313"
         style="fill:#2b9e41;fill-opacity:1;fill-rule:evenodd;stroke:none"
         id="path14" /><path
         d="m 102.809,139.969 0.539,-1.774 h 1.785 l -1.434,-1.082 0.539,-1.765 -1.429,1.086 -1.434,-1.086 0.547,1.765 -1.434,1.082 h 1.778 l 0.543,1.774"
         style="fill:#f9fdfe;fill-opacity:1;fill-rule:nonzero;stroke:none"
         id="path16" /><path
         d="M 19.8203,160.004 C 67.3672,194.547 114.93,229.066 162.48,263.57 210.031,229.066 257.598,194.547 305.16,160.004 257.598,125.457 210.031,90.9375 162.48,56.4258 114.93,90.9375 67.3672,125.457 19.8203,160.004"
         style="fill:#f7df0c;fill-opacity:1;fill-rule:nonzero;stroke:none"
         id="path18" /><path
         d="m 230.984,160.004 c 0,-37.836 -30.675,-68.5157 -68.504,-68.5157 -37.835,0 -68.4995,30.6797 -68.4995,68.5157 0,37.832 30.6645,68.523 68.4995,68.523 37.829,0 68.504,-30.691 68.504,-68.523"
         style="fill:#26326e;fill-opacity:1;fill-rule:nonzero;stroke:none"
         id="path20" /><path
         d="m 230.645,148.363 -2.868,-11.015 c 0,0 -45.953,49.125 -132.4684,38.933 l 3.9531,11.442 c 0,0 76.5113,12.664 131.3833,-39.36"
         style="fill:#ffffff;fill-opacity:1;fill-rule:nonzero;stroke:none"
         id="path22" /><path
         d="m 184.543,184.113 0.668,-2.109 h 2.176 l -1.739,-1.316 0.649,-2.118 -1.754,1.313 -1.754,-1.313 0.66,2.118 -1.754,1.316 h 2.172 l 0.676,2.109"
         style="fill:#f9fdfe;fill-opacity:1;fill-rule:nonzero;stroke:none"
         id="path24" /><path
         d="m 211.629,138.309 0.676,-2.11 h 2.172 l -1.77,-1.312 0.691,-2.114 -1.769,1.301 -1.758,-1.301 0.68,2.114 -1.778,1.312 h 2.188 l 0.668,2.11"
         style="fill:#f9fdfe;fill-opacity:1;fill-rule:nonzero;stroke:none"
         id="path26" /><path
         d="m 164.191,131.938 0.68,-2.114 h 2.168 l -1.738,-1.304 0.66,-2.11 -1.77,1.297 -1.753,-1.297 0.675,2.11 -1.777,1.304 h 2.18 l 0.675,2.114"
         style="fill:#f9fdfe;fill-opacity:1;fill-rule:nonzero;stroke:none"
         id="path28" /><path
         d="m 199.902,118.254 0.571,-1.777 h 1.824 l -1.484,-1.122 0.566,-1.765 -1.477,1.098 -1.5,-1.098 0.59,1.765 -1.492,1.122 h 1.828 l 0.574,1.777"
         style="fill:#f9fdfe;fill-opacity:1;fill-rule:nonzero;stroke:none"
         id="path30" /><path
         d="m 209.656,127.68 0.574,-1.785 h 1.836 l -1.488,-1.102 0.567,-1.785 -1.489,1.109 -1.472,-1.109 0.574,1.785 -1.481,1.102 h 1.825 l 0.554,1.785"
         style="fill:#f9fdfe;fill-opacity:1;fill-rule:nonzero;stroke:none"
         id="path32" /><path
         d="m 212.766,131.574 0.558,-1.789 h 1.836 l -1.48,-1.097 0.562,-1.786 -1.476,1.121 -1.496,-1.121 0.574,1.786 -1.489,1.097 h 1.836 l 0.575,1.789"
         style="fill:#f9fdfe;fill-opacity:1;fill-rule:nonzero;stroke:none"
         id="path34" /><path
         d="m 180.828,164.465 0.477,-1.481 h 1.531 l -1.242,-0.918 0.48,-1.496 -1.246,0.93 -1.223,-0.93 0.465,1.496 -1.234,0.918 h 1.504 l 0.488,1.481"
         style="fill:#f9fdfe;fill-opacity:1;fill-rule:nonzero;stroke:none"
         id="path36" /><path
         d="m 163.223,152.207 0.562,-1.746 h 1.738 l -1.41,-1.07 0.539,-1.739 -1.429,1.078 -1.414,-1.078 0.539,1.739 -1.422,1.07 h 1.75 l 0.547,1.746"
         style="fill:#f9fdfe;fill-opacity:1;fill-rule:nonzero;stroke:none"
         id="path38" /><path
         d="m 138.512,159.898 0.547,-1.738 h 1.746 l -1.418,-1.074 0.558,-1.75 -1.433,1.09 -1.422,-1.09 0.539,1.75 -1.426,1.074 h 1.754 l 0.555,1.738"
         style="fill:#f9fdfe;fill-opacity:1;fill-rule:nonzero;stroke:none"
         id="path40" /><path
         d="m 113.262,147.16 0.683,-2.226 h 2.215 l -1.805,-1.364 0.684,-2.207 -1.777,1.375 -1.813,-1.375 0.699,2.207 -1.8,1.364 h 2.222 l 0.692,2.226"
         style="fill:#f9fdfe;fill-opacity:1;fill-rule:nonzero;stroke:none"
         id="path42" /><path
         d="m 106.73,175.703 0.688,-2.211 h 2.23 l -1.804,-1.371 0.679,-2.211 -1.793,1.367 -1.8,-1.367 0.691,2.211 -1.793,1.371 h 2.215 l 0.687,2.211"
         style="fill:#f9fdfe;fill-opacity:1;fill-rule:nonzero;stroke:none"
         id="path44" /><path
         d="m 137.215,126.016 0.656,-2.121 h 2.176 l -1.77,-1.321 0.692,-2.105 -1.754,1.312 -1.746,-1.312 0.652,2.105 -1.73,1.321 h 2.148 l 0.676,2.121"
         style="fill:#f9fdfe;fill-opacity:1;fill-rule:nonzero;stroke:none"
         id="path46" /><path
         d="m 171.41,144.973 0.547,-1.739 h 1.777 l -1.437,-1.078 0.543,-1.73 -1.43,1.062 -1.433,-1.062 0.55,1.73 -1.418,1.078 h 1.754 l 0.547,1.739"
         style="fill:#f9fdfe;fill-opacity:1;fill-rule:nonzero;stroke:none"
         id="path48" /><path
         d="m 185.461,114.699 0.48,-1.488 h 1.543 l -1.265,-0.922 0.492,-1.488 -1.25,0.929 -1.215,-0.929 0.469,1.488 -1.238,0.922 H 185 l 0.461,1.488"
         style="fill:#f9fdfe;fill-opacity:1;fill-rule:nonzero;stroke:none"
         id="path50" /><path
         d="m 189.625,124.145 0.496,-1.493 h 1.524 l -1.239,-0.922 0.469,-1.484 -1.25,0.918 -1.23,-0.918 0.496,1.484 -1.25,0.922 h 1.511 l 0.473,1.493"
         style="fill:#f9fdfe;fill-opacity:1;fill-rule:nonzero;stroke:none"
         id="path52" /><path
         d="m 157.09,145.242 0.496,-1.484 h 1.516 l -1.231,-0.914 0.481,-1.485 -1.262,0.903 -1.215,-0.903 0.457,1.485 -1.227,0.914 h 1.528 l 0.457,1.484"
         style="fill:#f9fdfe;fill-opacity:1;fill-rule:nonzero;stroke:none"
         id="path54" /><path
         d="m 119.824,150.305 0.391,-1.258 h 1.262 l -1.032,-0.785 0.41,-1.262 -1.031,0.781 -1.043,-0.781 0.403,1.262 -1.02,0.785 h 1.274 l 0.386,1.258"
         style="fill:#f9fdfe;fill-opacity:1;fill-rule:nonzero;stroke:none"
         id="path56" /><path
         d="m 199.863,124.145 0.485,-1.493 h 1.535 l -1.238,-0.922 0.46,-1.484 -1.242,0.918 -1.226,-0.918 0.48,1.484 -1.246,0.922 h 1.524 l 0.468,1.493"
         style="fill:#f9fdfe;fill-opacity:1;fill-rule:nonzero;stroke:none"
         id="path58" /><path
         d="m 199.863,112.484 0.438,-1.296 h 1.32 l -1.09,-0.79 0.422,-1.3 -1.09,0.808 -1.054,-0.808 0.414,1.3 -1.082,0.79 h 1.324 l 0.398,1.296"
         style="fill:#f9fdfe;fill-opacity:1;fill-rule:nonzero;stroke:none"
         id="path60" /><path
         d="m 127.113,140.566 0.504,-1.718 h 1.735 l -1.387,-1.059 0.527,-1.711 -1.379,1.059 -1.39,-1.059 0.515,1.711 -1.383,1.059 h 1.708 l 0.55,1.718"
         style="fill:#f9fdfe;fill-opacity:1;fill-rule:nonzero;stroke:none"
         id="path62" /><path
         d="m 161.969,139.734 0.402,-1.289 h 1.332 l -1.082,-0.808 0.406,-1.293 -1.058,0.801 -1.082,-0.801 0.39,1.293 -1.062,0.808 h 1.328 l 0.426,1.289"
         style="fill:#f9fdfe;fill-opacity:1;fill-rule:nonzero;stroke:none"
         id="path64" /><path
         d="m 125.277,131.539 0.414,-1.293 h 1.329 l -1.086,-0.801 0.421,-1.285 -1.078,0.793 -1.078,-0.793 0.41,1.285 -1.086,0.801 h 1.332 l 0.422,1.293"
         style="fill:#f9fdfe;fill-opacity:1;fill-rule:nonzero;stroke:none"
         id="path66" /><path
         d="m 220.762,136.996 0.414,-1.285 h 1.316 l -1.078,-0.809 0.418,-1.289 -1.07,0.805 -1.067,-0.805 0.403,1.289 -1.071,0.809 h 1.325 l 0.41,1.285"
         style="fill:#f9fdfe;fill-opacity:1;fill-rule:nonzero;stroke:none"
         id="path68" /><path
         d="m 204.992,124.145 0.473,-1.493 h 1.527 l -1.242,-0.922 0.484,-1.484 -1.242,0.918 -1.238,-0.918 0.48,1.484 -1.238,0.922 h 1.516 l 0.48,1.493"
         style="fill:#f9fdfe;fill-opacity:1;fill-rule:nonzero;stroke:none"
         id="path70" /><path
         d="m 179.664,124.555 0.484,-1.496 h 1.524 l -1.238,-0.918 0.472,-1.477 -1.242,0.914 -1.226,-0.914 0.457,1.477 -1.227,0.918 h 1.535 l 0.461,1.496"
         style="fill:#f9fdfe;fill-opacity:1;fill-rule:nonzero;stroke:none"
         id="path72" /><path
         d="m 163.844,109.645 0.203,-0.707 h 0.734 l -0.59,-0.442 0.227,-0.703 -0.574,0.437 -0.59,-0.437 0.23,0.703 -0.586,0.442 h 0.719 l 0.227,0.707"
         style="fill:#f9fdfe;fill-opacity:1;fill-rule:nonzero;stroke:none"
         id="path74" /><path
         d="m 105.133,183.277 0.293,1.571 0.601,0.84 0.832,0.542 1.414,0.243 c 0.961,0 1.719,-0.274 2.293,-0.844 0.575,-0.555 0.875,-1.328 0.875,-2.316 0,-1.004 -0.293,-1.77 -0.875,-2.329 -0.574,-0.554 -1.324,-0.836 -2.285,-0.836 -0.961,0 -1.711,0.282 -2.281,0.836 -0.59,0.539 -0.867,1.321 -0.867,2.293 z m 1.355,0.043 0.496,-1.586 1.297,-0.527 1.309,0.527 0.48,1.594 -0.465,1.57 -1.324,0.52 -1.312,-0.52 -0.481,-1.578"
         style="fill:#2b9e41;fill-opacity:1;fill-rule:nonzero;stroke:none"
         id="path76" /><path
         d="m 175.211,172.621 0.312,1.574 0.582,0.817 0.856,0.562 1.398,0.239 c 0.938,0 1.711,-0.286 2.293,-0.844 0.575,-0.547 0.852,-1.321 0.852,-2.328 0,-0.981 -0.277,-1.746 -0.844,-2.301 -0.582,-0.559 -1.328,-0.848 -2.293,-0.848 -0.961,0 -1.734,0.289 -2.293,0.832 -0.57,0.547 -0.863,1.317 -0.863,2.297 z m 1.355,0.039 0.493,-1.574 1.308,-0.539 1.285,0.531 0.52,1.594 -0.508,1.574 -1.297,0.516 -1.308,-0.516 -0.493,-1.586"
         style="fill:#2b9e41;fill-opacity:1;fill-rule:nonzero;stroke:none"
         id="path78" /><path
         d="m 113.938,180.375 v 6.387 h 3.226 l 1.777,-0.172 0.895,-0.613 0.309,-1.004 -0.493,-1.18 -1.488,-0.594 0.816,-0.543 0.879,-1.035 0.93,-1.246 h -1.848 l -1.089,1.387 -0.825,0.945 -0.461,0.273 -0.785,0.047 h -0.304 v -2.652 z m 1.539,3.684 h 1.148 l 1.375,0.086 0.438,0.265 0.132,0.481 -0.179,0.515 -0.606,0.254 -1.101,0.012 h -1.207 v -1.613"
         style="fill:#2b9e41;fill-opacity:1;fill-rule:nonzero;stroke:none"
         id="path80" /><path
         d="m 166.813,173.375 2.019,6.055 3.066,-1.016 1.614,-0.715 0.66,-0.863 v -1.055 l -0.84,-0.972 -1.617,-0.082 0.605,-0.778 0.504,-1.261 0.492,-1.473 -1.769,0.578 -0.582,1.66 -0.496,1.156 -0.364,0.399 -0.699,0.316 -0.289,0.098 -0.836,-2.531 z m 2.617,3.012 1.078,-0.356 1.351,-0.363 0.485,0.129 0.312,0.402 -0.039,0.559 -0.469,0.41 -1.058,0.375 -1.145,0.387 -0.515,-1.543"
         style="fill:#2b9e41;fill-opacity:1;fill-rule:nonzero;stroke:none"
         id="path82" /><path
         d="m 190.145,164.398 2.992,5.653 2.859,-1.52 1.496,-0.972 0.465,-0.961 -0.16,-1.047 -0.996,-0.809 -1.598,0.176 0.473,-0.852 0.301,-1.336 0.211,-1.531 -1.614,0.852 -0.332,1.754 -0.277,1.215 -0.301,0.441 -0.629,0.437 -0.285,0.141 -1.23,-2.359 z m 3.085,2.536 0.997,-0.524 1.261,-0.574 0.508,0.043 0.367,0.336 0.059,0.555 -0.387,0.484 -0.992,0.551 -1.07,0.566 -0.743,-1.437"
         style="fill:#2b9e41;fill-opacity:1;fill-rule:nonzero;stroke:none"
         id="path84" /><path
         d="m 122.523,186.656 h 2.668 l 1.36,-0.109 1.078,-0.602 0.715,-1.035 0.226,-1.527 -0.226,-1.367 -0.774,-1.133 -1.019,-0.512 -1.285,-0.133 h -2.743 z m 1.446,-1.086 v -4.25 h 1.105 l 0.867,0.063 0.598,0.262 0.379,0.617 0.148,1.179 -0.148,1.153 -0.41,0.617 -0.668,0.301 -1.215,0.058 h -0.656"
         style="fill:#2b9e41;fill-opacity:1;fill-rule:nonzero;stroke:none"
         id="path86" /><path
         d="m 130.855,180.016 0.262,6.433 5.305,-0.226 -0.035,-1.094 -3.856,0.164 -0.082,-1.43 3.594,-0.144 -0.023,-1.09 -3.602,0.16 -0.082,-1.746 4.027,-0.16 -0.047,-1.102 -5.461,0.235"
         style="fill:#2b9e41;fill-opacity:1;fill-rule:nonzero;stroke:none"
         id="path88" /><path
         d="m 197.352,160.582 2.996,5.684 4.711,-2.481 -0.512,-0.957 -3.422,1.809 -0.652,-1.27 3.187,-1.672 -0.523,-0.972 -3.184,1.675 -0.801,-1.539 3.539,-1.867 -0.496,-0.969 -4.843,2.559"
         style="fill:#2b9e41;fill-opacity:1;fill-rule:nonzero;stroke:none"
         id="path90" /><path
         d="m 150.551,177.395 0.984,5.25 4.348,-0.825 -0.16,-0.886 -3.176,0.589 -0.207,-1.152 2.922,-0.562 -0.157,-0.891 -2.953,0.559 -0.261,-1.422 3.285,-0.629 -0.164,-0.883 -4.461,0.852"
         style="fill:#2b9e41;fill-opacity:1;fill-rule:nonzero;stroke:none"
         id="path92" /><path
         d="m 138.656,179.23 0.739,6.383 1.984,-0.226 0.641,-4.481 1.679,4.223 1.985,-0.231 -0.75,-6.398 -1.223,0.137 0.582,5.039 -1.867,-4.879 -1.278,0.141 -0.675,5.183 -0.582,-5.027 -1.235,0.136"
         style="fill:#2b9e41;fill-opacity:1;fill-rule:nonzero;stroke:none"
         id="path94" /><path
         d="m 218.023,150.199 0.844,1.352 0.895,0.558 0.976,0.18 1.375,-0.285 1.828,-1.637 c 0.332,-0.73 0.289,-1.558 -0.058,-2.492 -0.379,-0.914 -0.938,-1.516 -1.672,-1.832 l -2.426,0.082 c -0.906,0.359 -1.5,0.898 -1.82,1.633 z m 1.247,-0.461 -0.102,-1.656 0.996,-0.98 1.406,0.015 1.063,1.297 0.129,1.633 -1.039,0.969 h -1.399 l -1.054,-1.278"
         style="fill:#2b9e41;fill-opacity:1;fill-rule:nonzero;stroke:none"
         id="path96" /><path
         d="m 211.168,155.109 1.238,-0.695 -0.086,-1.031 0.707,-0.844 1,-0.391 0.629,0.297 0.102,0.395 -0.274,0.515 -0.789,0.879 -1.011,1.438 0.168,1.402 0.769,0.555 1.117,0.016 1.25,-0.633 1.375,-1.582 -0.195,-1.547 -1.215,0.793 0.078,0.797 -0.629,0.683 -0.957,0.383 -0.406,-0.187 -0.023,-0.434 0.859,-1.102 1.02,-1.25 0.3,-0.984 -0.332,-0.973 -0.851,-0.632 -1.192,-0.012 -1.425,0.707 -1.399,1.641 0.172,1.796"
         style="fill:#2b9e41;fill-opacity:1;fill-rule:nonzero;stroke:none"
         id="path98" /><path
         d="m 204.766,159.137 1.218,-0.711 -0.097,-1.035 0.715,-0.844 1.007,-0.391 0.618,0.293 0.109,0.395 -0.262,0.523 -0.808,0.883 -0.985,1.426 0.149,1.41 0.769,0.559 1.098,0.007 1.277,-0.629 1.387,-1.578 -0.207,-1.547 -1.215,0.79 0.07,0.792 -0.64,0.7 -0.926,0.371 -0.422,-0.188 -0.035,-0.437 0.867,-1.102 1.027,-1.254 0.29,-0.961 -0.348,-0.988 -0.848,-0.629 -1.172,-0.015 -1.433,0.703 -1.414,1.644 0.211,1.813"
         style="fill:#2b9e41;fill-opacity:1;fill-rule:nonzero;stroke:none"
         id="path100" /><path
         d="m 185.969,168.652 0.457,0.973 2.672,-1.238 -1.078,-2.293 -1.411,-0.082 -1.632,0.422 -1.5,1.16 -0.563,1.586 0.344,1.691 1.144,1.41 1.684,0.512 1.59,-0.395 1.594,-1.277 0.246,-1.613 -1.332,0.344 -0.164,0.894 -0.79,0.668 -1.515,0.121 -1.137,-1.211 -0.234,-1.758 1.035,-1.109 0.832,-0.227 0.855,0.024 0.332,0.738 -1.429,0.66"
         style="fill:#2b9e41;fill-opacity:1;fill-rule:nonzero;stroke:none"
         id="path102" /><path
         d="m 159.625,175.527 2.098,6.102 1.965,-0.676 1.425,-0.582 0.664,-0.894 -0.07,-1.317 -0.504,-0.875 -0.734,-0.426 -0.723,-0.078 -1.308,0.344 -0.793,0.281 -0.778,-2.301 z m 2.973,4.661 -0.582,-1.754 0.652,-0.219 1.008,-0.242 0.488,0.172 0.297,0.425 -0.016,0.621 -0.398,0.438 -0.852,0.348 -0.597,0.211"
         style="fill:#2b9e41;fill-opacity:1;fill-rule:nonzero;stroke:none"
         id="path104" /></g></g></svg>
