<?xml version="1.0" encoding="UTF-8" standalone="no"?>
<svg
   xmlns:dc="http://purl.org/dc/elements/1.1/"
   xmlns:cc="http://creativecommons.org/ns#"
   xmlns:rdf="http://www.w3.org/1999/02/22-rdf-syntax-ns#"
   xmlns:svg="http://www.w3.org/2000/svg"
   xmlns="http://www.w3.org/2000/svg"
   version="1.1"
   id="svg2"
   xml:space="preserve"
   width="42.666668"
   height="42.666668"
   viewBox="0 0 42.666668 42.666668"><metadata
     id="metadata8"><rdf:RDF><cc:Work
         rdf:about=""><dc:format>image/svg+xml</dc:format><dc:type
           rdf:resource="http://purl.org/dc/dcmitype/StillImage" /></cc:Work></rdf:RDF></metadata><defs
     id="defs6" /><g
     id="g10"
     transform="matrix(1.3333333,0,0,-1.3333333,0,42.666667)"><g
       id="g12"
       transform="scale(0.1)"><path
         d="M 26.6836,71.6875 C 71.125,101.301 115.563,130.918 160.059,160.492 115.742,189.984 71.4414,219.496 27.1484,249.016 10.0156,223.523 0,192.898 0,159.996 0,127.398 9.83594,97.0234 26.6836,71.6875"
         style="fill:#100f0d;fill-opacity:1;fill-rule:nonzero;stroke:none"
         id="path14" /><path
         d="M 79.1719,106.656 H 310.82 c 5.93,16.699 9.18,34.653 9.18,53.34 l -0.004,0.496 c -0.062,18.504 -3.305,36.289 -9.187,52.852 H 80.7031 C 107.156,195.719 133.598,178.094 160.059,160.492 133.07,142.559 106.121,124.609 79.1719,106.656"
         style="fill:#f5e229;fill-opacity:1;fill-rule:nonzero;stroke:none"
         id="path16" /><path
         d="m 27.1484,249.016 c 17.8555,-11.895 35.711,-23.789 53.5547,-35.672 H 310.809 C 288.773,275.387 229.438,320.02 160.004,320.02 104.766,320.02 55.9219,291.781 27.1484,249.016"
         style="fill:#43afcc;fill-opacity:1;fill-rule:nonzero;stroke:none"
         id="path18" /><path
         d="M 311.047,106.656 H 79.3984 C 61.9023,95.0039 44.4023,83.3438 26.9141,71.6875 55.625,28.5234 104.699,-0.0195313 160.219,-0.0195313 c 69.441,0 128.773,44.6328313 150.828,106.6755313"
         style="fill:#43afcc;fill-opacity:1;fill-rule:nonzero;stroke:none"
         id="path20" /></g></g></svg>
