<?xml version="1.0" encoding="UTF-8" standalone="no"?>
<svg
   xmlns:dc="http://purl.org/dc/elements/1.1/"
   xmlns:cc="http://creativecommons.org/ns#"
   xmlns:rdf="http://www.w3.org/1999/02/22-rdf-syntax-ns#"
   xmlns:svg="http://www.w3.org/2000/svg"
   xmlns="http://www.w3.org/2000/svg"
   version="1.1"
   id="svg2"
   xml:space="preserve"
   width="42.666668"
   height="42.666668"
   viewBox="0 0 42.666668 42.666668"><metadata
     id="metadata8"><rdf:RDF><cc:Work
         rdf:about=""><dc:format>image/svg+xml</dc:format><dc:type
           rdf:resource="http://purl.org/dc/dcmitype/StillImage" /></cc:Work></rdf:RDF></metadata><defs
     id="defs6" /><g
     id="g10"
     transform="matrix(1.3333333,0,0,-1.3333333,0,42.666667)"><g
       id="g12"
       transform="scale(0.1)"><path
         d="m 2.72656,189.609 c -3.636716,-19.554 -3.636716,-39.664 0,-59.218 H 317.242 c 3.676,19.554 3.676,39.664 0,59.218 H 2.72656"
         style="fill:#131211;fill-opacity:1;fill-rule:evenodd;stroke:none"
         id="path14" /><path
         d="M 2.72656,189.609 H 317.262 c -0.946,5.043 -2.149,10.055 -3.602,15.012 H 6.32031 C 4.89063,199.664 3.67969,194.652 2.72656,189.609"
         style="fill:#ffffff;fill-opacity:1;fill-rule:evenodd;stroke:none"
         id="path16" /><path
         d="m 313.586,204.621 c -7.27,25.074 -20.688,48.742 -40.441,68.496 -62.465,62.488 -163.793,62.488 -226.2895,0 C 27.0781,253.363 13.668,229.695 6.40234,204.621 H 313.586"
         style="fill:#7baadf;fill-opacity:1;fill-rule:evenodd;stroke:none"
         id="path18" /><path
         d="M 6.32031,115.391 H 313.66 c 1.453,4.937 2.656,9.945 3.602,15 H 2.72656 c 0.95313,-5.055 2.16407,-10.063 3.59375,-15"
         style="fill:#ffffff;fill-opacity:1;fill-rule:evenodd;stroke:none"
         id="path20" /><path
         d="M 6.39844,115.391 C 13.6641,90.3125 27.0781,66.6406 46.8555,46.8828 c 62.4965,-62.4883 163.8245,-62.4883 226.2895,0 19.757,19.7578 33.175,43.4297 40.445,68.5082 H 6.39844"
         style="fill:#7baadf;fill-opacity:1;fill-rule:evenodd;stroke:none"
         id="path22" /></g></g></svg>
