<?xml version="1.0" encoding="UTF-8" standalone="no"?>
<svg
   xmlns:dc="http://purl.org/dc/elements/1.1/"
   xmlns:cc="http://creativecommons.org/ns#"
   xmlns:rdf="http://www.w3.org/1999/02/22-rdf-syntax-ns#"
   xmlns:svg="http://www.w3.org/2000/svg"
   xmlns="http://www.w3.org/2000/svg"
   version="1.1"
   id="svg2"
   xml:space="preserve"
   width="42.666668"
   height="42.666668"
   viewBox="0 0 42.666668 42.666668"><metadata
     id="metadata8"><rdf:RDF><cc:Work
         rdf:about=""><dc:format>image/svg+xml</dc:format><dc:type
           rdf:resource="http://purl.org/dc/dcmitype/StillImage" /></cc:Work></rdf:RDF></metadata><defs
     id="defs6" /><g
     id="g10"
     transform="matrix(1.3333333,0,0,-1.3333333,0,42.666667)"><g
       id="g12"
       transform="scale(0.1)"><path
         d="M 56.1094,281.633 C 21.7852,252.285 0,208.699 0,160 0,111.301 21.7852,67.7148 56.1094,38.3672 V 281.633"
         style="fill:#ffffff;fill-opacity:1;fill-rule:nonzero;stroke:none"
         id="path14" /><path
         d="m 20.2461,136.918 h -1.2383 v -5.246 h 3.0938 v 5.246 h -1.2383 -0.6172"
         style="fill:#ca243b;fill-opacity:1;fill-rule:nonzero;stroke:none"
         id="path16" /><path
         d="m 25.1914,173.641 h -3.0898 v -5.246 h -3.0938 v 5.246 H 15.918 v 5.246 h -3.0938 v -10.492 h 3.0938 v -5.247 h 3.0898 V 161.051 160 157.902 H 15.918 v -5.246 h -3.0938 v -10.492 h 3.0938 v 5.246 h 3.0898 v 5.246 h 1.2383 0.6172 1.2383 v -5.246 h 3.0898 v -5.246 h 3.0938 v 10.492 h -3.0938 v 5.246 h -3.0898 v 2.098 1.051 2.097 h 3.0898 v 5.247 h 3.0938 v 10.492 h -3.0938 v -5.246"
         style="fill:#ca243b;fill-opacity:1;fill-rule:nonzero;stroke:none"
         id="path18" /><path
         d="m 20.8633,184.133 h 1.2383 v 5.242 h -3.0938 v -5.242 h 1.2383 0.6172"
         style="fill:#ca243b;fill-opacity:1;fill-rule:nonzero;stroke:none"
         id="path20" /><path
         d="m 49.9258,257.574 h -3.0899 v 5.246 h 3.0899 z m -3.0899,15.535 v -5.043 h -3.0937 v -5.246 h -3.0899 v -5.246 h 3.0899 v -5.246 h 3.0937 v -5.246 h 3.0899 v 5.246 h 3.0937 v 5.246 h 3.0899 v 5.246 h -3.0899 v 5.246 h -3.0937 v 5.247 h -2.8789 l -0.211,-0.204"
         style="fill:#ca243b;fill-opacity:1;fill-rule:nonzero;stroke:none"
         id="path22" /><path
         d="m 6.64063,161.051 v -3.149 h 3.09375 v 5.246 H 6.64063 v -2.097"
         style="fill:#ca243b;fill-opacity:1;fill-rule:nonzero;stroke:none"
         id="path24" /><path
         d="m 34.4688,160 v 3.148 H 31.375 v -5.246 h 3.0938 V 160"
         style="fill:#ca243b;fill-opacity:1;fill-rule:nonzero;stroke:none"
         id="path26" /><path
         d="m 53.0195,199.867 h 3.0899 v 5.246 h -3.0899 v -5.246"
         style="fill:#ca243b;fill-opacity:1;fill-rule:nonzero;stroke:none"
         id="path28" /><path
         d="m 31.375,184.133 v -5.246 h 3.0938 v -5.246 h 3.0898 V 161.051 160 147.41 h -3.0898 v -5.246 H 31.375 v -5.246 h -3.0898 v -5.246 h -3.0938 v -5.246 h -3.0898 v -5.246 h -1.2383 -0.6172 -1.2383 v 5.246 H 15.918 v 5.246 h -3.0938 v 5.246 H 9.73438 v 5.246 H 6.64063 v 5.246 H 3.55078 v 12.59 1.051 12.59 h 3.08985 v 5.246 h 3.09375 v 5.246 h 3.08982 v 5.242 h 3.0938 v 5.246 h 3.0898 v 5.246 h 1.2383 0.6172 1.2383 v -5.246 h 3.0898 v -5.246 h 3.0938 v -5.242 z m 24.7344,41.965 h -3.0899 v 5.246 h -3.0937 v 5.246 h -3.0899 v 5.246 h -3.0937 v 5.246 h -3.0899 v 5.246 h -3.0937 v -5.246 h -3.0898 v -5.246 H 31.375 v -5.246 h -3.0898 v -5.246 h -3.0938 v -5.246 h -3.0898 v -5.246 h -1.2383 -0.6172 -1.2383 v 5.246 H 15.918 v 3.543 c -2.2891,-4.731 -4.3594,-9.59 -6.18362,-14.563 v -4.719 h 3.08982 v -5.246 H 9.73438 v -5.246 H 6.64063 v -5.246 H 3.80078 l -0.25,-1.074 v -4.172 H 2.73828 C 0.96875,179.848 0,170.039 0,160 0,150.328 0.90625,140.871 2.55078,131.672 h 1 v -5.219 l 0.00781,-0.027 h 3.08204 v -5.246 h 3.09375 v -5.246 h 3.08982 v -5.246 H 9.73438 v -5.247 H 9.55469 C 11.4258,100.285 13.5469,95.2539 15.918,90.3594 v 4.5898 h 3.0898 v 5.2458 h 1.2383 0.6172 1.2383 v -5.2458 h 3.0898 v -5.2461 h 3.0938 v -5.2422 h 3.0898 v -5.2461 h 3.0938 v -5.246 h 3.0898 v -5.2461 h 3.0937 v 5.2461 h 3.0899 v 5.246 h 3.0937 v 5.2461 h 3.0899 v 5.2422 h 3.0937 v 5.2461 h 3.0899 v 10.4918 h -3.0899 v 5.247 h -3.0937 v 5.246 h -3.0899 v 5.246 h -3.0937 v -5.246 h -3.0899 v -5.246 h -3.0937 v -5.247 h 6.1836 v -5.246 h -9.2734 v 5.246 H 31.375 v 5.247 h -3.0898 v 5.246 h 3.0898 v 5.246 h 3.0938 v 5.246 h 3.0898 v 5.246 h 3.0937 v 5.246 h 3.0899 v 5.246 h 3.0937 v -5.246 h 3.0899 v -5.246 h 3.0937 v -5.246 h 3.0899 v 15.738 h -3.0899 v 5.246 h -3.0937 v 5.246 h -3.0899 v 5.246 h -3.0937 v 2.098 1.051 2.097 h 3.0937 v 5.247 h 3.0899 v 5.246 h 3.0937 v 5.246 h 3.0899 v 15.734 h -3.0899 v -5.246 h -3.0937 v -5.242 h -3.0899 v -5.246 h -3.0937 v 5.246 h -3.0899 v 5.242 h -3.0937 v 5.246 h -3.0898 v 5.246 H 31.375 v 5.246 h -3.0898 v 5.246 h 3.0898 v 5.246 h 3.0938 v 5.247 h 9.2734 v -5.247 h -6.1836 v -5.246 h 3.0937 v -5.246 h 3.0899 v -5.246 h 3.0937 v 5.246 h 3.0899 v 5.246 h 3.0937 v 5.246 h 3.0899 v 10.493"
         style="fill:#ca243b;fill-opacity:1;fill-rule:nonzero;stroke:none"
         id="path30" /><path
         d="m 56.1094,241.836 h -3.0899 v -5.246 h 3.0899 v 5.246"
         style="fill:#ca243b;fill-opacity:1;fill-rule:nonzero;stroke:none"
         id="path32" /><path
         d="m 56.1094,84.4609 h -3.0899 v -5.2461 h 3.0899 v 5.2461"
         style="fill:#ca243b;fill-opacity:1;fill-rule:nonzero;stroke:none"
         id="path34" /><path
         d="m 56.1094,42.4922 h -3.0899 v -1.4453 c 1.0118,-0.9141 2.0547,-1.793 3.0899,-2.6797 v 4.125"
         style="fill:#ca243b;fill-opacity:1;fill-rule:nonzero;stroke:none"
         id="path36" /><path
         d="m 53.0195,278.953 v -0.394 h 3.0899 v 3.074 c -1.0352,-0.887 -2.0781,-1.766 -3.0899,-2.68"
         style="fill:#ca243b;fill-opacity:1;fill-rule:nonzero;stroke:none"
         id="path38" /><path
         d="m 49.9258,58.2305 h -3.0899 v 5.2461 h 3.0899 z m 3.0937,0 h 3.0899 v 5.2461 h -3.0899 v 5.2461 h -3.0937 v 5.2461 h -3.0899 v -5.2461 h -3.0937 v -5.2461 h -3.0899 v -5.2461 h 3.0899 v -5.2461 h 3.0937 v -5.2461 h 3.0899 v 5.2461 h 3.0937 v 5.2461"
         style="fill:#ca243b;fill-opacity:1;fill-rule:nonzero;stroke:none"
         id="path40" /><path
         d="m 28.2852,247.082 h 3.0937 v 5.246 h 3.0899 v 5.246 h 3.0898 v 5.246 h -0.1172 c -3.2344,-3.855 -6.2891,-7.863 -9.1562,-12.015 v -3.723"
         style="fill:#ca243b;fill-opacity:1;fill-rule:nonzero;stroke:none"
         id="path42" /><path
         d="M 20.2461,84.4609 H 19.0078 V 84.3203 C 20,82.4805 21.043,80.6758 22.1016,78.8828 v 5.5781 h -1.2383 -0.6172"
         style="fill:#ca243b;fill-opacity:1;fill-rule:nonzero;stroke:none"
         id="path44" /><path
         d="m 53.0195,115.934 h 3.0899 v 5.246 h -3.0899 v -5.246"
         style="fill:#ca243b;fill-opacity:1;fill-rule:nonzero;stroke:none"
         id="path46" /><path
         d="m 20.8633,236.59 h 1.2383 v 4.527 c -0.8828,-1.5 -1.7696,-2.996 -2.6055,-4.527 h 0.75 0.6172"
         style="fill:#ca243b;fill-opacity:1;fill-rule:nonzero;stroke:none"
         id="path48" /><path
         d="m 37.5586,63.4766 h -3.0898 v 5.2461 h -3.0899 v 5.2461 h -3.0937 v -4.7774 c 2.6015,-3.7656 5.3398,-7.4375 8.2461,-10.9609 h 1.0273 v 5.2461"
         style="fill:#ca243b;fill-opacity:1;fill-rule:nonzero;stroke:none"
         id="path50" /><path
         d="M 56.1094,95.0391 V 38.5898 C 84.1016,14.5859 120.379,-0.0078125 159.977,-0.0078125 225,-0.0078125 281.168,39.1367 306.156,95.0391 H 56.1094"
         style="fill:#47ab4d;fill-opacity:1;fill-rule:evenodd;stroke:none"
         id="path52" /><path
         d="m 159.977,320.02 c -39.586,0 -75.8754,-14.547 -103.8676,-38.532 V 95.0391 H 306.074 C 314.957,114.926 320,136.902 320,160.02 c 0,88.14 -71.902,160 -160.023,160"
         style="fill:#ca243b;fill-opacity:1;fill-rule:nonzero;stroke:none"
         id="path54" /></g></g></svg>
