<?xml version="1.0" encoding="UTF-8" standalone="no"?>
<svg
   xmlns:dc="http://purl.org/dc/elements/1.1/"
   xmlns:cc="http://creativecommons.org/ns#"
   xmlns:rdf="http://www.w3.org/1999/02/22-rdf-syntax-ns#"
   xmlns:svg="http://www.w3.org/2000/svg"
   xmlns="http://www.w3.org/2000/svg"
   version="1.1"
   id="svg2"
   xml:space="preserve"
   width="42.666668"
   height="42.666668"
   viewBox="0 0 42.666668 42.666668"><metadata
     id="metadata8"><rdf:RDF><cc:Work
         rdf:about=""><dc:format>image/svg+xml</dc:format><dc:type
           rdf:resource="http://purl.org/dc/dcmitype/StillImage" /></cc:Work></rdf:RDF></metadata><defs
     id="defs6" /><g
     id="g10"
     transform="matrix(1.3333333,0,0,-1.3333333,0,42.666667)"><g
       id="g12"
       transform="scale(0.1)"><path
         d="m 160.012,320.023 c -31.25,0 -60.4573,-9.046 -85.1331,-24.628 V 24.625 C 99.5547,9.02344 128.762,-0.0117188 160.012,-0.0117188 c 31.234,0 60.422,9.0351588 85.101,24.6367188 v 270.77 c -24.679,15.582 -53.867,24.628 -85.101,24.628"
         style="fill:#ffffff;fill-opacity:1;fill-rule:evenodd;stroke:none"
         id="path14" /><path
         d="m 147.43,213.957 c 4.211,7.762 8.351,15.574 12.582,23.391 4.207,-7.817 8.343,-15.629 12.566,-23.391 0.91,-1.953 3.449,-2.273 5.246,-1.402 3.442,1.648 6.77,3.562 10.227,5.242 -2.274,-12.203 -4.586,-24.387 -6.867,-36.582 -0.254,-1.547 -0.289,-3.527 1.14,-4.438 1.434,-0.73 3.086,0.075 4.039,1.129 5.391,6.012 10.735,12.067 16.125,18.047 0.887,-2.976 1.7,-5.945 2.567,-8.918 0.371,-1.574 2.164,-2.519 3.703,-2.121 6.637,1.356 13.199,2.781 19.832,4.141 -1.969,-7.375 -4.067,-14.664 -6,-22.035 -0.34,-1.168 -0.559,-2.821 0.687,-3.559 2.715,-1.387 5.543,-2.602 8.286,-3.953 -11.43,-9.34 -22.911,-18.621 -34.395,-27.934 -1.387,-1.136 -2.043,-3.152 -1.457,-4.867 0.949,-3.238 1.977,-6.426 2.93,-9.648 -11.289,1.269 -22.477,3.379 -33.77,4.578 -1.672,0.324 -3.141,-1.535 -3.141,-3.117 0.29,-11.954 0.614,-23.8989 0.875,-35.8442 -1.871,0 -3.785,0.0195 -5.679,0 0.367,12.0625 1.058,24.1562 1.496,36.2192 -0.184,1.503 -1.715,3.066 -3.297,2.742 -11.289,-1.199 -22.477,-3.309 -33.766,-4.578 0.954,3.222 1.985,6.41 2.93,9.648 0.543,1.715 -0.07,3.731 -1.5,4.867 -11.437,9.313 -22.914,18.594 -34.3437,27.934 2.7383,1.39 5.5625,2.566 8.2735,3.953 1.2617,0.738 1.0351,2.391 0.707,3.559 -1.9531,7.371 -4.0469,14.66 -6.0156,22.035 6.6328,-1.36 13.2108,-2.785 19.8318,-4.141 1.531,-0.398 3.332,0.547 3.703,2.121 0.879,2.973 1.688,5.942 2.563,8.918 5.387,-5.98 10.746,-12.035 16.129,-18.047 0.988,-1.093 2.859,-1.972 4.25,-0.992 1.324,1.137 1.144,3.121 0.886,4.664 -2.277,12.102 -4.593,24.156 -6.816,36.219 3.453,-1.68 6.781,-3.594 10.231,-5.242 1.789,-0.871 4.312,-0.551 5.242,1.402"
         style="fill:#ed1d24;fill-opacity:1;fill-rule:nonzero;stroke:none"
         id="path16" /><path
         d="M 245.113,295.395 V 24.625 C 290.043,53.0078 320,103.117 320,160.004 c 0,56.879 -29.957,106.992 -74.887,135.391"
         style="fill:#ed1d24;fill-opacity:1;fill-rule:nonzero;stroke:none"
         id="path18" /><path
         d="m 74.8789,24.625 v 270.77 C 29.9492,266.996 0,216.883 0,160.004 0,103.117 29.9492,53.0078 74.8789,24.625"
         style="fill:#ed1d24;fill-opacity:1;fill-rule:nonzero;stroke:none"
         id="path20" /></g></g></svg>
