<?xml version="1.0" encoding="UTF-8" standalone="no"?>
<svg
   xmlns:dc="http://purl.org/dc/elements/1.1/"
   xmlns:cc="http://creativecommons.org/ns#"
   xmlns:rdf="http://www.w3.org/1999/02/22-rdf-syntax-ns#"
   xmlns:svg="http://www.w3.org/2000/svg"
   xmlns="http://www.w3.org/2000/svg"
   version="1.1"
   id="svg2"
   xml:space="preserve"
   width="42.666668"
   height="42.666668"
   viewBox="0 0 42.666668 42.666668"><metadata
     id="metadata8"><rdf:RDF><cc:Work
         rdf:about=""><dc:format>image/svg+xml</dc:format><dc:type
           rdf:resource="http://purl.org/dc/dcmitype/StillImage" /></cc:Work></rdf:RDF></metadata><defs
     id="defs6" /><g
     id="g10"
     transform="matrix(1.3333333,0,0,-1.3333333,0,42.666667)"><g
       id="g12"
       transform="scale(0.1)"><path
         d="M 159.988,-0.0078125 C 248.129,-0.0078125 320,71.8672 320,159.996 320,248.121 248.129,320.008 159.988,320.008 71.8516,320.008 0,248.121 0,159.996 0,71.8672 71.8516,-0.0078125 159.988,-0.0078125"
         style="fill:#26813a;fill-opacity:1;fill-rule:evenodd;stroke:none"
         id="path14" /><path
         d="m 58.2813,224.676 c 17.5703,2.699 35.496,-10.492 38.2382,-27.992 3.5465,-17.196 -8.3828,-35.598 -25.4804,-39.496 -16.4883,-4.54 -35.2305,5.425 -40.7578,21.613 -3.1641,8.601 -2.6524,18.508 1.3476,26.793 4.9883,10.277 15.3281,17.769 26.6524,19.082"
         style="fill:#f9e106;fill-opacity:1;fill-rule:nonzero;stroke:none"
         id="path16" /><path
         d="m 245.727,221.363 c 1.003,-2.054 1.476,-4.324 2.207,-6.492 2.171,0.793 4.328,1.641 6.48,2.383 -1.141,-1.957 -2.461,-3.852 -3.726,-5.809 2,-1.16 4,-2.316 5.89,-3.64 -2.25,-0.211 -4.586,-0.414 -6.851,-0.575 0.269,-2.265 0.625,-4.535 0.851,-6.804 -1.691,1.527 -3.219,3.207 -4.812,4.851 -1.567,-1.644 -3.094,-3.324 -4.786,-4.851 0.204,2.269 0.563,4.539 0.833,6.804 -2.309,0.161 -4.579,0.364 -6.852,0.575 1.914,1.324 3.914,2.48 5.914,3.64 -1.262,1.957 -2.586,3.852 -3.758,5.809 2.18,-0.742 4.336,-1.59 6.496,-2.383 0.696,2.168 1.325,4.383 2.114,6.492"
         style="fill:#f9e106;fill-opacity:1;fill-rule:nonzero;stroke:none"
         id="path18" /><path
         d="m 67.2422,215.93 c 0.4726,-1.106 0.7422,-2.274 1.0117,-3.485 1.2188,3.11 4.6328,3.692 7.4805,2.739 -0.5821,-0.469 -1.1446,-0.887 -1.7305,-1.368 0.0469,-0.16 0.1367,-0.527 0.2031,-0.726 -0.6953,-0.688 -1.3203,-1.485 -1.6797,-2.434 1.4336,0.317 2.8321,1.899 4.3086,1.106 0.0508,-0.844 -0.039,-1.684 -0.039,-2.532 -1.375,-1.425 -3.7344,-1.312 -4.7031,-3.21 0.7421,0.156 1.4179,0.312 2.1796,0.418 0.7657,-2.485 -2.5586,-3.333 -2.4921,-5.54 2.1093,-0.312 3.1679,1.954 3.4882,3.637 2.4688,0.473 5.0039,0.16 7.4961,-0.215 -0.9648,-0.527 -1.9101,-1 -2.8047,-1.468 0.6993,-0.747 1.418,-1.473 2.1094,-2.266 -0.8555,-0.106 -1.6406,-0.215 -2.4922,-0.262 0.0703,-0.426 0.1797,-1.215 0.2227,-1.586 1.8476,-0.054 3.8476,0.785 5.5273,-0.113 1.9571,-2.098 2.6094,-5.164 2.1563,-7.953 -2.5117,3 -6.5781,0.633 -9.836,1.789 1.3008,-1.941 3.3633,-3.113 5.2969,-4.371 -0.3125,-0.113 -0.875,-0.328 -1.207,-0.426 0.0625,-0.215 0.2187,-0.742 0.332,-0.941 -1.4765,-1.43 -1.3672,-3.328 -0.6914,-5.071 -2.9023,-0.312 -3.3281,3.215 -5.6445,4.215 -2.5352,1.422 -3.6406,4.223 -5.6367,6.18 -0.543,0.312 -1.0586,0.566 -1.5704,0.84 -1.5273,-3.539 -0.4296,-7.75 -2.5,-11.074 -1.0976,1.054 -2.5351,2.054 -2.7851,3.695 -0.5195,2.734 1.7773,5.055 1.1445,7.746 -2.875,-2.27 -2.1562,-6.379 -2.4219,-9.602 -0.5234,-0.312 -1.1406,-0.527 -1.7343,-0.785 -0.1133,-0.957 -0.1524,-1.844 -0.1992,-2.797 -1.168,0.211 -2.336,0.426 -3.5079,0.68 1.4844,2.484 -0.2421,5.598 1.5274,7.914 1.082,2.008 1.043,4.481 2.7031,6.223 -4.1641,-1.313 -8.6289,-2 -12.9687,-2.153 -3.0547,1.68 -4.6016,-2.117 -7.2071,-2.804 0.1328,0.687 0.2422,1.375 0.3555,2.004 -1.1211,-0.473 -2.2734,-0.95 -3.5469,-0.95 2.6485,2.532 5.6641,4.7 8.2149,7.387 3.2422,0.313 6.6093,-0.785 9.5078,1.367 -1.5274,1.27 -3.5274,1.473 -5.3203,0.528 0.3554,0.839 0.6757,1.742 1.0039,2.64 -2.5313,0.317 -4.2852,-1.586 -5.7032,-3.32 -1.0976,2.949 1.6407,5.746 4.4922,6.008 3.4414,0.629 6.2266,-1.801 9.1719,-3.008 -1.6406,3.379 -7.1719,3.32 -8.1562,6.644 4.0429,1.797 9.2109,0.055 11.5507,-3.742 1.5274,-1.894 2.0391,-4.902 4.7344,-5.648 -1.168,2.695 -3.5976,4.695 -4.4961,7.598 0.8985,-0.36 1.8008,-0.735 2.6953,-1.161 0.5938,3.27 1.8477,6.328 2.1602,9.653"
         style="fill:#26813a;fill-opacity:1;fill-rule:nonzero;stroke:none"
         id="path20" /><path
         d="m 72.6094,193.988 c 0.7695,0.328 1.4844,0.641 2.2969,0.953 -0.2266,-0.625 -0.379,-1.328 -0.5821,-2.011 -0.5429,0.371 -1.125,0.742 -1.7148,1.058"
         style="fill:#f9e005;fill-opacity:1;fill-rule:nonzero;stroke:none"
         id="path22" /><path
         d="m 68.5273,192.887 c 0.5118,-0.274 1.0274,-0.528 1.5704,-0.84 -0.586,-8.336 0.039,-17.043 -2.7891,-25 0.7187,-0.481 1.5273,-0.953 2.2461,-1.422 -0.1328,-0.43 -0.3125,-0.902 -0.4531,-1.312 -3.1172,-0.278 -6.2383,-0.118 -9.3438,-0.063 1.1055,2.957 3.5274,5.172 4.543,8.168 2.3086,6.598 3.5937,13.504 4.2265,20.469"
         style="fill:#7c1f1a;fill-opacity:1;fill-rule:nonzero;stroke:none"
         id="path24" /><path
         d="m 151.586,186.875 c 11.633,6.27 27.055,4.328 36.797,-4.691 -8.379,3.953 -18.711,3.211 -26.422,-1.961 -7.16,-4.692 -11.789,-12.969 -12.125,-21.563 -0.43,-9.172 4.223,-18.355 11.855,-23.457 7.664,-5.394 18.207,-6.18 26.692,-2.18 -5.903,-5.324 -13.742,-8.382 -21.727,-8.382 -10.422,-0.086 -20.617,5.238 -26.687,13.664 -4.805,6.535 -7.008,14.925 -6.063,22.996 1.121,10.758 8.016,20.664 17.68,25.574"
         style="fill:#f9e106;fill-opacity:1;fill-rule:nonzero;stroke:none"
         id="path26" /><path
         d="m 280.836,189.035 c 0.977,-2.113 1.598,-4.273 2.269,-6.437 2.184,0.797 4.274,1.636 6.45,2.324 -1.121,-1.957 -2.535,-3.738 -3.598,-5.699 1.801,-1.422 3.844,-2.364 5.801,-3.578 -2.313,-0.372 -4.582,-0.532 -6.899,-0.747 0.317,-2.261 0.633,-4.578 0.942,-6.906 -1.68,1.645 -3.274,3.324 -4.852,5.012 -1.57,-1.633 -3.117,-3.324 -4.801,-4.852 0.219,2.262 0.54,4.539 0.852,6.809 -2.273,0.098 -4.543,0.254 -6.766,0.73 1.914,1.207 3.864,2.27 5.75,3.481 -1.257,1.953 -2.582,3.906 -3.836,5.851 2.223,-0.789 4.379,-1.585 6.532,-2.472 0.793,2.101 1.422,4.324 2.156,6.484"
         style="fill:#f9e106;fill-opacity:1;fill-rule:nonzero;stroke:none"
         id="path28" /><path
         d="m 203.949,172.004 c 0.844,2.16 1.418,4.422 2.321,6.594 0.793,-2.215 1.375,-4.434 2.222,-6.594 2.16,0.894 4.36,1.687 6.539,2.527 -1.324,-2 -2.644,-3.957 -3.91,-5.91 2,-1.215 3.953,-2.308 5.867,-3.586 -2.226,-0.312 -4.535,-0.523 -6.8,-0.625 0.238,-2.328 0.625,-4.582 0.824,-6.91 -1.617,1.586 -3.215,3.27 -4.785,4.953 -1.598,-1.683 -3.168,-3.367 -4.809,-4.953 0.203,2.328 0.582,4.582 0.852,6.91 -2.266,0.102 -4.606,0.313 -6.801,0.625 1.883,1.278 3.836,2.371 5.836,3.586 -1.301,1.953 -2.582,3.91 -3.887,5.91 2.152,-0.84 4.359,-1.633 6.531,-2.527"
         style="fill:#f9e106;fill-opacity:1;fill-rule:nonzero;stroke:none"
         id="path30" /><path
         d="m 259.902,153.391 c 0.539,1.425 1.121,2.797 1.684,4.214 0.586,-1.417 1.168,-2.789 1.711,-4.214 1.523,-0.11 3.055,-0.215 4.512,-0.317 -1.106,-1.008 -2.243,-1.953 -3.371,-2.91 0.273,-1.48 0.625,-2.894 0.945,-4.379 -1.254,0.738 -2.52,1.524 -3.797,2.27 -1.254,-0.746 -2.516,-1.532 -3.797,-2.27 0.34,1.485 0.652,2.899 0.965,4.379 -1.168,0.957 -2.27,1.902 -3.395,2.91 1.489,0.102 3.016,0.207 4.543,0.317"
         style="fill:#f9e106;fill-opacity:1;fill-rule:nonzero;stroke:none"
         id="path32" /><path
         d="m 245.727,115.902 c 0.941,-2.066 1.476,-4.293 2.207,-6.492 2.171,0.785 4.328,1.641 6.48,2.383 -1.141,-1.957 -2.461,-3.867 -3.726,-5.82 2,-1.149 4,-2.317 5.89,-3.641 -2.25,-0.203 -4.586,-0.406 -6.851,-0.562 0.269,-2.2661 0.625,-4.5356 0.851,-6.8052 -1.691,1.5274 -3.219,3.2149 -4.812,4.8516 -1.567,-1.6367 -3.094,-3.3242 -4.786,-4.8516 0.204,2.2696 0.563,4.5391 0.833,6.8052 -2.309,0.156 -4.579,0.359 -6.899,0.562 1.961,1.324 3.961,2.492 5.961,3.641 -1.262,1.953 -2.586,3.863 -3.758,5.82 2.18,-0.742 4.336,-1.598 6.496,-2.383 0.696,2.153 1.325,4.383 2.114,6.492"
         style="fill:#f9e106;fill-opacity:1;fill-rule:nonzero;stroke:none"
         id="path34" /></g></g></svg>
