<?xml version="1.0" encoding="UTF-8" standalone="no"?>
<svg
   xmlns:dc="http://purl.org/dc/elements/1.1/"
   xmlns:cc="http://creativecommons.org/ns#"
   xmlns:rdf="http://www.w3.org/1999/02/22-rdf-syntax-ns#"
   xmlns:svg="http://www.w3.org/2000/svg"
   xmlns="http://www.w3.org/2000/svg"
   version="1.1"
   id="svg2"
   xml:space="preserve"
   width="42.666668"
   height="42.666668"
   viewBox="0 0 42.666668 42.666668"><metadata
     id="metadata8"><rdf:RDF><cc:Work
         rdf:about=""><dc:format>image/svg+xml</dc:format><dc:type
           rdf:resource="http://purl.org/dc/dcmitype/StillImage" /></cc:Work></rdf:RDF></metadata><defs
     id="defs6" /><g
     id="g10"
     transform="matrix(1.3333333,0,0,-1.3333333,0,42.666667)"><g
       id="g12"
       transform="scale(0.1)"><path
         d="M 236.809,300.242 C 214.07,312.734 188.004,319.941 160.227,319.98 71.8477,320.105 0.125,248.582 0,160.23 -0.0390625,132.289 7.17188,106.059 19.7422,83.1758 L 236.809,300.242"
         style="fill:#4a72c1;fill-opacity:1;fill-rule:evenodd;stroke:none"
         id="path14" /><path
         d="M 27.7539,69.9414 C 38.9531,53.5273 53.1641,39.2891 69.5664,28.0313 L 292.246,250.047 c -11.211,16.441 -25.406,30.664 -41.82,41.922 L 27.7539,69.9414"
         style="fill:#d01e25;fill-opacity:1;fill-rule:evenodd;stroke:none"
         id="path16" /><path
         d="M 27.7539,69.9414 250.426,291.969 c -4.203,2.91 -8.617,5.617 -13.133,8.117 L 19.6641,83.0977 c 2.5117,-4.5157 5.1992,-8.9024 8.0898,-13.1563"
         style="fill:#f2d60d;fill-opacity:1;fill-rule:evenodd;stroke:none"
         id="path18" /><path
         d="M 82.6992,19.9063 300.316,236.895 c -2.48,4.515 -5.179,8.91 -8.07,13.152 L 69.5664,28.0313 c 4.2539,-2.9063 8.6172,-5.629 13.1328,-8.125"
         style="fill:#f2d60d;fill-opacity:1;fill-rule:evenodd;stroke:none"
         id="path20" /><path
         d="M 83.1875,19.7617 C 105.938,7.26953 132.004,0.0625 159.773,0.0234375 248.133,-0.101563 319.875,71.418 320,159.777 c 0.043,27.946 -7.203,54.153 -19.777,77.02 L 83.1875,19.7617"
         style="fill:#4a72c1;fill-opacity:1;fill-rule:nonzero;stroke:none"
         id="path22" /><path
         d="m 75.3945,243.402 c 2.9141,8.84 5.7305,17.692 8.6055,26.485 2.875,-8.793 5.6914,-17.645 8.6875,-26.485 9.1715,0 18.4255,0.11 27.6285,-0.058 -7.402,-5.344 -14.812,-10.805 -22.2965,-16.153 2.5465,-8.906 5.7425,-17.519 8.3985,-26.429 -7.6016,5.293 -14.9375,10.867 -22.418,16.136 -7.5234,-5.269 -14.8242,-10.843 -22.3984,-16.136 2.625,8.91 5.8398,17.523 8.3789,26.429 -7.4727,5.348 -14.8946,10.809 -22.3086,16.153 9.2148,0.168 18.4687,0 27.7226,0.058"
         style="fill:#f2d60d;fill-opacity:1;fill-rule:nonzero;stroke:none"
         id="path24" /></g></g></svg>
