<?xml version="1.0" encoding="UTF-8" standalone="no"?>
<svg
   xmlns:dc="http://purl.org/dc/elements/1.1/"
   xmlns:cc="http://creativecommons.org/ns#"
   xmlns:rdf="http://www.w3.org/1999/02/22-rdf-syntax-ns#"
   xmlns:svg="http://www.w3.org/2000/svg"
   xmlns="http://www.w3.org/2000/svg"
   version="1.1"
   id="svg2"
   xml:space="preserve"
   width="42.666668"
   height="42.666668"
   viewBox="0 0 42.666668 42.666668"><metadata
     id="metadata8"><rdf:RDF><cc:Work
         rdf:about=""><dc:format>image/svg+xml</dc:format><dc:type
           rdf:resource="http://purl.org/dc/dcmitype/StillImage" /></cc:Work></rdf:RDF></metadata><defs
     id="defs6" /><g
     id="g10"
     transform="matrix(1.3333333,0,0,-1.3333333,0,42.666667)"><g
       id="g12"
       transform="scale(0.1)"><path
         d="m 190.184,317.129 c -9.743,1.867 -19.801,2.863 -30.098,2.875 h -0.172 c -10.297,-0.012 -20.355,-1.008 -30.109,-2.875 V 2.87109 c 9.754,-1.86328 19.812,-2.87499625 30.109,-2.87499625 h 0.172 c 10.297,0 20.355,1.01171625 30.098,2.87499625 V 317.129"
         style="fill:#d41b34;fill-opacity:1;fill-rule:nonzero;stroke:none"
         id="path14" /><path
         d="M 129.805,80 H 21.4336 C 44.25,40.5156 83.4961,11.7656 129.805,2.91016 V 80"
         style="fill:#facc07;fill-opacity:1;fill-rule:evenodd;stroke:none"
         id="path16" /><path
         d="M 190.184,80 V 2.90625 C 236.5,11.7617 275.75,40.5117 298.617,80 H 190.184"
         style="fill:#facc07;fill-opacity:1;fill-rule:evenodd;stroke:none"
         id="path18" /><path
         d="M 129.805,159.996 H 0 C 0,130.859 7.8125,103.539 21.4336,80 H 129.805 v 79.996"
         style="fill:#339b3d;fill-opacity:1;fill-rule:evenodd;stroke:none"
         id="path20" /><path
         d="M 190.184,159.996 V 80 H 298.617 C 312.23,103.539 320,130.859 320,159.996 H 190.184"
         style="fill:#339b3d;fill-opacity:1;fill-rule:evenodd;stroke:none"
         id="path22" /><path
         d="M 129.805,240 H 21.4336 C 7.8125,216.469 0,189.137 0,159.996 H 129.805 V 240"
         style="fill:#ffffff;fill-opacity:1;fill-rule:evenodd;stroke:none"
         id="path24" /><path
         d="M 190.184,159.996 H 320 c 0,29.141 -7.77,56.473 -21.383,80.004 H 190.184 v -80.004"
         style="fill:#ffffff;fill-opacity:1;fill-rule:evenodd;stroke:none"
         id="path26" /><path
         d="M 190.184,240 H 298.617 C 275.75,279.48 236.5,308.242 190.184,317.094 V 240"
         style="fill:#28397d;fill-opacity:1;fill-rule:evenodd;stroke:none"
         id="path28" /><path
         d="M 129.805,317.094 C 83.4961,308.238 44.25,279.48 21.4336,240 H 129.805 v 77.094"
         style="fill:#28397d;fill-opacity:1;fill-rule:evenodd;stroke:none"
         id="path30" /><path
         d="m 85.7852,277.973 c 2.2421,6.039 3.9843,12.281 6.1406,18.324 2.0781,-6.078 4.0195,-12.18 6.0078,-18.293 6.4764,-0.141 12.9144,-0.063 19.3434,-0.063 -5.117,-3.929 -10.453,-7.589 -15.578,-11.562 1.949,-6.133 3.946,-12.281 5.879,-18.41 -5.242,3.75 -10.4139,7.648 -15.6913,11.336 -5.2031,-3.723 -10.3281,-7.555 -15.5859,-11.215 1.8281,6.183 4.0195,12.219 5.8008,18.43 -5.1524,3.785 -10.4102,7.523 -15.4844,11.421 6.3476,0 12.7851,0.032 19.168,0.032"
         style="fill:#facc07;fill-opacity:1;fill-rule:nonzero;stroke:none"
         id="path32" /></g></g></svg>
