<?xml version="1.0" encoding="UTF-8" standalone="no"?>
<svg
   xmlns:dc="http://purl.org/dc/elements/1.1/"
   xmlns:cc="http://creativecommons.org/ns#"
   xmlns:rdf="http://www.w3.org/1999/02/22-rdf-syntax-ns#"
   xmlns:svg="http://www.w3.org/2000/svg"
   xmlns="http://www.w3.org/2000/svg"
   version="1.1"
   id="svg2"
   xml:space="preserve"
   width="42.666668"
   height="42.666668"
   viewBox="0 0 42.666668 42.666668"><metadata
     id="metadata8"><rdf:RDF><cc:Work
         rdf:about=""><dc:format>image/svg+xml</dc:format><dc:type
           rdf:resource="http://purl.org/dc/dcmitype/StillImage" /></cc:Work></rdf:RDF></metadata><defs
     id="defs6" /><g
     id="g10"
     transform="matrix(1.3333333,0,0,-1.3333333,0,42.666667)"><g
       id="g12"
       transform="scale(0.1)"><path
         d="M 300.793,235.727 84.0898,19.0547 C 106.699,6.80078 132.559,-0.160156 159.992,-0.160156 248.129,-0.160156 320,71.7188 320,159.859 c 0,27.411 -6.965,53.266 -19.207,75.868"
         style="fill:#de2125;fill-opacity:1;fill-rule:evenodd;stroke:none"
         id="path14" /><path
         d="m 235.91,300.613 c -22.625,12.262 -48.488,19.235 -75.918,19.235 C 71.8477,319.848 0,247.965 0,159.859 0,132.422 6.96875,106.566 19.1914,83.9688 L 235.91,300.613"
         style="fill:#2a9840;fill-opacity:1;fill-rule:evenodd;stroke:none"
         id="path16" /><path
         d="M 19.1914,83.9688 C 34.0586,56.5586 56.6797,33.918 84.0898,19.0547 L 300.793,235.727 c -14.855,27.41 -37.48,50.031 -64.883,64.886 L 19.1914,83.9688"
         style="fill:#f6df2f;fill-opacity:1;fill-rule:nonzero;stroke:none"
         id="path18" /></g></g></svg>
