<?xml version="1.0" encoding="UTF-8" standalone="no"?>
<svg
   xmlns:dc="http://purl.org/dc/elements/1.1/"
   xmlns:cc="http://creativecommons.org/ns#"
   xmlns:rdf="http://www.w3.org/1999/02/22-rdf-syntax-ns#"
   xmlns:svg="http://www.w3.org/2000/svg"
   xmlns="http://www.w3.org/2000/svg"
   version="1.1"
   id="svg2"
   xml:space="preserve"
   width="42.666668"
   height="42.666668"
   viewBox="0 0 42.666668 42.666668"><metadata
     id="metadata8"><rdf:RDF><cc:Work
         rdf:about=""><dc:format>image/svg+xml</dc:format><dc:type
           rdf:resource="http://purl.org/dc/dcmitype/StillImage" /></cc:Work></rdf:RDF></metadata><defs
     id="defs6" /><g
     id="g10"
     transform="matrix(1.3333333,0,0,-1.3333333,0,42.666667)"><g
       id="g12"
       transform="scale(0.1)"><path
         d="M 214.348,9.48047 V 310.527 C 197.375,316.648 179.082,320 160,320 c -19.074,0 -37.363,-3.352 -54.336,-9.473 V 9.48047 C 122.637,3.34375 140.926,0 160,0 c 19.082,0 37.375,3.34375 54.348,9.48047"
         style="fill:#ffffff;fill-opacity:1;fill-rule:evenodd;stroke:none"
         id="path14" /><path
         d="M 214.352,310.516 V 9.48047 C 275.945,31.7305 320,90.7266 320,160.004 320,229.27 275.945,288.273 214.352,310.516"
         style="fill:#2ea25c;fill-opacity:1;fill-rule:evenodd;stroke:none"
         id="path16" /><path
         d="M 105.652,9.48047 V 310.516 C 44.043,288.273 0,229.27 0,160.004 0,90.7266 44.043,31.7305 105.652,9.48047"
         style="fill:#f46e16;fill-opacity:1;fill-rule:evenodd;stroke:none"
         id="path18" /></g></g></svg>
