<?xml version="1.0" encoding="UTF-8" standalone="no"?>
<svg
   xmlns:dc="http://purl.org/dc/elements/1.1/"
   xmlns:cc="http://creativecommons.org/ns#"
   xmlns:rdf="http://www.w3.org/1999/02/22-rdf-syntax-ns#"
   xmlns:svg="http://www.w3.org/2000/svg"
   xmlns="http://www.w3.org/2000/svg"
   version="1.1"
   id="svg2"
   xml:space="preserve"
   width="42.666668"
   height="42.666668"
   viewBox="0 0 42.666668 42.666668"><metadata
     id="metadata8"><rdf:RDF><cc:Work
         rdf:about=""><dc:format>image/svg+xml</dc:format><dc:type
           rdf:resource="http://purl.org/dc/dcmitype/StillImage" /></cc:Work></rdf:RDF></metadata><defs
     id="defs6" /><g
     id="g10"
     transform="matrix(1.3333333,0,0,-1.3333333,0,42.666667)"><g
       id="g12"
       transform="scale(0.1)"><path
         d="M 159.988,-0.00390625 C 248.125,-0.00390625 320,71.8711 320,159.996 320,248.121 248.125,320.004 159.988,320.004 71.8477,320.004 0,248.121 0,159.996 0,71.8711 71.8477,-0.00390625 159.988,-0.00390625"
         style="fill:#273375;fill-opacity:1;fill-rule:evenodd;stroke:none"
         id="path14" /><path
         d="m 50.1445,272.645 c 0,1.179 0,2.351 0,3.519 -1.207,-1.148 -2.4257,-2.328 -3.5976,-3.519 1.2187,0 2.4101,0 3.5976,0"
         style="fill:#ffffff;fill-opacity:1;fill-rule:nonzero;stroke:none"
         id="path16" /><path
         d="m 50.1445,272.645 c -1.1875,0 -2.3789,0 -3.5976,0 -7.2266,-7.27 -13.7461,-15.219 -19.4805,-23.758 7.7149,0 15.3984,0 23.0781,0 0,-16.309 -0.039,-32.68 0,-48.992 6.5625,0 13.0313,0 19.5508,0 0.043,16.312 0,32.683 0.043,48.992 30.0195,0 60.1057,0 90.1367,0 0.07,7.941 0.07,15.828 0.047,23.758 -30.078,0 -60.1642,0 -90.1837,0 -0.0235,6.433 -0.0235,12.886 -0.0235,19.32 -6.9414,-4.75 -13.4531,-10.039 -19.5703,-15.801 0,-1.168 0,-2.34 0,-3.519"
         style="fill:#d11d2c;fill-opacity:1;fill-rule:nonzero;stroke:none"
         id="path18" /><path
         d="m 159.383,319.996 c -0.785,0 -1.578,-0.012 -2.379,-0.035 -20.606,-12.793 -41.387,-25.227 -62.0118,-37.957 -1.0352,-0.684 -2.2031,-1.078 -3.375,-0.981 -4.5977,0.106 -9.2539,-0.097 -13.8828,0.106 20.4023,12.719 40.9996,24.949 61.4726,37.519 -0.019,0 -0.039,0 -0.039,0 -1.938,-0.261 -3.824,-0.55 -5.754,-0.867 -0.184,-0.031 -0.34,-0.066 -0.523,-0.09 -1.95,-0.332 -3.883,-0.707 -5.817,-1.109 -16.851,-10.316 -33.7927,-20.48 -50.6873,-30.734 -0.0195,3.48 -0.0195,6.965 -0.0429,10.441 v 0 c -2.2461,-1.391 -4.4493,-2.828 -6.629,-4.324 0,-6.434 0,-12.887 0.0235,-19.32 30.0195,0 60.1057,0 90.1837,0 0.023,-7.93 0.023,-15.817 -0.047,-23.758 -30.031,0 -60.1172,0 -90.1367,0 -0.043,-16.309 0,-32.68 -0.043,-48.992 2.1992,0 4.4414,0 6.6485,0 0,11.933 -0.0391,23.859 0.0429,35.793 18.6055,-11.204 37.1603,-22.5 55.7653,-33.747 1.532,-0.875 2.993,-2.234 4.789,-2.046 7.571,0.046 15.161,-0.043 22.731,0.046 -21.906,13.7 -44.055,26.688 -65.965,40.422 4.7891,0.242 9.594,0.055 14.359,0.145 1.684,0.055 3.102,-1.168 4.536,-1.992 15.757,-9.645 31.5,-19.286 47.273,-28.926 0.113,-3.211 0.047,-6.481 0.07,-9.695 0.133,4.964 -0.07,9.886 -0.023,14.808 -14.043,8.617 -28.199,16.895 -42.152,25.715 14.023,0.187 28.109,0 42.152,0.09 0.066,13.488 0.066,27.023 0,40.562 -14.043,0.106 -28.129,-0.144 -42.152,0.106 13.914,8.859 28.222,16.89 42.105,25.855 0.113,4.324 0,8.649 0.023,12.973 -0.156,0 -0.332,-0.008 -0.515,-0.008"
         style="fill:#ffffff;fill-opacity:1;fill-rule:nonzero;stroke:none"
         id="path20" /><path
         d="m 139.207,318.648 c -20.473,-12.57 -41.0703,-24.8 -61.4726,-37.519 4.6289,-0.203 9.2851,0 13.8828,-0.106 1.1719,-0.097 2.3398,0.297 3.375,0.981 20.6248,12.73 41.4058,25.164 62.0118,37.957 -6.02,-0.109 -11.957,-0.547 -17.797,-1.313"
         style="fill:#d11d2c;fill-opacity:1;fill-rule:nonzero;stroke:none"
         id="path22" /><path
         d="m 27.0664,248.887 c -2.7539,-4.11 -5.3437,-8.36 -7.7187,-12.739 1.5898,0.965 3.1679,1.93 4.7343,2.895 1.2149,0.734 2.4336,1.562 3.7774,1.465 4.7148,-0.09 9.5078,0.097 14.2461,-0.145 -9.7539,-6.105 -19.5899,-12.07 -29.4375,-18.008 -0.9414,-2.179 -1.7969,-4.39 -2.6485,-6.621 11.0078,6.661 21.9961,13.34 33,19.954 0.0235,-11.934 0,-23.86 0.0235,-35.793 2.3867,0 4.7422,0 7.1015,0 -0.039,16.312 0,32.683 0,48.992 -7.6797,0 -15.3632,0 -23.0781,0"
         style="fill:#ffffff;fill-opacity:1;fill-rule:nonzero;stroke:none"
         id="path24" /><path
         d="m 42.1055,240.363 c -4.7383,0.242 -9.5313,0.055 -14.2461,0.145 -1.3438,0.097 -2.5625,-0.731 -3.7774,-1.465 -1.5664,-0.965 -3.1445,-1.93 -4.7343,-2.895 -2.4571,-4.472 -4.6602,-9.074 -6.6797,-13.793 9.8476,5.938 19.6836,11.903 29.4375,18.008"
         style="fill:#d11d2c;fill-opacity:1;fill-rule:nonzero;stroke:none"
         id="path26" /><path
         d="m 93.707,240.363 c 4.7891,0.242 9.594,0.055 14.359,0.145 1.684,0.055 3.102,-1.168 4.536,-1.992 15.757,-9.645 31.5,-19.286 47.273,-28.926 0.113,-3.211 0.047,-6.481 0.07,-9.695 l -0.273,0.046 c -21.906,13.7 -44.055,26.688 -65.965,40.422"
         style="fill:#d11d2c;fill-opacity:1;fill-rule:nonzero;stroke:none"
         id="path28" /><path
         d="m 237.188,218.551 c 1.031,2.804 1.851,5.668 2.804,8.496 0.949,-2.828 1.797,-5.684 2.805,-8.488 2.965,0.039 5.949,0 8.914,0.019 -2.438,-1.719 -4.844,-3.484 -7.231,-5.242 0.883,-2.828 1.809,-5.633 2.723,-8.457 -2.41,1.723 -4.801,3.488 -7.211,5.219 -2.414,-1.731 -4.781,-3.496 -7.187,-5.219 0.902,2.824 1.832,5.629 2.718,8.457 -2.386,1.758 -4.8,3.523 -7.226,5.242 2.957,-0.019 5.926,0.02 8.891,-0.027"
         style="fill:#ffffff;fill-opacity:1;fill-rule:nonzero;stroke:none"
         id="path30" /><path
         d="m 212.391,221.195 c 1.98,-2.207 3.968,-4.422 5.964,-6.625 2.727,1.184 5.442,2.41 8.161,3.625 -1.5,-2.578 -3,-5.144 -4.461,-7.726 1.972,-2.211 3.968,-4.414 5.945,-6.617 -2.59,0.535 -5.18,1.086 -7.766,1.652 -0.375,0.027 -0.968,0.32 -1.164,-0.191 -1.422,-2.418 -2.804,-4.879 -4.23,-7.309 -0.332,2.941 -0.613,5.887 -0.945,8.828 -2.907,0.633 -5.829,1.246 -8.735,1.859 2.727,1.196 5.453,2.411 8.156,3.637 -0.316,2.953 -0.609,5.914 -0.925,8.867"
         style="fill:#ffffff;fill-opacity:1;fill-rule:nonzero;stroke:none"
         id="path32" /><path
         d="m 261.645,214.57 c 2,2.203 3.996,4.418 5.968,6.625 -0.316,-2.953 -0.613,-5.914 -0.929,-8.867 2.711,-1.226 5.429,-2.441 8.16,-3.637 -2.903,-0.613 -5.832,-1.226 -8.727,-1.859 -0.344,-2.934 -0.625,-5.887 -0.957,-8.828 -1.324,2.293 -2.644,4.57 -3.949,6.875 -0.238,0.316 -0.398,0.906 -0.91,0.715 -2.781,-0.539 -5.531,-1.192 -8.293,-1.742 1.972,2.203 3.969,4.406 5.941,6.617 -1.48,2.582 -2.98,5.148 -4.445,7.726 2.711,-1.215 5.414,-2.441 8.141,-3.625"
         style="fill:#ffffff;fill-opacity:1;fill-rule:nonzero;stroke:none"
         id="path34" /><path
         d="m 197.707,200.984 c 1.996,2.207 3.973,4.418 5.973,6.629 -0.34,-2.961 -0.637,-5.914 -0.953,-8.879 2.687,-1.222 5.398,-2.351 8.043,-3.625 -2.868,-0.66 -5.747,-1.226 -8.614,-1.867 -0.312,-2.976 -0.633,-5.945 -0.929,-8.922 -1.442,2.629 -2.965,5.184 -4.465,7.785 -2.907,-0.617 -5.828,-1.222 -8.735,-1.867 1.996,2.203 3.993,4.426 5.993,6.641 -1.485,2.574 -2.985,5.137 -4.446,7.715 2.703,-1.207 5.41,-2.43 8.133,-3.61"
         style="fill:#ffffff;fill-opacity:1;fill-rule:nonzero;stroke:none"
         id="path36" /><path
         d="m 276.324,207.613 c 1.996,-2.211 3.973,-4.422 5.965,-6.629 2.734,1.18 5.438,2.403 8.141,3.61 -1.461,-2.578 -2.961,-5.141 -4.446,-7.715 1.996,-2.215 3.993,-4.438 5.993,-6.641 -2.907,0.645 -5.832,1.25 -8.739,1.867 -1.496,-2.601 -3.043,-5.156 -4.465,-7.785 -0.293,2.977 -0.605,5.946 -0.929,8.922 -2.879,0.641 -5.766,1.215 -8.653,1.867 2.668,1.258 5.395,2.403 8.082,3.625 -0.316,2.965 -0.613,5.918 -0.949,8.879"
         style="fill:#ffffff;fill-opacity:1;fill-rule:nonzero;stroke:none"
         id="path38" /><path
         d="m 184.336,180.152 c 0.945,2.844 1.894,5.684 2.766,8.547 0.925,-2.847 1.816,-5.711 2.789,-8.547 2.957,0.008 5.922,0 8.91,0 -2.414,-1.734 -4.824,-3.484 -7.238,-5.226 0.917,-2.832 1.843,-5.672 2.773,-8.492 -2.418,1.734 -4.805,3.511 -7.234,5.238 -2.407,-1.742 -4.801,-3.492 -7.207,-5.231 0.921,2.813 1.851,5.641 2.761,8.465 -2.39,1.77 -4.816,3.496 -7.215,5.246 2.965,0.008 5.934,0 8.895,0"
         style="fill:#ffffff;fill-opacity:1;fill-rule:nonzero;stroke:none"
         id="path40" /><path
         d="m 292.902,188.688 c 0.868,-2.868 1.817,-5.7 2.766,-8.536 2.965,0 5.926,0.008 8.891,0 -2.387,-1.75 -4.825,-3.476 -7.215,-5.246 0.929,-2.824 1.844,-5.652 2.769,-8.465 -2.41,1.739 -4.8,3.477 -7.211,5.231 -2.433,-1.727 -4.82,-3.504 -7.23,-5.238 0.93,2.82 1.859,5.66 2.758,8.492 -2.407,1.742 -4.817,3.492 -7.203,5.226 2.937,0 5.906,0.02 8.871,-0.011 0.984,2.828 1.879,5.703 2.804,8.547"
         style="fill:#ffffff;fill-opacity:1;fill-rule:nonzero;stroke:none"
         id="path42" /><path
         d="m 179.688,164.586 c 2,-2.207 3.968,-4.43 5.992,-6.629 2.703,1.203 5.414,2.418 8.14,3.621 -1.484,-2.574 -2.98,-5.137 -4.465,-7.723 1.997,-2.21 3.989,-4.414 5.965,-6.628 -2.886,0.636 -5.789,1.226 -8.695,1.878 -1.523,-2.57 -2.984,-5.16 -4.465,-7.746 -0.336,2.961 -0.609,5.926 -0.965,8.871 -2.882,0.629 -5.808,1.235 -8.695,1.86 2.711,1.191 5.395,2.426 8.117,3.582 -0.254,2.976 -0.605,5.937 -0.929,8.914"
         style="fill:#ffffff;fill-opacity:1;fill-rule:nonzero;stroke:none"
         id="path44" /><path
         d="m 294.324,157.957 c 2.016,2.199 3.992,4.422 5.989,6.629 -0.317,-2.969 -0.653,-5.938 -0.93,-8.906 2.73,-1.164 5.414,-2.399 8.117,-3.59 -2.879,-0.625 -5.805,-1.231 -8.695,-1.86 -0.356,-2.945 -0.629,-5.91 -0.965,-8.871 -1.481,2.586 -2.942,5.176 -4.465,7.746 -2.906,-0.652 -5.809,-1.242 -8.695,-1.878 1.984,2.214 3.976,4.418 5.968,6.628 -1.476,2.579 -2.984,5.149 -4.46,7.723 2.718,-1.203 5.429,-2.418 8.136,-3.621"
         style="fill:#ffffff;fill-opacity:1;fill-rule:nonzero;stroke:none"
         id="path46" /><path
         d="m 190.871,135.965 c 1.977,2.215 3.973,4.43 5.969,6.621 -0.332,-2.945 -0.629,-5.891 -0.945,-8.852 2.644,-1.25 5.371,-2.312 8,-3.621 -2.848,-0.707 -5.711,-1.218 -8.575,-1.875 -0.316,-2.965 -0.613,-5.925 -0.929,-8.886 -1.461,2.609 -2.961,5.175 -4.465,7.746 -2.903,-0.614 -5.824,-1.231 -8.75,-1.879 2.015,2.23 4.047,4.422 6,6.695 -1.52,2.527 -2.957,5.117 -4.442,7.664 2.707,-1.203 5.414,-2.41 8.137,-3.613"
         style="fill:#ffffff;fill-opacity:1;fill-rule:nonzero;stroke:none"
         id="path48" /><path
         d="m 283.164,142.586 c 1.992,-2.191 3.969,-4.406 5.965,-6.621 2.726,1.203 5.434,2.41 8.141,3.613 -1.481,-2.547 -2.922,-5.137 -4.446,-7.664 1.957,-2.273 3.989,-4.465 6.008,-6.695 -2.922,0.648 -5.855,1.265 -8.762,1.879 -1.496,-2.571 -3,-5.137 -4.461,-7.746 -0.316,2.961 -0.613,5.921 -0.929,8.886 -2.844,0.633 -5.692,1.168 -8.512,1.84 2.566,1.379 5.309,2.391 7.941,3.656 -0.316,2.961 -0.632,5.907 -0.945,8.852"
         style="fill:#ffffff;fill-opacity:1;fill-rule:nonzero;stroke:none"
         id="path50" /><path
         d="m 204.566,117.984 c 0.911,2.829 1.821,5.657 2.747,8.461 0.929,-2.804 1.835,-5.632 2.746,-8.461 2.961,-0.019 5.925,0.024 8.91,-0.019 -2.391,-1.738 -4.817,-3.453 -7.188,-5.211 0.907,-2.828 1.832,-5.656 2.742,-8.481 -2.41,1.743 -4.8,3.5 -7.21,5.239 -2.407,-1.762 -4.864,-3.496 -7.227,-5.297 0.926,2.844 1.852,5.687 2.762,8.515 -2.371,1.782 -4.785,3.481 -7.176,5.235 2.969,0.043 5.933,0 8.894,0.019"
         style="fill:#ffffff;fill-opacity:1;fill-rule:nonzero;stroke:none"
         id="path52" /><path
         d="m 272.691,126.445 c 0.93,-2.804 1.84,-5.632 2.747,-8.461 2.964,-0.019 5.921,0.024 8.89,-0.019 -2.39,-1.738 -4.801,-3.453 -7.172,-5.235 0.91,-2.828 1.832,-5.671 2.77,-8.515 -2.399,1.801 -4.828,3.535 -7.235,5.297 -2.414,-1.739 -4.8,-3.496 -7.214,-5.239 0.91,2.825 1.839,5.653 2.75,8.481 -2.375,1.758 -4.805,3.473 -7.192,5.211 2.981,0.043 5.945,0 8.906,0.019 0.914,2.829 1.821,5.657 2.75,8.461"
         style="fill:#ffffff;fill-opacity:1;fill-rule:nonzero;stroke:none"
         id="path54" /><path
         d="m 223.438,116.008 c 2.015,-2.211 3.968,-4.461 6.023,-6.633 2.687,1.242 5.414,2.406 8.102,3.633 -1.481,-2.57 -2.981,-5.141 -4.465,-7.727 1.992,-2.211 3.992,-4.422 5.988,-6.6365 -2.906,0.6328 -5.832,1.2422 -8.734,1.8555 -1.524,-2.4883 -2.852,-5.0977 -4.45,-7.5469 -0.375,2.9063 -0.609,5.8086 -0.968,8.7109 -2.879,0.637 -5.801,1.231 -8.692,1.844 2.707,1.219 5.414,2.406 8.121,3.633 -0.277,2.964 -0.613,5.91 -0.925,8.867"
         style="fill:#ffffff;fill-opacity:1;fill-rule:nonzero;stroke:none"
         id="path56" /><path
         d="m 250.543,109.375 c 2.051,2.172 4.008,4.422 6.031,6.633 -0.324,-2.957 -0.66,-5.903 -0.937,-8.867 2.711,-1.227 5.418,-2.414 8.14,-3.633 -2.922,-0.613 -5.804,-1.207 -8.711,-1.844 -0.355,-2.9023 -0.578,-5.8046 -0.964,-8.7109 -1.61,2.4492 -2.93,5.0586 -4.446,7.5469 -2.906,-0.6133 -5.828,-1.2227 -8.738,-1.8555 1.996,2.2145 3.992,4.4255 5.988,6.6365 -1.48,2.586 -2.98,5.157 -4.468,7.727 2.687,-1.227 5.414,-2.391 8.105,-3.633"
         style="fill:#ffffff;fill-opacity:1;fill-rule:nonzero;stroke:none"
         id="path58" /></g></g></svg>
