<?xml version="1.0" encoding="UTF-8" standalone="no"?>
<svg
   xmlns:dc="http://purl.org/dc/elements/1.1/"
   xmlns:cc="http://creativecommons.org/ns#"
   xmlns:rdf="http://www.w3.org/1999/02/22-rdf-syntax-ns#"
   xmlns:svg="http://www.w3.org/2000/svg"
   xmlns="http://www.w3.org/2000/svg"
   version="1.1"
   id="svg2"
   xml:space="preserve"
   width="42.666668"
   height="42.666668"
   viewBox="0 0 42.666668 42.666668"><metadata
     id="metadata8"><rdf:RDF><cc:Work
         rdf:about=""><dc:format>image/svg+xml</dc:format><dc:type
           rdf:resource="http://purl.org/dc/dcmitype/StillImage" /></cc:Work></rdf:RDF></metadata><defs
     id="defs6" /><g
     id="g10"
     transform="matrix(1.3333333,0,0,-1.3333333,0,42.666667)"><g
       id="g12"
       transform="scale(0.1)"><path
         d="M 159.988,-0.0117188 C 248.133,-0.0117188 320,71.8594 320,160 320,248.113 248.133,320.012 159.988,320.012 71.8477,320.012 0,248.113 0,160 0,71.8594 71.8477,-0.0117188 159.988,-0.0117188"
         style="fill:#ffffff;fill-opacity:1;fill-rule:evenodd;stroke:none"
         id="path14" /><path
         d="m 280.074,217.727 0.41,3.496 -0.992,-3.41 c -2.07,-7.129 -7.972,-13.211 -14.012,-14.442 -4.492,-0.914 -8.457,-2.363 -10.027,-3.668 -0.98,-0.816 -1.348,-0.785 -2.437,0.199 -0.825,0.746 -2.532,1.157 -4.805,1.157 -3.117,0 -3.711,-0.25 -5.137,-2.176 -0.886,-1.199 -1.785,-2.004 -2.004,-1.785 -0.215,0.215 0.012,0.875 0.504,1.468 0.656,0.789 0.672,1.079 0.067,1.079 -0.457,0 -1.27,-1.047 -1.805,-2.329 -1.199,-2.875 -4.465,-5.847 -6.066,-5.847 -4.922,1.73 -5.571,9.402 -11.204,9.808 -1.906,-0.097 -1.906,-0.097 -0.144,-0.418 2.437,-0.445 3.367,-3.015 6.48,-6.98 19.594,-24.977 46.934,-3.117 51.172,23.848"
         style="fill:#ed1d24;fill-opacity:1;fill-rule:nonzero;stroke:none"
         id="path16" /><path
         d="m 162.695,98.7344 c -30.949,-0.4258 -71.4997,20.7306 -83.9723,50.6016 -1.1914,3.41 -2.9219,6.586 -4.25,9.941 -3.9688,5.86 -7.7618,12.395 -12.7539,17.45 -11.6954,11.894 -22.7735,26.14 -23.4805,43.437 0.039,1.391 0.4844,-0.305 1.0469,-3.758 4.6523,-28.429 32.2773,-47.379 52,-23.176 1.3125,1.61 2.5078,3.997 3.2929,4.872 1.4375,1.613 4.0039,2.179 4.0039,0.886 0,-0.39 -0.7929,-0.711 -1.7578,-0.711 -1.4062,0 -2.1289,-0.73 -3.6211,-3.675 -1.7265,-3.403 -8.9531,-10.731 -10.2812,-11.18 -1.1133,-0.375 -0.375,-1.258 2.3945,-2.711 6.1914,-3.25 8.332,-4.672 14.7856,-9.809 6.886,-5.707 15.019,-10.203 24.195,-10.402 8.246,1.723 13.457,1.898 18.473,-2.93 2.644,-2.543 7.941,-3.156 17.011,-3.156 9.071,0 14.305,0.68 17.012,3.156 5.266,4.828 10.227,4.653 18.473,2.93 9.351,0.047 17.097,4.922 24.195,10.402 6.449,5.137 8.594,6.559 14.785,9.809 2.77,1.453 3.883,2.711 2.395,2.711 -1.403,0 -8.555,7.777 -10.282,11.18 -1.492,2.945 -2.214,3.675 -3.621,3.675 -0.965,0 -1.758,0.321 -1.758,0.711 0,1.293 2.567,0.727 4.004,-0.886 0.782,-0.875 2.262,-3.067 3.293,-4.872 22.094,-26.464 48.032,-1.144 52.438,23.176 0.539,3.461 1.008,5.149 1.047,3.758 -0.77,-17.254 -12.621,-31.414 -23.918,-43.437 -4.793,-5.336 -9.203,-11.184 -12.754,-17.45 -1.543,-3.257 -2.742,-6.672 -4.25,-9.941 -15.496,-29.621 -44.652,-51.1524 -78.145,-50.6016"
         style="fill:#ed1d24;fill-opacity:1;fill-rule:nonzero;stroke:none"
         id="path18" /><path
         d="m 136.078,158.617 c 0.656,2.805 -4.015,1.653 -2.437,-0.633 0.675,-1.086 2.578,-0.859 2.437,0.633"
         style="fill:#ffffff;fill-opacity:1;fill-rule:nonzero;stroke:none"
         id="path20" /><path
         d="m 186.086,158.375 c 0.766,2.543 -3.641,2.59 -2.594,-0.152 0.375,-1.344 2.293,-1.145 2.594,0.152"
         style="fill:#ffffff;fill-opacity:1;fill-rule:nonzero;stroke:none"
         id="path22" /><path
         d="m 39.5742,217.777 -0.4062,3.496 0.9922,-3.414 c 2.0703,-7.129 7.9687,-13.207 14.0078,-14.437 4.4961,-0.918 8.457,-2.367 10.0273,-3.672 0.9844,-0.812 1.3516,-0.785 2.4375,0.199 0.8281,0.746 2.5352,1.16 4.8086,1.16 3.1172,0 3.7109,-0.254 5.1367,-2.179 0.8828,-1.196 1.7852,-2 2,-1.785 0.2188,0.214 -0.0078,0.878 -0.5,1.472 -0.6562,0.785 -0.6718,1.078 -0.0664,1.078 0.4571,0 1.2696,-1.047 1.8008,-2.328 1.2031,-2.879 4.4688,-5.851 6.0664,-5.851 4.9258,1.73 5.5742,9.406 11.207,9.808 1.9024,-0.094 1.9063,-0.097 0.1407,-0.418 -2.4375,-0.441 -3.3672,-3.015 -6.4766,-6.98 -19.5937,-24.977 -46.9336,-3.117 -51.1758,23.851"
         style="fill:#ed1d24;fill-opacity:1;fill-rule:nonzero;stroke:none"
         id="path24" /><path
         d="m 72.668,185.18 c 2.4765,1.875 0.9218,3.207 -3.6055,3.082 l -4.0898,-0.11 3.539,-0.422 c 1.9453,-0.23 3.4375,-0.738 3.3203,-1.125 -0.1211,-0.39 -0.7578,-0.617 -1.4179,-0.507 -0.6563,0.105 -2.4688,0.34 -4.0274,0.515 l -2.8281,0.321 2.4766,-0.754 c 1.3632,-0.414 2.9531,-1.028 3.5351,-1.36 1.4297,-0.816 1.5664,-0.8 3.0977,0.36"
         style="fill:#ffffff;fill-opacity:1;fill-rule:nonzero;stroke:none"
         id="path26" /><path
         d="m 63.5586,188.375 c 0,1.594 -3.457,1.383 -3.7656,-0.23 -0.2032,-1.043 0.1328,-1.247 1.7578,-1.063 1.2109,0.141 2.0078,0.652 2.0078,1.293"
         style="fill:#ffffff;fill-opacity:1;fill-rule:nonzero;stroke:none"
         id="path28" /><path
         d="m 61.2734,188.094 c 0.2344,0.234 0.8438,0.261 1.3555,0.054 0.5664,-0.222 0.3984,-0.39 -0.4258,-0.425 -0.7461,-0.032 -1.164,0.136 -0.9297,0.371"
         style="fill:#ffffff;fill-opacity:1;fill-rule:nonzero;stroke:none"
         id="path30" /><path
         d="m 68.0234,195.305 c -0.2461,2.117 -2.6953,3.203 -2.6953,1.191 0,-0.648 -0.6367,-1.988 -1.4179,-2.976 -2.1016,-2.672 -1.7383,-3.051 1.4609,-1.508 2.4336,1.179 2.8398,1.679 2.6523,3.293"
         style="fill:#ffffff;fill-opacity:1;fill-rule:nonzero;stroke:none"
         id="path32" /><path
         d="m 56.1172,194.41 c -1.6719,2.977 -1.8008,5.488 -0.3399,6.699 1.2657,1.051 1.3711,0.477 0.2422,-1.332 -0.4843,-0.769 -0.5898,-1.859 -0.2578,-2.64 0.4844,-1.145 0.6367,-1.02 1.0625,0.851 0.2696,1.2 0.7031,2.52 0.9571,2.934 0.6718,1.086 -1.6602,1.769 -2.8047,0.82 -1.8985,-1.574 -0.3321,-9.832 1.8672,-9.832 0.371,0 0.0468,1.125 -0.7266,2.5"
         style="fill:#ffffff;fill-opacity:1;fill-rule:nonzero;stroke:none"
         id="path34" /><path
         d="m 63.0391,193.961 c 1.4609,1.977 1.4687,2.059 0.164,2.398 -0.7383,0.196 -1.4765,-0.007 -1.6367,-0.453 -0.1601,-0.445 -0.7578,-1.613 -1.0937,-1.297 -0.3438,0.321 0.2929,2.192 1.1836,2.86 0.8867,0.672 1.3867,1.441 1.1132,1.715 -0.2734,0.273 -0.9843,0.101 -1.5781,-0.379 -0.9023,-0.735 -1.0078,-0.684 -0.6406,0.3 0.4805,1.286 -1.2617,2.407 -1.9649,1.266 -0.2304,-0.371 -0.0468,-0.676 0.4063,-0.676 0.457,0 0.6367,-0.492 0.4062,-1.097 -0.2421,-0.629 -0.125,-0.914 0.2774,-0.668 0.3828,0.238 0.6484,-0.145 0.5859,-0.848 -0.2226,-2.555 0.125,-5.172 0.6875,-5.172 0.3164,0 1.2539,0.922 2.0899,2.051"
         style="fill:#ffffff;fill-opacity:1;fill-rule:nonzero;stroke:none"
         id="path36" /><path
         d="m 58.0313,197.402 c -0.1797,0.676 -0.3165,-0.043 -0.3086,-1.597 0.0078,-1.559 0.1523,-2.114 0.3203,-1.231 0.1718,0.879 0.164,2.153 -0.0117,2.828"
         style="fill:#ffffff;fill-opacity:1;fill-rule:nonzero;stroke:none"
         id="path38" /><path
         d="m 73.5664,197.219 c -0.5859,0.582 -1.2344,1.058 -1.4453,1.058 -0.2109,0 -0.1992,-0.476 0.0234,-1.058 0.2266,-0.586 0.875,-1.063 1.4453,-1.063 0.8985,0 0.8946,0.141 -0.0234,1.063"
         style="fill:#ffffff;fill-opacity:1;fill-rule:nonzero;stroke:none"
         id="path40" /><path
         d="m 249.824,184.777 c 0.676,0.356 2.34,0.989 3.703,1.403 l 2.477,0.754 -2.828,-0.321 c -1.559,-0.175 -3.371,-0.41 -4.028,-0.515 -0.66,-0.11 -1.296,0.117 -1.418,0.507 -0.117,0.387 1.375,0.895 3.321,1.125 l 3.539,0.422 -4.09,0.11 c -4.527,0.125 -6.082,-1.207 -3.605,-3.082 1.609,-1.219 1.425,-1.196 2.929,-0.403"
         style="fill:#ffffff;fill-opacity:1;fill-rule:nonzero;stroke:none"
         id="path42" /><path
         d="m 259.762,188.188 c -0.274,1.425 -2.516,2.066 -3.559,1.023 -1.062,-1.066 0,-2.25 2.016,-2.25 1.308,0 1.719,0.324 1.543,1.227"
         style="fill:#ffffff;fill-opacity:1;fill-rule:nonzero;stroke:none"
         id="path44" /><path
         d="m 256.551,188.094 c 0.234,0.234 0.844,0.261 1.355,0.054 0.563,-0.222 0.395,-0.39 -0.429,-0.425 -0.747,-0.032 -1.164,0.136 -0.926,0.371"
         style="fill:#ffffff;fill-opacity:1;fill-rule:nonzero;stroke:none"
         id="path46" /><path
         d="m 255.777,193.309 c -0.847,1.144 -1.543,2.597 -1.543,3.226 0,1.985 -2.453,0.856 -2.699,-1.242 -0.183,-1.605 0.211,-2.125 2.481,-3.227 1.48,-0.722 2.832,-1.207 3,-1.078 0.168,0.129 -0.391,1.172 -1.239,2.321"
         style="fill:#ffffff;fill-opacity:1;fill-rule:nonzero;stroke:none"
         id="path48" /><path
         d="m 259.301,193.855 c 0.058,1.071 0.062,2.524 0,3.227 -0.063,0.703 0.203,1.086 0.586,0.848 0.402,-0.246 0.519,0.039 0.277,0.668 -0.23,0.605 -0.051,1.097 0.406,1.097 0.453,0 0.637,0.305 0.407,0.676 -0.707,1.141 -2.446,0.02 -1.965,-1.266 0.367,-0.984 0.261,-1.035 -0.641,-0.3 -0.594,0.48 -1.305,0.652 -1.578,0.379 -0.273,-0.274 0.227,-1.043 1.113,-1.715 0.891,-0.668 1.336,-1.477 0.996,-1.793 -0.339,-0.321 -0.746,-0.215 -0.906,0.23 -0.16,0.446 -0.898,0.649 -1.641,0.453 -1.3,-0.339 -1.292,-0.421 0.168,-2.398 1.895,-2.563 2.633,-2.59 2.778,-0.106"
         style="fill:#ffffff;fill-opacity:1;fill-rule:nonzero;stroke:none"
         id="path50" /><path
         d="m 264.477,194 c 1.343,2.594 1.398,6.672 0.109,7.742 -1.148,0.949 -3.477,0.266 -2.805,-0.82 0.254,-0.414 0.688,-1.734 0.957,-2.934 0.426,-1.871 0.578,-1.996 1.063,-0.851 0.332,0.781 0.222,1.871 -0.258,2.64 -1.129,1.809 -1.023,2.383 0.242,1.332 1.457,-1.211 1.332,-3.722 -0.34,-6.699 -0.773,-1.375 -1.097,-2.5 -0.726,-2.5 0.375,0 1.164,0.942 1.758,2.09"
         style="fill:#ffffff;fill-opacity:1;fill-rule:nonzero;stroke:none"
         id="path52" /><path
         d="m 261.797,197.402 c -0.18,0.676 -0.317,-0.043 -0.309,-1.597 0.008,-1.559 0.153,-2.114 0.325,-1.231 0.167,0.879 0.16,2.153 -0.016,2.828"
         style="fill:#ffffff;fill-opacity:1;fill-rule:nonzero;stroke:none"
         id="path54" /><path
         d="m 247.414,197.219 c 0.227,0.582 0.238,1.058 0.027,1.058 -0.211,0 -0.859,-0.476 -1.445,-1.058 -0.918,-0.922 -0.922,-1.063 -0.023,-1.063 0.57,0 1.218,0.477 1.441,1.063"
         style="fill:#ffffff;fill-opacity:1;fill-rule:nonzero;stroke:none"
         id="path56" /></g></g></svg>
