<?xml version="1.0" encoding="UTF-8" standalone="no"?>
<svg
   xmlns:dc="http://purl.org/dc/elements/1.1/"
   xmlns:cc="http://creativecommons.org/ns#"
   xmlns:rdf="http://www.w3.org/1999/02/22-rdf-syntax-ns#"
   xmlns:svg="http://www.w3.org/2000/svg"
   xmlns="http://www.w3.org/2000/svg"
   version="1.1"
   id="svg2"
   xml:space="preserve"
   width="42.666668"
   height="42.666668"
   viewBox="0 0 42.666668 42.666668"><metadata
     id="metadata8"><rdf:RDF><cc:Work
         rdf:about=""><dc:format>image/svg+xml</dc:format><dc:type
           rdf:resource="http://purl.org/dc/dcmitype/StillImage" /></cc:Work></rdf:RDF></metadata><defs
     id="defs6" /><g
     id="g10"
     transform="matrix(1.3333333,0,0,-1.3333333,0,42.666667)"><g
       id="g12"
       transform="scale(0.1)"><path
         d="m 159.988,0 c 88.129,0 160,71.8672 160,159.996 H 0 C 0,71.8672 71.8672,0 159.988,0"
         style="fill:#d72624;fill-opacity:1;fill-rule:evenodd;stroke:none"
         id="path14" /><path
         d="M 159.988,320.008 C 71.8789,320.008 0,248.125 0,159.996 h 159.988 v 160.012"
         style="fill:#293f9d;fill-opacity:1;fill-rule:evenodd;stroke:none"
         id="path16" /><path
         d="M 159.988,320.008 V 159.996 H 320 c 0,88.129 -71.883,160.012 -160.012,160.012"
         style="fill:#ffffff;fill-opacity:1;fill-rule:evenodd;stroke:none"
         id="path18" /><path
         d="m 72.625,247.012 c 2.5039,7.379 4.7422,14.84 7.3242,22.164 2.5977,-7.348 4.7774,-14.821 7.3203,-22.18 7.7891,-0.019 15.6135,0.016 23.3985,-0.055 -6.277,-4.625 -12.6055,-9.152 -18.9102,-13.73 2.2188,-7.488 4.8633,-14.891 7.1016,-22.375 -6.3438,4.543 -12.6133,9.18 -18.9336,13.746 -6.3828,-4.469 -12.543,-9.203 -18.9688,-13.625 2.2774,7.461 4.8438,14.801 7.1602,22.254 -6.2344,4.617 -12.6797,9.035 -18.7969,13.785 7.7695,0.098 15.5391,0 23.3047,0.016"
         style="fill:#ffffff;fill-opacity:1;fill-rule:nonzero;stroke:none"
         id="path20" /></g></g></svg>
