<?xml version="1.0" encoding="UTF-8" standalone="no"?>
<svg
   xmlns:dc="http://purl.org/dc/elements/1.1/"
   xmlns:cc="http://creativecommons.org/ns#"
   xmlns:rdf="http://www.w3.org/1999/02/22-rdf-syntax-ns#"
   xmlns:svg="http://www.w3.org/2000/svg"
   xmlns="http://www.w3.org/2000/svg"
   version="1.1"
   id="svg2"
   xml:space="preserve"
   width="42.666668"
   height="42.666668"
   viewBox="0 0 42.666668 42.666668"><metadata
     id="metadata8"><rdf:RDF><cc:Work
         rdf:about=""><dc:format>image/svg+xml</dc:format><dc:type
           rdf:resource="http://purl.org/dc/dcmitype/StillImage" /></cc:Work></rdf:RDF></metadata><defs
     id="defs6" /><g
     id="g10"
     transform="matrix(1.3333333,0,0,-1.3333333,0,42.666667)"><g
       id="g12"
       transform="scale(0.1)"><path
         d="m 105.66,9.5 v 300.977 c 16.985,6.132 35.27,9.484 54.336,9.484 19.094,0 37.379,-3.352 54.363,-9.484 V 9.5 C 197.375,3.39063 179.09,0.0507813 159.996,0.0507813 140.93,0.0507813 122.645,3.39063 105.66,9.5"
         style="fill:#d01e27;fill-opacity:1;fill-rule:evenodd;stroke:none"
         id="path14" /><path
         d="M 105.66,310.477 V 9.52344 C 44.043,31.7578 0,90.7461 0,160.004 0,229.25 44.043,288.219 105.66,310.477"
         style="fill:#26795b;fill-opacity:1;fill-rule:evenodd;stroke:none"
         id="path16" /><path
         d="M 214.359,9.52344 V 310.477 C 275.949,288.219 320,229.25 320,160.004 320,90.7461 275.949,31.7578 214.359,9.52344"
         style="fill:#f7cf0d;fill-opacity:1;fill-rule:nonzero;stroke:none"
         id="path18" /><path
         d="m 151.102,168.445 c 3.203,8.766 5.738,17.821 8.894,26.551 2.965,-8.777 5.797,-17.629 8.672,-26.484 9.379,-0.199 18.719,-0.11 28.059,-0.11 -7.446,-5.683 -15.184,-10.984 -22.618,-16.714 2.871,-8.915 5.75,-17.809 8.563,-26.708 -7.606,5.438 -15.082,11.079 -22.766,16.446 -7.551,-5.41 -14.976,-10.965 -22.574,-16.266 2.637,8.965 5.836,17.703 8.43,26.707 -7.489,5.504 -15.078,10.895 -22.489,16.535 9.25,0 18.555,0.043 27.829,0.043"
         style="fill:#f7cf0d;fill-opacity:1;fill-rule:nonzero;stroke:none"
         id="path20" /></g></g></svg>
