<?xml version="1.0" encoding="UTF-8" standalone="no"?>
<svg
   xmlns:dc="http://purl.org/dc/elements/1.1/"
   xmlns:cc="http://creativecommons.org/ns#"
   xmlns:rdf="http://www.w3.org/1999/02/22-rdf-syntax-ns#"
   xmlns:svg="http://www.w3.org/2000/svg"
   xmlns="http://www.w3.org/2000/svg"
   version="1.1"
   id="svg2"
   xml:space="preserve"
   width="42.666668"
   height="42.666668"
   viewBox="0 0 42.666668 42.666668"><metadata
     id="metadata8"><rdf:RDF><cc:Work
         rdf:about=""><dc:format>image/svg+xml</dc:format><dc:type
           rdf:resource="http://purl.org/dc/dcmitype/StillImage" /></cc:Work></rdf:RDF></metadata><defs
     id="defs6" /><g
     id="g10"
     transform="matrix(1.3333333,0,0,-1.3333333,0,42.666667)"><g
       id="g12"
       transform="scale(0.1)"><path
         d="M 159.988,0.0078125 C 248.129,0.0078125 320,71.8789 320,159.992 320,248.133 248.129,320.008 159.988,320.008 71.8516,320.008 0,248.133 0,159.992 0,71.8789 71.8516,0.0078125 159.988,0.0078125"
         style="fill:#df2524;fill-opacity:1;fill-rule:evenodd;stroke:none"
         id="path14" /><path
         d="m 136.602,265.117 c 2.336,2.246 4.175,4.832 6.378,7.121 -0.156,-3.121 -0.605,-6.312 -0.718,-9.457 2.832,-1.324 5.777,-2.34 8.558,-3.777 -3.031,-0.828 -6.175,-1.344 -9.14,-2.289 -0.317,-3.121 -0.543,-6.246 -0.86,-9.391 -1.679,2.629 -3.23,5.371 -4.871,7.996 -3.121,-0.336 -6.156,-1.433 -9.234,-1.929 1.887,2.496 4.18,4.718 6.07,7.257 -1.555,2.692 -3.281,5.278 -4.676,8.02 2.875,-1.055 5.664,-2.406 8.493,-3.551"
         style="fill:#f9de05;fill-opacity:1;fill-rule:nonzero;stroke:none"
         id="path16" /><path
         d="m 62.5469,232.766 c 3.2851,8.941 5.8672,18.195 9.1015,27.136 3.0352,-9.007 5.9102,-18.039 8.8477,-27.089 9.5977,-0.204 19.1484,-0.114 28.6949,-0.114 -7.593,-5.824 -15.4996,-11.238 -23.1168,-17.097 2.9414,-9.098 5.8633,-18.204 8.7383,-27.301 -7.7539,5.578 -15.4141,11.324 -23.2773,16.808 -7.7071,-5.531 -15.3243,-11.187 -23.0743,-16.605 2.6954,9.144 5.9766,18.09 8.6094,27.301 -7.6445,5.613 -15.414,11.14 -22.9648,16.894 9.4375,0 18.9414,0.067 28.4414,0.067"
         style="fill:#f9de05;fill-opacity:1;fill-rule:nonzero;stroke:none"
         id="path18" /><path
         d="m 158.527,245.391 c 2.336,-2.133 4.379,-4.629 6.832,-6.715 2.786,1.344 5.461,2.785 8.246,4.023 -1.191,-2.879 -2.832,-5.508 -4.183,-8.363 2.094,-2.332 4.433,-4.422 6.473,-6.805 -3.122,0.403 -6.176,1.145 -9.301,1.438 -1.481,-2.719 -2.785,-5.574 -4.422,-8.203 -0.543,3.082 -0.856,6.226 -1.442,9.3 -3.097,0.61 -6.222,1.106 -9.3,1.645 2.742,1.547 5.617,2.781 8.406,4.223 -0.25,3.191 -0.902,6.265 -1.309,9.457"
         style="fill:#f9de05;fill-opacity:1;fill-rule:nonzero;stroke:none"
         id="path20" /><path
         d="m 161.316,197.852 c 1.059,3.031 1.707,6.109 2.696,9.144 1.191,-2.941 2.133,-5.976 3.371,-8.898 3.14,0.047 6.336,0.246 9.5,0.293 -2.473,-1.977 -5.008,-3.883 -7.461,-5.907 0.902,-2.992 2.203,-5.89 3.082,-8.855 -2.672,1.574 -5.121,3.57 -7.91,5.055 -2.465,-1.821 -4.758,-3.864 -7.301,-5.664 0.652,3.078 1.687,6.027 2.383,9.058 -2.539,1.887 -5.281,3.481 -7.75,5.367 3.14,0.203 6.265,0.246 9.39,0.407"
         style="fill:#f9de05;fill-opacity:1;fill-rule:nonzero;stroke:none"
         id="path22" /><path
         d="m 136.602,172.234 c 2.086,2.387 3.863,5.016 5.976,7.352 0,-3.168 -0.406,-6.316 -0.269,-9.484 2.851,-1.098 5.796,-1.997 8.582,-3.278 -2.899,-1.054 -5.93,-1.707 -8.856,-2.652 -0.269,-3.121 -0.269,-6.313 -0.515,-9.434 -1.821,2.535 -3.434,5.254 -5.325,7.797 -3.011,-0.742 -5.906,-1.73 -8.937,-2.43 1.57,2.676 4.222,4.809 5.48,7.594 -1.578,2.696 -3.461,5.188 -5.082,7.774 2.969,-1.055 5.957,-2.203 8.946,-3.239"
         style="fill:#f9de05;fill-opacity:1;fill-rule:nonzero;stroke:none"
         id="path24" /></g></g></svg>
