<?xml version="1.0" encoding="UTF-8" standalone="no"?>
<svg
   xmlns:dc="http://purl.org/dc/elements/1.1/"
   xmlns:cc="http://creativecommons.org/ns#"
   xmlns:rdf="http://www.w3.org/1999/02/22-rdf-syntax-ns#"
   xmlns:svg="http://www.w3.org/2000/svg"
   xmlns="http://www.w3.org/2000/svg"
   version="1.1"
   id="svg2"
   xml:space="preserve"
   width="42.666668"
   height="42.666668"
   viewBox="0 0 42.666668 42.666668"><metadata
     id="metadata8"><rdf:RDF><cc:Work
         rdf:about=""><dc:format>image/svg+xml</dc:format><dc:type
           rdf:resource="http://purl.org/dc/dcmitype/StillImage" /></cc:Work></rdf:RDF></metadata><defs
     id="defs6" /><g
     id="g10"
     transform="matrix(1.3333333,0,0,-1.3333333,0,42.666667)"><g
       id="g12"
       transform="scale(0.1)"><path
         d="M 0,160.012 C 0,127.301 9.91406,96.8398 26.8672,71.4492 71.2461,101.023 115.621,130.598 160.07,160.137 115.691,189.676 71.3516,219.219 27.0039,248.773 9.96484,223.344 0,192.805 0,160.012"
         style="fill:#d11d2c;fill-opacity:1;fill-rule:nonzero;stroke:none"
         id="path14" /><path
         d="M 111.805,128 C 83.4961,109.156 55.1797,90.3164 26.8867,71.4648 c 1.6836,-2.539 3.4219,-5.0429 5.2539,-7.4726 H 287.844 C 301.871,82.6133 311.945,104.371 316.77,128 H 111.805"
         style="fill:#ffffff;fill-opacity:1;fill-rule:nonzero;stroke:none"
         id="path16" /><path
         d="M 287.848,256.016 H 32.1445 c -1.7812,-2.364 -3.4687,-4.793 -5.1132,-7.262 l 0.1601,-0.106 c 28.3399,-18.886 56.6875,-37.765 85.0356,-56.644 h 204.546 c -4.824,23.637 -14.894,45.398 -28.925,64.012"
         style="fill:#ffffff;fill-opacity:1;fill-rule:nonzero;stroke:none"
         id="path18" /><path
         d="M 316.773,192.004 H 112.227 C 128.176,181.383 144.113,170.758 160.07,160.137 143.965,149.434 127.895,138.711 111.805,128 H 316.77 c 2.117,10.348 3.23,21.055 3.23,32.012 0,10.949 -1.113,21.648 -3.227,31.992"
         style="fill:#2a3888;fill-opacity:1;fill-rule:evenodd;stroke:none"
         id="path20" /><path
         d="m 47.7188,165.797 c 2.1484,5.859 3.8398,11.937 5.9687,17.808 1.9922,-5.902 3.8711,-11.843 5.8125,-17.785 6.3008,-0.125 12.5586,-0.062 18.8281,-0.062 -4.9961,-3.824 -10.1797,-7.371 -15.164,-11.227 1.9101,-5.965 3.8281,-11.941 5.7304,-17.914 -5.0937,3.653 -10.1211,7.446 -15.2656,11.039 -5.0664,-3.633 -10.0508,-7.351 -15.1562,-10.91 1.7695,6.008 3.9218,11.883 5.664,17.914 -5.039,3.688 -10.1133,7.317 -15.0898,11.098 6.2109,0 12.4297,0.039 18.6719,0.039"
         style="fill:#ffffff;fill-opacity:1;fill-rule:nonzero;stroke:none"
         id="path22" /><path
         d="M 287.852,256.016 C 258.613,294.84 212.16,320.023 160,320.023 107.848,320.023 61.3906,294.84 32.1484,256.016 H 287.852"
         style="fill:#2a3888;fill-opacity:1;fill-rule:evenodd;stroke:none"
         id="path24" /><path
         d="M 32.1484,63.9922 C 61.3906,25.1641 107.848,-0.0234375 160,-0.0234375 c 52.16,0 98.613,25.1875375 127.855,64.0156375 H 32.1484"
         style="fill:#2a3888;fill-opacity:1;fill-rule:evenodd;stroke:none"
         id="path26" /></g></g></svg>
