<?xml version="1.0" encoding="UTF-8" standalone="no"?>
<svg
   xmlns:dc="http://purl.org/dc/elements/1.1/"
   xmlns:cc="http://creativecommons.org/ns#"
   xmlns:rdf="http://www.w3.org/1999/02/22-rdf-syntax-ns#"
   xmlns:svg="http://www.w3.org/2000/svg"
   xmlns="http://www.w3.org/2000/svg"
   version="1.1"
   id="svg2"
   xml:space="preserve"
   width="42.666668"
   height="42.666668"
   viewBox="0 0 42.666668 42.666668"><metadata
     id="metadata8"><rdf:RDF><cc:Work
         rdf:about=""><dc:format>image/svg+xml</dc:format><dc:type
           rdf:resource="http://purl.org/dc/dcmitype/StillImage" /></cc:Work></rdf:RDF></metadata><defs
     id="defs6" /><g
     id="g10"
     transform="matrix(1.3333333,0,0,-1.3333333,0,42.666667)"><g
       id="g12"
       transform="scale(0.1)"><path
         d="M 15.4141,91.5938 H 304.586 c 3.391,7.1445 6.266,14.5782 8.594,22.2422 H 6.80469 C 9.11328,106.172 11.9922,98.7383 15.4141,91.5938"
         style="fill:#ffffff;fill-opacity:1;fill-rule:evenodd;stroke:none"
         id="path14" /><path
         d="M 28.3008,69.2891 H 291.664 c 4.883,7.0507 9.207,14.5078 12.922,22.3242 H 15.3945 c 3.7032,-7.8164 8.0352,-15.2735 12.9063,-22.3242"
         style="fill:#d11e27;fill-opacity:1;fill-rule:evenodd;stroke:none"
         id="path16" /><path
         d="M 46.7383,47.1289 H 273.242 c 6.805,6.8555 13.004,14.2969 18.5,22.2695 H 28.2422 c 5.4961,-7.9726 11.6953,-15.414 18.4961,-22.2695"
         style="fill:#ffffff;fill-opacity:1;fill-rule:evenodd;stroke:none"
         id="path18" /><path
         d="m 313.164,113.836 c 4.43,14.629 6.836,30.121 6.836,46.168 0,88.113 -71.887,160.012 -160.02,160.012 C 71.8398,320.016 0,248.117 0,160.004 0,143.957 2.40625,128.465 6.83203,113.836 H 313.164"
         style="fill:#293e90;fill-opacity:1;fill-rule:evenodd;stroke:none"
         id="path20" /><path
         d="M 46.7656,47.1289 C 75.7578,18.043 115.82,-0.00390625 159.98,-0.00390625 c 44.157,0 84.231,18.04690625 113.235,47.13280625 H 46.7656"
         style="fill:#293e90;fill-opacity:1;fill-rule:evenodd;stroke:none"
         id="path22" /><path
         d="m 113.703,128.047 c 0.66,2.074 1.285,4.152 2.129,6.176 0.66,-2.024 1.281,-4.028 1.875,-6.039 2.195,-0.137 4.352,-0.137 6.531,-0.18 -1.722,-1.289 -3.418,-2.563 -5.093,-3.793 0.527,-2.055 1.273,-4.066 1.851,-6.148 -1.808,1.152 -3.527,2.437 -5.297,3.714 -1.695,-1.277 -3.394,-2.562 -5.164,-3.714 0.567,2.082 1.227,4.093 1.895,6.093 -1.707,1.285 -3.489,2.516 -5.075,3.848 2.141,0.125 4.211,0.125 6.348,0.043"
         style="fill:#f3d00d;fill-opacity:1;fill-rule:nonzero;stroke:none"
         id="path24" /><path
         d="m 86.8828,119.395 c 0.5547,1.968 1.168,3.968 2.086,5.812 0.7265,-1.844 1.1289,-3.738 1.9453,-5.551 2.0039,-0.668 4.3828,-0.129 6.5117,-0.312 -1.6953,-1.332 -3.5352,-2.61 -5.2227,-4.02 0.668,-1.941 1.3282,-3.886 1.8985,-5.84 -1.8438,1.032 -3.543,2.305 -5.211,3.532 -1.7578,-1.227 -3.4023,-2.5 -5.25,-3.606 0.5586,2.028 1.2422,4.02 1.8985,5.992 -1.6953,1.254 -3.4024,2.536 -5.0508,3.891 2.1367,0.051 4.2578,0.051 6.3945,0.102"
         style="fill:#f3d00d;fill-opacity:1;fill-rule:nonzero;stroke:none"
         id="path26" /><path
         d="m 140.57,119.395 c 0.621,1.968 1.153,3.968 2.129,5.863 0.656,-2.02 1.27,-3.969 2.012,-5.914 2.125,0 4.281,0 6.387,0 -1.645,-1.332 -3.336,-2.61 -5.11,-3.766 0.543,-2.062 1.219,-4.14 1.832,-6.219 -1.777,1.157 -3.539,2.43 -5.304,3.657 -1.633,-1.227 -3.364,-2.5 -5.125,-3.606 0.543,2.074 1.304,4.106 1.82,6.09 -1.742,1.234 -3.449,2.438 -5.039,3.844 2.125,0 4.273,0 6.398,0.051"
         style="fill:#f3d00d;fill-opacity:1;fill-rule:nonzero;stroke:none"
         id="path28" /><path
         d="m 159.027,102.418 h 0.309 c 0.664,-1.945 1.281,-3.9571 1.996,-5.9102 2.074,0 4.152,0 6.227,-0.0508 -1.633,-1.3593 -3.36,-2.6406 -4.993,-3.8398 0.563,-1.8477 1.141,-3.6719 1.758,-5.4805 -0.359,0 -0.719,0 -1.097,0 -1.231,1.0196 -2.5,2.125 -3.891,2.8399 -1.645,-0.5899 -2.91,-1.8203 -4.246,-2.8399 -0.379,0 -0.699,0 -1.051,0 0.672,1.8086 1.277,3.6328 1.82,5.4805 -1.683,1.1992 -3.414,2.4805 -5.05,3.7617 2.125,0.1289 4.281,0.1797 6.379,0.2539 0.605,1.8711 1.222,3.8402 1.839,5.7852"
         style="fill:#f3d00d;fill-opacity:1;fill-rule:nonzero;stroke:none"
         id="path30" /><path
         d="m 70.1719,96.5586 c 0.6679,1.9453 1.3594,3.9144 2.0976,5.8594 0.7774,-1.945 1.4532,-3.9141 2.0586,-5.8594 2.0782,0 4.1407,-0.0508 6.3047,-0.1016 -1.6719,-1.3593 -3.3164,-2.6406 -4.9726,-3.8398 0.5156,-1.8477 1.1171,-3.6719 1.7187,-5.4805 -0.4414,0 -0.793,0 -1.1562,0.0508 -1.2813,1.0273 -2.5586,2.0742 -3.9024,3.043 -1.3984,-0.9688 -2.6797,-2.0157 -4.043,-3.043 -0.2695,0 -0.7578,0 -1.0664,0 0.625,1.7578 1.1485,3.582 1.6875,5.4297 -1.6875,1.1992 -3.3242,2.4805 -4.914,3.8398 2.0469,0.0508 4.1445,0.1016 6.1875,0.1016"
         style="fill:#f3d00d;fill-opacity:1;fill-rule:nonzero;stroke:none"
         id="path32" /><path
         d="m 159.152,74.4609 c 0.286,-0.8711 0.59,-1.6679 0.903,-2.5117 0.379,-1.2304 0.816,-2.4336 1.218,-3.664 2.133,0 4.211,-0.043 6.364,-0.043 -1.66,-1.3399 -3.364,-2.6133 -5.071,-3.8477 0.61,-2.0234 1.282,-4.0195 1.817,-6.0937 -1.77,1.1562 -3.41,2.3828 -5.106,3.5898 -1.789,-1.1562 -3.472,-2.3593 -5.312,-3.539 0.605,2.0234 1.219,4.0195 1.84,6.0429 -1.688,1.2852 -3.438,2.5078 -5.067,3.8477 2.094,0.043 4.192,0.043 6.348,0.043 0.402,1.2304 0.832,2.4336 1.273,3.664 0.258,0.793 0.563,1.6406 0.793,2.5117"
         style="fill:#f3d00d;fill-opacity:1;fill-rule:nonzero;stroke:none"
         id="path34" /><path
         d="m 72.1211,73.9727 c 0.3828,-0.6914 0.7461,-1.3594 1.0508,-2.0235 0.4375,-1.2304 0.7539,-2.4336 1.0547,-3.582 2.1797,-0.082 4.2968,-0.125 6.4531,-0.1758 -1.7188,-1.2891 -3.4414,-2.6445 -5.0625,-3.9726 0.6562,-1.9493 1.2695,-3.8946 1.8359,-5.8672 -1.7929,1.1054 -3.4804,2.332 -5.1836,3.539 -1.7422,-1.207 -3.4179,-2.3593 -5.1875,-3.539 0.5391,2.0234 1.4571,3.9687 1.5938,6.0937 -1.5156,1.4141 -3.3164,2.5078 -4.9453,3.7461 2.1992,0.0508 4.3984,0.0938 6.5703,0.1758 0.3086,1.1992 0.6953,2.3516 1.1015,3.5312 0.2618,0.7149 0.4805,1.3829 0.7188,2.0743"
         style="fill:#f3d00d;fill-opacity:1;fill-rule:nonzero;stroke:none"
         id="path36" /><path
         d="m 86.8828,45.4961 c 0.5547,2.0234 1.2149,3.9687 2.086,5.9141 0.664,-1.9883 1.332,-4.0196 1.9453,-5.9649 2.1367,0 4.207,0 6.25,-0.1289 -1.5586,-1.3281 -3.2735,-2.5586 -4.961,-3.8359 0.668,-2 1.3282,-4.0196 1.8985,-6.0157 -1.793,1.1524 -3.4922,2.4336 -5.2852,3.6524 -1.6328,-1.2695 -3.3281,-2.5508 -5.0976,-3.6524 0.4804,2.0782 1.164,4.0157 1.8203,6.0157 -1.7735,1.3515 -3.5313,2.6328 -5.2891,3.9648 2.25,-0.0508 4.4453,-0.0508 6.6328,0.0508"
         style="fill:#f3d00d;fill-opacity:1;fill-rule:nonzero;stroke:none"
         id="path38" /><path
         d="m 140.57,45.4453 c 0.621,2.0235 1.282,4.0781 2.071,6.043 0.714,-2.0235 1.328,-4.0977 2.07,-6.0938 2.082,0.0508 4.207,0.0508 6.324,0 -1.629,-1.4062 -3.398,-2.6367 -5.121,-3.914 0.676,-2 1.371,-4.0703 1.949,-6.1446 -1.82,1.1485 -3.379,2.6875 -5.347,3.6563 -1.821,-1.0938 -3.407,-2.5078 -5.125,-3.6055 0.543,2.0742 1.152,4.0938 1.898,6.0938 -1.762,1.3515 -3.605,2.6328 -5.351,3.9648 2.207,0 4.457,-0.0508 6.632,0"
         style="fill:#f3d00d;fill-opacity:1;fill-rule:nonzero;stroke:none"
         id="path40" /><path
         d="m 113.703,36.668 c 0.66,2.0742 1.285,4.1445 2.129,6.164 0.66,-2.0195 1.281,-4.0156 1.875,-6.0898 2.195,-0.0742 4.352,-0.0742 6.531,-0.125 -1.722,-1.2813 -3.418,-2.5586 -5.093,-3.8008 0.527,-2.0391 1.273,-4.0664 1.851,-6.1406 -1.808,1.1523 -3.527,2.4336 -5.297,3.7148 -1.695,-1.2812 -3.394,-2.5625 -5.164,-3.7148 0.567,2.0742 1.227,4.1015 1.895,6.0976 -1.707,1.2852 -3.489,2.5118 -5.075,3.8438 2.141,0.125 4.211,0.125 6.348,0.0508"
         style="fill:#f3d00d;fill-opacity:1;fill-rule:nonzero;stroke:none"
         id="path42" /></g></g></svg>
