<?xml version="1.0" encoding="UTF-8" standalone="no"?>
<svg
   xmlns:dc="http://purl.org/dc/elements/1.1/"
   xmlns:cc="http://creativecommons.org/ns#"
   xmlns:rdf="http://www.w3.org/1999/02/22-rdf-syntax-ns#"
   xmlns:svg="http://www.w3.org/2000/svg"
   xmlns="http://www.w3.org/2000/svg"
   version="1.1"
   id="svg2"
   xml:space="preserve"
   width="42.666668"
   height="42.666668"
   viewBox="0 0 42.666668 42.666668"><metadata
     id="metadata8"><rdf:RDF><cc:Work
         rdf:about=""><dc:format>image/svg+xml</dc:format><dc:type
           rdf:resource="http://purl.org/dc/dcmitype/StillImage" /></cc:Work></rdf:RDF></metadata><defs
     id="defs6" /><g
     id="g10"
     transform="matrix(1.3333333,0,0,-1.3333333,0,42.666667)"><g
       id="g12"
       transform="scale(0.1)"><path
         d="m 32.3477,63.7148 c 85.1013,0 170.2033,0 255.3083,0 7.563,10.004 13.969,20.9102 19.059,32.5391 -97.817,0 -195.621,0 -293.4064,0 C 18.3711,84.625 24.7891,73.7188 32.3477,63.7148"
         style="fill:#f2ea0a;fill-opacity:1;fill-rule:nonzero;stroke:none"
         id="path14" /><path
         d="M 306.684,96.2539 C 315.227,115.809 320,137.363 320,160.008 320,248.145 248.125,320.027 160.008,320.027 71.875,320.027 0,248.145 0,160.008 0,137.363 4.77344,115.809 13.3164,96.2539 H 306.684"
         style="fill:#273679;fill-opacity:1;fill-rule:evenodd;stroke:none"
         id="path16" /><path
         d="M 32.3672,63.7148 C 61.6211,25.0469 107.973,-0.0273438 160.008,-0.0273438 c 52.023,0 98.375,25.0742438 127.629,63.7421438 H 32.3672"
         style="fill:#273679;fill-opacity:1;fill-rule:evenodd;stroke:none"
         id="path18" /><path
         d="m 62.3711,253.566 c 1.3984,4.032 2.4062,8.247 4.1211,12.118 1.332,-4.036 2.6719,-8.055 3.9414,-12.09 4.3437,-0.125 8.6992,0 13.0469,-0.059 -3.4727,-2.633 -7.0508,-5.094 -10.5235,-7.703 1.3282,-4.117 2.6914,-8.25 3.9961,-12.375 -3.5508,2.504 -7.0117,5.094 -10.5625,7.633 -3.5351,-2.539 -6.9843,-5.129 -10.5586,-7.633 1.2657,4.195 2.7305,8.277 3.9532,12.441 -3.4922,2.504 -7.0118,5.028 -10.4532,7.637 4.3321,0.059 8.6719,-0.043 13.0391,0.031"
         style="fill:#ffffff;fill-opacity:1;fill-rule:nonzero;stroke:none"
         id="path20" /><path
         d="m 97.1602,219.398 c 1.75,5.489 3.4418,11.012 5.3478,16.438 1.832,-5.504 3.582,-11.012 5.402,-16.516 5.824,0 11.594,0.039 17.406,0 -4.648,-3.468 -9.418,-6.808 -14.097,-10.289 1.82,-5.484 3.597,-11.008 5.359,-16.535 -4.73,3.356 -9.394,6.824 -14.09,10.203 -4.7224,-3.379 -9.3669,-6.828 -14.0622,-10.168 1.6758,5.516 3.5664,11.016 5.3281,16.524 -4.6758,3.457 -9.4375,6.828 -14.1367,10.265 5.8437,0.078 11.6953,-0.058 17.543,0.078"
         style="fill:#ffffff;fill-opacity:1;fill-rule:nonzero;stroke:none"
         id="path22" /></g></g></svg>
