<?xml version="1.0" encoding="UTF-8" standalone="no"?>
<svg
   xmlns:dc="http://purl.org/dc/elements/1.1/"
   xmlns:cc="http://creativecommons.org/ns#"
   xmlns:rdf="http://www.w3.org/1999/02/22-rdf-syntax-ns#"
   xmlns:svg="http://www.w3.org/2000/svg"
   xmlns="http://www.w3.org/2000/svg"
   version="1.1"
   id="svg2"
   xml:space="preserve"
   width="42.666668"
   height="42.666668"
   viewBox="0 0 42.666668 42.666668"><metadata
     id="metadata8"><rdf:RDF><cc:Work
         rdf:about=""><dc:format>image/svg+xml</dc:format><dc:type
           rdf:resource="http://purl.org/dc/dcmitype/StillImage" /></cc:Work></rdf:RDF></metadata><defs
     id="defs6" /><g
     id="g10"
     transform="matrix(1.3333333,0,0,-1.3333333,0,42.666667)"><g
       id="g12"
       transform="scale(0.1)"><path
         d="m 46.7539,46.793 c 62.3631,-62.3711 164.0941,-62.3477 226.4651,0 L 46.793,273.195 C -15.5898,210.844 -15.5898,109.133 46.7539,46.793"
         style="fill:#2b3b99;fill-opacity:1;fill-rule:evenodd;stroke:none"
         id="path14" /><path
         d="M 273.238,273.223 C 210.875,335.566 109.164,335.566 46.793,273.195 L 273.219,46.793 c 62.363,62.359 62.383,164.07 0.019,226.43"
         style="fill:#2c8c3c;fill-opacity:1;fill-rule:evenodd;stroke:none"
         id="path16" /><path
         d="m 260.156,229.191 c -0.273,1.942 2.067,2.102 3.211,1.051 5.754,-4.57 11.18,-9.597 16.188,-15.027 2.519,-2.906 5.484,-5.91 6.254,-9.883 1.48,-7.609 1.168,-15.621 3.707,-22.996 0.828,-3 4.629,-4.496 7.308,-3.117 3.934,1.777 8.434,-0.852 10.86,-3.965 -2.047,-1.012 -3.481,-2.844 -5.711,-3.453 -0.614,-1.977 -2.567,-2.914 -4.5,-3.071 -2.262,-0.039 -4.09,-1.425 -6.16,-2.148 -3.411,-1.223 -6.922,-2.234 -10.36,-3.359 -6.773,-2.352 -12.82,-6.278 -19.047,-9.766 -3.191,-1.418 -6.922,-1.371 -9.843,-3.519 -12.747,-6.364 -27.793,-6.926 -41.489,-3.645 -2.289,0.609 -4.719,1.012 -6.738,2.387 1.684,0.855 3.555,0.152 5.328,0.043 9.891,-1.102 20.008,-1.953 29.852,-0.043 10.121,1.91 19.05,7.496 27.457,13.164 0.984,0.679 1.64,1.691 2.07,2.797 1.348,3.519 3.777,6.8 3.441,10.691 -0.613,2.664 -3.355,3.969 -5.214,5.664 -2.473,2.227 -5.309,4.016 -8.235,5.555 -7.152,3.679 -13.515,8.82 -18.812,14.816 -0.789,1.383 1.324,1.867 2.332,1.664 9.957,-2.351 20.82,-3.968 28.687,-11.222 1.016,-1.379 3.957,-1.696 3.844,0.613 0,3.512 1.894,7.527 -0.203,10.734 -3.031,2.785 -5.66,6.114 -7.012,10.082 -0.601,2.145 -2.879,3.469 -2.922,5.785 -0.472,3.723 -3.078,6.723 -4.293,10.168"
         style="fill:#fbc224;fill-opacity:1;fill-rule:nonzero;stroke:none"
         id="path18" /><path
         d="m 137.086,170.023 c 4.812,10.04 15.672,16.758 26.797,16.438 11.312,-0.035 22.172,-7.363 26.461,-17.816 3.351,-7.856 3.039,-17.168 -0.895,-24.778 -3.984,-7.871 -11.672,-13.691 -20.332,-15.355 -8.156,-1.711 -16.922,0.359 -23.488,5.418 -10.926,8.07 -14.66,24.023 -8.543,36.093"
         style="fill:#fbc224;fill-opacity:1;fill-rule:nonzero;stroke:none"
         id="path20" /><path
         d="m 174.699,171.723 c 1.371,1.215 2.067,2.879 2.836,4.457 0.492,-0.571 0.934,-1.172 1.344,-1.75 1.258,0.05 2.43,0.453 3.555,1.027 -0.067,-3.449 1.546,-6.848 0.039,-10.207 0.855,-0.449 1.761,-0.859 2.586,-1.262 -0.758,-2.754 -3.797,-3.199 -5.618,-4.976 -1.863,-1.539 -2.132,-4.657 -4.906,-5.059 -0.601,-2.441 0.524,-4.941 -0.308,-7.387 -0.243,-2.136 -1.957,-3.847 -1.801,-6.074 -0.02,-1.371 0,-2.781 -0.02,-4.203 -2.457,0.047 -4.898,0.359 -7.308,0.922 0.765,3.734 1.101,7.578 0.695,11.359 -0.492,2.297 -3.191,2.582 -5.102,2.739 -1.976,-0.079 -3.48,2.113 -5.484,1.136 -1.687,-0.808 -2.973,0.731 -3.918,1.946 -2.516,0.078 -5.059,-0.082 -7.574,0.203 -1.016,-1.172 -2.578,-4.129 -4.086,-1.824 -0.563,2.148 2.312,3.039 3.75,4.089 0.137,1.946 0.406,4.457 2.883,4.625 0.543,1.739 0.289,3.594 -1.356,4.571 -1.75,1.011 -1.301,3.242 0,4.406 1.578,-1.77 2.789,-3.879 4.586,-5.414 1.797,-2.113 5.238,0.156 6.797,-2.426 5.973,-0.535 12.051,2.227 15.918,6.828 0.801,0.903 0.559,2.242 0.719,3.328 0.285,0.036 0.804,0.125 1.097,0.161 0.204,-0.407 0.422,-0.809 0.676,-1.215"
         style="fill:#2c8c3c;fill-opacity:1;fill-rule:nonzero;stroke:none"
         id="path22" /><path
         d="m 55.8789,189.215 c 0.7188,1.742 1.3945,3.484 2.1367,5.226 0.6914,-1.742 1.3282,-3.484 2.0196,-5.226 1.7734,0.531 3.6211,1.055 5.3984,1.582 -0.9258,-1.617 -1.8672,-3.231 -2.8125,-4.856 1.5469,-1.101 3.1055,-2.144 4.5859,-3.246 -1.8164,-0.285 -3.6836,-0.515 -5.5507,-0.812 0.1132,-1.895 0.25,-3.762 0.3789,-5.621 -1.3946,1.25 -2.7618,2.547 -4.1329,3.843 -1.3906,-1.296 -2.7929,-2.546 -4.1835,-3.808 0.1835,1.867 0.3203,3.766 0.4023,5.633 -1.8164,0.285 -3.6328,0.613 -5.5,0.89 1.5469,1.09 3.0742,2.11 4.6055,3.157 -0.8594,1.617 -1.8047,3.238 -2.6993,4.898 1.7774,-0.527 3.5547,-1.09 5.3516,-1.66"
         style="fill:#ffffff;fill-opacity:1;fill-rule:nonzero;stroke:none"
         id="path24" /><path
         d="m 91.0156,161.684 c 0.7032,1.742 1.3711,3.484 2.1602,5.183 0.6562,-1.742 1.2812,-3.484 2.0234,-5.226 1.7813,0.57 3.5821,1.089 5.3788,1.617 -0.9257,-1.653 -1.8944,-3.238 -2.8397,-4.899 1.5547,-1.046 3.0817,-2.101 4.6367,-3.195 -1.848,-0.293 -3.6914,-0.57 -5.5586,-0.809 0.0664,-1.867 0.25,-3.73 0.3399,-5.632 -1.3946,1.261 -2.7696,2.554 -4.0938,3.843 -1.3945,-1.257 -2.7617,-2.554 -4.1875,-3.753 0.1211,1.851 0.2734,3.71 0.4102,5.578 -1.8672,0.277 -3.7344,0.605 -5.5508,0.886 1.5469,1.055 3.082,2.114 4.6601,3.125 -0.9062,1.664 -1.8281,3.282 -2.707,4.934 1.7773,-0.512 3.5586,-1.09 5.3281,-1.652"
         style="fill:#ffffff;fill-opacity:1;fill-rule:nonzero;stroke:none"
         id="path26" /><path
         d="m 21.6797,154.559 c 0.707,-1.743 1.3711,-3.532 2.0703,-5.274 1.7773,0.528 3.5742,1.055 5.375,1.582 -0.9258,-1.625 -1.8867,-3.246 -2.832,-4.816 1.5547,-1.125 3.1015,-2.184 4.6758,-3.281 -1.8907,-0.25 -3.7305,-0.52 -5.5977,-0.813 0.0703,-1.867 0.2461,-3.73 0.3398,-5.578 -1.3984,1.234 -2.75,2.496 -4.0976,3.801 -1.4336,-1.215 -2.7578,-2.52 -4.1758,-3.774 0.1328,1.86 0.2656,3.727 0.4023,5.641 -1.8281,0.25 -3.6914,0.516 -5.5117,0.875 1.5078,1.055 3.0352,2.066 4.5664,3.078 -0.8125,1.711 -1.7734,3.332 -2.6992,4.949 1.8164,-0.527 3.5977,-1.09 5.3945,-1.617 0.6797,1.742 1.3907,3.484 2.0899,5.227"
         style="fill:#ffffff;fill-opacity:1;fill-rule:nonzero;stroke:none"
         id="path28" /><path
         d="m 70.4453,137.504 c 0.5391,1.664 1.0547,3.328 1.5781,4.973 0.625,-1.645 1.2071,-3.309 1.8438,-4.926 1.8008,0 3.5976,0.043 5.3711,0.043 -1.418,-1.055 -2.836,-2.16 -4.25,-3.211 0.5625,-1.668 1.125,-3.305 1.664,-4.973 -1.457,1.012 -2.9687,2.028 -4.4453,2.945 -1.4453,-1.058 -2.8437,-2.089 -4.3242,-3.101 0.5391,1.684 1.0352,3.348 1.5508,5.016 -1.4609,1.007 -2.8945,1.976 -4.3398,3.031 1.8046,0.09 3.582,0.113 5.3515,0.203"
         style="fill:#ffffff;fill-opacity:1;fill-rule:nonzero;stroke:none"
         id="path30" /><path
         d="m 56.7305,102.074 c 0.6758,1.735 1.3554,3.481 2.0937,5.192 0.6953,-1.754 1.3203,-3.485 2.0196,-5.243 1.7773,0.543 3.625,1.106 5.3984,1.625 -0.9219,-1.664 -1.8672,-3.289 -2.8086,-4.9058 1.5469,-1.0547 3.1055,-2.0899 4.5859,-3.1914 -1.8203,-0.2891 -3.6875,-0.5625 -5.5547,-0.8555 0.1133,-1.8672 0.2461,-3.7305 0.379,-5.5937 -1.3946,1.2578 -2.7618,2.5625 -4.1368,3.8203 -1.3945,-1.2578 -2.7578,-2.5196 -4.1757,-3.8203 0.1796,1.9101 0.3085,3.7773 0.4414,5.6406 -1.8672,0.3164 -3.6836,0.6055 -5.5508,0.9258 1.5586,1.0547 3.1328,2.1133 4.6601,3.164 -0.9257,1.625 -1.8476,3.242 -2.7422,4.906 1.7657,-0.543 3.5508,-1.152 5.3907,-1.664"
         style="fill:#ffffff;fill-opacity:1;fill-rule:nonzero;stroke:none"
         id="path32" /></g></g></svg>
