<?xml version="1.0" encoding="UTF-8" standalone="no"?>
<svg
   xmlns:dc="http://purl.org/dc/elements/1.1/"
   xmlns:cc="http://creativecommons.org/ns#"
   xmlns:rdf="http://www.w3.org/1999/02/22-rdf-syntax-ns#"
   xmlns:svg="http://www.w3.org/2000/svg"
   xmlns="http://www.w3.org/2000/svg"
   version="1.1"
   id="svg2"
   xml:space="preserve"
   width="42.666668"
   height="42.666668"
   viewBox="0 0 42.666668 42.666668"><metadata
     id="metadata8"><rdf:RDF><cc:Work
         rdf:about=""><dc:format>image/svg+xml</dc:format><dc:type
           rdf:resource="http://purl.org/dc/dcmitype/StillImage" /></cc:Work></rdf:RDF></metadata><defs
     id="defs6" /><g
     id="g10"
     transform="matrix(1.3333333,0,0,-1.3333333,0,42.666667)"><g
       id="g12"
       transform="scale(0.1)"><path
         d="m 160,-0.0117188 c 88.109,0 160,71.8906188 160,160.0277188 0,88.109 -71.891,159.996 -160,159.996 C 71.8945,320.012 0,248.125 0,160.016 0,71.8789 71.8945,-0.0117188 160,-0.0117188"
         style="fill:#ffffff;fill-opacity:1;fill-rule:evenodd;stroke:none"
         id="path14" /><path
         d="m 261.254,230.41 c 5.121,0.039 9.48,2.828 13.93,5.051 -0.489,-1.731 -0.723,-3.574 -1.664,-5.129 -5.977,-1.297 -12.399,-4.555 -14.875,-10.551 -2.157,-1.484 -5.075,-2.047 -6.735,-4.332 -3.285,-5.133 -10.117,-5.133 -14.515,-8.945 -3.184,-2.969 -7.235,-5.621 -8.266,-10.203 -1.793,-4.813 -8.043,-0.422 -11.106,-3.77 -2.644,-3.687 -5.519,-7.886 -4.707,-12.754 0.176,-5.894 6.465,-8.476 8.176,-13.711 3.637,-3.464 8.578,-7.238 8.438,-12.808 -4.801,3.101 -10.414,3.101 -15.758,1.664 l -0.102,-2.383 c -3.769,-3.055 -6.379,2.27 -9.972,2.766 -4.317,0.422 -9.614,0.922 -12.707,-2.852 -2.071,-3.144 -1.219,-7.148 -1.536,-10.742 -1.48,-1.168 -2.519,-2.785 -3.144,-4.563 -3.816,1.372 -6.914,-0.867 -9.203,-3.64 -7.063,-0.985 -12.102,-8.219 -19.598,-7.102 -4.172,-4.328 -9.793,0.117 -14.683,-1.785 -4.325,-1.672 -9.082,-3.601 -11.106,-8.047 -1.441,-2.832 0.676,-5.617 2.289,-7.844 -2.824,0.25 -5.613,0.454 -8.398,0.743 0.808,4.023 -2.117,7.48 -4.985,9.82 -2.699,1.859 -5.933,-0.188 -8.894,0.699 -6.121,-4.523 -14.5197,-1.933 -19.59,3.004 -2.8399,0.949 -6.1094,0.949 -8.7657,2.426 -1.6601,2.16 -3.9101,3.641 -6.289,4.676 -1.8906,3.843 -0.7227,9.707 -5.2656,11.504 -1.8829,0.988 -2.1094,3.32 -3.1446,4.914 l 0.586,1.757 c -2.3828,3.391 0.4961,8.016 -2.5586,11.094 -2.1524,2.43 -2.293,5.828 -0.6719,8.582 1.6602,-2.578 4.1367,-4.629 6.6016,-6.472 4.0429,-1.614 7.6836,1.238 10.7812,3.464 4,2.161 2.9688,8.02 7.0586,10.196 3.6406,1.285 7.418,3.574 11.457,2.59 4.902,-0.879 9.031,-3.887 13.66,-5.372 3.817,0.497 7.281,3.68 8.535,7.344 1.536,6.856 1.164,13.953 0.047,20.805 4.758,-1.91 9.66,-4.063 14.828,-4.516 3.5,1.192 7.055,-0.855 10.555,0.586 2.609,-1.691 5.484,-2.066 8.574,-1.617 9.219,-1.629 18.977,-1.934 27.871,1.484 1.793,0.313 3.59,0.043 5.344,0.313 3.774,0.785 5.84,4.742 9.481,5.726 10.867,-1.414 20.171,5.442 29.429,10 3.907,0.758 5.934,4.336 8.317,7.098 6.015,0 12.261,2.848 15.992,7.688 1.84,1.593 5.121,0.531 6.289,3.144"
         style="fill:#eb7018;fill-opacity:1;fill-rule:nonzero;stroke:none"
         id="path16" /><path
         d="m 110.031,85.0508 c 2.121,6.3515 -0.269,14.082 -5.386,18.3512 -1.528,-6.3122 -0.356,-14.4645 5.386,-18.3512"
         style="fill:#20624e;fill-opacity:1;fill-rule:nonzero;stroke:none"
         id="path18" /><path
         d="m 215.125,103.445 c -4.758,-4.5583 -7.32,-11.9684 -5.16,-18.3942 5.656,3.8867 7.14,12.1719 5.16,18.3942"
         style="fill:#20624e;fill-opacity:1;fill-rule:nonzero;stroke:none"
         id="path20" /><path
         d="m 103.617,86.8359 c -0.73,7.4883 -8.4529,12.1563 -15.1912,13.5311 0.9922,-7.5936 8.3164,-12.0389 15.1912,-13.5311"
         style="fill:#20624e;fill-opacity:1;fill-rule:nonzero;stroke:none"
         id="path22" /><path
         d="m 231.574,100.367 c -6.738,-1.3748 -14.469,-6.0428 -15.183,-13.5311 6.828,1.4922 14.199,5.9375 15.183,13.5311"
         style="fill:#20624e;fill-opacity:1;fill-rule:nonzero;stroke:none"
         id="path24" /><path
         d="m 114.133,95.918 c -3.375,-5.7461 -0.102,-12.7149 3.851,-17.2266 3.418,5.7969 0.411,12.8516 -3.851,17.2266"
         style="fill:#20624e;fill-opacity:1;fill-rule:nonzero;stroke:none"
         id="path26" /><path
         d="m 205.922,95.8516 c -4.309,-4.3086 -7.281,-11.3633 -3.957,-17.1602 3.957,4.5117 7.324,11.4805 3.957,17.1602"
         style="fill:#20624e;fill-opacity:1;fill-rule:nonzero;stroke:none"
         id="path28" /><path
         d="m 128.059,72.3945 c 3.41,6.1133 -0.586,13.3243 -5.313,17.5274 -1.699,-6.1836 0.141,-13.5235 5.313,-17.5274"
         style="fill:#20624e;fill-opacity:1;fill-rule:nonzero;stroke:none"
         id="path30" /><path
         d="m 197.289,89.9219 c -4.758,-4.1328 -8.758,-11.4141 -5.301,-17.5274 5.117,4.0039 6.965,11.3438 5.301,17.5274"
         style="fill:#20624e;fill-opacity:1;fill-rule:nonzero;stroke:none"
         id="path32" /><path
         d="m 109.852,79.6094 c -5.118,4.6992 -12.8051,5.6836 -19.3989,4.2695 4.3047,-5.4375 13.3439,-8.8984 19.3989,-4.2695"
         style="fill:#20624e;fill-opacity:1;fill-rule:nonzero;stroke:none"
         id="path34" /><path
         d="m 138.254,67.8828 c 2.789,6.668 -2.203,13.1445 -6.969,17.3438 -1.164,-6.3594 1.672,-13.5664 6.969,-17.3438"
         style="fill:#20624e;fill-opacity:1;fill-rule:nonzero;stroke:none"
         id="path36" /><path
         d="m 188.715,85.2266 c -4.719,-4.1993 -10.02,-10.8516 -6.746,-17.4102 4.941,4.1367 7.957,11.0117 6.746,17.4102"
         style="fill:#20624e;fill-opacity:1;fill-rule:nonzero;stroke:none"
         id="path38" /><path
         d="m 210.145,79.5039 c 6.156,-4.4531 15.054,-1.1289 19.363,4.375 -6.606,1.4141 -14.281,0.4961 -19.363,-4.375"
         style="fill:#20624e;fill-opacity:1;fill-rule:nonzero;stroke:none"
         id="path40" /><path
         d="m 148.949,64.2461 c 1.172,6.7812 -1.668,14.6211 -8.222,17.6484 -0.805,-6.8437 3.144,-13.3789 8.222,-17.6484"
         style="fill:#20624e;fill-opacity:1;fill-rule:nonzero;stroke:none"
         id="path42" /><path
         d="m 179.273,81.8945 c -6.554,-3.0664 -9.386,-10.8672 -8.222,-17.6484 4.992,4.3086 9.074,10.8047 8.222,17.6484"
         style="fill:#20624e;fill-opacity:1;fill-rule:nonzero;stroke:none"
         id="path44" /><path
         d="m 100.203,73.2539 c 4.668,-3.7812 12.664,-3.457 16.934,0.8086 -5.442,1.6602 -12.36,3.8828 -16.934,-0.8086"
         style="fill:#20624e;fill-opacity:1;fill-rule:nonzero;stroke:none"
         id="path46" /><path
         d="m 202.863,74.0625 c 4.227,-4.2656 12.262,-4.6289 16.977,-0.8086 -4.613,4.6914 -11.488,2.4688 -16.977,0.8086"
         style="fill:#20624e;fill-opacity:1;fill-rule:nonzero;stroke:none"
         id="path48" /><path
         d="m 127.242,69.6133 c -5.883,2.6484 -13.254,-0.1406 -16.894,-5.3047 5.84,-1.9805 13.523,0.2539 16.894,5.3047"
         style="fill:#20624e;fill-opacity:1;fill-rule:nonzero;stroke:none"
         id="path50" /><path
         d="m 192.301,69.3633 c 4.449,-4.4453 11.148,-7.2852 17.351,-5.0547 -3.73,5.3711 -11.375,8.1328 -17.351,5.0547"
         style="fill:#20624e;fill-opacity:1;fill-rule:nonzero;stroke:none"
         id="path52" /><path
         d="m 137.313,64.0625 c -5.977,1.9141 -12.766,0 -16.946,-4.5781 5.805,-2.586 13.895,-1.668 16.946,4.5781"
         style="fill:#20624e;fill-opacity:1;fill-rule:nonzero;stroke:none"
         id="path54" /><path
         d="m 182.738,64.0625 c 3.008,-6.2461 11.098,-7.2383 16.895,-4.5781 -4.18,4.5781 -10.969,6.5508 -16.895,4.5781"
         style="fill:#20624e;fill-opacity:1;fill-rule:nonzero;stroke:none"
         id="path56" /><path
         d="m 176.711,63.9922 c -5.523,-1.3008 -11.051,-3.0938 -16.715,-3.6992 -5.699,0.6054 -11.172,2.3984 -16.75,3.6992 4.266,-1.7266 8.715,-3.1406 13.109,-4.6289 -2.734,-0.8672 -5.292,-2.0391 -7.679,-3.6406 3.859,0.5468 7.504,1.9648 11.32,2.4531 3.82,-0.4883 7.465,-1.9063 11.281,-2.4531 -2.246,1.6015 -4.941,2.7734 -7.589,3.6914 4.402,1.4375 8.757,2.8515 13.023,4.5781"
         style="fill:#20624e;fill-opacity:1;fill-rule:nonzero;stroke:none"
         id="path58" /><path
         d="m 129.977,53.1836 c 6.57,-1.2266 13.855,1.4219 16.183,8.0273 -6.289,0.4297 -12.578,-2.832 -16.183,-8.0273"
         style="fill:#20624e;fill-opacity:1;fill-rule:nonzero;stroke:none"
         id="path60" /><path
         d="m 173.836,61.2109 c 2.379,-6.6054 9.664,-9.2539 16.219,-8.0273 -3.582,5.1953 -9.883,8.457 -16.219,8.0273"
         style="fill:#20624e;fill-opacity:1;fill-rule:nonzero;stroke:none"
         id="path62" /></g></g></svg>
