<?xml version="1.0" encoding="UTF-8" standalone="no"?>
<svg
   xmlns:dc="http://purl.org/dc/elements/1.1/"
   xmlns:cc="http://creativecommons.org/ns#"
   xmlns:rdf="http://www.w3.org/1999/02/22-rdf-syntax-ns#"
   xmlns:svg="http://www.w3.org/2000/svg"
   xmlns="http://www.w3.org/2000/svg"
   version="1.1"
   id="svg2"
   xml:space="preserve"
   width="42.666668"
   height="42.666668"
   viewBox="0 0 42.666668 42.666668"><metadata
     id="metadata8"><rdf:RDF><cc:Work
         rdf:about=""><dc:format>image/svg+xml</dc:format><dc:type
           rdf:resource="http://purl.org/dc/dcmitype/StillImage" /></cc:Work></rdf:RDF></metadata><defs
     id="defs6" /><g
     id="g10"
     transform="matrix(1.3333333,0,0,-1.3333333,0,42.666667)"><g
       id="g12"
       transform="scale(0.1)"><path
         d="M 26.6836,71.6992 C 71.1211,101.309 115.563,130.918 160.039,160.508 115.742,189.98 71.4609,219.504 27.1797,249.023 10.0195,223.543 0,192.898 0,160.012 0,127.41 9.83984,97.0391 26.6836,71.6992"
         style="fill:#23437f;fill-opacity:1;fill-rule:nonzero;stroke:none"
         id="path14" /><path
         d="m 319.973,160.508 c -0.27,87.883 -72.02,159.504 -159.977,159.504 -55.215,0 -104.0624,-28.215 -132.8163,-70.989 44.2812,-29.519 88.5623,-59.043 132.8593,-88.515 53.336,0 106.625,0 159.934,0"
         style="fill:#ffffff;fill-opacity:1;fill-rule:nonzero;stroke:none"
         id="path16" /><path
         d="M 26.6836,71.6992 C 55.4023,28.5469 104.457,-0.0117188 159.996,-0.0117188 248.102,-0.0117188 320,71.875 320,160.012 l -0.027,0.496 c -53.309,0 -106.598,0 -159.934,0 C 115.563,130.918 71.1211,101.309 26.6836,71.6992"
         style="fill:#d91e25;fill-opacity:1;fill-rule:nonzero;stroke:none"
         id="path18" /></g></g></svg>
