<?xml version="1.0" encoding="UTF-8" standalone="no"?>
<svg
   xmlns:dc="http://purl.org/dc/elements/1.1/"
   xmlns:cc="http://creativecommons.org/ns#"
   xmlns:rdf="http://www.w3.org/1999/02/22-rdf-syntax-ns#"
   xmlns:svg="http://www.w3.org/2000/svg"
   xmlns="http://www.w3.org/2000/svg"
   version="1.1"
   id="svg2"
   xml:space="preserve"
   width="42.666668"
   height="42.666668"
   viewBox="0 0 42.666668 42.666668"><metadata
     id="metadata8"><rdf:RDF><cc:Work
         rdf:about=""><dc:format>image/svg+xml</dc:format><dc:type
           rdf:resource="http://purl.org/dc/dcmitype/StillImage" /></cc:Work></rdf:RDF></metadata><defs
     id="defs6" /><g
     id="g10"
     transform="matrix(1.3333333,0,0,-1.3333333,0,42.666667)"><g
       id="g12"
       transform="scale(0.1)"><path
         d="M 310.52,105.664 H 9.46484 C 3.34375,122.633 0,140.918 0,160 c 0,19.082 3.34375,37.387 9.46484,54.352 H 310.52 C 316.652,197.387 320,179.082 320,160 c 0,-19.082 -3.348,-37.367 -9.48,-54.336"
         style="fill:#de1d25;fill-opacity:1;fill-rule:evenodd;stroke:none"
         id="path14" /><path
         d="M 310.52,214.352 H 9.48438 C 31.7227,275.957 90.7227,320 159.996,320 229.27,320 288.262,275.957 310.52,214.352"
         style="fill:#100f0d;fill-opacity:1;fill-rule:evenodd;stroke:none"
         id="path16" /><path
         d="M 9.48438,105.656 310.52,105.664 C 288.262,44.0586 229.27,0 159.996,0 90.7227,0 31.7227,44.0586 9.48438,105.656"
         style="fill:#facc07;fill-opacity:1;fill-rule:evenodd;stroke:none"
         id="path18" /></g></g></svg>
