<?xml version="1.0" encoding="UTF-8" standalone="no"?>
<svg
   xmlns:dc="http://purl.org/dc/elements/1.1/"
   xmlns:cc="http://creativecommons.org/ns#"
   xmlns:rdf="http://www.w3.org/1999/02/22-rdf-syntax-ns#"
   xmlns:svg="http://www.w3.org/2000/svg"
   xmlns="http://www.w3.org/2000/svg"
   version="1.1"
   id="svg2"
   xml:space="preserve"
   width="42.666668"
   height="42.666668"
   viewBox="0 0 42.666668 42.666668"><metadata
     id="metadata8"><rdf:RDF><cc:Work
         rdf:about=""><dc:format>image/svg+xml</dc:format><dc:type
           rdf:resource="http://purl.org/dc/dcmitype/StillImage" /></cc:Work></rdf:RDF></metadata><defs
     id="defs6" /><g
     id="g10"
     transform="matrix(1.3333333,0,0,-1.3333333,0,42.666667)"><g
       id="g12"
       transform="scale(0.1)"><path
         d="M 26.6875,71.7188 C 71.125,101.324 115.555,130.926 160.047,160.484 115.73,189.984 71.4375,219.496 27.1484,249 10.0195,223.531 0,192.895 0,160.012 0,127.406 9.83594,97.0391 26.6875,71.7188"
         style="fill:#ffffff;fill-opacity:1;fill-rule:nonzero;stroke:none"
         id="path14" /><path
         d="M 320,160.484 C 319.723,248.387 247.949,319.992 159.988,319.992 104.781,319.992 55.9297,291.77 27.1484,249 71.4375,219.496 115.73,189.984 160.047,160.484 c 53.336,0 106.637,0 159.953,0"
         style="fill:#78b4e5;fill-opacity:1;fill-rule:nonzero;stroke:none"
         id="path16" /><path
         d="M 26.6875,71.7188 C 55.3945,28.5391 104.457,0.0078125 159.988,0.0078125 248.117,0.0078125 320,71.875 320,160.012 c 0,0.156 0,0.32 0,0.472 -53.316,0 -106.617,0 -159.953,0 C 115.555,130.926 71.125,101.324 26.6875,71.7188"
         style="fill:#33b240;fill-opacity:1;fill-rule:nonzero;stroke:none"
         id="path18" /><path
         d="m 53.8906,165.246 c 1.8242,5.051 3.3203,10.289 5.1289,15.336 1.7071,-5.07 3.336,-10.203 5.0039,-15.309 5.4219,-0.105 10.7969,-0.054 16.2266,-0.054 -4.3203,-3.301 -8.7734,-6.36 -13.0781,-9.668 1.6679,-5.141 3.3359,-10.285 4.9414,-15.43 -4.3828,3.145 -8.6953,6.41 -13.1563,9.504 -4.3554,-3.133 -8.6718,-6.328 -13.0507,-9.387 1.5195,5.164 3.3867,10.231 4.8828,15.426 -4.3243,3.172 -8.711,6.281 -12.9961,9.555 5.3515,0 10.7187,0.027 16.0976,0.027"
         style="fill:#d91e25;fill-opacity:1;fill-rule:nonzero;stroke:none"
         id="path20" /></g></g></svg>
