<?xml version="1.0" encoding="UTF-8" standalone="no"?>
<svg
   xmlns:dc="http://purl.org/dc/elements/1.1/"
   xmlns:cc="http://creativecommons.org/ns#"
   xmlns:rdf="http://www.w3.org/1999/02/22-rdf-syntax-ns#"
   xmlns:svg="http://www.w3.org/2000/svg"
   xmlns="http://www.w3.org/2000/svg"
   version="1.1"
   id="svg2"
   xml:space="preserve"
   width="42.666668"
   height="42.666668"
   viewBox="0 0 42.666668 42.666668"><metadata
     id="metadata8"><rdf:RDF><cc:Work
         rdf:about=""><dc:format>image/svg+xml</dc:format><dc:type
           rdf:resource="http://purl.org/dc/dcmitype/StillImage" /></cc:Work></rdf:RDF></metadata><defs
     id="defs6" /><g
     id="g10"
     transform="matrix(1.3333333,0,0,-1.3333333,0,42.666667)"><g
       id="g12"
       transform="scale(0.1)"><path
         d="M 120.688,214.98 V 315.125 C 64.043,300.723 19.293,255.973 4.90625,199.316 H 105.18 c 4.285,6.036 9.527,11.321 15.508,15.664"
         style="fill:#20693c;fill-opacity:1;fill-rule:nonzero;stroke:none"
         id="path14" /><path
         d="M 105.18,120.695 H 4.90625 C 19.293,64.0469 64.043,19.2852 120.688,4.89063 V 105.023 c -5.997,4.348 -11.239,9.633 -15.508,15.672"
         style="fill:#20693c;fill-opacity:1;fill-rule:nonzero;stroke:none"
         id="path16" /><path
         d="m 214.82,120.695 c -4.269,-6.031 -9.511,-11.332 -15.507,-15.664 V 4.89063 C 255.941,19.2852 300.684,64.0469 315.086,120.695 H 214.82"
         style="fill:#20693c;fill-opacity:1;fill-rule:nonzero;stroke:none"
         id="path18" /><path
         d="m 214.836,199.316 h 100.25 C 300.684,255.973 255.941,300.723 199.313,315.125 V 214.977 c 5.992,-4.332 11.246,-9.629 15.523,-15.661"
         style="fill:#20693c;fill-opacity:1;fill-rule:nonzero;stroke:none"
         id="path20" /><path
         d="m 193.68,218.762 c 1.957,-1.129 3.793,-2.453 5.625,-3.778 v 100.114 c -8.485,2.164 -17.254,3.617 -26.2,4.351 v -92.972 c 7.223,-1.446 14.204,-4.008 20.575,-7.715"
         style="fill:#ffffff;fill-opacity:1;fill-rule:nonzero;stroke:none"
         id="path22" /><path
         d="m 101.465,126.375 c -3.6095,6.391 -6.0822,13.336 -7.4728,20.52 H 0.550781 C 1.27734,137.938 2.74219,129.18 4.90625,120.695 H 105.18 c -1.305,1.848 -2.61,3.7 -3.715,5.68"
         style="fill:#ffffff;fill-opacity:1;fill-rule:nonzero;stroke:none"
         id="path24" /><path
         d="m 226.008,146.895 c -1.383,-7.184 -3.848,-14.129 -7.461,-20.52 -1.113,-1.977 -2.418,-3.828 -3.727,-5.68 h 100.274 c 2.16,8.485 3.629,17.243 4.355,26.2 h -93.441"
         style="fill:#ffffff;fill-opacity:1;fill-rule:nonzero;stroke:none"
         id="path26" /><path
         d="m 193.68,101.25 c -6.371,-3.7031 -13.352,-6.2656 -20.575,-7.7187 V 0.550781 c 8.946,0.734379 17.715,2.187499 26.2,4.347659 V 105.023 c -1.832,-1.324 -3.664,-2.644 -5.625,-3.773"
         style="fill:#ffffff;fill-opacity:1;fill-rule:nonzero;stroke:none"
         id="path28" /><path
         d="m 319.449,173.109 h -93.433 l 0.382,-1.855 c 1.192,-7.422 1.192,-15.07 0,-22.492 l -0.382,-1.844 h 93.433 c 0.352,4.324 0.551,8.684 0.551,13.098 0,4.41 -0.199,8.769 -0.551,13.093"
         style="fill:#100f0d;fill-opacity:1;fill-rule:nonzero;stroke:none"
         id="path30" /><path
         d="m 93.6016,148.762 c -1.1797,7.422 -1.1797,15.004 -0.0508,22.441 l 0.4023,1.906 H 0.542969 C 0.1875,168.785 0,164.426 0,160.016 0,155.602 0.1875,151.242 0.542969,146.918 H 93.9883 l -0.3867,1.844"
         style="fill:#100f0d;fill-opacity:1;fill-rule:nonzero;stroke:none"
         id="path32" /><path
         d="m 148.746,226.891 c 7.387,1.242 15.024,1.242 22.449,0 l 1.891,-0.411 v 92.969 c -4.32,0.348 -8.684,0.555 -13.094,0.555 -4.414,0 -8.781,-0.207 -13.105,-0.555 v -92.965 l 1.859,0.407"
         style="fill:#100f0d;fill-opacity:1;fill-rule:nonzero;stroke:none"
         id="path34" /><path
         d="m 171.195,93.1172 c -7.425,-1.2344 -15.015,-1.2344 -22.449,0.0547 l -1.859,0.3984 V 0.550781 c 4.324,-0.351562 8.691,-0.55468725 13.105,-0.55468725 4.41,0 8.774,0.20312525 13.094,0.55468725 V 93.5273 l -1.891,-0.4101"
         style="fill:#100f0d;fill-opacity:1;fill-rule:nonzero;stroke:none"
         id="path36" /><path
         d="m 218.602,193.578 c 3.562,-6.387 6.062,-13.328 7.414,-20.469 h 93.433 c -0.726,8.954 -2.195,17.715 -4.344,26.196 H 214.84 c 1.324,-1.864 2.64,-3.735 3.762,-5.727"
         style="fill:#f7cf0d;fill-opacity:1;fill-rule:nonzero;stroke:none"
         id="path38" /><path
         d="m 126.484,218.875 c 6.329,3.609 13.227,6.164 20.403,7.609 v 92.965 c -8.949,-0.734 -17.707,-2.187 -26.192,-4.351 v -100.11 c 1.883,1.364 3.774,2.719 5.789,3.887"
         style="fill:#f7cf0d;fill-opacity:1;fill-rule:nonzero;stroke:none"
         id="path40" /><path
         d="m 101.402,193.578 c 1.129,1.996 2.45,3.863 3.77,5.727 H 4.89844 C 2.74219,190.824 1.27734,182.063 0.542969,173.109 H 93.9531 c 1.3907,7.164 3.9063,14.094 7.4489,20.469"
         style="fill:#f7cf0d;fill-opacity:1;fill-rule:nonzero;stroke:none"
         id="path42" /><path
         d="m 126.484,101.137 c -2.015,1.164 -3.906,2.519 -5.789,3.883 V 4.89063 C 129.18,2.73828 137.938,1.28516 146.887,0.550781 V 93.5703 c -7.176,1.4141 -14.074,4.0078 -20.403,7.5667"
         style="fill:#f7cf0d;fill-opacity:1;fill-rule:nonzero;stroke:none"
         id="path44" /><path
         d="m 148.746,226.891 c 7.387,1.242 15.024,1.242 22.449,0 7.91,-1.352 15.547,-4.094 22.485,-8.129 10.343,-5.969 19.058,-14.789 24.922,-25.184 3.871,-6.941 6.558,-14.523 7.796,-22.324 1.192,-7.422 1.192,-15.07 0,-22.492 -1.289,-7.852 -3.925,-15.438 -7.851,-22.387 -5.856,-10.383 -14.524,-19.16 -24.867,-25.125 -6.938,-4.0312 -14.575,-6.7773 -22.485,-8.1328 -7.425,-1.2344 -15.015,-1.2344 -22.449,0.0547 -7.851,1.3008 -15.387,4.0976 -22.262,7.9651 -10.394,6.027 -19.156,14.754 -25.019,25.238 -3.922,6.949 -6.5705,14.535 -7.8634,22.387 -1.1797,7.422 -1.1797,15.004 -0.0508,22.441 1.2851,7.852 3.9922,15.434 7.8512,22.375 5.926,10.496 14.688,19.27 25.082,25.297 6.875,3.922 14.411,6.664 22.262,8.016"
         style="fill:#d61c30;fill-opacity:1;fill-rule:nonzero;stroke:none"
         id="path46" /><path
         d="m 150.102,190.734 c 0.539,5.219 7.484,6.024 11.3,4.032 3.547,-2.215 6.344,-5.383 9.731,-7.801 -1.074,-0.11 -2.094,-0.164 -3.117,-0.211 l 1.406,-0.766 1.285,-0.691 1.504,-0.973 c -0.797,-0.594 -1.664,-1.125 -2.574,-1.719 l 1.449,0.118 c 1.074,-0.602 2.148,-1.243 3.281,-1.836 l -0.586,-1.285 c -1.949,-0.223 -3.929,-0.336 -5.867,-0.547 1.723,-0.055 3.391,0 5.055,0 0.906,-0.485 1.844,-1.028 2.695,-1.625 l -1.187,-0.739 c -1.555,-0.601 -3.282,-0.699 -4.95,-0.867 1.403,-0.047 2.852,-0.047 4.297,-0.16 l 2.531,-1.508 c -1.285,-0.804 -2.695,-1.879 -4.304,-1.617 -3.227,0.758 -6.235,2.641 -8.067,5.387 -0.863,2.097 -1.129,4.414 -1.714,6.613 l 1.062,0.758 c -3.219,-0.594 -6.664,-1.188 -9.887,-0.219 l -0.39,1.027 c -0.426,1.454 -0.856,2.848 -1.289,4.297 l -1.664,0.332"
         style="fill:#8452ae;fill-opacity:1;fill-rule:nonzero;stroke:none"
         id="path48" /><path
         d="m 155.898,192.016 c 1.282,0.613 4.043,-0.977 2.09,-2.043 -1.679,-1.43 -5.101,1.379 -2.09,2.043"
         style="fill:#d51c30;fill-opacity:1;fill-rule:nonzero;stroke:none"
         id="path50" /><path
         d="m 156.48,191.242 0.543,-0.676 -0.543,0.676"
         style="fill:#211c1d;fill-opacity:1;fill-rule:nonzero;stroke:none"
         id="path52" /><path
         d="m 158.934,166.68 c 2.894,-9.524 7.148,-18.895 14.671,-25.617 -5.152,1.617 -7.679,6.882 -10.273,11.25 -2.144,4.515 -3.977,9.304 -4.398,14.367"
         style="fill:#a81931;fill-opacity:1;fill-rule:nonzero;stroke:none"
         id="path54" /><path
         d="m 147.195,183.629 c -1.453,2.91 -0.808,6.676 2.907,7.105 l 1.664,-0.332 c 0.433,-1.449 0.863,-2.843 1.289,-4.297 l -0.426,-0.644 c -1.399,-0.758 -2.945,-0.856 -4.418,-0.277 l -1.016,-1.555"
         style="fill:#f4d00b;fill-opacity:1;fill-rule:nonzero;stroke:none"
         id="path56" /><path
         d="m 152.629,185.461 0.426,0.644 0.39,-1.027 c 3.223,-0.969 6.668,-0.375 9.887,0.219 l -1.062,-0.758 c 0.585,-2.199 0.851,-4.516 1.714,-6.613 1.832,-2.746 4.84,-4.629 8.067,-5.387 l -2.25,0.047 c 4.89,-7.254 8.871,-15.543 9.515,-24.418 -0.582,-5.652 1.02,-11.238 0.375,-16.887 -0.695,1.02 -1.289,2.043 -1.929,3.059 -0.059,-0.914 -0.059,-1.774 -0.059,-2.684 -3.394,0.364 -6.824,0.215 -10.226,0.696 l -1.442,1.402 -2.109,-1.52 -2.305,1.461 -2.051,-1.031 -0.535,1.031 c -1.828,3.711 -4.57,7.102 -3.715,11.567 1.778,-1.824 3.774,-3.442 5.868,-4.848 0.64,3.984 -0.325,8.399 2.144,11.899 2.594,-4.368 5.121,-9.633 10.273,-11.25 -7.523,6.722 -11.777,16.093 -14.671,25.617 -1.036,3.816 0.8,8.886 -2.864,11.566 -1.933,0.211 -3.922,0.109 -5.695,0.922 0.738,2.094 1.609,4.129 2.254,6.293"
         style="fill:#20693c;fill-opacity:1;fill-rule:nonzero;stroke:none"
         id="path58" /><path
         d="m 150.375,179.168 c 1.773,-0.813 3.762,-0.711 5.695,-0.922 3.664,-2.68 1.828,-7.75 2.864,-11.566 0.421,-5.063 2.254,-9.852 4.398,-14.367 -2.469,-3.5 -1.504,-7.915 -2.144,-11.899 -2.094,1.406 -4.09,3.024 -5.868,4.848 -8.933,8.718 -9.578,22.863 -4.945,33.906"
         style="fill:#8452ae;fill-opacity:1;fill-rule:nonzero;stroke:none"
         id="path60" /><path
         d="m 156.887,131.969 2.148,1.726 0.535,-1.031 2.051,1.031 2.305,-1.461 2.109,1.52 1.442,-1.402 c -2.688,-1.399 -2.907,-4.625 0.218,-5.598 l 1.403,-0.867 -0.274,-1.239 c -3.609,0.43 -7.801,-0.808 -10.34,2.645 l 1.946,-2.527 c -1.231,0.527 -2.586,0.91 -3.485,1.937 -0.812,1.664 -0.875,3.602 -0.058,5.266"
         style="fill:#f4d00b;fill-opacity:1;fill-rule:nonzero;stroke:none"
         id="path62" /><path
         d="m 140.902,131.438 0.27,-0.602 c 0.668,-1.52 1.297,-2.953 2.758,-3.117 2.633,-0.328 5.304,-0.375 7.8,-0.375 l 3.555,0.011 h 0.719 c -0.441,1.329 -0.449,2.727 -0.043,4.024 l -2.313,0.031 -4.21,-0.019 -0.149,0.429 c -0.734,2.141 -1.73,3.184 -3.031,3.184 l -0.199,-0.008 -0.473,0.027 c -1.078,0 -1.77,-0.793 -2.578,-1.71 z m 17.075,-5.379 -1.039,0.011 -1.653,0.012 -3.555,-0.012 c -2.535,0 -5.257,0.047 -7.949,0.383 -2.183,0.25 -3.066,2.258 -3.773,3.867 l -0.531,1.145 -0.364,0.683 0.735,0.227 2.207,1.773 c 0.968,1.11 2.113,2.36 4.039,2.114 l 0.164,0.015 c 1.781,0 3.148,-1.214 4.078,-3.613 l 3.312,0.02 c 1.094,0 2.18,-0.016 3.27,-0.071 l 0.965,-0.05 -0.422,-0.868 c -0.715,-1.457 -0.691,-3.172 0.059,-4.707 l 0.457,-0.929"
         style="fill:#100f0d;fill-opacity:1;fill-rule:nonzero;stroke:none"
         id="path64" /><path
         d="m 140.039,131.758 c 2.469,0.758 3.121,4.246 5.973,3.867 2.199,0.164 3.281,-1.871 3.879,-3.605 2.359,0 4.675,0.066 6.996,-0.051 -0.817,-1.664 -0.754,-3.602 0.058,-5.266 -4.363,0.051 -8.734,-0.168 -13.086,0.375 -2.32,0.266 -2.91,2.961 -3.82,4.68"
         style="fill:#97411e;fill-opacity:1;fill-rule:nonzero;stroke:none"
         id="path66" /><path
         d="m 167.695,126.754 c 3.137,0.855 6.344,0.703 9.578,0.801 -0.543,-3.336 -2.906,-5.867 -4.625,-8.657 -0.867,2.153 -3.449,3.653 -3.824,5.75 l 0.274,1.239 -1.403,0.867"
         style="fill:#226b40;fill-opacity:1;fill-rule:nonzero;stroke:none"
         id="path68" /><path
         d="m 167.602,131.691 c -1.032,-0.593 -1.633,-1.546 -1.551,-2.461 0.07,-0.8 0.676,-1.457 1.664,-1.808 2.523,0.656 5.109,0.695 7.609,0.734 l 1.93,0.039 0.848,0.836 -0.586,2.008 c -1.469,0.152 -2.977,0.207 -4.438,0.266 -1.789,0.074 -3.644,0.144 -5.476,0.386 z m 0.086,-5.597 -0.18,0.054 c -1.61,0.5 -2.606,1.582 -2.727,2.969 -0.133,1.481 0.809,2.973 2.403,3.801 l 0.179,0.094 0.203,-0.028 c 1.84,-0.257 3.735,-0.332 5.563,-0.406 1.523,-0.058 3.098,-0.121 4.644,-0.285 l 0.2,-0.059 c 1.211,-0.562 1.648,-2.214 1.371,-3.48 -0.246,-1.129 -1.043,-1.832 -2.071,-1.832 l -1.929,-0.039 c -2.598,-0.043 -5.051,-0.074 -7.481,-0.742 l -0.175,-0.047"
         style="fill:#100f0d;fill-opacity:1;fill-rule:nonzero;stroke:none"
         id="path70" /><path
         d="m 157.824,213.555 2.176,6.203 1.977,-6.106 6.625,-0.097 -5.243,-4.004 2.375,-6.805 -5.734,4.199 -5.633,-4 2.172,6.606 -5.141,3.902 6.426,0.102"
         style="fill:#20693c;fill-opacity:1;fill-rule:nonzero;stroke:none"
         id="path72" /><path
         d="m 162.176,106.465 -2.176,-6.203 -1.977,6.105 -6.625,0.098 5.243,4.004 -2.375,6.804 5.734,-4.203 5.637,4.004 -2.176,-6.605 5.141,-3.903 -6.426,-0.101"
         style="fill:#20693c;fill-opacity:1;fill-rule:nonzero;stroke:none"
         id="path74" /><path
         d="m 189.715,204.605 5.406,3.743 -1.992,-6.102 5.301,-3.973 -6.59,-0.156 -2.078,-6.902 -2.172,6.769 -6.91,0.075 5.64,4.066 -1.863,6.18 5.258,-3.7"
         style="fill:#20693c;fill-opacity:1;fill-rule:nonzero;stroke:none"
         id="path76" /><path
         d="m 130.289,115.414 -5.406,-3.742 1.988,6.101 -5.301,3.973 6.59,0.156 2.082,6.903 2.168,-6.77 6.91,-0.074 -5.64,-4.066 1.867,-6.18 -5.258,3.699"
         style="fill:#20693c;fill-opacity:1;fill-rule:nonzero;stroke:none"
         id="path78" /><path
         d="m 210.254,178.625 6.57,-0.152 -5.195,-3.766 1.953,-6.332 -5.426,3.75 -5.738,-4.363 2.223,6.754 -5.547,4.121 6.957,-0.028 2.121,6.094 2.082,-6.078"
         style="fill:#20693c;fill-opacity:1;fill-rule:nonzero;stroke:none"
         id="path80" /><path
         d="m 109.75,141.395 -6.574,0.152 5.195,3.766 -1.953,6.332 5.426,-3.75 5.742,4.363 -2.227,-6.754 5.547,-4.121 -6.953,0.027 -2.125,-6.097 -2.078,6.082"
         style="fill:#20693c;fill-opacity:1;fill-rule:nonzero;stroke:none"
         id="path82" /><path
         d="m 211.598,145.531 5.226,-3.984 -6.418,0.008 -2.14,-6.27 -2.188,6.219 -7.203,-0.152 5.766,4.152 -2.067,6.598 5.614,-4.114 5.3,3.688 -1.89,-6.145"
         style="fill:#20693c;fill-opacity:1;fill-rule:nonzero;stroke:none"
         id="path84" /><path
         d="m 108.406,174.488 -5.23,3.985 6.418,-0.008 2.14,6.269 2.188,-6.218 7.207,0.152 -5.77,-4.152 2.067,-6.598 -5.613,4.109 -5.297,-3.683 1.89,6.144"
         style="fill:#20693c;fill-opacity:1;fill-rule:nonzero;stroke:none"
         id="path86" /><path
         d="m 193.234,117.969 1.887,-6.297 -5.187,3.777 -5.418,-3.812 1.886,6.316 -5.922,4.11 7.11,-0.028 2.207,6.551 2.125,-6.625 6.449,-0.133 -5.137,-3.859"
         style="fill:#20693c;fill-opacity:1;fill-rule:nonzero;stroke:none"
         id="path88" /><path
         d="m 126.77,202.051 -1.887,6.297 5.183,-3.778 5.418,3.813 -1.886,-6.317 5.922,-4.113 -7.11,0.031 -2.207,-6.55 -2.121,6.625 -6.453,0.132 5.141,3.86"
         style="fill:#20693c;fill-opacity:1;fill-rule:nonzero;stroke:none"
         id="path90" /><path
         d="m 167.477,132.352 c 3.402,-0.481 6.832,-0.332 10.226,-0.696 1.512,-0.703 1.512,-4.101 -0.43,-4.101 -3.234,-0.098 -6.441,0.054 -9.578,-0.801 -3.125,0.973 -2.906,4.199 -0.218,5.598"
         style="fill:#97401d;fill-opacity:1;fill-rule:nonzero;stroke:none"
         id="path92" /></g></g></svg>
