<?xml version="1.0" encoding="UTF-8" standalone="no"?>
<svg
   xmlns:dc="http://purl.org/dc/elements/1.1/"
   xmlns:cc="http://creativecommons.org/ns#"
   xmlns:rdf="http://www.w3.org/1999/02/22-rdf-syntax-ns#"
   xmlns:svg="http://www.w3.org/2000/svg"
   xmlns="http://www.w3.org/2000/svg"
   version="1.1"
   id="svg2"
   xml:space="preserve"
   width="42.666668"
   height="42.666668"
   viewBox="0 0 42.666668 42.666668"><metadata
     id="metadata8"><rdf:RDF><cc:Work
         rdf:about=""><dc:format>image/svg+xml</dc:format><dc:type
           rdf:resource="http://purl.org/dc/dcmitype/StillImage" /></cc:Work></rdf:RDF></metadata><defs
     id="defs6" /><g
     id="g10"
     transform="matrix(1.3333333,0,0,-1.3333333,0,42.666667)"><g
       id="g12"
       transform="scale(0.1)"><path
         d="m 320,159.602 c 0.195,88.125 -71.477,160.171 -159.605,160.39 L 159.609,0.0078125 C 247.711,-0.199219 319.777,71.4805 320,159.602"
         style="fill:#ffffff;fill-opacity:1;fill-rule:evenodd;stroke:none"
         id="path14" /><path
         d="M 0,160.406 C -0.222656,72.2773 71.4766,0.230469 159.609,0.0078125 L 160.395,319.992 C 72.2695,320.199 0.230469,248.52 0,160.406"
         style="fill:#1d5f2f;fill-opacity:1;fill-rule:evenodd;stroke:none"
         id="path16" /><path
         d="m 162.461,173.785 c 3.031,-4.695 6.574,-9.035 9.742,-13.66 -2.82,-4.789 -6.75,-9.141 -9.742,-13.949 5.43,1.609 10.762,3.519 16.137,5.16 3.429,-4.598 6.746,-9.289 10.175,-13.953 -0.066,5.781 -0.046,11.543 0,17.308 5.477,1.739 10.973,3.551 16.422,5.289 -5.507,1.711 -10.945,3.567 -16.422,5.301 -0.046,5.754 -0.066,11.524 0,17.289 -3.429,-4.656 -6.746,-9.347 -10.175,-13.949 -5.375,1.676 -10.707,3.539 -16.137,5.164 z m -33.164,20.36 c 8.715,8.418 20.781,13.312 32.926,13.273 16.293,0.09 32.461,-8.91 40.586,-23.066 -9.606,11.57 -26.289,16.55 -40.586,11.781 -9.922,-3.086 -18.418,-10.461 -22.825,-19.926 -3.851,-8.004 -4.66,-17.398 -2.386,-26.004 3.183,-12.348 13.062,-22.629 25.211,-26.359 14.433,-4.821 31.269,0.344 40.863,12.086 -8.219,-14.258 -24.371,-23.485 -40.863,-23.328 -12.637,-0.082 -25.2,5.183 -33.981,14.285 -8.664,8.863 -13.637,21.215 -13.453,33.629 0.07,12.562 5.461,24.937 14.508,33.629"
         style="fill:#d41b34;fill-opacity:1;fill-rule:nonzero;stroke:none"
         id="path18" /></g></g></svg>
