<?xml version="1.0" encoding="UTF-8" standalone="no"?>
<svg
   xmlns:dc="http://purl.org/dc/elements/1.1/"
   xmlns:cc="http://creativecommons.org/ns#"
   xmlns:rdf="http://www.w3.org/1999/02/22-rdf-syntax-ns#"
   xmlns:svg="http://www.w3.org/2000/svg"
   xmlns="http://www.w3.org/2000/svg"
   version="1.1"
   id="svg2"
   xml:space="preserve"
   width="42.666668"
   height="42.666668"
   viewBox="0 0 42.666668 42.666668"><metadata
     id="metadata8"><rdf:RDF><cc:Work
         rdf:about=""><dc:format>image/svg+xml</dc:format><dc:type
           rdf:resource="http://purl.org/dc/dcmitype/StillImage" /></cc:Work></rdf:RDF></metadata><defs
     id="defs6" /><g
     id="g10"
     transform="matrix(1.3333333,0,0,-1.3333333,0,42.666667)"><g
       id="g12"
       transform="scale(0.1)"><path
         d="M 9.46484,214.398 H 310.516 c 6.14,-16.992 9.484,-35.277 9.484,-54.371 0,-19.078 -3.344,-37.375 -9.484,-54.355 H 9.46484 C 3.34375,122.652 0,140.949 0,160.027 c 0,19.094 3.34375,37.379 9.46484,54.371"
         style="fill:#100f0d;fill-opacity:1;fill-rule:evenodd;stroke:none"
         id="path14" /><path
         d="M 310.516,214.398 H 9.46484 C 31.7227,276 90.7188,320.051 159.996,320.051 c 69.258,0 128.262,-44.051 150.52,-105.653"
         style="fill:#588ed2;fill-opacity:1;fill-rule:evenodd;stroke:none"
         id="path16" /><path
         d="M 9.46484,105.672 H 310.516 C 288.258,44.0625 229.254,0.00390625 159.996,0.00390625 90.7188,0.00390625 31.7227,44.0625 9.46484,105.672"
         style="fill:#ffffff;fill-opacity:1;fill-rule:evenodd;stroke:none"
         id="path18" /></g></g></svg>
