<?xml version="1.0" encoding="UTF-8" standalone="no"?>
<svg
   xmlns:dc="http://purl.org/dc/elements/1.1/"
   xmlns:cc="http://creativecommons.org/ns#"
   xmlns:rdf="http://www.w3.org/1999/02/22-rdf-syntax-ns#"
   xmlns:svg="http://www.w3.org/2000/svg"
   xmlns="http://www.w3.org/2000/svg"
   version="1.1"
   id="svg2"
   xml:space="preserve"
   width="42.666668"
   height="42.666668"
   viewBox="0 0 42.666668 42.666668"><metadata
     id="metadata8"><rdf:RDF><cc:Work
         rdf:about=""><dc:format>image/svg+xml</dc:format><dc:type
           rdf:resource="http://purl.org/dc/dcmitype/StillImage" /></cc:Work></rdf:RDF></metadata><defs
     id="defs6" /><g
     id="g10"
     transform="matrix(1.3333333,0,0,-1.3333333,0,42.666667)"><g
       id="g12"
       transform="scale(0.1)"><path
         d="M 310.516,214.344 H 9.48438 C 3.34375,197.375 0,179.078 0,160.004 0,140.914 3.34375,122.609 9.48438,105.656 H 310.516 c 6.14,16.953 9.484,35.258 9.484,54.348 0,19.074 -3.344,37.371 -9.484,54.34"
         style="fill:#ffffff;fill-opacity:1;fill-rule:evenodd;stroke:none"
         id="path14" /><path
         d="M 9.48438,214.344 H 310.516 c -22.25,61.601 -81.246,105.66 -150.52,105.66 -69.2851,0 -128.2733,-44.059 -150.51162,-105.66"
         style="fill:#d01e27;fill-opacity:1;fill-rule:evenodd;stroke:none"
         id="path16" /><path
         d="M 310.516,105.656 H 9.48438 C 31.7227,44.0508 90.7109,-0.00390625 159.996,-0.00390625 c 69.274,0 128.27,44.05470625 150.52,105.65990625"
         style="fill:#100f0d;fill-opacity:1;fill-rule:evenodd;stroke:none"
         id="path18" /><path
         d="m 161.684,153.184 h -3.368 l -4.582,-20.864 1.731,-1.73 1.808,1.336 1.7,12.179 -0.711,-12.121 1.738,-2.211 1.738,2.211 -0.715,12.125 1.704,-12.183 1.808,-1.336 1.731,1.73 -4.582,20.864"
         style="fill:#b9901c;fill-opacity:1;fill-rule:nonzero;stroke:none"
         id="path20" /><path
         d="m 155.109,183.879 0.051,0.211 c 0,0 -0.18,-0.113 -0.469,-0.277 0.137,0.019 0.278,0.046 0.418,0.066"
         style="fill:#b9901c;fill-opacity:1;fill-rule:nonzero;stroke:none"
         id="path22" /><path
         d="m 190.523,183.23 c -0.21,5.11 -3.007,6.18 -5.324,6.18 -2.859,0 -6.101,-1.609 -7.789,-2.574 -2.734,-1.754 -5.812,-2.641 -9.14,-2.641 -0.118,0 -0.239,0.004 -0.356,0.008 0.121,-0.219 0.246,-0.422 0.371,-0.605 3.442,0.004 6.617,0.922 9.434,2.73 2.804,1.602 5.465,2.485 7.48,2.485 2.985,0 4.574,-1.887 4.727,-5.606 l 2.258,-53.453 -31.606,29.336 c -0.109,0.105 -0.285,0.105 -0.402,0.004 l -32.36,-29.352 2.258,53.465 c 0.153,3.719 1.742,5.606 4.727,5.606 2.019,0 4.676,-0.883 7.469,-2.477 2.793,-1.789 5.921,-2.703 9.308,-2.731 0.129,0.18 0.274,0.379 0.418,0.594 -0.086,0 -0.176,-0.004 -0.266,-0.004 -3.328,0 -6.402,0.887 -9.152,2.649 -1.676,0.957 -4.914,2.566 -7.777,2.566 -2.313,0 -5.113,-1.07 -5.321,-6.176 l -2.292,-54.179 c -0.004,-0.121 0.066,-0.235 0.171,-0.285 0.11,-0.051 0.239,-0.032 0.329,0.05 l 32.687,29.649 31.934,-29.649 c 0.058,-0.05 0.129,-0.078 0.203,-0.078 0.043,0 0.086,0.012 0.125,0.028 0.109,0.05 0.179,0.164 0.172,0.285 l -2.286,54.175"
         style="fill:#b9901c;fill-opacity:1;fill-rule:nonzero;stroke:none"
         id="path24" /><path
         d="m 133.473,185.105 -2.219,-52.703 -3.774,-3.363 2.29,54.184 c 1.078,0.738 2.964,1.882 3.703,1.882 v 0"
         style="fill:#b9901c;fill-opacity:1;fill-rule:nonzero;stroke:none"
         id="path26" /><path
         d="m 137.988,181.332 -1.886,-44.082 -3.766,-3.859 2.285,50.906 c 0.742,-0.742 2.965,-2.559 3.367,-2.961 v -0.004"
         style="fill:#b9901c;fill-opacity:1;fill-rule:nonzero;stroke:none"
         id="path28" /><path
         d="m 142.094,177.969 -1.481,-36.77 -3.027,-2.957 1.883,41.949 c 0.738,-0.742 2.219,-1.82 2.625,-2.222 v 0"
         style="fill:#b9901c;fill-opacity:1;fill-rule:nonzero;stroke:none"
         id="path30" /><path
         d="m 146.535,176.082 -1.48,-31.336 -2.961,-2.402 1.48,34.883 c 0.742,-0.336 2.223,-1.145 2.961,-1.145 v 0"
         style="fill:#b9901c;fill-opacity:1;fill-rule:nonzero;stroke:none"
         id="path32" /><path
         d="m 150.641,176.082 -1.078,-26.113 -3.028,-2.961 1.145,28.738 c 0.738,0 2.625,0 2.961,0.336 v 0"
         style="fill:#b9901c;fill-opacity:1;fill-rule:nonzero;stroke:none"
         id="path34" /><path
         d="m 186.523,185.105 2.219,-52.703 3.77,-3.363 -2.289,54.184 c -1.075,0.738 -2.961,1.882 -3.7,1.882 v 0"
         style="fill:#b9901c;fill-opacity:1;fill-rule:nonzero;stroke:none"
         id="path36" /><path
         d="m 182.008,181.332 1.887,-44.082 3.765,-3.859 -2.289,50.906 c -0.738,-0.742 -2.961,-2.559 -3.363,-2.961 v -0.004"
         style="fill:#b9901c;fill-opacity:1;fill-rule:nonzero;stroke:none"
         id="path38" /><path
         d="m 177.902,177.969 1.481,-36.77 3.027,-2.957 -1.883,41.949 c -0.738,-0.742 -2.218,-1.82 -2.625,-2.222 v 0"
         style="fill:#b9901c;fill-opacity:1;fill-rule:nonzero;stroke:none"
         id="path40" /><path
         d="m 173.461,176.082 1.48,-31.336 2.961,-2.402 -1.48,34.883 c -0.742,-0.336 -2.223,-1.145 -2.961,-1.145 v 0"
         style="fill:#b9901c;fill-opacity:1;fill-rule:nonzero;stroke:none"
         id="path42" /><path
         d="m 169.355,176.082 1.079,-26.113 3.027,-2.961 -1.145,28.738 c -0.742,0 -2.625,0 -2.961,0.336 v 0"
         style="fill:#b9901c;fill-opacity:1;fill-rule:nonzero;stroke:none"
         id="path44" /><path
         d="m 170.094,161.949 8.953,-31.765 -12.317,-1.887 -5.25,23.894 8.614,9.758 v 0"
         style="fill:#ffffff;fill-opacity:1;fill-rule:nonzero;stroke:none"
         id="path46" /><path
         d="m 161.781,152.113 5.164,-23.5 11.746,1.797 -8.726,30.973 z m 4.946,-24.093 c -0.129,0 -0.243,0.089 -0.27,0.218 l -5.25,23.895 c -0.019,0.086 0.004,0.176 0.063,0.242 l 8.617,9.762 c 0.066,0.074 0.172,0.109 0.269,0.086 0.102,-0.024 0.18,-0.098 0.207,-0.196 l 8.953,-31.769 c 0.02,-0.078 0.008,-0.16 -0.035,-0.227 -0.043,-0.066 -0.113,-0.113 -0.191,-0.125 l -12.32,-1.883 c -0.012,-0.003 -0.028,-0.003 -0.043,-0.003"
         style="fill:#b78f1c;fill-opacity:1;fill-rule:nonzero;stroke:none"
         id="path48" /><path
         d="m 167.215,138.691 2.39,-3.718 1.286,3.918 c 0.035,0.109 0.132,0.187 0.25,0.203 0.113,0.011 0.226,-0.043 0.285,-0.141 l 2.332,-3.836 1.726,6.324 -3.359,3.442 -1.059,-3.781 c -0.031,-0.11 -0.121,-0.192 -0.234,-0.215 -0.113,-0.02 -0.227,0.027 -0.293,0.117 l -2.332,3.156 z m -1.336,-6.351 -0.586,0.125 1.277,6.039 -4.047,6.148 0.497,0.328 3.707,-5.632 1.015,5.597 c 0.024,0.118 0.113,0.211 0.227,0.239 0.117,0.027 0.238,-0.02 0.308,-0.114 l 2.379,-3.222 1.035,3.691 c 0.032,0.106 0.11,0.184 0.215,0.211 0.106,0.023 0.211,-0.008 0.285,-0.082 l 3.836,-3.934 c 0.075,-0.078 0.102,-0.183 0.075,-0.289 l -1.95,-7.152 c -0.031,-0.117 -0.129,-0.203 -0.246,-0.219 -0.121,-0.015 -0.234,0.039 -0.297,0.141 l -2.355,3.875 -1.277,-3.899 c -0.039,-0.105 -0.133,-0.183 -0.247,-0.199 -0.113,-0.019 -0.226,0.035 -0.289,0.133 l -2.398,3.73 -1.164,-5.515"
         style="fill:#b9901c;fill-opacity:1;fill-rule:nonzero;stroke:none"
         id="path50" /><path
         d="m 149.898,161.949 -8.949,-31.765 12.317,-1.887 5.25,23.894 -8.618,9.758 v 0"
         style="fill:#ffffff;fill-opacity:1;fill-rule:nonzero;stroke:none"
         id="path52" /><path
         d="m 141.301,130.41 11.75,-1.797 5.164,23.5 -8.184,9.27 z m 11.965,-2.39 c -0.012,0 -0.028,0 -0.039,0.003 l -12.321,1.883 c -0.078,0.012 -0.148,0.059 -0.191,0.125 -0.043,0.067 -0.059,0.149 -0.035,0.227 l 8.953,31.769 c 0.027,0.098 0.105,0.172 0.207,0.196 0.098,0.019 0.203,-0.012 0.269,-0.086 l 8.618,-9.762 c 0.058,-0.066 0.082,-0.156 0.062,-0.242 l -5.25,-23.895 c -0.027,-0.129 -0.144,-0.218 -0.273,-0.218"
         style="fill:#b9901c;fill-opacity:1;fill-rule:nonzero;stroke:none"
         id="path54" /><path
         d="m 148.016,148.191 c -0.02,0 -0.039,0 -0.063,0.004 -0.094,0.024 -0.176,0.086 -0.211,0.18 l -1.078,2.625 0.551,0.227 0.914,-2.223 5.504,5.258 0.41,-0.43 -5.82,-5.559 c -0.055,-0.054 -0.129,-0.082 -0.207,-0.082"
         style="fill:#b78f1c;fill-opacity:1;fill-rule:nonzero;stroke:none"
         id="path56" /><path
         d="m 152.188,145.969 c -0.028,0 -0.055,0.004 -0.079,0.011 -0.121,0.032 -0.203,0.133 -0.218,0.254 l -1.215,11.422 0.59,0.067 1.14,-10.68 3.246,4.25 0.477,-0.359 -3.703,-4.848 c -0.059,-0.074 -0.149,-0.117 -0.238,-0.117"
         style="fill:#b9901c;fill-opacity:1;fill-rule:nonzero;stroke:none"
         id="path58" /><path
         d="m 156.145,142.168 -2.024,6.98 0.574,0.165 2.024,-6.977 -0.574,-0.168"
         style="fill:#b9901c;fill-opacity:1;fill-rule:nonzero;stroke:none"
         id="path60" /><path
         d="m 148.824,139.094 c 0.012,0 0.024,0 0.031,0 0.118,-0.016 0.215,-0.094 0.25,-0.203 l 1.286,-3.918 2.39,3.718 -0.992,5.469 -2.332,-3.156 c -0.066,-0.09 -0.18,-0.137 -0.293,-0.117 -0.113,0.023 -0.203,0.105 -0.234,0.215 l -1.063,3.781 -3.355,-3.442 1.722,-6.324 2.332,3.836 c 0.055,0.086 0.153,0.141 0.258,0.141 z m 5.293,-6.754 -1.164,5.515 -2.398,-3.73 c -0.063,-0.098 -0.176,-0.148 -0.289,-0.133 -0.114,0.016 -0.211,0.094 -0.246,0.199 l -1.278,3.899 -2.355,-3.875 c -0.063,-0.102 -0.18,-0.152 -0.297,-0.141 -0.117,0.016 -0.215,0.102 -0.246,0.219 l -1.949,7.152 c -0.032,0.106 0,0.211 0.07,0.289 l 3.836,3.934 c 0.074,0.074 0.183,0.109 0.289,0.082 0.101,-0.027 0.183,-0.105 0.215,-0.211 l 1.035,-3.691 2.379,3.222 c 0.07,0.094 0.191,0.137 0.304,0.114 0.118,-0.028 0.207,-0.121 0.227,-0.239 l 1.016,-5.597 3.711,5.632 0.496,-0.328 -4.047,-6.148 1.277,-6.039 -0.586,-0.125"
         style="fill:#b9901c;fill-opacity:1;fill-rule:nonzero;stroke:none"
         id="path62" /><path
         d="m 151.098,128.203 -1.278,3.887 -1.886,-3.203 c -0.059,-0.102 -0.168,-0.16 -0.293,-0.145 -0.118,0.016 -0.215,0.098 -0.25,0.211 l -1.446,4.793 -2.132,-2.996 -0.485,0.344 2.488,3.492 c 0.063,0.094 0.176,0.141 0.289,0.125 0.114,-0.02 0.204,-0.102 0.239,-0.211 l 1.422,-4.723 1.875,3.184 c 0.058,0.098 0.172,0.152 0.289,0.144 0.117,-0.015 0.215,-0.093 0.254,-0.207 l 1.48,-4.507 -0.566,-0.188"
         style="fill:#b9901c;fill-opacity:1;fill-rule:nonzero;stroke:none"
         id="path64" /><path
         d="m 171.977,148.191 c -0.075,0 -0.149,0.028 -0.204,0.082 l -5.82,5.559 0.41,0.43 5.504,-5.258 0.914,2.223 0.551,-0.227 -1.078,-2.625 c -0.035,-0.094 -0.117,-0.156 -0.215,-0.18 -0.019,-0.004 -0.039,-0.004 -0.062,-0.004"
         style="fill:#b78f1c;fill-opacity:1;fill-rule:nonzero;stroke:none"
         id="path66" /><path
         d="m 167.809,145.969 c -0.094,0 -0.18,0.043 -0.239,0.117 l -3.703,4.848 0.477,0.359 3.246,-4.25 1.14,10.68 0.59,-0.067 -1.215,-11.422 c -0.015,-0.121 -0.101,-0.222 -0.218,-0.254 -0.028,-0.007 -0.051,-0.011 -0.078,-0.011"
         style="fill:#b78f1c;fill-opacity:1;fill-rule:nonzero;stroke:none"
         id="path68" /><path
         d="m 163.852,142.168 -0.575,0.168 2.024,6.977 0.57,-0.165 -2.019,-6.98"
         style="fill:#b78f1c;fill-opacity:1;fill-rule:nonzero;stroke:none"
         id="path70" /><path
         d="m 168.898,128.203 -0.566,0.188 1.481,4.507 c 0.039,0.114 0.136,0.192 0.25,0.207 0.121,0.008 0.23,-0.046 0.289,-0.144 l 1.878,-3.184 1.422,4.723 c 0.032,0.109 0.125,0.191 0.239,0.211 0.113,0.019 0.222,-0.031 0.289,-0.125 l 2.488,-3.492 -0.484,-0.344 -2.137,2.996 -1.445,-4.793 c -0.032,-0.113 -0.129,-0.195 -0.247,-0.211 -0.117,-0.015 -0.234,0.043 -0.292,0.145 l -1.887,3.203 -1.278,-3.887"
         style="fill:#b9901c;fill-opacity:1;fill-rule:nonzero;stroke:none"
         id="path72" /><path
         d="m 132.871,124.359 c 0.141,-0.281 0.219,-0.597 0.285,-0.882 0.184,-0.758 0.344,-1.418 1.239,-1.715 0.226,-0.074 0.378,-0.289 0.378,-0.528 0,-1.484 0,-2.16 1.829,-2.48 0.019,-0.004 0.039,-0.008 0.058,-0.016 4.817,-1.375 13.543,-2.199 23.336,-2.199 9.922,0 18.453,0.805 23.41,2.199 0.016,0.008 0.035,0.012 0.055,0.016 1.762,0.316 1.762,0.996 1.762,2.48 0,0.239 0.152,0.454 0.379,0.528 0.894,0.297 1.054,0.957 1.238,1.715 0.07,0.285 0.144,0.601 0.285,0.882 -0.332,0.25 -0.602,0.598 -0.855,0.922 -0.563,0.727 -0.918,1.117 -1.516,0.992 -0.164,-0.035 -0.336,0.004 -0.469,0.11 -0.133,0.105 -0.207,0.265 -0.207,0.433 0,1.661 -1.25,2.008 -2.297,2.008 -0.57,0 -1.199,-0.109 -1.816,-0.312 -3.727,-1.242 -10.258,-1.848 -19.969,-1.848 -1.359,0.059 -2.703,0.109 -4.039,0.16 -6.246,0.227 -12.144,0.446 -15.926,1.688 -0.617,0.203 -1.246,0.312 -1.816,0.312 -1.047,0 -2.297,-0.347 -2.297,-2.008 0,-0.168 -0.074,-0.328 -0.207,-0.433 -0.129,-0.106 -0.301,-0.145 -0.469,-0.11 -0.597,0.125 -0.953,-0.265 -1.515,-0.992 -0.254,-0.324 -0.524,-0.672 -0.856,-0.922 z m 27.125,-8.933 c -10.019,0 -18.625,0.812 -23.617,2.234 -2.496,0.449 -2.703,1.805 -2.719,3.195 -1.152,0.563 -1.414,1.629 -1.59,2.36 -0.101,0.43 -0.179,0.711 -0.304,0.789 -0.106,0.008 -0.211,0.027 -0.317,0.055 -0.269,0.07 -0.445,0.332 -0.41,0.609 0.035,0.277 0.274,0.484 0.555,0.484 0.117,0 0.226,-0.007 0.336,-0.031 0.293,0.047 0.597,0.438 0.918,0.848 0.472,0.605 1.05,1.351 1.996,1.433 0.234,1.602 1.461,2.539 3.371,2.539 0.691,0 1.437,-0.128 2.168,-0.371 3.625,-1.191 9.449,-1.406 15.613,-1.632 1.34,-0.051 2.688,-0.098 4.027,-0.161 9.563,0 15.977,0.586 19.59,1.793 0.727,0.243 1.477,0.371 2.168,0.371 1.914,0 3.137,-0.937 3.371,-2.539 0.946,-0.082 1.528,-0.828 1.996,-1.433 0.321,-0.41 0.625,-0.801 0.922,-0.848 0.106,0.024 0.215,0.031 0.336,0.031 0.278,0 0.516,-0.207 0.551,-0.484 0.035,-0.277 -0.141,-0.539 -0.41,-0.609 -0.106,-0.028 -0.211,-0.047 -0.317,-0.055 -0.125,-0.078 -0.203,-0.359 -0.304,-0.789 -0.18,-0.731 -0.438,-1.797 -1.59,-2.36 -0.016,-1.386 -0.219,-2.746 -2.652,-3.195 -5.055,-1.422 -13.684,-2.234 -23.688,-2.234"
         style="fill:#b9901c;fill-opacity:1;fill-rule:nonzero;stroke:none"
         id="path74" /><path
         d="m 147.277,130.184 c 3.028,-0.403 6.395,-0.739 9.02,-0.403 1.48,0 2.558,-2.558 -0.402,-2.961 -2.625,-0.336 -6.731,0 -8.954,0.403 -1.886,0.336 -5.992,1.078 -8.617,1.82 -2.625,1.141 -0.738,3.363 0.739,3.027 2.289,-0.742 5.253,-1.48 8.214,-1.886 v 0"
         style="fill:#ffffff;fill-opacity:1;fill-rule:nonzero;stroke:none"
         id="path76" /><path
         d="m 138.754,131.805 c -0.637,0 -1.305,-0.508 -1.422,-1.086 -0.113,-0.543 0.281,-1.043 1.109,-1.403 2.637,-0.742 6.934,-1.511 8.551,-1.8 1.469,-0.266 4.004,-0.536 6.356,-0.536 0.965,0 1.808,0.043 2.507,0.133 1.071,0.149 1.661,0.602 1.614,1.25 -0.039,0.586 -0.598,1.121 -1.172,1.121 -0.688,-0.093 -1.512,-0.136 -2.418,-0.136 -2.274,0 -4.742,0.289 -6.641,0.543 -3.605,0.488 -6.726,1.398 -8.265,1.894 -0.051,0.012 -0.133,0.02 -0.219,0.02 z m 14.594,-5.422 c -2.387,0 -4.965,0.273 -6.461,0.547 -1.625,0.293 -5.942,1.062 -8.645,1.824 -1.601,0.695 -1.578,1.691 -1.496,2.086 0.18,0.859 1.078,1.562 2.008,1.562 0.129,0 0.254,-0.015 0.375,-0.043 1.547,-0.496 4.621,-1.39 8.172,-1.875 0.015,-0.004 0.035,-0.004 0.054,-0.007 1.875,-0.25 4.301,-0.536 6.524,-0.536 0.879,0 1.68,0.047 2.383,0.133 h 0.004 c 0.929,0 1.738,-0.765 1.8,-1.672 0.024,-0.367 -0.054,-1.593 -2.132,-1.879 -0.727,-0.093 -1.598,-0.14 -2.586,-0.14"
         style="fill:#b9901c;fill-opacity:1;fill-rule:nonzero;stroke:none"
         id="path78" /><path
         d="m 172.723,130.184 c -3.032,-0.403 -6.395,-0.739 -8.953,-0.403 -1.547,0 -2.625,-2.558 0.335,-2.961 2.625,-0.336 6.735,0 8.954,0.403 1.882,0.336 5.992,1.078 8.617,1.82 2.625,1.141 0.738,3.363 -0.742,3.027 -2.289,-0.742 -5.25,-1.48 -8.211,-1.886 v 0"
         style="fill:#ffffff;fill-opacity:1;fill-rule:nonzero;stroke:none"
         id="path80" /><path
         d="m 163.73,129.484 c -0.64,0 -1.16,-0.597 -1.195,-1.136 -0.043,-0.637 0.543,-1.086 1.61,-1.235 0.699,-0.09 1.543,-0.133 2.507,-0.133 2.352,0 4.887,0.27 6.352,0.536 1.617,0.289 5.914,1.058 8.59,1.812 0.793,0.348 1.187,0.848 1.074,1.391 -0.137,0.656 -0.996,1.211 -1.668,1.058 -1.516,-0.488 -4.633,-1.398 -8.238,-1.886 -1.899,-0.254 -4.367,-0.543 -6.617,-0.543 -0.895,0 -1.707,0.043 -2.415,0.136 z m 2.922,-3.101 c -0.988,0 -1.859,0.047 -2.586,0.14 -2.07,0.286 -2.148,1.5 -2.125,1.868 0.063,0.914 0.899,1.687 1.829,1.687 0.718,-0.09 1.507,-0.137 2.375,-0.137 2.214,0 4.656,0.289 6.539,0.539 3.554,0.485 6.636,1.383 8.16,1.872 0.144,0.035 0.273,0.05 0.402,0.05 0.926,0 1.828,-0.699 2.008,-1.562 0.082,-0.395 0.105,-1.391 -1.461,-2.07 -2.742,-0.778 -7.059,-1.551 -8.684,-1.84 -1.492,-0.274 -4.066,-0.547 -6.457,-0.547"
         style="fill:#b9901c;fill-opacity:1;fill-rule:nonzero;stroke:none"
         id="path82" /><path
         d="m 137.988,131.664 c -2.289,0.402 -3.367,-2.223 -2.625,-3.699 0.336,0.738 1.883,0.738 2.223,1.476 0.402,1.145 -0.34,1.145 0.402,2.223 v 0"
         style="fill:#ffffff;fill-opacity:1;fill-rule:nonzero;stroke:none"
         id="path84" /><path
         d="m 137.492,131.406 c -0.926,-0.011 -1.441,-0.621 -1.664,-0.984 -0.351,-0.567 -0.473,-1.281 -0.351,-1.879 0.253,0.187 0.574,0.312 0.886,0.437 0.41,0.161 0.832,0.325 0.95,0.586 0.144,0.414 0.109,0.637 0.066,0.872 -0.051,0.308 -0.07,0.578 0.113,0.968 z m -2.129,-3.742 c -0.113,0 -0.215,0.063 -0.265,0.164 -0.422,0.84 -0.332,2.008 0.222,2.906 0.59,0.957 1.61,1.418 2.719,1.223 0.102,-0.019 0.184,-0.086 0.223,-0.18 0.039,-0.093 0.027,-0.199 -0.028,-0.281 -0.343,-0.5 -0.312,-0.683 -0.265,-0.961 0.047,-0.269 0.101,-0.609 -0.102,-1.191 -0.23,-0.504 -0.765,-0.715 -1.285,-0.918 -0.406,-0.16 -0.828,-0.328 -0.949,-0.586 -0.047,-0.106 -0.149,-0.172 -0.266,-0.176 h -0.004"
         style="fill:#b9901c;fill-opacity:1;fill-rule:nonzero;stroke:none"
         id="path86" /><path
         d="m 146.941,124.781 c 0,1.477 1.481,1.297 1.481,2.778 0,0.738 -0.406,1.882 -1.145,1.882 -0.742,0 -1.48,-0.738 -1.48,-1.476 -0.34,-1.485 1.144,-1.707 1.144,-3.184"
         style="fill:#ffffff;fill-opacity:1;fill-rule:nonzero;stroke:none"
         id="path88" /><path
         d="m 147.277,129.145 c -0.578,0 -1.183,-0.61 -1.183,-1.18 0,-0.024 -0.004,-0.047 -0.008,-0.067 -0.148,-0.652 0.117,-0.996 0.453,-1.425 0.145,-0.188 0.301,-0.387 0.426,-0.618 0.156,0.219 0.348,0.387 0.519,0.536 0.356,0.312 0.637,0.562 0.637,1.168 0,0.636 -0.355,1.586 -0.844,1.586 z m -0.336,-4.665 c -0.168,0 -0.3,0.133 -0.3,0.301 0,0.59 -0.278,0.946 -0.571,1.324 -0.359,0.461 -0.765,0.985 -0.574,1.891 0.024,0.887 0.895,1.746 1.781,1.746 0.942,0 1.442,-1.269 1.442,-2.183 0,-0.875 -0.469,-1.286 -0.844,-1.614 -0.355,-0.312 -0.637,-0.562 -0.637,-1.164 0,-0.168 -0.133,-0.301 -0.297,-0.301"
         style="fill:#b9901c;fill-opacity:1;fill-rule:nonzero;stroke:none"
         id="path90" /><path
         d="m 157.594,129.039 c 2.222,0 2,-2.961 0.922,-4.441 0,1.078 -1.883,1.48 -1.883,2.218 0,1.149 1.703,1.149 0.961,2.223 v 0"
         style="fill:#ffffff;fill-opacity:1;fill-rule:nonzero;stroke:none"
         id="path92" /><path
         d="m 158.07,128.68 c 0.075,-0.496 -0.308,-0.809 -0.59,-1.035 -0.339,-0.282 -0.55,-0.477 -0.55,-0.829 0,-0.175 0.363,-0.425 0.683,-0.644 0.34,-0.234 0.735,-0.508 0.977,-0.867 0.418,0.867 0.59,2.023 0.211,2.765 -0.156,0.313 -0.403,0.516 -0.731,0.61 z m 0.45,-4.379 c -0.032,0 -0.063,0.004 -0.094,0.012 -0.121,0.042 -0.207,0.156 -0.207,0.285 0,0.429 -0.481,0.761 -0.946,1.082 -0.484,0.332 -0.937,0.644 -0.937,1.136 0,0.661 0.445,1.024 0.769,1.289 0.407,0.333 0.485,0.415 0.247,0.766 -0.067,0.094 -0.071,0.211 -0.02,0.309 0.051,0.097 0.152,0.16 0.262,0.16 1.015,0 1.508,-0.543 1.738,-1 0.578,-1.137 0.152,-2.918 -0.574,-3.918 -0.059,-0.078 -0.149,-0.121 -0.238,-0.121"
         style="fill:#b9901c;fill-opacity:1;fill-rule:nonzero;stroke:none"
         id="path94" /><path
         d="m 182.008,131.664 c 2.289,0.402 3.367,-2.223 2.625,-3.699 -0.336,0.738 -1.883,0.738 -2.223,1.476 -0.402,1.145 0.34,1.145 -0.402,2.223 v 0"
         style="fill:#ffffff;fill-opacity:1;fill-rule:nonzero;stroke:none"
         id="path96" /><path
         d="m 182.504,131.406 c 0.184,-0.39 0.164,-0.66 0.113,-0.968 -0.043,-0.235 -0.078,-0.458 0.074,-0.895 0.11,-0.238 0.532,-0.402 0.942,-0.563 0.312,-0.125 0.633,-0.25 0.887,-0.437 0.121,0.598 0,1.312 -0.352,1.879 -0.223,0.363 -0.738,0.973 -1.664,0.984 z m 2.129,-3.742 h -0.004 c -0.117,0.004 -0.219,0.07 -0.266,0.176 -0.121,0.258 -0.543,0.426 -0.949,0.586 -0.519,0.203 -1.055,0.414 -1.273,0.894 -0.215,0.606 -0.161,0.946 -0.114,1.215 0.047,0.278 0.078,0.461 -0.265,0.957 -0.059,0.086 -0.067,0.192 -0.028,0.285 0.039,0.094 0.121,0.161 0.223,0.18 1.109,0.195 2.129,-0.266 2.719,-1.223 0.554,-0.898 0.644,-2.066 0.222,-2.906 -0.05,-0.101 -0.152,-0.164 -0.265,-0.164"
         style="fill:#b9901c;fill-opacity:1;fill-rule:nonzero;stroke:none"
         id="path98" /><path
         d="m 173.055,124.781 c 0,1.477 -1.481,1.297 -1.481,2.778 0,0.738 0.406,1.882 1.145,1.882 0.742,0 1.48,-0.738 1.48,-1.476 0.34,-1.485 -1.144,-1.707 -1.144,-3.184 v 0"
         style="fill:#ffffff;fill-opacity:1;fill-rule:nonzero;stroke:none"
         id="path100" /><path
         d="m 172.719,129.145 c -0.489,0 -0.844,-0.95 -0.844,-1.586 0,-0.606 0.281,-0.856 0.637,-1.168 0.172,-0.149 0.363,-0.317 0.519,-0.536 0.125,0.231 0.282,0.43 0.426,0.618 0.336,0.429 0.602,0.773 0.453,1.425 -0.004,0.02 -0.008,0.043 -0.008,0.067 0,0.57 -0.605,1.18 -1.183,1.18 z m 0.336,-4.665 c -0.164,0 -0.297,0.133 -0.297,0.301 0,0.602 -0.281,0.852 -0.641,1.164 -0.371,0.328 -0.84,0.739 -0.84,1.614 0,0.914 0.5,2.183 1.442,2.183 0.886,0 1.758,-0.859 1.781,-1.746 0.191,-0.906 -0.215,-1.43 -0.574,-1.891 -0.293,-0.378 -0.571,-0.734 -0.571,-1.324 0,-0.168 -0.136,-0.301 -0.3,-0.301"
         style="fill:#b9901c;fill-opacity:1;fill-rule:nonzero;stroke:none"
         id="path102" /><path
         d="m 162.398,129.039 c -2.218,0 -2,-2.961 -0.921,-4.441 0,1.078 1.882,1.48 1.882,2.218 0.004,1.149 -1.699,1.149 -0.961,2.223"
         style="fill:#ffffff;fill-opacity:1;fill-rule:nonzero;stroke:none"
         id="path104" /><path
         d="m 161.926,128.68 c -0.328,-0.094 -0.574,-0.297 -0.731,-0.61 -0.379,-0.742 -0.207,-1.898 0.207,-2.765 0.243,0.359 0.637,0.633 0.981,0.867 0.316,0.219 0.68,0.469 0.68,0.644 0,0.352 -0.208,0.547 -0.551,0.829 -0.278,0.226 -0.664,0.539 -0.586,1.035 z m -0.449,-4.379 c -0.094,0 -0.184,0.043 -0.243,0.121 -0.726,1 -1.152,2.781 -0.57,3.918 0.231,0.457 0.719,1 1.734,1 0.114,0 0.215,-0.063 0.266,-0.16 0.051,-0.098 0.043,-0.215 -0.019,-0.309 -0.243,-0.351 -0.165,-0.433 0.246,-0.766 0.324,-0.265 0.769,-0.628 0.769,-1.289 0,-0.492 -0.457,-0.804 -0.941,-1.136 -0.465,-0.321 -0.946,-0.653 -0.946,-1.082 0,-0.129 -0.082,-0.243 -0.203,-0.285 -0.031,-0.008 -0.062,-0.012 -0.093,-0.012"
         style="fill:#b9901c;fill-opacity:1;fill-rule:nonzero;stroke:none"
         id="path106" /><path
         d="m 138.73,130.922 c 0.739,0 1.883,-0.336 2.219,-0.738 l -2.222,0.738 h 0.003"
         style="fill:#b9901c;fill-opacity:1;fill-rule:nonzero;stroke:none"
         id="path108" /><path
         d="m 140.949,129.973 c -0.019,0 -0.043,0.004 -0.066,0.011 l -2.203,0.735 c -0.024,0.008 -0.047,0.015 -0.067,0.027 -0.09,0.059 -0.121,0.176 -0.074,0.27 0.039,0.082 0.129,0.125 0.211,0.117 0.766,-0.008 1.91,-0.344 2.324,-0.778 0.059,-0.035 0.094,-0.101 0.094,-0.171 0,-0.118 -0.102,-0.2 -0.211,-0.211 h -0.008"
         style="fill:#b9901c;fill-opacity:1;fill-rule:nonzero;stroke:none"
         id="path110" /><path
         d="m 142.426,129.777 c 0.402,0 1.887,-0.336 2.625,-0.738 l -2.625,0.738 v 0"
         style="fill:#b9901c;fill-opacity:1;fill-rule:nonzero;stroke:none"
         id="path112" /><path
         d="m 145.051,128.828 c -0.02,0 -0.035,0.004 -0.055,0.008 l -2.601,0.734 c -0.051,0.008 -0.098,0.035 -0.133,0.075 -0.055,0.074 -0.063,0.171 -0.012,0.25 0.047,0.07 0.129,0.105 0.207,0.089 0.473,-0.015 1.91,-0.347 2.664,-0.746 0.086,-0.023 0.149,-0.105 0.149,-0.199 0,-0.117 -0.094,-0.203 -0.211,-0.211 0,0 -0.004,0 -0.008,0"
         style="fill:#b9901c;fill-opacity:1;fill-rule:nonzero;stroke:none"
         id="path114" /><path
         d="m 155.891,128.301 c -0.739,0 -2.219,0 -2.621,-0.336 l 2.621,0.336 v 0"
         style="fill:#b9901c;fill-opacity:1;fill-rule:nonzero;stroke:none"
         id="path116" /><path
         d="m 153.27,127.754 c -0.086,0 -0.161,0.051 -0.196,0.125 -0.035,0.086 -0.011,0.187 0.059,0.246 0.426,0.352 1.629,0.383 2.726,0.383 h 0.004 c 0.086,0.012 0.164,-0.028 0.207,-0.098 0.039,-0.066 0.039,-0.148 0.004,-0.215 -0.039,-0.066 -0.113,-0.101 -0.187,-0.105 l -2.59,-0.332 c -0.012,-0.004 -0.02,-0.004 -0.027,-0.004"
         style="fill:#b9901c;fill-opacity:1;fill-rule:nonzero;stroke:none"
         id="path118" /><path
         d="m 151.785,128.301 c -0.402,0.402 -1.883,0.402 -2.625,0 h 2.625 v 0"
         style="fill:#b9901c;fill-opacity:1;fill-rule:nonzero;stroke:none"
         id="path120" /><path
         d="m 151.785,128.09 h -2.625 c -0.094,0 -0.176,0.066 -0.199,0.156 -0.023,0.094 0.016,0.192 0.102,0.234 0.375,0.208 0.953,0.333 1.539,0.333 0.289,0 1.003,-0.036 1.332,-0.368 0.058,-0.058 0.078,-0.148 0.046,-0.226 -0.035,-0.078 -0.109,-0.129 -0.195,-0.129"
         style="fill:#b9901c;fill-opacity:1;fill-rule:nonzero;stroke:none"
         id="path122" /><path
         d="m 181.27,130.922 c -0.739,0 -1.817,-0.336 -2.219,-0.738 l 2.219,0.738"
         style="fill:#b9901c;fill-opacity:1;fill-rule:nonzero;stroke:none"
         id="path124" /><path
         d="m 179.051,129.973 c -0.071,0 -0.141,0.035 -0.18,0.097 -0.051,0.086 -0.039,0.192 0.031,0.258 0.473,0.473 1.629,0.805 2.368,0.805 0.105,0 0.191,-0.074 0.207,-0.18 0.015,-0.098 -0.043,-0.195 -0.141,-0.23 l -2.219,-0.739 c -0.023,-0.007 -0.047,-0.011 -0.066,-0.011"
         style="fill:#b9901c;fill-opacity:1;fill-rule:nonzero;stroke:none"
         id="path126" /><path
         d="m 177.57,129.777 c -0.406,0 -1.886,-0.336 -2.625,-0.738 l 2.625,0.738 v 0"
         style="fill:#b9901c;fill-opacity:1;fill-rule:nonzero;stroke:none"
         id="path128" /><path
         d="m 174.945,128.828 c -0.086,0 -0.164,0.051 -0.195,0.133 -0.039,0.098 0,0.211 0.094,0.262 0.746,0.406 2.215,0.746 2.695,0.761 0.082,0.016 0.168,-0.023 0.215,-0.097 0.047,-0.082 0.031,-0.188 -0.035,-0.254 -0.031,-0.031 -0.074,-0.055 -0.117,-0.063 L 175,128.836 c -0.02,-0.004 -0.035,-0.008 -0.055,-0.008"
         style="fill:#b9901c;fill-opacity:1;fill-rule:nonzero;stroke:none"
         id="path130" /><path
         d="m 164.102,128.301 c 0.742,0 2.222,0 2.628,-0.336 l -2.628,0.336 v 0"
         style="fill:#b9901c;fill-opacity:1;fill-rule:nonzero;stroke:none"
         id="path132" /><path
         d="m 166.73,127.754 c -0.011,0 -0.019,0 -0.027,0.004 l -2.598,0.332 c -0.054,0.004 -0.113,0.023 -0.152,0.062 -0.062,0.063 -0.078,0.161 -0.039,0.239 0.039,0.082 0.125,0.129 0.215,0.117 0,0 0,0 0.004,0 1.066,0 2.234,-0.028 2.691,-0.352 0.071,-0.035 0.121,-0.105 0.121,-0.191 0,-0.117 -0.086,-0.211 -0.211,-0.211 -0.004,0 -0.004,0 -0.004,0"
         style="fill:#b9901c;fill-opacity:1;fill-rule:nonzero;stroke:none"
         id="path134" /><path
         d="m 168.211,128.301 c 0.402,0.402 1.883,0.402 2.625,0 h -2.629 0.004"
         style="fill:#b9901c;fill-opacity:1;fill-rule:nonzero;stroke:none"
         id="path136" /><path
         d="m 170.836,128.09 h -2.629 c -0.117,0 -0.211,0.094 -0.211,0.211 0,0.066 0.035,0.129 0.086,0.168 0.336,0.308 1.027,0.344 1.313,0.344 0.589,0 1.164,-0.125 1.539,-0.333 0.086,-0.042 0.129,-0.14 0.101,-0.234 -0.023,-0.09 -0.105,-0.156 -0.199,-0.156"
         style="fill:#b9901c;fill-opacity:1;fill-rule:nonzero;stroke:none"
         id="path138" /><path
         d="m 138.105,125.004 c -0.25,0.051 -0.382,0.246 -0.32,0.48 0.078,0.289 0.305,0.45 0.524,0.375 0.136,-0.05 0.386,-0.304 0.39,-0.394 0,-0.106 -0.133,-0.352 -0.191,-0.356 -0.024,0 -0.063,-0.019 -0.082,-0.046 -0.047,-0.055 -0.196,-0.083 -0.321,-0.059 v 0"
         style="fill:#b9901c;fill-opacity:1;fill-rule:nonzero;stroke:none"
         id="path140" /><path
         d="m 163.879,123.168 c -0.094,0.031 -0.242,0.242 -0.242,0.336 0,0.184 0.269,0.48 0.433,0.48 0.082,0 0.309,-0.117 0.395,-0.203 0.152,-0.16 0.117,-0.418 -0.074,-0.566 -0.094,-0.074 -0.375,-0.102 -0.512,-0.047 v 0"
         style="fill:#b9901c;fill-opacity:1;fill-rule:nonzero;stroke:none"
         id="path142" /><path
         d="m 164.047,122.004 c -0.195,0.066 -0.27,0.16 -0.285,0.379 -0.016,0.23 0.004,0.265 0.246,0.394 l 0.172,0.094 0.164,-0.07 c 0.222,-0.102 0.324,-0.211 0.332,-0.363 0.008,-0.161 -0.113,-0.329 -0.301,-0.415 -0.164,-0.074 -0.176,-0.074 -0.328,-0.019 v 0"
         style="fill:#b9901c;fill-opacity:1;fill-rule:nonzero;stroke:none"
         id="path144" /><path
         d="m 138.488,123.711 c 0.039,0.008 0.067,0 0.102,-0.016 0.117,-0.05 0.121,-0.144 0,-0.25 -0.055,-0.043 -0.113,-0.09 -0.133,-0.086 -0.219,0.02 -0.281,0.051 -0.293,0.129 -0.008,0.075 0.016,0.094 0.16,0.164 0.074,0.036 0.125,0.051 0.164,0.059 z m 1.688,3.402 c -0.164,0.004 -0.387,-0.144 -0.516,-0.222 -0.305,-0.071 -0.66,-0.258 -0.953,-0.059 -0.289,0.09 -0.676,0.02 -0.719,-0.336 0.075,-0.305 0.504,-0.48 0.766,-0.277 0.191,0.25 0.715,0.398 0.773,-0.031 -0.214,-0.325 -0.187,-0.754 -0.367,-1.098 -0.027,-0.215 -0.117,-0.418 -0.234,-0.602 -0.215,-0.023 -0.446,0.004 -0.629,-0.133 -0.293,-0.015 -0.594,-0.164 -0.762,-0.41 -0.191,-0.273 -0.371,-0.547 -0.426,-0.879 0.051,-0.339 0.442,-0.437 0.735,-0.457 0.312,-0.086 0.625,-0.199 0.937,-0.293 0.508,-0.113 0.985,-0.296 1.496,-0.41 0.743,-0.222 1.524,-0.328 2.274,-0.527 0.078,-0.027 0.148,-0.051 0.234,-0.059 0.309,-0.066 0.473,0.274 0.496,0.528 0.157,0.543 0.274,1.097 0.426,1.64 0.106,0.223 0.234,0.715 -0.191,0.602 -0.243,-0.145 -0.446,-0.363 -0.746,-0.379 -0.411,-0.023 -0.176,-0.445 -0.016,-0.617 0.035,-0.274 -0.051,-0.606 -0.234,-0.821 -0.243,-0.156 -0.551,0.028 -0.805,0.086 -0.274,-0.004 -0.809,0.133 -0.559,0.5 0.09,0.27 0.098,0.567 0.203,0.836 0.141,0.289 0.161,0.602 0.223,0.91 -0.172,0.364 -0.461,-0.121 -0.691,-0.164 -0.157,-0.109 -0.75,-0.156 -0.438,-0.437 0.27,-0.207 0.063,-0.563 0.016,-0.82 -0.02,-0.364 -0.395,-0.45 -0.692,-0.368 -0.293,0.012 -0.703,0.235 -0.453,0.555 0.055,0.274 0.149,0.535 0.203,0.809 0.114,0.328 0.207,0.64 0.325,0.968 0.05,0.29 0.156,0.567 0.293,0.821 0.007,0.32 0.222,0.597 0.218,0.922 -0.019,0.16 -0.093,0.218 -0.187,0.222 v 0"
         style="fill:#b9901c;fill-opacity:1;fill-rule:nonzero;stroke:none"
         id="path146" /><path
         d="m 138,121.355 c -0.23,0.219 -0.195,0.379 0.148,0.633 0.149,0.11 0.239,0.098 0.407,-0.054 0.258,-0.239 0.269,-0.387 0.043,-0.59 -0.114,-0.098 -0.164,-0.121 -0.297,-0.121 -0.137,0 -0.176,0.015 -0.301,0.132 v 0"
         style="fill:#b9901c;fill-opacity:1;fill-rule:nonzero;stroke:none"
         id="path148" /><path
         d="m 139.434,120.922 c -0.231,0.058 -0.36,0.285 -0.293,0.512 0.058,0.203 0.093,0.222 0.394,0.226 0.336,0.004 0.399,-0.051 0.403,-0.347 0.003,-0.168 -0.012,-0.208 -0.094,-0.282 -0.098,-0.09 -0.281,-0.14 -0.41,-0.109 v 0"
         style="fill:#b9901c;fill-opacity:1;fill-rule:nonzero;stroke:none"
         id="path150" /><path
         d="m 181.242,120.887 c -0.105,0.086 -0.129,0.129 -0.129,0.242 0,0.191 0.11,0.332 0.352,0.441 0.32,0.145 0.449,0.125 0.57,-0.086 0.16,-0.285 0.153,-0.398 -0.039,-0.589 -0.105,-0.106 -0.125,-0.11 -0.367,-0.114 -0.238,0 -0.266,0.004 -0.387,0.106 v 0"
         style="fill:#b9901c;fill-opacity:1;fill-rule:nonzero;stroke:none"
         id="path152" /><path
         d="m 141.332,120.348 c -0.172,0.043 -0.258,0.172 -0.262,0.375 0,0.16 0.012,0.183 0.121,0.269 0.071,0.055 0.18,0.102 0.27,0.113 0.125,0.02 0.172,0.008 0.273,-0.062 0.258,-0.184 0.313,-0.363 0.164,-0.535 -0.16,-0.188 -0.312,-0.231 -0.566,-0.16 v 0"
         style="fill:#b9901c;fill-opacity:1;fill-rule:nonzero;stroke:none"
         id="path154" /><path
         d="m 151.617,119.887 c -0.039,0.047 -0.121,0.074 -0.129,0.133 0.016,0.261 0.028,0.527 0.11,0.773 0.047,0.246 0.004,0.504 0.09,0.742 0.089,0.434 0.089,0.883 0.191,1.317 0.004,0.222 0.023,0.445 0.09,0.66 0.074,0.336 0.004,0.691 0.105,1.023 -0.011,0.129 0.133,0.461 0.262,0.266 0.184,-0.274 0.426,-0.492 0.668,-0.711 0.203,-0.121 0.016,-0.293 -0.125,-0.352 -0.195,-0.078 -0.242,-0.293 -0.231,-0.48 -0.027,-0.195 -0.105,-0.379 -0.113,-0.578 -0.043,-0.293 -0.031,-0.59 -0.07,-0.879 -0.086,-0.285 -0.055,-0.594 -0.082,-0.887 0.004,-0.187 -0.086,-0.355 -0.074,-0.547 -0.024,-0.187 -0.032,-0.418 -0.192,-0.547 -0.152,-0.078 -0.375,-0.066 -0.5,0.067 v 0"
         style="fill:#b9901c;fill-opacity:1;fill-rule:nonzero;stroke:none"
         id="path156" /><path
         d="m 165.262,120.613 0.144,-0.015 0.016,-0.176 0.016,-0.176 -0.192,-0.058 c -0.101,-0.032 -0.191,-0.043 -0.191,-0.043 0,0 -0.043,0.023 -0.09,0.058 -0.102,0.074 -0.074,0.18 0.058,0.324 0.079,0.078 0.114,0.094 0.239,0.086 z m 0.293,3.871 c -0.227,-0.171 -0.43,-0.375 -0.633,-0.57 -0.277,-0.211 0.23,-0.336 0.293,-0.516 0.074,-0.273 0.07,-0.566 0.09,-0.847 0.082,-0.262 0.121,-0.535 0.101,-0.809 -0.023,-0.293 -0.406,-0.23 -0.57,-0.394 -0.231,-0.098 -0.324,-0.325 -0.5,-0.485 -0.113,-0.226 -0.148,-0.504 -0.16,-0.761 0.015,-0.211 -0.145,-0.446 0,-0.633 0.015,-0.024 0.039,-0.063 0.058,-0.086 0.047,-0.07 0.161,-0.016 0.235,-0.031 0.234,0.015 0.48,-0.024 0.703,0.074 0.566,0.097 1.141,0.105 1.715,0.133 0.351,-0.012 0.691,0.109 1.043,0.101 0.273,-0.062 0.398,0.238 0.394,0.453 -0.156,0.309 -0.019,0.672 -0.148,0.985 -0.11,0.316 -0.067,0.668 -0.117,0.996 -0.004,0.258 -0.332,0.351 -0.496,0.164 -0.161,-0.164 -0.418,-0.195 -0.543,-0.399 -0.141,-0.281 0.293,-0.281 0.367,-0.5 0.082,-0.214 0.054,-0.457 0.074,-0.687 0.051,-0.277 -0.25,-0.293 -0.441,-0.324 -0.25,-0.094 -0.606,-0.157 -0.75,0.148 -0.086,0.227 -0.075,0.465 -0.102,0.703 -0.004,0.418 -0.105,0.832 -0.133,1.246 -0.023,0.516 -0.109,1.028 -0.144,1.539 -0.004,0.215 -0.036,0.563 -0.336,0.5 v 0"
         style="fill:#b9901c;fill-opacity:1;fill-rule:nonzero;stroke:none"
         id="path158" /><path
         d="m 148.02,123.02 c 0.07,-0.012 0.109,-0.098 0.117,-0.25 0.008,-0.172 0.093,-0.313 0.203,-0.34 0.086,-0.02 0.078,-0.11 -0.016,-0.176 -0.051,-0.035 -0.148,-0.059 -0.32,-0.059 -0.27,0.004 -0.441,0.075 -0.586,0.219 l -0.09,0.09 0.133,0.09 c 0.066,0.051 0.187,0.152 0.266,0.234 0.132,0.137 0.218,0.199 0.293,0.192 z m 3.179,1.949 c -0.176,-0.067 -0.402,-0.328 -0.586,-0.324 -0.414,-0.028 -0.355,-0.43 -0.058,-0.571 0.039,-0.125 0.004,-0.277 0.015,-0.41 0.059,-0.371 -0.175,-0.672 -0.132,-1.043 -0.02,-0.406 -0.145,-0.805 -0.161,-1.215 -0.117,-0.426 -0.117,-0.859 -0.191,-1.293 -0.051,-0.386 -0.328,-0.25 -0.57,-0.144 -0.004,0.168 -0.016,0.332 -0.016,0.496 0.102,0.383 -0.207,0.496 -0.516,0.543 -0.32,-0.031 -0.476,0.246 -0.41,0.527 0.141,0.164 0.489,0.121 0.703,0.149 0.461,-0.094 0.446,0.519 0.207,0.73 -0.16,0.301 -0.562,0.43 -0.675,0.734 0.046,0.407 -0.223,0.813 -0.555,1.012 -0.512,0.035 -0.899,-0.402 -1.086,-0.836 -0.215,-0.058 -0.426,-0.125 -0.633,-0.203 -0.332,-0.086 -0.805,-0.66 -0.351,-0.883 0.257,-0.066 1.035,-0.246 0.691,-0.597 -0.195,-0.332 -0.562,-0.34 -0.895,-0.25 -0.339,0 -0.718,0.164 -0.703,0.554 -0.07,0.356 -0.058,0.735 -0.222,1.059 -0.067,0.394 -0.516,0.301 -0.539,-0.059 -0.344,-0.254 -0.301,-0.656 -0.063,-0.953 0.152,-0.344 0.004,-0.742 -0.144,-1.058 -0.09,-0.411 -0.543,-0.422 -0.868,-0.555 -0.156,-0.063 -0.761,0.035 -0.539,-0.309 0.352,-0.125 0.774,-0.238 1.141,-0.144 0.387,0.047 0.723,0.308 0.91,0.644 0.262,0.262 0.707,0.125 1.043,0.129 0.359,0.004 0.731,-0.254 1.082,-0.086 0.106,0.266 0.574,0.703 0.719,0.25 -0.024,-0.406 0.336,-0.625 0.707,-0.574 0.402,0.024 0.254,-0.285 0.246,-0.527 0.027,-0.438 0.313,-0.668 0.676,-0.852 0.125,-0.031 0.258,-0.019 0.383,0 0.347,0.113 0.726,0.27 0.836,0.66 0.14,0.321 0.144,0.684 0.246,1.012 0.086,0.531 0.191,1.063 0.207,1.602 0.129,0.484 0.093,1 0.191,1.492 0.063,0.367 0.106,0.734 0.145,1.101 -0.043,0.196 -0.125,0.227 -0.235,0.192 v 0"
         style="fill:#b9901c;fill-opacity:1;fill-rule:nonzero;stroke:none"
         id="path160" /><path
         d="m 176.434,120.832 c 0.086,0.004 0.156,-0.027 0.207,-0.07 0.086,-0.078 0.082,-0.192 -0.016,-0.266 -0.062,-0.051 -0.41,-0.043 -0.527,0 -0.055,0.02 -0.075,0.047 -0.075,0.102 0,0.066 0.02,0.109 0.133,0.164 0.098,0.043 0.196,0.07 0.278,0.07 z m -4.34,0.559 c 0.094,-0.024 0.183,-0.094 0.207,-0.207 0.027,-0.149 0.004,-0.215 -0.117,-0.278 -0.106,-0.051 -0.344,-0.07 -0.411,-0.027 -0.023,0.012 -0.066,0.047 -0.089,0.086 -0.032,0.058 -0.028,0.086 0.015,0.117 0.028,0.023 0.059,0.059 0.059,0.074 0,0.016 0.031,0.074 0.07,0.133 0.07,0.09 0.172,0.125 0.266,0.102 z m 2.582,0.675 c 0.051,0.008 0.097,-0.019 0.16,-0.074 0.086,-0.074 0.113,-0.133 0.133,-0.277 0.015,-0.106 0.011,-0.238 0,-0.293 -0.024,-0.109 -0.028,-0.102 -0.266,-0.106 -0.301,-0.003 -0.328,0.032 -0.32,0.309 0.004,0.176 0.004,0.227 0.101,0.324 0.075,0.074 0.141,0.11 0.192,0.117 z m 4.191,0.043 c 0.176,0.012 0.281,-0.043 0.352,-0.175 0.086,-0.157 0.027,-0.274 -0.188,-0.368 -0.097,-0.043 -0.191,-0.074 -0.207,-0.074 -0.015,0.004 -0.094,0.047 -0.176,0.106 -0.125,0.082 -0.144,0.121 -0.144,0.218 -0.004,0.149 0.16,0.282 0.363,0.293 z m -3.062,0.161 c 0.058,0.003 0.125,-0.028 0.234,-0.086 0.207,-0.114 0.352,-0.301 0.352,-0.457 0,-0.098 -0.028,-0.106 -0.176,-0.176 -0.094,-0.043 -0.199,-0.086 -0.235,-0.086 -0.085,0 -0.292,0.168 -0.292,0.234 0,0.028 -0.028,0.133 -0.059,0.219 -0.055,0.152 -0.047,0.148 0.027,0.25 0.051,0.062 0.09,0.102 0.149,0.102 z m 3.195,4.445 c -0.266,-0.016 -0.531,-0.059 -0.777,-0.117 -0.489,0.027 -0.735,-0.485 -0.262,-0.735 0.281,-0.718 0.723,0.149 1.172,0.086 0.676,-0.129 0.73,-0.859 0.836,-1.406 0.039,-0.543 0.195,-1.07 0.351,-1.582 0.45,-0.504 -0.34,-0.816 -0.675,-0.426 -0.286,0.313 -0.899,0.692 -1.247,0.262 -0.421,-0.18 -0.441,-0.746 -0.789,-0.906 -0.57,-0.176 -0.64,0.523 -0.941,0.82 -0.273,0.387 -0.801,0.422 -1.23,0.555 -0.204,0.41 -0.098,1.101 -0.512,1.379 -0.352,-0.141 -0.992,-0.797 -0.457,-1.098 0.523,-0.453 -0.227,-0.66 -0.469,-0.969 -0.344,-0.383 -0.398,-0.906 -0.453,-1.394 -0.594,-0.325 -0.707,0.371 -0.777,0.808 -0.047,0.52 -0.489,0.367 -0.793,0.176 -0.446,-0.18 -0.668,-0.605 -0.981,-0.938 -0.039,-0.304 0.016,-0.636 0.012,-0.953 0.101,-0.382 0.566,-0.203 0.851,-0.175 0.461,0.191 0.649,-0.297 0.278,-0.575 -0.246,-0.316 -1.039,-0.148 -0.965,-0.66 0.254,-0.027 0.519,-0.019 0.777,0 0.512,0.141 1.059,0.5 1.114,1.071 0.066,0.496 0.781,0.406 1.171,0.515 0.489,0.141 1.079,0.176 1.188,-0.441 0.336,-0.348 1.055,-0.742 1.422,-0.266 0.375,0.231 0.554,0.629 0.527,1.059 -0.074,0.367 0.598,0.383 0.766,0.175 0.242,-0.402 1.008,-0.285 1.379,-0.058 0.39,0.289 0.476,0.801 1.039,0.805 0.836,0.25 1.707,0.394 2.523,0.707 0.66,0.14 -0.101,0.558 -0.265,0.804 -0.504,0.25 -0.942,-0.769 -1.512,-0.265 -0.438,0.336 -0.406,0.976 -0.571,1.468 -0.113,0.637 -0.082,1.372 -0.542,1.875 -0.317,0.336 -0.743,0.418 -1.188,0.399 v 0"
         style="fill:#b9901c;fill-opacity:1;fill-rule:nonzero;stroke:none"
         id="path162" /><path
         d="m 168.379,118.57 c -0.047,0.032 -0.113,0.059 -0.047,0.106 0.082,0.14 0.242,0.191 0.387,0.246 0.258,0.109 0.48,0.301 0.644,0.523 0.024,0.157 0.2,0.243 0.2,0.403 0,0.222 0.015,0.453 -0.04,0.672 -0.058,0.199 -0.21,0.351 -0.386,0.457 -0.121,0.093 -0.317,0.121 -0.364,0.285 -0.023,0.164 0.122,0.285 0.168,0.429 0.106,0.196 0.196,0.403 0.309,0.598 0.121,0.133 0.309,0.008 0.371,-0.125 0.09,-0.129 0.168,-0.269 0.211,-0.422 0.141,-0.152 0.27,-0.336 0.32,-0.543 0.071,-0.144 0.18,-0.285 0.172,-0.453 0,-0.195 0.11,-0.371 0.106,-0.566 0.004,-0.262 0.004,-0.539 -0.09,-0.785 -0.067,-0.137 -0.199,-0.219 -0.285,-0.344 -0.153,-0.141 -0.317,-0.274 -0.508,-0.348 -0.137,-0.043 -0.215,-0.199 -0.387,-0.16 -0.238,-0.004 -0.484,-0.035 -0.722,0.004 0.015,-0.027 -0.075,0.043 -0.059,0.023 v 0"
         style="fill:#b9901c;fill-opacity:1;fill-rule:nonzero;stroke:none"
         id="path164" /><path
         d="m 165.164,118.359 c -0.113,0.118 -0.141,0.168 -0.141,0.286 0,0.113 0.024,0.16 0.133,0.273 0.207,0.207 0.305,0.211 0.66,0.031 0.34,-0.172 0.454,-0.187 0.485,-0.062 0.031,0.117 0.226,0.222 0.41,0.222 0.117,0.004 0.184,-0.019 0.277,-0.093 0.121,-0.094 0.125,-0.106 0.129,-0.321 0,-0.215 -0.004,-0.222 -0.137,-0.343 -0.128,-0.114 -0.152,-0.122 -0.312,-0.106 -0.203,0.02 -0.328,0.113 -0.363,0.277 -0.024,0.118 -0.063,0.145 -0.094,0.063 -0.012,-0.023 -0.063,-0.055 -0.113,-0.07 -0.094,-0.024 -0.258,-0.125 -0.371,-0.235 -0.043,-0.039 -0.122,-0.058 -0.247,-0.058 -0.164,-0.004 -0.187,0.007 -0.316,0.136 v 0"
         style="fill:#b9901c;fill-opacity:1;fill-rule:nonzero;stroke:none"
         id="path166" /><path
         d="m 162.094,120.691 c 0.078,0 0.101,-0.023 0.133,-0.164 0.023,-0.086 0.046,-0.195 0.058,-0.234 0.02,-0.055 -0.008,-0.074 -0.086,-0.102 -0.234,-0.086 -0.465,-0.078 -0.543,0.028 -0.039,0.051 0.004,0.207 0.074,0.265 0.133,0.121 0.286,0.204 0.368,0.207 z m -5.293,0.118 c 0.164,-0.004 0.312,-0.028 0.469,-0.047 0.203,-0.032 0.418,0.07 0.617,0 0.461,-0.078 0.918,-0.059 1.379,-0.102 0.121,0 0.211,-0.086 0.293,-0.16 0,-0.32 0,-0.648 0,-0.969 -0.012,-0.121 0.035,-0.281 -0.075,-0.367 -0.035,-0.023 -0.074,-0.051 -0.117,-0.059 -0.125,0.036 -0.262,0.118 -0.32,0.235 -0.02,0.168 0.008,0.332 0.012,0.5 0,0.043 0.019,0.109 0,0.144 -0.098,0.075 -0.211,0.118 -0.336,0.118 -0.399,0.015 -0.789,0.043 -1.188,0.058 -0.332,0.024 -0.672,-0.027 -0.996,0.059 -0.129,0.047 -0.293,0.031 -0.367,0.164 -0.109,0.125 0.047,0.277 0.16,0.336 0.152,0.066 0.309,0.09 0.469,0.09 z m -0.938,1.726 c -0.312,0 -0.648,-0.265 -0.687,-0.57 0.07,-0.352 0.363,-0.699 0.176,-1.07 0.128,-0.473 -0.36,-0.657 -0.692,-0.379 -0.199,0.453 -0.301,0.953 -0.601,1.363 -0.375,0.105 -0.539,-0.496 -0.805,-0.703 0.133,-0.356 0.516,-0.676 0.559,-1.117 0.089,-0.43 -0.172,-0.907 -0.543,-1.129 -0.325,-0.309 -0.762,-0.196 -1.161,-0.266 -0.48,-0.277 0.356,-0.383 0.575,-0.394 0.492,-0.051 1,0.015 1.363,0.382 0.359,0.172 0.332,0.797 0.762,0.864 0.746,0.035 1.484,-0.114 2.226,-0.129 0.399,-0.098 1.016,0.047 1.293,-0.25 0,-0.52 0.442,-0.84 0.863,-1.043 0.235,-0.067 0.481,0.226 0.719,0.277 0.453,0.145 0.317,0.707 0.586,0.926 0.777,0.043 1.559,0.031 2.332,0.043 0.149,-0.004 0.192,0.207 0.293,0.293 -0.016,0.301 -0.027,0.597 -0.07,0.894 -0.153,0.379 0.023,0.868 -0.25,1.188 -0.391,0.105 -0.723,-0.25 -1.117,-0.277 -0.434,-0.196 -0.801,-0.594 -0.821,-1.086 -0.258,-0.418 -0.668,0.074 -0.527,0.425 -0.016,0.153 0.031,0.332 -0.016,0.469 -0.234,0.285 -0.652,0.192 -0.98,0.234 -0.481,-0.019 -0.945,0.086 -1.422,0.075 -0.422,0.031 -0.855,-0.035 -1.262,0.074 -0.484,0.012 -0.418,0.484 -0.5,0.82 -0.086,0.063 -0.187,0.09 -0.293,0.086 v 0"
         style="fill:#b9901c;fill-opacity:1;fill-rule:nonzero;stroke:none"
         id="path168" /><path
         d="m 159.988,147.223 c 15.317,11.781 14.004,29.035 14.004,29.035 -0.406,-0.082 -0.789,-0.121 -1.191,-0.121 -3.215,0 -10.879,1.84 -12.664,4.172 -1.914,-2.114 -9.746,-4.172 -12.938,-4.172 -0.406,0 -0.808,0.039 -1.191,0.121 0,0 -1.336,-17.254 13.98,-29.035 v 0"
         style="fill:#ffffff;fill-opacity:1;fill-rule:nonzero;stroke:none"
         id="path170" /><path
         d="m 146.262,175.938 c -0.078,-2.333 -0.028,-17.672 13.726,-28.375 13.758,10.703 13.821,26.05 13.746,28.375 -0.316,-0.047 -0.617,-0.071 -0.933,-0.071 -3.102,0 -10.52,1.731 -12.68,4.043 -2.363,-2.195 -9.965,-4.043 -12.922,-4.043 -0.32,0 -0.633,0.024 -0.937,0.071 z m 13.726,-29.055 -0.164,0.125 c -15.258,11.734 -14.101,29.097 -14.086,29.269 l 0.024,0.309 0.301,-0.063 c 0.363,-0.078 0.746,-0.117 1.136,-0.117 3.239,0 10.903,2.059 12.739,4.086 l 0.214,0.238 0.2,-0.257 c 1.703,-2.227 9.293,-4.067 12.449,-4.067 0.379,0 0.742,0.039 1.137,0.117 l 0.3,0.059 0.024,-0.305 c 0.011,-0.172 1.144,-17.535 -14.11,-29.269 l -0.164,-0.125"
         style="fill:#b9901c;fill-opacity:1;fill-rule:nonzero;stroke:none"
         id="path172" /><path
         d="m 172.77,174.992 c -0.133,-0.008 -0.266,-0.012 -0.399,-0.012 -2.91,0 -9.676,1.497 -12.281,3.735 -2.731,-2.067 -9.606,-3.735 -12.469,-3.735 -0.137,0 -0.266,0.016 -0.398,0.043 -0.008,-0.652 0.027,-1.328 0.066,-1.945 0.152,-2.301 0.555,-4.605 1.168,-6.828 1.93,-6.988 5.871,-12.93 11.527,-17.434 5.664,4.508 9.614,10.454 11.543,17.45 0.618,2.218 1.02,4.527 1.172,6.828 0.039,0.601 0.074,1.261 0.071,1.898 v 0"
         style="fill:#ffffff;fill-opacity:1;fill-rule:nonzero;stroke:none"
         id="path174" /><path
         d="m 147.438,174.777 c 0,-0.625 0.039,-1.25 0.066,-1.683 0.148,-2.25 0.539,-4.531 1.16,-6.785 1.906,-6.918 5.715,-12.707 11.32,-17.215 5.614,4.508 9.426,10.304 11.336,17.226 0.625,2.254 1.016,4.539 1.164,6.785 0.032,0.465 0.067,1.059 0.071,1.665 -0.063,0 -0.121,-0.004 -0.184,-0.004 -2.781,0 -9.473,1.394 -12.289,3.675 -2.836,-2.039 -9.504,-3.675 -12.461,-3.675 -0.062,0 -0.121,0.004 -0.183,0.011 z m 12.546,-26.234 -0.132,0.105 c -5.668,4.52 -9.68,10.582 -11.602,17.543 -0.629,2.286 -1.023,4.594 -1.176,6.872 -0.031,0.5 -0.074,1.246 -0.066,1.96 l 0.004,0.258 0.25,-0.047 c 0.136,-0.027 0.25,-0.039 0.359,-0.039 2.883,0 9.699,1.692 12.34,3.692 l 0.137,0.105 0.132,-0.113 c 2.618,-2.246 9.446,-3.684 12.141,-3.684 0.129,0 0.258,0.004 0.383,0.016 l 0.226,0.012 0.004,-0.227 c 0.004,-0.691 -0.035,-1.391 -0.07,-1.918 -0.152,-2.277 -0.547,-4.59 -1.18,-6.871 -1.921,-6.969 -5.937,-13.039 -11.613,-17.559 l -0.137,-0.105"
         style="fill:#b9901c;fill-opacity:1;fill-rule:nonzero;stroke:none"
         id="path176" /><path
         d="m 155.016,176.406 c -2.758,-0.867 -5.739,-1.422 -7.391,-1.422 -0.137,0 -0.266,0.02 -0.395,0.043 -0.007,-0.652 0.032,-1.332 0.071,-1.949 0.152,-2.301 0.547,-4.598 1.16,-6.816 1.297,-4.703 3.519,-8.934 6.555,-12.567 v 22.711 0"
         style="fill:#b9901c;fill-opacity:1;fill-rule:nonzero;stroke:none"
         id="path178" /><path
         d="M 164.691,176.449 V 153.34 c 3.188,3.719 5.504,8.074 6.844,12.933 0.617,2.219 1.008,4.52 1.16,6.817 0.039,0.605 0.078,1.269 0.075,1.906 -0.133,-0.008 -0.262,-0.016 -0.399,-0.016 -1.75,0 -4.887,0.551 -7.68,1.469 v 0"
         style="fill:#b9901c;fill-opacity:1;fill-rule:nonzero;stroke:none"
         id="path180" /><path
         d="m 155.602,184.707 -0.645,-2.676 c 1.645,0.895 2.898,2.051 2.914,2.063 l 0.207,0.191 1.844,-1.933 c 0.664,0.793 1.656,1.703 1.703,1.746 l 0.207,0.187 0.195,-0.203 c 0.012,-0.016 1.407,-1.461 3.508,-1.758 -0.066,0.293 -0.258,0.813 -0.445,1.246 l 0.465,0.313 c 0.449,-0.461 1.804,-0.735 2.828,-0.867 -1.692,1.937 -3.09,7.285 -2.895,11.699 0.207,5.121 -0.769,6.894 -1.371,7.496 -0.879,0.879 -3.816,1.684 -5.754,1.793 h -0.082 c -0.164,0 -0.379,-0.027 -0.484,-0.156 -0.113,-0.137 -0.078,-0.348 -0.078,-0.348 l 0.094,-0.449 -0.446,0.113 c -2.269,0.582 -4.129,0.641 -4.863,0.149 -0.25,-0.165 -0.481,-0.672 -0.602,-1.321 -0.097,-0.519 -0.089,-0.941 -0.05,-1.148 1.39,1.019 2.843,0.519 4.168,-1.399 0.929,-1.343 0.769,-4.953 -0.387,-8.781 -1.004,-3.344 -3.352,-6.633 -4.309,-7.887 1.672,0.289 3.66,1.539 3.684,1.551 z m -1.489,-3.727 0.61,2.524 c -0.895,-0.5 -2.645,-1.356 -4.035,-1.356 h -0.606 l 0.387,0.465 c 0.031,0.043 3.398,4.164 4.621,8.215 1.234,4.098 1.168,7.274 0.461,8.293 -0.528,0.762 -1.344,1.668 -2.27,1.668 -0.39,0 -0.785,-0.16 -1.179,-0.476 -0.106,-0.083 -0.211,-0.125 -0.321,-0.125 -0.097,0 -0.343,0.042 -0.457,0.417 -0.211,0.696 0.063,2.649 0.864,3.184 0.863,0.574 2.66,0.566 4.976,0.016 0.027,0.129 0.082,0.273 0.188,0.406 0.218,0.262 0.554,0.387 1.039,0.363 2.086,-0.117 5.148,-0.98 6.132,-1.961 0.813,-0.816 1.743,-2.851 1.536,-7.922 -0.227,-5.113 1.734,-11.078 3.363,-11.796 l -0.137,-0.547 c -0.258,0.019 -2.14,0.156 -3.355,0.656 0.304,-0.871 0.191,-1.043 0.136,-1.125 -0.062,-0.098 -0.168,-0.156 -0.289,-0.156 v 0 c -2.019,0.187 -3.449,1.308 -3.961,1.769 -0.375,-0.351 -1.191,-1.14 -1.644,-1.746 l -0.203,-0.269 -1.918,2.011 c -0.496,-0.429 -1.809,-1.496 -3.395,-2.254 l -0.543,-0.254"
         style="fill:#b9901c;fill-opacity:1;fill-rule:nonzero;stroke:none"
         id="path182" /><path
         d="m 155.383,183.887 -0.445,0.398 c 1.886,2.098 2.933,9.66 2.945,9.738 l 0.59,-0.082 c -0.043,-0.316 -1.086,-7.824 -3.09,-10.054"
         style="fill:#b78f1c;fill-opacity:1;fill-rule:nonzero;stroke:none"
         id="path184" /><path
         d="m 158.328,183.742 -0.523,0.285 c 1.312,2.414 1.726,10.094 1.73,10.172 l 0.598,-0.027 c -0.02,-0.324 -0.426,-7.899 -1.805,-10.43"
         style="fill:#b78f1c;fill-opacity:1;fill-rule:nonzero;stroke:none"
         id="path186" /><path
         d="m 161.535,183.781 c -0.523,1.485 -0.531,9.739 -0.531,10.09 h 0.598 c 0,-2.359 0.089,-8.738 0.496,-9.891 l -0.563,-0.199"
         style="fill:#b78f1c;fill-opacity:1;fill-rule:nonzero;stroke:none"
         id="path188" /><path
         d="m 165.102,183.512 c -1.789,2.633 -2.223,9.621 -2.239,9.918 l 0.594,0.035 c 0.004,-0.07 0.438,-7.121 2.141,-9.617 l -0.496,-0.336"
         style="fill:#b78f1c;fill-opacity:1;fill-rule:nonzero;stroke:none"
         id="path190" /><path
         d="m 153.602,202.16 c -0.801,-0.039 -1.297,-0.933 -1.497,-1.39 0.387,0.253 0.782,0.386 1.176,0.386 0.871,0 1.739,-0.617 2.571,-1.828 0.175,-0.254 0.312,-0.601 0.414,-1.043 0.07,0.121 0.175,0.242 0.312,0.36 0.106,0.093 0.293,0.14 0.582,0.14 0.328,0 0.703,-0.062 0.922,-0.101 -2.043,3.379 -4.152,3.48 -4.391,3.48 -0.031,0 -0.062,0 -0.089,-0.004"
         style="fill:#b78f1c;fill-opacity:1;fill-rule:nonzero;stroke:none"
         id="path192" /><path
         d="m 156.633,198.582 c -0.289,-0.25 -0.379,-0.461 -0.395,-0.613 0.016,-0.082 0.032,-0.16 0.043,-0.25 v 0 0 0 c 0,0 -0.062,0.094 -0.043,0.25 -0.097,0.558 -0.246,1.008 -0.453,1.312 -0.937,1.364 -2.301,2.504 -3.863,1.25 0,0 0.531,1.657 1.676,1.711 0.882,0.059 2.886,-0.66 4.652,-3.679 0,0 -1.305,0.296 -1.617,0.019 z m 1.687,0.023 c -1.605,2.75 -3.5,3.723 -4.629,3.723 -0.035,0 -0.07,0 -0.101,0 -1.184,-0.058 -1.727,-1.699 -1.746,-1.769 l -0.086,-0.262 0.215,0.172 c 1.238,0.988 2.511,0.554 3.742,-1.235 0.195,-0.285 0.344,-0.703 0.441,-1.246 -0.023,-0.187 0.047,-0.304 0.055,-0.316 l 0.152,0.058 c -0.011,0.09 -0.023,0.176 -0.039,0.258 0.031,0.168 0.156,0.352 0.364,0.532 0.046,0.046 0.171,0.097 0.472,0.097 0.469,0 1.067,-0.133 1.07,-0.133 l 0.188,-0.043 -0.098,0.164"
         style="fill:#b78f1c;fill-opacity:1;fill-rule:nonzero;stroke:none"
         id="path194" /><path
         d="m 156.281,197.719 v 0 0 z"
         style="fill:#b78f1c;fill-opacity:1;fill-rule:nonzero;stroke:none"
         id="path196" /><path
         d="m 156.281,197.719 c -0.011,0.09 -0.027,0.168 -0.043,0.25 -0.019,-0.156 0.043,-0.25 0.043,-0.25"
         style="fill:#b78f1c;fill-opacity:1;fill-rule:nonzero;stroke:none"
         id="path198" /><path
         d="m 158.082,198.684 c -0.219,0.039 -0.594,0.101 -0.922,0.101 -0.289,0 -0.476,-0.047 -0.582,-0.14 -0.137,-0.118 -0.242,-0.239 -0.312,-0.36 -0.102,0.442 -0.239,0.789 -0.414,1.043 -0.832,1.211 -1.7,1.828 -2.571,1.828 -0.394,0 -0.789,-0.133 -1.176,-0.386 0.2,0.457 0.696,1.351 1.497,1.39 0.027,0.004 0.058,0.004 0.089,0.004 0.239,0 2.348,-0.101 4.391,-3.48 z m -4.484,3.558 c -1.145,-0.054 -1.676,-1.711 -1.676,-1.711 1.562,1.254 2.926,0.114 3.863,-1.25 0.207,-0.304 0.356,-0.754 0.453,-1.312 0.016,0.152 0.106,0.363 0.395,0.613 0.312,0.277 1.617,-0.019 1.617,-0.019 -1.766,3.019 -3.77,3.738 -4.652,3.679"
         style="fill:#b78f1c;fill-opacity:1;fill-rule:nonzero;stroke:none"
         id="path200" /><path
         d="m 159.445,201.359 c -0.304,0 -0.55,0.246 -0.55,0.551 0,0.309 0.246,0.555 0.55,0.555 0.305,0 0.551,-0.246 0.551,-0.555 0,-0.305 -0.246,-0.551 -0.551,-0.551 z m 5.653,-0.043 c -0.188,0.457 -0.422,0.832 -0.715,1.153 -0.949,0.949 -3.949,1.785 -5.996,1.898 -0.414,0.024 -0.699,-0.078 -0.875,-0.289 -0.145,-0.18 -0.168,-0.394 -0.164,-0.527 -1.231,0.304 -2.34,0.469 -3.227,0.469 -0.808,0 -1.422,-0.133 -1.82,-0.403 -0.336,-0.215 -0.535,-0.73 -0.621,-1.012 l -0.035,-0.093 0.148,-0.071 c 0.004,0.008 0.426,0.719 1.699,0.825 0.203,0.011 0.375,0.019 0.531,0.019 0.946,0 1.364,-0.258 2.227,-0.941 1.094,-0.864 1.922,-1.25 2.457,-1.156 0.059,0 0.129,-0.122 0.195,-0.227 0.043,-0.074 0.09,-0.152 0.153,-0.227 0.023,-0.023 0.039,-0.05 0.054,-0.074 0.094,-0.144 0.184,-0.23 0.594,-0.23 0.246,0 0.402,0.269 0.535,0.504 0.071,0.121 0.137,0.238 0.2,0.289 0.214,0.168 0.617,0.257 0.91,0.328 l 0.105,0.023 c 0.477,0.117 0.77,0.141 1.082,0.164 0.121,0.012 0.242,0.02 0.379,0.035 0.035,0.004 0.156,0.016 0.348,0.016 0.379,0 1.301,-0.051 1.656,-0.551 l 0.023,-0.035 h 0.204 l -0.047,0.113"
         style="fill:#b78f1c;fill-opacity:1;fill-rule:nonzero;stroke:none"
         id="path202" /></g></g></svg>
