<?xml version="1.0" encoding="UTF-8" standalone="no"?>
<svg
   xmlns:dc="http://purl.org/dc/elements/1.1/"
   xmlns:cc="http://creativecommons.org/ns#"
   xmlns:rdf="http://www.w3.org/1999/02/22-rdf-syntax-ns#"
   xmlns:svg="http://www.w3.org/2000/svg"
   xmlns="http://www.w3.org/2000/svg"
   version="1.1"
   id="svg2"
   xml:space="preserve"
   width="42.666668"
   height="42.666668"
   viewBox="0 0 42.666668 42.666668"><metadata
     id="metadata8"><rdf:RDF><cc:Work
         rdf:about=""><dc:format>image/svg+xml</dc:format><dc:type
           rdf:resource="http://purl.org/dc/dcmitype/StillImage" /></cc:Work></rdf:RDF></metadata><defs
     id="defs6" /><g
     id="g10"
     transform="matrix(1.3333333,0,0,-1.3333333,0,42.666667)"><g
       id="g12"
       transform="scale(0.1)"><path
         d="M 27.1641,248.645 C 10.0156,223.176 0,192.547 0,159.648 0,127.055 9.83594,96.6953 26.6953,71.3516 L 320,160.141 27.1641,248.645"
         style="fill:#ea1737;fill-opacity:1;fill-rule:nonzero;stroke:none"
         id="path14" /><path
         d="M 27.1641,248.645 319.996,160.141 c -0.07,88.058 -71.902,159.855 -159.992,159.855 -55.535,0 -104.6017,-28.543 -133.3087,-71.699 0.0625,-0.039 0.1211,-0.078 0.1797,-0.117 0.1016,0.152 0.1875,0.312 0.2891,0.465"
         style="fill:#33b240;fill-opacity:1;fill-rule:nonzero;stroke:none"
         id="path16" /><path
         d="M 319.996,160.141 317.922,159.512 28.5313,71.9102 C 28.0781,71.6055 27.6211,71.3008 27.1641,70.9961 55.9414,28.2422 104.777,0.00390625 160.004,0.00390625 247.949,0.00390625 319.734,71.6055 320,159.512 c 0,0.156 0,0.328 0,0.496 0,0.047 -0.004,0.09 -0.004,0.133"
         style="fill:#5482cb;fill-opacity:1;fill-rule:nonzero;stroke:none"
         id="path18" /><path
         d="m 57.9766,128.777 c -2.7813,-0.765 -4.375,-2.922 -4.336,-4.961 l 13.6914,0.055 c 0.1211,2.188 -1.6757,4.211 -4.4179,5.008 13.4023,0.277 25.0468,5.301 27.164,8.519 -2.0937,0.911 -4.5156,-0.554 -6.2422,-0.214 4.0977,1.89 16.3751,9.839 14.3789,18.355 -1.5507,-4.73 -6.25,-8.644 -8.2539,-9.695 4.586,6.965 10.8481,14.215 5.418,19.828 0.2734,-3.254 -2.0703,-6.836 -3.1055,-7.106 2.6641,7.36 5.1993,16.598 -0.5625,22.688 0.7539,-2.203 0.4493,-8.41 -0.5937,-8.691 -0.3203,5.003 -1.1719,15.527 -6.4414,15.378 1.6719,-1.492 2.4062,-5.558 2.4414,-9.664 -1.1992,2.813 -2.5664,4.934 -5.4844,7.008 -2.3594,4.531 -6.5625,8.281 -10.7656,10.973 0.4726,-3.297 0.8633,-5.899 5.4648,-9.317 -2.3984,0.149 -4.7968,4.696 -7.3632,4.825 -2.0391,0.097 -3.6407,-1.852 -6.9727,-0.731 0.3711,-1.097 1.9258,-1.586 2.2539,-2.398 -0.7148,-0.496 -2.4102,0.074 -3.8203,0.808 1.9414,-2.64 4.9414,-4.191 7.4922,-3.668 3.0351,0.582 6.2851,0.274 9.3867,-1.492 -0.793,-0.406 -3.875,-0.402 -5.8555,-0.156 1.8008,-1.82 3.0039,-3.027 6.1328,-3.008 2.793,0.02 4.2579,1.492 4.9727,0.578 1.7539,-2.074 2.9297,-4.148 4.3945,-6.59 -3.2343,-0.359 -2.2578,3.661 -5.8633,5.715 -2.0273,-4.191 2.3282,-9.164 5.293,-11.226 0.0391,-3.153 0.5,-5.789 1.836,-8.188 0.9023,-1.691 2.0664,-3.422 1.6289,-7.238 -1.7774,1.293 -3.5118,5.652 -2.8711,9.109 -2.2227,-0.605 -3.0899,-4.508 -2.043,-6.476 0.7812,-1.496 1.3047,-4.36 0.4023,-5.641 -0.8789,-1.191 -0.9726,-1.059 -0.9609,-3.621 0.0313,-1.531 -0.8242,-3.344 -2.2187,-4.605 0.2929,1.078 0.625,2.937 0.3007,4.097 -1.1015,-1.871 -3.8672,-3.805 -4.7343,-5.812 -0.8555,-2.016 -1.0743,-5.504 -5.211,-6.309 -5.3203,-1.055 -7.1601,-1.98 -10.582,-3.379 -0.3789,2.602 0.7578,8.024 2.9336,7.715 2.1211,-0.379 8.5586,2.219 6.2578,7.645 -0.457,-1.711 -1.9727,-3.379 -3.6133,-3.454 1.7735,2.301 4.9336,4.68 3.3945,8.536 -0.8554,-1.641 -2.2031,-3.606 -4.246,-4.711 2.1914,4.195 0.2539,5.453 -2.3438,1.996 -0.9844,-1.332 -1.5781,-4.004 -2.1992,-7.399 -1.0235,2.758 -0.9531,6.391 -2.1641,9.34 -1.2656,3.192 1.6758,4.035 3.0625,3.777 3.3906,-0.906 9.0547,-0.902 8.6328,4.696 -1.4648,-1.895 -4.0312,-2.477 -6.8047,-1.797 3.1133,2.273 5.5743,6.551 2.1055,8.785 -0.1172,-2.367 -1.9492,-5.023 -4.3984,-6.246 -0.5703,1.996 -0.5703,4.117 -0.0821,6.441 -1.3632,-1.437 -2.3632,-4.429 -3.1562,-7.828 -0.0586,3.36 0.5781,5.782 1.0469,7.59 0.7148,2.645 2.4922,0.926 5.2148,0.731 2.6211,-0.149 6.2266,1.296 5.5391,4.851 -0.8985,-1.406 -2.7344,-1.953 -4.6094,-1.805 2.2578,1.372 6.1953,3.801 4.0352,7.54 -0.9063,-1.415 -1.1993,-2.625 -3.8243,-3.063 0.6875,1.582 0.8008,3.816 2.8399,4.703 -3.6328,0.723 -5.7149,-1.66 -6.7735,-5.394 -0.4257,2.589 -0.9375,3.543 -1.039,5.433 1.9648,2.184 2.168,6.449 -2.082,7.406 -0.254,-2.203 -0.1758,-2.726 0.3046,-4.519 -1.9961,1.184 -4.8086,1.84 -6.6796,0.164 1.2695,-1.371 3.2304,-2.574 6.2578,-1.082 -0.7149,-2.34 -2.5743,-1.938 -5.1289,-1.047 1.5625,-2.934 3.5351,-3.457 5.707,-3.117 1.1406,-3.004 1.1914,-5.285 -2.1367,-9.66 0.1523,2.718 -0.0391,4.746 -2.1992,6.941 -1.8516,1.813 -3.3555,-0.078 -0.4649,-4.105 -1.7539,1.293 -3.7383,3.914 -4.3359,6.535 -0.5782,-3.238 -0.0586,-7.059 1.7343,-9.195 -0.8476,-0.907 -1.8125,0.093 -3.2382,2.312 0.539,-7.094 3.5664,-8.465 7.6367,-6.883 0.1133,-3.894 0.1133,-7.5 0.3437,-12.203 -2.3711,3.41 -5.375,5.957 -7.0547,6.594 -0.5195,-1.91 1.4454,-4.395 2.5469,-5.785 -1.6797,0.347 -5.3242,3.125 -5.3242,3.125 -0.3633,-3.164 3.7227,-6.094 6.3633,-7.403 -3.1016,0.133 -4.4727,1.309 -6.4766,3.239 0.0391,-8.774 9.5039,-7.25 11.2774,-5.899 0.2304,-4.32 0.5625,-9.312 0.7929,-13.633 -2.6757,0.469 -2.4648,1.274 -4.7578,1.485 -6.3515,0.25 -11.3945,7.629 -13.0625,13.058 -0.4804,-0.894 -0.1015,-1.828 -0.539,-2.925 -1.0313,2.664 -2.3477,6.105 -4.1172,7.707 0.4492,-1.551 0.5,-3.129 0.3437,-6.036 -0.6094,1.883 -1.1719,2.457 -1.2148,4.668 0.039,1.696 1.6367,2.946 1.5469,5.332 -0.0625,1.739 -1.6524,5.512 -1.8868,8.434 -0.7656,-3.008 -1.25,-6.176 -2.4257,-8.035 0.582,3.211 0.3945,5.426 1.3867,7.586 1.1445,2.273 2.1172,4.304 1.3554,6.601 -0.7304,-0.886 -0.4804,-1.691 -2.3164,-3.847 -0.3984,2.343 2.375,6.093 5.0625,7.601 1.8946,1 4.2852,4.574 2.7305,7.024 -1.7852,-1.282 -2.5859,-3.012 -5.1055,-5.969 1.7969,7.023 6.4688,8.863 12.0586,8.887 1.2344,0.007 3.7305,0.453 4.4297,2.09 -1.5742,-0.61 -3.4375,-0.684 -5.0976,-0.352 1.207,1.769 3.75,1.539 6.1171,1.551 1.8555,0.008 4.754,0.258 5.9258,2.902 -2.2656,-0.98 -5.7968,-1.184 -8.0234,-0.488 3.5391,1.832 9.082,2.031 11.9219,4.437 -3.2383,2.418 -11.3438,-0.562 -16.4649,-4.078 1.4297,1.309 3.6914,3.633 4.9414,5.504 -2.8008,1.344 -9.8828,-6.504 -12.3242,-11.164 -2.3164,-1.309 -3.2422,-3.359 -4.1445,-4.789 1.2344,4.172 1.3672,7.199 2.3984,10.633 -7.9453,-2.735 -4.6445,-17.41 -6.3711,-20.922 0.2031,3.875 0.0391,8.855 -1.5586,11.426 -2.4453,-1.868 -2.6445,-12.856 -0.3476,-22 -0.8282,2.449 -2.3946,4.73 -2.8946,7.711 -3.6211,-6.606 2.1211,-14.399 6.9258,-20.551 -3.6172,1.883 -7.1914,5.933 -9.5429,9.332 0.6484,-11.824 12.996,-14.277 14.9101,-17.184 -2.6016,1.211 -7.5742,3.606 -9.6836,1.098 3.4375,-0.793 6.1758,-1.711 8.3828,-3.16 3.2032,-4 9.2696,-5.746 19.836,-6.192 v 0"
         style="fill:#fbc317;fill-opacity:1;fill-rule:nonzero;stroke:none"
         id="path20" /></g></g></svg>
