<?xml version="1.0" encoding="UTF-8" standalone="no"?>
<svg
   xmlns:dc="http://purl.org/dc/elements/1.1/"
   xmlns:cc="http://creativecommons.org/ns#"
   xmlns:rdf="http://www.w3.org/1999/02/22-rdf-syntax-ns#"
   xmlns:svg="http://www.w3.org/2000/svg"
   xmlns="http://www.w3.org/2000/svg"
   version="1.1"
   id="svg2"
   xml:space="preserve"
   width="42.666668"
   height="42.666668"
   viewBox="0 0 42.666668 42.666668"><metadata
     id="metadata8"><rdf:RDF><cc:Work
         rdf:about=""><dc:format>image/svg+xml</dc:format><dc:type
           rdf:resource="http://purl.org/dc/dcmitype/StillImage" /></cc:Work></rdf:RDF></metadata><defs
     id="defs6" /><g
     id="g10"
     transform="matrix(1.3333333,0,0,-1.3333333,0,42.666667)"><g
       id="g12"
       transform="scale(0.1)"><path
         d="M 105.66,9.50781 V 310.488 c 16.988,6.129 35.27,9.473 54.344,9.473 19.09,0 37.375,-3.344 54.363,-9.473 V 9.50781 C 197.379,3.39844 179.094,0.0507813 160.004,0.0507813 c -19.074,0 -37.356,3.3476587 -54.344,9.4570287"
         style="fill:#2e64b0;fill-opacity:1;fill-rule:evenodd;stroke:none"
         id="path14" /><path
         d="M 105.66,310.488 V 9.52734 C 44.0508,31.7695 0,90.7578 0,160.008 c 0,69.25 44.0508,128.211 105.66,150.48"
         style="fill:#ffffff;fill-opacity:1;fill-rule:evenodd;stroke:none"
         id="path16" /><path
         d="M 214.367,9.52734 V 310.488 C 275.949,288.219 320,229.258 320,160.008 320,90.7578 275.949,31.7695 214.367,9.52734"
         style="fill:#fbc907;fill-opacity:1;fill-rule:evenodd;stroke:none"
         id="path18" /><path
         d="m 147.211,193.855 c 8.371,1.594 17.156,1.594 25.504,0 2.289,-0.332 2.988,-2.738 3.75,-4.578 2.047,-1.929 5.039,-1.797 7.57,-1.484 1.891,-1.551 -0.949,-3.75 -2.043,-4.938 0.656,-0.41 1.344,-0.859 2.043,-1.242 -0.312,-0.648 -0.254,-1.703 -1.207,-1.633 -3.117,-0.562 -6.426,-0.07 -9.461,0.938 -0.492,0.34 -1.148,1.281 -1.84,0.742 -0.25,-0.988 1.254,-0.988 1.84,-0.742 3.348,-2.852 3.149,-9.523 -1.301,-10.918 -0.586,-1.145 -1.191,-2.332 -1.687,-3.523 0.293,0 0.949,0.046 1.305,0.089 0.89,1.254 2.129,2.2 3.73,2.289 0.199,1.145 0,2.583 0.941,3.485 1.551,0.445 3.032,-0.649 4.633,-0.289 3.625,0.605 7.227,-2.293 7.727,-5.887 0.484,-4.383 -0.699,-9.059 1.187,-13.301 1.598,-4.539 7.075,-6.269 8.02,-11.254 1.789,0.5 1.601,2.289 0.808,3.598 -1.097,1.84 1.676,3.523 3.036,2.129 2.445,-2.242 2.039,-6.781 -0.707,-8.625 -1.383,-1.074 -3.274,-0.875 -4.918,-0.941 0.336,-1.235 1.195,-2.18 2.226,-2.918 0.207,-3.258 -1.691,-6.09 -2.988,-8.922 -1.676,-1.258 -7.164,-1.844 -5.977,1.527 0.411,2.293 4.59,2.449 3.235,5.234 -1.637,1.551 -3.528,2.942 -4.621,5.028 -0.043,-0.735 -0.043,-1.481 0,-2.242 -1.641,-1.348 -2.453,-3.329 -3.735,-4.918 -1.633,-1.102 -3.793,-0.61 -5.586,-0.293 -0.14,2.136 1.016,4.136 3.11,4.828 1.875,0.734 0.027,2.676 -0.211,3.933 -0.199,2.246 1.742,3.727 3.269,5.032 -1.429,1.39 -3.183,2.332 -4.875,3.437 -1.883,1.348 -2.375,3.77 -4.035,5.367 -0.281,-4.781 0.113,-9.66 -0.183,-14.441 -0.403,-3.688 -3.801,-6.02 -7.024,-7.125 -5.984,-1.93 -12.676,-1.883 -18.535,0.449 -2.856,1.106 -5.641,3.399 -5.977,6.676 -0.336,4.781 0.11,9.609 -0.199,14.394 -1.644,-1.593 -2.164,-4.046 -4.094,-5.32 -1.586,-1.105 -3.328,-2.047 -4.824,-3.398 1.293,-1.188 2.985,-2.328 3.297,-4.172 0.5,-1.598 -1.512,-2.852 -0.894,-4.379 1.98,-0.965 4.351,-2.609 3.636,-5.149 -1.57,-0.785 -3.582,-0.699 -5.187,0 -1.504,1.598 -2.289,3.801 -4.094,5.235 0.113,0.699 0.207,1.394 0.293,2.047 -1.242,-1.348 -2.199,-3.035 -3.809,-4.039 -1.558,-0.746 -1.625,-3.243 0.082,-3.825 1.797,-0.804 2.832,-2.738 2.086,-4.652 -2.031,0.16 -5.14,-0.894 -6.265,1.399 -1.051,2.691 -2.895,5.183 -2.602,8.222 0.988,0.805 1.887,1.75 2.156,3.051 -1.664,0 -3.558,-0.199 -4.902,0.875 -2.777,1.953 -3.137,6.695 -0.445,8.785 1.457,1.188 3.91,-0.652 2.789,-2.359 -0.727,-1.239 -1,-3.324 1.051,-3.324 0.695,4.781 6.05,6.421 7.66,10.714 2.246,4.469 0.629,9.614 1.496,14.332 0.75,3.391 4.207,5.387 7.488,5.434 l -0.265,-0.242 c -0.086,-0.09 -0.274,-0.293 -0.383,-0.453 -3.403,-0.403 -6.535,-3.141 -6.27,-6.762 0.047,-5.438 0.586,-11.66 -3.504,-15.953 -2.179,-1.996 -4.625,-3.926 -5.484,-6.914 -0.668,-2.11 -3.57,-0.199 -3.18,1.386 0.262,1.247 0.711,2.434 1,3.692 -1.301,0.203 -2.98,-0.113 -2.539,-1.801 -0.039,-0.039 -0.152,-0.152 -0.199,-0.199 -0.156,-0.16 -0.402,-0.402 -0.496,-0.492 -1.289,-4.043 3.164,-7.282 6.812,-5.688 0.157,-1.793 -0.492,-3.48 -2.015,-4.465 0.039,-2.851 1.566,-5.347 2.777,-7.839 1.305,-1.239 3.484,-0.383 5.121,-0.586 -0.402,1.347 -0.98,2.699 -2.375,3.277 -2.168,0.742 -1.933,3.93 -0.156,4.945 1.637,0.989 2.801,2.492 3.332,4.266 0.641,-0.203 1.312,-0.449 1.894,-0.629 0,-0.699 -0.043,-1.344 -0.085,-2.047 1.39,-1.387 2.179,-3.144 3.363,-4.644 1.355,-0.747 3.015,-0.344 4.488,-0.344 -0.441,1.801 -1.539,3.285 -3.43,3.844 0.215,-0.313 0.496,-0.801 0.653,-1.098 -0.039,0.094 -0.199,0.203 -0.27,0.25 -1.176,1.297 -1.484,2.937 -0.488,4.422 1.434,2.601 -1.582,4.445 -3.324,5.84 1.789,2.089 4.582,2.988 6.511,4.918 1.383,1.957 2.497,4.132 4.356,5.726 -0.07,-5.074 -0.117,-10.148 0,-15.265 -0.07,-3.106 2.285,-5.641 5.012,-6.793 6.375,-2.829 13.984,-2.829 20.425,0 2.59,1.105 4.832,3.484 4.973,6.429 0.207,5.184 -0.051,10.352 0.109,15.539 2.688,-1.996 3.289,-5.843 6.434,-7.316 1.586,-0.859 3.023,-2.008 4.375,-3.238 -1.352,-1.106 -2.949,-2.09 -3.68,-3.75 -0.453,-1.778 1.59,-3.325 0.782,-5.164 -1.723,-1.059 -3.774,-2.051 -3.891,-4.387 1.402,0 2.949,-0.246 4.344,0.297 1.183,1.547 2.039,3.39 3.433,4.824 -0.043,0.656 -0.136,1.305 -0.203,1.891 0.653,0.246 1.305,0.492 1.957,0.761 0.492,-3.636 6.309,-4.488 4.426,-8.672 -1.883,-0.562 -3.191,-1.953 -3.637,-3.839 1.391,-0.09 2.742,-0.09 4.129,0 0.117,0.16 0.32,0.41 0.406,0.543 h 0.157 l 0.09,-0.09 c 1.792,2.203 2.898,5.035 3.234,7.859 -1.531,1.012 -2.254,2.695 -2.094,4.535 1.848,-0.293 4.043,-0.648 5.442,0.86 2.175,1.793 2.293,6.464 -0.707,7.453 -1.875,-0.336 -0.489,-2.336 -0.192,-3.485 0.781,-1.965 -2.836,-4.015 -3.344,-1.386 -0.992,3.839 -5.023,5.39 -6.808,8.714 -2.703,4.247 -1.797,9.411 -1.953,14.149 -0.043,3.391 -3.153,6.519 -6.582,6.137 -1.684,-0.321 -3.43,0.785 -5.032,0.039 -0.25,-1.395 -0.047,-2.832 0.246,-4.219 -1.644,1.484 -3.582,0.492 -4.468,-1.258 -1.145,0 -2.297,0 -3.434,0 0.742,1.547 1.547,3.098 2.328,4.574 0.364,0.25 0.707,0.5 1.106,0.75 2.078,1.59 3.398,4.735 1.84,7.114 -0.954,1.957 -3.192,2.546 -5.196,2.949 -0.043,-0.695 0.711,-2.496 -0.621,-1.84 -1.547,2.398 -4.492,3.227 -7.234,2.937 0.199,0.743 0.402,1.485 0.609,2.293 -0.562,0.25 -1.058,0.54 -1.555,0.782 -0.554,-0.289 -1.058,-0.575 -1.55,-0.946 0.199,-0.734 0.402,-1.429 0.652,-2.171 -2.383,0.453 -4.578,-0.813 -6.781,-1.458 0,-0.5 0.039,-0.945 0.105,-1.437 -0.289,-0.047 -0.851,-0.09 -1.14,-0.137 -0.27,0.629 -0.5,1.324 -0.809,2.016 0.445,-1.594 -0.848,-3.434 -1.844,-1.317 0.496,0.426 0.996,0.938 1.508,1.43 -2.648,-1.055 -4.836,-3.14 -5.031,-6.133 0.695,-1.226 1.32,-2.449 2.039,-3.679 2.433,-0.903 2.992,-3.727 4.187,-5.774 -1.195,0.047 -2.339,0.047 -3.554,0.047 -0.832,1.688 -2.477,2.402 -4.266,1.688 0,1.339 0.625,3.046 -0.406,4.132 -1.485,-0.14 -2.942,-0.429 -4.445,-0.429 0.175,0.133 0.562,0.429 0.722,0.582 1.231,0.297 2.531,0.652 3.891,0.609 1.426,-0.609 1.133,-2.406 1.308,-3.637 1.618,-0.05 2.856,-0.996 3.715,-2.25 0.332,-0.043 0.992,-0.043 1.281,-0.089 -0.453,1.281 -0.98,2.492 -1.683,3.636 -0.617,0.137 -1.199,0.289 -1.734,0.379 -2.024,3.305 -2.649,7.488 0.375,10.317 0.863,-0.403 1.921,0.109 1.96,1.054 2.969,0.047 5.872,0.742 8.711,1.684 0.746,1.008 1.188,2.898 2.75,2.785 1.594,0.156 2.129,-1.73 2.871,-2.785 2.606,-0.852 5.278,-1.551 8.063,-1.637 -1.52,1.188 -2.914,2.485 -3.934,4.129 -3.64,0.496 -7.312,0.649 -10.953,0.363 -0.136,0.176 -0.488,0.582 -0.629,0.786 4.508,0.16 9.055,0.203 13.586,-0.5 -0.297,-0.493 -0.543,-0.985 -0.855,-1.547 3.996,-3.774 9.93,-5.438 15.301,-4.223 -0.899,0.695 -1.789,1.348 -2.696,1.977 1.504,1.097 2.739,2.406 3.426,4.089 -2.769,-0.449 -6.012,-0.296 -8.258,1.704 -0.699,1.238 -0.992,2.718 -2.004,3.828 -0.175,-0.047 -0.535,-0.047 -0.738,-0.094 -0.539,0 -1.098,0 -1.598,0.094 0.454,0.203 0.946,0.402 1.399,0.601 -8.508,1.438 -17.336,1.688 -25.84,-0.047 -2.109,-0.402 -2.238,-2.785 -3.137,-4.293 -2.164,-2.089 -5.437,-2.242 -8.23,-1.75 0.594,-1.726 1.898,-3.035 3.379,-4.132 -0.871,-0.629 -1.844,-1.348 -2.68,-1.977 5.191,-1.094 11.059,0.25 14.945,4.023 0.157,0.606 -0.183,1.192 -0.3,1.797 0.336,0.047 0.996,0.11 1.281,0.157 0.449,0 1.265,0 1.68,-0.047 0.484,-0.16 0.933,-0.313 1.386,-0.563 -0.855,-0.043 -1.703,-0.152 -2.566,-0.199 -1.07,-1.805 -2.52,-3.281 -4.36,-4.223 -0.761,-0.109 -1.55,-0.363 -1.96,-1.054 -3.262,-0.696 -6.797,-1.735 -10.106,-0.653 -1.453,1.051 0.496,2.246 1.398,2.739 -1.355,1.3 -3.234,2.906 -2.445,4.992 2.692,-0.449 6.012,-0.657 8.039,1.5 0.715,1.843 1.473,4.183 3.762,4.468"
         style="fill:#ffffff;fill-opacity:1;fill-rule:nonzero;stroke:none"
         id="path20" /><path
         d="m 147.125,193.07 c 8.504,1.735 17.332,1.485 25.84,0.047 -0.453,-0.199 -0.945,-0.398 -1.399,-0.601 -7.968,1.39 -16.164,1.457 -24.05,-0.141 -4.782,-1.145 -0.344,-9.52 3.347,-6.492 -0.902,0.203 -1.843,0.402 -2.746,0.562 2.692,1.801 6.231,1.106 9.321,1.598 4.765,-0.113 9.957,0.379 14.382,-1.555 -0.902,-0.203 -1.847,-0.402 -2.742,-0.605 3.547,-2.629 7.277,4.09 4.086,6.539 0.203,0.047 0.563,0.047 0.738,0.094 1.012,-1.11 1.305,-2.59 2.004,-3.828 2.246,-2 5.489,-2.153 8.258,-1.704 -0.687,-1.683 -1.922,-2.992 -3.426,-4.089 0.907,-0.629 1.797,-1.282 2.696,-1.977 -5.371,-1.215 -11.305,0.449 -15.301,4.223 0.312,0.562 0.558,1.054 0.855,1.547 -4.531,0.703 -9.078,0.66 -13.586,0.5 -1.007,-0.047 -2.004,-0.161 -3.019,-0.293 -0.285,-0.047 -0.945,-0.11 -1.281,-0.157 0.117,-0.605 0.457,-1.191 0.3,-1.797 -3.886,-3.773 -9.754,-5.117 -14.945,-4.023 0.836,0.629 1.809,1.348 2.68,1.977 -1.481,1.097 -2.785,2.406 -3.379,4.132 2.793,-0.492 6.066,-0.339 8.23,1.75 0.899,1.508 1.028,3.891 3.137,4.293"
         style="fill:#3c2a26;fill-opacity:1;fill-rule:nonzero;stroke:none"
         id="path22" /><path
         d="m 147.516,192.375 c 7.886,1.598 16.082,1.531 24.05,0.141 0.5,-0.094 1.059,-0.094 1.598,-0.094 3.191,-2.449 -0.539,-9.168 -4.086,-6.539 0.895,0.203 1.84,0.402 2.742,0.605 -4.425,1.934 -9.617,1.442 -14.382,1.555 -3.09,-0.492 -6.629,0.203 -9.321,-1.598 0.903,-0.16 1.844,-0.359 2.746,-0.562 -3.691,-3.028 -8.129,5.347 -3.347,6.492"
         style="fill:#9fa4a5;fill-opacity:1;fill-rule:nonzero;stroke:none"
         id="path24" /><path
         d="m 156.434,191.23 c 0.687,2.223 3.476,0.45 1.632,-1.304 -0.289,0.609 -0.582,1.191 -0.832,1.797 -0.113,-0.043 -0.242,-0.16 -0.363,-0.203 l -0.437,-0.29"
         style="fill:#665f49;fill-opacity:1;fill-rule:nonzero;stroke:none"
         id="path26" /><path
         d="m 161.617,192.172 c 1.348,-0.16 1.188,-2.199 1.727,-3.195 -1.141,0.14 -1.391,1.308 -1.672,2.183 -0.094,-0.937 -0.16,-2.043 -1.359,-2.133 0.41,1.055 0.746,2.133 1.304,3.145"
         style="fill:#3c2a26;fill-opacity:1;fill-rule:nonzero;stroke:none"
         id="path28" /><path
         d="m 152.742,190.535 c 0.207,1.324 1.719,1.477 2.508,0.625 -0.617,-0.043 -1.145,-0.043 -1.734,-0.09 0.043,-0.246 0.132,-0.785 0.183,-1.097 0.442,-0.407 0.934,-0.785 1.387,-1.239 -1.023,0.094 -2.703,0.383 -2.344,1.801"
         style="fill:#3c2a26;fill-opacity:1;fill-rule:nonzero;stroke:none"
         id="path30" /><path
         d="m 156.871,191.52 c 0.121,0.043 0.25,0.16 0.363,0.203 0.25,-0.606 0.543,-1.188 0.832,-1.797 0.258,-0.203 0.696,-0.539 0.969,-0.738 -0.762,0 -1.504,0.039 -2.242,0.039 0.039,0.746 0.039,1.554 0.078,2.293"
         style="fill:#3c2a26;fill-opacity:1;fill-rule:nonzero;stroke:none"
         id="path32" /><path
         d="m 164.699,188.977 c 0.199,1.105 0.406,2.183 0.614,3.238 0.531,-0.606 1.031,-1.188 1.539,-1.84 0,0.34 0,0.984 0,1.348 0.183,0 0.636,0 0.836,0.05 -0.2,-1.058 -0.336,-2.05 -0.543,-3.085 -0.45,0.429 -0.899,0.945 -1.301,1.394 -0.336,-0.402 -0.739,-0.805 -1.145,-1.105"
         style="fill:#3c2a26;fill-opacity:1;fill-rule:nonzero;stroke:none"
         id="path34" /><path
         d="m 150.996,188.133 c -2.133,-0.653 -3.234,2.582 -0.945,3.027 1.547,-0.18 1.547,-1.933 0.945,-3.027"
         style="fill:#3c2a26;fill-opacity:1;fill-rule:nonzero;stroke:none"
         id="path36" /><path
         d="m 169.973,188.086 c -1.481,0.891 -1.039,3.523 0.902,3.144 1.504,-0.562 0.766,-2.292 -0.094,-3.054 0,0.941 0.047,1.84 0.094,2.742 -1.34,-0.293 -0.691,-1.891 -0.902,-2.832"
         style="fill:#3c2a26;fill-opacity:1;fill-rule:nonzero;stroke:none"
         id="path38" /><path
         d="m 137.023,185.84 c 2.743,0.156 5.532,0.695 7.774,2.336 1.074,-1.731 2.215,-3.528 4.269,-4.227 -3.105,-1.953 -6.796,-2.894 -10.464,-2.691 0.492,0.695 0.984,1.437 1.5,2.199 -1.149,0.652 -2.247,1.398 -3.079,2.383"
         style="fill:#9fa4a5;fill-opacity:1;fill-rule:nonzero;stroke:none"
         id="path40" /><path
         d="m 175.129,188.176 c 2.238,-1.688 5.023,-2.137 7.699,-2.336 -0.836,-0.942 -1.887,-1.731 -3.027,-2.34 0.445,-0.734 0.887,-1.504 1.34,-2.242 -3.637,-0.203 -7.282,0.738 -10.313,2.691 1.996,0.746 3.192,2.496 4.301,4.227"
         style="fill:#9fa4a5;fill-opacity:1;fill-rule:nonzero;stroke:none"
         id="path42" /><path
         d="m 158.473,184.484 c 0.492,0.371 0.996,0.657 1.55,0.946 0.497,-0.242 0.993,-0.532 1.555,-0.782 -0.207,-0.808 -0.41,-1.55 -0.609,-2.293 2.742,0.29 5.687,-0.539 7.234,-2.937 1.332,-0.656 0.578,1.145 0.621,1.84 2.004,-0.403 4.242,-0.992 5.196,-2.949 1.558,-2.379 0.238,-5.524 -1.84,-7.114 -0.301,0.114 -0.813,0.313 -1.106,0.403 0.254,0.16 0.746,0.496 1.055,0.695 -1.055,-0.047 -2.086,-0.047 -3.141,-0.09 0.039,-0.894 0.09,-1.758 0.09,-2.652 -0.453,0.297 -0.832,0.609 -1.277,0.851 -0.817,0.161 -2,-0.289 -2.199,0.793 0.742,0.446 1.503,0.805 2.289,1.207 -0.7,0.633 -1.356,1.286 -1.981,1.981 -0.805,-0.332 -1.543,-0.695 -2.363,-1.102 0.363,-0.785 1.398,-1.39 1.199,-2.293 -0.836,-0.695 -1.492,0.45 -2.144,0.903 -0.489,-0.293 -0.985,-0.543 -1.477,-0.786 2.637,-0.855 5.461,-1.195 8.063,-2.289 0.253,0.45 0.449,0.895 0.695,1.344 0.301,0.043 0.898,0.242 1.191,0.285 -0.781,-1.476 -1.586,-3.027 -2.328,-4.574 1.137,0 2.289,0 3.434,0 0.886,1.75 2.824,2.742 4.468,1.258 -0.293,1.387 -0.496,2.824 -0.246,4.219 1.602,0.746 3.348,-0.36 5.032,-0.039 3.429,0.382 6.539,-2.746 6.582,-6.137 0.156,-4.738 -0.75,-9.902 1.953,-14.149 1.785,-3.324 5.816,-4.875 6.808,-8.714 0.508,-2.629 4.125,-0.579 3.344,1.386 -0.297,1.149 -1.683,3.149 0.192,3.485 3,-0.989 2.882,-5.66 0.707,-7.453 -1.399,-1.508 -3.594,-1.153 -5.442,-0.86 -0.16,-1.84 0.563,-3.523 2.094,-4.535 -0.336,-2.824 -1.442,-5.656 -3.234,-7.859 l -0.09,0.09 c 0.246,2.554 2.629,4.644 2.328,7.187 -2.121,2.582 -1.992,5.977 -2.281,9.094 1.183,-1.324 1.585,-4.02 3.929,-3.528 3.598,0.161 4.785,5.395 1.887,7.368 1.207,-2.586 0.691,-7.411 -3.191,-6.129 -1.387,2.398 -2.465,5.031 -4.872,6.695 -3.644,3.074 -5.121,7.977 -4.882,12.598 -0.039,0.746 -0.039,1.488 -0.039,2.179 -0.25,-0.586 -0.512,-1.183 -0.805,-1.726 -0.246,0.203 -0.742,0.656 -0.988,0.828 -0.262,0.117 -0.704,0.207 -0.95,0.269 0,-0.351 0,-1.097 0,-1.507 0.34,-0.043 1.079,-0.082 1.442,-0.153 -1.844,-0.289 -3.727,-0.09 -5.574,0.2 -0.965,-1.235 -1.657,-2.586 -2.157,-4.09 1.141,-0.086 2.293,-0.129 3.45,-0.285 -3.004,-2.137 -6.032,0.89 -6.278,3.996 -1.015,-3.106 1.035,-5.84 3.567,-7.235 2.254,0.16 4.402,1.102 6.629,1.102 -2.129,-1.145 -4.512,-1.598 -6.797,-2.25 1.832,-3.028 5.558,-3.926 7.808,-6.574 1.735,-1.848 2.828,-4.188 3.434,-6.586 0.5,-2.672 4.297,-3.164 4.387,-6.067 0.402,-2.695 -2.543,-3.476 -3.887,-5.117 1.191,-0.109 2.449,-0.16 3.683,-0.269 -0.086,-0.133 -0.289,-0.383 -0.406,-0.543 -1.387,-0.09 -2.738,-0.09 -4.129,0 0.446,1.886 1.754,3.277 3.637,3.839 1.883,4.184 -3.934,5.036 -4.426,8.672 -0.652,-0.269 -1.304,-0.515 -1.957,-0.761 0.067,-0.586 0.16,-1.235 0.203,-1.891 -1.394,-1.434 -2.25,-3.277 -3.433,-4.824 -1.395,-0.543 -2.942,-0.297 -4.344,-0.297 0.117,2.336 2.168,3.328 3.891,4.387 0.808,1.839 -1.235,3.386 -0.782,5.164 0.731,1.66 2.328,2.644 3.68,3.75 -1.352,1.23 -2.789,2.379 -4.375,3.238 -3.145,1.473 -3.746,5.32 -6.434,7.316 -0.16,-5.187 0.098,-10.355 -0.109,-15.539 -0.141,-2.945 -2.383,-5.324 -4.973,-6.429 -6.441,-2.829 -14.05,-2.829 -20.425,0 -2.727,1.152 -5.082,3.687 -5.012,6.793 -0.117,5.117 -0.07,10.191 0,15.265 -1.859,-1.594 -2.973,-3.769 -4.356,-5.726 -1.929,-1.93 -4.722,-2.829 -6.511,-4.918 1.742,-1.395 4.758,-3.239 3.324,-5.84 -0.996,-1.485 -0.688,-3.125 0.488,-4.422 -1.933,0.648 -2.387,2.695 -1.332,4.285 1.403,2.047 -0.801,3.981 -2.398,4.871 -1.75,-0.199 -2.086,-2.398 -2.883,-3.637 0.746,-0.332 1.535,-0.644 2.305,-0.988 0.785,-3.14 2.464,-7.816 6.558,-6.871 -0.625,0.742 -1.304,1.438 -1.98,2.09 -0.157,0.297 -0.438,0.785 -0.653,1.098 1.891,-0.559 2.989,-2.043 3.43,-3.844 -1.473,0 -3.133,-0.403 -4.488,0.344 -1.184,1.5 -1.973,3.257 -3.363,4.644 0.042,0.703 0.085,1.348 0.085,2.047 -0.582,0.18 -1.253,0.426 -1.894,0.629 -0.531,-1.774 -1.695,-3.277 -3.332,-4.266 -1.777,-1.015 -2.012,-4.203 0.156,-4.945 1.395,-0.578 1.973,-1.93 2.375,-3.277 -1.637,0.203 -3.816,-0.653 -5.121,0.586 -1.211,2.492 -2.738,4.988 -2.777,7.839 1.523,0.985 2.172,2.672 2.015,4.465 -3.648,-1.594 -8.101,1.645 -6.812,5.688 0.094,0.09 0.34,0.332 0.496,0.492 -0.402,-2.453 0.691,-5.52 3.484,-5.731 2.34,-0.535 2.832,2.141 3.953,3.528 -0.312,-3.117 0,-6.555 -2.281,-9.094 -0.117,-2.043 1.387,-4.051 2.102,-5.98 0.558,-1.793 2.742,-0.938 4.16,-1.047 -1.301,1.793 -4.383,2.531 -3.93,5.226 0.129,2.836 3.817,3.395 4.352,6.02 0.957,3.933 3.508,7.48 7.054,9.414 1.665,0.898 3.129,2.207 4.223,3.793 -2.242,0.605 -4.633,0.988 -6.625,2.203 2.129,-0.063 4.242,-0.895 6.383,-1.055 2.824,1.395 4.586,4.489 3.836,7.614 -0.445,-3.075 -3.141,-6.668 -6.535,-4.375 1.144,0.109 2.297,0.199 3.484,0.285 -0.543,1.418 -0.859,3.148 -2.289,3.89 -2.547,0.153 -6.562,-1.527 -6.789,2.289 0.637,-5.976 -1.086,-12.437 -6.199,-16.039 -2.449,-1.386 -2.114,-6.672 -5.715,-5.433 -2.508,1.105 -1.563,4.09 -0.711,6.039 -0.609,-0.446 -1.219,-0.895 -1.758,-1.348 -0.441,1.688 1.238,2.004 2.539,1.801 -0.289,-1.258 -0.738,-2.445 -1,-3.692 -0.39,-1.585 2.512,-3.496 3.18,-1.386 0.859,2.988 3.305,4.918 5.484,6.914 4.09,4.293 3.551,10.515 3.504,15.953 -0.265,3.621 2.867,6.359 6.27,6.762 0.109,0.16 0.297,0.363 0.383,0.453 0.265,0 0.761,0 0.964,0 l -0.242,-0.207 c -0.16,-0.153 -0.547,-0.449 -0.722,-0.582 1.503,0 2.96,0.289 4.445,0.429 1.031,-1.086 0.406,-2.793 0.406,-4.132 1.789,0.714 3.434,0 4.266,-1.688 1.215,0 2.359,0 3.554,-0.047 -1.195,2.047 -1.754,4.871 -4.187,5.774 -0.719,1.23 -1.344,2.453 -2.039,3.679 0.195,2.993 2.383,5.078 5.031,6.133 -0.512,-0.492 -1.012,-1.004 -1.508,-1.43 0.996,-2.117 2.289,-0.277 1.844,1.317 0.309,-0.692 0.539,-1.387 0.809,-2.016 0.289,0.047 0.851,0.09 1.14,0.137 -0.066,0.492 -0.105,0.937 -0.105,1.437 2.203,0.645 4.398,1.911 6.781,1.458 -0.25,0.742 -0.453,1.437 -0.652,2.171"
         style="fill:#3c2a26;fill-opacity:1;fill-rule:nonzero;stroke:none"
         id="path44" /><path
         d="m 159.086,184.242 c 0.492,0.199 0.984,0.406 1.48,0.613 0.157,-1.152 0,-2.339 -0.132,-3.488 0.238,-0.109 0.777,-0.402 1.023,-0.512 -0.734,-0.046 -1.547,-0.046 -2.293,-0.089 0.746,1.097 0.508,2.375 -0.078,3.476"
         style="fill:#e4d612;fill-opacity:1;fill-rule:nonzero;stroke:none"
         id="path46" /><path
         d="m 162.113,181.816 c 0.489,0.789 1.649,-0.269 1.098,-0.898 -0.563,-0.805 -1.633,0.203 -1.098,0.898"
         style="fill:#ffffff;fill-opacity:1;fill-rule:nonzero;stroke:none"
         id="path48" /><path
         d="m 164.113,181.547 c 0.633,0.719 1.848,-0.379 1.082,-1.031 -0.699,-0.743 -1.851,0.339 -1.082,1.031"
         style="fill:#ffffff;fill-opacity:1;fill-rule:nonzero;stroke:none"
         id="path50" /><path
         d="m 153.559,180.719 c 0.902,0.289 1.351,-1.258 0.406,-1.508 -0.902,-0.293 -1.363,1.305 -0.406,1.508"
         style="fill:#ffffff;fill-opacity:1;fill-rule:nonzero;stroke:none"
         id="path52" /><path
         d="m 158.066,180.563 c 1.149,-0.739 -1.433,-1.235 -1.433,-0.297 0.398,0.453 0.898,0.543 1.433,0.297"
         style="fill:#e4d612;fill-opacity:1;fill-rule:nonzero;stroke:none"
         id="path54" /><path
         d="m 165.313,179.281 c 0.031,1.887 2.125,2.016 1.792,-0.113 -0.449,0.043 -1.347,0.043 -1.792,0.113"
         style="fill:#ffffff;fill-opacity:1;fill-rule:nonzero;stroke:none"
         id="path56" /><path
         d="m 170.094,180.672 c 0.98,0.336 1.273,-1.301 0.398,-1.504 -1.004,-0.34 -1.265,1.238 -0.398,1.504"
         style="fill:#ffffff;fill-opacity:1;fill-rule:nonzero;stroke:none"
         id="path58" /><path
         d="m 147.715,179.664 c 0.91,0.359 1.098,-1.199 0.312,-1.355 -0.945,-0.286 -1.214,1.152 -0.312,1.355"
         style="fill:#ffffff;fill-opacity:1;fill-rule:nonzero;stroke:none"
         id="path60" /><path
         d="m 171.684,180.113 c 0.89,-0.289 1.339,-1.039 1.543,-1.933 -0.512,0 -1.446,-0.047 -1.95,-0.047 0.09,0.492 0.289,1.488 0.407,1.98"
         style="fill:#ffffff;fill-opacity:1;fill-rule:nonzero;stroke:none"
         id="path62" /><path
         d="m 147.715,176.828 c 0.691,1.395 2.164,2.047 3.644,2.34 -1.195,-0.785 -2.421,-1.547 -3.644,-2.34"
         style="fill:#e4d612;fill-opacity:1;fill-rule:nonzero;stroke:none"
         id="path64" /><path
         d="m 158.473,174.789 c 0.25,1.594 0,3.434 1.148,4.738 0.051,-1.015 0.109,-1.957 0.109,-2.941 0.051,-0.203 0.051,-0.566 0.051,-0.746 -0.449,-0.36 -0.859,-0.715 -1.308,-1.051"
         style="fill:#665f49;fill-opacity:1;fill-rule:nonzero;stroke:none"
         id="path66" /><path
         d="m 159.621,179.527 c 0.16,-0.109 0.496,-0.199 0.656,-0.316 0.082,-0.941 0.782,-2.285 -0.547,-2.625 0,0.984 -0.058,1.926 -0.109,2.941"
         style="fill:#ffffff;fill-opacity:1;fill-rule:nonzero;stroke:none"
         id="path68" /><path
         d="m 152.211,178.625 c 0.672,0.793 1.754,-0.402 1.035,-1.055 -0.703,-0.781 -1.754,0.41 -1.035,1.055"
         style="fill:#ffffff;fill-opacity:1;fill-rule:nonzero;stroke:none"
         id="path70" /><path
         d="m 154.945,176.676 c -0.55,2.152 1.758,2.535 3.328,2.445 -0.046,-0.445 -0.093,-1.391 -0.144,-1.84 -1.051,-0.203 -2.145,-0.406 -3.184,-0.605"
         style="fill:#ffffff;fill-opacity:1;fill-rule:nonzero;stroke:none"
         id="path72" /><path
         d="m 161.82,179.074 c 1.485,0.137 4.024,-0.312 3.196,-2.398 -1.012,0.199 -2.051,0.402 -3.063,0.644 -0.043,0.453 -0.094,1.305 -0.133,1.754"
         style="fill:#ffffff;fill-opacity:1;fill-rule:nonzero;stroke:none"
         id="path74" /><path
         d="m 165.844,178.676 c 0.851,0.039 0.902,-1.196 0.648,-1.801 l -0.047,-0.336 c -0.152,-0.066 -0.39,-0.113 -0.535,-0.156 -0.347,0.652 -0.195,1.597 -0.066,2.293"
         style="fill:#ba9347;fill-opacity:1;fill-rule:nonzero;stroke:none"
         id="path76" /><path
         d="m 166.945,178.625 c 0.696,0.543 1.641,-0.602 0.895,-1.145 -0.695,-0.554 -1.633,0.653 -0.895,1.145"
         style="fill:#ffffff;fill-opacity:1;fill-rule:nonzero;stroke:none"
         id="path78" /><path
         d="m 169.188,178.918 c 0.585,0.363 1.886,-0.043 1.847,-0.785 -0.609,-0.27 -1.808,0.09 -1.847,0.785"
         style="fill:#e4d612;fill-opacity:1;fill-rule:nonzero;stroke:none"
         id="path80" /><path
         d="m 146.516,178.133 c 0.91,0.176 1.355,-1.305 0.457,-1.594 -0.965,-0.269 -1.297,1.324 -0.457,1.594"
         style="fill:#ffffff;fill-opacity:1;fill-rule:nonzero;stroke:none"
         id="path82" /><path
         d="m 149.652,173.598 c -1.976,1.636 -0.789,4.468 1.75,4.222 1.43,-1.55 -0.093,-3.566 -1.75,-4.222"
         style="fill:#ffffff;fill-opacity:1;fill-rule:nonzero;stroke:none"
         id="path84" /><path
         d="m 168.246,178.023 c 2.582,0.11 4.266,-2.543 2.133,-4.425 -0.742,0.496 -1.445,1.039 -2.176,1.527 0,0.965 0,1.953 0.043,2.898"
         style="fill:#ffffff;fill-opacity:1;fill-rule:nonzero;stroke:none"
         id="path86" /><path
         d="m 172.824,176.789 c -1.14,-1.355 -1.789,1.836 -0.16,0.781 0.051,-0.203 0.117,-0.582 0.16,-0.781"
         style="fill:#e4d612;fill-opacity:1;fill-rule:nonzero;stroke:none"
         id="path88" /><path
         d="m 172.664,177.57 c 1.399,1.711 1.887,-1.929 0.16,-0.781 -0.043,0.199 -0.109,0.578 -0.16,0.781"
         style="fill:#ffffff;fill-opacity:1;fill-rule:nonzero;stroke:none"
         id="path90" /><path
         d="m 152.543,176.586 c 0.703,0.582 1.648,-0.613 0.855,-1.106 -0.699,-0.535 -1.679,0.61 -0.855,1.106"
         style="fill:#ffffff;fill-opacity:1;fill-rule:nonzero;stroke:none"
         id="path92" /><path
         d="m 160.672,176.473 c 0.75,0.453 0.945,0.316 0.594,-0.5 -0.141,0.156 -0.453,0.41 -0.594,0.5"
         style="fill:#e4d612;fill-opacity:1;fill-rule:nonzero;stroke:none"
         id="path94" /><path
         d="m 166.492,176.875 c 0.36,0 1.106,-0.047 1.442,-0.047 -0.043,-0.402 -0.043,-1.144 -0.094,-1.504 -0.352,0 -1.145,-0.047 -1.496,-0.047 0,0.297 0.062,0.946 0.101,1.262 l 0.047,0.336"
         style="fill:#ffffff;fill-opacity:1;fill-rule:nonzero;stroke:none"
         id="path96" /><path
         d="m 147.465,176.02 c 0.699,0.07 0.941,-1.184 0.699,-1.727 -0.809,-0.109 -1.152,1.234 -0.699,1.727"
         style="fill:#e4d612;fill-opacity:1;fill-rule:nonzero;stroke:none"
         id="path98" /><path
         d="m 161.266,175.973 c 0.039,-1.336 -1.887,0.207 -0.594,0.5 0.141,-0.09 0.453,-0.344 0.594,-0.5"
         style="fill:#ffffff;fill-opacity:1;fill-rule:nonzero;stroke:none"
         id="path100" /><path
         d="m 145.738,175.684 c 0.539,0.789 1.688,-0.204 1.114,-0.895 -0.489,-0.805 -1.68,0.203 -1.114,0.895"
         style="fill:#ffffff;fill-opacity:1;fill-rule:nonzero;stroke:none"
         id="path102" /><path
         d="m 172.18,175.125 c 0.785,-0.336 -0.114,-2.137 -0.946,-1.844 -0.16,0.703 0.407,1.465 0.946,1.844"
         style="fill:#ba9347;fill-opacity:1;fill-rule:nonzero;stroke:none"
         id="path104" /><path
         d="m 157.777,173.438 c 0.735,0.613 1.508,1.148 2.246,1.753 0.79,-0.605 1.649,-1.207 2.493,-1.8 -0.496,-0.493 -1.004,-0.895 -1.594,-1.297 -0.043,0.308 -0.199,0.804 -0.309,1.094 0.059,1.148 -1.691,0.609 -1.035,-0.36 l 0.152,-0.625 c -0.398,0.043 -1.148,0.199 -1.55,0.293 -0.16,0.289 -0.313,0.649 -0.403,0.942"
         style="fill:#e4d612;fill-opacity:1;fill-rule:nonzero;stroke:none"
         id="path106" /><path
         d="m 152.211,172.246 c 0.672,0.742 1.348,1.484 1.98,2.289 1.164,-0.644 3.247,-1.347 1.438,-2.644 -0.379,0.511 -0.836,1.007 -1.234,1.547 l -0.161,-0.739 -0.043,-0.246 c 0.157,-1.305 -1.492,-0.609 -1.98,-0.207"
         style="fill:#e4d612;fill-opacity:1;fill-rule:nonzero;stroke:none"
         id="path108" /><path
         d="m 163.547,173.281 c 0.82,0.407 1.558,0.77 2.363,1.102 0.625,-0.695 1.281,-1.348 1.981,-1.981 -0.786,-0.402 -1.547,-0.761 -2.289,-1.207 0.199,-1.082 1.382,-0.632 2.199,-0.793 0.445,-0.242 0.824,-0.554 1.277,-0.851 0,0.894 -0.051,1.758 -0.09,2.652 1.055,0.043 2.086,0.043 3.141,0.09 -0.309,-0.199 -0.801,-0.535 -1.055,-0.695 -0.246,-0.16 -0.488,-0.336 -0.695,-0.539 -0.145,-0.204 -0.336,-0.7 -0.496,-0.899 -0.246,-0.449 -0.442,-0.894 -0.695,-1.344 -2.602,1.094 -5.426,1.434 -8.063,2.289 0.492,0.243 0.988,0.493 1.477,0.786 0.652,-0.453 1.308,-1.598 2.144,-0.903 0.199,0.903 -0.836,1.508 -1.199,2.293"
         style="fill:#e4d612;fill-opacity:1;fill-rule:nonzero;stroke:none"
         id="path110" /><path
         d="m 146.723,173.844 c 0.488,0.851 1.683,-0.156 1.082,-0.856 -0.5,-0.785 -1.688,0.157 -1.082,0.856"
         style="fill:#ffffff;fill-opacity:1;fill-rule:nonzero;stroke:none"
         id="path112" /><path
         d="m 159.578,172.828 c -0.656,0.969 1.094,1.508 1.035,0.36 -0.254,-0.09 -0.781,-0.247 -1.035,-0.36"
         style="fill:#665f49;fill-opacity:1;fill-rule:nonzero;stroke:none"
         id="path114" /><path
         d="m 165.563,172.293 c -2.016,1.437 2.187,1.348 0.195,0 -0.043,0 -0.156,0 -0.195,0"
         style="fill:#3c2a26;fill-opacity:1;fill-rule:nonzero;stroke:none"
         id="path116" /><path
         d="m 147.871,172.141 c 1.102,0.152 2.227,0.105 3.348,0.105 0,-0.402 -0.067,-1.141 -0.067,-1.551 -0.289,0.118 -0.789,0.293 -1.054,0.41 l -0.379,0.157 c -0.614,0.246 -1.235,0.582 -1.848,0.879"
         style="fill:#e4d612;fill-opacity:1;fill-rule:nonzero;stroke:none"
         id="path118" /><path
         d="m 154.234,172.699 c 0,-0.043 -0.043,-0.203 -0.043,-0.246 l 0.043,0.246"
         style="fill:#9fa4a5;fill-opacity:1;fill-rule:nonzero;stroke:none"
         id="path120" /><path
         d="m 165.563,172.293 c 0.039,0 0.152,0 0.195,0 h -0.195"
         style="fill:#ffffff;fill-opacity:1;fill-rule:nonzero;stroke:none"
         id="path122" /><path
         d="m 157.324,171.961 c 1.059,-1.219 2.254,-0.523 3.149,0.379 0.25,-0.539 0.449,-1.145 0.695,-1.735 -3.348,0.09 -6.707,-0.246 -9.766,-1.636 -0.851,-0.512 -0.992,0.629 -0.902,1.234 0.309,-0.09 0.859,-0.355 1.098,-0.445 0.16,0.242 0.453,0.734 0.562,0.984 0.582,-0.179 1.176,-0.34 1.735,-0.539 0.246,0.61 0.453,1.145 0.652,1.758 0.808,-1.266 2.195,-1.559 2.777,0"
         style="fill:#e4d612;fill-opacity:1;fill-rule:nonzero;stroke:none"
         id="path124" /><path
         d="m 170.379,171.059 c 0.207,0.203 0.449,0.379 0.695,0.539 0.293,-0.09 0.805,-0.289 1.106,-0.403 -0.399,-0.25 -0.742,-0.5 -1.106,-0.75 -0.293,-0.043 -0.89,-0.242 -1.191,-0.285 0.16,0.199 0.351,0.695 0.496,0.899"
         style="fill:#665f49;fill-opacity:1;fill-rule:nonzero;stroke:none"
         id="path126" /><path
         d="m 149.719,171.262 0.379,-0.157 c 0.355,-1.152 -1.473,-0.5 -0.379,0.157"
         style="fill:#ffffff;fill-opacity:1;fill-rule:nonzero;stroke:none"
         id="path128" /><path
         d="m 135.516,169.91 c 1.777,1.285 3.984,0.383 5.972,0.492 0.614,-0.554 1.153,-1.097 1.735,-1.636 -0.993,-0.762 -1.977,-1.508 -2.961,-2.289 0.379,-0.071 1.16,-0.11 1.562,-0.11 -1.273,-1.109 -2.777,-2.254 -2.961,-4.094 -2.058,-0.695 -4.242,-0.742 -6.242,0 -0.141,2.743 0.16,6.184 2.895,7.637"
         style="fill:#ba9347;fill-opacity:1;fill-rule:nonzero;stroke:none"
         id="path130" /><path
         d="m 178.512,170.402 c 2.027,-0.109 4.176,0.793 5.972,-0.492 2.832,-1.453 3.079,-4.894 2.875,-7.68 -2.05,-0.582 -4.183,-0.652 -6.218,0.043 -0.153,1.911 -1.688,2.985 -2.989,4.094 0.453,0.039 1.348,0.11 1.797,0.11 -1.101,0.742 -2.156,1.484 -3.144,2.289 0.562,0.539 1.148,1.082 1.707,1.636"
         style="fill:#ba9347;fill-opacity:1;fill-rule:nonzero;stroke:none"
         id="path132" /><path
         d="m 157.723,169.598 c 1.492,0.066 3,0.066 4.437,0 0.043,-0.582 0.043,-1.192 0.043,-1.778 -1.39,0 -2.781,0 -4.137,0 -0.128,0.586 -0.246,1.196 -0.343,1.778"
         style="fill:#e4d612;fill-opacity:1;fill-rule:nonzero;stroke:none"
         id="path134" /><path
         d="m 180.988,169.664 c 0.899,0.246 1.508,-1.258 0.446,-1.461 -0.895,-0.289 -1.446,1.195 -0.446,1.461"
         style="fill:#3c2a26;fill-opacity:1;fill-rule:nonzero;stroke:none"
         id="path136" /><path
         d="m 138.148,169.148 c 0.493,0.762 1.844,0.067 1.219,-0.742 -0.453,-0.695 -1.793,0 -1.219,0.742"
         style="fill:#3c2a26;fill-opacity:1;fill-rule:nonzero;stroke:none"
         id="path138" /><path
         d="m 154.754,168.695 c 0.039,1.418 3.473,0.274 1.277,-0.132 -0.293,0.05 -0.945,0.093 -1.277,0.132"
         style="fill:#e4d612;fill-opacity:1;fill-rule:nonzero;stroke:none"
         id="path140" /><path
         d="m 158.02,168.406 c 1.015,1.395 2.793,1.059 4.14,0.41 -1.238,-0.855 -2.738,-0.613 -4.14,-0.41"
         style="fill:#3c2a26;fill-opacity:1;fill-rule:nonzero;stroke:none"
         id="path142" /><path
         d="m 163.504,169.215 c 0.656,0 1.242,0 1.898,0.051 -0.703,-0.297 -1.398,-0.61 -2.058,-0.903 0.316,-0.16 0.972,-0.492 1.301,-0.695 0.55,-0.297 0.918,-0.203 1.156,0.445 l 0.254,0.703 c 0.843,-0.253 1.695,-0.496 2.531,-0.812 -0.836,0.109 -1.688,0.156 -2.496,0.269 0.445,-0.964 1.469,-1.414 2.289,-1.949 -1.723,0.442 -3.481,1.141 -5.285,1.387 0.16,0.492 0.25,0.984 0.41,1.504"
         style="fill:#e4d612;fill-opacity:1;fill-rule:nonzero;stroke:none"
         id="path144" /><path
         d="m 153.398,168.766 c 0.793,0.203 1.356,-1.637 0.567,-1.953 -0.68,0.316 -0.902,1.347 -0.567,1.953"
         style="fill:#e4d612;fill-opacity:1;fill-rule:nonzero;stroke:none"
         id="path146" /><path
         d="m 154.754,168.695 c 0.332,-0.039 0.984,-0.082 1.277,-0.132 0.711,-1.434 -2.383,-1.098 -1.277,0.132"
         style="fill:#467ac3;fill-opacity:1;fill-rule:nonzero;stroke:none"
         id="path148" /><path
         d="m 151.309,168.203 c 0.289,0 0.851,0 1.074,0.07 0.219,-0.714 0.359,-1.414 0.449,-2.152 -0.734,0.563 -1.074,1.344 -1.523,2.082"
         style="fill:#e4d612;fill-opacity:1;fill-rule:nonzero;stroke:none"
         id="path150" /><path
         d="m 164.645,167.668 c 0.101,0.738 0.503,0.895 1.156,0.445 -0.238,-0.648 -0.606,-0.742 -1.156,-0.445"
         style="fill:#5281ca;fill-opacity:1;fill-rule:nonzero;stroke:none"
         id="path152" /><path
         d="m 135.227,168.113 c 1.933,-1.144 2.25,-3.8 1.386,-5.683 -2.55,0.363 -3.59,2.828 -2.933,5.129 1.183,-1.286 0.422,-3.688 2.488,-4.383 0.398,1.75 -0.496,3.301 -0.941,4.937"
         style="fill:#3c2a26;fill-opacity:1;fill-rule:nonzero;stroke:none"
         id="path154" /><path
         d="m 183.434,162.723 c -1.192,1.711 -0.297,4.406 1.39,5.351 -0.5,-1.597 -1.347,-3.191 -0.996,-4.898 2.012,0.695 1.442,2.945 2.387,4.383 0.652,-1.977 -0.129,-5.286 -2.781,-4.836"
         style="fill:#3c2a26;fill-opacity:1;fill-rule:nonzero;stroke:none"
         id="path156" /><path
         d="m 144.234,166.727 c 0.825,1.093 2.043,0.039 2.618,-0.704 -0.442,-0.039 -1.387,-0.152 -1.879,-0.238 -1.633,-2.246 -2.2,-5.101 -2.871,-7.73 -0.68,0.738 -1.348,1.547 -1.911,2.379 1.106,2.242 2.493,4.402 4.043,6.293"
         style="fill:#ba9347;fill-opacity:1;fill-rule:nonzero;stroke:none"
         id="path158" /><path
         d="m 173.164,166.164 c 0.695,0.602 1.75,1.656 2.539,0.602 1.711,-1.797 2.742,-4.09 4.203,-6.082 -0.66,-0.996 -1.265,-1.93 -1.902,-2.875 -1.156,2.875 -0.949,7.773 -4.84,8.355"
         style="fill:#ba9347;fill-opacity:1;fill-rule:nonzero;stroke:none"
         id="path160" /><path
         d="m 139.941,161.98 c -0.394,1.758 1.063,2.696 2.289,3.551 -0.621,-1.301 -1.386,-2.445 -2.289,-3.551"
         style="fill:#ffffff;fill-opacity:1;fill-rule:nonzero;stroke:none"
         id="path162" /><path
         d="m 145.777,164.723 c 9.473,0.16 18.969,0.16 28.481,0.043 -0.086,-8.465 0,-16.887 -0.086,-25.328 0.047,-2.946 -2.391,-5.149 -4.945,-6.184 -5.883,-2.242 -12.524,-2.242 -18.418,0 -2.559,1.035 -5.071,3.168 -4.981,6.184 -0.09,8.441 0.043,16.863 -0.051,25.285"
         style="fill:#5281ca;fill-opacity:1;fill-rule:nonzero;stroke:none"
         id="path164" /><path
         d="m 178.605,164.523 c 0.684,0.2 1.434,-0.832 1.235,-1.55 -0.703,-0.137 -1.328,0.898 -1.235,1.55"
         style="fill:#ffffff;fill-opacity:1;fill-rule:nonzero;stroke:none"
         id="path166" /><path
         d="m 143.301,159.398 c 0.238,1.559 0.734,3.082 1.426,4.473 0,-1.078 0,-2.18 0,-3.277 -0.493,-0.41 -0.938,-0.785 -1.426,-1.196"
         style="fill:#ffffff;fill-opacity:1;fill-rule:nonzero;stroke:none"
         id="path168" /><path
         d="m 175.258,163.871 c 1.347,-2.383 1.347,-5.277 2.605,-7.707 -1.508,1.188 -1.058,3.395 -2.547,4.59 -0.058,1.027 -0.058,2.082 -0.058,3.117"
         style="fill:#ffffff;fill-opacity:1;fill-rule:nonzero;stroke:none"
         id="path170" /><path
         d="m 148.211,157.152 c 1.707,1.641 2.941,4.184 5.305,4.989 2.285,-0.946 3.605,-3.297 5.117,-5.145 -3.438,0.067 -6.969,-0.183 -10.422,0.156"
         style="fill:#3c2a26;fill-opacity:1;fill-rule:nonzero;stroke:none"
         id="path172" /><path
         d="m 161.305,156.996 c 1.55,1.797 2.898,4.199 5.14,5.098 2.379,-0.696 3.649,-3.301 5.336,-4.942 -3.488,-0.289 -6.972,-0.156 -10.476,-0.156"
         style="fill:#3c2a26;fill-opacity:1;fill-rule:nonzero;stroke:none"
         id="path174" /><path
         d="m 126.512,145.988 c 5.113,3.602 6.836,10.063 6.199,16.039 0.227,-3.816 4.242,-2.136 6.789,-2.289 1.43,-0.742 1.746,-2.472 2.289,-3.89 -1.187,-0.086 -2.34,-0.176 -3.484,-0.285 3.394,-2.293 6.09,1.3 6.535,4.375 0.75,-3.125 -1.012,-6.219 -3.836,-7.614 -2.141,0.16 -4.254,0.992 -6.383,1.055 1.992,-1.215 4.383,-1.598 6.625,-2.203 -1.094,-1.586 -2.558,-2.895 -4.223,-3.793 -3.546,-1.934 -6.097,-5.481 -7.054,-9.414 -0.535,-2.625 -4.223,-3.184 -4.352,-6.02 -0.453,-2.695 2.629,-3.433 3.93,-5.226 -1.418,0.109 -3.602,-0.746 -4.16,1.047 -0.715,1.929 -2.219,3.937 -2.102,5.98 2.281,2.539 1.969,5.977 2.281,9.094 -1.121,-1.387 -1.613,-4.063 -3.953,-3.528 -2.793,0.211 -3.886,3.278 -3.484,5.731 0.047,0.047 0.16,0.16 0.199,0.199 0.539,0.453 1.149,0.902 1.758,1.348 -0.852,-1.949 -1.797,-4.934 0.711,-6.039 3.601,-1.239 3.266,4.047 5.715,5.433"
         style="fill:#ba9347;fill-opacity:1;fill-rule:nonzero;stroke:none"
         id="path176" /><path
         d="m 180.246,161.895 c 0.695,0.535 1.711,-0.559 1.149,-1.211 -0.657,-0.5 -1.555,0.601 -1.149,1.211"
         style="fill:#9fa4a5;fill-opacity:1;fill-rule:nonzero;stroke:none"
         id="path178" /><path
         d="m 187.227,162.027 c 0,-0.691 0,-1.433 0.039,-2.179 -0.356,0 -1.004,-0.039 -1.34,-0.11 -0.363,0.071 -1.102,0.11 -1.442,0.153 0,0.41 0,1.156 0,1.507 0.246,-0.062 0.688,-0.152 0.95,-0.269 0.246,-0.172 0.742,-0.625 0.988,-0.828 0.293,0.543 0.555,1.14 0.805,1.726"
         style="fill:#9fa4a5;fill-opacity:1;fill-rule:nonzero;stroke:none"
         id="path180" /><path
         d="m 134.063,161.285 c 0.347,0 1.113,0.051 1.453,0.051 0,-0.336 0,-1.082 0,-1.488 -0.34,0.043 -1.008,0.09 -1.348,0.09 0,0.363 -0.066,1.062 -0.105,1.347"
         style="fill:#9fa4a5;fill-opacity:1;fill-rule:nonzero;stroke:none"
         id="path182" /><path
         d="m 153.063,161.336 c 1.847,-0.141 2.675,-2.387 4.015,-3.481 -2.39,-0.046 -4.828,-0.046 -7.199,0 1.027,1.184 1.965,2.489 3.184,3.481"
         style="fill:#ffffff;fill-opacity:1;fill-rule:nonzero;stroke:none"
         id="path184" /><path
         d="m 162.895,157.855 c 1.347,1.094 2.16,3.34 4.003,3.481 1.235,-0.992 2.18,-2.297 3.247,-3.481 -2.395,-0.046 -4.801,-0.046 -7.25,0"
         style="fill:#ffffff;fill-opacity:1;fill-rule:nonzero;stroke:none"
         id="path186" /><path
         d="m 180.352,159.938 c 1.847,-0.29 3.73,-0.489 5.574,-0.2 0.336,0.071 0.984,0.11 1.34,0.11 -0.239,-4.621 1.238,-9.524 4.882,-12.598 2.407,-1.664 3.485,-4.297 4.872,-6.695 3.882,-1.282 4.398,3.543 3.191,6.129 2.898,-1.973 1.711,-7.207 -1.887,-7.368 -2.344,-0.492 -2.746,2.204 -3.929,3.528 0.289,-3.117 0.16,-6.512 2.281,-9.094 0.301,-2.543 -2.082,-4.633 -2.328,-7.187 h -0.157 c -1.234,0.109 -2.492,0.16 -3.683,0.269 1.344,1.641 4.289,2.422 3.887,5.117 -0.09,2.903 -3.887,3.395 -4.387,6.067 -0.606,2.398 -1.699,4.738 -3.434,6.586 -2.25,2.648 -5.976,3.546 -7.808,6.574 2.285,0.652 4.668,1.105 6.797,2.25 -2.227,0 -4.375,-0.942 -6.629,-1.102 -2.532,1.395 -4.582,4.129 -3.567,7.235 0.246,-3.106 3.274,-6.133 6.278,-3.996 -1.157,0.156 -2.309,0.199 -3.45,0.285 0.5,1.504 1.192,2.855 2.157,4.09"
         style="fill:#ba9347;fill-opacity:1;fill-rule:nonzero;stroke:none"
         id="path188" /><path
         d="m 143.223,159.246 c 0.718,-0.402 0.277,-2.383 -0.582,-2.433 -0.137,0.785 0.203,1.738 0.582,2.433"
         style="fill:#ffffff;fill-opacity:1;fill-rule:nonzero;stroke:none"
         id="path190" /><path
         d="m 152.652,154.453 c 2.93,-0.043 4.219,-3.187 6.02,-5.074 -3.477,0 -6.953,-0.047 -10.461,0.047 1.348,1.797 2.941,3.39 4.441,5.027"
         style="fill:#3c2a26;fill-opacity:1;fill-rule:nonzero;stroke:none"
         id="path192" /><path
         d="m 161.305,149.379 c 1.863,1.844 3.101,5.031 6,5.074 1.519,-1.676 3.121,-3.277 4.574,-5.027 -3.5,-0.094 -7.02,-0.047 -10.574,-0.047"
         style="fill:#3c2a26;fill-opacity:1;fill-rule:nonzero;stroke:none"
         id="path194" /><path
         d="m 149.879,150.191 c 1.027,1.387 2.219,2.672 3.637,3.778 1.277,-1.153 2.468,-2.43 3.562,-3.848 -2.39,0 -4.828,0 -7.199,0.07"
         style="fill:#ffffff;fill-opacity:1;fill-rule:nonzero;stroke:none"
         id="path196" /><path
         d="m 162.895,150.191 c 1.109,1.348 2.3,2.625 3.597,3.778 1.399,-1.106 2.586,-2.43 3.692,-3.778 -2.383,-0.07 -4.84,-0.07 -7.289,0"
         style="fill:#ffffff;fill-opacity:1;fill-rule:nonzero;stroke:none"
         id="path198" /><path
         d="m 148.324,141.66 c 1.438,1.836 2.828,4.238 5.074,5.07 2.34,-0.789 3.723,-3.234 5.235,-5.07 -3.438,-0.051 -6.875,-0.051 -10.309,0"
         style="fill:#3c2a26;fill-opacity:1;fill-rule:nonzero;stroke:none"
         id="path200" /><path
         d="m 161.371,141.66 c 1.524,1.789 2.832,4.238 5.164,5.07 2.399,-0.742 3.61,-3.437 5.344,-5.121 -3.5,0.051 -7.02,0 -10.508,0.051"
         style="fill:#3c2a26;fill-opacity:1;fill-rule:nonzero;stroke:none"
         id="path202" /><path
         d="m 149.809,142.414 c 1.293,1.145 2.129,3.574 4.086,3.441 1.242,-1.011 2.136,-2.246 3.183,-3.441 -2.39,0 -4.828,0 -7.269,0"
         style="fill:#ffffff;fill-opacity:1;fill-rule:nonzero;stroke:none"
         id="path204" /><path
         d="m 162.855,142.414 c 1.348,1.145 2.161,3.375 4.043,3.527 1.305,-0.984 2.239,-2.332 3.286,-3.527 -2.434,0 -4.871,0 -7.329,0"
         style="fill:#ffffff;fill-opacity:1;fill-rule:nonzero;stroke:none"
         id="path206" /><path
         d="m 131.129,139.316 c 0.797,1.239 1.133,3.438 2.883,3.637 1.597,-0.89 3.801,-2.824 2.398,-4.871 -1.055,-1.59 -0.601,-3.637 1.332,-4.285 0.071,-0.047 0.231,-0.156 0.27,-0.25 0.676,-0.652 1.355,-1.348 1.98,-2.09 -4.094,-0.945 -5.773,3.731 -6.558,6.871 -0.77,0.344 -1.559,0.656 -2.305,0.988"
         style="fill:#ba9347;fill-opacity:1;fill-rule:nonzero;stroke:none"
         id="path208" /><path
         d="m 183.137,139.926 c 0.586,1.39 1.789,2.586 3.238,3.121 1.395,-0.738 1.84,-2.426 2.492,-3.774 -0.894,-0.449 -2.39,-0.449 -2.445,-1.753 -0.336,-2.332 -2.141,-3.973 -3.195,-6.012 -1.028,0 -2.086,0 -3.075,0 0.586,2.039 3.477,2.039 3.973,4.125 0.488,1.551 -1.098,2.789 -0.988,4.293"
         style="fill:#ba9347;fill-opacity:1;fill-rule:nonzero;stroke:none"
         id="path210" /><path
         d="m 154.754,133.953 c 1.68,1.723 2.969,4.871 5.68,4.961 1.968,-1.078 3.328,-3.195 4.761,-4.914 -3.488,-0.113 -6.968,-0.113 -10.441,-0.047"
         style="fill:#3c2a26;fill-opacity:1;fill-rule:nonzero;stroke:none"
         id="path212" /><path
         d="m 156.383,134.734 c 1.101,1.395 2.289,2.7 3.601,3.84 1.321,-1.14 2.532,-2.445 3.563,-3.84 -2.379,0 -4.785,0 -7.164,0"
         style="fill:#ffffff;fill-opacity:1;fill-rule:nonzero;stroke:none"
         id="path214" /></g></g></svg>
