<?xml version="1.0" encoding="UTF-8" standalone="no"?>
<svg
   xmlns:dc="http://purl.org/dc/elements/1.1/"
   xmlns:cc="http://creativecommons.org/ns#"
   xmlns:rdf="http://www.w3.org/1999/02/22-rdf-syntax-ns#"
   xmlns:svg="http://www.w3.org/2000/svg"
   xmlns="http://www.w3.org/2000/svg"
   version="1.1"
   id="svg2"
   xml:space="preserve"
   width="42.666668"
   height="42.666668"
   viewBox="0 0 42.666668 42.666668"><metadata
     id="metadata8"><rdf:RDF><cc:Work
         rdf:about=""><dc:format>image/svg+xml</dc:format><dc:type
           rdf:resource="http://purl.org/dc/dcmitype/StillImage" /></cc:Work></rdf:RDF></metadata><defs
     id="defs6" /><g
     id="g10"
     transform="matrix(1.3333333,0,0,-1.3333333,0,42.666667)"><g
       id="g12"
       transform="scale(0.1)"><path
         d="m 159.984,-0.0078125 c 44.621,0 85.043,18.4180125 114.11,48.0351125 L 159.984,160.004 V -0.0078125"
         style="fill:#100f0d;fill-opacity:1;fill-rule:evenodd;stroke:none"
         id="path14" /><path
         d="M 274.094,271.977 C 302.445,243.09 320,203.523 320,160.004 H 159.984 l 114.11,111.973"
         style="fill:#100f0d;fill-opacity:1;fill-rule:evenodd;stroke:none"
         id="path16" /><path
         d="M 45.875,48.0273 C 17.5313,76.9141 0,116.461 0,160.004 H 159.984 L 45.875,48.0273"
         style="fill:#100f0d;fill-opacity:1;fill-rule:evenodd;stroke:none"
         id="path18" /><path
         d="m 159.984,320.016 c -44.601,0 -85.0309,-18.422 -114.109,-48.039 L 159.984,160.004 v 160.012"
         style="fill:#100f0d;fill-opacity:1;fill-rule:evenodd;stroke:none"
         id="path20" /><path
         d="M 274.094,48.0273 C 302.445,76.9141 320,116.461 320,160.004 H 159.984 L 274.094,48.0273"
         style="fill:#ffffff;fill-opacity:1;fill-rule:evenodd;stroke:none"
         id="path22" /><path
         d="m 159.984,320.016 c 44.621,0 85.043,-18.422 114.11,-48.039 L 159.984,160.004 v 160.012"
         style="fill:#ffffff;fill-opacity:1;fill-rule:evenodd;stroke:none"
         id="path24" /><path
         d="M 159.984,-0.0078125 C 115.383,-0.0078125 74.9531,18.4102 45.875,48.0273 L 159.984,160.004 V -0.0078125"
         style="fill:#ffffff;fill-opacity:1;fill-rule:evenodd;stroke:none"
         id="path26" /><path
         d="M 45.875,271.977 C 17.5313,243.09 0,203.523 0,160.004 H 159.984 L 45.875,271.977"
         style="fill:#ffffff;fill-opacity:1;fill-rule:evenodd;stroke:none"
         id="path28" /><path
         d="m 152.035,182.242 c -8.211,-0.644 -16.336,-2.195 -24.383,-3.84 -0.586,-0.136 -1.144,-0.312 -1.418,-0.832 10.411,2.114 20.918,3.977 31.547,4.293 11.973,0.293 23.836,-1.859 35.571,-4.133 -0.27,1.079 -1.422,0.985 -2.274,1.168 -12.82,2.43 -25.949,4.622 -39.043,3.344 z m 38.844,0.723 c 0.875,-1.274 2.344,-2.047 3.797,-1.149 -0.539,0.563 -1.004,1.149 -1.543,1.704 -0.766,-0.153 -1.52,-0.375 -2.254,-0.555 m -63.492,0.555 c -0.719,-0.555 -1.324,-1.278 -1.938,-1.973 1.356,-1.684 3.106,-0.449 4.414,0.473 -0.785,0.585 -1.629,1.078 -2.476,1.5 m 47.023,1.781 c 1.094,-2.297 4.516,-2.516 6.512,-1.238 -0.188,2.875 -5.594,3.8 -6.512,1.238 m -46.847,-0.512 c 1.07,-1.18 2.652,-1.644 3.777,-2.816 -1.438,-0.875 -2.836,-1.66 -4.133,-2.735 12.856,2.403 25.832,5.043 38.941,4.039 3.879,-0.132 7.719,-0.898 11.629,-0.984 -1.73,0.535 -4.824,1.41 -4.015,3.859 1.832,2.422 6.355,1.625 7.758,-0.894 0.82,-2.203 -2.055,-2.653 -3.512,-3.192 4.945,-0.699 9.859,-1.933 14.851,-2.421 -0.839,1.5 -2.511,2.265 -3.656,3.5 1.317,0.515 2.688,0.964 4.059,1.457 -0.895,0.789 -2.09,0.925 -3.192,1.199 -9.734,2.289 -19.601,4.242 -29.632,4.328 -11.145,-0.129 -22.176,-2.309 -32.875,-5.34 m 1.417,1.977 c -0.921,-0.321 -2.175,-0.321 -2.652,-1.286 11.145,2.829 22.508,5.442 34.11,5.485 9.773,0.086 19.359,-2.25 28.933,-3.84 -7.344,2.238 -15.047,3.434 -22.687,4.281 -12.75,1.196 -25.461,-1.496 -37.704,-4.64 m 41.907,5.07 c 3.75,-0.602 7.547,-1.191 11.273,-1.973 -1.512,1.5 -2.832,3.192 -3.637,5.16 -2.335,-1.496 -4.988,-2.378 -7.636,-3.187 m -29.442,3.144 c -0.824,-2.058 -2.285,-3.792 -4.023,-5.253 3.98,0.742 7.984,1.546 11.98,2.089 -2.742,0.743 -5.476,1.661 -7.957,3.164 m 13.102,-2.558 c 1.824,0.051 3.637,0.094 5.437,0.18 1.868,-0.086 3.688,-0.129 5.528,-0.18 -2.746,1.375 -4.676,3.887 -5.528,6.855 -0.832,-2.925 -2.738,-5.437 -5.437,-6.855 m -15.57,10.398 c -0.219,-0.715 -0.407,-1.406 -0.582,-2.129 0.582,0.274 1.175,0.539 1.742,0.805 -0.387,0.434 -0.793,0.879 -1.16,1.324 m 41.05,-1.277 c 0.536,-0.313 1.055,-0.668 1.59,-1.035 -0.277,0.816 -0.496,1.64 -0.676,2.449 -0.293,-0.449 -0.605,-0.941 -0.914,-1.414 m 21.102,-1.258 c 2.742,-0.066 5.387,2.809 4.512,5.551 -2.782,0.43 -5.75,-2.836 -4.512,-5.551 m -86.731,5.551 c -0.988,-2.742 1.704,-5.617 4.45,-5.551 1.257,2.672 -1.719,5.981 -4.45,5.551 m 66.903,1.191 c 0.039,-0.629 0.14,-1.191 0.179,-1.824 0.364,0.539 0.782,1.106 1.11,1.649 -0.289,0.043 -0.93,0.132 -1.289,0.175 m 4.023,0.293 c -2.511,-0.468 -4.383,-3.929 -2.914,-6.175 3.231,-2.051 6.922,5.476 2.914,6.175 m -51.238,-0.019 c -2.887,-1.738 0.137,-7.442 3.199,-6.336 2.106,2.129 -0.328,6.535 -3.199,6.336 m 44.172,1.797 c -2.93,-0.883 -2.797,-6.59 0.312,-7.168 2.91,0.847 2.828,6.687 -0.312,7.168 m -37.125,-0.047 c -2.375,-1.328 -2.461,-5.617 -0.125,-7.035 3.672,-0.34 3.812,7.214 0.125,7.035 m 16.336,2.359 c -1.324,-1.215 -2.653,-2.5 -3.344,-4.156 2.891,-0.141 5.027,-2.274 5.859,-4.879 0.852,2.473 2.743,4.52 5.438,4.879 -0.606,1.754 -1.973,3.027 -3.438,4.156 -1.004,-1.172 -1.718,-2.5 -1.679,-4.09 -1.336,0.805 -1.239,3.094 -2.836,4.09 m 24.793,3.387 c -2.684,-1.145 -2.645,-6.313 0.289,-7.117 3.179,0.664 3.043,7.027 -0.289,7.117 m -45.129,0.051 c -2.711,-1.149 -2.711,-6.41 0.289,-7.168 3.109,0.758 3.019,6.941 -0.289,7.168 m 22.066,1.859 c -1.418,-1.769 -1.558,-5.094 0.442,-6.469 2.617,0.766 2.578,6.832 -0.442,6.469 m 38.442,1.328 c 0.695,-1.371 1.687,-2.648 1.777,-4.246 -2.32,-2.137 -5.371,-1.863 -8.289,-1.637 -1.191,-2.879 3.008,-4.992 0.801,-7.531 2.066,-0.875 4.023,-2.691 3.886,-5.125 0.137,-5.164 -5.746,-9.027 -10.535,-7.48 -3.019,1.461 -3.437,5.187 -4.449,8.023 -0.945,1.328 -2.664,0.297 -3.367,-0.762 -3.102,-2.968 -9.211,-5.3 -12.559,-1.511 -1.375,1.375 -1.953,5.011 0.649,5.328 0.722,-0.989 1.375,-3.145 2.918,-2.403 1.738,0.942 0.23,2.965 -0.594,4.02 -1.41,2.184 -4.84,1.687 -5.977,-0.473 -3.113,-4.605 1.098,-11.406 6.489,-11.363 3.824,-0.453 7.164,1.637 10.492,3.145 1.234,-2.493 2.734,-5.145 5.394,-6.34 3.836,-1.68 8.18,-0.492 11.86,1.144 3.707,1.649 5.117,6.52 3.98,10.227 -0.676,2.383 1.363,4.469 3.324,5.437 1.465,0.766 3.204,-0.968 4.411,0.453 1.476,1.364 3.492,1.321 5.351,1.543 -1.098,2.161 -3.765,1.188 -5.437,2.071 -1.856,3.972 -5.52,7.304 -10.125,7.48 m -85.414,-7.48 c -1.696,-0.883 -4.34,0.09 -5.465,-2.071 2.359,0 4.582,-0.718 6.386,-2.175 3.188,1.414 7.204,-1.5 6.829,-4.942 -1.356,-3.914 0.128,-9.125 4.179,-10.722 3.407,-1.329 7.356,-2.692 10.891,-1.149 2.945,1.106 4.797,3.809 6.035,6.524 3.336,-1.508 6.703,-3.598 10.5,-3.145 5.395,-0.09 9.598,6.758 6.516,11.363 -1.168,2.16 -4.563,2.657 -5.973,0.473 -0.832,-1.055 -2.41,-3.078 -0.629,-4.02 1.543,-0.742 2.219,1.414 2.91,2.403 2.977,-0.496 1.875,-4.696 0,-5.981 -3.871,-3.004 -9.586,-0.402 -12.547,2.836 -0.777,1.102 -2.785,0.926 -2.968,-0.543 -0.723,-2.695 -1.418,-6.019 -4.207,-7.39 -4.782,-1.547 -10.661,2.316 -10.575,7.48 -0.086,2.434 1.868,4.25 3.95,5.125 -2.196,2.492 1.976,4.652 0.789,7.531 -2.926,-0.179 -5.961,-0.5 -8.27,1.637 0.09,1.598 1.055,2.875 1.774,4.246 -4.598,-0.176 -8.262,-3.508 -10.125,-7.48 m 44.925,17.476 c -1.769,-2.511 -5.953,-1.859 -6.711,-5.258 -0.218,-2.179 2.829,-1.816 3.375,-3.636 -2.789,-0.653 -5.027,-4.199 -7.929,-1.91 -1.961,-2.289 -0.395,-5.864 2.035,-7.145 1.754,1.621 4.164,4.445 6.805,3.125 -2.485,-0.562 -4.918,-1.797 -6.27,-4.023 -0.582,-1.371 0.563,-3.485 2.207,-3.055 3.32,0.766 3.922,4.648 6.664,6.246 0,0.875 0.09,1.73 0,2.605 -0.91,1.504 -3.57,0.583 -4.148,2.247 1.586,0 3.101,-0.469 4.461,-1.196 1.148,1.039 2,2.321 1.828,3.914 0.199,0.071 0.605,0.25 0.797,0.336 0,-1.64 0.441,-3.121 1.636,-4.25 1.368,0.453 3.473,1.871 4.516,0.727 -1.242,-0.727 -2.836,-0.766 -4.117,-1.461 -0.043,-0.969 -0.043,-1.91 -0.043,-2.879 2.961,-1.641 3.566,-6.289 7.449,-6.332 2.184,0.629 2.008,3.637 0.188,4.641 -1.149,1.781 -3.793,1.425 -4.809,2.972 2.734,0.184 4.852,-1.773 6.629,-3.617 2.426,1.188 3.973,4.898 2,7.145 -2.828,-2.34 -5.012,1.257 -7.742,1.82 0.218,2.047 3.644,1.457 3.226,3.84 -0.945,3.285 -4.969,2.633 -6.715,5.144 -1.687,0.098 -3.648,0.137 -5.332,0 m -0.871,0.36 c 0.965,1.015 2.469,0.519 3.703,0.609 1.918,0.445 3.504,-0.406 4.789,-1.734 2.11,-0.828 4.844,-1.789 5.254,-4.422 0.313,-1.797 -1.371,-2.828 -2.879,-3.211 1.418,-0.723 2.747,-1.551 3.989,-2.473 0.894,0.336 1.769,0.699 2.664,1.102 3.172,-2.364 1.371,-6.809 -1.164,-8.852 -0.653,-2 -1.289,-4.379 -3.891,-4.379 0.582,-0.926 1.231,-1.82 1.41,-2.926 0.141,-1.55 -1.683,-2.921 -3.136,-2.246 -0.918,0.559 -1.508,1.598 -2.204,2.426 -0.964,-2.832 1.559,-5.883 4.465,-5.664 3.18,0.227 6.457,1.692 8.496,4.211 -3.55,2.168 -3.273,9.723 1.782,9.113 -0.184,2.25 0.379,5.817 3.3,5.746 3.047,-0.843 3.094,-4.781 2.262,-7.253 5.707,-1.118 1.527,-10.352 -3.324,-8.36 0.707,-2.535 1.156,-5.566 3.527,-7.113 4.52,-1.777 10.492,2.379 9.574,7.371 -0.312,2.262 -2.582,3.187 -4.468,3.859 0.468,0.743 0.922,1.547 1.41,2.293 -1.32,1.907 -2.129,4.239 -1.32,6.539 2.793,0 5.929,-0.832 8.136,1.371 -0.836,1.34 -1.601,2.762 -2.164,4.2 5.164,0.855 9.914,-2.95 11.891,-7.508 2.316,0.137 5.664,-0.445 5.566,-3.457 -2.605,0 -5.164,-0.563 -7.074,-2.473 -0.359,-2.875 -2.375,-5.394 -5.352,-5.883 -0.394,-2.656 -0.668,-5.664 -2.734,-7.597 -2.25,-2.227 -5.476,-2.739 -8.359,-3.68 1.461,-0.473 2.922,-0.922 4.379,-1.379 -0.352,-0.781 -0.719,-1.547 -1.032,-2.34 0.313,-0.398 0.629,-0.761 0.938,-1.136 0.406,-0.54 0.84,-1.079 1.238,-1.598 -0.875,-0.402 -1.769,-0.809 -2.64,-1.192 0.464,-1.234 0.777,-2.535 0.683,-3.816 -0.238,0.047 -0.824,0.137 -1.09,0.18 -1.965,0.582 -3.937,1.011 -5.988,1.324 -8.844,1.73 -17.855,2.922 -26.934,3.012 -9.004,-0.09 -18.039,-1.321 -26.902,-3.059 -2.016,-0.285 -4.055,-0.738 -6.016,-1.367 -0.691,-0.043 -1.382,-0.141 -2.062,-0.184 0.277,1.176 0.859,2.231 1.547,3.2 -0.789,0.668 -1.547,1.32 -2.352,1.996 0.449,0.425 0.899,0.914 1.344,1.363 0.434,0.43 0.883,0.836 1.305,1.238 -0.297,0.137 -0.961,0.36 -1.258,0.504 0,0.602 0.043,1.227 0.094,1.875 1.296,0.457 2.644,0.859 3.945,1.289 -2.871,1.094 -6.129,1.496 -8.449,3.723 -2.059,1.98 -2.332,4.988 -2.782,7.644 -2.164,0.539 -4.308,1.953 -4.8,4.289 -0.723,3.375 -4.703,4.024 -7.578,4.114 -0.075,2.965 3.273,3.547 5.585,3.457 2.032,4.511 6.711,8.316 11.895,7.461 -0.613,-1.438 -1.328,-2.836 -2.141,-4.2 2.184,-2.203 5.352,-1.371 8.121,-1.371 0.786,-2.3 0,-4.589 -1.289,-6.539 0.442,-0.746 0.887,-1.55 1.305,-2.293 -1.793,-0.718 -4.086,-1.55 -4.398,-3.824 -0.989,-5.027 5.031,-9.183 9.547,-7.406 2.359,1.547 2.871,4.531 3.476,7.074 -4.851,-1.684 -8.875,7.031 -3.336,8.445 -0.699,2.52 -0.699,6.403 2.348,7.207 2.93,0.071 3.539,-3.539 3.258,-5.789 5.101,0.653 5.328,-6.851 1.863,-9.07 1.976,-2.562 5.262,-3.984 8.461,-4.211 2.902,-0.219 5.43,2.785 4.433,5.617 -0.695,-0.824 -1.3,-1.773 -2.195,-2.422 -1.5,-0.632 -3.328,0.782 -3.144,2.332 0.226,1.063 0.855,2 1.39,2.922 -3.863,-0.359 -3.144,4.028 -5.48,5.797 -1.793,1.867 -2.496,5.75 0.168,7.215 0.867,-0.18 1.718,-0.543 2.57,-0.902 1.258,0.902 2.57,1.687 3.914,2.406 -1.621,0.519 -3.445,1.93 -2.656,3.84 1,3.012 4.601,2.969 6.566,4.965"
         style="fill:#805e54;fill-opacity:1;fill-rule:nonzero;stroke:none"
         id="path30" /><path
         d="m 157.832,226.84 c 0.219,-1.813 -0.32,-5.055 2.152,-5.414 2.141,0.859 1.598,3.648 1.778,5.457 -1.239,-0.934 -2.657,-0.934 -3.93,-0.043 z m -0.68,1.191 c 1.684,0.137 3.645,0.098 5.332,0 1.746,-2.511 5.77,-1.859 6.715,-5.144 0.418,-2.383 -3.008,-1.793 -3.226,-3.84 2.73,-0.563 4.914,-4.16 7.742,-1.82 1.973,-2.247 0.426,-5.957 -2,-7.145 -1.777,1.844 -3.895,3.801 -6.629,3.617 1.016,-1.547 3.66,-1.191 4.809,-2.972 1.82,-1.004 1.996,-4.012 -0.188,-4.641 -3.883,0.043 -4.488,4.691 -7.449,6.332 0,0.969 0,1.91 0.043,2.879 1.281,0.695 2.875,0.734 4.117,1.461 -1.043,1.144 -3.148,-0.274 -4.516,-0.727 -1.195,1.129 -1.636,2.61 -1.636,4.25 -0.192,-0.086 -0.598,-0.265 -0.797,-0.336 0.172,-1.593 -0.68,-2.875 -1.828,-3.914 -1.36,0.727 -2.875,1.196 -4.461,1.196 0.578,-1.664 3.238,-0.743 4.148,-2.247 0.09,-0.875 0,-1.73 0,-2.605 -2.742,-1.598 -3.344,-5.48 -6.664,-6.246 -1.644,-0.43 -2.789,1.684 -2.207,3.055 1.352,2.226 3.785,3.461 6.27,4.023 -2.641,1.32 -5.051,-1.504 -6.805,-3.125 -2.43,1.281 -3.996,4.856 -2.035,7.145 2.902,-2.289 5.14,1.257 7.929,1.91 -0.546,1.82 -3.593,1.457 -3.375,3.636 0.758,3.399 4.942,2.747 6.711,5.258"
         style="fill:#e4ba0f;fill-opacity:1;fill-rule:nonzero;stroke:none"
         id="path32" /><path
         d="m 158.656,225.074 c 0.36,-0.933 0.094,-2.48 1.289,-2.789 0.942,0.649 0.762,1.973 1.035,2.965 -0.816,-0.043 -1.562,-0.09 -2.324,-0.176 z m -0.824,1.766 c 1.273,-0.891 2.691,-0.891 3.93,0.043 -0.18,-1.809 0.363,-4.598 -1.778,-5.457 -2.472,0.359 -1.933,3.601 -2.152,5.414"
         style="fill:#805e54;fill-opacity:1;fill-rule:nonzero;stroke:none"
         id="path34" /><path
         d="m 158.656,225.074 c 0.762,0.086 1.508,0.133 2.324,0.176 -0.273,-0.992 -0.093,-2.316 -1.035,-2.965 -1.195,0.309 -0.929,1.856 -1.289,2.789"
         style="fill:#e3ba0f;fill-opacity:1;fill-rule:nonzero;stroke:none"
         id="path36" /><path
         d="m 121.723,210.414 c -0.785,-1.453 -2.563,-4.234 -0.715,-5.301 -0.117,2 0.765,3.797 1.797,5.485 -0.266,-0.043 -0.813,-0.137 -1.082,-0.184 z m -5.981,-1.707 c 1.121,-0.133 1.348,1.106 1.867,1.801 0.61,1.238 2.055,1.957 2.317,3.375 -2.223,-0.813 -3.422,-3.106 -4.184,-5.176 m -3.515,1.848 c 1.863,3.972 5.527,7.304 10.125,7.48 -0.719,-1.371 -1.684,-2.648 -1.774,-4.246 2.309,-2.137 5.344,-1.816 8.27,-1.637 1.187,-2.879 -2.985,-5.039 -0.789,-7.531 -2.082,-0.875 -4.036,-2.691 -3.95,-5.125 -0.086,-5.164 5.793,-9.027 10.575,-7.48 2.789,1.371 3.484,4.695 4.207,7.39 0.183,1.469 2.191,1.645 2.968,0.543 2.961,-3.238 8.676,-5.84 12.547,-2.836 1.875,1.285 2.977,5.485 0,5.981 -0.691,-0.989 -1.367,-3.145 -2.91,-2.403 -1.781,0.942 -0.203,2.965 0.629,4.02 1.41,2.184 4.805,1.687 5.973,-0.473 3.082,-4.605 -1.121,-11.453 -6.516,-11.363 -3.797,-0.453 -7.164,1.637 -10.5,3.145 -1.238,-2.715 -3.09,-5.418 -6.035,-6.524 -3.535,-1.543 -7.484,-0.18 -10.891,1.149 -4.051,1.597 -5.535,6.808 -4.179,10.722 0.375,3.442 -3.641,6.356 -6.829,4.942 -1.804,1.457 -4.027,2.175 -6.386,2.175 1.125,2.161 3.769,1.188 5.465,2.071"
         style="fill:#e4ba0f;fill-opacity:1;fill-rule:nonzero;stroke:none"
         id="path38" /><path
         d="m 197.188,210.598 c 1.019,-1.688 1.914,-3.485 1.781,-5.485 1.84,1.067 0.09,3.848 -0.723,5.301 -0.266,0.047 -0.797,0.141 -1.058,0.184 z m 2.875,3.285 c 0.324,-1.418 1.691,-2.137 2.292,-3.375 0.543,-0.695 0.762,-1.891 1.872,-1.844 -0.75,2.113 -1.957,4.406 -4.164,5.219 m -2.422,4.152 c 4.605,-0.176 8.269,-3.508 10.125,-7.48 1.672,-0.883 4.339,0.09 5.437,-2.071 -1.859,-0.222 -3.875,-0.179 -5.351,-1.543 -1.207,-1.421 -2.946,0.313 -4.411,-0.453 -1.961,-0.968 -4,-3.054 -3.324,-5.437 1.137,-3.707 -0.273,-8.578 -3.98,-10.227 -3.68,-1.636 -8.024,-2.824 -11.86,-1.144 -2.66,1.195 -4.16,3.847 -5.394,6.34 -3.328,-1.508 -6.668,-3.598 -10.492,-3.145 -5.391,-0.043 -9.602,6.758 -6.489,11.363 1.137,2.16 4.567,2.657 5.977,0.473 0.824,-1.055 2.332,-3.078 0.594,-4.02 -1.543,-0.742 -2.196,1.414 -2.918,2.403 -2.602,-0.317 -2.024,-3.953 -0.649,-5.328 3.348,-3.789 9.457,-1.457 12.559,1.511 0.703,1.059 2.422,2.09 3.367,0.762 1.012,-2.836 1.43,-6.562 4.449,-8.023 4.789,-1.547 10.672,2.316 10.535,7.48 0.137,2.434 -1.82,4.25 -3.886,5.125 2.207,2.539 -1.992,4.652 -0.801,7.531 2.918,-0.226 5.969,-0.5 8.289,1.637 -0.09,1.598 -1.082,2.875 -1.777,4.246"
         style="fill:#e4ba0f;fill-opacity:1;fill-rule:nonzero;stroke:none"
         id="path40" /><path
         d="m 159.199,216.707 c 3.02,0.363 3.059,-5.703 0.442,-6.469 -2,1.375 -1.86,4.7 -0.442,6.469"
         style="fill:#214b81;fill-opacity:1;fill-rule:nonzero;stroke:none"
         id="path42" /><path
         d="m 137.133,214.848 c 3.308,-0.227 3.398,-6.41 0.289,-7.168 -3,0.758 -3,6.019 -0.289,7.168"
         style="fill:#e0dbd4;fill-opacity:1;fill-rule:nonzero;stroke:none"
         id="path44" /><path
         d="m 182.262,214.797 c 3.332,-0.09 3.468,-6.453 0.289,-7.117 -2.934,0.804 -2.973,5.972 -0.289,7.117"
         style="fill:#e0dbd4;fill-opacity:1;fill-rule:nonzero;stroke:none"
         id="path46" /><path
         d="m 115.742,208.707 c 0.762,2.07 1.961,4.363 4.184,5.176 -0.262,-1.418 -1.707,-2.137 -2.317,-3.375 -0.519,-0.695 -0.746,-1.934 -1.867,-1.801"
         style="fill:#8c6a48;fill-opacity:1;fill-rule:nonzero;stroke:none"
         id="path48" /><path
         d="m 200.063,213.883 c 2.207,-0.813 3.414,-3.106 4.164,-5.219 -1.11,-0.047 -1.329,1.149 -1.872,1.844 -0.601,1.238 -1.968,1.957 -2.292,3.375"
         style="fill:#8c6a48;fill-opacity:1;fill-rule:nonzero;stroke:none"
         id="path50" /><path
         d="m 157.469,211.41 c 1.597,-0.996 1.5,-3.285 2.836,-4.09 -0.039,1.59 0.675,2.918 1.679,4.09 1.465,-1.129 2.832,-2.402 3.438,-4.156 -2.695,-0.359 -4.586,-2.406 -5.438,-4.879 -0.832,2.605 -2.968,4.738 -5.859,4.879 0.691,1.656 2.02,2.941 3.344,4.156"
         style="fill:#e4ba0f;fill-opacity:1;fill-rule:nonzero;stroke:none"
         id="path52" /><path
         d="m 121.723,210.414 c 0.269,0.047 0.816,0.141 1.082,0.184 -1.032,-1.688 -1.914,-3.485 -1.797,-5.485 -1.848,1.067 -0.07,3.848 0.715,5.301"
         style="fill:#805e54;fill-opacity:1;fill-rule:nonzero;stroke:none"
         id="path54" /><path
         d="m 197.188,210.598 c 0.261,-0.043 0.792,-0.137 1.058,-0.184 0.813,-1.453 2.563,-4.234 0.723,-5.301 0.133,2 -0.762,3.797 -1.781,5.485"
         style="fill:#805e54;fill-opacity:1;fill-rule:nonzero;stroke:none"
         id="path56" /><path
         d="m 141.133,209.051 c 3.687,0.179 3.547,-7.375 -0.125,-7.035 -2.336,1.418 -2.25,5.707 0.125,7.035"
         style="fill:#e0dbd4;fill-opacity:1;fill-rule:nonzero;stroke:none"
         id="path58" /><path
         d="m 178.258,209.098 c 3.14,-0.481 3.222,-6.321 0.312,-7.168 -3.109,0.578 -3.242,6.285 -0.312,7.168"
         style="fill:#e0dbd4;fill-opacity:1;fill-rule:nonzero;stroke:none"
         id="path60" /><path
         d="m 134.086,207.301 c 2.871,0.199 5.305,-4.207 3.199,-6.336 -3.062,-1.106 -6.086,4.598 -3.199,6.336"
         style="fill:#e0dbd4;fill-opacity:1;fill-rule:nonzero;stroke:none"
         id="path62" /><path
         d="m 185.324,207.32 c 4.008,-0.699 0.317,-8.226 -2.914,-6.175 -1.469,2.246 0.403,5.707 2.914,6.175"
         style="fill:#e0dbd4;fill-opacity:1;fill-rule:nonzero;stroke:none"
         id="path64" /><path
         d="m 114.398,205.836 c 2.731,0.43 5.707,-2.879 4.45,-5.551 -2.746,-0.066 -5.438,2.809 -4.45,5.551"
         style="fill:#204a82;fill-opacity:1;fill-rule:nonzero;stroke:none"
         id="path66" /><path
         d="m 201.129,200.285 c -1.238,2.715 1.73,5.981 4.512,5.551 0.875,-2.742 -1.77,-5.617 -4.512,-5.551"
         style="fill:#204a82;fill-opacity:1;fill-rule:nonzero;stroke:none"
         id="path68" /><path
         d="m 128.98,186.766 c 12.243,3.144 24.954,5.836 37.704,4.64 7.64,-0.847 15.343,-2.043 22.687,-4.281 -9.574,1.59 -19.16,3.926 -28.933,3.84 -11.602,-0.043 -22.965,-2.656 -34.11,-5.485 0.477,0.965 1.731,0.965 2.652,1.286"
         style="fill:#e2b910;fill-opacity:1;fill-rule:nonzero;stroke:none"
         id="path70" /><path
         d="m 184.41,185.258 c -2.793,-1.824 2.781,-4.903 3.594,-2.113 0,1.753 -2.141,2.605 -3.594,2.113 z m -48.57,-0.09 c -1.289,-0.043 -2.883,-1.508 -1.754,-2.746 1.211,-0.922 3.297,-0.356 3.945,1.012 0.59,1.312 -1.164,2.046 -2.191,1.734 m 31.359,1.859 c 0,-0.312 0,-0.847 0,-1.14 1.055,-0.496 2.266,-0.453 3.41,-0.407 0.227,1.911 -2.043,2.208 -3.41,1.547 m -16.851,-0.804 c 0.808,-1.368 2.922,-0.875 3.902,0.129 -0.812,1.511 -3.359,1.601 -3.902,-0.129 m -6.614,1.64 c -1.746,-0.293 -4.39,-2.062 -2.933,-4.023 2.082,-1.93 6.172,-1.145 7.523,1.328 0.696,2.469 -2.832,3.187 -4.59,2.695 m 13.043,-1.097 c 1.055,-0.703 2.102,-1.332 3.207,-1.957 1.106,0.625 2.235,1.254 3.286,1.957 -1.821,2.238 -4.704,2.238 -6.493,0 m -29.214,-1.977 c 10.699,3.031 21.73,5.211 32.875,5.34 10.031,-0.086 19.898,-2.039 29.632,-4.328 1.102,-0.274 2.297,-0.41 3.192,-1.199 -1.371,-0.493 -2.742,-0.942 -4.059,-1.457 1.145,-1.235 2.817,-2 3.656,-3.5 -4.992,0.488 -9.906,1.722 -14.851,2.421 1.457,0.539 4.332,0.989 3.512,3.192 -1.403,2.519 -5.926,3.316 -7.758,0.894 -0.809,-2.449 2.285,-3.324 4.015,-3.859 -3.91,0.086 -7.75,0.852 -11.629,0.984 -13.109,1.004 -26.085,-1.636 -38.941,-4.039 1.297,1.075 2.695,1.86 4.133,2.735 -1.125,1.172 -2.707,1.636 -3.777,2.816"
         style="fill:#e4ba0f;fill-opacity:1;fill-rule:nonzero;stroke:none"
         id="path72" /><path
         d="m 156.777,186.766 c 1.789,2.238 4.672,2.238 6.493,0 -1.051,-0.703 -2.18,-1.332 -3.286,-1.957 -1.105,0.625 -2.152,1.254 -3.207,1.957"
         style="fill:#e61d25;fill-opacity:1;fill-rule:nonzero;stroke:none"
         id="path74" /><path
         d="m 141.082,184.602 c 1.922,-1.817 5.981,-1.082 6.652,1.578 -1.949,1.55 -6.109,1.211 -6.652,-1.578 z m 2.652,3.261 c 1.758,0.492 5.286,-0.226 4.59,-2.695 -1.351,-2.473 -5.441,-3.258 -7.523,-1.328 -1.457,1.961 1.187,3.73 2.933,4.023"
         style="fill:#83654e;fill-opacity:1;fill-rule:nonzero;stroke:none"
         id="path76" /><path
         d="m 150.348,186.223 c 0.543,1.73 3.09,1.64 3.902,0.129 -0.98,-1.004 -3.094,-1.497 -3.902,-0.129"
         style="fill:#b7a69d;fill-opacity:1;fill-rule:nonzero;stroke:none"
         id="path78" /><path
         d="m 167.199,187.027 c 1.367,0.661 3.637,0.364 3.41,-1.547 -1.144,-0.046 -2.355,-0.089 -3.41,0.407 0,0.293 0,0.828 0,1.14"
         style="fill:#b9a59d;fill-opacity:1;fill-rule:nonzero;stroke:none"
         id="path80" /><path
         d="m 141.082,184.602 c 0.543,2.789 4.703,3.128 6.652,1.578 -0.671,-2.66 -4.73,-3.395 -6.652,-1.578"
         style="fill:#204a82;fill-opacity:1;fill-rule:nonzero;stroke:none"
         id="path82" /><path
         d="m 174.41,185.301 c 0.918,2.562 6.324,1.637 6.512,-1.238 -1.996,-1.278 -5.418,-1.059 -6.512,1.238"
         style="fill:#204a82;fill-opacity:1;fill-rule:nonzero;stroke:none"
         id="path84" /><path
         d="m 135.141,182.695 c 0.328,0 1.101,0 1.453,0 1.668,2.293 -2.918,2.293 -1.453,0 z m 0.699,2.473 c 1.027,0.312 2.781,-0.422 2.191,-1.734 -0.648,-1.368 -2.734,-1.934 -3.945,-1.012 -1.129,1.238 0.465,2.703 1.754,2.746"
         style="fill:#805e54;fill-opacity:1;fill-rule:nonzero;stroke:none"
         id="path86" /><path
         d="m 184.719,184.469 c -0.403,-1.414 1.687,-2.496 2.16,-0.903 -0.09,1.223 -1.285,1.086 -2.16,0.903 z m -0.309,0.789 c 1.453,0.492 3.594,-0.36 3.594,-2.113 -0.813,-2.79 -6.387,0.289 -3.594,2.113"
         style="fill:#8a6952;fill-opacity:1;fill-rule:nonzero;stroke:none"
         id="path88" /><path
         d="m 135.141,182.695 c -1.465,2.293 3.121,2.293 1.453,0 -0.352,0 -1.125,0 -1.453,0"
         style="fill:#e0dbd4;fill-opacity:1;fill-rule:nonzero;stroke:none"
         id="path90" /><path
         d="m 184.719,184.469 c 0.875,0.183 2.07,0.32 2.16,-0.903 -0.473,-1.593 -2.563,-0.511 -2.16,0.903"
         style="fill:#e0dbd4;fill-opacity:1;fill-rule:nonzero;stroke:none"
         id="path92" /><path
         d="m 127.387,183.52 c 0.847,-0.422 1.691,-0.915 2.476,-1.5 -1.308,-0.922 -3.058,-2.157 -4.414,-0.473 0.614,0.695 1.219,1.418 1.938,1.973"
         style="fill:#e61d25;fill-opacity:1;fill-rule:nonzero;stroke:none"
         id="path94" /><path
         d="m 190.879,182.965 c 0.734,0.18 1.488,0.402 2.254,0.555 0.539,-0.555 1.004,-1.141 1.543,-1.704 -1.453,-0.898 -2.922,-0.125 -3.797,1.149"
         style="fill:#e61d25;fill-opacity:1;fill-rule:nonzero;stroke:none"
         id="path96" /><path
         d="m 152.035,182.242 c 13.094,1.278 26.223,-0.914 39.043,-3.344 0.852,-0.183 2.004,-0.089 2.274,-1.168 -11.735,2.274 -23.598,4.426 -35.571,4.133 -10.629,-0.316 -21.136,-2.179 -31.547,-4.293 0.274,0.52 0.832,0.696 1.418,0.832 8.047,1.645 16.172,3.196 24.383,3.84"
         style="fill:#e2b910;fill-opacity:1;fill-rule:nonzero;stroke:none"
         id="path98" /><path
         d="m 127.066,176.629 c 1.961,0.629 4,1.082 6.016,1.367 0.641,-0.426 1.273,-0.875 1.875,-1.367 -2.633,0 -5.277,0.047 -7.891,0"
         style="fill:#ffffff;fill-opacity:1;fill-rule:nonzero;stroke:none"
         id="path100" /><path
         d="m 157.641,102.934 c 0.191,-0.157 0.543,-0.426 0.703,-0.606 0,-1.23 0.051,-2.5155 0.09,-3.7499 -0.336,-0.1328 -1.016,-0.4062 -1.325,-0.5429 -0.289,1.4179 0.274,2.8318 0.274,4.2108 -1.012,0.082 -2.09,0.039 -3.133,0.082 0.043,-0.223 0.117,-0.586 0.156,-0.805 h 0.453 c -0.312,-2.6558 -0.273,-5.3941 -0.925,-7.9996 3.707,-0.0468 7.425,0 11.152,0 -0.938,2.5625 -0.402,5.3438 -0.902,7.9996 h 0.5 c 0,0.219 0.089,0.629 0.089,0.852 -2.472,-0.539 -4.699,1.055 -7.132,0.559 z m 21.734,14.289 c 0.141,-0.317 0.293,-0.875 0.422,-1.192 -1.453,-2.16 -2.774,-4.426 -4.426,-6.441 3.102,-1.871 6.246,-3.692 9.481,-5.235 0.789,2.583 2.211,4.872 3.199,7.383 0.156,-0.09 0.605,-0.261 0.789,-0.359 -0.406,1.598 -2.934,1.418 -3.11,3.285 -0.824,0.492 -1.726,0.922 -2.605,1.367 0,-0.265 0,-0.781 0.047,-1.047 -0.762,-1.285 -1.145,-3.804 -3.145,-3.246 0.45,1.149 1.094,2.274 1.77,3.285 0.324,0.09 0.844,0.274 1.156,0.364 -1.156,0.691 -2.344,1.316 -3.578,1.836 m -42.555,-2.285 c 0.223,0.046 0.653,0.128 0.879,0.175 0.512,-0.992 1.106,-1.91 1.692,-2.828 -0.188,-0.226 -0.547,-0.726 -0.719,-0.992 -1.156,0.992 -1.715,2.359 -2.297,3.691 0,0.266 0.039,0.782 0.098,1.047 -2.34,-0.511 -3.067,-3.054 -5.274,-3.746 -0.765,0.047 -0.172,-1.469 0.36,-0.68 0.894,-2.015 1.711,-4.109 2.796,-6.042 0,-0.536 0,-1.079 0,-1.594 3.481,1.66 6.727,3.703 10.157,5.531 -0.364,0.379 -0.778,0.691 -1.16,1.055 -1.231,1.867 -2.504,3.66 -3.653,5.566 0.09,0.27 0.313,0.762 0.438,1.008 -1.203,-0.606 -2.571,-1.051 -3.317,-2.191 m -5.48,29.085 c 0.172,-0.085 0.558,-0.265 0.781,-0.355 -0.086,-1.328 -0.086,-2.699 0,-4.02 -0.402,-0.043 -0.781,-0.132 -1.187,-0.179 0,1.168 0,2.316 0,3.457 0.578,0.781 -3.153,0.781 -2.52,-0.043 l 0.281,-0.227 c -0.09,-0.961 -0.14,-1.929 -0.23,-2.914 l -0.492,-0.051 c 0.086,-0.921 0.179,-1.839 0.312,-2.785 -0.226,-0.652 -0.363,-1.371 -0.504,-2.019 l -0.355,-0.317 c 3.863,-0.132 7.73,-0.175 11.601,0 l -0.406,0.317 c -0.09,0.511 -0.226,1.047 -0.359,1.593 0.09,1.145 0.133,2.29 0.179,3.434 l -0.449,-0.129 c -0.019,0.985 -0.117,1.957 -0.156,2.914 l 0.195,0.184 c 0.641,0.824 -3.113,0.824 -2.511,0.043 0,-1.141 0,-2.289 0,-3.457 -0.422,0.047 -0.836,0.09 -1.207,0.136 0.109,1.321 0.109,2.696 0.082,4.043 0.156,0.059 0.562,0.29 0.746,0.375 -1.282,0.098 -2.586,0.098 -3.801,0 m 53.027,-0.554 c -0.969,-0.098 -1.957,-0.098 -2.926,0 0.77,-2.875 0.039,-5.977 -0.519,-8.809 3.707,0 7.469,0 11.234,0 -0.672,2.832 -1.258,5.934 -0.543,8.809 -1.316,-0.098 -2.863,-0.41 -3.828,0.781 -1.176,0 -2.664,0.453 -3.418,-0.781 m -43.789,16.308 c 0,-11.054 0,-22.152 0,-33.25 0.289,-5.531 1.992,-11.23 5.754,-15.433 5.434,-5.891 14.848,-6.739 21.871,-3.375 6.832,3.508 9.871,11.508 10.231,18.808 0.039,11.051 0,22.149 0.039,33.25 -12.649,0.047 -25.25,0 -37.895,0 m 44.184,12.649 c -1.008,-0.512 -2.211,-0.559 -3.364,-0.512 0.579,-2.793 0,-5.754 -0.527,-8.59 3.758,0 7.52,-0.039 11.285,0 -0.543,2.836 -1.027,5.844 -0.492,8.672 -2.332,-0.262 -4.601,1.504 -6.902,0.43 m -54.367,-0.469 c -0.817,0.137 -1.598,0.156 -2.379,0.246 0.398,-1.285 0.449,-2.562 0.359,-3.887 l -0.402,-0.046 c 0.086,-0.965 0.179,-1.973 0.218,-2.969 0,-0.137 -0.089,-0.379 -0.132,-0.512 -0.137,-0.492 -0.278,-0.945 -0.407,-1.414 3.731,-0.051 7.446,-0.051 11.153,0 -0.133,0.469 -0.274,0.922 -0.41,1.414 -0.043,0.133 -0.133,0.375 -0.133,0.469 0.047,1.168 0.308,2.316 -0.141,3.371 -0.09,1.195 -0.043,2.383 0.32,3.574 -0.793,-0.09 -1.574,-0.109 -2.378,-0.246 -1.641,1.231 -4.028,1.231 -5.668,0 m -5.391,4.488 c 0.68,0.043 1.371,0.141 2.062,0.184 2.614,0.047 5.258,0 7.891,0 8.352,0 16.676,0 25.027,0 8.36,0.047 16.696,0 25.047,0.047 2.614,-0.047 5.266,-0.047 7.875,0.043 0.266,-0.043 0.852,-0.133 1.09,-0.18 -0.047,-5.527 0,-11.008 0,-16.535 0,-7.524 -0.047,-15.078 0,-22.645 -0.082,-4.836 0.094,-9.597 -0.082,-14.425 -0.652,-8.766 -4.023,-17.637 -10.562,-23.7504 -6.2,-5.8906 -14.961,-8.2695 -23.368,-8.3125 -8.089,-0.0898 -16.539,1.7695 -22.98,6.9375 -7.524,6.0234 -11.414,15.7074 -12.043,25.2144 -0.129,4.512 -0.043,9.075 -0.043,13.614 -0.047,7.797 -0.047,15.593 -0.047,23.367 0.09,5.48 -0.09,10.965 0.133,16.441"
         style="fill:#e61d25;fill-opacity:1;fill-rule:nonzero;stroke:none"
         id="path102" /><path
         d="m 130.395,171.957 c 1.64,1.231 4.027,1.231 5.668,0 0.804,0.137 1.585,0.156 2.378,0.246 -0.363,-1.191 -0.41,-2.379 -0.32,-3.574 l -0.195,-0.094 c 0.047,1.016 0.047,2.043 0.066,3.106 -0.734,-0.137 -1.207,-0.493 -1.207,-1.286 -0.234,0.274 -0.68,0.747 -0.902,1.02 l -0.274,0.266 c -0.402,0.132 -0.742,0.273 -1.14,0.406 -0.844,0.066 -1.699,0.156 -2.52,0.242 0,-0.195 0.039,-0.601 0.039,-0.828 -0.359,0 -0.742,0.043 -1.093,0.043 h -0.461 c -0.168,-0.313 -0.532,-0.875 -0.715,-1.191 -0.09,0.746 -0.473,1.191 -1.215,1.328 0,-1.106 0.051,-2.227 0.051,-3.325 h -0.18 c 0.09,1.325 0.039,2.602 -0.359,3.887 0.781,-0.09 1.562,-0.109 2.379,-0.246"
         style="fill:#204b81;fill-opacity:1;fill-rule:nonzero;stroke:none"
         id="path104" /><path
         d="m 181.715,167.129 c 0,-0.832 0,-1.695 0,-2.52 1.238,-0.046 2.473,-0.046 3.656,0 0.223,0.743 0.399,1.508 0.723,2.2 1.316,0.32 1.148,-1.418 1.601,-2.2 1.188,-0.046 2.418,-0.046 3.657,0 -0.051,0.825 -0.051,1.688 0,2.52 -3.239,0.039 -6.403,0.039 -9.637,0 z m 7.566,3.93 c 0,-0.793 0,-1.598 0,-2.379 0.473,-0.184 1.067,-0.364 1.598,-0.547 0,0.988 0,1.953 0,2.926 -0.531,0 -1.078,0 -1.598,0 m -7.07,0 c 0,-0.973 0,-1.981 -0.051,-2.973 0.563,0.184 1.106,0.41 1.617,0.633 0,0.785 0,1.594 0,2.34 -0.511,0 -1.054,0 -1.566,0 m 5.656,1.324 c 0.184,-1.414 -1.078,-4.25 0.973,-4.469 0.043,1.547 0.394,3.367 -0.973,4.469 m -2.179,-0.387 c 0,-1.32 -0.227,-2.715 0.449,-3.953 0.398,0.227 0.781,0.41 1.187,0.586 0.051,1.101 0.051,2.242 0.051,3.367 -0.586,0 -1.105,0 -1.687,0 m -1.461,-4.152 c 1.867,0.691 0.851,3.074 0.988,4.582 -1.438,-1.094 -1.074,-3.012 -0.988,-4.582 m 0.535,4.582 c 2.301,1.074 4.57,-0.692 6.902,-0.43 -0.535,-2.828 -0.051,-5.836 0.492,-8.672 -3.765,-0.039 -7.527,0 -11.285,0 0.527,2.836 1.106,5.797 0.527,8.59 1.153,-0.047 2.356,0 3.364,0.512"
         style="fill:#bfa11b;fill-opacity:1;fill-rule:nonzero;stroke:none"
         id="path106" /><path
         d="m 131.949,172.289 c 0.821,-0.086 1.676,-0.176 2.52,-0.242 -0.047,-1.258 -0.074,-2.453 -0.114,-3.641 -0.769,0.047 -1.539,0.047 -2.234,-0.047 -0.039,1.055 -0.086,2.086 -0.133,3.102 0,0.227 -0.039,0.633 -0.039,0.828"
         style="fill:#e4ba0f;fill-opacity:1;fill-rule:nonzero;stroke:none"
         id="path108" /><path
         d="m 184.227,167.844 c -0.086,1.57 -0.45,3.488 0.988,4.582 -0.137,-1.508 0.879,-3.891 -0.988,-4.582"
         style="fill:#e31e28;fill-opacity:1;fill-rule:nonzero;stroke:none"
         id="path110" /><path
         d="m 185.688,171.996 c 0.582,0 1.101,0 1.687,0 0,-1.125 0,-2.266 -0.051,-3.367 -0.406,-0.176 -0.789,-0.359 -1.187,-0.586 -0.676,1.238 -0.449,2.633 -0.449,3.953"
         style="fill:#f6b60b;fill-opacity:1;fill-rule:nonzero;stroke:none"
         id="path112" /><path
         d="m 187.867,172.383 c 1.367,-1.102 1.016,-2.922 0.973,-4.469 -2.051,0.219 -0.789,3.055 -0.973,4.469"
         style="fill:#e31f28;fill-opacity:1;fill-rule:nonzero;stroke:none"
         id="path114" /><path
         d="m 130.895,171.504 c 0.351,0 0.734,-0.043 1.093,-0.043 0.047,-1.016 0.094,-2.047 0.133,-3.102 -0.402,-0.043 -0.781,-0.089 -1.187,-0.129 0,1.051 -0.039,2.168 -0.039,3.274"
         style="fill:#e31e28;fill-opacity:1;fill-rule:nonzero;stroke:none"
         id="path116" /><path
         d="m 134.469,172.047 c 0.398,-0.133 0.738,-0.274 1.14,-0.406 -0.043,-1.153 -0.089,-2.321 -0.14,-3.461 -0.371,0.09 -0.735,0.179 -1.114,0.226 0.04,1.188 0.067,2.383 0.114,3.641"
         style="fill:#e31e28;fill-opacity:1;fill-rule:nonzero;stroke:none"
         id="path118" /><path
         d="m 128.504,171.641 c 0.742,-0.137 1.125,-0.582 1.215,-1.328 0.183,0.316 0.547,0.878 0.715,1.191 0,-0.969 0,-1.953 0,-2.918 -0.621,-0.09 -1.235,-0.18 -1.879,-0.27 0,1.098 -0.051,2.219 -0.051,3.325"
         style="fill:#e4ba0f;fill-opacity:1;fill-rule:nonzero;stroke:none"
         id="path120" /><path
         d="m 130.434,171.504 h 0.461 c 0,-1.106 0.039,-2.223 0.039,-3.274 0.406,0.04 0.785,0.086 1.187,0.129 0.695,0.094 1.465,0.094 2.234,0.047 0.379,-0.047 0.743,-0.136 1.114,-0.226 0.051,1.14 0.097,2.308 0.14,3.461 l 0.274,-0.266 c 0.047,-1.152 0.18,-2.254 0.617,-3.371 0.457,0.176 0.922,0.355 1.426,0.531 l 0.195,0.094 c 0.449,-1.055 0.188,-2.203 0.141,-3.371 -0.184,0.68 -0.336,1.285 -0.524,1.91 -3.004,0.09 -6.019,0.09 -9,0 -0.183,-0.625 -0.363,-1.23 -0.547,-1.867 -0.039,0.996 -0.132,2.004 -0.218,2.969 l 0.402,0.046 h 0.18 c 0.644,0.09 1.258,0.18 1.879,0.27 0,0.965 0,1.949 0,2.918"
         style="fill:#968320;fill-opacity:1;fill-rule:nonzero;stroke:none"
         id="path122" /><path
         d="m 135.883,171.375 c 0.222,-0.273 0.668,-0.746 0.902,-1.02 0,0.793 0.473,1.149 1.207,1.286 -0.019,-1.063 -0.019,-2.09 -0.066,-3.106 -0.504,-0.176 -0.969,-0.355 -1.426,-0.531 -0.437,1.117 -0.57,2.219 -0.617,3.371"
         style="fill:#e4ba0f;fill-opacity:1;fill-rule:nonzero;stroke:none"
         id="path124" /><path
         d="m 182.211,171.059 c 0.512,0 1.055,0 1.566,0 0,-0.746 0,-1.555 0,-2.34 -0.511,-0.223 -1.054,-0.449 -1.617,-0.633 0.051,0.992 0.051,2 0.051,2.973"
         style="fill:#e4ba0f;fill-opacity:1;fill-rule:nonzero;stroke:none"
         id="path126" /><path
         d="m 189.281,171.059 c 0.52,0 1.067,0 1.598,0 0,-0.973 0,-1.938 0,-2.926 -0.531,0.183 -1.125,0.363 -1.598,0.547 0,0.781 0,1.586 0,2.379"
         style="fill:#e4ba0f;fill-opacity:1;fill-rule:nonzero;stroke:none"
         id="path128" /><path
         d="m 128.738,167.168 c 2.981,0.09 5.996,0.09 9,0 0.188,-0.625 0.34,-1.23 0.524,-1.91 0,-0.094 0.09,-0.336 0.133,-0.469 -1.438,-0.047 -2.875,-0.226 -4.309,-0.41 -0.18,0.922 -0.5,1.871 -1.004,2.703 -0.266,-0.875 -0.488,-1.824 -0.668,-2.703 -1.437,0.184 -2.918,0.363 -4.355,0.41 0.043,0.133 0.132,0.375 0.132,0.512 0.184,0.637 0.364,1.242 0.547,1.867"
         style="fill:#e4ba0f;fill-opacity:1;fill-rule:nonzero;stroke:none"
         id="path130" /><path
         d="m 181.715,167.129 c 3.234,0.039 6.398,0.039 9.637,0 -0.051,-0.832 -0.051,-1.695 0,-2.52 -1.239,-0.046 -2.469,-0.046 -3.657,0 -0.453,0.782 -0.285,2.52 -1.601,2.2 -0.324,-0.692 -0.5,-1.457 -0.723,-2.2 -1.183,-0.046 -2.418,-0.046 -3.656,0 0,0.825 0,1.688 0,2.52"
         style="fill:#e4ba0f;fill-opacity:1;fill-rule:nonzero;stroke:none"
         id="path132" /><path
         d="m 133.082,167.082 c 0.504,-0.832 0.824,-1.781 1.004,-2.703 -0.551,-0.039 -1.129,-0.039 -1.672,0 0.18,0.879 0.402,1.828 0.668,2.703"
         style="fill:#204a82;fill-opacity:1;fill-rule:nonzero;stroke:none"
         id="path134" /><path
         d="m 127.652,163.375 c 0.129,0.469 0.27,0.922 0.407,1.414 1.437,-0.047 2.918,-0.226 4.355,-0.41 0.543,-0.039 1.121,-0.039 1.672,0 1.434,0.184 2.871,0.363 4.309,0.41 0.136,-0.492 0.277,-0.945 0.41,-1.414 -3.707,-0.051 -7.422,-0.051 -11.153,0"
         style="fill:#c9a917;fill-opacity:1;fill-rule:nonzero;stroke:none"
         id="path136" /><path
         d="m 155.148,123.023 c 0.184,-3.285 -0.289,-6.589 0.313,-9.82 1,-3.933 7.578,-3.887 8.449,0.094 0.637,3.187 0.184,6.488 0.32,9.726 -3.011,0.043 -6.046,0 -9.082,0 z M 166.645,139 c 0.085,-3.242 -0.27,-6.52 0.148,-9.691 0.895,-4.067 7.66,-4.067 8.535,0 0.445,3.171 0.09,6.449 0.176,9.691 -2.953,0.043 -5.93,0.043 -8.859,0 m -11.497,0 c 0.184,-3.289 -0.332,-6.633 0.313,-9.867 1.043,-3.891 7.539,-3.848 8.449,0.09 0.637,3.215 0.184,6.535 0.32,9.777 -3.05,0.043 -6.046,0.043 -9.082,0 m -11.375,0 c 0.153,-3.242 -0.293,-6.562 0.329,-9.777 0.898,-3.938 7.433,-3.981 8.453,-0.09 0.668,3.234 0.133,6.578 0.308,9.867 -3.011,0.043 -6.062,0.043 -9.09,0 m 11.375,15.977 c 0.184,-3.289 -0.332,-6.704 0.313,-9.938 1.086,-3.844 7.539,-3.801 8.449,0.09 0.637,3.234 0.184,6.559 0.32,9.848 -3.05,0.039 -6.046,0.039 -9.082,0 m -14.57,4.8 c 12.645,0 25.246,0.047 37.895,0 -0.039,-11.101 0,-22.199 -0.039,-33.25 -0.36,-7.3 -3.399,-15.3 -10.231,-18.808 -7.023,-3.364 -16.437,-2.516 -21.871,3.375 -3.762,4.203 -5.465,9.902 -5.754,15.433 0,11.098 0,22.196 0,33.25"
         style="fill:#ffffff;fill-opacity:1;fill-rule:nonzero;stroke:none"
         id="path138" /><path
         d="m 161.359,146.855 c -1.054,-0.472 -0.336,-2.199 0.766,-1.769 1.094,0.535 0.383,2.18 -0.766,1.769 z m -3.214,-1.816 c 0.113,0.227 0.328,0.723 0.421,0.941 -0.093,0.223 -0.308,0.696 -0.421,0.922 -1.821,0.411 -1.821,-2.199 0,-1.863 m 1.007,4.473 c -1.007,-0.567 0.129,-2.199 0.973,-1.508 1.094,0.59 0,2.359 -0.973,1.508 m 1.645,2.586 c -0.313,-1.778 2.156,-1.778 1.887,-0.051 -0.2,0.133 -0.7,0.433 -0.922,0.566 -0.231,-0.133 -0.711,-0.383 -0.965,-0.515 m -3.379,0.468 c -1.047,-0.336 -0.871,-2.062 0.363,-1.89 1.188,0.316 0.785,1.937 -0.363,1.89 m -2.27,2.411 c 3.036,0.039 6.032,0.039 9.082,0 -0.136,-3.289 0.317,-6.614 -0.32,-9.848 -0.91,-3.891 -7.363,-3.934 -8.449,-0.09 -0.645,3.234 -0.129,6.649 -0.313,9.938"
         style="fill:#204b81;fill-opacity:1;fill-rule:nonzero;stroke:none"
         id="path140" /><path
         d="m 157.418,152.566 c 1.148,0.047 1.551,-1.574 0.363,-1.89 -1.234,-0.172 -1.41,1.554 -0.363,1.89"
         style="fill:#ffffff;fill-opacity:1;fill-rule:nonzero;stroke:none"
         id="path142" /><path
         d="m 160.797,152.098 c 0.254,0.132 0.734,0.382 0.965,0.515 0.222,-0.133 0.722,-0.433 0.922,-0.566 0.269,-1.727 -2.2,-1.727 -1.887,0.051"
         style="fill:#ffffff;fill-opacity:1;fill-rule:nonzero;stroke:none"
         id="path144" /><path
         d="m 159.152,149.512 c 0.973,0.851 2.067,-0.918 0.973,-1.508 -0.844,-0.691 -1.98,0.941 -0.973,1.508"
         style="fill:#ffffff;fill-opacity:1;fill-rule:nonzero;stroke:none"
         id="path146" /><path
         d="m 158.145,145.039 c -1.821,-0.336 -1.821,2.274 0,1.863 0.113,-0.226 0.328,-0.699 0.421,-0.922 -0.093,-0.218 -0.308,-0.714 -0.421,-0.941"
         style="fill:#ffffff;fill-opacity:1;fill-rule:nonzero;stroke:none"
         id="path148" /><path
         d="m 161.359,146.855 c 1.149,0.411 1.86,-1.234 0.766,-1.769 -1.102,-0.43 -1.82,1.297 -0.766,1.769"
         style="fill:#ffffff;fill-opacity:1;fill-rule:nonzero;stroke:none"
         id="path150" /><path
         d="m 181.301,135.152 c 3.512,-0.043 7,0 10.492,0 -3.492,0.047 -6.98,0.047 -10.492,0 z m 0.414,3.485 c -0.055,-1.012 -0.098,-2 -0.145,-3.016 1.383,-0.086 2.746,-0.086 4.118,0.047 0.316,0.812 0.128,2.043 1.101,2.383 0.18,-0.789 0.363,-1.571 0.535,-2.383 1.379,-0.133 2.746,-0.133 4.117,-0.047 -0.05,1.016 -0.05,2.004 -0.089,3.016 -3.184,0.09 -6.403,0.09 -9.637,0 m 7.488,3.98 c 0,-1.379 -0.363,-3.191 1.406,-3.617 0.602,1.141 0.52,2.422 0.43,3.617 -0.25,-0.183 -0.691,-0.613 -0.969,-0.785 -0.269,0.266 -0.582,0.508 -0.867,0.785 m -7.176,0.039 c -0.05,-1.187 -0.093,-2.426 -0.093,-3.656 2.207,-0.094 2.023,2.109 1.933,3.656 -0.289,-0.316 -0.601,-0.558 -0.914,-0.871 -0.23,0.219 -0.691,0.649 -0.926,0.871 m 5.668,1.145 c -0.05,-1.547 0,-3.074 -0.05,-4.625 0.359,0 1.011,-0.047 1.324,-0.047 -0.176,1.508 0.695,4.156 -1.274,4.672 m -2.054,-0.293 c 0,-1.453 -0.407,-3.051 0.453,-4.379 2.164,-0.086 1.148,3.055 1.281,4.422 -0.184,-0.223 -0.586,-0.668 -0.789,-0.895 -0.316,0.313 -0.633,0.582 -0.945,0.852 m -1.547,-4.555 c 2.265,0.516 0.984,3.258 1.277,4.848 -2.066,-0.606 -1.144,-3.254 -1.277,-4.848 m 0.273,4.516 c 0.754,1.234 2.242,0.781 3.418,0.781 0.965,-1.191 2.512,-0.879 3.828,-0.781 -0.715,-2.875 -0.129,-5.977 0.543,-8.809 -3.765,0 -7.527,0 -11.234,0 0.558,2.832 1.289,5.934 0.519,8.809 0.969,-0.098 1.957,-0.098 2.926,0"
         style="fill:#e1b15a;fill-opacity:1;fill-rule:nonzero;stroke:none"
         id="path152" /><path
         d="m 131.34,144.023 c 1.215,0.098 2.519,0.098 3.801,0 -0.184,-0.085 -0.59,-0.316 -0.746,-0.375 -0.262,-0.046 -0.809,-0.14 -1.082,-0.179 0,-0.274 0.046,-0.813 0.046,-1.082 -0.089,0.23 -0.316,0.718 -0.402,0.941 -0.227,0.09 -0.656,0.274 -0.836,0.34 -0.223,0.09 -0.609,0.27 -0.781,0.355"
         style="fill:#204b81;fill-opacity:1;fill-rule:nonzero;stroke:none"
         id="path154" /><path
         d="m 128.414,142.883 c -0.633,0.824 3.098,0.824 2.52,0.043 -0.852,-0.043 -1.688,-0.043 -2.52,-0.043"
         style="fill:#2b4865;fill-opacity:1;fill-rule:nonzero;stroke:none"
         id="path156" /><path
         d="m 132.121,143.668 c 0.18,-0.066 0.609,-0.25 0.836,-0.34 0.086,-0.223 0.313,-0.711 0.402,-0.941 0,0.269 -0.046,0.808 -0.046,1.082 0.273,0.039 0.82,0.133 1.082,0.179 0.027,-1.347 0.027,-2.722 -0.082,-4.043 -0.727,0.086 -1.497,0.086 -2.192,0.043 -0.086,1.321 -0.086,2.692 0,4.02"
         style="fill:#e4ba0f;fill-opacity:1;fill-rule:nonzero;stroke:none"
         id="path158" /><path
         d="m 135.52,142.926 c -0.602,0.781 3.152,0.781 2.511,-0.043 -0.804,0 -1.656,0 -2.511,0.043"
         style="fill:#294564;fill-opacity:1;fill-rule:nonzero;stroke:none"
         id="path160" /><path
         d="m 184.094,138.953 c 0.133,1.594 -0.789,4.242 1.277,4.848 -0.293,-1.59 0.988,-4.332 -1.277,-4.848"
         style="fill:#df1f27;fill-opacity:1;fill-rule:nonzero;stroke:none"
         id="path162" /><path
         d="m 185.641,143.508 c 0.312,-0.27 0.629,-0.539 0.945,-0.852 0.203,0.227 0.605,0.672 0.789,0.895 -0.133,-1.367 0.883,-4.508 -1.281,-4.422 -0.86,1.328 -0.453,2.926 -0.453,4.379"
         style="fill:#e4ba0f;fill-opacity:1;fill-rule:nonzero;stroke:none"
         id="path164" /><path
         d="m 187.695,143.801 c 1.969,-0.516 1.098,-3.164 1.274,-4.672 -0.313,0 -0.965,0.047 -1.324,0.047 0.05,1.551 0,3.078 0.05,4.625"
         style="fill:#de1f27;fill-opacity:1;fill-rule:nonzero;stroke:none"
         id="path166" /><path
         d="m 128.414,142.883 c 0.832,0 1.668,0 2.52,0.043 0,-1.141 0,-2.289 0,-3.457 0.406,0.047 0.785,0.136 1.187,0.179 0.695,0.043 1.465,0.043 2.192,-0.043 0.371,-0.046 0.785,-0.089 1.207,-0.136 0,1.168 0,2.316 0,3.457 0.855,-0.043 1.707,-0.043 2.511,-0.043 l -0.195,-0.184 c -0.363,-0.398 -0.703,-0.738 -1.106,-1.097 -0.179,0.23 -0.535,0.699 -0.71,0.921 -0.09,-1.101 -0.051,-2.156 0.453,-3.164 0.531,0.11 1,0.289 1.519,0.426 l 0.449,0.129 c -0.046,-1.144 -0.089,-2.289 -0.179,-3.434 -0.184,0.649 -0.336,1.282 -0.563,1.93 -2.965,0.047 -5.98,0.047 -8.961,0 -0.183,-0.519 -0.324,-1.008 -0.453,-1.504 -0.133,0.946 -0.226,1.864 -0.312,2.785 l 0.492,0.051 c 0.652,0 1.305,0 1.969,0 0,0.934 0.054,1.821 0.097,2.735 -0.226,-0.223 -0.668,-0.602 -0.902,-0.825 -0.332,0.352 -0.649,0.649 -0.934,1.004 l -0.281,0.227"
         style="fill:#958020;fill-opacity:1;fill-rule:nonzero;stroke:none"
         id="path168" /><path
         d="m 128.695,142.656 c 0.285,-0.355 0.602,-0.652 0.934,-1.004 0.234,0.223 0.676,0.602 0.902,0.825 -0.043,-0.914 -0.097,-1.801 -0.097,-2.735 -0.664,0 -1.317,0 -1.969,0 0.09,0.985 0.14,1.953 0.23,2.914"
         style="fill:#e4ba0f;fill-opacity:1;fill-rule:nonzero;stroke:none"
         id="path170" /><path
         d="m 136.473,139.359 c -0.504,1.008 -0.543,2.063 -0.453,3.164 0.175,-0.222 0.531,-0.691 0.71,-0.921 0.403,0.359 0.743,0.699 1.106,1.097 0.039,-0.957 0.137,-1.929 0.156,-2.914 -0.519,-0.137 -0.988,-0.316 -1.519,-0.426"
         style="fill:#e3ba0f;fill-opacity:1;fill-rule:nonzero;stroke:none"
         id="path172" /><path
         d="m 182.027,142.656 c 0.235,-0.222 0.696,-0.652 0.926,-0.871 0.313,0.313 0.625,0.555 0.914,0.871 0.09,-1.547 0.274,-3.75 -1.933,-3.656 0,1.23 0.043,2.469 0.093,3.656"
         style="fill:#e4ba0f;fill-opacity:1;fill-rule:nonzero;stroke:none"
         id="path174" /><path
         d="m 189.203,142.617 c 0.285,-0.277 0.598,-0.519 0.867,-0.785 0.278,0.172 0.719,0.602 0.969,0.785 0.09,-1.195 0.172,-2.476 -0.43,-3.617 -1.769,0.426 -1.406,2.238 -1.406,3.617"
         style="fill:#e4ba0f;fill-opacity:1;fill-rule:nonzero;stroke:none"
         id="path176" /><path
         d="m 150.262,130.859 c -0.93,-0.539 -0.93,-1.504 -0.039,-2.086 0.265,0.137 0.757,0.36 0.976,0.45 0,0.312 0,0.914 0,1.234 -0.219,0.09 -0.711,0.309 -0.937,0.402 z m -4.817,-0.449 c 0,-0.312 0,-0.875 0,-1.148 0.231,-0.09 0.61,-0.313 0.836,-0.399 0.219,0.086 0.61,0.309 0.828,0.399 0,0.32 0,0.836 0,1.148 -0.218,0.09 -0.609,0.317 -0.828,0.406 -0.226,-0.089 -0.605,-0.316 -0.836,-0.406 m 3.442,1.324 c 0.133,0.274 0.347,0.789 0.476,1.055 -1.308,2.32 -3.125,-1.453 -0.476,-1.055 m 0.965,4.52 c -0.965,-0.719 0.14,-2.359 1.128,-1.594 0.875,0.785 -0.046,2.11 -1.128,1.594 m -4.407,0 c -0.765,-2.219 2.43,-2.219 1.664,0 -0.589,-0.047 -1.14,-0.047 -1.664,0 M 143.773,139 c 3.028,0.043 6.079,0.043 9.09,0 -0.175,-3.289 0.36,-6.633 -0.308,-9.867 -1.02,-3.891 -7.555,-3.848 -8.453,0.09 -0.622,3.215 -0.176,6.535 -0.329,9.777"
         style="fill:#204b81;fill-opacity:1;fill-rule:nonzero;stroke:none"
         id="path178" /><path
         d="m 160.93,130.41 c 0,-0.273 0,-0.875 0,-1.148 0.203,-0.129 0.652,-0.352 0.922,-0.489 0.586,0.36 0.789,0.918 0.789,1.637 -0.203,0.09 -0.657,0.27 -0.879,0.406 -0.231,-0.136 -0.629,-0.316 -0.832,-0.406 z m -3.2,-1.547 c 1.149,0.309 0.793,1.594 0,2.09 -1.093,-0.367 -1.406,-1.953 0,-2.09 m 1.508,4.61 c -0.933,-0.5 -0.312,-2.137 0.707,-1.688 1.274,0.18 0.399,2.43 -0.707,1.688 m 1.649,2.781 c -0.449,-1.191 0.918,-2.559 1.754,-1.191 0.312,1.191 -0.836,1.371 -1.754,1.191 m -2.231,-0.984 c -0.133,0.265 -0.351,0.804 -0.472,1.078 -2.672,0.379 -0.856,-3.375 0.472,-1.078 m -3.508,3.73 c 3.036,0.043 6.032,0.043 9.082,0 -0.136,-3.242 0.317,-6.562 -0.32,-9.777 -0.91,-3.938 -7.406,-3.981 -8.449,-0.09 -0.645,3.234 -0.129,6.578 -0.313,9.867"
         style="fill:#204a82;fill-opacity:1;fill-rule:nonzero;stroke:none"
         id="path180" /><path
         d="m 172.953,130.727 c -1.101,-0.09 -0.832,-1.954 0.266,-1.817 1.234,0.039 0.972,2.11 -0.266,1.817 z m -4.031,0 c -1.234,-0.047 -0.957,-2.043 0.226,-1.778 1.149,0.094 0.879,1.957 -0.226,1.778 m 1.234,2.293 c -0.355,-1.192 0.86,-1.368 1.789,-1.192 0.446,1.192 -0.929,2.567 -1.789,1.192 m 2.305,3.144 c -0.883,-0.855 0.574,-2.422 1.34,-1.277 0.836,0.734 -0.449,1.929 -1.34,1.277 m -4.117,0.231 c -0.567,-0.86 0.094,-2.5 1.211,-1.735 0.965,0.922 -0.18,1.91 -1.211,1.735 M 166.645,139 c 2.929,0.043 5.906,0.043 8.859,0 -0.086,-3.242 0.269,-6.52 -0.176,-9.691 -0.875,-4.067 -7.64,-4.067 -8.535,0 -0.418,3.171 -0.063,6.449 -0.148,9.691"
         style="fill:#204a82;fill-opacity:1;fill-rule:nonzero;stroke:none"
         id="path182" /><path
         d="m 132.555,135.398 c 0.351,0 0.98,0 1.351,0 -0.097,0.899 0,1.864 -0.457,2.696 -1.234,-0.203 -0.633,-1.797 -0.894,-2.696 z m -3.817,3.012 c 2.981,0.047 5.996,0.047 8.961,0 0.227,-0.648 0.379,-1.281 0.563,-1.93 0.133,-0.546 0.269,-1.082 0.359,-1.593 -3.574,0.086 -7.195,0.086 -10.84,0 0.141,0.648 0.278,1.367 0.504,2.019 0.129,0.496 0.27,0.985 0.453,1.504"
         style="fill:#e4ba0f;fill-opacity:1;fill-rule:nonzero;stroke:none"
         id="path184" /><path
         d="m 181.715,138.637 c 3.234,0.09 6.453,0.09 9.637,0 0.039,-1.012 0.039,-2 0.089,-3.016 -1.371,-0.086 -2.738,-0.086 -4.117,0.047 -0.172,0.812 -0.355,1.594 -0.535,2.383 -0.973,-0.34 -0.785,-1.571 -1.101,-2.383 -1.372,-0.133 -2.735,-0.133 -4.118,-0.047 0.047,1.016 0.09,2.004 0.145,3.016"
         style="fill:#e4ba0f;fill-opacity:1;fill-rule:nonzero;stroke:none"
         id="path186" /><path
         d="m 132.555,135.398 c 0.261,0.899 -0.34,2.493 0.894,2.696 0.457,-0.832 0.36,-1.797 0.457,-2.696 -0.371,0 -1,0 -1.351,0"
         style="fill:#204a82;fill-opacity:1;fill-rule:nonzero;stroke:none"
         id="path188" /><path
         d="m 145.445,136.254 c 0.524,-0.047 1.075,-0.047 1.664,0 0.766,-2.219 -2.429,-2.219 -1.664,0"
         style="fill:#f2f1f1;fill-opacity:1;fill-rule:nonzero;stroke:none"
         id="path190" /><path
         d="m 149.852,136.254 c 1.082,0.516 2.003,-0.809 1.128,-1.594 -0.988,-0.765 -2.093,0.875 -1.128,1.594"
         style="fill:#ffffff;fill-opacity:1;fill-rule:nonzero;stroke:none"
         id="path192" /><path
         d="m 158.656,135.27 c -1.328,-2.297 -3.144,1.457 -0.472,1.078 0.121,-0.274 0.339,-0.813 0.472,-1.078"
         style="fill:#ffffff;fill-opacity:1;fill-rule:nonzero;stroke:none"
         id="path194" /><path
         d="m 160.887,136.254 c 0.918,0.18 2.066,0 1.754,-1.191 -0.836,-1.368 -2.203,0 -1.754,1.191"
         style="fill:#f1eeee;fill-opacity:1;fill-rule:nonzero;stroke:none"
         id="path196" /><path
         d="m 168.344,136.395 c 1.031,0.175 2.176,-0.813 1.211,-1.735 -1.117,-0.765 -1.778,0.875 -1.211,1.735"
         style="fill:#ffffff;fill-opacity:1;fill-rule:nonzero;stroke:none"
         id="path198" /><path
         d="m 172.461,136.164 c 0.891,0.652 2.176,-0.543 1.34,-1.277 -0.766,-1.145 -2.223,0.422 -1.34,1.277"
         style="fill:#ffffff;fill-opacity:1;fill-rule:nonzero;stroke:none"
         id="path200" /><path
         d="m 181.301,135.152 c 3.512,0.047 7,0.047 10.492,0 -3.492,0 -6.98,-0.043 -10.492,0"
         style="fill:#100f0d;fill-opacity:1;fill-rule:nonzero;stroke:none"
         id="path202" /><path
         d="m 127.781,134.887 c 3.645,0.086 7.266,0.086 10.84,0 l 0.406,-0.317 c -3.871,-0.175 -7.738,-0.132 -11.601,0 l 0.355,0.317"
         style="fill:#917022;fill-opacity:1;fill-rule:nonzero;stroke:none"
         id="path204" /><path
         d="m 148.887,131.734 c -2.649,-0.398 -0.832,3.375 0.476,1.055 -0.129,-0.266 -0.343,-0.781 -0.476,-1.055"
         style="fill:#ffffff;fill-opacity:1;fill-rule:nonzero;stroke:none"
         id="path206" /><path
         d="m 159.238,133.473 c 1.106,0.742 1.981,-1.508 0.707,-1.688 -1.019,-0.449 -1.64,1.188 -0.707,1.688"
         style="fill:#ffffff;fill-opacity:1;fill-rule:nonzero;stroke:none"
         id="path208" /><path
         d="m 170.156,133.02 c 0.86,1.375 2.235,0 1.789,-1.192 -0.929,-0.176 -2.144,0 -1.789,1.192"
         style="fill:#f2eeee;fill-opacity:1;fill-rule:nonzero;stroke:none"
         id="path210" /><path
         d="m 145.445,130.41 c 0.231,0.09 0.61,0.317 0.836,0.406 0.219,-0.089 0.61,-0.316 0.828,-0.406 0,-0.312 0,-0.828 0,-1.148 -0.218,-0.09 -0.609,-0.313 -0.828,-0.399 -0.226,0.086 -0.605,0.309 -0.836,0.399 0,0.273 0,0.836 0,1.148"
         style="fill:#ffffff;fill-opacity:1;fill-rule:nonzero;stroke:none"
         id="path212" /><path
         d="m 150.262,130.859 c 0.226,-0.093 0.718,-0.312 0.937,-0.402 0,-0.32 0,-0.922 0,-1.234 -0.219,-0.09 -0.711,-0.313 -0.976,-0.45 -0.891,0.582 -0.891,1.547 0.039,2.086"
         style="fill:#ffffff;fill-opacity:1;fill-rule:nonzero;stroke:none"
         id="path214" /><path
         d="m 157.73,128.863 c -1.406,0.137 -1.093,1.723 0,2.09 0.793,-0.496 1.149,-1.781 0,-2.09"
         style="fill:#ffffff;fill-opacity:1;fill-rule:nonzero;stroke:none"
         id="path216" /><path
         d="m 160.93,130.41 c 0.203,0.09 0.601,0.27 0.832,0.406 0.222,-0.136 0.676,-0.316 0.879,-0.406 0,-0.719 -0.203,-1.277 -0.789,-1.637 -0.27,0.137 -0.719,0.36 -0.922,0.489 0,0.273 0,0.875 0,1.148"
         style="fill:#ffffff;fill-opacity:1;fill-rule:nonzero;stroke:none"
         id="path218" /><path
         d="m 168.922,130.727 c 1.105,0.179 1.375,-1.684 0.226,-1.778 -1.183,-0.265 -1.46,1.731 -0.226,1.778"
         style="fill:#ffffff;fill-opacity:1;fill-rule:nonzero;stroke:none"
         id="path220" /><path
         d="m 172.953,130.727 c 1.238,0.293 1.5,-1.778 0.266,-1.817 -1.098,-0.137 -1.367,1.727 -0.266,1.817"
         style="fill:#ffffff;fill-opacity:1;fill-rule:nonzero;stroke:none"
         id="path222" /><path
         d="m 160.836,113.34 c 0.215,-0.137 0.695,-0.363 0.926,-0.453 0.222,0.136 0.722,0.363 0.922,0.453 0.355,1.816 -2.297,1.816 -1.848,0 z m -3.953,1.234 c -0.688,-0.875 0.535,-2.242 1.328,-1.371 0.941,0.848 -0.379,2.137 -1.328,1.371 m 2.355,2.965 c -1.027,-0.496 -0.359,-2.152 0.707,-1.73 1.325,0.132 0.399,2.515 -0.707,1.73 m 1.692,2.742 c -0.407,-0.922 0.472,-2.422 1.465,-1.461 0.964,0.965 -0.493,1.914 -1.465,1.461 m -2.274,-0.922 c -0.133,0.266 -0.398,0.789 -0.472,1.063 -2.723,0.351 -0.801,-3.426 0.472,-1.063 m -3.508,3.664 c 3.036,0 6.071,0.043 9.082,0 -0.136,-3.238 0.317,-6.539 -0.32,-9.726 -0.871,-3.981 -7.449,-4.027 -8.449,-0.094 -0.602,3.231 -0.129,6.535 -0.313,9.82"
         style="fill:#204a82;fill-opacity:1;fill-rule:nonzero;stroke:none"
         id="path224" /><path
         d="m 158.656,119.359 c -1.273,-2.363 -3.195,1.414 -0.472,1.063 0.074,-0.274 0.339,-0.797 0.472,-1.063"
         style="fill:#ffffff;fill-opacity:1;fill-rule:nonzero;stroke:none"
         id="path226" /><path
         d="m 160.93,120.281 c 0.972,0.453 2.429,-0.496 1.465,-1.461 -0.993,-0.961 -1.872,0.539 -1.465,1.461"
         style="fill:#f6f7f7;fill-opacity:1;fill-rule:nonzero;stroke:none"
         id="path228" /><path
         d="m 159.238,117.539 c 1.106,0.785 2.032,-1.598 0.707,-1.73 -1.066,-0.422 -1.734,1.234 -0.707,1.73"
         style="fill:#ecebeb;fill-opacity:1;fill-rule:nonzero;stroke:none"
         id="path230" /><path
         d="m 136.82,114.938 c 0.746,1.14 2.114,1.585 3.317,2.191 -0.125,-0.246 -0.348,-0.738 -0.438,-1.008 -0.625,-0.402 -1.304,-0.691 -2,-1.008 -0.226,-0.047 -0.656,-0.129 -0.879,-0.175"
         style="fill:#204b81;fill-opacity:1;fill-rule:nonzero;stroke:none"
         id="path232" /><path
         d="m 179.375,117.223 c 1.234,-0.52 2.422,-1.145 3.578,-1.836 -0.312,-0.09 -0.832,-0.274 -1.156,-0.364 -0.676,0.317 -1.371,0.606 -2,1.008 -0.129,0.317 -0.281,0.875 -0.422,1.192"
         style="fill:#463841;fill-opacity:1;fill-rule:nonzero;stroke:none"
         id="path234" /><path
         d="m 131.199,112.285 c 2.207,0.692 2.934,3.235 5.274,3.746 -0.059,-0.265 -0.098,-0.781 -0.098,-1.047 -0.766,-0.23 -1.508,-0.504 -2.152,-0.933 -0.317,-0.442 -0.637,-0.895 -0.953,-1.34 -0.54,-0.379 -1.149,-0.793 -1.711,-1.106 -0.532,-0.789 -1.125,0.727 -0.36,0.68"
         style="fill:#204b81;fill-opacity:1;fill-rule:nonzero;stroke:none"
         id="path236" /><path
         d="m 137.699,115.113 c 0.696,0.317 1.375,0.606 2,1.008 1.149,-1.906 2.422,-3.699 3.653,-5.566 -1.055,-1.016 -2.344,-1.731 -3.602,-2.332 -0.633,0.554 -1.078,1.406 -1.914,1.699 -0.609,-0.742 0.375,-1.797 0.559,-2.692 -1.262,-0.707 -2.696,-1.156 -4.04,-1.667 -1.085,1.933 -1.902,4.027 -2.796,6.042 0.562,0.313 1.171,0.727 1.711,1.106 0.636,-1.152 1.281,-2.297 1.886,-3.441 0.41,0.453 0.774,0.875 1.125,1.285 -0.672,1.183 -1.363,2.332 -2.058,3.496 0.644,0.429 1.386,0.703 2.152,0.933 0.582,-1.332 1.141,-2.699 2.297,-3.691 0.172,0.266 0.531,0.766 0.719,0.992 -0.586,0.918 -1.18,1.836 -1.692,2.828"
         style="fill:#e3ba0f;fill-opacity:1;fill-rule:nonzero;stroke:none"
         id="path238" /><path
         d="m 180.871,107.07 c 0.527,0.922 1.016,1.887 1.063,2.989 -1.153,-0.379 -2.829,-2.246 -1.063,-2.989 z m -1.074,8.961 c 0.629,-0.402 1.324,-0.691 2,-1.008 -0.676,-1.011 -1.32,-2.136 -1.77,-3.285 2,-0.558 2.383,1.961 3.145,3.246 0.734,-0.187 1.547,-0.453 2.199,-0.906 -0.695,-1.48 -3.031,-3.344 -1.094,-4.762 0.672,1.098 1.317,2.204 1.946,3.368 0.566,-0.309 1.187,-0.625 1.828,-0.946 -0.988,-2.511 -2.41,-4.8 -3.199,-7.383 -3.235,1.543 -6.379,3.364 -9.481,5.235 1.652,2.015 2.973,4.281 4.426,6.441"
         style="fill:#e2b910;fill-opacity:1;fill-rule:nonzero;stroke:none"
         id="path240" /><path
         d="m 183.125,116.031 c 0.879,-0.445 1.781,-0.875 2.605,-1.367 0.176,-1.867 2.704,-1.687 3.11,-3.285 -0.184,0.098 -0.633,0.269 -0.789,0.359 -0.641,0.321 -1.262,0.637 -1.828,0.946 -0.27,0.429 -0.582,0.925 -0.852,1.394 -0.652,0.453 -1.465,0.719 -2.199,0.906 -0.047,0.266 -0.047,0.782 -0.047,1.047"
         style="fill:#204b81;fill-opacity:1;fill-rule:nonzero;stroke:none"
         id="path242" /><path
         d="m 156.883,114.574 c 0.949,0.766 2.269,-0.523 1.328,-1.371 -0.793,-0.871 -2.016,0.496 -1.328,1.371"
         style="fill:#f5f4f4;fill-opacity:1;fill-rule:nonzero;stroke:none"
         id="path244" /><path
         d="m 160.836,113.34 c -0.449,1.816 2.203,1.816 1.848,0 -0.2,-0.09 -0.7,-0.317 -0.922,-0.453 -0.231,0.09 -0.711,0.316 -0.926,0.453"
         style="fill:#ffffff;fill-opacity:1;fill-rule:nonzero;stroke:none"
         id="path246" /><path
         d="m 133.27,112.711 c 0.316,0.445 0.636,0.898 0.953,1.34 0.695,-1.164 1.386,-2.313 2.058,-3.496 -0.351,-0.41 -0.715,-0.832 -1.125,-1.285 -0.605,1.144 -1.25,2.289 -1.886,3.441"
         style="fill:#be2026;fill-opacity:1;fill-rule:nonzero;stroke:none"
         id="path248" /><path
         d="m 185.371,114.078 c 0.27,-0.469 0.582,-0.965 0.852,-1.394 -0.629,-1.164 -1.274,-2.27 -1.946,-3.368 -1.937,1.418 0.399,3.282 1.094,4.762"
         style="fill:#be2026;fill-opacity:1;fill-rule:nonzero;stroke:none"
         id="path250" /><path
         d="m 143.352,110.555 c 0.382,-0.364 0.796,-0.676 1.16,-1.055 -3.43,-1.828 -6.676,-3.871 -10.157,-5.531 0,0.515 0,1.058 0,1.594 1.344,0.511 2.778,0.96 4.04,1.667 0.449,0.313 0.898,0.672 1.355,0.993 1.258,0.601 2.547,1.316 3.602,2.332"
         style="fill:#a7861e;fill-opacity:1;fill-rule:nonzero;stroke:none"
         id="path252" /><path
         d="m 138.395,107.23 c -0.184,0.895 -1.168,1.95 -0.559,2.692 0.836,-0.293 1.281,-1.145 1.914,-1.699 -0.457,-0.321 -0.906,-0.68 -1.355,-0.993"
         style="fill:#2c4a4a;fill-opacity:1;fill-rule:nonzero;stroke:none"
         id="path254" /><path
         d="m 180.871,107.07 c -1.766,0.743 -0.09,2.61 1.063,2.989 -0.047,-1.102 -0.536,-2.067 -1.063,-2.989"
         style="fill:#1f4360;fill-opacity:1;fill-rule:nonzero;stroke:none"
         id="path256" /><path
         d="m 157.641,102.934 c 2.433,0.496 4.66,-1.098 7.132,-0.559 0,-0.223 -0.089,-0.633 -0.089,-0.852 h -0.5 c -0.735,0 -1.5,0 -2.243,-0.043 -0.41,0.407 -0.808,0.766 -1.195,1.118 -0.039,-1.551 -0.039,-3.098 -0.039,-4.6527 -0.184,1.4649 -0.184,2.9217 -0.184,4.3397 -0.722,0.043 -1.457,0.043 -2.179,0.043 -0.16,0.18 -0.512,0.449 -0.703,0.606"
         style="fill:#204b81;fill-opacity:1;fill-rule:nonzero;stroke:none"
         id="path258" /><path
         d="m 154.25,102.328 c 1.043,-0.043 2.121,0 3.133,-0.082 0,-1.379 -0.563,-2.7929 -0.274,-4.2108 l -0.379,-0.1797 c 0.11,1.3281 0.2,2.6525 0.247,3.9805 -0.473,-0.375 -0.965,-0.879 -1.465,-1.328 0.09,0.222 0.23,0.765 0.32,1.015 -0.269,0 -0.723,0 -0.973,0 h -0.453 c -0.039,0.219 -0.113,0.582 -0.156,0.805"
         style="fill:#204b81;fill-opacity:1;fill-rule:nonzero;stroke:none"
         id="path260" /><path
         d="m 159.066,96.9805 c -0.097,-0.9414 -0.187,-1.8594 -0.23,-2.7852 0.316,0 1.016,0 1.328,-0.039 -0.269,0.9648 0.32,2.6914 -1.098,2.8242 z m -0.722,5.3475 c 0.722,0 1.457,0 2.179,-0.043 0,-1.418 0,-2.8748 0.184,-4.3397 0.316,0.0469 0.875,0.0899 1.195,0.1289 0.039,1.1563 0.039,2.3008 0.039,3.4058 0.743,0.043 1.508,0.043 2.243,0.043 0.5,-2.6558 -0.036,-5.4371 0.902,-7.9996 -3.727,0 -7.445,-0.0468 -11.152,0 0.652,2.6055 0.613,5.3438 0.925,7.9996 0.25,0 0.704,0 0.973,0 -0.09,-0.25 -0.23,-0.793 -0.32,-1.015 0.5,0.449 0.992,0.953 1.465,1.328 -0.047,-1.328 -0.137,-2.6524 -0.247,-3.9805 l 0.379,0.1797 c 0.309,0.1367 0.989,0.4101 1.325,0.5429 -0.039,1.2344 -0.09,2.5199 -0.09,3.7499"
         style="fill:#e4ba0f;fill-opacity:1;fill-rule:nonzero;stroke:none"
         id="path262" /><path
         d="m 160.746,102.598 c 0.387,-0.352 0.785,-0.711 1.195,-1.118 0,-1.105 0,-2.2495 -0.039,-3.4058 -0.32,-0.039 -0.879,-0.082 -1.195,-0.1289 0,1.5547 0,3.1017 0.039,4.6527"
         style="fill:#e31e28;fill-opacity:1;fill-rule:nonzero;stroke:none"
         id="path264" /><path
         d="m 159.066,96.9805 c 1.418,-0.1328 0.829,-1.8594 1.098,-2.8242 -0.312,0.039 -1.012,0.039 -1.328,0.039 0.043,0.9258 0.133,1.8438 0.23,2.7852"
         style="fill:#22425c;fill-opacity:1;fill-rule:nonzero;stroke:none"
         id="path266" /></g></g></svg>
