<?xml version="1.0" encoding="UTF-8" standalone="no"?>
<svg
   xmlns:dc="http://purl.org/dc/elements/1.1/"
   xmlns:cc="http://creativecommons.org/ns#"
   xmlns:rdf="http://www.w3.org/1999/02/22-rdf-syntax-ns#"
   xmlns:svg="http://www.w3.org/2000/svg"
   xmlns="http://www.w3.org/2000/svg"
   version="1.1"
   id="svg2"
   xml:space="preserve"
   width="42.666668"
   height="42.666668"
   viewBox="0 0 42.666668 42.666668"><metadata
     id="metadata8"><rdf:RDF><cc:Work
         rdf:about=""><dc:format>image/svg+xml</dc:format><dc:type
           rdf:resource="http://purl.org/dc/dcmitype/StillImage" /></cc:Work></rdf:RDF></metadata><defs
     id="defs6" /><g
     id="g10"
     transform="matrix(1.3333333,0,0,-1.3333333,0,42.666667)"><g
       id="g12"
       transform="scale(0.1)"><path
         d="M 0,159.965 C 0,132.172 7.14453,106.02 19.6836,83.207 H 300.316 C 312.855,106.02 320,132.172 320,159.965 c 0,27.824 -7.164,54.023 -19.762,76.855 H 19.75 C 7.17188,213.988 0,187.789 0,159.965"
         style="fill:#fac009;fill-opacity:1;fill-rule:nonzero;stroke:none"
         id="path14" /><path
         d="M 160.004,-0.0429688 C 99.6953,-0.0429688 47.0273,33.6172 19.75,83.0898 H 300.238 C 272.992,33.6172 220.313,-0.0429688 160.004,-0.0429688"
         style="fill:#c71e25;fill-opacity:1;fill-rule:nonzero;stroke:none"
         id="path16" /><path
         d="M 160.004,319.957 C 99.6953,319.957 47.0273,286.305 19.75,236.82 h 280.488 c -27.246,49.485 -79.925,83.137 -140.234,83.137"
         style="fill:#c71e25;fill-opacity:1;fill-rule:nonzero;stroke:none"
         id="path18" /></g></g></svg>
