<?xml version="1.0" encoding="UTF-8" standalone="no"?>
<svg
   xmlns:dc="http://purl.org/dc/elements/1.1/"
   xmlns:cc="http://creativecommons.org/ns#"
   xmlns:rdf="http://www.w3.org/1999/02/22-rdf-syntax-ns#"
   xmlns:svg="http://www.w3.org/2000/svg"
   xmlns="http://www.w3.org/2000/svg"
   version="1.1"
   id="svg2"
   xml:space="preserve"
   width="42.666668"
   height="42.666668"
   viewBox="0 0 42.666668 42.666668"><metadata
     id="metadata8"><rdf:RDF><cc:Work
         rdf:about=""><dc:format>image/svg+xml</dc:format><dc:type
           rdf:resource="http://purl.org/dc/dcmitype/StillImage" /></cc:Work></rdf:RDF></metadata><defs
     id="defs6" /><g
     id="g10"
     transform="matrix(1.3333333,0,0,-1.3333333,0,42.666667)"><g
       id="g12"
       transform="scale(0.1)"><path
         d="M 310.516,105.66 H 9.47656 C 3.34766,122.613 0,140.914 0,160.004 c 0,19.074 3.34766,37.371 9.47656,54.34 H 310.516 c 6.136,-16.969 9.484,-35.266 9.484,-54.34 0,-19.09 -3.348,-37.391 -9.484,-54.344"
         style="fill:#f6de07;fill-opacity:1;fill-rule:evenodd;stroke:none"
         id="path14" /><path
         d="M 9.47656,105.66 H 310.516 C 288.266,44.0547 229.262,-0.00390625 159.996,-0.00390625 90.7188,-0.00390625 31.7227,44.0547 9.47656,105.66"
         style="fill:#dc1e25;fill-opacity:1;fill-rule:evenodd;stroke:none"
         id="path16" /><path
         d="M 310.516,214.344 H 9.47656 c 22.24614,61.597 81.24224,105.66 150.51944,105.66 69.266,0 128.27,-44.063 150.52,-105.66"
         style="fill:#298b3d;fill-opacity:1;fill-rule:evenodd;stroke:none"
         id="path18" /><path
         d="m 160,244.184 c 46.492,0 84.184,-37.692 84.184,-84.184 0,-46.492 -37.692,-84.1836 -84.184,-84.1836 -46.492,0 -84.1836,37.6916 -84.1836,84.1836 0,46.492 37.6916,84.184 84.1836,84.184"
         style="fill:#2f48a4;fill-opacity:1;fill-rule:nonzero;stroke:none"
         id="path20" /><path
         d="m 160,227.348 -2.949,-9.078 12.168,-37.457 h -16.227 l -1.82,-5.614 h 52.027 l 7.723,5.614 H 175.121 L 160,227.348"
         style="fill:#f6de07;fill-opacity:1;fill-rule:nonzero;stroke:none"
         id="path22" /><path
         d="m 224.051,180.813 h -9.547 l -31.863,-23.149 -5.012,15.43 h -5.902 l 16.078,-49.481 7.722,-5.613 -11.062,34.051 39.586,28.762"
         style="fill:#f6de07;fill-opacity:1;fill-rule:nonzero;stroke:none"
         id="path24" /><path
         d="m 199.586,105.516 -2.949,9.082 -31.864,23.144 13.129,9.539 -1.824,5.614 -42.094,-30.582 -2.949,-9.083 28.965,21.047 39.586,-28.761"
         style="fill:#f6de07;fill-opacity:1;fill-rule:nonzero;stroke:none"
         id="path26" /><path
         d="m 120.414,105.516 7.723,5.613 12.172,37.453 13.125,-9.535 4.777,3.469 -42.094,30.578 h -9.547 l 28.965,-21.043 -15.121,-46.535"
         style="fill:#f6de07;fill-opacity:1;fill-rule:nonzero;stroke:none"
         id="path28" /><path
         d="m 95.9492,180.813 7.7228,-5.614 h 39.383 l -5.012,-15.429 4.773,-3.469 16.079,49.48 -2.954,9.082 -11.062,-34.05 H 95.9492"
         style="fill:#f6de07;fill-opacity:1;fill-rule:nonzero;stroke:none"
         id="path30" /><path
         d="m 198.449,215.313 -21.441,-29.516 2.269,-1.649 21.446,29.512 -2.274,1.653"
         style="fill:#f6de07;fill-opacity:1;fill-rule:nonzero;stroke:none"
         id="path32" /><path
         d="m 189.789,151.797 -0.867,-2.668 34.695,-11.274 0.867,2.668 -34.695,11.274"
         style="fill:#f6de07;fill-opacity:1;fill-rule:nonzero;stroke:none"
         id="path34" /><path
         d="m 158.598,92.6523 h 2.804 v 36.4807 h -2.804 V 92.6523"
         style="fill:#f6de07;fill-opacity:1;fill-rule:nonzero;stroke:none"
         id="path36" /><path
         d="m 95.5156,140.523 0.8672,-2.668 34.6912,11.274 -0.863,2.668 -34.6954,-11.274"
         style="fill:#f6de07;fill-opacity:1;fill-rule:nonzero;stroke:none"
         id="path38" /><path
         d="m 119.277,213.66 21.446,-29.512 2.269,1.649 -21.441,29.516 -2.274,-1.653"
         style="fill:#f6de07;fill-opacity:1;fill-rule:nonzero;stroke:none"
         id="path40" /></g></g></svg>
