<?xml version="1.0" encoding="UTF-8" standalone="no"?>
<svg
   xmlns:dc="http://purl.org/dc/elements/1.1/"
   xmlns:cc="http://creativecommons.org/ns#"
   xmlns:rdf="http://www.w3.org/1999/02/22-rdf-syntax-ns#"
   xmlns:svg="http://www.w3.org/2000/svg"
   xmlns="http://www.w3.org/2000/svg"
   version="1.1"
   id="svg2"
   xml:space="preserve"
   width="42.666668"
   height="42.666668"
   viewBox="0 0 42.666668 42.666668"><metadata
     id="metadata8"><rdf:RDF><cc:Work
         rdf:about=""><dc:format>image/svg+xml</dc:format><dc:type
           rdf:resource="http://purl.org/dc/dcmitype/StillImage" /></cc:Work></rdf:RDF></metadata><defs
     id="defs6" /><g
     id="g10"
     transform="matrix(1.3333333,0,0,-1.3333333,0,42.666667)"><g
       id="g12"
       transform="scale(0.1)"><path
         d="m 159.992,0 c 88.125,0 160.02,71.8945 160.02,160.008 C 320.012,248.129 248.117,320 159.992,320 71.8789,320 0.0117188,248.129 0.0117188,160.008 0.0117188,71.8945 71.8789,0 159.992,0"
         style="fill:#2a3c93;fill-opacity:1;fill-rule:evenodd;stroke:none"
         id="path14" /><path
         d="m 155.883,275.859 c 1.551,4.149 2.605,8.461 4.246,12.575 1.262,-4.27 2.766,-8.473 4.074,-12.692 4.473,-0.137 8.953,-0.047 13.406,-0.086 -3.523,-2.726 -7.207,-5.242 -10.781,-7.941 1.348,-4.27 2.813,-8.485 4.113,-12.754 -3.644,2.582 -7.285,5.281 -10.898,7.91 -3.566,-2.723 -7.266,-5.234 -10.801,-7.953 1.16,4.355 2.801,8.488 4.012,12.797 -3.563,2.699 -7.254,5.265 -10.781,7.941 4.445,0.153 9.015,-0.254 13.41,0.203"
         style="fill:#fbc907;fill-opacity:1;fill-rule:nonzero;stroke:none"
         id="path16" /><path
         d="m 98.6836,261.281 c 1.5544,4.192 2.6754,8.555 4.2694,12.778 1.348,-4.27 2.742,-8.547 4.16,-12.84 4.473,0 8.965,0 13.457,0 -3.664,-2.578 -7.257,-5.223 -10.898,-7.903 1.277,-4.269 2.812,-8.472 4.082,-12.742 -3.633,2.571 -7.188,5.242 -10.82,7.805 -3.7113,-2.52 -7.2582,-5.234 -10.9184,-7.844 1.2969,4.266 2.7344,8.469 4.1094,12.688 -3.5039,2.816 -7.2344,5.371 -10.8984,7.957 4.4922,0.101 8.9648,0 13.457,0.101"
         style="fill:#fbc907;fill-opacity:1;fill-rule:nonzero;stroke:none"
         id="path18" /><path
         d="m 214.367,274.059 c 1.328,-4.27 2.805,-8.547 4.18,-12.84 4.453,0 8.898,0.062 13.351,-0.039 -3.585,-2.625 -7.199,-5.235 -10.781,-7.813 1.387,-4.297 2.715,-8.609 4.149,-12.832 -3.661,2.559 -7.254,5.238 -10.899,7.883 -3.679,-2.602 -7.344,-5.273 -10.984,-7.93 1.394,4.313 2.898,8.559 4.16,12.918 -3.664,2.539 -7.168,5.282 -10.879,7.774 4.453,0.101 8.895,0.101 13.301,-0.02 1.758,4.184 2.762,8.676 4.402,12.899"
         style="fill:#fbc907;fill-opacity:1;fill-rule:nonzero;stroke:none"
         id="path20" /><path
         d="m 252.199,221.016 c 1.555,4.218 2.61,8.574 4.297,12.773 1.211,-4.336 2.766,-8.512 4.063,-12.773 4.472,-0.047 8.964,0 13.437,0 -3.504,-2.746 -7.226,-5.286 -10.801,-7.985 1.387,-4.261 2.715,-8.527 4.192,-12.777 -3.723,2.559 -7.344,5.254 -10.977,7.926 -3.574,-2.719 -7.258,-5.231 -10.859,-7.977 1.16,4.36 2.879,8.516 4.023,12.871 -3.527,2.703 -7.258,5.18 -10.742,7.942 4.453,0.039 8.895,-0.047 13.367,0"
         style="fill:#fbc907;fill-opacity:1;fill-rule:nonzero;stroke:none"
         id="path22" /><path
         d="m 57.9531,219.238 c 1.3672,4.149 2.7617,8.356 4.0703,12.535 1.6993,-4.16 2.5118,-8.722 4.4649,-12.742 4.4023,-0.086 8.8555,0 13.25,-0.043 -3.6133,-2.582 -7.2461,-5.234 -10.8399,-7.89 1.1641,-4.332 2.8516,-8.532 4.0547,-12.895 -3.6054,2.676 -7.207,5.371 -10.9297,7.91 -3.6718,-2.582 -7.2148,-5.273 -10.9062,-7.867 1.4648,4.274 2.8125,8.539 4.1797,12.84 -3.5938,2.668 -7.2774,5.23 -10.8906,7.945 4.4921,0.141 9.1914,-0.336 13.5468,0.207"
         style="fill:#fbc907;fill-opacity:1;fill-rule:nonzero;stroke:none"
         id="path24" /><path
         d="m 266.867,164.219 c 1.27,4.304 2.774,8.601 4.121,12.871 1.457,-4.27 2.805,-8.606 4.219,-12.871 4.453,-0.055 8.859,0 13.313,-0.055 -3.536,-2.719 -7.266,-5.184 -10.793,-7.887 1.476,-4.218 2.804,-8.496 4.152,-12.761 -3.586,2.632 -7.207,5.261 -10.852,7.867 -3.679,-2.606 -7.293,-5.278 -10.937,-7.867 1.398,4.234 2.715,8.543 4.199,12.761 -3.574,2.703 -7.215,5.168 -10.742,7.887 4.453,0.055 8.879,-0.039 13.32,0.055"
         style="fill:#fbc907;fill-opacity:1;fill-rule:nonzero;stroke:none"
         id="path26" /><path
         d="m 44.9258,163.496 c 1.25,4.336 2.8008,8.516 4.082,12.82 1.5313,-4.218 2.6953,-8.578 4.2461,-12.82 4.4727,-0.027 8.918,0 13.4102,-0.027 -3.6055,-2.555 -7.0703,-5.301 -10.7813,-7.778 1.0625,-4.351 2.7617,-8.574 4.0703,-12.89 -3.7304,2.558 -7.3242,5.234 -10.9648,7.863 -3.5742,-2.715 -7.207,-5.305 -10.8711,-7.863 1.3867,4.203 2.7539,8.429 4.1016,12.648 -3.3868,2.852 -7.254,5.196 -10.711,8.02 4.4219,0.027 8.9141,-0.043 13.418,0.027"
         style="fill:#fbc907;fill-opacity:1;fill-rule:nonzero;stroke:none"
         id="path28" /><path
         d="m 251.801,107.523 c 1.699,4.188 2.715,8.637 4.394,12.813 1.258,-4.273 2.84,-8.453 4.071,-12.719 4.433,-0.137 8.918,-0.039 13.39,-0.094 -3.586,-2.652 -7.226,-5.203 -10.801,-7.8589 1.504,-4.2657 2.715,-8.6289 4.247,-12.8594 -3.672,2.6211 -7.266,5.3516 -10.946,7.9609 -3.683,-2.5195 -7.258,-5.2968 -10.937,-7.9101 1.316,4.2656 2.801,8.5429 4.129,12.8515 -3.594,2.613 -7.188,5.258 -10.848,7.816 4.453,0.055 8.895,0.055 13.301,0"
         style="fill:#fbc907;fill-opacity:1;fill-rule:nonzero;stroke:none"
         id="path30" /><path
         d="m 58.4023,107.262 c 1.211,4.308 2.6954,8.527 4.1094,12.758 1.4375,-4.231 2.7149,-8.493 4.211,-12.758 4.414,-0.09 8.8554,-0.043 13.3086,-0.043 -3.5625,-2.699 -7.254,-5.266 -10.8086,-7.9573 1.4648,-4.2265 2.7734,-8.539 4.1875,-12.7578 -3.6914,2.5977 -7.2657,5.3399 -10.9961,7.9063 -3.6407,-2.6993 -7.2657,-5.3086 -10.8868,-7.9571 1.4727,4.2266 2.7344,8.5352 4.1993,12.8086 -3.5743,2.7423 -7.2578,5.3043 -10.8516,7.9573 4.5234,0 9.0039,-0.102 13.5273,0.043"
         style="fill:#fbc907;fill-opacity:1;fill-rule:nonzero;stroke:none"
         id="path32" /><path
         d="m 98.7344,67.3555 c 1.4536,4.2265 2.6246,8.539 4.2186,12.7109 1.348,-4.2617 2.703,-8.5273 4.16,-12.7578 4.473,0 8.965,0.0469 13.418,0 -3.574,-2.6914 -7.218,-5.2969 -10.859,-7.9531 1.277,-4.2657 2.832,-8.4414 4.07,-12.7617 -3.66,2.5664 -7.215,5.2187 -10.808,7.8632 -3.6254,-2.6445 -7.2582,-5.2578 -10.8793,-7.8632 1.1914,4.3203 2.8516,8.4492 4.0703,12.7617 -3.6406,2.6562 -7.2734,5.2617 -10.8477,8 4.4805,0 8.9532,-0.0469 13.4571,0"
         style="fill:#fbc907;fill-opacity:1;fill-rule:nonzero;stroke:none"
         id="path34" /><path
         d="m 215.578,80.1602 c 1.758,-4.086 2.629,-8.4883 4.356,-12.6719 4.453,0.0508 8.925,0.0508 13.371,0 -3.567,-2.6445 -7.246,-5.2539 -10.852,-7.9102 1.223,-4.3086 2.883,-8.4414 4.024,-12.8008 -3.575,2.6485 -7.254,5.2149 -10.809,7.9102 -3.613,-2.6562 -7.207,-5.3516 -10.891,-7.8633 1.368,4.2617 2.766,8.4883 4.133,12.7539 -3.644,2.6094 -7.277,5.2188 -10.851,7.9102 4.492,0.0508 8.964,0 13.449,0 1.355,4.2305 2.82,8.4492 4.07,12.6719"
         style="fill:#fbc907;fill-opacity:1;fill-rule:nonzero;stroke:none"
         id="path36" /><path
         d="m 155.688,52.3906 c 1.843,4.0899 2.761,8.6289 4.441,12.8516 1.262,-4.3086 2.766,-8.5313 4.113,-12.8516 4.383,-0.1718 8.828,-0.0429 13.242,-0.0859 -3.449,-2.793 -7.218,-5.1289 -10.656,-7.9531 1.348,-4.1797 2.766,-8.4063 4.113,-12.6328 -3.683,2.5195 -7.257,5.2617 -10.898,7.8203 -3.605,-2.6446 -7.305,-5.2071 -10.852,-7.9532 1.211,4.3204 2.813,8.4922 4.063,12.8086 -3.438,2.7813 -7.207,5.1641 -10.645,7.9532 4.356,0 8.711,-0.0899 13.079,0.0429"
         style="fill:#fbc907;fill-opacity:1;fill-rule:nonzero;stroke:none"
         id="path38" /></g></g></svg>
