<?xml version="1.0" encoding="UTF-8" standalone="no"?>
<svg
   xmlns:dc="http://purl.org/dc/elements/1.1/"
   xmlns:cc="http://creativecommons.org/ns#"
   xmlns:rdf="http://www.w3.org/1999/02/22-rdf-syntax-ns#"
   xmlns:svg="http://www.w3.org/2000/svg"
   xmlns="http://www.w3.org/2000/svg"
   version="1.1"
   id="svg2"
   xml:space="preserve"
   width="42.666668"
   height="42.666668"
   viewBox="0 0 42.666668 42.666668"><metadata
     id="metadata8"><rdf:RDF><cc:Work
         rdf:about=""><dc:format>image/svg+xml</dc:format><dc:type
           rdf:resource="http://purl.org/dc/dcmitype/StillImage" /></cc:Work></rdf:RDF></metadata><defs
     id="defs6" /><g
     id="g10"
     transform="matrix(1.3333333,0,0,-1.3333333,0,42.666667)"><g
       id="g12"
       transform="scale(0.1)"><path
         d="m 320,160 c 0,10.871 -1.098,21.484 -3.16,31.75 H 139.652 V 318.668 C 116.586,315.738 95.0469,307.926 76.1211,296.254 V 191.75 H 3.16016 C 1.09375,181.484 0,170.871 0,160 0,149.121 1.09766,138.496 3.16406,128.23 H 76.1211 V 23.7461 C 95.0469,12.0742 116.586,4.26172 139.652,1.33203 V 128.23 h 177.18 C 318.902,138.496 320,149.121 320,160"
         style="fill:#273a7c;fill-opacity:1;fill-rule:nonzero;stroke:none"
         id="path14" /><path
         d="M 76.1211,191.75 V 296.07 C 39.168,273.172 12.1953,235.699 3.28125,191.75 H 76.1211"
         style="fill:#ffffff;fill-opacity:1;fill-rule:evenodd;stroke:none"
         id="path16" /><path
         d="M 76.1211,128.23 H 3.28516 C 12.2031,84.2852 39.1758,46.8242 76.1211,23.9297 V 128.23"
         style="fill:#ffffff;fill-opacity:1;fill-rule:evenodd;stroke:none"
         id="path18" /><path
         d="M 139.652,128.23 V 1.36328 c 6.672,-0.859374 13.446,-1.3906238 20.344,-1.3906238 77.238,0 141.922,55.2617438 156.734,128.2573438 H 139.652"
         style="fill:#ffffff;fill-opacity:1;fill-rule:evenodd;stroke:none"
         id="path20" /><path
         d="M 136.5,1.82031 V 1.71484 l 2.438,-0.26953 z"
         style="fill:#ffffff;fill-opacity:1;fill-rule:evenodd;stroke:none"
         id="path22" /><path
         d="m 139.652,191.75 h 177.082 c -14.804,73.004 -79.492,128.281 -156.738,128.281 -6.898,0 -13.672,-0.535 -20.344,-1.394 V 191.75"
         style="fill:#ffffff;fill-opacity:1;fill-rule:evenodd;stroke:none"
         id="path24" /><path
         d="M 138.938,318.559 136.5,318.285 V 318.18 Z"
         style="fill:#ffffff;fill-opacity:1;fill-rule:evenodd;stroke:none"
         id="path26" /></g></g></svg>
