<?xml version="1.0" encoding="UTF-8" standalone="no"?>
<svg
   xmlns:dc="http://purl.org/dc/elements/1.1/"
   xmlns:cc="http://creativecommons.org/ns#"
   xmlns:rdf="http://www.w3.org/1999/02/22-rdf-syntax-ns#"
   xmlns:svg="http://www.w3.org/2000/svg"
   xmlns="http://www.w3.org/2000/svg"
   version="1.1"
   id="svg2"
   xml:space="preserve"
   width="42.666668"
   height="42.666668"
   viewBox="0 0 42.666668 42.666668"><metadata
     id="metadata8"><rdf:RDF><cc:Work
         rdf:about=""><dc:format>image/svg+xml</dc:format><dc:type
           rdf:resource="http://purl.org/dc/dcmitype/StillImage" /></cc:Work></rdf:RDF></metadata><defs
     id="defs6" /><g
     id="g10"
     transform="matrix(1.3333333,0,0,-1.3333333,0,42.666667)"><g
       id="g12"
       transform="scale(0.1)"><path
         d="M 160.004,-0.0234375 C 248.133,-0.0234375 320,71.8633 320,160 320,248.137 248.133,320.023 160.004,320.023 71.8789,320.023 0,248.137 0,160 0,71.8633 71.8789,-0.0234375 160.004,-0.0234375"
         style="fill:#273375;fill-opacity:1;fill-rule:evenodd;stroke:none"
         id="path14" /><path
         d="m 27.0859,248.902 c -2.7656,-4.121 -5.3476,-8.367 -7.7265,-12.734 1.582,0.965 3.1679,1.922 4.75,2.898 1.2031,0.731 2.4023,1.555 3.7734,1.457 4.7266,-0.101 9.5,0.098 14.2266,-0.144 -9.7578,-6.109 -19.5821,-12.07 -29.4219,-18.016 -0.9297,-2.187 -1.8086,-4.386 -2.6367,-6.617 10.9922,6.664 21.9844,13.336 32.9805,19.957 0.0429,-11.933 0,-23.863 0.0429,-35.793 2.3711,0 4.7266,0 7.0977,0 -0.043,16.317 0,32.676 0,48.992 -7.6914,0 -15.3946,0 -23.086,0 z m 132.3121,71.114 -2.378,-0.032 C 136.414,307.188 115.637,294.75 95,282.016 c -1.0352,-0.684 -2.2031,-1.067 -3.3672,-0.977 -4.6055,0.102 -9.2539,-0.09 -13.8711,0.102 20.3946,12.722 40.9883,24.957 61.4373,37.527 l -0.023,-0.004 c -1.934,-0.254 -3.84,-0.547 -5.75,-0.863 l -0.528,-0.09 c -1.941,-0.332 -3.886,-0.703 -5.804,-1.109 -16.856,-10.317 -33.801,-20.481 -50.6995,-30.735 -0.0234,3.485 -0.0234,6.965 -0.0234,10.446 l -0.0117,-0.008 c -2.2578,-1.387 -4.4571,-2.825 -6.6367,-4.317 0,-6.445 0,-12.89 0.0234,-19.324 30.0273,0 60.1089,0 90.1799,0 0.035,-7.934 0.035,-15.824 -0.043,-23.762 -30.028,0 -60.1096,0 -90.1369,0 -0.0469,-16.316 0,-32.675 -0.0469,-48.992 2.2031,0 4.4492,0 6.6602,0 0,11.93 -0.0469,23.86 0.0351,35.793 C 95,224.5 113.574,213.203 132.18,201.953 c 1.527,-0.875 2.965,-2.242 4.773,-2.043 7.578,0.043 15.16,-0.051 22.727,0.043 -21.887,13.688 -44.063,26.692 -65.9612,40.426 4.7734,0.242 9.5902,0.043 14.3632,0.144 1.672,0.047 3.078,-1.168 4.523,-1.996 15.754,-9.648 31.524,-19.281 47.278,-28.929 0.121,-3.211 0.043,-6.477 0.078,-9.688 0.125,4.961 -0.078,9.879 -0.035,14.801 -14.035,8.621 -28.196,16.902 -42.141,25.711 14.035,0.199 28.106,0 42.141,0.101 0.078,13.489 0.078,27.032 0,40.567 -14.035,0.098 -28.106,-0.141 -42.141,0.098 13.91,8.863 28.231,16.898 42.098,25.859 0.113,4.324 0,8.652 0.031,12.976 z M 46.5664,272.664 c 1.1797,1.195 2.3828,2.367 3.6055,3.52 0,-1.172 0,-2.348 0,-3.52 -1.2031,0 -2.4024,0 -3.6055,0"
         style="fill:#ffffff;fill-opacity:1;fill-rule:nonzero;stroke:none"
         id="path16" /><path
         d="m 159.68,199.953 0.281,-0.043 c -0.035,3.211 0.043,6.477 -0.078,9.688 -15.754,9.648 -31.524,19.281 -47.278,28.929 -1.445,0.828 -2.851,2.043 -4.523,1.996 -4.773,-0.101 -9.5898,0.098 -14.3632,-0.144 21.8982,-13.734 44.0742,-26.738 65.9612,-40.426 z M 42.1094,240.379 c -4.7266,0.242 -9.5,0.043 -14.2266,0.144 -1.3711,0.098 -2.5703,-0.726 -3.7734,-1.457 -1.5821,-0.976 -3.168,-1.933 -4.75,-2.898 -2.4375,-4.48 -4.6602,-9.086 -6.6719,-13.805 9.8398,5.946 19.6641,11.907 29.4219,18.016 z m 97.0896,78.289 c -20.449,-12.57 -41.0427,-24.805 -61.4373,-37.527 4.6172,-0.192 9.2656,0 13.8711,-0.102 1.1641,-0.09 2.332,0.293 3.3672,0.977 20.637,12.734 41.414,25.172 62.02,37.968 -6.032,-0.113 -11.973,-0.55 -17.821,-1.316 z M 50.1719,276.184 c 6.0859,5.761 12.6211,11.043 19.5508,15.804 0,-6.445 0,-12.89 0.0234,-19.324 30.0273,0 60.1089,0 90.1799,0 0.035,-7.934 0.035,-15.824 -0.043,-23.762 -30.028,0 -60.1096,0 -90.1369,0 -0.0469,-16.316 0,-32.675 -0.0469,-48.992 -6.4883,0 -12.9922,0 -19.5273,0 -0.043,16.317 0,32.676 0,48.992 -7.6914,0 -15.3946,0 -23.086,0 5.7266,8.536 12.2618,16.496 19.4805,23.762 1.2031,0 2.4024,0 3.6055,0 0,1.172 0,2.348 0,3.52"
         style="fill:#d11d2c;fill-opacity:1;fill-rule:nonzero;stroke:none"
         id="path18" /><path
         d="m 243.039,104.164 c 5.477,2.664 10.906,5.52 15.746,9.234 0.32,-2.132 0.82,-4.253 1.18,-6.339 -5.477,-1.676 -11.176,-2.852 -16.926,-2.895 z m -23.078,2.895 c 0.406,2.035 0.766,4.117 1.273,6.156 4.75,-3.711 10.172,-6.387 15.555,-9.051 -5.695,0.043 -11.394,1.219 -16.828,2.895 z m 70.68,4.929 c -3.032,2.219 -4.114,6.071 -6.559,8.828 -2.352,3.801 -3.984,10.403 -9.73,9.454 6.789,10.64 9.777,23.441 9.64,36.019 -0.183,21.496 -0.14,42.945 -0.406,64.438 -29.098,-0.043 -58.148,-0.043 -87.242,0 -0.278,-21.625 -0.231,-43.258 -0.41,-64.887 -0.09,-12.399 2.761,-25.02 9.453,-35.57 -5.653,0.859 -7.235,-5.743 -9.496,-9.454 -2.446,-2.808 -3.575,-6.609 -6.61,-8.828 -1.941,-2.218 -2.218,-5.793 -0.629,-8.328 2.442,-4.2928 4.203,-9.0858 7.512,-12.8436 1.399,-1.6328 3.703,-1.7226 5.652,-1.2695 3.848,0.8086 7.379,2.7617 10.547,5.0273 17.512,-7.0625 37.692,-7.0625 55.246,0 3.168,-2.3164 6.653,-4.2187 10.5,-5.0273 1.942,-0.4531 4.254,-0.3633 5.653,1.2695 3.308,3.7578 5.07,8.5508 7.558,12.8436 1.539,2.535 1.313,6.11 -0.679,8.328"
         style="fill:#ffffff;fill-opacity:1;fill-rule:nonzero;stroke:none"
         id="path20" /><path
         d="m 198.465,228.285 c 27.652,0.18 55.344,0.18 82.992,0 0.09,-20.722 0.231,-41.492 0.313,-62.265 -4.75,0.41 -7.372,5.16 -11.852,6.199 l -0.137,0.222 c 1.719,1.36 3.438,2.942 4.16,5.071 -1.082,0.41 -2.121,0.902 -2.984,1.679 -1.586,-0.23 -3.121,-0.546 -4.66,-1 l -1.539,1.223 c -0.317,1.629 -0.543,3.258 -0.723,4.887 2.082,2.039 3.442,4.84 3.254,7.781 -0.133,4.164 1.77,8.102 1.137,12.262 -0.41,3.441 -2.176,7.148 -5.617,8.379 -2.305,1.172 -4.973,1.211 -7.508,0.941 -8.235,-0.629 -16.465,0.41 -24.703,0.82 -2.852,0.59 -4.211,3.528 -6.743,4.661 -2.351,1 -3.71,3.39 -6.242,4.027 -2.539,1.035 -5.07,-0.367 -7.336,-1.406 0.547,-4.973 -6.062,-3.981 -7.644,-7.692 -0.227,-1.719 0.492,-3.484 1.902,-4.476 1.942,-0.996 4.207,-1.403 6.149,-0.227 2.312,-4.117 0.679,-9.187 2.171,-13.57 1.133,-2.996 0.59,-7.246 3.848,-8.871 1.856,-1.18 3.621,-2.45 5.481,-3.578 1.441,-1.86 0.765,-4.391 0.671,-6.52 -1.082,-0.133 -2.128,-0.312 -3.16,-0.492 -0.23,0.902 -0.418,1.762 -0.59,2.664 l -1.492,-1.223 -0.91,1 c -1.765,-0.41 -3.031,0.903 -4.39,1.809 -0.317,-2.938 0.5,-5.789 1.675,-8.461 -6.515,1.902 -10,-5.387 -15.793,-6.109 0.047,20.726 0.227,41.492 0.27,62.265"
         style="fill:#376dbe;fill-opacity:1;fill-rule:nonzero;stroke:none"
         id="path22" /><path
         d="m 210.277,221.766 c 2.266,1.039 4.797,2.441 7.336,1.406 2.532,-0.637 3.891,-3.027 6.242,-4.027 l -0.316,-1.09 c -0.953,0 -1.945,0 -2.894,0 l -0.411,2.043 -0.722,-1.676 c -1.09,-0.188 -2.176,-0.367 -3.258,-0.59 1.402,-2.449 4.434,-0.547 6.559,-1.406 -0.137,-2.492 -3.079,-2.262 -4.571,-3.524 -0.906,-0.82 -2.035,-1.089 -3.215,-1.136 0.278,0.91 0.547,1.765 0.77,2.672 l -1.492,-1.805 -0.582,1.394 c -1.496,-0.992 -3.266,-1.351 -4.621,0.047 -1.176,-0.32 -2.356,-0.5 -3.575,-0.59 0.95,-1.539 2.848,-1.031 4.34,-1.129 -0.633,-1.859 -3.301,-0.32 -4.84,-0.5 l 2.086,-1.582 -2.578,-0.675 c -1.41,0.992 -2.129,2.757 -1.902,4.476 1.582,3.711 8.191,2.719 7.644,7.692"
         style="fill:#ffffff;fill-opacity:1;fill-rule:nonzero;stroke:none"
         id="path24" /><path
         d="m 219.512,218.422 0.722,1.676 0.411,-2.043 c 0.949,0 1.941,0 2.894,0 l 0.316,1.09 c 2.532,-1.133 3.891,-4.071 6.743,-4.661 8.238,-0.41 16.468,-1.449 24.703,-0.82 2.535,0.27 5.203,0.231 7.508,-0.941 3.441,-1.231 5.207,-4.938 5.617,-8.379 0.633,-4.16 -1.27,-8.098 -1.137,-12.262 0.188,-2.941 -1.172,-5.742 -3.254,-7.781 0.18,-1.629 0.406,-3.258 0.723,-4.887 l -1.219,-1.633 c -0.547,1.813 -0.953,3.711 -1.492,5.524 -1.406,0.457 -2.852,0.726 -4.301,0.726 -0.047,-1.718 -0.18,-3.39 -0.359,-5.07 -1.133,-0.902 -2.446,-1.719 -3.942,-1.359 0.5,1.043 0.996,2.082 1.453,3.171 -0.683,1.262 -1.359,2.579 -1.992,3.887 -4.886,0.731 -9.867,-1.808 -14.797,-0.765 -1.906,0.316 -4.074,1.316 -5.75,-0.043 -2.351,-1.223 -2.351,-4.168 -3.261,-6.34 l -1.899,-1.992 c -0.543,1.449 -0.445,3.031 -0.445,4.57 -1.277,-0.856 -1.09,-2.621 -1.68,-3.887 l -2.219,0.629 c 0.094,2.129 0.77,4.66 -0.671,6.52 -1.86,1.128 -3.625,2.398 -5.481,3.578 -3.258,1.625 -2.715,5.875 -3.848,8.871 -1.492,4.383 0.141,9.453 -2.171,13.57 -1.942,-1.176 -4.207,-0.769 -6.149,0.227 l 2.578,0.675 -2.086,1.582 c 1.539,0.18 4.207,-1.359 4.84,0.5 -1.492,0.098 -3.39,-0.41 -4.34,1.129 1.219,0.09 2.399,0.27 3.575,0.59 1.355,-1.398 3.125,-1.039 4.621,-0.047 l 0.582,-1.394 1.492,1.805 c -0.223,-0.907 -0.492,-1.762 -0.77,-2.672 1.18,0.047 2.309,0.316 3.215,1.136 1.492,1.262 4.434,1.032 4.571,3.524 -2.125,0.859 -5.157,-1.043 -6.559,1.406 1.082,0.223 2.168,0.402 3.258,0.59"
         style="fill:#babab7;fill-opacity:1;fill-rule:nonzero;stroke:none"
         id="path26" /><path
         d="m 210.234,218.281 c 1.082,-0.269 3.121,-0.855 3.352,-2.035 -1.492,-0.402 -3.219,-1.043 -4.758,-0.539 -0.902,1.086 0.77,1.856 1.406,2.574"
         style="fill:#515153;fill-opacity:1;fill-rule:nonzero;stroke:none"
         id="path28" /><path
         d="m 222.086,209.051 c 1.312,1.855 2.441,4.121 4.75,4.976 -0.539,-2.082 0.5,-3.886 1.402,-5.695 l 0.727,0.852 c 0.18,-0.989 0.133,-2.168 1.043,-2.801 0.316,1.129 0.496,2.262 0.726,3.441 l 0.493,-2.402 1.761,1.859 c 0,-1.859 0.231,-3.758 0.727,-5.566 0.543,0.898 0.73,1.941 1.09,2.941 0.133,-0.953 0.269,-1.851 0.41,-2.804 2.394,1.761 2.574,4.57 3.023,7.183 l 0.68,-0.492 c 0.141,-2.301 1.457,-4.207 2.309,-6.242 0.5,2.262 -0.27,4.48 -0.36,6.734 2.848,0.238 1.539,-3.43 3.168,-4.832 l 1.133,2.578 c 0.359,-1.218 0.766,-2.445 1.352,-3.617 1,1.441 0.277,3.438 0.73,5.063 l 0.586,-1.176 1,0.726 c 0.223,-2.132 1.398,-3.937 2.801,-5.476 0.09,1.804 -0.18,3.664 -0.317,5.523 1.407,-2.082 2.219,-4.707 4.528,-6.019 0,1.406 -0.231,2.8 -0.547,4.16 1.176,-1.082 2.535,-1.949 4.07,-2.352 -0.445,2.539 -2.984,3.711 -4.07,5.84 2.625,-0.64 2.988,-3.89 5.34,-4.937 l 0.457,0.867 2.488,-1.41 c 0.223,1.949 -1.949,2.672 -2.535,4.3 2.535,-0.949 5.156,-3.3 5.156,-6.199 l -0.859,0.137 0.043,-2.488 -1.036,0.132 c 0.403,-3.71 -0.093,-7.421 -0.093,-11.125 -1.313,1.622 -1.453,3.754 -2.442,5.516 -0.5,-2.672 2.125,-5.746 -0.5,-7.824 -1.355,2.711 -2.394,5.879 -4.933,7.781 0.09,-1.402 0.312,-2.851 0.41,-4.301 -1.676,2.532 -3.078,5.571 -5.84,7.063 l 0.273,-1.813 -1.855,1.86 c 0.09,-2.18 0.633,-4.301 0.363,-6.477 -0.82,1.086 -1.222,2.535 -2.402,3.266 l -0.18,-2.406 c -1.359,1 -2.441,2.308 -2.398,4.078 l -1.492,-0.5 c 0.269,-2.172 0.183,-4.571 -1.309,-6.383 -0.32,2.265 0.039,4.57 -0.187,6.832 l -0.993,0.183 c -0.222,-2.222 1.039,-4.89 -0.543,-6.742 -1.398,0.5 -2.714,1.172 -4.211,1.356 -0.539,1.804 -0.718,3.761 -1.765,5.297 -0.313,-1.043 -0.59,-2.086 -0.813,-3.172 -0.359,1.312 -0.902,3.261 -2.621,2.308 0.629,-1.672 1.36,-3.39 0.949,-5.246 l -1.808,2.485 -1.18,-0.047 c -0.59,-1.082 -0.996,-2.301 -1.219,-3.571 l -2.539,0.407 c -2.031,-1.27 -4.523,-1.176 -6.832,-1.227 0.453,1.863 2.219,2.949 3.309,4.391 3.07,-0.989 7.324,0.867 8.051,4.121 -2.489,-0.449 -4.438,-2.852 -7.289,-2.125 1.222,1.039 3.351,1.176 3.668,2.984 -1.446,-0.273 -2.758,-1.172 -4.25,-1.082 l 0.949,1.492 c -2.309,-0.132 -6.469,-1.812 -7.559,0.817 1.313,0.316 2.539,0.722 3.711,1.355 l -2.129,0.36 c 3.352,-0.043 5.93,2.218 7.871,4.797 -2.078,-0.68 -3.703,-2.668 -6.152,-1.95 l 0.32,1.492 c -1.679,0.137 -3.488,-0.222 -4.972,0.637 1.039,0.231 2.343,0.141 2.98,1.18 l -2.168,0.633 c 2.578,1.359 4.52,4.437 7.824,3.758 -0.496,-1.137 -1.492,-1.95 -2.035,-3.032 -0.09,-0.906 1.403,-0.769 1.762,-0.23"
         style="fill:#ffffff;fill-opacity:1;fill-rule:nonzero;stroke:none"
         id="path30" /><path
         d="m 220.098,206.156 c 0.136,1.86 2.715,2.266 4.117,3.078 -0.27,-1.851 -2.442,-2.898 -4.117,-3.078"
         style="fill:#c6c3c2;fill-opacity:1;fill-rule:nonzero;stroke:none"
         id="path32" /><path
         d="m 222.227,202.445 c 1.171,2.078 3.168,3.528 4.57,5.477 1.219,-3.078 -1.992,-5.109 -4.57,-5.477"
         style="fill:#bbbab8;fill-opacity:1;fill-rule:nonzero;stroke:none"
         id="path34" /><path
         d="m 223.676,199.371 c 0.082,1.582 1.398,2.574 2.758,3.121 0.722,-1.676 -1.039,-3.57 -2.758,-3.121"
         style="fill:#bbbab8;fill-opacity:1;fill-rule:nonzero;stroke:none"
         id="path36" /><path
         d="m 218.559,199.73 c 0.859,1.45 2.675,1.625 4.207,1.899 l 0.32,-0.902 c -1.359,-0.864 -2.898,-1.582 -4.527,-0.997"
         style="fill:#bbbab8;fill-opacity:1;fill-rule:nonzero;stroke:none"
         id="path38" /><path
         d="m 238.109,183.895 c 4.93,-1.043 9.911,1.496 14.797,0.765 0.633,-1.308 1.309,-2.625 1.992,-3.887 -0.457,-1.089 -0.953,-2.128 -1.453,-3.171 -1.265,0.367 -2.578,0.543 -3.847,0.32 l -0.86,0.812 c -2.668,-1.132 -5.789,1.676 -7.918,-0.675 l -1.722,1.804 -1.809,-2.304 -2.215,1.265 -2.488,-1.5 -1.719,0.821 -1.769,-0.633 c 0.91,2.172 0.91,5.117 3.261,6.34 1.676,1.359 3.844,0.359 5.75,0.043"
         style="fill:#376dbe;fill-opacity:1;fill-rule:nonzero;stroke:none"
         id="path40" /><path
         d="m 257.746,184.031 c 1.449,0 2.895,-0.269 4.301,-0.726 0.539,-1.813 0.945,-3.711 1.492,-5.524 -1.672,0.098 -3.351,0.047 -4.98,-0.179 l -1.172,1.359 c 0.179,1.68 0.312,3.352 0.359,5.07"
         style="fill:#376dbe;fill-opacity:1;fill-rule:nonzero;stroke:none"
         id="path42" /><path
         d="m 212.313,180.59 c 1.359,-0.906 2.625,-2.219 4.39,-1.809 l 0.91,-1 1.492,1.223 c 0.172,-0.902 0.36,-1.762 0.59,-2.664 1.032,0.18 2.078,0.359 3.16,0.492 l 2.219,-0.629 2.125,-0.683 1.899,1.992 1.769,0.633 1.719,-0.821 2.488,1.5 2.215,-1.265 1.809,2.304 1.722,-1.804 c 2.129,2.351 5.25,-0.457 7.918,0.675 l 0.86,-0.812 c 1.269,0.223 2.582,0.047 3.847,-0.32 1.496,-0.36 2.809,0.457 3.942,1.359 l 1.172,-1.359 c 1.629,0.226 3.308,0.277 4.98,0.179 l 1.219,1.633 1.539,-1.223 c 1.539,0.454 3.074,0.77 4.66,1 0.863,-0.777 1.902,-1.269 2.984,-1.679 -0.722,-2.129 -2.441,-3.711 -4.16,-5.071 l -0.41,0.688 c 1.18,1.129 2.449,2.211 3.309,3.57 -1.492,1.535 -3.578,1.403 -5.524,0.903 -3.39,0.14 -6.738,-1.493 -10.09,-0.411 -4.796,-0.988 -9.636,0.551 -14.386,1.09 l -1.86,-1.133 -1.804,1.176 -1.36,-1.761 -2.539,1.218 c -1.129,-0.59 -2.308,-1.351 -3.613,-0.949 -2.309,0.637 -3.621,-3.121 -6.066,-1.941 -1.762,1.218 -3.801,0.902 -5.743,0.539 -1.543,1.992 -4.211,2.312 -6.48,2.984 0,-2.305 1.18,-4.34 1.223,-6.601 l -0.45,0.316 c -1.175,2.672 -1.992,5.523 -1.675,8.461"
         style="fill:#17311e;fill-opacity:1;fill-rule:nonzero;stroke:none"
         id="path44" /><path
         d="m 225.074,176.203 c 0.59,1.266 0.403,3.031 1.68,3.887 0,-1.539 -0.098,-3.121 0.445,-4.57 l -2.125,0.683"
         style="fill:#386ebf;fill-opacity:1;fill-rule:nonzero;stroke:none"
         id="path46" /><path
         d="m 213.215,178.414 c 2.269,-0.672 4.937,-0.992 6.48,-2.984 1.942,0.363 3.981,0.679 5.743,-0.539 2.445,-1.18 3.757,2.578 6.066,1.941 1.305,-0.402 2.484,0.359 3.613,0.949 l 2.539,-1.218 1.36,1.761 1.804,-1.176 1.86,1.133 c 4.75,-0.539 9.59,-2.078 14.386,-1.09 3.352,-1.082 6.7,0.551 10.09,0.411 1.946,0.5 4.032,0.632 5.524,-0.903 -0.86,-1.359 -2.129,-2.441 -3.309,-3.57 l 0.41,-0.688 0.137,-0.222 c -5.703,1.133 -8.957,-4.571 -13.848,-6.11 l -0.59,-0.136 -0.765,-0.133 -0.906,1.988 -0.5,-2.574 -0.133,2.125 c -0.906,-0.18 -1.856,-0.41 -2.762,-0.59 -3.078,1.766 -5.476,4.801 -9.094,5.43 -6.105,1.222 -9.273,-5.789 -14.976,-6.289 l -0.949,0.633 h -0.59 l -1.77,-0.321 c -3.074,1.496 -5.422,4.211 -8.597,5.571 -0.043,2.261 -1.223,4.296 -1.223,6.601"
         style="fill:#1c4c25;fill-opacity:1;fill-rule:nonzero;stroke:none"
         id="path48" /><path
         d="m 226.344,165.93 c 5.703,0.5 8.871,7.511 14.976,6.289 3.618,-0.629 6.016,-3.664 9.094,-5.43 l -2.445,-0.726 c 1.59,-0.954 3.441,-1.223 5.207,-1.719 l -0.227,-0.723 c -1.539,-0.5 -3.121,-0.859 -4.711,-1.269 l -0.902,1.269 -0.449,-1.129 c -1.903,-0.402 -3.758,-1 -5.66,-1.269 l -0.18,0.09 0.41,1.136 2.031,0.27 c 0.5,0.902 0.95,1.804 1.496,2.672 h 0.95 l -0.27,1.718 -2.578,0.629 0.402,-0.898 c -1.039,-0.371 -2.078,-0.688 -3.113,-1 0.082,1.043 0.18,2.078 0.27,3.121 l -0.411,1 -2.265,-0.688 c -1.492,-0.671 -2.985,-1.265 -4.434,-1.894 1.539,-0.457 3.121,-0.91 4.703,-1.227 l 0.231,-0.992 c -1.446,-0.457 -2.895,-0.859 -4.344,-1.351 0,-1.18 1.402,-1.676 2.172,-2.317 l 1.941,0.821 0.278,-1.723 c -2.262,-0.727 -4.618,-1.36 -7.012,-0.817 l -0.457,1.219 -0.363,-1.668 c -1.446,-0.41 -2.848,-0.906 -4.34,-1.133 l -0.317,0.317 c 0.996,1.762 3.571,1.355 4.207,3.211 l 0.543,-0.449 c 0.09,1.043 0.27,2.121 0.59,3.164 -1,-0.09 -1.992,-0.09 -2.992,-0.043 l -0.086,-0.68 -2.355,-0.59 c 0.05,0.906 -0.137,1.942 0.41,2.809"
         style="fill:#ffffff;fill-opacity:1;fill-rule:nonzero;stroke:none"
         id="path50" /><path
         d="m 237.969,169.273 2.265,0.688 0.411,-1 c -0.09,-1.043 -0.188,-2.078 -0.27,-3.121 1.035,0.312 2.074,0.629 3.113,1 l -0.402,0.898 2.578,-0.629 0.27,-1.718 h -0.95 c -3.3,0.043 -6.246,-1.77 -9.41,-2.403 l 0.723,-1.496 c -0.77,0.641 -2.172,1.137 -2.172,2.317 1.449,0.492 2.898,0.894 4.344,1.351 l -0.231,0.992 0.778,0.18 -0.141,2.539 -0.906,0.402"
         style="fill:#d37645;fill-opacity:1;fill-rule:nonzero;stroke:none"
         id="path52" /><path
         d="m 233.535,167.379 c 1.449,0.629 2.942,1.223 4.434,1.894 l 0.906,-0.402 0.141,-2.539 -0.778,-0.18 c -1.582,0.317 -3.164,0.77 -4.703,1.227"
         style="fill:#eb1e26;fill-opacity:1;fill-rule:nonzero;stroke:none"
         id="path54" /><path
         d="m 253.809,167.828 0.906,-1.988 0.226,-1.719 2.168,0.719 -1.629,1.133 0.59,0.136 c 1.317,-0.855 2.809,-0.906 4.297,-0.675 l -0.762,-1.493 0.403,-1.992 -0.949,1.262 -0.274,0.551 c -2.937,-0.864 -5.926,-1.492 -8.867,-2.492 l 0.676,-1.047 1.222,-0.36 -1.628,-0.765 c -0.77,0.949 -1.493,1.894 -2.168,2.851 l -1.993,-2.129 -0.273,0.813 c -3.484,-0.813 -6.879,-1.719 -10.316,-2.574 -0.95,-0.137 -1.313,-1.039 -1.77,-1.723 l -0.133,0.453 -0.859,1.629 -1.719,-1.766 -0.09,0.95 c -3.933,-1.082 -7.832,-2.352 -11.762,-3.395 l 0.219,1.945 c 1.77,0.59 3.582,0.911 5.301,1.5 0.043,0.809 -0.098,1.536 -1.047,1.536 v 0.32 c 0.949,0 1.899,-0.09 2.449,-1 l 0.317,-0.317 c 1.492,0.227 2.894,0.723 4.34,1.133 l 0.363,1.668 0.457,-1.219 c 2.394,-0.543 4.75,0.09 7.012,0.817 l -0.278,1.723 0.637,0.898 0.453,-1.762 1.899,-0.226 c 1.902,0.269 3.757,0.867 5.66,1.269 l 0.449,1.129 0.902,-1.269 c 1.59,0.41 3.172,0.769 4.711,1.269 l 0.227,0.723 0.133,0.91 0.5,2.574"
         style="fill:#d77946;fill-opacity:1;fill-rule:nonzero;stroke:none"
         id="path56" /><path
         d="m 250.414,166.789 c 0.906,0.18 1.856,0.41 2.762,0.59 l 0.133,-2.125 -0.133,-0.91 c -1.766,0.496 -3.617,0.765 -5.207,1.719 l 2.445,0.726"
         style="fill:#eb1e26;fill-opacity:1;fill-rule:nonzero;stroke:none"
         id="path58" /><path
         d="m 223.035,166.242 1.77,0.321 c -0.047,-1.219 -0.09,-2.399 -0.137,-3.575 -2.625,0.321 -5.203,1.086 -7.871,1.403 1.988,0.863 4.16,1.269 6.238,1.851"
         style="fill:#eb2026;fill-opacity:1;fill-rule:nonzero;stroke:none"
         id="path60" /><path
         d="m 224.805,166.563 h 0.59 l 0.949,-0.633 c -0.547,-0.867 -0.36,-1.903 -0.41,-2.809 l 2.355,0.59 0.086,0.68 c 1,-0.047 1.992,-0.047 2.992,0.043 -0.32,-1.043 -0.5,-2.121 -0.59,-3.164 l -0.543,0.449 -0.457,0.91 c -2.304,-0.731 -4.562,-1.586 -6.828,-2.313 l 0.18,-0.765 c -1.133,0.359 -2.305,0.179 -3.352,-0.41 l -0.179,2.039 c 1.675,0.59 3.531,0.812 5.07,1.808 0.047,1.176 0.09,2.356 0.137,3.575"
         style="fill:#d87947;fill-opacity:1;fill-rule:nonzero;stroke:none"
         id="path62" /><path
         d="m 235.574,162.988 c 3.164,0.633 6.11,2.446 9.41,2.403 -0.546,-0.868 -0.996,-1.77 -1.496,-2.672 l -2.031,-0.27 -0.41,-1.136 0.18,-0.09 -1.899,0.226 -0.453,1.762 -0.637,-0.898 -1.941,-0.821 -0.723,1.496"
         style="fill:#f9cd27;fill-opacity:1;fill-rule:nonzero;stroke:none"
         id="path64" /><path
         d="m 254.715,165.84 0.765,0.133 1.629,-1.133 -2.168,-0.719 -0.226,1.719"
         style="fill:#fbfcfb;fill-opacity:1;fill-rule:nonzero;stroke:none"
         id="path66" /><path
         d="m 249.918,161.27 c 2.941,1 5.93,1.628 8.867,2.492 l 0.274,-0.551 -0.543,-1.852 -1.766,-0.136 -1.809,-1.852 -1.855,1.078 -1.27,-0.586 -1.222,0.36 -0.676,1.047"
         style="fill:#f9cd27;fill-opacity:1;fill-rule:nonzero;stroke:none"
         id="path68" /><path
         d="m 222.949,160.316 c 2.266,0.727 4.524,1.582 6.828,2.313 l 0.457,-0.91 c -0.636,-1.856 -3.211,-1.449 -4.207,-3.211 -0.55,0.91 -1.5,1 -2.449,1 l -0.449,0.043 -0.18,0.765"
         style="fill:#f9cd27;fill-opacity:1;fill-rule:nonzero;stroke:none"
         id="path70" /><path
         d="m 246.027,159.82 1.993,2.129 c 0.675,-0.957 1.398,-1.902 2.168,-2.851 l 1.628,0.765 1.27,0.586 -0.09,-2.125 c -2.129,-0.086 -4.207,-0.812 -6.019,-1.851 l -1.762,1.449 0.812,1.898"
         style="fill:#ffffff;fill-opacity:1;fill-rule:nonzero;stroke:none"
         id="path72" /><path
         d="m 260.461,161.09 1.855,-0.277 c -0.046,-1.172 -1.086,-1.715 -1.898,-2.352 -0.098,-0.898 -0.137,-1.809 -0.184,-2.719 l -0.132,-2.57 -0.184,1.941 -0.27,2.356 0.133,1.402 c -2.394,-0.949 -5.293,-0.949 -7.324,-2.672 -1.5,0.137 -2.949,-0.179 -4.309,-0.679 l -1.171,0.953 c 1.812,1.039 3.89,1.765 6.019,1.851 l 0.09,2.125 1.855,-1.078 0.454,-0.273 c 1.625,0.722 3.8,0.59 5.066,1.992"
         style="fill:#d57646;fill-opacity:1;fill-rule:nonzero;stroke:none"
         id="path74" /><path
         d="m 235.438,158.059 c 3.437,0.855 6.832,1.761 10.316,2.574 l 0.273,-0.813 -0.812,-1.898 c -1.5,-2.719 -1.586,-5.84 -0.777,-8.734 -0.989,0.449 -1.934,0.996 -2.938,1.402 -1.266,0.68 -2.715,0.223 -3.762,-0.637 -0.984,-0.902 -1.984,-1.855 -3.07,-2.664 -1.133,2.852 -2.398,6.063 -1,9.047 0.457,0.684 0.82,1.586 1.77,1.723"
         style="fill:#f9cd27;fill-opacity:1;fill-rule:nonzero;stroke:none"
         id="path76" /><path
         d="m 199.102,153.262 c 4.164,1.176 6.699,5.336 10.953,6.199 3.57,0.855 6.511,-1.539 9.269,-3.309 l -0.219,-1.945 -0.457,-2.305 0.36,-2.265 1.18,-2.446 -0.676,-1.351 0.496,-2.402 c -1.766,1.179 -3.442,2.582 -5.391,3.531 l -1.762,-1.129 1.09,1.449 c -2.039,0.313 -4.168,0.27 -6.019,-0.637 l -1.492,-0.992 -0.321,-0.183 h -0.949 l 1.449,2.082 c -1.808,-1.09 -3.168,-2.852 -5.34,-3.309 -0.906,2.941 -1.628,5.98 -2.171,9.012"
         style="fill:#376dbe;fill-opacity:1;fill-rule:nonzero;stroke:none"
         id="path78" /><path
         d="m 260.234,155.742 c 2.758,2.039 5.883,4.574 9.637,3.719 4.211,-0.773 6.699,-5.023 10.817,-6.02 -0.411,-3.711 -1.54,-7.332 -2.758,-10.863 -3.082,1.719 -5.75,5.43 -9.641,4.613 -4.797,0.727 -7.469,-4.519 -11.769,-5.699 l -0.313,-0.09 -0.269,2.399 2.078,0.726 1.179,1.133 c 0.993,1.219 0.453,2.899 0.496,4.348 -0.175,-0.957 0.227,-2.496 -1.175,-2.539 l -0.36,2.621 c -0.14,1.496 -0.367,3.039 0.043,4.48 l 1.719,0.543 0.184,-1.941 0.132,2.57"
         style="fill:#376dbe;fill-opacity:1;fill-rule:nonzero;stroke:none"
         id="path80" /><path
         d="m 252.457,156.199 c 2.031,1.723 4.93,1.723 7.324,2.672 l -0.133,-1.402 c -0.5,-0.949 -1.039,-1.903 -1.449,-2.899 -0.41,-1.441 -0.183,-2.984 -0.043,-4.48 l -0.14,-0.992 -1.266,1.402 -0.23,-0.812 c -1.442,0.359 -2.981,1.125 -4.473,0.542 -1.317,-1 -2.309,-2.312 -3.442,-3.539 -0.859,2.86 -1.996,5.981 -0.457,8.829 1.36,0.5 2.809,0.816 4.309,0.679"
         style="fill:#f9cd27;fill-opacity:1;fill-rule:nonzero;stroke:none"
         id="path82" /><path
         d="m 230.957,156.652 1.719,1.766 0.859,-1.629 c -1.039,-0.769 -2.129,-1.449 -3.301,-1.988 l 0.723,1.851"
         style="fill:#f2f5f4;fill-opacity:1;fill-rule:nonzero;stroke:none"
         id="path84" /><path
         d="m 238.379,155.973 c -0.59,0.679 -1.133,2.086 0.226,2.265 1.54,0.086 1.262,-1.629 0.454,-2.359 0.859,-0.629 0.996,-2.348 -0.411,-2.301 -1.402,0.18 -0.859,1.625 -0.269,2.395"
         style="fill:#b91e26;fill-opacity:1;fill-rule:nonzero;stroke:none"
         id="path86" /><path
         d="m 219.105,154.207 c 3.93,1.043 7.829,2.313 11.762,3.395 l 0.09,-0.95 -0.723,-1.851 c -0.996,-1.953 -0.816,-4.164 -0.816,-6.289 l -2.441,1.078 -2.309,0.551 c -1.813,-0.453 -2.941,-1.989 -3.941,-3.489 l -0.539,0.539 -1.18,2.446 c 0.187,0.683 0.91,2.304 -0.36,2.265 l 0.457,2.305"
         style="fill:#f9cd27;fill-opacity:1;fill-rule:nonzero;stroke:none"
         id="path88" /><path
         d="m 244.438,149.188 c -0.809,2.894 -0.723,6.015 0.777,8.734 l 1.762,-1.449 1.171,-0.953 c -1.539,-2.848 -0.402,-5.969 0.457,-8.829 1.133,1.227 2.125,2.539 3.442,3.539 l 1.082,-0.183 c 0.09,-1.086 0.047,-2.219 0.047,-3.309 -1.856,-0.359 -3.758,-0.675 -5.61,-0.988 0.454,-1.812 2.262,-2.852 3.981,-1.902 l 1.402,-1.45 -0.133,-1.039 -1.316,0.27 c -1.035,0.41 -2.035,0.91 -2.984,1.449 -1.137,0.949 -2.262,1.902 -3.395,2.809 l 0.453,0.492 0.543,0.59 -0.402,1.129 c -1.86,-0.137 -3.719,-0.36 -5.57,-0.539 0.043,0.953 0.043,1.941 0.089,2.941 l 1.266,0.09 c 1.004,-0.406 1.949,-0.953 2.938,-1.402"
         style="fill:#376dbe;fill-opacity:1;fill-rule:nonzero;stroke:none"
         id="path90" /><path
         d="m 258.199,154.57 c 0.41,0.996 0.949,1.95 1.449,2.899 l 0.27,-2.356 -1.719,-0.543"
         style="fill:#eff4f7;fill-opacity:1;fill-rule:nonzero;stroke:none"
         id="path92" /><path
         d="m 230.234,154.801 c 1.172,0.539 2.262,1.219 3.301,1.988 l 0.133,-0.453 c -1.398,-2.984 -0.133,-6.195 1,-9.047 1.086,0.809 2.086,1.762 3.07,2.664 l 0.867,-2.531 c -1.628,-0.27 -3.257,-0.453 -4.89,-0.731 l 0.363,-1.492 c -1.808,-1.308 -3.48,-2.801 -5.609,-3.57 l -2.305,-0.582 c -0.367,1.312 0.133,2.48 1.129,3.344 2.395,-1.133 4.074,1.539 4.074,3.617 -1.859,-0.317 -3.711,-0.629 -5.613,-0.949 0,0.902 0.043,1.769 0.043,2.671 l 1.18,-0.14 2.441,-1.078 c 0,2.125 -0.18,4.336 0.816,6.289"
         style="fill:#376dbe;fill-opacity:1;fill-rule:nonzero;stroke:none"
         id="path94" /><path
         d="m 242.586,154.57 c -2.398,-1.039 -2.352,2.899 0.043,1.766 l -0.043,-1.766"
         style="fill:#ba1e25;fill-opacity:1;fill-rule:nonzero;stroke:none"
         id="path96" /><path
         d="m 234.895,155.023 c 1.671,0.274 2.351,-1.312 1.402,-2.535 -1.27,0.27 -1.899,1.313 -1.402,2.535"
         style="fill:#b01e24;fill-opacity:1;fill-rule:nonzero;stroke:none"
         id="path98" /><path
         d="m 237.883,151.449 c -0.684,1.223 0.496,2.039 1.625,1.68 0.867,-1.137 -0.543,-2.809 -1.625,-1.68"
         style="fill:#b71e25;fill-opacity:1;fill-rule:nonzero;stroke:none"
         id="path100" /><path
         d="m 218.648,151.902 c 1.27,0.039 0.547,-1.582 0.36,-2.265 l -0.36,2.265"
         style="fill:#5c4b30;fill-opacity:1;fill-rule:nonzero;stroke:none"
         id="path102" /><path
         d="m 237.738,149.953 c 1.047,0.86 2.496,1.317 3.762,0.637 l -1.266,-0.09 c -0.046,-1 -0.046,-1.988 -0.089,-2.941 1.851,0.179 3.71,0.402 5.57,0.539 l 0.402,-1.129 -0.543,-0.59 c -1.988,0.359 -3.937,-0.406 -5.886,-0.859 l -0.27,-0.993 -0.859,0.813 0.277,-1.36 0.898,-0.363 c -1.218,-2.527 -0.769,-5.379 -0.996,-8.097 -0.222,-1.133 0.547,-2.032 1.129,-2.899 v -0.812 l -1.172,0.859 c 0,-2.031 0.043,-4.02 0.09,-6.063 h 0.453 c 0.137,1.133 0.367,2.176 0.586,3.254 0,-1.308 0.043,-2.578 0.094,-3.882 l 0.5,-0.047 1.352,-0.043 h 2.496 c -1.996,-0.778 -4.211,-0.641 -6.2,0 0.313,2.894 0.223,5.793 0.172,8.683 l -1.215,-0.32 0.993,1.137 c 0,1.808 -0.45,3.57 -0.86,5.293 l 1.039,-1.133 -0.086,1.133 -1.765,0.679 0.679,1.582 0.497,-1.671 c 0.363,1.039 0.089,2.078 -0.364,3.027 l -1.172,-0.227 -1.539,-0.09 -0.367,1.219 -0.363,1.492 c 1.633,0.278 3.262,0.461 4.89,0.731 l -0.867,2.531"
         style="fill:#ce7d37;fill-opacity:1;fill-rule:nonzero;stroke:none"
         id="path104" /><path
         d="m 252.047,150.23 c 1.492,0.583 3.031,-0.183 4.473,-0.542 l 0.23,0.812 1.266,-1.402 0.14,0.992 0.36,-2.621 c 1.402,0.043 1,1.582 1.175,2.539 -0.043,-1.449 0.497,-3.129 -0.496,-4.348 -1.949,0.313 -3.894,-0.14 -5.75,-0.68 l 0.731,-2.128 0.039,-1.715 1.992,0.265 0.313,0.09 0.277,-1.492 c 2.082,0.137 4.07,0.863 6.109,1.09 l -0.5,1.351 1.582,-0.992 c 2.899,0.36 5.703,1.539 8.641,1.719 l -0.082,-1.988 c -2.629,-1.68 -1.09,-5.164 -0.367,-7.469 -2.309,-0.043 -4.614,0.047 -6.965,0.137 -2.719,-7.153 -8.008,-13.352 -15.07,-16.473 -6.247,-2.578 -13.848,-2.941 -20.047,0.09 -5.024,2.672 -8.504,7.644 -9.953,13.082 -0.227,1.762 -1.403,3.211 -3.309,3.074 -0.359,1.309 -0.582,2.629 -0.723,3.934 -1.398,0.273 -2.8,0.367 -4.207,0.273 l -1.629,0.949 c 0.137,-0.996 0.317,-2.035 0.45,-3.078 l 0.867,-0.269 0.449,-0.133 c -2.355,-1.359 -3.578,0.953 -4.57,2.672 l 1.355,-0.774 c 0.406,2.215 -1.312,3.215 -3.117,3.805 l -0.227,-0.684 c -1,1.133 -2.129,2.125 -3.621,2.536 l 0.043,0.089 0.317,0.95 1.449,-0.18 c 1.402,-0.633 2.762,-1.352 4.203,-1.945 -0.039,1.132 -0.133,2.304 -0.223,3.433 l -1.218,0.461 1.492,0.992 c 2.308,-1.039 1.269,-3.98 1.898,-5.972 1.582,-0.77 3.031,-1.903 4.793,-2.215 2.399,0 4.348,-1.629 6.617,-2.168 0.219,0.898 0.45,1.805 0.539,2.711 l 1.903,-2.129 c 0.769,1.359 0.449,2.941 0.179,4.391 l 0.27,1.718 1.313,0.36 v 1.59 l -2.583,-0.821 -2.398,-0.996 -0.449,0.317 -0.496,2.402 0.676,1.351 0.539,-0.539 c 1.269,-0.363 2.586,0 3.898,0.18 0,1.129 0.043,2.219 0.043,3.309 l 2.309,-0.551 -1.18,0.14 c 0,-0.902 -0.043,-1.769 -0.043,-2.671 1.902,0.32 3.754,0.632 5.613,0.949 0,-2.078 -1.679,-4.75 -4.074,-3.617 -0.996,-0.864 -1.496,-2.032 -1.129,-3.344 l 2.305,0.582 c 0.816,-3.758 1.949,-7.422 2.898,-11.129 l -1.812,-1.133 c 2.308,-2.262 5.562,-2.672 8.511,-3.48 1.989,-0.641 4.204,-0.778 6.2,0 2.304,0.761 4.793,1.492 6.601,3.211 l 0.41,0.312 1.493,1.18 c 0.046,1.398 0.046,2.808 0.046,4.16 -0.089,1.992 1.262,4.891 -0.867,6.07 l -0.449,0.809 1.316,-0.27 0.133,1.039 -1.402,1.45 c -1.719,-0.95 -3.527,0.09 -3.981,1.902 1.852,0.313 3.754,0.629 5.61,0.988 0,1.09 0.043,2.223 -0.047,3.309 l -1.082,0.183"
         style="fill:#db7b47;fill-opacity:1;fill-rule:nonzero;stroke:none"
         id="path106" /><path
         d="m 220.727,146.652 c 1,1.5 2.128,3.036 3.941,3.489 0,-1.09 -0.043,-2.18 -0.043,-3.309 -1.312,-0.18 -2.629,-0.543 -3.898,-0.18"
         style="fill:#376dbe;fill-opacity:1;fill-rule:nonzero;stroke:none"
         id="path108" /><path
         d="m 254.355,149.867 c 1.442,-0.496 3.301,-0.726 4.114,-2.219 -1.36,-0.359 -2.758,-0.589 -4.114,-0.632 0,0.945 0,1.902 0,2.851"
         style="fill:#376dbe;fill-opacity:1;fill-rule:nonzero;stroke:none"
         id="path110" /><path
         d="m 201.273,144.25 c 2.172,0.457 3.532,2.219 5.34,3.309 l -1.449,-2.082 h 0.949 l -2.441,-1.766 -1.449,0.18 -0.317,-0.95 -0.633,1.309"
         style="fill:#305073;fill-opacity:1;fill-rule:nonzero;stroke:none"
         id="path112" /><path
         d="m 207.926,146.652 c 1.851,0.907 3.98,0.95 6.019,0.637 l -1.09,-1.449 1.762,1.129 c 1.949,-0.949 3.625,-2.352 5.391,-3.531 l 0.449,-0.317 0.777,-1.535 0.45,0.633 0.222,-0.133 c 0.18,-0.863 0.321,-1.723 0.453,-2.625 l -1.222,1.855 0.636,-2.308 c -0.089,-0.906 -0.32,-1.813 -0.539,-2.711 -2.269,0.539 -4.218,2.168 -6.617,2.168 -1.762,0.312 -3.211,1.445 -4.793,2.215 -0.629,1.992 0.41,4.933 -1.898,5.972"
         style="fill:#ffffff;fill-opacity:1;fill-rule:nonzero;stroke:none"
         id="path114" /><path
         d="m 239.688,145.52 c 1.949,0.453 3.898,1.218 5.886,0.859 l -0.453,-0.492 c -1.043,-0.907 -2.402,-1.36 -3.801,-1.227 1.129,-1.808 1.399,-4.023 1.184,-6.109 -1.145,-0.723 -0.414,-1.852 -0.055,-2.715 l 0.367,2.223 c 0.403,-1.317 0.719,-2.672 0.813,-4.079 l -0.453,0.227 c 0.812,1.133 -1.219,2.09 -1.129,0.5 l -1.992,0.043 -0.188,-2.129 c -0.582,0.867 -1.351,1.766 -1.129,2.899 0.227,2.718 -0.222,5.57 0.996,8.097 l -0.898,0.363 -0.277,1.36 0.859,-0.813 0.27,0.993"
         style="fill:#d17c46;fill-opacity:1;fill-rule:nonzero;stroke:none"
         id="path116" /><path
         d="m 241.32,144.66 c 1.399,-0.133 2.758,0.32 3.801,1.227 1.133,-0.907 2.258,-1.86 3.395,-2.809 0.812,-3.48 1.898,-7.512 -0.817,-10.547 l 0.321,-1.625 c -1.45,1.043 -2.852,2.172 -4.391,3.074 -0.094,1.407 -0.41,2.762 -0.813,4.079 l -0.367,-2.223 c -0.359,0.863 -1.09,1.992 0.055,2.715 0.215,2.086 -0.055,4.301 -1.184,6.109"
         style="fill:#ffffff;fill-opacity:1;fill-rule:nonzero;stroke:none"
         id="path118" /><path
         d="m 253.445,144.98 c 1.856,0.54 3.801,0.993 5.75,0.68 l -1.179,-1.133 -1.989,0.18 -1.851,-1.855 -0.731,2.128"
         style="fill:#f9cd27;fill-opacity:1;fill-rule:nonzero;stroke:none"
         id="path120" /><path
         d="m 206.113,145.477 0.321,0.183 1.218,-0.461 c 0.09,-1.129 0.184,-2.301 0.223,-3.433 -1.441,0.593 -2.801,1.312 -4.203,1.945 l 2.441,1.766"
         style="fill:#ffffff;fill-opacity:1;fill-rule:nonzero;stroke:none"
         id="path122" /><path
         d="m 222.855,144.117 2.583,0.821 v -1.59 l -1.313,-0.36 -1.27,1.129"
         style="fill:#f5ca25;fill-opacity:1;fill-rule:nonzero;stroke:none"
         id="path124" /><path
         d="m 228.469,141.629 c 2.129,0.769 3.801,2.262 5.609,3.57 l 0.367,-1.219 c 0.313,-2.214 1.809,-4.433 0.95,-6.691 -0.457,-1.41 -0.817,-2.902 -0.907,-4.398 -1.043,-0.805 -2.039,-1.672 -3.121,-2.391 -0.949,3.707 -2.082,7.371 -2.898,11.129"
         style="fill:#ffffff;fill-opacity:1;fill-rule:nonzero;stroke:none"
         id="path126" /><path
         d="m 256.027,144.707 1.989,-0.18 -2.078,-0.726 0.269,-2.399 -1.992,-0.265 -0.039,1.715 1.851,1.855"
         style="fill:#2f3c50;fill-opacity:1;fill-rule:nonzero;stroke:none"
         id="path128" /><path
         d="m 235.984,144.07 1.172,0.227 c 0.453,-0.949 0.727,-1.988 0.364,-3.027 l -0.497,1.671 -0.679,-1.582 -0.227,-1.449 c -0.543,1.36 -0.496,2.762 -0.133,4.16"
         style="fill:#ffffff;fill-opacity:1;fill-rule:nonzero;stroke:none"
         id="path130" /><path
         d="m 220.457,143.121 2.398,0.996 1.27,-1.129 -0.27,-1.718 -1.949,0.816 -0.222,0.133 -0.45,-0.633 -0.777,1.535"
         style="fill:#356bbd;fill-opacity:1;fill-rule:nonzero;stroke:none"
         id="path132" /><path
         d="m 234.445,143.98 1.539,0.09 c -0.363,-1.398 -0.41,-2.8 0.133,-4.16 l 0.227,1.449 1.765,-0.679 0.086,-1.133 -1.039,1.133 c 0.41,-1.723 0.86,-3.485 0.86,-5.293 l -0.993,-1.137 -2.535,-1.359 c 0.09,1.496 0.45,2.988 0.907,4.398 0.859,2.258 -0.637,4.477 -0.95,6.691"
         style="fill:#c5b3aa;fill-opacity:1;fill-rule:nonzero;stroke:none"
         id="path134" /><path
         d="m 248.516,143.078 c 0.949,-0.539 1.949,-1.039 2.984,-1.449 l 0.449,-0.809 c 2.129,-1.179 0.778,-4.078 0.867,-6.07 -1.949,-0.812 -1.132,-3.621 -1.539,-5.34 l -0.41,-0.312 c -0.996,0.539 -1.949,1.129 -2.847,1.808 l -0.321,1.625 c 2.715,3.035 1.629,7.067 0.817,10.547"
         style="fill:#beaaa0;fill-opacity:1;fill-rule:nonzero;stroke:none"
         id="path136" /><path
         d="m 221.906,142.086 1.949,-0.816 c 0.27,-1.45 0.59,-3.032 -0.179,-4.391 l -1.903,2.129 -0.636,2.308 1.222,-1.855 c -0.132,0.902 -0.273,1.762 -0.453,2.625"
         style="fill:#aa9085;fill-opacity:1;fill-rule:nonzero;stroke:none"
         id="path138" /><path
         d="m 241.457,141.09 0.633,-2.18 -0.633,2.18"
         style="fill:#efe9e6;fill-opacity:1;fill-rule:nonzero;stroke:none"
         id="path140" /><path
         d="m 225.934,135.566 c 0.05,1.582 -0.18,3.211 0.23,4.75 0.313,-1.851 0.633,-3.664 0.813,-5.519 l -1.043,0.769"
         style="fill:#fdfefd;fill-opacity:1;fill-rule:nonzero;stroke:none"
         id="path142" /><path
         d="m 254.848,139.461 1.672,-0.094 0.097,-0.769 -1.719,-0.18 v -1.988 h -0.503 c 0.093,1.039 0.226,2.035 0.453,3.031"
         style="fill:#ffffff;fill-opacity:1;fill-rule:nonzero;stroke:none"
         id="path144" /><path
         d="m 210.277,138.777 1.629,-0.949 1.137,-1.676 -1.449,-0.722 -0.867,0.269 c -0.133,1.043 -0.313,2.082 -0.45,3.078"
         style="fill:#ffffff;fill-opacity:1;fill-rule:nonzero;stroke:none"
         id="path146" /><path
         d="m 228.336,138.102 0.359,-1.672 -0.359,1.672"
         style="fill:#fbfcfa;fill-opacity:1;fill-rule:nonzero;stroke:none"
         id="path148" /><path
         d="m 211.906,137.828 c 1.407,0.094 2.809,0 4.207,-0.273 0.141,-1.305 0.364,-2.625 0.723,-3.934 l -0.629,-0.09 -1.902,-0.179 -0.5,1.265 -0.27,0.813 -1.492,-0.133 -0.449,0.133 1.449,0.722 -1.137,1.676"
         style="fill:#b3b3af;fill-opacity:1;fill-rule:nonzero;stroke:none"
         id="path150" /><path
         d="m 255.301,137.648 1.719,-0.046 0.089,-2.082 -0.632,0.957 -1.039,-0.551 -0.137,1.722"
         style="fill:#ffffff;fill-opacity:1;fill-rule:nonzero;stroke:none"
         id="path152" /><path
         d="m 235.844,134.656 0.722,2.223 -0.722,-2.223"
         style="fill:#131110;fill-opacity:1;fill-rule:nonzero;stroke:none"
         id="path154" /><path
         d="m 228.648,136.105 c 0.95,-0.179 1.04,-1.218 1.36,-1.945 l -1.313,0.047 -0.047,1.898"
         style="fill:#f6f2f1;fill-opacity:1;fill-rule:nonzero;stroke:none"
         id="path156" /><path
         d="m 254.441,136.016 0.817,-0.629 c 0.043,-0.91 0.312,-1.899 -0.18,-2.766 -0.82,1 -0.637,2.266 -0.637,3.395"
         style="fill:#fafaf9;fill-opacity:1;fill-rule:nonzero;stroke:none"
         id="path158" /><path
         d="m 242.047,134.707 c -0.09,1.59 1.941,0.633 1.129,-0.5 l -1.129,0.5"
         style="fill:#e9ecef;fill-opacity:1;fill-rule:nonzero;stroke:none"
         id="path160" /><path
         d="m 206.434,133.121 c 2.171,1.449 4.793,1.949 7.371,1.496 l 0.5,-1.265 1.902,0.179 c 1.266,-1.043 2.578,-2.035 3.938,-2.984 1.449,-5.438 4.929,-10.41 9.953,-13.082 -4.071,-2.488 -8.914,-0.539 -12.035,2.535 -5.25,2.848 -8.829,7.965 -11.629,13.121"
         style="fill:#376dbe;fill-opacity:1;fill-rule:nonzero;stroke:none"
         id="path162" /><path
         d="m 225.848,134.797 c 1.039,-0.547 1.672,-1.539 1.625,-2.711 -0.86,0.672 -1.586,1.535 -1.625,2.711"
         style="fill:#ffffff;fill-opacity:1;fill-rule:nonzero;stroke:none"
         id="path164" /><path
         d="m 237.023,134.25 1.215,0.32 c 0.051,-2.89 0.141,-5.789 -0.172,-8.683 -2.949,0.808 -6.203,1.218 -8.511,3.48 l 1.812,1.133 c 1.082,0.719 2.078,1.586 3.121,2.391 l 2.535,1.359"
         style="fill:#356abc;fill-opacity:1;fill-rule:nonzero;stroke:none"
         id="path166" /><path
         d="m 240.055,134.75 1.992,-0.043 1.129,-0.5 0.453,-0.227 c 1.539,-0.902 2.941,-2.031 4.391,-3.074 0.898,-0.679 1.851,-1.269 2.847,-1.808 -1.808,-1.719 -4.297,-2.45 -6.601,-3.211 h -2.496 c -0.176,1.941 -0.313,3.89 -1.125,5.648 -0.137,-1.855 -0.188,-3.707 -0.227,-5.605 l -0.5,0.047 c -0.051,1.304 -0.094,2.574 -0.094,3.882 l 0.043,1.95 v 0.812 l 0.188,2.129"
         style="fill:#2c5ea5;fill-opacity:1;fill-rule:nonzero;stroke:none"
         id="path168" /><path
         d="m 251.277,129.41 c 0.407,1.719 -0.41,4.528 1.539,5.34 0,-1.352 0,-2.762 -0.046,-4.16 l -1.493,-1.18"
         style="fill:#ffffff;fill-opacity:1;fill-rule:nonzero;stroke:none"
         id="path170" /><path
         d="m 216.207,133.531 0.629,0.09 c 1.906,0.137 3.082,-1.312 3.309,-3.074 -1.36,0.949 -2.672,1.941 -3.938,2.984"
         style="fill:#ffffff;fill-opacity:1;fill-rule:nonzero;stroke:none"
         id="path172" /><path
         d="m 229.098,133.848 c 1.136,-0.047 1.269,-1.27 1.5,-2.121 l -1.403,0.312 -0.097,1.809"
         style="fill:#fbfcfb;fill-opacity:1;fill-rule:nonzero;stroke:none"
         id="path174" /><path
         d="m 250.145,117.375 c 7.062,3.121 12.351,9.32 15.07,16.473 2.351,-0.09 4.656,-0.18 6.965,-0.137 l 1.312,-0.539 c -2.215,-3.942 -4.976,-7.563 -8.144,-10.817 -1.989,-1.316 -3.938,-2.667 -5.832,-4.16 -2.625,-2.039 -6.43,-2.539 -9.371,-0.82"
         style="fill:#376dbe;fill-opacity:1;fill-rule:nonzero;stroke:none"
         id="path176" /><path
         d="m 238.695,132.668 1.172,-0.859 -0.043,-1.95 c -0.219,-1.078 -0.449,-2.121 -0.586,-3.254 h -0.453 c -0.047,2.043 -0.09,4.032 -0.09,6.063"
         style="fill:#dd7b48;fill-opacity:1;fill-rule:nonzero;stroke:none"
         id="path178" /><path
         d="m 244.266,132.355 c 1.129,-0.675 2.211,-1.316 3.3,-1.996 l -0.5,-2.488 c -1.851,0.777 -2.761,2.488 -2.8,4.484"
         style="fill:#376dbe;fill-opacity:1;fill-rule:nonzero;stroke:none"
         id="path180" /><path
         d="m 240.645,131.535 c 0.812,-1.758 0.949,-3.707 1.125,-5.648 l -1.352,0.043 c 0.039,1.898 0.09,3.75 0.227,5.605"
         style="fill:#376dbe;fill-opacity:1;fill-rule:nonzero;stroke:none"
         id="path182" /><path
         d="m 255.527,130.359 c 1.364,0.5 2.129,-1.671 0.633,-1.988 -1.312,-0.453 -2.035,1.668 -0.633,1.988"
         style="fill:#131110;fill-opacity:1;fill-rule:nonzero;stroke:none"
         id="path184" /><path
         d="m 201.727,127.199 c 1.175,1.621 3.847,1.449 5.386,0.582 l -0.14,-0.316 c -1.489,0 -3.438,0.816 -4.567,-0.547 -1.59,-1.852 -2.625,-4.109 -3.664,-6.328 -0.863,-1.68 0.903,-3.125 1.813,-4.344 l 1.308,-1.355 c 1.18,0.945 2.399,1.765 3.621,2.617 1.539,0 2.981,-0.539 4.293,-1.352 0.321,2.489 -0.039,5.02 0.5,7.504 l 0.317,-0.672 c 0.363,-4.48 -0.227,-9.004 -1.672,-13.261 1.402,-0.723 2.801,-1.403 4.211,-2.079 1.219,-0.589 2.484,-1.089 3.793,-1.539 0.957,2.895 1.179,6.02 2.039,8.957 0.59,-2.98 -0.723,-6.199 -1.399,-9.136 14.297,-5.121 30.493,-5.164 44.793,0 -0.812,2.847 -1.492,5.797 -1.761,8.769 l 0.543,0.508 c 0.406,-3.121 0.949,-6.152 1.851,-9.141 1.449,0.539 2.899,1.122 4.297,1.809 1.27,0.582 2.492,1.219 3.719,1.852 -1.539,4.343 -2.043,8.961 -1.68,13.531 l 0.633,0.73 c -0.09,-2.718 -0.18,-5.39 0.141,-8.062 1.355,0.953 2.847,1.945 4.57,1.359 1.035,-0.629 1.988,-1.316 2.98,-1.988 l 0.411,-0.406 c 1.359,1.398 2.898,2.847 3.347,4.797 -0.812,2.527 -2.172,4.882 -3.711,7.007 -0.812,1.133 -2.261,1.043 -3.48,0.907 l -1.817,-0.176 c 1.047,1.355 3.129,0.945 4.575,0.762 2.035,-1.36 2.941,-3.75 4.07,-5.833 1.453,-3.667 4.844,-6.289 5.844,-10.179 3.207,-0.867 4.519,-4.988 2.668,-7.699 -2.625,-4.383 -4.168,-9.7231 -8.149,-13.0786 -4.972,-0.582 -9.59,2.5352 -13.48,5.3477 -17.696,-7.3789 -38.242,-7.3789 -55.934,0 -3.433,-2.6797 -7.422,-5.0313 -11.851,-5.5234 -1.36,-0.2735 -2.54,0.6328 -3.258,1.7148 -2.805,3.7109 -4.571,8.0585 -6.793,12.1285 -1.442,2.672 0,6.289 2.941,7.11 0.77,3.121 3.129,5.422 4.75,8.051 1.27,2.359 2.266,4.882 3.942,6.972"
         style="fill:#12110f;fill-opacity:1;fill-rule:nonzero;stroke:none"
         id="path186" /><path
         d="m 229.238,128.102 c 1.719,0.316 2.035,-2.536 0.317,-2.715 -1.672,-0.188 -1.989,2.578 -0.317,2.715"
         style="fill:#12100e;fill-opacity:1;fill-rule:nonzero;stroke:none"
         id="path188" /><path
         d="m 202.406,126.918 c 1.129,1.363 3.078,0.547 4.567,0.547 -2.078,-3.754 -3.797,-7.777 -6.418,-11.219 -0.91,1.219 -2.676,2.664 -1.813,4.344 1.039,2.219 2.074,4.476 3.664,6.328"
         style="fill:#e0b9ab;fill-opacity:1;fill-rule:nonzero;stroke:none"
         id="path190" /><path
         d="m 207.113,127.781 c 0.762,-1.176 1.582,-2.261 2.399,-3.39 -1.676,-2.036 -2.946,-4.434 -4.028,-6.883 -1.222,-0.852 -2.441,-1.672 -3.621,-2.617 l -1.308,1.355 c 2.621,3.442 4.34,7.465 6.418,11.219 l 0.14,0.316"
         style="fill:#d09378;fill-opacity:1;fill-rule:nonzero;stroke:none"
         id="path192" /><path
         d="m 274.219,127.602 c 1.219,0.136 2.668,0.226 3.48,-0.907 -0.769,-3.797 0.453,-7.605 -0.047,-11.398 -0.992,0.672 -1.945,1.359 -2.98,1.988 -0.41,3.434 -0.496,6.883 -0.453,10.317"
         style="fill:#cf9177;fill-opacity:1;fill-rule:nonzero;stroke:none"
         id="path194" /><path
         d="m 269.961,123.988 c 0.906,1.078 1.676,2.258 2.441,3.438 l 1.817,0.176 c -0.043,-3.434 0.043,-6.883 0.453,-10.317 -1.723,0.586 -3.215,-0.406 -4.57,-1.359 -0.321,2.672 -0.231,5.344 -0.141,8.062"
         style="fill:#e8c5b8;fill-opacity:1;fill-rule:nonzero;stroke:none"
         id="path196" /><path
         d="m 249.965,126.965 c 1.402,0.953 2.262,-1.766 0.855,-2.078 -1.222,-0.317 -1.625,1.402 -0.855,2.078"
         style="fill:#1c1613;fill-opacity:1;fill-rule:nonzero;stroke:none"
         id="path198" /><path
         d="m 277.699,126.695 c 1.539,-2.125 2.899,-4.48 3.711,-7.007 -0.449,-1.95 -1.988,-3.399 -3.347,-4.797 l -0.411,0.406 c 0.5,3.793 -0.722,7.601 0.047,11.398"
         style="fill:#be6c4a;fill-opacity:1;fill-rule:nonzero;stroke:none"
         id="path200" /><path
         d="m 235.117,124.977 c 1.317,0.953 2.582,-1.45 1.137,-2.032 -1.27,-0.73 -2.309,1.309 -1.137,2.032"
         style="fill:#131110;fill-opacity:1;fill-rule:nonzero;stroke:none"
         id="path202" /><path
         d="m 243.309,124.438 c 1.406,0.402 1.949,-1.993 0.546,-2.313 -1.496,-0.449 -2.039,2.043 -0.546,2.313"
         style="fill:#110f0e;fill-opacity:1;fill-rule:nonzero;stroke:none"
         id="path204" /><path
         d="m 205.484,117.508 c 1.082,2.449 2.352,4.847 4.028,6.883 l 0.765,-0.731 c -0.539,-2.484 -0.179,-5.015 -0.5,-7.504 -1.312,0.813 -2.754,1.352 -4.293,1.352"
         style="fill:#bf6b4b;fill-opacity:1;fill-rule:nonzero;stroke:none"
         id="path206" /><path
         d="m 266.977,120.629 c 0.722,0.91 1.492,1.816 2.351,2.629 -0.363,-4.57 0.141,-9.188 1.68,-13.531 -1.227,-0.633 -2.449,-1.27 -3.719,-1.852 0.231,4.254 -0.633,8.504 -0.312,12.754"
         style="fill:#ddb29f;fill-opacity:1;fill-rule:nonzero;stroke:none"
         id="path208" /><path
         d="m 210.594,122.988 c 1.402,-1.539 2.992,-2.941 4.301,-4.523 -0.77,-3.574 -0.907,-7.246 -1.762,-10.817 -1.41,0.676 -2.809,1.356 -4.211,2.079 1.445,4.257 2.035,8.781 1.672,13.261"
         style="fill:#be6847;fill-opacity:1;fill-rule:nonzero;stroke:none"
         id="path210" /><path
         d="m 261.141,115.207 c 2.218,1.492 3.75,3.758 5.836,5.422 -0.321,-4.25 0.543,-8.5 0.312,-12.754 -1.398,-0.687 -2.848,-1.27 -4.297,-1.809 -0.902,2.989 -1.445,6.02 -1.851,9.141"
         style="fill:#ebcdc1;fill-opacity:1;fill-rule:nonzero;stroke:none"
         id="path212" /><path
         d="m 193.672,112.355 c 1.039,2.262 2.394,4.84 4.207,6.375 6.246,-9.093 17.285,-13.531 27.738,-15.875 l 0.047,-1.046 -0.637,-0.27 c -0.992,0.137 -1.992,0.316 -2.941,0.496 0.32,-1.988 -0.09,-4.1209 -1.129,-5.8827 l 2.039,-0.4531 c -0.047,0.9063 -0.09,1.8086 -0.141,2.6758 l 0.903,-0.2773 c 0.23,-0.9922 0.414,-2.0821 1,-2.9414 l 1.129,-1.8086 c -9.723,1.9492 -19.141,5.789 -27.282,11.4493 0.907,3.437 -0.769,7.918 -4.933,7.558"
         style="fill:#f5e9e4;fill-opacity:1;fill-rule:nonzero;stroke:none"
         id="path214" /><path
         d="m 282.137,118.824 c 1.625,-1.898 3.031,-4.078 3.98,-6.379 -1.719,-0.136 -3.527,-0.769 -4.347,-2.449 -1.082,-1.539 -0.129,-3.48 -0.582,-5.152 -1.86,-1.539 -3.989,-2.676 -6.02,-3.942 l -0.09,0.227 -0.769,1.457 -0.457,-0.328 c -1.805,1 -2.032,3.258 -3.024,4.93 l 0.492,0.328 1.043,-1.047 c 0.266,0.59 0.039,1.808 1.039,1.539 1.086,-1.36 1.946,-2.942 2.258,-4.613 l 1.68,1 c -1.223,1.441 -2.531,2.984 -2.762,4.925 l 2.039,-0.41 -0.59,1.086 -1.089,-0.047 -0.997,0.821 c 3.125,2.214 6.25,4.66 8.196,8.054"
         style="fill:#a83c20;fill-opacity:1;fill-rule:nonzero;stroke:none"
         id="path216" /><path
         d="m 213.133,107.648 c 0.855,3.571 0.992,7.243 1.762,10.817 1.359,-1.137 2.621,-2.36 4.07,-3.399 -0.86,-2.937 -1.082,-6.062 -2.039,-8.957 -1.309,0.45 -2.574,0.95 -3.793,1.539"
         style="fill:#b2502c;fill-opacity:1;fill-rule:nonzero;stroke:none"
         id="path218" /><path
         d="m 202.453,114.344 c 1.809,2.261 5.242,3.394 7.235,0.722 -0.36,-1.668 -0.86,-3.3 -1.403,-4.933 -2.082,1.222 -4.023,2.625 -5.832,4.211"
         style="fill:#ffffff;fill-opacity:1;fill-rule:nonzero;stroke:none"
         id="path220" /><path
         d="m 270.238,115.02 c 2.032,2.718 5.422,1.585 7.239,-0.633 -1.77,-1.629 -3.758,-3.032 -5.84,-4.254 -0.547,1.633 -1.039,3.265 -1.399,4.887"
         style="fill:#ffffff;fill-opacity:1;fill-rule:nonzero;stroke:none"
         id="path222" /><path
         d="m 205.484,114.656 c 1.172,0.364 2.309,-0.039 1.942,-1.441 l -1.942,1.441"
         style="fill:#25275a;fill-opacity:1;fill-rule:nonzero;stroke:none"
         id="path224" /><path
         d="m 272.496,113.215 c -0.406,1.402 0.774,1.851 1.945,1.441 l -1.945,-1.441"
         style="fill:#25275a;fill-opacity:1;fill-rule:nonzero;stroke:none"
         id="path226" /><path
         d="m 190.371,108.688 c 0.543,2.488 3.57,3.351 5.742,2.578 -1.086,-3.438 -1.449,-7.059 -2.988,-10.321 -1.172,2.45 -3.621,4.844 -2.754,7.743"
         style="fill:#dbab95;fill-opacity:1;fill-rule:nonzero;stroke:none"
         id="path228" /><path
         d="m 283.539,111.176 c 0.902,0.23 1.809,0.359 2.762,0.453 0.457,-3.395 0.09,-6.832 0.633,-10.184 -0.364,-1.441 -1.266,-2.7106 -1.993,-3.9802 l -0.632,1.9024 c -0.227,3.8478 0.589,8.0118 -0.68,11.6718 l -0.09,0.137"
         style="fill:#c5795e;fill-opacity:1;fill-rule:nonzero;stroke:none"
         id="path230" /><path
         d="m 286.301,111.629 c 2.441,-0.5 3.89,-3.035 3.258,-5.383 -0.68,-1.676 -1.496,-3.348 -2.625,-4.801 -0.543,3.352 -0.176,6.789 -0.633,10.184"
         style="fill:#b4512d;fill-opacity:1;fill-rule:nonzero;stroke:none"
         id="path232" /><path
         d="m 196.113,111.266 c 3.668,-2.809 0.5,-7.918 2.672,-11.5394 -1.719,0.2774 -3.531,-0.3203 -3.89,-2.2188 -0.59,1.1367 -1.36,2.2188 -1.77,3.4372 1.539,3.262 1.902,6.883 2.988,10.321"
         style="fill:#c88268;fill-opacity:1;fill-rule:nonzero;stroke:none"
         id="path234" /><path
         d="m 263.539,105.559 c 3.617,1.32 7.149,3.086 10.402,5.211 l 0.997,-0.821 c -1.172,-0.855 -2.391,-1.625 -3.618,-2.433 l -0.492,-0.328 -1.32,-0.942 1.32,-2.219 c -1.68,-1.312 -3.129,-0.5 -2.719,1.582 l -1.812,-0.949 c 1.133,-1.633 2.129,-3.394 2.488,-5.3866 l 1.813,0.9996 c -1.762,1.082 -1.899,2.942 0.312,3.481 0.688,-0.809 1,-1.766 1.137,-2.809 l 1.805,1.313 0.457,0.328 0.769,-1.457 c -3.301,-2.1251 -6.969,-3.6212 -10.637,-4.9337 l -0.543,1.4922 c 1.082,0.2773 2.172,0.5977 3.211,1.0898 -0.132,0.9493 -0.179,1.8987 -0.222,2.8087 l -1.856,-0.457 1.176,-2.3048 c -2.488,-1.3164 -4.66,2.3948 -2.801,4.2028 0.856,0.911 1.895,-0.039 2.754,-0.441 l -0.492,1.621 -2.082,-0.269 -0.047,1.445 v 0.176"
         style="fill:#b25430;fill-opacity:1;fill-rule:nonzero;stroke:none"
         id="path236" /><path
         d="m 280.867,99.5469 c 2.625,3.4801 -0.769,8.6481 2.762,11.4921 1.269,-3.66 0.453,-7.824 0.68,-11.6718 -1.133,0.3203 -2.309,0.4101 -3.442,0.1797"
         style="fill:#d6a891;fill-opacity:1;fill-rule:nonzero;stroke:none"
         id="path238" /><path
         d="m 274.938,109.949 1.089,0.047 0.59,-1.086 -2.039,0.41 c 0.231,-1.941 1.539,-3.484 2.762,-4.925 l -1.68,-1 c -0.312,1.671 -1.172,3.253 -2.258,4.613 -1,0.269 -0.773,-0.949 -1.039,-1.539 l -1.043,1.047 c 1.227,0.808 2.446,1.578 3.618,2.433"
         style="fill:#11100e;fill-opacity:1;fill-rule:nonzero;stroke:none"
         id="path240" /><path
         d="m 205.305,109.457 c 0.992,-0.59 2.121,-1.18 2.89,-2.121 1.543,-1.863 -0.5,-5.301 -2.89,-4.672 -1.09,0.41 -1.992,1.223 -2.989,1.863 1.672,0.672 2.125,2.618 3.118,3.93 l -0.129,1"
         style="fill:#11100e;fill-opacity:1;fill-rule:nonzero;stroke:none"
         id="path242" /><path
         d="m 203.895,103.844 c 0.91,1.492 1.632,3.125 2.949,4.351 2.304,-1.769 -0.41,-6.16 -2.949,-4.351"
         style="fill:#f2dfd8;fill-opacity:1;fill-rule:nonzero;stroke:none"
         id="path244" /><path
         d="m 269.508,106.246 1.32,0.942 c 0.992,-1.672 1.219,-3.93 3.024,-4.93 l -1.805,-1.313 c -0.137,1.043 -0.449,2 -1.137,2.809 -2.211,-0.539 -2.074,-2.399 -0.312,-3.481 l -1.813,-0.9996 c -0.359,1.9926 -1.355,3.7536 -2.488,5.3866 l 1.812,0.949 c -0.41,-2.082 1.039,-2.894 2.719,-1.582 l -1.32,2.219"
         style="fill:#141110;fill-opacity:1;fill-rule:nonzero;stroke:none"
         id="path246" /><path
         d="m 210.457,106.426 c 1.227,-0.59 2.445,-1.227 3.668,-1.809 l -0.953,-1.402 -0.129,1.355 -1.449,0.586 c -0.867,-1.269 -0.5,-2.761 1.172,-1.808 l -1.043,-1.942 -1.039,1.539 -0.996,-2.136 1.406,-0.715 1.449,0.715 -0.637,-1.6723 c -1.222,0.5899 -2.394,1.1793 -3.621,1.7653 1,1.684 2.309,3.442 2.172,5.524"
         style="fill:#131110;fill-opacity:1;fill-rule:nonzero;stroke:none"
         id="path248" /><path
         d="m 247.789,101.855 c 5.387,0.54 10.59,1.899 15.75,3.528 l 0.047,-1.445 c -2.945,-1.083 -2.535,-5.3403 0.312,-6.2505 l 0.543,-1.4922 c -5.203,-1.8086 -10.543,-3.2109 -15.972,-3.8437 l -0.133,1.7148 1.984,0.2774 0.051,1.4023 c -0.773,-0.6758 -1.676,-1.2227 -2.762,-1.2695 v 2.582 l 1.719,-0.8125 -0.312,2.0391 c -1.09,-1.8125 -2.086,-0.2383 -1.817,1.2187 0.906,-0.0976 1.817,-0.2773 2.672,-0.5 l -0.273,1.0001 -0.903,0.043 -0.906,1.808"
         style="fill:#c27354;fill-opacity:1;fill-rule:nonzero;stroke:none"
         id="path250" /><path
         d="m 263.586,103.938 2.082,0.269 0.492,-1.621 c -0.859,0.402 -1.898,1.352 -2.754,0.441 -1.859,-1.808 0.313,-5.5192 2.801,-4.2028 l -1.176,2.3048 1.856,0.457 c 0.043,-0.91 0.09,-1.8594 0.222,-2.8087 -1.039,-0.4921 -2.129,-0.8125 -3.211,-1.0898 -2.847,0.9102 -3.257,5.1675 -0.312,6.2505"
         style="fill:#131110;fill-opacity:1;fill-rule:nonzero;stroke:none"
         id="path252" /><path
         d="m 198.605,103.977 c 1.086,-0.903 2.801,-1.313 3.391,-2.661 -2.215,-0.957 -3.844,0.27 -3.391,2.661"
         style="fill:#ffffff;fill-opacity:1;fill-rule:nonzero;stroke:none"
         id="path254" /><path
         d="m 214.352,102.754 c 0.496,2.312 5.023,1 3.261,-1.215 l -0.597,1.629 c -2.481,0.586 -0.989,-2.082 0,-2.941 0.683,-2.4497 -2.578,-2.6723 -3.973,-1.4028 l 0.629,1.8518 0.5,-1.8518 1.672,0.1797 c 0.32,1.4921 -1.946,2.2151 -1.492,3.7501"
         style="fill:#131110;fill-opacity:1;fill-rule:nonzero;stroke:none"
         id="path256" /><path
         d="m 277.93,101.316 c 0.582,1.348 2.308,1.758 3.39,2.661 0.496,-2.391 -1.179,-3.618 -3.39,-2.661"
         style="fill:#ffffff;fill-opacity:1;fill-rule:nonzero;stroke:none"
         id="path258" /><path
         d="m 218.785,103.027 2.172,-0.632 c -1.039,-1.719 -2.082,-3.7973 -1.492,-5.8794 l -2.129,0.7227 c 1,1.6758 2.129,3.8007 1.449,5.7887"
         style="fill:#131110;fill-opacity:1;fill-rule:nonzero;stroke:none"
         id="path260" /><path
         d="m 225.617,102.855 c 7.289,-1.41 14.801,-1.859 22.172,-1 l 0.906,-1.808 c -1.808,-0.09 -3.621,-0.2697 -5.429,-0.2697 l 0.363,-2.582 -2.445,-0.0469 0.41,2.6289 -1.906,-0.0507 c 0.589,-1.9493 0.73,-4.0703 0.046,-6.0196 l 1.86,0.0469 c -0.137,0.9024 -0.274,1.8555 -0.41,2.8125 h 2.492 c -0.141,-0.957 -0.227,-1.8633 -0.367,-2.8125 l 1.949,0.043 c -0.723,1.8125 -0.59,3.7578 -0.5,5.6601 l 1.402,-0.1328 c 0.184,-1.8164 0.59,-3.7148 -0.09,-5.4765 l 2.266,0.2187 0.133,-1.7148 c -7.512,-0.8164 -15.203,-0.7266 -22.582,0.9961 l -1.129,1.8086 1.039,0.0507 c -0.449,0.9883 -0.77,1.9883 -1.039,3.0274 1.308,0.7695 1.496,2.3516 0.269,3.3046 l 0.637,0.27 -0.047,1.046"
         style="fill:#d39b86;fill-opacity:1;fill-rule:nonzero;stroke:none"
         id="path262" /><path
         d="m 258.156,101.898 2.078,0.641 c -0.586,-2.043 0.543,-4.082 1.403,-5.8906 l -2.121,-0.5859 c 0.625,2.0352 -0.547,4.0745 -1.36,5.8355"
         style="fill:#131110;fill-opacity:1;fill-rule:nonzero;stroke:none"
         id="path264" /><path
         d="m 222.086,102.035 c 0.949,-0.18 1.949,-0.359 2.941,-0.496 1.227,-0.953 1.039,-2.5351 -0.269,-3.3046 0.269,-1.0391 0.59,-2.0391 1.039,-3.0274 l -1.039,-0.0507 c -0.586,0.8593 -0.77,1.9492 -1,2.9414 l -0.903,0.2773 c 0.051,-0.8672 0.094,-1.7695 0.141,-2.6758 l -2.039,0.4531 c 1.039,1.7618 1.449,3.8947 1.129,5.8827"
         style="fill:#131110;fill-opacity:1;fill-rule:nonzero;stroke:none"
         id="path266" /><path
         d="m 199.555,100.273 c 1.261,0.133 2.488,0.403 3.668,0.813 l 2.304,-1.3594 c -0.363,-2.1289 -0.586,-4.293 -0.91,-6.4297 v -0.2227 c -1.941,-0.5859 -4.113,-1.6758 -6.105,-0.8984 -1.578,1.5781 -3.848,3.8867 -2.489,6.2422 1.09,-1.5899 1.899,-3.3477 2.942,-4.9844 2.219,1.2695 2.262,4.9414 0.59,6.8394"
         style="fill:#d09379;fill-opacity:1;fill-rule:nonzero;stroke:none"
         id="path268" /><path
         d="m 223.625,101.316 c 1.133,-0.32 1.449,-1.359 0.949,-2.359 l -1.488,-0.1328 0.539,2.4918"
         style="fill:#ddb29f;fill-opacity:1;fill-rule:nonzero;stroke:none"
         id="path270" /><path
         d="m 252.316,100.676 c 1.45,0.183 3.122,1 4.481,0.09 l -0.367,-2.4808 c 0.726,-1 1.547,-1.9102 2.539,-2.586 -2.27,-0.9961 -2.582,1.9453 -4.391,2.168 0,-0.9414 0.27,-1.8516 0.817,-2.6133 l -2.125,-0.4101 c 0.406,1.9453 0.316,4.25 -0.954,5.8322"
         style="fill:#11100e;fill-opacity:1;fill-rule:nonzero;stroke:none"
         id="path272" /><path
         d="m 276.707,101.086 c 1.18,-0.41 2.352,-0.68 3.531,-0.859 -1.765,-2.1293 -0.91,-4.7036 -0.047,-6.9731 l 0.047,-1.3984 c -4.121,0.4961 -7.968,2.4414 -11.273,4.9336 1.945,1.8945 5.387,2.5781 7.742,4.2969"
         style="fill:#cc886f;fill-opacity:1;fill-rule:nonzero;stroke:none"
         id="path274" /><path
         d="m 227.336,100.723 c 1.312,-0.047 2.629,-0.09 3.891,-0.184 v -1.2656 c -0.68,0.5469 -1.45,1.0426 -2.399,0.8636 l -0.043,-2.1722 1.672,0.9493 v -2.3086 l -1.719,0.9922 -0.09,-2.3907 c 1.09,-0.1836 2.086,0.1368 2.719,1.0391 l -0.047,-1.5898 c -1.492,0.0468 -2.945,0.1406 -4.386,0.1406 1.304,1.5312 1.039,4.1172 0.402,5.9261"
         style="fill:#11100e;fill-opacity:1;fill-rule:nonzero;stroke:none"
         id="path276" /><path
         d="m 254.078,100.633 c 1.402,0.226 2.219,-0.7658 1.676,-2.0783 l -1.313,-0.2695 -0.363,2.3478"
         style="fill:#bf6b4b;fill-opacity:1;fill-rule:nonzero;stroke:none"
         id="path278" /><path
         d="m 243.266,99.7773 c 1.808,0 3.621,0.1797 5.429,0.2697 l 0.903,-0.043 0.273,-1.0001 c -0.855,0.2227 -1.766,0.4024 -2.672,0.5 -0.269,-1.457 0.727,-3.0312 1.817,-1.2187 l 0.312,-2.0391 -1.719,0.8125 v -2.582 c 1.086,0.0468 1.989,0.5937 2.762,1.2695 l -0.051,-1.4023 -1.984,-0.2774 -2.266,-0.2187 c 0.68,1.7617 0.274,3.6601 0.09,5.4765 l -1.402,0.1328 c -0.09,-1.9023 -0.223,-3.8476 0.5,-5.6601 l -1.949,-0.043 c 0.14,0.9492 0.226,1.8555 0.367,2.8125 h -2.492 c 0.136,-0.957 0.273,-1.9101 0.41,-2.8125 l -1.86,-0.0469 c 0.684,1.9493 0.543,4.0703 -0.046,6.0196 l 1.906,0.0507 -0.41,-2.6289 2.445,0.0469 -0.363,2.582"
         style="fill:#110f0e;fill-opacity:1;fill-rule:nonzero;stroke:none"
         id="path280" /><path
         d="m 205.527,99.7266 c 1.856,-0.9024 3.758,-1.7618 5.567,-2.711 -1.899,-1.539 -4.028,-3.0312 -6.477,-3.7187 0.324,2.1367 0.547,4.3008 0.91,6.4297"
         style="fill:#c3765a;fill-opacity:1;fill-rule:nonzero;stroke:none"
         id="path282" /><path
         d="m 234.527,99.7773 c 1.59,0.043 3.129,0.043 4.711,0 l -0.043,-1.7734 -0.906,1.2227 h -0.863 c 0,-1.5391 0,-3.0743 0,-4.6524 l 0.812,-0.6797 c -0.949,0 -1.851,0 -2.8,-0.0468 1.585,1.3593 0.632,3.7968 0.859,5.6093 l -1.77,-1.2734 v 1.5937"
         style="fill:#131110;fill-opacity:1;fill-rule:nonzero;stroke:none"
         id="path284" /><path
         d="m 196.793,99.0039 c 2.988,0.6836 4.344,-2.4883 2.441,-4.5703 -0.902,1.4492 -1.941,2.8945 -2.441,4.5703"
         style="fill:#d09781;fill-opacity:1;fill-rule:nonzero;stroke:none"
         id="path286" /><path
         d="m 280.688,94.4336 c -1.946,2.1328 -0.317,5.4727 2.664,4.5234 -0.805,-1.539 -1.664,-3.0742 -2.664,-4.5234"
         style="fill:#dba896;fill-opacity:1;fill-rule:nonzero;stroke:none"
         id="path288" /><path
         d="m 280.191,93.2539 c 2.129,0.8125 2.036,3.8516 4.028,4.8438 0.359,-2.5743 -1.492,-5.5196 -3.981,-6.2422 l -0.047,1.3984"
         style="fill:#b75e3b;fill-opacity:1;fill-rule:nonzero;stroke:none"
         id="path290" /></g></g></svg>
