<?xml version="1.0" encoding="UTF-8" standalone="no"?>
<svg
   xmlns:dc="http://purl.org/dc/elements/1.1/"
   xmlns:cc="http://creativecommons.org/ns#"
   xmlns:rdf="http://www.w3.org/1999/02/22-rdf-syntax-ns#"
   xmlns:svg="http://www.w3.org/2000/svg"
   xmlns="http://www.w3.org/2000/svg"
   version="1.1"
   id="svg2"
   xml:space="preserve"
   width="42.666668"
   height="42.666668"
   viewBox="0 0 42.666668 42.666668"><metadata
     id="metadata8"><rdf:RDF><cc:Work
         rdf:about=""><dc:format>image/svg+xml</dc:format><dc:type
           rdf:resource="http://purl.org/dc/dcmitype/StillImage" /></cc:Work></rdf:RDF></metadata><defs
     id="defs6" /><g
     id="g10"
     transform="matrix(1.3333333,0,0,-1.3333333,0,42.666667)"><g
       id="g12"
       transform="scale(0.1)"><path
         d="M 159.984,0.0078125 C 248.121,0.0078125 320,71.875 320,159.988 320,248.125 248.121,319.992 159.984,319.992 71.8516,319.992 0,248.125 0,159.988 0,71.875 71.8516,0.0078125 159.984,0.0078125"
         style="fill:#5684cc;fill-opacity:1;fill-rule:evenodd;stroke:none"
         id="path14" /><path
         d="m 142.785,159.152 h 13.555 l 4.234,13.551 4.235,-13.551 h 13.554 l -10.168,-7.625 3.391,-13.55 -11.012,8.468 -11.011,-8.468 4.234,13.55 -11.012,7.625"
         style="fill:#ffffff;fill-opacity:1;fill-rule:nonzero;stroke:none"
         id="path16" /><path
         d="m 153.289,132.047 c 0,-3.387 0.348,-6.129 1.594,-8.531 3.488,-6.715 -4.254,-19.36 -9.219,-32.1254 h 29.649 c -4.958,12.7424 -13.551,25.4104 -9.516,32.0544 1.094,1.797 1.711,5.246 1.891,8.602 h -14.399"
         style="fill:#ffffff;fill-opacity:1;fill-rule:nonzero;stroke:none"
         id="path18" /><path
         d="m 164.141,187.953 h 13.554 l 4.235,13.551 4.234,-13.551 h 13.555 l -10.168,-7.625 3.39,-13.551 -11.011,8.469 -11.012,-8.469 4.234,13.551 -11.011,7.625"
         style="fill:#ffffff;fill-opacity:1;fill-rule:nonzero;stroke:none"
         id="path20" /><path
         d="m 120.238,187.953 h 13.555 l 4.234,13.551 4.235,-13.551 h 13.554 l -10.164,-7.625 3.387,-13.551 -11.012,8.469 -11.011,-8.469 4.234,13.551 -11.012,7.625"
         style="fill:#ffffff;fill-opacity:1;fill-rule:nonzero;stroke:none"
         id="path22" /><path
         d="m 142.422,215.059 h 13.555 l 4.234,13.554 4.234,-13.554 H 178 l -10.164,-7.625 3.387,-13.551 -11.012,8.469 -11.012,-8.469 4.235,13.551 -11.012,7.625"
         style="fill:#ffffff;fill-opacity:1;fill-rule:nonzero;stroke:none"
         id="path24" /><path
         d="m 137.215,112.438 0.695,4.171 c -14.808,17.676 -36.551,43.981 -46.6952,67.086 1.25,-12.867 17.9022,-35.14 27.3162,-47.297 6.266,-8.093 12.758,-16.121 18.684,-23.96 v 0"
         style="fill:#ffffff;fill-opacity:1;fill-rule:nonzero;stroke:none"
         id="path26" /><path
         d="m 104.773,135.844 c 4.582,2.98 9.629,1.906 13.868,1.058 l 3.386,-4.004 c -5.554,-2.011 -13.515,-1.695 -17.254,2.946"
         style="fill:#ffffff;fill-opacity:1;fill-rule:nonzero;stroke:none"
         id="path28" /><path
         d="m 97.3945,145.941 c 4.5855,2.985 8.8205,2.137 13.0545,1.289 l 3.391,-4.234 c -5.559,-2.012 -12.707,-1.695 -16.4455,2.945 v 0"
         style="fill:#ffffff;fill-opacity:1;fill-rule:nonzero;stroke:none"
         id="path30" /><path
         d="m 90.8047,156.238 c 4.7539,2.703 8.9336,1.606 13.1093,0.504 l 3.125,-4.429 c -5.664,-1.672 -12.7812,-0.926 -16.2343,3.925 v 0"
         style="fill:#ffffff;fill-opacity:1;fill-rule:nonzero;stroke:none"
         id="path32" /><path
         d="m 84.4609,168.148 c 5.0274,2.153 9.0547,0.59 13.0821,-0.968 l 2.609,-4.758 c -5.8161,-1.024 -12.8082,0.516 -15.6911,5.726 v 0"
         style="fill:#ffffff;fill-opacity:1;fill-rule:nonzero;stroke:none"
         id="path34" /><path
         d="m 80.0039,182.309 c 5.4375,0.621 9.6563,-2.028 13.0664,-4.676 l 2.0664,-5.305 C 89.2656,173.016 81.2695,176.492 80,182.313 l 0.0039,-0.004"
         style="fill:#ffffff;fill-opacity:1;fill-rule:nonzero;stroke:none"
         id="path36" /><path
         d="m 88.9063,201.098 c 4.6289,-5.914 6.0507,-12.336 2.5976,-19.137 -5.4492,4.336 -6.5547,14.684 -2.5976,19.137 v 0"
         style="fill:#ffffff;fill-opacity:1;fill-rule:nonzero;stroke:none"
         id="path38" /><path
         d="m 123.348,152.809 c -3.852,-3.883 -3.649,-9.825 -3.676,-14.145 l 2.883,-4.059 c 3.093,5.032 4.582,13.606 0.793,18.204 v 0"
         style="fill:#ffffff;fill-opacity:1;fill-rule:nonzero;stroke:none"
         id="path40" /><path
         d="m 115.844,161.797 c -3.852,-3.887 -3.774,-9.434 -2.926,-13.668 l 2.363,-4.219 c 3.094,5.035 4.34,13.293 0.555,17.895 l 0.008,-0.008"
         style="fill:#ffffff;fill-opacity:1;fill-rule:nonzero;stroke:none"
         id="path42" /><path
         d="m 108.543,171.418 c -3.852,-3.883 -3.879,-8.203 -3.906,-12.523 l 3.461,-4.172 c 3.093,5.031 4.23,12.097 0.445,16.695 v 0"
         style="fill:#ffffff;fill-opacity:1;fill-rule:nonzero;stroke:none"
         id="path44" /><path
         d="m 104.613,180.723 c -4.543,-3.051 -5.0778,-8.481 -5.9528,-12.707 l 2.2268,-3.578 c 4.023,4.324 6.531,11.031 3.726,16.285 v 0"
         style="fill:#ffffff;fill-opacity:1;fill-rule:nonzero;stroke:none"
         id="path46" /><path
         d="m 99.5977,190.121 c -4.5352,-3.058 -5.4063,-7.285 -6.2774,-11.519 l 2.582,-4.77 c 4.0157,4.332 6.5117,11.039 3.6954,16.289 v 0"
         style="fill:#ffffff;fill-opacity:1;fill-rule:nonzero;stroke:none"
         id="path48" /><path
         d="m 182.785,112.559 -0.695,4.171 c 14.808,17.672 36.551,43.981 46.695,67.083 -1.25,-12.868 -17.906,-35.137 -27.316,-47.297 -6.266,-8.09 -12.758,-16.118 -18.684,-23.957 v 0"
         style="fill:#ffffff;fill-opacity:1;fill-rule:nonzero;stroke:none"
         id="path50" /><path
         d="m 215.227,135.961 c -4.582,2.98 -9.629,1.906 -13.868,1.059 l -3.386,-4.004 c 5.554,-2.008 13.515,-1.692 17.254,2.945"
         style="fill:#ffffff;fill-opacity:1;fill-rule:nonzero;stroke:none"
         id="path52" /><path
         d="m 222.605,146.059 c -4.585,2.984 -8.82,2.136 -13.054,1.289 l -3.391,-4.235 c 5.559,-2.008 12.707,-1.691 16.445,2.946 v 0"
         style="fill:#ffffff;fill-opacity:1;fill-rule:nonzero;stroke:none"
         id="path54" /><path
         d="m 229.195,156.359 c -4.757,2.704 -8.933,1.602 -13.109,0.5 l -3.125,-4.429 c 5.664,-1.672 12.781,-0.926 16.234,3.929 v 0"
         style="fill:#ffffff;fill-opacity:1;fill-rule:nonzero;stroke:none"
         id="path56" /><path
         d="m 235.539,168.27 c -5.027,2.152 -9.055,0.589 -13.082,-0.973 l -2.609,-4.754 c 5.816,-1.027 12.808,0.512 15.691,5.727 v 0"
         style="fill:#ffffff;fill-opacity:1;fill-rule:nonzero;stroke:none"
         id="path58" /><path
         d="m 239.996,182.43 c -5.437,0.621 -9.656,-2.032 -13.066,-4.68 l -2.067,-5.305 c 5.871,0.688 13.867,4.168 15.137,9.989 l -0.004,-0.004"
         style="fill:#ffffff;fill-opacity:1;fill-rule:nonzero;stroke:none"
         id="path60" /><path
         d="m 231.094,201.219 c -4.629,-5.918 -6.047,-12.34 -2.598,-19.141 5.449,4.336 6.555,14.688 2.598,19.141 v 0"
         style="fill:#ffffff;fill-opacity:1;fill-rule:nonzero;stroke:none"
         id="path62" /><path
         d="m 196.652,152.93 c 3.852,-3.887 3.649,-9.828 3.676,-14.149 l -2.883,-4.058 c -3.093,5.035 -4.582,13.605 -0.793,18.207 v 0"
         style="fill:#ffffff;fill-opacity:1;fill-rule:nonzero;stroke:none"
         id="path64" /><path
         d="m 204.156,161.914 c 3.852,-3.883 4.117,-9.43 3.27,-13.668 l -2.711,-4.215 c -3.094,5.032 -4.344,13.293 -0.559,17.895 v -0.012"
         style="fill:#ffffff;fill-opacity:1;fill-rule:nonzero;stroke:none"
         id="path66" /><path
         d="m 211.457,171.539 c 3.852,-3.887 3.879,-8.203 3.906,-12.523 l -3.461,-4.176 c -3.093,5.031 -4.23,12.098 -0.445,16.699 v 0"
         style="fill:#ffffff;fill-opacity:1;fill-rule:nonzero;stroke:none"
         id="path68" /><path
         d="m 215.387,180.84 c 4.543,-3.051 5.418,-7.281 6.297,-11.508 l -2.571,-4.777 c -4.023,4.328 -6.531,11.031 -3.726,16.285 v 0"
         style="fill:#ffffff;fill-opacity:1;fill-rule:nonzero;stroke:none"
         id="path70" /><path
         d="m 220.402,190.242 c 4.536,-3.058 4.895,-8.66 5.762,-12.89 l -2.066,-3.403 c -4.016,4.336 -6.512,11.043 -3.696,16.293 v 0"
         style="fill:#ffffff;fill-opacity:1;fill-rule:nonzero;stroke:none"
         id="path72" /></g></g></svg>
