<?xml version="1.0" encoding="UTF-8" standalone="no"?>
<svg
   xmlns:dc="http://purl.org/dc/elements/1.1/"
   xmlns:cc="http://creativecommons.org/ns#"
   xmlns:rdf="http://www.w3.org/1999/02/22-rdf-syntax-ns#"
   xmlns:svg="http://www.w3.org/2000/svg"
   xmlns="http://www.w3.org/2000/svg"
   version="1.1"
   id="svg2"
   xml:space="preserve"
   width="42.666668"
   height="42.666668"
   viewBox="0 0 42.666668 42.666668"><metadata
     id="metadata8"><rdf:RDF><cc:Work
         rdf:about=""><dc:format>image/svg+xml</dc:format><dc:type
           rdf:resource="http://purl.org/dc/dcmitype/StillImage" /></cc:Work></rdf:RDF></metadata><defs
     id="defs6" /><g
     id="g10"
     transform="matrix(1.3333333,0,0,-1.3333333,0,42.666667)"><g
       id="g12"
       transform="scale(0.1)"><path
         d="M 159.988,-0.0117188 C 248.129,-0.0117188 320,71.8633 320,160 320,248.117 248.129,320.012 159.988,320.012 71.8516,320.012 0,248.117 0,160 0,71.8633 71.8516,-0.0117188 159.988,-0.0117188"
         style="fill:#2c419e;fill-opacity:1;fill-rule:evenodd;stroke:none"
         id="path14" /><path
         d="m 153.98,226.195 h 4.344 l 1.36,4.348 1.355,-4.348 h 4.348 l -3.258,-2.445 1.086,-4.344 -3.531,2.715 -3.532,-2.715 1.36,4.344 -3.532,2.445"
         style="fill:#ffffff;fill-opacity:1;fill-rule:nonzero;stroke:none"
         id="path16" /><path
         d="m 138.598,221.52 h 4.347 l 1.356,4.343 1.359,-4.343 h 4.348 l -3.262,-2.446 1.086,-4.344 -3.531,2.715 -3.531,-2.715 1.359,4.344 -3.531,2.446"
         style="fill:#ffffff;fill-opacity:1;fill-rule:nonzero;stroke:none"
         id="path18" /><path
         d="m 128.746,209.57 h 4.344 l 1.359,4.344 1.356,-4.344 h 4.347 l -3.257,-2.445 1.085,-4.344 -3.531,2.715 -3.531,-2.715 1.355,4.344 -3.527,2.445"
         style="fill:#ffffff;fill-opacity:1;fill-rule:nonzero;stroke:none"
         id="path20" /><path
         d="m 125.789,194.297 h 4.344 l 1.359,4.344 1.36,-4.344 h 4.343 l -3.257,-2.445 1.085,-4.344 -3.531,2.715 -3.531,-2.715 1.359,4.344 -3.531,2.445"
         style="fill:#ffffff;fill-opacity:1;fill-rule:nonzero;stroke:none"
         id="path22" /><path
         d="m 130.961,179.023 h 4.348 l 1.355,4.344 1.359,-4.344 h 4.348 l -3.262,-2.445 1.086,-4.348 -3.531,2.719 -3.527,-2.719 1.355,4.348 -3.531,2.445"
         style="fill:#ffffff;fill-opacity:1;fill-rule:nonzero;stroke:none"
         id="path24" /><path
         d="m 144.512,169.539 h 4.343 l 1.36,4.344 1.359,-4.344 h 4.344 l -3.258,-2.445 1.086,-4.348 -3.531,2.719 -3.531,-2.719 1.359,4.348 -3.531,2.445"
         style="fill:#ffffff;fill-opacity:1;fill-rule:nonzero;stroke:none"
         id="path26" /><path
         d="m 163.355,169.785 h 4.348 l 1.36,4.344 1.355,-4.344 h 4.348 l -3.262,-2.445 1.09,-4.348 -3.531,2.719 -3.532,-2.719 1.356,4.348 -3.532,2.445"
         style="fill:#ffffff;fill-opacity:1;fill-rule:nonzero;stroke:none"
         id="path28" /><path
         d="m 177.031,178.652 h 4.344 l 1.359,4.348 1.36,-4.348 h 4.344 l -3.258,-2.441 1.086,-4.348 -3.532,2.715 -3.531,-2.715 1.36,4.348 -3.532,2.441"
         style="fill:#ffffff;fill-opacity:1;fill-rule:nonzero;stroke:none"
         id="path30" /><path
         d="m 181.711,193.926 h 4.348 l 1.355,4.347 1.359,-4.347 h 4.344 l -3.258,-2.442 1.086,-4.347 -3.531,2.715 -3.531,-2.715 1.359,4.347 -3.531,2.442"
         style="fill:#ffffff;fill-opacity:1;fill-rule:nonzero;stroke:none"
         id="path32" /><path
         d="m 180.109,209.816 h 4.348 l 1.356,4.348 1.359,-4.348 h 4.348 l -3.262,-2.445 1.086,-4.344 -3.531,2.715 -3.532,-2.715 1.36,4.344 -3.532,2.445"
         style="fill:#ffffff;fill-opacity:1;fill-rule:nonzero;stroke:none"
         id="path34" /><path
         d="m 169.887,221.148 h 4.343 l 1.36,4.348 1.359,-4.348 h 4.344 l -3.258,-2.441 1.086,-4.348 -3.531,2.715 -3.531,-2.715 1.359,4.348 -3.531,2.441"
         style="fill:#ffffff;fill-opacity:1;fill-rule:nonzero;stroke:none"
         id="path36" /><path
         d="M 132.297,228.402 C 130.129,227.684 119.828,219.313 114.246,215 l -2.461,4.129 -3.082,-2.895 -1.723,2.895 c -3.867,-1.957 -6,-9.293 -8.8706,-13.738 l -1.9336,2.777 -1.1445,-6.594 -3.4141,2.281 c -0.2891,-5.117 1.0234,-13.601 -0.7734,-16.199 -0.9375,-0.777 -3.0313,3.598 -4.4844,5.41 -0.7031,-9.058 1.2304,-16.98 1.5273,-21.546 -1.1601,0.007 -2.7773,2.296 -4.4844,5.054 1.0899,-4.828 3.9219,-13.074 3.0079,-15.894 -1.043,-0.098 -2.9493,1.828 -4.5352,4.476 1.5742,-4.426 4.2031,-11.168 4.1641,-12.359 -1.2305,-1.535 -3.7227,0.937 -4.9571,2.172 0.8477,-4.141 5.9844,-8.098 5.8203,-10.672 -0.9296,-0.899 -3.5976,0.433 -5.0781,0.644 2.6875,-5.812 7.6992,-9.703 11.4844,-12.222 0.1836,-1.156 -3.5039,-1.024 -4.9844,-1.625 4.6406,-5.461 13.5388,-10.797 19.3008,-14.02 l -3.508,-2.34 c 10.649,-5.855 22.969,-11.179 37.477,-12.074 -14.574,-5.367 -28.867,-12.3319 -31.785,-19.367 6.441,1 14.461,3.4922 22.929,2.9726 5.996,5.9883 9.203,13.5977 28.075,13.6836 14.488,0.0668 21.195,-7.2383 26.851,-14.3515 5.563,1.1718 14.504,-1.0508 21.672,-2.5508 -1.813,8.3086 -19.309,14.1328 -30.91,19.8591 11.308,0.832 22.785,2.895 36.855,11.914 -3.129,-0.086 -3.937,0.469 -3.922,1.957 5.508,2.836 15.567,8.688 18.25,14.352 -1.629,-0.453 -3.093,0.285 -3.644,1.449 4.922,3.254 10.055,6.582 11.648,11.942 -1.73,-0.778 -4.148,-1.582 -4.867,-0.102 2.164,3.223 6.508,6.777 6.152,11.512 -1.234,-1.957 -3.933,-3.93 -5.168,-3.137 1.008,2.859 3.618,7.422 3.958,11.398 -0.938,-3 -3.094,-3.515 -4.571,-3.265 -0.023,2.496 1.192,8.078 2.848,14.488 -1.09,-1.539 -3.051,-4.035 -4.695,-3.894 0.82,6.16 1.957,12.578 1.722,21.371 -1.437,-2.649 -2.875,-4.43 -4.312,-4.868 -1.219,1.403 0.285,10.336 -0.985,15.954 -0.734,-2.438 -2.047,-3.051 -3.324,-2.774 l -1.023,7.223 -2.391,-3.664 c -2.91,7.558 -5.805,12.453 -8.465,14.664 l -1.672,-3.442 -3.465,3.02 -2.57,-4.004 c -7.215,7.605 -12.121,9.766 -17.258,13.23 1.211,-3.863 7.844,-10.359 11.715,-15.449 -1.89,0.157 -5.039,1.074 -6.926,0.211 2.786,-2.629 6.27,-5.465 10.622,-8.094 l -3.723,-0.863 c 3.137,-3.578 8.066,-6.98 9.637,-11.086 l -4.43,0.828 c 2.191,-3.379 5.539,-5.718 8.23,-11.109 -0.843,-1.016 -2.617,-1.32 -5.062,0.332 3.285,-5.93 5.551,-12.203 6.062,-17.027 l -3.14,2.617 c 0.39,-6.215 2.035,-14.496 1.91,-18.629 -1.109,-0.547 -2.219,2.012 -3.324,4.266 -0.364,-7.004 -1.746,-11.082 -3.203,-13.137 l -1.45,2.785 c -0.691,-5.504 -2.121,-8.984 -3.328,-11.902 l -1.601,5.129 c -1.641,-4.442 -3.125,-11.489 -5.293,-12.766 l -2.465,3.637 c -1.695,-3.356 -3.195,-8.371 -5.414,-10.164 l -1.602,3.082 c -6.215,-7.868 -10.179,-15.668 -24.023,-16.262 -15.207,0.351 -19.832,9.812 -26.371,17.148 l -1.344,-4.214 -4.926,9.484 -3.082,-2.832 -4.801,13.801 -1.726,-5.547 -3.285,10.015 -1.52,-0.902 -3.324,12.273 -3.203,-3.894 1.617,18.379 -2.727,-1.996 5.61,16.867 -4.746,-0.484 c 3.039,1.687 5.484,6.953 7.984,11.886 l -4.781,-2.035 c 2.426,3.481 5.582,7.039 10.129,11.051 l -1.508,1.762 c 0.816,3.07 6.695,5.187 9.305,8.808 l -7.457,-1.172 c 3.597,4.86 11.703,12.598 11.765,15.375 h -0.031"
         style="fill:#226c33;fill-opacity:1;fill-rule:nonzero;stroke:none"
         id="path38" /><path
         d="m 191.285,87.0156 c 4.738,0 10.61,-1.2617 15.785,-2.3711 0.188,-0.0429 0.375,-0.082 0.559,-0.1211 -2.809,5.2657 -12.801,9.7383 -21.719,13.7305 -2.828,1.2617 -5.5,2.4611 -7.969,3.6761 -0.437,0.218 -0.679,0.703 -0.586,1.183 0.094,0.485 0.5,0.844 0.989,0.879 11.39,0.836 21.594,2.926 33.664,10.086 -0.414,0.152 -0.742,0.363 -1.008,0.633 -0.5,0.504 -0.738,1.18 -0.73,2.074 0.003,0.403 0.23,0.774 0.589,0.957 4.039,2.082 13.164,7.156 16.821,12.27 -1.192,0.273 -2.2,1.039 -2.7,2.101 -0.23,0.492 -0.066,1.075 0.383,1.375 l 0.227,0.149 c 3.961,2.617 8.031,5.308 10.078,9.039 -0.496,-0.117 -0.945,-0.172 -1.355,-0.172 -1.606,0 -2.286,0.898 -2.547,1.437 -0.168,0.348 -0.141,0.762 0.078,1.082 0.57,0.86 1.265,1.707 2.004,2.602 1.316,1.605 2.664,3.246 3.402,5.031 -0.941,-0.676 -1.957,-1.133 -2.848,-1.133 -0.472,0 -0.894,0.122 -1.261,0.356 -0.422,0.273 -0.606,0.805 -0.438,1.277 0.313,0.887 0.77,1.918 1.25,3.008 0.535,1.215 1.137,2.578 1.633,3.961 -0.723,-0.285 -1.387,-0.344 -1.813,-0.344 -0.281,0 -0.562,0.024 -0.839,0.071 -0.52,0.086 -0.903,0.535 -0.907,1.062 -0.015,1.852 0.594,5.371 1.817,10.496 -0.86,-0.668 -1.664,-0.988 -2.442,-0.988 v 0 c -0.078,0 -0.152,0.004 -0.226,0.012 -0.297,0.023 -0.571,0.168 -0.758,0.402 -0.188,0.23 -0.27,0.531 -0.23,0.824 0.117,0.883 0.242,1.77 0.367,2.664 0.633,4.531 1.281,9.188 1.371,14.906 -0.981,-1.214 -1.938,-1.949 -2.926,-2.25 -0.41,-0.125 -0.859,0.004 -1.141,0.329 -0.832,0.957 -0.828,2.914 -0.746,6.89 0.043,2.051 0.094,4.438 -0.074,6.621 -0.766,-0.629 -1.562,-0.769 -2.113,-0.769 -0.258,0 -0.524,0.031 -0.789,0.09 -0.446,0.093 -0.782,0.457 -0.844,0.91 l -0.617,4.351 -0.805,-1.238 c -0.226,-0.34 -0.621,-0.527 -1.027,-0.484 -0.406,0.043 -0.754,0.308 -0.903,0.691 -2.882,7.488 -5.343,11.297 -7.121,13.234 l -1.019,-2.097 c -0.149,-0.305 -0.43,-0.524 -0.766,-0.59 -0.332,-0.066 -0.676,0.023 -0.93,0.246 l -2.511,2.191 -1.895,-2.945 c -0.179,-0.281 -0.48,-0.465 -0.812,-0.496 -0.336,-0.035 -0.664,0.094 -0.895,0.336 -5.398,5.695 -9.465,8.273 -13.375,10.711 1.371,-1.887 3.207,-4.02 5.008,-6.113 1.566,-1.821 3.188,-3.7 4.484,-5.407 0.258,-0.343 0.293,-0.804 0.086,-1.183 -0.203,-0.375 -0.617,-0.602 -1.043,-0.563 -0.535,0.043 -1.14,0.141 -1.785,0.246 -0.836,0.133 -1.773,0.282 -2.633,0.317 2.77,-2.434 5.653,-4.547 8.766,-6.426 0.379,-0.23 0.582,-0.668 0.512,-1.105 -0.071,-0.438 -0.399,-0.789 -0.828,-0.891 l -1.883,-0.434 c 0.668,-0.672 1.379,-1.347 2.117,-2.043 2.609,-2.468 5.305,-5.019 6.449,-8.019 0.141,-0.371 0.071,-0.785 -0.179,-1.086 -0.254,-0.305 -0.653,-0.449 -1.04,-0.375 l -1.656,0.309 c 0.375,-0.442 0.766,-0.887 1.164,-1.34 1.758,-1.985 3.746,-4.239 5.473,-7.696 0.191,-0.386 0.141,-0.851 -0.137,-1.183 -0.808,-0.965 -2.101,-1.391 -3.523,-1.16 2.609,-5.27 4.316,-10.512 4.765,-14.719 0.047,-0.442 -0.175,-0.867 -0.566,-1.074 -0.391,-0.211 -0.871,-0.164 -1.211,0.121 l -1.144,0.949 c 0.207,-2.039 0.496,-4.207 0.777,-6.324 0.512,-3.832 0.992,-7.449 0.922,-9.836 -0.016,-0.403 -0.246,-0.766 -0.61,-0.942 -0.25,-0.125 -0.515,-0.187 -0.789,-0.187 v 0 c -0.898,0 -1.597,0.641 -2.246,1.617 -0.656,-5.473 -1.988,-8.406 -3.086,-9.953 -0.218,-0.309 -0.578,-0.484 -0.965,-0.457 -0.332,0.023 -0.636,0.199 -0.824,0.473 -0.781,-3.875 -1.918,-6.622 -2.867,-8.918 -0.176,-0.426 -0.602,-0.692 -1.055,-0.672 -0.457,0.019 -0.855,0.324 -0.992,0.761 l -0.594,1.903 c -0.093,-0.309 -0.191,-0.621 -0.289,-0.938 -1.285,-4.156 -2.496,-8.086 -4.422,-9.215 -0.496,-0.293 -1.132,-0.148 -1.453,0.329 l -1.386,2.043 c -0.223,-0.504 -0.45,-1.032 -0.676,-1.571 -1.215,-2.859 -2.465,-5.812 -4.231,-7.234 -0.254,-0.207 -0.586,-0.289 -0.91,-0.223 -0.316,0.071 -0.59,0.274 -0.742,0.567 l -0.816,1.57 c -0.407,-0.535 -0.809,-1.066 -1.207,-1.59 -5.125,-6.793 -9.965,-13.207 -22.586,-13.746 -13.227,0.301 -18.743,7.125 -24.071,13.723 -0.625,0.769 -1.257,1.554 -1.902,2.324 l -0.75,-2.356 c -0.133,-0.421 -0.508,-0.718 -0.945,-0.757 -0.446,-0.036 -0.856,0.195 -1.059,0.586 l -4.273,8.218 -2.032,-1.867 c -0.269,-0.25 -0.648,-0.348 -1,-0.254 -0.355,0.086 -0.644,0.352 -0.765,0.695 l -3.715,10.68 -0.742,-2.39 c -0.145,-0.454 -0.559,-0.762 -1.035,-0.766 h -0.004 c -0.473,0 -0.891,0.301 -1.039,0.75 l -2.864,8.726 -0.347,-0.21 c -0.293,-0.172 -0.653,-0.2 -0.965,-0.071 -0.317,0.129 -0.555,0.395 -0.645,0.723 l -2.773,10.234 -1.863,-2.261 c -0.301,-0.372 -0.809,-0.5 -1.25,-0.321 -0.446,0.184 -0.715,0.629 -0.676,1.106 l 1.406,15.984 -0.785,-0.574 c -0.383,-0.281 -0.902,-0.281 -1.285,-0.004 -0.383,0.281 -0.539,0.773 -0.391,1.227 l 5.074,15.265 -3.066,-0.312 c -0.516,-0.055 -0.996,0.265 -1.152,0.757 -0.157,0.493 0.058,1.028 0.511,1.278 2.219,1.234 4.246,4.922 6.2,8.769 l -2.043,-0.867 c -0.446,-0.191 -0.965,-0.062 -1.274,0.313 -0.305,0.379 -0.324,0.914 -0.047,1.312 2.496,3.582 5.531,6.945 9.5,10.527 l -0.812,0.954 c -0.231,0.269 -0.317,0.64 -0.223,0.984 0.543,2.051 2.656,3.562 4.899,5.164 0.804,0.578 1.625,1.164 2.378,1.781 l -4.207,-0.664 c -0.437,-0.066 -0.871,0.137 -1.101,0.512 -0.231,0.379 -0.207,0.859 0.055,1.215 1.285,1.73 3.144,3.84 4.941,5.879 1.617,1.836 3.59,4.07 4.957,5.894 -2.949,-2.109 -7.258,-5.5 -10.469,-8.023 -1.539,-1.207 -2.984,-2.344 -4.207,-3.289 -0.246,-0.192 -0.562,-0.266 -0.867,-0.207 -0.305,0.058 -0.574,0.246 -0.73,0.511 l -1.77,2.965 -2.094,-1.968 c -0.238,-0.223 -0.566,-0.333 -0.894,-0.286 -0.328,0.047 -0.617,0.239 -0.785,0.524 l -1.149,1.926 c -1.859,-1.508 -3.371,-4.618 -4.84,-7.633 -0.871,-1.793 -1.773,-3.645 -2.7537,-5.168 -0.1992,-0.305 -0.5351,-0.492 -0.8984,-0.496 -0.3437,-0.02 -0.7031,0.168 -0.9101,0.465 l -0.4219,0.601 -0.6914,-3.984 c -0.0625,-0.364 -0.3086,-0.668 -0.6446,-0.813 -0.3398,-0.144 -0.7304,-0.109 -1.0351,0.094 l -1.7617,1.18 c 0.0078,-1.219 0.0625,-2.547 0.1172,-3.926 0.1835,-4.559 0.3554,-8.867 -1.043,-10.887 -0.0547,-0.082 -0.125,-0.156 -0.1992,-0.219 -0.2696,-0.222 -0.5977,-0.343 -0.9414,-0.343 v 0 c -1.1172,0 -1.9844,1.156 -3.3008,3.222 -0.0625,-4.965 0.5664,-9.453 1.0898,-13.183 0.2656,-1.903 0.4961,-3.539 0.586,-4.922 0.0195,-0.301 -0.086,-0.598 -0.293,-0.82 -0.207,-0.219 -0.5156,-0.348 -0.8008,-0.34 -0.6641,0.004 -1.3203,0.343 -2.0078,0.976 1.1953,-4.445 2.2891,-8.855 1.5742,-11.062 -0.1328,-0.414 -0.5,-0.707 -0.9336,-0.75 -0.5156,-0.047 -1.0781,0.133 -1.6172,0.457 1.5391,-4.231 2.2618,-6.414 2.2344,-7.293 -0.0078,-0.235 -0.0937,-0.461 -0.2383,-0.645 -0.6953,-0.863 -1.8086,-1.086 -2.8984,-0.695 0.4297,-0.625 0.8906,-1.234 1.3281,-1.82 1.4883,-1.989 2.7774,-3.707 2.668,-5.371 -0.0156,-0.274 -0.1367,-0.528 -0.332,-0.715 -0.418,-0.407 -0.9961,-0.614 -1.7188,-0.614 -0.6172,0 -1.2891,0.149 -1.9648,0.336 2.7578,-4.48 6.8945,-7.582 9.9375,-9.613 0.2539,-0.168 0.4257,-0.433 0.4726,-0.734 0.0664,-0.414 -0.0351,-0.832 -0.2851,-1.172 -0.6055,-0.824 -1.9102,-1.016 -3.4219,-1.238 -0.0899,-0.012 -0.1836,-0.028 -0.2774,-0.039 3.6016,-3.684 9.4375,-7.758 17.7576,-12.415 0.332,-0.183 0.543,-0.527 0.559,-0.906 0.012,-0.379 -0.172,-0.738 -0.485,-0.949 l -2.007,-1.34 c 9.047,-4.855 21.019,-10.195 35.437,-11.078 0.516,-0.031 0.938,-0.422 1.012,-0.93 0.074,-0.511 -0.219,-1.004 -0.699,-1.179 -15.821,-5.8246 -26.321,-11.7387 -30.071,-16.8793 1.063,0.2031 2.164,0.4297 3.305,0.6641 4.578,0.9336 9.766,2 15.18,2 0.648,0 1.293,-0.0156 1.922,-0.0469 0.8,0.8203 1.554,1.668 2.343,2.5547 4.821,5.4219 9.801,11.0314 26.153,11.1054 h 0.199 c 14.223,0 21.246,-6.9648 27.101,-14.2538 0.954,0.1523 2.016,0.2304 3.18,0.2304 z m 18.051,-5.0586 c -0.074,0 -0.148,0.0078 -0.223,0.0235 -0.812,0.1718 -1.648,0.3515 -2.5,0.5312 -5.074,1.0899 -10.824,2.3281 -15.328,2.3281 -1.293,0 -2.433,-0.1054 -3.398,-0.3085 -0.403,-0.0821 -0.821,0.0664 -1.078,0.3906 -5.84,7.3437 -12.207,13.9414 -25.805,13.9414 h -0.188 c -15.378,-0.0742 -19.828,-5.0781 -24.535,-10.375 -0.883,-0.9922 -1.797,-2.0195 -2.773,-2.9961 -0.219,-0.2188 -0.524,-0.3359 -0.836,-0.3164 -0.742,0.0469 -1.512,0.0703 -2.285,0.0703 -5.196,0 -10.266,-1.0391 -14.742,-1.957 -1.997,-0.4063 -3.883,-0.793 -5.668,-1.0703 -0.391,-0.0625 -0.782,0.0937 -1.024,0.4023 -0.246,0.3086 -0.301,0.7266 -0.152,1.0898 2.402,5.7891 11.828,11.9414 28.039,18.3091 -13.582,1.742 -24.789,7.109 -33.246,11.757 -0.332,0.184 -0.547,0.528 -0.563,0.911 -0.015,0.378 0.168,0.742 0.485,0.953 l 2.031,1.355 c -8.7384,5 -14.6525,9.391 -18.0548,13.391 -0.2266,0.269 -0.3086,0.625 -0.2266,0.965 0.0821,0.339 0.3242,0.621 0.6485,0.75 0.6601,0.269 1.5273,0.394 2.4453,0.531 0.2656,0.039 0.6054,0.09 0.9336,0.144 -3.5586,2.52 -7.9492,6.282 -10.4571,11.707 -0.1679,0.36 -0.125,0.786 0.1133,1.106 0.2383,0.32 0.625,0.484 1.0274,0.43 0.539,-0.079 1.1484,-0.262 1.7929,-0.454 0.6407,-0.195 1.3516,-0.41 1.8907,-0.468 -0.3477,0.875 -1.2266,2.047 -2.0821,3.191 -1.4453,1.93 -3.082,4.113 -3.5625,6.461 -0.0937,0.473 0.1289,0.949 0.5508,1.176 0.4258,0.23 0.9492,0.152 1.2891,-0.188 0.5312,-0.535 2.0781,-2.082 2.9843,-2.312 -0.3984,1.543 -1.7578,5.246 -2.707,7.828 -0.4531,1.238 -0.9023,2.457 -1.2851,3.535 -0.1875,0.527 0.0546,1.113 0.5586,1.352 0.5078,0.238 1.1132,0.054 1.4023,-0.426 1.0117,-1.688 2,-2.809 2.6914,-3.414 -0.0625,2.359 -1.1719,6.469 -2.0234,9.621 -0.4336,1.601 -0.8438,3.117 -1.1368,4.414 -0.1171,0.516 0.1563,1.047 0.6485,1.246 0.4922,0.203 1.0586,0.02 1.3398,-0.434 0.961,-1.554 1.6836,-2.585 2.2188,-3.265 -0.0938,0.722 -0.1992,1.5 -0.3164,2.324 -0.6172,4.402 -1.461,10.43 -0.9571,16.941 0.0352,0.45 0.336,0.829 0.7618,0.957 0.4296,0.133 0.8945,-0.007 1.1718,-0.359 0.5039,-0.625 1.0352,-1.469 1.5977,-2.359 0.4219,-0.668 1.0391,-1.649 1.5156,-2.258 0.5586,1.926 0.4063,5.633 0.2852,8.703 -0.086,2.117 -0.1758,4.305 -0.0742,6.086 0.0234,0.391 0.25,0.738 0.6015,0.91 0.3477,0.176 0.7656,0.149 1.0899,-0.066 l 2.0234,-1.352 0.8555,4.942 c 0.0781,0.437 0.4062,0.781 0.8398,0.878 0.4297,0.094 0.875,-0.078 1.1289,-0.441 l 0.9688,-1.387 c 0.5976,1.082 1.1797,2.278 1.7812,3.52 1.8437,3.785 3.7497,7.703 6.6677,9.18 0.508,0.257 1.133,0.078 1.426,-0.414 l 1.031,-1.735 2.094,1.969 c 0.238,0.226 0.57,0.332 0.895,0.285 0.328,-0.043 0.617,-0.234 0.785,-0.519 l 1.832,-3.075 c 0.984,0.77 2.078,1.629 3.219,2.528 7.207,5.664 12.441,9.718 14.179,10.297 0.129,0.042 0.27,0.062 0.403,0.054 0.586,-0.031 1.082,-0.527 1.066,-1.117 -0.047,-2.055 -2.734,-5.246 -7.156,-10.262 -1.059,-1.203 -2.141,-2.429 -3.102,-3.574 l 4.692,0.738 c 0.429,0.067 0.863,-0.132 1.093,-0.507 0.231,-0.375 0.215,-0.848 -0.043,-1.207 -1.293,-1.797 -3.214,-3.172 -5.074,-4.5 -1.668,-1.196 -3.258,-2.333 -3.859,-3.461 l 1.082,-1.266 c 0.387,-0.453 0.34,-1.133 -0.11,-1.523 -2.972,-2.625 -5.418,-5.106 -7.496,-7.625 l 1.004,0.429 c 0.418,0.18 0.91,0.074 1.223,-0.258 0.312,-0.336 0.383,-0.828 0.176,-1.238 l -0.633,-1.258 c -1.664,-3.308 -3.266,-6.492 -5.098,-8.715 l 1.406,0.145 c 0.372,0.035 0.731,-0.113 0.961,-0.402 0.235,-0.289 0.301,-0.676 0.184,-1.024 l -4.527,-13.625 c 0.343,0.231 0.785,0.25 1.144,0.047 0.375,-0.211 0.59,-0.617 0.551,-1.043 l -1.305,-14.875 0.965,1.176 c 0.262,0.316 0.676,0.461 1.07,0.375 0.403,-0.086 0.719,-0.387 0.825,-0.781 l 2.953,-10.891 0.285,0.172 c 0.285,0.168 0.629,0.195 0.937,0.082 0.309,-0.117 0.551,-0.367 0.653,-0.68 l 2.222,-6.777 0.711,2.293 c 0.141,0.449 0.555,0.758 1.024,0.765 0.492,0.008 0.89,-0.285 1.047,-0.73 l 4.257,-12.234 1.86,1.711 c 0.25,0.226 0.594,0.328 0.926,0.269 0.336,-0.058 0.621,-0.269 0.777,-0.57 l 3.719,-7.156 0.547,1.714 c 0.117,0.371 0.425,0.653 0.808,0.735 0.383,0.082 0.781,-0.047 1.043,-0.34 1.117,-1.254 2.192,-2.582 3.227,-3.867 5.254,-6.5 10.211,-12.641 22.359,-12.918 11.52,0.496 15.852,6.234 20.867,12.883 0.739,0.976 1.489,1.968 2.274,2.961 0.226,0.292 0.586,0.445 0.957,0.41 0.367,-0.035 0.691,-0.254 0.863,-0.582 l 0.883,-1.696 c 0.969,1.368 1.855,3.457 2.664,5.356 0.492,1.164 1.004,2.371 1.531,3.414 0.176,0.344 0.516,0.57 0.903,0.594 0.386,0.023 0.753,-0.157 0.972,-0.477 l 1.715,-2.531 c 0.984,1.523 1.977,4.734 2.738,7.207 0.45,1.449 0.91,2.949 1.383,4.222 0.16,0.434 0.59,0.723 1.051,0.711 0.465,-0.011 0.871,-0.32 1.012,-0.765 l 0.683,-2.192 c 0.84,2.286 1.656,5.075 2.121,8.778 0.059,0.472 0.418,0.851 0.891,0.937 0.465,0.082 0.937,-0.148 1.156,-0.57 l 0.516,-0.992 c 0.855,1.929 1.793,5.269 2.082,10.894 0.027,0.496 0.383,0.91 0.867,1.012 0.488,0.102 0.98,-0.141 1.199,-0.586 l 0.305,-0.621 c 0.242,-0.5 0.562,-1.16 0.883,-1.746 -0.149,2.027 -0.485,4.531 -0.832,7.137 -0.407,3.07 -0.828,6.242 -1.008,9.043 -0.027,0.433 0.207,0.843 0.594,1.039 0.386,0.199 0.855,0.144 1.191,-0.133 l 0.898,-0.746 c -0.902,4.148 -2.824,9.019 -5.468,13.793 -0.242,0.441 -0.153,0.992 0.218,1.332 0.372,0.34 0.926,0.379 1.344,0.097 1.199,-0.808 2.039,-0.98 2.535,-0.98 0.192,0 0.368,0.023 0.52,0.074 -1.488,2.742 -3.133,4.606 -4.731,6.41 -1.093,1.242 -2.132,2.418 -3.015,3.778 -0.235,0.363 -0.231,0.836 0.012,1.199 0.242,0.359 0.675,0.543 1.101,0.465 l 2.223,-0.414 c -1.231,1.847 -3.102,3.617 -4.922,5.343 -1.215,1.149 -2.473,2.336 -3.527,3.539 -0.254,0.289 -0.336,0.692 -0.219,1.055 0.117,0.363 0.418,0.641 0.793,0.727 l 1.183,0.273 c -3.027,2 -5.851,4.25 -8.586,6.828 -0.261,0.25 -0.382,0.614 -0.324,0.969 0.059,0.359 0.293,0.664 0.621,0.812 0.684,0.313 1.504,0.465 2.508,0.465 0.762,0 1.551,-0.086 2.305,-0.195 -0.867,1.043 -1.793,2.121 -2.699,3.176 -3.399,3.949 -6.61,7.676 -7.489,10.476 -0.14,0.442 0.016,0.922 0.387,1.2 0.371,0.277 0.875,0.289 1.262,0.031 1.133,-0.766 2.242,-1.457 3.414,-2.188 3.863,-2.406 7.847,-4.89 13.062,-10.199 l 1.828,2.848 c 0.172,0.265 0.45,0.445 0.762,0.488 0.317,0.047 0.633,-0.047 0.871,-0.258 l 2.391,-2.082 1.051,2.16 c 0.144,0.301 0.422,0.516 0.75,0.586 0.328,0.071 0.668,-0.011 0.925,-0.226 2.637,-2.192 5.325,-6.61 8.004,-13.145 l 1.243,1.903 c 0.246,0.382 0.703,0.566 1.148,0.468 0.441,-0.097 0.777,-0.461 0.84,-0.91 l 0.89,-6.277 c 0.676,0.265 1.094,1.191 1.336,1.992 0.145,0.473 0.598,0.777 1.082,0.773 0.496,-0.019 0.914,-0.367 1.024,-0.847 0.68,-3.016 0.597,-6.922 0.531,-10.063 -0.027,-1.488 -0.07,-3.371 0.035,-4.511 0.696,0.593 1.598,1.71 2.711,3.765 0.235,0.434 0.731,0.656 1.211,0.539 0.481,-0.113 0.82,-0.535 0.836,-1.027 0.203,-7.633 -0.633,-13.617 -1.371,-18.899 -0.035,-0.273 -0.074,-0.546 -0.113,-0.82 0.597,0.481 1.41,1.332 2.476,2.84 0.305,0.43 0.871,0.578 1.348,0.359 0.476,-0.222 0.726,-0.75 0.594,-1.261 -1.911,-7.395 -2.582,-11.192 -2.758,-13.141 0.859,0.148 1.836,0.746 2.39,2.516 0.165,0.531 0.704,0.851 1.25,0.746 0.543,-0.11 0.922,-0.61 0.875,-1.164 -0.253,-2.977 -1.679,-6.211 -2.828,-8.813 -0.187,-0.422 -0.367,-0.836 -0.539,-1.23 0.864,0.484 1.918,1.418 2.571,2.453 0.25,0.398 0.722,0.594 1.183,0.48 0.453,-0.113 0.789,-0.508 0.824,-0.976 0.297,-3.977 -2.226,-7.055 -4.453,-9.77 -0.441,-0.539 -0.871,-1.058 -1.254,-1.562 0.446,-0.02 1.313,0.125 2.891,0.832 0.391,0.176 0.844,0.105 1.164,-0.172 0.32,-0.281 0.449,-0.723 0.328,-1.129 -1.594,-5.356 -6.316,-8.707 -11.058,-11.856 0.468,-0.273 1.093,-0.347 1.714,-0.175 0.411,0.113 0.852,-0.024 1.125,-0.352 0.274,-0.324 0.332,-0.781 0.153,-1.168 -2.723,-5.742 -12.125,-11.387 -17.989,-14.465 0.172,-0.113 0.672,-0.297 2.094,-0.297 0.176,0 0.36,0.004 0.555,0.008 0.476,0.012 0.926,-0.301 1.07,-0.765 0.145,-0.469 -0.043,-0.977 -0.453,-1.239 -12.187,-7.812 -22.387,-10.566 -33.363,-11.726 1.383,-0.633 2.812,-1.274 4.289,-1.938 10.844,-4.8513 22.055,-9.8669 23.601,-16.9607 0.079,-0.3593 -0.031,-0.7343 -0.289,-0.996 -0.207,-0.211 -0.488,-0.3243 -0.773,-0.3243"
         style="fill:#ffffff;fill-opacity:1;fill-rule:nonzero;stroke:none"
         id="path40" /><path
         d="m 136.59,143.191 c 12.969,-8.988 36.203,-8.988 47.914,0.465 0.883,-18.879 -10.484,-27.886 -23.629,-36.551 -13.746,8.934 -26.453,18.235 -24.285,36.086 v 0"
         style="fill:#a13f1e;fill-opacity:1;fill-rule:nonzero;stroke:none"
         id="path42" /><path
         d="m 137.406,143.039 c 8.942,6.988 29.274,11.535 46.438,0.77 -14.184,-11.172 -32.473,-9.192 -46.438,-0.77"
         style="fill:#ffffff;fill-opacity:1;fill-rule:nonzero;stroke:none"
         id="path44" /><path
         d="m 139.406,143.137 c 6.992,-3.914 14.524,-5.977 21.883,-5.977 7.539,0 14.629,2.258 20.609,6.547 -6.21,3.559 -13.343,5.43 -20.734,5.43 -9.473,0 -17.191,-2.946 -21.758,-6 z m 21.883,-8.157 c -8.262,0 -16.715,2.465 -24.445,7.125 -0.305,0.184 -0.5,0.508 -0.524,0.868 -0.019,0.355 0.133,0.703 0.418,0.922 5.852,4.578 15.211,7.421 24.426,7.421 8.352,0 16.391,-2.277 23.258,-6.586 0.301,-0.187 0.492,-0.507 0.512,-0.863 0.015,-0.355 -0.137,-0.695 -0.414,-0.914 -6.625,-5.215 -14.657,-7.973 -23.231,-7.973"
         style="fill:#a13f1e;fill-opacity:1;fill-rule:nonzero;stroke:none"
         id="path46" /></g></g></svg>
