<?xml version="1.0" encoding="UTF-8" standalone="no"?>
<svg
   xmlns:dc="http://purl.org/dc/elements/1.1/"
   xmlns:cc="http://creativecommons.org/ns#"
   xmlns:rdf="http://www.w3.org/1999/02/22-rdf-syntax-ns#"
   xmlns:svg="http://www.w3.org/2000/svg"
   xmlns="http://www.w3.org/2000/svg"
   version="1.1"
   id="svg2"
   xml:space="preserve"
   width="42.666668"
   height="42.666668"
   viewBox="0 0 42.666668 42.666668"><metadata
     id="metadata8"><rdf:RDF><cc:Work
         rdf:about=""><dc:format>image/svg+xml</dc:format><dc:type
           rdf:resource="http://purl.org/dc/dcmitype/StillImage" /></cc:Work></rdf:RDF></metadata><defs
     id="defs6" /><g
     id="g10"
     transform="matrix(1.3333333,0,0,-1.3333333,0,42.666667)"><g
       id="g12"
       transform="scale(0.1)"><path
         d="M 160.004,0.015625 C 248.133,0.015625 320,71.8828 320,160.012 320,248.121 248.133,319.984 160.004,319.984 71.8945,319.984 0,248.121 0,160.012 0,71.8828 71.8945,0.015625 160.004,0.015625"
         style="fill:#2a3686;fill-opacity:1;fill-rule:evenodd;stroke:none"
         id="path14" /><path
         d="m 157.176,248.859 c 1.297,-1.636 2.605,-3.347 3.949,-4.964 1.98,0.718 3.953,1.46 5.934,2.179 -1.168,-1.773 -2.336,-3.504 -3.504,-5.258 1.281,-1.683 2.625,-3.3 3.902,-4.988 -2.039,0.543 -4.059,1.149 -6.109,1.688 -1.168,-1.754 -2.289,-3.528 -3.496,-5.258 -0.118,2.113 -0.184,4.199 -0.27,6.312 -2.031,0.586 -4.07,1.125 -6.102,1.731 1.961,0.765 3.961,1.461 5.918,2.222 -0.07,2.114 -0.183,4.227 -0.222,6.336"
         style="fill:#ffffff;fill-opacity:1;fill-rule:nonzero;stroke:none"
         id="path16" /><path
         d="m 171.031,241.828 c 0.254,2.086 0.492,4.156 0.789,6.246 1.055,-1.82 2.039,-3.683 3.075,-5.504 2.089,0.36 4.136,0.785 6.226,1.168 -1.414,-1.55 -2.883,-3.078 -4.316,-4.605 0.992,-1.863 2.043,-3.684 3.011,-5.57 -1.906,0.875 -3.796,1.796 -5.726,2.648 -1.442,-1.527 -2.856,-3.078 -4.313,-4.582 0.246,2.09 0.516,4.18 0.762,6.266 -1.906,0.902 -3.816,1.773 -5.703,2.699 2.07,0.426 4.129,0.808 6.195,1.234"
         style="fill:#ffffff;fill-opacity:1;fill-rule:nonzero;stroke:none"
         id="path18" /><path
         d="m 142.566,247.156 c 1.594,-1.375 3.129,-2.836 4.723,-4.226 1.844,1.011 3.641,2.113 5.477,3.121 -0.805,-1.93 -1.707,-3.84 -2.555,-5.774 1.523,-1.437 3.137,-2.808 4.664,-4.246 -2.109,0.18 -4.195,0.449 -6.281,0.653 -0.879,-1.934 -1.707,-3.84 -2.61,-5.75 -0.472,2.043 -0.879,4.109 -1.304,6.156 -2.114,0.246 -4.223,0.469 -6.313,0.695 1.821,1.078 3.668,2.11 5.508,3.192 -0.453,2.043 -0.875,4.109 -1.309,6.179"
         style="fill:#ffffff;fill-opacity:1;fill-rule:nonzero;stroke:none"
         id="path20" /><path
         d="m 186.176,244.949 c 0.742,-1.972 1.367,-4.019 2.16,-5.992 2.09,0.086 4.172,0.129 6.262,0.176 -1.641,-1.328 -3.344,-2.559 -5.004,-3.863 0.695,-2 1.414,-3.977 2.086,-5.954 -1.778,1.145 -3.461,2.403 -5.239,3.547 -1.679,-1.281 -3.32,-2.582 -5.003,-3.82 0.558,2.023 1.21,4.047 1.796,6.07 -1.73,1.211 -3.507,2.356 -5.195,3.59 2.09,0.094 4.199,0.117 6.297,0.184 0.629,2.019 1.207,4.043 1.84,6.062"
         style="fill:#ffffff;fill-opacity:1;fill-rule:nonzero;stroke:none"
         id="path22" /><path
         d="m 133.809,239.695 c 1.632,1.325 3.23,2.696 4.898,4 -0.492,-2.066 -1.082,-4.093 -1.574,-6.113 1.754,-1.168 3.547,-2.269 5.301,-3.457 -2.11,-0.137 -4.219,-0.227 -6.317,-0.383 -0.535,-2.023 -1.054,-4.043 -1.609,-6.066 -0.813,1.929 -1.547,3.887 -2.32,5.84 -2.11,-0.086 -4.223,-0.246 -6.329,-0.336 1.614,1.343 3.274,2.648 4.899,4.043 -0.774,1.953 -1.531,3.91 -2.301,5.863 1.801,-1.102 3.559,-2.27 5.352,-3.391"
         style="fill:#ffffff;fill-opacity:1;fill-rule:nonzero;stroke:none"
         id="path24" /><path
         d="m 196.984,233.809 c 0.957,1.867 1.836,3.796 2.801,5.66 0.406,-2.067 0.742,-4.156 1.102,-6.219 2.07,-0.32 4.16,-0.539 6.222,-0.926 -1.812,-1.008 -3.679,-1.953 -5.527,-2.965 0.34,-2.066 0.746,-4.129 1.086,-6.222 -1.559,1.441 -3.035,2.922 -4.563,4.383 -1.89,-0.969 -3.73,-2 -5.621,-2.969 0.926,1.91 1.864,3.801 2.789,5.707 -1.488,1.484 -3.054,2.898 -4.519,4.402 2.066,-0.265 4.16,-0.582 6.23,-0.851"
         style="fill:#ffffff;fill-opacity:1;fill-rule:nonzero;stroke:none"
         id="path26" /><path
         d="m 121.043,234.305 c 1.402,1.57 2.746,3.187 4.184,4.711 -0.184,-2.086 -0.364,-4.172 -0.586,-6.266 1.91,-0.852 3.867,-1.594 5.75,-2.516 -2.02,-0.511 -4.067,-0.941 -6.086,-1.41 -0.196,-2.117 -0.379,-4.226 -0.586,-6.316 -1.098,1.797 -2.153,3.64 -3.254,5.437 -2.067,-0.449 -4.133,-0.941 -6.203,-1.394 1.394,1.594 2.793,3.172 4.183,4.765 -1.062,1.84 -2.164,3.641 -3.238,5.461 1.957,-0.789 3.867,-1.664 5.836,-2.472"
         style="fill:#ffffff;fill-opacity:1;fill-rule:nonzero;stroke:none"
         id="path28" /><path
         d="m 109.32,226.867 c 1.145,1.797 2.246,3.617 3.371,5.391 0.176,-2.11 0.313,-4.223 0.497,-6.332 2.039,-0.496 4.089,-0.992 6.128,-1.508 -1.953,-0.832 -3.906,-1.594 -5.855,-2.402 0.137,-2.11 0.328,-4.227 0.465,-6.336 -1.395,1.597 -2.719,3.234 -4.106,4.828 -1.98,-0.762 -3.918,-1.617 -5.867,-2.383 1.074,1.824 2.227,3.598 3.305,5.395 -1.356,1.64 -2.742,3.21 -4.051,4.832 2.02,-0.45 4.09,-0.993 6.113,-1.485"
         style="fill:#ffffff;fill-opacity:1;fill-rule:nonzero;stroke:none"
         id="path30" /><path
         d="m 208.637,226.707 c 1.261,1.711 2.453,3.461 3.715,5.168 0.019,-2.133 0.019,-4.27 0.062,-6.379 2.02,-0.605 4.02,-1.234 6.02,-1.91 -2,-0.695 -4,-1.324 -6,-2 0,-2.109 0.05,-4.246 0.05,-6.359 -1.285,1.687 -2.523,3.418 -3.796,5.105 -2,-0.68 -4,-1.352 -6.02,-2 1.211,1.754 2.512,3.434 3.684,5.211 -1.262,1.66 -2.52,3.348 -3.735,5.055 2,-0.629 4.02,-1.258 6.02,-1.891"
         style="fill:#ffffff;fill-opacity:1;fill-rule:nonzero;stroke:none"
         id="path32" /><path
         d="m 99.0313,217.633 c 0.8085,1.953 1.5737,3.91 2.3987,5.844 0.523,-2.047 1.015,-4.114 1.554,-6.157 2.071,-0.16 4.18,-0.293 6.293,-0.472 -1.797,-1.149 -3.597,-2.203 -5.394,-3.348 0.492,-2.047 1.035,-4.09 1.48,-6.133 -1.633,1.324 -3.207,2.738 -4.871,4.043 -1.7772,-1.101 -3.574,-2.222 -5.3709,-3.305 0.8125,1.958 1.625,3.911 2.4062,5.84 -1.5742,1.418 -3.2148,2.723 -4.8125,4.141 2.1133,-0.141 4.2032,-0.316 6.3165,-0.453"
         style="fill:#ffffff;fill-opacity:1;fill-rule:nonzero;stroke:none"
         id="path34" /><path
         d="m 218.945,217.789 c 1.539,1.465 2.973,2.988 4.5,4.449 -0.293,-2.066 -0.632,-4.152 -0.968,-6.222 1.863,-0.989 3.773,-1.911 5.64,-2.899 -2.086,-0.359 -4.176,-0.672 -6.269,-1.012 -0.336,-2.066 -0.625,-4.152 -1.016,-6.218 -0.984,1.859 -1.906,3.746 -2.871,5.593 -2.09,-0.296 -4.18,-0.652 -6.242,-0.968 1.461,1.527 2.988,2.988 4.445,4.492 -0.941,1.887 -1.91,3.754 -2.848,5.641 1.883,-0.922 3.75,-1.887 5.629,-2.856"
         style="fill:#ffffff;fill-opacity:1;fill-rule:nonzero;stroke:none"
         id="path36" /><path
         d="m 90.3672,206.828 c 0.4844,2.024 0.8906,4.09 1.4336,6.133 0.8476,-1.934 1.6601,-3.863 2.4922,-5.797 2.082,0.18 4.1992,0.383 6.266,0.543 -1.5277,-1.418 -3.1371,-2.766 -4.7152,-4.16 0.8046,-1.953 1.6835,-3.859 2.4687,-5.82 -1.8164,1.035 -3.5977,2.136 -5.4336,3.214 -1.5976,-1.371 -3.1484,-2.785 -4.7617,-4.152 0.4492,2.066 0.8945,4.109 1.3867,6.129 -1.793,1.145 -3.6406,2.18 -5.4375,3.305 2.0938,0.222 4.207,0.359 6.3008,0.605"
         style="fill:#ffffff;fill-opacity:1;fill-rule:nonzero;stroke:none"
         id="path38" /><path
         d="m 227.695,207.301 c 1.703,1.234 3.41,2.469 5.137,3.66 -0.644,-2 -1.348,-4 -1.969,-6.02 1.684,-1.261 3.387,-2.496 5.071,-3.753 -2.11,0 -4.219,0.027 -6.336,0.027 -0.672,-2 -1.348,-4 -2.02,-5.981 -0.676,1.981 -1.281,4 -1.902,6 -2.117,0.047 -4.25,0.047 -6.371,0.086 1.711,1.262 3.465,2.453 5.172,3.688 -0.649,2.019 -1.305,4.019 -1.914,6.019 1.738,-1.211 3.398,-2.492 5.132,-3.726"
         style="fill:#ffffff;fill-opacity:1;fill-rule:nonzero;stroke:none"
         id="path40" /><path
         d="m 132.93,207.816 c 3.98,-0.07 7.527,-2.289 10.156,-5.121 4.117,-4.472 6.602,-10.402 6.805,-16.468 2.203,5.347 6.093,10.402 11.621,12.535 2.828,1.125 6.039,0.789 8.687,-0.696 -7.683,0.114 -12.176,-7.863 -12.648,-14.648 4.226,2.406 9.461,1.258 13.551,-0.809 2.988,-1.546 6.132,-4.226 5.863,-7.929 -4.254,5.886 -13.637,7.683 -19.231,2.695 7.993,-2.316 14.938,-11.277 12.379,-19.77 -2.519,7.907 -10.179,12.536 -17.883,14.223 6.114,-5.281 5.282,-17.187 -2.429,-20.535 0.765,2.852 1.847,5.707 1.679,8.719 -0.152,3.211 -1.722,6.129 -3.425,8.781 -0.852,-4.961 0,-10.039 1.386,-14.824 0.45,-1.192 -0.289,-2.336 -0.574,-3.461 0.512,0.133 1.024,0.269 1.547,0.406 2.492,-6.785 6.133,-13.277 11.387,-18.289 10.492,-10.332 24.469,-15.883 38.078,-20.758 -6.852,-0.09 -13.703,0 -20.555,-0.047 -2.922,-0.355 -5.187,1.844 -7.527,3.258 -6.512,4.738 -12.692,10.227 -16.922,17.164 -6.512,10.473 -10.551,23.071 -8.578,35.477 -3.551,-5.352 -6.652,-11.059 -10.957,-15.821 -1.223,7.415 2.488,15.258 8.265,19.907 -4.898,1.461 -10.562,1.461 -14.964,-1.414 -2.832,-1.754 -4.668,-4.7 -5.797,-7.797 -1.391,2.539 -0.672,5.597 0.679,7.972 3.004,5.461 9.047,9.551 15.446,9.079 -5.653,4.316 -13.024,5.664 -19.989,5.39 2.133,2.156 5.211,2.875 8.133,3.301 5.477,0.789 11.594,-0.223 15.793,-4.133 -2.718,8.047 -3.773,17.277 -9.976,23.613"
         style="fill:#ffffff;fill-opacity:1;fill-rule:nonzero;stroke:none"
         id="path42" /><path
         d="m 83.9766,201.035 c 1.1718,-1.754 2.2929,-3.555 3.4648,-5.305 2.0195,0.493 4.043,1.059 6.1133,1.551 -1.3008,-1.64 -2.6758,-3.234 -4,-4.898 1.1211,-1.774 2.2891,-3.547 3.4101,-5.328 -1.996,0.722 -3.9531,1.578 -5.9531,2.25 -1.3008,-1.617 -2.625,-3.235 -3.9687,-4.828 0.082,2.086 0.2187,4.179 0.3593,6.289 -1.9804,0.785 -3.957,1.527 -5.9179,2.336 2.0508,0.539 4.0703,1.078 6.1094,1.593 0.164,2.114 0.25,4.223 0.3828,6.34"
         style="fill:#ffffff;fill-opacity:1;fill-rule:nonzero;stroke:none"
         id="path44" /><path
         d="m 230.117,200.066 c 1.481,-1.503 2.942,-3.031 4.426,-4.539 1.887,0.899 3.777,1.864 5.684,2.743 -0.965,-1.887 -2,-3.731 -2.946,-5.618 1.457,-1.504 2.946,-3.011 4.403,-4.539 -2.11,0.36 -4.172,0.742 -6.27,1.078 -0.984,-1.863 -1.949,-3.73 -2.961,-5.57 -0.336,2.09 -0.586,4.18 -0.926,6.266 -2.082,0.383 -4.152,0.722 -6.242,1.101 1.887,0.942 3.82,1.84 5.711,2.809 -0.269,2.09 -0.605,4.18 -0.879,6.269"
         style="fill:#ffffff;fill-opacity:1;fill-rule:nonzero;stroke:none"
         id="path46" /><path
         d="m 78.2695,187.98 c 1.4493,-1.578 2.836,-3.171 4.3203,-4.718 1.8868,0.875 3.8165,1.75 5.7461,2.582 -1.0351,-1.84 -2.1523,-3.66 -3.1406,-5.528 1.4141,-1.546 2.832,-3.078 4.2266,-4.671 -2.0703,0.406 -4.1211,0.855 -6.1797,1.304 -1.1055,-1.82 -2.0938,-3.683 -3.1953,-5.504 -0.2422,2.086 -0.4453,4.2 -0.668,6.293 -2.0664,0.446 -4.1641,0.871 -6.2266,1.325 1.9297,0.875 3.8594,1.726 5.7969,2.582 -0.207,2.113 -0.4726,4.222 -0.6797,6.335"
         style="fill:#ffffff;fill-opacity:1;fill-rule:nonzero;stroke:none"
         id="path48" /><path
         d="m 235.754,187.98 c 1.234,-1.707 2.383,-3.484 3.621,-5.214 2.02,0.586 4.039,1.214 6.066,1.797 -1.265,-1.684 -2.519,-3.348 -3.824,-4.985 1.121,-1.801 2.379,-3.504 3.555,-5.281 -2,0.676 -3.981,1.441 -6,2.094 -1.258,-1.688 -2.524,-3.375 -3.824,-5.012 0.027,2.113 0.093,4.223 0.136,6.332 -1.972,0.719 -4,1.371 -5.953,2.113 1.996,0.606 4.02,1.211 6.047,1.797 0.086,2.113 0.086,4.246 0.176,6.359"
         style="fill:#ffffff;fill-opacity:1;fill-rule:nonzero;stroke:none"
         id="path50" /><path
         d="m 237.957,168.906 c 0.781,1.934 0.813,4.133 1.367,6.153 0.946,-1.864 1.805,-3.746 2.699,-5.637 2.09,0.203 4.204,0.516 6.29,0.742 -1.504,-1.461 -3.071,-2.875 -4.61,-4.359 0.883,-1.91 1.801,-3.793 2.68,-5.727 -1.867,1.008 -3.715,2.043 -5.551,3.055 -1.551,-1.438 -3.078,-2.895 -4.644,-4.336 0.335,2.043 0.871,4.043 1.093,6.09 -1.547,1.371 -3.703,2.066 -5.457,3.234 2.043,0.289 4.11,0.449 6.133,0.785"
         style="fill:#ffffff;fill-opacity:1;fill-rule:nonzero;stroke:none"
         id="path52" /><path
         d="m 74.8125,174.094 c 1.6641,-1.258 3.2852,-2.602 4.9453,-3.883 1.7774,1.144 3.5039,2.336 5.2852,3.48 -0.7071,-1.972 -1.4688,-3.953 -2.1836,-5.933 1.6601,-1.32 3.3242,-2.602 4.9648,-3.953 -2.0937,0.09 -4.2031,0.179 -6.3086,0.25 -0.7929,-1.957 -1.4687,-3.953 -2.2539,-5.91 -0.5859,2.027 -1.1211,4.066 -1.707,6.089 -2.1094,0.09 -4.2227,0.157 -6.3125,0.293 1.7305,1.164 3.4805,2.313 5.2344,3.481 -0.5391,2.047 -1.1641,4.043 -1.6641,6.086"
         style="fill:#ffffff;fill-opacity:1;fill-rule:nonzero;stroke:none"
         id="path54" /><path
         d="m 238.516,155.941 c 0.765,1.957 1.441,3.957 2.222,5.911 0.586,-2.02 1.149,-4.067 1.711,-6.086 2.117,-0.09 4.219,-0.157 6.321,-0.293 -1.731,-1.168 -3.489,-2.313 -5.239,-3.485 0.532,-2.043 1.168,-4.043 1.66,-6.086 -1.679,1.258 -3.304,2.606 -4.945,3.887 -1.769,-1.148 -3.496,-2.336 -5.277,-3.484 0.695,1.98 1.461,3.957 2.179,5.929 -1.664,1.329 -3.324,2.633 -4.96,3.954 2.101,-0.086 4.222,-0.176 6.328,-0.247"
         style="fill:#ffffff;fill-opacity:1;fill-rule:nonzero;stroke:none"
         id="path56" /><path
         d="m 79.1758,156.867 c 1.5664,1.438 3.0976,2.899 4.6484,4.332 -0.3398,-2.043 -0.875,-4.043 -1.1015,-6.105 1.6132,-1.328 3.6836,-2.071 5.4609,-3.215 -2.0859,-0.27 -4.1563,-0.539 -6.2266,-0.746 -0.5351,-2.039 -0.8086,-4.129 -1.3007,-6.199 -0.918,1.867 -1.7774,3.754 -2.6485,5.64 -2.1133,-0.203 -4.2226,-0.515 -6.3398,-0.738 1.5273,1.457 3.1015,2.875 4.6289,4.355 -0.8985,1.911 -1.7969,3.797 -2.6485,5.727 1.836,-1.012 3.6836,-2.043 5.5274,-3.051"
         style="fill:#ffffff;fill-opacity:1;fill-rule:nonzero;stroke:none"
         id="path58" /><path
         d="m 80.8398,143.613 c 1.2579,1.68 2.5118,3.367 3.8125,5.008 -0.0429,-2.113 -0.0859,-4.226 -0.1328,-6.312 1.9805,-0.746 4,-1.395 5.9571,-2.133 -2,-0.633 -4.0274,-1.215 -6.0469,-1.801 -0.0938,-2.113 -0.0938,-4.246 -0.1797,-6.359 -1.2383,1.73 -2.3867,3.484 -3.5937,5.214 -2.0469,-0.585 -4.0665,-1.214 -6.086,-1.796 1.2539,1.683 2.5352,3.347 3.836,4.988 -1.1446,1.793 -2.418,3.504 -3.5938,5.277 2.0273,-0.672 4,-1.437 6.0273,-2.086"
         style="fill:#ffffff;fill-opacity:1;fill-rule:nonzero;stroke:none"
         id="path60" /><path
         d="m 236.77,143.07 c 1.078,1.797 2.082,3.664 3.187,5.485 0.219,-2.094 0.445,-4.203 0.672,-6.293 2.07,-0.446 4.16,-0.875 6.226,-1.324 -1.933,-0.875 -3.867,-1.731 -5.777,-2.586 0.184,-2.11 0.453,-4.223 0.656,-6.309 -1.445,1.551 -2.832,3.168 -4.293,4.695 -1.929,-0.879 -3.843,-1.754 -5.777,-2.586 1.035,1.844 2.09,3.664 3.149,5.485 -1.368,1.593 -2.833,3.121 -4.223,4.715 2.07,-0.403 4.109,-0.856 6.18,-1.282"
         style="fill:#ffffff;fill-opacity:1;fill-rule:nonzero;stroke:none"
         id="path62" /><path
         d="m 84.6094,130.805 c 0.9648,1.863 1.9297,3.73 2.9453,5.593 0.3398,-2.085 0.582,-4.203 0.9219,-6.289 2.0625,-0.359 4.1523,-0.718 6.2382,-1.101 -1.8867,-0.945 -3.8164,-1.844 -5.7031,-2.785 0.2891,-2.09 0.5821,-4.18 0.8828,-6.27 -1.4882,1.485 -2.9531,3.012 -4.4336,4.516 -1.8867,-0.899 -3.7734,-1.84 -5.6836,-2.739 0.9649,1.887 2,3.731 2.9454,5.614 -1.461,1.508 -2.9454,3.011 -4.4063,4.539 2.1133,-0.332 4.1836,-0.738 6.293,-1.078"
         style="fill:#ffffff;fill-opacity:1;fill-rule:nonzero;stroke:none"
         id="path64" /><path
         d="m 232.988,130.691 c 1.301,1.618 2.629,3.258 3.981,4.852 -0.098,-2.109 -0.25,-4.199 -0.36,-6.289 1.957,-0.809 3.957,-1.527 5.907,-2.356 -2.047,-0.519 -4.067,-1.058 -6.106,-1.574 -0.16,-2.133 -0.254,-4.246 -0.387,-6.355 -1.171,1.769 -2.289,3.547 -3.433,5.324 -2.067,-0.496 -4.098,-1.082 -6.137,-1.574 1.305,1.64 2.68,3.258 3.977,4.898 -1.125,1.797 -2.27,3.547 -3.395,5.324 2,-0.718 3.961,-1.55 5.953,-2.25"
         style="fill:#ffffff;fill-opacity:1;fill-rule:nonzero;stroke:none"
         id="path66" /><path
         d="m 92.4258,124.785 c 0.6758,-2 1.2851,-4.019 1.9297,-6.019 2.1172,-0.047 4.2265,-0.047 6.3395,-0.067 -1.7067,-1.258 -3.4567,-2.453 -5.1716,-3.707 0.6329,-2 1.3047,-4 1.918,-6.023 -1.7305,1.215 -3.3945,2.515 -5.125,3.73 -1.7305,-1.215 -3.4375,-2.445 -5.1484,-3.664 0.6289,2 1.332,4 2,6 -1.6836,1.281 -3.4102,2.492 -5.1016,3.797 2.1172,0 4.2305,-0.047 6.3399,-0.047 0.6757,2 1.3515,4 2.0195,6"
         style="fill:#ffffff;fill-opacity:1;fill-rule:nonzero;stroke:none"
         id="path68" /><path
         d="m 227.133,119.055 c 1.594,1.371 3.137,2.808 4.754,4.156 -0.442,-2.047 -0.918,-4.09 -1.391,-6.133 1.801,-1.144 3.641,-2.18 5.461,-3.281 -2.109,-0.223 -4.223,-0.379 -6.312,-0.606 -0.493,-2.039 -0.918,-4.109 -1.438,-6.132 -0.852,1.91 -1.664,3.867 -2.492,5.773 -2.09,-0.152 -4.176,-0.379 -6.289,-0.535 1.543,1.414 3.164,2.762 4.711,4.176 -0.801,1.929 -1.66,3.863 -2.461,5.797 1.832,-1.036 3.629,-2.133 5.457,-3.215"
         style="fill:#ffffff;fill-opacity:1;fill-rule:nonzero;stroke:none"
         id="path70" /><path
         d="m 98.1367,107.891 c 0.3555,2.089 0.6485,4.16 1.0313,6.222 0.988,-1.84 1.914,-3.73 2.871,-5.593 2.094,0.316 4.184,0.671 6.254,0.968 -1.469,-1.508 -2.996,-2.988 -4.453,-4.496 0.945,-1.887 1.93,-3.75 2.875,-5.6365 -1.91,0.9175 -3.777,1.9105 -5.66,2.8515 -1.5277,-1.461 -2.9652,-2.9882 -4.4964,-4.4453 0.2891,2.086 0.6289,4.1523 0.9961,6.2463 -1.8945,0.965 -3.7734,1.906 -5.6602,2.871 2.0821,0.383 4.1719,0.676 6.2422,1.012"
         style="fill:#ffffff;fill-opacity:1;fill-rule:nonzero;stroke:none"
         id="path72" /><path
         d="m 214.637,112.652 c 1.644,-1.347 3.211,-2.761 4.871,-4.062 1.777,1.121 3.558,2.223 5.355,3.301 -0.785,-1.957 -1.597,-3.891 -2.386,-5.844 1.574,-1.391 3.238,-2.719 4.808,-4.133 -2.113,0.133 -4.199,0.316 -6.316,0.449 -0.805,-1.929 -1.563,-3.9099 -2.399,-5.8435 -0.539,2.0469 -1.011,4.1135 -1.523,6.1605 -2.121,0.156 -4.203,0.293 -6.293,0.468 1.769,1.149 3.598,2.227 5.367,3.372 -0.496,2.046 -1.031,4.066 -1.484,6.132"
         style="fill:#ffffff;fill-opacity:1;fill-rule:nonzero;stroke:none"
         id="path74" /><path
         d="m 107.527,104.77 c 1.278,-1.688 2.512,-3.418 3.817,-5.0981 1.976,0.6721 3.976,1.3671 5.972,1.9961 -1.207,-1.7305 -2.468,-3.4375 -3.66,-5.1914 1.235,-1.6836 2.516,-3.3672 3.75,-5.0743 -2.023,0.625 -4.043,1.2774 -6.043,1.8868 -1.234,-1.7071 -2.445,-3.4336 -3.703,-5.1446 -0.023,2.1328 -0.023,4.2461 -0.094,6.3828 -2,0.5821 -4,1.2344 -6,1.8829 2,0.6953 4,1.3515 6,2 0,2.1368 -0.039,4.2458 -0.039,6.3598"
         style="fill:#ffffff;fill-opacity:1;fill-rule:nonzero;stroke:none"
         id="path76" /><path
         d="m 206.074,104.32 c 1.395,-1.593 2.719,-3.215 4.114,-4.8083 1.957,0.7613 3.91,1.5933 5.863,2.3553 -1.074,-1.793 -2.223,-3.5662 -3.297,-5.3904 1.344,-1.6172 2.734,-3.211 4.07,-4.8282 -2.07,0.4727 -4.097,0.9883 -6.168,1.4805 -1.117,-1.793 -2.203,-3.5937 -3.34,-5.3906 -0.183,2.1172 -0.289,4.2461 -0.496,6.3555 -2.047,0.4765 -4.086,0.9687 -6.132,1.4843 1.929,0.8321 3.91,1.5977 5.835,2.4297 -0.128,2.1092 -0.308,4.1992 -0.449,6.3122"
         style="fill:#ffffff;fill-opacity:1;fill-rule:nonzero;stroke:none"
         id="path78" /><path
         d="m 196.281,97.5117 c 1.102,-1.8203 2.164,-3.6367 3.258,-5.457 2.063,0.4726 4.113,0.9414 6.203,1.3945 -1.39,-1.6015 -2.785,-3.1719 -4.179,-4.7461 1.054,-1.8398 2.179,-3.6367 3.23,-5.4804 -1.949,0.8086 -3.887,1.664 -5.805,2.4726 -1.445,-1.5508 -2.773,-3.168 -4.207,-4.7187 0.157,2.0898 0.379,4.1797 0.582,6.2656 -1.902,0.8594 -3.867,1.5976 -5.73,2.543 2,0.4921 4.047,0.9179 6.07,1.3906 0.199,2.1133 0.379,4.2265 0.578,6.3359"
         style="fill:#ffffff;fill-opacity:1;fill-rule:nonzero;stroke:none"
         id="path80" /><path
         d="m 117.344,96.8594 c 1.547,-1.4141 3.035,-2.918 4.562,-4.3594 1.883,0.9492 3.731,1.9766 5.614,2.9453 -0.899,-1.9101 -1.864,-3.7969 -2.79,-5.6836 1.489,-1.5078 3.059,-2.9219 4.54,-4.4258 -2.106,0.2696 -4.176,0.586 -6.247,0.875 -0.964,-1.8828 -1.839,-3.7968 -2.804,-5.6796 -0.41,2.0664 -0.746,4.1523 -1.106,6.2226 -2.09,0.3125 -4.175,0.5586 -6.246,0.918 1.848,1.0117 3.715,1.957 5.551,2.9648 -0.34,2.0899 -0.742,4.1563 -1.074,6.2227"
         style="fill:#ffffff;fill-opacity:1;fill-rule:nonzero;stroke:none"
         id="path82" /><path
         d="m 183.883,86.2578 c 0.543,2.0195 1.055,4.0664 1.613,6.0899 0.813,-1.9336 1.531,-3.9141 2.301,-5.8672 2.133,0.0937 4.238,0.25 6.375,0.3593 -1.574,-1.3476 -3.254,-2.5625 -4.781,-3.9531 0.355,-2.0664 1.527,-3.9531 2.132,-5.9765 -1.777,1.1015 -3.527,2.2734 -5.324,3.3945 -1.64,-1.3281 -3.234,-2.6758 -4.894,-3.9805 0.492,2.0469 1.07,4.0703 1.59,6.1133 -1.774,1.1445 -3.571,2.2461 -5.321,3.4375 2.086,0.1328 4.192,0.2266 6.309,0.3828"
         style="fill:#ffffff;fill-opacity:1;fill-rule:nonzero;stroke:none"
         id="path84" /><path
         d="m 133.563,87.1563 c 1.679,1.2578 3.324,2.5625 5.007,3.8203 -0.554,-2.0469 -1.211,-4.0469 -1.797,-6.0899 1.754,-1.1914 3.508,-2.3594 5.211,-3.5937 -2.109,-0.0703 -4.222,-0.1094 -6.339,-0.1797 -0.602,-2 -1.188,-4.043 -1.793,-6.0664 -0.719,1.9765 -1.434,3.9297 -2.071,5.9062 -2.125,0.0938 -4.261,-0.0664 -6.379,-0.0664 1.641,1.3047 3.352,2.5625 4.989,3.8672 -0.672,1.9766 -1.391,3.9492 -2.071,5.9492 1.758,-1.1679 3.461,-2.4023 5.243,-3.5468"
         style="fill:#ffffff;fill-opacity:1;fill-rule:nonzero;stroke:none"
         id="path86" /><path
         d="m 171.418,83.3359 c 0.875,1.9063 1.703,3.8399 2.605,5.7305 0.469,-2.043 0.872,-4.1094 1.301,-6.1562 2.114,-0.2461 4.199,-0.4493 6.309,-0.6993 -1.817,-1.0742 -3.66,-2.0859 -5.477,-3.164 0.403,-2.0703 0.856,-4.1367 1.282,-6.1992 -1.598,1.3906 -3.125,2.8281 -4.727,4.2226 -1.836,-1.0156 -3.633,-2.1133 -5.477,-3.125 0.813,1.9336 1.711,3.8399 2.563,5.7735 -1.527,1.4375 -3.125,2.8085 -4.672,4.2695 2.109,-0.2031 4.199,-0.4492 6.293,-0.6524"
         style="fill:#ffffff;fill-opacity:1;fill-rule:nonzero;stroke:none"
         id="path88" /><path
         d="m 145.895,83.7852 c 1.445,1.5273 2.875,3.0781 4.335,4.5859 -0.246,-2.0938 -0.515,-4.1602 -0.789,-6.2461 1.887,-0.9219 3.84,-1.7734 5.735,-2.7227 -2.071,-0.4257 -4.156,-0.7851 -6.207,-1.2304 -0.27,-2.0664 -0.512,-4.1602 -0.781,-6.2461 -1.083,1.8203 -2.028,3.6836 -3.102,5.5039 -2.066,-0.3594 -4.137,-0.7891 -6.199,-1.1719 1.418,1.5742 2.875,3.0781 4.316,4.6094 -0.996,1.8633 -2.07,3.6836 -3.015,5.5703 1.91,-0.8789 3.796,-1.7969 5.707,-2.6523"
         style="fill:#ffffff;fill-opacity:1;fill-rule:nonzero;stroke:none"
         id="path90" /><path
         d="m 158.652,82.5039 c 1.168,1.7539 2.293,3.5039 3.508,5.2344 0.11,-2.0899 0.18,-4.1992 0.27,-6.3086 2.019,-0.5859 4.066,-1.1055 6.09,-1.7344 -1.954,-0.7617 -3.954,-1.4375 -5.915,-2.1992 0.067,-2.1133 0.18,-4.2227 0.231,-6.3359 -1.324,1.6406 -2.606,3.3242 -3.961,4.9648 -1.969,-0.7422 -3.949,-1.4805 -5.926,-2.1992 1.145,1.7734 2.332,3.5039 3.504,5.2578 -1.277,1.6836 -2.633,3.3203 -3.906,4.9844 2.039,-0.5196 4.058,-1.1446 6.105,-1.6641"
         style="fill:#ffffff;fill-opacity:1;fill-rule:nonzero;stroke:none"
         id="path92" /></g></g></svg>
