<?xml version="1.0" encoding="UTF-8" standalone="no"?>
<svg
   xmlns:dc="http://purl.org/dc/elements/1.1/"
   xmlns:cc="http://creativecommons.org/ns#"
   xmlns:rdf="http://www.w3.org/1999/02/22-rdf-syntax-ns#"
   xmlns:svg="http://www.w3.org/2000/svg"
   xmlns="http://www.w3.org/2000/svg"
   version="1.1"
   id="svg2"
   xml:space="preserve"
   width="42.666668"
   height="42.666668"
   viewBox="0 0 42.666668 42.666668"><metadata
     id="metadata8"><rdf:RDF><cc:Work
         rdf:about=""><dc:format>image/svg+xml</dc:format><dc:type
           rdf:resource="http://purl.org/dc/dcmitype/StillImage" /></cc:Work></rdf:RDF></metadata><defs
     id="defs6" /><g
     id="g10"
     transform="matrix(1.3333333,0,0,-1.3333333,0,42.666667)"><g
       id="g12"
       transform="scale(0.1)"><path
         d="m 160,0 c 88.156,0 160,71.8633 160,160 0,88.125 -71.844,160 -160,160 C 71.8945,320 0,248.125 0,160 0,71.8633 71.8945,0 160,0"
         style="fill:#2d66b0;fill-opacity:1;fill-rule:evenodd;stroke:none"
         id="path14" /><path
         d="m 160,244.094 c -46.371,0 -84.0937,-37.723 -84.0937,-84.094 0,-46.371 37.7227,-84.0937 84.0937,-84.0937 46.371,0 84.094,37.7227 84.094,84.0937 0,46.371 -37.723,84.094 -84.094,84.094 z m 0,-174.6565 c -49.937,0 -90.5625,40.6255 -90.5625,90.5625 0,49.938 40.6255,90.563 90.5625,90.563 49.938,0 90.563,-40.625 90.563,-90.563 0,-49.937 -40.625,-90.5625 -90.563,-90.5625"
         style="fill:#ffffff;fill-opacity:1;fill-rule:nonzero;stroke:none"
         id="path16" /><path
         d="m 160,238.098 5.867,-0.75 c 23.903,-3.012 40.848,-16.356 45.297,-37.883 4.113,-19.887 -4.945,-42.5 -25.809,-49.844 -4.89,-1.723 -7.816,-3.359 -9.777,-9.379 -0.773,-2.371 -4.285,-7.304 -8.176,-11.859 -2.183,-2.559 -7.043,-6.887 -7.535,-6.887 -0.496,0 -3.191,3.356 -6.347,6.692 -3.942,4.167 -7.411,9.039 -8.262,12.199 -0.684,2.527 -3.57,5.133 -3.746,5.785 -0.508,1.875 -9.215,6.371 -18.239,8.781 -5.543,1.481 -11.757,2.391 -21.097,2.766 -13.0627,0.519 -12.7424,0.437 -11.3635,-1.239 1.2695,-1.542 1.2813,-1.914 0,-2.73 -2.0156,-1.285 -5.8594,-1.199 -6.6758,0.129 -0.3633,0.598 -0.0859,1.781 0.6133,2.637 1.0313,1.25 -0.0469,2.461 -1.4375,3.484 h 50.8125 c 0,14.289 11.586,25.875 25.875,25.875 v 52.223"
         style="fill:#ffffff;fill-opacity:1;fill-rule:nonzero;stroke:none"
         id="path18" /><path
         d="m 160,179.406 c 10.719,0 19.406,-8.687 19.406,-19.406 0,-10.719 -8.687,-19.406 -19.406,-19.406 -10.719,0 -19.406,8.687 -19.406,19.406 0,10.719 8.687,19.406 19.406,19.406"
         style="fill:#2d66b0;fill-opacity:1;fill-rule:nonzero;stroke:none"
         id="path20" /><path
         d="m 164.113,158.664 6.653,4.832 h -8.223 l -2.543,7.824 -2.543,-7.824 h -8.223 l 6.653,-4.832 -2.539,-7.82 6.652,4.832 6.652,-4.832 -2.539,7.82"
         style="fill:#ffffff;fill-opacity:1;fill-rule:nonzero;stroke:none"
         id="path22" /></g></g></svg>
