<?xml version="1.0" encoding="UTF-8" standalone="no"?>
<svg
   xmlns:dc="http://purl.org/dc/elements/1.1/"
   xmlns:cc="http://creativecommons.org/ns#"
   xmlns:rdf="http://www.w3.org/1999/02/22-rdf-syntax-ns#"
   xmlns:svg="http://www.w3.org/2000/svg"
   xmlns="http://www.w3.org/2000/svg"
   version="1.1"
   id="svg2"
   xml:space="preserve"
   width="42.666668"
   height="42.666668"
   viewBox="0 0 42.666668 42.666668"><metadata
     id="metadata8"><rdf:RDF><cc:Work
         rdf:about=""><dc:format>image/svg+xml</dc:format><dc:type
           rdf:resource="http://purl.org/dc/dcmitype/StillImage" /></cc:Work></rdf:RDF></metadata><defs
     id="defs6" /><g
     id="g10"
     transform="matrix(1.3333333,0,0,-1.3333333,0,42.666667)"><g
       id="g12"
       transform="scale(0.1)"><path
         d="m 160,0.0078125 c 88.133,0 160,71.8671875 160,159.9961875 0,88.121 -71.867,160 -160,160 -88.1055,0 -160,-71.879 -160,-160 C 0,71.875 71.8945,0.0078125 160,0.0078125"
         style="fill:#7eb5e2;fill-opacity:1;fill-rule:evenodd;stroke:none"
         id="path14" /><path
         d="m 159.688,280.063 c 0.152,0 0.445,0 0.628,0 2.25,-6.649 4.137,-13.364 6.559,-19.934 7.262,0 14.43,0.144 21.609,0 -5.675,-4.539 -11.855,-8.395 -17.453,-13.066 2.114,-6.872 4.61,-13.606 6.653,-20.543 -5.977,4.144 -11.704,8.601 -17.684,12.679 -5.977,-4.078 -11.703,-8.535 -17.676,-12.679 2.039,6.937 4.539,13.671 6.645,20.543 -5.59,4.671 -11.797,8.527 -17.457,13.066 7.187,0.144 14.359,0 21.613,0 2.426,6.57 4.316,13.285 6.563,19.934"
         style="fill:#ffffff;fill-opacity:1;fill-rule:nonzero;stroke:none"
         id="path16" /><path
         d="m 60.0781,188.676 c 4.5157,-5.672 8.3555,-11.863 13.0469,-17.453 6.8711,2.121 13.5977,4.613 20.5625,6.648 -4.1836,-5.965 -8.625,-11.707 -12.6953,-17.672 4.0703,-5.961 8.5117,-11.703 12.6953,-17.676 -6.9648,2.043 -13.6914,4.54 -20.5625,6.649 -4.6914,-5.598 -8.5312,-11.781 -13.0469,-17.449 -0.1797,7.179 0,14.347 -0.0898,21.605 -6.5625,2.719 -13.9063,3.918 -20.2461,7.18 6.8125,2.109 13.5976,4.152 20.2461,6.57 0.0898,7.242 -0.0899,14.418 0.0898,21.598"
         style="fill:#ffffff;fill-opacity:1;fill-rule:nonzero;stroke:none"
         id="path18" /><path
         d="m 246.871,171.223 c 4.68,5.59 8.543,11.781 13.078,17.453 0.133,-7.18 0,-14.356 0.071,-21.598 6.644,-2.418 13.457,-4.461 20.238,-6.57 -6.27,-3.262 -13.653,-4.461 -20.238,-7.258 -0.071,-7.18 0.062,-14.348 -0.071,-21.527 -4.535,5.668 -8.398,11.851 -13.078,17.449 -6.867,-2.109 -13.59,-4.606 -20.551,-6.649 4.157,5.973 8.621,11.715 12.688,17.676 -4.067,5.965 -8.531,11.707 -12.688,17.672 6.871,-2.035 13.684,-4.527 20.551,-6.648"
         style="fill:#ffffff;fill-opacity:1;fill-rule:nonzero;stroke:none"
         id="path20" /><path
         d="m 142.324,93.8711 c 5.973,-4.1289 11.699,-8.6016 17.676,-12.668 5.98,4.0664 11.707,8.5391 17.684,12.668 -2.043,-6.9414 -4.539,-13.6563 -6.653,-20.5313 5.598,-4.6757 11.778,-8.539 17.453,-13.0742 -7.179,-0.1367 -14.347,0 -21.609,0 -2.422,-6.7187 -4.441,-13.5039 -6.559,-20.3086 -3.257,6.336 -4.464,13.6836 -7.191,20.3086 -7.254,0 -14.426,-0.1367 -21.613,0 5.66,4.5352 11.867,8.3985 17.457,13.0742 -2.106,6.875 -4.606,13.5899 -6.645,20.5313"
         style="fill:#ffffff;fill-opacity:1;fill-rule:nonzero;stroke:none"
         id="path22" /></g></g></svg>
