<?xml version="1.0" encoding="UTF-8" standalone="no"?>
<svg
   xmlns:dc="http://purl.org/dc/elements/1.1/"
   xmlns:cc="http://creativecommons.org/ns#"
   xmlns:rdf="http://www.w3.org/1999/02/22-rdf-syntax-ns#"
   xmlns:svg="http://www.w3.org/2000/svg"
   xmlns="http://www.w3.org/2000/svg"
   version="1.1"
   id="svg2"
   xml:space="preserve"
   width="42.666668"
   height="42.666668"
   viewBox="0 0 42.666668 42.666668"><metadata
     id="metadata8"><rdf:RDF><cc:Work
         rdf:about=""><dc:format>image/svg+xml</dc:format><dc:type
           rdf:resource="http://purl.org/dc/dcmitype/StillImage" /></cc:Work></rdf:RDF></metadata><defs
     id="defs6" /><g
     id="g10"
     transform="matrix(1.3333333,0,0,-1.3333333,0,42.666667)"><g
       id="g12"
       transform="scale(0.1)"><path
         d="m 0.320313,150.281 c 0.191406,-2.945 0.449218,-5.879 0.789067,-8.777 V 141.5 H 90.1914 V 16.0859 C 101.805,10.4219 114.203,6.11719 127.172,3.39844 V 141.5 h 191.719 v 0.012 c 0.339,2.89 0.597,5.812 0.781,8.75 l 0.047,0.543 c 0.179,3.047 0.281,6.113 0.281,9.203 0,3.097 -0.102,6.164 -0.281,9.211 l -0.043,0.453 c -0.184,2.957 -0.442,5.894 -0.781,8.805 v 0.003 H 127.172 v 138.122 c -12.969,-2.719 -25.367,-7.024 -36.9806,-12.684 V 178.48 H 1.10547 C 0.765625,175.555 0.503906,172.613 0.316406,169.648 L 0.28125,169.223 C 0.101563,166.176 0,163.105 0,160.008 c 0,-3.09 0.101563,-6.16 0.28125,-9.207 l 0.039063,-0.52"
         style="fill:#eb1e38;fill-opacity:1;fill-rule:nonzero;stroke:none"
         id="path14" /><path
         d="M 261.352,141.5 H 127.172 V 3.39844 h 0.004 c 1.894,-0.40235 3.804,-0.74219 5.722,-1.0625 l 0.965,-0.17969 c 2.16,-0.34375 4.328,-0.65234 6.52,-0.92187 v 40.13282 6.8476 80.8942 h 120.969 55.617 c 0.804,4.075 1.433,8.211 1.922,12.391 h -57.539"
         style="fill:#3460b6;fill-opacity:1;fill-rule:nonzero;stroke:none"
         id="path16" /><path
         d="M 316.977,190.859 H 140.383 v 127.907 c -4.449,-0.547 -8.856,-1.246 -13.188,-2.153 l -0.023,-0.035 v -0.371 -10.934 -28.925 -97.871 h 191.719 l -0.336,2.253 h 0.054 c -0.445,3.411 -0.976,6.79 -1.632,10.129"
         style="fill:#3460b6;fill-opacity:1;fill-rule:nonzero;stroke:none"
         id="path18" /><path
         d="M 3.03125,129.109 H 76.9688 V 23.3203 c 4.2695,-2.6133 8.6875,-5.0195 13.207,-7.2265 V 43.6289 141.5 H 1.10938 c 0.48437,-4.18 1.11718,-8.316 1.92187,-12.391"
         style="fill:#3460b6;fill-opacity:1;fill-rule:nonzero;stroke:none"
         id="path20" /><path
         d="M 76.9688,296.684 V 190.859 H 3.02344 C 2.22266,186.785 1.58594,182.652 1.10547,178.477 H 90.1758 v 97.871 27.558 c -4.5195,-2.207 -8.9375,-4.609 -13.207,-7.222"
         style="fill:#3460b6;fill-opacity:1;fill-rule:nonzero;stroke:none"
         id="path22" /><path
         d="M 76.9688,190.875 V 296.684 C 39.3008,273.688 11.8203,235.563 3.02344,190.875 H 76.9688"
         style="fill:#ffffff;fill-opacity:1;fill-rule:evenodd;stroke:none"
         id="path24" /><path
         d="m 140.383,190.875 h 176.59 c -14.457,73.434 -79.418,129.141 -156.977,129.141 -6.644,0 -13.18,-0.457 -19.613,-1.25 V 190.875"
         style="fill:#ffffff;fill-opacity:1;fill-rule:evenodd;stroke:none"
         id="path26" /><path
         d="M 76.9688,129.125 H 3.02734 C 11.8281,84.4375 39.3047,46.3125 76.9688,23.3164 V 129.125"
         style="fill:#ffffff;fill-opacity:1;fill-rule:evenodd;stroke:none"
         id="path28" /><path
         d="M 140.383,129.125 V 1.23438 h -0.004 c 6.434,-0.792974 12.973,-1.250005 19.617,-1.250005 77.555,0 142.512,55.703125 156.977,129.140625 h -176.59"
         style="fill:#ffffff;fill-opacity:1;fill-rule:evenodd;stroke:none"
         id="path30" /></g></g></svg>
