<?xml version="1.0" encoding="UTF-8" standalone="no"?>
<svg
   xmlns:dc="http://purl.org/dc/elements/1.1/"
   xmlns:cc="http://creativecommons.org/ns#"
   xmlns:rdf="http://www.w3.org/1999/02/22-rdf-syntax-ns#"
   xmlns:svg="http://www.w3.org/2000/svg"
   xmlns="http://www.w3.org/2000/svg"
   version="1.1"
   id="svg2"
   xml:space="preserve"
   width="42.666668"
   height="42.666668"
   viewBox="0 0 42.666668 42.666668"><metadata
     id="metadata8"><rdf:RDF><cc:Work
         rdf:about=""><dc:format>image/svg+xml</dc:format><dc:type
           rdf:resource="http://purl.org/dc/dcmitype/StillImage" /></cc:Work></rdf:RDF></metadata><defs
     id="defs6" /><g
     id="g10"
     transform="matrix(1.3333333,0,0,-1.3333333,0,42.666667)"><g
       id="g12"
       transform="scale(0.1)"><path
         d="M 310.523,105.648 H 9.47656 C 3.34375,122.609 0,140.91 0,159.996 0,179.07 3.34375,197.371 9.47656,214.348 H 310.523 C 316.66,197.371 320,179.07 320,159.996 c 0,-19.086 -3.34,-37.387 -9.477,-54.348"
         style="fill:#f7cf0d;fill-opacity:1;fill-rule:evenodd;stroke:none"
         id="path14" /><path
         d="M 9.47656,105.648 H 310.523 C 288.258,44.0508 229.258,-0.00390625 159.996,-0.00390625 90.7109,-0.00390625 31.7188,44.0508 9.47656,105.648"
         style="fill:#486fbf;fill-opacity:1;fill-rule:evenodd;stroke:none"
         id="path16" /><path
         d="M 310.523,214.348 H 9.47656 C 31.7188,275.945 90.7109,320.004 159.996,320.004 c 69.262,0 128.262,-44.059 150.527,-105.656"
         style="fill:#2ea25c;fill-opacity:1;fill-rule:evenodd;stroke:none"
         id="path18" /></g></g></svg>
