<?xml version="1.0" encoding="UTF-8" standalone="no"?>
<svg
   xmlns:dc="http://purl.org/dc/elements/1.1/"
   xmlns:cc="http://creativecommons.org/ns#"
   xmlns:rdf="http://www.w3.org/1999/02/22-rdf-syntax-ns#"
   xmlns:svg="http://www.w3.org/2000/svg"
   xmlns="http://www.w3.org/2000/svg"
   version="1.1"
   id="svg2"
   xml:space="preserve"
   width="42.666668"
   height="42.666668"
   viewBox="0 0 42.666668 42.666668"><metadata
     id="metadata8"><rdf:RDF><cc:Work
         rdf:about=""><dc:format>image/svg+xml</dc:format><dc:type
           rdf:resource="http://purl.org/dc/dcmitype/StillImage" /></cc:Work></rdf:RDF></metadata><defs
     id="defs6" /><g
     id="g10"
     transform="matrix(1.3333333,0,0,-1.3333333,0,42.666667)"><g
       id="g12"
       transform="scale(0.1)"><path
         d="m 183.945,183.766 h 134.278 c -10.368,69.121 -65.2,124.011 -134.278,134.453 V 183.766"
         style="fill:#ffffff;fill-opacity:1;fill-rule:evenodd;stroke:none"
         id="path14" /><path
         d="M 136.055,183.766 V 318.215 C 66.9727,307.773 12.1445,252.887 1.78125,183.766 H 136.055"
         style="fill:#ffffff;fill-opacity:1;fill-rule:evenodd;stroke:none"
         id="path16" /><path
         d="M 183.945,136.234 V 1.78125 C 253.023,12.2266 307.855,67.1172 318.219,136.234 H 183.945"
         style="fill:#ffffff;fill-opacity:1;fill-rule:evenodd;stroke:none"
         id="path18" /><path
         d="M 136.055,136.234 H 1.78125 C 12.1445,67.1211 66.9727,12.2305 136.055,1.78516 V 136.234"
         style="fill:#ffffff;fill-opacity:1;fill-rule:evenodd;stroke:none"
         id="path20" /><path
         d="m 319.395,146.609 0.195,2.532 c 0.246,3.593 0.41,7.207 0.41,10.859 0,3.656 -0.164,7.266 -0.41,10.859 l -0.195,2.536 c -0.29,3.433 -0.653,6.847 -1.157,10.222 l -0.015,0.149 H 183.945 v 0.179 134.274 l -1.019,0.129 c -3.094,0.445 -6.215,0.789 -9.363,1.054 -0.942,0.078 -1.879,0.153 -2.825,0.215 -3.554,0.238 -7.125,0.403 -10.734,0.403 -3.609,0 -7.18,-0.165 -10.731,-0.403 -0.949,-0.062 -1.894,-0.137 -2.839,-0.215 -3.125,-0.265 -6.227,-0.605 -9.297,-1.047 l -1.082,-0.14 v -134.27 -0.179 H 1.78516 C 1.26953,180.332 0.894531,176.855 0.601563,173.355 L 0.410156,170.867 C 0.167969,167.281 0,163.676 0,160.023 V 160 159.977 c 0,-3.649 0.167969,-7.258 0.410156,-10.844 l 0.191407,-2.485 c 0.292968,-3.5 0.667967,-6.98 1.187497,-10.414 H 136.055 V 136.059 1.78516 l 0.484,-0.0625 c 3.313,-0.48828 6.66,-0.851566 10.031,-1.132816 l 2.606,-0.199219 c 3.582,-0.242187 7.183,-0.4101563 10.828,-0.4101563 3.644,0 7.25,0.1679693 10.832,0.4101563 l 2.59,0.199219 c 3.39,0.28125 6.765,0.648436 10.097,1.140626 l 0.422,0.05078 v 134.27775 0.175 h 134.274 l 0.019,0.137 c 0.5,3.379 0.867,6.801 1.157,10.238"
         style="fill:#d01e25;fill-opacity:1;fill-rule:nonzero;stroke:none"
         id="path22" /></g></g></svg>
