<?xml version="1.0" encoding="UTF-8" standalone="no"?>
<svg
   xmlns:dc="http://purl.org/dc/elements/1.1/"
   xmlns:cc="http://creativecommons.org/ns#"
   xmlns:rdf="http://www.w3.org/1999/02/22-rdf-syntax-ns#"
   xmlns:svg="http://www.w3.org/2000/svg"
   xmlns="http://www.w3.org/2000/svg"
   version="1.1"
   id="svg2"
   xml:space="preserve"
   width="42.666668"
   height="42.666668"
   viewBox="0 0 42.666668 42.666668"><metadata
     id="metadata8"><rdf:RDF><cc:Work
         rdf:about=""><dc:format>image/svg+xml</dc:format><dc:type
           rdf:resource="http://purl.org/dc/dcmitype/StillImage" /></cc:Work></rdf:RDF></metadata><defs
     id="defs6" /><g
     id="g10"
     transform="matrix(1.3333333,0,0,-1.3333333,0,42.666667)"><g
       id="g12"
       transform="scale(0.1)"><path
         d="m 160,-0.183594 c 88.125,0 160,71.874994 160,160.007594 0,88.137 -71.875,160.031 -160,160.031 C 71.8789,319.855 0,247.961 0,159.824 0,71.6914 71.8789,-0.183594 160,-0.183594"
         style="fill:#ffffff;fill-opacity:1;fill-rule:evenodd;stroke:none"
         id="path14" /><path
         d="m 320,159.824 c 0,6.973 -0.496,13.828 -1.371,20.578 H 183.941 v 137.657 c -7.812,1.179 -15.804,1.796 -23.941,1.796 -8.133,0 -16.129,-0.617 -23.941,-1.796 V 180.402 H 1.37109 C 0.5,173.652 0,166.797 0,159.824 0,150.508 0.84375,141.398 2.38672,132.52 H 136.059 V 1.61328 c 7.812,-1.183592 15.808,-1.796874 23.941,-1.796874 8.137,0 16.129,0.613282 23.941,1.796874 V 132.52 h 133.672 c 1.543,8.878 2.387,17.988 2.387,27.304"
         style="fill:#cd1e25;fill-opacity:1;fill-rule:nonzero;stroke:none"
         id="path16" /><path
         d="m 160,99.4258 16.348,27.9962 h 32.261 l -16.031,28.293 16.031,28.289 h -32.261 l -16.348,28 -16.344,-28 h -32.265 l 16.031,-28.289 -16.031,-28.293 h 32.265 L 160,99.4258"
         style="fill:#ffffff;fill-opacity:1;fill-rule:nonzero;stroke:none"
         id="path18" /><path
         d="m 168.605,142.285 c 1.243,1.262 3.243,2.649 4.34,5.656 1.039,2.813 3.289,6.122 5.543,8.301 2.254,2.196 5.282,4.637 3.09,6.641 -2.531,2.305 -6.957,-2.903 -8.183,-4.121 -0.938,-0.949 -2.278,-1.094 -3.672,-1.797 0.765,6.824 -0.7,11.973 -0.891,22.012 -0.086,4.265 -1.168,7.097 -3.098,7.058 -1.617,-0.039 -2.324,-1.219 -2.578,-2.82 0,2.312 -0.058,6.074 -2.765,6.074 -3.289,0 -3.473,-5.957 -3.102,-9.336 -0.129,2.059 -0.121,6.25 -2.957,6.25 -2.953,0 -3.219,-4.777 -2.828,-9.023 0.035,-0.45 0.078,-1.524 0.113,-2.852 0,2.313 -0.441,5.945 -2.695,5.945 -2.067,0 -2.317,-3.093 -2.192,-5.8 0.125,-2.703 0.317,-9.149 0,-10.946 -0.636,-3.613 -0.32,-12.863 -0.125,-15.586 0.25,-3.613 3.348,-4.902 3.215,-7.343 -0.121,-2.453 0,-6.758 0,-8.692 0,-1.933 1.641,-2.043 5.028,-1.289 5.543,1.219 8.566,-1.23 13.14,0.574 -0.574,5.352 0.746,9.172 0.617,11.094"
         style="fill:#cd1e25;fill-opacity:1;fill-rule:nonzero;stroke:none"
         id="path20" /><path
         d="m 160,227.07 c 3.281,4.133 12.027,3.653 14.691,1.094 2.672,-2.547 10.563,0.852 13.723,-5.457 l -4.976,-12.023 h -46.872 l -4.98,12.023 c 3.16,6.309 11.062,2.91 13.723,5.457 2.675,2.559 11.41,3.039 14.691,-1.094"
         style="fill:#af2023;fill-opacity:1;fill-rule:nonzero;stroke:none"
         id="path22" /><path
         d="m 160,231.66 c 1.535,0 2.789,-0.711 2.789,2.629 0,3.328 -1.254,2.617 -2.789,2.617 -1.539,0 -2.789,0.711 -2.789,-2.617 0,-3.34 1.25,-2.629 2.789,-2.629"
         style="fill:#f9cb0a;fill-opacity:1;fill-rule:nonzero;stroke:none"
         id="path24" /><path
         d="m 161.746,246.281 c 1.32,-0.136 2.719,-0.715 3.649,-1.359 v 6.191 c -0.93,-0.633 -2.329,-1.211 -3.649,-1.336 0.125,1.309 0.711,2.703 1.356,3.653 h -6.204 c 0.641,-0.95 1.211,-2.344 1.36,-3.653 -1.32,0.125 -2.719,0.703 -3.653,1.336 v -6.191 c 0.934,0.644 2.333,1.223 3.653,1.359 -0.149,-1.32 -0.719,-4.785 -1.36,-5.734 h 6.204 c -0.645,0.949 -1.231,4.414 -1.356,5.734"
         style="fill:#f9cb0a;fill-opacity:1;fill-rule:nonzero;stroke:none"
         id="path26" /><path
         d="m 160,228.41 c 1.332,0 3.121,-1.945 1.832,-4.609 4.473,1.844 3.578,-5.5 0,-3.156 -0.305,-2.247 2.422,-4.207 5.117,-4.696 3.922,-0.715 5.938,2.547 5.633,3.301 -3.797,-0.84 -2.949,5.633 1.086,3.418 -0.547,1.543 0.27,3.066 2.242,3.191 1.82,-0.789 2.063,-2.488 1.039,-3.757 4.547,0.722 3.153,-5.657 -0.129,-3.586 -0.55,-0.614 -0.304,-3.094 2.61,-4.188 2.406,-0.91 4.793,0.606 4.918,2.43 -1.52,0.234 -2.344,1.68 -1.52,3.097 0.856,1.454 2.668,0.848 3.094,0.059 0.07,2.246 -0.668,3.457 0.125,5.281 0.91,-0.672 2.726,-2.246 3.582,-2.918 0.914,-0.714 0.273,-1.672 -1.547,-3.859 1.063,-1.297 -0.57,-3.301 -1.734,-2.813 -0.602,-1.824 -0.965,-4.128 -2.067,-4.199 0.129,-1.687 -0.215,-5.34 -1.418,-7.402 2.606,-1.277 0.395,-5.645 -1.425,-4.852 -3.297,1.426 -13.18,2.176 -21.438,2.176 -8.258,0 -18.133,-0.75 -21.43,-2.176 -1.824,-0.793 -4.031,3.575 -1.429,4.852 -1.219,2.062 -1.551,5.715 -1.422,7.402 -1.094,0.071 -1.461,2.375 -2.067,4.199 -1.148,-0.488 -2.797,1.516 -1.726,2.813 -1.824,2.187 -2.469,3.145 -1.555,3.859 0.856,0.672 2.676,2.246 3.586,2.918 0.789,-1.824 0.051,-3.035 0.121,-5.281 0.426,0.789 2.242,1.395 3.094,-0.059 0.824,-1.417 0,-2.863 -1.516,-3.097 0.121,-1.824 2.508,-3.34 4.914,-2.43 2.918,1.094 3.16,3.574 2.61,4.188 -3.274,-2.071 -4.672,4.308 -0.117,3.586 -1.036,1.269 -0.793,2.968 1.035,3.757 1.98,-0.125 2.781,-1.648 2.234,-3.191 4.035,2.215 4.883,-4.258 1.102,-3.418 -0.321,-0.754 1.703,-4.016 5.625,-3.301 2.687,0.489 5.41,2.449 5.117,4.696 -3.582,-2.344 -4.481,5 0,3.156 -1.297,2.664 0.492,4.609 1.824,4.609"
         style="fill:#f9cb0a;fill-opacity:1;fill-rule:nonzero;stroke:none"
         id="path28" /><path
         d="m 160,232.648 c -3.934,0 -3.934,-5.363 0,-5.363 3.93,0 3.988,5.363 0,5.363"
         style="fill:#f9cb0a;fill-opacity:1;fill-rule:nonzero;stroke:none"
         id="path30" /><path
         d="m 160,238.242 c 12.027,0 25.84,-7.461 31.426,-12.558 1.539,-1.493 -0.649,-4.676 -2.094,-3.379 -5.449,5.109 -17.594,11.933 -29.332,11.933 -11.738,0 -23.883,-6.824 -29.34,-11.933 -1.437,-1.297 -3.625,1.886 -2.07,3.379 5.574,5.097 19.394,12.558 31.41,12.558"
         style="fill:#f9cb0a;fill-opacity:1;fill-rule:nonzero;stroke:none"
         id="path32" /><path
         d="m 145.859,211.719 c -4.039,-0.703 -3.281,-4.981 0.746,-4.278 4.032,0.704 3.336,5 -0.746,4.278"
         style="fill:#226343;fill-opacity:1;fill-rule:nonzero;stroke:none"
         id="path34" /><path
         d="m 160,208.379 c 2.461,0 4.469,-0.555 4.469,2.062 0,2.618 -2.008,2.059 -4.469,2.059 -2.465,0 -4.461,0.559 -4.461,-2.059 0,-2.617 1.996,-2.062 4.461,-2.062"
         style="fill:#2b3784;fill-opacity:1;fill-rule:nonzero;stroke:none"
         id="path36" /><path
         d="m 138.941,208.496 c -2.148,-2.293 -3.304,-3.973 -3.898,-0.957 -0.594,3.008 1.242,1.789 3.898,0.957"
         style="fill:#9e1b22;fill-opacity:1;fill-rule:nonzero;stroke:none"
         id="path38" /><path
         d="m 174.141,211.719 c 4.039,-0.703 3.281,-4.981 -0.746,-4.278 -4.028,0.704 -3.336,5 0.746,4.278"
         style="fill:#226343;fill-opacity:1;fill-rule:nonzero;stroke:none"
         id="path40" /><path
         d="m 181.07,208.496 c 2.145,-2.293 3.301,-3.973 3.891,-0.957 0.586,3.008 -1.246,1.789 -3.891,0.957"
         style="fill:#9e1b22;fill-opacity:1;fill-rule:nonzero;stroke:none"
         id="path42" /><path
         d="m 128.676,230.059 c -4.149,0.031 -4.203,-6.153 -0.055,-6.18 4.152,-0.031 4.262,6.152 0.055,6.18"
         style="fill:#ffffff;fill-opacity:1;fill-rule:nonzero;stroke:none"
         id="path44" /><path
         d="m 134.164,234.023 c -4.148,0.032 -4.187,-6.152 -0.039,-6.179 4.148,-0.031 4.238,6.152 0.039,6.179"
         style="fill:#ffffff;fill-opacity:1;fill-rule:nonzero;stroke:none"
         id="path46" /><path
         d="m 140.133,237.012 c -4.141,0.039 -4.192,-6.153 -0.039,-6.172 4.14,-0.027 4.254,6.144 0.039,6.172"
         style="fill:#ffffff;fill-opacity:1;fill-rule:nonzero;stroke:none"
         id="path48" /><path
         d="m 146.344,239.523 c -4.141,0.028 -4.184,-6.152 -0.043,-6.183 4.148,-0.027 4.25,6.152 0.043,6.183"
         style="fill:#ffffff;fill-opacity:1;fill-rule:nonzero;stroke:none"
         id="path50" /><path
         d="m 152.676,241.418 c -4.145,0.027 -4.184,-6.152 -0.043,-6.184 4.14,-0.027 4.246,6.153 0.043,6.184"
         style="fill:#ffffff;fill-opacity:1;fill-rule:nonzero;stroke:none"
         id="path52" /><path
         d="m 160,243.039 c -5.086,0 -5.086,-7.59 0,-7.59 5.09,0 5.16,7.59 0,7.59"
         style="fill:#ffffff;fill-opacity:1;fill-rule:nonzero;stroke:none"
         id="path54" /><path
         d="m 191.328,230.059 c 4.152,0.031 4.199,-6.153 0.051,-6.18 -4.149,-0.031 -4.254,6.152 -0.051,6.18"
         style="fill:#ffffff;fill-opacity:1;fill-rule:nonzero;stroke:none"
         id="path56" /><path
         d="m 185.84,234.023 c 4.144,0.032 4.183,-6.152 0.043,-6.179 -4.153,-0.031 -4.246,6.152 -0.043,6.179"
         style="fill:#ffffff;fill-opacity:1;fill-rule:nonzero;stroke:none"
         id="path58" /><path
         d="m 179.863,237.012 c 4.145,0.039 4.192,-6.153 0.043,-6.172 -4.14,-0.027 -4.246,6.144 -0.043,6.172"
         style="fill:#ffffff;fill-opacity:1;fill-rule:nonzero;stroke:none"
         id="path60" /><path
         d="m 173.656,239.523 c 4.141,0.028 4.192,-6.152 0.047,-6.183 -4.148,-0.027 -4.254,6.152 -0.047,6.183"
         style="fill:#ffffff;fill-opacity:1;fill-rule:nonzero;stroke:none"
         id="path62" /><path
         d="m 167.324,241.418 c 4.145,0.027 4.196,-6.152 0.047,-6.184 -4.144,-0.027 -4.25,6.153 -0.047,6.184"
         style="fill:#ffffff;fill-opacity:1;fill-rule:nonzero;stroke:none"
         id="path64" /></g></g></svg>
