<?xml version="1.0" encoding="UTF-8" standalone="no"?>
<svg
   xmlns:dc="http://purl.org/dc/elements/1.1/"
   xmlns:cc="http://creativecommons.org/ns#"
   xmlns:rdf="http://www.w3.org/1999/02/22-rdf-syntax-ns#"
   xmlns:svg="http://www.w3.org/2000/svg"
   xmlns="http://www.w3.org/2000/svg"
   version="1.1"
   id="svg2"
   xml:space="preserve"
   width="42.666668"
   height="42.666668"
   viewBox="0 0 42.666668 42.666668"><metadata
     id="metadata8"><rdf:RDF><cc:Work
         rdf:about=""><dc:format>image/svg+xml</dc:format><dc:type
           rdf:resource="http://purl.org/dc/dcmitype/StillImage" /></cc:Work></rdf:RDF></metadata><defs
     id="defs6" /><g
     id="g10"
     transform="matrix(1.3333333,0,0,-1.3333333,0,42.666667)"><g
       id="g12"
       transform="scale(0.1)"><path
         d="M 274.406,271.871 159.996,191.766 45.5742,271.879 C 32.9609,259.008 22.9727,244.512 15.6016,229.059 L 114.43,159.855 15.6133,90.668 C 22.9922,75.207 32.9805,60.7109 45.5859,47.8359 L 159.996,127.953 274.422,47.8281 c 12.609,12.8711 22.594,27.3672 29.973,42.8203 l -98.832,69.2066 98.82,69.192 C 297,244.5 287.012,258.996 274.406,271.871"
         style="fill:#ffffff;fill-opacity:1;fill-rule:nonzero;stroke:none"
         id="path14" /><path
         d="m 45.5742,271.879 114.4178,-80.117 114.414,80.109 v 0 l -1.168,1.231 c -62.386,62.386 -164.125,62.386 -226.4997,0.007 l -1.168,-1.226 0.0039,-0.004"
         style="fill:#3460b6;fill-opacity:1;fill-rule:evenodd;stroke:none"
         id="path16" /><path
         d="m 304.391,90.6523 c 20.816,43.6057 20.812,94.7817 -0.012,138.3947 l -98.816,-69.195 98.828,-69.1997"
         style="fill:#3460b6;fill-opacity:1;fill-rule:evenodd;stroke:none"
         id="path18" /><path
         d="M 159.996,127.949 45.5898,47.8398 46.7539,46.6172 C 109.141,-15.7695 210.883,-15.7813 273.254,46.6055 l 1.164,1.2226 -114.422,80.1209"
         style="fill:#3460b6;fill-opacity:1;fill-rule:evenodd;stroke:none"
         id="path20" /><path
         d="M 15.6055,229.055 C -5.20703,185.449 -5.20313,134.281 15.6172,90.668 l 98.8128,69.187 -98.8245,69.2"
         style="fill:#3460b6;fill-opacity:1;fill-rule:evenodd;stroke:none"
         id="path22" /></g></g></svg>
