<?xml version="1.0" encoding="UTF-8" standalone="no"?>
<svg
   xmlns:dc="http://purl.org/dc/elements/1.1/"
   xmlns:cc="http://creativecommons.org/ns#"
   xmlns:rdf="http://www.w3.org/1999/02/22-rdf-syntax-ns#"
   xmlns:svg="http://www.w3.org/2000/svg"
   xmlns="http://www.w3.org/2000/svg"
   version="1.1"
   id="svg2"
   xml:space="preserve"
   width="42.666668"
   height="42.666668"
   viewBox="0 0 42.666668 42.666668"><metadata
     id="metadata8"><rdf:RDF><cc:Work
         rdf:about=""><dc:format>image/svg+xml</dc:format><dc:type
           rdf:resource="http://purl.org/dc/dcmitype/StillImage" /></cc:Work></rdf:RDF></metadata><defs
     id="defs6" /><g
     id="g10"
     transform="matrix(1.3333333,0,0,-1.3333333,0,42.666667)"><g
       id="g12"
       transform="scale(0.1)"><path
         d="m 160,320.023 c 88.129,0 160,-71.875 160,-160.019 H 0 c 0,88.144 71.875,160.019 160,160.019"
         style="fill:#ffffff;fill-opacity:1;fill-rule:evenodd;stroke:none"
         id="path14" /><path
         d="M 160,-0.0234375 C 71.875,-0.0234375 0,71.8711 0,160.004 H 320 C 320,71.8711 248.129,-0.0234375 160,-0.0234375"
         style="fill:#33b040;fill-opacity:1;fill-rule:evenodd;stroke:none"
         id="path16" /><path
         d="m 127.051,229.105 c 0.898,0.54 1.644,1.379 2.656,1.7 -1.664,-2.391 -4.418,-3.719 -6.766,-5.34 -1.675,-0.918 -4.062,-1.406 -4.718,-3.399 0.449,-1.828 3.16,-0.781 4.113,-2.121 -1.578,0.078 -3.664,0.059 -4.656,1.543 -0.418,1.614 1.312,2.727 2.539,3.379 2.148,0.918 4.176,2.051 5.933,3.613 -1.129,-0.066 -2.23,-0.417 -3.304,-0.781 0.804,1.582 2.738,1.262 4.203,1.406"
         style="fill:#11100e;fill-opacity:1;fill-rule:nonzero;stroke:none"
         id="path18" /><path
         d="m 95.7734,221.82 c 0.3946,-1.25 0.9297,-2.8 2.3907,-3.125 1.8479,-0.507 3.5509,0.832 4.6839,2.207 l -1.192,0.293 c -0.804,-0.769 -1.699,-1.797 -2.9255,-1.668 -1.1602,0.176 -1.5782,1.434 -1.9961,2.391 z m -0.0546,0.657 c 3.2539,0.515 6.3862,-0.86 9.5192,-1.457 1.942,0 3.785,0.644 5.547,1.308 l 0.301,-0.535 c -2.391,-0.891 -5.012,-1.914 -7.547,-1.066 -1.312,-1.563 -3.195,-3.172 -5.4023,-2.664 -1.7969,0.292 -2.5351,2.148 -2.9844,3.671 l -2.2695,-0.304 c 0.5938,0.968 1.8555,0.871 2.836,1.047"
         style="fill:#100f0d;fill-opacity:1;fill-rule:nonzero;stroke:none"
         id="path20" /><path
         d="m 95.7734,221.82 0.961,0.098 c 0.4179,-0.957 0.8359,-2.215 1.9961,-2.391 1.2265,-0.129 2.1215,0.899 2.9255,1.668 l 1.192,-0.293 c -1.133,-1.375 -2.836,-2.714 -4.6839,-2.207 -1.461,0.325 -1.9961,1.875 -2.3907,3.125"
         style="fill:#ffffff;fill-opacity:1;fill-rule:nonzero;stroke:none"
         id="path22" /><path
         d="m 91.6641,213.258 1.3047,0.808 -0.0235,-1.765 z"
         style="fill:#d61a35;fill-opacity:1;fill-rule:nonzero;stroke:none"
         id="path24" /><path
         d="m 89.8086,212.152 1.1328,0.403 v -1.262 z"
         style="fill:#d61a35;fill-opacity:1;fill-rule:nonzero;stroke:none"
         id="path26" /><path
         d="m 87.7773,211.168 1.5821,0.594 -0.3242,-1.485 z"
         style="fill:#d61a35;fill-opacity:1;fill-rule:nonzero;stroke:none"
         id="path28" /><path
         d="m 85.6875,210.543 1.7656,0.418 -0.5664,-1.434 z"
         style="fill:#d61a35;fill-opacity:1;fill-rule:nonzero;stroke:none"
         id="path30" /><path
         d="m 94.1055,204.34 0.8711,-0.985 -1.2852,-0.363 z"
         style="fill:#d61a35;fill-opacity:1;fill-rule:nonzero;stroke:none"
         id="path32" /><path
         d="m 94.2539,202.516 c 3.5234,1.16 6.9801,3.25 10.8631,2.625 l 1.285,-2.508 c -5.519,0.867 -11.6403,-2.031 -13.4332,-7.551 -0.5391,1.086 -1.0704,2.188 -1.668,3.234 -1.3086,-2.609 -2.0586,-5.441 -3.3164,-8.086 -1.461,1.329 -1.3399,3.418 -1.0391,5.215 -1.5586,1.914 -1.7344,4.434 -2.1211,6.739 3.1367,0.144 6.3281,-0.176 9.4297,0.332"
         style="fill:#d61a35;fill-opacity:1;fill-rule:nonzero;stroke:none"
         id="path34" /><path
         d="m 62.082,179.449 c 0.3008,1.844 1.7969,3.184 3.2305,4.266 0.8008,-1.317 2.0547,-2.578 3.7227,-2.09 -0.0274,-1.68 -0.293,-3.641 -1.9375,-4.5 -1.8204,-1.027 -3.6993,-2.277 -4.2657,-4.453 -1.7617,1.824 -1.2265,4.539 -0.75,6.777"
         style="fill:#d61a35;fill-opacity:1;fill-rule:nonzero;stroke:none"
         id="path36" /><path
         d="m 249.684,193.773 c 8.894,8.555 17.636,17.266 25.546,26.739 -0.781,-7.91 -0.66,-15.938 0.391,-23.856 0.5,-3.75 1.219,-7.511 2.527,-11.066 -3.519,1.582 -6.679,4.082 -8.652,7.461 l 0.067,1.855 c 0.71,2.746 0.949,5.586 1.277,8.379 l -0.36,2.051 c -0.652,-4.109 -0.621,-8.426 -2.265,-12.332 -1.344,-4.035 -2.594,-8.098 -3.938,-12.129 -1.343,2.031 -3.222,3.641 -5.164,5.105 1.2,3.586 3.489,6.875 4.621,10.54 0.899,2.8 2.36,5.449 2.809,8.378 -2.027,-3.253 -2.809,-7.179 -4.355,-10.742 -4.122,-0.558 -8.36,-1.191 -12.504,-0.383"
         style="fill:#d61a35;fill-opacity:1;fill-rule:nonzero;stroke:none"
         id="path38" /><path
         d="m 141.195,105.055 c 0,0.945 -0.566,2.644 0.934,2.734 1.848,-0.559 3.551,-1.816 4.711,-3.34 2.148,-2.531 5.344,-3.761 8.445,-4.5701 -1.816,-0.9883 -3.668,-1.9336 -5.555,-2.8906 -1.042,1.7969 -2.621,3.3087 -4.648,3.9067 -1.941,0.566 -4.152,0.722 -5.707,2.214 0.723,0.5 1.91,0.852 1.82,1.946"
         style="fill:#d61a35;fill-opacity:1;fill-rule:nonzero;stroke:none"
         id="path40" /><path
         d="m 70.1133,102.75 c 1.9687,0.027 3.7656,-0.937 5.457,-1.855 1.8516,-1.1059 4.0352,-1.4575 6.1211,-1.9067 -3.043,-0.9961 -6.2656,-2.2149 -9.5195,-1.4922 -1.4961,0.4961 -3.0469,0.8594 -4.6289,1.0742 l -0.5352,1.1602 c 1.8203,-0.1446 3.5469,1.0155 3.1055,3.0195"
         style="fill:#d61a35;fill-opacity:1;fill-rule:nonzero;stroke:none"
         id="path42" /><path
         d="m 239.027,187.535 c 7.758,3.125 17.399,1.016 23.192,-5.051 4.054,-4.714 5.011,-11.875 2.414,-17.546 -2.176,-4.954 -6.27,-8.79 -10.735,-11.7 -7.199,-4.562 -15.558,-7.226 -24.035,-7.871 -1.074,-0.215 -1.843,0.684 -2.539,1.348 -3.519,3.418 -6.562,7.363 -10.437,10.43 -1.614,1.199 -3.551,2.46 -5.641,2.011 1.309,-0.683 2.891,-0.812 4.117,-1.711 4.922,-3.281 8.207,-8.347 12.657,-12.148 8.535,-4.793 17.46,-9.063 25.394,-14.91 1.606,-1.262 3.285,-2.668 4.024,-4.66 -4.918,-1.407 -7.754,3.878 -11.84,5.371 0.476,-2.352 1.457,-4.571 1.789,-6.942 1.308,-7.472 -0.633,-14.933 -2.153,-22.179 -0.293,-1.465 -1.582,-2.7739 -0.988,-4.3364 0.481,-1.1914 1.051,-2.4492 1.91,-3.3984 1.973,-1.0156 4.153,-1.5508 6.121,-2.5664 -1.132,-1.1641 -1.519,-2.7539 -1.285,-4.336 -1.847,-0.1953 -3.129,1.5625 -4.719,2.2149 -3.332,1.9453 -7.57,1.582 -10.918,-0.125 -1.703,-0.8906 -3.914,-1.0469 -5.55,0.0664 -2.801,2.0508 -6.719,0.8711 -9.309,-1.0234 -1.195,-0.6446 -2.238,-1.875 -3.586,-2.0508 -0.449,1.5625 -1.484,2.7734 -3.012,3.4375 1.825,2.4414 5.196,1.5508 7.461,2.9179 -2.265,0.9883 -4.773,1.4375 -7.246,1.4375 -1.707,0.0274 -3.105,-1.5234 -4.84,-0.957 0.688,1.5508 0.239,3.1524 -0.687,4.4727 4.629,2.3515 9.555,-0.8321 13.937,-2.2383 l -2.175,1.5547 c -3.258,1.3086 -6.481,2.6836 -9.789,3.9331 0.57,0.938 1.492,1.594 2.058,2.512 0.539,1.016 -0.418,1.856 -0.957,2.586 l 1.973,0.098 c 2.355,-1.914 4.152,-4.539 6.894,-5.965 2.243,-1.6407 4.981,-2.8633 7.825,-2.2383 2.824,0.539 4.914,2.7463 6.531,5.0113 1.191,-0.41 2.621,-0.988 3.82,-0.175 1.727,1.152 2.293,3.339 2.774,5.254 1.671,7.519 1.761,15.964 -2.301,22.734 -2.203,3.348 -6.09,4.988 -9.817,5.976 -5.043,1.297 -10.179,2.266 -15.187,3.602 -3.766,0.664 -7.586,1.68 -10.684,3.977 -3.136,2.234 -5.254,5.839 -5.617,9.668 1.758,0.183 3.555,0.203 5.348,0.203 -2.242,2.988 -2.961,7.402 -0.211,10.293 7.25,0.039 14.652,0.449 21.758,-1.239 6.207,-2.004 12.89,-2.121 19.3,-1.367 3.766,0.574 8.243,1.856 9.832,5.723 1.395,3.066 1.903,7.332 -0.964,9.754 -3.039,3.195 -8.621,4.777 -12.172,1.554 -2,-1.496 -1.102,-4.66 1.011,-5.546 3.883,-1.672 8.657,-0.489 11.665,2.285 1.433,-1.582 0.992,-4.317 0.484,-6.321 -5.254,-2.449 -11.703,-2.8 -16.895,-0.086 -3.968,2 -6.207,6.915 -4.953,11.219 0.985,3.313 3.821,5.762 6.953,7.043"
         style="fill:#d61a35;fill-opacity:1;fill-rule:nonzero;stroke:none"
         id="path44" /><path
         d="m 204.953,142.613 c 2.055,-1.035 4.262,-1.816 6.527,-2.355 0.153,-2.567 -1.699,-4.559 -3.078,-6.531 -0.8,-0.899 -1.429,-2.336 -2.824,-2.266 -3.019,0 -6.09,1.367 -7.949,3.789 3.644,0.77 6.543,3.758 7.324,7.363"
         style="fill:#d61a35;fill-opacity:1;fill-rule:nonzero;stroke:none"
         id="path46" /><path
         d="m 212.258,140.121 c 2.984,-0.555 5.91,-1.433 8.894,-2.07 -0.418,-3.485 -2.152,-8.153 -6.242,-8.446 -2.652,-0.39 -5.457,0.118 -7.668,1.7 2.094,2.664 4.664,5.312 5.016,8.816"
         style="fill:#d61a35;fill-opacity:1;fill-rule:nonzero;stroke:none"
         id="path48" /><path
         d="m 221.809,137.906 c 2.386,-0.519 4.777,-1.074 7.16,-1.652 -0.117,-2.5 -0.321,-5.34 -2.059,-7.332 -2.773,-1.699 -6.535,-1.113 -9.008,0.887 2.211,2.148 3.543,5.058 3.907,8.097"
         style="fill:#d61a35;fill-opacity:1;fill-rule:nonzero;stroke:none"
         id="path50" /><path
         d="m 229.625,136.078 c 2.301,-0.683 4.57,-1.551 6.535,-2.957 -1.097,-1.875 -1.965,-3.926 -3.426,-5.508 -1.761,-0.664 -3.699,-0.109 -5.293,0.77 1.594,2.238 2.063,5.012 2.184,7.695"
         style="fill:#d61a35;fill-opacity:1;fill-rule:nonzero;stroke:none"
         id="path52" /><path
         d="m 233.266,127.074 c 1.226,1.817 2.359,3.723 3.41,5.637 2.172,-2.004 3.668,-4.719 4.203,-7.617 -1.879,-3.067 -6.863,-0.891 -7.613,1.98"
         style="fill:#d61a35;fill-opacity:1;fill-rule:nonzero;stroke:none"
         id="path54" /><path
         d="m 236.461,122.984 c 1.668,-0.089 3.402,0.059 4.75,1.133 0.266,-1.972 0.742,-3.906 0.648,-5.918 -0.617,-1.64 -2.714,-2.734 -4.382,-2.238 -1.168,2.129 -1.348,4.668 -1.016,7.023"
         style="fill:#d61a35;fill-opacity:1;fill-rule:nonzero;stroke:none"
         id="path56" /><path
         d="m 237.387,115.102 c 1.758,0.031 3.433,0.664 4.683,1.875 -0.297,-2.168 -0.328,-4.414 -0.828,-6.563 -0.453,-1.707 -2.988,-1.973 -3.972,-0.664 -0.747,1.75 -0.36,3.625 0.117,5.352"
         style="fill:#d61a35;fill-opacity:1;fill-rule:nonzero;stroke:none"
         id="path58" /><path
         d="m 236.703,109.156 c 1.309,-0.84 2.863,-1.074 4.293,-0.41 -0.449,-1.789 -0.84,-3.801 -2.234,-5.137 -1.309,-1.281 -4,-0.468 -4.059,1.493 -0.57,1.73 0.688,3.156 2,4.054"
         style="fill:#d61a35;fill-opacity:1;fill-rule:nonzero;stroke:none"
         id="path60" /><path
         d="m 205.305,102.809 c 0.922,2.5 4.09,3.222 6.355,2.265 1.074,-0.773 0.063,-1.914 -0.566,-2.558 -1.821,0.859 -3.914,1.132 -5.789,0.293"
         style="fill:#d61a35;fill-opacity:1;fill-rule:nonzero;stroke:none"
         id="path62" /><path
         d="m 202.891,92.8477 c 0.531,2.5195 3.039,3.6015 5.246,4.375 0.633,-0.8907 0.929,-1.9336 0.961,-3.0391 -2.184,0.1758 -4.481,0.1172 -6.207,-1.3359"
         style="fill:#d61a35;fill-opacity:1;fill-rule:nonzero;stroke:none"
         id="path64" /><path
         d="m 252.609,91.168 c 2.411,-0.2344 4.207,-2.2071 4.95,-4.4141 -1.786,1.1016 -3.907,1.6289 -6.02,1.3359 -0.035,1.1329 0.387,2.1797 1.07,3.0782"
         style="fill:#d61a35;fill-opacity:1;fill-rule:nonzero;stroke:none"
         id="path66" /><path
         d="m 157.223,202.484 c 15.281,12.5 31.875,23.489 49.269,32.864 -1.691,-1.946 -3.902,-3.313 -5.929,-4.864 -11.583,-8.371 -23.551,-16.418 -33.489,-26.769 -4.504,-4.715 -8.621,-10.086 -10.414,-16.453 -2.09,-5.188 -4.383,-10.918 -9.281,-14.082 3.851,5.672 1.582,12.715 2.531,19.011 0.754,4.329 3.942,7.688 7.313,10.293"
         style="fill:#d61a35;fill-opacity:1;fill-rule:nonzero;stroke:none"
         id="path68" /><path
         d="m 181.664,146.734 c 3.766,4.59 9.852,6.504 15.559,7.254 0.441,-4.59 3.273,-8.652 7.156,-11.035 -0.688,-3.133 -2.953,-6.094 -6.176,-6.844 -1.937,-0.597 -3.555,0.957 -5.312,1.493 -1.438,0.449 -2.422,1.816 -3.942,2.031 -1.457,0.293 -2.922,-0.391 -4.359,-0.156 -1.735,0.597 -2.957,2.031 -3.965,3.496 -0.926,1.261 0.355,2.687 1.039,3.761"
         style="fill:#d61a35;fill-opacity:1;fill-rule:nonzero;stroke:none"
         id="path70" /><path
         d="m 169.766,143.188 c 3.269,0.41 6.617,0.324 9.933,0.089 l 1.61,-2.304 c -3.313,-3.039 -8.239,-3.692 -12.356,-2.09 0.387,1.406 0.695,2.84 0.813,4.305"
         style="fill:#d61a35;fill-opacity:1;fill-rule:nonzero;stroke:none"
         id="path72" /><path
         d="m 164.805,141.508 c 1.281,0.871 2.808,1.262 4.297,1.555 -0.118,-6.446 -6.657,-11.133 -12.711,-11.25 1.492,2.031 1.461,5.339 4.089,6.257 1.668,0.852 2.778,2.453 4.325,3.438"
         style="fill:#d61a35;fill-opacity:1;fill-rule:nonzero;stroke:none"
         id="path74" /><path
         d="m 146.215,140.59 c 4.207,0.871 8.777,-0.242 12.144,-2.949 -1.312,-3.348 -2.8,-6.805 -5.433,-9.344 -1.848,-1.367 -4.41,-1.223 -6.559,-0.684 2.887,3.848 1.547,8.914 -0.152,12.977"
         style="fill:#d61a35;fill-opacity:1;fill-rule:nonzero;stroke:none"
         id="path76" /><path
         d="m 171.996,137.457 c 3.524,-0.422 7.141,0.711 9.762,3.106 1.25,-1.086 2.777,-2.149 4.508,-1.68 1.675,0.418 3.461,0.215 4.8,-0.918 -1.398,-3.137 -5.339,-4.152 -6.328,-7.492 -0.8,-3.047 0.09,-7.547 3.617,-8.407 3.672,-1.242 7.157,-3.183 11.071,-3.527 3.699,-0.574 6.39,-4.09 6.152,-7.832 -3.289,1.262 -6.691,2.246 -10,3.41 -4.98,-8.293 -12.723,-14.9529 -21.848,-18.2615 -1.82,-0.8125 -3.851,-1.0157 -5.585,-2.0313 2.843,-1.7304 6.472,-0.207 9.164,-2.2187 -0.985,-1.2774 -1.164,-2.8789 -0.594,-4.4141 -4.625,-0.3008 -7.551,4.9024 -12.231,4.4531 -1.464,0 -2.808,-1.4453 -4.281,-0.7109 -1.664,0.6719 -3.508,0.5859 -5.265,0.332 -3.5,-0.5078 -7.145,-0.7031 -10.336,-2.3633 -1.047,-0.4804 -1.789,-1.7109 -3.047,-1.621 l -0.145,2.7539 c -0.754,0.9843 -2.09,1.0429 -3.133,1.4843 0.629,1.0235 1.911,1.4336 2.985,1.8633 1.429,0.5078 2.48,-0.9648 3.847,-0.9648 2.09,-0.0586 4.114,0.6054 6.086,1.2187 0.899,0.3438 2.032,0.5196 2.512,1.4961 -2.75,-0.793 -5.402,-2.0508 -8.301,-2.0898 -1.312,-0.1172 -2.265,1.2304 -3.578,1.0429 -1.64,-0.1757 -2.984,-1.1601 -4.297,-2.0507 -1.199,0.6562 -2.39,1.3476 -3.554,2.0312 1.554,0.8008 2.355,2.3438 1.937,4.0938 1.68,0.7031 3.703,0.7617 5.191,-0.3633 2.817,-2.1289 6.903,-2.6055 10,-0.8399 3.618,1.8477 7.133,4.238 11.29,4.473 1.339,0.058 2.89,0.547 3.964,-0.477 1.43,-1.1053 3.379,-1.7889 5.133,-1.0467 1.821,0.6637 2.387,2.9297 4.328,3.4377 4,2.14 8.18,4.484 10.743,8.301 0.839,1.152 1.226,3.039 -0.118,4.023 -2.808,1.914 -6.39,0.996 -9.519,1.789 -3.406,0.594 -6.895,2.684 -7.789,6.231 -1.141,4.753 0.683,9.589 2.859,13.769"
         style="fill:#d61a35;fill-opacity:1;fill-rule:nonzero;stroke:none"
         id="path78" /><path
         d="m 139.922,133.609 c -0.063,3.329 2.531,6.024 5.664,6.766 1.312,-3.074 2.422,-6.531 1.555,-9.883 -0.575,-2.344 -2.75,-3.66 -4.543,-5.039 -2.793,-1.961 -6.172,-4.14 -9.754,-3.094 2.297,4.805 1.695,10.313 1.429,15.477 2.364,-0.711 4.004,-2.52 5.649,-4.227"
         style="fill:#d61a35;fill-opacity:1;fill-rule:nonzero;stroke:none"
         id="path80" /><path
         d="m 128.277,137.66 c 1.727,0.508 3.555,0.664 5.313,0.363 0.355,-4.472 0.683,-9.074 -0.508,-13.457 -0.832,-2.929 -3.937,-4.179 -6.352,-5.558 -0.722,1.906 -1.406,3.918 -1.199,5.976 0.149,1.457 1.348,2.5 1.793,3.84 0.981,2.84 0.981,5.887 0.953,8.836"
         style="fill:#d61a35;fill-opacity:1;fill-rule:nonzero;stroke:none"
         id="path82" /><path
         d="m 156.746,131.215 c 4.836,0.176 9.34,3.078 11.883,7.129 l 2.715,-0.77 c -1.434,-2.804 -2.571,-5.761 -3.043,-8.867 -4.028,1.785 -8.571,1.492 -12.867,1.973 l 1.312,0.535"
         style="fill:#d61a35;fill-opacity:1;fill-rule:nonzero;stroke:none"
         id="path84" /><path
         d="m 152.242,124.77 c -0.211,2.207 1.61,3.703 3.043,5.078 4.238,-0.125 8.926,0.148 12.774,-1.875 0.121,-2.344 0.242,-4.715 1.41,-6.805 -2.692,-2.48 -6.543,-3.137 -10.035,-3.586 -3.34,0.859 -7.071,3.398 -7.192,7.188"
         style="fill:#d61a35;fill-opacity:1;fill-rule:nonzero;stroke:none"
         id="path86" /><path
         d="m 159.641,116.891 c 3.558,0.711 7.433,1.23 10.238,3.769 1.195,-1.347 2.684,-2.355 4.262,-3.137 -0.317,-1.855 -1.844,-3.105 -3.305,-4.179 -1.367,-1.102 -3.258,-0.508 -4.867,-0.457 -2.59,0.183 -5.672,1.172 -6.328,4.004"
         style="fill:#d61a35;fill-opacity:1;fill-rule:nonzero;stroke:none"
         id="path88" /><path
         d="m 174.805,117.367 c 2.297,-0.683 4.683,-0.984 7.043,-1.004 -0.774,-2.519 -2.567,-4.718 -5.075,-5.656 -2.207,-1.004 -5.281,-0.887 -6.625,1.406 1.907,1.379 4.086,2.805 4.657,5.254"
         style="fill:#d61a35;fill-opacity:1;fill-rule:nonzero;stroke:none"
         id="path90" /><path
         d="m 182.477,116.293 c 1.523,-0.234 3.847,-0.379 4.238,-2.273 -0.117,-2.286 -2.18,-3.848 -3.707,-5.403 -2.113,0.578 -4.356,0.813 -6.531,1.172 2.832,1.223 5.218,3.457 6,6.504"
         style="fill:#d61a35;fill-opacity:1;fill-rule:nonzero;stroke:none"
         id="path92" /><path
         d="m 170.715,105.668 c -0.031,2.238 2.387,4.121 4.535,3.613 2.387,-0.32 4.805,-0.574 7.137,-1.152 -2.422,-1.649 -4.778,-3.348 -7.465,-4.551 -1.734,-0.867 -3.223,0.871 -4.207,2.09"
         style="fill:#d61a35;fill-opacity:1;fill-rule:nonzero;stroke:none"
         id="path94" /><path
         d="m 133.793,104.418 c 0.867,2.559 4.121,3.488 6.395,2.297 l -0.352,-2.813 c -1.531,2.032 -4.098,1.68 -6.043,0.516"
         style="fill:#d61a35;fill-opacity:1;fill-rule:nonzero;stroke:none"
         id="path96" /><path
         d="m 165.938,102.086 c 0.57,2 2.503,2.969 4.511,2.84 0.918,-0.918 1.938,-1.766 3.102,-2.41 -0.809,-0.989 -1.723,-2.071 -3.071,-2.246 -1.738,-0.3052 -3.289,0.769 -4.542,1.816"
         style="fill:#d61a35;fill-opacity:1;fill-rule:nonzero;stroke:none"
         id="path98" /><path
         d="m 128.879,94 c 0.828,2.4102 3.332,4.5391 5.992,4.0898 0.957,-0.7421 0.539,-3.2226 -1.047,-2.7734 -1.812,0.5664 -3.488,-0.3594 -4.945,-1.3164"
         style="fill:#d61a35;fill-opacity:1;fill-rule:nonzero;stroke:none"
         id="path100" /><path
         d="m 177.281,87.6211 c -0.508,1.2109 -0.297,2.5586 0.571,3.5742 2.48,-0.5937 5.636,-1.2773 6.351,-4.1797 -1.996,1.6133 -4.68,1.9727 -6.922,0.6055"
         style="fill:#d61a35;fill-opacity:1;fill-rule:nonzero;stroke:none"
         id="path102" /><path
         d="m 135.055,86.1875 c -0.516,2.3242 1.312,4.6758 3.726,4.4805 1.289,-0.0664 2.774,-0.9961 2.387,-2.4883 -2.262,0.2422 -4.531,-0.2656 -6.113,-1.9922"
         style="fill:#d61a35;fill-opacity:1;fill-rule:nonzero;stroke:none"
         id="path104" /><path
         d="m 95.7188,222.477 c -0.9805,-0.176 -2.2422,-0.079 -2.836,-1.047 l 2.2695,0.304 c 0.4493,-1.523 1.1875,-3.379 2.9844,-3.671 2.2073,-0.508 4.0903,1.101 5.4023,2.664 2.535,-0.848 5.156,0.175 7.547,1.066 l -0.301,0.535 c -1.762,-0.664 -3.605,-1.308 -5.547,-1.308 -3.133,0.597 -6.2653,1.972 -9.5192,1.457 z m 31.3322,6.628 c -1.465,-0.144 -3.399,0.176 -4.203,-1.406 1.074,0.364 2.175,0.715 3.304,0.781 -1.757,-1.562 -3.785,-2.695 -5.933,-3.613 -1.227,-0.652 -2.957,-1.765 -2.539,-3.379 0.992,-1.484 3.078,-1.465 4.656,-1.543 -0.953,1.34 -3.664,0.293 -4.113,2.121 0.656,1.993 3.043,2.481 4.718,3.399 2.348,1.621 5.102,2.949 6.766,5.34 -1.012,-0.321 -1.758,-1.16 -2.656,-1.7 m -7.098,1.106 c 4.207,1.914 9.223,1.941 13.012,4.746 -0.238,-2.277 -0.606,-4.543 -0.715,-6.797 l 1.664,-0.246 c -1.965,-1.465 -4.113,-2.656 -6.082,-4.121 -1.254,-1.258 -2.152,-2.977 -2.117,-4.773 -3.195,-1.77 -6.895,-1.223 -10.328,-0.598 l 2.535,-1.172 c -0.574,-0.984 -1.164,-1.941 -1.762,-2.891 1.457,-0.234 2.863,-0.742 3.996,-1.718 -1.218,-0.84 -2.508,-1.602 -3.578,-2.637 1.524,-0.438 3.012,-1.102 3.91,-2.469 -1.078,-0.129 -2.175,-0.215 -3.281,-0.332 0.41,-1.465 0.895,-2.93 1.285,-4.426 -1.195,0.723 -2.332,1.465 -3.519,2.161 -0.75,-1.262 -1.465,-2.54 -2.215,-3.801 l -1.524,2.48 c -0.949,-1.179 -1.699,-2.566 -2.597,-3.789 -1.34,2.395 -2.563,4.863 -3.848,7.285 -1.098,2.004 -1.941,4.289 -3.851,5.676 -2.0278,1.453 -4.5357,2.051 -6.981,2.254 l -2.0898,-0.918 c -2.2695,-1.641 -4.8633,-3.105 -7.7266,-3.047 -0.4843,1.348 -1.2773,2.539 -2.3359,3.496 2.1836,0.715 2.6601,2.981 2.7226,5 -1.3125,-0.918 -0.5039,-3.086 -1.996,-3.867 l -1.8868,-0.535 c -5.0078,1.465 -10.2343,0.176 -15.3007,-0.098 4.8281,6.094 13.0351,7.324 20.3125,7.617 0.9296,-1.406 2.1523,-2.773 2.3046,-4.503 -0.1523,-1.133 -1.1093,-1.922 -1.5546,-2.93 1.371,0.566 2.4531,2.09 2.0898,3.613 -0.3594,1.426 -1.2852,2.598 -2.0273,3.84 1.1289,0.125 2.2734,0.215 3.3984,0.301 0.625,4.035 5.1094,5.527 8.6875,5.441 5.4333,-0.293 10.8903,-0.539 16.3513,-0.879 -0.414,-1.242 -1.043,-2.433 -1.515,-3.664 1.336,0.598 1.582,2.149 2.031,3.371 1.543,0.938 2.824,2.274 4.531,2.93"
         style="fill:#d61a35;fill-opacity:1;fill-rule:nonzero;stroke:none"
         id="path106" /><path
         d="m 168.953,204.781 c 11.102,11.102 24.469,19.461 36.914,28.895 -1.461,-4.071 -2.918,-8.778 -0.914,-12.93 1.004,-2.09 3.246,-3.008 5.332,-3.601 -15.754,-6.36 -31.785,-12.032 -47.207,-19.141 1.692,2.488 3.781,4.629 5.875,6.777"
         style="fill:#d61a35;fill-opacity:1;fill-rule:nonzero;stroke:none"
         id="path108" /><path
         d="m 240.789,227.875 c 1.848,0.813 3.609,1.797 5.516,2.48 -4.532,-3.992 -9.543,-7.644 -12.77,-12.851 -1.25,-2.129 -2.176,-4.805 -1.133,-7.195 0.953,-2.18 3.133,-3.371 5.075,-4.485 -22.297,-2.898 -44.434,-6.953 -66.403,-11.668 1.797,1.219 3.824,2.071 5.758,3.114 21.156,10.5 42.586,20.527 63.957,30.605"
         style="fill:#d61a35;fill-opacity:1;fill-rule:nonzero;stroke:none"
         id="path110" /><path
         d="m 226.461,222.477 c 1.441,0.574 2.809,1.218 4.328,1.562 -1.965,-1.289 -4.203,-2.09 -6.293,-3.137 -17.82,-8.515 -35.754,-16.797 -53.301,-25.847 -1.199,-0.664 -2.539,-1.203 -3.343,-2.356 19.187,4.504 38.675,7.883 58.14,10.918 2.207,0.293 4.352,0.781 6.559,0.84 -1.34,-0.547 -2.805,-0.809 -4.235,-1.141 -15.25,-3.605 -30.472,-7.277 -45.605,-11.398 -5.074,-1.434 -10.148,-2.801 -15.098,-4.629 -1.312,-0.535 -2.777,-0.945 -3.644,-2.176 13.574,0 27.097,-1.797 40.347,-4.648 5.645,-1.418 11.497,-2.57 16.508,-5.617 -14.867,2.687 -29.871,4.953 -44.972,5.734 -4.36,0.117 -8.805,0.379 -13.075,-0.656 11.246,-4.715 21.61,-11.406 31.575,-18.418 2.089,-1.582 4.296,-3.074 6.117,-4.981 -11.582,6.114 -23.696,11.309 -36.078,15.606 -1.793,0.508 -3.578,1.32 -5.489,1.191 l 0.235,-0.769 c 5.101,-3.489 8.953,-8.489 12.508,-13.457 2.828,-4.18 5.726,-8.457 7.277,-13.282 -6.445,7.422 -13.07,14.747 -20.293,21.426 -1.406,1.16 -2.68,2.774 -4.625,2.988 2.211,-5.566 3.07,-11.523 4.055,-17.375 0.597,-4.414 1.312,-8.894 1.019,-13.339 -2.445,8.586 -5.254,17.062 -8.441,25.422 l -0.965,1.289 c -1.043,-0.989 -1.512,-2.336 -2.113,-3.586 -3.317,-7.45 -5.879,-15.215 -8.055,-23.094 -0.211,5.43 0.059,10.859 0.738,16.238 0.414,2.629 0.594,5.547 2.602,7.512 -2.453,-0.508 -4.207,-2.414 -5.946,-4.055 -4.144,-4.121 -7.453,-8.984 -10.828,-13.73 1.942,6.562 5.547,12.472 8.383,18.652 -3.398,-0.098 -6.621,-1.336 -9.726,-2.598 -7.614,-3.308 -14.77,-7.664 -21.278,-12.781 1.395,2.664 3.465,4.883 5.543,7.02 4.961,4.758 10.481,9.16 16.899,11.797 6.293,1.757 12.8,2.675 19.191,4.121 2.414,0.41 4.441,1.925 5.969,3.82 3.672,4.355 5.609,9.844 7.519,15.156 1.371,2.598 2.446,5.996 5.524,7.039 13.847,6.446 28.261,11.555 42.433,17.246 6.563,2.754 13.375,4.786 19.934,7.493"
         style="fill:#d61a35;fill-opacity:1;fill-rule:nonzero;stroke:none"
         id="path112" /><path
         d="m 118.609,217.23 c 2.594,-0.242 5.219,0.149 7.606,1.25 0.988,-1.523 1.582,-3.367 2.871,-4.656 2.477,-0.949 5.25,-1.914 6.652,-4.347 -1.879,-0.039 -3.906,0.168 -5.609,-0.789 l -0.742,-2.325 c 1.16,-1.32 3.125,-1.34 4.406,-2.453 1.711,-1.453 2.66,-3.601 2.75,-5.808 -2.27,0.566 -4.207,2.39 -6.656,2.136 -2.504,-0.644 -3.133,-4.168 -1.582,-6.054 1.14,-1.817 3.644,-1.746 4.957,-3.36 1.222,-1.445 1.82,-3.261 2.148,-5.117 -2.176,1.113 -4.324,2.453 -6.773,2.813 -0.985,0.109 -2.153,-0.125 -2.629,-1.082 -0.836,-2.297 -0.242,-5.403 2.207,-6.407 2.215,-0.898 4.988,-2.09 5.074,-4.902 -1.672,0.398 -3.453,0.926 -5.074,0.144 -1.309,-0.593 -2.387,-2.195 -1.762,-3.632 0.453,-1.278 0.93,-2.539 1.32,-3.856 -2.574,-0.597 -4.925,-1.816 -7.222,-3.097 -2,2.304 -3.051,5.226 -4.121,8.058 -2.864,8.328 -4.086,17.274 -3.133,26.055 0.027,1.64 1.195,2.918 1.906,4.304 1.41,-0.878 2.719,-1.882 4.242,-2.48 -0.359,1.691 -0.953,3.371 -1.433,5.039 1.101,0.09 2.238,0.176 3.371,0.293 -0.563,1.652 -1.996,2.688 -3.52,3.41 1.129,0.672 2.207,1.434 3.223,2.293 -1.082,1.028 -2.414,1.77 -3.824,2.18 l 1.347,2.39"
         style="fill:#d61a35;fill-opacity:1;fill-rule:nonzero;stroke:none"
         id="path114" /><path
         d="m 48.4766,217.738 c 5.4882,-3.914 12.0781,-5.652 18.5937,-6.953 -2.2656,-1.308 -4.6328,-2.449 -7.1094,-3.289 1.6172,-2.598 3.2344,-5.187 4.5118,-7.941 -2.9532,1.476 -5.3946,3.761 -7.7305,6.066 -3.4063,3.516 -6.625,7.422 -8.2656,12.117"
         style="fill:#d61a35;fill-opacity:1;fill-rule:nonzero;stroke:none"
         id="path116" /><path
         d="m 66.918,207.477 c 11.9414,-0.52 23.9726,0.32 35.746,2.324 0.731,-1.348 1.414,-2.656 2.063,-4.004 -1.61,-0.352 -2.68,0.566 -3.426,1.855 l -0.899,-2.246 -1.5192,1.914 -0.8984,-2.629 -1.6992,1.653 -0.6602,-2.668 -1.7852,1.789 c -0.2734,-0.949 -0.5976,-1.875 -1.1054,-2.707 l -1.461,2.383 -0.8984,-2.149 -0.7148,-0.066 -0.7774,2.012 -1.2226,-2.247 -1.4571,2.176 -1.0508,-2.051 c -7.4023,0.293 -14.7773,0.625 -22.1406,0.95 -0.7265,1.132 -1.4336,2.273 -2.1211,3.437 1.9141,0.887 4.0039,0.274 6.0274,0.274"
         style="fill:#d61a35;fill-opacity:1;fill-rule:nonzero;stroke:none"
         id="path118" /><path
         d="m 232.492,203.676 c 0.899,0.215 1.821,0.429 2.742,0.539 -6.617,-3.457 -13.074,-8.438 -15.687,-15.695 -1.586,-4.207 -0.957,-8.954 1.277,-12.782 -5.461,2.782 -11.488,4.188 -17.426,5.528 -12.418,2.625 -25.078,4.355 -37.789,4.441 3.196,1.523 6.598,2.481 9.973,3.527 18.805,5.43 37.871,9.911 56.91,14.442"
         style="fill:#d61a35;fill-opacity:1;fill-rule:nonzero;stroke:none"
         id="path120" /><path
         d="m 108.609,198.695 c 0.926,1.289 1.762,2.629 2.684,3.907 l 1.203,-2.325 c -0.781,-1.386 -1.465,-2.773 -2.066,-4.238 -3.645,-0.156 -6.953,2.453 -7.735,5.996 1.383,-0.027 2.727,-0.027 4.067,-0.066 0.566,-1.125 1.168,-2.227 1.847,-3.274"
         style="fill:#d61a35;fill-opacity:1;fill-rule:nonzero;stroke:none"
         id="path122" /><path
         d="m 109.27,190.395 c 0.832,2.96 1.726,5.918 3.281,8.605 -0.149,-2.812 -0.301,-5.645 -0.09,-8.457 0.234,-1.379 -1.109,-2.168 -1.941,-3.008 -0.508,0.899 -1.7,1.727 -1.25,2.86"
         style="fill:#d61a35;fill-opacity:1;fill-rule:nonzero;stroke:none"
         id="path124" /><path
         d="m 100.25,190.914 c -1.0977,2.832 0.867,6.016 3.348,7.402 1.882,-1.593 4.09,-2.902 6.593,-2.941 -0.988,-2.5 -1.437,-5.184 -2.386,-7.664 -2.715,0.176 -5.875,0.867 -7.555,3.203"
         style="fill:#d61a35;fill-opacity:1;fill-rule:nonzero;stroke:none"
         id="path126" /><path
         d="m 55.9922,196.039 c 2.6367,-0.566 4.6289,-2.586 5.8242,-4.93 -0.957,-0.644 -1.9766,-1.242 -3.1367,-1.398 -0.1445,2.355 -1.043,4.59 -2.6875,6.328"
         style="fill:#d61a35;fill-opacity:1;fill-rule:nonzero;stroke:none"
         id="path128" /><path
         d="m 58.2969,189.117 c 1.4258,0 2.7109,0.684 3.8711,1.426 1.7109,-2.109 0.9609,-4.777 0.0351,-7.031 -0.2383,-3.078 -1.7304,-6.086 -0.9883,-9.231 0.211,-1.23 1.3477,-1.875 1.9805,-2.859 2.5625,-3.684 3.1289,-8.274 3.6602,-12.629 0.3047,-1.348 -1.3086,-2.09 -1.2774,-3.398 -0.1836,-3.321 1.7617,-6.297 3.8516,-8.719 5.25,-5.813 13.0703,-8.606 20.7383,-9.289 -0.4766,-4.61 2.4804,-8.731 6.082,-11.309 -3.125,-0.234 -6.2578,-0.652 -9.2187,-1.668 -1.2266,-3.586 -2.5938,-7.258 -5.1602,-10.109 -0.2969,9.816 -6.6836,17.961 -13.3125,24.648 -6.6602,4.649 -10.5078,12.324 -12.4727,20.02 -1.0468,-1.61 -1.5546,-3.524 -2.8398,-5.02 -1.6719,-1.875 -0.8633,-5.125 -3.25,-6.465 -0.4141,1.067 -0.8945,2.297 -2.0898,2.707 l -2.0274,1.133 c 0.6602,1.531 2.4219,2.09 3.1641,3.563 0.7734,1.496 1.7343,2.832 2.9492,3.965 0.75,4.894 1.1094,9.843 1.668,14.777 -1.6289,0.828 -3.3868,1.707 -4.3829,3.367 -0.9765,1.438 -0.5078,3.352 -1.4609,4.777 -0.6289,0.86 -0.7187,1.942 -0.3867,2.93 1.8476,-0.508 3.4922,0.535 4.6016,1.942 2.6796,-3.231 2.7109,-7.977 5.6367,-11.016 -0.1485,1.758 -0.7735,3.457 -0.8321,5.215 -0.1796,2.844 0.5664,5.605 1.461,8.273"
         style="fill:#d61a35;fill-opacity:1;fill-rule:nonzero;stroke:none"
         id="path130" /><path
         d="m 96.8203,183.383 c -0.6523,2.558 0.957,5.312 2.8985,6.953 2.0822,-2.195 5.1252,-3.047 8.0582,-3.309 -0.597,-2.629 -1.105,-5.285 -1.586,-7.91 -3.582,-0.304 -7.0972,1.551 -9.3707,4.266"
         style="fill:#d61a35;fill-opacity:1;fill-rule:nonzero;stroke:none"
         id="path132" /><path
         d="m 45.1602,189.711 c 2.4492,0.176 4.6289,-1.102 6.1484,-2.891 -0.7734,-0.984 -1.8516,-1.707 -3.1289,-1.648 -0.6016,1.766 -1.6758,3.289 -3.0195,4.539"
         style="fill:#d61a35;fill-opacity:1;fill-rule:nonzero;stroke:none"
         id="path134" /><path
         d="m 68.2578,189.41 c 2.3633,-1.672 1.6719,-4.922 0.4492,-7.07 -1.0742,-0.598 -2.207,0.449 -2.5351,1.445 1.1953,1.66 1.9961,3.563 2.0859,5.625"
         style="fill:#d61a35;fill-opacity:1;fill-rule:nonzero;stroke:none"
         id="path136" /><path
         d="m 108.82,188.785 1.192,-1.777 -1.672,-0.559 z"
         style="fill:#d61a35;fill-opacity:1;fill-rule:nonzero;stroke:none"
         id="path138" /><path
         d="m 110.668,186.82 1.91,1.809 c 0.656,-1.789 -0.176,-3.418 -1.582,-4.59 -0.144,0.926 -0.262,1.856 -0.328,2.781"
         style="fill:#d61a35;fill-opacity:1;fill-rule:nonzero;stroke:none"
         id="path140" /><path
         d="m 108.129,185.836 1.945,0.418 c 0.09,-0.957 0.356,-1.883 0.297,-2.84 -0.898,-1.164 -2.125,-2.062 -3.254,-2.98 0.238,1.816 0.633,3.605 1.012,5.402"
         style="fill:#d61a35;fill-opacity:1;fill-rule:nonzero;stroke:none"
         id="path142" /><path
         d="m 109.957,181.949 c 0.953,1.172 2.059,2.215 3.008,3.348 0.898,-2.176 -0.301,-4.246 -1.582,-5.945 -0.504,0.839 -1.192,1.609 -1.426,2.597"
         style="fill:#d61a35;fill-opacity:1;fill-rule:nonzero;stroke:none"
         id="path144" /><path
         d="m 92.9453,177.867 c 0.3281,2.078 1.8789,3.672 3.4258,4.922 2.5391,-2.629 5.9959,-4.531 9.7339,-4.316 -0.417,-2.61 -0.777,-5.168 -1.082,-7.774 -3.753,0.176 -7.8394,0.391 -11.0386,2.625 -1.5196,0.957 -1.25,3.02 -1.0391,4.543"
         style="fill:#d61a35;fill-opacity:1;fill-rule:nonzero;stroke:none"
         id="path146" /><path
         d="m 110.758,177.504 c 1.043,1.309 1.972,2.715 2.863,4.152 1.078,-2.48 0.785,-5.285 -1.219,-7.218 -0.566,1.007 -1.136,2.023 -1.644,3.066"
         style="fill:#d61a35;fill-opacity:1;fill-rule:nonzero;stroke:none"
         id="path148" /><path
         d="m 106.613,178.285 c 0.239,1.516 1.668,2.238 2.742,3.137 l 1.614,-2.629 c -0.75,-0.926 -1.434,-1.855 -2.332,-2.625 l -2.024,2.117"
         style="fill:#d61a35;fill-opacity:1;fill-rule:nonzero;stroke:none"
         id="path150" /><path
         d="m 165.016,179.664 c 6.812,0.918 13.754,0.106 20.593,-0.402 9.586,-0.918 19.129,-2.235 28.649,-3.867 1.64,-0.34 3.312,-0.489 4.894,-1.082 -6.386,-0.411 -13.195,-3.165 -16.297,-9.102 -2.14,-2.09 -2.773,-5.246 -1.941,-8.086 -4.199,3.672 -8.859,6.824 -13.512,9.93 -7.199,4.629 -14.511,9.199 -22.386,12.609"
         style="fill:#d61a35;fill-opacity:1;fill-rule:nonzero;stroke:none"
         id="path152" /><path
         d="m 106.582,177.387 1.613,-1.797 -2.09,-1.453 c 0.118,1.074 0.266,2.176 0.477,3.25"
         style="fill:#d61a35;fill-opacity:1;fill-rule:nonzero;stroke:none"
         id="path154" /><path
         d="m 108.16,174.781 2.176,2.188 c 0.543,-1.074 1.109,-2.121 1.68,-3.164 -0.93,-1.016 -1.914,-1.992 -2.961,-2.864 -0.383,1.262 -0.68,2.532 -0.895,3.84"
         style="fill:#d61a35;fill-opacity:1;fill-rule:nonzero;stroke:none"
         id="path156" /><path
         d="m 111.684,172.516 c 1.199,1.316 2.242,2.82 3.074,4.394 0.332,-1.047 0.808,-2.062 0.898,-3.195 -0.328,-1.309 -1.133,-2.442 -1.851,-3.613 l -2.121,2.414"
         style="fill:#d61a35;fill-opacity:1;fill-rule:nonzero;stroke:none"
         id="path158" /><path
         d="m 89.543,163.93 c -0.4492,3.527 -0.418,7.941 2.6836,10.265 3.1054,-3.644 8.2614,-3.879 12.6794,-4.093 -0.297,-3.094 -0.621,-6.211 -0.801,-9.305 -5.0112,-0.742 -10.4136,0.086 -14.562,3.133"
         style="fill:#d61a35;fill-opacity:1;fill-rule:nonzero;stroke:none"
         id="path160" /><path
         d="m 105.988,173.324 1.61,0.957 c 0.234,-1.277 0.562,-2.558 0.98,-3.816 -1.008,-0.813 -2.086,-1.555 -3.191,-2.219 0.121,1.711 0.355,3.41 0.601,5.078"
         style="fill:#d61a35;fill-opacity:1;fill-rule:nonzero;stroke:none"
         id="path162" /><path
         d="m 116.07,172.816 c 0.45,-1.16 1.11,-2.293 1.34,-3.582 -0.23,-1.367 -1.129,-2.5 -1.961,-3.574 -0.57,1.102 -1.109,2.176 -1.644,3.289 0.84,1.242 1.617,2.52 2.265,3.867"
         style="fill:#d61a35;fill-opacity:1;fill-rule:nonzero;stroke:none"
         id="path164" /><path
         d="m 160.387,172.582 c 2.902,-0.535 5.609,-1.668 8.386,-2.656 8.45,-3.164 16.774,-6.688 24.895,-10.625 2.656,-1.336 5.398,-2.598 7.793,-4.383 -4.867,-0.215 -9.766,-0.93 -14.152,-3.105 -3.075,-1.465 -5.911,-3.731 -7.461,-6.809 -0.832,3.195 -2.446,6.086 -4.114,8.926 -4.179,6.886 -9.078,13.488 -15.347,18.652"
         style="fill:#d61a35;fill-opacity:1;fill-rule:nonzero;stroke:none"
         id="path166" /><path
         d="m 108.992,169.809 c 0.543,0.918 1.496,1.515 2.274,2.218 l 2.175,-2.394 c -0.89,-1.258 -1.972,-2.363 -3.132,-3.348 -0.59,1.102 -1.196,2.266 -1.317,3.524"
         style="fill:#d61a35;fill-opacity:1;fill-rule:nonzero;stroke:none"
         id="path168" /><path
         d="m 105.328,167.418 c 0.957,0.75 2.059,1.348 3.012,2.059 0.387,-1.231 0.836,-2.422 1.437,-3.582 -0.933,-0.618 -1.875,-1.192 -2.832,-1.731 -0.574,1.047 -1.886,1.992 -1.617,3.254"
         style="fill:#d61a35;fill-opacity:1;fill-rule:nonzero;stroke:none"
         id="path170" /><path
         d="m 155.137,169.234 c 2.386,-1.582 4.355,-3.632 6.41,-5.597 6.242,-6.317 12.476,-12.657 17.887,-19.707 -4.93,0.156 -10.27,0.683 -14.75,-1.766 -1.848,-1.191 -3.192,-3.047 -5.192,-3.996 0.598,3.574 0.094,7.227 -0.269,10.781 -0.899,6.856 -2.032,13.692 -4.086,20.285"
         style="fill:#d61a35;fill-opacity:1;fill-rule:nonzero;stroke:none"
         id="path172" /><path
         d="m 113.324,168.402 c 0.602,-1.093 1.168,-2.207 1.676,-3.308 -0.922,-1.028 -1.91,-1.973 -2.984,-2.844 -0.418,1.203 -0.844,2.414 -1.258,3.613 l 2.566,2.539"
         style="fill:#d61a35;fill-opacity:1;fill-rule:nonzero;stroke:none"
         id="path174" /><path
         d="m 115.59,164.789 c 0.894,1.106 1.707,2.336 2.359,3.613 0.602,-1.074 1.289,-2.089 2.055,-3.074 -1.066,-0.683 -2.113,-1.398 -3.188,-2.121 l -1.226,1.582"
         style="fill:#d61a35;fill-opacity:1;fill-rule:nonzero;stroke:none"
         id="path176" /><path
         d="m 105.117,165.621 1.254,-1.73 -1.433,-0.555 z"
         style="fill:#d61a35;fill-opacity:1;fill-rule:nonzero;stroke:none"
         id="path178" /><path
         d="m 107.148,163.539 c 1.047,0.598 2.055,1.231 3.071,1.875 0.449,-1.18 0.894,-2.41 1.285,-3.633 l -2.512,-1.914 c -0.797,1.106 -1.394,2.363 -1.844,3.672"
         style="fill:#d61a35;fill-opacity:1;fill-rule:nonzero;stroke:none"
         id="path180" /><path
         d="m 145.918,157.086 c 1.133,2.84 2.18,5.762 3.812,8.367 3.411,-8.875 6.696,-17.82 8.809,-27.07 -4.027,2.832 -9.367,4.082 -14.086,2.265 -2.058,-0.683 -3.64,-2.265 -4.746,-4.089 1.129,7.078 3.703,13.847 6.211,20.527"
         style="fill:#d61a35;fill-opacity:1;fill-rule:nonzero;stroke:none"
         id="path182" /><path
         d="m 112.344,161.656 c 0.953,0.867 1.879,1.766 2.832,2.625 l 1.137,-1.394 c -1.043,-0.871 -2.09,-1.68 -3.168,-2.512 l -0.801,1.281"
         style="fill:#d61a35;fill-opacity:1;fill-rule:nonzero;stroke:none"
         id="path184" /><path
         d="m 89.0938,151.422 c -2.8907,3.32 -3.0196,8.808 0.0312,12.09 4.207,-3.223 9.7852,-3.996 14.953,-3.399 -0.125,-2.843 -0.269,-5.715 0.235,-8.515 -3.247,-1.875 -7.0942,-2.813 -10.8364,-2.149 -1.5782,0.332 -3.3086,0.684 -4.3828,1.973"
         style="fill:#d61a35;fill-opacity:1;fill-rule:nonzero;stroke:none"
         id="path186" /><path
         d="m 118.762,157.984 c 4.652,2.43 9.484,4.774 14.711,5.555 -3.071,-6.269 -6.477,-12.449 -8.535,-19.16 l -0.067,1.309 c -3.367,-1.583 -6.414,-3.758 -9.008,-6.387 0,2.929 0,5.832 -0.027,8.75 -4.273,-0.84 -8.656,-1.043 -12.988,-0.867 4.629,4.48 10.297,7.734 15.914,10.8"
         style="fill:#d61a35;fill-opacity:1;fill-rule:nonzero;stroke:none"
         id="path188" /><path
         d="m 104.844,162.699 1.738,0.598 c 0.481,-1.367 1.106,-2.688 1.91,-3.879 -1.254,-0.898 -2.535,-1.797 -3.914,-2.566 0.031,1.941 0.149,3.906 0.266,5.847"
         style="fill:#d61a35;fill-opacity:1;fill-rule:nonzero;stroke:none"
         id="path190" /><path
         d="m 126.367,144.379 c 3.918,6.445 8.449,12.766 14.469,17.402 -2.262,-8.515 -2.176,-17.429 -1.848,-26.179 -3.578,3.816 -9.996,4.324 -13.965,0.808 -0.332,2.707 -0.265,5.645 1.344,7.969"
         style="fill:#d61a35;fill-opacity:1;fill-rule:nonzero;stroke:none"
         id="path192" /><path
         d="m 108.695,158.793 c 1.047,0.812 2.125,1.641 3.2,2.453 l 0.746,-1.281 c -0.957,-0.848 -1.942,-1.707 -2.899,-2.606 l -1.047,1.434"
         style="fill:#d61a35;fill-opacity:1;fill-rule:nonzero;stroke:none"
         id="path194" /><path
         d="m 106.492,157.27 1.668,1.164 1.11,-1.524 -2.032,-1.875 -0.746,2.235"
         style="fill:#d61a35;fill-opacity:1;fill-rule:nonzero;stroke:none"
         id="path196" /><path
         d="m 66.9844,157.027 c 2.6211,-0.304 4.5586,-3.125 4.1719,-5.703 -0.418,-1.152 -1.2266,-2.179 -2.1485,-3.008 -1.9375,2.247 -3.9687,5.938 -2.0234,8.711"
         style="fill:#d61a35;fill-opacity:1;fill-rule:nonzero;stroke:none"
         id="path198" /><path
         d="m 104.578,156.02 1.289,0.89 1.047,-2.383 -2.094,-2.382 c -0.175,1.269 -0.242,2.597 -0.242,3.875"
         style="fill:#d61a35;fill-opacity:1;fill-rule:nonzero;stroke:none"
         id="path200" /><path
         d="m 69.3359,147.691 c 1.0743,0.965 1.6719,2.352 2.6875,3.34 2.4141,0.098 4.6485,-1.633 5.5469,-3.847 -0.7734,-1.496 -1.4609,-3.079 -2.0508,-4.661 -2.3359,1.379 -4.4257,3.137 -6.1836,5.168"
         style="fill:#d61a35;fill-opacity:1;fill-rule:nonzero;stroke:none"
         id="path202" /><path
         d="m 92.6484,149 c 3.6914,-0.918 7.5706,-0.117 10.9806,1.465 -0.754,-1.231 -1.438,-2.512 -1.914,-3.879 1.254,-0.059 2.508,-0.086 3.765,-0.106 -1.851,-3.566 -3.253,-8.195 -0.808,-11.867 -3.313,-1.367 -4.453,-5.273 -3.258,-8.465 -1.6718,0.118 -3.5468,-0.39 -5.0117,0.653 -2.6875,1.855 -4.8867,4.66 -5.5117,7.91 -0.2695,1.309 0.3242,2.805 -0.5156,3.977 -1.1641,1.816 -2.2656,3.75 -2.7461,5.898 -0.3828,1.941 0.418,4.09 2.0625,5.195 1.0156,-0.058 1.9297,-0.566 2.957,-0.781"
         style="fill:#d61a35;fill-opacity:1;fill-rule:nonzero;stroke:none"
         id="path204" /><path
         d="m 47.0703,149.965 c 0.9844,-0.449 1.8281,-1.18 2.207,-2.207 -1.5781,-2.031 -4.1171,-3.379 -6.7421,-2.664 2.3242,0.683 4.0312,2.508 4.5351,4.871"
         style="fill:#d61a35;fill-opacity:1;fill-rule:nonzero;stroke:none"
         id="path206" /><path
         d="m 78.3164,147.094 c 1.0781,0.918 2.625,0.265 3.6484,-0.379 2.7149,-1.477 2.4415,-5.059 2.1758,-7.637 -2.8359,0.586 -5.5273,1.719 -8.0547,3.086 0.6172,1.688 1.2149,3.438 2.2305,4.93"
         style="fill:#d61a35;fill-opacity:1;fill-rule:nonzero;stroke:none"
         id="path208" /><path
         d="m 106.371,146.441 c 2.922,0.204 5.879,0.274 8.781,0.868 0.176,-3.262 0.051,-6.485 0.051,-9.735 2.477,2.949 5.586,5.379 9.016,7.11 0.023,-1.641 0.023,-3.262 -0.125,-4.903 -0.985,-0.304 -2.028,-0.48 -2.981,-0.898 l -1.254,-2.629 -2.179,0.664 c -0.864,-0.594 -0.985,-1.727 -1.313,-2.656 l -2.082,-1.016 c -0.988,0.422 -2.035,1.133 -3.113,0.684 l -1.008,-1.973 c -2.652,0.754 -5.375,2.481 -6.004,5.344 -0.594,3.164 0.418,6.551 2.211,9.14"
         style="fill:#d61a35;fill-opacity:1;fill-rule:nonzero;stroke:none"
         id="path210" /><path
         d="m 84.375,145.512 2.4219,0.754 c 0.1758,-2.989 1.582,-5.676 3.1601,-8.196 -1.7578,0.168 -3.4882,0.45 -5.2187,0.793 0.5,2.196 -0.0586,4.442 -0.3633,6.649"
         style="fill:#d61a35;fill-opacity:1;fill-rule:nonzero;stroke:none"
         id="path212" /><path
         d="m 121.203,138.199 c 0.926,0.508 2,0.633 2.988,0.957 0.086,-1.105 0.18,-2.218 0.297,-3.281 l -1.789,-2.305 c -2.121,0.059 -2.629,3.223 -1.496,4.629"
         style="fill:#d61a35;fill-opacity:1;fill-rule:nonzero;stroke:none"
         id="path214" /><path
         d="m 121.535,132.523 c 2.742,0.579 3.457,3.918 6.082,4.864 0.094,-2.617 0.035,-5.274 -0.711,-7.813 -0.453,-1.699 -2,-2.949 -2.035,-4.804 -0.203,-2.176 0.777,-4.2 1.258,-6.27 -0.301,-3.133 -1.793,-6.016 -3.313,-8.75 -1.878,3.977 -4.238,7.891 -4.476,12.395 -3.965,-5.098 -8.688,-9.493 -13.25,-14.063 -3.61,-3.574 -5.6642,-8.3515 -6.9259,-13.1836 2.9879,-2.0039 6.8949,-0.8593 9.8789,-2.5976 -0.531,-1.3672 -0.777,-2.8711 -0.383,-4.2969 -2.84,-1.3672 -6.476,-0.4687 -8.7186,1.6406 -1.6953,1.4063 -4.0547,2.2461 -6.2656,1.5821 -1.3438,-0.3633 -2.332,-1.5547 -3.7031,-1.875 -1.9063,-0.2149 -3.7344,0.8007 -5.6368,0.5273 -1.8867,-0.1094 -3.4921,-1.1328 -4.9257,-2.2578 -2.5977,-1.7969 -6.3282,-2.9297 -9.1954,-1.1406 0.8086,1.5625 0.0899,3.1914 -1.582,3.6406 v 1.6797 c 1.6445,1.2812 4.0039,2.6875 6.0938,1.5351 1.25,-0.6836 2.6797,-0.8906 4.0859,-0.9765 l 0.0352,0.5937 c -1.4102,0.1289 -2.8086,0.3828 -4.0625,1.086 -2.3008,1.0937 -4.7188,-0.4883 -6.625,-1.7383 l -0.8086,0.2422 c 0.8711,1.0937 1.0468,2.539 0.0312,3.6328 l 1.5508,1.7109 c 2.207,-0.1289 4.207,-1.4062 6.4453,-1.2304 3.7891,0.1562 7.2539,1.8554 10.9531,2.5976 3.6758,0.8281 6.2891,3.7971 8.6524,6.5431 0.5078,-0.871 0.957,-2.188 2.1836,-2.149 1.3437,0.106 2.4101,1.153 2.9531,2.325 3.8199,7.812 8.0269,15.429 11.4839,23.398 1.262,-1.289 1.079,-3.976 3.168,-4.297 1.969,0.379 1.676,2.86 1.344,4.356 l 2.594,1.218 c 1.879,-1.015 2.328,1.407 3.824,1.875"
         style="fill:#d61a35;fill-opacity:1;fill-rule:nonzero;stroke:none"
         id="path216" /><path
         d="m 117.617,136.109 2.363,-0.507 1.254,-2.383 -2.445,-2.207 c -2.269,0.593 -1.914,3.426 -1.172,5.097"
         style="fill:#d61a35;fill-opacity:1;fill-rule:nonzero;stroke:none"
         id="path218" /><path
         d="m 102.105,126.527 c -1.406,2.813 0,6.485 2.985,7.59 1.465,-1.496 3.457,-2.16 5.312,-3.047 -0.507,-2.363 -1.793,-4.414 -2.687,-6.632 -2.027,0.039 -4.117,0.656 -5.61,2.089"
         style="fill:#d61a35;fill-opacity:1;fill-rule:nonzero;stroke:none"
         id="path220" /><path
         d="m 111.445,133.422 2.36,-0.594 c -0.211,-0.957 -1.02,-2.207 -0.059,-2.98 1.254,-0.957 1.406,-3.075 0.27,-4.16 -1.407,-0.059 -1.52,1.738 -2.063,2.667 -0.898,1.454 -1.617,3.543 -0.508,5.067"
         style="fill:#d61a35;fill-opacity:1;fill-rule:nonzero;stroke:none"
         id="path222" /><path
         d="m 114.078,130.113 c -0.664,1.551 0.828,3.047 2.203,3.516 l 0.864,-2.617 c -0.954,-0.449 -1.969,-1.145 -3.067,-0.899"
         style="fill:#d61a35;fill-opacity:1;fill-rule:nonzero;stroke:none"
         id="path224" /><path
         d="m 101.93,125.688 c 1.636,-1.004 3.457,-1.727 5.398,-1.934 -0.543,-1.16 -1.105,-2.324 -1.703,-3.465 -1.547,0.215 -3.191,0.516 -4.559,1.348 -0.695,1.375 0.383,2.773 0.864,4.051"
         style="fill:#d61a35;fill-opacity:1;fill-rule:nonzero;stroke:none"
         id="path226" /><path
         d="m 99.4531,119.965 c 1.7539,1.672 3.8749,-0.235 5.8399,-0.332 -1.16,-2.207 -2.086,-4.57 -3.492,-6.621 -3.3674,-0.321 -5.3987,5.129 -2.3479,6.953"
         style="fill:#d61a35;fill-opacity:1;fill-rule:nonzero;stroke:none"
         id="path228" /><path
         d="m 94.7617,109.516 c 0.1485,2.129 1.6094,3.769 3.3164,4.875 0.8946,-1.106 2.0549,-1.953 3.4609,-2.188 -1.051,-2.051 -2.0273,-4.121 -3.0781,-6.144 -0.5312,-0.926 -1.5468,-2.032 -2.7187,-1.707 -1.6094,1.171 -1.0703,3.476 -0.9805,5.164"
         style="fill:#d61a35;fill-opacity:1;fill-rule:nonzero;stroke:none"
         id="path230" /><path
         d="m 62.2852,101.578 c 1.1445,2.93 5.1132,2.625 7.1093,0.848 l -0.9843,-1.895 c -1.1407,-0.379 -1.8516,0.742 -2.7461,1.203 -1.0469,0.711 -2.2969,0.145 -3.3789,-0.156"
         style="fill:#d61a35;fill-opacity:1;fill-rule:nonzero;stroke:none"
         id="path232" /><path
         d="m 58.1172,92.9922 c 1.1875,2.8633 4.8047,3.6055 7.5469,2.8047 1.2265,-0.6641 0.8945,-2.1211 0.0312,-2.9297 -2.4492,0.8984 -5.1055,0.9844 -7.5781,0.125"
         style="fill:#d61a35;fill-opacity:1;fill-rule:nonzero;stroke:none"
         id="path234" /><path
         d="m 108.492,91.9492 c 2.446,0.0196 4.863,-1.4961 5.313,-4.0039 -1.735,1.1016 -3.821,1.336 -5.762,0.6524 0,1.1328 0.152,2.2461 0.449,3.3515"
         style="fill:#d61a35;fill-opacity:1;fill-rule:nonzero;stroke:none"
         id="path236" /><path
         d="m 66.4414,89.4102 c 1.3711,0.3593 3.043,-0.7227 2.3516,-2.2657 -2.3516,0.1758 -4.4453,-1.0468 -6.2305,-2.4726 0.5078,2.0234 1.6367,4.289 3.8789,4.7383"
         style="fill:#d61a35;fill-opacity:1;fill-rule:nonzero;stroke:none"
         id="path238" /><path
         d="m 208.945,84.3906 c 0.625,2.0313 2.004,4.1211 4.239,4.5313 1.461,0.3594 2.629,-0.9375 2.953,-2.2266 -2.539,-0.2461 -4.922,-1.1719 -7.192,-2.3047"
         style="fill:#d61a35;fill-opacity:1;fill-rule:nonzero;stroke:none"
         id="path240" /><path
         d="m 208.945,84.3906 c 2.27,1.1328 4.653,2.0586 7.192,2.3047 -0.324,1.2891 -1.492,2.586 -2.953,2.2266 -2.235,-0.4102 -3.614,-2.5 -4.239,-4.5313 z M 66.4414,89.4102 c -2.2422,-0.4493 -3.3711,-2.7149 -3.8789,-4.7383 1.7852,1.4258 3.8789,2.6484 6.2305,2.4726 0.6914,1.543 -0.9805,2.625 -2.3516,2.2657 m 68.6136,-3.2227 c 1.582,1.7266 3.851,2.2344 6.113,1.9922 0.387,1.4922 -1.098,2.4219 -2.387,2.4883 -2.414,0.1953 -4.242,-2.1563 -3.726,-4.4805 m 117.554,4.9805 c -0.683,-0.8985 -1.105,-1.9453 -1.07,-3.0782 2.113,0.293 4.234,-0.2343 6.02,-1.3359 -0.743,2.207 -2.539,4.1797 -4.95,4.4141 m -75.328,-3.5469 c 2.242,1.3672 4.926,1.0078 6.922,-0.6055 -0.715,2.9024 -3.871,3.586 -6.351,4.1797 -0.868,-1.0156 -1.079,-2.3633 -0.571,-3.5742 m -68.789,4.3281 c -0.297,-1.1054 -0.449,-2.2187 -0.449,-3.3515 1.941,0.6836 4.027,0.4492 5.762,-0.6524 -0.45,2.5078 -2.867,4.0235 -5.313,4.0039 m -50.3748,1.043 c 2.4726,0.8594 5.1289,0.7734 7.5781,-0.125 0.8633,0.8086 1.1953,2.2656 -0.0312,2.9297 -2.7422,0.8008 -6.3594,0.0586 -7.5469,-2.8047 M 202.891,92.8477 c 1.726,1.4531 4.023,1.5117 6.207,1.3359 -0.032,1.1055 -0.328,2.1484 -0.961,3.0391 -2.207,-0.7735 -4.715,-1.8555 -5.246,-4.375 M 128.879,94 c 1.457,0.957 3.133,1.8828 4.945,1.3164 1.586,-0.4492 2.004,2.0313 1.047,2.7734 -2.66,0.4493 -5.164,-1.6796 -5.992,-4.0898 m -58.7657,8.75 c 0.4414,-2.004 -1.2852,-3.1641 -3.1055,-3.0195 l 0.5352,-1.1602 c 1.582,-0.2148 3.1328,-0.5781 4.6289,-1.0742 3.2539,-0.7227 6.4765,0.4961 9.5195,1.4922 -2.0859,0.4492 -4.2695,0.8008 -6.1211,1.9067 -1.6914,0.918 -3.4883,1.882 -5.457,1.855 m -7.8281,-1.172 c 1.082,0.301 2.332,0.867 3.3789,0.156 0.8945,-0.461 1.6054,-1.582 2.7461,-1.203 l 0.9843,1.895 c -1.9961,1.777 -5.9648,2.082 -7.1093,-0.848 m 103.6528,0.508 c 1.253,-1.047 2.804,-2.1212 4.542,-1.816 1.348,0.175 2.262,1.257 3.071,2.246 -1.164,0.644 -2.184,1.492 -3.102,2.41 -2.008,0.129 -3.941,-0.84 -4.511,-2.84 m 39.367,0.723 c 1.875,0.839 3.968,0.566 5.789,-0.293 0.629,0.644 1.64,1.785 0.566,2.558 -2.265,0.957 -5.433,0.235 -6.355,-2.265 m -71.512,1.609 c 1.945,1.164 4.512,1.516 6.043,-0.516 l 0.352,2.813 c -2.274,1.191 -5.528,0.262 -6.395,-2.297 m 7.402,0.637 c 0.09,-1.094 -1.097,-1.446 -1.82,-1.946 1.555,-1.492 3.766,-1.648 5.707,-2.214 2.027,-0.598 3.606,-2.1098 4.648,-3.9067 1.887,0.957 3.739,1.9023 5.555,2.8906 -3.101,0.8091 -6.297,2.0391 -8.445,4.5701 -1.16,1.524 -2.863,2.781 -4.711,3.34 -1.5,-0.09 -0.934,-1.789 -0.934,-2.734 m 95.508,4.101 c -1.312,-0.898 -2.57,-2.324 -2,-4.054 0.059,-1.961 2.75,-2.774 4.059,-1.493 1.394,1.336 1.785,3.348 2.234,5.137 -1.43,-0.664 -2.984,-0.43 -4.293,0.41 m -65.988,-3.488 c 0.984,-1.219 2.473,-2.957 4.207,-2.09 2.687,1.203 5.043,2.902 7.465,4.551 -2.332,0.578 -4.75,0.832 -7.137,1.152 -2.148,0.508 -4.566,-1.375 -4.535,-3.613 m -75.9533,3.848 c -0.0898,-1.688 -0.6289,-3.993 0.9805,-5.164 1.1719,-0.325 2.1875,0.781 2.7187,1.707 1.0508,2.023 2.0271,4.093 3.0781,6.144 -1.406,0.235 -2.5663,1.082 -3.4609,2.188 -1.707,-1.106 -3.1679,-2.746 -3.3164,-4.875 m 87.7153,6.777 c -0.782,-3.047 -3.168,-5.281 -6,-6.504 2.175,-0.359 4.418,-0.594 6.531,-1.172 1.527,1.555 3.59,3.117 3.707,5.403 -0.391,1.894 -2.715,2.039 -4.238,2.273 m 54.91,-1.191 c -0.477,-1.727 -0.864,-3.602 -0.117,-5.352 0.984,-1.309 3.519,-1.043 3.972,0.664 0.5,2.149 0.531,4.395 0.828,6.563 -1.25,-1.211 -2.925,-1.844 -4.683,-1.875 m -62.582,2.265 c -0.571,-2.449 -2.75,-3.875 -4.657,-5.254 1.344,-2.293 4.418,-2.41 6.625,-1.406 2.508,0.938 4.301,3.137 5.075,5.656 -2.36,0.02 -4.746,0.321 -7.043,1.004 m -15.164,-0.476 c 0.656,-2.832 3.738,-3.821 6.328,-4.004 1.609,-0.051 3.5,-0.645 4.867,0.457 1.461,1.074 2.988,2.324 3.305,4.179 -1.578,0.782 -3.067,1.79 -4.262,3.137 -2.805,-2.539 -6.68,-3.058 -10.238,-3.769 m -60.1879,3.074 c -3.0508,-1.824 -1.0195,-7.274 2.3479,-6.953 1.406,2.051 2.332,4.414 3.492,6.621 -1.965,0.097 -4.086,2.004 -5.8399,0.332 m 137.0079,3.019 c -0.332,-2.355 -0.152,-4.894 1.016,-7.023 1.668,-0.496 3.765,0.598 4.382,2.238 0.094,2.012 -0.382,3.946 -0.648,5.918 -1.348,-1.074 -3.082,-1.222 -4.75,-1.133 m -134.531,2.704 c -0.481,-1.278 -1.559,-2.676 -0.864,-4.051 1.368,-0.832 3.012,-1.133 4.559,-1.348 0.598,1.141 1.16,2.305 1.703,3.465 -1.941,0.207 -3.762,0.93 -5.398,1.934 m 50.312,-0.918 c 0.121,-3.79 3.852,-6.329 7.192,-7.188 3.492,0.449 7.343,1.106 10.035,3.586 -1.168,2.09 -1.289,4.461 -1.41,6.805 -3.848,2.023 -8.536,1.75 -12.774,1.875 -1.433,-1.375 -3.254,-2.871 -3.043,-5.078 m 81.024,2.304 c 0.75,-2.871 5.734,-5.047 7.613,-1.98 -0.535,2.898 -2.031,5.613 -4.203,7.617 -1.051,-1.914 -2.184,-3.82 -3.41,-5.637 m -119.188,3.039 c 1.098,-0.246 2.113,0.45 3.067,0.899 l -0.864,2.617 c -1.375,-0.469 -2.867,-1.965 -2.203,-3.516 m -2.633,3.309 c -1.109,-1.524 -0.39,-3.613 0.508,-5.067 0.543,-0.929 0.656,-2.726 2.063,-2.667 1.136,1.085 0.984,3.203 -0.27,4.16 -0.961,0.773 -0.152,2.023 0.059,2.98 l -2.36,0.594 m -9.34,-6.895 c 1.493,-1.433 3.583,-2.05 5.61,-2.089 0.894,2.218 2.18,4.269 2.687,6.632 -1.855,0.887 -3.847,1.551 -5.312,3.047 -2.985,-1.105 -4.391,-4.777 -2.985,-7.59 m 127.52,9.551 c -0.121,-2.683 -0.59,-5.457 -2.184,-7.695 1.594,-0.879 3.532,-1.434 5.293,-0.77 1.461,1.582 2.329,3.633 3.426,5.508 -1.965,1.406 -4.234,2.274 -6.535,2.957 m -112.008,0.031 c -0.742,-1.671 -1.097,-4.504 1.172,-5.097 l 2.445,2.207 -1.254,2.383 -2.363,0.507 m 3.918,-3.586 c -1.496,-0.468 -1.945,-2.89 -3.824,-1.875 l -2.594,-1.218 c 0.332,-1.496 0.625,-3.977 -1.344,-4.356 -2.089,0.321 -1.906,3.008 -3.168,4.297 -3.457,-7.969 -7.664,-15.586 -11.4839,-23.398 -0.543,-1.172 -1.6094,-2.219 -2.9531,-2.325 -1.2266,-0.039 -1.6758,1.278 -2.1836,2.149 -2.3633,-2.746 -4.9766,-5.715 -8.6524,-6.5431 -3.6992,-0.7422 -7.164,-2.4414 -10.9531,-2.5976 -2.2383,-0.1758 -4.2383,1.1015 -6.4453,1.2304 l -1.5508,-1.7109 c 1.0156,-1.0938 0.8399,-2.5391 -0.0312,-3.6328 l 0.8086,-0.2422 c 1.9062,1.25 4.3242,2.832 6.625,1.7383 1.2539,-0.7032 2.6523,-0.9571 4.0625,-1.086 l -0.0352,-0.5937 c -1.4062,0.0859 -2.8359,0.2929 -4.0859,0.9765 -2.0899,1.1524 -4.4493,-0.2539 -6.0938,-1.5351 v -1.6797 c 1.6719,-0.4492 2.3906,-2.0781 1.582,-3.6406 2.8672,-1.7891 6.5977,-0.6563 9.1954,1.1406 1.4336,1.125 3.039,2.1484 4.9257,2.2578 1.9024,0.2734 3.7305,-0.7422 5.6368,-0.5273 1.3711,0.3203 2.3593,1.5117 3.7031,1.875 2.2109,0.664 4.5703,-0.1758 6.2656,-1.5821 2.2426,-2.1093 5.8786,-3.0078 8.7186,-1.6406 -0.394,1.4258 -0.148,2.9297 0.383,4.2969 -2.984,1.7383 -6.891,0.5937 -9.8789,2.5976 1.2617,4.8321 3.3159,9.6096 6.9259,13.1836 4.562,4.57 9.285,8.965 13.25,14.063 0.238,-4.504 2.598,-8.418 4.476,-12.395 1.52,2.734 3.012,5.617 3.313,8.75 -0.481,2.07 -1.461,4.094 -1.258,6.27 0.035,1.855 1.582,3.105 2.035,4.804 0.746,2.539 0.805,5.196 0.711,7.813 -2.625,-0.946 -3.34,-4.285 -6.082,-4.864 m 100.274,5.383 c -0.364,-3.039 -1.696,-5.949 -3.907,-8.097 2.473,-2 6.235,-2.586 9.008,-0.887 1.738,1.992 1.942,4.832 2.059,7.332 -2.383,0.578 -4.774,1.133 -7.16,1.652 m -65.063,-6.691 -1.312,-0.535 c 4.296,-0.481 8.839,-0.188 12.867,-1.973 0.472,3.106 1.609,6.063 3.043,8.867 l -2.715,0.77 c -2.543,-4.051 -7.047,-6.953 -11.883,-7.129 m -28.469,6.445 c 0.028,-2.949 0.028,-5.996 -0.953,-8.836 -0.445,-1.34 -1.644,-2.383 -1.793,-3.84 -0.207,-2.058 0.477,-4.07 1.199,-5.976 2.415,1.379 5.52,2.629 6.352,5.558 1.191,4.383 0.863,8.985 0.508,13.457 -1.758,0.301 -3.586,0.145 -5.313,-0.363 m -7.074,0.539 c -1.133,-1.406 -0.625,-4.57 1.496,-4.629 l 1.789,2.305 c -0.117,1.063 -0.211,2.176 -0.297,3.281 -0.988,-0.324 -2.062,-0.449 -2.988,-0.957 m 91.055,1.922 c -0.352,-3.504 -2.922,-6.152 -5.016,-8.816 2.211,-1.582 5.016,-2.09 7.668,-1.7 4.09,0.293 5.824,4.961 6.242,8.446 -2.984,0.637 -5.91,1.515 -8.894,2.07 m -72.336,-6.512 c -1.645,1.707 -3.285,3.516 -5.649,4.227 0.266,-5.164 0.868,-10.672 -1.429,-15.477 3.582,-1.046 6.961,1.133 9.754,3.094 1.793,1.379 3.968,2.695 4.543,5.039 0.867,3.352 -0.243,6.809 -1.555,9.883 -3.133,-0.742 -5.727,-3.437 -5.664,-6.766 m 32.074,3.848 c -2.176,-4.18 -4,-9.016 -2.859,-13.769 0.894,-3.547 4.383,-5.637 7.789,-6.231 3.129,-0.793 6.711,0.125 9.519,-1.789 1.344,-0.984 0.957,-2.871 0.118,-4.023 -2.563,-3.817 -6.743,-6.161 -10.743,-8.301 -1.941,-0.508 -2.507,-2.774 -4.328,-3.4377 -1.754,-0.7422 -3.703,-0.0586 -5.133,1.0467 -1.074,1.024 -2.625,0.535 -3.964,0.477 -4.157,-0.235 -7.672,-2.6253 -11.29,-4.473 -3.097,-1.7656 -7.183,-1.289 -10,0.8399 -1.488,1.125 -3.511,1.0664 -5.191,0.3633 0.418,-1.75 -0.383,-3.293 -1.937,-4.0938 1.164,-0.6836 2.355,-1.375 3.554,-2.0312 1.313,0.8906 2.657,1.875 4.297,2.0507 1.313,0.1875 2.266,-1.1601 3.578,-1.0429 2.899,0.039 5.551,1.2968 8.301,2.0898 -0.48,-0.9765 -1.613,-1.1523 -2.512,-1.4961 -1.972,-0.6133 -3.996,-1.2773 -6.086,-1.2187 -1.367,0 -2.418,1.4726 -3.847,0.9648 -1.074,-0.4297 -2.356,-0.8398 -2.985,-1.8633 1.043,-0.4414 2.379,-0.5 3.133,-1.4843 l 0.145,-2.7539 c 1.258,-0.0899 2,1.1406 3.047,1.621 3.191,1.6602 6.836,1.8555 10.336,2.3633 1.757,0.2539 3.601,0.3399 5.265,-0.332 1.473,-0.7344 2.817,0.7109 4.281,0.7109 4.68,0.4493 7.606,-4.7539 12.231,-4.4531 -0.57,1.5352 -0.391,3.1367 0.594,4.4141 -2.692,2.0117 -6.321,0.4883 -9.164,2.2187 1.734,1.0156 3.765,1.2188 5.585,2.0313 9.125,3.3086 16.868,9.9685 21.848,18.2615 3.309,-1.164 6.711,-2.148 10,-3.41 0.238,3.742 -2.453,7.258 -6.152,7.832 -3.914,0.344 -7.399,2.285 -11.071,3.527 -3.527,0.86 -4.417,5.36 -3.617,8.407 0.989,3.34 4.93,4.355 6.328,7.492 -1.339,1.133 -3.125,1.336 -4.8,0.918 -1.731,-0.469 -3.258,0.594 -4.508,1.68 -2.621,-2.395 -6.238,-3.528 -9.762,-3.106 m -25.781,3.133 c 1.699,-4.063 3.039,-9.129 0.152,-12.977 2.149,-0.539 4.711,-0.683 6.559,0.684 2.633,2.539 4.121,5.996 5.433,9.344 -3.367,2.707 -7.937,3.82 -12.144,2.949 m 58.738,2.023 c -0.781,-3.605 -3.68,-6.593 -7.324,-7.363 1.859,-2.422 4.93,-3.789 7.949,-3.789 1.395,-0.07 2.024,1.367 2.824,2.266 1.379,1.972 3.231,3.964 3.078,6.531 -2.265,0.539 -4.472,1.32 -6.527,2.355 m -40.148,-1.105 c -1.547,-0.985 -2.657,-2.586 -4.325,-3.438 -2.628,-0.918 -2.597,-4.226 -4.089,-6.257 6.054,0.117 12.593,4.804 12.711,11.25 -1.489,-0.293 -3.016,-0.684 -4.297,-1.555 m 4.961,1.68 c -0.118,-1.465 -0.426,-2.899 -0.813,-4.305 4.117,-1.602 9.043,-0.949 12.356,2.09 l -1.61,2.304 c -3.316,0.235 -6.664,0.321 -9.933,-0.089 m -85.391,2.324 c 0.3047,-2.207 0.8633,-4.453 0.3633,-6.649 1.7305,-0.343 3.4609,-0.625 5.2187,-0.793 -1.5781,2.52 -2.9843,5.207 -3.1601,8.196 l -2.4219,-0.754 m 21.996,0.929 c -1.793,-2.589 -2.805,-5.976 -2.211,-9.14 0.629,-2.863 3.352,-4.59 6.004,-5.344 l 1.008,1.973 c 1.078,0.449 2.125,-0.262 3.113,-0.684 l 2.082,1.016 c 0.328,0.929 0.449,2.062 1.313,2.656 l 2.179,-0.664 1.254,2.629 c 0.953,0.418 1.996,0.594 2.981,0.898 0.148,1.641 0.148,3.262 0.125,4.903 -3.43,-1.731 -6.539,-4.161 -9.016,-7.11 0,3.25 0.125,6.473 -0.051,9.735 -2.902,-0.594 -5.859,-0.664 -8.781,-0.868 m -28.0546,0.653 c -1.0156,-1.492 -1.6133,-3.242 -2.2305,-4.93 2.5274,-1.367 5.2188,-2.5 8.0547,-3.086 0.2657,2.578 0.5391,6.16 -2.1758,7.637 -1.0234,0.644 -2.5703,1.297 -3.6484,0.379 m -31.2461,2.871 c -0.5039,-2.363 -2.2109,-4.188 -4.5351,-4.871 2.625,-0.715 5.164,0.633 6.7421,2.664 -0.3789,1.027 -1.2226,1.758 -2.207,2.207 M 92.6484,149 c -1.0273,0.215 -1.9414,0.723 -2.957,0.781 -1.6445,-1.105 -2.4453,-3.254 -2.0625,-5.195 0.4805,-2.148 1.582,-4.082 2.7461,-5.898 0.8398,-1.172 0.2461,-2.668 0.5156,-3.977 0.625,-3.25 2.8242,-6.055 5.5117,-7.91 1.4649,-1.043 3.3399,-0.535 5.0117,-0.653 -1.195,3.192 -0.055,7.098 3.258,8.465 -2.445,3.672 -1.043,8.301 0.808,11.867 -1.257,0.02 -2.511,0.047 -3.765,0.106 0.476,1.367 1.16,2.648 1.914,3.879 -3.41,-1.582 -7.2892,-2.383 -10.9806,-1.465 m -23.3125,-1.309 c 1.7579,-2.031 3.8477,-3.789 6.1836,-5.168 0.5899,1.582 1.2774,3.165 2.0508,4.661 -0.8984,2.214 -3.1328,3.945 -5.5469,3.847 -1.0156,-0.988 -1.6132,-2.375 -2.6875,-3.34 m 112.3281,-0.957 c -0.684,-1.074 -1.965,-2.5 -1.039,-3.761 1.008,-1.465 2.23,-2.899 3.965,-3.496 1.437,-0.235 2.902,0.449 4.359,0.156 1.52,-0.215 2.504,-1.582 3.942,-2.031 1.757,-0.536 3.375,-2.09 5.312,-1.493 3.223,0.75 5.488,3.711 6.176,6.844 -3.883,2.383 -6.715,6.445 -7.156,11.035 -5.707,-0.75 -11.793,-2.664 -15.559,-7.254 m -77.086,9.286 c 0,-1.278 0.067,-2.606 0.242,-3.875 l 2.094,2.382 -1.047,2.383 -1.289,-0.89 m -37.5936,1.007 c -1.9453,-2.773 0.0859,-6.464 2.0234,-8.711 0.9219,0.829 1.7305,1.856 2.1485,3.008 0.3867,2.578 -1.5508,5.399 -4.1719,5.703 m 39.5076,0.243 0.746,-2.235 2.032,1.875 -1.11,1.524 -1.668,-1.164 m 2.203,1.523 1.047,-1.434 c 0.957,0.899 1.942,1.758 2.899,2.606 l -0.746,1.281 c -1.075,-0.812 -2.153,-1.641 -3.2,-2.453 m 17.672,-14.414 c -1.609,-2.324 -1.676,-5.262 -1.344,-7.969 3.969,3.516 10.387,3.008 13.965,-0.808 -0.328,8.75 -0.414,17.664 1.848,26.179 -6.02,-4.636 -10.551,-10.957 -14.469,-17.402 m -21.523,18.32 c -0.117,-1.941 -0.235,-3.906 -0.266,-5.847 1.379,0.769 2.66,1.668 3.914,2.566 -0.804,1.191 -1.429,2.512 -1.91,3.879 l -1.738,-0.598 m 13.918,-4.715 c -5.617,-3.066 -11.285,-6.32 -15.914,-10.8 4.332,-0.176 8.715,0.027 12.988,0.867 0.027,-2.918 0.027,-5.821 0.027,-8.75 2.594,2.629 5.641,4.804 9.008,6.387 l 0.067,-1.309 c 2.058,6.711 5.464,12.891 8.535,19.16 -5.227,-0.781 -10.059,-3.125 -14.711,-5.555 m -29.6682,-6.562 c 1.0742,-1.289 2.8046,-1.641 4.3828,-1.973 3.7422,-0.664 7.5894,0.274 10.8364,2.149 -0.504,2.8 -0.36,5.672 -0.235,8.515 -5.1678,-0.597 -10.746,0.176 -14.953,3.399 -3.0508,-3.282 -2.9219,-8.77 -0.0312,-12.09 m 23.2502,10.234 0.801,-1.281 c 1.078,0.832 2.125,1.641 3.168,2.512 l -1.137,1.394 c -0.953,-0.859 -1.879,-1.758 -2.832,-2.625 m 33.574,-4.57 c -2.508,-6.68 -5.082,-13.449 -6.211,-20.527 1.106,1.824 2.688,3.406 4.746,4.089 4.719,1.817 10.059,0.567 14.086,-2.265 -2.113,9.25 -5.398,18.195 -8.809,27.07 -1.632,-2.605 -2.679,-5.527 -3.812,-8.367 m -38.77,6.453 c 0.45,-1.309 1.047,-2.566 1.844,-3.672 l 2.512,1.914 c -0.391,1.223 -0.836,2.453 -1.285,3.633 -1.016,-0.644 -2.024,-1.277 -3.071,-1.875 m -2.031,2.082 -0.179,-2.285 1.433,0.555 -1.254,1.73 m 10.473,-0.832 1.226,-1.582 c 1.075,0.723 2.122,1.438 3.188,2.121 -0.766,0.985 -1.453,2 -2.055,3.074 -0.652,-1.277 -1.465,-2.507 -2.359,-3.613 m -2.266,3.613 -2.566,-2.539 c 0.414,-1.199 0.84,-2.41 1.258,-3.613 1.074,0.871 2.062,1.816 2.984,2.844 -0.508,1.101 -1.074,2.215 -1.676,3.308 m 41.813,0.832 c 2.054,-6.593 3.187,-13.429 4.086,-20.285 0.363,-3.554 0.867,-7.207 0.269,-10.781 2,0.949 3.344,2.805 5.192,3.996 4.48,2.449 9.82,1.922 14.75,1.766 -5.411,7.05 -11.645,13.39 -17.887,19.707 -2.055,1.965 -4.024,4.015 -6.41,5.597 m -49.809,-1.816 c -0.269,-1.262 1.043,-2.207 1.617,-3.254 0.957,0.539 1.899,1.113 2.832,1.731 -0.601,1.16 -1.05,2.351 -1.437,3.582 -0.953,-0.711 -2.055,-1.309 -3.012,-2.059 m 3.664,2.391 c 0.121,-1.258 0.727,-2.422 1.317,-3.524 1.16,0.985 2.242,2.09 3.132,3.348 l -2.175,2.394 c -0.778,-0.703 -1.731,-1.3 -2.274,-2.218 m 51.395,2.773 c 6.269,-5.164 11.168,-11.766 15.347,-18.652 1.668,-2.84 3.282,-5.731 4.114,-8.926 1.55,3.078 4.386,5.344 7.461,6.809 4.386,2.175 9.285,2.89 14.152,3.105 -2.395,1.785 -5.137,3.047 -7.793,4.383 -8.121,3.937 -16.445,7.461 -24.895,10.625 -2.777,0.988 -5.484,2.121 -8.386,2.656 m -44.317,0.234 c -0.648,-1.347 -1.425,-2.625 -2.265,-3.867 0.535,-1.113 1.074,-2.187 1.644,-3.289 0.832,1.074 1.731,2.207 1.961,3.574 -0.23,1.289 -0.89,2.422 -1.34,3.582 m -10.082,0.508 c -0.246,-1.668 -0.48,-3.367 -0.601,-5.078 1.105,0.664 2.183,1.406 3.191,2.219 -0.418,1.258 -0.746,2.539 -0.98,3.816 l -1.61,-0.957 M 89.543,163.93 c 4.1484,-3.047 9.5508,-3.875 14.562,-3.133 0.18,3.094 0.504,6.211 0.801,9.305 -4.418,0.214 -9.574,0.449 -12.6794,4.093 -3.1016,-2.324 -3.1328,-6.738 -2.6836,-10.265 m 22.141,8.586 2.121,-2.414 c 0.718,1.171 1.523,2.304 1.851,3.613 -0.09,1.133 -0.566,2.148 -0.898,3.195 -0.832,-1.574 -1.875,-3.078 -3.074,-4.394 m -3.524,2.265 c 0.215,-1.308 0.512,-2.578 0.895,-3.84 1.047,0.872 2.031,1.848 2.961,2.864 -0.571,1.043 -1.137,2.09 -1.68,3.164 l -2.176,-2.188 m -1.578,2.606 c -0.211,-1.074 -0.359,-2.176 -0.477,-3.25 l 2.09,1.453 -1.613,1.797 m 137.199,2.414 c -1.531,-0.41 -3.293,-1.399 -3.504,-3.106 0.032,-2.148 2.332,-3.242 4.215,-3.351 3.008,-0.164 6.469,0.578 8.442,3.097 -2.293,2.411 -5.731,4.258 -9.153,3.36 m -78.765,-0.137 c 7.875,-3.41 15.187,-7.98 22.386,-12.609 4.653,-3.106 9.313,-6.258 13.512,-9.93 -0.832,2.84 -0.199,5.996 1.941,8.086 3.102,5.937 9.911,8.691 16.297,9.102 -1.582,0.593 -3.254,0.742 -4.894,1.082 -9.52,1.632 -19.063,2.949 -28.649,3.867 -6.839,0.508 -13.781,1.32 -20.593,0.402 m -58.403,-1.379 2.024,-2.117 c 0.898,0.77 1.582,1.699 2.332,2.625 l -1.614,2.629 c -1.074,-0.899 -2.503,-1.621 -2.742,-3.137 m 4.145,-0.781 c 0.508,-1.043 1.078,-2.059 1.644,-3.066 2.004,1.933 2.297,4.738 1.219,7.218 -0.891,-1.437 -1.82,-2.843 -2.863,-4.152 m -17.8127,0.363 c -0.2109,-1.523 -0.4805,-3.586 1.0391,-4.543 3.1992,-2.234 7.2856,-2.449 11.0386,-2.625 0.305,2.606 0.665,5.164 1.082,7.774 -3.738,-0.215 -7.1948,1.687 -9.7339,4.316 -1.5469,-1.25 -3.0977,-2.844 -3.4258,-4.922 m -30.8633,1.582 c -0.4765,-2.238 -1.0117,-4.953 0.75,-6.777 0.5664,2.176 2.4453,3.426 4.2657,4.453 1.6445,0.859 1.9101,2.82 1.9375,4.5 -1.668,-0.488 -2.9219,0.773 -3.7227,2.09 -1.4336,-1.082 -2.9297,-2.422 -3.2305,-4.266 m 47.875,2.5 c 0.234,-0.988 0.922,-1.758 1.426,-2.597 1.281,1.699 2.48,3.769 1.582,5.945 -0.949,-1.133 -2.055,-2.176 -3.008,-3.348 m -1.828,3.887 c -0.379,-1.797 -0.774,-3.586 -1.012,-5.402 1.129,0.918 2.356,1.816 3.254,2.98 0.059,0.957 -0.207,1.883 -0.297,2.84 l -1.945,-0.418 m 2.539,0.984 c 0.066,-0.925 0.184,-1.855 0.328,-2.781 1.406,1.172 2.238,2.801 1.582,4.59 l -1.91,-1.809 m -1.848,1.965 -0.48,-2.336 1.672,0.559 -1.192,1.777 m 130.207,-1.25 c -3.132,-1.281 -5.968,-3.73 -6.953,-7.043 -1.254,-4.304 0.985,-9.219 4.953,-11.219 5.192,-2.714 11.641,-2.363 16.895,0.086 0.508,2.004 0.949,4.739 -0.484,6.321 -3.008,-2.774 -7.782,-3.957 -11.665,-2.285 -2.113,0.886 -3.011,4.05 -1.011,5.546 3.551,3.223 9.133,1.641 12.172,-1.554 2.867,-2.422 2.359,-6.688 0.964,-9.754 -1.589,-3.867 -6.066,-5.149 -9.832,-5.723 -6.41,-0.754 -13.093,-0.637 -19.3,1.367 -7.106,1.688 -14.508,1.278 -21.758,1.239 -2.75,-2.891 -2.031,-7.305 0.211,-10.293 -1.793,0 -3.59,-0.02 -5.348,-0.203 0.363,-3.829 2.481,-7.434 5.617,-9.668 3.098,-2.297 6.918,-3.313 10.684,-3.977 5.008,-1.336 10.144,-2.305 15.187,-3.602 3.727,-0.988 7.614,-2.628 9.817,-5.976 4.062,-6.77 3.972,-15.215 2.301,-22.734 -0.481,-1.915 -1.047,-4.102 -2.774,-5.254 -1.199,-0.813 -2.629,-0.235 -3.82,0.175 -1.617,-2.265 -3.707,-4.4723 -6.531,-5.0113 -2.844,-0.625 -5.582,0.5976 -7.825,2.2383 -2.742,1.426 -4.539,4.051 -6.894,5.965 l -1.973,-0.098 c 0.539,-0.73 1.496,-1.57 0.957,-2.586 -0.566,-0.918 -1.488,-1.574 -2.058,-2.512 3.308,-1.2495 6.531,-2.6245 9.789,-3.9331 l 2.175,-1.5547 c -4.382,1.4062 -9.308,4.5898 -13.937,2.2383 0.926,-1.3203 1.375,-2.9219 0.687,-4.4727 1.735,-0.5664 3.133,0.9844 4.84,0.957 2.473,0 4.981,-0.4492 7.246,-1.4375 -2.265,-1.3671 -5.636,-0.4765 -7.461,-2.9179 1.528,-0.6641 2.563,-1.875 3.012,-3.4375 1.348,0.1758 2.391,1.4062 3.586,2.0508 2.59,1.8945 6.508,3.0742 9.309,1.0234 1.636,-1.1133 3.847,-0.957 5.55,-0.0664 3.348,1.707 7.586,2.0703 10.918,0.125 1.59,-0.6524 2.872,-2.4102 4.719,-2.2149 -0.234,1.5821 0.153,3.1719 1.285,4.336 -1.968,1.0156 -4.148,1.5508 -6.121,2.5664 -0.859,0.9492 -1.429,2.207 -1.91,3.3984 -0.594,1.5625 0.695,2.8714 0.988,4.3364 1.52,7.246 3.461,14.707 2.153,22.179 -0.332,2.371 -1.313,4.59 -1.789,6.942 4.086,-1.493 6.922,-6.778 11.84,-5.371 -0.739,1.992 -2.418,3.398 -4.024,4.66 -7.934,5.847 -16.859,10.117 -25.394,14.91 -4.45,3.801 -7.735,8.867 -12.657,12.148 -1.226,0.899 -2.808,1.028 -4.117,1.711 2.09,0.449 4.027,-0.812 5.641,-2.011 3.875,-3.067 6.918,-7.012 10.437,-10.43 0.696,-0.664 1.465,-1.563 2.539,-1.348 8.477,0.645 16.836,3.309 24.035,7.871 4.465,2.91 8.559,6.746 10.735,11.7 2.597,5.671 1.64,12.832 -2.414,17.546 -5.793,6.067 -15.434,8.176 -23.192,5.051 M 68.2578,189.41 c -0.0898,-2.062 -0.8906,-3.965 -2.0859,-5.625 0.3281,-0.996 1.4609,-2.043 2.5351,-1.445 1.2227,2.148 1.9141,5.398 -0.4492,7.07 m -23.0976,0.301 c 1.3437,-1.25 2.4179,-2.773 3.0195,-4.539 1.2773,-0.059 2.3555,0.664 3.1289,1.648 -1.5195,1.789 -3.6992,3.067 -6.1484,2.891 m 51.6601,-6.328 c 2.2735,-2.715 5.7887,-4.57 9.3707,-4.266 0.481,2.625 0.989,5.281 1.586,7.91 -2.933,0.262 -5.976,1.114 -8.0582,3.309 -1.9415,-1.641 -3.5508,-4.395 -2.8985,-6.953 m -38.5234,5.734 c -0.8946,-2.668 -1.6406,-5.429 -1.461,-8.273 0.0586,-1.758 0.6836,-3.457 0.8321,-5.215 -2.9258,3.039 -2.9571,7.785 -5.6367,11.016 -1.1094,-1.407 -2.754,-2.45 -4.6016,-1.942 -0.332,-0.988 -0.2422,-2.07 0.3867,-2.93 0.9531,-1.425 0.4844,-3.339 1.4609,-4.777 0.9961,-1.66 2.754,-2.539 4.3829,-3.367 -0.5586,-4.934 -0.918,-9.883 -1.668,-14.777 -1.2149,-1.133 -2.1758,-2.469 -2.9492,-3.965 -0.7422,-1.473 -2.5039,-2.032 -3.1641,-3.563 l 2.0274,-1.133 c 1.1953,-0.41 1.6757,-1.64 2.0898,-2.707 2.3867,1.34 1.5781,4.59 3.25,6.465 1.2852,1.496 1.793,3.41 2.8398,5.02 1.9649,-7.696 5.8125,-15.371 12.4727,-20.02 6.6289,-6.687 13.0156,-14.832 13.3125,-24.648 2.5664,2.851 3.9336,6.523 5.1602,10.109 2.9609,1.016 6.0937,1.434 9.2187,1.668 -3.6016,2.578 -6.5586,6.699 -6.082,11.309 -7.668,0.683 -15.4883,3.476 -20.7383,9.289 -2.0899,2.422 -4.0352,5.398 -3.8516,8.719 -0.0312,1.308 1.5821,2.05 1.2774,3.398 -0.5313,4.355 -1.0977,8.945 -3.6602,12.629 -0.6328,0.984 -1.7695,1.629 -1.9805,2.859 -0.7421,3.145 0.75,6.153 0.9883,9.231 0.9258,2.254 1.6758,4.922 -0.0351,7.031 -1.1602,-0.742 -2.4453,-1.426 -3.8711,-1.426 m -2.3047,6.922 c 1.6445,-1.738 2.543,-3.973 2.6875,-6.328 1.1601,0.156 2.1797,0.754 3.1367,1.398 -1.1953,2.344 -3.1875,4.364 -5.8242,4.93 m 44.2578,-5.125 c 1.68,-2.336 4.84,-3.027 7.555,-3.203 0.949,2.48 1.398,5.164 2.386,7.664 -2.503,0.039 -4.711,1.348 -6.593,2.941 -2.481,-1.386 -4.4457,-4.57 -3.348,-7.402 m 9.02,-0.519 c -0.45,-1.133 0.742,-1.961 1.25,-2.86 0.832,0.84 2.175,1.629 1.941,3.008 -0.211,2.812 -0.059,5.645 0.09,8.457 -1.555,-2.687 -2.449,-5.645 -3.281,-8.605 m -0.661,8.3 c -0.679,1.047 -1.281,2.149 -1.847,3.274 -1.34,0.039 -2.684,0.039 -4.067,0.066 0.782,-3.543 4.09,-6.152 7.735,-5.996 0.601,1.465 1.285,2.852 2.066,4.238 l -1.203,2.325 c -0.922,-1.278 -1.758,-2.618 -2.684,-3.907 m 123.883,4.981 c -19.039,-4.531 -38.105,-9.012 -56.91,-14.442 -3.375,-1.046 -6.777,-2.004 -9.973,-3.527 12.711,-0.086 25.371,-1.816 37.789,-4.441 5.938,-1.34 11.965,-2.746 17.426,-5.528 -2.234,3.828 -2.863,8.575 -1.277,12.782 2.613,7.257 9.07,12.238 15.687,15.695 -0.921,-0.11 -1.843,-0.324 -2.742,-0.539 m -138.3865,0.664 -0.4141,-1.348 1.2852,0.363 -0.8711,0.985 m 0.1484,-1.824 c -3.1016,-0.508 -6.293,-0.188 -9.4297,-0.332 0.3867,-2.305 0.5625,-4.825 2.1211,-6.739 -0.3008,-1.797 -0.4219,-3.886 1.0391,-5.215 1.2578,2.645 2.0078,5.477 3.3164,8.086 0.5976,-1.046 1.1289,-2.148 1.668,-3.234 1.7929,5.52 7.9142,8.418 13.4332,7.551 l -1.285,2.508 c -3.883,0.625 -7.3397,-1.465 -10.8631,-2.625 m -27.3359,4.961 c -2.0235,0 -4.1133,0.613 -6.0274,-0.274 0.6875,-1.164 1.3946,-2.305 2.1211,-3.437 7.3633,-0.325 14.7383,-0.657 22.1406,-0.95 l 1.0508,2.051 1.4571,-2.176 1.2226,2.247 0.7774,-2.012 0.7148,0.066 0.8984,2.149 1.461,-2.383 c 0.5078,0.832 0.832,1.758 1.1054,2.707 l 1.7852,-1.789 0.6602,2.668 1.6992,-1.653 0.8984,2.629 1.5192,-1.914 0.899,2.246 c 0.746,-1.289 1.816,-2.207 3.426,-1.855 -0.649,1.348 -1.332,2.656 -2.063,4.004 -11.7734,-2.004 -23.8046,-2.844 -35.746,-2.324 m 18.7695,3.066 1.1992,-1.016 0.5664,1.434 -1.7656,-0.418 m 2.0898,0.625 1.2579,-0.891 0.3242,1.485 -1.5821,-0.594 m 2.0313,0.984 1.1328,-0.859 v 1.262 l -1.1328,-0.403 m 1.8555,1.106 1.2812,-0.957 0.0235,1.765 -1.3047,-0.808 m 1.8476,-2.051 -1.914,1.25 -0.1485,-2.18 -1.5469,0.93 -0.5429,-1.855 -1.4649,0.957 -0.8281,-1.856 c 5.125,0.477 10.2344,0.985 15.3006,1.914 -1.879,2.918 -5.5154,3.875 -8.7693,4.082 -0.0313,-1.066 0,-2.179 -0.086,-3.242 m -45.0351,6.531 c 1.6406,-4.695 4.8593,-8.601 8.2656,-12.117 2.3359,-2.305 4.7773,-4.59 7.7305,-6.066 -1.2774,2.754 -2.8946,5.343 -4.5118,7.941 2.4766,0.84 4.8438,1.981 7.1094,3.289 -6.5156,1.301 -13.1055,3.039 -18.5937,6.953 m 70.1324,-0.508 -1.347,-2.39 c 1.41,-0.41 2.742,-1.152 3.824,-2.18 -1.016,-0.859 -2.094,-1.621 -3.223,-2.293 1.524,-0.722 2.957,-1.758 3.52,-3.41 -1.133,-0.117 -2.27,-0.203 -3.371,-0.293 0.48,-1.668 1.074,-3.348 1.433,-5.039 -1.523,0.598 -2.832,1.602 -4.242,2.48 -0.711,-1.386 -1.879,-2.664 -1.906,-4.304 -0.953,-8.781 0.269,-17.727 3.133,-26.055 1.07,-2.832 2.121,-5.754 4.121,-8.058 2.297,1.281 4.648,2.5 7.222,3.097 -0.39,1.317 -0.867,2.578 -1.32,3.856 -0.625,1.437 0.453,3.039 1.762,3.632 1.621,0.782 3.402,0.254 5.074,-0.144 -0.086,2.812 -2.859,4.004 -5.074,4.902 -2.449,1.004 -3.043,4.11 -2.207,6.407 0.476,0.957 1.644,1.191 2.629,1.082 2.449,-0.36 4.597,-1.7 6.773,-2.813 -0.328,1.856 -0.926,3.672 -2.148,5.117 -1.313,1.614 -3.817,1.543 -4.957,3.36 -1.551,1.886 -0.922,5.41 1.582,6.054 2.449,0.254 4.386,-1.57 6.656,-2.136 -0.09,2.207 -1.039,4.355 -2.75,5.808 -1.281,1.113 -3.246,1.133 -4.406,2.453 l 0.742,2.325 c 1.703,0.957 3.73,0.75 5.609,0.789 -1.402,2.433 -4.175,3.398 -6.652,4.347 -1.289,1.289 -1.883,3.133 -2.871,4.656 -2.387,-1.101 -5.012,-1.492 -7.606,-1.25 m 131.075,-23.457 c 4.144,-0.808 8.382,-0.175 12.504,0.383 1.546,3.563 2.328,7.489 4.355,10.742 -0.449,-2.929 -1.91,-5.578 -2.809,-8.378 -1.132,-3.665 -3.421,-6.954 -4.621,-10.54 1.942,-1.464 3.821,-3.074 5.164,-5.105 1.344,4.031 2.594,8.094 3.938,12.129 1.644,3.906 1.613,8.223 2.265,12.332 l 0.36,-2.051 c -0.328,-2.793 -0.567,-5.633 -1.277,-8.379 l -0.067,-1.855 c 1.973,-3.379 5.133,-5.879 8.652,-7.461 -1.308,3.555 -2.027,7.316 -2.527,11.066 -1.051,7.918 -1.172,15.946 -0.391,23.856 -7.91,-9.473 -16.652,-18.184 -25.546,-26.739 m -23.223,28.704 c -6.559,-2.707 -13.371,-4.739 -19.934,-7.493 -14.172,-5.691 -28.586,-10.8 -42.433,-17.246 -3.078,-1.043 -4.153,-4.441 -5.524,-7.039 -1.91,-5.312 -3.847,-10.801 -7.519,-15.156 -1.528,-1.895 -3.555,-3.41 -5.969,-3.82 -6.391,-1.446 -12.898,-2.364 -19.191,-4.121 -6.418,-2.637 -11.938,-7.039 -16.899,-11.797 -2.078,-2.137 -4.148,-4.356 -5.543,-7.02 6.508,5.117 13.664,9.473 21.278,12.781 3.105,1.262 6.328,2.5 9.726,2.598 -2.836,-6.18 -6.441,-12.09 -8.383,-18.652 3.375,4.746 6.684,9.609 10.828,13.73 1.739,1.641 3.493,3.547 5.946,4.055 -2.008,-1.965 -2.188,-4.883 -2.602,-7.512 -0.679,-5.379 -0.949,-10.808 -0.738,-16.238 2.176,7.879 4.738,15.644 8.055,23.094 0.601,1.25 1.07,2.597 2.113,3.586 l 0.965,-1.289 c 3.187,-8.36 5.996,-16.836 8.441,-25.422 0.293,4.445 -0.422,8.925 -1.019,13.339 -0.985,5.852 -1.844,11.809 -4.055,17.375 1.945,-0.214 3.219,-1.828 4.625,-2.988 7.223,-6.679 13.848,-14.004 20.293,-21.426 -1.551,4.825 -4.449,9.102 -7.277,13.282 -3.555,4.968 -7.407,9.968 -12.508,13.457 l -0.235,0.769 c 1.911,0.129 3.696,-0.683 5.489,-1.191 12.382,-4.297 24.496,-9.492 36.078,-15.606 -1.821,1.907 -4.028,3.399 -6.117,4.981 -9.965,7.012 -20.329,13.703 -31.575,18.418 4.27,1.035 8.715,0.773 13.075,0.656 15.101,-0.781 30.105,-3.047 44.972,-5.734 -5.011,3.047 -10.863,4.199 -16.508,5.617 -13.25,2.851 -26.773,4.648 -40.347,4.648 0.867,1.231 2.332,1.641 3.644,2.176 4.95,1.828 10.024,3.195 15.098,4.629 15.133,4.121 30.355,7.793 45.605,11.398 1.43,0.332 2.895,0.594 4.235,1.141 -2.207,-0.059 -4.352,-0.547 -6.559,-0.84 -19.465,-3.035 -38.953,-6.414 -58.14,-10.918 0.804,1.153 2.144,1.692 3.343,2.356 17.547,9.05 35.481,17.332 53.301,25.847 2.09,1.047 4.328,1.848 6.293,3.137 -1.519,-0.344 -2.887,-0.988 -4.328,-1.562 m 14.328,5.398 c -21.371,-10.078 -42.801,-20.105 -63.957,-30.605 -1.934,-1.043 -3.961,-1.895 -5.758,-3.114 21.969,4.715 44.106,8.77 66.403,11.668 -1.942,1.114 -4.122,2.305 -5.075,4.485 -1.043,2.39 -0.117,5.066 1.133,7.195 3.227,5.207 8.238,8.859 12.77,12.851 -1.907,-0.683 -3.668,-1.667 -5.516,-2.48 m -71.836,-23.094 c -2.094,-2.148 -4.183,-4.289 -5.875,-6.777 15.422,7.109 31.453,12.781 47.207,19.141 -2.086,0.593 -4.328,1.511 -5.332,3.601 -2.004,4.152 -0.547,8.859 0.914,12.93 -12.445,-9.434 -25.812,-17.793 -36.914,-28.895 m -49,25.43 c -1.707,-0.656 -2.988,-1.992 -4.531,-2.93 -0.449,-1.222 -0.695,-2.773 -2.031,-3.371 0.472,1.231 1.101,2.422 1.515,3.664 -5.461,0.34 -10.918,0.586 -16.3513,0.879 -3.5781,0.086 -8.0625,-1.406 -8.6875,-5.441 -1.125,-0.086 -2.2695,-0.176 -3.3984,-0.301 0.7421,-1.242 1.6679,-2.414 2.0273,-3.84 0.3633,-1.523 -0.7188,-3.047 -2.0898,-3.613 0.4453,1.008 1.4023,1.797 1.5546,2.93 -0.1523,1.73 -1.375,3.097 -2.3046,4.503 -7.2774,-0.293 -15.4844,-1.523 -20.3125,-7.617 5.0664,0.274 10.2929,1.563 15.3007,0.098 l 1.8868,0.535 c 1.4921,0.781 0.6835,2.949 1.996,3.867 -0.0625,-2.019 -0.539,-4.285 -2.7226,-5 1.0586,-0.957 1.8516,-2.148 2.3359,-3.496 2.8633,-0.058 5.4571,1.406 7.7266,3.047 l 2.0898,0.918 c 2.4453,-0.203 4.9532,-0.801 6.981,-2.254 1.91,-1.387 2.753,-3.672 3.851,-5.676 1.285,-2.422 2.508,-4.89 3.848,-7.285 0.898,1.223 1.648,2.61 2.597,3.789 l 1.524,-2.48 c 0.75,1.261 1.465,2.539 2.215,3.801 1.187,-0.696 2.324,-1.438 3.519,-2.161 -0.39,1.496 -0.875,2.961 -1.285,4.426 1.106,0.117 2.203,0.203 3.281,0.332 -0.898,1.367 -2.386,2.031 -3.91,2.469 1.07,1.035 2.36,1.797 3.578,2.637 -1.133,0.976 -2.539,1.484 -3.996,1.718 0.598,0.95 1.188,1.907 1.762,2.891 l -2.535,1.172 c 3.433,-0.625 7.133,-1.172 10.328,0.598 -0.035,1.796 0.863,3.515 2.117,4.773 1.969,1.465 4.117,2.656 6.082,4.121 l -1.664,0.246 c 0.109,2.254 0.477,4.52 0.715,6.797 -3.789,-2.805 -8.805,-2.832 -13.012,-4.746 m 37.27,-27.727 c -3.371,-2.605 -6.559,-5.964 -7.313,-10.293 -0.949,-6.296 1.32,-13.339 -2.531,-19.011 4.898,3.164 7.191,8.894 9.281,14.082 1.793,6.367 5.91,11.738 10.414,16.453 9.938,10.351 21.906,18.398 33.489,26.769 2.027,1.551 4.238,2.918 5.929,4.864 -17.394,-9.375 -33.988,-20.364 -49.269,-32.864 m 46.199,31.965 c 1.59,0.86 3.07,1.883 4.777,2.481 -2.242,-4.426 -4.445,-9.414 -3.281,-14.453 0.805,-3.575 5.102,-5.547 8.418,-4.18 10.414,3.523 20.496,7.832 30.68,11.973 2.058,0.769 4.019,1.882 6.175,2.363 -1.015,-1.348 -2.539,-2.129 -3.824,-3.203 -4.359,-3.457 -8.769,-7.012 -11.902,-11.66 -1.469,-2.18 -2.692,-5.129 -1.289,-7.61 1.469,-2.664 4.539,-3.523 7.066,-4.773 -7.211,-2.461 -14.195,-6.692 -18.285,-13.321 -2.473,-3.847 -3.519,-8.839 -1.879,-13.253 0.719,-2.176 2.238,-3.934 3.492,-5.782 -7.281,1.699 -16.211,-1.043 -19.933,-7.851 8.269,0.058 16.738,0.422 24.679,-2.274 5.516,-0.918 11.215,-1.105 16.743,-0.207 3.429,0.598 7.343,2.129 8.507,5.735 -5.531,-2.149 -12.121,-2.512 -17.375,0.605 -4.179,2.41 -6.265,8.047 -4.39,12.559 1.554,3.699 5.172,6.14 8.926,7.187 5.91,1.727 12.39,0.547 17.703,-2.394 1.133,2.363 2.265,4.718 3.398,7.082 -4.39,-0.539 -8.98,-1.321 -13.312,0.027 8.324,8.086 16.714,16.184 24.203,25.098 1.074,1.23 2.027,2.57 3.258,3.672 -0.45,-5.547 -0.864,-11.122 -0.508,-16.707 0.422,-7.071 1.015,-14.329 3.789,-20.95 -4.36,1.309 -8.055,4.446 -10.445,8.293 -1.223,-3.828 -2.446,-7.668 -3.7,-11.465 l -0.09,-2.14 c 1.465,-3.348 2.149,-7.168 1.403,-10.781 -0.836,-4.356 -3.344,-8.172 -6.446,-11.219 -7.941,-7.617 -18.804,-11.438 -29.578,-12.571 7.52,-4.265 15.34,-8.085 22.414,-13.125 2.176,-1.667 4.657,-3.437 5.313,-6.277 -1.375,-0.383 -2.899,-0.683 -4.301,-0.176 -2.801,0.965 -4.746,3.36 -7.285,4.813 2.512,-7.039 2.242,-14.688 0.605,-21.883 -0.628,-2.598 -0.843,-5.273 -1.851,-7.746 -1.348,-2.3907 0.48,-5.7305 3.019,-6.3555 2.325,-0.7539 4.438,-1.9258 6.586,-2.9883 2.239,-1.1133 3.411,-3.6133 3.586,-6.0352 -1.402,1.1407 -2.832,2.4688 -4.742,2.5782 -1.289,0.1953 -2.359,-0.5977 -3.555,-0.8985 -1.675,0.5547 -3.019,1.8164 -4.593,2.5586 -2.692,1.4336 -5.973,1.3477 -8.743,0.2149 -1.558,-0.6368 -3.14,-1.5157 -4.902,-1.2813 -2.058,0.1094 -3.551,2.0703 -5.664,1.8164 -2.961,0.0195 -5.312,-1.9023 -7.644,-3.4961 -1.106,-0.9258 -2.598,-0.4765 -3.883,-0.625 -2.383,-0.2344 -4.477,-1.5508 -6.563,-2.5976 0.203,1.4648 0.571,2.9218 1.489,4.1132 1.109,1.5821 3.199,1.9141 4.394,3.418 1.344,1.5703 3.547,1.6406 5.43,1.9805 -1.762,0.4883 -3.614,0.957 -5.465,0.8125 -1.371,-0.0899 -2.531,-0.9883 -3.883,-1.0664 -1.363,0.2929 -2.504,1.4258 -4.004,1.1328 -1.629,-0.0977 -2.762,-1.4063 -3.898,-2.4219 0.058,1.3086 0.093,2.7461 0.957,3.8203 1.312,1.7266 3.609,2.1172 5.308,3.3203 1.407,1.0039 3.196,0.8008 4.832,0.8672 -1.039,0.4102 -2.086,0.793 -3.129,1.2229 l 0.028,1.785 c -1.906,0.898 -3.996,0.41 -5.762,-0.594 0.305,1.192 0.567,2.559 1.578,3.367 1.348,1.094 3.199,1.016 4.817,1.133 0.949,1.028 2.5,1.406 3.507,0.235 3.141,-3.133 6.399,-6.5317 10.778,-7.7426 3.887,-0.9688 7.406,1.7776 9.289,4.9106 -0.27,1.171 -0.695,2.394 -0.332,3.585 0.39,1.153 1.465,1.915 2.328,2.715 -0.473,1.973 0.094,3.907 0.277,5.848 -0.75,2.473 -1.41,5.051 -0.843,7.609 -1.344,0.957 -2.477,2.118 -3.434,3.438 -1.969,-0.149 -3.934,0.262 -5.606,1.277 -3.222,-1.258 -6.894,-0.711 -9.585,1.496 -2.54,-0.664 -5.278,-0.957 -7.786,0 -1.285,0.45 -2.39,1.426 -3.82,1.367 -2.773,0 -5.644,0.958 -7.578,3.016 -1.609,2.024 -4.266,2.656 -6.57,3.555 -1.106,-1.766 -2.629,-3.133 -4.27,-4.356 -3.012,-2.304 -2.828,-7.468 -0.058,-9.812 2.925,-1.301 5.996,-2.363 9.015,-3.469 2.836,-0.566 6.117,-0.859 8.082,-3.309 1.555,-1.796 2.004,-4.277 1.824,-6.601 -3.371,1.258 -6.863,2.266 -10.234,3.523 -4.535,-7.195 -10.957,-13.281 -18.711,-16.8043 -2.394,-1.1641 -4.926,-1.875 -7.398,-2.8047 2.472,-0.6524 5.214,0.0586 7.457,-1.3946 2.031,-1.3007 4.773,-1.2304 6.445,-3.0781 0.98,-0.9961 1.098,-2.4883 1.16,-3.7969 -1.371,0.9844 -2.683,2.461 -4.496,2.3907 -1.922,-0.2149 -3.59,-1.7852 -5.562,-1.2188 -3.34,0.9258 -5.817,3.9336 -9.368,4.3555 -1.91,0.3008 -3.609,-1.6211 -5.492,-0.6836 -2.234,0.8984 -4.683,0.3008 -7.015,0 -2.657,-0.4024 -5.454,-0.6563 -7.875,-1.9844 -0.981,-0.4883 -1.762,-1.3867 -2.836,-1.7265 -1.196,0.3593 -2.325,1.2382 -3.637,0.8789 -1.649,-0.2539 -2.692,-1.6211 -3.766,-2.7344 -0.265,1.414 -0.625,2.9297 0.035,4.2773 0.536,1.0742 1.7,1.6094 2.661,2.2344 -1.586,1.0156 -3.77,1.6133 -4.454,3.5859 -1.937,0.086 -3.375,-1.3086 -4.925,-2.2461 0.117,3.2618 2.988,6.1797 6.269,6.0625 1.582,-0.0585 3.074,0.6836 4.656,0.5391 1.813,-0.2148 3.161,-1.6719 4.836,-2.2656 1.692,-0.625 3.551,-0.5078 5.278,-0.2735 -0.66,1.043 -1.399,2.0899 -2.477,2.754 -2.058,1.3362 -4.711,1.1602 -6.801,2.4492 -1.105,0.656 -0.871,2.531 -2.242,2.832 -1.762,0.324 -3.226,-0.957 -4.742,-1.59 0.328,1.465 0.832,3.047 2.234,3.856 1.528,1.066 3.465,0.812 5.196,0.507 0.89,0.559 1.972,1.25 3.015,0.54 2.868,-1.133 4.239,-4.211 6.953,-5.618 2.301,-1.062 5.012,-2.6833 7.551,-1.465 2.356,1.016 4.918,1.145 7.43,1.262 0.742,2 2.535,3.281 4.656,3.367 0.293,1.641 1.25,3.047 2.629,3.946 -1.258,0.5 -2.359,1.34 -3.105,2.441 -2.778,0.246 -5.797,0.149 -8.266,1.672 -1.168,0.723 -1.734,2.031 -2.215,3.25 -2.621,1.074 -5.34,2.539 -6.676,5.168 -0.812,1.492 -0.66,3.223 -0.422,4.844 -2.031,-0.422 -4.117,-0.403 -6.121,0.175 -3.757,-2.988 -8.257,-6.789 -13.425,-5.253 -1.493,-1.192 -3.106,-2.18 -4.715,-3.137 l -1.11,-1.875 c -0.746,-2.996 -2.089,-5.789 -3.754,-8.367 -1.82,3.965 -4.179,7.781 -4.902,12.156 -3.695,-4.863 -8.355,-8.895 -12.59,-13.289 -3.254,-3.332 -5.164,-7.7267 -6.3552,-12.1681 3.3982,-1.5547 7.3672,-0.8125 10.6522,-2.6875 2.926,-0.3399 5.137,-2.8711 4.93,-5.8281 -1.348,0.75 -2.664,1.9218 -4.274,1.7265 -1.761,-0.2226 -3.105,-1.6875 -4.898,-1.668 -2.23,0 -4.594,0.5352 -6.2891,2.0977 -1.4336,1.2617 -3.2851,2.207 -5.2305,2.0039 -2.0234,-0.1289 -3.332,-2.1289 -5.3632,-2.1289 -1.8868,0.0859 -3.7305,0.8984 -5.6407,0.5078 -2.3281,-0.3633 -3.8867,-2.3242 -6.0078,-3.2226 -1.8398,-0.8125 -3.9336,-1.2813 -5.9375,-0.8321 -1.2773,0.2657 -2.3281,1.5547 -3.7265,1.2813 -2.1758,-0.3828 -3.668,-2.0899 -5.4063,-3.3516 0.1563,3.1758 1.9141,6.5742 5.293,7.1992 l -0.0352,1.375 c -3.0429,1.5547 -6.6914,1.8164 -9.7617,0.1758 0.4219,1.4063 0.957,2.9024 2.2422,3.7305 1.6406,1.1914 3.7656,1.164 5.668,1.0742 l 1.8203,1.0156 c -0.2657,0.9688 -0.4492,1.9453 -0.5,2.9294 -1.5235,1.496 -3.4688,0.625 -4.9922,-0.359 0.2656,1.582 0.8945,3.367 2.5664,3.906 2.332,0.957 4.5039,-0.832 6.8086,-0.859 2.7148,-0.098 4.8359,-2.031 7.3359,-2.774 2.5664,-0.8317 5.461,-1.3473 8.0664,-0.363 2.8321,1.106 4.9844,3.34 6.9219,5.617 1.3086,1.336 0.7734,3.367 1.2813,5.008 0.3906,1.817 1.8789,3.078 3.2539,4.211 -0.1797,1.191 -0.543,2.469 -0.0899,3.672 0.4766,1.191 1.6445,1.902 2.6487,2.625 -0.028,1.457 0.269,2.902 0.812,4.258 -4.5388,0.09 -9.1638,-0.203 -13.5193,-1.571 -1.375,-3.976 -2.8945,-8.156 -6.1797,-10.968 -0.2656,2.695 -0.3554,5.41 -1.2226,7.98 -1.9414,6.211 -6.2031,11.309 -10.5039,16.055 -1.4375,1.68 -3.3711,2.773 -4.8946,4.355 -4.3007,4.325 -7.0429,9.942 -8.7773,15.723 -1.0391,-2.141 -2.9219,-3.906 -3.3711,-6.32 -0.3555,-1.348 -0.6289,-2.989 -2.0547,-3.555 -1.9726,-0.77 -3.4101,-2.715 -5.6211,-2.859 -1.4531,-0.247 -2.914,0.261 -4.1445,1.043 2.4766,0.441 5.0781,1.574 5.582,4.289 -0.6836,0.761 -1.4648,1.894 -0.5039,2.754 1.582,1.406 3.0117,2.917 3.9375,4.863 l 1.7266,1.875 c 0.5078,4.695 1.0156,9.375 1.5273,14.062 -2.3242,1.114 -4.7461,2.891 -5.0429,5.633 0,2.305 -2.5743,4.512 -0.6016,6.66 -0.6484,2.121 -2.3867,3.528 -4.332,4.426 2.1562,0.555 4.6328,0.527 6.5117,-0.793 1.1679,-0.918 2.3281,-1.836 3.4375,-2.801 1.6094,-2.324 2.2344,-5.156 3.4336,-7.695 -0.6055,3.641 0.0859,7.344 1.3359,10.77 0.7461,2.968 -1.4297,5.488 -3.6094,7.199 4.7539,0.633 7.8789,-3.828 9.4883,-7.668 0.8399,-2.43 -0.8008,-4.656 -1.1601,-6.981 0.9257,0.946 1.8203,1.973 3.1054,2.41 1.8438,1.407 1.9024,3.977 2.1172,6.086 2.2344,-1.046 3.4297,-3.644 2.4766,-5.996 -1.1367,-2.414 0.2031,-5.793 -2.3008,-7.55 -1.7578,-1.278 -4.8008,-2.481 -4.1094,-5.196 2.7383,-4.179 3.336,-9.277 3.8399,-14.148 l 1.0117,-0.293 c 2.0078,-1.133 3.0859,-3.281 3.3789,-5.488 2.5391,-0.274 4.7695,-1.711 6.0273,-3.887 2.1875,0.683 4.211,-0.442 5.8203,-1.817 0.9844,0.391 2.0274,0.653 3.0743,0.86 0.5664,1.23 1.3437,2.363 2.2656,3.347 -1.7617,1.907 -2.8594,4.356 -2.918,6.985 0,1.875 0.418,3.855 1.5156,5.398 0.4493,0.723 1.2579,1.406 1.0235,2.324 -0.2735,3.477 0.0586,7.883 3.4258,9.825 -0.5352,3.34 1.1054,6.574 3.789,8.468 -0.2422,2.938 1.1367,5.829 3.4375,7.618 -0.6914,3.164 1.1289,6.445 3.9059,7.937 -0.449,1.047 -0.808,2.121 -1.429,3.078 -4.2698,-0.812 -7.8245,-4.082 -8.723,-8.351 -0.7422,1.035 -1.3086,2.207 -1.9062,3.332 -0.9844,-2.539 -1.8477,-5.129 -3.043,-7.598 -1.7344,0.977 -2.3906,3.035 -2.0898,4.91 0.3008,1.172 -0.6602,2.071 -0.9922,3.078 -0.5313,1.571 -0.6797,3.282 -1.0352,4.903 -6.957,0.293 -13.8828,0.593 -20.8281,0.886 0.7695,-1.484 1.6992,-2.918 2.3281,-4.472 -2.8086,0.48 -4.9336,2.629 -7.0468,4.355 -4.7813,4.504 -9.5782,9.668 -11.1641,16.203 1.8476,-1.074 3.5234,-2.441 5.4922,-3.371 4.9258,-2.625 10.5078,-3.523 15.8711,-4.804 -1.543,-1.114 -3.3633,-1.758 -5.0313,-2.715 6.5625,-0.575 13.1524,-0.418 19.7149,-0.059 1.1679,0.059 2.3906,0.059 3.4687,0.567 -0.957,0.773 -2.0351,1.347 -3.289,1.437 -0.4415,2 -1.6915,3.926 -3.7813,4.5 -5.2305,1.262 -10.5391,-0.32 -15.793,-0.32 2.4532,3.543 6.2422,6.043 10.3555,7.234 4.8359,1.477 9.9375,1.477 14.9219,1.945 0.8633,3.965 5.2851,5.411 8.8945,5.469 5.8511,-0.305 11.7031,-0.598 17.5821,-0.898 4.086,4.004 10.172,4.031 15.16,6.211 1.07,0.535 1.817,1.492 2.738,2.234 -0.144,-2.645 -0.625,-5.273 -0.859,-7.91 l 2.566,-0.391 c -2.75,-2.734 -7.281,-3.699 -8.828,-7.488 -0.695,-1.34 0.5,-2.559 1.039,-3.672 0.77,-1.105 1.102,-2.773 2.567,-3.137 2.656,-0.898 5.519,-2.41 6.445,-5.273 -1.914,0 -3.851,0.324 -5.668,-0.32 l -1.254,-1.563 c 1.313,-1.426 3.547,-1.34 4.828,-2.805 1.797,-1.738 2.66,-4.207 2.629,-6.648 -2.597,0.137 -4.66,2.441 -7.277,2.207 -2.836,-1.113 -2.125,-5.617 0.598,-6.445 3.671,-1.028 5.546,-4.992 5.515,-8.535 -2.625,1.277 -5.195,3.242 -8.238,3.242 -1.906,-0.176 -1.516,-2.59 -1.344,-3.926 0.66,-2.727 3.977,-2.695 5.731,-4.367 1.347,-0.977 1.73,-2.684 1.64,-4.258 -1.574,0.344 -3.254,1.008 -4.886,0.559 -1.227,-0.305 -2.36,-1.641 -1.911,-2.95 0.414,-1.347 0.922,-2.668 1.368,-3.965 5.55,1.102 11.109,2.227 16.625,3.368 1.226,0.168 1.855,1.367 2.445,2.324 3.551,6.32 -0.149,13.996 2.75,20.527 1.367,3.223 3.996,5.703 6.742,7.852 14.445,11.914 30.168,22.207 46.465,31.398"
         style="fill:#11100e;fill-opacity:1;fill-rule:nonzero;stroke:none"
         id="path242" /></g></g></svg>
