<?xml version="1.0" encoding="UTF-8" standalone="no"?>
<svg
   xmlns:dc="http://purl.org/dc/elements/1.1/"
   xmlns:cc="http://creativecommons.org/ns#"
   xmlns:rdf="http://www.w3.org/1999/02/22-rdf-syntax-ns#"
   xmlns:svg="http://www.w3.org/2000/svg"
   xmlns="http://www.w3.org/2000/svg"
   version="1.1"
   id="svg2"
   xml:space="preserve"
   width="42.666668"
   height="42.666668"
   viewBox="0 0 42.666668 42.666668"><metadata
     id="metadata8"><rdf:RDF><cc:Work
         rdf:about=""><dc:format>image/svg+xml</dc:format><dc:type
           rdf:resource="http://purl.org/dc/dcmitype/StillImage" /></cc:Work></rdf:RDF></metadata><defs
     id="defs6" /><g
     id="g10"
     transform="matrix(1.3333333,0,0,-1.3333333,0,42.666667)"><g
       id="g12"
       transform="scale(0.1)"><path
         d="m 159.996,35.4648 c -68.5702,0 -124.5194,55.9454 -124.5194,124.5392 0,68.601 55.9492,124.535 124.5194,124.535 68.578,0 124.527,-55.934 124.527,-124.535 0,-68.5938 -55.949,-124.5392 -124.527,-124.5392 z m 0,284.5582 C 71.875,320.023 0,248.145 0,160.004 0,71.8672 71.875,-0.0234375 159.996,-0.0234375 248.117,-0.0234375 320,71.8672 320,160.004 c 0,88.141 -71.883,160.019 -160.004,160.019"
         style="fill:#d01e27;fill-opacity:1;fill-rule:evenodd;stroke:none"
         id="path14" /><path
         d="m 159.813,31.5547 h 0.367 c 1.105,-3.3242 2.066,-6.7266 3.32,-10 3.609,-0.0742 7.211,0.0312 10.828,-0.0547 -2.82,-2.2461 -5.851,-4.2344 -8.719,-6.4336 0.883,-3.5391 2.293,-6.93749 3.27,-10.45312 -3.016,2.02344 -5.848,4.32422 -8.883,6.33202 -3.023,-2.0078 -5.859,-4.32421 -8.875,-6.33202 0.969,3.51563 2.387,6.91402 3.266,10.45312 -2.867,2.1992 -5.899,4.1875 -8.719,6.4336 3.602,0.0859 7.215,-0.0195 10.832,0.0547 1.262,3.2734 2.219,6.6758 3.313,10"
         style="fill:#f7cf0d;fill-opacity:1;fill-rule:nonzero;stroke:none"
         id="path16" /><path
         d="m 71.957,71.9531 88.039,88.0509 88.059,-88.0509 C 199.547,23.4531 120.441,23.4375 71.9336,71.9414 47.6992,96.1875 35.5742,128.102 35.5781,160.004 35.582,128.102 47.707,96.2031 71.957,71.9531"
         style="fill:#f7cf0d;fill-opacity:1;fill-rule:evenodd;stroke:none"
         id="path18" /><path
         d="m 75.4531,290.102 h 0.3555 c 1.1094,-3.325 2.0469,-6.723 3.3203,-9.997 3.6133,-0.074 7.2227,0.032 10.8438,-0.05 -2.8321,-2.27 -5.8672,-4.239 -8.7305,-6.438 0.8945,-3.543 2.3008,-6.941 3.2734,-10.457 -3.0195,2.012 -5.8515,4.324 -8.8945,6.336 -3.0273,-2.012 -5.8516,-4.324 -8.8789,-6.336 0.9805,3.516 2.3906,6.914 3.2773,10.457 -2.8789,2.199 -5.9062,4.168 -8.7304,6.438 3.6211,0.082 7.2187,-0.024 10.8398,0.05 1.2656,3.274 2.2109,6.672 3.3242,9.997"
         style="fill:#f7cf0d;fill-opacity:1;fill-rule:nonzero;stroke:none"
         id="path20" /><path
         d="m 244.137,290.102 h 0.355 c 1.11,-3.325 2.051,-6.723 3.324,-9.997 3.614,-0.074 7.219,0.032 10.84,-0.05 -2.828,-2.27 -5.863,-4.239 -8.73,-6.438 0.894,-3.543 2.304,-6.941 3.273,-10.457 -3.019,2.012 -5.851,4.324 -8.89,6.336 -3.032,-2.012 -5.852,-4.324 -8.883,-6.336 0.98,3.516 2.394,6.914 3.277,10.457 -2.879,2.199 -5.902,4.168 -8.73,6.438 3.621,0.082 7.218,-0.024 10.843,0.05 1.262,3.274 2.207,6.672 3.321,9.997"
         style="fill:#f7cf0d;fill-opacity:1;fill-rule:nonzero;stroke:none"
         id="path22" /><path
         d="m 159.813,317.039 h 0.367 c 1.105,-3.32 2.066,-6.723 3.32,-9.992 3.609,-0.082 7.211,0.035 10.828,-0.051 -2.82,-2.258 -5.851,-4.238 -8.719,-6.441 0.883,-3.543 2.293,-6.942 3.27,-10.453 -3.016,2.007 -5.848,4.324 -8.883,6.332 -3.023,-2.008 -5.859,-4.325 -8.875,-6.332 0.969,3.511 2.387,6.91 3.266,10.453 -2.867,2.203 -5.899,4.183 -8.719,6.441 3.602,0.086 7.215,-0.031 10.832,0.051 1.262,3.269 2.219,6.672 3.313,9.992"
         style="fill:#f7cf0d;fill-opacity:1;fill-rule:nonzero;stroke:none"
         id="path24" /><path
         d="m 75.4531,61.2461 h 0.3555 c 1.1094,-3.3359 2.0469,-6.7227 3.3203,-10 3.6133,-0.0742 7.2227,0.0234 10.8438,-0.0508 -2.8321,-2.2617 -5.8672,-4.25 -8.7305,-6.4492 0.8945,-3.5273 2.3008,-6.9219 3.2734,-10.4492 -3.0195,2.0195 -5.8515,4.3164 -8.8945,6.3281 -3.0273,-1.9961 -5.8516,-4.3086 -8.8789,-6.3281 0.9805,3.5273 2.3906,6.9219 3.2773,10.4648 -2.8789,2.1836 -5.9062,4.1719 -8.7304,6.4336 3.6211,0.0742 7.2187,-0.0234 10.8398,0.0508 1.2656,3.2773 2.2109,6.6641 3.3242,10"
         style="fill:#f7cf0d;fill-opacity:1;fill-rule:nonzero;stroke:none"
         id="path26" /><path
         d="m 244.137,61.2461 h 0.355 c 1.11,-3.3359 2.051,-6.7227 3.324,-10 3.614,-0.0742 7.219,0.0234 10.84,-0.0508 -2.828,-2.2617 -5.863,-4.25 -8.73,-6.4492 0.894,-3.5273 2.304,-6.9219 3.273,-10.4492 -3.019,2.0195 -5.851,4.3164 -8.89,6.3281 -3.032,-1.9961 -5.852,-4.3086 -8.883,-6.3281 0.98,3.5273 2.394,6.9219 3.277,10.4648 -2.879,2.1836 -5.902,4.1719 -8.73,6.4336 3.621,0.0742 7.218,-0.0234 10.843,0.0508 1.262,3.2773 2.207,6.6641 3.321,10"
         style="fill:#f7cf0d;fill-opacity:1;fill-rule:nonzero;stroke:none"
         id="path28" /><path
         d="m 71.957,248.051 88.039,-88.047 88.059,88.047 C 199.547,296.563 120.441,296.563 71.9336,248.063 47.6992,223.824 35.5742,191.91 35.5781,160.004 35.582,191.898 47.707,223.801 71.957,248.051"
         style="fill:#f7cf0d;fill-opacity:1;fill-rule:evenodd;stroke:none"
         id="path30" /><path
         d="m 159.996,160.004 88.059,-88.0509 c 23.781,23.7774 35.89,54.9179 36.367,86.1949 0.465,32.516 -11.652,65.176 -36.367,89.903 l -88.059,-88.047"
         style="fill:#26795b;fill-opacity:1;fill-rule:evenodd;stroke:none"
         id="path32" /><path
         d="M 159.988,160.004 71.9453,71.9531 C 48.1758,95.7305 36.0508,126.871 35.5938,158.148 c -0.4844,32.516 11.621,65.176 36.3515,89.903 l 88.0427,-88.047"
         style="fill:#26795b;fill-opacity:1;fill-rule:evenodd;stroke:none"
         id="path34" /><path
         d="m 159.789,190.434 c -2.226,-6.903 -4.453,-13.817 -6.742,-20.696 -7.375,-0.383 -14.824,0.024 -22.238,-0.187 5.707,-4.731 12.16,-8.637 17.82,-13.336 -2.09,-7.078 -4.652,-14.012 -6.715,-21.082 6.156,4.113 11.977,8.742 18.082,12.937 6.125,-4.195 11.938,-8.824 18.094,-12.953 -2.059,7.086 -4.629,14.02 -6.707,21.082 5.633,4.731 12.125,8.61 17.812,13.352 -7.398,0.211 -14.867,-0.196 -22.234,0.187 -2.301,6.879 -4.52,13.793 -6.75,20.696 z m -6.664,2.734 c 14.445,3.246 30.305,-4.363 36.941,-17.566 5.051,-9.61 5.032,-21.598 0,-31.211 -6.578,-13.071 -22.207,-20.68 -36.558,-17.621 -10.016,1.867 -18.903,8.601 -23.582,17.621 -5.031,9.613 -5.031,21.601 0,31.211 4.621,8.914 13.34,15.593 23.199,17.566"
         style="fill:#d01e27;fill-opacity:1;fill-rule:nonzero;stroke:none"
         id="path36" /><path
         d="m 159.789,190.434 h 0.422 c 2.23,-6.903 4.449,-13.817 6.75,-20.696 7.367,-0.383 14.836,0.024 22.234,-0.187 -5.687,-4.742 -12.179,-8.621 -17.812,-13.352 2.078,-7.062 4.648,-13.996 6.707,-21.082 -6.156,4.129 -11.969,8.758 -18.094,12.953 -6.105,-4.195 -11.926,-8.824 -18.082,-12.937 2.063,7.07 4.625,14.004 6.715,21.082 -5.66,4.699 -12.113,8.605 -17.82,13.336 7.414,0.211 14.863,-0.196 22.238,0.187 2.289,6.879 4.516,13.793 6.742,20.696"
         style="fill:#f7cf0d;fill-opacity:1;fill-rule:nonzero;stroke:none"
         id="path38" /><path
         d="m 76.9922,159.523 c 4.0195,-1.464 7.5078,-4.105 10.582,-7.05 0.8867,-4.453 1.9141,-8.942 1.7735,-13.52 -4.4141,1.836 -8.0039,5.086 -11.461,8.309 -1.0234,3.984 -1.4179,8.179 -0.8945,12.261"
         style="fill:#d01e27;fill-opacity:1;fill-rule:nonzero;stroke:none"
         id="path40" /><path
         d="m 62.8281,184.965 c 5.8477,-5.469 13.918,-7.246 20.7657,-11.035 5.0625,-2.649 9.9062,-6.356 12.2773,-11.7 2.9297,-6.468 2.0625,-13.917 0.2773,-20.582 -2.3593,3.965 -5.1211,7.727 -8.5742,10.825 -3.0742,2.945 -6.5625,5.586 -10.582,7.05 -0.5234,-4.082 -0.1289,-8.277 0.8945,-12.261 1.0235,-4.36 2.8672,-8.504 5.3594,-12.219 -8.2461,1.461 -17.4414,5.328 -20.4453,13.82 -4.3203,11.852 3.0039,24.176 0.0273,36.102"
         style="fill:#f7cf0d;fill-opacity:1;fill-rule:nonzero;stroke:none"
         id="path42" /></g></g></svg>
