<?xml version="1.0" encoding="UTF-8" standalone="no"?>
<svg
   xmlns:dc="http://purl.org/dc/elements/1.1/"
   xmlns:cc="http://creativecommons.org/ns#"
   xmlns:rdf="http://www.w3.org/1999/02/22-rdf-syntax-ns#"
   xmlns:svg="http://www.w3.org/2000/svg"
   xmlns="http://www.w3.org/2000/svg"
   version="1.1"
   id="svg2"
   xml:space="preserve"
   width="42.666668"
   height="42.666668"
   viewBox="0 0 42.666668 42.666668"><metadata
     id="metadata8"><rdf:RDF><cc:Work
         rdf:about=""><dc:format>image/svg+xml</dc:format><dc:type
           rdf:resource="http://purl.org/dc/dcmitype/StillImage" /></cc:Work></rdf:RDF></metadata><defs
     id="defs6" /><g
     id="g10"
     transform="matrix(1.3333333,0,0,-1.3333333,0,42.666667)"><g
       id="g12"
       transform="scale(0.1)"><path
         d="m 160.074,182.852 v 137.144 c -0.293,0 -0.582,0.02 -0.879,0.02 -80.3708,0 -147.1911,-59.797 -158.335625,-137.164 H 160.074"
         style="fill:#ffffff;fill-opacity:1;fill-rule:nonzero;stroke:none"
         id="path14" /><path
         d="m 157.805,0.0507813 h 2.785 C 203.469,0.421875 242.402,17.7969 270.973,45.75 H 47.418 C 75.9883,17.7969 114.922,0.421875 157.805,0.0507813"
         style="fill:#3b4ba7;fill-opacity:1;fill-rule:evenodd;stroke:none"
         id="path16" /><path
         d="M 14.6953,91.4492 C 22.8672,74.3242 34.0039,58.8789 47.418,45.75 h 223.555 c 13.418,13.1289 24.554,28.5742 32.726,45.6992 H 14.6953"
         style="fill:#ffffff;fill-opacity:1;fill-rule:evenodd;stroke:none"
         id="path18" /><path
         d="M 14.6953,91.4492 H 303.699 c 6.781,14.2148 11.512,29.5738 13.836,45.6988 H 0.863281 C 3.1875,121.023 7.91797,105.664 14.6953,91.4492"
         style="fill:#3b4ba7;fill-opacity:1;fill-rule:evenodd;stroke:none"
         id="path20" /><path
         d="M 0.863281,137.148 H 317.535 c 1.078,7.473 1.664,15.102 1.664,22.864 0,7.754 -0.586,15.375 -1.66,22.84 H 160.074 0.859375 c -1.074219,-7.465 -1.660156,-15.086 -1.660156,-22.84 0,-7.762 0.585937,-15.391 1.664062,-22.864"
         style="fill:#ffffff;fill-opacity:1;fill-rule:evenodd;stroke:none"
         id="path22" /><path
         d="M 303.711,228.551 H 160.074 v -45.699 h 157.465 c -2.324,16.121 -7.047,31.484 -13.828,45.699"
         style="fill:#3b4ba7;fill-opacity:1;fill-rule:evenodd;stroke:none"
         id="path24" /><path
         d="m 160.074,228.551 h 143.637 c -8.172,17.125 -19.316,32.57 -32.734,45.699 H 160.074 v -45.699"
         style="fill:#ffffff;fill-opacity:1;fill-rule:evenodd;stroke:none"
         id="path26" /><path
         d="m 160.074,274.25 h 110.903 c -28.368,27.758 -66.954,45.09 -109.473,45.699 h -1.43 V 274.25"
         style="fill:#3b4ba7;fill-opacity:1;fill-rule:evenodd;stroke:none"
         id="path28" /><path
         d="m 120.551,224.949 c 2.926,-0.312 5.844,-0.34 8.746,0.028 -0.508,-3.047 -0.918,-6.114 -1.063,-9.204 3.09,0.122 6.157,0.532 9.2,1.063 -0.34,-2.898 -0.34,-5.848 0,-8.746 -3.043,0.531 -6.11,0.941 -9.2,1.062 0.145,-3.089 0.555,-6.132 1.063,-9.175 -2.902,0.332 -5.82,0.332 -8.719,0 0.508,3.043 0.918,6.109 1.063,9.199 -3.094,-0.168 -6.161,-0.555 -9.207,-1.086 0.343,2.898 0.343,5.848 0,8.746 3.046,-0.512 6.113,-0.973 9.207,-1.063 -0.168,3.09 -0.532,6.157 -1.09,9.176"
         style="fill:#ed1d24;fill-opacity:1;fill-rule:nonzero;stroke:none"
         id="path30" /><path
         d="m 120.551,302.867 c 2.926,-0.316 5.844,-0.34 8.746,0.024 -0.508,-3.043 -0.918,-6.11 -1.063,-9.203 3.09,0.121 6.157,0.531 9.2,1.062 -0.34,-2.898 -0.34,-5.844 0,-8.746 -3.043,0.535 -6.11,0.945 -9.2,1.066 0.145,-3.09 0.555,-6.136 1.063,-9.175 -2.902,0.332 -5.82,0.332 -8.719,0 0.508,3.039 0.918,6.109 1.063,9.199 -3.094,-0.168 -6.161,-0.555 -9.207,-1.09 0.343,2.902 0.343,5.848 0,8.746 3.046,-0.508 6.113,-0.965 9.207,-1.062 -0.168,3.093 -0.532,6.16 -1.09,9.179"
         style="fill:#ed1d24;fill-opacity:1;fill-rule:nonzero;stroke:none"
         id="path32" /><path
         d="m 40.3867,224.949 c -2.9258,-0.312 -5.8515,-0.336 -8.7461,0.028 0.5078,-3.043 0.918,-6.114 1.0625,-9.204 -3.0937,0.122 -6.1601,0.532 -9.2031,1.063 0.3359,-2.898 0.3359,-5.848 0,-8.746 3.043,0.531 6.1094,0.941 9.2031,1.062 -0.1445,-3.093 -0.5547,-6.136 -1.0625,-9.179 2.8946,0.332 5.8203,0.332 8.7227,0 -0.5078,3.043 -0.9219,6.109 -1.0664,9.203 3.0937,-0.168 6.164,-0.555 9.2031,-1.086 -0.3359,2.898 -0.3359,5.848 0,8.746 -3.0391,-0.508 -6.1094,-0.969 -9.2031,-1.063 0.1719,3.09 0.5312,6.161 1.0898,9.176"
         style="fill:#ed1d24;fill-opacity:1;fill-rule:nonzero;stroke:none"
         id="path34" /><path
         d="M 160.074,260.758 H 89.793 v 43.347 C 83.3242,300.973 77.0938,297.418 71.1445,293.473 V 260.758 H 35.0938 c -4.7891,-5.887 -9.1602,-12.117 -13.086,-18.649 H 71.1445 V 182.852 H 89.793 v 59.257 h 70.281 v 18.649"
         style="fill:#ed1d24;fill-opacity:1;fill-rule:nonzero;stroke:none"
         id="path36" /></g></g></svg>
