<?xml version="1.0" encoding="UTF-8" standalone="no"?>
<svg
   xmlns:dc="http://purl.org/dc/elements/1.1/"
   xmlns:cc="http://creativecommons.org/ns#"
   xmlns:rdf="http://www.w3.org/1999/02/22-rdf-syntax-ns#"
   xmlns:svg="http://www.w3.org/2000/svg"
   xmlns="http://www.w3.org/2000/svg"
   version="1.1"
   id="svg2"
   xml:space="preserve"
   width="42.666668"
   height="42.666668"
   viewBox="0 0 42.666668 42.666668"><metadata
     id="metadata8"><rdf:RDF><cc:Work
         rdf:about=""><dc:format>image/svg+xml</dc:format><dc:type
           rdf:resource="http://purl.org/dc/dcmitype/StillImage" /></cc:Work></rdf:RDF></metadata><defs
     id="defs6" /><g
     id="g10"
     transform="matrix(1.3333333,0,0,-1.3333333,0,42.666667)"><g
       id="g12"
       transform="scale(0.1)"><path
         d="M 1.71484,183.285 C 0.585938,175.668 0,167.922 0,160.012 c 0,-7.899 0.585938,-15.688 1.71484,-23.278 105.51916,0 211.05116,0 316.57016,0 1.106,7.59 1.715,15.379 1.715,23.278 0,7.91 -0.609,15.656 -1.715,23.273 -78.808,0 -157.617,0 -236.4725,0 -26.6914,0 -53.4062,0 -80.09766,0"
         style="fill:#ffffff;fill-opacity:1;fill-rule:nonzero;stroke:none"
         id="path14" /><path
         d="m 16.0859,90.1836 c 95.9301,0 191.8671,0 287.8051,0 7.05,14.4454 11.984,30.1134 14.394,46.5504 -105.519,0 -211.051,0 -316.57016,0 2.40235,-16.437 7.33204,-32.105 14.37106,-46.5504"
         style="fill:#2b9d41;fill-opacity:1;fill-rule:nonzero;stroke:none"
         id="path16" /><path
         d="m 50.3555,43.6563 c 73.0825,0 146.1915,0 219.2775,0 14.058,13.2539 25.722,29.0039 34.258,46.5273 -95.938,0 -191.875,0 -287.8051,0 8.5508,-17.5234 20.2227,-33.2734 34.2696,-46.5273"
         style="fill:#ffffff;fill-opacity:1;fill-rule:nonzero;stroke:none"
         id="path18" /><path
         d="m 159.996,-0.015625 c 42.367,0 80.965,16.625025 109.637,43.671925 -73.086,0 -146.195,0 -219.2775,0 C 79.0273,16.6094 117.637,-0.015625 159.996,-0.015625"
         style="fill:#2b9d41;fill-opacity:1;fill-rule:nonzero;stroke:none"
         id="path20" /><path
         d="M 50.3477,276.34 C 36.3086,263.09 24.6367,247.363 16.0859,229.816 9.04688,215.359 4.11719,199.734 1.71484,183.285 c 26.69146,0 53.40626,0 80.09766,0 26.0625,0 52.1255,0 78.1835,0 v 46.531 46.524 43.676 c -42.375,0 -80.9687,-16.629 -109.6483,-43.676"
         style="fill:#ca2728;fill-opacity:1;fill-rule:nonzero;stroke:none"
         id="path22" /><path
         d="m 303.891,229.816 c -47.969,0 -95.93,0 -143.895,0 v -46.531 c 52.77,0 105.535,0 158.289,0 -2.41,16.449 -7.344,32.074 -14.394,46.531"
         style="fill:#2b9d41;fill-opacity:1;fill-rule:nonzero;stroke:none"
         id="path24" /><path
         d="m 269.633,276.34 c -36.543,0 -73.09,0 -109.637,0 v -46.524 c 47.965,0 95.926,0 143.895,0 -8.536,17.547 -20.2,33.274 -34.258,46.524"
         style="fill:#ffffff;fill-opacity:1;fill-rule:nonzero;stroke:none"
         id="path26" /><path
         d="M 159.996,320.016 V 276.34 c 36.547,0 73.094,0 109.637,0 -28.672,27.047 -67.27,43.676 -109.637,43.676"
         style="fill:#2b9d41;fill-opacity:1;fill-rule:nonzero;stroke:none"
         id="path28" /><path
         d="m 88.7305,284.203 c 0.6875,-2.062 1.3711,-4.133 1.9883,-6.199 2.2929,0 4.5117,0.094 6.7968,0.094 -1.832,-1.239 -3.664,-2.539 -5.4297,-3.75 0.625,-2.137 1.3086,-4.293 2.0704,-6.364 -1.836,1.305 -3.5938,2.606 -5.4258,3.914 -1.7617,-1.308 -3.5196,-2.609 -5.3477,-3.914 0.7617,2.071 1.5274,4.227 2.211,6.364 -1.8282,1.211 -3.6719,2.511 -5.5,3.75 2.207,0 4.5039,-0.094 6.7265,-0.094 0.6055,2.066 1.2891,4.137 1.9102,6.199"
         style="fill:#ffffff;fill-opacity:1;fill-rule:nonzero;stroke:none"
         id="path30" /><path
         d="m 112.727,277.555 c 0.675,-2.153 1.296,-4.219 1.906,-6.332 2.226,0 4.512,0 6.722,0 -1.753,-1.301 -3.585,-2.543 -5.343,-3.84 0.687,-2.047 1.375,-4.203 2.058,-6.274 -1.746,1.305 -3.515,2.692 -5.343,3.977 -1.754,-1.285 -3.524,-2.582 -5.348,-3.977 0.762,2.161 1.449,4.227 2.215,6.2 -1.758,1.371 -3.602,2.613 -5.43,3.914 2.219,0 4.445,0 6.574,0 0.692,2.035 1.387,4.179 1.989,6.332"
         style="fill:#ffffff;fill-opacity:1;fill-rule:nonzero;stroke:none"
         id="path32" /><path
         d="m 64.7422,277.152 c 0.6836,-1.976 1.3555,-4.043 1.9766,-6.023 2.2226,0 4.4296,0.094 6.6445,0.094 -1.7461,-1.301 -3.582,-2.543 -5.418,-3.778 0.75,-2.109 1.4375,-4.175 2.1367,-6.336 -1.7617,1.395 -3.5937,2.692 -5.3398,3.977 -1.7695,-1.285 -3.5938,-2.582 -5.3672,-3.977 0.6992,2.161 1.4492,4.227 2.2305,6.336 -1.8438,1.235 -3.6797,2.535 -5.4336,3.778 2.1367,0 4.3515,0 6.5781,0 0.6055,1.976 1.293,3.953 1.9922,5.929"
         style="fill:#ffffff;fill-opacity:1;fill-rule:nonzero;stroke:none"
         id="path34" /><path
         d="m 47.7617,259.672 c 0.6914,-2.07 1.3047,-4.043 1.8321,-6.109 2.2968,-0.09 4.6015,-0.09 6.8085,0 -1.7656,-1.305 -3.5937,-2.536 -5.4257,-3.821 0.7656,-2.07 1.4492,-4.226 2.1367,-6.359 -1.75,1.367 -3.5195,2.676 -5.3516,4.07 -1.75,-1.305 -3.5078,-2.703 -5.3437,-4 0.7695,2.063 1.4453,4.137 2.2109,6.192 -1.832,1.304 -3.5937,2.527 -5.3476,3.828 2.2109,0.09 4.3593,0.09 6.5742,0.09 0.6054,1.972 1.2187,4.039 1.9062,6.109"
         style="fill:#ffffff;fill-opacity:1;fill-rule:nonzero;stroke:none"
         id="path36" /><path
         d="m 128.012,253.473 c 0.687,2.062 1.293,4.199 1.992,6.199 0.684,-2.07 1.281,-4.137 1.906,-6.199 2.293,0 4.512,0.09 6.801,0.09 -1.832,-1.239 -3.59,-2.536 -5.434,-3.747 0.7,-2.144 1.387,-4.3 2.071,-6.433 -1.75,1.367 -3.594,2.676 -5.422,4.07 -1.696,-1.305 -3.438,-2.613 -5.203,-3.82 0.683,2.043 1.382,4.113 1.992,6.183 -1.758,1.211 -3.594,2.442 -5.36,3.747 2.223,0 4.43,-0.09 6.657,-0.09"
         style="fill:#ffffff;fill-opacity:1;fill-rule:nonzero;stroke:none"
         id="path38" /><path
         d="m 89.4961,256.215 c 0,1.523 1.5234,1.84 2.75,2.062 1.832,-6.785 0.3086,-14.058 1.9883,-20.847 0.9961,5.953 -1.4571,12.605 1.5312,18.199 l 1.9102,-1.613 c 0.2187,-9.649 1.832,-19.102 5.0432,-28.137 1.601,-0.531 1.906,1.687 2.59,2.68 1.308,3.656 4.203,7.41 8.48,7.027 -2.816,-4.129 -4.664,-8.711 -5.566,-13.617 -1.696,-7.094 -10.7855,-9.989 -10.6292,-17.696 -4.3555,-0.089 -8.711,0 -13.0625,0 -0.6993,4.942 -4.211,8.844 -4.9766,13.747 -2.1367,10.605 0.4609,21.32 1.6055,31.855 l 2.0664,-0.059 c 0.1562,-4.742 0.6054,-9.418 0.6836,-14.14 h 0.6875 c -0.0664,6.019 -0.3047,12.129 0.4609,18.179 0.0781,1.461 1.375,2.137 2.6758,2.29 0.9961,-6.403 0.1601,-12.985 1.1484,-19.344 0.8399,6.429 -0.3828,13.015 0.6133,19.414"
         style="fill:#ffffff;fill-opacity:1;fill-rule:nonzero;stroke:none"
         id="path40" /><path
         d="m 39.9688,239.723 c 0.621,-2.067 1.3007,-4.137 1.9023,-6.2 2.2187,0 4.5195,0 6.7305,0 -1.8282,-1.214 -3.6758,-2.511 -5.4141,-3.82 0.6758,-2.066 1.4414,-4.207 2.1289,-6.269 -1.7578,1.308 -3.5156,2.668 -5.2734,3.976 -1.8242,-1.308 -3.6719,-2.605 -5.5078,-3.976 0.7734,2.062 1.5351,4.203 2.2226,6.269 -1.7578,1.219 -3.5195,2.512 -5.2734,3.82 2.1367,0 4.2773,0 6.4219,0 0.6914,2.063 1.375,4.133 2.0625,6.2"
         style="fill:#ffffff;fill-opacity:1;fill-rule:nonzero;stroke:none"
         id="path42" /><path
         d="m 135.66,233.523 c 0.613,2.063 1.219,4.133 1.895,6.2 0.769,-2.067 1.082,-4.27 2.222,-6.2 2.071,-0.136 4.211,0 6.27,-0.07 -1.762,-1.238 -3.504,-2.531 -5.27,-3.75 0.762,-2.066 1.446,-4.133 2.133,-6.191 -1.754,1.293 -3.578,2.59 -5.355,3.898 -1.75,-1.308 -3.512,-2.605 -5.266,-3.898 0.691,2.058 1.379,4.125 2.141,6.191 -1.828,1.309 -3.66,2.606 -5.508,3.82 2.226,0 4.516,0 6.738,0"
         style="fill:#ffffff;fill-opacity:1;fill-rule:nonzero;stroke:none"
         id="path44" /></g></g></svg>
