<?xml version="1.0" encoding="UTF-8" standalone="no"?>
<svg
   xmlns:dc="http://purl.org/dc/elements/1.1/"
   xmlns:cc="http://creativecommons.org/ns#"
   xmlns:rdf="http://www.w3.org/1999/02/22-rdf-syntax-ns#"
   xmlns:svg="http://www.w3.org/2000/svg"
   xmlns="http://www.w3.org/2000/svg"
   version="1.1"
   id="svg2"
   xml:space="preserve"
   width="42.666668"
   height="42.666668"
   viewBox="0 0 42.666668 42.666668"><metadata
     id="metadata8"><rdf:RDF><cc:Work
         rdf:about=""><dc:format>image/svg+xml</dc:format><dc:type
           rdf:resource="http://purl.org/dc/dcmitype/StillImage" /></cc:Work></rdf:RDF></metadata><defs
     id="defs6" /><g
     id="g10"
     transform="matrix(1.3333333,0,0,-1.3333333,0,42.666667)"><g
       id="g12"
       transform="scale(0.1)"><path
         d="M 2.11328,134.273 C 13.1211,66.6992 66.6719,13.1094 134.238,2.08984 V 134.273 H 2.11328"
         style="fill:#ffffff;fill-opacity:1;fill-rule:evenodd;stroke:none"
         id="path14" /><path
         d="M 134.238,185.797 V 317.91 C 66.6914,306.895 13.1563,253.336 2.125,185.797 h 132.113"
         style="fill:#ffffff;fill-opacity:1;fill-rule:evenodd;stroke:none"
         id="path16" /><path
         d="M 317.875,185.797 C 306.844,253.336 253.305,306.895 185.762,317.91 V 185.797 h 132.113"
         style="fill:#ffffff;fill-opacity:1;fill-rule:evenodd;stroke:none"
         id="path18" /><path
         d="M 185.762,134.273 V 2.08984 C 253.324,13.1094 306.879,66.6992 317.887,134.273 H 185.762"
         style="fill:#ffffff;fill-opacity:1;fill-rule:evenodd;stroke:none"
         id="path20" /><path
         d="m 227.949,111.215 c 6.809,-0.727 13.61,-0.785 20.36,0.066 -1.18,-7.09 -2.137,-14.2302 -2.469,-21.4255 7.187,0.2812 14.332,1.2343 21.418,2.4726 -0.793,-6.7539 -0.793,-13.6172 0,-20.3633 -7.086,1.2383 -14.231,2.1954 -21.418,2.4805 0.332,-7.2031 1.289,-14.289 2.469,-21.375 -6.75,0.7774 -13.551,0.7774 -20.301,0 1.18,7.086 2.137,14.2266 2.476,21.4258 -7.207,-0.3945 -14.347,-1.293 -21.437,-2.5313 0.797,6.7461 0.797,13.6094 0,20.3633 7.09,-1.1836 14.23,-2.2578 21.437,-2.4726 -0.394,7.1953 -1.238,14.3355 -2.535,21.3595"
         style="fill:#ed1d24;fill-opacity:1;fill-rule:nonzero;stroke:none"
         id="path22" /><path
         d="m 227.949,266.652 c 6.809,-0.738 13.61,-0.793 20.36,0.051 -1.18,-7.086 -2.137,-14.223 -2.469,-21.426 7.187,0.278 14.332,1.235 21.418,2.473 -0.793,-6.742 -0.793,-13.605 0,-20.355 -7.086,1.242 -14.231,2.195 -21.418,2.48 0.332,-7.199 1.289,-14.289 2.469,-21.367 -6.75,0.773 -13.551,0.773 -20.301,0 1.18,7.078 2.137,14.222 2.476,21.414 -7.207,-0.387 -14.347,-1.285 -21.437,-2.527 0.797,6.75 0.797,13.613 0,20.355 7.09,-1.18 14.23,-2.246 21.437,-2.473 -0.394,7.203 -1.238,14.34 -2.535,21.375"
         style="fill:#ed1d24;fill-opacity:1;fill-rule:nonzero;stroke:none"
         id="path24" /><path
         d="m 92.0469,111.215 c -6.8086,-0.727 -13.6133,-0.785 -20.3555,0.066 1.1797,-7.09 2.1328,-14.2302 2.4688,-21.4255 -7.1954,0.2812 -14.336,1.2343 -21.4141,2.4726 0.7812,-6.7539 0.7812,-13.6172 0,-20.3633 7.0781,1.2383 14.2187,2.1954 21.4141,2.4805 -0.336,-7.2031 -1.2891,-14.289 -2.4688,-21.375 6.7422,0.7774 13.5469,0.7774 20.3008,0 -1.1758,7.086 -2.1445,14.2266 -2.4805,21.4258 7.1992,-0.3945 14.3433,-1.293 21.4263,-2.5313 -0.786,6.7461 -0.786,13.6094 0,20.3633 -7.083,-1.1836 -14.2271,-2.2578 -21.4263,-2.4726 0.3946,7.1953 1.2422,14.3355 2.5352,21.3595"
         style="fill:#ed1d24;fill-opacity:1;fill-rule:nonzero;stroke:none"
         id="path26" /><path
         d="m 92.0469,266.652 c -6.8086,-0.738 -13.6133,-0.793 -20.3555,0.051 1.1797,-7.086 2.1328,-14.223 2.4688,-21.426 -7.1954,0.278 -14.336,1.235 -21.4141,2.473 0.7812,-6.742 0.7812,-13.605 0,-20.355 7.0781,1.242 14.2187,2.195 21.4141,2.48 -0.336,-7.199 -1.2891,-14.289 -2.4688,-21.367 6.7422,0.773 13.5469,0.773 20.3008,0 -1.1758,7.078 -2.1445,14.222 -2.4805,21.414 7.1992,-0.387 14.3433,-1.285 21.4263,-2.527 -0.786,6.75 -0.786,13.613 0,20.355 -7.083,-1.18 -14.2271,-2.246 -21.4263,-2.473 0.3946,7.203 1.2422,14.34 2.5352,21.375"
         style="fill:#ed1d24;fill-opacity:1;fill-rule:nonzero;stroke:none"
         id="path28" /><path
         d="m 185.797,317.906 c -8.406,1.371 -17.012,2.114 -25.797,2.114 -8.785,0 -17.395,-0.743 -25.797,-2.114 V 185.797 H 2.11328 C 0.742188,177.395 0,168.781 0,160 0,151.215 0.742188,142.609 2.11328,134.203 H 134.203 V 2.09375 c 8.402,-1.371094 17.012,-2.1132813 25.797,-2.1132813 8.785,0 17.391,0.7421873 25.797,2.1132813 V 134.203 h 132.09 c 1.371,8.406 2.113,17.012 2.113,25.797 0,8.781 -0.742,17.395 -2.113,25.797 h -132.09 v 132.109"
         style="fill:#ed1d24;fill-opacity:1;fill-rule:evenodd;stroke:none"
         id="path30" /></g></g></svg>
