<?xml version="1.0" encoding="UTF-8" standalone="no"?>
<svg
   xmlns:dc="http://purl.org/dc/elements/1.1/"
   xmlns:cc="http://creativecommons.org/ns#"
   xmlns:rdf="http://www.w3.org/1999/02/22-rdf-syntax-ns#"
   xmlns:svg="http://www.w3.org/2000/svg"
   xmlns="http://www.w3.org/2000/svg"
   version="1.1"
   id="svg2"
   xml:space="preserve"
   width="42.666668"
   height="42.666668"
   viewBox="0 0 42.666668 42.666668"><metadata
     id="metadata8"><rdf:RDF><cc:Work
         rdf:about=""><dc:format>image/svg+xml</dc:format><dc:type
           rdf:resource="http://purl.org/dc/dcmitype/StillImage" /></cc:Work></rdf:RDF></metadata><defs
     id="defs6" /><g
     id="g10"
     transform="matrix(1.3333333,0,0,-1.3333333,0,42.666667)"><g
       id="g12"
       transform="scale(0.1)"><path
         d="M 46.7656,46.7617 C 109.121,-15.5977 210.852,-15.5859 273.219,46.7852 L 46.7813,273.219 C -15.5898,210.852 -15.5938,109.121 46.7656,46.7617"
         style="fill:#f6de07;fill-opacity:1;fill-rule:evenodd;stroke:none"
         id="path14" /><path
         d="M 273.234,273.234 C 210.879,335.594 109.148,335.59 46.7813,273.219 L 273.219,46.7852 c 62.367,62.3668 62.375,164.0938 0.015,226.4488"
         style="fill:#298b3d;fill-opacity:1;fill-rule:evenodd;stroke:none"
         id="path16" /><path
         d="m 148.625,170.813 c 4.102,11.191 7.332,22.746 11.375,33.929 3.793,-11.246 7.391,-22.554 11.059,-33.871 11.996,-0.242 23.925,-0.121 35.863,-0.121 -9.512,-7.27 -19.395,-14.043 -28.899,-21.371 3.665,-11.379 7.332,-22.754 10.938,-34.125 -9.699,6.961 -19.27,14.164 -29.09,21.012 -9.629,-6.911 -19.141,-13.989 -28.836,-20.766 3.36,11.434 7.457,22.625 10.754,34.121 -9.57,7.02 -19.266,13.922 -28.711,21.129 11.809,0 23.676,0.063 35.547,0.063"
         style="fill:#dc1e25;fill-opacity:1;fill-rule:nonzero;stroke:none"
         id="path18" /></g></g></svg>
