<?xml version="1.0" encoding="UTF-8" standalone="no"?>
<svg
   xmlns:dc="http://purl.org/dc/elements/1.1/"
   xmlns:cc="http://creativecommons.org/ns#"
   xmlns:rdf="http://www.w3.org/1999/02/22-rdf-syntax-ns#"
   xmlns:svg="http://www.w3.org/2000/svg"
   xmlns="http://www.w3.org/2000/svg"
   version="1.1"
   id="svg2"
   xml:space="preserve"
   width="42.666668"
   height="42.666668"
   viewBox="0 0 42.666668 42.666668"><metadata
     id="metadata8"><rdf:RDF><cc:Work
         rdf:about=""><dc:format>image/svg+xml</dc:format><dc:type
           rdf:resource="http://purl.org/dc/dcmitype/StillImage" /></cc:Work></rdf:RDF></metadata><defs
     id="defs6" /><g
     id="g10"
     transform="matrix(1.3333333,0,0,-1.3333333,0,42.666667)"><g
       id="g12"
       transform="scale(0.1)"><path
         d="M 306.09,95.0117 C 315.004,114.895 320,136.875 320,160.004 320,248.129 248.102,320.031 160.016,320.031 71.8906,320.031 0,248.129 0,160.004 0,136.875 5.00781,114.895 13.9102,95.0117 H 306.09"
         style="fill:#ffffff;fill-opacity:1;fill-rule:nonzero;stroke:none"
         id="path14" /><path
         d="M 13.8438,95.0117 C 38.8281,39.1055 94.9883,-0.0273438 160.016,-0.0273438 c 65.019,0 121.16,39.1328438 146.144,95.0390438 H 13.8438"
         style="fill:#db1e25;fill-opacity:1;fill-rule:evenodd;stroke:none"
         id="path16" /><path
         d="m 214.133,214.934 h -19.481 v -35.715 h 19.481 v 35.715"
         style="fill:#100f0d;fill-opacity:1;fill-rule:nonzero;stroke:none"
         id="path18" /><path
         d="m 212.02,191.074 h 5.847 v 36.567 h -25.883 v -36.567 h 5.539 v 9.918 c 0,4.082 3.321,7.403 7.403,7.403 h 0.242 l 0.133,-0.004 c 3.832,-0.192 6.719,-3.375 6.719,-7.399 z m 6.386,-0.539 h -6.926 v 10.457 c 0,3.731 -2.667,6.684 -6.207,6.863 h -0.105 -0.242 c -3.785,0 -6.863,-3.082 -6.863,-6.863 v -10.457 h -6.618 v 37.641 h 26.961 v -37.641"
         style="fill:#100f0d;fill-opacity:1;fill-rule:nonzero;stroke:none"
         id="path20" /><path
         d="m 218.137,227.906 v -37.101 h -6.387 v 10.187 c 0,3.817 -2.691,6.942 -6.465,7.129 h -0.359 c -3.942,0 -7.133,-3.187 -7.133,-7.129 v -10.187 h -6.078 v 37.101 h 26.422"
         style="fill:#db1e25;fill-opacity:1;fill-rule:nonzero;stroke:none"
         id="path22" /><path
         d="m 97.5,155.68 h 67.309 V 109.414 H 97.5 v 46.266"
         style="fill:#100f0d;fill-opacity:1;fill-rule:nonzero;stroke:none"
         id="path24" /><path
         d="M 132.734,103.563 H 82 v 6.765 l 9.2969,6.121 H 132.734 V 115.91 H 91.457 l -8.9179,-5.871 v -5.937 h 50.1949 v -0.539"
         style="fill:#100f0d;fill-opacity:1;fill-rule:nonzero;stroke:none"
         id="path26" /><path
         d="M 132.465,116.18 H 91.3789 l -9.1094,-5.996 v -6.352 h 50.1955"
         style="fill:#db1e25;fill-opacity:1;fill-rule:nonzero;stroke:none"
         id="path28" /><path
         d="m 126.285,116.469 h 7.188 v 58.355 H 91.6484 v -58.355 h 12.6056 v 15.277 c 0,6.113 5.047,11.277 11.016,11.277 6.074,0 11.015,-5.058 11.015,-11.277 z m 7.727,-0.539 h -8.266 v 15.816 c 0,5.922 -4.699,10.738 -10.476,10.738 -5.68,0 -10.477,-4.918 -10.477,-10.738 V 115.93 H 91.1094 v 59.433 H 134.012 V 115.93"
         style="fill:#100f0d;fill-opacity:1;fill-rule:nonzero;stroke:none"
         id="path30" /><path
         d="m 115.27,142.754 c 5.918,0 10.75,-4.93 10.75,-11.008 v -15.547 h 7.722 v 58.895 H 91.3789 v -58.895 h 13.1441 v 15.547 c 0,5.84 4.75,11.008 10.747,11.008"
         style="fill:#db1e25;fill-opacity:1;fill-rule:nonzero;stroke:none"
         id="path32" /><path
         d="m 105.867,214.934 h 19.481 v -35.715 h -19.481 v 35.715"
         style="fill:#100f0d;fill-opacity:1;fill-rule:nonzero;stroke:none"
         id="path34" /><path
         d="m 87.5391,175.363 h 36.2379 v 4.196 H 87.5391 Z m 36.7769,-0.539 H 87 v 4.735 h -5.0586 v 11.515 h 5.5977 v -6.047 h 7.9414 v 6.047 h 13.0355 v -6.047 h 17.047 v -0.539 H 107.98 v 6.047 H 96.0195 v -6.047 H 87 v 6.047 H 82.4766 V 180.098 H 87 v 0.039 h 37.316 v -0.039 h 1.247 v -0.539 h -1.247 v -4.735"
         style="fill:#100f0d;fill-opacity:1;fill-rule:nonzero;stroke:none"
         id="path36" /><path
         d="m 87.2695,179.867 h 36.7775 v -4.773 H 87.2695 Z m 38.0235,4.891 h -17.047 v 6.047 H 95.75 v -6.047 h -8.4805 v 6.047 H 82.207 v -10.977 h 43.086"
         style="fill:#db1e25;fill-opacity:1;fill-rule:nonzero;stroke:none"
         id="path38" /><path
         d="m 122.473,191.074 h 5.543 v 36.567 h -25.883 v -36.567 h 5.847 v 9.918 c 0,4.024 2.887,7.207 6.719,7.399 l 0.133,0.004 h 0.242 c 4.078,0 7.399,-3.321 7.399,-7.403 z m 6.082,-0.539 h -6.617 v 10.457 c 0,3.781 -3.079,6.863 -6.864,6.863 h -0.242 -0.105 c -3.539,-0.179 -6.211,-3.132 -6.211,-6.863 v -10.457 h -6.922 v 37.641 h 26.961 v -37.641"
         style="fill:#100f0d;fill-opacity:1;fill-rule:nonzero;stroke:none"
         id="path40" /><path
         d="m 101.863,227.906 v -37.101 h 6.383 v 10.187 c 0,3.817 2.695,6.942 6.465,7.129 h 0.363 c 3.942,0 7.129,-3.187 7.129,-7.129 v -10.187 h 6.082 v 37.101 h -26.422"
         style="fill:#db1e25;fill-opacity:1;fill-rule:nonzero;stroke:none"
         id="path42" /><path
         d="m 99.832,228.176 h 30.223 v 4.492 H 99.832 Z m 30.762,-0.535 H 99.293 v 5.566 h 31.301 v -5.566"
         style="fill:#100f0d;fill-opacity:1;fill-rule:nonzero;stroke:none"
         id="path44" /><path
         d="m 99.5625,232.938 v -5.032 h 30.7615 v 5.032 H 99.5625"
         style="fill:#db1e25;fill-opacity:1;fill-rule:nonzero;stroke:none"
         id="path46" /><path
         d="m 95.8867,233.207 h 36.3713 v 9.09 h -5.149 v -4.899 h -7.41 v 4.899 h -9.941 v -4.899 h -7.41 v 4.899 h -6.4613 z m 36.9063,-0.539 H 95.3477 v 10.168 h 7.5393 v -4.898 h 6.332 v 4.898 h 11.019 v -4.898 h 6.332 v 4.898 h 6.223 v -10.168"
         style="fill:#100f0d;fill-opacity:1;fill-rule:nonzero;stroke:none"
         id="path48" /><path
         d="m 95.6172,242.566 v -9.628 h 36.9058 v 9.628 h -5.683 v -4.898 h -6.871 v 4.898 h -10.481 v -4.898 h -6.871 v 4.898 h -6.9998"
         style="fill:#db1e25;fill-opacity:1;fill-rule:nonzero;stroke:none"
         id="path50" /><path
         d="M 165.527,100.453 H 120.59 v 7.832 l 10.555,5.063 h 34.382 v -0.539 h -34.32 l -10.078,-4.864 v -6.953 h 44.398 v -0.539"
         style="fill:#100f0d;fill-opacity:1;fill-rule:nonzero;stroke:none"
         id="path52" /><path
         d="m 165.258,113.078 h -34.113 l -10.286,-4.961 v -7.394 h 44.399"
         style="fill:#db1e25;fill-opacity:1;fill-rule:nonzero;stroke:none"
         id="path54" /><path
         d="M 222.5,155.68 H 155.191 V 109.414 H 222.5 v 46.266"
         style="fill:#100f0d;fill-opacity:1;fill-rule:nonzero;stroke:none"
         id="path56" /><path
         d="m 237.996,103.563 h -50.73 v 0.539 h 50.195 v 5.937 l -8.922,5.871 h -41.273 v 0.539 h 41.433 l 9.297,-6.121 v -6.765"
         style="fill:#100f0d;fill-opacity:1;fill-rule:nonzero;stroke:none"
         id="path58" /><path
         d="m 187.535,116.18 h 41.086 l 9.109,-5.996 v -6.352 h -50.195"
         style="fill:#db1e25;fill-opacity:1;fill-rule:nonzero;stroke:none"
         id="path60" /><path
         d="m 215.746,116.469 h 12.606 v 58.355 h -41.825 v -58.355 h 7.184 v 15.277 c 0,6.219 4.941,11.277 11.019,11.277 5.969,0 11.016,-5.164 11.016,-11.277 z m 13.145,-0.539 h -13.684 v 15.816 c 0,5.82 -4.801,10.738 -10.477,10.738 -5.781,0 -10.48,-4.816 -10.48,-10.738 V 115.93 h -8.262 v 59.433 h 42.903 V 115.93"
         style="fill:#100f0d;fill-opacity:1;fill-rule:nonzero;stroke:none"
         id="path62" /><path
         d="m 204.73,142.754 c -5.917,0 -10.75,-4.93 -10.75,-11.008 v -15.547 h -7.722 v 58.895 h 42.363 v -58.895 h -13.144 v 15.547 c 0,5.84 -4.75,11.008 -10.747,11.008"
         style="fill:#db1e25;fill-opacity:1;fill-rule:nonzero;stroke:none"
         id="path64" /><path
         d="m 196.223,175.363 h 36.238 v 4.196 H 196.223 Z M 233,174.824 h -37.316 v 4.735 h -1.25 v 0.539 h 1.25 v 0.039 H 233 v -0.039 h 4.52 v 10.437 H 233 v -6.047 h -9.02 v 6.047 h -11.96 v -6.047 h -17.586 v 0.539 h 17.046 v 6.047 h 13.04 v -6.047 h 7.941 v 6.047 h 5.598 V 179.559 H 233 v -4.735"
         style="fill:#100f0d;fill-opacity:1;fill-rule:nonzero;stroke:none"
         id="path66" /><path
         d="m 232.73,179.867 h -36.777 v -4.773 h 36.777 z m -38.027,4.891 h 17.047 v 6.047 h 12.5 v -6.047 h 8.48 v 6.047 h 5.059 v -10.977 h -43.086"
         style="fill:#db1e25;fill-opacity:1;fill-rule:nonzero;stroke:none"
         id="path68" /><path
         d="m 189.945,228.176 h 30.223 v 4.492 h -30.223 z m 30.762,-0.535 h -31.301 v 5.566 h 31.301 v -5.566"
         style="fill:#100f0d;fill-opacity:1;fill-rule:nonzero;stroke:none"
         id="path70" /><path
         d="m 220.438,232.938 v -5.032 h -30.762 v 5.032 h 30.762"
         style="fill:#db1e25;fill-opacity:1;fill-rule:nonzero;stroke:none"
         id="path72" /><path
         d="m 187.742,233.207 h 36.371 v 9.09 h -6.461 v -4.899 h -7.41 v 4.899 h -9.945 v -4.899 h -7.406 v 4.899 h -5.149 z m 36.91,-0.539 h -37.449 v 10.168 h 6.227 v -4.898 h 6.332 v 4.898 h 11.019 v -4.898 h 6.332 v 4.898 h 7.539 v -10.168"
         style="fill:#100f0d;fill-opacity:1;fill-rule:nonzero;stroke:none"
         id="path74" /><path
         d="m 224.383,242.566 v -9.628 h -36.906 v 9.628 h 5.683 v -4.898 h 6.867 v 4.898 h 10.485 v -4.898 h 6.871 v 4.898 h 7"
         style="fill:#db1e25;fill-opacity:1;fill-rule:nonzero;stroke:none"
         id="path76" /><path
         d="m 199.41,100.453 h -44.937 v 0.539 h 44.398 v 6.953 l -10.078,4.864 h -34.32 v 0.539 l 34.5,-0.028 10.437,-5.035 v -7.832"
         style="fill:#100f0d;fill-opacity:1;fill-rule:nonzero;stroke:none"
         id="path78" /><path
         d="m 154.742,113.078 h 34.113 l 10.286,-4.961 v -7.394 h -44.399"
         style="fill:#db1e25;fill-opacity:1;fill-rule:nonzero;stroke:none"
         id="path80" /><path
         d="m 178.055,119.945 c -2.336,-0.804 -4.52,-2.07 -6.633,-3.293 l -0.984,-0.566 c -3.606,-2.133 -6.661,-4.223 -9.336,-6.398 -0.922,-0.61 -1.961,-1.352 -2.801,-2.36 -0.918,-0.793 -2.082,-1.976 -1.926,-3.461 l 0.293,0.281 0.926,0.68 c 0.992,0.559 2.195,0.75 3.304,0.524 0.825,0.847 1.793,1.535 2.731,2.203 l 1.758,1.312 c 2.754,2.055 5.945,4.055 10.051,6.289 l 0.105,0.059 c 1.105,0.566 2.25,1.152 3.445,1.578 z m -21.77,-16.566 -0.312,0.367 c -0.231,1.707 1.05,3.027 2.035,3.871 0.855,1.031 1.972,1.828 2.847,2.406 2.676,2.172 5.75,4.278 9.375,6.418 l 0.985,0.571 c 2.191,1.265 4.461,2.578 6.91,3.394 l 0.203,0.067 1.168,-3.946 -0.187,-0.062 c -1.235,-0.418 -2.426,-1.031 -3.575,-1.617 l -0.105,-0.055 c -4.082,-2.227 -7.258,-4.215 -9.988,-6.25 l -1.774,-1.324 c -0.949,-0.68 -1.933,-1.379 -2.75,-2.235 l -0.078,-0.086 -0.117,0.028 c -1.051,0.242 -2.211,0.066 -3.152,-0.477 l -0.079,-0.023 -0.73,-0.571 -0.676,-0.476"
         style="fill:#100f0d;fill-opacity:1;fill-rule:nonzero;stroke:none"
         id="path82" /><path
         d="m 178.191,120.211 c -2.793,-0.93 -5.316,-2.492 -7.855,-3.945 -3.262,-1.93 -6.422,-4.028 -9.363,-6.414 -1.035,-0.684 -2.032,-1.434 -2.828,-2.391 -1.082,-0.926 -2.172,-2.164 -1.965,-3.695 l 1.484,0.863 c 0.992,0.57 2.191,0.754 3.305,0.496 1.336,1.41 3.062,2.352 4.551,3.582 3.16,2.359 6.554,4.383 10.015,6.27 1.207,0.617 2.418,1.246 3.707,1.683 -0.351,1.184 -0.703,2.367 -1.051,3.551"
         style="fill:#f3d809;fill-opacity:1;fill-rule:nonzero;stroke:none"
         id="path84" /><path
         d="m 159.684,102.879 -0.875,-0.281 -1.297,-1.66 0.797,-0.801 0.05,-0.028 c 0.797,-0.5309 1.809,-0.8277 2.852,-0.8277 v 0 c 2.016,0 3.746,1.0507 4.41,2.6757 0.516,1.25 0.699,3.133 -0.492,4.348 -2,2.293 -4.629,3.953 -7.168,5.554 l -0.602,0.379 c -5.492,3.305 -10.48,5.785 -15.226,7.575 l -1.113,-3.094 c 5.394,-2.067 10.933,-4.899 16.464,-8.426 l 0.582,-0.395 c 1.594,-1.074 3.243,-2.187 4.508,-3.691 l 0.035,-0.062 -0.132,-1.09 -1.504,-0.489 -0.106,0.039 z m 1.527,-4.0079 v 0 c -1.113,0 -2.199,0.3125 -3.059,0.8828 l -1.054,1.1601 1.507,2.043 1.079,0.332 1.316,-0.293 0.102,-0.035 1.035,0.332 0.097,0.676 c -1.226,1.445 -2.839,2.535 -4.398,3.586 l -0.578,0.394 c -5.57,3.547 -11.149,6.395 -16.574,8.453 l -0.188,0.071 1.387,3.875 0.195,-0.075 c 4.836,-1.804 9.902,-4.316 15.5,-7.683 l 0.602,-0.379 c 2.566,-1.621 5.218,-3.297 7.254,-5.625 1.32,-1.348 1.132,-3.422 0.57,-4.785 -0.731,-1.781 -2.609,-2.9299 -4.793,-2.9299"
         style="fill:#100f0d;fill-opacity:1;fill-rule:nonzero;stroke:none"
         id="path86" /><path
         d="m 142.008,120.078 c -0.418,-1.16 -0.832,-2.32 -1.25,-3.484 5.824,-2.207 11.367,-5.129 16.613,-8.477 1.777,-1.211 3.649,-2.383 5.043,-4.043 l -1.379,-1.308 -2.344,0.004 c -1.164,-0.528 -2.214,-2.25 -0.445,-2.8286 2.434,-1.6367 6.395,-0.9258 7.567,1.9376 0.609,1.476 0.648,3.359 -0.536,4.57 -2.168,2.489 -5.047,4.215 -7.804,5.965 -4.934,2.965 -10.067,5.652 -15.465,7.664 v 0"
         style="fill:#f3d809;fill-opacity:1;fill-rule:nonzero;stroke:none"
         id="path88" /><path
         d="m 151.492,30.4961 h 5.149 v 7.9062 h -17.633 v -7.9062 h 4.75 v 4.2383 h 7.734 z m 5.688,-0.5391 h -6.223 v 4.2383 h -6.66 V 29.957 h -5.828 v 8.9844 H 157.18 Z M 139.008,18.8281 h 17.633 v 7.9414 h -5.149 v -4.2382 h -7.734 v 4.2382 h -4.75 z m 18.172,-0.539 h -18.711 v 9.0195 h 5.828 v -4.2422 h 6.66 v 4.2422 h 6.223 v -9.0195"
         style="fill:#100f0d;fill-opacity:1;fill-rule:nonzero;stroke:none"
         id="path90" /><path
         d="m 138.734,27.0391 v -8.4805 h 18.176 v 8.4805 h -5.683 v -4.2383 h -7.2 v 4.2383 z m 0,11.6328 v -8.4453 h 5.293 v 4.2382 h 7.2 v -4.2382 h 5.683 v 8.4453 h -18.176"
         style="fill:#f3d809;fill-opacity:1;fill-rule:nonzero;stroke:none"
         id="path92" /><path
         d="m 157.168,13.4883 h 4.711 v 60.5781 h -4.711 z m 5.246,-0.5391 h -5.785 v 61.6563 h 5.785 V 12.9492"
         style="fill:#100f0d;fill-opacity:1;fill-rule:nonzero;stroke:none"
         id="path94" /><path
         d="m 156.898,74.3359 h 5.25 V 13.2188 h -5.25 v 61.1171"
         style="fill:#f3d809;fill-opacity:1;fill-rule:nonzero;stroke:none"
         id="path96" /><path
         d="m 148.898,82.8125 10.625,-6.1562 10.625,6.1562 -10.625,6.1836 z m 10.625,-6.7969 -11.722,6.793 11.722,6.8281 11.723,-6.8281 z m -17.601,4.7383 h 2.723 l 14.878,-8.6367 14.879,8.6367 h 2.723 v 4.1133 h -2.723 L 159.523,93.5 144.645,84.8672 h -2.723 z m 17.601,-9.2734 -15.027,8.7187 h -3.129 v 5.2188 h 3.129 l 15.027,8.7226 15.028,-8.7226 h 3.125 v -5.2188 h -3.125 l -15.028,-8.7187"
         style="fill:#100f0d;fill-opacity:1;fill-rule:nonzero;stroke:none"
         id="path98" /><path
         d="m 144.57,85.1445 h -2.925 v -4.6679 h 2.925 l 14.953,-8.6758 14.954,8.6758 h 2.925 v 4.6679 h -2.925 l -14.954,8.6758 z m 14.953,4.1719 11.172,-6.5078 -11.172,-6.4727 -11.175,6.4727 11.175,6.5078"
         style="fill:#f3d809;fill-opacity:1;fill-rule:nonzero;stroke:none"
         id="path100" /><path
         d="m 163.695,91.7109 1.551,-0.8945 c -0.004,1.1289 -0.004,2.2578 0,3.3906 0,2.0743 0.004,4.1485 -0.012,6.219 l -1.519,-1.1174 -0.02,-0.0117 z m 2.106,-1.8515 -2.656,1.5351 v 8.2149 l 0.289,0.1719 1.711,1.4647 0.207,0.383 0.257,-0.348 0.157,-0.605 0.015,-0.188 c 0.02,-2.1208 0.02,-4.2028 0.016,-6.2849 0,-1.289 -0.004,-2.5781 0,-3.8672 z m -6.5,15.0896 c -2.293,-0.328 -4.156,-2.668 -4.02,-5.1092 0.004,-1.5 0,-2.9882 0,-4.4765 -0.004,-2.4024 -0.008,-4.8867 0.016,-7.3281 0.129,-2.4414 2.254,-4.5313 4.641,-4.5547 l 0.441,-0.0196 c 1.762,0 3.441,1.0196 4.258,2.5625 l -1.324,0.793 c -0.586,-1.1523 -1.926,-1.8984 -3.278,-1.75 l -0.043,-0.0039 v 0 l -2.269,1.0469 c -0.649,0.7109 -0.973,1.6445 -0.891,2.5547 0.004,1.4726 0.004,2.9687 0,4.4648 -0.004,2.3711 -0.008,4.8164 0.016,7.2261 0.101,1.727 1.715,3.165 3.461,3.012 l 0.964,-0.137 0.524,-0.125 0.258,0.176 -0.75,1.539 -0.137,0.11 -1.094,0.019 z m 1.078,-22.0388 -0.469,0.0234 c -2.644,0.0195 -5.019,2.3516 -5.168,5.082 -0.019,2.461 -0.015,4.9453 -0.012,7.3477 0,1.4883 0.004,2.9765 0,4.4609 -0.152,2.7028 1.93,5.3088 4.54,5.6718 h 0.328 l 0.461,0.008 1.261,-0.039 0.078,-0.012 0.25,-0.203 c 0.59,-0.473 1.579,-1.262 0.879,-2.254 l -0.73,-0.441 -0.692,0.152 -0.699,0.117 -0.054,-0.015 -0.051,0.004 c -1.457,0.156 -2.817,-1.047 -2.903,-2.477 -0.019,-2.3907 -0.019,-4.8399 -0.015,-7.2032 0.004,-1.5 0.004,-2.9961 0,-4.4961 l 0.75,-2.1562 1.859,-0.8633 h 0.067 l 0.32,-0.0156 c 1.125,0 2.172,0.7031 2.551,1.7109 l 0.117,0.3086 2.301,-1.3828 -0.102,-0.2227 c -0.855,-1.8593 -2.812,-3.1054 -4.867,-3.1054"
         style="fill:#100f0d;fill-opacity:1;fill-rule:nonzero;stroke:none"
         id="path102" /><path
         d="m 157.168,16.6719 h 4.711 v 52.1094 h -4.711 z m 5.246,-0.5391 h -5.785 v 53.1836 h 5.785 V 16.1328"
         style="fill:#100f0d;fill-opacity:1;fill-rule:nonzero;stroke:none"
         id="path104" /><path
         d="m 156.898,69.0508 h 5.25 V 16.4023 h -5.25 v 52.6485"
         style="fill:#f3d809;fill-opacity:1;fill-rule:nonzero;stroke:none"
         id="path106" /><path
         d="m 165.391,101.117 -1.973,-1.6639 v -7.9023 l 2.102,-1.2149 c -0.008,3.3711 0.015,6.7383 -0.012,10.1091 l -0.117,0.672 z m -6.082,4.106 c -2.543,-0.356 -4.446,-2.871 -4.305,-5.3988 0.012,-3.9297 -0.02,-7.8633 0.016,-11.7929 0.132,-2.5313 2.347,-4.8008 4.914,-4.8243 2.089,-0.1992 4.187,1.0235 5.062,2.9219 l -1.808,1.0859 c -0.465,-1.246 -1.813,-2.0156 -3.122,-1.875 -1.718,-0.0468 -3.113,1.625 -2.957,3.2969 0.008,3.9063 -0.019,7.8125 0.012,11.7153 0.098,1.593 1.617,2.898 3.207,2.738 l 1.973,0.062 -1.02,2.039 -1.972,0.032"
         style="fill:#f3d809;fill-opacity:1;fill-rule:nonzero;stroke:none"
         id="path108" /><path
         d="m 144.02,237.66 h 30.839 V 181.656 H 144.02 v 56.004"
         style="fill:#100f0d;fill-opacity:1;fill-rule:nonzero;stroke:none"
         id="path110" /><path
         d="m 150.082,217.758 h 2.516 v 11.195 h -2.516 z m 3.055,-0.539 h -3.594 v 12.273 h 3.594 z m 14.265,0.539 h 2.516 v 11.195 h -2.516 z m 3.055,-0.539 h -3.594 v 12.273 h 3.594 z m -11.699,-0.61 h 2.484 v 15.5 h -2.484 z m 3.023,-0.539 h -3.562 v 16.578 h 3.562 z m 6.836,-25.031 h 9.254 v 46.328 h -35.742 v -46.328 h 9.254 v 13.633 c 0,2.945 1.812,7.926 8.617,7.926 6.801,0 8.617,-4.981 8.617,-7.926 z m 9.793,-0.535 h -10.332 v 14.168 c 0,2.746 -1.703,7.391 -8.078,7.391 -6.379,0 -8.078,-4.645 -8.078,-7.391 V 190.504 H 141.59 v 47.402 h 36.82 v -47.402"
         style="fill:#100f0d;fill-opacity:1;fill-rule:nonzero;stroke:none"
         id="path112" /><path
         d="m 138.809,238.219 h 42.382 v 5.906 h -42.382 z m 42.921,-0.516 h -43.46 v 6.938 h 43.46 v -6.938"
         style="fill:#100f0d;fill-opacity:1;fill-rule:nonzero;stroke:none"
         id="path114" /><path
         d="m 134.766,244.641 h 50.468 v 7.218 h -5.871 v -4.273 h -7.769 v 4.273 h -7.711 v -4.273 h -7.77 v 4.273 h -7.707 v -4.273 h -7.769 v 4.273 h -5.871 z m 51.007,-0.536 h -51.546 v 8.293 h 6.949 v -4.273 h 6.691 v 4.273 h 8.785 v -4.273 h 6.696 v 4.273 h 8.785 v -4.273 h 6.691 v 4.273 h 6.949 v -8.293"
         style="fill:#100f0d;fill-opacity:1;fill-rule:nonzero;stroke:none"
         id="path116" /><path
         d="m 125.301,170.531 h 69.398 v 4.293 h -69.398 z m 69.937,-0.539 h -70.476 v 5.371 h 70.476 v -5.371"
         style="fill:#100f0d;fill-opacity:1;fill-rule:nonzero;stroke:none"
         id="path118" /><path
         d="m 122.441,175.363 h 75.118 v 15.172 h -6.625 v -6.047 h -10.071 v 6.047 h -12.246 v -6.047 h -17.234 v 6.047 h -12.246 v -6.047 h -10.071 v 6.047 h -6.625 z m 75.657,-0.539 h -76.196 v 16.25 h 7.703 v -6.047 h 8.993 v 6.047 h 13.324 v -6.047 h 16.156 v 6.047 h 13.324 v -6.047 h 8.993 v 6.047 h 7.703 v -16.25"
         style="fill:#100f0d;fill-opacity:1;fill-rule:nonzero;stroke:none"
         id="path120" /><path
         d="m 175.484,113.383 h 12.969 v 56.609 h -56.906 v -56.609 h 12.969 v 21.125 c 0,9.308 5.933,15.09 15.484,15.09 7.145,0 15.484,-3.953 15.484,-15.09 z m 13.239,-0.539 h -13.508 l -0.27,0.265 v 21.399 c 0,10.738 -8.05,14.551 -14.945,14.551 -9.359,0 -14.945,-5.442 -14.945,-14.551 v -21.399 l -0.27,-0.265 h -13.508 l -0.269,0.265 v 57.153 l 0.269,0.269 h 57.446 l 0.269,-0.269 v -57.153 l -0.269,-0.265"
         style="fill:#100f0d;fill-opacity:1;fill-rule:nonzero;stroke:none"
         id="path122" /><path
         d="m 122.172,190.805 v -15.711 h 75.656 v 15.711 h -7.164 v -6.047 h -9.531 v 6.047 h -12.785 v -6.047 h -16.696 v 6.047 h -12.785 v -6.047 h -9.531 v 6.047 h -7.164"
         style="fill:#db1e25;fill-opacity:1;fill-rule:nonzero;stroke:none"
         id="path124" /><path
         d="m 125.031,174.824 v -4.562 h 69.938 v 4.562 h -69.938"
         style="fill:#db1e25;fill-opacity:1;fill-rule:nonzero;stroke:none"
         id="path126" /><path
         d="m 167.133,229.223 h 3.055 v -11.735 h -3.055 z m -17.32,0 h 3.054 v -11.735 h -3.054 z m 8.675,3.156 h 3.024 V 216.34 h -3.024 z m -16.629,5.258 V 190.77 h 9.793 v 13.902 c 0,3.207 2.051,7.656 8.348,7.656 6.293,0 8.348,-4.449 8.348,-7.656 V 190.77 h 9.793 v 46.867 h -36.282"
         style="fill:#db1e25;fill-opacity:1;fill-rule:nonzero;stroke:none"
         id="path128" /><path
         d="m 138.539,244.105 v -6.132 h 42.922 v 6.132 h -42.922"
         style="fill:#db1e25;fill-opacity:1;fill-rule:nonzero;stroke:none"
         id="path130" /><path
         d="m 134.496,252.129 v -7.754 h 51.008 v 7.754 h -6.41 v -4.274 h -7.231 v 4.274 h -8.25 v -4.274 h -7.226 v 4.274 h -8.25 v -4.274 h -7.231 v 4.274 h -6.41"
         style="fill:#db1e25;fill-opacity:1;fill-rule:nonzero;stroke:none"
         id="path132" /><path
         d="m 131.277,170.262 v -57.149 h 13.504 v 21.395 c 0,10.078 6.731,14.82 15.219,14.82 8.16,0 15.215,-4.742 15.215,-14.82 v -21.395 h 13.508 v 57.149 h -57.446"
         style="fill:#db1e25;fill-opacity:1;fill-rule:nonzero;stroke:none"
         id="path134" /></g></g></svg>
