<?xml version="1.0" encoding="UTF-8" standalone="no"?>
<svg
   xmlns:dc="http://purl.org/dc/elements/1.1/"
   xmlns:cc="http://creativecommons.org/ns#"
   xmlns:rdf="http://www.w3.org/1999/02/22-rdf-syntax-ns#"
   xmlns:svg="http://www.w3.org/2000/svg"
   xmlns="http://www.w3.org/2000/svg"
   version="1.1"
   id="svg2"
   xml:space="preserve"
   width="42.666668"
   height="42.666668"
   viewBox="0 0 42.666668 42.666668"><metadata
     id="metadata8"><rdf:RDF><cc:Work
         rdf:about=""><dc:format>image/svg+xml</dc:format><dc:type
           rdf:resource="http://purl.org/dc/dcmitype/StillImage" /></cc:Work></rdf:RDF></metadata><defs
     id="defs6" /><g
     id="g10"
     transform="matrix(1.3333333,0,0,-1.3333333,0,42.666667)"><g
       id="g12"
       transform="scale(0.1)"><path
         d="m 127.688,258.797 c -54.5552,0 -98.7974,-44.234 -98.7974,-98.801 H 226.492 c 0,54.567 -44.238,98.801 -98.804,98.801"
         style="fill:#d21b34;fill-opacity:1;fill-rule:nonzero;stroke:none"
         id="path14" /><path
         d="m 127.688,258.797 c 54.566,0 98.804,-44.231 98.804,-98.801 H 320 c 0,88.141 -71.879,160.02 -159.992,160.02 C 71.875,320.016 0,248.137 0,159.996 h 28.8906 c 0,54.57 44.2461,98.801 98.7974,98.801"
         style="fill:#ffffff;fill-opacity:1;fill-rule:evenodd;stroke:none"
         id="path16" /><path
         d="m 127.688,61.1992 c -54.5552,0 -98.7974,44.2348 -98.7974,98.7968 H 226.492 c 0,-54.562 -44.238,-98.7968 -98.804,-98.7968"
         style="fill:#ffffff;fill-opacity:1;fill-rule:nonzero;stroke:none"
         id="path18" /><path
         d="m 127.688,61.1992 c -54.5513,0 -98.7974,44.2348 -98.7974,98.7968 H 226.492 c 0,-54.562 -44.238,-98.7968 -98.804,-98.7968 z m 98.804,98.7968 H 0 C 0,71.8633 71.875,-0.0195313 160.008,-0.0195313 248.121,-0.0195313 320,71.8633 320,159.996 h -93.508"
         style="fill:#d21b34;fill-opacity:1;fill-rule:evenodd;stroke:none"
         id="path20" /></g></g></svg>
