<?xml version="1.0" encoding="UTF-8" standalone="no"?>
<svg
   xmlns:dc="http://purl.org/dc/elements/1.1/"
   xmlns:cc="http://creativecommons.org/ns#"
   xmlns:rdf="http://www.w3.org/1999/02/22-rdf-syntax-ns#"
   xmlns:svg="http://www.w3.org/2000/svg"
   xmlns="http://www.w3.org/2000/svg"
   version="1.1"
   id="svg2"
   xml:space="preserve"
   width="42.666668"
   height="42.666668"
   viewBox="0 0 42.666668 42.666668"><metadata
     id="metadata8"><rdf:RDF><cc:Work
         rdf:about=""><dc:format>image/svg+xml</dc:format><dc:type
           rdf:resource="http://purl.org/dc/dcmitype/StillImage" /></cc:Work></rdf:RDF></metadata><defs
     id="defs6" /><g
     id="g10"
     transform="matrix(1.3333333,0,0,-1.3333333,0,42.666667)"><g
       id="g12"
       transform="scale(0.1)"><path
         d="M 310.512,105.586 9.45703,105.605 C 31.7305,44.0078 90.7031,-0.0546875 159.965,-0.0546875 229.246,-0.0820313 288.242,43.9844 310.512,105.586"
         style="fill:#377631;fill-opacity:1;fill-rule:nonzero;stroke:none"
         id="path14" /><path
         d="M 314.734,119.145 H 5.25781 c 1.21485,-4.59 2.59766,-9.125 4.22266,-13.559 l 301.06253,0.019 c 1.586,4.442 2.969,8.977 4.191,13.54"
         style="fill:#ffffff;fill-opacity:1;fill-rule:evenodd;stroke:none"
         id="path16" /><path
         d="m 314.73,119.145 c 3.426,13.035 5.27,26.707 5.27,40.804 0,14.11 -1.84,27.758 -5.266,40.766 H 5.25 C 1.82813,187.688 0,174.031 0,159.93 0,145.84 1.82422,132.172 5.25781,119.145 H 314.73"
         style="fill:#2b3383;fill-opacity:1;fill-rule:evenodd;stroke:none"
         id="path18" /><path
         d="M 9.48047,214.32 310.512,214.281 c -22.239,61.606 -81.235,105.664 -150.5,105.688 -69.2893,0 -128.2815,-44.043 -150.53153,-105.649"
         style="fill:#d01e27;fill-opacity:1;fill-rule:evenodd;stroke:none"
         id="path20" /><path
         d="m 314.734,200.711 c -1.222,4.629 -2.629,9.16 -4.222,13.59 L 9.45703,214.281 C 7.85547,209.828 6.44922,205.34 5.25781,200.711 H 314.734"
         style="fill:#ffffff;fill-opacity:1;fill-rule:evenodd;stroke:none"
         id="path22" /></g></g></svg>
