<?xml version="1.0" encoding="UTF-8" standalone="no"?>
<svg
   xmlns:dc="http://purl.org/dc/elements/1.1/"
   xmlns:cc="http://creativecommons.org/ns#"
   xmlns:rdf="http://www.w3.org/1999/02/22-rdf-syntax-ns#"
   xmlns:svg="http://www.w3.org/2000/svg"
   xmlns="http://www.w3.org/2000/svg"
   version="1.1"
   id="svg2"
   xml:space="preserve"
   width="42.666668"
   height="42.666668"
   viewBox="0 0 42.666668 42.666668"><metadata
     id="metadata8"><rdf:RDF><cc:Work
         rdf:about=""><dc:format>image/svg+xml</dc:format><dc:type
           rdf:resource="http://purl.org/dc/dcmitype/StillImage" /></cc:Work></rdf:RDF></metadata><defs
     id="defs6" /><g
     id="g10"
     transform="matrix(1.3333333,0,0,-1.3333333,0,42.666667)"><g
       id="g12"
       transform="scale(0.1)"><path
         d="M 310.523,214.344 H 9.47266 C 3.34375,197.375 0,179.078 0,160.004 0,140.914 3.34375,122.613 9.47266,105.66 H 310.523 c 6.129,16.953 9.477,35.254 9.477,54.344 0,19.074 -3.348,37.371 -9.477,54.34"
         style="fill:#ffffff;fill-opacity:1;fill-rule:evenodd;stroke:none"
         id="path14" /><path
         d="M 9.47266,214.344 H 310.523 c -22.277,61.597 -81.265,105.66 -150.527,105.66 -69.2812,0 -128.2733,-44.063 -150.52334,-105.66"
         style="fill:#3e9e3b;fill-opacity:1;fill-rule:evenodd;stroke:none"
         id="path16" /><path
         d="M 310.523,105.66 H 9.47266 C 31.7227,44.0547 90.7148,-0.00390625 159.996,-0.00390625 c 69.262,0 128.25,44.05860625 150.527,105.66390625"
         style="fill:#e42024;fill-opacity:1;fill-rule:evenodd;stroke:none"
         id="path18" /><path
         d="M 27.1602,248.996 H 27.0273 C 9.96875,223.555 0,192.934 0,160.004 0,127.359 9.79297,97.0039 26.5469,71.707 h 0.1406 l 67.0859,88.785 -66.6132,88.504"
         style="fill:#3c6dbe;fill-opacity:1;fill-rule:nonzero;stroke:none"
         id="path20" /><path
         d="m 138.566,186.645 h 42.727 v -44.758 c 0,-15.059 -19.633,-3.457 -21.309,-11.489 -2.898,8.254 -21.304,-3.679 -21.304,12.383 0,15.617 -0.114,43.864 -0.114,43.864"
         style="fill:#ffffff;fill-opacity:1;fill-rule:nonzero;stroke:none"
         id="path22" /><path
         d="m 152.586,134.516 c 2.719,0 5.664,-0.203 7.309,-2.282 1.296,1.871 3.933,2.172 6.671,2.172 0.766,0 1.575,-0.023 2.356,-0.047 0.808,-0.023 1.644,-0.046 2.465,-0.046 5.621,0 9.101,1.265 9.101,7.574 v 43.953 h -41.117 c 0.02,-4.731 0.109,-29.094 0.109,-43.059 0,-7.683 4.372,-8.32 9.239,-8.32 0.648,0 1.301,0.016 1.949,0.027 0.648,0.016 1.293,0.028 1.918,0.028 z m 7.598,-7.106 -0.957,2.723 c -0.813,2.312 -3.141,2.777 -6.641,2.777 -0.617,0 -1.246,-0.015 -1.887,-0.027 -0.656,-0.016 -1.32,-0.028 -1.98,-0.028 -5.633,0 -10.844,1.204 -10.844,9.926 0,15.438 -0.109,43.578 -0.109,43.86 l -0.004,0.804 h 44.332 v -45.558 c 0,-8.09 -5.41,-9.184 -10.707,-9.184 -0.844,0 -1.692,0.027 -2.512,0.051 -0.805,0.023 -1.566,0.043 -2.309,0.043 -3.836,0 -5.406,-0.692 -5.793,-2.563 l -0.589,-2.824"
         style="fill:#100f0d;fill-opacity:1;fill-rule:nonzero;stroke:none"
         id="path24" /><path
         d="m 162.996,137.539 c 0,0 -0.555,-0.559 -1.558,-0.113 -1.004,0.445 -1.118,28.668 -1.118,28.668 2.231,2.457 4.016,3.238 4.016,3.238 l 1.34,-1.117 c -5.02,-2.567 -4.574,-6.246 -4.129,-12.606 0.113,-2.343 0.113,-5.355 0.668,-8.254 0.781,-3.683 2.344,-6.804 2.457,-9.148 0.109,-1.449 -1.676,-0.668 -1.676,-0.668"
         style="fill:#6e3b27;fill-opacity:1;fill-rule:nonzero;stroke:none"
         id="path26" /><path
         d="m 160.488,166.031 c 0.043,-11.062 0.356,-27.722 1.035,-28.465 0.215,-0.093 0.446,-0.144 0.661,-0.144 0.449,0 0.695,0.23 0.695,0.234 l 0.082,0.082 0.105,-0.047 c 0.004,-0.003 0.454,-0.195 0.86,-0.195 0.207,0 0.359,0.051 0.453,0.152 0.101,0.11 0.144,0.293 0.125,0.547 -0.063,1.278 -0.559,2.782 -1.129,4.524 -0.457,1.383 -0.973,2.945 -1.32,4.601 -0.453,2.352 -0.539,4.739 -0.617,6.844 -0.02,0.5 -0.036,0.981 -0.059,1.438 l -0.043,0.636 c -0.422,5.895 -0.676,9.485 4.039,12.008 l -1.062,0.887 c -0.387,-0.195 -1.95,-1.051 -3.825,-3.102 z m 1.696,-28.945 c -0.262,0 -0.536,0.062 -0.817,0.187 -0.234,0.106 -0.722,0.321 -1.031,14.653 -0.152,7.031 -0.184,14.097 -0.184,14.168 v 0.066 l 0.043,0.047 c 2.231,2.453 4,3.242 4.075,3.277 l 0.093,0.039 1.614,-1.343 -0.227,-0.114 c -4.75,-2.429 -4.512,-5.757 -4.082,-11.804 l 0.047,-0.641 c 0.019,-0.461 0.039,-0.941 0.058,-1.445 0.075,-2.094 0.161,-4.465 0.61,-6.789 0.344,-1.633 0.855,-3.192 1.308,-4.563 0.582,-1.765 1.082,-3.293 1.149,-4.609 0.023,-0.344 -0.047,-0.613 -0.219,-0.797 -0.156,-0.172 -0.391,-0.258 -0.695,-0.258 -0.36,0 -0.731,0.121 -0.899,0.188 -0.136,-0.102 -0.422,-0.262 -0.843,-0.262"
         style="fill:#100f0d;fill-opacity:1;fill-rule:nonzero;stroke:none"
         id="path28" /><path
         d="m 159.539,170 h 2.008 c -1.672,-16.176 -0.223,-25.77 -0.223,-30.453 0,-1.563 0.891,-2.121 0.781,-2.121 -2.007,-2.231 -3.011,0.113 -3.011,0.113 L 159.539,170"
         style="fill:#6e3b27;fill-opacity:1;fill-rule:nonzero;stroke:none"
         id="path30" /><path
         d="m 159.262,137.574 c 0.078,-0.164 0.496,-0.945 1.215,-0.945 0.429,0 0.906,0.273 1.414,0.812 -0.219,0.25 -0.735,0.895 -0.735,2.106 0,1.148 -0.086,2.57 -0.195,4.375 -0.332,5.504 -0.836,13.808 0.402,25.91 h -1.66 z m 1.215,-1.277 c -1.024,0 -1.516,1.129 -1.539,1.176 l -0.012,0.031 0.449,32.664 h 2.359 l -0.019,-0.184 c -1.262,-12.175 -0.754,-20.519 -0.418,-26.043 0.109,-1.808 0.195,-3.234 0.195,-4.394 0,-1.156 0.516,-1.734 0.684,-1.922 0.07,-0.078 0.14,-0.156 0.09,-0.266 l -0.043,-0.097 h -0.043 c -0.59,-0.641 -1.164,-0.965 -1.703,-0.965"
         style="fill:#100f0d;fill-opacity:1;fill-rule:nonzero;stroke:none"
         id="path32" /><path
         d="m 156.414,137.539 c -1.894,-0.894 -2.117,0.891 -2.008,1.113 4.129,8.368 5.914,26.774 2.121,28.782 l 0.223,1.785 c 1.449,-0.446 2.789,-2.344 2.789,-2.344 0.559,-20.637 0,-29.113 -0.336,-29.449 -2.008,-2.117 -2.789,0.336 -2.898,0.558"
         style="fill:#9e5c1f;fill-opacity:1;fill-rule:nonzero;stroke:none"
         id="path34" /><path
         d="m 156.453,138.059 c 0.012,-0.02 0.024,-0.051 0.043,-0.098 0.113,-0.27 0.453,-1.094 1.074,-1.211 0.434,-0.078 0.942,0.188 1.512,0.793 0.27,0.457 0.859,8.27 0.289,29.277 -0.187,0.258 -1.289,1.696 -2.48,2.172 l -0.184,-1.469 c 1.731,-1.07 2.438,-5.57 1.898,-12.109 -0.523,-6.301 -2.109,-12.91 -4.046,-16.836 -0.032,-0.086 0.007,-0.617 0.343,-0.918 0.301,-0.269 0.762,-0.273 1.364,-0.008 -0.036,0.075 -0.059,0.133 -0.078,0.184 -0.016,0.031 -0.028,0.059 -0.036,0.074 z m 1.27,-1.657 c -0.071,0 -0.145,0.008 -0.211,0.02 -0.532,0.098 -0.883,0.547 -1.098,0.93 -0.965,-0.43 -1.508,-0.176 -1.793,0.113 -0.387,0.394 -0.465,1.055 -0.363,1.262 4.347,8.808 5.719,26.691 2.191,28.558 l -0.101,0.055 0.261,2.098 0.192,-0.059 c 1.484,-0.457 2.82,-2.328 2.875,-2.406 l 0.027,-0.043 0.004,-0.047 c 0.523,-19.391 0.078,-29.11 -0.383,-29.574 -0.57,-0.602 -1.109,-0.907 -1.601,-0.907"
         style="fill:#100f0d;fill-opacity:1;fill-rule:nonzero;stroke:none"
         id="path36" /><path
         d="m 156.141,137.84 c -0.149,0.785 0.324,2.004 0.922,3.547 0.839,2.16 1.882,4.851 1.75,7.633 l 0.335,0.015 c 0.133,-2.851 -0.925,-5.582 -1.773,-7.769 -0.555,-1.434 -1.035,-2.672 -0.906,-3.364 l -0.328,-0.062"
         style="fill:#100f0d;fill-opacity:1;fill-rule:nonzero;stroke:none"
         id="path38" /><path
         d="m 163.164,137.523 -0.332,0.032 c 0.211,2.226 -0.176,4.613 -1.219,7.511 l 0.313,0.114 c 1.062,-2.946 1.457,-5.379 1.238,-7.657"
         style="fill:#100f0d;fill-opacity:1;fill-rule:nonzero;stroke:none"
         id="path40" /><path
         d="m 166.121,177.586 c 0.668,0.781 0.668,0.781 1.895,0.781 0.222,1.672 3.011,1.672 3.238,-0.445 2.23,0.445 2.676,-0.895 1.781,-2.234 2.121,0.558 4.02,0 3.461,-2.454 3.793,-1.004 2.344,-3.679 0.668,-4.238 -0.223,-1.672 -1.785,-2.23 -3.902,-1.562 -2.68,-1.895 -4.242,-1.227 -5.469,0.668 -3.012,-0.446 -3.234,0.226 -4.57,1.898 -2.344,-1.004 -2.789,-1.004 -4.797,0.223 -0.113,-1.563 -0.672,-1.114 -1.676,-1.004 0.113,-2.008 -0.668,-2.899 -2.453,-2.231 1.34,-2.789 -2.121,-4.015 -3.793,-1.672 -1.563,-0.113 -1.676,0.332 -2.453,0.891 -0.672,-2.23 -3.125,-1.894 -3.571,-0.668 -3.125,0.445 -2.789,2.117 -0.222,2.231 0.222,1.785 1.781,1.449 2.789,1.226 0.109,1.113 0.777,0.891 1.336,0.668 -0.332,0.781 -0.11,1.227 0.894,1.449 -1.453,1.899 -0.558,2.567 0.891,3.239 -0.781,1.785 0.559,1.671 1.562,1.785 -0.113,1.894 0.446,2.23 2.454,2.453 -0.223,0.668 0.113,1.226 1.226,1.226 -0.668,1.899 0.227,2.332 2.235,2.008 0.332,2.754 6.246,1.449 5.8,-2.344 1.672,-0.222 2.231,-0.554 2.676,-1.894"
         style="fill:#2c9e41;fill-opacity:1;fill-rule:nonzero;stroke:none"
         id="path42" /><path
         d="m 150.586,165.488 0.055,-0.078 c 0.527,-0.738 1.293,-1.164 2.093,-1.164 0.629,0 1.18,0.274 1.469,0.734 0.32,0.504 0.301,1.192 -0.058,1.934 l -0.18,0.375 0.39,-0.144 c 0.829,-0.309 1.43,-0.278 1.797,0.109 0.336,0.355 0.485,1.016 0.43,1.957 l -0.012,0.195 0.2,-0.019 c 0.183,-0.024 0.351,-0.051 0.503,-0.082 0.188,-0.035 0.344,-0.063 0.473,-0.063 0.188,0 0.442,0 0.512,0.992 l 0.019,0.274 0.235,-0.141 c 1.023,-0.629 1.629,-0.926 2.285,-0.926 0.586,0 1.254,0.239 2.359,0.711 l 0.117,0.051 0.079,-0.098 c 0.109,-0.14 0.214,-0.269 0.308,-0.394 0.852,-1.082 1.235,-1.574 2.617,-1.574 0.403,0 0.887,0.043 1.493,0.133 l 0.105,0.015 0.059,-0.09 c 0.761,-1.175 1.562,-1.726 2.515,-1.726 0.781,0 1.668,0.359 2.715,1.101 l 0.066,0.047 0.083,-0.023 c 0.562,-0.18 1.085,-0.27 1.558,-0.27 1.227,0 1.981,0.602 2.129,1.696 l 0.012,0.101 0.101,0.035 c 0.793,0.266 1.637,1.11 1.61,2.016 -0.028,0.848 -0.832,1.519 -2.27,1.902 l -0.156,0.039 0.035,0.16 c 0.18,0.793 0.106,1.407 -0.23,1.825 -0.411,0.515 -1.125,0.621 -1.657,0.621 -0.422,0 -0.879,-0.063 -1.367,-0.192 l -0.426,-0.113 0.246,0.367 c 0.395,0.594 0.508,1.176 0.301,1.559 -0.246,0.461 -0.937,0.613 -1.914,0.418 l -0.18,-0.039 -0.019,0.183 c -0.109,1.036 -0.875,1.5 -1.582,1.5 -0.59,0 -1.223,-0.328 -1.32,-1.058 l -0.02,-0.145 h -0.148 c -1.149,0 -1.149,0 -1.77,-0.722 l -0.191,-0.223 -0.094,0.277 c -0.406,1.231 -0.883,1.563 -2.539,1.785 l -0.164,0.024 0.019,0.16 c 0.106,0.879 -0.148,1.688 -0.73,2.344 -0.695,0.781 -1.828,1.285 -2.887,1.285 -1.058,0 -1.75,-0.496 -1.851,-1.324 l -0.02,-0.172 -0.172,0.027 c -1.179,0.188 -1.855,0.102 -2.121,-0.273 -0.203,-0.289 -0.18,-0.797 0.074,-1.516 l 0.078,-0.223 h -0.238 c -0.504,0 -0.855,-0.117 -1.019,-0.343 -0.153,-0.211 -0.11,-0.477 -0.047,-0.66 l 0.066,-0.2 -0.207,-0.023 c -1.933,-0.215 -2.414,-0.465 -2.305,-2.277 l 0.008,-0.157 -0.156,-0.019 c -0.109,-0.012 -0.227,-0.024 -0.34,-0.031 -0.519,-0.043 -1.055,-0.09 -1.234,-0.391 -0.133,-0.223 -0.082,-0.602 0.144,-1.129 l 0.067,-0.152 -0.149,-0.067 c -0.812,-0.375 -1.383,-0.73 -1.508,-1.234 -0.109,-0.438 0.114,-1.012 0.68,-1.746 l 0.156,-0.211 -0.253,-0.055 c -0.469,-0.105 -0.747,-0.258 -0.852,-0.461 -0.094,-0.179 -0.066,-0.426 0.078,-0.762 l 0.156,-0.371 -0.375,0.153 c -0.203,0.082 -0.441,0.168 -0.629,0.168 -0.125,0 -0.41,0 -0.48,-0.7 l -0.02,-0.187 -0.183,0.039 c -0.352,0.078 -0.793,0.176 -1.211,0.176 -0.828,0 -1.266,-0.399 -1.375,-1.262 l -0.016,-0.137 -0.14,-0.007 c -1.2,-0.051 -1.844,-0.454 -1.864,-0.821 -0.019,-0.383 0.625,-0.867 2.102,-1.078 l 0.098,-0.015 0.035,-0.094 c 0.183,-0.5 0.773,-0.856 1.433,-0.856 0.856,0 1.535,0.567 1.821,1.516 l 0.066,0.226 0.188,-0.136 c 0.164,-0.117 0.296,-0.227 0.418,-0.328 0.464,-0.383 0.757,-0.618 1.929,-0.536 z m 2.148,-1.578 c -0.882,0 -1.722,0.449 -2.312,1.231 -1.25,-0.071 -1.598,0.226 -2.07,0.617 -0.071,0.058 -0.141,0.117 -0.219,0.176 -0.367,-0.961 -1.121,-1.528 -2.063,-1.528 -0.757,0 -1.445,0.399 -1.711,0.981 -1.726,0.265 -2.316,0.898 -2.293,1.41 0.032,0.613 0.829,1.051 2.043,1.133 0.164,0.937 0.731,1.414 1.688,1.414 0.383,0 0.781,-0.074 1.105,-0.145 0.098,0.539 0.364,0.817 0.789,0.817 0.137,0 0.282,-0.032 0.422,-0.075 -0.066,0.278 -0.05,0.508 0.047,0.704 0.133,0.257 0.403,0.441 0.832,0.57 -0.523,0.738 -0.711,1.324 -0.586,1.832 0.149,0.601 0.699,0.984 1.547,1.387 -0.223,0.562 -0.242,0.984 -0.066,1.285 0.269,0.449 0.89,0.5 1.496,0.551 0.058,0.007 0.113,0.011 0.172,0.015 -0.071,1.809 0.539,2.219 2.418,2.449 -0.055,0.293 -0.004,0.555 0.144,0.766 0.145,0.199 0.446,0.43 1.067,0.477 -0.223,0.722 -0.211,1.25 0.039,1.601 0.34,0.477 1.05,0.613 2.281,0.438 0.191,0.898 1,1.449 2.156,1.449 1.153,0 2.383,-0.551 3.137,-1.399 0.609,-0.687 0.894,-1.527 0.828,-2.441 1.438,-0.207 2.094,-0.535 2.555,-1.715 0.515,0.586 0.668,0.621 1.699,0.621 0.164,0.719 0.812,1.207 1.625,1.207 0.789,0 1.691,-0.508 1.891,-1.621 0.234,0.039 0.457,0.059 0.66,0.059 0.89,0 1.273,-0.367 1.441,-0.676 0.223,-0.422 0.18,-0.977 -0.117,-1.559 0.375,0.075 0.73,0.114 1.066,0.114 0.864,0 1.528,-0.258 1.918,-0.746 0.375,-0.473 0.489,-1.129 0.328,-1.954 2.012,-0.578 2.348,-1.605 2.368,-2.171 0.031,-1.036 -0.844,-1.969 -1.743,-2.313 -0.203,-1.195 -1.086,-1.879 -2.445,-1.879 -0.484,0 -1.016,0.086 -1.582,0.258 -1.074,-0.75 -2.004,-1.113 -2.84,-1.113 -1.051,0 -1.926,0.566 -2.734,1.785 -0.574,-0.082 -1.043,-0.121 -1.438,-0.121 -1.543,0 -2.019,0.605 -2.879,1.703 -0.074,0.094 -0.148,0.191 -0.23,0.293 -1.098,-0.469 -1.746,-0.692 -2.371,-0.692 -0.684,0 -1.285,0.27 -2.231,0.836 -0.078,-0.628 -0.269,-1.035 -0.82,-1.035 -0.156,0 -0.332,0.032 -0.531,0.071 -0.094,0.015 -0.188,0.035 -0.289,0.05 0.023,-0.929 -0.153,-1.605 -0.531,-2.004 -0.403,-0.425 -1.008,-0.531 -1.801,-0.308 0.258,-0.719 0.222,-1.391 -0.106,-1.91 -0.351,-0.559 -1.008,-0.895 -1.754,-0.895"
         style="fill:#100f0d;fill-opacity:1;fill-rule:nonzero;stroke:none"
         id="path44" /><path
         d="m 157.477,176.246 h -0.336 c 0,1.012 -0.371,1.641 -0.743,1.738 -0.3,0.082 -0.652,-0.175 -0.953,-0.707 l -0.261,-0.461 -0.051,0.532 c -0.074,0.824 -0.336,0.886 -0.664,0.972 -0.117,0.028 -0.239,0.059 -0.36,0.121 l 0.153,0.297 c 0.086,-0.043 0.183,-0.066 0.289,-0.093 0.383,-0.098 0.699,-0.231 0.847,-0.832 0.442,0.554 0.86,0.558 1.09,0.496 0.59,-0.157 0.989,-0.985 0.989,-2.063"
         style="fill:#100f0d;fill-opacity:1;fill-rule:nonzero;stroke:none"
         id="path46" /><path
         d="m 161.41,176.93 c -0.289,0.402 -0.765,0.66 -1.183,0.636 -0.2,-0.007 -0.473,-0.086 -0.653,-0.398 l -0.293,0.168 c 0.199,0.344 0.528,0.547 0.93,0.566 0.398,0.02 0.816,-0.14 1.152,-0.429 0.063,0.972 0.762,1.351 1.293,1.636 0.274,0.149 0.528,0.286 0.649,0.465 l 0.277,-0.183 c -0.168,-0.25 -0.457,-0.411 -0.766,-0.575 -0.609,-0.332 -1.242,-0.671 -1.101,-1.769 l -0.305,-0.117"
         style="fill:#100f0d;fill-opacity:1;fill-rule:nonzero;stroke:none"
         id="path48" /><path
         d="m 165.703,175.039 -0.277,0.184 c 0.398,0.601 0.527,1.851 0.527,2.363 h 0.336 c 0,-0.434 -0.109,-1.828 -0.586,-2.547"
         style="fill:#100f0d;fill-opacity:1;fill-rule:nonzero;stroke:none"
         id="path50" /><path
         d="m 170.793,174.996 -0.195,0.27 c 0.558,0.402 1.492,0.476 2.05,0.519 0.133,0.012 0.282,0.024 0.317,0.035 l 0.051,-0.156 0.14,0.145 0.043,-0.192 c -0.047,-0.125 -0.148,-0.137 -0.523,-0.164 -0.488,-0.039 -1.399,-0.109 -1.883,-0.457"
         style="fill:#100f0d;fill-opacity:1;fill-rule:nonzero;stroke:none"
         id="path52" /><path
         d="m 174.988,168.383 v 0.5 c 0,0.703 -0.121,1.508 -1.058,1.508 v 0.336 c 0.82,0 1.281,-0.489 1.375,-1.446 0.66,0.524 1.433,0.121 1.832,-0.086 l 0.101,-0.05 -0.148,-0.297 -0.106,0.05 c -0.586,0.305 -1.199,0.543 -1.695,-0.113 l -0.301,-0.402"
         style="fill:#100f0d;fill-opacity:1;fill-rule:nonzero;stroke:none"
         id="path54" /><path
         d="m 173.43,167.434 h -0.336 c 0,1.066 -0.203,1.371 -0.418,1.691 l 0.277,0.188 c 0.235,-0.352 0.477,-0.711 0.477,-1.879"
         style="fill:#100f0d;fill-opacity:1;fill-rule:nonzero;stroke:none"
         id="path56" /><path
         d="m 167.961,168.102 h -0.332 c 0,0.414 0.363,0.929 0.812,1.156 0.414,0.207 0.852,0.16 1.239,-0.129 l -0.2,-0.266 c -0.359,0.266 -0.683,0.2 -0.89,0.094 -0.371,-0.184 -0.629,-0.598 -0.629,-0.855"
         style="fill:#100f0d;fill-opacity:1;fill-rule:nonzero;stroke:none"
         id="path58" /><path
         d="m 163.277,170 h -0.336 c 0,0.086 -0.015,0.191 -0.031,0.309 -0.058,0.48 -0.152,1.203 0.578,1.519 l 0.133,-0.308 c -0.465,-0.2 -0.445,-0.629 -0.379,-1.168 0.02,-0.129 0.035,-0.247 0.035,-0.352"
         style="fill:#100f0d;fill-opacity:1;fill-rule:nonzero;stroke:none"
         id="path60" /><path
         d="m 150.555,165.281 -0.328,0.067 c 0.128,0.648 0.437,0.953 0.664,1.175 0.187,0.188 0.261,0.266 0.23,0.43 -0.055,0.434 -0.316,0.781 -0.664,0.902 -0.41,0.141 -0.906,-0.05 -1.398,-0.539 l -0.235,0.235 c 0.789,0.789 1.43,0.726 1.742,0.621 0.469,-0.16 0.817,-0.617 0.883,-1.164 0.071,-0.332 -0.129,-0.531 -0.324,-0.723 -0.203,-0.203 -0.461,-0.457 -0.57,-1.004"
         style="fill:#100f0d;fill-opacity:1;fill-rule:nonzero;stroke:none"
         id="path62" /><path
         d="m 152.707,166.672 c -0.16,0.242 -0.73,0.371 -1.371,0.156 l -0.106,0.317 c 0.731,0.246 1.485,0.121 1.754,-0.286 l -0.277,-0.187"
         style="fill:#100f0d;fill-opacity:1;fill-rule:nonzero;stroke:none"
         id="path64" /><path
         d="m 151.543,170.965 c -0.637,0.32 -1.664,0.402 -2.035,0.031 l -0.238,0.238 c 0.539,0.539 1.753,0.364 2.425,0.032 l -0.152,-0.301"
         style="fill:#100f0d;fill-opacity:1;fill-rule:nonzero;stroke:none"
         id="path66" /><path
         d="m 153.465,172.629 -0.11,0.332 c -0.226,0.684 -0.773,0.711 -1.464,0.676 -0.098,-0.008 -0.188,-0.012 -0.274,-0.012 v 0.336 c 0.078,0 0.164,0.004 0.258,0.008 0.52,0.027 1.277,0.066 1.672,-0.614 0.805,1.153 1.437,1.379 1.832,1.36 0.277,-0.016 0.512,-0.168 0.629,-0.402 l -0.301,-0.149 c -0.027,0.063 -0.121,0.203 -0.348,0.215 -0.222,0.016 -0.828,-0.106 -1.703,-1.457 l -0.191,-0.293"
         style="fill:#100f0d;fill-opacity:1;fill-rule:nonzero;stroke:none"
         id="path68" /><path
         d="m 161.469,171.945 -0.18,0.313 c -0.894,1.566 -2.375,2.336 -3.141,2.047 l -0.117,0.312 c 0.961,0.363 2.453,-0.5 3.375,-1.91 0.399,0.805 0.946,0.844 1.43,0.879 0.117,0.008 0.238,0.016 0.355,0.035 l 0.055,-0.328 c -0.129,-0.023 -0.258,-0.031 -0.387,-0.039 -0.523,-0.039 -0.941,-0.07 -1.265,-0.969 l -0.125,-0.34"
         style="fill:#100f0d;fill-opacity:1;fill-rule:nonzero;stroke:none"
         id="path70" /><path
         d="m 170.254,170.844 -0.238,0.297 c -0.473,0.605 -1.258,1.617 -2.485,1.05 l -0.14,0.301 c 1.437,0.664 2.386,-0.504 2.859,-1.105 0.664,0.789 1.262,0.789 1.895,0.789 v -0.336 c -0.665,0 -1.145,0 -1.762,-0.824 l -0.129,-0.172"
         style="fill:#100f0d;fill-opacity:1;fill-rule:nonzero;stroke:none"
         id="path72" /><path
         d="m 154.105,169.578 -0.289,0.172 c 0.321,0.535 1.024,0.738 1.641,0.52 0.012,0.449 0.184,0.824 0.481,1.031 0.242,0.168 0.535,0.195 0.777,0.078 l -0.152,-0.301 c -0.129,0.067 -0.293,0.047 -0.434,-0.051 -0.254,-0.179 -0.379,-0.554 -0.328,-1.007 l 0.039,-0.336 -0.289,0.171 c -0.238,0.145 -0.531,0.196 -0.805,0.149 -0.281,-0.051 -0.508,-0.203 -0.641,-0.426"
         style="fill:#100f0d;fill-opacity:1;fill-rule:nonzero;stroke:none"
         id="path74" /><path
         d="m 158.535,192.914 -2.453,-0.113 -1.227,-2.196 -1.339,2.094 -2.453,-0.097 1.113,2.207 -1.336,2.097 2.562,0.114 1.118,2.195 1.339,-2.098 2.454,0.102 -1.118,-2.207 1.34,-2.098"
         style="fill:#f9d606;fill-opacity:1;fill-rule:nonzero;stroke:none"
         id="path76" /><path
         d="m 153.828,193.301 0.992,-1.555 0.91,1.625 1.766,0.082 -0.973,1.524 0.817,1.617 -1.793,-0.074 -0.969,1.515 -0.808,-1.586 -1.891,-0.082 0.973,-1.523 -0.821,-1.617 z m 1.059,-3.836 -1.684,2.637 -3.113,-0.125 1.414,2.8 -1.707,2.672 3.238,0.141 1.426,2.805 1.711,-2.676 3.113,0.125 -1.414,-2.801 1.703,-2.668 -3.14,-0.145 -1.547,-2.765"
         style="fill:#100f0d;fill-opacity:1;fill-rule:nonzero;stroke:none"
         id="path78" /><path
         d="m 148.051,192.098 -2.457,-0.602 -0.668,-2.375 -1.785,1.785 -2.344,-0.582 0.672,2.375 -1.676,1.809 2.344,0.59 0.668,2.39 1.785,-1.785 2.457,0.578 -0.781,-2.386 1.785,-1.797"
         style="fill:#f9d606;fill-opacity:1;fill-rule:nonzero;stroke:none"
         id="path80" /><path
         d="m 143.32,191.555 1.313,-1.313 0.492,1.742 1.777,0.438 -1.304,1.312 0.566,1.739 -1.758,-0.414 -1.304,1.304 -0.493,-1.75 -1.714,-0.429 1.226,-1.325 -0.484,-1.722 z m 1.899,-3.555 -2.258,2.258 -3,-0.742 0.855,3.027 -2.121,2.293 2.969,0.75 0.848,3.023 2.261,-2.261 3.153,0.746 -0.992,-3.039 2.261,-2.278 -3.129,-0.769 -0.847,-3.008"
         style="fill:#100f0d;fill-opacity:1;fill-rule:nonzero;stroke:none"
         id="path82" /><path
         d="m 137.898,190.012 -2.23,-1.106 -0.113,-2.472 -2.117,1.359 -2.235,-1.094 0.227,2.477 -2.121,1.371 2.23,1.117 0.223,2.477 2.008,-1.364 2.23,1.094 -0.109,-2.476 2.007,-1.383"
         style="fill:#f9d606;fill-opacity:1;fill-rule:nonzero;stroke:none"
         id="path84" /><path
         d="m 133.473,188.465 1.543,-0.992 0.082,1.808 1.648,0.817 -1.457,1 0.082,1.812 -1.648,-0.805 -1.465,0.993 -0.164,-1.813 -1.606,-0.801 1.555,-1.007 -0.16,-1.793 z m 2.621,-3.074 -2.696,1.73 -2.871,-1.406 0.286,3.16 -2.684,1.738 2.855,1.426 0.286,3.145 2.546,-1.731 2.817,1.379 -0.145,-3.137 2.563,-1.765 -2.817,-1.395 -0.14,-3.144"
         style="fill:#100f0d;fill-opacity:1;fill-rule:nonzero;stroke:none"
         id="path86" /><path
         d="m 161.77,192.914 2.457,-0.113 1.113,-2.196 1.34,2.094 2.453,-0.097 -1.117,2.207 1.339,2.097 -2.453,0.114 -1.226,2.195 -1.34,-2.098 -2.453,0.102 1.113,-2.207 -1.226,-2.098"
         style="fill:#f9d606;fill-opacity:1;fill-rule:nonzero;stroke:none"
         id="path88" /><path
         d="m 162.766,193.453 1.828,-0.082 0.804,-1.59 0.969,1.52 1.793,-0.074 -0.816,1.617 0.972,1.523 -1.765,0.082 -0.91,1.625 -0.993,-1.554 -1.793,0.074 0.809,-1.606 z m 2.515,-4.027 -1.426,2.804 -3.082,0.141 1.559,2.66 -1.422,2.813 3.113,-0.125 1.684,2.636 1.547,-2.765 3.141,-0.145 -1.704,-2.668 1.414,-2.8 -3.113,0.125 -1.711,-2.676"
         style="fill:#100f0d;fill-opacity:1;fill-rule:nonzero;stroke:none"
         id="path90" /><path
         d="m 172.258,192.098 2.34,-0.602 0.672,-2.375 1.785,1.785 2.34,-0.582 -0.668,2.375 1.785,1.809 -2.453,0.59 -0.672,2.39 -1.785,-1.785 -2.34,0.578 0.668,-2.386 -1.672,-1.797"
         style="fill:#f9d606;fill-opacity:1;fill-rule:nonzero;stroke:none"
         id="path92" /><path
         d="m 173.355,192.422 1.715,-0.442 0.493,-1.738 1.308,1.313 1.688,-0.418 -0.489,1.734 1.297,1.313 -1.781,0.425 -0.492,1.754 -1.313,-1.308 -1.683,0.418 0.484,-1.739 z m 1.622,-4.422 -0.848,3.012 -2.973,0.765 2.121,2.278 -0.851,3.039 2.996,-0.742 2.262,2.257 0.843,-3.019 3.129,-0.754 -2.273,-2.305 0.851,-3.015 -3,0.742 -2.257,-2.258"
         style="fill:#100f0d;fill-opacity:1;fill-rule:nonzero;stroke:none"
         id="path94" /><path
         d="m 182.297,190.012 2.23,-1.106 0.114,-2.472 2.117,1.359 2.23,-1.094 -0.109,2.477 2.008,1.371 -2.231,1.117 -0.113,2.477 -2.117,-1.364 -2.235,1.094 0.227,-2.476 -2.121,-1.383"
         style="fill:#f9d606;fill-opacity:1;fill-rule:nonzero;stroke:none"
         id="path96" /><path
         d="m 183.477,190.082 1.621,-0.801 0.082,-1.808 1.539,0.992 1.64,-0.805 -0.082,1.817 1.457,0.992 -1.648,0.824 -0.082,1.805 -1.543,-0.989 -1.594,0.782 0.164,-1.793 z m 0.625,-4.691 -0.145,3.144 -2.84,1.406 2.684,1.754 -0.285,3.16 2.871,-1.406 2.695,1.735 0.145,-3.149 2.812,-1.406 -2.562,-1.754 0.14,-3.137 -2.82,1.383 -2.695,-1.73"
         style="fill:#100f0d;fill-opacity:1;fill-rule:nonzero;stroke:none"
         id="path98" /><path
         d="m 185.309,142.781 2.789,-4.015 2.566,3.793 -1.785,3.234 -3.57,-3.012"
         style="fill:#ffffff;fill-opacity:1;fill-rule:nonzero;stroke:none"
         id="path100" /><path
         d="m 186.094,142.676 1.996,-2.875 1.887,2.789 -1.266,2.297 z m 2.011,-4.946 -3.582,5.157 4.524,3.812 2.301,-4.172 -3.243,-4.797"
         style="fill:#100f0d;fill-opacity:1;fill-rule:nonzero;stroke:none"
         id="path102" /><path
         d="m 167.57,131.066 0.223,-4.015 c 0,0 1.117,0 2.121,0.336 0.891,0.336 1.672,1.004 1.672,1.004 l -0.109,2.121 -3.907,0.554"
         style="fill:#ffffff;fill-opacity:1;fill-rule:nonzero;stroke:none"
         id="path104" /><path
         d="m 168.195,130.387 0.153,-2.719 c 0.379,0.035 0.898,0.113 1.382,0.273 0.508,0.192 0.989,0.52 1.254,0.719 l -0.07,1.336 z m -0.402,-3.922 h -0.555 l -0.293,5.281 5.09,-0.726 0.153,-2.887 -0.219,-0.188 c -0.035,-0.031 -0.871,-0.742 -1.852,-1.105 -1.101,-0.371 -2.273,-0.375 -2.324,-0.375"
         style="fill:#100f0d;fill-opacity:1;fill-rule:nonzero;stroke:none"
         id="path106" /><path
         d="m 152.621,131.066 -0.223,-3.902 c 0,0 -1.003,0 -2.007,0.223 -0.891,0.222 -1.672,0.781 -1.672,0.781 l -1.117,2.676 5.019,0.222"
         style="fill:#ffffff;fill-opacity:1;fill-rule:nonzero;stroke:none"
         id="path108" /><path
         d="m 149.191,128.559 c 0.239,-0.153 0.774,-0.461 1.344,-0.606 0.477,-0.105 0.957,-0.156 1.313,-0.18 l 0.152,2.68 -3.535,-0.156 z m 3.762,-1.981 h -0.555 c -0.043,0 -1.078,0 -2.132,0.238 -1.004,0.25 -1.852,0.848 -1.887,0.875 l -0.137,0.098 -1.504,3.602 6.508,0.293 -0.293,-5.106"
         style="fill:#100f0d;fill-opacity:1;fill-rule:nonzero;stroke:none"
         id="path110" /><path
         d="m 134.664,142.781 -2.902,-4.015 -3.121,5.129 2.339,2.457 3.684,-3.571"
         style="fill:#ffffff;fill-opacity:1;fill-rule:nonzero;stroke:none"
         id="path112" /><path
         d="m 129.371,143.816 2.434,-3.992 2.086,2.891 -2.895,2.805 z m 2.352,-6.109 -3.817,6.27 3.059,3.207 4.469,-4.336 -3.711,-5.141"
         style="fill:#100f0d;fill-opacity:1;fill-rule:nonzero;stroke:none"
         id="path114" /><path
         d="m 148.605,123.035 c 0,-3.793 22.981,-3.793 22.981,0 v 5.356 c 0,-2.789 -22.981,-2.231 -22.981,0 v -5.356"
         style="fill:#ffffff;fill-opacity:1;fill-rule:nonzero;stroke:none"
         id="path116" /><path
         d="m 149.191,127.156 v -4.121 c 0,-0.945 3.789,-2.258 10.907,-2.258 7.113,0 10.902,1.313 10.902,2.258 v 4.016 c -1.629,-0.754 -4.961,-1.137 -9.953,-1.137 -3.106,0 -6.227,0.188 -8.567,0.512 -1.585,0.219 -2.621,0.469 -3.289,0.73 z m 10.907,-7.551 c -2.02,0 -12.078,0.165 -12.078,3.43 v 5.356 h 1.171 c 0,0.062 -0.019,0.105 -0.031,0.117 0.445,-0.578 4.93,-1.418 11.887,-1.418 7.062,0 9.762,0.894 9.961,1.328 l 1.164,-0.027 v -5.356 c 0,-3.265 -10.059,-3.43 -12.074,-3.43"
         style="fill:#100f0d;fill-opacity:1;fill-rule:nonzero;stroke:none"
         id="path118" /><path
         d="m 128.082,135.418 c 2.008,-10.262 20.523,-10.484 20.523,-10.484 v 3.457 c -0.445,1.339 0.336,1.785 3.348,2.23 1.227,0.113 0.668,1.899 0.668,1.899 0,0 -8.031,-1.454 -13.719,0.781 -7.699,3.121 -8.812,9.144 -8.812,9.144 0,0 -0.559,-4.683 -2.008,-7.027"
         style="fill:#ffffff;fill-opacity:1;fill-rule:nonzero;stroke:none"
         id="path120" /><path
         d="m 128.699,135.316 c 1.895,-8.476 16.215,-9.628 19.321,-9.777 v 2.762 c -0.18,0.597 -0.149,1.09 0.101,1.492 0.484,0.789 1.692,1.102 3.746,1.406 0.172,0.02 0.203,0.063 0.219,0.086 0.074,0.113 0.09,0.336 0.07,0.567 -0.941,-0.137 -2.957,-0.383 -5.355,-0.383 -3.211,0 -5.938,0.433 -8.113,1.285 -5.028,2.039 -7.348,5.254 -8.387,7.391 -0.309,-1.508 -0.821,-3.461 -1.602,-4.829 z m 20.492,-10.976 -0.589,0.008 c -0.778,0.007 -19.02,0.347 -21.094,10.957 l -0.047,0.226 0.121,0.196 c 1.363,2.203 1.922,6.742 1.926,6.789 l 1.156,0.039 c 0.047,-0.235 1.176,-5.758 8.457,-8.715 2.031,-0.793 4.617,-1.199 7.68,-1.199 3.16,0 5.691,0.449 5.719,0.453 l 0.507,0.094 0.157,-0.497 c 0.066,-0.211 0.371,-1.312 -0.125,-2.054 -0.161,-0.246 -0.477,-0.547 -1.051,-0.598 -0.688,-0.105 -2.598,-0.387 -2.891,-0.859 -0.023,-0.039 -0.101,-0.168 0.047,-0.606 l 0.027,-0.09 v -4.144"
         style="fill:#100f0d;fill-opacity:1;fill-rule:nonzero;stroke:none"
         id="path122" /><path
         d="m 192,135.418 c -1.895,-10.262 -20.414,-10.484 -20.414,-10.484 v 3.457 c 0.336,1.339 -0.445,1.785 -3.457,2.23 -1.227,0.113 -0.559,1.899 -0.559,1.899 0,0 8.032,-1.454 13.723,0.781 7.586,3.121 8.477,9.144 8.477,9.144 0,0 0.781,-4.683 2.23,-7.027"
         style="fill:#ffffff;fill-opacity:1;fill-rule:nonzero;stroke:none"
         id="path124" /><path
         d="m 172.172,128.32 v -2.781 c 3.109,0.149 17.414,1.301 19.211,9.774 -0.789,1.371 -1.371,3.347 -1.735,4.859 -0.96,-2.145 -3.168,-5.371 -8.132,-7.414 -2.184,-0.856 -4.911,-1.289 -8.121,-1.289 -2.434,0 -4.465,0.25 -5.395,0.386 -0.039,-0.25 -0.039,-0.484 0.027,-0.593 0.008,-0.012 0.032,-0.047 0.157,-0.059 2.074,-0.305 3.281,-0.617 3.796,-1.394 0.266,-0.395 0.329,-0.883 0.192,-1.489 z M 171,124.34 v 4.121 l 0.02,0.07 c 0.109,0.446 0.023,0.578 -0.012,0.629 -0.289,0.434 -1.738,0.699 -2.965,0.883 -0.547,0.047 -0.852,0.352 -1.008,0.598 -0.472,0.754 -0.094,1.867 -0.012,2.082 l 0.172,0.457 0.481,-0.086 c 0.023,-0.004 2.558,-0.453 5.719,-0.453 3.062,0 5.648,0.406 7.683,1.203 7.188,2.961 8.106,8.633 8.113,8.687 l 1.157,0.012 c 0.007,-0.047 0.781,-4.602 2.152,-6.816 l 0.117,-0.192 -0.039,-0.222 c -1.961,-10.618 -20.207,-10.958 -20.984,-10.965 L 171,124.34"
         style="fill:#100f0d;fill-opacity:1;fill-rule:nonzero;stroke:none"
         id="path126" /><path
         d="m 129.531,139.324 c -5.133,2.785 -1.117,5.688 -0.668,13.942 0.782,-5.02 6.469,-7.137 5.801,-10.375 -2.344,-0.11 -3.461,3.461 -4.574,-0.446 l -0.559,-3.121"
         style="fill:#ffffff;fill-opacity:1;fill-rule:nonzero;stroke:none"
         id="path128" /><path
         d="m 129.168,150.551 c -0.27,-1.735 -0.66,-3.188 -0.996,-4.434 -0.817,-3.027 -1.195,-4.437 0.933,-5.855 l 0.422,2.343 c 0.317,1.118 0.782,2.258 1.809,2.258 0.519,0 0.977,-0.312 1.465,-0.64 0.422,-0.285 0.851,-0.578 1.328,-0.696 -0.063,1.106 -1.024,2.149 -2.199,3.426 -0.969,1.055 -2.02,2.199 -2.762,3.598 z m 0.797,-12.129 -0.711,0.387 c -3.719,2.019 -3.121,4.246 -2.211,7.613 0.48,1.785 1.078,4.008 1.234,6.875 l 1.164,0.058 c 0.368,-2.367 1.954,-4.089 3.352,-5.609 1.457,-1.586 2.836,-3.082 2.441,-4.973 l -0.089,-0.445 -0.454,-0.019 c -0.046,-0.004 -0.093,-0.004 -0.136,-0.004 v 0 c -1.012,0 -1.789,0.523 -2.41,0.945 -0.29,0.199 -0.649,0.441 -0.809,0.441 -0.004,0 -0.289,-0.039 -0.676,-1.378 l -0.695,-3.891"
         style="fill:#100f0d;fill-opacity:1;fill-rule:nonzero;stroke:none"
         id="path130" /><path
         d="m 190.551,139.324 c 5.133,2.899 0.894,5.688 0.445,13.942 -0.777,-5.02 -6.355,-7.137 -5.687,-10.375 2.23,-0.11 3.347,3.461 4.461,-0.446 l 0.781,-3.011 v -0.11"
         style="fill:#ffffff;fill-opacity:1;fill-rule:nonzero;stroke:none"
         id="path132" /><path
         d="m 188.531,144.863 c 1.02,0 1.485,-1.14 1.805,-2.258 l 0.609,-2.351 c 2.106,1.441 1.707,2.805 0.852,5.734 -0.371,1.274 -0.809,2.762 -1.098,4.563 -0.726,-1.395 -1.754,-2.535 -2.703,-3.582 -1.152,-1.281 -2.094,-2.328 -2.152,-3.434 0.429,0.121 0.832,0.403 1.222,0.672 0.485,0.34 0.942,0.656 1.465,0.656 z m 1.434,-6.543 v 1.039 l -0.762,2.942 c -0.379,1.332 -0.672,1.39 -0.672,1.39 -0.156,0 -0.511,-0.246 -0.797,-0.445 -0.629,-0.437 -1.421,-0.988 -2.457,-0.937 l -0.453,0.019 -0.09,0.445 c -0.39,1.891 0.961,3.391 2.395,4.977 1.367,1.52 2.922,3.242 3.289,5.605 l 1.164,-0.058 c 0.16,-2.938 0.813,-5.18 1.34,-6.981 0.918,-3.152 1.586,-5.429 -2.082,-7.503 l -0.875,-0.493"
         style="fill:#100f0d;fill-opacity:1;fill-rule:nonzero;stroke:none"
         id="path134" /><path
         d="m 132.656,135.531 0.559,-0.449 -1.231,-1.336 c -0.492,-0.535 -0.609,-0.891 -0.265,-1.219 0.422,-0.406 0.719,-0.261 1.16,0.215 l 1.34,1.449 0.445,-0.445 -1.34,-1.562 c -0.726,-0.848 -1.398,-0.653 -1.965,-0.125 -0.492,0.461 -0.773,1.129 -0.05,1.949 l 1.351,1.515 -0.004,0.008"
         style="fill:#100f0d;fill-opacity:1;fill-rule:nonzero;stroke:none"
         id="path136" /><path
         d="m 134.887,133.633 0.558,-0.332 -0.113,-2.68 1.227,1.899 0.558,-0.336 -1.785,-2.903 -0.668,0.336 0.109,2.68 -1.226,-1.899 -0.559,0.336 1.899,2.899"
         style="fill:#100f0d;fill-opacity:1;fill-rule:nonzero;stroke:none"
         id="path138" /><path
         d="m 135.891,128.949 1.558,3.121 0.559,-0.332 -1.449,-3.011 -0.668,0.222"
         style="fill:#100f0d;fill-opacity:1;fill-rule:nonzero;stroke:none"
         id="path140" /><path
         d="m 138.785,130.844 c 1.156,-0.403 1.227,-0.84 0.91,-1.633 -0.304,-0.754 -0.59,-1.051 -1.687,-0.484 z m -0.441,0.781 -1.231,-3.234 1.231,-0.446 c 1.148,-0.418 1.687,0.086 2.051,1.055 0.371,0.988 0.207,1.715 -0.942,2.176 l -1.109,0.449"
         style="fill:#100f0d;fill-opacity:1;fill-rule:nonzero;stroke:none"
         id="path142" /><path
         d="m 142.246,129.613 0.223,-1.336 -0.891,0.114 z m -0.223,0.785 -2.007,-3.011 0.777,-0.227 0.449,0.781 1.34,-0.336 0.113,-0.781 0.778,-0.105 -0.778,3.566 -0.672,0.113"
         style="fill:#100f0d;fill-opacity:1;fill-rule:nonzero;stroke:none"
         id="path144" /><path
         d="m 144.602,129.508 c 1.222,-0.004 1.433,-0.395 1.39,-1.25 -0.043,-0.809 -0.219,-1.18 -1.437,-1 l 0.047,2.25 z m -0.668,0.601 -0.121,-3.457 1.312,-0.027 c 1.223,-0.023 1.566,0.629 1.598,1.664 0.031,1.055 -0.36,1.691 -1.594,1.754 l -1.195,0.066 v 0"
         style="fill:#100f0d;fill-opacity:1;fill-rule:nonzero;stroke:none"
         id="path146" /><path
         d="m 156.418,124.711 0.785,-0.012 c 0.656,0 0.535,-0.992 0.02,-0.992 h -0.805 v 1.004 z m -0.781,0.555 v -3.567 h 0.781 v 1.34 c 0,0 0.668,-0.043 1.227,0.106 0.437,0.113 0.742,0.394 0.75,1.089 0.011,0.676 -0.383,1.032 -1.067,1.032 h -1.695 0.004"
         style="fill:#100f0d;fill-opacity:1;fill-rule:nonzero;stroke:none"
         id="path148" /><path
         d="m 159.984,124.484 0.555,-1.339 h -1.004 z m -0.332,0.782 -1.453,-3.567 h 0.781 l 0.336,0.891 h 1.454 l 0.332,-0.891 h 0.777 l -1.449,3.571 h -0.782 l 0.004,-0.004"
         style="fill:#100f0d;fill-opacity:1;fill-rule:nonzero;stroke:none"
         id="path150" /><path
         d="m 161.883,122.367 1.894,2.344 h -1.672 v 0.555 h 2.676 v -0.555 l -2.008,-2.344 h 2.008 v -0.672 h -2.898 v 0.672"
         style="fill:#100f0d;fill-opacity:1;fill-rule:nonzero;stroke:none"
         id="path152" /><path
         d="m 173.148,129.281 0.668,0.114 0.336,-2.008 c 0.121,-0.715 -0.207,-1.203 -0.714,-1.391 -0.579,-0.211 -1.317,-0.016 -1.407,0.945 l 0.559,0.11 c 0.133,-0.574 0.363,-0.625 0.629,-0.535 0.215,0.074 0.324,0.406 0.265,0.757 l -0.336,2.008"
         style="fill:#100f0d;fill-opacity:1;fill-rule:nonzero;stroke:none"
         id="path154" /><path
         d="m 174.266,129.484 0.66,0.125 0.304,-1.671 c 0.129,-0.715 0.356,-1.02 0.821,-0.938 0.578,0.102 0.64,0.426 0.515,1.063 l -0.41,1.781 0.676,0.101 0.449,-1.855 c 0.262,-1.082 -0.304,-1.516 -1.062,-1.656 -0.664,-0.121 -1.367,0.046 -1.602,1.117 l -0.351,1.933"
         style="fill:#100f0d;fill-opacity:1;fill-rule:nonzero;stroke:none"
         id="path156" /><path
         d="m 177.723,127.945 0.558,0.223 c 0.274,-0.492 0.699,-0.469 1.032,-0.32 0.46,0.203 0.515,0.605 0.285,0.742 -0.325,0.195 -1.102,-0.082 -1.52,0.07 -0.5,0.184 -0.715,0.465 -0.687,0.899 0.031,0.519 0.488,0.804 0.988,0.961 0.555,0.171 1.105,0.113 1.465,-0.567 l -0.672,-0.223 c -0.219,0.368 -0.496,0.348 -0.746,0.231 -0.207,-0.098 -0.535,-0.281 -0.36,-0.582 0.145,-0.242 0.961,-0.082 1.395,-0.102 0.445,-0.019 0.809,-0.316 0.867,-0.746 0.086,-0.597 -0.137,-0.922 -0.832,-1.191 -0.851,-0.336 -1.625,0.039 -1.773,0.605 v 0"
         style="fill:#100f0d;fill-opacity:1;fill-rule:nonzero;stroke:none"
         id="path158" /><path
         d="m 180.734,130.734 -0.89,-0.449 -0.227,0.559 2.457,1.004 0.223,-0.446 -0.895,-0.445 1.004,-2.453 -0.554,-0.336 -1.118,2.566"
         style="fill:#100f0d;fill-opacity:1;fill-rule:nonzero;stroke:none"
         id="path160" /><path
         d="m 182.184,131.961 0.558,0.336 1.563,-2.902 -0.559,-0.336 -1.562,2.902"
         style="fill:#100f0d;fill-opacity:1;fill-rule:nonzero;stroke:none"
         id="path162" /><path
         d="m 185.977,131.738 0.671,0.223 c 0.313,-0.664 -0.16,-1.867 -1.316,-1.84 -1.691,0.035 -1.871,1.899 -1.605,2.512 0.445,1.031 1.695,1.012 2.25,0.441 l -0.555,-0.445 c -0.356,0.453 -1.141,0.168 -1.195,-0.25 -0.086,-0.68 0.214,-1.313 0.824,-1.613 0.515,-0.258 1.312,0.382 0.926,0.972 v 0"
         style="fill:#100f0d;fill-opacity:1;fill-rule:nonzero;stroke:none"
         id="path164" /><path
         d="m 185.645,134.078 0.554,0.449 2.012,-2.679 -0.559,-0.446 -2.007,2.676"
         style="fill:#100f0d;fill-opacity:1;fill-rule:nonzero;stroke:none"
         id="path166" /><path
         d="m 187.984,134.969 1.118,-0.555 -0.668,-0.668 z m -0.222,0.785 -0.555,-0.449 1.227,-3.348 0.554,0.555 -0.336,0.672 1.004,0.894 0.668,-0.332 0.563,0.442 -3.125,1.566"
         style="fill:#100f0d;fill-opacity:1;fill-rule:nonzero;stroke:none"
         id="path168" /></g></g></svg>
