<?xml version="1.0" encoding="UTF-8" standalone="no"?>
<svg
   xmlns:dc="http://purl.org/dc/elements/1.1/"
   xmlns:cc="http://creativecommons.org/ns#"
   xmlns:rdf="http://www.w3.org/1999/02/22-rdf-syntax-ns#"
   xmlns:svg="http://www.w3.org/2000/svg"
   xmlns="http://www.w3.org/2000/svg"
   version="1.1"
   id="svg2"
   xml:space="preserve"
   width="42.666668"
   height="42.666668"
   viewBox="0 0 42.666668 42.666668"><metadata
     id="metadata8"><rdf:RDF><cc:Work
         rdf:about=""><dc:format>image/svg+xml</dc:format><dc:type
           rdf:resource="http://purl.org/dc/dcmitype/StillImage" /></cc:Work></rdf:RDF></metadata><defs
     id="defs6" /><g
     id="g10"
     transform="matrix(1.3333333,0,0,-1.3333333,0,42.666667)"><g
       id="g12"
       transform="scale(0.1)"><path
         d="m 59.457,35.5156 h 201.074 c 12.563,10.1446 23.528,22.1211 32.528,35.5391 H 26.9453 C 35.9492,57.6367 46.918,45.6602 59.457,35.5156"
         style="fill:#ffffff;fill-opacity:1;fill-rule:evenodd;stroke:none"
         id="path14" /><path
         d="M 292.918,248.867 H 160.895 V 213.34 h 149.906 c -4.496,12.64 -10.52,24.562 -17.883,35.527"
         style="fill:#2f59b1;fill-opacity:1;fill-rule:evenodd;stroke:none"
         id="path16" /><path
         d="M 59.707,35.5273 C 87.1758,13.3398 122.063,0 159.98,0 197.902,0 232.797,13.3398 260.273,35.5273 H 59.707"
         style="fill:#2f59b1;fill-opacity:1;fill-rule:evenodd;stroke:none"
         id="path18" /><path
         d="M 310.797,106.672 H 9.19922 C 13.6953,94.0273 19.7188,82.1016 27.082,71.1328 H 292.91 c 7.363,10.9688 13.391,22.8945 17.887,35.5392"
         style="fill:#2f59b1;fill-opacity:1;fill-rule:evenodd;stroke:none"
         id="path20" /><path
         d="m 160.895,213.34 h -58.149 v -71.094 h 0.012 v -0.039 H 318.98 c 0.657,5.852 1.02,11.785 1.02,17.805 0,6.019 -0.367,11.957 -1.02,17.808 H 160.895 v 35.52"
         style="fill:#2f59b1;fill-opacity:1;fill-rule:evenodd;stroke:none"
         id="path22" /><path
         d="m 0,160.012 c 0,-6.02 0.367188,-11.953 1.01953,-17.805 H 67.1641 V 213.34 H 9.19531 C 3.26172,196.645 0,178.699 0,160.012"
         style="fill:#2f59b1;fill-opacity:1;fill-rule:evenodd;stroke:none"
         id="path24" /><path
         d="m 67.1641,248.867 v 41.27 C 51.4609,278.895 37.8438,264.918 27.0703,248.867 h 40.0938"
         style="fill:#2f59b1;fill-opacity:1;fill-rule:evenodd;stroke:none"
         id="path26" /><path
         d="m 159.98,320 c -20.156,0 -39.445,-3.797 -57.234,-10.652 v -60.481 h 58.149 v 35.598 h 99.402 C 232.816,306.66 197.914,320 159.98,320"
         style="fill:#2f59b1;fill-opacity:1;fill-rule:evenodd;stroke:none"
         id="path28" /><path
         d="M 318.98,142.207 H 102.699 v 71.285 h 58.196 v 35.375 h -58.196 v 60.461 C 90.0078,304.434 78.0977,297.965 67.1914,290.16 V 248.867 H 27.0703 C 19.7422,237.949 13.7344,226.078 9.25,213.492 H 67.1914 V 142.207 H 1.01953 c 1.375,-12.316 4.15625,-24.211 8.17969,-35.531 H 310.797 c 4.027,11.32 6.808,23.215 8.183,35.531"
         style="fill:#ffffff;fill-opacity:1;fill-rule:evenodd;stroke:none"
         id="path30" /><path
         d="M 310.801,213.34 H 160.895 V 177.82 H 318.98 c -1.375,12.313 -4.156,24.203 -8.179,35.52"
         style="fill:#ffffff;fill-opacity:1;fill-rule:evenodd;stroke:none"
         id="path32" /><path
         d="M 27.082,71.1328 C 36.1094,57.6836 47.1367,45.6836 59.707,35.5273 h 200.566 c 12.575,10.1563 23.602,22.1563 32.637,35.6055 H 27.082"
         style="fill:#ffffff;fill-opacity:1;fill-rule:evenodd;stroke:none"
         id="path34" /><path
         d="m 160.895,248.867 h 132.023 c -9.02,13.434 -20.027,25.418 -32.582,35.567 h -99.441 v -35.567"
         style="fill:#ffffff;fill-opacity:1;fill-rule:evenodd;stroke:none"
         id="path36" /></g></g></svg>
