<?xml version="1.0" encoding="UTF-8" standalone="no"?>
<svg
   xmlns:dc="http://purl.org/dc/elements/1.1/"
   xmlns:cc="http://creativecommons.org/ns#"
   xmlns:rdf="http://www.w3.org/1999/02/22-rdf-syntax-ns#"
   xmlns:svg="http://www.w3.org/2000/svg"
   xmlns="http://www.w3.org/2000/svg"
   version="1.1"
   id="svg2"
   xml:space="preserve"
   width="42.666668"
   height="42.666668"
   viewBox="0 0 42.666668 42.666668"><metadata
     id="metadata8"><rdf:RDF><cc:Work
         rdf:about=""><dc:format>image/svg+xml</dc:format><dc:type
           rdf:resource="http://purl.org/dc/dcmitype/StillImage" /></cc:Work></rdf:RDF></metadata><defs
     id="defs6" /><g
     id="g10"
     transform="matrix(1.3333333,0,0,-1.3333333,0,42.666667)"><g
       id="g12"
       transform="scale(0.1)"><path
         d="m 160,-0.00390625 c 88.129,0 160,71.86720625 160,159.99990625 0,88.125 -71.871,160.008 -160,160.008 C 71.8867,320.004 0,248.121 0,159.996 0,71.8633 71.8867,-0.00390625 160,-0.00390625"
         style="fill:#283574;fill-opacity:1;fill-rule:evenodd;stroke:none"
         id="path14" /><path
         d="m 160,14.9961 c -79.8828,0 -145,65.1211 -145,144.9999 0,79.871 65.1172,145.016 145,145.016 79.883,0 145,-65.145 145,-145.016 C 305,80.1172 239.883,14.9961 160,14.9961"
         style="fill:#273475;fill-opacity:1;fill-rule:nonzero;stroke:none"
         id="path16" /><path
         d="m 160,14.9961 c -79.8828,0 -145,65.1211 -145,144.9999 0,79.871 65.1172,145.016 145,145.016 79.883,0 145,-65.145 145,-145.016 C 305,80.1172 239.883,14.9961 160,14.9961 Z m 0,305.0079 C 71.8867,320.004 0,248.121 0,159.996 0,71.8633 71.8867,-0.00390625 160,-0.00390625 c 88.129,0 160,71.86720625 160,159.99990625 0,88.125 -71.871,160.008 -160,160.008"
         style="fill:#c81a38;fill-opacity:1;fill-rule:nonzero;stroke:none"
         id="path18" /><path
         d="m 160.176,242.5 c 0,0 -55.176,-37.613 -55.176,-81.965 0,-44.359 55.176,-83.035 55.176,-83.035 0,0 54.824,35.488 54.824,83.035 0,47.543 -54.824,81.965 -54.824,81.965"
         style="fill:#c81a38;fill-opacity:1;fill-rule:nonzero;stroke:none"
         id="path20" /><path
         d="m 206.695,145.863 c 1.211,4.719 1.899,9.621 1.899,14.672 0,42.578 -48.418,74.156 -48.418,74.156 0,0 -49.125,-32.644 -49.125,-74.156 0,-4.984 0.699,-9.844 1.933,-14.547 l 93.711,-0.125"
         style="fill:#76b0e3;fill-opacity:1;fill-rule:nonzero;stroke:none"
         id="path22" /><path
         d="m 159.773,85.6641 c 0,0 37.977,25.1489 46.907,60.3239 h -93.731 c 9.067,-34.5 46.824,-60.3239 46.824,-60.3239"
         style="fill:#4373c2;fill-opacity:1;fill-rule:nonzero;stroke:none"
         id="path24" /><path
         d="m 208.355,155.566 c -8.304,-5.921 -55.058,-3.078 -55.058,-3.078 l -2.613,-6.625 h 56.007 c 0.235,0.91 0.45,1.817 0.641,2.739 l 1.023,6.964"
         style="fill:#948120;fill-opacity:1;fill-rule:nonzero;stroke:none"
         id="path26" /><path
         d="m 157.301,113.695 c -0.711,4.953 -22.578,10.262 -34.184,9.828 3.625,-5.683 7.731,-10.886 11.86,-15.511 5.894,6.328 22.558,4.047 22.324,5.683"
         style="fill:#f5f013;fill-opacity:1;fill-rule:nonzero;stroke:none"
         id="path28" /><path
         d="m 201.563,132.121 c -2.782,-0.098 -7.821,-0.543 -11.278,-2.34 -4.98,-2.601 -16.137,-5.441 -21.121,-4.019 -4.98,1.418 -12.816,-3.078 -11.863,-4.02 1.582,-1.582 13.051,0.235 13.051,-9.937 0,-8.52 -13.286,-4.735 -18.512,-8.285 -3.149,-2.129 -5.344,-4.4497 -6.59,-5.938 8.156,-7.5468 14.539,-11.9179 14.539,-11.9179 0,0 15.141,10.0273 28.547,26.2619 l 6.305,8.367 c 2.543,3.723 4.898,7.672 6.922,11.828"
         style="fill:#f5f013;fill-opacity:1;fill-rule:nonzero;stroke:none"
         id="path30" /><path
         d="m 157.152,197.699 c 0,0 -7.566,4.434 -17.89,2.309 -10.321,-2.129 -12.547,-8.602 -12.547,-8.602 l 3.469,1.594 0.089,-1.418 3.118,1.949 0.086,-1.418 2.671,2.481 0.438,-1.594 2.402,2.129 0.184,-1.152 3.91,2.484 v -1.598 l 3.117,1.422 -0.265,-1.512 5.875,1.063 c 0,0 -13.883,-4.609 -15.661,-15.695 l 2.665,3.183 0.269,-1.5 1.688,3.367 0.449,-1.332 1.511,3.106 0.442,-1.86 2.312,3.372 0.18,-1.954 2.668,3.637 v -1.769 l 2.852,3.105 -0.09,-2.312 c 0,0 2.758,2.312 3.64,2.312 l -3.289,-4.262 1.071,-0.355 c 0,0 -2.317,-1.863 -2.493,-2.219 -0.175,-0.347 1.516,0 1.516,0 0,0 -2.051,-2.125 -2.137,-2.746 -0.089,-0.625 1.332,0 1.332,0 0,0 -1.867,-2.394 -2.132,-3.285 -0.27,-0.891 0.976,-0.176 0.976,-0.176 0,0 -1.156,-2.84 -1.246,-3.637 -0.09,-0.793 1.332,0.18 1.332,0.18 l 0.805,-4.879 1.426,5.848 0.886,-1.328 v 4.172 l 0.801,-0.707 -0.09,2.742 1.067,-1.059 -0.532,3.371 1.157,-1.324 -0.176,2.828 1.152,-1.152 v 3.726 l 1.07,-0.968 0.176,2.562 1.246,-0.617 c 0,0 0.176,3.105 1.606,3.016 1.418,-0.082 3.199,-1.594 2.488,-2.301 l 1.246,0.344 -0.265,-3.004 1.156,0.707 -0.18,-2.219 0.981,0.445 -0.356,-2.836 1.156,0.7 0.086,-3.45 1.332,0.969 -0.089,-4.074 1.335,1.058 v -3.367 l 1.247,0.879 1.339,-3.277 -0.269,4.879 0.98,-0.793 -1.785,3.453 1.34,0.18 -1.43,2.312 1.336,-0.102 -1.953,2.313 1.328,0.262 -2.937,2.133 1.605,0.617 -3.027,1.953 1.156,0.445 -2.133,2.219 2.227,-0.891 0.707,1.422 2.668,-2.133 v 2.133 l 2.312,-3.195 0.27,1.957 1.781,-2.488 0.356,1.148 1.246,-2.48 0.621,1.859 1.246,-2.664 0.351,1.871 1.161,-2.93 1.07,1.157 0.531,-3.02 1.063,1.156 0.976,-2.66 1.246,0.973 1.071,-3.02 c 0,0 2.937,16.149 -22.246,16.418 l -7.477,1.414"
         style="fill:#2e956d;fill-opacity:1;fill-rule:nonzero;stroke:none"
         id="path32" /><path
         d="m 145.586,212.07 1.418,-1.765 -0.711,-0.539 2.402,-1.332 -0.535,-0.973 2.406,-0.887 -0.89,-0.711 2.137,-1.234 -1.422,-0.453 2.578,-1.238 -0.356,-1.149 2.223,-0.535 -0.977,-0.793 2.579,-2.051 2.941,-2.035 2.043,0.707 -0.805,3.91 c 0,0 -8.449,11.531 -15.031,11.086"
         style="fill:#2e956d;fill-opacity:1;fill-rule:nonzero;stroke:none"
         id="path34" /><path
         d="m 153.324,223.246 0.981,-2.297 -1.336,-0.269 3.027,-3.016 -2.406,-0.09 2.941,-2.301 -1.429,-0.453 2.675,-2.66 -1.429,-0.707 2.757,-2.75 -1.863,-0.707 3.117,-2.84 -1.781,-0.093 1.863,-2.387 -1.687,-0.535 c 0,0 2.047,-3.813 1.953,-5.411 l 3.473,-0.175 c 0,0 0.535,10.289 0.09,11.621 l -0.891,-0.621 0.266,3.726 -1.336,-0.804 -0.262,4.437 -1.34,-1.418 -0.348,4.348 -0.98,-1.512 -0.984,4.262 -1.067,-1.332 -0.98,2.746 -0.797,-1.059 -2.227,2.305"
         style="fill:#2e956d;fill-opacity:1;fill-rule:nonzero;stroke:none"
         id="path36" /><path
         d="m 162.313,197.348 c 0.98,6.207 7.476,15.257 19.671,15.613 l -2.761,-1.422 1.601,-0.711 -3.203,-1.156 1.602,-0.969 -3.825,-0.269 1.954,-1.329 -2.844,-0.355 -2.227,-0.445 1.602,-1.504 -3.207,-0.352 2.051,-1.066 c 0,0 -5.075,-1.774 -5.43,-2.313 0,0 17.09,4.348 21.273,-3.715 l -3.297,1.418 0.27,-1.511 -2.313,1.683 0.352,-1.242 -2.398,1.242 0.351,-1.504 -2.492,1.422 0.535,-1.34 -3.203,1.512 0.535,-1.418 -2.762,0.887 0.274,-1.504 -2.766,0.172 0.27,-1.774 -8.543,0.18 -1.07,1.777"
         style="fill:#2e956d;fill-opacity:1;fill-rule:nonzero;stroke:none"
         id="path38" /><path
         d="m 159.703,191.996 1.781,0.117 c -0.832,-16.918 -0.05,-41.172 2.25,-50.152 3.914,-15.254 15.321,-21.129 18.036,-22.59 1.539,-0.824 0.949,-4.254 -2.137,-4.019 -3.082,0.238 -13.848,8.164 -17.563,22.355 -4.976,19.043 -2.558,52.305 -2.367,54.289"
         style="fill:#754019;fill-opacity:1;fill-rule:nonzero;stroke:none"
         id="path40" /><path
         d="m 162.582,197.672 c 1.109,0 2.012,-0.899 2.012,-2.012 0,-1.109 -0.903,-2.012 -2.012,-2.012 -1.113,0 -2.012,0.903 -2.012,2.012 0,1.113 0.899,2.012 2.012,2.012"
         style="fill:#754019;fill-opacity:1;fill-rule:nonzero;stroke:none"
         id="path42" /><path
         d="m 159.379,198.258 c 1.039,0 1.883,-0.844 1.883,-1.883 0,-1.039 -0.844,-1.883 -1.883,-1.883 -1.043,0 -1.887,0.844 -1.887,1.883 0,1.039 0.844,1.883 1.887,1.883"
         style="fill:#754019;fill-opacity:1;fill-rule:nonzero;stroke:none"
         id="path44" /><path
         d="m 159.379,194.848 c 0.969,0 1.758,-0.789 1.758,-1.758 0,-0.973 -0.789,-1.762 -1.758,-1.762 -0.973,0 -1.762,0.789 -1.762,1.762 0,0.969 0.789,1.758 1.762,1.758"
         style="fill:#754019;fill-opacity:1;fill-rule:nonzero;stroke:none"
         id="path46" /><path
         d="m 161.777,195.859 c 1.039,0 1.883,-0.843 1.883,-1.882 0,-1.039 -0.844,-1.883 -1.883,-1.883 -1.039,0 -1.882,0.844 -1.882,1.883 0,1.039 0.843,1.882 1.882,1.882"
         style="fill:#754019;fill-opacity:1;fill-rule:nonzero;stroke:none"
         id="path48" /><path
         d="m 142.566,134.449 h 2.008 v 21.645 h -2.008 v -21.645"
         style="fill:#100f0d;fill-opacity:1;fill-rule:nonzero;stroke:none"
         id="path50" /><path
         d="m 149.094,130.371 c 0,0 -0.824,-0.148 -2.133,-0.312 v 1.687 h -1.336 v -1.836 c -1.367,-0.137 -3.023,-0.25 -4.762,-0.25 -1.843,0 -3.707,0.137 -5.242,0.289 v 1.75 h -1.473 v -1.582 c -1.269,0.16 -2.089,0.297 -2.089,0.297 0,0 -0.403,-2.215 8.675,-2.215 9.075,0 8.364,2.172 8.364,2.172"
         style="fill:#754019;fill-opacity:1;fill-rule:nonzero;stroke:none"
         id="path52" /><path
         d="m 140.477,134.516 c 7.359,0 13.531,1.175 13.531,1.175 0,0 0.945,-4.726 -13.531,-4.726 -14.473,0 -13.289,4.015 -13.289,4.015 0,0 5.933,-0.464 13.289,-0.464"
         style="fill:#754019;fill-opacity:1;fill-rule:nonzero;stroke:none"
         id="path54" /><path
         d="m 134.305,154.859 c 0,0 11.39,-4.261 15.906,-19.168 0,0 -10.445,2.125 -16.379,-0.238 h -3.32 c 0,0 5.695,8.281 3.793,19.406"
         style="fill:#ffffff;fill-opacity:1;fill-rule:nonzero;stroke:none"
         id="path56" /><path
         d="m 135.918,166.078 h -2.109 c -0.168,0.906 -0.567,1.547 -1.196,1.899 -0.355,0.203 -0.746,0.296 -1.175,0.296 -0.833,0 -1.508,-0.394 -2.04,-1.207 -0.535,-0.8 -0.796,-2.019 -0.796,-3.636 0,-1.633 0.289,-2.785 0.863,-3.473 0.574,-0.672 1.23,-1.012 1.965,-1.012 0.718,0 1.308,0.266 1.769,0.805 0.457,0.535 0.742,1.238 0.852,2.117 h -2.379 v 2.211 h 4.277 v -7.117 h -1.418 l -0.218,1.656 c -0.415,-0.633 -0.786,-1.074 -1.114,-1.34 -0.566,-0.449 -1.261,-0.672 -2.09,-0.672 -1.359,0 -2.476,0.61 -3.343,1.829 -0.903,1.222 -1.36,2.894 -1.36,5.019 0,2.145 0.461,3.875 1.375,5.168 0.91,1.297 2.121,1.942 3.629,1.942 1.305,0 2.352,-0.43 3.145,-1.286 0.789,-0.851 1.246,-1.918 1.363,-3.199"
         style="fill:#c81a38;fill-opacity:1;fill-rule:nonzero;stroke:none"
         id="path58" /><path
         d="m 145.965,162.066 v 8.157 h 2.18 v -8.157 c 0,-0.91 0.089,-1.574 0.253,-1.996 0.262,-0.742 0.825,-1.117 1.704,-1.117 0.863,0 1.429,0.375 1.691,1.117 0.168,0.422 0.246,1.086 0.246,1.996 v 8.157 h 2.184 v -8.157 c 0,-1.406 -0.168,-2.503 -0.508,-3.293 -0.637,-1.433 -1.836,-2.156 -3.617,-2.156 -1.778,0 -2.989,0.715 -3.625,2.156 -0.336,0.782 -0.508,1.887 -0.508,3.293"
         style="fill:#c81a38;fill-opacity:1;fill-rule:nonzero;stroke:none"
         id="path60" /><path
         d="m 170.203,167.199 1.289,-5.222 h -2.597 z m -1.18,3.028 -3.675,-13.278 h 2.257 l 0.708,2.731 h 3.781 l 0.668,-2.731 h 2.32 l -3.652,13.278 h -2.407"
         style="fill:#c81a38;fill-opacity:1;fill-rule:nonzero;stroke:none"
         id="path62" /><path
         d="m 188.637,159.793 1.855,10.43 h 3.082 v -13.262 h -1.996 v 8.965 c 0,0.262 0.004,0.625 0.008,1.09 0.004,0.464 0.008,0.824 0.008,1.07 l -1.946,-11.125 h -2.085 l -1.93,11.125 c 0,-0.246 0.004,-0.606 0.008,-1.07 0.004,-0.465 0.007,-0.828 0.007,-1.09 v -8.965 h -1.996 v 13.262 h 3.121 l 1.864,-10.43"
         style="fill:#c81a38;fill-opacity:1;fill-rule:nonzero;stroke:none"
         id="path64" /></g></g></svg>
