<?xml version="1.0" encoding="UTF-8" standalone="no"?>
<svg
   xmlns:dc="http://purl.org/dc/elements/1.1/"
   xmlns:cc="http://creativecommons.org/ns#"
   xmlns:rdf="http://www.w3.org/1999/02/22-rdf-syntax-ns#"
   xmlns:svg="http://www.w3.org/2000/svg"
   xmlns="http://www.w3.org/2000/svg"
   version="1.1"
   id="svg2"
   xml:space="preserve"
   width="42.666668"
   height="42.666668"
   viewBox="0 0 42.666668 42.666668"><metadata
     id="metadata8"><rdf:RDF><cc:Work
         rdf:about=""><dc:format>image/svg+xml</dc:format><dc:type
           rdf:resource="http://purl.org/dc/dcmitype/StillImage" /></cc:Work></rdf:RDF></metadata><defs
     id="defs6" /><g
     id="g10"
     transform="matrix(1.3333333,0,0,-1.3333333,0,42.666667)"><g
       id="g12"
       transform="scale(0.1)"><path
         d="M 319.992,160.496 C 319.723,248.406 247.961,320.027 160,320.027 104.773,320.027 55.9297,291.793 27.1602,249.023 71.4531,219.508 115.75,189.988 160.059,160.496 115.563,130.922 71.1289,101.316 26.6914,71.6953 55.4023,28.5313 104.473,-0.015625 160,-0.015625 c 88.125,0 160,71.886725 160,160.023625 l -0.008,0.488"
         style="fill:#2ca241;fill-opacity:1;fill-rule:nonzero;stroke:none"
         id="path14" /><path
         d="M 33.168,77.1523 C 17.3828,102.027 9.05859,130.641 9.05859,160.141 c 0,29.808 8.48051,58.675 24.55471,83.699 L 308.883,160.629 Z M 0.164063,160.008 c 0,-34.731 11.179737,-66.9299 30.109337,-93.1955 L 319.723,154.449 c 0.066,1.848 0.113,3.692 0.113,5.559 0,2.289 -0.063,4.558 -0.16,6.82 L 30.9453,254.109 C 11.6094,227.684 0.164063,195.145 0.164063,160.008"
         style="fill:#ffffff;fill-opacity:1;fill-rule:nonzero;stroke:none"
         id="path16" /><path
         d="M 26.6914,71.6953 C 71.1289,101.316 115.563,130.922 160.059,160.496 115.75,189.988 71.4531,219.508 27.1602,249.023 10.0195,223.543 0,192.91 0,160.008 0,127.406 9.84375,97.0352 26.6914,71.6953"
         style="fill:#d21e29;fill-opacity:1;fill-rule:nonzero;stroke:none"
         id="path18" /><path
         d="m 172.77,160.512 -5.668,3.773 c -44.313,29.488 -88.6098,59.004 -132.9028,88.524 l -2.9258,1.941 c -1.3711,-1.852 -2.7461,-3.695 -4.0351,-5.613 l -0.082,0.027 -1.1368,-1.832 c 2.3164,-1.543 4.6328,-3.082 6.9493,-4.629 l 0.0117,0.027 C 74.1211,215.324 115.262,187.91 156.41,160.512 115.211,133.129 74.2617,105.848 32.5391,78.0313 l -0.0196,0.0312 C 30.2148,76.5234 27.918,74.9961 25.6133,73.4609 l 1.0781,-1.7539 c 1.3008,-1.9609 2.6914,-3.8515 4.0742,-5.7422 l 2.9727,1.9805 C 78.6953,97.9102 122.723,127.25 167.098,156.738 l 5.672,3.774"
         style="fill:#131210;fill-opacity:1;fill-rule:nonzero;stroke:none"
         id="path20" /><path
         d="m 26.6914,71.707 -1.0781,1.7539 c 2.3047,1.5352 4.6015,3.0625 6.9062,4.6016 l 0.0196,-0.0312 C 74.2617,105.848 115.211,133.129 156.41,160.512 115.262,187.91 74.1211,215.324 32.9805,242.73 l -0.0117,-0.027 c -2.3047,1.539 -4.6133,3.07 -6.918,4.61 C 9.60156,222.172 0,192.18 0,160.008 0,127.406 9.84375,97.0352 26.6914,71.6953 l 0.0078,0.0039 -0.0078,0.0078"
         style="fill:#d01e27;fill-opacity:1;fill-rule:nonzero;stroke:none"
         id="path22" /><path
         d="M 59.5313,85.1367 308.883,160.629 59.3359,236.066 c 35.918,-23.933 71.8321,-47.871 107.7661,-71.781 l 5.668,-3.773 -5.672,-3.774 C 131.246,132.914 95.6016,109.172 59.5313,85.1367"
         style="fill:#f7cf0d;fill-opacity:1;fill-rule:nonzero;stroke:none"
         id="path24" /></g></g></svg>
