<?xml version="1.0" encoding="UTF-8" standalone="no"?>
<svg
   xmlns:dc="http://purl.org/dc/elements/1.1/"
   xmlns:cc="http://creativecommons.org/ns#"
   xmlns:rdf="http://www.w3.org/1999/02/22-rdf-syntax-ns#"
   xmlns:svg="http://www.w3.org/2000/svg"
   xmlns="http://www.w3.org/2000/svg"
   version="1.1"
   id="svg2"
   xml:space="preserve"
   width="42.666668"
   height="42.666668"
   viewBox="0 0 42.666668 42.666668"><metadata
     id="metadata8"><rdf:RDF><cc:Work
         rdf:about=""><dc:format>image/svg+xml</dc:format><dc:type
           rdf:resource="http://purl.org/dc/dcmitype/StillImage" /></cc:Work></rdf:RDF></metadata><defs
     id="defs6" /><g
     id="g10"
     transform="matrix(1.3333333,0,0,-1.3333333,0,42.666667)"><g
       id="g12"
       transform="scale(0.1)"><path
         d="m 160,0.015625 c 88.129,0 160,71.863275 160,159.972375 0,88.133 -71.871,159.996 -160,159.996 C 71.8867,319.984 0,248.121 0,159.988 0,71.8789 71.8867,0.015625 160,0.015625"
         style="fill:#df2524;fill-opacity:1;fill-rule:evenodd;stroke:none"
         id="path14" /><path
         d="m 148.406,213.48 c 1.254,-1.136 2.457,-2.292 3.707,-3.496 1.559,0.637 3.211,1.25 4.813,1.813 -0.727,-1.512 -1.418,-3.02 -2.145,-4.578 1.11,-1.321 2.192,-2.617 3.254,-3.942 -1.668,0.215 -3.422,0.379 -5.07,0.59 -0.945,-1.414 -1.84,-2.879 -2.738,-4.293 -0.356,1.676 -0.664,3.305 -1.043,4.981 -1.602,0.472 -3.231,0.875 -4.86,1.343 1.465,0.852 2.926,1.629 4.391,2.454 -0.098,1.722 -0.188,3.398 -0.309,5.128 z m 3.403,-53.894 c -12.297,9.867 -14.496,29.32 -5.692,42.184 1.18,-1.04 -0.234,-2.243 -0.637,-3.282 -6.632,-12.511 -3.703,-29.558 7.532,-38.336 -2.149,2.879 -3.871,6.328 -3.965,9.989 -0.52,7.172 3.918,14.015 10.074,17.347 11.234,4.77 16.906,20.606 9.68,30.848 -2.313,4.039 -3.09,9.16 -1.035,13.457 1.39,3.281 4.339,5.523 7.312,7.27 -6.652,0.406 -13.383,-0.473 -19.57,-2.879 -13.262,-5.121 -23.504,-17.207 -26.555,-31.012 -2.285,-9.781 -0.894,-20.445 4.395,-29.016 4.343,-7.226 11.07,-12.699 18.461,-16.57"
         style="fill:#ffffff;fill-opacity:1;fill-rule:nonzero;stroke:none"
         id="path16" /><path
         d="m 202.629,173.914 c -0.945,-1.414 -1.887,-2.832 -2.762,-4.297 -0.383,1.676 -0.687,3.356 -1.039,5.028 -1.629,0.402 -3.258,0.824 -4.863,1.25 1.465,0.832 2.93,1.679 4.39,2.503 -0.121,1.676 -0.214,3.399 -0.261,5.075 1.25,-1.157 2.453,-2.313 3.707,-3.446 1.558,0.614 3.14,1.25 4.703,1.817 -0.617,-1.512 -1.348,-3.02 -2.082,-4.485 1.086,-1.367 2.129,-2.714 3.234,-4.035 -1.676,0.164 -3.351,0.379 -5.027,0.59 z m 20.867,14.941 c -14.113,11.141 -35.504,12.489 -50.351,1.938 -9.586,-6.586 -15.016,-17.727 -16.899,-28.965 5.496,14.684 23.012,22.688 37.981,18.93 0.046,-0.258 0.093,-0.895 0.14,-1.199 -14.754,3.796 -32.054,-4.09 -37.226,-18.77 2.031,3.188 4.914,5.856 8.523,7.199 6.633,2.621 14.492,0.52 19.57,-4.34 7.883,-9.089 24.567,-9.66 32.102,0.211 3.137,3.446 7.789,5.922 12.531,5.332 3.617,-0.308 6.703,-2.406 9.324,-4.742 -2.406,9.516 -7.859,18.387 -15.695,24.406"
         style="fill:#ffffff;fill-opacity:1;fill-rule:nonzero;stroke:none"
         id="path18" /><path
         d="m 104.738,170.707 c -0.117,1.746 -0.211,3.398 -0.304,5.141 1.25,-1.157 2.5,-2.313 3.703,-3.469 1.633,0.594 3.191,1.203 4.816,1.844 -0.73,-1.582 -1.418,-3.098 -2.148,-4.606 1.086,-1.297 2.148,-2.621 3.191,-3.918 -1.68,0.141 -3.332,0.356 -5.031,0.52 -0.875,-1.41 -1.817,-2.879 -2.766,-4.293 -0.308,1.672 -0.636,3.351 -0.988,5.023 -1.633,0.422 -3.231,0.828 -4.91,1.254 1.465,0.848 2.926,1.676 4.437,2.504 z m 19.524,-29.273 c 10.547,0.425 20.484,5.64 27.851,12.957 -13.265,-7.977 -31.843,-4.125 -41.402,7.914 1.25,1.082 1.984,-0.641 2.809,-1.325 9.937,-10.457 27.453,-12.843 39.445,-4.531 -5.027,-2.316 -11.141,-2.058 -15.863,0.942 -4.653,2.761 -7.793,7.672 -8.782,12.961 -1.039,12.011 -14.117,22.285 -26.039,18.812 -4.6912,-1.043 -10.1951,-0.211 -13.7146,3.352 -2.4961,2.359 -3.6992,5.711 -4.4375,8.992 -4.6523,-11.543 -4.5312,-25.09 1.2031,-36.231 7.0625,-14.375 22.688,-24.672 38.93,-23.843"
         style="fill:#ffffff;fill-opacity:1;fill-rule:nonzero;stroke:none"
         id="path20" /><path
         d="m 189.102,117.762 c -0.895,-1.422 -1.844,-2.836 -2.786,-4.254 -0.304,1.633 -0.683,3.305 -0.988,4.933 -1.633,0.473 -3.308,0.875 -4.961,1.301 1.508,0.848 2.973,1.672 4.438,2.453 -0.047,1.727 -0.164,3.45 -0.262,5.121 1.254,-1.199 2.551,-2.289 3.875,-3.445 1.512,0.692 3.066,1.301 4.652,1.891 -0.734,-1.582 -1.465,-3.098 -2.148,-4.653 1.039,-1.32 2.148,-2.617 3.183,-3.918 -1.675,0.192 -3.347,0.356 -5.003,0.571 z m 1.871,34.863 c -9.051,6.277 -20.496,7.695 -31.164,6.23 15.625,-1.066 28.609,-15.058 29.433,-30.55 -0.304,0 -0.89,-0.047 -1.203,-0.094 -0.828,15.156 -13.809,29.105 -29.269,29.32 6.421,-1.25 11.66,-6.629 12.96,-13.004 1.368,-5.547 -0.472,-11.238 -3.136,-16.101 -3.449,-9.934 1.035,-23.227 11.492,-26.981 4.41,-1.8864 8.266,-5.6364 9.203,-10.4567 0.734,-3.4453 -0.262,-7.0078 -1.601,-10.1485 9.343,5.8516 16.664,15.1563 19.402,25.9412 4.578,16.621 -1.629,36.114 -16.117,45.844"
         style="fill:#ffffff;fill-opacity:1;fill-rule:nonzero;stroke:none"
         id="path22" /><path
         d="m 131.527,112.898 c -0.941,-1.464 -1.882,-2.878 -2.777,-4.347 -0.336,1.679 -0.691,3.355 -0.992,5.027 -1.633,0.402 -3.262,0.871 -4.91,1.301 1.461,0.824 2.922,1.676 4.386,2.504 -0.117,1.672 -0.211,3.398 -0.285,5.07 1.231,-1.152 2.481,-2.289 3.684,-3.445 1.605,0.64 3.187,1.203 4.816,1.844 -0.711,-1.536 -1.418,-3.09 -2.101,-4.602 1.039,-1.324 2.148,-2.672 3.238,-3.992 -1.731,0.215 -3.402,0.43 -5.059,0.64 z m 9.61,5.379 c -1.25,-0.515 -2.762,-2.027 -4.035,-0.828 2.836,1.653 5.921,2.977 8.425,5.168 9.368,7.418 14.071,20.399 10.883,31.942 0.778,-8.829 -6.019,-17.137 -14.754,-18.504 -5.07,-1.254 -10.195,1.367 -15.222,-0.168 -8.313,-2.196 -16.477,-8.969 -16.954,-18.082 -0.281,-4.813 -2.453,-9.891 -6.796,-12.442 -3.0668,-1.98 -6.891,-2.191 -10.4809,-1.886 7.086,-5.8989 16.0039,-9.7739 25.3049,-10.4106 17.347,-1.2969 35.289,8.7346 42.301,24.9026 5.214,11.496 3.609,25 -2.051,35.949 3.515,-13.832 -4.133,-29.102 -16.621,-35.641"
         style="fill:#ffffff;fill-opacity:1;fill-rule:nonzero;stroke:none"
         id="path24" /></g></g></svg>
