<?xml version="1.0" encoding="UTF-8" standalone="no"?>
<svg
   xmlns:dc="http://purl.org/dc/elements/1.1/"
   xmlns:cc="http://creativecommons.org/ns#"
   xmlns:rdf="http://www.w3.org/1999/02/22-rdf-syntax-ns#"
   xmlns:svg="http://www.w3.org/2000/svg"
   xmlns="http://www.w3.org/2000/svg"
   version="1.1"
   id="svg2"
   xml:space="preserve"
   width="42.666668"
   height="42.666668"
   viewBox="0 0 42.666668 42.666668"><metadata
     id="metadata8"><rdf:RDF><cc:Work
         rdf:about=""><dc:format>image/svg+xml</dc:format><dc:type
           rdf:resource="http://purl.org/dc/dcmitype/StillImage" /></cc:Work></rdf:RDF></metadata><defs
     id="defs6" /><g
     id="g10"
     transform="matrix(1.3333333,0,0,-1.3333333,0,42.666667)"><g
       id="g12"
       transform="scale(0.1)"><path
         d="M 310.523,105.648 H 9.47656 C 3.33594,122.625 0,140.918 0,160.004 0,179.07 3.33594,197.371 9.47656,214.34 H 310.523 c 6.118,-16.969 9.477,-35.27 9.477,-54.336 0,-19.086 -3.359,-37.379 -9.477,-54.356"
         style="fill:#ffffff;fill-opacity:1;fill-rule:evenodd;stroke:none"
         id="path14" /><path
         d="M 310.523,214.34 H 9.47656 C 31.7266,275.945 90.7266,319.996 159.988,319.996 c 69.274,0 128.27,-44.051 150.535,-105.656"
         style="fill:#3d6dbe;fill-opacity:1;fill-rule:evenodd;stroke:none"
         id="path16" /><path
         d="m 159.988,0.00390625 c 69.274,0 128.27,44.05079375 150.535,105.64409375 H 9.47656 C 31.7266,44.0547 90.7266,0.00390625 159.988,0.00390625"
         style="fill:#3d6dbe;fill-opacity:1;fill-rule:evenodd;stroke:none"
         id="path18" /><path
         d="m 70.0742,186.047 c 2.9141,-2.223 5.9063,-4.254 8.8008,-6.484 -1.1133,-3.489 -2.2656,-6.899 -3.3281,-10.391 2.9453,2.125 5.8515,4.308 8.8476,6.41 2.9844,-2.062 5.8125,-4.285 8.8125,-6.312 -0.9804,3.441 -2.289,6.746 -3.2148,10.207 2.6289,2.441 5.8672,4.281 8.7031,6.57 -3.6523,0.058 -7.3008,-0.047 -10.9492,0.058 -1.0234,3.379 -2.1211,6.688 -3.2461,10.016 -1.5781,-3.215 -2.2461,-6.746 -3.4922,-10.074 -3.6601,0 -7.3086,0.058 -10.9336,0"
         style="fill:#3d6dbe;fill-opacity:1;fill-rule:evenodd;stroke:none"
         id="path20" /><path
         d="m 232.254,186.105 c -3.66,-0.105 -7.309,0 -10.957,-0.058 2.863,-2.289 6.047,-4.129 8.715,-6.57 -0.926,-3.461 -2.235,-6.766 -3.215,-10.207 3.008,2.027 5.836,4.25 8.832,6.312 2.918,-2.102 5.863,-4.285 8.812,-6.41 -1.027,3.492 -2.214,6.902 -3.32,10.391 2.887,2.23 5.859,4.308 8.824,6.484 -3.668,0.058 -7.297,0 -10.965,0 -1.238,3.328 -1.89,6.859 -3.464,10.074 -1.153,-3.328 -2.235,-6.637 -3.262,-10.016"
         style="fill:#3d6dbe;fill-opacity:1;fill-rule:evenodd;stroke:none"
         id="path22" /><path
         d="m 145.684,161.879 c 2.894,-2.234 5.949,-4.25 8.824,-6.481 -1.094,-3.488 -2.297,-6.867 -3.32,-10.355 2.988,2.02 5.808,4.301 8.812,6.32 2.996,-2.019 5.824,-4.3 8.82,-6.32 -1.023,3.488 -2.277,6.922 -3.328,10.355 2.946,2.231 5.938,4.247 8.801,6.481 -3.609,0.047 -7.258,-0.059 -10.906,0.047 -1.153,3.441 -2.192,6.804 -3.387,10.191 -1.187,-3.387 -2.234,-6.808 -3.383,-10.191 -3.637,-0.106 -7.285,0 -10.933,-0.047"
         style="fill:#3d6dbe;fill-opacity:1;fill-rule:evenodd;stroke:none"
         id="path24" /><path
         d="m 69.9883,140.703 c 2.9609,-2.187 5.9492,-4.262 8.8867,-6.484 -1.1133,-3.481 -2.2656,-6.867 -3.3281,-10.34 2.9453,2.059 5.8515,4.238 8.8476,6.363 2.9844,-2.066 5.8125,-4.304 8.8125,-6.363 -1.039,3.473 -2.2343,6.906 -3.3281,10.34 2.9297,2.222 5.9258,4.23 8.8164,6.484 -3.6523,0 -7.3008,-0.07 -10.9922,0.055 -1.0273,3.351 -2.1211,6.746 -3.2734,10.055 -1.4141,-3.2 -2.2149,-6.747 -3.4219,-10.055 -3.6601,-0.125 -7.3086,-0.055 -11.0195,-0.055"
         style="fill:#3d6dbe;fill-opacity:1;fill-rule:evenodd;stroke:none"
         id="path26" /><path
         d="m 232.313,140.758 c -3.719,-0.125 -7.368,0 -11.016,-0.055 2.902,-2.254 5.894,-4.262 8.816,-6.484 -1.097,-3.434 -2.281,-6.867 -3.316,-10.34 3.008,2.059 5.836,4.297 8.832,6.363 2.988,-2.125 5.863,-4.304 8.812,-6.363 -1.027,3.473 -2.277,6.859 -3.32,10.34 2.945,2.222 5.93,4.297 8.867,6.484 -3.711,0 -7.34,-0.07 -11.008,0.055 -1.187,3.308 -1.992,6.855 -3.421,10.055 -1.141,-3.309 -2.223,-6.704 -3.246,-10.055"
         style="fill:#3d6dbe;fill-opacity:1;fill-rule:evenodd;stroke:none"
         id="path28" /></g></g></svg>
