<?xml version="1.0" encoding="UTF-8" standalone="no"?>
<svg
   xmlns:dc="http://purl.org/dc/elements/1.1/"
   xmlns:cc="http://creativecommons.org/ns#"
   xmlns:rdf="http://www.w3.org/1999/02/22-rdf-syntax-ns#"
   xmlns:svg="http://www.w3.org/2000/svg"
   xmlns="http://www.w3.org/2000/svg"
   version="1.1"
   id="svg2"
   xml:space="preserve"
   width="42.666668"
   height="42.666668"
   viewBox="0 0 42.666668 42.666668"><metadata
     id="metadata8"><rdf:RDF><cc:Work
         rdf:about=""><dc:format>image/svg+xml</dc:format><dc:type
           rdf:resource="http://purl.org/dc/dcmitype/StillImage" /></cc:Work></rdf:RDF></metadata><defs
     id="defs6" /><g
     id="g10"
     transform="matrix(1.3333333,0,0,-1.3333333,0,42.666667)"><g
       id="g12"
       transform="scale(0.1)"><path
         d="M 310.535,105.66 H 9.48828 C 3.35156,122.621 0,140.922 0,159.996 0,179.078 3.35156,197.367 9.48828,214.34 H 310.535 c 6.117,-16.973 9.465,-35.262 9.465,-54.344 0,-19.074 -3.348,-37.363 -9.465,-54.336"
         style="fill:#ffffff;fill-opacity:1;fill-rule:evenodd;stroke:none"
         id="path14" /><path
         d="M 310.535,214.34 H 9.48828 C 31.7383,275.949 90.7422,319.996 160,319.996 c 69.27,0 128.273,-44.047 150.535,-105.656"
         style="fill:#ed1d24;fill-opacity:1;fill-rule:evenodd;stroke:none"
         id="path16" /><path
         d="M 9.48828,105.648 H 310.535 C 288.273,44.043 229.27,0.00390625 160,0.00390625 90.7422,0.00390625 31.7383,44.043 9.48828,105.648"
         style="fill:#2d328b;fill-opacity:1;fill-rule:evenodd;stroke:none"
         id="path18" /><path
         d="m 106.066,200.738 c 38.973,13.184 72.879,12.524 108.055,-0.215 l 13.328,29.266 -9.59,17.535 -17.086,-7.328 -11.859,13.777 -15.203,-9.812 -14.172,11.687 -13.726,-11.464 -15.825,9.589 -11.254,-14.382 -17.023,7.714 -9.1524,-17.531 c 4.5273,-9.594 9.0434,-19.254 13.5074,-28.836"
         style="fill:#ffffff;fill-opacity:1;fill-rule:nonzero;stroke:none"
         id="path20" /><path
         d="m 221.66,219.719 -0.39,-0.836 c 1.589,3.445 3.164,6.902 4.75,10.351 l -8.758,15.887 -16.821,-7.113 -2.621,-9.899 c 8.578,-1.992 16.282,-4.89 23.84,-8.39"
         style="fill:#4690d4;fill-opacity:1;fill-rule:nonzero;stroke:none"
         id="path22" /><path
         d="m 102.602,245.172 -8.227,-15.383 c 4.082,-9.199 8.109,-18.461 12.188,-27.734 6.664,2.656 13.167,4.687 20.3,6.406 l -7.183,28.769 -17.078,7.942"
         style="fill:#4690d4;fill-opacity:1;fill-rule:nonzero;stroke:none"
         id="path24" /><path
         d="m 106.066,236.133 2.375,-2.203 3.356,1.047 -0.711,-3.418 2.195,-2.532 -2.754,-1.062 -0.605,-3.41 -2.637,2.304 -3.418,-1.152 0.707,3.703 -2.535,2.363 3.371,1.102 0.656,3.258"
         style="fill:#e8ec22;fill-opacity:1;fill-rule:nonzero;stroke:none"
         id="path26" /><path
         d="m 105.461,232.828 2.48,-2.535 -1.875,5.723 z"
         style="fill:#ebbf11;fill-opacity:1;fill-rule:nonzero;stroke:none"
         id="path28" /><path
         d="m 107.941,230.293 0.5,3.578 3.297,1.051 z"
         style="fill:#ebbf11;fill-opacity:1;fill-rule:nonzero;stroke:none"
         id="path30" /><path
         d="m 107.941,230.293 5.286,-1.266 -2.7,-1.062 z"
         style="fill:#ebbf11;fill-opacity:1;fill-rule:nonzero;stroke:none"
         id="path32" /><path
         d="m 107.941,230.293 1.981,-5.684 -2.637,2.321 z"
         style="fill:#ebbf11;fill-opacity:1;fill-rule:nonzero;stroke:none"
         id="path34" /><path
         d="m 107.941,230.293 -4.015,-4.586 0.707,3.703 -2.477,2.305 5.785,-1.422"
         style="fill:#ebbf11;fill-opacity:1;fill-rule:nonzero;stroke:none"
         id="path36" /><path
         d="m 103.633,217.008 c 8.058,-1.719 12.461,0.988 15.824,5.726 1.106,-9.379 -10.695,-13.668 -15.824,-5.726"
         style="fill:#ffffff;fill-opacity:1;fill-rule:nonzero;stroke:none"
         id="path38" /><path
         d="m 130.598,251.723 15.816,-9.578 c 0.828,-10.149 1.711,-20.29 2.59,-30.383 -7.93,-0.539 -13.992,-1.481 -22.141,-3.301 l -7.289,28.937 11.024,14.325"
         style="fill:#2d328b;fill-opacity:1;fill-rule:nonzero;stroke:none"
         id="path40" /><path
         d="m 119.73,237.289 c 9.602,4.246 16.047,5.133 26.684,4.629 0.055,-2.375 0.109,-4.793 0.219,-7.168 -8.36,-0.156 -15.266,-0.492 -25.133,-4.129 -0.609,2.207 -1.156,4.41 -1.77,6.668"
         style="fill:#ed1d24;fill-opacity:1;fill-rule:nonzero;stroke:none"
         id="path42" /><path
         d="m 123.152,223.832 c 9.543,3.531 16.438,3.75 24.321,3.645 0.215,-2.637 0.433,-5.293 0.652,-8 -7.937,-0.321 -14.656,-0.938 -22.988,-3.414 -0.664,2.593 -1.317,5.191 -1.985,7.769"
         style="fill:#ed1d24;fill-opacity:1;fill-rule:nonzero;stroke:none"
         id="path44" /><path
         d="m 159.805,253.395 13.957,-11.25 c -0.828,-10.149 -1.594,-20.29 -2.375,-30.383 -7.5,0.285 -14.657,0.722 -22.438,0 l -2.754,30.265 13.61,11.368"
         style="fill:#4690d4;fill-opacity:1;fill-rule:nonzero;stroke:none"
         id="path46" /><path
         d="m 188.762,251.461 11.679,-13.395 c -2.597,-9.878 -5.187,-19.625 -7.711,-29.496 -7.234,1.711 -13.675,2.653 -21.453,3.192 l 2.485,30.547 15,9.152"
         style="fill:#2d328b;fill-opacity:1;fill-rule:nonzero;stroke:none"
         id="path48" /><path
         d="m 194.023,213.707 c 7.266,-2.359 14.29,-4.602 21.407,-7.57 l 1.226,2.676 c -7.371,3.156 -14.039,5.617 -21.929,7.589 l -0.704,-2.695"
         style="fill:#d2d2d1;fill-opacity:1;fill-rule:nonzero;stroke:none"
         id="path50" /><path
         d="m 197.031,225.113 c 8.278,-2.05 16.028,-4.707 23.399,-8.086 0.398,0.907 0.816,1.797 1.23,2.692 -7.558,3.5 -15.262,6.398 -23.84,8.39 l -0.789,-2.996"
         style="fill:#ffffff;fill-opacity:1;fill-rule:nonzero;stroke:none"
         id="path52" /><path
         d="m 194.746,216.488 c 7.863,-2.011 14.629,-4.461 21.969,-7.558 1.234,2.695 2.465,5.406 3.715,8.097 -7.371,3.379 -15.121,6.036 -23.399,8.086 l 0.356,1.348 -2.641,-9.973"
         style="fill:#ed1d24;fill-opacity:1;fill-rule:nonzero;stroke:none"
         id="path54" /><path
         d="m 193.984,213.617 -1.312,-4.988 c 7.328,-1.652 14.058,-3.859 20.84,-6.68 0.621,1.367 1.25,2.739 1.879,4.11 -7.102,2.929 -14.137,5.195 -21.407,7.558"
         style="fill:#468ed3;fill-opacity:1;fill-rule:nonzero;stroke:none"
         id="path56" /><path
         d="m 216.691,208.871 c -7.328,3.098 -14.043,5.559 -21.945,7.531 l -0.723,-2.793 c 7.25,-2.359 14.278,-4.621 21.368,-7.539 0.429,0.938 0.871,1.875 1.3,2.801"
         style="fill:#ffffff;fill-opacity:1;fill-rule:nonzero;stroke:none"
         id="path58" /><path
         d="m 214.77,238.18 0.55,-3.094 3.207,-1.262 -2.648,-2.16 0.156,-3.301 -2.746,0.871 -2.484,-2.257 -0.657,3.371 -3.316,1.16 2.813,2.422 -0.547,3.3 3.257,-1.156 2.415,2.106"
         style="fill:#e8ec22;fill-opacity:1;fill-rule:nonzero;stroke:none"
         id="path60" /><path
         d="m 212.355,236.016 0.383,-3.403 2.032,5.508 z"
         style="fill:#ebbf11;fill-opacity:1;fill-rule:nonzero;stroke:none"
         id="path62" /><path
         d="m 212.738,232.555 2.528,2.476 3.207,-1.207 z"
         style="fill:#ebbf11;fill-opacity:1;fill-rule:nonzero;stroke:none"
         id="path64" /><path
         d="m 212.738,232.555 3.246,-4.133 -2.644,0.812 z"
         style="fill:#ebbf11;fill-opacity:1;fill-rule:nonzero;stroke:none"
         id="path66" /><path
         d="m 212.738,232.613 -1.933,-5.578 -0.61,3.356 z"
         style="fill:#ebbf11;fill-opacity:1;fill-rule:nonzero;stroke:none"
         id="path68" /><path
         d="m 212.738,232.613 -5.84,-1.105 2.813,2.363 -0.559,3.301 3.586,-4.559"
         style="fill:#ebbf11;fill-opacity:1;fill-rule:nonzero;stroke:none"
         id="path70" /><path
         d="m 176.793,217.168 -0.109,-1.16 -0.274,-0.168 -1.215,-0.211 h -0.047 v 0.059 h -0.328 l -0.175,-0.176 -0.161,0.285 -0.121,0.098 -0.152,0.281 0.152,0.273 -0.152,0.11 0.105,0.058 0.047,0.059 0.172,0.058 0.059,0.219 h 0.109 l 0.668,0.649 1.422,-0.434"
         style="fill:#c85d2c;fill-opacity:1;fill-rule:nonzero;stroke:none"
         id="path72" /><path
         d="m 180.492,215.133 0.11,-0.059 -0.059,-0.429 v -0.508 l -1.488,-0.5 h -0.227 -0.098 l -0.289,0.176 -0.375,0.109 -0.058,0.156 v 0.219 l 0.433,0.609 0.172,0.059 0.117,0.109 0.274,0.391 1.488,-0.332"
         style="fill:#c85d2c;fill-opacity:1;fill-rule:nonzero;stroke:none"
         id="path74" /><path
         d="m 181.926,233.48 0.058,-0.156 0.426,-0.113 0.332,0.113 0.571,0.098 h 0.425 l 0.11,-0.039 v -0.172 l -0.828,-1.043 -0.059,-0.055 -0.156,-0.222 -1.047,-0.332 h -0.117 l -0.274,-0.118 -0.058,-0.105 0.117,-0.434 0.117,-0.105 0.156,-0.059 -0.097,-0.117 0.214,-0.328 0.059,-0.172 0.156,-0.223 0.16,-0.156 v -0.117 l 0.497,-0.445 0.273,-0.094 0.113,-0.234 0.281,0.058 v -0.105 l 0.383,-0.176 h 0.825 l 0.164,-0.109 h 0.218 v 0.109 l 0.059,-0.051 0.059,-0.105 0.718,0.105 0.278,0.051 h 0.281 l 0.379,0.059 0.215,0.046 0.39,0.071 0.047,-0.117 h 0.285 l 0.828,0.339 v 0.11 h 0.102 l 0.176,-0.051 0.109,0.051 0.719,-0.051 0.039,-0.117 h 0.394 v 0.058 l 0.282,0.059 h 0.164 l 0.215,0.094 0.058,-0.043 1.817,-0.168 0.722,0.168 1.211,0.984 0.164,-0.164 0.121,-0.488 -0.121,-0.617 -0.105,-1.551 -0.281,-0.488 h 0.281 v -0.383 l 0.105,-0.117 v -0.215 l -0.105,-0.106 v -0.117 l -0.188,-0.375 -0.039,-0.223 -0.105,-0.058 -0.328,-0.281 v -0.157 h -0.118 l -0.058,-0.508 -0.16,-0.441 -0.157,-0.434 0.04,-0.171 0.058,-0.098 -0.058,-0.504 0.058,-0.383 0.059,0.117 0.16,-0.226 -0.375,-0.383 -0.059,-0.555 0.059,-0.164 v -0.34 l 0.433,-0.382 -0.058,-0.329 -0.047,-0.765 -0.27,-0.231 -1.062,-1.097 -0.059,-0.172 -0.05,-0.113 -0.164,-0.157 -0.215,-0.437 0.054,-0.16 -0.054,-0.785 -0.114,-0.118 -0.336,-0.05 -0.378,-0.325 -0.059,-0.058 -0.16,-0.274 -1.27,0.657 0.059,0.39 0.039,0.117 0.394,0.446 v 0.16 h 0.114 l 0.547,1.316 0.058,0.168 v 0.106 l -0.058,0.722 0.058,0.328 -0.058,0.059 v 0.164 l -0.118,0.172 -0.156,0.207 -0.105,0.281 -0.282,0.059 -0.105,0.215 h -0.117 l -0.059,0.058 h -0.211 l -0.168,-0.172 v -0.16 l -0.054,-0.105 -0.215,-0.117 -0.395,-0.329 -0.054,-0.167 -0.332,-0.336 -0.059,-0.039 -0.223,-0.282 v -0.058 l -0.051,-0.055 -0.105,-0.059 -0.16,-0.269 v -0.332 l -0.176,-0.215 -0.168,-0.23 h -0.105 -0.059 l -0.098,-0.165 -0.117,-0.058 h -0.176 l -0.214,-0.211 -0.047,-0.496 v -0.055 l -0.063,-0.105 -1.265,0.539 0.117,0.273 0.152,0.227 0.063,0.496 0.269,0.433 0.117,0.114 0.282,0.547 0.113,0.171 0.262,0.543 0.07,0.059 0.144,0.34 -0.589,0.215 -0.11,-0.059 -0.172,-0.055 -0.269,-0.101 -0.18,0.101 v 0.399 l -0.433,-0.227 -0.059,-0.058 h -0.059 l -0.382,-0.332 h -0.223 v 0.332 l -0.047,0.113 -0.113,0.059 -0.215,-0.059 0.113,-0.113 h -0.23 l -0.157,-0.332 h -0.046 l -0.176,-0.047 -0.215,0.222 -0.117,-0.175 -0.117,-0.098 h -0.215 v -0.332 l -0.117,-0.172 -0.161,-0.164 -0.16,-0.328 -0.336,-0.395 0.059,-0.328 -0.164,0.059 -0.227,-0.176 -0.332,-0.824 -0.058,-0.981 -0.102,-0.117 0.102,-0.058 -0.059,-0.383 -0.098,-0.379 -0.285,-0.332 -0.265,-0.059 h -0.059 l -0.051,-0.058 -0.066,-0.157 -1.371,0.321 -0.11,0.117 0.274,0.879 0.168,0.226 0.215,0.434 0.117,0.77 v 0.503 l 0.058,0.821 v 0.117 l 0.094,0.098 -0.094,0.113 0.094,0.281 0.063,0.109 v 0.211 l 0.105,-0.211 -0.051,0.27 h 0.051 l 0.172,0.34 -0.055,0.215 h 0.164 v 0.285 0.164 l -0.164,-0.059 h -0.117 l -0.051,-0.047 h -0.211 l -0.058,0.204 -0.063,0.058 h -0.269 l -0.117,-0.156 h -0.215 l -0.11,-0.106 v -0.171 0.054 l -0.273,0.117 -0.488,-0.839 v -0.118 l -0.235,-0.148 -0.332,-0.605 v -0.176 l -0.105,-0.106 -0.172,-0.226 -0.055,-0.723 -0.051,-0.098 v -0.394 l 0.164,0.113 -0.335,-0.324 -0.27,-0.281 -1.383,0.379 -0.117,0.226 0.176,0.664 0.058,0.223 0.547,0.664 0.285,0.492 0.168,0.172 0.043,0.266 0.055,0.164 0.117,0.218 h 0.11 l 0.152,0.563 0.059,0.098 -0.059,0.277 0.059,0.277 0.171,0.278 0.051,0.222 v -0.047 l -0.105,0.157 v 0.109 l 0.054,0.109 -0.054,0.231 v 0.098 h -0.215 v 0.164 l 0.098,0.058 -0.059,0.113 0.113,0.055 h -0.113 v 0.11 l 0.176,0.328 0.054,0.058 0.051,0.168 -0.051,0.106 -0.23,-0.215 v 0.168 h -0.102 l -0.277,0.097 0.059,0.45 0.218,0.117 0.063,0.437 -0.281,0.051 -0.157,-0.051 0.215,0.774 0.262,0.262 0.23,0.402 0.278,0.215 0.379,0.222 0.332,0.383 0.058,0.215 h -0.168 -0.105 l -0.274,0.117 -0.222,0.098 v 0.176 l 0.222,0.281 v 0.207 h -0.285 l -0.109,-0.156 -0.106,0.215 0.215,0.449 -0.215,0.215 0.215,-0.059 v 0.227 l -0.656,-0.11 -0.051,-0.058 -0.289,0.058 -0.094,-0.176 -0.832,0.235 -0.234,0.273 0.234,1.16 0.161,0.09 0.386,0.949 v 0.172 l 0.059,0.215 0.058,-0.058 v 0.168 l -0.058,0.117 0.176,0.117 -0.071,0.254 0.172,0.23 v -0.172 l 0.043,0.063 v 0.109 l -0.535,0.383 -0.332,0.391 -0.059,0.058 -0.058,0.211 -0.059,0.059 -0.039,0.277 -0.117,0.059 v 0.156 0.336 0.211 l 0.117,0.117 h 0.258 v -0.117 l 1.605,-0.762 h 0.164 l 0.219,0.27 0.059,0.117 0.39,0.109 0.047,0.114 0.11,0.152 0.218,0.176 0.059,0.109 h 0.23 l 3.196,-2.102"
         style="fill:#ebbf11;fill-opacity:1;fill-rule:nonzero;stroke:none"
         id="path76" /><path
         d="m 181.926,233.598 0.164,0.109 0.598,0.059 0.332,-0.059 h -0.098 l 1.371,-0.324 1.934,-0.77 1.539,-0.343 0.265,-0.102 h 1.828 0.059 l 0.387,0.102 0.261,0.058 0.454,0.168 0.605,0.176 0.109,0.047 0.051,0.058 0.063,0.051 0.054,0.047 0.375,0.227 0.672,0.378 0.215,0.118 v 0.226 l -0.273,0.047 -0.332,-0.105 -0.164,-0.059 -0.168,-0.109 h -0.829 l -0.097,-0.118 -0.281,-0.058 -0.883,0.117 h -0.043 -0.071 l -0.164,-0.059 -0.496,0.118 -0.879,0.109 -0.336,0.164 -0.382,0.164 -0.227,0.047 -0.273,0.117 -0.059,0.114 -0.32,0.058 -0.442,0.223 -0.277,0.437 1.371,-0.109 0.227,-0.063 0.265,0.063 0.731,0.109 0.152,0.055 0.117,0.121 0.442,0.207 v -0.059 0.059 l 0.222,0.168 0.328,0.164 0.219,0.164 0.285,0.223 0.215,0.219 0.11,0.226 0.168,0.277 -0.278,-0.121 -0.215,0.063 -0.222,-0.172 h -0.282 v -0.105 l -0.105,-0.059 -0.176,-0.051 -0.211,-0.164 h -0.336 -0.324 l -0.172,-0.113 h -0.215 l -0.171,-0.059 h -0.106 l -0.441,0.059 -0.168,0.113 -0.164,0.047 -0.11,0.059 -0.117,-0.059 -0.172,0.059 -0.148,0.058 -0.11,0.051 h -0.175 l -0.047,0.059 -0.555,0.164 -1.055,0.441 -0.101,0.105 h -0.059 l -0.492,0.059 -0.215,0.059 h -0.058 -0.282 -0.164 l -0.105,0.05 -1.059,-0.109 -0.262,-0.117 -0.449,-0.047 -0.215,-0.051 -0.39,-0.113 -0.379,-0.106 -0.172,-0.121 -0.609,-0.156 -0.157,-0.168 -0.507,-0.277 -0.325,-0.27 -0.168,-0.222 3.149,-2.043"
         style="fill:#c85d2c;fill-opacity:1;fill-rule:nonzero;stroke:none"
         id="path78" /><path
         d="m 190.742,215.191 -1.211,0.649 -0.168,-0.043 -0.117,-0.059 -0.332,-0.05 -0.043,-0.176 -0.723,-0.946 0.059,-0.156 v -0.058 l 0.277,-0.215 h 0.161 l 0.332,-0.215 h 0.554 l 1.11,0.215 0.261,0.273 h 0.118 l -0.059,0.606 -0.16,0.058 -0.059,0.117"
         style="fill:#c85d2c;fill-opacity:1;fill-rule:nonzero;stroke:none"
         id="path80" /><path
         d="m 186.492,216.781 -1.199,0.559 -0.348,-0.117 -0.101,-0.215 -0.176,-0.16 -0.375,-0.289 -0.215,-0.274 0.043,-0.34 0.172,-0.148 0.047,-0.168 0.445,-0.164 0.828,0.105 0.664,0.118 0.168,0.375 0.11,0.496 -0.063,0.222"
         style="fill:#c85d2c;fill-opacity:1;fill-rule:nonzero;stroke:none"
         id="path82" /><path
         d="m 213.398,211.441 -0.109,0.047 0.149,1.223 -0.477,1.043 -0.391,0.211 -0.429,0.113 -1.121,0.449 -0.161,0.215 -0.218,0.164 -0.27,0.11 v 0.175 l -0.058,-0.058 -0.219,-0.168 -0.16,-0.399 -0.332,-0.269 -0.176,-0.102 h -0.496 -0.117 l -2.25,0.371 -0.497,0.34 0.043,0.383 0.231,0.059 1.824,-0.157 0.098,0.098 0.234,0.176 -0.058,0.047 -0.059,0.226 c -1.649,0 -3.141,0.879 -4.688,1.43 h -0.496 c -1.64,-0.27 -3.254,-1.105 -4.906,-0.492 l -0.215,0.222 v 0.325 l 0.16,0.164 0.282,0.117 0.332,-0.059 0.648,0.059 0.117,0.098 0.496,0.058 0.168,0.055 0.282,0.113 0.156,0.168 0.113,0.063 0.18,0.05 -0.672,0.059 c -1.113,0 -2.211,-0.281 -3.371,0.605 v 0.157 0.285 h 0.996 l 2.203,0.105 -0.055,0.215 -0.324,0.508 v 0.039 l -0.172,0.059 -1.488,0.234 -0.051,0.051 -0.332,0.105 -0.109,0.332 -0.11,0.227 0.219,0.379 0.278,0.109 0.55,0.379 0.16,0.176 0.176,0.051 0.317,0.175 1.453,-0.058 0.262,0.058 0.222,0.047 0.164,-0.047 -0.101,-0.671 0.984,-0.825 0.652,-0.332 0.336,-0.058 0.825,-0.391 0.289,-0.039 2.589,-0.23 h 0.282 l 0.203,-0.051 0.176,-0.055 0.156,0.055 2.156,-0.383 0.324,-0.164 0.176,-0.059 1.211,-0.89 0.219,-0.27 0.047,-0.168 0.175,-0.113 0.165,-0.211 c 1.601,-0.551 3.078,-0.606 4.57,-0.723 l 1.101,-0.105 0.446,-0.274 0.05,-0.273 -0.433,-0.617 -0.883,-0.438 -0.281,-0.109 -0.278,-0.059 h -0.156 l -0.172,-0.058 h -0.273 l -1.109,0.117 -1.04,0.383 -0.992,0.492 -0.168,0.223 v -0.223 l 1.219,-1.43 0.449,-0.273 v -1.485 l -0.066,-0.664 -0.442,-0.547 -0.117,-0.058 -0.215,0.058"
         style="fill:#211c1d;fill-opacity:1;fill-rule:nonzero;stroke:none"
         id="path84" /><path
         d="m 209.039,216.129 c -1.035,0 -2.031,0.047 -3.082,0.547 l -1.766,0.769 v 0.118 l 2.036,0.265 h 0.277 l 2.211,-0.265 0.324,-0.223 0.207,-0.289 0.399,-0.602 0.066,-0.105 -0.109,-0.215 h -0.563"
         style="fill:#ffffff;fill-opacity:1;fill-rule:nonzero;stroke:none"
         id="path86" /><path
         d="m 159.762,217.504 -0.223,0.383 -0.601,-0.114 h -0.223 v 0.493 l -0.168,0.175 -0.656,-0.234 -0.059,0.332 -0.113,0.117 -0.117,0.215 -0.047,0.059 v 0.054 l -0.825,0.059 -0.769,0.113 0.047,0.321 0.113,0.503 -0.219,0.063 -0.773,0.039 0.113,0.609 -0.113,0.504 v 0.059 l -0.051,0.039 h -0.566 l -0.098,0.059 v 0.058 l 0.449,1.106 -0.449,0.109 0.547,0.719 0.168,0.109 0.383,0.231 -0.051,0.039 0.109,0.336 0.391,0.058 0.223,0.106 0.261,0.113 -0.105,0.273 v 0.231 l -0.117,0.867 0.175,0.227 0.161,0.117 0.55,-0.117 0.274,-0.168 v 0.109 l -0.098,0.176 -0.117,0.32 0.051,0.227 -0.227,0.164 -0.039,0.051 v 0.394 l -0.176,0.215 -0.332,0.543 -0.324,0.285 -0.113,0.055 0.058,0.273 0.055,0.051 0.551,0.176 0.437,-0.176 0.227,-0.324 0.105,0.215 h 0.114 l 0.375,0.058 0.222,-0.105 v -0.11 l -0.164,-0.613 0.34,0.059 0.492,0.117 0.118,0.039 -0.118,0.176 -0.105,0.047 -0.055,0.234 -0.055,0.266 0.274,0.339 0.332,-0.058 0.109,0.117 0.051,0.148 0.168,0.235 0.223,0.156 h 0.16 l 0.449,-0.332 0.055,-0.113 v -0.043 l 0.16,-0.11 h 0.441 l 0.157,-0.222 -0.098,-0.555 v -0.168 h -0.168 l 0.773,-0.059 0.055,0.399 0.156,0.266 0.453,0.117 0.219,-0.176 0.114,0.176 0.164,0.281 0.488,0.094 0.219,0.054 0.218,-0.097 0.071,-0.11 -0.176,-0.449 h -0.16 l -0.332,-0.613 v -0.324 l 0.058,-0.106 v -0.234 l -0.117,-0.207 h -0.16 l -0.109,-0.117 v -0.118 l 0.109,-0.097 -0.168,-0.449 h 0.168 l 0.437,0.117 0.274,-0.223 v -0.156 -0.285 l -0.113,-0.828 0.433,-0.27 h 0.395 l 0.117,0.055 0.164,-0.114 v -0.113 l -0.164,-0.605 0.715,-0.387 v -0.16 l -0.168,-0.281 0.058,-0.157 0.043,0.059 0.067,-0.176 0.269,-0.324 0.047,-0.164 0.117,-0.285 v -0.161 l -0.117,-0.226 -0.316,-0.051 h -0.215 l 0.105,-1.047 -0.828,-0.156 -0.07,-0.125 -0.047,-0.168 v -0.148 l 0.047,-0.286 -0.148,-0.21 h -1.27 l -0.059,-0.176 -0.218,-0.489 v -0.234 l 0.058,-0.215 -0.058,-0.215 h -0.059 -0.266 l -0.722,0.157 -0.117,-0.098 -0.207,-0.395 -0.118,-0.113 h -0.109 l -0.391,0.227 h -0.043 l -0.394,-0.383 h -0.285 -0.043"
         style="fill:#af9166;fill-opacity:1;fill-rule:nonzero;stroke:none"
         id="path88" /><path
         d="m 161.746,217.715 v 0.113 h 0.156 l -0.047,-0.168 -0.109,0.055"
         style="fill:#ebbf11;fill-opacity:1;fill-rule:nonzero;stroke:none"
         id="path90" /><path
         d="m 160.918,218.109 -0.176,0.059 -0.039,0.156 -0.117,0.215 -0.059,0.059 -0.101,-0.274 -0.336,-0.215 h -0.227 l -0.101,0.274 -0.051,0.058 v 0.157 h 0.309 l 0.117,-0.106 0.058,0.164 -0.058,0.215 v 0.172 l 0.234,0.055 h 0.332 l 0.324,-0.055 0.059,0.113 0.266,0.059 0.117,-0.059 -0.117,-0.285 -0.114,-0.547 -0.152,-0.265 -0.168,0.05"
         style="fill:#ebbf11;fill-opacity:1;fill-rule:nonzero;stroke:none"
         id="path92" /><path
         d="m 158.992,218.383 -0.054,0.058 -0.059,0.215 h 0.113 l 0.219,0.059 -0.219,-0.332"
         style="fill:#ebbf11;fill-opacity:1;fill-rule:nonzero;stroke:none"
         id="path94" /><path
         d="m 162.191,218.492 -0.289,0.223 -0.269,0.605 0.445,0.118 0.113,0.21 0.106,0.059 v 0.164 l 0.16,0.063 -0.102,0.316 0.102,0.059 h 0.117 l 0.043,-0.661 -0.16,-0.113 0.117,-0.058 -0.164,-0.215 -0.176,-0.664 v -0.106 h -0.043"
         style="fill:#ebbf11;fill-opacity:1;fill-rule:nonzero;stroke:none"
         id="path96" /><path
         d="m 160.371,218.93 0.113,-0.059 -0.113,0.059"
         style="fill:#ebbf11;fill-opacity:1;fill-rule:nonzero;stroke:none"
         id="path98" /><path
         d="m 157.891,219.32 0.097,0.157 h 0.164 l 0.063,-0.215 -0.324,0.058"
         style="fill:#ebbf11;fill-opacity:1;fill-rule:nonzero;stroke:none"
         id="path100" /><path
         d="m 160.254,219.707 v 0.055 h -0.164 l -0.168,0.051 -0.266,0.167 -0.07,0.161 -0.047,0.234 0.324,0.051 v 0.105 l 0.157,0.215 h 0.175 v -0.098 l 0.176,0.043 0.215,-0.043 h 0.059 l 0.539,-0.175 v -0.164 -0.059 l 0.054,-0.109 v -0.098 l -0.152,-0.172 -0.832,-0.164"
         style="fill:#ebbf11;fill-opacity:1;fill-rule:nonzero;stroke:none"
         id="path102" /><path
         d="m 156.777,219.871 -0.047,0.109 -0.113,0.27 0.219,-0.109 v -0.161 l -0.059,-0.109"
         style="fill:#ebbf11;fill-opacity:1;fill-rule:nonzero;stroke:none"
         id="path104" /><path
         d="m 163.672,219.871 v 0.172 l -0.113,0.039 0.113,0.168 -0.16,-0.059 h -0.332 v 0.118 0.164 l -0.219,0.058 0.105,0.332 0.055,0.168 0.059,0.117 -0.114,-0.058 -0.105,0.379 v 0.219 l 0.219,-0.11 v 0.379 l 0.058,0.344 0.16,0.164 v 0.16 h 0.274 l 0.105,-0.219 0.071,-0.105 h 0.097 l 0.219,0.105 -0.055,0.383 -0.117,0.234 0.172,-0.117 0.16,-0.058 -0.043,-0.16 0.043,-0.282 0.063,-0.551 h 0.117 v -0.105 h 0.164 v -0.172 l 0.051,-0.109 -0.051,-0.176 h 0.117 l -0.168,-0.203 -0.113,0.105 v 0.098 l -0.059,0.059 v -0.157 l 0.172,-0.164 h -0.23 l -0.176,0.223 -0.148,0.215 h -0.215 v 0.219 l -0.071,0.062 -0.105,-0.23 0.058,-0.11 0.118,-0.664 v -0.215 h 0.097 l -0.168,-0.105 0.071,-0.176 0.097,-0.059 -0.097,-0.211 -0.071,-0.109 h -0.105"
         style="fill:#ebbf11;fill-opacity:1;fill-rule:nonzero;stroke:none"
         id="path106" /><path
         d="m 156.953,220.141 h 0.098 -0.098"
         style="fill:#ebbf11;fill-opacity:1;fill-rule:nonzero;stroke:none"
         id="path108" /><path
         d="m 156.777,220.309 -0.047,0.117 -0.058,-0.117 -0.113,0.339 -0.043,0.383 h -0.071 l -0.047,-0.113 0.047,-0.172 -0.144,-0.098 v 0.645 l -0.078,0.336 h -0.262 l 0.105,0.226 0.055,0.051 0.18,0.051 v -0.328 h 0.144 l 0.071,-0.219 -0.071,-0.058 0.114,-0.059 v -0.203 l 0.171,-0.059 0.165,-0.113 v -0.668 l -0.118,0.059"
         style="fill:#ebbf11;fill-opacity:1;fill-rule:nonzero;stroke:none"
         id="path110" /><path
         d="m 163.238,220.648 h -0.058 l 0.058,0.27 h 0.16 v -0.27 h -0.16"
         style="fill:#ebbf11;fill-opacity:1;fill-rule:nonzero;stroke:none"
         id="path112" /><path
         d="m 161.086,220.918 -0.344,0.059 -0.097,0.113 h -0.161 l -0.171,0.164 v 0.215 l 0.273,0.281 h 0.117 l 0.324,0.156 0.118,0.16 -0.059,0.176 v 0.164 l -0.109,0.219 -0.118,-0.324 -1.148,-0.168 v 1.265 0.286 l 0.211,0.375 h 0.504 l 0.375,-0.434 0.058,-0.227 0.059,-0.113 0.059,-0.262 0.207,-0.175 0.168,0.281 0.55,0.496 0.289,0.383 0.266,0.379 0.277,-0.051 v -0.113 -0.442 l 0.118,-0.097 -0.118,-0.661 -0.218,-0.234 h -0.161 l -0.058,0.234 -0.106,0.04 -0.226,-0.157 v -0.117 l 0.058,-0.383 -0.121,-0.937 -0.117,-0.176 -0.039,-0.098 -0.113,-0.277 h -0.547"
         style="fill:#ebbf11;fill-opacity:1;fill-rule:nonzero;stroke:none"
         id="path114" /><path
         d="m 159.27,220.977 h -0.059 l -0.273,0.218 -0.278,0.274 -0.055,0.219 -0.058,0.554 0.058,0.164 v 0.328 l -0.109,-0.046 -0.058,-0.063 h -0.165 l -0.168,0.223 -0.117,0.175 v 0.157 l -0.156,0.105 0.059,0.168 v 0.231 h -0.172 l 0.058,0.375 0.114,0.164 0.214,-0.332 0.11,-0.328 0.058,-0.11 0.165,-0.168 0.058,-0.058 0.383,-0.321 0.391,-0.218 -0.059,-0.672 0.059,-0.161 0.441,-0.226 0.211,-0.051 0.098,-0.226 -0.04,-0.157 -0.117,-0.164 h -0.152 -0.125 -0.215 l -0.101,-0.054"
         style="fill:#ebbf11;fill-opacity:1;fill-rule:nonzero;stroke:none"
         id="path116" /><path
         d="m 156.34,221.195 0.105,-0.047 -0.105,0.047"
         style="fill:#ebbf11;fill-opacity:1;fill-rule:nonzero;stroke:none"
         id="path118" /><path
         d="m 159.109,221.195 -0.066,0.215 0.168,-0.262 z"
         style="fill:#ebbf11;fill-opacity:1;fill-rule:nonzero;stroke:none"
         id="path120" /><path
         d="m 155.57,221.254 -0.109,0.039 v 0.457 l 0.215,0.059 0.168,-0.059 v -0.281 l -0.098,-0.117 h -0.176 v -0.098"
         style="fill:#ebbf11;fill-opacity:1;fill-rule:nonzero;stroke:none"
         id="path122" /><path
         d="m 155.57,221.906 0.106,0.16 0.07,0.235 0.043,-0.235 -0.043,-0.05 -0.07,-0.11 h -0.106"
         style="fill:#ebbf11;fill-opacity:1;fill-rule:nonzero;stroke:none"
         id="path124" /><path
         d="m 164.109,221.957 0.102,-0.051 -0.102,0.051"
         style="fill:#ebbf11;fill-opacity:1;fill-rule:nonzero;stroke:none"
         id="path126" /><path
         d="m 155.242,222.301 v 0.215 l 0.219,-0.051 -0.109,-0.164 h -0.11"
         style="fill:#ebbf11;fill-opacity:1;fill-rule:nonzero;stroke:none"
         id="path128" /><path
         d="m 164.785,222.406 -0.117,0.059 -0.051,0.16 v 0.164 l 0.278,-0.101 0.109,-0.172 -0.219,-0.11"
         style="fill:#ebbf11;fill-opacity:1;fill-rule:nonzero;stroke:none"
         id="path130" /><path
         d="m 159.32,222.734 v 0.114 -0.114"
         style="fill:#ebbf11;fill-opacity:1;fill-rule:nonzero;stroke:none"
         id="path132" /><path
         d="m 158.879,223.625 -0.059,0.059 -0.105,0.097 0.105,0.168 0.289,-0.058 -0.117,-0.328 -0.113,0.062"
         style="fill:#ebbf11;fill-opacity:1;fill-rule:nonzero;stroke:none"
         id="path134" /><path
         d="m 161.293,223.781 0.176,0.168 -0.176,-0.168"
         style="fill:#ebbf11;fill-opacity:1;fill-rule:nonzero;stroke:none"
         id="path136" /><path
         d="m 159.32,224.336 -1.105,0.273 -0.285,0.172 v 0.379 l 0.222,0.5 v 0.106 l 0.227,0.285 0.226,0.047 0.438,0.273 1.211,0.172 1.824,-0.172 0.113,-0.223 v -0.156 l 0.043,-0.117 -0.269,0.059 0.226,-0.168 0.043,-0.106 0.121,-0.117 V 225.5 l -0.058,-0.457 0.16,-0.262 -0.223,-0.172 -0.156,-0.113 -0.387,-0.058 h -0.164 l -0.343,-0.102 -0.758,0.102 -0.231,0.058 v 0.547 l 0.231,0.395 v 0.105 l -0.113,-0.105 -0.223,0.105 -0.168,0.047 -0.266,-0.047 -0.07,-0.105 0.277,-0.219 0.059,-0.723 -0.117,-0.16 h -0.485"
         style="fill:#ebbf11;fill-opacity:1;fill-rule:nonzero;stroke:none"
         id="path138" /><path
         d="m 157.051,224.984 -0.098,0.454 -0.117,0.222 0.5,-0.16 -0.285,-0.516"
         style="fill:#ebbf11;fill-opacity:1;fill-rule:nonzero;stroke:none"
         id="path140" /><path
         d="m 162.078,225.766 -0.176,0.058 0.289,-0.117 z"
         style="fill:#ebbf11;fill-opacity:1;fill-rule:nonzero;stroke:none"
         id="path142" /><path
         d="m 162.793,225.824 v 0.11 l 0.059,-0.168 z"
         style="fill:#ebbf11;fill-opacity:1;fill-rule:nonzero;stroke:none"
         id="path144" /><path
         d="m 157.555,226.43 v 0.168 l -0.055,0.058 v 0.106 l 0.055,0.168 0.277,-0.215 0.215,-0.172 0.105,0.055 0.063,0.058 0.113,0.157 -0.176,0.164 -0.222,-0.047 0.285,0.222 0.723,0.114 0.171,0.097 0.379,0.114 0.274,0.058 h 0.258 0.175 0.508 l 0.766,-0.058 v -0.114 l 0.109,0.059 0.168,-0.156 0.156,-0.504 h -0.55 -0.266 c -1.066,0 -2.094,-0.106 -3.098,-0.332 h -0.269 -0.164"
         style="fill:#ebbf11;fill-opacity:1;fill-rule:nonzero;stroke:none"
         id="path146" /><path
         d="m 162.355,226.762 v 0.332 h 0.219 l 0.043,-0.281 -0.262,-0.051"
         style="fill:#ebbf11;fill-opacity:1;fill-rule:nonzero;stroke:none"
         id="path148" /><path
         d="m 159.922,226.859 -0.16,0.071 -0.106,0.336 h 0.539 l 0.118,-0.114 -0.118,-0.222 -0.273,-0.071"
         style="fill:#ebbf11;fill-opacity:1;fill-rule:nonzero;stroke:none"
         id="path150" /><path
         d="m 157.168,227.266 -0.117,0.211 -0.059,0.39 0.293,-0.117 v -0.168 l 0.215,-0.047 0.055,-0.172 v 0.172 l 0.277,-0.172 -0.664,-0.097"
         style="fill:#ebbf11;fill-opacity:1;fill-rule:nonzero;stroke:none"
         id="path152" /><path
         d="m 158.992,227.582 0.219,0.227 0.375,-0.059 -0.316,-0.109 -0.278,-0.059"
         style="fill:#ebbf11;fill-opacity:1;fill-rule:nonzero;stroke:none"
         id="path154" /><path
         d="m 162.355,227.582 -0.121,0.059 0.121,0.168 v 0.117 l -0.058,0.156 -0.063,0.168 h -0.156 l 0.055,0.172 h 0.164 l 0.219,-0.172 0.058,-0.109 0.219,-0.059 0.273,0.223 -0.105,-0.438 -0.227,-0.285 h -0.379"
         style="fill:#ebbf11;fill-opacity:1;fill-rule:nonzero;stroke:none"
         id="path156" /><path
         d="m 159.805,227.809 v 0.058 l 0.058,-0.117 z"
         style="fill:#ebbf11;fill-opacity:1;fill-rule:nonzero;stroke:none"
         id="path158" /><path
         d="m 160.09,227.809 v 0.058 l 0.336,0.059 z"
         style="fill:#ebbf11;fill-opacity:1;fill-rule:nonzero;stroke:none"
         id="path160" /><path
         d="m 160.527,227.809 0.176,0.117 -0.058,-0.117 z"
         style="fill:#ebbf11;fill-opacity:1;fill-rule:nonzero;stroke:none"
         id="path162" /><path
         d="m 159.32,228.188 v 0.062 l -0.328,0.172 -0.113,0.266 0.273,0.046 0.219,-0.156 0.059,-0.058 0.281,0.058 -0.055,-0.215 -0.336,-0.175"
         style="fill:#ebbf11;fill-opacity:1;fill-rule:nonzero;stroke:none"
         id="path164" /><path
         d="m 156.617,228.305 v 0.117 -0.117"
         style="fill:#ebbf11;fill-opacity:1;fill-rule:nonzero;stroke:none"
         id="path166" /><path
         d="m 160.09,228.422 -0.227,0.207 h -0.101 l -0.106,0.281 v 0.176 l 0.149,0.148 0.215,-0.054 0.07,-0.375 0.336,-0.117 h 0.375 v -0.168 l -0.606,-0.157 -0.105,0.059"
         style="fill:#ebbf11;fill-opacity:1;fill-rule:nonzero;stroke:none"
         id="path168" /><path
         d="m 153.535,228.969 -0.437,0.324 h -0.176 l -0.442,-0.113 v 0.609 l -0.164,0.168 -0.496,-0.437 -0.492,-0.051 v 0.215 l -0.117,0.332 -0.043,0.16 -0.172,0.117 -0.058,0.211 h -0.11 -0.445 -0.547 l -0.273,0.059 v 0.234 l 0.382,0.43 0.051,0.488 h -0.16 l -0.832,-0.051 -0.156,0.051 0.043,0.281 0.113,0.383 h -0.215 -0.332 l -0.219,0.117 0.278,0.715 0.433,0.824 h -0.492 l 0.547,1.051 0.176,0.121 -0.176,0.207 v 0.227 l 0.715,0.047 -0.274,1.386 0.274,0.383 h 0.117 0.16 l 0.563,-0.332 -0.176,0.164 0.058,0.383 -0.058,0.223 -0.328,0.113 -0.059,0.113 -0.051,0.262 0.051,0.226 -0.16,0.231 -0.441,0.609 -0.165,0.094 -0.05,0.453 0.539,0.215 0.508,-0.273 0.156,-0.172 v -0.106 l 0.555,0.106 0.332,-0.164 0.058,-0.329 -0.058,-0.332 0.664,0.106 -0.059,0.226 -0.055,0.176 0.114,0.43 0.058,0.059 h 0.102 0.445 v 0.378 l 0.051,0.172 0.101,0.114 0.336,0.273 0.071,0.105 h 0.215 l 0.492,-0.492 0.117,-0.277 h 0.043 l 0.508,-0.168 -0.059,-0.77 0.879,-0.109 -0.273,0.285 -0.059,0.375 0.227,0.387 h 0.488 l 0.285,-0.168 0.047,0.168 0.332,0.449 h 0.496 l 0.215,-0.058 v -0.286 l -0.711,-1.093 0.105,-0.282 0.114,-0.101 v -0.113 l -0.161,-0.286 h 0.047 v -0.203 h -0.144 v 0.145 l -0.18,-0.059 0.063,-0.086 0.117,-0.285 -0.235,-0.226 h 0.551 l 0.055,-0.055 0.105,0.055 0.332,-0.211 0.11,-0.344 -0.227,-0.879 v -0.16 l 0.117,-0.059 h 0.227 0.711 l 0.391,-0.164 0.058,-0.269 -0.168,-0.168 0.168,-0.059 0.219,-0.176 0.105,-0.093 0.332,-0.286 -0.16,-0.265 -0.277,-0.176 -0.11,-0.105 0.055,-0.055 0.16,-0.223 0.059,-0.164 0.113,-0.215 0.117,-0.554 -0.117,-0.227 -0.664,0.051 -0.055,-0.207 v -0.34 l 0.106,-0.266 -0.106,-0.34 -0.058,-0.058 -0.496,0.226 -0.117,-0.05 -0.161,-0.61 0.114,-0.718 -0.055,-0.059 -1.102,0.293 -0.554,-1.172 -0.168,-0.051 -0.598,0.324 -0.058,-0.058 -0.059,-0.703 -0.828,0.156 -0.168,-0.113 -0.16,-0.27 h -0.219 l -0.051,0.059"
         style="fill:#af9166;fill-opacity:1;fill-rule:nonzero;stroke:none"
         id="path170" /><path
         d="m 153.586,229.352 -0.051,0.117 -0.051,0.051 0.051,0.164 h 0.051 v 0.214 h 0.277 l 0.102,0.118 0.117,0.218 h 0.332 l 0.098,0.114 0.351,0.215 h 0.098 v -0.27 l -0.215,-0.504 -0.058,-0.215 h -0.497 l -0.226,-0.054 -0.102,-0.168 h -0.277"
         style="fill:#ebbf11;fill-opacity:1;fill-rule:nonzero;stroke:none"
         id="path172" /><path
         d="m 165.715,229.469 h -0.063 l -0.265,0.156 -0.383,-0.051 -0.109,0.11 v 0.214 l -0.508,-0.109 h -0.106 l -0.336,0.051 -0.058,0.281 -0.375,0.5 -0.172,0.281 v 0.059 h -0.16 l -1.102,-0.059 -0.332,0.09 v 0.117 0.059 l 0.219,0.391 0.113,0.496 h -0.894 l 0.054,0.82 -0.711,0.172 v 0.277 h 0.118 l 0.441,0.711 -0.441,0.223 v 0.336 l 0.707,0.937 v 0.157 0.222 l 1.105,0.106 -0.223,0.277 -0.043,0.168 -0.058,0.711 0.277,0.5 h 0.207 l 0.449,-0.215 v 0.059 l -0.105,0.117 -0.051,0.262 0.156,0.343 -0.105,0.086 -0.344,0.235 -0.043,0.226 0.114,0.262 -0.786,0.832 -0.117,0.164 -0.039,0.07 v 0.098 l 0.156,0.277 0.289,0.114 0.543,-0.168 0.227,-0.282 0.277,0.164 0.219,0.059 0.215,-0.164 0.105,-0.168 0.071,-0.5 v -0.094 l 0.097,-0.117 0.164,0.059 0.559,0.058 -0.344,0.317 -0.043,0.172 -0.07,0.105 0.293,0.332 h 0.391 l 0.109,0.285 0.148,0.274 0.176,0.156 v 0.176 l 0.16,0.039 h 0.164 l 0.559,-0.59 v -0.055 -0.058 l 0.449,-0.059 0.149,-0.168 v -0.656 l -0.11,-0.176 0.781,-0.035 -0.171,0.211 -0.059,0.047 v 0.23 l -0.055,0.047 0.168,0.332 h 0.059 l 0.543,0.059 0.289,0.054 0.105,0.274 0.11,0.113 0.394,0.105 h 0.215 l 0.387,-0.218 v -0.274 l -0.602,-0.722 -0.23,-0.434 0.058,-0.109 0.172,-0.118 v -0.164 l -0.113,-0.214 -0.234,-0.118 h -0.047 l -0.063,-0.109 0.227,-0.117 -0.059,-0.317 0.289,0.258 h 0.332 l 0.219,-0.086 0.051,-0.343 0.105,-0.547 h 0.118 v -0.176 l -0.223,-0.375 0.047,-0.113 0.609,-0.164 0.059,-0.332 -0.11,-0.227 0.223,-0.051 0.816,-0.555 v -0.148 l -0.214,-0.348 h -0.051 l -0.059,-0.168 0.707,-0.984 v -0.168 l -0.105,-0.156 -0.828,0.097 0.336,-1.152 0.058,-0.058 -0.109,-0.274 -0.883,0.172 v -0.172 l -0.059,-0.391 0.059,-0.097 0.109,-0.067 -0.109,-0.214 -1.156,-0.118 -0.172,-0.265 -0.332,-1.16 -0.992,0.156 -0.215,-0.051 -0.117,-0.105 -0.102,-0.215 -0.504,0.156 -0.16,0.059 -0.219,-0.274 -0.277,0.059"
         style="fill:#af9166;fill-opacity:1;fill-rule:nonzero;stroke:none"
         id="path174" /><path
         d="m 152.805,229.52 0.054,0.164 -0.054,-0.164"
         style="fill:#ebbf11;fill-opacity:1;fill-rule:nonzero;stroke:none"
         id="path176" /><path
         d="m 151.715,229.84 v 0.058 l -0.231,0.395 -0.097,0.211 -0.117,-0.051 v 0.11 l -0.059,0.339 0.273,-0.058 0.336,-0.391 -0.047,-0.437 0.047,-0.227 -0.105,0.051"
         style="fill:#ebbf11;fill-opacity:1;fill-rule:nonzero;stroke:none"
         id="path178" /><path
         d="m 165.652,229.898 -0.164,0.395 0.504,-0.277 -0.172,-0.118 h -0.168"
         style="fill:#ebbf11;fill-opacity:1;fill-rule:nonzero;stroke:none"
         id="path180" /><path
         d="m 166.699,230.016 -0.215,0.16 -0.058,0.172 0.168,0.043 0.105,-0.098 0.219,0.211 0.059,-0.328 -0.219,-0.219 -0.059,0.059"
         style="fill:#ebbf11;fill-opacity:1;fill-rule:nonzero;stroke:none"
         id="path182" /><path
         d="m 155.621,230.121 -0.051,0.055 -0.16,0.726 0.16,0.493 0.106,0.21 0.39,0.11 0.055,-0.156 -0.055,-0.45 -0.058,-0.207 -0.047,-0.339 -0.285,-0.442 h -0.055"
         style="fill:#ebbf11;fill-opacity:1;fill-rule:nonzero;stroke:none"
         id="path184" /><path
         d="m 168.082,230.293 v 0.211 h -0.34 l -0.094,0.117 -0.058,0.488 0.223,0.286 0.222,0.21 0.16,0.227 0.164,0.109 h 0.215 l -0.058,-0.109 v -0.117 l -0.11,-0.434 -0.047,-0.484 -0.105,-0.293 -0.172,-0.211"
         style="fill:#ebbf11;fill-opacity:1;fill-rule:nonzero;stroke:none"
         id="path186" /><path
         d="m 164.063,230.504 -0.551,0.723 -0.114,0.378 0.161,0.11 0.218,-0.11 0.071,-0.046 0.215,-0.164 0.148,-0.493 -0.102,-0.105 0.102,-0.344 -0.148,0.051"
         style="fill:#ebbf11;fill-opacity:1;fill-rule:nonzero;stroke:none"
         id="path188" /><path
         d="m 166.211,230.504 0.117,-0.051 -0.117,0.051"
         style="fill:#ebbf11;fill-opacity:1;fill-rule:nonzero;stroke:none"
         id="path190" /><path
         d="m 157.109,230.961 -0.332,0.207 v 0.113 l -0.105,0.227 -0.332,0.433 v 0.055 0.332 l -0.039,0.168 h 0.097 l 0.161,0.379 0.058,0.051 0.055,0.613 0.437,1.094 0.176,0.117 v 0.055 l -0.066,0.281 0.164,-0.055 0.117,0.055 -0.059,0.121 -0.105,0.148 0.105,0.118 h 0.059 l 0.332,-0.176 0.32,-0.09 0.227,-0.121 -0.164,-0.109 h -0.227 -0.269 v -0.383 l 0.172,-0.176 0.547,-0.277 0.277,-0.375 v -0.059 l 0.105,-0.383 -0.324,0.156 -0.117,0.176 -0.391,0.332 v -0.117 l 0.117,-0.601 0.11,-0.114 -0.11,-0.484 0.11,-0.676 -0.11,0.215 -0.386,0.402 v 0.059 l -0.219,0.254 -0.215,0.23 -0.176,0.114 v -0.395 l 0.059,-0.098 v -0.222 l 0.215,-0.559 v -0.281 l -0.098,-0.11 v -0.164 -0.16 l -0.117,-0.172 -0.059,-0.148"
         style="fill:#ebbf11;fill-opacity:1;fill-rule:nonzero;stroke:none"
         id="path192" /><path
         d="m 153.805,231.109 -0.387,0.059 h -0.32 v 0.168 l 0.039,0.223 0.281,0.156 0.117,0.226 0.27,0.055 0.058,-0.164 h 0.102 v 0.109 l 0.449,-0.109 v -0.168 h 0.098 l 0.058,-0.223 h -0.156 l -0.059,-0.332 -0.39,0.059 -0.16,-0.059"
         style="fill:#ebbf11;fill-opacity:1;fill-rule:nonzero;stroke:none"
         id="path194" /><path
         d="m 150.27,231.168 h -0.043 l 0.043,0.391 v 0.214 l -0.215,0.282 -0.11,0.441 -0.058,0.223 0.109,0.058 v 0.27 l 0.176,-0.375 0.148,-0.234 0.063,-0.547 0.058,-0.176 0.118,-0.274 -0.176,-0.16 -0.113,-0.113"
         style="fill:#ebbf11;fill-opacity:1;fill-rule:nonzero;stroke:none"
         id="path196" /><path
         d="m 162.133,231.168 v 0.113 l 0.222,0.055 z"
         style="fill:#ebbf11;fill-opacity:1;fill-rule:nonzero;stroke:none"
         id="path198" /><path
         d="m 166.094,231.281 -0.606,0.551 -0.043,0.379 0.153,0.117 0.394,0.168 0.883,-0.226 0.277,-0.157 0.043,-0.172 h -0.218 l -0.059,-0.226 v -0.156 l -0.219,-0.051 -0.105,-0.067 h -0.168 l -0.098,-0.16 h -0.234"
         style="fill:#ebbf11;fill-opacity:1;fill-rule:nonzero;stroke:none"
         id="path200" /><path
         d="m 162.355,231.441 -0.058,0.274 v 0.34 l -0.063,0.113 -0.043,0.211 -0.058,0.234 0.383,0.059 -0.059,0.156 v 0.219 l 0.16,-0.492 0.176,-0.285 -0.059,-0.274 v -0.281 -0.156 l -0.277,-0.164 -0.102,0.046"
         style="fill:#ebbf11;fill-opacity:1;fill-rule:nonzero;stroke:none"
         id="path202" /><path
         d="m 169.414,231.559 -0.059,0.046 -0.16,0.059 -0.07,0.227 -0.164,0.105 v 0.117 l -0.055,0.442 0.055,0.117 v 0.047 0.207 0.285 l -0.055,0.328 v 0.227 l 0.172,0.164 v 0.105 l 0.164,0.336 0.113,-0.058 0.059,0.546 0.274,-0.109 0.042,-0.059 0.055,-0.058 -0.055,0.117 -0.042,0.281 0.773,-0.226 0.164,-0.211 0.383,-0.453 v -0.27 l -0.383,0.211 -0.164,0.231 h -0.059 -0.281 v -0.278 l 0.172,-0.164 0.051,-0.105 v -0.227 l 0.058,-0.215 v -0.054 l 0.157,-0.832 -0.098,0.117 -0.34,0.492 -0.16,0.223 v 0.054 h -0.176 l -0.055,-0.168 v -0.437 l 0.114,-0.281 -0.114,-0.606 -0.16,-0.324 -0.156,0.051"
         style="fill:#ebbf11;fill-opacity:1;fill-rule:nonzero;stroke:none"
         id="path204" /><path
         d="m 152.98,232.211 -0.222,0.059 -0.102,0.058 -0.066,0.227 -0.168,0.273 0.058,0.219 -0.109,0.164 -0.055,0.172 -0.164,0.383 v 0.058 l -0.218,0.106 h -0.274 l -0.234,-0.059 v 0.164 h -0.156 l 0.117,0.278 v 0.222 h -0.176 l -0.102,0.156 v 0.168 l -0.23,0.063 0.059,0.433 0.171,0.45 0.551,-0.719 0.711,-0.773 0.168,-0.172 0.152,0.172 h 0.168 l -0.101,-0.172 -0.102,-0.375 0.035,-0.227 v -0.117 l 0.067,-0.039 0.34,-0.113 0.269,-0.168 0.051,-0.055 -0.051,-0.375 h -0.113 v -0.176 h 0.113 v -0.168 l -0.387,-0.117"
         style="fill:#ebbf11;fill-opacity:1;fill-rule:nonzero;stroke:none"
         id="path206" /><path
         d="m 154.473,232.27 -0.668,0.226 -0.059,0.43 0.219,0.285 0.39,0.113 0.157,0.332 v 0.168 l -0.039,0.211 -0.118,-0.105 -0.117,-0.164 h -1.316 l -0.063,0.105 0.239,0.387 0.039,0.055 0.176,0.281 0.105,0.383 -0.105,0.109 0.054,0.121 0.051,0.148 0.168,0.059 0.547,-0.059 0.222,-0.324 0.059,-0.109 0.059,-0.504 0.156,-0.105 h 0.176 l 0.656,0.773 0.051,0.211 0.234,0.285 0.262,-0.109 h 0.293 l 0.039,-0.235 h -0.117 v -0.031 -0.23 l 0.078,-0.172 -0.18,-0.055 v -0.156 l -0.16,-0.453 0.047,-0.106 0.058,-0.105 h -0.105 l -0.34,0.211 -0.211,0.058 v -0.164 l -0.168,-0.047 v -0.222 -0.344 -0.266 h 0.168 l 0.051,-0.281 -0.219,0.051 -0.164,-0.598 -0.215,-0.058 h -0.175 -0.215"
         style="fill:#ebbf11;fill-opacity:1;fill-rule:nonzero;stroke:none"
         id="path208" /><path
         d="m 149.336,232.379 v 0.117 h 0.109 v 0.223 l -0.16,0.109 v 0.328 l -0.176,0.114 0.071,0.269 v 0.227 h 0.156 l 0.109,-0.11 v -0.176 l 0.118,-0.097 0.156,0.039 v -0.375 l 0.117,-0.328 -0.168,-0.047 -0.164,-0.293 h -0.168"
         style="fill:#ebbf11;fill-opacity:1;fill-rule:nonzero;stroke:none"
         id="path210" /><path
         d="m 162.297,232.496 0.113,-0.058 -0.113,0.058"
         style="fill:#ebbf11;fill-opacity:1;fill-rule:nonzero;stroke:none"
         id="path212" /><path
         d="m 165.109,232.613 -0.105,0.164 0.105,0.493 -0.324,0.152 v 0.234 l -0.168,-0.117 h -0.23 v 0.168 l -0.063,0.164 0.121,0.164 0.059,0.223 -0.059,0.16 -0.234,-0.16 -0.324,-0.117 0.058,0.23 -0.273,0.223 v 0.156 l -0.16,0.227 -0.055,0.23 -0.117,0.09 v 0.176 l 0.172,0.168 0.047,0.269 -0.047,0.106 0.336,-0.211 0.039,-0.391 0.176,-0.059 v -0.148 l 0.554,-0.516 0.278,-0.097 v -0.117 h 0.156 l -0.047,-0.653 v -0.168 l 0.215,-0.234 0.379,-0.098 0.175,-0.054 -0.058,-0.223 0.058,-0.27 -0.664,-0.164"
         style="fill:#fabc42;fill-opacity:1;fill-rule:nonzero;stroke:none"
         id="path214" /><path
         d="m 165.219,232.719 h -0.11 l 0.219,0.058 z"
         style="fill:#ebbf11;fill-opacity:1;fill-rule:nonzero;stroke:none"
         id="path216" /><path
         d="m 166.918,232.719 -0.258,0.109 -0.066,0.098 -0.051,-0.098 -0.059,-0.051 -0.39,0.149 v 0.285 l 0.176,0.172 h 0.058 l 0.332,0.097 0.215,0.176 0.043,0.051 v 0.281 l -0.258,0.383 -0.117,-0.441 h -0.117 l -0.434,-0.059 h -0.172 l -0.601,0.059 0.051,0.328 -0.118,0.113 -0.043,0.106 0.219,0.382 0.16,0.614 0.11,0.215 0.394,0.117 0.379,-0.059 0.438,-0.601 v -0.059 l 0.168,-0.492 0.273,0.211 0.113,0.054 0.117,0.348 0.333,0.266 0.046,0.332 0.278,0.269 0.332,0.172 0.164,-0.113 v -0.172 l -0.117,-0.984 0.058,-0.118 v -0.226 l -0.168,-0.262 -0.105,-0.113 -0.379,0.219 -0.109,0.117 h -0.223 l 0.113,-0.223 0.039,-0.23 -0.152,-0.317 0.058,-0.117 0.094,-0.324 -0.094,-0.227 -0.121,-0.054 -0.047,-0.118 -0.117,-0.156 -0.269,-0.051 -0.176,-0.058"
         style="fill:#ebbf11;fill-opacity:1;fill-rule:nonzero;stroke:none"
         id="path218" /><path
         d="m 161.527,232.777 -0.058,0.149 v 0.058 l 0.164,0.555 0.113,0.391 -0.055,0.152 -0.281,-0.316 h -0.117 l 0.453,0.547 h 0.109 l 0.223,-0.231 0.055,-0.047 -0.055,-0.328 0.113,-0.437 h -0.289 l -0.117,-0.168 -0.152,-0.383 -0.106,0.058"
         style="fill:#ebbf11;fill-opacity:1;fill-rule:nonzero;stroke:none"
         id="path220" /><path
         d="m 168.633,232.777 v 0.098 -0.098"
         style="fill:#ebbf11;fill-opacity:1;fill-rule:nonzero;stroke:none"
         id="path222" /><path
         d="m 155.352,233.211 v 0.211 l 0.16,-0.266 z"
         style="fill:#ebbf11;fill-opacity:1;fill-rule:nonzero;stroke:none"
         id="path224" /><path
         d="m 162.41,233.324 0.106,-0.054 -0.106,0.054"
         style="fill:#ebbf11;fill-opacity:1;fill-rule:nonzero;stroke:none"
         id="path226" /><path
         d="m 168.516,233.324 0.117,0.156 -0.117,-0.156"
         style="fill:#ebbf11;fill-opacity:1;fill-rule:nonzero;stroke:none"
         id="path228" /><path
         d="m 169.297,233.539 0.117,-0.059 -0.117,0.059"
         style="fill:#ebbf11;fill-opacity:1;fill-rule:nonzero;stroke:none"
         id="path230" /><path
         d="m 153.098,233.871 -0.071,0.164 0.11,-0.164 z"
         style="fill:#ebbf11;fill-opacity:1;fill-rule:nonzero;stroke:none"
         id="path232" /><path
         d="m 169.297,233.871 0.058,0.27 0.059,-0.27 z"
         style="fill:#ebbf11;fill-opacity:1;fill-rule:nonzero;stroke:none"
         id="path234" /><path
         d="m 157.5,234.313 -0.117,0.105 v 0.176 h 0.289 l 0.047,-0.281 H 157.5"
         style="fill:#ebbf11;fill-opacity:1;fill-rule:nonzero;stroke:none"
         id="path236" /><path
         d="m 168.359,234.75 -0.058,0.109 0.168,-0.168 z"
         style="fill:#ebbf11;fill-opacity:1;fill-rule:nonzero;stroke:none"
         id="path238" /><path
         d="m 161.184,234.75 -0.039,0.055 0.093,0.172 h 0.114 l -0.168,-0.227"
         style="fill:#ebbf11;fill-opacity:1;fill-rule:nonzero;stroke:none"
         id="path240" /><path
         d="m 153.098,234.977 0.097,0.32 -0.097,-0.32"
         style="fill:#ebbf11;fill-opacity:1;fill-rule:nonzero;stroke:none"
         id="path242" /><path
         d="m 152.316,235.031 -0.109,0.176 0.059,0.09 0.273,-0.059 -0.223,-0.207"
         style="fill:#ebbf11;fill-opacity:1;fill-rule:nonzero;stroke:none"
         id="path244" /><path
         d="m 154.746,235.145 -0.058,0.152 0.058,0.117 0.215,-0.059 -0.215,-0.21"
         style="fill:#ebbf11;fill-opacity:1;fill-rule:nonzero;stroke:none"
         id="path246" /><path
         d="m 151.109,235.238 0.102,-0.031 -0.102,0.031"
         style="fill:#ebbf11;fill-opacity:1;fill-rule:nonzero;stroke:none"
         id="path248" /><path
         d="m 164.504,235.238 v 0.059 l -0.059,0.176 0.059,0.215 0.164,-0.047 -0.164,-0.403"
         style="fill:#ebbf11;fill-opacity:1;fill-rule:nonzero;stroke:none"
         id="path250" /><path
         d="m 167.027,235.473 -0.05,0.215 h 0.273 z"
         style="fill:#ebbf11;fill-opacity:1;fill-rule:nonzero;stroke:none"
         id="path252" /><path
         d="m 169.57,235.641 v 0.047 l -0.156,0.175 0.316,-0.058 -0.16,-0.164"
         style="fill:#ebbf11;fill-opacity:1;fill-rule:nonzero;stroke:none"
         id="path254" /><path
         d="m 152.371,235.688 -0.551,0.222 -0.652,0.164 0.043,0.723 v 0.058 l 0.059,0.317 0.156,0.176 0.176,0.109 0.218,0.059 0.332,0.047 0.164,0.164 h 0.106 l 0.676,0.117 h 0.156 v -0.117 l 0.059,-0.055 0.054,-0.039 h 0.168 0.43 l 1.277,-0.344 0.168,-0.215 0.102,-0.113 0.058,-0.106 0.274,-0.335 0.058,-0.274 -0.113,-0.172 h -0.168 l -0.379,-0.164 v 0.106 -0.055 l -1.277,-0.051 -0.266,0.164 -0.07,0.387 0.176,0.336 v 0.117 l -0.492,0.106 -0.118,-0.336 0.172,-0.164 0.051,-0.387 v -0.117 l -0.996,-0.375 -0.051,0.047"
         style="fill:#ebbf11;fill-opacity:1;fill-rule:nonzero;stroke:none"
         id="path256" /><path
         d="m 164.941,236.074 -1.211,0.336 v 0.051 l -0.117,0.336 -0.101,0.164 0.101,0.269 0.164,0.227 h 0.11 l 0.058,0.059 v 0.211 h 0.442 l 0.281,0.281 h 0.117 l 0.602,-0.055 0.211,0.113 0.336,0.114 0.16,-0.059 0.605,-0.168 1.043,-0.058 0.293,-0.262 h -0.176 l 0.063,-0.176 0.215,-0.227 -0.055,-0.105 0.055,-0.051 0.222,-0.16 v -0.394 l -1.207,-0.446 -0.941,0.114 -0.176,0.105 -0.043,0.332 0.102,0.449 0.234,0.215 0.098,0.059 v 0.109 h -0.332 -0.496 -0.211 l 0.211,-0.168 0.175,-0.269 v -0.727 l -0.175,-0.047 -0.594,-0.172 h -0.063"
         style="fill:#ebbf11;fill-opacity:1;fill-rule:nonzero;stroke:none"
         id="path258" /><path
         d="m 156.73,236.293 v 0.504 l 0.165,0.433 0.097,-0.21 v -0.223 l -0.215,-0.504 h -0.047"
         style="fill:#ebbf11;fill-opacity:1;fill-rule:nonzero;stroke:none"
         id="path260" /><path
         d="m 150.227,236.797 0.093,-0.063 -0.093,0.063"
         style="fill:#ebbf11;fill-opacity:1;fill-rule:nonzero;stroke:none"
         id="path262" /><path
         d="m 156.066,236.797 -0.222,0.492 h 0.222 l 0.379,0.109 -0.261,-0.437 -0.118,-0.164"
         style="fill:#ebbf11;fill-opacity:1;fill-rule:nonzero;stroke:none"
         id="path264" /><path
         d="m 162.961,236.914 -0.109,0.258 0.168,-0.258 z"
         style="fill:#ebbf11;fill-opacity:1;fill-rule:nonzero;stroke:none"
         id="path266" /><path
         d="m 168.516,237.348 -0.047,0.05 v 0.059 l 0.105,0.176 0.176,-0.117 -0.234,-0.168"
         style="fill:#ebbf11;fill-opacity:1;fill-rule:nonzero;stroke:none"
         id="path268" /><path
         d="m 169.242,237.398 0.113,0.059 -0.113,-0.059"
         style="fill:#ebbf11;fill-opacity:1;fill-rule:nonzero;stroke:none"
         id="path270" /><path
         d="m 150.773,237.633 -0.109,0.262 0.051,0.285 0.223,0.058 0.23,-0.23 0.219,-0.113 h 0.097 l 0.059,0.113 -0.117,0.269 0.566,0.332 0.988,0.176 0.047,-0.285 0.11,-0.176 0.398,-0.047 0.094,0.047 v 0.285 h -0.211 l -0.105,0.176 0.273,-0.058 h 0.336 0.269 l 0.164,-0.118 0.887,-0.05 v -0.118 l -0.113,-0.058 0.113,-0.145 -0.496,-0.058 h -0.273 l -0.176,0.097 -0.164,-0.039 -2.039,-0.285 h -0.274 l -0.16,-0.058 -0.609,-0.223 -0.278,-0.039"
         style="fill:#ebbf11;fill-opacity:1;fill-rule:nonzero;stroke:none"
         id="path272" /><path
         d="m 163.34,237.953 h -0.102 v 0.227 h 0.219 l 0.055,0.058 h 0.218 l 0.118,0.262 -0.118,0.109 0.157,0.118 0.176,0.113 0.605,0.101 0.168,0.106 0.105,0.058 0.879,0.059 h 0.215 0.176 l 0.16,-0.164 0.172,-0.059 h 0.551 l 0.269,-0.156 0.059,-0.226 V 238.5 l 0.168,-0.059 h 0.058 l 0.274,0.118 0.043,0.109 0.289,0.059 v -0.45 l -0.219,0.047 h -0.07 l -0.223,-0.047 -0.262,0.047 -0.722,0.117 -0.938,-0.117 h -0.332 -0.218 l -1.598,-0.258 -0.113,-0.113 h -0.219"
         style="fill:#ebbf11;fill-opacity:1;fill-rule:nonzero;stroke:none"
         id="path274" /><path
         d="m 155.676,238.066 v 0.114 h 0.285 l -0.059,-0.114 h -0.226"
         style="fill:#ebbf11;fill-opacity:1;fill-rule:nonzero;stroke:none"
         id="path276" /><path
         d="m 168.633,238.324 v 0.117 l 0.117,-0.164 z"
         style="fill:#ebbf11;fill-opacity:1;fill-rule:nonzero;stroke:none"
         id="path278" /><path
         d="m 150.383,238.441 -0.063,0.118 v 0.281 l -0.148,0.043 v 0.164 h 0.148 l 0.063,-0.207 0.23,-0.231 -0.23,-0.168"
         style="fill:#ebbf11;fill-opacity:1;fill-rule:nonzero;stroke:none"
         id="path280" /><path
         d="m 155.844,238.441 0.117,0.118 -0.117,-0.118"
         style="fill:#ebbf11;fill-opacity:1;fill-rule:nonzero;stroke:none"
         id="path282" /><path
         d="m 165.219,238.559 -0.11,0.109 0.161,0.332 0.328,-0.117 0.222,-0.098 -0.168,-0.226 h -0.117 -0.207 -0.109"
         style="fill:#ebbf11;fill-opacity:1;fill-rule:nonzero;stroke:none"
         id="path284" /><path
         d="m 155.746,238.84 -0.125,0.043 h -0.16 l 0.16,0.222 h 0.125 l 0.043,0.555 h 0.172 l 0.047,-0.117 0.215,0.059 -0.102,-0.762 h -0.375"
         style="fill:#ebbf11;fill-opacity:1;fill-rule:nonzero;stroke:none"
         id="path286" /><path
         d="m 163.02,238.84 -0.059,0.207 -0.227,0.496 h 0.332 v 0.336 l 0.172,0.059 v -0.395 -0.438 h 0.434 l -0.16,-0.164 -0.492,-0.101"
         style="fill:#ebbf11;fill-opacity:1;fill-rule:nonzero;stroke:none"
         id="path288" /><path
         d="m 152.316,238.883 h -0.109 l 0.109,0.164 h 0.489 l 1,0.117 0.16,-0.223 h -0.547 -0.438 l -0.664,-0.058"
         style="fill:#ebbf11;fill-opacity:1;fill-rule:nonzero;stroke:none"
         id="path290" /><path
         d="m 150.441,239.105 v 0.118 -0.118"
         style="fill:#ebbf11;fill-opacity:1;fill-rule:nonzero;stroke:none"
         id="path292" /><path
         d="m 168.137,239.105 -0.102,0.059 h -0.293 l 0.117,0.227 h 0.106 l 0.117,0.152 -0.434,0.5 0.094,0.109 h 0.071 l 0.324,-0.214 0.269,-0.172 0.063,0.058 v 0.387 l 0.164,0.277 0.23,0.172 h 0.262 l -0.219,-0.117 v -0.168 l -0.215,-0.332 -0.222,-0.594 -0.11,-0.226 -0.058,-0.176 -0.164,0.058"
         style="fill:#ebbf11;fill-opacity:1;fill-rule:nonzero;stroke:none"
         id="path294" /><path
         d="m 150.664,239.164 0.109,0.059 0.165,0.109 -0.11,-0.168 h -0.164"
         style="fill:#ebbf11;fill-opacity:1;fill-rule:nonzero;stroke:none"
         id="path296" /><path
         d="m 152.371,239.223 v 0.285 l -0.055,0.152 h 0.274 l 0.101,0.164 h 0.168 l 0.121,0.289 -0.058,0.098 0.176,0.332 0.156,0.117 h 0.164 v -0.117 l 0.168,-0.109 -0.102,-0.118 -0.066,-0.32 0.211,-0.117 0.117,0.059 0.445,-0.172 -0.226,-0.223 -0.043,-0.152 h -0.223 l -0.332,0.375 v 0.058 h -0.172 l -0.097,-0.281 -0.293,-0.094 -0.047,-0.058 -0.168,-0.227 -0.219,0.059"
         style="fill:#ebbf11;fill-opacity:1;fill-rule:nonzero;stroke:none"
         id="path298" /><path
         d="m 164.941,239.273 v 0.118 l 0.278,0.058 v -0.176 h -0.278"
         style="fill:#ebbf11;fill-opacity:1;fill-rule:nonzero;stroke:none"
         id="path300" /><path
         d="m 165.992,239.332 v 0.117 h 0.16 l 0.059,0.094 0.16,-0.152 -0.379,-0.059"
         style="fill:#ebbf11;fill-opacity:1;fill-rule:nonzero;stroke:none"
         id="path302" /><path
         d="m 155.676,239.543 -0.055,0.059 -0.16,0.164 0.285,-0.106 -0.07,-0.117"
         style="fill:#ebbf11;fill-opacity:1;fill-rule:nonzero;stroke:none"
         id="path304" /><path
         d="m 162.617,239.66 h -0.101 l -0.059,0.383 0.16,-0.105 0.071,-0.114 -0.071,-0.164"
         style="fill:#ebbf11;fill-opacity:1;fill-rule:nonzero;stroke:none"
         id="path306" /><path
         d="m 165.051,239.66 -0.047,0.106 -0.168,0.058 0.059,0.219 0.109,0.07 0.266,-0.07 0.218,0.168 -0.043,-0.273 -0.117,-0.114 -0.277,-0.164"
         style="fill:#ebbf11;fill-opacity:1;fill-rule:nonzero;stroke:none"
         id="path308" /><path
         d="m 166.035,239.766 -0.32,0.277 -0.227,0.168 v 0.449 l 0.11,0.156 0.175,-0.054 -0.058,-0.274 0.058,-0.277 0.438,-0.059 0.332,0.059 0.156,-0.059 -0.105,-0.273 h -0.168 l -0.332,-0.113 h -0.059"
         style="fill:#ebbf11;fill-opacity:1;fill-rule:nonzero;stroke:none"
         id="path310" /><path
         d="m 164.668,239.938 h -0.051 l 0.168,0.105 z"
         style="fill:#ebbf11;fill-opacity:1;fill-rule:nonzero;stroke:none"
         id="path312" /><path
         d="m 156.34,240.113 0.105,0.262 0.227,-0.059 -0.227,-0.273 -0.105,0.07"
         style="fill:#ebbf11;fill-opacity:1;fill-rule:nonzero;stroke:none"
         id="path314" /><path
         d="M 124.766,90.9727 V 80.6602 c 7.05,-6.0196 15.222,-10.3321 23.078,-12.6407 v 22.9532 h -23.078"
         style="fill:#ffffff;fill-opacity:1;fill-rule:nonzero;stroke:none"
         id="path316" /><path
         d="m 194.016,90.9727 h 11.929 c 5.032,7.4218 8.528,16.2503 9.614,26.1723 v 0.703 h -21.536 l -0.007,-26.8753"
         style="fill:#ffffff;fill-opacity:1;fill-rule:nonzero;stroke:none"
         id="path318" /><path
         d="M 170.922,90.9727 V 66.9336 c 8.023,1.625 16.07,5.4453 23.094,11.0898 v 12.9493 h -23.094"
         style="fill:#ffffff;fill-opacity:1;fill-rule:nonzero;stroke:none"
         id="path320" /><path
         d="m 170.922,117.848 h 23.094 v 26.855 h -23.094 v -26.855"
         style="fill:#ffffff;fill-opacity:1;fill-rule:nonzero;stroke:none"
         id="path322" /><path
         d="m 147.844,171.578 v 25.524 c -8.371,0 -16.352,0 -23.078,0 v -25.524 h 23.078"
         style="fill:#ffffff;fill-opacity:1;fill-rule:nonzero;stroke:none"
         id="path324" /><path
         d="m 194.016,171.578 v 25.524 c -6.836,0 -14.797,0 -23.078,0 v -25.524 h 23.078"
         style="fill:#ffffff;fill-opacity:1;fill-rule:nonzero;stroke:none"
         id="path326" /><path
         d="M 147.852,117.848 V 90.9805 h 23.07 v 26.8675 h -23.07"
         style="fill:#ffffff;fill-opacity:1;fill-rule:nonzero;stroke:none"
         id="path328" /><path
         d="m 124.766,117.848 h -19.629 c 0.703,-10.305 4.465,-19.348 9.972,-26.8675 h 9.657 v 26.8675"
         style="fill:#ffffff;fill-opacity:1;fill-rule:nonzero;stroke:none"
         id="path330" /><path
         d="m 124.766,171.578 h -19.637 l -0.02,-26.855 h 19.657 v 26.855"
         style="fill:#ffffff;fill-opacity:1;fill-rule:nonzero;stroke:none"
         id="path332" /><path
         d="m 170.922,144.723 v 26.855 h -23.07 v -26.855 h 23.07"
         style="fill:#ffffff;fill-opacity:1;fill-rule:nonzero;stroke:none"
         id="path334" /><path
         d="m 147.844,144.703 h -23.078 v -26.855 h 23.078 v 26.855"
         style="fill:#ffffff;fill-opacity:1;fill-rule:nonzero;stroke:none"
         id="path336" /><path
         d="m 124.766,117.848 v 0"
         style="fill:#d53d2b;fill-opacity:1;fill-rule:nonzero;stroke:none"
         id="path338" /><path
         d="m 124.766,90.9805 v -0.0078 0.0078"
         style="fill:#d53d2b;fill-opacity:1;fill-rule:nonzero;stroke:none"
         id="path340" /><path
         d="m 124.766,90.9805 h -2.5 v -0.0078 h 5 v 0.0078 h -5 2.5 -2.5 v -0.0078 h 5 v 0.0078 h -5 2.5"
         style="fill:#e81f2a;fill-opacity:1;fill-rule:nonzero;stroke:none"
         id="path342" /><path
         d="m 194.016,90.9727 v 0"
         style="fill:#d53d2b;fill-opacity:1;fill-rule:nonzero;stroke:none"
         id="path344" /><path
         d="m 205.945,90.9727 h 0.012 -0.012"
         style="fill:#d53d2b;fill-opacity:1;fill-rule:nonzero;stroke:none"
         id="path346" /><path
         d="m 205.945,90.9727 v -2.5 h 0.012 v 5 h -0.012 v -5 2.5 -2.5 h 0.012 v 5 h -0.012 v -5 2.5"
         style="fill:#e81f2a;fill-opacity:1;fill-rule:nonzero;stroke:none"
         id="path348" /><path
         d="m 124.766,80.6602 v -0.0118 0.0118"
         style="fill:#d53d2b;fill-opacity:1;fill-rule:nonzero;stroke:none"
         id="path350" /><path
         d="m 124.766,80.6602 h -2.5 v -0.0118 h 5 v 0.0118 h -5 2.5 -2.5 v -0.0118 h 5 v 0.0118 h -5 2.5"
         style="fill:#e81f2a;fill-opacity:1;fill-rule:nonzero;stroke:none"
         id="path352" /><path
         d="m 147.844,68.0195 v -0.0078 0.0078"
         style="fill:#d53d2b;fill-opacity:1;fill-rule:nonzero;stroke:none"
         id="path354" /><path
         d="m 147.844,68.0195 h -2.5 v -0.0078 h 5 v 0.0078 h -5 2.5 -2.5 v -0.0078 h 5 v 0.0078 h -5 2.5"
         style="fill:#e81f2a;fill-opacity:1;fill-rule:nonzero;stroke:none"
         id="path356" /><path
         d="m 170.922,66.9336 v 0"
         style="fill:#d53d2b;fill-opacity:1;fill-rule:nonzero;stroke:none"
         id="path358" /><path
         d="m 194.016,78.0234 v -0.0117 0.0117"
         style="fill:#d53d2b;fill-opacity:1;fill-rule:nonzero;stroke:none"
         id="path360" /><path
         d="m 194.016,78.0234 h -2.5 v -0.0117 h 5 v 0.0117 h -5 2.5 -2.5 v -0.0117 h 5 v 0.0117 h -5 2.5"
         style="fill:#e81f2a;fill-opacity:1;fill-rule:nonzero;stroke:none"
         id="path362" /><path
         d="m 215.559,144.703 h -21.536 v 26.875 h 21.536 v -26.875"
         style="fill:#ffffff;fill-opacity:1;fill-rule:nonzero;stroke:none"
         id="path364" /><path
         d="m 147.852,117.848 h 23.07 v 26.855 h -23.07 z m 23.07,26.875 23.094,-0.02 v 26.875 H 170.938 Z M 147.844,68.0195 c 4.617,-1.3632 9.14,-2.0351 13.261,-1.9687 h 0.528 c 3.055,-0.0508 6.172,0.2539 9.289,0.8828 v 24.0391 h -23.07 z m 67.504,49.5825 v 0.246 h -21.325 v 26.855 h 21.325 v 26.426 0.449 h -21.325 v 25.246 h -23.101 v -25.246 h -23.07 v 25.246 h -23.086 v -25.246 h -19.469 v -26.875 h 19.469 v -26.855 h -19.469 v -0.246 h 0.058 c 0.692,-10.204 4.422,-19.1567 9.872,-26.6293 h 9.539 V 80.707 l 0.136,-0.1367 c 6.95,-5.918 14.953,-10.1445 22.688,-12.4844 l 0.305,-0.1171 c 4.585,-1.3516 9.097,-2.0157 13.21,-1.9493 h 0.528 c 3.035,-0.0507 6.14,0.2461 9.262,0.8711 l 0.261,0.0742 c 7.899,1.6485 15.797,5.4141 22.735,10.9805 l 0.125,0.125 v -0.0469 c 4.484,3.6016 8.543,7.961 11.929,12.9493 h -0.101 c 4.961,7.3554 8.433,16.1013 9.504,25.9373 z m 1.386,80.89 v -0.293 c 0,0 0,-11.613 0,-26.058 v -27.45 c 0,-13.289 0,-24.578 0,-27.433 v -0.012 -0.707 c -1.097,-10.129 -4.683,-19.1406 -9.808,-26.7265 -3.457,-5.0898 -7.61,-9.543 -12.192,-13.2266 -7.175,-5.7656 -15.386,-9.6679 -23.578,-11.3281 -3.191,-0.6445 -6.371,-0.9609 -9.492,-0.8867 h -0.543 c -4.207,-0.0781 -8.836,0.6055 -13.531,1.9922 -8.039,2.3711 -16.367,6.7773 -23.586,12.9219 -3.629,3.0625 -6.965,6.5937 -9.848,10.5273 -5.629,7.6992 -9.472,16.9255 -10.203,27.4335 h -0.047 v 81.246 z M 147.844,90.9805 V 117.848 H 124.766 V 90.9805 Z m 46.172,-12.9102 c 4.402,3.5664 8.422,7.8594 11.746,12.7735 l 0.082,0.1289 h -11.828 z m -46.172,93.5077 h -23.078 v -26.855 h 23.078 z m 46.172,-53.73 V 90.9727 l -23.094,0.0078 v 26.8675 h 23.094"
         style="fill:#ed1d24;fill-opacity:1;fill-rule:nonzero;stroke:none"
         id="path366" /></g></g></svg>
