<?xml version="1.0" encoding="UTF-8" standalone="no"?>
<svg
   xmlns:dc="http://purl.org/dc/elements/1.1/"
   xmlns:cc="http://creativecommons.org/ns#"
   xmlns:rdf="http://www.w3.org/1999/02/22-rdf-syntax-ns#"
   xmlns:svg="http://www.w3.org/2000/svg"
   xmlns="http://www.w3.org/2000/svg"
   version="1.1"
   id="svg2"
   xml:space="preserve"
   width="42.666668"
   height="42.666668"
   viewBox="0 0 42.666668 42.666668"><metadata
     id="metadata8"><rdf:RDF><cc:Work
         rdf:about=""><dc:format>image/svg+xml</dc:format><dc:type
           rdf:resource="http://purl.org/dc/dcmitype/StillImage" /></cc:Work></rdf:RDF></metadata><defs
     id="defs6" /><g
     id="g10"
     transform="matrix(1.3333333,0,0,-1.3333333,0,42.666667)"><g
       id="g12"
       transform="scale(0.1)"><path
         d="M 310.52,105.645 H 9.46484 C 3.35547,122.629 0,140.918 0,160.012 c 0,19.082 3.35547,37.39 9.46484,54.324 H 310.52 c 6.125,-16.934 9.48,-35.242 9.48,-54.324 0,-19.094 -3.355,-37.383 -9.48,-54.367"
         style="fill:#ffffff;fill-opacity:1;fill-rule:evenodd;stroke:none"
         id="path14" /><path
         d="M 310.52,214.363 H 9.46484 C 31.7227,275.969 90.7188,320.02 159.984,320.02 c 69.27,0 128.262,-44.051 150.536,-105.657"
         style="fill:#cf1e3c;fill-opacity:1;fill-rule:evenodd;stroke:none"
         id="path16" /><path
         d="M 9.46484,105.645 H 310.52 C 288.246,44.043 229.254,-0.0195313 159.984,-0.0195313 90.7188,-0.0195313 31.7227,44.043 9.46484,105.645"
         style="fill:#3e6c48;fill-opacity:1;fill-rule:evenodd;stroke:none"
         id="path18" /></g></g></svg>
