<?xml version="1.0" encoding="UTF-8" standalone="no"?>
<svg
   xmlns:dc="http://purl.org/dc/elements/1.1/"
   xmlns:cc="http://creativecommons.org/ns#"
   xmlns:rdf="http://www.w3.org/1999/02/22-rdf-syntax-ns#"
   xmlns:svg="http://www.w3.org/2000/svg"
   xmlns="http://www.w3.org/2000/svg"
   version="1.1"
   id="svg2"
   xml:space="preserve"
   width="42.666668"
   height="42.666668"
   viewBox="0 0 42.666668 42.666668"><metadata
     id="metadata8"><rdf:RDF><cc:Work
         rdf:about=""><dc:format>image/svg+xml</dc:format><dc:type
           rdf:resource="http://purl.org/dc/dcmitype/StillImage" /></cc:Work></rdf:RDF></metadata><defs
     id="defs6" /><g
     id="g10"
     transform="matrix(1.3333333,0,0,-1.3333333,0,42.666667)"><g
       id="g12"
       transform="scale(0.1)"><path
         d="M 105.652,9.50391 V 310.488 c 16.977,6.145 35.266,9.485 54.336,9.485 19.094,0 37.383,-3.34 54.348,-9.485 V 9.50391 c -16.965,-6.125 -35.254,-9.4765662 -54.348,-9.4765662 -19.07,0 -37.359,3.3515662 -54.336,9.4765662"
         style="fill:#ffffff;fill-opacity:1;fill-rule:evenodd;stroke:none"
         id="path14" /><path
         d="M 105.652,310.488 V 9.50391 C 44.0547,31.7461 0,90.7344 0,160.012 c 0,69.23 44.0547,128.215 105.652,150.476"
         style="fill:#2b9f41;fill-opacity:1;fill-rule:evenodd;stroke:none"
         id="path16" /><path
         d="M 214.355,9.50391 V 310.488 C 275.945,288.227 320,229.242 320,160.012 320,90.7344 275.945,31.7461 214.355,9.50391"
         style="fill:#f36617;fill-opacity:1;fill-rule:evenodd;stroke:none"
         id="path18" /></g></g></svg>
