<?xml version="1.0" encoding="UTF-8" standalone="no"?>
<svg
   xmlns:dc="http://purl.org/dc/elements/1.1/"
   xmlns:cc="http://creativecommons.org/ns#"
   xmlns:rdf="http://www.w3.org/1999/02/22-rdf-syntax-ns#"
   xmlns:svg="http://www.w3.org/2000/svg"
   xmlns="http://www.w3.org/2000/svg"
   version="1.1"
   id="svg2"
   xml:space="preserve"
   width="42.666668"
   height="42.666668"
   viewBox="0 0 42.666668 42.666668"><metadata
     id="metadata8"><rdf:RDF><cc:Work
         rdf:about=""><dc:format>image/svg+xml</dc:format><dc:type
           rdf:resource="http://purl.org/dc/dcmitype/StillImage" /></cc:Work></rdf:RDF></metadata><defs
     id="defs6" /><g
     id="g10"
     transform="matrix(1.3333333,0,0,-1.3333333,0,42.666667)"><g
       id="g12"
       transform="scale(0.1)"><path
         d="M 298.484,79.9023 C 312.145,103.465 320,130.809 320,160 c 0,29.18 -7.852,56.512 -21.496,80.066 H 21.4961 C 7.85156,216.512 0,189.18 0,160 0,130.809 7.85547,103.465 21.5156,79.9023 H 298.484"
         style="fill:#ffffff;fill-opacity:1;fill-rule:evenodd;stroke:none"
         id="path14" /><path
         d="M 67.207,29.6992 C 93.3828,11.0234 125.395,0 160,0 c 34.605,0 66.617,11.0234 92.793,29.6992 H 67.207"
         style="fill:#ffffff;fill-opacity:1;fill-rule:evenodd;stroke:none"
         id="path16" /><path
         d="M 21.5156,79.9023 C 33.0078,60.0742 48.625,42.957 67.207,29.6992 h 185.586 c 18.586,13.2578 34.199,30.375 45.691,50.2031 H 21.5156"
         style="fill:#3043a1;fill-opacity:1;fill-rule:evenodd;stroke:none"
         id="path18" /><path
         d="m 298.504,240.066 c -11.563,19.954 -27.297,37.168 -46.027,50.461 H 67.5234 C 48.793,277.234 33.0586,260.02 21.4961,240.066 H 298.504"
         style="fill:#3043a1;fill-opacity:1;fill-rule:evenodd;stroke:none"
         id="path20" /><path
         d="M 252.477,290.527 C 226.359,309.066 194.465,320 160,320 125.535,320 93.6406,309.066 67.5234,290.527 H 252.477"
         style="fill:#ffffff;fill-opacity:1;fill-rule:evenodd;stroke:none"
         id="path22" /><path
         d="m 199.191,137.258 c -4.664,-0.082 -9.277,0 -13.937,-0.082 2.371,4.097 4.66,8.148 7.035,12.168 2.238,-4.106 4.746,-7.989 6.902,-12.086 z m -25.128,1.672 c -0.43,-0.731 -0.836,-1.942 -1.915,-1.754 -8.113,0 -16.179,0 -24.296,0 -1.106,-0.188 -1.485,1.023 -1.942,1.754 -4.015,6.961 -8.121,13.914 -12.082,20.953 4.422,7.551 8.578,15.371 13.324,22.707 8.551,-0.055 17.121,-0.055 25.696,0 4.75,-7.336 8.902,-15.156 13.32,-22.707 -3.988,-7.039 -8.059,-13.992 -12.105,-20.953 z m -14.129,-24.325 c -2.321,4.051 -4.614,8.012 -6.907,12.028 4.664,0.055 9.282,0.055 13.942,0 -2.371,-3.961 -4.551,-8.113 -7.035,-12.028 z m -39.161,22.653 c 2.168,4.097 4.672,7.98 6.856,12.086 2.48,-3.965 4.75,-8.121 7.098,-12.168 -4.672,0.082 -9.282,0 -13.954,0.082 z m 0,45.277 c 4.672,0.055 9.282,0 13.954,0.055 -2.348,-4.102 -4.672,-8.121 -7.047,-12.141 -2.235,4.074 -4.739,7.985 -6.907,12.086 z m 39.297,22.567 c 2.293,-3.965 4.664,-7.926 6.899,-11.946 -4.66,-0.082 -9.278,-0.082 -13.942,0 2.375,3.965 4.481,8.117 7.043,11.946 z m 39.121,-22.567 c -2.156,-4.101 -4.664,-8.012 -6.902,-12.086 -2.375,4.02 -4.664,8.039 -7.035,12.141 4.66,-0.055 9.273,0 13.937,-0.055 z m 18.309,10.539 c -12.723,0.082 -25.531,0 -38.316,0.082 -6.391,11 -12.727,22.055 -19.114,33.114 -6.605,-10.922 -12.812,-22.114 -19.285,-33.114 -12.777,-0.082 -25.558,0 -38.285,-0.082 6.254,-11.054 12.781,-22.054 19.117,-33.191 -6.336,-11.11 -12.863,-22.113 -19.117,-33.195 12.727,-0.055 25.508,0 38.285,-0.055 6.203,-10.676 12.348,-21.406 18.582,-32.1135 l 0.996,-0.4336 c 6.285,10.8161 12.485,21.7341 18.821,32.5471 12.785,0.055 25.593,0 38.316,0.055 -6.277,11.082 -12.777,22.085 -19.117,33.195 6.34,11.137 12.84,22.137 19.117,33.191"
         style="fill:#3043a1;fill-opacity:1;fill-rule:nonzero;stroke:none"
         id="path24" /></g></g></svg>
