<?xml version="1.0" encoding="UTF-8" standalone="no"?>
<svg
   xmlns:dc="http://purl.org/dc/elements/1.1/"
   xmlns:cc="http://creativecommons.org/ns#"
   xmlns:rdf="http://www.w3.org/1999/02/22-rdf-syntax-ns#"
   xmlns:svg="http://www.w3.org/2000/svg"
   xmlns="http://www.w3.org/2000/svg"
   version="1.1"
   id="svg2"
   xml:space="preserve"
   width="42.666668"
   height="42.666668"
   viewBox="0 0 42.666668 42.666668"><metadata
     id="metadata8"><rdf:RDF><cc:Work
         rdf:about=""><dc:format>image/svg+xml</dc:format><dc:type
           rdf:resource="http://purl.org/dc/dcmitype/StillImage" /></cc:Work></rdf:RDF></metadata><defs
     id="defs6" /><g
     id="g10"
     transform="matrix(1.3333333,0,0,-1.3333333,0,42.666667)"><g
       id="g12"
       transform="scale(0.1)"><path
         d="M 159.98,0 C 248.105,0 320,71.8945 320,160.008 320,248.129 248.105,320 159.98,320 71.8633,320 0,248.129 0,160.008 0,71.8945 71.8633,0 159.98,0"
         style="fill:#d11d2c;fill-opacity:1;fill-rule:evenodd;stroke:none"
         id="path14" /><path
         d="m 174.988,97.375 -3.183,3.027 -2.153,-0.246 c -0.449,0.813 -1.265,1.356 -1.988,1.645 l 0.156,2.664 -3.66,4.297 4.695,-0.875 1.833,4.617 2.23,-5.332 4.539,-1.992 -3.184,-2.629 0.715,-5.176"
         style="fill:#f3dc0b;fill-opacity:1;fill-rule:nonzero;stroke:none"
         id="path16" /><path
         d="m 203.145,196.297 -1.54,4.523 -4.921,-0.664 3.558,4.559 -0.488,4.93 3.851,-1.489 4.161,3.16 -1.078,-4.257 1.265,-1.754 c -0.48,-0.789 -0.558,-1.766 -0.457,-2.539 l -2.398,-1.168 -1.953,-5.301"
         style="fill:#f3dc0b;fill-opacity:1;fill-rule:nonzero;stroke:none"
         id="path18" /><path
         d="m 96.6367,173.52 -0.8633,4.035 -4.9257,1.75 4.1562,1.433 0.7734,2.02 c 0.9258,0.027 1.7813,0.5 2.3711,1.008 l 2.2926,-1.368 5.504,1.27 -2.941,-3.766 3.254,-3.754 -5.762,0.481 -3.8593,-3.109"
         style="fill:#f3dc0b;fill-opacity:1;fill-rule:nonzero;stroke:none"
         id="path20" /><path
         d="m 157.754,163.141 -0.18,1.023 1.035,-0.324 -0.855,-0.699 m 80.57,40.879 c -2.785,0.406 -2.676,3.406 -15.715,0.277 -2.793,0.355 -5.586,0.711 -8.379,1.066 l -1.792,1.215 c -4.528,0.836 -5.196,-2.113 -4.93,-3.883 0.207,-1.293 0.414,-2.582 0.621,-3.875 l -1.531,-5.972 c -4.145,-4.653 -10.313,-19.594 -10.707,-22.469 -0.188,-2.695 -1.207,-2.211 -0.934,-4.832 0.012,-2.051 -0.227,-0.77 0.457,-4.992 0.168,-1.274 -1.387,-1.172 -2.277,-0.805 -7.598,4.762 -14.809,7.867 -22.735,12.082 l -1.246,0.633 -0.941,-0.774 1.055,0.989 -0.403,2.172 c 0.012,3.402 -6.418,19.824 -7.523,22.191 -2.051,2.57 -4.223,6.637 -5.156,10.152 -0.606,3.547 -2.5,6.328 -5.176,7.27 -3.086,1.64 -6.102,0.996 -9,0.746 -1.422,-0.305 -2.641,-1.07 -3.328,-2.203 -1.567,-2.242 -2.418,-2.07 -3.5,-3.035 -8.922,-1.391 -17.356,-5.996 -23.774,-9.133 -3.398,-2.356 -6.281,-3.727 -7.617,-4.016 -3.625,-0.011 -6.2578,1.703 -7.5157,2.617 -4.1054,3.731 -8.207,7.461 -12.3125,11.192 -3.5546,2.656 -4.4335,-1.176 -3.75,-1.762 1.1875,-2.551 -1.3828,-4.105 8.375,-13.301 1.2344,-2.531 2.4649,-5.062 3.6993,-7.593 l -0.0352,-2.168 c 1.7813,-4.246 4.6133,-3.188 5.9492,-1.996 0.9688,0.882 1.9339,1.761 2.9019,2.64 l 5.836,1.992 c 6.161,-0.918 22.043,2.11 24.661,3.352 2.359,1.32 2.511,0.199 4.554,1.867 1.711,1.133 0.77,0.231 3.93,3.117 0.969,0.836 1.738,-0.519 1.922,-1.465 0.172,-8.949 1.519,-16.671 2.34,-25.593 l -1.356,-1.051 c -3.027,-1.559 -14.64,-14.832 -16.23,-16.902 -1.336,-3.008 -3.946,-6.809 -6.633,-9.254 -2.867,-2.172 -4.465,-5.137 -4.07,-7.946 -0.032,-3.496 1.929,-5.875 3.488,-8.332 0.926,-1.125 2.168,-1.847 3.488,-1.937 2.711,-0.36 2.949,-1.192 4.309,-1.707 5.344,-7.278 13.312,-12.645 19.054,-16.895 3.661,-1.926 6.207,-3.855 7.079,-4.91 1.679,-3.207 1.371,-6.3398 1.14,-7.8749 -1.422,-5.3594 -2.844,-10.7227 -4.262,-16.0821 -0.718,-4.3789 3.09,-3.3945 3.293,-2.5195 1.719,2.2305 4.282,0.6641 7.946,13.5625 1.676,2.2617 3.355,4.5234 5.035,6.7813 l 1.937,0.9687 c 2.95,3.5391 0.704,5.563 -0.968,6.199 -1.227,0.453 -2.453,0.906 -3.68,1.36 l -4.457,4.261 c -2.027,5.891 -11.969,18.473 -14.277,20.223 -1.598,1.668 -2.36,2.375 -3.879,3.301 -2.332,1.117 -3.082,1.48 -4.512,2.051 -1.191,0.476 -0.344,1.785 0.414,2.378 7.875,4.29 14.117,9.051 21.672,13.899 l 0.351,0.23 0.032,-0.183 2.039,-0.86 c 2.84,-1.871 20.101,-5.488 22.687,-5.863 3.274,0.313 7.867,-0.101 11.317,-1.242 3.297,-1.438 6.664,-1.375 8.918,0.344 3.062,1.683 4.175,4.558 5.554,7.125 0.528,1.355 0.551,2.793 -0.019,3.988 -1.02,2.539 -0.41,3.156 -0.621,4.594 3.722,8.222 4.492,17.8 5.383,24.886 -0.114,4.137 0.32,7.301 0.812,8.575 1.973,3.039 4.852,4.304 6.305,4.855 5.371,1.391 10.738,2.777 16.109,4.168 4.168,1.52 1.445,4.356 0.578,4.106"
         style="fill:#ffffff;fill-opacity:1;fill-rule:nonzero;stroke:none"
         id="path22" /><path
         d="m 153.527,87.0625 7.883,1.5938 -0.953,-2.9063 -7.805,-2.3477 0.875,3.6602"
         style="fill:#f3df0b;fill-opacity:1;fill-rule:nonzero;stroke:none"
         id="path24" /><path
         d="m 227.27,197.664 -5.25,6.094 3,0.59 5.871,-5.649 -3.621,-1.035 v 0"
         style="fill:#f3df0b;fill-opacity:1;fill-rule:nonzero;stroke:none"
         id="path26" /><path
         d="m 202.672,144.648 c -0.926,1.418 -1.863,4.122 -1.891,4.168 l -1.871,3.215 c -1.121,1.61 -1.984,1.617 -2.601,1.637 -1.34,0.086 -1.93,0.336 -2.942,0.41 -1.031,0.457 -0.265,2.309 -0.293,2.36 1.059,4.207 5.489,3.792 5.668,3.703 2.035,-0.668 2.281,-0.914 1.949,-2.2 -0.511,-1.386 -0.816,-1.882 -0.773,-2.761 0.105,-1.684 2.141,-4.157 2.172,-4.207 l 1.34,-1.118 c 0.621,-0.535 1.449,-0.628 2.297,-1.679 0.746,-1.133 0.851,-1.59 0.234,-2.711 -0.785,-1.477 -2.481,-1.91 -3.289,-0.817"
         style="fill:#f3df0b;fill-opacity:1;fill-rule:nonzero;stroke:none"
         id="path28" /><path
         d="m 91.5859,203.102 -2.2187,-7.731 -2.1406,2.188 1.5117,8.007 2.8476,-2.464"
         style="fill:#f3df0b;fill-opacity:1;fill-rule:nonzero;stroke:none"
         id="path30" /><path
         d="m 149.414,211.566 c -0.68,-1.55 -2.426,-3.816 -2.453,-3.867 l -1.66,-3.324 c -0.735,-1.82 -0.266,-2.547 0.054,-3.074 0.661,-1.168 0.778,-1.797 1.266,-2.688 0.188,-1.109 -1.785,-1.484 -1.808,-1.535 -4.102,-1.422 -6.184,2.512 -6.208,2.715 -0.554,2.066 -0.484,2.406 0.774,2.836 1.441,0.328 2.019,0.344 2.734,0.863 1.352,1.012 2.301,4.071 2.328,4.121 l 0.204,1.735 c 0.105,0.812 -0.27,1.554 0.144,2.843 0.539,1.243 0.863,1.582 2.141,1.68 1.664,0.149 2.957,-1.027 2.484,-2.305"
         style="fill:#f3df0b;fill-opacity:1;fill-rule:nonzero;stroke:none"
         id="path32" /><path
         d="m 160.582,148.789 h -1.797 c -0.086,0.082 -0.168,0.18 -0.25,0.285 0.113,0.074 0.231,0.149 0.344,0.223 l 0.351,0.23 0.032,-0.183 1.32,-0.555 m -2.828,14.352 -0.18,1.023 1.035,-0.324 -0.855,-0.699 m -14.492,5.742 c -0.004,0 -0.012,0.004 -0.02,0.008 0.582,0.375 1.055,1.539 0.789,2.644 v 0 c -0.031,0.031 -0.027,0.043 0.008,0.043 0.027,0 0.07,-0.004 0.129,-0.019 0.062,-0.606 0.121,-1.219 0.18,-1.836 l -1.086,-0.84 m 24.953,2.808 1.055,0.989 -0.403,2.172 c 0,0.203 -0.019,0.453 -0.062,0.742 0.254,0.211 0.394,0.332 0.394,0.332 0.094,-0.785 0.434,-2.832 1.352,-3.266 -0.231,-0.183 -0.457,-0.371 -0.684,-0.555 l -0.711,0.36 -0.941,-0.774"
         style="fill:#f3dc0b;fill-opacity:1;fill-rule:nonzero;stroke:none"
         id="path34" /><path
         d="m 161.656,148.789 h -1.074 l -1.32,0.555 -0.032,0.183 -0.351,-0.23 c -0.113,-0.074 -0.231,-0.149 -0.344,-0.223 -2.344,3.051 -3.187,14.465 -3.187,14.465 -4.028,1.801 -8.059,3.543 -12.086,5.344 l 1.086,0.84 c -0.059,0.617 -0.118,1.23 -0.18,1.836 1.41,-0.336 11.676,-4.477 13.207,-4.528 2.027,0.742 9.602,7.032 11.43,8.563 0.043,-0.289 0.062,-0.539 0.062,-0.742 l 0.403,-2.172 -1.055,-0.989 0.941,0.774 0.711,-0.36 c -3.414,-2.789 -6.566,-5.484 -10.015,-8.285 0.265,-4.726 -0.598,-9.738 1.804,-15.031 m -4.082,15.375 0.18,-1.023 0.855,0.699 -1.035,0.324"
         style="fill:#f3df0c;fill-opacity:1;fill-rule:nonzero;stroke:none"
         id="path36" /></g></g></svg>
