<?xml version="1.0" encoding="UTF-8" standalone="no"?>
<svg
   xmlns:dc="http://purl.org/dc/elements/1.1/"
   xmlns:cc="http://creativecommons.org/ns#"
   xmlns:rdf="http://www.w3.org/1999/02/22-rdf-syntax-ns#"
   xmlns:svg="http://www.w3.org/2000/svg"
   xmlns="http://www.w3.org/2000/svg"
   version="1.1"
   id="svg2"
   xml:space="preserve"
   width="42.666668"
   height="42.666668"
   viewBox="0 0 42.666668 42.666668"><metadata
     id="metadata8"><rdf:RDF><cc:Work
         rdf:about=""><dc:format>image/svg+xml</dc:format><dc:type
           rdf:resource="http://purl.org/dc/dcmitype/StillImage" /></cc:Work></rdf:RDF></metadata><defs
     id="defs6" /><g
     id="g10"
     transform="matrix(1.3333333,0,0,-1.3333333,0,42.666667)"><g
       id="g12"
       transform="scale(0.1)"><path
         d="M 310.516,105.629 H 9.45313 C 3.34375,122.617 0,140.91 0,159.988 0,179.09 3.34375,197.379 9.45313,214.367 H 310.516 c 6.16,-16.988 9.484,-35.277 9.484,-54.379 0,-19.078 -3.324,-37.371 -9.484,-54.359"
         style="fill:#ffffff;fill-opacity:1;fill-rule:evenodd;stroke:none"
         id="path14" /><path
         d="M 9.48047,105.629 H 310.516 C 288.27,43.9961 229.266,-0.0429688 160.016,-0.0429688 90.7344,-0.0429688 31.75,43.9961 9.48047,105.629"
         style="fill:#2b8a3b;fill-opacity:1;fill-rule:evenodd;stroke:none"
         id="path16" /><path
         d="M 310.516,214.367 H 9.48047 C 31.75,275.98 90.7344,320.043 160.016,320.043 c 69.25,0 128.254,-44.063 150.5,-105.676"
         style="fill:#f68b27;fill-opacity:1;fill-rule:evenodd;stroke:none"
         id="path18" /><path
         d="m 186.707,128.574 c -0.699,0.864 -1.965,1.024 -2.855,0.34 -0.891,-0.684 -1.067,-1.945 -0.407,-2.848 -1.824,-1.261 -3.757,-2.382 -5.777,-3.343 -0.449,1.023 -1.637,1.507 -2.676,1.078 -1.039,-0.43 -1.531,-1.61 -1.129,-2.653 -2.074,-0.742 -4.23,-1.324 -6.445,-1.726 -0.172,1.105 -1.191,1.879 -2.305,1.73 -1.109,-0.144 -1.894,-1.152 -1.777,-2.261 -1.102,-0.09 -2.211,-0.133 -3.336,-0.133 -1.125,0 -2.234,0.043 -3.336,0.133 0.117,1.109 -0.668,2.117 -1.777,2.261 -1.114,0.149 -2.133,-0.625 -2.305,-1.73 -2.215,0.402 -4.371,0.984 -6.449,1.726 0.406,1.043 -0.086,2.223 -1.125,2.653 -1.039,0.429 -2.227,-0.055 -2.676,-1.078 -2.019,0.961 -3.953,2.082 -5.777,3.343 0.656,0.903 0.484,2.164 -0.407,2.848 -0.89,0.684 -2.156,0.524 -2.855,-0.34 -0.848,0.723 -1.668,1.473 -2.457,2.262 -0.785,0.785 -1.539,1.609 -2.262,2.457 0.867,0.699 1.024,1.965 0.34,2.855 -0.68,0.887 -1.945,1.063 -2.848,0.407 -1.261,1.824 -2.382,3.754 -3.343,5.777 1.023,0.449 1.507,1.637 1.078,2.672 -0.43,1.039 -1.61,1.535 -2.653,1.129 -0.742,2.078 -1.324,4.23 -1.726,6.449 1.105,0.172 1.879,1.188 1.73,2.305 -0.144,1.109 -1.152,1.894 -2.261,1.773 -0.086,1.102 -0.133,2.215 -0.133,3.34 0,1.121 0.047,2.234 0.133,3.336 1.109,-0.117 2.117,0.664 2.261,1.777 0.149,1.114 -0.625,2.133 -1.73,2.301 0.402,2.219 0.984,4.371 1.726,6.449 1.043,-0.406 2.223,0.09 2.653,1.129 0.429,1.039 -0.055,2.223 -1.078,2.672 0.961,2.024 2.082,3.953 3.343,5.777 0.903,-0.656 2.168,-0.48 2.848,0.411 0.684,0.886 0.527,2.152 -0.34,2.851 0.723,0.852 1.477,1.672 2.262,2.457 0.789,0.789 1.609,1.543 2.457,2.266 0.699,-0.867 1.965,-1.024 2.855,-0.344 0.891,0.684 1.063,1.949 0.407,2.848 1.824,1.265 3.758,2.383 5.777,3.343 0.449,-1.023 1.637,-1.507 2.676,-1.078 1.039,0.434 1.531,1.614 1.125,2.657 2.078,0.742 4.234,1.32 6.449,1.722 0.172,-1.101 1.191,-1.875 2.305,-1.73 1.109,0.148 1.894,1.152 1.777,2.261 1.102,0.09 2.211,0.137 3.336,0.137 1.125,0 2.234,-0.047 3.336,-0.137 -0.117,-1.109 0.668,-2.113 1.777,-2.261 1.114,-0.145 2.133,0.629 2.305,1.73 2.215,-0.402 4.371,-0.98 6.445,-1.722 -0.402,-1.043 0.09,-2.223 1.129,-2.657 1.039,-0.429 2.227,0.055 2.676,1.078 2.02,-0.96 3.953,-2.078 5.777,-3.343 -0.66,-0.899 -0.484,-2.164 0.407,-2.848 0.89,-0.68 2.156,-0.523 2.855,0.344 0.848,-0.723 1.668,-1.477 2.457,-2.266 0.785,-0.785 1.539,-1.605 2.262,-2.457 -0.867,-0.699 -1.024,-1.965 -0.34,-2.851 0.68,-0.891 1.945,-1.067 2.848,-0.411 1.261,-1.824 2.382,-3.753 3.343,-5.777 -1.023,-0.449 -1.507,-1.633 -1.078,-2.672 0.43,-1.039 1.61,-1.535 2.653,-1.129 0.742,-2.078 1.324,-4.23 1.722,-6.449 -1.101,-0.168 -1.875,-1.187 -1.726,-2.301 0.144,-1.113 1.152,-1.894 2.261,-1.777 0.086,-1.102 0.133,-2.215 0.133,-3.336 0,-1.125 -0.047,-2.238 -0.133,-3.34 -1.109,0.121 -2.117,-0.664 -2.261,-1.773 -0.149,-1.117 0.625,-2.133 1.726,-2.305 -0.398,-2.219 -0.98,-4.371 -1.722,-6.449 -1.043,0.406 -2.223,-0.09 -2.653,-1.129 -0.429,-1.035 0.055,-2.223 1.078,-2.672 -0.961,-2.023 -2.082,-3.953 -3.343,-5.777 -0.903,0.656 -2.168,0.48 -2.848,-0.407 -0.684,-0.89 -0.527,-2.156 0.34,-2.855 -0.723,-0.848 -1.477,-1.672 -2.262,-2.457 -0.789,-0.789 -1.609,-1.539 -2.457,-2.262 z M 160,207.133 c -26.031,0 -47.137,-21.102 -47.137,-47.133 0,-26.031 21.106,-47.137 47.137,-47.137 26.031,0 47.137,21.106 47.137,47.137 0,26.031 -21.106,47.133 -47.137,47.133"
         style="fill:#282d78;fill-opacity:1;fill-rule:nonzero;stroke:none"
         id="path20" /><path
         d="m 166.117,154.48 c 0.293,0.325 0.563,0.668 0.801,1.036 l 6.66,-4.989 22.141,-11.148 -20.727,13.598 -7.652,3.269 c 0.199,0.391 0.371,0.793 0.508,1.215 l 7.722,-3.098 24.27,-5.039 -23.539,7.77 -8.235,1.179 c 0.09,0.426 0.137,0.86 0.161,1.305 l 8.269,-0.992 24.746,1.414 -24.746,1.414 -8.269,-0.992 c -0.024,0.441 -0.071,0.879 -0.161,1.301 l 8.235,1.179 23.539,7.77 -24.27,-5.039 -7.722,-3.094 c -0.137,0.422 -0.309,0.824 -0.508,1.211 l 7.652,3.273 20.727,13.598 -22.141,-11.148 -6.66,-4.993 c -0.238,0.368 -0.508,0.715 -0.801,1.04 l 6.547,5.144 16.5,18.496 -18.5,-16.496 -5.144,-6.551 c -0.325,0.297 -0.668,0.567 -1.04,0.805 l 4.993,6.66 11.148,22.137 -13.598,-20.723 -3.273,-7.652 c -0.387,0.199 -0.789,0.371 -1.211,0.504 l 3.098,7.722 5.039,24.27 -7.774,-23.535 -1.179,-8.238 c -0.422,0.089 -0.86,0.14 -1.301,0.164 l 0.992,8.269 -1.414,24.746 -1.414,-24.746 0.992,-8.269 c -0.441,-0.024 -0.879,-0.075 -1.301,-0.164 l -1.179,8.238 -7.774,23.535 5.039,-24.27 3.098,-7.722 c -0.422,-0.133 -0.824,-0.305 -1.211,-0.504 l -3.273,7.652 -13.598,20.723 11.148,-22.137 4.993,-6.66 c -0.372,-0.238 -0.715,-0.508 -1.04,-0.805 l -5.144,6.551 -18.5,16.496 16.5,-18.496 6.547,-5.144 c -0.293,-0.325 -0.563,-0.672 -0.801,-1.04 l -6.66,4.993 -22.141,11.148 20.727,-13.598 7.652,-3.273 c -0.199,-0.387 -0.371,-0.789 -0.508,-1.211 l -7.722,3.094 -24.27,5.039 23.539,-7.77 8.235,-1.179 c -0.09,-0.422 -0.137,-0.86 -0.161,-1.301 l -8.269,0.992 -24.746,-1.414 24.746,-1.414 8.269,0.992 c 0.024,-0.445 0.071,-0.879 0.161,-1.305 l -8.235,-1.179 -23.539,-7.77 24.27,5.039 7.722,3.098 c 0.137,-0.422 0.309,-0.824 0.508,-1.215 l -7.652,-3.269 -20.727,-13.598 22.141,11.148 6.66,4.989 c 0.238,-0.368 0.508,-0.711 0.801,-1.036 l -6.547,-5.148 -16.5,-18.496 18.5,16.5 5.144,6.547 c 0.325,-0.293 0.668,-0.563 1.04,-0.805 l -4.993,-6.66 -11.148,-22.137 13.598,20.723 3.273,7.652 c 0.387,-0.195 0.789,-0.367 1.211,-0.504 l -3.098,-7.722 -5.039,-24.27 7.774,23.539 1.179,8.235 c 0.422,-0.09 0.86,-0.141 1.301,-0.164 l -0.992,-8.266 1.414,-24.746 1.414,24.746 -0.992,8.266 c 0.441,0.023 0.879,0.074 1.301,0.164 l 1.179,-8.235 7.774,-23.539 -5.039,24.27 -3.098,7.722 c 0.422,0.137 0.824,0.309 1.211,0.504 l 3.273,-7.652 13.598,-20.723 -11.148,22.137 -4.993,6.66 c 0.372,0.242 0.715,0.512 1.04,0.805 l 5.144,-6.547 18.5,-16.5 -16.5,18.496 -6.547,5.148"
         style="fill:#282d78;fill-opacity:1;fill-rule:nonzero;stroke:none"
         id="path22" /></g></g></svg>
