<?xml version="1.0" encoding="UTF-8" standalone="no"?>
<svg
   xmlns:dc="http://purl.org/dc/elements/1.1/"
   xmlns:cc="http://creativecommons.org/ns#"
   xmlns:rdf="http://www.w3.org/1999/02/22-rdf-syntax-ns#"
   xmlns:svg="http://www.w3.org/2000/svg"
   xmlns="http://www.w3.org/2000/svg"
   version="1.1"
   id="svg2"
   xml:space="preserve"
   width="42.666668"
   height="42.666668"
   viewBox="0 0 42.666668 42.666668"><metadata
     id="metadata8"><rdf:RDF><cc:Work
         rdf:about=""><dc:format>image/svg+xml</dc:format><dc:type
           rdf:resource="http://purl.org/dc/dcmitype/StillImage" /></cc:Work></rdf:RDF></metadata><defs
     id="defs6" /><g
     id="g10"
     transform="matrix(1.3333333,0,0,-1.3333333,0,42.666667)"><g
       id="g12"
       transform="scale(0.1)"><path
         d="m 103.039,261.477 c -0.254,-0.118 -0.523,-0.231 -0.777,-0.356 0.254,0.125 0.523,0.238 0.777,0.356"
         style="fill:#bababa;fill-opacity:1;fill-rule:evenodd;stroke:none"
         id="path14" /><path
         d="M 159.996,-0.046875 C 248.117,-0.046875 320,71.8086 320,159.953 320,248.078 248.117,319.957 159.996,319.957 71.8711,319.957 0,248.078 0,159.953 0,71.8086 71.8711,-0.046875 159.996,-0.046875"
         style="fill:#ffffff;fill-opacity:1;fill-rule:evenodd;stroke:none"
         id="path16" /><path
         d="m 289.184,136.117 c -10.875,-0.469 -21.856,1.309 -32.079,5.145 -15.75,6 -30.253,17.172 -47.894,16.379 -18.078,-0.133 -28.035,-19.766 -45.598,-21.477 -12.883,-0.652 -25.968,1.981 -37.672,7.262 -10.535,4.629 -20.421,11.094 -31.8707,13.25 -6.1055,1.101 -12.6172,1.683 -18.5898,-0.406 C 62.0547,151.844 53.2148,138.324 38.7617,136.234 25.8672,135.246 12.793,137.918 0.894531,143.043 1.99609,132.641 4.10938,122.531 7.11719,112.809 17.0664,109.301 27.6484,107.711 38.1836,108.313 54.7539,110.27 64.3281,127.898 81,129.652 c 15.3633,1.438 29.156,-6.398 42.344,-12.918 12.691,-6.129 26.933,-9.32 41.054,-8.351 16.332,2.156 25.77,19.312 42.161,21.203 15.347,1.644 29.207,-6.199 42.41,-12.719 12.875,-6.262 27.312,-9.515 41.652,-8.418 9.77,1.438 17.008,8.133 24.836,13.656 2.438,9.926 3.91,20.215 4.383,30.754 -10.02,-6.004 -18.504,-15.656 -30.656,-16.742"
         style="fill:#273375;fill-opacity:1;fill-rule:nonzero;stroke:none"
         id="path18" /><path
         d="m 249.355,90.4297 c -13.39,6.6055 -27.253,14.4923 -42.746,12.9183 -16.441,-1.887 -25.879,-19.1175 -42.281,-21.1996 -14.23,-0.9648 -28.613,2.2891 -41.437,8.6211 C 109.684,97.2852 95.8203,104.988 80.5469,103.348 64.0859,101.258 54.6523,83.9844 38.1172,82.1016 31.9375,81.7188 25.7344,82.1211 19.6758,83.2266 25.3516,72.8945 32.125,63.2734 39.8477,54.4922 c 14.4179,2.7187 23.3476,16.7344 37.3711,20.3516 5.5937,1.4375 11.496,0.8554 17.121,-0.2032 13.0742,-2.6054 24.0582,-10.4922 36.3442,-15.1133 10.687,-4.1132 22.265,-6.0195 33.714,-5.2382 16.332,2.0937 25.77,19.3203 42.161,21.2109 15.543,1.6367 29.519,-6.3867 42.929,-12.9883 9.524,-4.5625 19.95,-7.4765 30.485,-8.2226 8.593,9.75 16.035,20.5351 22.078,32.1679 -3.731,-2.1992 -7.684,-3.8672 -12.145,-4.3554 -13.937,-0.8555 -27.996,2.2656 -40.551,8.3281"
         style="fill:#273375;fill-opacity:1;fill-rule:nonzero;stroke:none"
         id="path20" /><path
         d="m 206.668,49.2813 c -16.43,-1.8438 -25.938,-19.1172 -42.27,-21.2071 -11.66,-0.8515 -23.425,1.168 -34.296,5.4141 -11.766,4.4922 -22.368,11.9922 -34.7348,14.6719 -7.543,1.5664 -15.6758,2.2187 -22.8359,-1.1719 -5.3946,-2.4258 -10.1407,-6.1953 -14.9844,-9.7695 7.0664,-5.9336 14.6875,-11.254 22.7344,-15.9024 5.0078,0.6328 10.2382,0.0234 15.125,-1.0117 13.1797,-2.9453 24.2267,-11.03126 36.7817,-15.45704 7.433,-2.78516 15.273,-4.152347 23.16,-4.8281287 1.523,-0.0429688 3.097,-0.0664063 4.648,-0.0664063 1.617,0 3.215,0.0234375 4.832,0.0664063 C 177.875,2.51563 186.539,13.5 198.086,19.0039 c 7.184,3.4609 15.367,2.9453 22.922,1.3672 3.66,-0.8125 7.16,-2.0234 10.609,-3.4336 9.043,4.5586 17.625,9.9531 25.602,16.082 -2.668,0.9883 -5.301,2.1133 -7.864,3.3243 -13.32,6.539 -27.187,14.4843 -42.687,12.9375"
         style="fill:#273375;fill-opacity:1;fill-rule:nonzero;stroke:none"
         id="path22" /><path
         d="m 30.5625,163.711 h 8.2656 c 13.0117,2.492 21.6836,13.32 33.1133,18.934 7.293,3.636 15.7461,3.054 23.4649,1.41 13.1797,-2.918 24.2267,-11.004 36.7817,-15.453 7.687,-2.875 15.82,-4.247 23.953,-4.891 h 8.328 c 13.273,2.355 21.992,13.5 33.617,19.047 7.184,3.461 15.367,2.941 22.922,1.367 13.137,-2.852 24.258,-10.965 36.75,-15.391 7.855,-3.007 16.262,-4.445 24.597,-5.023 h 8.266 c 11.024,2.172 18.977,10.305 28.141,16.172 -1.051,8.351 -2.742,16.484 -5.035,24.394 -7.2,-5.257 -14.118,-11.14 -23.176,-12.449 -14.133,-1.098 -28.449,2.16 -41.196,8.293 -13.32,6.539 -27.187,14.488 -42.687,12.914 -16.43,-1.824 -25.938,-19.113 -42.27,-21.207 -11.66,-0.851 -23.425,1.172 -34.296,5.414 -2.067,0.789 -4.086,1.688 -6.063,2.61 h 35.918 v 18.039 c 1.488,0.019 2.961,0.066 4.441,0.175 16.332,2.09 25.77,19.317 42.161,21.207 15.543,1.618 29.519,-6.402 42.929,-12.984 12.692,-6.062 26.93,-9.277 40.992,-8.223 5.911,0.832 10.899,3.614 15.665,6.918 -3.399,7.59 -7.375,14.852 -11.848,21.77 -1.414,-0.406 -2.867,-0.723 -4.391,-0.902 -13.937,-0.852 -27.996,2.293 -40.551,8.355 -13.39,6.582 -27.253,14.488 -42.746,12.914 -16.441,-1.883 -25.879,-19.109 -42.281,-21.203 -1.449,-0.09 -2.914,-0.133 -4.371,-0.16 V 272 c 1.488,0 2.961,0.047 4.441,0.16 16.332,2.153 25.77,19.293 42.161,21.207 15.347,1.617 29.207,-6.203 42.41,-12.742 7.621,-3.684 15.754,-6.336 24.105,-7.664 -21.406,21.434 -48.836,36.824 -79.449,43.43 -9.773,-6 -18.156,-15.301 -30.012,-16.45 -1.207,-0.062 -2.422,-0.089 -3.656,-0.089 v 20.105 C 103.551,319.938 53.8203,290.465 25.332,246.168 v 0 c -0.1172,-0.156 -0.2304,-0.34 -0.3203,-0.496 -0.4062,-0.625 -0.7851,-1.231 -1.164,-1.867 -0.2188,-0.336 -0.4258,-0.668 -0.6211,-1.032 -0.4532,-0.695 -0.8594,-1.39 -1.2618,-2.109 -0.1718,-0.269 -0.3085,-0.516 -0.4687,-0.762 -0.5234,-0.918 -1.0625,-1.847 -1.5586,-2.785 -0.0391,-0.047 -0.0586,-0.09 -0.0898,-0.137 C 13.4258,225.391 8.43359,212.949 5.05469,199.852 H 55.9727 c -5.3907,-3.887 -11.0118,-7.301 -17.8555,-8.09 -11.4336,-0.692 -22.9805,1.281 -33.71876,5.437 -2.02735,-8.492 -3.38672,-17.25 -3.996096,-26.195 1.835936,-0.805 3.675786,-1.594 5.570316,-2.27 7.87504,-3.007 16.25784,-4.445 24.58984,-5.023"
         style="fill:#273375;fill-opacity:1;fill-rule:nonzero;stroke:none"
         id="path24" /><path
         d="m 50.1797,272.605 c 0,1.168 0,2.336 0,3.504 -1.2149,-1.144 -2.4258,-2.312 -3.5977,-3.504 1.1875,0 2.3828,0 3.5977,0"
         style="fill:#ffffff;fill-opacity:1;fill-rule:nonzero;stroke:none"
         id="path26" /><path
         d="m 50.1797,272.605 c -1.2149,0 -2.4102,0 -3.5977,0 -7.2343,-7.273 -13.7656,-15.226 -19.4922,-23.769 7.6758,0 15.379,0 23.0899,0 0,-16.305 -0.0469,-32.68 0,-48.984 6.5312,0 13.0156,0 19.5195,0 0.0508,16.304 0,32.679 0.0508,48.984 30.0234,0 60.105,0 90.137,0 0.07,7.934 0.07,15.816 0.051,23.769 -30.083,0 -60.1646,0 -90.188,0 -0.0195,6.426 -0.0195,12.875 -0.0195,19.317 -6.9375,-4.758 -13.4688,-10.039 -19.5508,-15.813 0,-1.168 0,-2.336 0,-3.504"
         style="fill:#d11d2c;fill-opacity:1;fill-rule:nonzero;stroke:none"
         id="path28" /><path
         d="m 159.387,319.938 c -0.782,0 -1.574,0 -2.379,-0.024 -20.59,-12.805 -41.375,-25.234 -62.0002,-37.965 -1.0508,-0.695 -2.1953,-1.078 -3.3555,-0.992 -4.6367,0.117 -9.2578,-0.086 -13.8984,0.117 20.4102,12.715 40.9841,24.957 61.4451,37.512 h -0.019 c -1.938,-0.246 -3.852,-0.535 -5.758,-0.852 -0.184,-0.043 -0.363,-0.066 -0.535,-0.086 -1.938,-0.343 -3.864,-0.718 -5.801,-1.125 -16.844,-10.312 -33.7813,-20.464 -50.6719,-30.73 -0.043,3.48 -0.043,6.965 -0.043,10.441 v 0 c -2.25,-1.39 -4.4688,-2.828 -6.6406,-4.312 0,-6.442 0,-12.891 0.0195,-19.317 30.0234,0 60.105,0 90.188,0 0.019,-7.953 0.019,-15.835 -0.051,-23.769 -30.032,0 -60.1136,0 -90.137,0 -0.0508,-16.305 0,-32.68 -0.0508,-48.984 2.2227,0 4.461,0 6.6719,0 0,11.929 -0.0469,23.851 0.043,35.777 18.5937,-11.184 37.1559,-22.477 55.7499,-33.734 1.527,-0.872 2.969,-2.247 4.789,-2.043 7.574,0.046 15.164,-0.047 22.727,0.046 -21.903,13.676 -44.075,26.684 -65.9691,40.411 4.7852,0.242 9.5901,0.062 14.3791,0.156 1.664,0.043 3.066,-1.168 4.535,-2 15.742,-9.641 31.492,-19.277 47.262,-28.93 0.109,-3.219 0.051,-6.476 0.07,-9.683 0.129,4.961 -0.07,9.882 -0.019,14.8 -14.04,8.625 -28.2,16.891 -42.145,25.719 14.02,0.18 28.105,0 42.145,0.094 0.058,13.476 0.058,27.012 0,40.562 -14.04,0.09 -28.125,-0.156 -42.145,0.09 13.895,8.875 28.211,16.899 42.094,25.856 0.109,4.34 0,8.648 0.019,12.984 -0.164,0 -0.336,-0.019 -0.519,-0.019"
         style="fill:#ffffff;fill-opacity:1;fill-rule:nonzero;stroke:none"
         id="path30" /><path
         d="m 139.199,318.586 c -20.461,-12.555 -41.0349,-24.797 -61.4451,-37.512 4.6406,-0.203 9.2617,0 13.8984,-0.117 1.1602,-0.086 2.3047,0.297 3.3555,0.992 20.6252,12.731 41.4102,25.16 62.0002,37.965 -6.016,-0.109 -11.949,-0.562 -17.809,-1.328"
         style="fill:#d11d2c;fill-opacity:1;fill-rule:nonzero;stroke:none"
         id="path32" /><path
         d="m 27.0898,248.836 c -2.7695,-4.106 -5.3476,-8.352 -7.7304,-12.727 1.5742,0.961 3.164,1.926 4.7578,2.899 1.1875,0.715 2.3867,1.543 3.7851,1.457 4.711,-0.094 9.4727,0.086 14.211,-0.156 -9.7695,-6.114 -19.5899,-12.067 -29.4336,-18.024 -0.9102,-2.172 -1.7852,-4.375 -2.6328,-6.601 10.9961,6.671 21.9883,13.324 32.9883,19.945 0.0468,-11.926 0,-23.848 0.0468,-35.777 2.3555,0 4.7188,0 7.0977,0 -0.0469,16.304 0,32.679 0,48.984 -7.7109,0 -15.4141,0 -23.0899,0"
         style="fill:#ffffff;fill-opacity:1;fill-rule:nonzero;stroke:none"
         id="path34" /><path
         d="m 42.1133,240.309 c -4.7383,0.242 -9.5,0.062 -14.211,0.156 -1.3984,0.086 -2.5976,-0.742 -3.7851,-1.457 -1.5938,-0.973 -3.1836,-1.938 -4.7578,-2.899 -2.4258,-4.472 -4.6758,-9.078 -6.6797,-13.824 9.8437,5.957 19.6641,11.91 29.4336,18.024"
         style="fill:#d11d2c;fill-opacity:1;fill-rule:nonzero;stroke:none"
         id="path36" /><path
         d="m 93.7109,240.309 c 4.7852,0.242 9.5901,0.062 14.3791,0.156 1.664,0.043 3.066,-1.168 4.535,-2 15.742,-9.641 31.492,-19.277 47.262,-28.93 0.109,-3.219 0.051,-6.476 0.07,-9.683 l -0.277,0.046 c -21.903,13.676 -44.075,26.684 -65.9691,40.411"
         style="fill:#d11d2c;fill-opacity:1;fill-rule:nonzero;stroke:none"
         id="path38" /><path
         d="m 259.949,217.527 c 1.555,2.43 2.906,5.036 4.528,7.411 0.425,-1.594 0.761,-3.196 1.168,-4.754 1.929,1.25 3.75,2.625 5.816,3.746 -1.059,-1.621 -2.309,-3.098 -3.391,-4.672 1.657,0.699 3.297,1.574 4.961,2.199 -1.953,-1.844 -4.238,-3.297 -6.222,-5.191 1.683,0.382 3.296,0.882 4.961,1.308 -2.774,-1.976 -6.223,-2.855 -8.754,-5.101 1.656,0.066 3.25,0.699 4.914,0.832 -2.625,-1.938 -5.996,-2.946 -8.262,-5.325 1.344,0.2 2.625,0.625 3.926,0.965 -2.629,-2.511 -6.078,-4.105 -8.508,-6.875 1.414,0.227 2.785,0.633 4.176,1.012 -2.852,-2.426 -6.172,-4.176 -8.742,-6.914 1.257,0.223 2.523,0.512 3.777,0.762 -4.031,-3.348 -8.41,-6.239 -12.527,-9.504 -0.485,-0.246 -0.926,-0.516 -1.379,-0.762 1.574,4.649 3.285,9.211 4.968,13.813 -0.254,0.339 -0.519,0.632 -0.718,0.968 0.464,1.637 0.964,3.325 1.457,4.942 0.476,-0.875 0.875,-1.754 1.347,-2.625 2.086,2.242 1.996,5.773 3.215,8.582 0.582,-1.176 1.078,-2.34 1.574,-3.555 0.918,2.473 1.926,4.941 2.606,7.434 0.281,-0.696 0.574,-1.41 0.875,-2.18 1.418,2.113 2.203,4.496 3.457,6.676 0.246,-1.106 0.496,-2.133 0.777,-3.192"
         style="fill:#216a32;fill-opacity:1;fill-rule:nonzero;stroke:none"
         id="path40" /><path
         d="m 215.863,206.227 c 0.719,0.293 1.442,-0.762 1.063,-1.387 -0.586,-0.047 -1.133,0.875 -1.063,1.387"
         style="fill:#28387a;fill-opacity:1;fill-rule:nonzero;stroke:none"
         id="path42" /><path
         d="m 271.906,199.852 c 2.516,1.484 4.754,3.32 7.266,4.644 -0.91,-1.414 -1.918,-2.762 -2.848,-4.176 2.25,0.336 4.442,0.879 6.699,1.168 -1.636,-1.461 -3.519,-2.625 -5.234,-4.023 1.941,-0.289 3.844,-0.289 5.688,-0.715 -2.926,-0.582 -5.801,-1.285 -8.692,-2.094 1.348,-0.484 2.711,-0.824 4.106,-1.254 -2.805,-0.539 -5.731,-0.289 -8.532,-0.922 0.586,-0.964 1.926,-0.988 2.899,-1.503 -2.817,-0.629 -5.93,0.179 -8.492,-1.215 1.16,-0.446 2.425,-0.828 3.636,-1.258 -3.453,-0.402 -6.941,-0.871 -10.394,-1.258 0,-0.199 -0.09,-0.629 -0.09,-0.828 1.004,-0.293 2.016,-0.582 3.047,-0.922 -3.449,-0.766 -7.055,-0.832 -10.52,-1.508 1.383,-1.683 3.762,-1.457 5.711,-1.793 -5.636,0.36 -11.269,-2.265 -16.734,-0.14 -0.379,0.836 -0.82,1.644 -1.301,2.472 1.371,1.063 3.067,1.641 4.481,2.653 1.406,0.941 2.8,2.043 4.171,3.101 0.383,-0.183 0.743,-0.383 1.122,-0.605 2.55,2.109 4.964,4.312 7.57,6.379 -0.434,-1.106 -0.813,-2.18 -1.106,-3.348 3.2,1.508 5.348,4.422 8.278,6.402 -0.41,-1.062 -0.793,-2.05 -1.176,-3.097 2.766,0.668 4.133,3.683 6.469,5.136 -0.313,-0.964 -0.653,-1.953 -0.946,-3.007 2.586,1.214 4.141,3.863 6.512,5.433 -0.512,-1.254 -1.101,-2.465 -1.59,-3.722"
         style="fill:#226b33;fill-opacity:1;fill-rule:nonzero;stroke:none"
         id="path44" /><path
         d="m 207.191,196.012 c 0.286,0.082 0.786,0.285 1.036,0.379 0.472,-0.094 0.925,-0.18 1.371,-0.297 2.691,-0.809 5.398,-1.68 8.062,-2.465 0.625,-0.27 1.594,-0.289 1.703,-1.149 -1.117,-0.289 -2.332,-0.335 -3.457,-0.539 1.887,-0.714 3.836,-1.25 5.821,-1.843 -0.133,0.34 -0.426,0.972 -0.555,1.304 3.769,-1.257 7.516,-2.468 11.246,-3.863 -0.223,-0.113 -0.719,-0.336 -0.957,-0.449 -2.684,0.922 -5.402,1.844 -8.121,2.715 0.762,-1.117 1.551,-2.215 2.144,-3.387 -3.175,0.785 -5.812,2.898 -8.812,4.109 0.695,-1.105 1.453,-2.132 2.199,-3.281 -2.238,0.676 -4.418,1.484 -6.625,2.227 0.246,0.082 0.785,0.332 1.027,0.465 1.09,-0.422 2.282,-0.762 3.399,-1.051 -0.809,1.347 -1.793,2.629 -3.399,3.097 0.047,0.137 0.094,0.45 0.141,0.633 1.078,0.133 2.16,0.246 3.258,0.383 -3.152,1.121 -6.309,1.996 -9.481,3.012"
         style="fill:#ffffff;fill-opacity:1;fill-rule:nonzero;stroke:none"
         id="path46" /><path
         d="m 263.797,174.445 c 0.269,-0.043 0.769,-0.132 1.012,-0.179 0.046,-0.203 0.093,-0.629 0.093,-0.836 -0.925,-0.2 -1.843,-0.446 -2.773,-0.715 3.226,-1.215 6.976,-0.988 9.93,-2.766 -0.891,-0.336 -1.86,-0.586 -2.782,-0.871 2.629,-0.703 5.395,-0.879 7.977,-1.594 -0.973,-0.675 -2.137,-0.964 -3.258,-1.257 2.766,-0.747 5.934,-0.297 8.359,-1.957 -1.441,-0.336 -2.851,-0.582 -4.226,-0.832 2.68,-1.262 5.773,-1.551 8.219,-3.239 -0.731,-0.199 -1.543,-0.422 -2.285,-0.582 -0.766,0.293 -1.415,0.676 -2.145,1.012 0.301,0.023 0.793,0.113 1.066,0.16 -2.605,1.051 -5.351,1.637 -7.867,2.856 1.262,0.328 2.559,0.488 3.801,0.871 -2.68,0.718 -5.5,0.789 -8.176,1.64 0.871,1.032 2.383,0.696 3.59,1.032 -2.918,0.765 -5.879,0.964 -8.809,1.691 1.036,1.027 2.547,0.961 3.848,1.211 -3.445,1.297 -7.527,1.004 -10.574,2.961 1.246,0.336 2.594,0.519 3.84,0.922 0.379,0.129 0.808,0.293 1.16,0.472"
         style="fill:#f2f4f8;fill-opacity:1;fill-rule:nonzero;stroke:none"
         id="path48" /><path
         d="m 219.348,160.539 c 1.797,2.379 2.91,5.188 4.867,7.457 0.137,-1.008 0.258,-2.066 0.39,-3.055 0.063,-0.378 0.157,-0.761 0.247,-1.144 -0.43,-0.453 -0.84,-0.879 -1.266,-1.281 -0.07,1.039 -0.113,2.047 -0.113,3.054 -1.461,-2.273 -2.844,-4.578 -4.219,-6.871 -0.203,-0.043 -0.672,-0.043 -0.875,-0.09 -0.043,0.672 -0.094,1.344 -0.133,1.973 -1.082,-1.633 -1.949,-3.391 -2.785,-5.164 -0.223,-0.07 -0.672,-0.207 -0.867,-0.25 -0.102,0.719 -0.192,1.441 -0.25,2.09 -0.047,0.18 -0.106,0.472 -0.106,0.629 0.254,-0.157 0.844,-0.492 1.137,-0.653 1.457,1.954 1.93,4.676 3.926,6.227 0.047,-0.945 0.047,-1.91 0.047,-2.922"
         style="fill:#fbfeff;fill-opacity:1;fill-rule:nonzero;stroke:none"
         id="path50" /><path
         d="m 232.535,233.188 c 1.02,-1.958 1.785,-4.047 2.746,-6.071 1.34,1.125 2.594,2.383 3.899,3.574 -0.09,-2.808 -0.52,-5.57 -0.629,-8.382 0.922,0.793 1.746,1.621 2.637,2.425 -0.254,-2.222 -0.934,-4.351 -1.137,-6.574 0.293,-1.308 1.379,0.332 1.961,0.715 -0.746,-2.473 -1.551,-4.895 -2.188,-7.414 1.18,0.727 2.321,1.465 3.449,2.176 -0.761,-2.758 -2.136,-5.367 -2.722,-8.215 1.121,-0.789 2.14,0.855 3.125,1.305 -0.946,-2.809 -2.047,-5.579 -2.961,-8.379 1.168,-0.7 2.125,0.672 3.18,1.144 -1.383,-3.961 -2.856,-7.887 -4.231,-11.765 -0.191,-1.02 -1.062,-1.508 -1.828,-2.094 -0.836,0.941 -1.703,1.859 -2.09,3.121 -1.672,4.648 -3.551,9.23 -5.121,13.898 1.027,-0.871 1.754,-2.175 3.027,-2.754 -0.578,3.383 -2.379,6.446 -3.254,9.766 0.969,-0.922 1.797,-2.066 2.965,-2.734 -0.539,3.41 -2.375,6.465 -3.258,9.808 1.102,-0.758 1.684,-2.375 3.149,-2.468 -1.219,2.808 -2.895,5.343 -4.141,8.105 1.422,-0.789 2.211,-2.574 3.91,-2.828 -1.21,2.672 -3.125,4.965 -4.281,7.711 1.156,-0.926 2.18,-2.067 3.25,-3.063 -0.625,2.496 -1.66,4.856 -2.222,7.375 1.105,-1.398 1.98,-2.902 2.945,-4.363 0,2 -0.18,4.023 -0.18,5.981"
         style="fill:#236d34;fill-opacity:1;fill-rule:nonzero;stroke:none"
         id="path52" /><path
         d="m 267.93,213.305 c 0.269,-0.086 0.722,-0.246 0.972,-0.289 -1.425,-0.879 -2.836,-1.692 -4.23,-2.563 0.726,-0.047 1.394,-0.094 2.047,-0.094 -2.629,-2.421 -5.754,-4.222 -8.375,-6.554 1.265,0.293 2.527,0.629 3.883,0.828 -2.434,-2.719 -5.848,-4.27 -8.45,-6.785 1.219,0.293 2.418,0.632 3.641,0.925 -0.383,-1.308 -0.867,-2.605 -1.352,-3.933 2.907,1.91 5.036,5.012 8.289,6.269 -0.265,-0.879 -0.558,-1.796 -0.8,-2.675 2.129,1.55 3.636,3.863 5.972,5.097 -0.156,-0.945 -0.339,-1.863 -0.531,-2.828 1.875,1.707 3.656,3.508 5.547,5.231 0.09,-0.219 0.289,-0.668 0.422,-0.871 -0.332,-0.922 -0.723,-1.848 -1.016,-2.809 2.43,1.371 4.625,3.141 7.055,4.566 0.047,-2.14 -1.902,-3.539 -2.785,-5.289 2.433,0.16 4.804,1.352 7.207,1.055 -1.203,-2.066 -3.699,-2.891 -5.375,-4.539 1.867,-0.242 3.812,-0.445 5.722,-0.672 0,-0.246 -0.089,-0.738 -0.089,-0.937 -0.157,-0.047 -0.446,-0.047 -0.606,-0.047 -0.515,0.109 -1.055,0.246 -1.601,0.359 -1.844,0.426 -3.747,0.426 -5.688,0.715 1.715,1.398 3.598,2.562 5.234,4.023 -2.257,-0.289 -4.449,-0.832 -6.699,-1.168 0.93,1.414 1.938,2.762 2.848,4.176 -2.512,-1.324 -4.75,-3.16 -7.266,-4.644 0.489,1.257 1.078,2.468 1.59,3.722 -2.371,-1.57 -3.926,-4.219 -6.512,-5.433 0.293,1.054 0.633,2.043 0.946,3.007 -2.336,-1.453 -3.703,-4.468 -6.469,-5.136 0.383,1.047 0.766,2.035 1.176,3.097 -2.93,-1.98 -5.078,-4.894 -8.278,-6.402 0.293,1.168 0.672,2.242 1.106,3.348 -2.606,-2.067 -5.02,-4.27 -7.57,-6.379 -0.379,0.222 -0.739,0.422 -1.122,0.605 -1.371,-1.058 -2.765,-2.16 -4.171,-3.101 -0.211,0.023 -0.637,0.203 -0.832,0.246 4.117,3.265 8.496,6.156 12.527,9.504 -1.254,-0.25 -2.52,-0.539 -3.777,-0.762 2.57,2.738 5.89,4.488 8.742,6.914 -1.391,-0.379 -2.762,-0.785 -4.176,-1.012 2.43,2.77 5.879,4.364 8.508,6.875 -1.301,-0.34 -2.582,-0.765 -3.926,-0.965 2.266,2.379 5.637,3.387 8.262,5.325"
         style="fill:#236d34;fill-opacity:1;fill-rule:nonzero;stroke:none"
         id="path54" /><path
         d="m 202.813,213.305 c 2.16,-1.797 3.957,-3.977 6.128,-5.817 -0.222,1.254 -0.421,2.535 -0.586,3.836 1.965,-1.836 2.633,-5.047 5.165,-6.152 -0.106,1.012 -0.29,1.98 -0.403,2.988 1.965,-1.933 2.746,-4.945 5.168,-6.336 -0.039,1.684 -0.336,3.258 -0.918,4.809 1.102,-2.336 2.922,-4.18 4.469,-6.27 0.785,-1.008 1.457,-2.355 2.875,-2.605 -0.106,1.105 -0.238,2.14 -0.359,3.234 2.433,-2.308 3.707,-5.996 6.773,-7.5 -0.137,1.121 -0.297,2.227 -0.43,3.348 3.379,-3.098 3.243,-8.086 6.172,-11.477 -1.504,0.672 -2.972,1.524 -4.449,2.176 -3.73,1.395 -7.477,2.606 -11.246,3.863 0.129,-0.332 0.422,-0.964 0.555,-1.304 -1.985,0.593 -3.934,1.129 -5.821,1.843 1.125,0.204 2.34,0.25 3.457,0.539 -0.109,0.86 -1.078,0.879 -1.703,1.149 -2.664,0.785 -5.371,1.656 -8.062,2.465 1.211,0.297 2.507,0.453 3.675,0.926 -2.621,1.253 -5.632,1.375 -8.3,2.535 1.054,0.297 2.621,-0.242 3.293,0.855 -2.711,0.988 -5.637,1.281 -8.352,2.383 1.59,0.137 3.149,0.156 4.68,0.289 -2.59,1.395 -5.375,2.27 -7.946,3.645 1.899,-0.094 3.758,-0.293 5.649,-0.411 -1.457,1.622 -2.965,3.172 -4.332,4.852 2.195,-0.715 4.371,-1.68 6.609,-2.426 -0.566,1.555 -1.176,3.063 -1.761,4.563"
         style="fill:#236d34;fill-opacity:1;fill-rule:nonzero;stroke:none"
         id="path56" /><path
         d="m 208.902,190.527 c 1.114,-0.339 2.25,-0.675 3.344,-1.054 2.207,-0.743 4.387,-1.551 6.625,-2.227 -0.746,1.149 -1.504,2.176 -2.199,3.281 3,-1.211 5.637,-3.324 8.812,-4.109 -0.593,1.172 -1.382,2.27 -2.144,3.387 2.719,-0.871 5.437,-1.793 8.121,-2.715 2.434,-1.211 5.406,-2.067 6.949,-4.535 -2.535,-1.75 -5.746,-1.086 -8.512,-2.289 -2.136,-0.883 -4.261,-1.848 -6.425,-2.629 0.363,0.922 0.777,1.836 1.195,2.758 -3.23,-0.379 -6.496,-0.965 -9.742,-1.348 0.738,0.637 1.527,1.219 2.328,1.801 -0.09,0.156 -0.293,0.488 -0.422,0.621 -2.785,-0.774 -5.598,-1.539 -8.367,-2.469 0.547,0.637 1.109,1.266 1.601,1.934 -2.875,-0.512 -5.425,-1.977 -8.265,-2.715 0.965,0.984 1.914,2 2.929,3.008 -0.136,0.152 -0.339,0.492 -0.433,0.675 -2.348,-1.191 -4.586,-2.519 -6.973,-3.664 0.68,0.946 1.379,1.825 1.91,2.817 -2.336,-0.703 -3.949,-2.59 -6.125,-3.649 0.965,1.641 2.176,3.102 3.168,4.649 -2.293,-0.676 -4.453,-1.703 -6.757,-2.328 2.218,1.836 4.718,3.296 7.027,5.05 -0.883,0.469 -1.75,0.969 -2.613,1.504 2.179,-0.203 4.32,-0.648 6.472,-0.941 -0.828,1.164 -1.652,2.336 -2.441,3.504 2.719,-0.875 5.348,-2.043 8.101,-2.922 -0.851,1.281 -1.769,2.492 -2.644,3.754 2.801,-0.922 5.48,-2.086 8.234,-3.012 -0.867,1.305 -1.832,2.559 -2.754,3.863"
         style="fill:#236d34;fill-opacity:1;fill-rule:nonzero;stroke:none"
         id="path58" /><path
         d="m 237.156,180.895 c 1.215,0.199 2.469,0.378 3.688,0.039 5.004,-1.164 10.015,-2.219 14.972,-3.34 -1.312,-0.274 -2.683,-0.524 -3.949,-1.016 3.418,-1.394 7.145,-1.793 10.77,-2.605 -1.246,-0.403 -2.594,-0.586 -3.84,-0.922 3.047,-1.957 7.129,-1.664 10.574,-2.961 -1.301,-0.25 -2.812,-0.184 -3.848,-1.211 2.93,-0.727 5.891,-0.926 8.809,-1.691 -1.207,-0.336 -2.719,0 -3.59,-1.032 2.676,-0.851 5.496,-0.922 8.176,-1.64 -1.242,-0.383 -2.539,-0.543 -3.801,-0.871 2.516,-1.219 5.262,-1.805 7.867,-2.856 -0.273,-0.047 -0.765,-0.137 -1.066,-0.16 -1.496,0.023 -3,0.023 -4.512,0.023 1.61,-1.464 3.266,-2.789 4.723,-4.422 -2.293,0.493 -4.453,1.297 -6.723,1.836 0.727,-1.457 1.508,-2.898 2.227,-4.312 -2.336,1.547 -4.317,3.551 -6.645,5.144 0.336,-1.3 0.719,-2.562 1.051,-3.843 -1.84,1.847 -3.387,3.933 -5.098,5.914 -0.222,-0.09 -0.582,-0.274 -0.765,-0.34 0.222,-0.902 0.429,-1.816 0.633,-2.695 -2.086,1.793 -3.215,4.652 -5.754,5.91 0.156,-1.129 0.359,-2.223 0.629,-3.352 -2.551,2.18 -4.344,5.391 -7.325,6.992 -0.043,-1.082 0.258,-2.093 0.434,-3.129 -2.578,2.137 -4.348,5.305 -7.305,6.942 0.117,-1.125 0.309,-2.219 0.539,-3.301 -2.668,2.629 -5.187,5.434 -7.773,8.106 -1.305,1.445 -3.047,2.699 -3.098,4.793"
         style="fill:#236d34;fill-opacity:1;fill-rule:nonzero;stroke:none"
         id="path60" /><path
         d="m 224.941,177.32 c 3.747,1.594 7.477,3.282 11.614,3.391 -2.367,-3.934 -4.742,-7.816 -7.082,-11.746 0,1.074 0.09,2.129 0.09,3.215 -2.375,-1.664 -3.254,-4.899 -4.958,-7.239 -0.132,0.989 -0.253,2.047 -0.39,3.055 -1.957,-2.269 -3.07,-5.078 -4.867,-7.457 0,1.012 0,1.977 -0.047,2.922 -1.996,-1.551 -2.469,-4.273 -3.926,-6.227 0,0.95 0.086,1.911 0.086,2.875 -2.047,-1.363 -2.344,-4.261 -3.938,-6.062 0.047,1.207 0.157,2.473 0.293,3.683 -1.64,-1.882 -3.007,-3.976 -4.757,-5.773 0.332,1.418 0.781,2.809 1.168,4.273 -1.848,-0.812 -3.551,-1.843 -5.391,-2.609 1.059,1.68 2.309,3.145 3.305,4.832 -1.547,-0.226 -3.039,-0.519 -4.547,-0.676 1.828,1.368 3.961,2.289 5.929,3.547 0.196,0.137 0.407,0.254 0.645,0.43 -1.199,0.086 -2.371,0.156 -3.574,0.246 2.074,0.965 4.347,1.508 6.437,2.473 -0.625,0.804 -1.726,0.488 -2.605,0.715 1.98,1.375 4.758,1.214 6.5,2.964 -1.153,0.223 -2.367,0.246 -3.492,0.246 2.675,1.598 6.308,1.981 8.527,4.204 -1.09,0.113 -2.168,0.203 -3.219,0.293 2.621,1.168 5.317,2.289 7.969,3.343 0.09,0.293 0.18,0.832 0.23,1.082"
         style="fill:#236d34;fill-opacity:1;fill-rule:nonzero;stroke:none"
         id="path62" /><path
         d="m 232.535,172.559 c 1.293,2.089 2.528,4.265 3.887,6.398 1.359,-1.594 2.824,-3.055 4.293,-4.602 -0.797,0.09 -1.813,0 -1,-0.832 1.851,-1.976 4.004,-3.574 5.699,-5.617 -1.066,0.293 -2.101,0.668 -3.246,0.828 1.687,-2.464 4.168,-4.129 6.191,-6.308 -1.043,0.047 -2.132,0.828 -3.187,0.379 1.601,-1.77 3.601,-3.078 5.305,-4.739 -1.036,0.293 -2.082,0.633 -3.211,0.633 1.687,-1.734 3.593,-3.144 5.398,-4.785 l -0.383,-0.16 c -1.039,0.43 -2.054,0.879 -3.086,1.258 1.325,-2.063 3.086,-3.774 4.5,-5.797 -1.48,0.769 -2.882,1.73 -4.39,2.519 0.297,-1.843 0.761,-3.593 1.058,-5.39 -1.41,1.461 -2.668,3.051 -4.187,4.445 -0.465,-1.641 -0.774,-3.363 -0.66,-5.074 -0.743,2.515 -1.375,5.098 -2.133,7.66 -0.582,-0.969 -1.082,-2 -1.613,-2.965 -0.204,2.133 -0.204,4.223 -0.383,6.313 -0.16,0 -0.586,0 -0.797,-0.047 -0.336,-0.696 -0.672,-1.422 -1.055,-2.133 -0.402,2.09 0.047,4.406 -0.586,6.426 -1.211,0.199 -1.23,-1.735 -1.859,-2.469 -0.289,2.668 -0.469,5.387 -0.957,8.02 -1.27,0.425 -1.387,-1.559 -2.016,-2.297 -0.332,2.586 -0.582,5.187 -0.863,7.797 -0.18,0.113 -0.539,0.402 -0.719,0.539"
         style="fill:#236d34;fill-opacity:1;fill-rule:nonzero;stroke:none"
         id="path64" /><path
         d="m 245.172,162.805 c 1.055,0.449 2.144,-0.332 3.187,-0.379 0.301,0.09 0.594,0.16 0.907,0.246 0.601,-0.586 1.14,-1.164 1.683,-1.746 -0.883,0 -1.797,0.066 -2.679,0.199 1.546,-1.594 3.558,-2.723 4.773,-4.605 -0.883,0.113 -1.762,0.332 -2.598,0.492 1.172,-1.164 2.414,-2.246 3.715,-3.301 -0.422,-0.473 -0.832,-0.875 -1.25,-1.305 -0.066,0.543 -0.59,0.879 -1.043,1.149 l 0.414,0.199 0.383,0.16 c -1.805,1.641 -3.711,3.051 -5.398,4.785 1.129,0 2.175,-0.34 3.211,-0.633 -1.704,1.661 -3.704,2.969 -5.305,4.739"
         style="fill:#236d34;fill-opacity:1;fill-rule:nonzero;stroke:none"
         id="path66" /><path
         d="m 201.594,161.258 c 0.293,0.25 0.539,0.652 0.926,0.875 0.652,-0.047 1.375,-0.09 2.074,-0.133 1.203,-0.09 2.375,-0.16 3.574,-0.246 -0.238,-0.176 -0.449,-0.293 -0.645,-0.43 -1.679,0.383 -3.382,0.336 -5.003,-0.109 -0.27,0 -0.719,0.043 -0.926,0.043"
         style="fill:#98b09b;fill-opacity:1;fill-rule:nonzero;stroke:none"
         id="path68" /><path
         d="m 262.473,161.551 c 0.457,-0.516 0.925,-1.059 1.324,-1.598 -0.203,-0.133 -0.652,-0.383 -0.867,-0.512 -0.164,0.711 -0.293,1.395 -0.457,2.11"
         style="fill:#28387a;fill-opacity:1;fill-rule:nonzero;stroke:none"
         id="path70" /><path
         d="m 235.152,142.48 c 0.793,6.247 -0.039,12.575 0.684,18.801 0.332,-1.504 0.199,-3.215 1.164,-4.558 0.445,0.625 0.875,1.254 1.32,1.84 0.231,-1.93 0.282,-3.887 0.391,-5.86 0.191,0.047 0.672,0.18 0.871,0.223 0.18,0.293 0.492,0.828 0.672,1.078 0.297,-3.524 0.09,-7.031 0.246,-10.606 -1.301,-0.039 -2.625,-0.039 -3.945,-0.089 0.582,-0.938 1.164,-1.95 1.66,-2.965 -1.164,0.472 -2.223,1.172 -3.063,2.136"
         style="fill:#9d391f;fill-opacity:1;fill-rule:nonzero;stroke:none"
         id="path72" /><path
         d="m 251.645,153.465 0.222,0.09 c 0.453,-0.27 0.977,-0.606 1.043,-1.149 -0.59,-0.449 -1.668,0.387 -1.265,1.059"
         style="fill:#28387a;fill-opacity:1;fill-rule:nonzero;stroke:none"
         id="path74" /><path
         d="m 240.883,148.008 c 1.082,0.758 1.668,1.926 2.254,3.094 0.246,-0.938 0.539,-1.887 0.801,-2.805 -1.004,-0.113 -2.055,-0.242 -3.055,-0.289"
         style="fill:#28387a;fill-opacity:1;fill-rule:nonzero;stroke:none"
         id="path76" /><path
         d="m 236.555,143.309 c 1.32,0.05 2.644,0.05 3.945,0.089 0.051,-0.539 0.051,-1.078 0.09,-1.636 0.164,0.129 0.598,0.426 0.797,0.609 0.199,-1.488 0.34,-2.945 -0.121,-4.316 -0.129,0.019 -0.422,0.156 -0.551,0.25 0.289,-2.188 1.976,-4.317 0.219,-6.383 0.105,-0.203 0.351,-0.582 0.496,-0.746 0.086,-0.18 0.242,-0.422 0.34,-0.582 0.242,0 0.691,-0.09 0.96,-0.129 0.583,0 1.165,0 1.793,0.039 0.79,0.09 1.625,0.156 2.45,0.293 0.722,0.133 1.422,0.293 2.179,0.433 0.664,0.067 1.368,0.161 2.09,0.2 0.293,0 0.918,0.047 1.211,0.047 1.844,0.242 3.742,0.152 5.176,-1.149 0.574,-0.316 1.215,-0.609 1.832,-0.922 -0.09,-0.023 -0.289,-0.156 -0.379,-0.25 0.336,-0.402 0.676,-0.828 1.004,-1.258 0.453,-0.582 0.926,-1.207 1.305,-1.835 0.113,-0.364 0.238,-0.747 0.336,-1.129 -0.313,-1.457 0.453,-2.516 1.961,-2.672 -0.473,0 -0.969,-0.047 -1.422,-0.09 -0.582,-1.41 -1.211,-2.852 -1.883,-4.223 0.43,-0.043 0.828,-0.133 1.246,-0.179 -0.949,-0.204 -2.41,-0.157 -2.367,-1.504 -0.043,-1.305 1.367,-1.262 2.285,-1.461 -0.336,-0.133 -0.676,-0.246 -0.965,-0.383 -0.199,-1.055 -0.383,-2.039 -0.582,-3.098 -0.293,0 -0.828,-0.094 -1.078,-0.094 -0.477,1.352 -1.164,2.657 -1.887,3.915 0.883,1.367 1.887,2.761 2.574,4.312 0.434,1.211 0.774,2.422 1.02,3.684 0,3.211 -2.621,6.015 -5.383,7.273 -4.586,0.469 -9.07,-1.211 -13.617,-1.164 0,-1.086 0,-2.137 -0.043,-3.23 0,-2.59 0,-5.192 0,-7.821 -0.582,0.043 -1.195,0.043 -1.801,0.043 0,0.25 0,0.696 0,0.922 0.715,2.43 -3.465,2.43 -2.734,0 0,-0.25 0,-0.672 0,-0.922 -0.629,0 -1.215,0 -1.848,-0.043 0,2.563 0.051,5.102 0,7.656 0,1.84 -0.051,3.684 0.051,5.536 0.582,-0.121 1.211,-0.215 1.797,-0.352 0.105,-0.043 0.394,-0.086 0.535,-0.086 -0.496,-0.941 -0.535,-1.953 -0.09,-2.918 -0.16,-0.582 -0.359,-1.121 -0.445,-1.726 0,-0.289 0,-0.836 0.039,-1.129 0.293,-1.344 -0.719,-4.262 1.523,-4.012 1.797,0.242 0.809,2.758 1.149,4.012 0,0.293 0.023,0.84 0.023,1.105 -0.121,0.582 -0.293,1.168 -0.5,1.75 0.379,0.832 0.43,1.754 0.188,2.625 0.152,0.969 0.312,1.895 0.535,2.809 -0.133,1.644 -3.09,1.734 -3.055,0 0,-0.629 0.047,-1.211 0.047,-1.84 -0.578,0.562 -1.215,1.055 -1.848,1.504 0,0.808 0,1.597 0.051,2.402 1.168,1.891 3.348,2.43 5.387,1.617 -0.039,1.352 -0.516,2.453 -1.879,2.77 0.086,-0.629 0.172,-1.285 0.238,-1.957 -0.289,0 -0.871,0 -1.168,0 0.094,0.672 0.188,1.308 0.25,1.957 -1.078,-0.539 -2.086,-1.262 -2.918,-2.141 -0.109,1.559 -0.152,3.149 0.039,4.699 0.84,-0.964 1.899,-1.664 3.063,-2.136 -0.496,1.015 -1.078,2.027 -1.66,2.965"
         style="fill:#f0da0a;fill-opacity:1;fill-rule:nonzero;stroke:none"
         id="path78" /><path
         d="m 238.613,140.391 c 0.391,0.968 0.922,1.886 1.731,2.515 0.41,-1.39 -0.426,-2.312 -1.731,-2.515"
         style="fill:#914b1d;fill-opacity:1;fill-rule:nonzero;stroke:none"
         id="path80" /><path
         d="m 241.387,142.371 c 0.129,0.063 0.422,0.289 0.539,0.356 0.039,-1.707 0.039,-3.434 0.039,-5.141 -0.156,0.133 -0.535,0.332 -0.699,0.469 0.461,1.371 0.32,2.828 0.121,4.316"
         style="fill:#bbb783;fill-opacity:1;fill-rule:nonzero;stroke:none"
         id="path82" /><path
         d="m 235.113,137.781 c 0.832,0.879 1.84,1.602 2.918,2.141 -0.062,-0.649 -0.156,-1.285 -0.25,-1.957 0.297,0 0.879,0 1.168,0 -0.066,0.672 -0.152,1.328 -0.238,1.957 1.363,-0.317 1.84,-1.418 1.879,-2.77 -2.039,0.813 -4.219,0.274 -5.387,-1.617 0,0.742 0,1.508 -0.09,2.246"
         style="fill:#9b3a1f;fill-opacity:1;fill-rule:nonzero;stroke:none"
         id="path84" /><path
         d="m 236.953,133.469 c -0.035,1.734 2.922,1.644 3.055,0 -1.004,0.722 -2.133,0.859 -3.055,0"
         style="fill:#5e5a35;fill-opacity:1;fill-rule:nonzero;stroke:none"
         id="path86" /><path
         d="m 220.758,131.676 c -1.996,0 -1.637,3.347 0.344,2.765 1.503,-0.25 0.976,-1.957 0.492,-2.851 -0.211,0 -0.629,0.086 -0.836,0.086"
         style="fill:#ffffff;fill-opacity:1;fill-rule:nonzero;stroke:none"
         id="path88" /><path
         d="m 236.953,133.469 c 0.922,0.859 2.051,0.722 3.055,0 -0.223,-0.914 -0.383,-1.84 -0.535,-2.809 0.242,-0.871 0.191,-1.793 -0.188,-2.625 0.207,-0.582 0.379,-1.168 0.5,-1.75 -0.453,-1.262 -2.289,-1.219 -2.734,0.024 0.086,0.605 0.285,1.144 0.445,1.726 -0.445,0.965 -0.406,1.977 0.09,2.918 -0.141,0 -0.43,0.043 -0.535,0.086 l -0.051,0.59 c 0,0.629 -0.047,1.211 -0.047,1.84"
         style="fill:#ffffff;fill-opacity:1;fill-rule:nonzero;stroke:none"
         id="path90" /><path
         d="m 250.133,132.258 c 0.094,1.055 0.859,2.472 2.101,1.847 1.211,-0.457 0.809,-1.847 0.219,-2.628 -0.293,0 -0.918,-0.047 -1.211,-0.047 -0.383,0.289 -0.722,0.543 -1.109,0.828"
         style="fill:#ffffff;fill-opacity:1;fill-rule:nonzero;stroke:none"
         id="path92" /><path
         d="m 254.652,134.105 c 1.305,1.254 3.266,-0.746 2.028,-2.003 -1.301,-1.305 -3.352,0.718 -2.028,2.003"
         style="fill:#ffffff;fill-opacity:1;fill-rule:nonzero;stroke:none"
         id="path94" /><path
         d="m 226.445,133.426 c 0.649,-0.586 0.985,-1.414 1.164,-2.293 -0.808,0.097 -1.55,0.164 -2.304,0.207 0.422,0.715 0.754,1.39 1.14,2.086"
         style="fill:#30426e;fill-opacity:1;fill-rule:nonzero;stroke:none"
         id="path96" /><path
         d="m 229.949,133.063 c 0.246,-0.379 0.449,-0.805 0.696,-1.188 0.23,0.18 0.589,0.52 0.816,0.68 -0.055,-0.297 -0.137,-0.926 -0.227,-1.215 0.172,-0.207 0.516,-0.633 0.672,-0.836 -0.781,0.09 -1.625,0.156 -2.48,0.293 0.187,0.242 0.523,0.723 0.679,0.969 -0.046,0.336 -0.117,0.964 -0.156,1.297"
         style="fill:#283676;fill-opacity:1;fill-rule:nonzero;stroke:none"
         id="path98" /><path
         d="m 235.152,133.133 c 0.633,-0.449 1.27,-0.942 1.848,-1.504 l 0.051,-0.59 c -0.586,0.137 -1.215,0.231 -1.797,0.352 -0.051,0.582 -0.051,1.164 -0.102,1.742"
         style="fill:#743d19;fill-opacity:1;fill-rule:nonzero;stroke:none"
         id="path100" /><path
         d="m 245.711,131.813 c 0.277,0.398 0.516,0.828 0.773,1.25 -0.046,-0.333 -0.148,-0.961 -0.168,-1.297 0.168,-0.246 0.504,-0.727 0.657,-0.969 -0.825,-0.137 -1.66,-0.203 -2.45,-0.293 0.157,0.203 0.5,0.629 0.649,0.836 -0.067,0.289 -0.149,0.918 -0.195,1.215 0.156,-0.203 0.578,-0.582 0.734,-0.742"
         style="fill:#283676;fill-opacity:1;fill-rule:nonzero;stroke:none"
         id="path102" /><path
         d="m 216.926,129.449 c -1.371,0.34 -1.512,2.563 0,2.809 1.246,0.336 1.656,-1.028 1.859,-1.953 -0.59,-0.34 -1.191,-0.629 -1.859,-0.856"
         style="fill:#ffffff;fill-opacity:1;fill-rule:nonzero;stroke:none"
         id="path104" /><path
         d="m 234.117,132.148 c 0.371,-0.273 0.746,-0.519 1.137,-0.757 -0.102,-1.852 -0.051,-3.696 -0.051,-5.536 -0.16,0 -0.582,0 -0.785,0 0.043,1.106 0.07,2.223 0.289,3.301 0.066,0.43 0.156,0.875 0.297,1.309 -0.383,0 -1.109,0 -1.469,-0.051 0.207,0.582 0.36,1.149 0.582,1.734"
         style="fill:#6c776c;fill-opacity:1;fill-rule:nonzero;stroke:none"
         id="path106" /><path
         d="m 241.43,131.176 c 0.199,0.344 0.496,0.637 0.781,0.926 0.23,-0.539 0.434,-1.106 0.519,-1.637 -0.269,0.039 -0.718,0.129 -0.96,0.129 -0.098,0.16 -0.254,0.402 -0.34,0.582"
         style="fill:#464f5b;fill-opacity:1;fill-rule:nonzero;stroke:none"
         id="path108" /><path
         d="m 257.629,130.328 c 0.219,0.942 0.625,2.266 1.832,1.93 1.551,-0.246 1.41,-2.469 0,-2.852 -0.617,0.313 -1.258,0.606 -1.832,0.922"
         style="fill:#ffffff;fill-opacity:1;fill-rule:nonzero;stroke:none"
         id="path110" /><path
         d="m 220.758,131.676 c 0.207,0 0.625,-0.086 0.836,-0.086 0.734,-0.07 1.547,-0.113 2.32,-0.16 0.399,0 1.07,-0.039 1.391,-0.09 0.754,-0.043 1.496,-0.11 2.304,-0.207 0.629,-0.094 1.215,-0.203 1.817,-0.336 0.855,-0.137 1.699,-0.203 2.48,-0.293 0.535,-0.039 1.078,-0.039 1.629,-0.09 0.36,0.051 1.086,0.051 1.469,0.051 -0.141,-0.434 -0.231,-0.879 -0.297,-1.309 -4.426,0.184 -8.738,1.551 -13.164,1.348 -4.047,-1.391 -7.387,-6.399 -5.004,-10.606 0.781,-1.746 1.84,-3.386 3.203,-4.8 -0.691,-1.258 -1.312,-2.555 -1.836,-3.883 -0.246,0.062 -0.785,0.199 -1.027,0.285 -0.094,0.336 -0.137,0.695 -0.207,1.043 -0.133,0.625 -0.27,1.25 -0.426,1.926 -0.453,0.09 -0.961,0.203 -1.41,0.336 0.918,0.199 2.379,0.109 2.328,1.461 0.051,1.347 -1.41,1.254 -2.375,1.504 0.43,0.046 0.828,0.136 1.25,0.179 -0.535,1.078 -1.008,2.176 -1.383,3.348 -0.062,0.25 -0.254,0.789 -0.312,1.031 l -0.133,0.047 c 0.332,0.855 0.445,1.773 0.535,2.648 0.09,0.387 0.18,0.696 0.25,1.04 0.418,0.628 0.867,1.253 1.344,1.835 0.332,0.43 0.668,0.856 0.98,1.258 -0.066,0.094 -0.289,0.227 -0.394,0.293 0.668,0.227 1.269,0.516 1.859,0.856 0.668,0.449 1.305,0.925 1.973,1.371"
         style="fill:#f0d80b;fill-opacity:1;fill-rule:nonzero;stroke:none"
         id="path112" /><path
         d="m 213.434,128.531 c 0.863,1.258 2.281,0.289 2.906,-0.633 -0.477,-0.582 -0.926,-1.207 -1.344,-1.835 -1.004,0.289 -2.437,1.253 -1.562,2.468"
         style="fill:#ffffff;fill-opacity:1;fill-rule:nonzero;stroke:none"
         id="path114" /><path
         d="m 260.086,127.898 c 0.633,0.922 2.043,1.891 2.887,0.633 0.875,-1.215 -0.555,-2.179 -1.582,-2.468 -0.379,0.628 -0.852,1.253 -1.305,1.835"
         style="fill:#ffffff;fill-opacity:1;fill-rule:nonzero;stroke:none"
         id="path116" /><path
         d="m 237.051,126.309 c 0.445,-1.243 2.281,-1.286 2.734,-0.024 0,-0.265 -0.023,-0.812 -0.023,-1.105 -0.879,0 -1.793,0 -2.672,0 -0.039,0.293 -0.039,0.84 -0.039,1.129"
         style="fill:#283676;fill-opacity:1;fill-rule:nonzero;stroke:none"
         id="path118" /><path
         d="m 227.855,124.148 c 1.915,1.282 4.25,1.797 6.563,1.707 0.203,0 0.625,0 0.785,0 0.051,-2.554 0,-5.093 0,-7.656 -0.16,0 -0.496,0 -0.683,0 0.14,-0.136 0.253,-0.25 0.382,-0.429 0.883,-0.922 1.672,-1.93 2.481,-2.922 -0.293,-0.379 -0.582,-0.762 -0.828,-1.145 -1.192,0.899 -2.367,1.777 -3.481,2.695 -0.109,-2.402 -0.109,-4.781 0,-7.164 1.196,0.832 2.422,1.75 3.637,2.715 0.207,-0.113 0.672,-0.379 0.875,-0.492 -0.965,-1.551 -1.75,-3.949 -3.934,-3.949 -1.363,-0.156 -2.777,-0.289 -4.226,-0.453 -0.446,0.965 -0.844,1.929 -1.321,2.898 0.133,0.629 0.293,1.262 0.422,1.883 1.036,0.496 2.098,0.113 3.039,-0.379 -0.402,1.617 -1.285,4.383 -3.269,2.43 -0.102,0.828 -0.238,1.66 -0.442,2.468 -0.246,1.301 -0.875,2.516 -1.66,3.543 -0.609,-2.128 -0.711,-4.375 -0.086,-6.531 -0.625,0.336 -1.308,0.676 -2.007,0.852 -0.899,-0.852 -0.715,-2.18 -0.922,-3.278 1.035,0.676 2.25,1.008 3.422,0.336 0.089,-0.492 0.183,-1.007 0.25,-1.507 -0.051,-1.165 -0.45,-2.286 -0.883,-3.387 -1.574,-0.383 -3.211,-0.789 -4.797,-1.121 -0.883,0.828 -1.758,1.656 -2.684,2.468 0.34,0.336 0.684,0.672 1.016,1.032 1.254,-0.649 2.508,-1.367 3.699,-2.09 -0.355,2.516 -0.824,4.984 -1.32,7.461 -0.969,-1.168 -1.793,-2.676 -3.395,-3.102 l -0.582,0.184 c 0.524,1.328 1.145,2.625 1.836,3.883 -1.363,1.414 -2.422,3.054 -3.203,4.8 0.922,2.43 3.004,4.61 5.789,4.368 1.844,0.132 3.867,-1.379 5.527,-0.118"
         style="fill:#d11e28;fill-opacity:1;fill-rule:nonzero;stroke:none"
         id="path120" /><path
         d="m 241.586,126.02 c 4.019,-0.321 7.609,-2.719 11.66,-2.59 1.84,0.093 3.453,-0.813 4.856,-1.93 0.531,-0.672 0.98,-1.352 1.507,-2.043 -0.687,-1.551 -1.691,-2.945 -2.574,-4.312 0.723,-1.258 1.41,-2.563 1.887,-3.915 -0.477,-0.062 -0.953,-0.16 -1.406,-0.289 -0.836,1.098 -1.735,2.133 -2.563,3.192 -0.547,-2.477 -0.949,-4.992 -1.328,-7.461 1.168,0.68 2.332,1.348 3.555,2.023 0.379,-0.336 0.789,-0.675 1.207,-0.965 -0.918,-0.765 -1.707,-1.687 -2.723,-2.312 -1.793,0 -3.449,0.672 -5.187,1.055 -0.297,1.035 -0.5,2.086 -0.539,3.16 0,0.433 0,0.859 0,1.238 1.214,0.922 2.433,0.453 3.468,-0.422 -0.16,1.121 -0.316,2.27 -0.547,3.391 -0.742,-0.137 -1.461,-0.246 -2.156,-0.426 l 0.039,0.516 c 0.156,1.949 -0.082,3.929 -0.609,5.859 -1.32,-1.973 -1.903,-4.441 -1.52,-6.781 -0.535,0.539 -1.058,1.125 -1.64,1.551 -1.418,-0.289 -1.368,-2.11 -1.84,-3.188 1.203,0.762 2.601,0.824 3.437,-0.5 -0.086,-0.601 -0.175,-1.148 -0.3,-1.73 -0.243,-0.711 -0.536,-1.411 -0.825,-2.086 -1.84,0.254 -3.769,0.203 -5.59,0.746 -1.164,0.894 -1.894,2.222 -2.472,3.57 0.152,0.156 0.441,0.488 0.625,0.668 1.328,-1.008 2.683,-2.062 3.93,-3.187 -0.083,2.605 -0.083,5.191 -0.043,7.75 -1.141,-1.008 -2.266,-2.09 -3.731,-2.625 -0.203,0.199 -0.582,0.582 -0.781,0.738 0.824,1.055 1.621,2.09 2.543,3.055 0.129,0.179 0.242,0.293 0.375,0.429 -0.156,0 -0.531,0 -0.715,0 0,2.629 0,5.231 0,7.821"
         style="fill:#d11e28;fill-opacity:1;fill-rule:nonzero;stroke:none"
         id="path122" /><path
         d="m 211.969,124.172 c 0.277,1.344 1.804,1.101 2.777,0.851 -0.09,-0.875 -0.203,-1.793 -0.535,-2.648 -0.981,0.18 -2.531,0.422 -2.242,1.797"
         style="fill:#ffffff;fill-opacity:1;fill-rule:nonzero;stroke:none"
         id="path124" /><path
         d="m 237.09,125.18 c 0.879,0 1.793,0 2.672,0 -0.34,-1.254 0.648,-3.77 -1.149,-4.012 -2.242,-0.25 -1.23,2.668 -1.523,4.012"
         style="fill:#ffffff;fill-opacity:1;fill-rule:nonzero;stroke:none"
         id="path126" /><path
         d="m 258.102,121.5 c 0.785,0.625 1.605,1.164 2.527,1.641 -0.246,-1.262 -0.586,-2.473 -1.02,-3.684 -0.527,0.691 -0.976,1.371 -1.507,2.043"
         style="fill:#ffffff;fill-opacity:1;fill-rule:nonzero;stroke:none"
         id="path128" /><path
         d="m 237.051,119.164 c -0.731,2.43 3.449,2.43 2.734,0 -0.652,-1.059 -2.066,-1.059 -2.734,0"
         style="fill:#ffffff;fill-opacity:1;fill-rule:nonzero;stroke:none"
         id="path130" /><path
         d="m 226.195,119.898 c 0.785,-1.027 1.414,-2.242 1.66,-3.543 0.114,-1.597 -0.132,-3.226 -0.539,-4.785 -0.265,0.289 -0.668,0.879 -0.914,1.172 0.043,-0.359 0.157,-1.086 0.2,-1.465 -1.172,0.672 -2.387,0.34 -3.422,-0.336 0.207,1.098 0.023,2.426 0.922,3.278 0.699,-0.176 1.382,-0.516 2.007,-0.852 -0.625,2.156 -0.523,4.403 0.086,6.531"
         style="fill:#f0da0a;fill-opacity:1;fill-rule:nonzero;stroke:none"
         id="path132" /><path
         d="m 248.613,113.008 c -0.383,2.34 0.2,4.808 1.52,6.781 0.527,-1.93 0.765,-3.91 0.609,-5.859 -0.629,-1.059 -1.14,-2.137 -1.637,-3.235 0,0.676 -0.046,1.301 -0.046,1.93 l -0.348,0.047 c -0.051,-0.59 -0.098,-1.215 -0.141,-1.801 -0.836,1.324 -2.234,1.262 -3.437,0.5 0.472,1.078 0.422,2.899 1.84,3.188 0.582,-0.426 1.105,-1.012 1.64,-1.551"
         style="fill:#f0da0a;fill-opacity:1;fill-rule:nonzero;stroke:none"
         id="path134" /><path
         d="m 237.051,119.164 c 0.668,-1.059 2.082,-1.059 2.734,0 0,-0.226 0,-0.672 0,-0.922 0.606,0 1.219,0 1.801,-0.043 0.184,0 0.559,0 0.715,0 -0.133,-0.136 -0.246,-0.25 -0.375,-0.429 -2.301,0.543 -4.719,0.543 -7.024,0 -0.129,0.179 -0.242,0.293 -0.382,0.429 0.187,0 0.523,0 0.683,0 0.633,0.043 1.219,0.043 1.848,0.043 0,0.25 0,0.672 0,0.922"
         style="fill:#216a32;fill-opacity:1;fill-rule:nonzero;stroke:none"
         id="path136" /><path
         d="m 234.902,117.77 c 2.305,0.543 4.723,0.543 7.024,0 -0.922,-0.965 -1.719,-2 -2.543,-3.055 -0.672,0.09 -1.352,0.133 -2,0.133 -0.809,0.992 -1.598,2 -2.481,2.922"
         style="fill:#f0da0a;fill-opacity:1;fill-rule:nonzero;stroke:none"
         id="path138" /><path
         d="m 240.164,113.977 c 1.465,0.535 2.59,1.617 3.731,2.625 -0.04,-2.559 -0.04,-5.145 0.043,-7.75 -1.247,1.125 -2.602,2.179 -3.93,3.187 0.066,0.633 0.105,1.309 0.156,1.938"
         style="fill:#f0da0a;fill-opacity:1;fill-rule:nonzero;stroke:none"
         id="path140" /><path
         d="m 227.855,116.355 c 0.204,-0.808 0.34,-1.64 0.442,-2.468 -0.027,-0.719 -0.059,-1.438 -0.059,-2.094 l 0.289,0.043 c -0.129,-0.621 -0.289,-1.254 -0.422,-1.883 -0.292,-0.047 -0.964,-0.133 -1.253,-0.183 -0.067,0.5 -0.161,1.015 -0.25,1.507 -0.043,0.379 -0.157,1.106 -0.2,1.465 0.246,-0.293 0.649,-0.883 0.914,-1.172 0.407,1.559 0.653,3.188 0.539,4.785"
         style="fill:#938821;fill-opacity:1;fill-rule:nonzero;stroke:none"
         id="path142" /><path
         d="m 233.074,116.398 c 1.114,-0.918 2.289,-1.796 3.481,-2.695 0.019,-0.574 0.066,-1.16 0.156,-1.754 -1.215,-0.965 -2.441,-1.883 -3.637,-2.715 -0.109,2.383 -0.109,4.762 0,7.164"
         style="fill:#f0da0a;fill-opacity:1;fill-rule:nonzero;stroke:none"
         id="path144" /><path
         d="m 237.383,114.848 c 0.648,0 1.328,-0.043 2,-0.133 0.199,-0.156 0.578,-0.539 0.781,-0.738 -0.051,-0.629 -0.09,-1.305 -0.156,-1.938 -0.184,-0.18 -0.473,-0.512 -0.625,-0.668 -0.629,0 -1.227,0 -1.797,0.086 -0.203,0.113 -0.668,0.379 -0.875,0.492 -0.09,0.594 -0.137,1.18 -0.156,1.754 0.246,0.383 0.535,0.766 0.828,1.145"
         style="fill:#ffffff;fill-opacity:1;fill-rule:nonzero;stroke:none"
         id="path146" /><path
         d="m 228.297,113.887 c 1.984,1.953 2.867,-0.813 3.269,-2.43 -0.941,0.492 -2.003,0.875 -3.039,0.379 l -0.289,-0.043 c 0,0.656 0.032,1.375 0.059,2.094"
         style="fill:#f0da0a;fill-opacity:1;fill-rule:nonzero;stroke:none"
         id="path148" /><path
         d="m 218.488,111.031 c 1.602,0.426 2.426,1.934 3.395,3.102 0.496,-2.477 0.965,-4.945 1.32,-7.461 -1.191,0.723 -2.445,1.441 -3.699,2.09 -0.051,0.558 -0.051,1.105 -0.09,1.687 -0.293,0.199 -0.586,0.379 -0.926,0.582"
         style="fill:#f0da0a;fill-opacity:1;fill-rule:nonzero;stroke:none"
         id="path150" /><path
         d="m 254.953,114.133 c 0.828,-1.059 1.727,-2.094 2.563,-3.192 -0.137,-0.738 -0.274,-1.507 -0.336,-2.246 -1.223,-0.675 -2.387,-1.343 -3.555,-2.023 0.379,2.469 0.781,4.984 1.328,7.461"
         style="fill:#f0da0a;fill-opacity:1;fill-rule:nonzero;stroke:none"
         id="path152" /><path
         d="m 249.105,110.695 c 0.497,1.098 1.008,2.176 1.637,3.235 l -0.039,-0.516 c -0.226,-0.832 -0.476,-1.711 -0.765,-2.543 0,-0.379 0,-0.805 0,-1.238 -0.583,-0.156 -1.125,-0.313 -1.668,-0.492 0.125,0.582 0.214,1.129 0.3,1.73 0.043,0.586 0.09,1.211 0.141,1.801 l 0.348,-0.047 c 0,-0.629 0.046,-1.254 0.046,-1.93"
         style="fill:#836d1f;fill-opacity:1;fill-rule:nonzero;stroke:none"
         id="path154" /><path
         d="m 250.703,113.414 c 0.695,0.18 1.414,0.289 2.156,0.426 0.231,-1.121 0.387,-2.27 0.547,-3.391 -1.035,0.875 -2.254,1.344 -3.468,0.422 0.289,0.832 0.539,1.711 0.765,2.543"
         style="fill:#f0da0a;fill-opacity:1;fill-rule:nonzero;stroke:none"
         id="path156" /><path
         d="m 216.672,112.543 c 0.07,-0.348 0.113,-0.707 0.207,-1.043 -0.731,-0.961 -0.926,-2.137 -1.215,-3.227 0.051,1.45 0.676,2.844 1.008,4.27"
         style="fill:#283676;fill-opacity:1;fill-rule:nonzero;stroke:none"
         id="path158" /><path
         d="m 237.586,111.457 c 0.57,-0.086 1.168,-0.086 1.797,-0.086 0.578,-1.348 1.308,-2.676 2.472,-3.57 1.821,-0.543 3.75,-0.492 5.59,-0.746 0.289,0.675 0.582,1.375 0.825,2.086 0.543,0.179 1.085,0.336 1.668,0.492 0.039,-1.074 0.242,-2.125 0.539,-3.16 1.738,-0.383 3.394,-1.055 5.187,-1.055 1.016,0.625 1.805,1.547 2.723,2.312 0.246,-0.042 0.746,-0.089 0.984,-0.132 -0.152,-0.68 -0.289,-1.332 -0.449,-2.004 -0.168,-0.762 -0.379,-1.547 -0.535,-2.36 -1.047,0.293 -2.141,0.52 -3.215,0.715 -0.266,-0.824 -0.52,-1.699 -0.719,-2.601 1.328,-0.313 2.727,-0.696 4.09,-1.032 -0.039,-0.6324 -0.09,-1.2105 -0.098,-1.8433 -3.449,1.1718 -6.957,2.0473 -10.457,3.0543 -3.215,1.348 -6.761,0.836 -10.207,0.969 -3.547,-0.094 -7.246,0.047 -10.547,-1.441 -2.984,-0.918 -5.98,-1.5003 -8.804,-2.6722 -0.051,0.6328 -0.094,1.2617 -0.094,1.8902 1.496,0.336 2.965,0.719 4.465,1.125 -0.289,0.875 -0.543,1.727 -0.789,2.594 -1.254,-0.285 -2.508,-0.578 -3.766,-0.824 -0.367,1.617 -0.211,3.551 -1.574,4.719 0.582,-0.043 1.207,-0.114 1.816,-0.157 0.926,-0.812 1.801,-1.64 2.684,-2.468 1.586,0.332 3.223,0.738 4.797,1.121 0.433,1.101 0.832,2.222 0.883,3.387 0.289,0.05 0.961,0.136 1.253,0.183 0.477,-0.969 0.875,-1.933 1.321,-2.898 1.449,0.164 2.863,0.297 4.226,0.453 2.184,0 2.969,2.398 3.934,3.949"
         style="fill:#f0d80b;fill-opacity:1;fill-rule:nonzero;stroke:none"
         id="path160" /><path
         d="m 232.965,106.559 c 0.57,0.66 1.523,-0.383 0.906,-0.914 -0.578,-0.59 -1.453,0.355 -0.906,0.914"
         style="fill:#f3f2f1;fill-opacity:1;fill-rule:nonzero;stroke:none"
         id="path162" /><path
         d="m 243.137,106.719 c 1.593,0.765 1.636,-1.645 0.086,-1.301 0,0.332 -0.086,1.008 -0.086,1.301"
         style="fill:#ddddd1;fill-opacity:1;fill-rule:nonzero;stroke:none"
         id="path164" /><path
         d="m 235.496,106.383 c 2.09,0.043 4.129,0.043 6.231,0 0,-0.922 0,-1.844 0,-2.77 -2.102,-0.043 -4.141,-0.043 -6.231,-0.043 0,0.969 0,1.891 0,2.813"
         style="fill:#28377a;fill-opacity:1;fill-rule:nonzero;stroke:none"
         id="path166" /><path
         d="m 226.27,103.797 c 0.71,2.203 4.011,2.496 5.722,1.258 0,-0.336 0,-1.008 -0.043,-1.348 -1.461,-1.305 -4.855,-2.227 -5.679,0.09"
         style="fill:#3b8135;fill-opacity:1;fill-rule:nonzero;stroke:none"
         id="path168" /><path
         d="m 246.277,105.594 c 1.52,0.496 3.836,0.051 4.582,-1.504 0.039,-3.66 -8.398,-0.809 -4.582,1.504"
         style="fill:#3b8135;fill-opacity:1;fill-rule:nonzero;stroke:none"
         id="path170" /><path
         d="m 223.25,104.879 c 0.563,0.383 1.984,0.336 1.418,-0.633 -0.195,-1.215 -1.707,-0.336 -1.418,0.633"
         style="fill:#d3d3bc;fill-opacity:1;fill-rule:nonzero;stroke:none"
         id="path172" /><path
         d="m 252.453,104.922 c 0.391,0.047 1.031,0.152 1.375,0.203 0.469,-1.598 -1.711,-1.797 -1.375,-0.203"
         style="fill:#e6e5dd;fill-opacity:1;fill-rule:nonzero;stroke:none"
         id="path174" /><path
         d="m 233.152,104.719 c 0.922,0 2,-1.305 0.743,-1.735 -1.122,-0.238 -0.981,1.008 -0.743,1.735"
         style="fill:#c8c7a8;fill-opacity:1;fill-rule:nonzero;stroke:none"
         id="path176" /><path
         d="m 243.359,104.379 c 1.082,0.297 0.989,-1.594 0,-1.301 -0.808,-0.047 -0.847,1.348 0,1.301"
         style="fill:#e9e8df;fill-opacity:1;fill-rule:nonzero;stroke:none"
         id="path178" /><path
         d="m 218.246,103.168 c 1.258,0.246 2.512,0.539 3.766,0.824 0.246,-0.867 0.5,-1.719 0.789,-2.594 -1.5,-0.406 -2.969,-0.789 -4.465,-1.125 -0.492,0.493 -1.016,0.965 -1.504,1.418 0.473,0.473 0.961,0.961 1.414,1.477"
         style="fill:#cb1e26;fill-opacity:1;fill-rule:nonzero;stroke:none"
         id="path180" /><path
         d="m 254.453,101.348 c 0.199,0.902 0.453,1.777 0.719,2.601 1.074,-0.195 2.168,-0.422 3.215,-0.715 0.695,-0.539 1.32,-1.16 1.949,-1.796 -0.578,-0.383 -1.203,-0.743 -1.793,-1.122 -1.363,0.336 -2.762,0.719 -4.09,1.032"
         style="fill:#cd1e26;fill-opacity:1;fill-rule:nonzero;stroke:none"
         id="path182" /><path
         d="m 224.313,101.574 c -0.348,1.594 1.367,1.641 1.457,0.117 -0.383,-0.05 -1.129,-0.074 -1.457,-0.117"
         style="fill:#edece5;fill-opacity:1;fill-rule:nonzero;stroke:none"
         id="path184" /><path
         d="m 251.617,102.832 c 0.301,0 0.887,0 1.129,0 0.047,-0.336 0.098,-0.918 0.098,-1.215 -0.309,0 -0.977,0 -1.309,0 0.043,0.297 0.082,0.926 0.082,1.215"
         style="fill:#e9e8dd;fill-opacity:1;fill-rule:nonzero;stroke:none"
         id="path186" /><path
         d="m 227.234,101.055 c 3.301,1.488 7,1.347 10.547,1.441 3.446,-0.133 6.992,0.379 10.207,-0.969 -6.89,0.836 -13.914,0.793 -20.754,-0.472"
         style="fill:#595531;fill-opacity:1;fill-rule:nonzero;stroke:none"
         id="path188" /><path
         d="m 227.234,101.055 c 6.84,1.265 13.864,1.308 20.754,0.472 3.5,-1.007 7.008,-1.8825 10.457,-3.0543 0.528,-0.9649 0.528,-2.0625 0.309,-3.0977 -0.5,0.1133 -0.945,0.2891 -1.465,0.4023 -4.094,1.7305 -8.516,2.7422 -12.898,3.2383 -3.84,0.3828 -7.68,0.4297 -11.477,-0.0468 -5.059,-0.3399 -9.824,-2.0899 -14.719,-3.3047 -0.023,0.7226 -0.105,1.4648 -0.105,2.1836 0.082,0.1054 0.246,0.3984 0.34,0.5351 2.824,1.1719 5.82,1.7542 8.804,2.6722"
         style="fill:#ffffff;fill-opacity:1;fill-rule:nonzero;stroke:none"
         id="path190" /><path
         d="m 237.051,100.766 c 0.285,1.484 2.039,0.226 3.023,0.515 -0.023,-0.289 -0.113,-0.808 -0.199,-1.054 -0.926,0.246 -2.43,-0.7192 -2.824,0.539"
         style="fill:#3e3e40;fill-opacity:1;fill-rule:nonzero;stroke:none"
         id="path192" /><path
         d="m 228.527,100.094 c 0.586,0.269 1.215,0.558 1.805,0.804 -0.094,-0.203 -0.344,-0.535 -0.434,-0.714 0.137,-0.157 0.383,-0.4496 0.5,-0.6293 -0.882,-0.0469 -1.796,-0.0469 -2.429,-0.7461 -0.606,0.4102 -0.539,1.125 -0.313,1.7114 0.199,-0.09 0.641,-0.336 0.871,-0.426"
         style="fill:#242221;fill-opacity:1;fill-rule:nonzero;stroke:none"
         id="path194" /><path
         d="m 246.973,100.766 c 0.675,-0.45 1.422,-0.739 2.222,-0.9222 0,-0.2891 -0.043,-0.8282 -0.043,-1.0821 -0.832,0.4571 -1.757,0.6836 -2.668,0.3867 -0.089,0.586 0.11,1.1246 0.489,1.6176"
         style="fill:#333333;fill-opacity:1;fill-rule:nonzero;stroke:none"
         id="path196" /><path
         d="m 218.195,95.6641 c 4.895,1.2148 9.66,2.9648 14.719,3.3047 3.797,-0.3399 7.727,-0.4493 11.477,0.0468 4.382,-0.4961 8.804,-1.5078 12.898,-3.2383 l 0.43,-0.4492 c -2.305,0.4492 -4.567,1.7071 -6.977,1.125 -8.012,-1.4609 -16.281,-1.5508 -24.269,-0.0429 -2.66,0.625 -5.172,-0.586 -7.645,-1.3672 -1.086,0.582 -1.277,1.7929 -0.738,2.8047 0,-0.7188 0.082,-1.461 0.105,-2.1836"
         style="fill:#979898;fill-opacity:1;fill-rule:nonzero;stroke:none"
         id="path198" /><path
         d="m 232.914,98.9688 c 3.797,0.4765 7.637,0.4296 11.477,0.0468 -3.75,-0.4961 -7.68,-0.3867 -11.477,-0.0468"
         style="fill:#47474a;fill-opacity:1;fill-rule:nonzero;stroke:none"
         id="path200" /><path
         d="m 254.406,98.1797 c 0.188,0.0664 0.59,0.25 0.785,0.3398 0.625,-0.4297 1.36,-0.6289 2.051,-0.7656 0,-0.3789 -0.023,-0.7383 -0.023,-1.1641 -0.809,0.379 -1.649,0.918 -2.473,0.379 -0.129,0.4062 -0.242,0.8281 -0.34,1.2109"
         style="fill:#363737;fill-opacity:1;fill-rule:nonzero;stroke:none"
         id="path202" /><path
         d="m 219.793,98.3398 c 0.207,-0.1132 0.676,-0.3867 0.879,-0.4492 0.473,0.1992 0.922,0.4063 1.387,0.5821 0.019,-0.3829 0.109,-0.7657 0.16,-1.1641 -0.715,-0.1797 -1.367,-0.4297 -2.039,-0.7188 -0.219,0.1094 -0.637,0.379 -0.879,0.4922 0.152,0.4258 0.332,0.8516 0.492,1.2578"
         style="fill:#3b3b3c;fill-opacity:1;fill-rule:nonzero;stroke:none"
         id="path204" /><path
         d="m 218.828,95.043 c 2.473,0.7812 4.985,1.9922 7.645,1.3672 7.988,-1.5079 16.257,-1.418 24.269,0.0429 2.41,0.5821 4.672,-0.6758 6.977,-1.125 l 0.199,-0.1992 c -5.98,-1.7344 -12.223,-2.5195 -18.445,-2.4766 -6.938,0 -14.086,-0.0429 -20.645,2.3907"
         style="fill:#ffffff;fill-opacity:1;fill-rule:nonzero;stroke:none"
         id="path206" /><path
         d="m 234.816,92.4297 c 2.051,0.1367 4.133,0.1367 6.223,0 0.059,-12.0117 0.246,-24.0352 0.348,-36.0469 0,-2.0937 -0.696,-4.5664 -2.774,-5.4805 -1.562,-0.7695 -3.269,0.625 -3.711,2.1758 -1.031,8.5821 0.352,17.3828 -0.382,26.0547 v 0.2031 c 0.543,4.3594 0.253,8.7383 0.296,13.0938"
         style="fill:#9d391f;fill-opacity:1;fill-rule:nonzero;stroke:none"
         id="path208" /></g></g></svg>
