<?xml version="1.0" encoding="UTF-8" standalone="no"?>
<svg
   xmlns:dc="http://purl.org/dc/elements/1.1/"
   xmlns:cc="http://creativecommons.org/ns#"
   xmlns:rdf="http://www.w3.org/1999/02/22-rdf-syntax-ns#"
   xmlns:svg="http://www.w3.org/2000/svg"
   xmlns="http://www.w3.org/2000/svg"
   version="1.1"
   id="svg2"
   xml:space="preserve"
   width="42.666668"
   height="42.666668"
   viewBox="0 0 42.666668 42.666668"><metadata
     id="metadata8"><rdf:RDF><cc:Work
         rdf:about=""><dc:format>image/svg+xml</dc:format><dc:type
           rdf:resource="http://purl.org/dc/dcmitype/StillImage" /></cc:Work></rdf:RDF></metadata><defs
     id="defs6" /><g
     id="g10"
     transform="matrix(1.3333333,0,0,-1.3333333,0,42.666667)"><g
       id="g12"
       transform="scale(0.1)"><path
         d="M 9.45703,214.336 H 310.516 c 6.132,-16.961 9.484,-35.273 9.484,-54.348 0,-19.074 -3.352,-37.359 -9.484,-54.347 H 9.45703 C 3.32422,122.629 0,140.914 0,159.988 c 0,19.075 3.32422,37.387 9.45703,54.348"
         style="fill:#ffffff;fill-opacity:1;fill-rule:evenodd;stroke:none"
         id="path14" /><path
         d="M 310.516,214.336 H 9.47656 c 22.24614,61.629 81.24614,105.66 150.51144,105.66 69.289,0 128.285,-44.031 150.528,-105.66"
         style="fill:#d01e27;fill-opacity:1;fill-rule:evenodd;stroke:none"
         id="path16" /><path
         d="M 9.47656,105.641 H 310.516 C 288.273,44.0391 229.277,0.00390625 159.988,0.00390625 90.7227,0.00390625 31.7227,44.0391 9.47656,105.641"
         style="fill:#100f0d;fill-opacity:1;fill-rule:evenodd;stroke:none"
         id="path18" /><path
         d="m 92.0234,148.598 c 11.4846,17.097 23.0746,34.218 35.0466,50.91 0.969,-3.211 1.352,-6.586 2.657,-9.727 -1.688,-0.562 -3.375,-1.304 -4.274,-2.875 -7.363,-10.179 -14.355,-20.582 -21.383,-30.984 8.266,-0.406 16.598,-0.227 24.871,-0.227 0.067,3.305 -0.156,6.7 0.332,9.953 2.653,3.102 6.207,5.282 9.508,7.598 3.258,-2.25 6.242,-4.836 9.278,-7.328 0.066,-9.996 -0.047,-20.02 0.066,-30.016 -24.082,-0.222 -48.168,-0.066 -72.2305,-0.109 -1.0781,-4.52 -2.4726,-10.695 -7.9531,-11.484 -4.5391,-1.231 -8.6523,1.98 -10.6289,5.839 2.4961,-0.828 5.0547,-2.015 7.707,-1.503 3.5508,1.234 5.0743,5.437 4.2696,8.832 -0.4532,2.699 -2.4727,4.605 -3.6836,6.851 2.8515,1.527 4.8047,3.891 6.2929,6.742 1.793,-2.293 2.1329,-5.324 3.4063,-7.8 2.6094,-0.512 5.2617,-0.176 7.8906,-0.223 -0.6719,1.914 -1.5742,3.754 -2.4726,5.617 3.7539,2.07 5.7968,5.797 8.4257,8.871 0.5157,-4.824 0.1368,-9.722 0.4493,-14.555 17.3003,0.18 34.6013,-0.113 51.8983,0.114 -0.133,6.922 0,13.769 -0.066,20.644 -1.008,0.676 -2.047,1.285 -3.102,1.91 -0.828,-0.847 -1.793,-1.636 -2.699,-2.425 -0.109,-4.946 0.066,-9.883 -0.109,-14.852 -14.469,0.113 -28.985,-0.109 -43.4966,0.227"
         style="fill:#237a39;fill-opacity:1;fill-rule:nonzero;stroke:none"
         id="path20" /><path
         d="m 213.395,199.012 c 3.636,0.156 3.3,-5.008 3.976,-7.547 -2.476,1.523 -4.094,4.672 -3.976,7.547"
         style="fill:#237a39;fill-opacity:1;fill-rule:nonzero;stroke:none"
         id="path22" /><path
         d="m 225.93,192.316 c 2.312,-1.527 1.414,-5.636 -1.172,-6.355 -1.637,-0.406 -3.324,0.156 -5.004,0.336 -2.766,-2.988 -7.664,-3.438 -10.652,-0.406 3.773,-0.828 7.707,-0.043 9.863,3.371 1.57,-0.446 3.144,-1.395 4.762,-1.168 1.304,1.058 1.707,2.695 2.203,4.222"
         style="fill:#237a39;fill-opacity:1;fill-rule:nonzero;stroke:none"
         id="path24" /><path
         d="m 244.777,183.715 c 3.145,-2.539 5.735,-5.75 8.672,-8.492 -2.832,-1.868 -2.269,-5.461 -2.383,-8.403 0,-7.82 -0.156,-15.679 0.071,-23.504 4,0 8.265,-0.492 11.527,2.317 -0.793,-3.102 -1.621,-6.129 -1.848,-9.281 -5.457,0.117 -11.14,-0.629 -16.441,0.046 0.066,15.747 -0.336,31.567 0.402,47.317"
         style="fill:#237a39;fill-opacity:1;fill-rule:nonzero;stroke:none"
         id="path26" /><path
         d="m 153.07,183.199 c 3.164,-2.543 5.68,-5.683 8.606,-8.496 -2.813,-1.863 -2.246,-5.504 -2.363,-8.445 0,-7.754 -0.11,-15.524 0.07,-23.278 3.93,0 8.152,-0.335 11.59,2.09 -0.961,-2.922 -1.707,-5.972 -1.93,-9.054 -5.438,-0.114 -10.898,-0.18 -16.355,-0.223 0.042,15.793 -0.364,31.609 0.382,47.406"
         style="fill:#237a39;fill-opacity:1;fill-rule:nonzero;stroke:none"
         id="path28" /><path
         d="m 207.977,143.383 c -1.907,-0.067 -3.883,0 -5.84,0 -0.52,3.418 2.359,6.515 5.84,5.957 0.109,-2.024 0.109,-4 0,-5.957 z m 31.183,52.234 c -2.648,-2.965 -5.637,-5.613 -8.332,-8.601 0.719,-0.828 1.457,-1.688 2.25,-2.473 0.063,-13.727 0,-27.453 0.063,-41.16 -1.977,0 -3.953,0 -5.864,0 -0.113,13.48 0.227,27.055 -0.382,40.555 -2.993,-2.762 -6.09,-5.458 -8.672,-8.672 1.125,-0.856 2.312,-1.797 2.132,-3.325 0.336,-9.546 0.18,-19.05 0.114,-28.625 -1.91,0.067 -3.817,0.067 -5.731,0.067 -0.109,9.664 0.157,19.344 -0.289,29.008 -2.812,-3.036 -6.246,-5.571 -8.601,-8.942 3.14,-1.683 1.972,-5.574 2.015,-8.496 -3.996,0.563 -8.761,-0.223 -10.738,-4.152 -1.973,-4.61 -1.414,-9.844 -1.57,-14.738 14.734,0.113 29.476,-0.114 44.215,0.113 -0.383,19.793 0.671,39.722 -0.61,59.441"
         style="fill:#237a39;fill-opacity:1;fill-rule:nonzero;stroke:none"
         id="path30" /><path
         d="m 77.8438,125.996 c 1.6445,2.024 3.4414,3.817 5.1953,5.684 1.7304,-1.914 3.5468,-3.707 5.1679,-5.75 -1.8007,-1.735 -3.4375,-3.641 -5.1679,-5.438 -1.8008,1.797 -3.4336,3.703 -5.1953,5.504"
         style="fill:#237a39;fill-opacity:1;fill-rule:nonzero;stroke:none"
         id="path32" /></g></g></svg>
