<?xml version="1.0" encoding="UTF-8" standalone="no"?>
<svg
   xmlns:dc="http://purl.org/dc/elements/1.1/"
   xmlns:cc="http://creativecommons.org/ns#"
   xmlns:rdf="http://www.w3.org/1999/02/22-rdf-syntax-ns#"
   xmlns:svg="http://www.w3.org/2000/svg"
   xmlns="http://www.w3.org/2000/svg"
   version="1.1"
   id="svg2"
   xml:space="preserve"
   width="42.666668"
   height="42.666668"
   viewBox="0 0 42.666668 42.666668"><metadata
     id="metadata8"><rdf:RDF><cc:Work
         rdf:about=""><dc:format>image/svg+xml</dc:format><dc:type
           rdf:resource="http://purl.org/dc/dcmitype/StillImage" /></cc:Work></rdf:RDF></metadata><defs
     id="defs6" /><g
     id="g10"
     transform="matrix(1.3333333,0,0,-1.3333333,0,42.666667)"><g
       id="g12"
       transform="scale(0.1)"><path
         d="M 310.523,105.633 H 9.48047 C 3.34766,122.617 0,140.902 0,160 c 0,19.074 3.34766,37.359 9.48047,54.344 H 310.523 C 316.633,197.359 320,179.074 320,160 c 0,-19.098 -3.367,-37.383 -9.477,-54.367"
         style="fill:#ffffff;fill-opacity:1;fill-rule:evenodd;stroke:none"
         id="path14" /><path
         d="M 9.48047,105.633 H 310.523 C 288.281,44.0352 229.242,0 160,0 90.7148,0 31.7227,44.0352 9.48047,105.633"
         style="fill:#db1e25;fill-opacity:1;fill-rule:evenodd;stroke:none"
         id="path16" /><path
         d="M 310.523,214.344 H 9.48047 C 31.7227,275.945 90.7148,320 160,320 c 69.242,0 128.281,-44.055 150.523,-105.656"
         style="fill:#33a33f;fill-opacity:1;fill-rule:evenodd;stroke:none"
         id="path18" /><path
         d="m 150.707,196.66 c 2.371,-2.512 6.106,-3.277 9.254,-1.68 3.184,-1.597 6.914,-0.832 9.297,1.68 0.945,-5.207 -5.438,-8.445 -9.297,-5.094 -3.844,-3.351 -10.231,-0.113 -9.254,5.094"
         style="fill:#db1e25;fill-opacity:1;fill-rule:nonzero;stroke:none"
         id="path20" /><path
         d="m 122.82,164.652 c 1.102,11.727 9.907,21.969 21.121,25.118 -10.558,-7.981 -16.468,-21.75 -14.761,-34.895 0.918,-7.145 4.203,-13.797 8.582,-19.387 -10.117,5.66 -16.621,17.59 -14.942,29.164"
         style="fill:#db1e25;fill-opacity:1;fill-rule:nonzero;stroke:none"
         id="path22" /><path
         d="m 155.324,186.938 c 1.582,1.167 3.102,2.382 4.637,3.55 1.57,-1.168 3.094,-2.383 4.672,-3.55 -0.137,-16.602 -0.453,-33.297 -0.68,-49.899 5.211,4.426 9.797,9.774 12.18,16.219 4.496,11.527 2.558,25.051 -4.582,35.097 9.027,-7.082 13.929,-18.921 12.629,-30.265 -1.086,-11.074 -7.957,-21.32 -17.754,-26.461 5.125,-1.938 10.691,-2.52 16.133,-2.07 -5.977,-2.176 -12.489,-2.832 -18.739,-1.664 -1.257,-1.547 -2.554,-3.028 -3.859,-4.582 -1.266,1.554 -2.566,3.035 -3.844,4.582 -6.246,-1.168 -12.746,-0.512 -18.734,1.664 5.453,-0.45 11.004,0.132 16.148,2.07 -9.797,5.141 -16.734,15.387 -17.769,26.461 -1.282,11.344 3.621,23.183 12.625,30.265 -8.516,-11.777 -9.457,-28.515 -1.731,-40.89 2.52,-4 5.707,-7.391 9.324,-10.426 -0.199,16.602 -0.515,33.297 -0.656,49.899"
         style="fill:#db1e25;fill-opacity:1;fill-rule:nonzero;stroke:none"
         id="path24" /><path
         d="m 176,189.77 c 15.094,-4.004 24.668,-21.051 20.441,-36.059 -2.062,-7.598 -7.277,-14.152 -14.062,-18.152 3.59,5.007 6.695,10.492 7.859,16.625 3.012,13.906 -2.965,29.089 -14.238,37.586"
         style="fill:#db1e25;fill-opacity:1;fill-rule:nonzero;stroke:none"
         id="path26" /><path
         d="m 159.055,218.02 v 3.988 h -4.2 v -1.051 h 3.153 v -1.891 h -4.832 v 2.942 h -6.93 v -4.199 h 1.051 v 3.148 h 4.832 v -2.937 h 6.926"
         style="fill:#ffffff;fill-opacity:1;fill-rule:nonzero;stroke:none"
         id="path28" /><path
         d="m 173.754,218.02 v 7.136 h -1.051 v -6.09 h -1.89 v 6.09 h -1.051 v -6.09 h -1.891 v 6.09 h -1.047 v -3.148 h -5.879 v -3.988 h 4.2 v 1.046 h -3.149 v 1.891 h 4.828 v -2.937 h 6.93"
         style="fill:#ffffff;fill-opacity:1;fill-rule:nonzero;stroke:none"
         id="path30" /><path
         d="m 150.445,218.02 v 1.046 h -1.468 v -1.046 h 1.468"
         style="fill:#ffffff;fill-opacity:1;fill-rule:nonzero;stroke:none"
         id="path32" /><path
         d="m 194.535,224.945 h -19.101 v -1.047 h 19.101 v 1.047"
         style="fill:#ffffff;fill-opacity:1;fill-rule:nonzero;stroke:none"
         id="path34" /><path
         d="m 188.449,218.02 v 3.988 h -4.199 v -1.051 h 3.148 v -1.891 h -4.828 v 2.942 h -6.929 v -4.199 h 1.05 v 3.148 h 4.829 v -2.937 h 6.929"
         style="fill:#ffffff;fill-opacity:1;fill-rule:nonzero;stroke:none"
         id="path36" /><path
         d="m 165.145,224.945 h -19.106 v -1.047 h 19.106 v 1.047"
         style="fill:#ffffff;fill-opacity:1;fill-rule:nonzero;stroke:none"
         id="path38" /><path
         d="m 179.84,218.02 v 1.046 h -1.469 v -1.046 h 1.469"
         style="fill:#ffffff;fill-opacity:1;fill-rule:nonzero;stroke:none"
         id="path40" /><path
         d="m 91.6602,218.02 v 1.046 h -1.4688 v -1.046 h 1.4688"
         style="fill:#ffffff;fill-opacity:1;fill-rule:nonzero;stroke:none"
         id="path42" /><path
         d="m 203.145,218.02 v 7.136 h -1.051 v -6.09 h -1.887 v 6.09 h -1.051 v -6.09 h -1.89 v 6.09 h -1.047 v -3.148 h -5.879 v -3.988 h 4.195 v 1.046 h -3.148 v 1.891 h 4.832 v -2.937 h 6.926"
         style="fill:#ffffff;fill-opacity:1;fill-rule:nonzero;stroke:none"
         id="path44" /><path
         d="m 114.965,218.02 v 7.136 h -1.051 v -6.09 h -1.887 v 6.09 h -1.05 v -6.09 h -1.891 v 6.09 h -1.051 v -3.148 h -5.879 v -3.988 h 4.199 v 1.046 h -3.148 v 1.891 h 4.828 v -2.937 h 6.93"
         style="fill:#ffffff;fill-opacity:1;fill-rule:nonzero;stroke:none"
         id="path46" /><path
         d="m 100.27,218.02 v 3.988 h -4.1997 v -1.051 h 3.1485 v -1.891 h -4.8282 v 2.942 h -6.9297 v -4.199 h 1.0508 v 3.148 h 4.8281 v -2.937 h 6.9302"
         style="fill:#ffffff;fill-opacity:1;fill-rule:nonzero;stroke:none"
         id="path48" /><path
         d="m 144.359,218.02 v 7.136 h -1.05 v -6.09 h -1.891 v 6.09 h -1.047 v -6.09 h -1.891 v 6.09 h -1.05 v -3.148 h -5.879 v -3.988 h 4.199 v 1.046 h -3.148 v 1.891 h 4.828 v -2.937 h 6.929"
         style="fill:#ffffff;fill-opacity:1;fill-rule:nonzero;stroke:none"
         id="path50" /><path
         d="M 106.355,224.945 H 87.25 v -1.047 h 19.105 v 1.047"
         style="fill:#ffffff;fill-opacity:1;fill-rule:nonzero;stroke:none"
         id="path52" /><path
         d="m 85.5742,218.02 v 7.136 h -1.0508 v -6.09 h -1.8906 v 6.09 H 81.582 v -6.09 h -1.8867 v 6.09 h -1.0508 v -3.148 h -5.8789 v -3.988 h 4.1992 v 1.046 h -3.1484 v 1.891 h 4.8281 v -2.937 h 6.9297"
         style="fill:#ffffff;fill-opacity:1;fill-rule:nonzero;stroke:none"
         id="path54" /><path
         d="m 135.75,224.945 h -19.105 v -1.047 h 19.105 v 1.047"
         style="fill:#ffffff;fill-opacity:1;fill-rule:nonzero;stroke:none"
         id="path56" /><path
         d="m 121.055,218.02 v 1.046 h -1.469 v -1.046 h 1.469"
         style="fill:#ffffff;fill-opacity:1;fill-rule:nonzero;stroke:none"
         id="path58" /><path
         d="m 129.66,218.02 v 3.988 h -4.195 v -1.051 h 3.148 v -1.891 h -4.832 v 2.942 h -6.926 v -4.199 h 1.051 v 3.148 h 4.828 v -2.937 h 6.926"
         style="fill:#ffffff;fill-opacity:1;fill-rule:nonzero;stroke:none"
         id="path60" /><path
         d="m 282.715,224.945 h -19.106 v -1.047 h 19.106 v 1.047"
         style="fill:#ffffff;fill-opacity:1;fill-rule:nonzero;stroke:none"
         id="path62" /><path
         d="m 276.629,218.02 v 3.988 h -4.199 v -1.051 h 3.148 v -1.891 h -4.828 v 2.942 h -6.93 v -4.199 h 1.051 v 3.148 h 4.828 v -2.937 h 6.93"
         style="fill:#ffffff;fill-opacity:1;fill-rule:nonzero;stroke:none"
         id="path64" /><path
         d="m 268.02,218.02 v 1.046 h -1.469 v -1.046 h 1.469"
         style="fill:#ffffff;fill-opacity:1;fill-rule:nonzero;stroke:none"
         id="path66" /><path
         d="m 291.324,218.02 v 7.136 h -1.051 v -6.09 h -1.886 v 6.09 h -1.051 v -6.09 h -1.891 v 6.09 h -1.05 v -3.148 h -5.879 v -3.988 h 4.199 v 1.046 h -3.149 v 1.891 h 4.829 v -2.937 h 6.929"
         style="fill:#ffffff;fill-opacity:1;fill-rule:nonzero;stroke:none"
         id="path68" /><path
         d="m 306.227,224.945 h -13.223 v -1.047 h 13.648 c -0.152,0.344 -0.273,0.704 -0.425,1.047"
         style="fill:#ffffff;fill-opacity:1;fill-rule:nonzero;stroke:none"
         id="path70" /><path
         d="m 306.02,218.02 v 3.988 h -4.2 v -1.051 h 3.153 v -1.891 h -4.828 v 2.942 h -6.93 v -4.199 h 1.051 v 3.148 h 4.828 v -2.937 h 6.926"
         style="fill:#ffffff;fill-opacity:1;fill-rule:nonzero;stroke:none"
         id="path72" /><path
         d="m 297.414,218.02 v 1.046 h -1.473 v -1.046 h 1.473"
         style="fill:#ffffff;fill-opacity:1;fill-rule:nonzero;stroke:none"
         id="path74" /><path
         d="m 253.324,224.945 h -19.105 v -1.047 h 19.105 v 1.047"
         style="fill:#ffffff;fill-opacity:1;fill-rule:nonzero;stroke:none"
         id="path76" /><path
         d="m 217.844,218.02 v 3.988 h -4.199 v -1.051 h 3.148 v -1.891 h -4.828 v 2.942 h -6.93 v -4.199 h 1.051 v 3.148 h 4.828 v -2.937 h 6.93"
         style="fill:#ffffff;fill-opacity:1;fill-rule:nonzero;stroke:none"
         id="path78" /><path
         d="m 232.539,218.02 v 7.136 h -1.051 v -6.09 h -1.89 v 6.09 h -1.047 v -6.09 h -1.891 v 6.09 h -1.051 v -3.148 h -5.879 v -3.988 h 4.2 v 1.046 h -3.149 v 1.891 h 4.828 v -2.937 h 6.93"
         style="fill:#ffffff;fill-opacity:1;fill-rule:nonzero;stroke:none"
         id="path80" /><path
         d="m 209.234,218.02 v 1.046 h -1.468 v -1.046 h 1.468"
         style="fill:#ffffff;fill-opacity:1;fill-rule:nonzero;stroke:none"
         id="path82" /><path
         d="m 223.93,224.945 h -19.106 v -1.047 h 19.106 v 1.047"
         style="fill:#ffffff;fill-opacity:1;fill-rule:nonzero;stroke:none"
         id="path84" /><path
         d="m 247.234,218.02 v 3.988 h -4.199 v -1.051 h 3.149 v -1.891 h -4.829 v 2.942 h -6.929 v -4.199 h 1.051 v 3.148 h 4.828 v -2.937 h 6.929"
         style="fill:#ffffff;fill-opacity:1;fill-rule:nonzero;stroke:none"
         id="path86" /><path
         d="m 261.93,218.02 v 7.136 h -1.047 v -6.09 h -1.891 v 6.09 h -1.051 v -6.09 h -1.886 v 6.09 h -1.051 v -3.148 h -5.879 v -3.988 h 4.199 v 1.046 h -3.148 v 1.891 h 4.828 v -2.937 h 6.926"
         style="fill:#ffffff;fill-opacity:1;fill-rule:nonzero;stroke:none"
         id="path88" /><path
         d="m 238.629,218.02 v 1.046 h -1.473 v -1.046 h 1.473"
         style="fill:#ffffff;fill-opacity:1;fill-rule:nonzero;stroke:none"
         id="path90" /><path
         d="m 146.039,215.395 v -1.051 h 13.227 v 1.051 h -13.227"
         style="fill:#ffffff;fill-opacity:1;fill-rule:nonzero;stroke:none"
         id="path92" /><path
         d="m 160.734,215.395 v -1.051 h 13.227 v 1.051 h -13.227"
         style="fill:#ffffff;fill-opacity:1;fill-rule:nonzero;stroke:none"
         id="path94" /><path
         d="m 204.824,215.395 v -1.051 h 13.227 v 1.051 h -13.227"
         style="fill:#ffffff;fill-opacity:1;fill-rule:nonzero;stroke:none"
         id="path96" /><path
         d="m 131.344,215.395 v -1.051 h 13.226 v 1.051 h -13.226"
         style="fill:#ffffff;fill-opacity:1;fill-rule:nonzero;stroke:none"
         id="path98" /><path
         d="m 190.129,215.395 v -1.051 h 13.226 v 1.051 h -13.226"
         style="fill:#ffffff;fill-opacity:1;fill-rule:nonzero;stroke:none"
         id="path100" /><path
         d="m 175.434,215.395 v -1.051 h 13.222 v 1.051 h -13.222"
         style="fill:#ffffff;fill-opacity:1;fill-rule:nonzero;stroke:none"
         id="path102" /><path
         d="m 87.25,215.395 v -1.051 h 13.23 v 1.051 H 87.25"
         style="fill:#ffffff;fill-opacity:1;fill-rule:nonzero;stroke:none"
         id="path104" /><path
         d="m 101.949,215.395 v -1.051 h 13.227 v 1.051 h -13.227"
         style="fill:#ffffff;fill-opacity:1;fill-rule:nonzero;stroke:none"
         id="path106" /><path
         d="m 116.645,215.395 v -1.051 h 13.226 v 1.051 h -13.226"
         style="fill:#ffffff;fill-opacity:1;fill-rule:nonzero;stroke:none"
         id="path108" /><path
         d="m 72.5547,215.395 v -1.051 h 13.2266 v 1.051 H 72.5547"
         style="fill:#ffffff;fill-opacity:1;fill-rule:nonzero;stroke:none"
         id="path110" /><path
         d="m 293.004,215.395 v -1.051 h 13.226 v 1.051 h -13.226"
         style="fill:#ffffff;fill-opacity:1;fill-rule:nonzero;stroke:none"
         id="path112" /><path
         d="m 278.309,215.395 v -1.051 h 13.226 v 1.051 h -13.226"
         style="fill:#ffffff;fill-opacity:1;fill-rule:nonzero;stroke:none"
         id="path114" /><path
         d="m 307.699,215.395 v -1.051 h 2.824 c -0.128,0.355 -0.296,0.695 -0.425,1.051 h -2.399"
         style="fill:#ffffff;fill-opacity:1;fill-rule:nonzero;stroke:none"
         id="path116" /><path
         d="m 219.52,215.395 v -1.051 h 13.226 v 1.051 H 219.52"
         style="fill:#ffffff;fill-opacity:1;fill-rule:nonzero;stroke:none"
         id="path118" /><path
         d="m 263.609,215.395 v -1.051 h 13.231 v 1.051 h -13.231"
         style="fill:#ffffff;fill-opacity:1;fill-rule:nonzero;stroke:none"
         id="path120" /><path
         d="m 234.219,215.395 v -1.051 h 13.226 v 1.051 h -13.226"
         style="fill:#ffffff;fill-opacity:1;fill-rule:nonzero;stroke:none"
         id="path122" /><path
         d="m 248.914,215.395 v -1.051 h 13.227 v 1.051 h -13.227"
         style="fill:#ffffff;fill-opacity:1;fill-rule:nonzero;stroke:none"
         id="path124" /><path
         d="m 41.4844,218.02 v 3.988 h -4.1992 v -1.051 h 3.1484 v -1.891 h -4.8281 v 2.942 h -6.9297 v -4.199 h 1.0508 v 3.148 h 4.8281 v -2.937 h 6.9297"
         style="fill:#ffffff;fill-opacity:1;fill-rule:nonzero;stroke:none"
         id="path126" /><path
         d="m 32.875,218.02 v 1.046 h -1.4687 v -1.046 h 1.4687"
         style="fill:#ffffff;fill-opacity:1;fill-rule:nonzero;stroke:none"
         id="path128" /><path
         d="M 47.5703,224.945 H 28.4648 v -1.047 h 19.1055 v 1.047"
         style="fill:#ffffff;fill-opacity:1;fill-rule:nonzero;stroke:none"
         id="path130" /><path
         d="m 26.7852,218.02 v 7.136 h -1.0469 v -6.09 h -1.8906 v 6.09 h -1.0508 v -6.09 h -1.8906 v 6.09 h -1.0469 v -3.148 h -5.8789 v -3.988 h 4.1992 v 1.046 h -3.1524 v 1.891 h 4.8321 v -2.937 h 6.9258"
         style="fill:#ffffff;fill-opacity:1;fill-rule:nonzero;stroke:none"
         id="path132" /><path
         d="m 57.8594,215.395 v -1.051 h 13.2265 v 1.051 H 57.8594"
         style="fill:#ffffff;fill-opacity:1;fill-rule:nonzero;stroke:none"
         id="path134" /><path
         d="m 62.2695,218.02 v 1.046 h -1.4726 v -1.046 h 1.4726"
         style="fill:#ffffff;fill-opacity:1;fill-rule:nonzero;stroke:none"
         id="path136" /><path
         d="m 56.1797,218.02 v 7.136 h -1.0508 v -6.09 h -1.8906 v 6.09 h -1.0469 v -6.09 h -1.8906 v 6.09 H 49.25 v -3.148 h -5.8789 v -3.988 h 4.1992 v 1.046 h -3.1484 v 1.891 H 49.25 v -2.937 h 6.9297"
         style="fill:#ffffff;fill-opacity:1;fill-rule:nonzero;stroke:none"
         id="path138" /><path
         d="M 76.9648,224.945 H 57.8594 v -1.047 h 19.1054 v 1.047"
         style="fill:#ffffff;fill-opacity:1;fill-rule:nonzero;stroke:none"
         id="path140" /><path
         d="m 70.875,218.02 v 3.988 h -4.1992 v -1.051 h 3.1484 v -1.891 h -4.8281 v 2.942 h -6.9258 v -4.199 h 1.0469 v 3.148 h 4.832 v -2.937 h 6.9258"
         style="fill:#ffffff;fill-opacity:1;fill-rule:nonzero;stroke:none"
         id="path142" /><path
         d="m 13.7695,215.395 v -1.051 h 13.2266 v 1.051 H 13.7695"
         style="fill:#ffffff;fill-opacity:1;fill-rule:nonzero;stroke:none"
         id="path144" /><path
         d="m 28.4648,215.395 v -1.051 h 13.2266 v 1.051 H 28.4648"
         style="fill:#ffffff;fill-opacity:1;fill-rule:nonzero;stroke:none"
         id="path146" /><path
         d="m 18.1797,223.898 v 1.047 h -4.4024 c -0.1523,-0.343 -0.2734,-0.703 -0.4257,-1.047 h 4.8281"
         style="fill:#ffffff;fill-opacity:1;fill-rule:nonzero;stroke:none"
         id="path148" /><path
         d="m 43.1602,215.395 v -1.051 h 13.2304 v 1.051 H 43.1602"
         style="fill:#ffffff;fill-opacity:1;fill-rule:nonzero;stroke:none"
         id="path150" /><path
         d="m 12.0898,220.777 c -0.3789,-0.918 -0.7578,-1.832 -1.1171,-2.757 h 1.1171 v 2.757"
         style="fill:#ffffff;fill-opacity:1;fill-rule:nonzero;stroke:none"
         id="path152" /><path
         d="m 9.90625,215.395 c -0.12891,-0.356 -0.29687,-0.696 -0.42578,-1.051 h 2.82033 v 1.051 H 9.90625"
         style="fill:#ffffff;fill-opacity:1;fill-rule:nonzero;stroke:none"
         id="path154" /><path
         d="m 307.91,220.789 v -2.769 h 1.125 c -0.363,0.929 -0.746,1.847 -1.125,2.769"
         style="fill:#ffffff;fill-opacity:1;fill-rule:nonzero;stroke:none"
         id="path156" /><path
         d="m 154.855,97.9688 h 3.153 v -1.8907 h -4.832 v 2.9414 h -6.93 v -4.1992 h 1.051 v 3.1485 h 4.832 v -2.9415 h 6.926 v 3.9922 h -4.2 v -1.0507"
         style="fill:#ffffff;fill-opacity:1;fill-rule:nonzero;stroke:none"
         id="path158" /><path
         d="m 148.977,96.0781 v -1.0508 h 1.468 v 1.0508 h -1.468"
         style="fill:#ffffff;fill-opacity:1;fill-rule:nonzero;stroke:none"
         id="path160" /><path
         d="m 165.145,101.957 h -19.106 v -1.051 h 19.106 v 1.051"
         style="fill:#ffffff;fill-opacity:1;fill-rule:nonzero;stroke:none"
         id="path162" /><path
         d="m 165.145,96.0781 h -3.149 v 1.8907 h 4.828 v -2.9415 h 6.93 v 7.1407 h -1.051 v -6.0899 h -1.89 v 6.0899 h -1.051 v -6.0899 h -1.891 v 6.0899 h -1.047 v -3.1485 h -5.879 v -3.9922 h 4.2 v 1.0508"
         style="fill:#ffffff;fill-opacity:1;fill-rule:nonzero;stroke:none"
         id="path164" /><path
         d="m 121.055,95.0273 v 1.0508 h -1.469 v -1.0508 h 1.469"
         style="fill:#ffffff;fill-opacity:1;fill-rule:nonzero;stroke:none"
         id="path166" /><path
         d="m 137.43,102.168 v -3.1485 h -5.879 v -3.9922 h 4.199 v 1.0508 h -3.148 v 1.8907 h 4.828 v -2.9415 h 6.929 v 7.1407 h -1.05 v -6.0899 h -1.891 v 6.0899 h -1.047 v -6.0899 h -1.891 v 6.0899 h -1.05"
         style="fill:#ffffff;fill-opacity:1;fill-rule:nonzero;stroke:none"
         id="path168" /><path
         d="m 129.66,95.0273 v 3.9922 h -4.195 v -1.0507 h 3.148 v -1.8907 h -4.832 v 2.9414 h -6.926 v -4.1992 h 1.051 v 3.1485 h 4.828 v -2.9415 h 6.926"
         style="fill:#ffffff;fill-opacity:1;fill-rule:nonzero;stroke:none"
         id="path170" /><path
         d="m 179.84,95.0273 v 1.0508 h -1.469 v -1.0508 h 1.469"
         style="fill:#ffffff;fill-opacity:1;fill-rule:nonzero;stroke:none"
         id="path172" /><path
         d="m 225.609,102.168 v -3.1485 h -5.879 v -3.9922 h 4.2 v 1.0508 h -3.149 v 1.8907 h 4.828 v -2.9415 h 6.93 v 7.1407 h -1.051 v -6.0899 h -1.89 v 6.0899 h -1.047 v -6.0899 h -1.891 v 6.0899 h -1.051"
         style="fill:#ffffff;fill-opacity:1;fill-rule:nonzero;stroke:none"
         id="path174" /><path
         d="m 217.844,95.0273 v 3.9922 h -4.199 v -1.0507 h 3.148 v -1.8907 h -4.828 v 2.9414 h -6.93 v -4.1992 h 1.051 v 3.1485 h 4.828 v -2.9415 h 6.93"
         style="fill:#ffffff;fill-opacity:1;fill-rule:nonzero;stroke:none"
         id="path176" /><path
         d="m 223.93,101.957 h -19.106 v -1.051 h 19.106 v 1.051"
         style="fill:#ffffff;fill-opacity:1;fill-rule:nonzero;stroke:none"
         id="path178" /><path
         d="m 188.449,95.0273 v 3.9922 h -4.199 v -1.0507 h 3.148 v -1.8907 h -4.828 v 2.9414 h -6.929 v -4.1992 h 1.05 v 3.1485 h 4.829 v -2.9415 h 6.929"
         style="fill:#ffffff;fill-opacity:1;fill-rule:nonzero;stroke:none"
         id="path180" /><path
         d="m 196.219,102.168 v -3.1485 h -5.879 v -3.9922 h 4.195 v 1.0508 h -3.148 v 1.8907 h 4.832 v -2.9415 h 6.926 v 7.1407 h -1.051 v -6.0899 h -1.887 v 6.0899 h -1.051 v -6.0899 h -1.89 v 6.0899 h -1.047"
         style="fill:#ffffff;fill-opacity:1;fill-rule:nonzero;stroke:none"
         id="path182" /><path
         d="m 135.75,101.957 h -19.105 v -1.051 h 19.105 v 1.051"
         style="fill:#ffffff;fill-opacity:1;fill-rule:nonzero;stroke:none"
         id="path184" /><path
         d="m 194.535,101.957 h -19.101 v -1.051 h 19.101 v 1.051"
         style="fill:#ffffff;fill-opacity:1;fill-rule:nonzero;stroke:none"
         id="path186" /><path
         d="m 32.875,95.0273 v 1.0508 h -1.4687 v -1.0508 h 1.4687"
         style="fill:#ffffff;fill-opacity:1;fill-rule:nonzero;stroke:none"
         id="path188" /><path
         d="M 47.5703,101.957 H 28.4648 v -1.051 h 19.1055 v 1.051"
         style="fill:#ffffff;fill-opacity:1;fill-rule:nonzero;stroke:none"
         id="path190" /><path
         d="m 41.4844,95.0273 v 3.9922 h -4.1992 v -1.0507 h 3.1484 v -1.8907 h -4.8281 v 2.9414 h -6.9297 v -4.1992 h 1.0508 v 3.1485 h 4.8281 v -2.9415 h 6.9297"
         style="fill:#ffffff;fill-opacity:1;fill-rule:nonzero;stroke:none"
         id="path192" /><path
         d="m 209.234,95.0273 v 1.0508 h -1.468 v -1.0508 h 1.468"
         style="fill:#ffffff;fill-opacity:1;fill-rule:nonzero;stroke:none"
         id="path194" /><path
         d="m 11.3984,100.906 h 6.7813 v 1.051 h -7.207 c 0.1367,-0.352 0.2851,-0.695 0.4257,-1.051"
         style="fill:#ffffff;fill-opacity:1;fill-rule:nonzero;stroke:none"
         id="path196" /><path
         d="m 19.8594,102.168 v -3.1485 h -5.8789 v -3.9922 h 4.1992 v 1.0508 h -3.1524 v 1.8907 h 4.8321 v -2.9415 h 6.9258 v 7.1407 h -1.0469 v -6.0899 h -1.8906 v 6.0899 h -1.0508 v -6.0899 h -1.8906 v 6.0899 h -1.0469"
         style="fill:#ffffff;fill-opacity:1;fill-rule:nonzero;stroke:none"
         id="path198" /><path
         d="m 310.098,104.582 c 0.129,0.356 0.297,0.695 0.425,1.051 h -2.824 v -1.051 h 2.399"
         style="fill:#ffffff;fill-opacity:1;fill-rule:nonzero;stroke:none"
         id="path200" /><path
         d="m 56.1797,95.0273 v 7.1407 h -1.0508 v -6.0899 h -1.8906 v 6.0899 h -1.0469 v -6.0899 h -1.8906 v 6.0899 H 49.25 v -3.1485 h -5.8789 v -3.9922 h 4.1992 v 1.0508 h -3.1484 v 1.8907 H 49.25 v -2.9415 h 6.9297"
         style="fill:#ffffff;fill-opacity:1;fill-rule:nonzero;stroke:none"
         id="path202" /><path
         d="m 62.2695,95.0273 v 1.0508 h -1.4726 v -1.0508 h 1.4726"
         style="fill:#ffffff;fill-opacity:1;fill-rule:nonzero;stroke:none"
         id="path204" /><path
         d="m 108.035,102.168 v -3.1485 h -5.879 v -3.9922 h 4.199 v 1.0508 h -3.148 v 1.8907 h 4.828 v -2.9415 h 6.93 v 7.1407 h -1.051 v -6.0899 h -1.887 v 6.0899 h -1.05 v -6.0899 h -1.891 v 6.0899 h -1.051"
         style="fill:#ffffff;fill-opacity:1;fill-rule:nonzero;stroke:none"
         id="path206" /><path
         d="M 106.355,101.957 H 87.25 v -1.051 h 19.105 v 1.051"
         style="fill:#ffffff;fill-opacity:1;fill-rule:nonzero;stroke:none"
         id="path208" /><path
         d="m 100.27,95.0273 v 3.9922 h -4.1997 v -1.0507 h 3.1485 v -1.8907 h -4.8282 v 2.9414 h -6.9297 v -4.1992 h 1.0508 v 3.1485 h 4.8281 v -2.9415 h 6.9302"
         style="fill:#ffffff;fill-opacity:1;fill-rule:nonzero;stroke:none"
         id="path210" /><path
         d="M 76.9648,101.957 H 57.8594 v -1.051 h 19.1054 v 1.051"
         style="fill:#ffffff;fill-opacity:1;fill-rule:nonzero;stroke:none"
         id="path212" /><path
         d="m 91.6602,95.0273 v 1.0508 h -1.4688 v -1.0508 h 1.4688"
         style="fill:#ffffff;fill-opacity:1;fill-rule:nonzero;stroke:none"
         id="path214" /><path
         d="m 78.6445,102.168 v -3.1485 h -5.8789 v -3.9922 h 4.1992 v 1.0508 h -3.1484 v 1.8907 h 4.8281 v -2.9415 h 6.9297 v 7.1407 h -1.0508 v -6.0899 h -1.8906 v 6.0899 H 81.582 v -6.0899 h -1.8867 v 6.0899 h -1.0508"
         style="fill:#ffffff;fill-opacity:1;fill-rule:nonzero;stroke:none"
         id="path216" /><path
         d="m 70.875,95.0273 v 3.9922 h -4.1992 v -1.0507 h 3.1484 v -1.8907 h -4.8281 v 2.9414 h -6.9258 v -4.1992 h 1.0469 v 3.1485 h 4.832 v -2.9415 h 6.9258"
         style="fill:#ffffff;fill-opacity:1;fill-rule:nonzero;stroke:none"
         id="path218" /><path
         d="m 262.141,104.582 v 1.051 h -13.227 v -1.051 h 13.227"
         style="fill:#ffffff;fill-opacity:1;fill-rule:nonzero;stroke:none"
         id="path220" /><path
         d="m 144.57,104.582 v 1.051 h -13.226 v -1.051 h 13.226"
         style="fill:#ffffff;fill-opacity:1;fill-rule:nonzero;stroke:none"
         id="path222" /><path
         d="m 115.176,104.582 v 1.051 h -13.227 v -1.051 h 13.227"
         style="fill:#ffffff;fill-opacity:1;fill-rule:nonzero;stroke:none"
         id="path224" /><path
         d="m 218.051,104.582 v 1.051 h -13.227 v -1.051 h 13.227"
         style="fill:#ffffff;fill-opacity:1;fill-rule:nonzero;stroke:none"
         id="path226" /><path
         d="m 159.266,104.582 v 1.051 h -13.227 v -1.051 h 13.227"
         style="fill:#ffffff;fill-opacity:1;fill-rule:nonzero;stroke:none"
         id="path228" /><path
         d="m 173.961,104.582 v 1.051 h -13.227 v -1.051 h 13.227"
         style="fill:#ffffff;fill-opacity:1;fill-rule:nonzero;stroke:none"
         id="path230" /><path
         d="m 203.355,104.582 v 1.051 h -13.226 v -1.051 h 13.226"
         style="fill:#ffffff;fill-opacity:1;fill-rule:nonzero;stroke:none"
         id="path232" /><path
         d="m 188.656,104.582 v 1.051 h -13.222 v -1.051 h 13.222"
         style="fill:#ffffff;fill-opacity:1;fill-rule:nonzero;stroke:none"
         id="path234" /><path
         d="m 129.871,104.582 v 1.051 h -13.226 v -1.051 h 13.226"
         style="fill:#ffffff;fill-opacity:1;fill-rule:nonzero;stroke:none"
         id="path236" /><path
         d="m 26.9961,104.582 v 1.051 H 13.7695 v -1.051 h 13.2266"
         style="fill:#ffffff;fill-opacity:1;fill-rule:nonzero;stroke:none"
         id="path238" /><path
         d="m 41.6914,104.582 v 1.051 H 28.4648 v -1.051 h 13.2266"
         style="fill:#ffffff;fill-opacity:1;fill-rule:nonzero;stroke:none"
         id="path240" /><path
         d="m 12.3008,104.582 v 1.051 H 9.48047 c 0.12891,-0.356 0.29687,-0.695 0.42578,-1.051 h 2.39455"
         style="fill:#ffffff;fill-opacity:1;fill-rule:nonzero;stroke:none"
         id="path242" /><path
         d="m 100.48,104.582 v 1.051 H 87.25 v -1.051 h 13.23"
         style="fill:#ffffff;fill-opacity:1;fill-rule:nonzero;stroke:none"
         id="path244" /><path
         d="m 85.7813,104.582 v 1.051 H 72.5547 v -1.051 h 13.2266"
         style="fill:#ffffff;fill-opacity:1;fill-rule:nonzero;stroke:none"
         id="path246" /><path
         d="m 71.0859,104.582 v 1.051 H 57.8594 v -1.051 h 13.2265"
         style="fill:#ffffff;fill-opacity:1;fill-rule:nonzero;stroke:none"
         id="path248" /><path
         d="m 56.3906,104.582 v 1.051 H 43.1602 v -1.051 h 13.2304"
         style="fill:#ffffff;fill-opacity:1;fill-rule:nonzero;stroke:none"
         id="path250" /><path
         d="m 297.414,95.0273 v 1.0508 h -1.473 v -1.0508 h 1.473"
         style="fill:#ffffff;fill-opacity:1;fill-rule:nonzero;stroke:none"
         id="path252" /><path
         d="m 284.395,102.168 v -3.1485 h -5.879 v -3.9922 h 4.199 v 1.0508 h -3.149 v 1.8907 h 4.829 v -2.9415 h 6.929 v 7.1407 h -1.051 v -6.0899 h -1.886 v 6.0899 h -1.051 v -6.0899 h -1.891 v 6.0899 h -1.05"
         style="fill:#ffffff;fill-opacity:1;fill-rule:nonzero;stroke:none"
         id="path254" /><path
         d="m 282.715,101.957 h -19.106 v -1.051 h 19.106 v 1.051"
         style="fill:#ffffff;fill-opacity:1;fill-rule:nonzero;stroke:none"
         id="path256" /><path
         d="m 266.551,96.0781 v -1.0508 h 1.469 v 1.0508 h -1.469"
         style="fill:#ffffff;fill-opacity:1;fill-rule:nonzero;stroke:none"
         id="path258" /><path
         d="m 276.629,95.0273 v 3.9922 h -4.199 v -1.0507 h 3.148 v -1.8907 h -4.828 v 2.9414 h -6.93 v -4.1992 h 1.051 v 3.1485 h 4.828 v -2.9415 h 6.93"
         style="fill:#ffffff;fill-opacity:1;fill-rule:nonzero;stroke:none"
         id="path260" /><path
         d="m 255.004,102.168 v -3.1485 h -5.879 v -3.9922 h 4.199 v 1.0508 h -3.148 v 1.8907 h 4.828 v -2.9415 h 6.926 v 7.1407 h -1.047 v -6.0899 h -1.891 v 6.0899 h -1.051 v -6.0899 h -1.886 v 6.0899 h -1.051"
         style="fill:#ffffff;fill-opacity:1;fill-rule:nonzero;stroke:none"
         id="path262" /><path
         d="m 247.234,95.0273 v 3.9922 h -4.199 v -1.0507 h 3.149 v -1.8907 h -4.829 v 2.9414 h -6.929 v -4.1992 h 1.051 v 3.1485 h 4.828 v -2.9415 h 6.929"
         style="fill:#ffffff;fill-opacity:1;fill-rule:nonzero;stroke:none"
         id="path264" /><path
         d="m 238.629,95.0273 v 1.0508 h -1.473 v -1.0508 h 1.473"
         style="fill:#ffffff;fill-opacity:1;fill-rule:nonzero;stroke:none"
         id="path266" /><path
         d="m 247.445,104.582 v 1.051 h -13.226 v -1.051 h 13.226"
         style="fill:#ffffff;fill-opacity:1;fill-rule:nonzero;stroke:none"
         id="path268" /><path
         d="m 276.84,104.582 v 1.051 h -13.231 v -1.051 h 13.231"
         style="fill:#ffffff;fill-opacity:1;fill-rule:nonzero;stroke:none"
         id="path270" /><path
         d="m 232.746,104.582 v 1.051 H 219.52 v -1.051 h 13.226"
         style="fill:#ffffff;fill-opacity:1;fill-rule:nonzero;stroke:none"
         id="path272" /><path
         d="m 291.535,104.582 v 1.051 h -13.226 v -1.051 h 13.226"
         style="fill:#ffffff;fill-opacity:1;fill-rule:nonzero;stroke:none"
         id="path274" /><path
         d="m 293.004,101.957 v -1.051 h 15.605 c 0.137,0.356 0.286,0.699 0.422,1.051 h -16.027"
         style="fill:#ffffff;fill-opacity:1;fill-rule:nonzero;stroke:none"
         id="path276" /><path
         d="m 253.324,101.957 h -19.105 v -1.051 h 19.105 v 1.051"
         style="fill:#ffffff;fill-opacity:1;fill-rule:nonzero;stroke:none"
         id="path278" /><path
         d="m 306.23,104.582 v 1.051 h -13.226 v -1.051 h 13.226"
         style="fill:#ffffff;fill-opacity:1;fill-rule:nonzero;stroke:none"
         id="path280" /><path
         d="m 293.215,99.0195 v -4.1992 h 1.051 v 3.1485 h 4.828 v -2.9415 h 6.926 v 3.9922 h -4.2 v -1.0507 h 3.153 v -1.8907 h -4.828 v 2.9414 h -6.93"
         style="fill:#ffffff;fill-opacity:1;fill-rule:nonzero;stroke:none"
         id="path282" /></g></g></svg>
