<?xml version="1.0" encoding="UTF-8" standalone="no"?>
<svg
   xmlns:dc="http://purl.org/dc/elements/1.1/"
   xmlns:cc="http://creativecommons.org/ns#"
   xmlns:rdf="http://www.w3.org/1999/02/22-rdf-syntax-ns#"
   xmlns:svg="http://www.w3.org/2000/svg"
   xmlns="http://www.w3.org/2000/svg"
   version="1.1"
   id="svg2"
   xml:space="preserve"
   width="42.666668"
   height="42.666668"
   viewBox="0 0 42.666668 42.666668"><metadata
     id="metadata8"><rdf:RDF><cc:Work
         rdf:about=""><dc:format>image/svg+xml</dc:format><dc:type
           rdf:resource="http://purl.org/dc/dcmitype/StillImage" /></cc:Work></rdf:RDF></metadata><defs
     id="defs6" /><g
     id="g10"
     transform="matrix(1.3333333,0,0,-1.3333333,0,42.666667)"><g
       id="g12"
       transform="scale(0.1)"><path
         d="M 0.320313,150.281 C 0.511719,147.34 0.773438,144.41 1.10938,141.5 H 90.1914 V 16.0898 C 101.809,10.4141 114.203,6.11719 127.172,3.39453 V 141.5 h 191.719 v 0.008 c 0.339,2.902 0.597,5.816 0.781,8.75 l 0.047,0.547 c 0.179,3.047 0.281,6.113 0.281,9.211 0,3.086 -0.102,6.156 -0.281,9.203 l -0.039,0.453 c -0.188,2.957 -0.446,5.891 -0.782,8.805 v 0.003 H 127.172 v 138.125 c -12.969,-2.722 -25.363,-7.019 -36.9806,-12.687 V 178.48 H 1.10547 C 0.765625,175.563 0.503906,172.613 0.316406,169.648 L 0.28125,169.223 C 0.101563,166.176 0,163.105 0,160.016 c 0,-3.098 0.101563,-6.168 0.28125,-9.219 l 0.039063,-0.516"
         style="fill:#d92326;fill-opacity:1;fill-rule:nonzero;stroke:none"
         id="path14" /><path
         d="M 316.977,190.863 H 140.383 v 127.903 c -4.449,-0.547 -8.856,-1.246 -13.188,-2.161 l -0.023,-0.027 v -0.371 -10.93 -28.933 -97.871 h 191.719 l -0.336,2.257 h 0.054 c -0.445,3.411 -0.976,6.793 -1.632,10.133"
         style="fill:#ffffff;fill-opacity:1;fill-rule:nonzero;stroke:none"
         id="path16" /><path
         d="M 3.03125,129.109 H 76.9688 V 23.3164 c 4.2695,-2.6094 8.6835,-5.0156 13.207,-7.2226 V 43.6289 141.5 H 1.10938 c 0.48046,-4.18 1.11718,-8.312 1.92187,-12.391"
         style="fill:#ffffff;fill-opacity:1;fill-rule:nonzero;stroke:none"
         id="path18" /><path
         d="M 76.9688,296.684 V 190.863 H 3.02344 c -0.80078,-4.078 -1.4375,-8.211 -1.91797,-12.39 H 90.1758 v 97.871 27.566 c -4.5235,-2.211 -8.9375,-4.617 -13.207,-7.226"
         style="fill:#ffffff;fill-opacity:1;fill-rule:nonzero;stroke:none"
         id="path20" /><path
         d="M 261.352,141.5 H 127.172 V 3.39453 h 0.008 c 1.89,-0.39844 3.8,-0.73828 5.718,-1.05859 l 0.965,-0.17188 c 2.16,-0.35156 4.328,-0.66015 6.52,-0.92968 v 40.13672 6.8437 80.8942 h 120.969 55.617 c 0.804,4.079 1.433,8.211 1.922,12.391 h -57.539"
         style="fill:#ffffff;fill-opacity:1;fill-rule:nonzero;stroke:none"
         id="path22" /><path
         d="m 140.383,190.863 h 176.594 c -14.454,73.438 -79.418,129.153 -156.981,129.153 -6.644,0 -13.18,-0.457 -19.613,-1.25 V 190.863"
         style="fill:#293e93;fill-opacity:1;fill-rule:evenodd;stroke:none"
         id="path24" /><path
         d="M 76.9688,190.863 V 296.684 C 39.2969,273.688 11.8164,235.555 3.02344,190.863 H 76.9688"
         style="fill:#293e93;fill-opacity:1;fill-rule:evenodd;stroke:none"
         id="path26" /><path
         d="M 140.383,129.109 V 1.23438 c 6.433,-0.792974 12.969,-1.250005 19.613,-1.250005 77.547,0 142.5,55.695325 156.973,129.124625 H 140.383"
         style="fill:#293e93;fill-opacity:1;fill-rule:evenodd;stroke:none"
         id="path28" /><path
         d="M 76.9688,129.109 H 3.03125 C 11.832,84.4297 39.3086,46.3125 76.9688,23.3164 V 129.109"
         style="fill:#293e93;fill-opacity:1;fill-rule:evenodd;stroke:none"
         id="path30" /></g></g></svg>
