<?xml version="1.0" encoding="UTF-8" standalone="no"?>
<svg
   xmlns:dc="http://purl.org/dc/elements/1.1/"
   xmlns:cc="http://creativecommons.org/ns#"
   xmlns:rdf="http://www.w3.org/1999/02/22-rdf-syntax-ns#"
   xmlns:svg="http://www.w3.org/2000/svg"
   xmlns="http://www.w3.org/2000/svg"
   version="1.1"
   id="svg2"
   xml:space="preserve"
   width="42.666668"
   height="42.666668"
   viewBox="0 0 42.666668 42.666668"><metadata
     id="metadata8"><rdf:RDF><cc:Work
         rdf:about=""><dc:format>image/svg+xml</dc:format><dc:type
           rdf:resource="http://purl.org/dc/dcmitype/StillImage" /></cc:Work></rdf:RDF></metadata><defs
     id="defs6" /><g
     id="g10"
     transform="matrix(1.3333333,0,0,-1.3333333,0,42.666667)"><g
       id="g12"
       transform="scale(0.1)"><path
         d="M 105.66,9.47266 V 310.52 c 16.961,6.136 35.27,9.48 54.34,9.48 19.082,0 37.379,-3.344 54.352,-9.48 V 9.47266 C 197.379,3.35156 179.082,0 160,0 140.93,0 122.621,3.35156 105.66,9.47266"
         style="fill:#ffffff;fill-opacity:1;fill-rule:evenodd;stroke:none"
         id="path14" /><path
         d="M 105.66,310.52 V 9.48438 C 44.0547,31.7305 0,90.7344 0,160 0,229.27 44.0547,288.266 105.66,310.52"
         style="fill:#299540;fill-opacity:1;fill-rule:evenodd;stroke:none"
         id="path16" /><path
         d="M 214.352,9.48438 V 310.52 C 275.957,288.266 320,229.27 320,160 320,90.7344 275.957,31.7305 214.352,9.48438"
         style="fill:#d02035;fill-opacity:1;fill-rule:evenodd;stroke:none"
         id="path18" /></g></g></svg>
