<?xml version="1.0" encoding="UTF-8" standalone="no"?>
<svg
   xmlns:dc="http://purl.org/dc/elements/1.1/"
   xmlns:cc="http://creativecommons.org/ns#"
   xmlns:rdf="http://www.w3.org/1999/02/22-rdf-syntax-ns#"
   xmlns:svg="http://www.w3.org/2000/svg"
   xmlns="http://www.w3.org/2000/svg"
   version="1.1"
   id="svg2"
   xml:space="preserve"
   width="42.666668"
   height="42.666668"
   viewBox="0 0 42.666668 42.666668"><metadata
     id="metadata8"><rdf:RDF><cc:Work
         rdf:about=""><dc:format>image/svg+xml</dc:format><dc:type
           rdf:resource="http://purl.org/dc/dcmitype/StillImage" /></cc:Work></rdf:RDF></metadata><defs
     id="defs6" /><g
     id="g10"
     transform="matrix(1.3333333,0,0,-1.3333333,0,42.666667)"><g
       id="g12"
       transform="scale(0.1)"><path
         d="M 160,176.418 289.301,254 C 260.152,293.941 213.02,320 159.98,320 106.945,320 59.8281,293.945 30.6953,254.004 L 160,176.418"
         style="fill:#ffffff;fill-opacity:1;fill-rule:evenodd;stroke:none"
         id="path14" /><path
         d="M 303.848,90.1094 C 314.18,111.25 320,134.973 320,160.008 c 0,25.035 -5.816,48.75 -16.145,69.887 L 187.363,160 303.848,90.1094"
         style="fill:#ffffff;fill-opacity:1;fill-rule:evenodd;stroke:none"
         id="path16" /><path
         d="M 160,143.582 30.6992,66.0039 C 59.8359,26.0586 106.953,0 159.98,0 213.016,0 260.148,26.0625 289.293,66.0078 L 160,143.582"
         style="fill:#ffffff;fill-opacity:1;fill-rule:evenodd;stroke:none"
         id="path18" /><path
         d="M 16.1406,229.898 C 5.8125,208.762 0,185.047 0,160.008 0,134.969 5.81641,111.25 16.1484,90.1055 L 132.637,160 16.1406,229.898"
         style="fill:#ffffff;fill-opacity:1;fill-rule:evenodd;stroke:none"
         id="path20" /><path
         d="M 289.301,253.996 160,176.418 30.6914,254.004 C 25.1719,246.434 20.2852,238.383 16.1406,229.898 L 132.637,160 16.1484,90.1055 C 20.293,81.625 25.1797,73.5703 30.6992,66.0039 L 160,143.582 289.293,66.0078 c 5.52,7.5664 10.41,15.6211 14.555,24.1016 L 187.363,160 303.855,229.895 c -4.144,8.484 -9.035,16.535 -14.554,24.101"
         style="fill:#e81a2e;fill-opacity:1;fill-rule:nonzero;stroke:none"
         id="path22" /><path
         d="m 160,271.324 c 10.285,0 19.867,-2.722 25.512,-6.25 1.109,8.672 5.043,17.344 9.679,23.899 -4.839,0.101 -7.007,-2.473 -7.054,-5.145 -1.211,3.43 -5.953,3.227 -7.414,1.363 5.293,-3.582 1.211,-9.933 -3.578,-8.625 -2.25,0.618 -3.442,2.188 -3.86,4.465 1.434,0.09 2.524,1.328 2.434,2.762 -0.094,1.434 -1.328,2.523 -2.766,2.434 -1.433,-0.094 -2.523,-1.329 -2.43,-2.766 0.063,-1.008 0.707,-1.891 1.653,-2.258 -1.516,-2.473 -4.231,-3.211 -6.176,-2.668 -2.52,0.707 -3.578,2.973 -3.578,4.992 0,5.243 5.039,6.047 6.555,5.141 -0.098,3.531 -5.649,6.352 -7.36,3.43 1.914,3.429 1.813,8.269 -1.617,11.496 -3.426,-3.227 -3.527,-8.067 -1.609,-11.496 -1.715,2.922 -7.262,0.101 -7.364,-3.43 1.512,0.906 6.555,0.102 6.555,-5.141 0,-2.019 -1.059,-4.285 -3.578,-4.992 -1.945,-0.547 -4.66,0.195 -6.176,2.668 1.34,0.52 2,2.031 1.481,3.371 -0.524,1.336 -2.032,2 -3.371,1.477 -1.34,-0.52 -2,-2.031 -1.481,-3.371 0.367,-0.942 1.25,-1.586 2.262,-1.649 -0.422,-2.277 -1.614,-3.847 -3.86,-4.465 -4.789,-1.308 -8.875,5.043 -3.582,8.625 -1.461,1.864 -6.199,2.067 -7.41,-1.363 -0.051,2.672 -2.219,5.242 -7.058,5.145 4.636,-6.555 8.57,-15.227 9.679,-23.899 5.649,3.528 15.227,6.25 25.512,6.25 v 0"
         style="fill:#f3df0b;fill-opacity:1;fill-rule:nonzero;stroke:none"
         id="path24" /><path
         d="m 185.512,265.074 c -5.645,3.528 -15.227,6.25 -25.512,6.25 v 0 c -10.277,0 -19.848,-2.719 -25.496,-6.242 -5.813,-24.934 -2.078,-55.293 25.535,-72.258 27.676,17.004 31.367,47.457 25.5,72.422 l -0.027,-0.172"
         style="fill:#e81a2e;fill-opacity:1;fill-rule:nonzero;stroke:none"
         id="path26" /><path
         d="m 181.559,246.82 -0.938,-0.937 c 1.602,0.043 2.375,0.484 2.863,1.289 l -0.164,-1.086 c 1.172,0.414 1.735,1.41 1.325,2.086 l 1.257,-0.617 c -0.82,0.644 -0.23,2.113 -1.554,2.875 l 1.527,-1.055 c -0.203,1.32 -0.41,2.172 -1.496,2.906 h 0.996 l -0.848,1.645 -1.175,0.586 c -0.743,-0.184 -2.438,-0.293 -3.434,-0.293 -2.055,0 -3.848,0 -5.551,1.172 2.555,-1.055 5.813,1.175 5.813,3.023 0,2.055 -2.524,3.731 -7.629,2.613 -5.11,-1.117 -11.332,-0.644 -11.332,1.055 0,1.703 4.461,1.938 6.754,1.586 2.289,-0.352 3.929,-0.586 8.215,0.941 -1.055,-0.414 -4.461,-0.531 -7.161,0.235 -2.699,0.761 -9.336,0.761 -9.39,-2.821 -0.063,-3.578 7.062,-3.253 13.207,-2.347 3.578,0.531 5.457,0.176 5.457,-0.996 0,-1.117 -3.285,-1.586 -5.813,-1.293 -2.519,0.293 -5.105,0.234 -8.097,-0.645 -2.5,-0.734 -4.227,0 -6.985,-0.469 -1.34,-0.23 -4.582,0 -6.179,2.641 -0.985,-0.703 -3.95,-2.18 -4.45,-3.617 -0.703,-1.32 -0.23,-2.637 0.703,-3.926 1.184,-1.625 -0.585,-1.379 -1.843,-1.437 -1.735,-0.082 -4.047,0.183 -5.258,1.554 -1.07,1.215 -2.496,2.188 -3.633,1.289 l 0.438,-0.902 1.492,-0.387 -1.981,-0.226 0.66,-0.926 1.93,-0.172 -1.613,-0.242 0.613,-0.809 c 1.098,0.051 1.379,-0.718 2.477,-0.558 l -1.235,-0.707 c 1.028,0.468 2.164,-0.797 3.496,-0.5 l -1.351,-1.114 c 0.793,0.911 6.105,-0.703 6.223,1.289 l -0.293,-1.554 c 0.679,0.414 2.875,0.558 3.55,2.144 l -0.441,-1.234 c 0.707,-0.231 1.633,0.297 2.582,1.703 l 0.402,1.348 c 0.942,-0.035 1.625,0.203 2.36,0.824 0.761,0.644 1.586,-0.527 2.875,0.293 1.293,0.824 2.41,0.117 3.109,0.527 l 2.438,0.324 c 0.765,0.469 1.949,-0.23 3.211,0.77 1.988,-0.73 4.308,-2.078 10,-1.031 3.261,0.597 4.285,-0.5 4.285,-1.996 0,-1.028 -0.602,-1.118 -1.059,-1.149 -1.812,-0.109 -2.594,0.68 -3.309,0.426 l -0.078,-1.219 -0.207,-1.043 1.563,0.219 -0.953,-1.398 1.39,0.097 2.239,1.246 v 0"
         style="fill:#f3df0b;fill-opacity:1;fill-rule:nonzero;stroke:none"
         id="path28" /><path
         d="m 145.414,262.32 c -1.644,0.672 -2.199,0.692 -1.82,-0.648 l 0.953,-1.746 0.867,2.394"
         style="fill:#f3df0b;fill-opacity:1;fill-rule:nonzero;stroke:none"
         id="path30" /><path
         d="m 150.551,262.32 c 1.644,0.672 2.199,0.692 1.82,-0.648 l -0.957,-1.746 -0.863,2.394"
         style="fill:#f3df0b;fill-opacity:1;fill-rule:nonzero;stroke:none"
         id="path32" /><path
         d="m 147.988,263.223 c 3.114,0 3.5,-1.461 3.485,-3.282 -0.012,-1.968 -1.071,-1.293 -1.672,-3.816 -0.235,-0.988 -1.02,-1.043 -1.813,-1.043 -0.793,0 -1.578,0.055 -1.812,1.043 -0.598,2.523 -1.656,1.848 -1.668,3.816 -0.016,1.821 0.371,3.282 3.484,3.282 h -0.004"
         style="fill:#f3df0b;fill-opacity:1;fill-rule:nonzero;stroke:none"
         id="path34" /><path
         d="m 139.969,256.008 -1.625,0.058 c 1.027,-0.265 1.066,-1.586 3.418,-2.199 l -1.324,0.117 c 0.968,-0.765 2.054,-1.648 4.347,-1.675 1.278,-0.012 0.395,-0.672 -0.441,-0.293 0.867,-0.895 2.582,-0.161 3.668,-1.789 0.207,1.261 -2.024,3.257 -0.996,4.695 -3.168,0.137 -3.43,1.891 -5.254,3.289 -1.489,1.133 -1.621,2.289 -2.278,4.449 -0.296,0.981 -1.445,1.59 -2.078,1.36 l -0.281,-1.043 c 0.477,-0.364 1.086,-0.411 1.219,-1.325 l -1.992,0.547 0.421,-1 c 0.95,-0.097 0.266,-1.027 1.348,-1.933 -0.961,1.078 -1.789,1.175 -2.301,0.589 l 0.66,-0.91 c 0.954,0.098 2.059,-2.324 3.489,-2.937"
         style="fill:#f3df0b;fill-opacity:1;fill-rule:nonzero;stroke:none"
         id="path36" /><path
         d="m 165.504,246.938 -1.027,-0.969 c 1.617,0 2.437,0.383 3.199,1 l -0.528,-1.028 c 0.852,0.735 2.879,0.793 3.934,0.586 1.059,-0.207 1.234,0.293 1.613,0.969 l -0.672,1.586 c -0.531,0.527 -0.648,1.262 -0.531,2.492 -2.816,3.758 -7.867,1.938 -7.926,0.297 1.821,-2.113 2.055,-1.879 3.582,-2.172 1.528,-0.297 2.461,-0.293 1.438,-1.148 -0.352,-0.293 -1.82,-0.153 -2.965,-0.203 -2.558,-0.114 -3.73,1.769 -4.488,0.793 -0.621,-0.805 0.019,-1.161 1.289,-1.118 l -1.844,-0.777 c 0.336,-1.379 1.652,0.258 2.168,-0.308 l -1.148,-0.583 c -0.024,-0.414 0.976,-0.949 2.074,-0.078 l 1.832,0.661 v 0"
         style="fill:#f3df0b;fill-opacity:1;fill-rule:nonzero;stroke:none"
         id="path38" /><path
         d="m 149.949,260.691 0.16,0.032 -0.031,0.058 -0.027,0.055 -0.496,0.008 -1.078,-0.313 -0.004,-0.004 -0.086,-0.047 -0.047,-0.343 0.047,-0.25 0.105,-0.489 0.055,-1.136 -0.582,-0.164 -0.586,0.164 0.055,1.093 0.113,0.532 0.051,0.254 -0.047,0.339 -0.082,0.043 -0.008,0.008 -1.078,0.313 -0.496,-0.008 -0.059,-0.113 0.156,-0.032 0.391,-0.265 v 0 l -0.047,-0.047 0.438,-0.211 0.418,0.191 0.187,0.079 0.008,-0.008 0.035,0.035 -0.031,-0.039 0.125,-0.067 -0.035,-0.191 -0.055,-0.254 -0.109,-0.531 -0.032,-1.199 0.688,-0.215 0.68,0.215 -0.028,1.242 -0.105,0.488 -0.047,0.246 -0.039,0.199 0.125,0.067 -0.035,0.043 0.043,-0.039 0.004,0.008 0.187,-0.079 0.422,-0.191 0.433,0.211 -0.042,0.047 v 0 l 0.386,0.265"
         style="fill:#e61b2f;fill-opacity:1;fill-rule:nonzero;stroke:none"
         id="path40" /><path
         d="m 147.98,255.598 c 0.836,0 1.321,0.015 1.192,1.187 l 0.351,1.426 c 0.235,-0.941 -1.543,-0.852 -1.543,-0.426 0,-0.426 -1.773,-0.515 -1.539,0.426 l 0.352,-1.426 c -0.133,-1.172 0.352,-1.187 1.187,-1.187"
         style="fill:#eb1e28;fill-opacity:1;fill-rule:nonzero;stroke:none"
         id="path42" /><path
         d="m 137.586,263.98 c -0.586,0.727 -2.051,0.114 -2.078,-0.789 l 1.738,-0.082 0.34,0.871 v 0"
         style="fill:#3250aa;fill-opacity:1;fill-rule:nonzero;stroke:none"
         id="path44" /><path
         d="m 136.824,262.258 c -0.582,0.726 -2.043,0.113 -2.07,-0.789 l 1.738,-0.082 0.332,0.871"
         style="fill:#3250aa;fill-opacity:1;fill-rule:nonzero;stroke:none"
         id="path46" /><path
         d="m 136.445,259.945 -1.972,-1.015 1.738,0.113 z"
         style="fill:#3250aa;fill-opacity:1;fill-rule:nonzero;stroke:none"
         id="path48" /><path
         d="m 137.145,252.781 -1.844,-1.238 1.711,0.316 0.133,0.922 v 0"
         style="fill:#3250aa;fill-opacity:1;fill-rule:nonzero;stroke:none"
         id="path50" /><path
         d="m 137.105,251.211 -1.371,-1.742 1.532,0.824 z"
         style="fill:#3250aa;fill-opacity:1;fill-rule:nonzero;stroke:none"
         id="path52" /><path
         d="m 138.227,250.039 -1.375,-1.742 1.535,0.824 -0.16,0.918 v 0"
         style="fill:#3250aa;fill-opacity:1;fill-rule:nonzero;stroke:none"
         id="path54" /><path
         d="m 161.152,247.77 -1.375,-1.743 1.536,0.825 z"
         style="fill:#3250aa;fill-opacity:1;fill-rule:nonzero;stroke:none"
         id="path56" /><path
         d="m 162.332,246.707 c -0.906,0.223 -1.691,-1.156 -1.168,-1.891 l 1.434,0.997 -0.266,0.894 v 0"
         style="fill:#3250aa;fill-opacity:1;fill-rule:nonzero;stroke:none"
         id="path58" /><path
         d="m 161.5,249.277 -1.648,-1.488 1.652,0.555 z"
         style="fill:#3250aa;fill-opacity:1;fill-rule:nonzero;stroke:none"
         id="path60" /><path
         d="m 177.809,247.438 c -0.907,0.222 -1.692,-1.153 -1.164,-1.887 l 1.429,0.996 -0.265,0.891 v 0"
         style="fill:#3250aa;fill-opacity:1;fill-rule:nonzero;stroke:none"
         id="path62" /><path
         d="m 177.836,248.879 -1.598,-1.543 1.633,0.613 z"
         style="fill:#3250aa;fill-opacity:1;fill-rule:nonzero;stroke:none"
         id="path64" /><path
         d="m 178.473,246.152 c -0.914,0.18 -1.637,-1.226 -1.082,-1.937 l 1.382,1.058 -0.3,0.879"
         style="fill:#3250aa;fill-opacity:1;fill-rule:nonzero;stroke:none"
         id="path66" /><path
         d="m 148.051,256.301 c 0.574,0 0.804,-0.168 0.804,-1.203 0,-2.2 -0.027,-3.145 -0.73,-3.145 -0.711,0 -0.66,0.899 -0.66,2.512 l -0.172,1.191 0.758,0.645"
         style="fill:#3250aa;fill-opacity:1;fill-rule:nonzero;stroke:none"
         id="path68" /><path
         d="m 179.531,226.195 -0.851,-0.855 c 1.457,0.039 2.164,0.441 2.605,1.18 l -0.144,-0.993 c 1.07,0.375 1.578,1.286 1.203,1.903 l 1.152,-0.563 c -0.75,0.59 -0.215,1.926 -1.422,2.621 l 1.395,-0.961 c -0.188,1.203 -0.375,1.981 -1.367,2.649 h 0.91 l -0.774,1.5 -1.074,0.535 c -0.672,-0.168 -2.219,-0.27 -3.129,-0.27 -1.875,0 -3.508,0 -5.062,1.075 2.332,-0.965 5.3,1.07 5.3,2.754 0,1.875 -2.3,3.402 -6.96,2.382 -4.657,-1.015 -10.333,-0.586 -10.333,0.965 0,1.555 4.071,1.766 6.161,1.446 2.086,-0.321 3.586,-0.536 7.492,0.859 -0.961,-0.375 -4.07,-0.484 -6.531,0.211 -2.461,0.699 -8.512,0.699 -8.567,-2.57 -0.055,-3.266 6.442,-2.969 12.047,-2.141 3.266,0.484 4.981,0.16 4.981,-0.91 0,-1.016 -3,-1.446 -5.301,-1.176 -2.301,0.266 -4.66,0.211 -7.391,-0.59 -2.277,-0.672 -3.851,0 -6.367,-0.43 -1.223,-0.207 -4.18,0 -5.637,2.411 -0.898,-0.645 -3.601,-1.989 -4.054,-3.301 -0.645,-1.203 -0.215,-2.403 0.64,-3.578 1.078,-1.485 -0.535,-1.258 -1.687,-1.313 -1.578,-0.074 -3.692,0.168 -4.793,1.418 -0.977,1.11 -2.278,1.996 -3.313,1.176 l 0.399,-0.824 1.363,-0.352 -1.809,-0.203 0.602,-0.848 1.758,-0.156 -1.469,-0.223 0.559,-0.734 c 1,0.043 1.257,-0.656 2.261,-0.512 l -1.129,-0.644 c 0.938,0.43 1.973,-0.727 3.188,-0.453 l -1.231,-1.02 c 0.723,0.832 5.571,-0.64 5.676,1.18 l -0.269,-1.418 c 0.621,0.375 2.625,0.508 3.238,1.953 l -0.399,-1.125 c 0.641,-0.211 1.489,0.27 2.356,1.555 l 0.363,1.23 2.153,0.75 c 0.695,0.59 1.445,-0.484 2.625,0.266 1.175,0.75 2.195,0.109 2.835,0.484 l 2.223,0.293 c 0.695,0.43 1.777,-0.211 2.93,0.699 1.812,-0.664 3.926,-1.894 9.117,-0.941 2.977,0.547 3.906,-0.453 3.906,-1.82 0,-0.938 -0.547,-1.016 -0.961,-1.043 -1.656,-0.102 -2.367,0.621 -3.019,0.386 l -0.071,-1.113 -0.187,-0.949 1.422,0.199 -0.867,-1.273 1.269,0.09 2.039,1.132 v 0"
         style="fill:#f3df0b;fill-opacity:1;fill-rule:nonzero;stroke:none"
         id="path70" /><path
         d="m 146.566,240.332 c -1.5,0.617 -2.003,0.633 -1.66,-0.59 l 0.871,-1.594 0.789,2.184"
         style="fill:#f3df0b;fill-opacity:1;fill-rule:nonzero;stroke:none"
         id="path72" /><path
         d="m 151.25,240.332 c 1.5,0.617 2.008,0.633 1.66,-0.59 l -0.871,-1.594 -0.789,2.184"
         style="fill:#f3df0b;fill-opacity:1;fill-rule:nonzero;stroke:none"
         id="path74" /><path
         d="m 148.914,241.156 c 2.84,0 3.191,-1.332 3.18,-2.992 -0.016,-1.793 -0.977,-1.18 -1.528,-3.48 -0.211,-0.903 -0.929,-0.95 -1.652,-0.95 -0.723,0 -1.437,0.047 -1.652,0.95 -0.547,2.3 -1.512,1.687 -1.524,3.48 -0.015,1.66 0.34,2.992 3.18,2.992 h -0.004"
         style="fill:#f3df0b;fill-opacity:1;fill-rule:nonzero;stroke:none"
         id="path76" /><path
         d="m 141.602,234.578 -1.485,0.051 c 0.938,-0.242 0.973,-1.445 3.117,-2.008 l -1.207,0.109 c 0.883,-0.699 1.875,-1.503 3.965,-1.527 1.164,-0.012 0.36,-0.617 -0.402,-0.269 0.789,-0.817 2.355,-0.145 3.344,-1.633 0.187,1.152 -1.844,2.972 -0.911,4.285 -2.886,0.121 -3.125,1.723 -4.789,2.996 -1.355,1.039 -1.476,2.09 -2.074,4.063 l -1.898,1.238 -0.258,-0.953 1.109,-1.203 -1.816,0.496 0.387,-0.91 c 0.867,-0.09 0.242,-0.938 1.23,-1.766 -0.875,0.984 -1.633,1.074 -2.101,0.539 l 0.601,-0.828 c 0.871,0.086 1.883,-2.121 3.188,-2.684 v 0.004"
         style="fill:#f3df0b;fill-opacity:1;fill-rule:nonzero;stroke:none"
         id="path78" /><path
         d="m 164.891,226.305 -0.938,-0.883 c 1.473,0 2.223,0.348 2.918,0.91 l -0.48,-0.937 c 0.773,0.668 2.621,0.722 3.586,0.535 0.964,-0.188 1.125,0.265 1.472,0.883 l -0.613,1.445 c -0.484,0.48 -0.594,1.152 -0.484,2.277 -2.571,3.426 -7.176,1.766 -7.231,0.266 1.66,-1.926 1.875,-1.711 3.27,-1.981 1.39,-0.265 2.242,-0.265 1.308,-1.043 -0.32,-0.269 -1.66,-0.144 -2.703,-0.187 -2.336,-0.102 -3.402,1.613 -4.094,0.723 -0.566,-0.735 0.02,-1.059 1.176,-1.02 l -1.683,-0.707 c 0.308,-1.258 1.511,0.234 1.976,-0.285 l -1.047,-0.528 c -0.019,-0.378 0.891,-0.867 1.895,-0.074 l 1.672,0.606 v 0"
         style="fill:#f3df0b;fill-opacity:1;fill-rule:nonzero;stroke:none"
         id="path80" /><path
         d="m 150.703,238.848 0.145,0.027 -0.028,0.055 -0.027,0.05 -0.453,0.004 -0.981,-0.281 -0.007,-0.008 -0.075,-0.039 -0.043,-0.316 0.043,-0.227 0.094,-0.445 0.051,-1.035 -0.527,-0.153 -0.54,0.153 0.051,0.996 0.102,0.484 0.047,0.231 -0.043,0.312 -0.074,0.039 -0.004,0.008 -0.985,0.281 -0.453,-0.004 -0.055,-0.105 0.149,-0.027 0.351,-0.243 v 0 l -0.039,-0.042 0.395,-0.196 0.383,0.176 0.172,0.074 0.003,-0.008 0.032,0.032 -0.028,-0.036 0.118,-0.058 -0.036,-0.18 -0.046,-0.23 -0.102,-0.481 -0.027,-1.097 0.629,-0.196 0.617,0.196 -0.028,1.132 -0.093,0.446 -0.043,0.226 -0.035,0.184 0.113,0.058 -0.031,0.04 0.039,-0.036 0.004,0.008 0.171,-0.074 0.383,-0.176 0.399,0.196 -0.043,0.042 v 0 l 0.355,0.243"
         style="fill:#e61b2f;fill-opacity:1;fill-rule:nonzero;stroke:none"
         id="path82" /><path
         d="m 148.906,234.203 c 0.766,0 1.207,0.012 1.086,1.082 l 0.321,1.297 -1.407,-0.383 -1.402,0.383 0.32,-1.297 c -0.121,-1.07 0.321,-1.082 1.082,-1.082"
         style="fill:#eb1e28;fill-opacity:1;fill-rule:nonzero;stroke:none"
         id="path84" /><path
         d="m 139.426,241.848 -1.895,-0.723 1.586,-0.07 z"
         style="fill:#3250aa;fill-opacity:1;fill-rule:nonzero;stroke:none"
         id="path86" /><path
         d="m 138.734,240.277 -1.894,-0.722 1.59,-0.071 z"
         style="fill:#3250aa;fill-opacity:1;fill-rule:nonzero;stroke:none"
         id="path88" /><path
         d="m 138.387,238.168 -1.801,-0.93 1.586,0.106 z"
         style="fill:#3250aa;fill-opacity:1;fill-rule:nonzero;stroke:none"
         id="path90" /><path
         d="m 139.02,231.633 -1.68,-1.129 1.562,0.285 0.121,0.844 h -0.003"
         style="fill:#3250aa;fill-opacity:1;fill-rule:nonzero;stroke:none"
         id="path92" /><path
         d="m 138.988,230.203 -1.254,-1.594 1.399,0.754 z"
         style="fill:#3250aa;fill-opacity:1;fill-rule:nonzero;stroke:none"
         id="path94" /><path
         d="m 140.012,229.133 -1.254,-1.59 1.398,0.754 -0.144,0.836 v 0"
         style="fill:#3250aa;fill-opacity:1;fill-rule:nonzero;stroke:none"
         id="path96" /><path
         d="m 160.918,227.063 -1.254,-1.59 1.402,0.754 z"
         style="fill:#3250aa;fill-opacity:1;fill-rule:nonzero;stroke:none"
         id="path98" /><path
         d="m 161.996,226.094 -1.062,-1.723 1.304,0.906 -0.242,0.817 v 0"
         style="fill:#3250aa;fill-opacity:1;fill-rule:nonzero;stroke:none"
         id="path100" /><path
         d="m 161.238,228.438 -1.504,-1.356 1.504,0.504 z"
         style="fill:#3250aa;fill-opacity:1;fill-rule:nonzero;stroke:none"
         id="path102" /><path
         d="m 176.113,226.762 -1.062,-1.723 1.301,0.906 -0.239,0.817 v 0"
         style="fill:#3250aa;fill-opacity:1;fill-rule:nonzero;stroke:none"
         id="path104" /><path
         d="m 176.137,228.074 -1.457,-1.406 1.488,0.555 z"
         style="fill:#3250aa;fill-opacity:1;fill-rule:nonzero;stroke:none"
         id="path106" /><path
         d="m 176.719,225.586 -0.989,-1.766 1.262,0.965 z"
         style="fill:#3250aa;fill-opacity:1;fill-rule:nonzero;stroke:none"
         id="path108" /><path
         d="m 148.969,234.844 c 0.523,0 0.734,-0.153 0.734,-1.098 0,-2.004 -0.023,-2.867 -0.668,-2.867 -0.644,0 -0.601,0.82 -0.601,2.289 l -0.153,1.09 0.688,0.586"
         style="fill:#3250aa;fill-opacity:1;fill-rule:nonzero;stroke:none"
         id="path110" /><path
         d="m 173.781,208.371 -0.636,-0.707 c 1.089,0.031 1.617,0.363 1.949,0.977 l -0.114,-0.821 0.903,1.575 0.855,-0.469 -1.058,2.176 1.039,-0.801 c -0.141,1 -0.281,1.64 -1.02,2.195 h 0.68 l -0.578,1.242 -0.797,0.446 -2.34,-0.223 c -1.398,0 -2.613,0 -3.773,0.887 1.738,-0.797 3.953,0.886 3.953,2.285 0,1.551 -1.715,2.812 -5.192,1.972 -3.476,-0.843 -7.711,-0.488 -7.711,0.797 0,1.286 3.036,1.465 4.594,1.2 1.559,-0.266 2.676,-0.446 5.594,0.707 -0.719,-0.309 -3.035,-0.399 -4.871,0.179 -1.84,0.575 -6.356,0.575 -6.395,-2.129 -0.039,-2.707 4.809,-2.461 8.989,-1.773 2.437,0.398 3.714,0.133 3.714,-0.754 0,-0.844 -2.238,-1.199 -3.953,-0.977 -1.718,0.223 -3.476,0.176 -5.511,-0.488 -1.704,-0.554 -2.879,0 -4.754,-0.355 -0.91,-0.172 -3.118,0 -4.207,1.996 -0.668,-0.531 -2.688,-1.645 -3.024,-2.735 -0.48,-0.996 -0.16,-1.988 0.477,-2.964 0.804,-1.227 -0.399,-1.039 -1.258,-1.086 -1.176,-0.059 -2.754,0.14 -3.574,1.175 -0.731,0.918 -1.699,1.657 -2.473,0.973 l 0.297,-0.68 1.016,-0.293 -1.348,-0.168 0.449,-0.703 1.313,-0.129 -1.098,-0.183 0.418,-0.61 1.684,-0.425 -0.84,-0.532 c 0.699,0.356 1.472,-0.601 2.379,-0.375 l -0.918,-0.843 c 0.539,0.687 4.156,-0.532 4.234,0.976 l -0.199,-1.176 c 0.461,0.309 1.957,0.422 2.414,1.618 l -0.297,-0.93 c 0.48,-0.176 1.109,0.223 1.758,1.285 l 0.273,1.02 1.602,0.621 1.957,0.222 2.117,0.399 1.66,0.246 2.184,0.578 c 1.351,-0.551 2.933,-1.57 6.804,-0.781 2.219,0.453 2.915,-0.375 2.915,-1.508 l -0.719,-0.863 c -1.235,-0.086 -1.766,0.511 -2.25,0.32 l -0.055,-0.922 -0.141,-0.789 1.063,0.168 -0.648,-1.055 0.949,0.075 1.519,0.937 v 0"
         style="fill:#f3df0b;fill-opacity:1;fill-rule:nonzero;stroke:none"
         id="path112" /><path
         d="m 149.188,220.078 c -1.122,0.512 -1.497,0.527 -1.239,-0.484 l 0.649,-1.321 0.59,1.805"
         style="fill:#f3df0b;fill-opacity:1;fill-rule:nonzero;stroke:none"
         id="path114" /><path
         d="m 152.684,220.078 c 1.117,0.512 1.496,0.527 1.238,-0.484 l -0.652,-1.321 -0.586,1.805"
         style="fill:#f3df0b;fill-opacity:1;fill-rule:nonzero;stroke:none"
         id="path116" /><path
         d="m 150.941,220.762 c 2.118,0 2.379,-1.102 2.372,-2.477 -0.012,-1.488 -0.731,-0.976 -1.141,-2.883 l -1.231,-0.789 -1.238,0.789 c -0.406,1.907 -1.125,1.395 -1.137,2.883 -0.007,1.375 0.258,2.477 2.375,2.477 v 0"
         style="fill:#f3df0b;fill-opacity:1;fill-rule:nonzero;stroke:none"
         id="path118" /><path
         d="m 145.48,215.313 -1.105,0.042 c 0.699,-0.199 0.727,-1.195 2.324,-1.66 l -0.898,0.086 c 0.66,-0.574 1.398,-1.242 2.957,-1.261 l -0.301,-0.223 c 0.59,-0.676 1.758,-0.121 2.496,-1.352 0.141,0.953 -1.375,2.461 -0.676,3.547 -2.156,0.102 -2.336,1.43 -3.578,2.485 -1.008,0.859 -1.101,1.73 -1.547,3.363 l -1.414,1.023 -0.191,-0.789 0.828,-0.996 -1.355,0.41 0.285,-0.754 0.918,-1.461 -1.567,0.446 0.449,-0.688 c 0.653,0.074 1.407,-1.754 2.375,-2.218"
         style="fill:#f3df0b;fill-opacity:1;fill-rule:nonzero;stroke:none"
         id="path120" /><path
         d="m 162.859,208.461 -0.699,-0.731 c 1.098,0 1.656,0.29 2.176,0.754 l -0.359,-0.777 2.675,0.445 1.098,0.731 -0.457,1.195 c -0.359,0.402 -0.441,0.957 -0.359,1.887 -1.918,2.84 -5.356,1.465 -5.395,0.223 1.238,-1.598 1.399,-1.418 2.438,-1.641 1.039,-0.223 1.675,-0.223 0.976,-0.867 l -2.015,-0.153 c -1.743,-0.086 -2.54,1.336 -3.055,0.598 l 0.879,-0.844 -1.254,-0.586 c 0.226,-1.043 1.125,0.196 1.472,-0.234 l -0.781,-0.438 1.414,-0.062 1.246,0.5 v 0"
         style="fill:#f3df0b;fill-opacity:1;fill-rule:nonzero;stroke:none"
         id="path122" /><path
         d="m 152.273,218.852 0.11,0.023 -0.024,0.043 -0.015,0.043 -0.34,0.004 -0.734,-0.235 -0.004,-0.003 -0.055,-0.036 -0.035,-0.261 0.035,-0.188 0.07,-0.367 0.035,-0.859 -0.394,-0.125 -0.399,0.125 0.036,0.828 0.078,0.398 0.035,0.192 -0.031,0.257 -0.055,0.032 -0.004,0.004 -0.734,0.238 -0.34,-0.004 -0.039,-0.086 0.105,-0.023 0.266,-0.204 v 0 l -0.031,-0.035 0.296,-0.16 0.286,0.145 0.129,0.062 0.003,-0.008 0.024,0.028 -0.02,-0.028 0.086,-0.05 -0.027,-0.149 -0.035,-0.191 -0.074,-0.399 -0.024,-0.906 0.469,-0.164 0.465,0.16 -0.02,0.942 -0.07,0.367 -0.035,0.187 -0.024,0.153 0.082,0.05 -0.023,0.032 0.027,-0.032 0.004,0.008 0.129,-0.062 0.285,-0.145 0.297,0.16 -0.031,0.035 v 0 l 0.265,0.204"
         style="fill:#e61b2f;fill-opacity:1;fill-rule:nonzero;stroke:none"
         id="path124" /><path
         d="m 150.934,215.004 0.808,0.894 0.242,1.079 -1.05,-0.321 -1.047,0.321 0.238,-1.079 0.809,-0.894"
         style="fill:#eb1e28;fill-opacity:1;fill-rule:nonzero;stroke:none"
         id="path126" /><path
         d="m 143.859,221.332 -1.414,-0.594 1.184,-0.062 0.23,0.66 v -0.004"
         style="fill:#3250aa;fill-opacity:1;fill-rule:nonzero;stroke:none"
         id="path128" /><path
         d="m 143.344,220.035 -1.414,-0.597 1.187,-0.059 z"
         style="fill:#3250aa;fill-opacity:1;fill-rule:nonzero;stroke:none"
         id="path130" /><path
         d="m 143.086,218.285 -1.344,-0.765 1.184,0.085 z"
         style="fill:#3250aa;fill-opacity:1;fill-rule:nonzero;stroke:none"
         id="path132" /><path
         d="m 143.559,212.875 -1.254,-0.934 1.164,0.239 0.09,0.695 v 0"
         style="fill:#3250aa;fill-opacity:1;fill-rule:nonzero;stroke:none"
         id="path134" /><path
         d="m 143.531,211.691 -0.933,-1.32 1.043,0.625 z"
         style="fill:#3250aa;fill-opacity:1;fill-rule:nonzero;stroke:none"
         id="path136" /><path
         d="m 144.297,210.805 -0.938,-1.317 1.047,0.625 -0.109,0.692 v 0"
         style="fill:#3250aa;fill-opacity:1;fill-rule:nonzero;stroke:none"
         id="path138" /><path
         d="m 159.895,209.09 -0.934,-1.317 1.043,0.625 z"
         style="fill:#3250aa;fill-opacity:1;fill-rule:nonzero;stroke:none"
         id="path140" /><path
         d="m 160.699,208.285 -0.793,-1.426 0.973,0.754 -0.18,0.672 v 0"
         style="fill:#3250aa;fill-opacity:1;fill-rule:nonzero;stroke:none"
         id="path142" /><path
         d="m 160.133,210.227 -1.121,-1.122 1.125,0.418 z"
         style="fill:#3250aa;fill-opacity:1;fill-rule:nonzero;stroke:none"
         id="path144" /><path
         d="m 171.23,208.84 -0.792,-1.43 0.972,0.754 -0.18,0.676 v 0"
         style="fill:#3250aa;fill-opacity:1;fill-rule:nonzero;stroke:none"
         id="path146" /><path
         d="m 171.25,209.926 -1.086,-1.164 1.109,0.461 z"
         style="fill:#3250aa;fill-opacity:1;fill-rule:nonzero;stroke:none"
         id="path148" /><path
         d="m 171.684,207.867 -0.739,-1.465 0.946,0.801 z"
         style="fill:#3250aa;fill-opacity:1;fill-rule:nonzero;stroke:none"
         id="path150" /><path
         d="m 150.98,215.535 0.547,-0.91 c 0,-1.66 -0.015,-2.375 -0.496,-2.375 -0.484,0 -0.449,0.68 -0.449,1.898 l -0.117,0.899 0.515,0.488"
         style="fill:#3250aa;fill-opacity:1;fill-rule:nonzero;stroke:none"
         id="path152" /></g></g></svg>
