<?xml version="1.0" encoding="UTF-8" standalone="no"?>
<svg
   xmlns:dc="http://purl.org/dc/elements/1.1/"
   xmlns:cc="http://creativecommons.org/ns#"
   xmlns:rdf="http://www.w3.org/1999/02/22-rdf-syntax-ns#"
   xmlns:svg="http://www.w3.org/2000/svg"
   xmlns="http://www.w3.org/2000/svg"
   version="1.1"
   id="svg2"
   xml:space="preserve"
   width="42.666668"
   height="42.666668"
   viewBox="0 0 42.666668 42.666668"><metadata
     id="metadata8"><rdf:RDF><cc:Work
         rdf:about=""><dc:format>image/svg+xml</dc:format><dc:type
           rdf:resource="http://purl.org/dc/dcmitype/StillImage" /></cc:Work></rdf:RDF></metadata><defs
     id="defs6" /><g
     id="g10"
     transform="matrix(1.3333333,0,0,-1.3333333,0,42.666667)"><g
       id="g12"
       transform="scale(0.1)"><path
         d="M 274.406,272.027 159.996,191.922 45.5742,272.035 C 32.9609,259.164 22.9766,244.668 15.6016,229.215 L 114.43,160.012 15.6133,90.8242 C 22.9922,75.3633 32.9805,60.8672 45.5859,47.9922 L 159.996,128.109 274.422,47.9844 c 12.609,12.8711 22.594,27.3672 29.973,42.8203 l -98.832,69.2073 98.82,69.191 c -7.383,15.453 -17.371,29.949 -29.977,42.824"
         style="fill:#f9cf07;fill-opacity:1;fill-rule:nonzero;stroke:none"
         id="path14" /><path
         d="M 114.43,160.012 15.6055,229.211 C -5.20703,185.605 -5.20313,134.438 15.6172,90.8242 L 114.43,160.012"
         style="fill:#100f0d;fill-opacity:1;fill-rule:evenodd;stroke:none"
         id="path16" /><path
         d="m 205.563,160.012 98.828,-69.2034 c 20.816,43.6054 20.812,94.7814 -0.012,138.3944 l -98.816,-69.191"
         style="fill:#100f0d;fill-opacity:1;fill-rule:evenodd;stroke:none"
         id="path18" /><path
         d="m 274.68,271.727 0.008,0.011 -1.45,1.52 c -62.386,62.387 -164.125,62.387 -226.4997,0.008 l -1.2578,-1.317 0.0078,-0.004 0.0859,0.09 114.4218,-80.113 114.41,80.105 0.274,-0.3"
         style="fill:#2c9f41;fill-opacity:1;fill-rule:evenodd;stroke:none"
         id="path20" /><path
         d="M 159.996,128.109 45.5898,47.9961 46.7539,46.7734 C 109.141,-15.6133 210.883,-15.625 273.254,46.7617 l 1.164,1.2227 -114.422,80.1246"
         style="fill:#2c9f41;fill-opacity:1;fill-rule:evenodd;stroke:none"
         id="path22" /></g></g></svg>
