<?xml version="1.0" encoding="UTF-8" standalone="no"?>
<svg
   xmlns:dc="http://purl.org/dc/elements/1.1/"
   xmlns:cc="http://creativecommons.org/ns#"
   xmlns:rdf="http://www.w3.org/1999/02/22-rdf-syntax-ns#"
   xmlns:svg="http://www.w3.org/2000/svg"
   xmlns="http://www.w3.org/2000/svg"
   version="1.1"
   id="svg2"
   xml:space="preserve"
   width="42.666668"
   height="42.666668"
   viewBox="0 0 42.666668 42.666668"><metadata
     id="metadata8"><rdf:RDF><cc:Work
         rdf:about=""><dc:format>image/svg+xml</dc:format><dc:type
           rdf:resource="http://purl.org/dc/dcmitype/StillImage" /></cc:Work></rdf:RDF></metadata><defs
     id="defs6" /><g
     id="g10"
     transform="matrix(1.3333333,0,0,-1.3333333,0,42.666667)"><g
       id="g12"
       transform="scale(0.1)"><path
         d="M 26.6875,71.7148 C 71.125,101.324 115.563,130.91 160.047,160.484 115.742,189.988 71.4414,219.496 27.1641,249.004 10.0195,223.523 0,192.895 0,160.008 0,127.41 9.83984,97.0352 26.6875,71.7148"
         style="fill:#d01e27;fill-opacity:1;fill-rule:nonzero;stroke:none"
         id="path14" /><path
         d="M 77.6836,105.66 C 60.6875,94.3438 43.6797,83.0391 26.6875,71.7148 c -0.1758,0.2618 -0.3203,0.5391 -0.4922,0.8008 0,0 -0.0039,-0.0078 -0.0078,-0.0078 C 54.7422,28.875 103.957,0.0078125 159.996,0.0078125 229.262,0.0078125 288.254,44.0391 310.52,105.66 H 77.6836"
         style="fill:#237a39;fill-opacity:1;fill-rule:evenodd;stroke:none"
         id="path16" /><path
         d="m 159.996,319.992 c -55.387,0 -104.1288,-28.191 -132.8241,-70.969 0.1523,-0.113 0.3086,-0.218 0.457,-0.332 C 44.8086,237.242 62,225.797 79.1875,214.348 H 310.52 c -22.266,61.601 -81.258,105.644 -150.524,105.644"
         style="fill:#100f0d;fill-opacity:1;fill-rule:evenodd;stroke:none"
         id="path18" /><path
         d="M 310.52,214.336 H 79.207 c 26.945,-17.949 53.887,-35.902 80.84,-53.852 C 132.574,142.223 105.133,123.938 77.6836,105.66 H 310.52 c 6.132,16.961 9.48,35.262 9.48,54.348 0,19.07 -3.348,37.367 -9.48,54.328"
         style="fill:#ffffff;fill-opacity:1;fill-rule:evenodd;stroke:none"
         id="path20" /><path
         d="m 54.043,177.703 c 1.4922,-3.324 2.6289,-6.773 4.0351,-10.101 3.5703,0.902 7.0469,2.179 10.5625,3.07 -1.7461,-3.192 -3.789,-6.262 -5.4375,-9.527 2.9297,-2.106 6.0664,-4.09 9.0039,-6.258 -3.6328,-0.641 -7.2929,-0.961 -10.8711,-1.664 0.1289,-3.645 0.5235,-7.297 0.7071,-10.93 -2.7461,2.367 -5.3086,4.977 -8.0625,7.406 -2.8047,-2.355 -5.3711,-4.976 -8.1172,-7.344 0.1289,3.571 0.5781,7.223 0.7617,10.868 -3.5703,0.828 -7.2852,1.086 -10.8633,1.785 2.9531,2.183 6.1406,4.031 9.0664,6.273 -1.7109,3.192 -3.6953,6.321 -5.3711,9.524 3.5352,-0.961 6.9258,-2.242 10.4375,-3.203 1.5508,3.328 2.6836,6.777 4.1485,10.101"
         style="fill:#ffffff;fill-opacity:1;fill-rule:nonzero;stroke:none"
         id="path22" /></g></g></svg>
