<?xml version="1.0" encoding="UTF-8" standalone="no"?>
<svg
   xmlns:dc="http://purl.org/dc/elements/1.1/"
   xmlns:cc="http://creativecommons.org/ns#"
   xmlns:rdf="http://www.w3.org/1999/02/22-rdf-syntax-ns#"
   xmlns:svg="http://www.w3.org/2000/svg"
   xmlns="http://www.w3.org/2000/svg"
   version="1.1"
   id="svg2"
   xml:space="preserve"
   width="42.666668"
   height="42.666668"
   viewBox="0 0 42.666668 42.666668"><metadata
     id="metadata8"><rdf:RDF><cc:Work
         rdf:about=""><dc:format>image/svg+xml</dc:format><dc:type
           rdf:resource="http://purl.org/dc/dcmitype/StillImage" /></cc:Work></rdf:RDF></metadata><defs
     id="defs6" /><g
     id="g10"
     transform="matrix(1.3333333,0,0,-1.3333333,0,42.666667)"><g
       id="g12"
       transform="scale(0.1)"><path
         d="M 160.012,-0.0195313 C 248.133,-0.0195313 320,71.8672 320,160.004 320,248.145 248.133,320.023 160.012,320.023 71.8906,320.023 0,248.145 0,160.004 0,71.8672 71.8906,-0.0195313 160.012,-0.0195313"
         style="fill:#ffffff;fill-opacity:1;fill-rule:evenodd;stroke:none"
         id="path14" /><path
         d="m 159.996,76.1641 c 46.176,0 83.848,37.6599 83.848,83.8399 0,46.176 -37.672,83.836 -83.848,83.836 -46.168,0 -83.8397,-37.66 -83.8397,-83.836 0,-46.18 37.6717,-83.8399 83.8397,-83.8399"
         style="fill:#bd1b2f;fill-opacity:1;fill-rule:evenodd;stroke:none"
         id="path16" /></g></g></svg>
