<?xml version="1.0" encoding="UTF-8" standalone="no"?>
<svg
   xmlns:dc="http://purl.org/dc/elements/1.1/"
   xmlns:cc="http://creativecommons.org/ns#"
   xmlns:rdf="http://www.w3.org/1999/02/22-rdf-syntax-ns#"
   xmlns:svg="http://www.w3.org/2000/svg"
   xmlns="http://www.w3.org/2000/svg"
   version="1.1"
   id="svg2"
   xml:space="preserve"
   width="42.666668"
   height="42.666668"
   viewBox="0 0 42.666668 42.666668"><metadata
     id="metadata8"><rdf:RDF><cc:Work
         rdf:about=""><dc:format>image/svg+xml</dc:format><dc:type
           rdf:resource="http://purl.org/dc/dcmitype/StillImage" /></cc:Work></rdf:RDF></metadata><defs
     id="defs6" /><g
     id="g10"
     transform="matrix(1.3333333,0,0,-1.3333333,0,42.666667)"><g
       id="g12"
       transform="scale(0.1)"><path
         d="M 12.3477,98.2617 H 307.645 c 2.175,5.2153 4.085,10.5393 5.699,16.0153 H 6.65234 c 1.60938,-5.476 3.52736,-10.8 5.69536,-16.0153"
         style="fill:#ffffff;fill-opacity:1;fill-rule:evenodd;stroke:none"
         id="path14" /><path
         d="M 12.4688,98.2617 C 36.6406,40.5859 93.5352,0.00390625 159.996,0.00390625 226.438,0.00390625 283.328,40.5859 307.523,98.2617 H 12.4688"
         style="fill:#22632f;fill-opacity:1;fill-rule:evenodd;stroke:none"
         id="path16" /><path
         d="m 313.328,114.277 c 4.32,14.489 6.672,29.825 6.672,45.719 0,15.965 -2.375,31.371 -6.73,45.926 H 6.72656 C 2.37109,191.367 0,175.961 0,159.996 0,144.102 2.34766,128.766 6.66406,114.277 H 313.328"
         style="fill:#ba1d24;fill-opacity:1;fill-rule:evenodd;stroke:none"
         id="path18" /><path
         d="M 6.69531,205.922 H 313.305 c -1.641,5.469 -3.555,10.812 -5.754,16.008 H 12.4492 C 10.2383,216.734 8.32422,211.391 6.69531,205.922"
         style="fill:#ffffff;fill-opacity:1;fill-rule:evenodd;stroke:none"
         id="path20" /><path
         d="m 307.445,221.934 c -24.242,57.57 -81.086,98.062 -147.449,98.062 -66.3866,0 -123.2304,-40.492 -147.4491,-98.062 H 307.445"
         style="fill:#100f0d;fill-opacity:1;fill-rule:evenodd;stroke:none"
         id="path22" /><path
         d="m 220.227,51.9883 -3.653,-2.1055 -98.445,170.5122 c -5.758,1.543 -8.918,7.019 -12.082,12.496 -2.106,3.648 -10.5353,18.25 -14.1876,37.222 14.6016,-12.648 23.0316,-27.25 25.1406,-30.902 3.16,-5.473 6.32,-10.949 4.777,-16.707 l 98.45,-170.5157"
         style="fill:#ffffff;fill-opacity:1;fill-rule:nonzero;stroke:none"
         id="path24" /><path
         d="m 92.2422,269.445 c 1.7344,-8.652 5.5664,-21.781 14.0198,-36.429 3.086,-5.34 6.273,-10.86 11.933,-12.379 l 0.094,-0.024 0.055,-0.093 98.32,-170.2973 3.219,1.8593 -98.375,170.387 0.027,0.097 c 1.516,5.664 -1.668,11.184 -4.754,16.524 -8.468,14.656 -17.9177,24.535 -24.5388,30.355 z M 216.484,49.5391 216.359,49.7578 117.961,220.184 c -5.793,1.605 -9.016,7.187 -12.133,12.582 -8.7225,15.117 -12.5467,28.629 -14.2147,37.3 l -0.1367,0.707 0.5468,-0.472 c 6.6641,-5.778 16.4496,-15.836 25.1836,-30.949 3.125,-5.411 6.348,-10.989 4.84,-16.813 l 98.519,-170.6406 -4.082,-2.3593"
         style="fill:#100f0d;fill-opacity:1;fill-rule:nonzero;stroke:none"
         id="path26" /><path
         d="m 99.7656,51.9883 3.6524,-2.1055 98.445,170.5122 c 5.758,1.543 8.918,7.019 12.078,12.496 2.11,3.648 10.539,18.25 14.192,37.222 -14.602,-12.648 -23.031,-27.25 -25.141,-30.902 -3.16,-5.473 -6.32,-10.949 -4.777,-16.707 L 99.7656,51.9883"
         style="fill:#ffffff;fill-opacity:1;fill-rule:nonzero;stroke:none"
         id="path28" /><path
         d="m 100.109,52.082 3.215,-1.8593 98.375,170.3903 0.098,0.024 c 5.66,1.519 8.848,7.039 11.93,12.379 8.457,14.648 12.285,27.777 14.019,36.429 -6.621,-5.824 -16.066,-15.703 -24.531,-30.347 -3.094,-5.356 -6.277,-10.875 -4.762,-16.532 l 0.027,-0.097 -0.05,-0.09 z m 3.399,-2.5429 -4.0822,2.3593 0.1211,0.2149 98.3981,170.4257 c -1.504,5.82 1.715,11.395 4.825,16.789 8.746,15.137 18.531,25.195 25.199,30.973 l 0.543,0.472 -0.133,-0.707 c -1.668,-8.671 -5.492,-22.183 -14.219,-37.3 -3.113,-5.395 -6.336,-10.977 -12.133,-12.582 L 103.508,49.5391"
         style="fill:#100f0d;fill-opacity:1;fill-rule:nonzero;stroke:none"
         id="path30" /><path
         d="m 150.93,244.914 c 3.586,3.461 9.293,6.324 13.941,3.074 10.363,-6.89 17.035,-17.91 23.352,-28.324 2.73,-4.816 5.273,-9.793 7.281,-14.941 -5.383,-14.231 -9.285,-29.184 -9.359,-44.457 -0.051,-15.446 3.925,-30.625 9.3,-45.055 -1.949,-5.172 -4.492,-10.09 -7.222,-14.902 -6.262,-10.3598 -12.887,-21.1527 -23.004,-28.1059 -4.098,-3.0703 -9.574,-1.3984 -13.063,1.8555 -8.543,7.1719 -14.722,16.7305 -20.363,26.2504 -2.734,4.812 -5.27,9.804 -7.297,14.953 5.414,14.379 9.352,29.558 9.352,45.004 -0.102,15.273 -3.981,30.226 -9.352,44.457 2.027,5.148 4.563,10.125 7.297,14.941 5.387,9.117 11.266,18.141 19.137,25.25"
         style="fill:#ba1d24;fill-opacity:1;fill-rule:nonzero;stroke:none"
         id="path32" /><path
         d="m 150.719,212.324 c 0.332,12.547 2.281,25.25 7.383,36.785 0.07,-26.027 0.07,-52.066 0,-78.039 -5.664,12.926 -7.563,27.254 -7.383,41.254"
         style="fill:#ffffff;fill-opacity:1;fill-rule:nonzero;stroke:none"
         id="path34" /><path
         d="m 161.926,249.109 c 4.57,-10.359 6.59,-21.722 7.254,-32.976 0.683,-15.274 -1.117,-30.957 -7.254,-45.063 -0.074,25.973 -0.074,52.012 0,78.039"
         style="fill:#ffffff;fill-opacity:1;fill-rule:nonzero;stroke:none"
         id="path36" /><path
         d="m 124.34,204.723 h 0.156 c 5.371,-14.231 9.25,-29.184 9.352,-44.457 0,-15.446 -3.938,-30.625 -9.352,-45.004 h -0.156 c -5.777,16.789 -10.52,34.426 -8.801,52.347 0.891,12.754 4.781,25.067 8.801,37.114"
         style="fill:#131211;fill-opacity:1;fill-rule:nonzero;stroke:none"
         id="path38" /><path
         d="m 195.504,204.723 h 0.172 c 3.961,-11.938 7.797,-24.024 8.726,-36.618 1.852,-18.085 -2.918,-35.957 -8.726,-52.843 l -0.231,-0.051 c -5.375,14.43 -9.351,29.609 -9.3,45.055 0.074,15.273 3.976,30.226 9.359,44.457"
         style="fill:#131211;fill-opacity:1;fill-rule:nonzero;stroke:none"
         id="path40" /><path
         d="m 157.922,170.734 c 3.25,1.516 6.742,-1.011 8.012,-3.976 2.535,-5.313 2.086,-12.594 -2.465,-16.676 -2.793,-2.527 -7.18,-0.949 -8.789,2.121 -3.45,5.656 -2.95,14.945 3.242,18.531"
         style="fill:#ffffff;fill-opacity:1;fill-rule:nonzero;stroke:none"
         id="path42" /><path
         d="m 150.82,103.828 c -0.664,15.293 1.118,30.969 7.282,45.082 0.07,-25.992 0.07,-52.0116 0,-78.0545 -4.61,10.375 -6.625,21.7343 -7.282,32.9725"
         style="fill:#ffffff;fill-opacity:1;fill-rule:nonzero;stroke:none"
         id="path44" /><path
         d="m 161.926,148.91 c 5.531,-12.547 7.433,-26.492 7.379,-40.14 -0.18,-12.9341 -2.203,-25.9927 -7.379,-37.8598 -0.074,25.9882 -0.074,52.0078 0,77.9998"
         style="fill:#ffffff;fill-opacity:1;fill-rule:nonzero;stroke:none"
         id="path46" /></g></g></svg>
