<?xml version="1.0" encoding="UTF-8" standalone="no"?>
<svg
   xmlns:dc="http://purl.org/dc/elements/1.1/"
   xmlns:cc="http://creativecommons.org/ns#"
   xmlns:rdf="http://www.w3.org/1999/02/22-rdf-syntax-ns#"
   xmlns:svg="http://www.w3.org/2000/svg"
   xmlns="http://www.w3.org/2000/svg"
   version="1.1"
   id="svg2"
   xml:space="preserve"
   width="42.666668"
   height="42.666668"
   viewBox="0 0 42.666668 42.666668"><metadata
     id="metadata8"><rdf:RDF><cc:Work
         rdf:about=""><dc:format>image/svg+xml</dc:format><dc:type
           rdf:resource="http://purl.org/dc/dcmitype/StillImage" /></cc:Work></rdf:RDF></metadata><defs
     id="defs6" /><g
     id="g10"
     transform="matrix(1.3333333,0,0,-1.3333333,0,42.666667)"><g
       id="g12"
       transform="scale(0.1)"><path
         d="m 160,0.0078125 c 88.152,0 160,71.8632875 160,160.0001875 0,88.117 -71.848,159.984 -160,159.984 C 71.8906,319.992 0,248.125 0,160.008 0,71.8711 71.8906,0.0078125 160,0.0078125"
         style="fill:#e81a2e;fill-opacity:1;fill-rule:evenodd;stroke:none"
         id="path14" /><path
         d="m 193.16,136.078 c -11.055,-15.5 -33.293,-21.113 -50.414,-12.851 -17.027,7.531 -27.141,27.511 -23.141,45.711 3.149,16.667 17.618,30.429 34.465,32.582 14.645,2.339 30.239,-4.055 39.043,-16.016 10.918,-14.133 10.965,-35.363 0.047,-49.426 z m 43.856,11.582 c -9.258,-0.226 -16.629,6.059 -25.254,8.223 -0.715,0.113 -1.215,0.543 -1.348,1.359 8.988,1.242 19.586,-4.125 27.363,2.438 -9.433,-1.305 -17.972,3.898 -27.23,4.492 0.094,0.328 0.183,0.922 0.273,1.195 8.629,2.266 19.856,-1.035 26.285,6.762 -9.074,-3.25 -18.558,0.805 -27.816,-0.063 0.043,0.274 0.223,0.821 0.27,1.09 8,3.903 19.589,2.114 24.625,10.778 -8.493,-4.438 -18.379,-2.223 -27.457,-4.172 0.496,2.332 3.418,2.539 5.214,3.574 6.332,2.863 14.875,4.437 17.524,11.805 -7.731,-5.528 -17.746,-5.043 -26.328,-8.289 0.269,2.496 3.281,3.207 5.027,4.601 5.711,3.688 13.66,6.707 15.055,14.289 -6.516,-6.929 -16.625,-7.625 -24.399,-12.441 -0.132,0.269 -0.535,0.75 -0.672,1.019 5.567,6.875 16.356,10.618 17.075,20.524 -5.844,-7.469 -15.145,-10.559 -22.645,-15.809 0.133,2.758 2.652,4.442 4.133,6.555 4.269,4.973 10.195,10.226 9.344,17.488 -3.504,-7.199 -10.739,-11.156 -16.442,-16.355 -1.215,-0.918 -2.117,-2.977 -3.957,-2.653 2.965,8.551 12.27,15.325 9.977,25.118 -3.012,-8.766 -11.145,-14.016 -15.957,-21.653 -0.352,0.11 -0.942,0.324 -1.207,0.434 1.84,8.66 9.57,16.84 5.933,26.094 -1.488,-9.2 -8.898,-15.649 -12.355,-24.04 -0.32,0.114 -1.043,0.266 -1.352,0.383 0.672,8.715 6.918,18.188 1.707,26.52 0.133,-9.196 -6,-16.664 -8.312,-25.227 0,-0.91 -1.75,-0.312 -1.438,0.492 -0.582,8.45 3.907,18.414 -2.312,25.559 1.23,-9.215 -3.574,-17.602 -4.492,-26.594 -0.34,0 -0.973,0.114 -1.313,0.114 -1.992,8.546 1.043,19.546 -6.601,25.828 2.589,-7.2 0.543,-14.785 0,-22.141 -0.196,-1.898 0.429,-4.016 -0.692,-5.687 -4.496,7.847 -2.156,19.816 -11.168,24.906 4.449,-8.289 2.18,-17.926 4.18,-26.746 -0.293,-0.11 -0.832,-0.383 -1.102,-0.496 -4.808,7.371 -5.074,18.851 -14.285,22.48 5.637,-7.527 4.805,-17.387 8.352,-25.781 -0.27,-0.156 -0.875,-0.426 -1.141,-0.598 -5.91,6.606 -8.019,17.973 -17.82,20.141 6.922,-6.492 7.644,-16.567 12.449,-24.363 -0.269,-0.161 -0.762,-0.481 -1.035,-0.653 -6.824,5.586 -10.602,16.301 -20.442,17.067 7.5,-5.586 9.95,-15.055 15.731,-22.094 -0.094,-0.215 -0.273,-0.598 -0.363,-0.813 -8.133,3.957 -13.387,14.672 -23.6175,13.7 8.6565,-4.278 12.6055,-13.7 19.7075,-19.821 -1.891,-0.969 -3.618,0.867 -5.258,1.574 -6.336,3.575 -12.7152,9.852 -20.6253,7.852 8.4492,-2.859 13.5933,-10.504 20.7613,-15.324 0.473,-0.539 1.778,-0.805 1.164,-1.781 -8.941,1.074 -17.2027,9.847 -26.4605,5.738 7.6368,-1.25 13.4336,-6.606 19.8985,-10.406 1.535,-1.079 3.871,-1.188 4.633,-3.133 -9.258,-0.055 -18.9612,7.148 -27.7229,1.621 9.211,0.219 16.625,-6.055 25.2069,-8.223 0.766,-0.113 1.211,-0.539 1.301,-1.359 -8.984,-1.246 -19.6368,4.172 -27.3165,-2.481 9.4571,1.403 18.0585,-3.851 27.3865,-4.492 0,-0.226 0,-0.656 0,-0.922 -8.715,-2.711 -20.199,1.02 -26.7615,-6.933 9.3282,3.3 18.9645,-0.922 28.4455,0.043 -1.035,-2.102 -3.793,-2.055 -5.754,-2.75 -6.8712,-1.953 -15.8594,-2.055 -19.6993,-9.145 8.7149,4.598 18.8943,2.051 28.1913,4.426 -1.93,-2.973 -5.793,-3.5 -8.758,-4.988 -5.6169,-2.2 -12.6286,-4.309 -14.738,-10.649 8.043,5.731 18.379,5.082 27.32,8.649 -5.797,-7.567 -18.9176,-8.649 -21.07,-19.274 6.914,7.211 17.516,7.906 25.652,13.117 -0.855,-3.144 -4.046,-4.828 -6.296,-6.984 -4.758,-4.062 -11.184,-8.18 -11.368,-15.227 4.946,6.782 13.125,9.43 19.684,14.079 1.301,0.695 2.246,2.605 3.953,2.226 -2.875,-5.301 -7.59,-9.258 -11.117,-14.086 -2.227,-2.851 -3.844,-6.488 -3.262,-10.1795 3.555,6.9455 10.469,10.8285 16.043,15.8205 1.664,1.305 2.649,3.414 4.719,4.152 -2.496,-9.187 -13.055,-16.219 -10.293,-26.6209 2.16,8.0195 9.305,12.9839 14.07,19.3909 1.074,1.3 1.567,3.191 3.184,3.883 -0.625,-5.571 -3.727,-10.399 -5.613,-15.5903 -1.391,-3.7969 -2.497,-8.2852 -0.45,-12.0235 1.532,9.2617 9.051,15.6448 12.403,24.0428 0.222,0.543 0.718,0.988 1.097,1.418 0.653,-9.523 -7.258,-19.5428 -1.57,-28.5975 -0.16,9.9727 7.027,17.8165 8.781,27.3355 1.774,-1.839 0.699,-4.757 0.809,-7.027 -0.27,-6.9882 -2.875,-15.4335 2.539,-21.121 -1.301,9.7969 3.844,18.852 4.879,28.426 3.726,-8.832 -0.918,-20.8987 7.457,-27.7737 -3.281,9.4805 1.031,19.3247 -0.086,28.9607 2.601,-2.383 2.512,-6.34 3.547,-9.527 1.347,-5.9532 2.336,-13.3243 8.402,-16.4493 -4.543,8.8789 -2.25,19.1723 -4.41,28.5783 6.473,-7.031 5.625,-20.0392 15.644,-23.8791 -5.753,8.0664 -5.035,18.4651 -8.808,27.3441 7.637,-5.797 8.719,-18.8987 19.363,-21.1214 -7.187,6.9374 -7.859,17.5044 -13.074,25.6134 3.144,-0.813 4.762,-3.996 6.922,-6.156 4.082,-4.832 8.262,-11.278 15.226,-11.434 -7.91,5.844 -10.293,16.016 -16.664,23.117 2.918,-0.047 4.852,-2.765 7.145,-4.383 5.074,-4.269 10.332,-10.445 17.746,-9.523 -8.758,4.27 -12.672,13.859 -19.856,19.855 l 0.223,0.653 c 8.848,-2.539 15.676,-12.516 25.742,-10.176 -6.738,2.492 -11.726,7.859 -16.98,12.559 -1.758,1.785 -4.231,2.652 -5.711,4.66 9.348,-0.598 17.75,-10.074 27.32,-5.813 -8.222,1.321 -14.242,7.43 -21.39,11.114 -1.075,0.765 -3.145,0.808 -3.102,2.496 9.172,-0.168 18.922,-7.2 27.684,-1.731"
         style="fill:#f6f00e;fill-opacity:1;fill-rule:nonzero;stroke:none"
         id="path16" /><path
         d="m 161.688,187.02 c 5.906,2.425 12.281,3.628 18.621,3.945 -11.637,8.883 -28.957,8.828 -40.618,0 6.559,-0.27 13.012,-1.617 19.075,-4.059 0.964,-0.535 1.996,-0.265 2.922,0.114"
         style="fill:#f6f00e;fill-opacity:1;fill-rule:nonzero;stroke:none"
         id="path18" /><path
         d="m 155.848,184.469 c -5.637,2.324 -11.707,3.742 -17.817,4.109 -1.125,0.231 -1.957,-0.75 -2.832,-1.344 5.789,-0.496 11.59,-1.464 16.961,-3.687 1.367,-0.809 2.582,0.269 3.688,0.922"
         style="fill:#f6f00e;fill-opacity:1;fill-rule:nonzero;stroke:none"
         id="path20" /><path
         d="m 167.414,183.434 c 5.57,2.171 11.457,3.359 17.387,3.8 -0.805,0.649 -1.617,1.618 -2.785,1.344 -6.149,-0.367 -12.157,-1.785 -17.793,-4.109 0.988,-0.481 2.019,-1.676 3.191,-1.035"
         style="fill:#f6f00e;fill-opacity:1;fill-rule:nonzero;stroke:none"
         id="path22" /><path
         d="m 150.117,181.012 c -5.394,2.211 -11.051,3.629 -16.851,3.894 -0.27,-0.32 -0.719,-0.972 -0.922,-1.359 5.461,-0.539 10.832,-1.938 15.929,-3.953 0.586,0.437 1.235,0.922 1.844,1.418"
         style="fill:#f6f00e;fill-opacity:1;fill-rule:nonzero;stroke:none"
         id="path24" /><path
         d="m 173.074,180.031 c 4.633,1.903 9.614,2.977 14.649,3.516 -0.227,0.324 -0.672,1.039 -0.899,1.359 -5.84,-0.32 -11.59,-1.683 -16.894,-3.949 0.902,-0.656 1.929,-1.687 3.144,-0.926"
         style="fill:#f6f00e;fill-opacity:1;fill-rule:nonzero;stroke:none"
         id="path26" /><path
         d="m 157.527,181.113 c 1.578,-1.297 3.418,-1.351 4.996,0 -1.535,1.457 -3.418,1.41 -4.996,0"
         style="fill:#f6f00e;fill-opacity:1;fill-rule:nonzero;stroke:none"
         id="path28" /><path
         d="m 145.398,177.484 c -4.671,1.895 -9.593,3.743 -14.691,3.743 -5.84,-8.93 -6.875,-20.629 -3.285,-30.649 3.285,10.449 9.758,19.703 17.976,26.906"
         style="fill:#f6f00e;fill-opacity:1;fill-rule:nonzero;stroke:none"
         id="path30" /><path
         d="m 174.648,177.484 c 8.266,-7.203 14.653,-16.457 18.02,-26.906 3.637,10.121 2.332,21.762 -3.324,30.863 -5.078,-0.484 -10.02,-1.945 -14.696,-3.957"
         style="fill:#f6f00e;fill-opacity:1;fill-rule:nonzero;stroke:none"
         id="path32" /><path
         d="m 152.16,177.539 c 1.461,-1.187 3.211,-1.461 4.492,0.055 -0.742,0.484 -1.574,0.98 -2.312,1.465 -0.762,-0.485 -1.485,-0.981 -2.18,-1.52"
         style="fill:#f6f00e;fill-opacity:1;fill-rule:nonzero;stroke:none"
         id="path34" /><path
         d="m 163.418,177.594 c 1.305,-1.625 3.051,-1.188 4.492,-0.055 -0.765,0.539 -1.441,1.035 -2.16,1.52 -0.805,-0.485 -1.57,-0.981 -2.332,-1.465"
         style="fill:#f6f00e;fill-opacity:1;fill-rule:nonzero;stroke:none"
         id="path36" /><path
         d="m 151.781,173.914 c -0.765,0.492 -1.57,0.973 -2.34,1.457 -9.14,-7.793 -15.75,-18.508 -18.394,-30.266 -0.66,-2.046 1.359,-3.453 2.375,-5.027 1.914,12.992 8.519,25.172 18.359,33.836"
         style="fill:#f6f00e;fill-opacity:1;fill-rule:nonzero;stroke:none"
         id="path38" /><path
         d="m 158.023,173.969 c 0.629,-0.539 1.286,-1.082 1.93,-1.629 0.719,0.547 1.418,1.031 2.117,1.574 -1.195,1.516 -2.804,1.516 -4.047,0.055"
         style="fill:#f6f00e;fill-opacity:1;fill-rule:nonzero;stroke:none"
         id="path40" /><path
         d="m 170.629,175.371 c -0.813,-0.484 -1.574,-0.965 -2.387,-1.457 9.867,-8.664 16.516,-20.797 18.406,-33.777 1.028,1.515 3.055,2.922 2.383,4.968 -2.703,11.758 -9.265,22.473 -18.402,30.266"
         style="fill:#f6f00e;fill-opacity:1;fill-rule:nonzero;stroke:none"
         id="path42" /><path
         d="m 154.535,170.934 c -9.449,-8.774 -15.426,-21.176 -16.504,-34 -0.496,-1.957 1.793,-2.653 2.957,-3.688 0.188,13.762 6.254,27.184 16.207,36.711 -0.812,0.379 -1.73,2.066 -2.66,0.977"
         style="fill:#f6f00e;fill-opacity:1;fill-rule:nonzero;stroke:none"
         id="path44" /><path
         d="m 164.832,171.523 c -0.652,-0.531 -1.305,-1.074 -1.957,-1.625 9.977,-9.468 15.906,-22.89 16.266,-36.652 1.125,1.035 3.41,1.731 2.918,3.688 -1.164,13.152 -7.368,25.824 -17.227,34.589"
         style="fill:#f6f00e;fill-opacity:1;fill-rule:nonzero;stroke:none"
         id="path46" /><path
         d="m 145.711,130.598 c 8.984,-4.114 19.656,-4.114 28.668,-0.043 0.543,13.523 -4.902,27.011 -14.242,36.695 -9.66,-9.473 -14.918,-23.172 -14.426,-36.652"
         style="fill:#f6f00e;fill-opacity:1;fill-rule:nonzero;stroke:none"
         id="path48" /></g></g></svg>
