<?xml version="1.0" encoding="UTF-8" standalone="no"?>
<svg
   xmlns:dc="http://purl.org/dc/elements/1.1/"
   xmlns:cc="http://creativecommons.org/ns#"
   xmlns:rdf="http://www.w3.org/1999/02/22-rdf-syntax-ns#"
   xmlns:svg="http://www.w3.org/2000/svg"
   xmlns="http://www.w3.org/2000/svg"
   version="1.1"
   id="svg2"
   xml:space="preserve"
   width="42.666668"
   height="42.666668"
   viewBox="0 0 42.666668 42.666668"><metadata
     id="metadata8"><rdf:RDF><cc:Work
         rdf:about=""><dc:format>image/svg+xml</dc:format><dc:type
           rdf:resource="http://purl.org/dc/dcmitype/StillImage" /></cc:Work></rdf:RDF></metadata><defs
     id="defs6" /><g
     id="g10"
     transform="matrix(1.3333333,0,0,-1.3333333,0,42.666667)"><g
       id="g12"
       transform="scale(0.1)"><path
         d="m 160.777,160.355 c -0.507,-0.234 -1.047,-0.457 -1.554,-0.71 0.507,0.253 1.047,0.476 1.554,0.71"
         style="fill:#bababa;fill-opacity:1;fill-rule:evenodd;stroke:none"
         id="path14" /><path
         d="m 310.516,214.34 c -1.836,5.219 -3.996,10.289 -6.379,15.234 H 15.8828 C 13.5039,224.629 11.3477,219.559 9.48047,214.34 H 9.45703 C 3.34766,197.379 0,179.066 0,159.992 0,140.922 3.34766,122.633 9.45703,105.645 H 9.48047 C 11.3477,100.453 13.5039,95.3789 15.8828,90.4336 H 304.137 c 2.383,4.9453 4.543,10.0194 6.379,15.2114 6.16,16.988 9.484,35.277 9.484,54.347 0,19.074 -3.324,37.387 -9.484,54.348"
         style="fill:#e11d28;fill-opacity:1;fill-rule:evenodd;stroke:none"
         id="path16" /><path
         d="M 16.0078,90.4336 C 41.9063,36.9453 96.6133,0.00390625 159.992,0.00390625 223.406,0.00390625 278.113,36.9453 303.996,90.4336 H 16.0078"
         style="fill:#2a3b97;fill-opacity:1;fill-rule:evenodd;stroke:none"
         id="path18" /><path
         d="m 303.988,229.574 c -25.886,53.492 -80.59,90.43 -143.996,90.43 -63.3709,0 -118.074,-36.938 -143.9764,-90.43 H 303.988"
         style="fill:#2a3b97;fill-opacity:1;fill-rule:evenodd;stroke:none"
         id="path20" /><path
         d="m 158.609,211.047 c -1.507,2.152 -0.254,4.535 1.883,5.601 2.18,-1.003 3.305,-3.449 1.922,-5.601 -1.297,0 -2.551,0 -3.805,0"
         style="fill:#ffffff;fill-opacity:1;fill-rule:nonzero;stroke:none"
         id="path22" /><path
         d="m 155.977,208.035 c 0,0.813 0,1.567 0,2.383 2.964,-0.039 5.937,0 8.91,-0.039 0,-0.777 0,-1.531 0,-2.301 -2.973,-0.043 -5.946,0 -8.91,-0.043"
         style="fill:#ffffff;fill-opacity:1;fill-rule:nonzero;stroke:none"
         id="path24" /><path
         d="m 154.219,207.32 c 1.586,0 3.136,0 4.722,0 -1.336,-1.254 -2.636,-3.011 -4.722,-2.55 0,0.82 0,1.671 0,2.55"
         style="fill:#ffffff;fill-opacity:1;fill-rule:nonzero;stroke:none"
         id="path26" /><path
         d="m 155.934,202.051 c 0.769,2.152 2.046,4.496 4.472,5.019 2.387,-0.711 3.43,-3.203 4.356,-5.312 0.25,0.73 0.543,1.484 0.875,2.219 -0.043,-0.922 -0.043,-1.883 -0.082,-2.829 -1.801,-0.062 -3.684,-0.144 -5.274,0.864 -1.629,-0.926 -3.468,-0.965 -5.246,-0.864 -0.066,1.004 -0.109,1.95 -0.109,2.911 0.336,-0.668 0.672,-1.34 1.008,-2.008"
         style="fill:#ffffff;fill-opacity:1;fill-rule:nonzero;stroke:none"
         id="path28" /><path
         d="m 161.621,207.32 c 1.672,0 3.348,0 5.02,0 0,-0.879 0,-1.672 0,-2.488 -2.219,-0.629 -3.68,1.047 -5.02,2.488"
         style="fill:#ffffff;fill-opacity:1;fill-rule:nonzero;stroke:none"
         id="path30" /><path
         d="m 153.402,201.273 c -0.187,1.028 -0.668,2.786 0.899,2.743 -0.168,-0.856 0.586,-3.012 -0.899,-2.743"
         style="fill:#ffffff;fill-opacity:1;fill-rule:nonzero;stroke:none"
         id="path32" /><path
         d="m 166.266,204.059 c 1.336,-0.145 0.961,-1.571 1.172,-2.532 -0.297,-0.105 -0.883,-0.254 -1.172,-0.336 0,0.961 0,1.907 0,2.868"
         style="fill:#ffffff;fill-opacity:1;fill-rule:nonzero;stroke:none"
         id="path34" /><path
         d="m 150.785,202.973 c 0.797,-0.735 1.465,-1.551 2.09,-2.403 1.531,-0.086 3.059,-0.148 4.605,-0.086 -0.835,-0.961 -1.546,-1.925 -2.175,-2.968 -0.563,0.375 -1.172,0.668 -1.84,0.75 0,-1.149 0,-2.282 0,-3.43 -0.336,0.043 -1.067,0.043 -1.402,0.043 0,1.777 -0.063,3.488 -0.063,5.269 -0.754,0.754 -1.277,1.672 -1.215,2.825"
         style="fill:#ffffff;fill-opacity:1;fill-rule:nonzero;stroke:none"
         id="path36" /><path
         d="m 167.895,200.57 c 0.585,0.852 1.214,1.625 1.925,2.34 -0.922,-2.613 -1.211,-5.312 -1.004,-8.031 -0.503,0 -1.339,0 -1.839,0 0.293,1.629 0.125,4.726 -1.844,2.488 -0.625,1.11 -1.336,2.156 -2.172,3.117 1.633,-0.062 3.305,0 4.934,0.086"
         style="fill:#ffffff;fill-opacity:1;fill-rule:nonzero;stroke:none"
         id="path38" /><path
         d="m 154.969,195.59 c 1.336,2.113 2.344,4.832 5.023,5.644 2.883,-0.562 4.516,-3.492 5.141,-6.125 0.504,0.774 0.754,1.672 1.09,2.551 0.082,-0.922 0.125,-1.883 0.207,-2.781 -2.09,-0.043 -4.223,-0.293 -6.106,0.773 -1.883,-1.066 -4.144,-0.816 -6.254,-0.816 0,0.941 0.063,1.902 0.188,2.867 0.211,-0.523 0.547,-1.594 0.711,-2.113"
         style="fill:#ffffff;fill-opacity:1;fill-rule:nonzero;stroke:none"
         id="path40" /><path
         d="m 100.672,196.359 c -0.715,1.532 -0.082,3.246 1.484,3.875 1.817,-0.484 2.297,-2.449 1.489,-3.976 -1.008,0.062 -1.969,0.101 -2.973,0.101"
         style="fill:#ffffff;fill-opacity:1;fill-rule:nonzero;stroke:none"
         id="path42" /><path
         d="m 217.379,196.32 c -0.793,1.614 0.129,3.094 1.512,4.059 1.589,-0.816 2.386,-2.488 1.504,-4.164 -1.004,0.043 -2.008,0.043 -3.016,0.105"
         style="fill:#ffffff;fill-opacity:1;fill-rule:nonzero;stroke:none"
         id="path44" /><path
         d="m 148.422,197.219 c 1.152,-0.813 2.074,-1.903 2.867,-3.012 2.113,0 4.184,0 6.274,0.039 -1.192,-1.187 -2.153,-2.566 -2.965,-4.055 -0.235,0.336 -0.711,0.961 -0.965,1.297 -0.293,-0.105 -0.758,-0.254 -1.004,-0.293 -0.043,-1.379 0,-2.718 0.062,-4.078 -0.902,0 -1.824,0 -2.742,0.063 0,2.156 0,4.351 -0.039,6.547 -1.008,0.921 -1.719,2.05 -1.488,3.492"
         style="fill:#ffffff;fill-opacity:1;fill-rule:nonzero;stroke:none"
         id="path46" /><path
         d="m 169.57,194.207 c 0.711,1.109 1.504,2.152 2.508,3.012 0.254,-1.379 -0.543,-2.571 -1.086,-3.785 -0.211,-2.094 -0.043,-4.164 -0.125,-6.254 -0.965,-0.063 -1.883,-0.063 -2.804,-0.106 0,1.34 0.046,2.68 0.046,4.016 -0.257,0.105 -0.714,0.293 -0.968,0.398 -0.371,-0.48 -0.793,-0.961 -1.168,-1.441 -0.504,1.105 -1.129,2.152 -1.715,3.195 -0.125,-0.226 -0.336,-0.476 -0.504,-0.707 1.258,-1.258 1.715,-3.012 2.262,-4.644 0.5,0.964 0.879,1.968 1.379,2.929 0.043,-1.215 0.043,-2.449 0.043,-3.703 -2.426,0 -4.895,-0.375 -7.114,0.774 -2.176,-1.106 -4.687,-0.774 -7.027,-0.774 -0.039,1.297 -0.039,2.594 0,3.891 0.504,-0.922 0.879,-1.82 1.59,-2.594 0.476,3.266 4.054,8.137 7.613,5.563 2.305,0.566 4.727,0.086 7.07,0.23"
         style="fill:#ffffff;fill-opacity:1;fill-rule:nonzero;stroke:none"
         id="path48" /><path
         d="m 98.9141,195.652 c 2.1949,0.043 4.3519,0.043 6.5509,0.043 0,-0.586 0,-1.109 0,-1.679 -2.199,0 -4.414,0 -6.59,0 0,0.57 0,1.093 0.0391,1.636"
         style="fill:#ffffff;fill-opacity:1;fill-rule:nonzero;stroke:none"
         id="path50" /><path
         d="m 215.668,195.59 c 2.133,0 4.352,0 6.523,0 0,-0.524 0,-1.09 0,-1.613 -2.171,-0.063 -4.429,-0.063 -6.648,0 0.043,0.523 0.043,1.089 0.125,1.613"
         style="fill:#ffffff;fill-opacity:1;fill-rule:nonzero;stroke:none"
         id="path52" /><path
         d="m 97.5781,193.242 c 1.043,0 2.086,0.063 3.1369,0.063 -0.504,-0.578 -1.09,-1.149 -1.6759,-1.774 -0.5,0 -1.0039,0.039 -1.5039,0.039 0.0429,0.586 0.0429,1.157 0.0429,1.672"
         style="fill:#ffffff;fill-opacity:1;fill-rule:nonzero;stroke:none"
         id="path54" /><path
         d="m 103.391,193.305 c 1.129,0 2.261,0 3.347,0 0,-0.578 0.067,-1.149 0.067,-1.735 -0.571,0 -1.196,-0.039 -1.782,-0.039 -0.503,0.625 -1.089,1.196 -1.632,1.774"
         style="fill:#ffffff;fill-opacity:1;fill-rule:nonzero;stroke:none"
         id="path56" /><path
         d="m 214.328,193.203 c 1.043,0 2.051,0 3.051,0 -0.539,-0.586 -1.039,-1.109 -1.543,-1.672 -0.582,0 -1.09,0 -1.633,0.039 0.043,0.524 0.043,1.11 0.125,1.633"
         style="fill:#ffffff;fill-opacity:1;fill-rule:nonzero;stroke:none"
         id="path58" /><path
         d="m 97.9063,189.148 c 1.8671,0.75 1.8671,3.68 4.2067,3.954 2.117,-0.485 2.34,-3.016 4.02,-4.02 -1.445,-0.668 -2.824,0.145 -4.125,0.816 -1.231,-0.671 -2.6799,-1.484 -4.1017,-0.75"
         style="fill:#ffffff;fill-opacity:1;fill-rule:nonzero;stroke:none"
         id="path60" /><path
         d="m 214.578,189.148 c 1.926,0.711 1.926,3.723 4.227,3.868 2.175,-0.481 2.593,-3.078 4.097,-4.305 -1.461,-0.043 -2.882,0.328 -4.14,1.148 -1.254,-0.632 -2.719,-1.593 -4.184,-0.711"
         style="fill:#ffffff;fill-opacity:1;fill-rule:nonzero;stroke:none"
         id="path62" /><path
         d="m 220.23,193.16 c 1.047,0 2.133,0.043 3.18,0.082 0.039,-0.562 0.078,-1.148 0.121,-1.672 -0.543,-0.039 -1.168,-0.039 -1.793,-0.082 -0.504,0.567 -1.008,1.086 -1.508,1.672"
         style="fill:#ffffff;fill-opacity:1;fill-rule:nonzero;stroke:none"
         id="path64" /><path
         d="m 106.57,190.422 c 0.75,0.586 1.336,-0.817 0.711,-1.234 -0.75,-0.583 -1.34,0.816 -0.711,1.234"
         style="fill:#ffffff;fill-opacity:1;fill-rule:nonzero;stroke:none"
         id="path66" /><path
         d="m 223.324,190.422 c 0.75,0.586 1.254,-0.817 0.711,-1.234 -0.793,-0.629 -1.297,0.75 -0.711,1.234"
         style="fill:#ffffff;fill-opacity:1;fill-rule:nonzero;stroke:none"
         id="path68" /><path
         d="m 94.8359,190.047 c 0.5664,-0.629 1.1094,-1.192 1.6289,-1.863 0.9454,0 1.9063,0 2.8633,0 -0.289,-0.477 -0.5195,-0.918 -0.789,-1.399 -0.5469,0.102 -1.0664,0.207 -1.5938,0.289 -0.082,-0.961 -0.1445,-1.902 -0.25,-2.863 -1.5625,1.297 -0.289,4.16 -1.8594,5.836"
         style="fill:#ffffff;fill-opacity:1;fill-rule:nonzero;stroke:none"
         id="path70" /><path
         d="m 107.762,188.184 c 0.523,0.609 1.008,1.191 1.57,1.754 -0.902,-1.672 -1.047,-3.575 -0.965,-5.434 -0.269,0 -0.793,-0.063 -1.086,-0.063 -0.043,0.922 -0.148,1.883 -0.25,2.782 -0.461,-0.231 -0.965,-0.481 -1.379,-0.774 -0.336,0.586 -0.672,1.149 -1.007,1.735 1.05,0 2.05,0 3.117,0"
         style="fill:#ffffff;fill-opacity:1;fill-rule:nonzero;stroke:none"
         id="path72" /><path
         d="m 146.563,189.898 c 1.378,-0.816 2.253,-2.152 3.265,-3.343 2.465,-0.442 5.016,-0.043 7.485,-0.149 -1.508,-1.379 -2.715,-3.054 -3.637,-4.918 -0.274,0.485 -0.61,1.008 -0.942,1.469 -0.336,-0.043 -0.945,-0.129 -1.277,-0.191 0,-1.528 0,-3.094 0.039,-4.684 -0.961,0.063 -1.922,0 -2.844,0.188 -0.797,2.406 -0.164,5.019 -0.422,7.468 -1.187,1.106 -2.046,2.489 -1.667,4.16"
         style="fill:#ffffff;fill-opacity:1;fill-rule:nonzero;stroke:none"
         id="path74" /><path
         d="m 170.867,186.449 c 1.125,1.067 1.754,2.59 3.051,3.449 0.797,-2.425 -1.926,-4.058 -1.297,-6.503 0.379,-2.387 -0.043,-6.211 -3.43,-5.313 0.039,1.629 0.039,3.305 0,4.934 -1.214,0.148 -1.796,-0.856 -2.296,-1.778 -0.754,2.008 -2.008,3.746 -3.559,5.168 2.508,0.043 5.059,-0.144 7.531,0.043"
         style="fill:#ffffff;fill-opacity:1;fill-rule:nonzero;stroke:none"
         id="path76" /><path
         d="m 211.527,189.938 c 0.586,-0.563 1.129,-1.188 1.633,-1.797 0.965,0 1.926,-0.063 2.883,-0.063 -0.25,-0.414 -0.5,-0.812 -0.711,-1.234 -0.625,0.043 -1.207,0.043 -1.797,0.086 0,-0.903 -0.043,-1.821 -0.082,-2.719 -1.676,1.152 -0.25,4.121 -1.926,5.727"
         style="fill:#ffffff;fill-opacity:1;fill-rule:nonzero;stroke:none"
         id="path78" /><path
         d="m 224.453,188.141 c 0.543,0.57 1.043,1.129 1.633,1.718 -0.961,-1.675 -1.047,-3.535 -1.004,-5.418 -0.254,0 -0.84,-0.043 -1.086,-0.043 -0.086,0.965 -0.125,1.864 -0.211,2.782 -0.461,-0.25 -0.965,-0.52 -1.422,-0.774 -0.297,0.586 -0.625,1.153 -0.965,1.672 1.004,0 2.051,0.063 3.055,0.063"
         style="fill:#ffffff;fill-opacity:1;fill-rule:nonzero;stroke:none"
         id="path80" /><path
         d="m 98.2891,184.691 c 0.5859,2.051 1.8589,3.786 3.7619,4.645 2.594,-0.668 2.512,-4.352 4.937,-4.559 -1.633,-0.566 -3.3,-0.273 -4.875,0.25 -1.484,-0.586 -3.0739,-0.586 -4.5778,-0.586 -0.125,0.668 -0.168,1.297 -0.2149,1.965 0.2969,-0.566 0.6289,-1.148 0.9688,-1.715"
         style="fill:#ffffff;fill-opacity:1;fill-rule:nonzero;stroke:none"
         id="path82" /><path
         d="m 214.914,184.652 c 0.754,1.797 1.965,4.536 4.231,4.286 2.421,-0.524 2.089,-4.161 4.554,-4.161 -1.59,-0.672 -3.304,-0.336 -4.851,0.207 -1.469,-0.586 -3.055,-0.586 -4.645,-0.586 -0.039,0.481 -0.078,1.379 -0.125,1.864 0.25,-0.379 0.668,-1.235 0.836,-1.61"
         style="fill:#ffffff;fill-opacity:1;fill-rule:nonzero;stroke:none"
         id="path84" /><path
         d="m 153.676,179.379 c 1.023,3.387 3.137,6.84 6.773,7.844 3.473,-1.235 5.653,-4.539 6.446,-8.032 0.543,1.192 0.957,2.383 1.585,3.493 0.129,-1.485 0.129,-3.012 0.083,-4.539 -3.133,-0.543 -5.938,0.46 -8.446,2.195 -2.429,-1.633 -5.043,-2.781 -7.992,-2.195 0,1.464 -0.062,2.906 0.086,4.394 0.75,-0.922 1.047,-2.051 1.465,-3.16"
         style="fill:#ffffff;fill-opacity:1;fill-rule:nonzero;stroke:none"
         id="path86" /><path
         d="m 92.9336,185.926 c 1,-0.332 1.6719,-1.192 2.2383,-2.008 1.5234,-0.086 3.0312,-0.086 4.5351,-0.043 -0.625,-0.816 -1.2304,-1.672 -1.8007,-2.531 -0.5391,0.23 -1.1055,0.48 -1.625,0.668 -0.043,-1.004 -0.043,-2.008 -0.1094,-3.012 -0.5625,0.043 -1.1875,0.043 -1.7735,0.086 -0.0429,1.484 -0.0429,2.969 -0.125,4.457 -0.5468,0.773 -1.0039,1.523 -1.3398,2.383"
         style="fill:#ffffff;fill-opacity:1;fill-rule:nonzero;stroke:none"
         id="path88" /><path
         d="m 109.102,183.875 c 0.562,0.777 1.148,1.527 1.816,2.195 -0.773,-2.3 -1.109,-4.644 -0.961,-7.027 -0.668,0 -1.297,0 -1.926,0 0.254,1.234 -0.043,3.973 -1.668,2.156 -0.629,0.899 -1.238,1.817 -1.91,2.676 1.574,-0.043 3.121,-0.043 4.649,0"
         style="fill:#ffffff;fill-opacity:1;fill-rule:nonzero;stroke:none"
         id="path90" /><path
         d="m 209.727,186.027 c 0.878,-0.582 1.589,-1.336 2.175,-2.195 1.551,-0.062 3.102,-0.062 4.559,0 -0.625,-0.816 -1.293,-1.672 -1.883,-2.594 -1.797,1.633 -1.797,-1.148 -1.754,-2.383 -0.418,0.04 -1.297,0.145 -1.715,0.188 -0.039,1.484 -0.039,2.969 -0.164,4.453 -0.59,0.758 -1.05,1.57 -1.218,2.531"
         style="fill:#ffffff;fill-opacity:1;fill-rule:nonzero;stroke:none"
         id="path92" /><path
         d="m 225.836,183.832 c 0.586,0.758 1.168,1.531 1.84,2.238 -0.797,-2.3 -1.172,-4.644 -1.004,-7.07 -0.625,-0.062 -1.254,-0.062 -1.887,-0.062 -0.039,1.066 -0.082,2.07 -0.125,3.074 -0.543,-0.293 -1.086,-0.586 -1.586,-0.856 -0.629,0.899 -1.258,1.801 -1.922,2.676 1.543,-0.062 3.09,-0.062 4.684,0"
         style="fill:#ffffff;fill-opacity:1;fill-rule:nonzero;stroke:none"
         id="path94" /><path
         d="m 97.5781,179.273 c 1.125,2.008 2.0469,4.497 4.5779,5.125 2.489,-0.668 3.242,-3.242 4.5,-5.125 0.149,0.543 0.414,1.59 0.582,2.114 0.082,-0.817 0.125,-1.633 0.192,-2.449 -2.114,-0.274 -3.641,1.214 -5.317,2.152 -1.672,-0.895 -3.1989,-2.426 -5.3122,-2.09 0.0625,0.816 0.1055,1.613 0.1875,2.426 0.1484,-0.563 0.4219,-1.61 0.5898,-2.153"
         style="fill:#ffffff;fill-opacity:1;fill-rule:nonzero;stroke:none"
         id="path96" /><path
         d="m 214.328,179.336 c 1.133,2.008 2.133,4.246 4.52,5.168 2.261,-1.07 3.679,-3.16 4.312,-5.504 0.289,0.754 0.625,1.527 0.914,2.344 0,-0.817 0.043,-1.633 0.043,-2.449 -2.051,-0.29 -3.597,1.195 -5.269,2.156 -1.715,-0.899 -3.262,-2.446 -5.356,-2.156 0.086,0.816 0.172,1.632 0.254,2.449 0.125,-0.528 0.418,-1.528 0.582,-2.008"
         style="fill:#ffffff;fill-opacity:1;fill-rule:nonzero;stroke:none"
         id="path98" /><path
         d="m 144.844,180.902 c 1.801,0.188 2.636,-2.238 3.726,-3.382 2.34,0 4.727,-0.067 7.067,0.039 -1.336,-1.485 -2.379,-3.114 -3.133,-4.938 -0.586,1.067 -1.258,2.113 -2.594,1.781 -0.043,-0.672 -0.082,-1.339 -0.082,-2.007 -0.629,0 -1.258,-0.043 -1.848,-0.106 -1.46,1.066 -1.171,2.824 -1.335,4.41 -0.899,1.235 -2.239,2.492 -1.801,4.203"
         style="fill:#ffffff;fill-opacity:1;fill-rule:nonzero;stroke:none"
         id="path100" /><path
         d="m 171.742,177.559 c 1.258,1.046 1.715,3.117 3.477,3.597 0.293,-1.691 -0.461,-3.121 -1.34,-4.496 -0.086,-1.547 -0.125,-3.222 -1.465,-4.308 -0.629,0 -1.297,0 -1.926,0 -0.043,0.711 -0.082,1.378 -0.082,2.05 -1.508,0.332 -2.136,-0.964 -2.593,-2.05 -0.75,1.863 -1.883,3.636 -3.219,5.168 2.383,0.039 4.804,-0.149 7.148,0.039"
         style="fill:#ffffff;fill-opacity:1;fill-rule:nonzero;stroke:none"
         id="path102" /><path
         d="m 93.0156,177.66 c -0.4609,1.153 -1.5859,2.051 -1.2343,3.43 0.8593,-0.813 1.6757,-1.711 2.3437,-2.676 1.3828,-0.043 2.8203,-0.043 4.2031,0 -0.3789,-0.711 -0.7109,-1.379 -1.0898,-2.047 -0.543,0.418 -1.207,0.754 -1.8789,0.961 -0.0391,-1.402 -0.0391,-2.781 0,-4.164 -0.6719,0 -1.3789,0 -2.0469,0 -0.2969,1.488 -0.1875,2.953 -0.2969,4.496"
         style="fill:#ffffff;fill-opacity:1;fill-rule:nonzero;stroke:none"
         id="path104" /><path
         d="m 110.207,178.414 c 0.609,0.922 1.34,1.824 2.133,2.637 0,-2.008 -1.461,-3.723 -1.043,-5.789 0.25,-1.532 -1.09,-2.242 -2.387,-2.242 0,1.425 0,2.867 -0.039,4.308 -0.734,-0.144 -1.34,-0.586 -1.883,-1.066 -0.375,0.734 -0.793,1.441 -1.195,2.109 1.488,0 2.91,0 4.414,0.043"
         style="fill:#ffffff;fill-opacity:1;fill-rule:nonzero;stroke:none"
         id="path106" /><path
         d="m 209.727,177.934 c -0.832,0.816 -1.504,1.882 -1.211,3.117 0.875,-0.856 1.672,-1.778 2.386,-2.719 1.418,0 2.801,0 4.184,0 -0.379,-0.672 -0.758,-1.336 -1.133,-2.008 -0.543,0.418 -1.172,0.754 -1.84,0.942 -0.086,-1.379 -0.043,-2.758 -0.043,-4.164 -0.629,0 -1.297,-0.039 -1.965,-0.039 -0.378,1.589 -0.335,3.261 -0.378,4.871"
         style="fill:#ffffff;fill-opacity:1;fill-rule:nonzero;stroke:none"
         id="path108" /><path
         d="m 226.879,178.332 c 0.629,0.941 1.34,1.863 2.219,2.613 -0.043,-1.945 -1.512,-3.617 -1.09,-5.683 0.293,-1.532 -1.047,-2.348 -2.426,-2.285 0.168,1.613 0.465,5.836 -1.883,3.246 -0.375,0.711 -0.797,1.379 -1.211,2.109 1.508,0 2.93,0 4.391,0"
         style="fill:#ffffff;fill-opacity:1;fill-rule:nonzero;stroke:none"
         id="path110" /><path
         d="m 97.2383,174.508 c 0.668,2.527 2.3047,4.91 4.8747,5.73 2.742,-0.859 4.293,-3.539 4.918,-6.172 0.442,0.86 0.836,1.821 1.211,2.719 0,-1.133 0,-2.277 0,-3.43 -2.34,-0.527 -4.226,0.711 -6.191,1.758 -2.012,-0.566 -3.7229,-2.386 -6.0627,-1.824 0,1.219 -0.043,2.363 -0.043,3.496 0.418,-0.754 0.793,-1.523 1.293,-2.277"
         style="fill:#ffffff;fill-opacity:1;fill-rule:nonzero;stroke:none"
         id="path112" /><path
         d="m 213.746,174.445 c 1.043,2.403 2.387,5.02 5.102,5.75 2.718,-0.859 4.269,-3.535 4.894,-6.172 0.418,0.86 0.793,1.758 1.254,2.637 0,-1.109 0,-2.215 0,-3.371 -2.344,-0.418 -4.433,0.629 -6.273,1.93 -1.883,-1.047 -3.719,-2.391 -5.981,-1.93 -0.047,1.156 -0.047,2.301 -0.047,3.496 0.383,-0.754 0.715,-1.566 1.051,-2.34"
         style="fill:#ffffff;fill-opacity:1;fill-rule:nonzero;stroke:none"
         id="path114" /><path
         d="m 152.336,170.426 c 1.172,3.933 3.641,7.719 7.738,9.039 4.266,-1.133 6.528,-5.399 7.903,-9.27 0.461,1.336 0.632,2.868 1.675,3.914 0.207,-1.906 0.125,-3.765 0.082,-5.652 -3.304,0 -6.652,-0.418 -9.742,1.066 -2.953,-1.398 -6.254,-1.144 -9.457,-1.003 0,1.867 -0.082,3.726 0,5.589 1.133,-0.902 1.301,-2.429 1.801,-3.683"
         style="fill:#ffffff;fill-opacity:1;fill-rule:nonzero;stroke:none"
         id="path116" /><path
         d="m 90.5469,175.512 c 1.0039,-0.86 1.9062,-1.887 2.6797,-2.973 1.5664,0 3.0937,0 4.6797,0 -0.625,-1.008 -1.211,-1.969 -1.7344,-2.973 -0.3281,0.442 -0.6016,0.86 -0.9375,1.254 -0.25,0 -0.6719,-0.101 -0.9219,-0.101 -0.1875,-0.563 -0.3789,-1.153 -0.5859,-1.715 -1.5039,0.336 -1.9453,1.715 -1.9024,3.098 -0.8984,0.918 -1.5273,2.07 -1.2773,3.41"
         style="fill:#ffffff;fill-opacity:1;fill-rule:nonzero;stroke:none"
         id="path118" /><path
         d="m 110.879,172.539 c 0.668,1.043 1.422,2.113 2.344,2.973 -0.438,-2.262 -0.547,-5.836 -3.184,-6.508 -0.168,0.672 -0.375,1.34 -0.562,2.008 -0.707,-0.336 -1.34,-0.856 -1.86,-1.446 -0.484,1.004 -1.047,1.965 -1.676,2.973 1.633,-0.039 3.309,0 4.938,0"
         style="fill:#ffffff;fill-opacity:1;fill-rule:nonzero;stroke:none"
         id="path120" /><path
         d="m 207.215,175.445 c 1.051,-0.855 1.926,-1.906 2.723,-3.007 1.546,0 3.14,0 4.64,0 -0.543,-0.907 -1.125,-1.868 -1.625,-2.872 -0.504,0.629 -1.094,1.153 -1.883,1.297 -0.211,-0.629 -0.379,-1.297 -0.59,-1.965 -1.585,0.336 -2.007,1.778 -1.964,3.204 -0.922,0.875 -1.504,2.007 -1.301,3.343"
         style="fill:#ffffff;fill-opacity:1;fill-rule:nonzero;stroke:none"
         id="path122" /><path
         d="m 227.676,172.539 c 0.625,1.043 1.336,2.051 2.215,2.867 0.461,-1.968 -1.422,-3.39 -1.129,-5.398 -0.629,-0.442 -1.293,-0.774 -1.965,-1.11 0.082,2.008 -1.629,2.2 -2.426,0.586 -0.543,1.004 -1.129,2.008 -1.676,2.954 1.676,0 3.309,0 4.981,0.101"
         style="fill:#ffffff;fill-opacity:1;fill-rule:nonzero;stroke:none"
         id="path124" /><path
         d="m 143.68,174.84 c 1.582,-0.625 2.883,-1.82 4.031,-3.074 0.711,-0.043 1.445,-0.043 2.156,-0.086 0,-1.293 0.043,-2.59 0.082,-3.891 2.114,0 4.27,0 6.356,0 -1,-1.086 -1.899,-2.277 -2.672,-3.531 -2.637,-0.039 -5.211,-0.039 -7.824,0 -0.063,2.34 -0.063,4.683 -0.129,7.023 -1.207,0.821 -2.379,1.926 -2,3.559"
         style="fill:#ffffff;fill-opacity:1;fill-rule:nonzero;stroke:none"
         id="path126" /><path
         d="m 96.2383,167.703 c 0.793,2.973 2.7187,5.985 5.8127,6.699 3.074,-1.047 4.937,-4.015 5.605,-7.07 0.672,0.898 0.922,2.051 1.379,3.055 0.11,-1.34 0.11,-2.723 0.067,-4.121 -2.782,-0.754 -4.789,1.066 -7.094,2.07 -2.465,-0.547 -4.3517,-2.977 -7.1721,-2.07 -0.1054,1.336 -0.2304,2.738 0.1485,4.078 0.375,-0.918 0.75,-1.781 1.2539,-2.641"
         style="fill:#ffffff;fill-opacity:1;fill-rule:nonzero;stroke:none"
         id="path128" /><path
         d="m 172.621,171.723 c 1.133,1.148 2.094,2.722 3.809,2.972 0.043,-1.406 -0.629,-2.593 -1.715,-3.414 -0.125,-2.34 -0.125,-4.683 -0.125,-7.023 -2.723,-0.039 -5.481,-0.039 -8.242,0 -0.754,1.254 -1.672,2.445 -2.719,3.531 2.258,0 4.519,0 6.691,0 0.086,1.301 0.086,2.598 0.125,3.934 0.711,0 1.422,0 2.176,0"
         style="fill:#ffffff;fill-opacity:1;fill-rule:nonzero;stroke:none"
         id="path130" /><path
         d="m 212.824,167.563 c 0.922,2.925 2.762,6.062 5.981,6.734 3.304,-0.899 4.519,-4.289 5.941,-6.922 0.293,1.004 0.504,2.051 1.047,2.969 0.086,-1.403 0.043,-2.781 0.043,-4.121 -1.176,-0.043 -2.387,-0.043 -3.598,0 -1.129,0.855 -2.261,1.965 -3.765,2.05 -1.383,-0.234 -2.469,-1.195 -3.559,-2.05 -1.125,-0.043 -2.258,-0.043 -3.387,-0.043 -0.043,1.383 -0.125,2.761 0.168,4.101 0.418,-0.898 0.754,-1.824 1.129,-2.718"
         style="fill:#ffffff;fill-opacity:1;fill-rule:nonzero;stroke:none"
         id="path132" /><path
         d="m 89.5195,171.012 c 1.1524,-0.625 2.1563,-1.446 3.0782,-2.407 0.3789,0 1.1289,-0.042 1.5273,-0.085 0,-0.957 0.0391,-1.922 0.0391,-2.864 1.1953,0 2.4062,0 3.5781,0 -0.4609,-0.918 -0.8789,-1.82 -1.3789,-2.738 -0.6289,0.293 -1.2305,0.586 -1.9024,0.918 -0.9609,-0.731 -2.1132,-0.875 -3.2461,-0.731 0,1.739 0,3.493 -0.1015,5.231 -0.8555,0.668 -1.6367,1.484 -1.5938,2.676"
         style="fill:#ffffff;fill-opacity:1;fill-rule:nonzero;stroke:none"
         id="path134" /><path
         d="m 111.445,168.668 c 0.77,0.898 1.606,1.758 2.778,2.238 -0.164,-1.047 -0.668,-1.902 -1.336,-2.633 -0.043,-1.761 -0.102,-3.492 -0.102,-5.21 -1.238,-0.04 -2.535,0 -3.535,0.773 -0.633,-0.289 -1.262,-0.625 -1.93,-0.918 -0.418,0.918 -0.914,1.82 -1.379,2.738 1.254,0 2.532,0 3.829,0 0,0.942 0,1.907 0,2.864 0.566,0.043 1.109,0.085 1.675,0.148"
         style="fill:#ffffff;fill-opacity:1;fill-rule:nonzero;stroke:none"
         id="path136" /><path
         d="m 175.258,168.563 c 0.711,0.628 1.379,1.257 2.012,1.925 -0.086,-4.414 -0.086,-8.761 -0.168,-13.156 -2.176,0 -4.352,0 -6.532,0 -0.039,2.09 -0.039,4.164 0,6.254 1.551,0 3.141,0 4.688,0 -0.039,1.672 0,3.305 0,4.977"
         style="fill:#ffffff;fill-opacity:1;fill-rule:nonzero;stroke:none"
         id="path138" /><path
         d="m 206.172,170.863 c 1.215,-0.476 2.219,-1.34 3.094,-2.258 0.422,-0.042 1.172,-0.085 1.55,-0.085 0.043,-1.004 0.043,-1.965 0.043,-2.926 1.254,0 2.465,0 3.637,0 -0.461,-1 -1.043,-1.946 -1.754,-2.824 -0.547,0.398 -1.008,0.777 -1.551,1.152 -0.375,-0.274 -0.753,-0.625 -1.128,-0.899 -0.711,0 -1.379,0 -2.133,0 -0.043,1.758 -0.082,3.532 -0.082,5.25 -0.836,0.668 -1.633,1.442 -1.676,2.59"
         style="fill:#ffffff;fill-opacity:1;fill-rule:nonzero;stroke:none"
         id="path140" /><path
         d="m 228.176,168.605 c 0.793,0.918 1.629,1.782 2.719,2.258 -0.082,-1.043 -0.543,-1.922 -1.34,-2.633 -0.039,-1.718 -0.039,-3.492 -0.121,-5.207 -0.879,0 -1.676,0 -2.555,0 -0.168,0.231 -0.539,0.668 -0.75,0.86 -0.672,-0.336 -1.383,-0.715 -2.094,-1.008 -0.461,0.898 -0.918,1.82 -1.34,2.719 1.215,-0.043 2.512,-0.043 3.809,-0.043 -0.039,1.004 0,1.965 0,2.969 0.582,0.043 1.082,0.043 1.672,0.085"
         style="fill:#ffffff;fill-opacity:1;fill-rule:nonzero;stroke:none"
         id="path142" /><path
         d="m 113.512,167.602 c 0.797,0.855 1.609,1.781 2.429,2.679 -0.187,-4.769 -0.082,-9.601 -0.296,-14.39 -3.051,0.039 -6.11,-0.106 -9.18,0.144 1.008,1.153 2.195,2.051 3.492,2.824 -0.043,1.192 -0.043,2.387 -0.043,3.579 1.129,0 2.34,0 3.473,0 0.062,1.738 0.062,3.449 0.125,5.164"
         style="fill:#ffffff;fill-opacity:1;fill-rule:nonzero;stroke:none"
         id="path144" /><path
         d="m 142.965,170.387 c 0.715,-0.629 1.398,-1.239 2.109,-1.824 0.063,-1.672 0.063,-3.305 0.106,-4.977 1.465,0 2.968,0 4.394,0.062 -0.148,-2.109 -0.148,-4.226 -0.086,-6.316 -2.113,0 -4.183,0 -6.273,0 -0.149,4.352 -0.039,8.699 -0.25,13.055"
         style="fill:#ffffff;fill-opacity:1;fill-rule:nonzero;stroke:none"
         id="path146" /><path
         d="m 87.5156,170.234 c 0.8985,-1.086 1.8633,-2.109 2.9727,-2.902 0.0586,-1.637 0.1015,-3.262 0.1015,-4.894 1.086,0 2.1329,0 3.2422,0 -0.0429,-1.192 -0.0429,-2.387 -0.1054,-3.579 1.2578,-0.773 2.4062,-1.734 3.4101,-2.781 -3.1133,-0.336 -6.2539,-0.105 -9.3945,-0.187 -0.125,4.789 -0.125,9.554 -0.2266,14.343"
         style="fill:#ffffff;fill-opacity:1;fill-rule:nonzero;stroke:none"
         id="path148" /><path
         d="m 204.246,170.094 c 0.879,-1.004 1.844,-2.012 2.969,-2.824 0.043,-1.614 0.043,-3.243 0.043,-4.918 1.133,0 2.219,0 3.265,0 0,-1.149 -0.043,-2.301 -0.043,-3.493 1.215,-0.816 2.301,-1.773 3.348,-2.824 -3.094,-0.336 -6.234,-0.105 -9.375,-0.144 -0.082,4.726 -0.082,9.468 -0.207,14.203"
         style="fill:#ffffff;fill-opacity:1;fill-rule:nonzero;stroke:none"
         id="path150" /><path
         d="m 230.184,167.563 c 0.836,0.816 1.629,1.71 2.468,2.593 -0.207,-4.797 -0.082,-9.582 -0.336,-14.308 -2.882,0.125 -5.769,-0.106 -8.617,0.082 -0.289,1.297 2.094,2.008 3.012,2.929 -0.039,1.192 -0.125,2.344 -0.125,3.493 1.215,0.043 2.383,0.043 3.555,0.043 0,1.714 0.043,3.449 0.043,5.168"
         style="fill:#ffffff;fill-opacity:1;fill-rule:nonzero;stroke:none"
         id="path152" /><path
         d="m 139.43,169.148 c 0.668,-1.21 1.57,-2.406 3.035,-2.742 0.039,-3.238 0.082,-6.5 0.125,-9.746 2.715,0 5.457,0.129 8.195,-0.144 -0.164,-1.485 -0.207,-2.93 -0.164,-4.411 -3.641,0 -7.215,0.063 -10.859,-0.039 -0.27,5.684 -0.141,11.372 -0.332,17.082"
         style="fill:#ffffff;fill-opacity:1;fill-rule:nonzero;stroke:none"
         id="path154" /><path
         d="m 177.852,166.367 c 1.257,0.567 2.05,1.633 2.722,2.781 -0.254,-5.71 0,-11.398 -0.336,-17.082 -3.64,0.102 -7.238,0.039 -10.84,0.039 0.043,1.481 0,2.926 -0.168,4.411 2.848,0.273 5.653,0.144 8.5,0.144 0.083,3.203 0.083,6.445 0.122,9.707"
         style="fill:#ffffff;fill-opacity:1;fill-rule:nonzero;stroke:none"
         id="path156" /><path
         d="m 152.547,157.793 c 0.519,4.496 2.488,9.91 7.445,11.062 4.977,-1.152 6.946,-6.566 7.485,-11.062 1.086,1.629 0.757,3.934 2.343,5.312 0.125,-1.859 0.082,-3.722 0.082,-5.648 -1.422,-0.039 -2.8,-0.086 -4.265,-0.086 -1.422,2.305 -3.223,4.313 -5.645,5.59 -2.387,-1.277 -4.289,-3.242 -5.691,-5.59 -1.383,0.047 -2.762,0.047 -4.207,0.086 0,1.883 -0.043,3.746 0.105,5.648 1.59,-1.378 1.258,-3.683 2.348,-5.312"
         style="fill:#ffffff;fill-opacity:1;fill-rule:nonzero;stroke:none"
         id="path158" /><path
         d="m 84.7305,168.23 c 0.6718,-0.855 1.4453,-1.718 2.2187,-2.535 0.043,-3.445 0.0821,-6.941 0.125,-10.437 2.2188,0 4.3555,0 6.5274,0 -0.1446,-1.231 -0.2071,-2.528 -0.2071,-3.824 -2.8047,0 -5.6523,0 -8.414,0 -0.1407,5.609 -0.1407,11.191 -0.25,16.796"
         style="fill:#ffffff;fill-opacity:1;fill-rule:nonzero;stroke:none"
         id="path160" /><path
         d="m 96.2813,159.383 c 0.457,3.344 1.8593,7.738 5.7697,8.281 3.742,-0.961 4.812,-5.082 5.523,-8.324 0.457,1.379 0.899,2.828 1.633,4.098 0.082,-1.418 0.082,-2.821 0.043,-4.243 -2.844,-0.484 -5.316,0.274 -7.574,1.907 -2.051,-1.825 -4.5393,-2.305 -7.2151,-1.907 0,1.422 0,2.825 0.1016,4.243 0.6719,-1.336 1.0469,-2.758 1.7188,-4.055"
         style="fill:#ffffff;fill-opacity:1;fill-rule:nonzero;stroke:none"
         id="path162" /><path
         d="m 116.316,155.258 c 0.672,4.312 -1.589,9.773 2.262,12.972 -0.043,-5.605 -0.148,-11.187 -0.215,-16.796 -2.718,0 -5.437,0 -8.156,0 0,1.296 -0.062,2.593 -0.211,3.824 2.117,0 4.227,0 6.32,0"
         style="fill:#ffffff;fill-opacity:1;fill-rule:nonzero;stroke:none"
         id="path164" /><path
         d="m 201.445,168.125 c 0.711,-0.855 1.426,-1.676 2.258,-2.469 0.043,-3.445 0.086,-6.945 0.125,-10.437 2.18,0.039 4.352,0 6.57,0.039 -0.25,-1.274 -0.293,-2.567 -0.293,-3.906 -2.847,0 -5.652,0 -8.41,0 -0.125,5.582 -0.164,11.191 -0.25,16.773"
         style="fill:#ffffff;fill-opacity:1;fill-rule:nonzero;stroke:none"
         id="path166" /><path
         d="m 212.953,159.277 c 0.539,3.348 1.754,7.383 5.477,8.325 3.933,-0.606 5.312,-4.977 5.73,-8.407 0.625,1.379 1.047,2.825 1.719,4.203 0.125,-1.441 0.125,-2.824 0.125,-4.203 -2.805,-0.398 -5.484,0 -7.531,1.969 -1.969,-1.969 -4.645,-2.367 -7.282,-2.031 -0.039,1.441 -0.039,2.824 0.125,4.222 0.586,-1.292 1.004,-2.738 1.637,-4.078"
         style="fill:#ffffff;fill-opacity:1;fill-rule:nonzero;stroke:none"
         id="path168" /><path
         d="m 233.195,165.738 c 0.711,0.774 1.465,1.594 2.137,2.387 -0.129,-5.582 -0.172,-11.191 -0.254,-16.773 -2.719,0 -5.441,0 -8.199,0 0,1.339 0,2.632 -0.168,3.906 2.094,-0.039 4.184,0 6.316,-0.039 0.043,3.492 0.086,6.992 0.168,10.519"
         style="fill:#ffffff;fill-opacity:1;fill-rule:nonzero;stroke:none"
         id="path170" /><path
         d="m 237.547,154.508 c 0.547,3.867 -0.793,8.18 1.172,11.758 0.039,-4.836 -0.086,-9.707 -0.211,-14.536 -0.875,0 -1.797,0.04 -2.719,0.106 -0.043,0.855 -0.043,1.711 -0.043,2.609 0.629,0 1.215,0.063 1.801,0.063"
         style="fill:#ffffff;fill-opacity:1;fill-rule:nonzero;stroke:none"
         id="path172" /><path
         d="m 81.4258,166.074 c 1.9687,-3.449 0.6328,-7.738 1.0703,-11.566 0.6094,0 1.1914,-0.063 1.7773,-0.063 0,-0.898 0.043,-1.816 0.043,-2.715 -0.9219,0 -1.8203,0 -2.7656,0.04 0.043,4.789 -0.1641,9.515 -0.125,14.304"
         style="fill:#ffffff;fill-opacity:1;fill-rule:nonzero;stroke:none"
         id="path174" /><path
         d="m 83.0586,165.695 c 2.0742,-3.113 0.7734,-7.086 1.2148,-10.621 -0.2929,0.043 -0.8164,0.102 -1.1054,0.102 0,3.496 -0.1914,7.035 -0.1094,10.519"
         style="fill:#ffffff;fill-opacity:1;fill-rule:nonzero;stroke:none"
         id="path176" /><path
         d="m 235.789,154.926 c 0.422,3.558 -0.961,7.617 1.297,10.625 0,-3.383 0,-6.84 -0.207,-10.231 -0.25,-0.101 -0.793,-0.289 -1.09,-0.394"
         style="fill:#ffffff;fill-opacity:1;fill-rule:nonzero;stroke:none"
         id="path178" /><path
         d="m 166.641,163.586 c 0.879,0 1.797,0 2.632,0.062 -0.625,-0.96 -1.125,-1.964 -1.671,-2.968 -0.289,0.941 -0.625,1.902 -0.961,2.906"
         style="fill:#ffffff;fill-opacity:1;fill-rule:nonzero;stroke:none"
         id="path180" /><path
         d="m 119.203,163.254 c 6.547,0 13.094,0 19.703,0 0.043,-2.723 0.043,-5.461 0.086,-8.137 -6.652,0 -13.304,0 -19.957,0 0.067,2.676 0.11,5.414 0.168,8.137"
         style="fill:#ffffff;fill-opacity:1;fill-rule:nonzero;stroke:none"
         id="path182" /><path
         d="m 150.723,163.648 c 0.898,0 1.781,-0.062 2.617,-0.062 -0.336,-1.004 -0.649,-2.047 -0.942,-3.055 -0.519,1.047 -1.066,2.094 -1.675,3.117"
         style="fill:#ffffff;fill-opacity:1;fill-rule:nonzero;stroke:none"
         id="path184" /><path
         d="m 181.113,163.254 c 6.61,0 13.137,0 19.75,0 0.043,-2.723 0.082,-5.461 0.082,-8.137 -6.656,0 -13.3,0 -19.957,0 0.086,2.676 0.086,5.414 0.125,8.137"
         style="fill:#ffffff;fill-opacity:1;fill-rule:nonzero;stroke:none"
         id="path186" /><path
         d="m 152.875,151.496 c 1.195,4.203 2.93,8.703 7.117,10.715 4.223,-2.16 6.149,-6.762 6.985,-11.109 0.793,1.441 0.586,3.304 1.632,4.597 0.25,-2.152 0.125,-4.347 0.039,-6.566 -5.773,0.148 -11.503,0.211 -17.316,0 -0.043,2.219 -0.168,4.371 0,6.566 1.215,-1.043 1.004,-2.82 1.543,-4.203"
         style="fill:#ffffff;fill-opacity:1;fill-rule:nonzero;stroke:none"
         id="path188" /><path
         d="m 101.781,160.531 c 3.828,-1.922 5.25,-6.125 6.317,-9.953 0.375,1.34 0.672,2.719 1.152,4.078 0.52,-1.883 0.184,-3.785 0.227,-5.707 -5.125,0 -10.2309,0 -15.352,0 -0.0625,1.961 -0.1445,3.93 0.0391,5.895 0.7343,-1.215 0.7773,-2.633 1.4882,-3.785 0.668,3.828 2.5938,7.55 6.1287,9.472"
         style="fill:#ffffff;fill-opacity:1;fill-rule:nonzero;stroke:none"
         id="path190" /><path
         d="m 218.473,160.43 c 3.718,-1.907 5.523,-5.922 6.105,-9.895 0.672,1.235 0.918,2.676 1.34,4.059 0.586,-1.864 0.25,-3.828 0.25,-5.692 -5.102,0 -10.25,-0.039 -15.352,0 0,1.969 -0.082,3.934 0.043,5.899 0.836,-1.106 0.582,-2.735 1.59,-3.699 0.629,3.785 2.555,7.464 6.024,9.328"
         style="fill:#ffffff;fill-opacity:1;fill-rule:nonzero;stroke:none"
         id="path192" /><path
         d="m 95.4023,158.523 c 0.961,0 1.918,0 2.8868,0 -0.3399,-0.48 -0.711,-1.003 -1.0508,-1.527 -0.625,0.524 -1.207,1.004 -1.836,1.527"
         style="fill:#ffffff;fill-opacity:1;fill-rule:nonzero;stroke:none"
         id="path194" /><path
         d="m 105.23,158.523 c 1.004,0 2.008,0 3.012,0 -0.625,-0.523 -1.254,-1.066 -1.922,-1.589 -0.336,0.523 -0.711,1.066 -1.09,1.589"
         style="fill:#ffffff;fill-opacity:1;fill-rule:nonzero;stroke:none"
         id="path196" /><path
         d="m 212.07,158.523 c 1.008,0 2.008,0 3.016,0 -0.379,-0.523 -0.758,-1.066 -1.176,-1.589 -0.586,0.523 -1.215,1.066 -1.84,1.589"
         style="fill:#ffffff;fill-opacity:1;fill-rule:nonzero;stroke:none"
         id="path198" /><path
         d="m 221.859,158.523 c 1.043,0 2.137,0 3.18,0 -0.668,-0.523 -1.297,-1.105 -1.965,-1.628 -0.379,0.523 -0.754,1.105 -1.215,1.628"
         style="fill:#ffffff;fill-opacity:1;fill-rule:nonzero;stroke:none"
         id="path200" /><path
         d="m 151.289,156.66 c 0.922,0 1.84,0 2.719,0 -0.207,-0.582 -0.461,-1.148 -0.711,-1.773 -0.668,0.625 -1.336,1.191 -2.008,1.773"
         style="fill:#ffffff;fill-opacity:1;fill-rule:nonzero;stroke:none"
         id="path202" /><path
         d="m 165.844,156.703 c 0.969,-0.043 1.926,-0.043 2.804,-0.043 -0.671,-0.582 -1.335,-1.148 -2.007,-1.734 -0.293,0.586 -0.5,1.195 -0.797,1.777"
         style="fill:#ffffff;fill-opacity:1;fill-rule:nonzero;stroke:none"
         id="path204" /><path
         d="m 107.949,153.504 c -0.476,0.379 -0.754,1.527 0,1.816 1.086,0.235 0.754,-1.691 0,-1.816"
         style="fill:#ffffff;fill-opacity:1;fill-rule:nonzero;stroke:none"
         id="path206" /><path
         d="m 224.703,153.504 c -0.586,0.379 -0.793,1.527 -0.043,1.754 1.133,0.254 0.797,-1.629 0.043,-1.754"
         style="fill:#ffffff;fill-opacity:1;fill-rule:nonzero;stroke:none"
         id="path208" /><path
         d="m 118.996,154.445 c 6.649,0 13.344,0 19.996,0 0,-0.898 0,-1.816 0.059,-2.715 -6.278,0 -12.528,0 -18.805,0 -1.711,-0.335 -1.043,1.711 -1.25,2.715"
         style="fill:#ffffff;fill-opacity:1;fill-rule:nonzero;stroke:none"
         id="path210" /><path
         d="m 180.988,154.445 c 6.657,0 13.301,0 20.039,0 0,-0.898 0,-1.816 0,-2.715 -6.656,0 -13.382,0 -20.082,0 0.043,0.899 0.043,1.817 0.043,2.715"
         style="fill:#ffffff;fill-opacity:1;fill-rule:nonzero;stroke:none"
         id="path212" /><path
         d="m 83.5586,151.352 c 1.0898,-0.442 1.9102,-1.297 2.4727,-2.301 -0.8594,0 -1.7149,0 -2.6368,0 0.0625,0.773 0.1055,1.527 0.1641,2.301"
         style="fill:#ffffff;fill-opacity:1;fill-rule:nonzero;stroke:none"
         id="path214" /><path
         d="m 140.203,151.434 c 3.477,0.105 6.945,0 10.418,0.062 0,-0.476 0.039,-1.402 0.039,-1.879 -3.43,0.582 -8.07,-1.531 -10.457,1.817"
         style="fill:#ffffff;fill-opacity:1;fill-rule:nonzero;stroke:none"
         id="path216" /><path
         d="m 169.398,151.496 c 3.481,-0.062 6.911,0.043 10.418,-0.062 -2.378,-3.348 -7.027,-1.235 -10.5,-1.817 0,0.477 0.082,1.403 0.082,1.879"
         style="fill:#ffffff;fill-opacity:1;fill-rule:nonzero;stroke:none"
         id="path218" /><path
         d="m 234.703,149.012 c 0.5,0.812 1.086,1.672 1.672,2.422 0.086,-0.75 0.172,-1.571 0.254,-2.383 -0.629,0 -1.297,-0.039 -1.926,-0.039"
         style="fill:#ffffff;fill-opacity:1;fill-rule:nonzero;stroke:none"
         id="path220" /><path
         d="m 85.4688,150.723 c 2.6132,0.148 5.289,0.043 7.9882,0.086 0,-0.653 0,-1.278 0.043,-1.907 -2.7422,0.293 -6.3594,-1 -8.0312,1.821"
         style="fill:#ffffff;fill-opacity:1;fill-rule:nonzero;stroke:none"
         id="path222" /><path
         d="m 110.145,150.809 c 2.781,-0.043 5.609,0.062 8.39,-0.086 -1.84,-2.93 -5.609,-1.528 -8.43,-1.821 0,0.629 0.04,1.254 0.04,1.907"
         style="fill:#ffffff;fill-opacity:1;fill-rule:nonzero;stroke:none"
         id="path224" /><path
         d="m 117.949,149.012 c 0.414,0.711 0.86,1.379 1.297,2.09 6.84,-0.043 13.68,0.058 20.516,-0.043 0.629,-0.774 1.34,-1.485 2.117,-2.11 -7.953,0.184 -15.941,0.063 -23.93,0.063"
         style="fill:#ffffff;fill-opacity:1;fill-rule:nonzero;stroke:none"
         id="path226" /><path
         d="m 180.238,151.059 c 6.649,0.043 13.34,0.043 19.996,0 1.297,0.187 1.84,-1.196 2.512,-2.008 -8.246,-0.102 -16.445,0.144 -24.641,-0.102 0.793,0.625 1.461,1.336 2.133,2.11"
         style="fill:#ffffff;fill-opacity:1;fill-rule:nonzero;stroke:none"
         id="path228" /><path
         d="m 202.199,150.723 c 2.637,0.043 5.313,0 7.949,0 0,-0.629 0.04,-1.235 0.04,-1.86 -2.676,0.227 -6.399,-1.109 -7.989,1.86"
         style="fill:#ffffff;fill-opacity:1;fill-rule:nonzero;stroke:none"
         id="path230" /><path
         d="m 226.836,150.766 c 2.844,-0.043 5.609,0.043 8.453,-0.082 -1.84,-2.93 -5.609,-1.594 -8.453,-1.821 0,0.625 0,1.231 0,1.903"
         style="fill:#ffffff;fill-opacity:1;fill-rule:nonzero;stroke:none"
         id="path232" /><path
         d="m 85.0664,148.379 c 0.6289,0.043 1.2578,0.043 1.8828,0.043 0,-1.567 0,-3.098 0,-4.684 -0.625,0 -1.2539,0.063 -1.8828,0.063 0,1.523 0,3.054 0,4.578"
         style="fill:#ffffff;fill-opacity:1;fill-rule:nonzero;stroke:none"
         id="path234" /><path
         d="m 116.863,148.422 c 8.364,-0.043 16.731,0 25.055,0 0,-1.567 0,-3.098 0,-4.684 -8.324,0 -16.691,0 -25.055,0 0,1.586 0,3.117 0,4.684"
         style="fill:#ffffff;fill-opacity:1;fill-rule:nonzero;stroke:none"
         id="path236" /><path
         d="m 142.59,148.422 c 2.883,0 5.726,0 8.574,0 0,-7.777 0,-15.582 0,-23.383 -0.254,0 -0.84,0 -1.113,0 0,4.27 0.043,8.512 0,12.777 -1.149,0 -2.34,0 -3.488,0 -0.043,-4.265 0,-8.507 0,-12.777 -1.34,0 -2.637,0 -3.973,0 0,7.801 0,15.606 0,23.383"
         style="fill:#ffffff;fill-opacity:1;fill-rule:nonzero;stroke:none"
         id="path238" /><path
         d="m 151.879,148.676 c 1.125,-1.676 2.422,-3.266 3.344,-5.086 0.414,-1.86 0.082,-3.867 0.187,-5.774 -0.941,0 -1.902,0 -2.863,0 0,-4.265 0,-8.507 0,-12.777 h -0.711 c 0,7.883 -0.047,15.75 0.043,23.637"
         style="fill:#ffffff;fill-opacity:1;fill-rule:nonzero;stroke:none"
         id="path240" /><path
         d="m 152.875,148.465 c 0.863,0 1.68,-0.043 2.535,-0.086 0,-1.234 0,-2.445 0,-3.68 -0.898,1.235 -1.777,2.492 -2.535,3.766"
         style="fill:#ffffff;fill-opacity:1;fill-rule:nonzero;stroke:none"
         id="path242" /><path
         d="m 156.031,148.465 h 0.782 c 0,-8.598 0,-17.215 0,-25.813 -0.063,-0.73 0.164,-1.734 -0.672,-2.113 -0.207,9.328 -0.063,18.66 -0.11,27.926"
         style="fill:#ffffff;fill-opacity:1;fill-rule:nonzero;stroke:none"
         id="path244" /><path
         d="m 157.48,148.465 c 1.629,0 3.262,0 4.934,0 -0.082,-9.16 0,-18.367 0,-27.547 -1.672,-0.043 -3.391,-0.043 -4.976,0.062 0.082,9.18 0,18.325 0.042,27.485"
         style="fill:#ffffff;fill-opacity:1;fill-rule:nonzero;stroke:none"
         id="path246" /><path
         d="m 162.961,148.465 c 0.203,0 0.625,0 0.836,0 -0.043,-9.266 0.086,-18.598 -0.125,-27.926 -0.711,0.231 -0.754,0.965 -0.711,1.633 0,8.742 0,17.508 0,26.293"
         style="fill:#ffffff;fill-opacity:1;fill-rule:nonzero;stroke:none"
         id="path248" /><path
         d="m 164.422,148.422 c 0.84,0 1.762,0 2.68,0 -0.918,-1.277 -1.84,-2.527 -2.68,-3.766 0,1.239 0,2.489 0,3.766"
         style="fill:#ffffff;fill-opacity:1;fill-rule:nonzero;stroke:none"
         id="path250" /><path
         d="m 164.508,143.551 c 1.004,1.816 2.387,3.449 3.64,5.125 0.086,-7.887 0.043,-15.754 0.043,-23.637 -0.253,0 -0.714,0 -0.964,0 0,4.27 0.043,8.512 0,12.777 -0.961,0 -1.922,0 -2.805,0 0.043,1.907 -0.207,3.829 0.086,5.735"
         style="fill:#ffffff;fill-opacity:1;fill-rule:nonzero;stroke:none"
         id="path252" /><path
         d="m 168.816,148.422 c 2.762,0 5.524,0 8.325,0 0,-7.777 0,-15.582 0,-23.383 -1.215,0 -2.34,0 -3.512,0 0,4.27 -0.043,8.473 0.082,12.719 -1.215,0 -2.43,0.058 -3.598,0.058 0.043,-4.265 0.043,-8.507 0.043,-12.777 -0.336,0 -1.008,0 -1.34,0 0,7.801 0,15.606 0,23.383"
         style="fill:#ffffff;fill-opacity:1;fill-rule:nonzero;stroke:none"
         id="path254" /><path
         d="m 177.77,148.422 c 8.703,-0.043 17.441,0 26.144,-0.043 0,-1.524 0,-3.055 0,-4.578 -8.703,-0.063 -17.402,0 -26.144,-0.063 0,1.586 0,3.117 0,4.684"
         style="fill:#ffffff;fill-opacity:1;fill-rule:nonzero;stroke:none"
         id="path256" /><path
         d="m 233.113,148.379 c 0.625,0 1.211,0.043 1.84,0.043 0,-1.524 0,-3.098 0,-4.621 -0.629,0 -1.258,-0.063 -1.883,-0.063 -0.043,1.524 0,3.117 0.043,4.641"
         style="fill:#ffffff;fill-opacity:1;fill-rule:nonzero;stroke:none"
         id="path258" /><path
         d="m 87.6172,148.191 c 3.1016,0.039 6.2734,-0.062 9.3711,-0.105 0,-7.695 0,-15.395 0,-23.09 l -0.707,0.043 c -0.043,4.27 -0.043,8.512 0,12.777 -1.2579,0 -2.4493,0 -3.6407,0 0.0391,-4.265 0,-8.507 0,-12.777 -1.6718,-0.043 -3.3476,-0.043 -5.0234,0 0,7.695 0,15.457 0,23.152"
         style="fill:#ffffff;fill-opacity:1;fill-rule:nonzero;stroke:none"
         id="path260" /><path
         d="m 97.6172,146.078 c 0.082,0.777 -0.207,1.824 0.6719,2.301 0.1875,-9.18 0.039,-18.363 0.082,-27.609 h -0.7148 c -0.0391,8.433 0,16.839 -0.0391,25.308"
         style="fill:#ffffff;fill-opacity:1;fill-rule:nonzero;stroke:none"
         id="path262" /><path
         d="m 99,148.129 c 1.672,0 3.305,0 4.934,0 0,-9.117 0,-18.223 0,-27.293 -1.629,0 -3.262,0 -4.934,0 0,9.07 0,18.176 0,27.293"
         style="fill:#ffffff;fill-opacity:1;fill-rule:nonzero;stroke:none"
         id="path264" /><path
         d="m 104.52,148.129 c 0.207,0 0.71,0 0.945,0 0,-9.117 0,-18.262 0,-27.402 -0.235,0 -0.738,0 -0.945,0 0,9.14 0,18.285 0,27.402"
         style="fill:#ffffff;fill-opacity:1;fill-rule:nonzero;stroke:none"
         id="path266" /><path
         d="m 105.984,148.086 c 3.387,0.043 6.801,0.144 10.207,0.105 0.039,-7.695 0.039,-15.457 0.039,-23.152 -2.171,-0.043 -4.265,-0.043 -6.421,0 0,4.27 0.062,8.512 0,12.777 -1.192,0 -2.336,0 -3.489,0 -0.125,-4.371 0.211,-8.656 -0.187,-12.964 -0.149,7.738 -0.106,15.496 -0.149,23.234"
         style="fill:#ffffff;fill-opacity:1;fill-rule:nonzero;stroke:none"
         id="path268" /><path
         d="m 204.582,148.129 c 3.223,0 6.445,-0.086 9.621,-0.086 0,-3.387 0,-6.836 0,-10.227 -0.793,0 -1.633,0 -2.426,-0.058 0.043,-4.207 0,-8.449 0,-12.719 -2.386,0 -4.765,0 -7.195,0 0,7.695 0,15.395 0,23.09"
         style="fill:#ffffff;fill-opacity:1;fill-rule:nonzero;stroke:none"
         id="path270" /><path
         d="m 214.871,148.086 0.715,-0.043 c 0,-9.074 0,-18.176 0,-27.273 h -0.715 c -0.039,9.097 0,18.199 0,27.316"
         style="fill:#ffffff;fill-opacity:1;fill-rule:nonzero;stroke:none"
         id="path272" /><path
         d="m 216.215,148.043 c 1.672,0 3.301,0 4.937,0 0,-9.031 0,-18.137 0,-27.207 -1.636,0 -3.265,0 -4.937,0 0,9.07 0,18.176 0,27.207"
         style="fill:#ffffff;fill-opacity:1;fill-rule:nonzero;stroke:none"
         id="path274" /><path
         d="m 221.738,148.086 c 0.246,0 0.707,0 0.957,0 0,-9.117 0,-18.219 0,-27.359 -0.25,0 -0.711,0 -0.957,0 0,9.14 0,18.242 0,27.359"
         style="fill:#ffffff;fill-opacity:1;fill-rule:nonzero;stroke:none"
         id="path276" /><path
         d="m 223.199,148.043 c 3.055,0.043 6.153,0.086 9.199,0.086 0.047,-7.695 0,-15.395 0,-23.09 -1.546,0 -3.046,0 -4.597,0 0,4.27 0,8.512 0,12.777 -1.129,0 -2.344,0 -3.469,0 0,-4.265 0,-8.507 0,-12.777 -0.297,0 -0.844,0 -1.133,0 0,7.695 0,15.352 0,23.004"
         style="fill:#ffffff;fill-opacity:1;fill-rule:nonzero;stroke:none"
         id="path278" /><path
         d="m 85.9453,143.129 c 0.2305,0 0.7539,0 1.0039,0.043 0,-6.086 0,-12.109 0,-18.133 -0.25,0 -0.7734,0 -1.0039,0 0,6.024 -0.039,12.047 0,18.09"
         style="fill:#ffffff;fill-opacity:1;fill-rule:nonzero;stroke:none"
         id="path280" /><path
         d="m 116.863,143.129 c 8.364,0 16.731,0 25.055,0 0,-6.043 0,-12.066 0,-18.09 -0.289,0 -0.918,0 -1.191,0 0,4.27 0,8.512 0,12.777 -1.196,0 -2.446,0 -3.637,-0.058 0.058,-4.207 0.058,-8.449 0.058,-12.719 -0.335,0 -1.003,0 -1.296,0 0,4.27 0,8.512 0,12.777 -1.215,0 -2.407,0 -3.594,0 0,-4.265 0,-8.507 0,-12.777 -0.293,0 -0.86,0 -1.149,0 0,4.27 0,8.512 0,12.777 -1.199,0 -2.41,0 -3.582,0 0.043,-4.265 0,-8.507 0,-12.777 -0.293,0 -0.836,0 -1.105,0 0,4.27 0,8.512 0,12.777 -1.195,0 -2.449,0 -3.645,0 0,-4.265 0,-8.507 0,-12.777 -0.269,0 -0.937,0 -1.273,0 0,4.27 0,8.512 0,12.777 -1.219,0 -2.402,0 -3.594,0 0.039,-4.265 0.039,-8.507 0,-12.777 -0.258,0 -0.777,0 -1.047,0 0,6.024 0,12.047 0,18.09"
         style="fill:#ffffff;fill-opacity:1;fill-rule:nonzero;stroke:none"
         id="path282" /><path
         d="m 177.77,143.129 c 8.742,0 17.441,0 26.144,0 0,-6.043 0,-12.066 0,-18.09 -0.543,0 -1.168,0 -1.758,0 0,4.27 0.043,8.512 0,12.777 -1.211,0 -2.383,0 -3.597,0 0,-4.265 0,-8.507 0,-12.777 -0.418,0 -1.297,0 -1.715,0 0,4.27 0,8.512 0,12.777 -1.211,0 -2.383,0 -3.598,0 0,-4.265 0,-8.507 0,-12.777 -0.297,0 -0.836,0 -1.133,0 0,4.27 0.043,8.512 0,12.777 -1.211,0 -2.383,0 -3.59,0 0.043,-4.265 0.043,-8.507 0,-12.777 -0.253,0 -0.8,0 -1.089,0 0,4.27 0.039,8.512 -0.043,12.777 -1.215,0 -2.344,0 -3.555,0 -0.043,-4.265 0,-8.507 0,-12.777 -0.59,0 -1.133,0 -1.719,0 0,4.27 0,8.512 0,12.777 -1.254,0 -2.465,-0.058 -3.676,-0.101 0.079,-4.164 0.122,-8.324 0,-12.445 -0.171,-0.129 -0.503,-0.379 -0.628,-0.461 -0.083,6.105 0,12.195 -0.043,18.32"
         style="fill:#ffffff;fill-opacity:1;fill-rule:nonzero;stroke:none"
         id="path284" /><path
         d="m 233.07,143.172 c 0.254,-0.043 0.754,-0.043 1.004,-0.043 0,-6.043 0,-12.066 0,-18.09 -0.25,0 -0.75,0 -1.004,0 0,6.024 0,12.047 0,18.133"
         style="fill:#ffffff;fill-opacity:1;fill-rule:nonzero;stroke:none"
         id="path286" /><path
         d="m 93.3125,137.148 c 0.75,0 1.5234,0 2.2969,0 0,-4.039 0,-8.05 0,-12.109 -0.7735,0 -1.5469,0 -2.2969,0 0,4.059 0,8.07 0,12.109"
         style="fill:#ffffff;fill-opacity:1;fill-rule:nonzero;stroke:none"
         id="path288" /><path
         d="m 106.902,137.191 c 0.754,-0.043 1.528,-0.043 2.305,-0.105 0,-4.016 0,-8.031 0,-12.047 -0.777,0 -1.551,0 -2.305,0 -0.039,4.059 0,8.07 0,12.152"
         style="fill:#ffffff;fill-opacity:1;fill-rule:nonzero;stroke:none"
         id="path290" /><path
         d="m 118.535,137.043 c 0.754,0.043 1.567,0.105 2.34,0.148 0.043,-4.082 0.043,-8.093 0,-12.152 -0.773,0 -1.543,0.039 -2.297,0.039 -0.043,3.977 0,7.992 -0.043,11.965"
         style="fill:#ffffff;fill-opacity:1;fill-rule:nonzero;stroke:none"
         id="path292" /><path
         d="m 123.445,137.148 c 0.778,0 1.532,0 2.305,0 0,-4.039 0,-8.05 0,-12.109 -0.773,0 -1.527,0 -2.305,0 0,4.059 0,8.07 0,12.109"
         style="fill:#ffffff;fill-opacity:1;fill-rule:nonzero;stroke:none"
         id="path294" /><path
         d="m 128.156,137.043 c 0.754,0.043 1.508,0.105 2.34,0.148 0,-4.082 0,-8.093 0,-12.152 -0.773,0 -1.543,0.039 -2.297,0.039 -0.043,3.977 0.043,7.992 -0.043,11.965"
         style="fill:#ffffff;fill-opacity:1;fill-rule:nonzero;stroke:none"
         id="path296" /><path
         d="m 132.883,137.043 c 0.754,0.043 1.527,0.105 2.297,0.148 0,-4.082 0.043,-8.093 0,-12.152 -0.77,0 -1.543,0 -2.297,0 0,4.016 0,8.031 0,12.004"
         style="fill:#ffffff;fill-opacity:1;fill-rule:nonzero;stroke:none"
         id="path298" /><path
         d="m 137.816,137.148 c 0.711,0 1.465,0 2.243,0 0.039,-4.039 0,-8.05 0,-12.109 -0.778,0 -1.532,0 -2.243,0 -0.062,4.059 -0.062,8.07 0,12.109"
         style="fill:#ffffff;fill-opacity:1;fill-rule:nonzero;stroke:none"
         id="path300" /><path
         d="m 147.191,137.086 c 0.75,0.062 1.461,0.062 2.235,0.062 0,-4.039 0,-8.05 0,-12.109 -0.774,0 -1.485,0 -2.235,0 0,4.016 0,8.031 0,12.047"
         style="fill:#ffffff;fill-opacity:1;fill-rule:nonzero;stroke:none"
         id="path302" /><path
         d="m 153.172,137.148 c 0.715,0 1.426,0 2.09,0 0.043,-4.039 0.043,-8.05 0.043,-12.109 -0.707,0 -1.418,0 -2.133,0 0,4.059 0,8.07 0,12.109"
         style="fill:#ffffff;fill-opacity:1;fill-rule:nonzero;stroke:none"
         id="path304" /><path
         d="m 164.465,137.148 c 0.711,0 1.422,0 2.137,-0.062 0,-4.016 0,-8.031 0,-12.047 -0.715,0 -1.426,0 -2.137,0 0,4.059 0,8.07 0,12.109"
         style="fill:#ffffff;fill-opacity:1;fill-rule:nonzero;stroke:none"
         id="path306" /><path
         d="m 170.824,137.148 c 0.711,0 1.426,0 2.176,0 0,-4.039 0,-8.05 0,-12.109 -0.75,0 -1.465,0 -2.176,0 -0.043,4.016 -0.043,8.07 0,12.109"
         style="fill:#ffffff;fill-opacity:1;fill-rule:nonzero;stroke:none"
         id="path308" /><path
         d="m 179.152,137.191 c 0.75,-0.043 1.504,-0.043 2.293,-0.105 0,-4.016 0,-8.031 0,-12.047 -0.789,0 -1.543,0 -2.293,0 0,4.059 0,8.07 0,12.152"
         style="fill:#ffffff;fill-opacity:1;fill-rule:nonzero;stroke:none"
         id="path310" /><path
         d="m 184.465,137.148 c 0.75,0 1.5,0 2.336,0 0,-4.039 0,-8.05 -0.039,-12.109 -0.797,0 -1.547,0.039 -2.297,0 0,4.059 0,8.07 0,12.109"
         style="fill:#ffffff;fill-opacity:1;fill-rule:nonzero;stroke:none"
         id="path312" /><path
         d="m 189.191,137.191 c 0.75,-0.043 1.547,-0.043 2.297,-0.105 0,-4.016 0,-8.031 0,-12.047 -0.75,0 -1.547,0 -2.297,0 -0.043,4.059 -0.043,8.07 0,12.152"
         style="fill:#ffffff;fill-opacity:1;fill-rule:nonzero;stroke:none"
         id="path314" /><path
         d="m 193.871,137.191 c 0.84,-0.043 1.594,-0.105 2.344,-0.148 -0.043,-3.973 0,-7.988 -0.043,-11.965 -0.75,0 -1.543,-0.039 -2.258,-0.039 -0.043,4.059 -0.043,8.07 -0.043,12.152"
         style="fill:#ffffff;fill-opacity:1;fill-rule:nonzero;stroke:none"
         id="path316" /><path
         d="m 199.227,137.191 c 0.796,-0.043 1.55,-0.043 2.304,-0.105 0,-4.016 0,-8.031 0,-12.047 -0.754,0 -1.508,0 -2.304,0 -0.039,4.059 -0.039,8.07 0,12.152"
         style="fill:#ffffff;fill-opacity:1;fill-rule:nonzero;stroke:none"
         id="path318" /><path
         d="m 212.449,137.086 c 0.418,0.062 1.34,0.062 1.754,0.105 0,-4.082 0,-8.093 0,-12.113 -0.414,-0.039 -1.336,-0.039 -1.754,-0.039 -0.043,4.016 -0.043,8.031 0,12.047"
         style="fill:#ffffff;fill-opacity:1;fill-rule:nonzero;stroke:none"
         id="path320" /><path
         d="m 224.996,137.148 c 0.715,0 1.426,0 2.133,0 0.047,-4.039 0,-8.05 0,-12.109 -0.707,0 -1.418,0 -2.133,0 -0.086,4.059 -0.086,8.07 0,12.109"
         style="fill:#ffffff;fill-opacity:1;fill-rule:nonzero;stroke:none"
         id="path322" /><path
         d="m 84.168,120.539 c 0.6289,1.484 0.8554,3.578 2.6758,4.121 -0.5625,-1.523 -0.9375,-3.531 -2.6758,-4.121"
         style="fill:#ffffff;fill-opacity:1;fill-rule:nonzero;stroke:none"
         id="path324" /><path
         d="m 85.8398,120.727 c 0.5665,1.195 1.1915,2.41 1.8633,3.539 2.1133,0 4.2266,0 6.3203,-0.082 -0.2343,-1.114 -0.5234,-2.262 -0.7109,-3.348 -2.4922,-0.148 -4.9805,-0.066 -7.4727,-0.109"
         style="fill:#ffffff;fill-opacity:1;fill-rule:nonzero;stroke:none"
         id="path326" /><path
         d="m 94.6484,124.074 c 0.625,0.043 1.2539,0.153 1.9219,0.192 -0.207,-1.196 -0.3984,-2.344 -0.582,-3.539 -0.668,0 -1.3828,0.043 -2.0977,0.043 0.2735,1.109 0.5078,2.218 0.7578,3.304"
         style="fill:#ffffff;fill-opacity:1;fill-rule:nonzero;stroke:none"
         id="path328" /><path
         d="m 106.133,124.184 c 0.562,0.043 1.187,0.043 1.773,0.082 0.379,-1.196 0.672,-2.344 0.965,-3.539 -0.773,0 -1.551,0.043 -2.258,0.043 -0.207,1.152 -0.336,2.3 -0.48,3.414"
         style="fill:#ffffff;fill-opacity:1;fill-rule:nonzero;stroke:none"
         id="path330" /><path
         d="m 108.66,124.184 c 2.637,0.082 5.235,0.082 7.867,0.043 0.606,-1.157 1.172,-2.305 1.797,-3.457 -2.969,-0.043 -5.941,-0.043 -8.847,0 -0.27,1.152 -0.524,2.3 -0.817,3.414"
         style="fill:#ffffff;fill-opacity:1;fill-rule:nonzero;stroke:none"
         id="path332" /><path
         d="m 117.195,124.324 c 8.114,-0.058 16.25,-0.058 24.387,0.043 -0.754,-1.148 -1.086,-2.82 -2.191,-3.531 -6.805,-0.191 -13.598,-0.066 -20.395,-0.066 -0.566,1.214 -1.195,2.41 -1.801,3.554"
         style="fill:#ffffff;fill-opacity:1;fill-rule:nonzero;stroke:none"
         id="path334" /><path
         d="m 142.254,124.266 c 2.883,0.058 5.687,-0.082 8.531,0 -0.332,-1.129 -0.734,-2.344 -1.062,-3.496 -3.118,-0.043 -6.211,-0.043 -9.395,0 0.629,1.152 1.301,2.367 1.926,3.496"
         style="fill:#ffffff;fill-opacity:1;fill-rule:nonzero;stroke:none"
         id="path336" /><path
         d="m 151.395,124.184 c 0.773,0 1.48,0 2.238,0 -0.293,-1.153 -0.504,-2.305 -0.797,-3.457 -0.836,0 -1.629,0 -2.449,0 0.336,1.152 0.672,2.304 1.008,3.457"
         style="fill:#ffffff;fill-opacity:1;fill-rule:nonzero;stroke:none"
         id="path338" /><path
         d="m 153.508,120.77 c 0.461,1.253 0.082,3.457 1.902,3.597 0,-1.187 0,-2.383 0,-3.531 -0.484,-0.066 -1.441,-0.066 -1.902,-0.066"
         style="fill:#ffffff;fill-opacity:1;fill-rule:nonzero;stroke:none"
         id="path340" /><path
         d="m 164.422,124.367 c 1.594,-0.293 1.258,-2.383 1.762,-3.597 -0.629,0 -1.215,0 -1.762,0 0,1.214 0,2.41 0,3.597"
         style="fill:#ffffff;fill-opacity:1;fill-rule:nonzero;stroke:none"
         id="path342" /><path
         d="m 166.016,124.227 c 2.547,0.769 2.968,-1.637 3.425,-3.5 -0.878,0 -1.796,0.043 -2.628,0.043 -0.258,1.152 -0.547,2.3 -0.797,3.457"
         style="fill:#ffffff;fill-opacity:1;fill-rule:nonzero;stroke:none"
         id="path344" /><path
         d="m 169.066,124.266 c 2.719,-0.082 5.438,0 8.204,0 0.668,-1.129 1.293,-2.344 1.921,-3.496 -3.011,-0.043 -6.023,-0.043 -9.078,0 -0.336,1.152 -0.715,2.3 -1.047,3.496"
         style="fill:#ffffff;fill-opacity:1;fill-rule:nonzero;stroke:none"
         id="path346" /><path
         d="m 178.063,124.324 c 8.535,0 17.109,-0.097 25.726,0.043 -0.633,-1.187 -1.211,-2.383 -1.84,-3.597 -6.988,-0.043 -13.972,0 -20.961,-0.043 -1.836,-0.082 -2.047,2.453 -2.925,3.597"
         style="fill:#ffffff;fill-opacity:1;fill-rule:nonzero;stroke:none"
         id="path348" /><path
         d="m 202.703,120.77 c 0.543,1.152 1.125,2.367 1.75,3.496 2.223,0 4.399,0.058 6.617,0 -0.336,-1.129 -0.632,-2.344 -0.922,-3.496 -2.468,-0.043 -4.984,-0.043 -7.445,0"
         style="fill:#ffffff;fill-opacity:1;fill-rule:nonzero;stroke:none"
         id="path350" /><path
         d="m 211.695,124.227 c 0.668,0 1.34,0 2.008,0 -0.211,-1.157 -0.379,-2.305 -0.586,-3.5 -0.754,0 -1.59,0 -2.344,0 0.336,1.195 0.629,2.343 0.922,3.5"
         style="fill:#ffffff;fill-opacity:1;fill-rule:nonzero;stroke:none"
         id="path352" /><path
         d="m 223.199,120.727 c 0,1.195 0.043,2.41 0.168,3.597 0.164,-1.187 0.375,-2.402 0.543,-3.597 -0.168,0 -0.5,0 -0.711,0"
         style="fill:#ffffff;fill-opacity:1;fill-rule:nonzero;stroke:none"
         id="path354" /><path
         d="m 223.996,124.266 c 0.664,0 1.34,-0.039 2.008,-0.082 0.25,-1.153 0.543,-2.305 0.832,-3.457 -0.75,0 -1.5,0 -2.301,0.043 -0.164,1.152 -0.375,2.367 -0.539,3.496"
         style="fill:#ffffff;fill-opacity:1;fill-rule:nonzero;stroke:none"
         id="path356" /><path
         d="m 226.586,124.227 c 1.883,0 3.809,0.183 5.648,0 1.129,-0.758 1.422,-2.348 2.09,-3.457 -2.258,-0.043 -4.558,-0.043 -6.816,0 -0.293,1.152 -0.629,2.3 -0.922,3.457"
         style="fill:#ffffff;fill-opacity:1;fill-rule:nonzero;stroke:none"
         id="path358" /><path
         d="m 233.238,124.66 c 1.754,-0.668 2.051,-2.637 2.594,-4.164 -1.508,0.863 -1.965,2.684 -2.594,4.164"
         style="fill:#ffffff;fill-opacity:1;fill-rule:nonzero;stroke:none"
         id="path360" /><path
         d="m 79.1484,120.102 c 5.875,-0.043 11.7344,0.105 17.5469,-0.043 0.168,-0.188 0.375,-0.629 0.543,-0.817 -6.0235,-0.082 -12.0664,-0.043 -18.0899,-0.043 0,0.231 0,0.711 0,0.903"
         style="fill:#ffffff;fill-opacity:1;fill-rule:nonzero;stroke:none"
         id="path362" /><path
         d="m 97.6172,118.348 c -0.0391,0.812 0.25,1.523 0.6289,2.148 0.293,-8.363 0.043,-16.793 0.125,-25.2226 l -0.7148,0.0625 c -0.0391,7.6991 0,15.3551 -0.0391,23.0121"
         style="fill:#ffffff;fill-opacity:1;fill-rule:nonzero;stroke:none"
         id="path364" /><path
         d="m 99.082,120.164 c 1.633,-0.062 3.223,-0.062 4.852,-0.062 0,-8.223 0,-16.5 0,-24.7661 -1.629,0 -3.262,0 -4.934,0 0.0391,8.2661 -0.0859,16.5431 0.082,24.8281"
         style="fill:#ffffff;fill-opacity:1;fill-rule:nonzero;stroke:none"
         id="path366" /><path
         d="m 104.563,120.438 c 0.628,-0.125 0.96,-0.528 0.902,-1.133 0,-7.946 0,-15.938 0,-23.9261 -0.235,0 -0.738,-0.043 -0.945,-0.1055 0,8.4296 -0.067,16.7966 0.043,25.1646"
         style="fill:#ffffff;fill-opacity:1;fill-rule:nonzero;stroke:none"
         id="path368" /><path
         d="m 105.984,120.102 c 16.418,0 32.836,0 49.239,0 0,-0.192 0.039,-0.672 0.039,-0.903 -16.399,0 -32.86,0 -49.278,0 0,0.231 0,0.672 0,0.903"
         style="fill:#ffffff;fill-opacity:1;fill-rule:nonzero;stroke:none"
         id="path370" /><path
         d="m 155.934,118.824 c -0.086,0.668 0.144,1.235 0.586,1.715 0.23,-8.469 0.125,-16.98 0.043,-25.4531 -0.422,0.293 -0.668,0.7344 -0.629,1.2539 0,7.5122 0,15.0192 0,22.4842"
         style="fill:#ffffff;fill-opacity:1;fill-rule:nonzero;stroke:none"
         id="path372" /><path
         d="m 157.227,120.207 c 1.675,0 3.304,0 4.98,-0.043 0,-8.238 0,-16.519 0,-24.7851 -1.676,0 -3.305,0 -4.98,0 0,8.2661 0,16.5471 0,24.8281"
         style="fill:#ffffff;fill-opacity:1;fill-rule:nonzero;stroke:none"
         id="path374" /><path
         d="m 162.875,120.438 c 1.09,-0.422 0.672,-1.672 0.754,-2.575 -0.082,-7.425 0.125,-14.828 -0.082,-22.2536 -0.125,-0.125 -0.547,-0.3789 -0.672,-0.461 -0.082,8.4106 -0.082,16.8786 0,25.2896"
         style="fill:#ffffff;fill-opacity:1;fill-rule:nonzero;stroke:none"
         id="path376" /><path
         d="m 164.422,120.102 c 16.48,0 33.051,0 49.613,0 0,-0.192 0,-0.672 0,-0.903 -16.562,0 -33.133,0 -49.695,0 0.082,0.231 0.082,0.672 0.082,0.903"
         style="fill:#ffffff;fill-opacity:1;fill-rule:nonzero;stroke:none"
         id="path378" /><path
         d="m 214.539,119.305 c -0.043,0.605 0.293,1.008 0.922,1.133 0.082,-8.368 0,-16.735 0.043,-25.1646 -0.25,0.0625 -0.715,0.1055 -0.965,0.1055 0,7.9881 0,15.9801 0,23.9261"
         style="fill:#ffffff;fill-opacity:1;fill-rule:nonzero;stroke:none"
         id="path380" /><path
         d="m 216.086,120.102 c 1.633,0 3.18,0 4.812,0.062 0.211,-8.285 0.082,-16.562 0.125,-24.8281 -1.675,0 -3.304,0 -4.937,0 0,8.2661 -0.043,16.5431 0,24.7661"
         style="fill:#ffffff;fill-opacity:1;fill-rule:nonzero;stroke:none"
         id="path382" /><path
         d="m 221.777,120.496 c 0.375,-0.625 0.668,-1.336 0.625,-2.148 -0.039,-7.657 0,-15.313 -0.039,-23.0121 l -0.758,-0.0625 c 0.133,8.4296 -0.125,16.8596 0.172,25.2226"
         style="fill:#ffffff;fill-opacity:1;fill-rule:nonzero;stroke:none"
         id="path384" /><path
         d="m 223.324,120.059 c 4.852,0.187 9.789,0 14.684,0.105 0.875,-0.105 2.297,0.332 2.465,-0.922 -5.856,-0.082 -11.793,-0.043 -17.696,0 0.125,0.188 0.383,0.629 0.547,0.817"
         style="fill:#ffffff;fill-opacity:1;fill-rule:nonzero;stroke:none"
         id="path386" /><path
         d="m 76.6992,118.574 c 6.7578,0 13.5586,0 20.2891,0 0,-1.191 0,-2.34 0,-3.531 -6.7305,0 -13.5313,0 -20.3281,0.039 0.039,1.152 0.039,2.301 0.039,3.492"
         style="fill:#ffffff;fill-opacity:1;fill-rule:nonzero;stroke:none"
         id="path388" /><path
         d="m 105.984,118.574 c 16.418,0 32.879,0 49.278,0 0,-1.191 0,-2.34 0,-3.531 -16.399,0 -32.817,0.039 -49.278,0 0,1.191 0,2.34 0,3.531"
         style="fill:#ffffff;fill-opacity:1;fill-rule:nonzero;stroke:none"
         id="path390" /><path
         d="m 164.258,118.574 c 16.605,0 33.172,0 49.777,0 0,-1.191 0,-2.34 0,-3.531 -16.605,0.039 -33.172,0 -49.738,0 0,1.191 -0.039,2.34 -0.039,3.531"
         style="fill:#ffffff;fill-opacity:1;fill-rule:nonzero;stroke:none"
         id="path392" /><path
         d="m 223.031,118.574 c 6.524,0 13.094,0 19.703,-0.043 0,-1.148 0,-2.297 0,-3.488 -6.566,0.039 -13.179,0 -19.703,0 0,1.191 0,2.34 0,3.531"
         style="fill:#ffffff;fill-opacity:1;fill-rule:nonzero;stroke:none"
         id="path394" /><path
         d="m 72.3945,114.41 c 8.1993,0 16.418,0 24.5938,0 0,-1.523 0,-3.051 0,-4.535 -8.2383,0 -16.3945,0 -24.6367,0 0,1.484 0,3.012 0.0429,4.535"
         style="fill:#ffffff;fill-opacity:1;fill-rule:nonzero;stroke:none"
         id="path396" /><path
         d="m 105.984,114.41 c 16.418,0 32.879,0 49.278,0 0,-1.523 0,-3.008 0,-4.535 -16.399,0 -32.86,0 -49.278,0 0,1.484 0,3.012 0,4.535"
         style="fill:#ffffff;fill-opacity:1;fill-rule:nonzero;stroke:none"
         id="path398" /><path
         d="m 164.297,114.41 c 16.566,0 33.133,0 49.738,0 0,-1.523 0,-3.051 0,-4.535 -16.605,0 -33.172,0 -49.738,0 -0.039,1.484 -0.039,3.012 0,4.535"
         style="fill:#ffffff;fill-opacity:1;fill-rule:nonzero;stroke:none"
         id="path400" /><path
         d="m 223.031,114.41 c 8.157,0 16.399,0 24.598,0 0.043,-1.523 0.043,-3.051 0.043,-4.535 -8.242,0 -16.484,0 -24.641,0 0,1.484 0,3.012 0,4.535"
         style="fill:#ffffff;fill-opacity:1;fill-rule:nonzero;stroke:none"
         id="path402" /><path
         d="m 66.2422,109.246 c 10.207,0 20.457,0 30.7461,0 0,-2.238 0,-4.43 0,-6.691 -10.2891,0 -20.5391,0 -30.7461,0 -0.0625,2.261 -0.0625,4.453 0,6.691"
         style="fill:#ffffff;fill-opacity:1;fill-rule:nonzero;stroke:none"
         id="path404" /><path
         d="m 105.984,109.203 c 16.461,0.043 32.879,0.043 49.278,0.043 0,-2.238 0,-4.43 0,-6.691 -16.399,0 -32.817,0 -49.278,0.043 0,2.218 0,4.41 0,6.605"
         style="fill:#ffffff;fill-opacity:1;fill-rule:nonzero;stroke:none"
         id="path406" /><path
         d="m 164.297,109.246 c 16.566,0 33.133,0 49.738,-0.043 0,-2.195 0,-4.387 0,-6.605 -16.605,-0.043 -33.172,-0.043 -49.738,-0.043 -0.039,2.261 -0.039,4.453 0,6.691"
         style="fill:#ffffff;fill-opacity:1;fill-rule:nonzero;stroke:none"
         id="path408" /><path
         d="m 223.031,109.246 c 10.293,0 20.5,0 30.746,0 0.043,-2.238 0.043,-4.43 0,-6.691 -10.246,0 -20.453,0 -30.746,0 0,2.261 0,4.453 0,6.691"
         style="fill:#ffffff;fill-opacity:1;fill-rule:nonzero;stroke:none"
         id="path410" /><path
         d="m 60.0547,101.926 c 12.2969,0 24.5937,-0.082 36.8906,0.062 0.086,-2.2146 0.043,-4.4138 0.043,-6.6091 -12.3399,0 -24.6367,0 -36.9766,0 0,2.1524 0,4.3516 0.043,6.5471"
         style="fill:#ffffff;fill-opacity:1;fill-rule:nonzero;stroke:none"
         id="path412" /><path
         d="m 105.984,101.926 c 16.418,0 32.879,0 49.278,0 0,-2.1955 0,-4.3518 0,-6.5471 -16.399,0 -32.86,0 -49.278,0 0,2.1953 0,4.3516 0,6.5471"
         style="fill:#ffffff;fill-opacity:1;fill-rule:nonzero;stroke:none"
         id="path414" /><path
         d="m 164.297,101.926 c 16.566,0 33.133,0 49.738,0 0,-2.1955 0,-4.3518 0,-6.5471 -16.605,0 -33.172,0 -49.738,0 -0.039,2.1524 -0.039,4.3516 0,6.5471"
         style="fill:#ffffff;fill-opacity:1;fill-rule:nonzero;stroke:none"
         id="path416" /><path
         d="m 223.074,101.988 c 12.301,-0.144 24.598,-0.062 36.899,-0.062 0.039,-2.1955 0.039,-4.3947 0.039,-6.5471 -12.34,0 -24.637,0 -36.981,0 0,2.1953 -0.043,4.3945 0.043,6.6091"
         style="fill:#ffffff;fill-opacity:1;fill-rule:nonzero;stroke:none"
         id="path418" /></g></g></svg>
