<?xml version="1.0" encoding="UTF-8" standalone="no"?>
<svg
   xmlns:dc="http://purl.org/dc/elements/1.1/"
   xmlns:cc="http://creativecommons.org/ns#"
   xmlns:rdf="http://www.w3.org/1999/02/22-rdf-syntax-ns#"
   xmlns:svg="http://www.w3.org/2000/svg"
   xmlns="http://www.w3.org/2000/svg"
   version="1.1"
   id="svg2"
   xml:space="preserve"
   width="42.666668"
   height="42.666668"
   viewBox="0 0 42.666668 42.666668"><metadata
     id="metadata8"><rdf:RDF><cc:Work
         rdf:about=""><dc:format>image/svg+xml</dc:format><dc:type
           rdf:resource="http://purl.org/dc/dcmitype/StillImage" /></cc:Work></rdf:RDF></metadata><defs
     id="defs6"><radialGradient
       fx="0"
       fy="0"
       cx="0"
       cy="0"
       r="1"
       gradientUnits="userSpaceOnUse"
       gradientTransform="matrix(1.34614,0,0,-1.34614,319.107,143.1)"
       spreadMethod="pad"
       id="radialGradient32"><stop
         style="stop-opacity:1;stop-color:#ffffff"
         offset="0"
         id="stop28" /><stop
         style="stop-opacity:1;stop-color:#dddddd"
         offset="1"
         id="stop30" /></radialGradient><radialGradient
       fx="0"
       fy="0"
       cx="0"
       cy="0"
       r="1"
       gradientUnits="userSpaceOnUse"
       gradientTransform="matrix(1.36696,0,0,-1.36696,319.464,147.018)"
       spreadMethod="pad"
       id="radialGradient40"><stop
         style="stop-opacity:1;stop-color:#ffffff"
         offset="0"
         id="stop36" /><stop
         style="stop-opacity:1;stop-color:#dddddd"
         offset="1"
         id="stop38" /></radialGradient><radialGradient
       fx="0"
       fy="0"
       cx="0"
       cy="0"
       r="1"
       gradientUnits="userSpaceOnUse"
       gradientTransform="matrix(1.35981,0,0,-1.35981,317.448,131.528)"
       spreadMethod="pad"
       id="radialGradient50"><stop
         style="stop-opacity:1;stop-color:#ffffff"
         offset="0"
         id="stop46" /><stop
         style="stop-opacity:1;stop-color:#dddddd"
         offset="1"
         id="stop48" /></radialGradient><radialGradient
       fx="0"
       fy="0"
       cx="0"
       cy="0"
       r="1"
       gradientUnits="userSpaceOnUse"
       gradientTransform="matrix(1.34995,0,0,-1.34995,318.63,139.211)"
       spreadMethod="pad"
       id="radialGradient58"><stop
         style="stop-opacity:1;stop-color:#ffffff"
         offset="0"
         id="stop54" /><stop
         style="stop-opacity:1;stop-color:#dddddd"
         offset="1"
         id="stop56" /></radialGradient><radialGradient
       fx="0"
       fy="0"
       cx="0"
       cy="0"
       r="1"
       gradientUnits="userSpaceOnUse"
       gradientTransform="matrix(1.35885,0,0,-1.35885,316.721,127.742)"
       spreadMethod="pad"
       id="radialGradient66"><stop
         style="stop-opacity:1;stop-color:#ffffff"
         offset="0"
         id="stop62" /><stop
         style="stop-opacity:1;stop-color:#dddddd"
         offset="1"
         id="stop64" /></radialGradient><radialGradient
       fx="0"
       fy="0"
       cx="0"
       cy="0"
       r="1"
       gradientUnits="userSpaceOnUse"
       gradientTransform="matrix(1.34473,0,0,-1.34473,318.094,135.359)"
       spreadMethod="pad"
       id="radialGradient74"><stop
         style="stop-opacity:1;stop-color:#ffffff"
         offset="0"
         id="stop70" /><stop
         style="stop-opacity:1;stop-color:#dddddd"
         offset="1"
         id="stop72" /></radialGradient></defs><g
     id="g10"
     transform="matrix(1.3333333,0,0,-1.3333333,0,42.666667)"><g
       id="g12"
       transform="scale(0.1)"><path
         d="M 159.984,320 C 71.8516,320 0,248.129 0,159.988 c 0,-5.73 0.410156,-11.359 1,-16.941 11.8945,-5.086 24.8828,-7.746 37.75,-6.738 14.4492,2.07 23.3008,15.574 36.6914,20.015 5.9766,2.094 12.4961,1.512 18.6055,0.387 11.4571,-2.156 21.3401,-8.609 31.8981,-13.238 11.684,-5.278 24.766,-7.883 37.66,-7.235 17.567,1.688 27.524,21.325 45.61,21.461 17.64,0.785 32.152,-10.383 47.875,-16.379 10.226,-3.843 21.215,-5.617 32.086,-5.144 12.117,1.07 20.59,10.672 30.574,16.676 0.109,2.375 0.25,4.742 0.25,7.136 C 320,248.129 248.125,320 159.984,320"
         style="fill:#d01e27;fill-opacity:1;fill-rule:nonzero;stroke:none"
         id="path14" /><path
         d="m 214.938,161.758 c 9.679,-2.598 24.324,-1.945 30.898,-9.625 -9.672,2.597 -21.606,-13.047 -30.898,-9.621 8.21,-5.75 -119.3872,0 -109.157,0 -9.6794,2.593 -24.3201,1.941 -30.8943,9.621 9.668,-2.594 21.6016,13.051 30.8943,9.625 -8.2068,5.746 -22.4412,10.203 -25.7458,19.613 8.2109,-5.742 24.9098,4.91 32.3318,-1.523 -5.746,8.199 -17.7537,17.207 -17.4881,27.226 5.7421,-8.207 25.0941,-3.808 29.8551,-12.484 -2.586,9.68 -10.398,22.156 -7.117,31.57 2.598,-9.68 22.078,-12.082 23.793,-21.945 0.871,9.98 -2.652,24.426 4.11,32.098 -0.872,-9.981 16.718,-18.891 14.839,-28.758 4.235,9.082 6.579,23.75 14.84,28.758 -4.23,-9.079 9.582,-23.422 4.114,-32.098 7.082,7.082 13.921,20.207 23.789,21.945 -7.082,-7.086 0.464,-25.129 -7.114,-31.57 9.071,4.23 19.789,14.23 29.856,12.484 -9.082,-4.23 -8.188,-23.801 -17.492,-27.226 9.992,0.875 23.394,6.531 32.332,1.523 -9.977,-0.871 -15.512,-19.613 -25.746,-19.613"
         style="fill:#f7cf0d;fill-opacity:1;fill-rule:nonzero;stroke:none"
         id="path16" /><path
         d="m 105.988,143.227 c 5.821,-0.438 50.996,-2.442 82.028,-2.442 22.41,0 26.058,1.074 26.589,1.539 -0.097,-0.086 -0.136,-0.273 -0.105,-0.426 l 0.727,1.387 c 0.804,-0.297 1.64,-0.437 2.558,-0.437 3.774,0 8.117,2.562 12.32,5.043 4.45,2.625 9.047,5.339 13.391,5.363 -4.676,3.809 -12.023,4.891 -19.16,5.937 -3.453,0.508 -6.715,0.989 -9.613,1.766 l 0.215,1.633 c 4.847,0 8.625,4.629 12.617,9.527 3.215,3.946 6.519,8 10.55,9.508 -1.863,0.645 -3.992,0.965 -6.453,0.965 -4.332,0 -9.043,-0.981 -13.601,-1.926 -3.41,-0.711 -6.629,-1.379 -9.625,-1.641 l -0.36,1.602 c 4.364,1.605 6.34,7.188 8.434,13.098 1.734,4.882 3.516,9.91 6.852,12.726 -6.09,-0.043 -12.414,-3.969 -18.528,-7.761 -2.965,-1.84 -5.765,-3.583 -8.484,-4.848 l -0.891,1.383 c 3.559,3.019 3.508,8.945 3.449,15.215 -0.043,5.175 -0.089,10.5 2.079,14.285 -5.606,-2.098 -10.239,-7.953 -14.735,-13.637 -2.172,-2.746 -4.222,-5.336 -6.344,-7.457 l -1.289,1.027 c 2.606,4.125 0.426,9.758 -1.882,15.723 -1.825,4.719 -3.7,9.57 -3.032,13.773 -4.343,-3.922 -6.773,-10.996 -9.132,-17.867 -1.129,-3.285 -2.196,-6.39 -3.45,-9.082 l -1.566,0.508 c 0.887,4.652 -3.012,9.176 -7.137,13.961 -3.383,3.93 -6.859,7.969 -7.605,12.266 -3.129,-5.192 -2.844,-12.668 -2.567,-19.93 0.133,-3.524 0.258,-6.856 -0.004,-9.867 l -1.64,-0.067 c -0.809,4.641 -5.992,7.559 -11.481,10.645 -4.48,2.519 -9.086,5.109 -11.285,8.844 -0.906,-5.899 1.813,-12.821 4.449,-19.54 1.278,-3.253 2.485,-6.324 3.258,-9.218 l -1.527,-0.614 c -2.235,4.075 -8.117,5.039 -14.348,6.063 -5.152,0.844 -10.453,1.715 -13.8006,4.539 0.9492,-5.891 5.9806,-11.477 10.8636,-16.898 2.367,-2.625 4.597,-5.106 6.324,-7.571 l -1.219,-1.101 c -1.531,1.324 -3.582,1.941 -6.457,1.941 -2.766,0 -5.9608,-0.598 -9.0507,-1.172 -3.2109,-0.597 -6.5312,-1.219 -9.539,-1.219 -1.9141,0 -3.5704,0.254 -4.9922,0.774 2.9765,-5.16 9.5781,-8.707 15.9882,-12.152 3.0977,-1.665 6.0197,-3.235 8.4807,-4.957 l -0.762,-1.458 c -0.805,0.297 -1.644,0.442 -2.558,0.442 -3.7739,0 -8.1216,-2.563 -12.3247,-5.047 -4.4453,-2.625 -9.043,-5.34 -13.3867,-5.363 4.6718,-3.805 12.0234,-4.887 19.1562,-5.938 3.4531,-0.508 6.7152,-0.984 9.6172,-1.765 z m 82.028,-4.098 c -18.516,0 -41.524,0.726 -53.59,1.16 -20.449,0.738 -26.813,1.094 -28.879,1.391 -0.102,0 -0.172,-0.004 -0.215,-0.008 l -0.004,0.043 c -0.508,0.086 -0.683,0.164 -0.769,0.25 -2.559,0.609 -5.4145,1.027 -8.4145,1.473 -8.3828,1.23 -17.0468,2.507 -21.8867,8.156 l -1.7422,2.035 2.586,-0.695 c 0.6523,-0.172 1.3476,-0.262 2.0664,-0.262 3.9062,0 8.3281,2.609 12.6054,5.133 4.1407,2.441 8.4141,4.965 12.4256,5.25 -1.625,0.957 -3.3865,1.902 -5.2029,2.879 -7.5273,4.043 -15.3047,8.222 -17.7422,15.164 l -0.8516,2.429 2.1094,-1.476 c 1.5586,-1.09 3.6094,-1.617 6.2696,-1.617 2.8554,0 6.0976,0.601 9.2343,1.187 3.1641,0.59 6.4334,1.199 9.3554,1.199 1.516,0 2.856,-0.164 4.043,-0.504 -1.203,1.454 -2.539,2.934 -3.922,4.469 -5.7225,6.352 -11.6404,12.926 -11.4451,20.313 l 0.0703,2.511 1.4375,-2.058 c 2.6133,-3.735 8.5933,-4.715 14.3753,-5.664 4.754,-0.782 9.633,-1.582 12.883,-3.946 -0.618,1.754 -1.336,3.586 -2.079,5.473 -3.101,7.91 -6.316,16.086 -3.898,23.02 l 0.887,2.539 0.695,-2.598 c 1.184,-4.406 6.434,-7.359 11.508,-10.215 4.215,-2.367 8.531,-4.797 10.804,-8.172 0.004,1.895 -0.07,3.891 -0.152,5.957 -0.32,8.489 -0.656,17.27 4.32,22.918 l 1.668,1.891 -0.218,-2.512 c -0.399,-4.527 3.527,-9.082 7.32,-13.488 3.168,-3.676 6.414,-7.445 7.379,-11.41 0.656,1.726 1.293,3.574 1.949,5.48 2.785,8.11 5.664,16.496 11.774,20.199 l 2.335,1.415 -1.152,-2.473 c -1.898,-4.074 0.246,-9.621 2.32,-14.988 1.758,-4.543 3.559,-9.204 3.09,-13.286 1.172,1.383 2.356,2.879 3.578,4.422 5.286,6.676 10.747,13.582 18.02,14.864 l 2.586,0.457 -1.859,-1.86 c -3.235,-3.238 -3.184,-9.281 -3.129,-15.125 0.043,-4.824 0.086,-9.773 -1.696,-13.426 1.641,0.934 3.336,1.985 5.086,3.071 6.348,3.941 12.91,8.011 19.504,8.011 0.86,0 1.711,-0.07 2.531,-0.21 l 2.606,-0.454 -2.395,-1.117 c -4.152,-1.933 -6.175,-7.64 -8.132,-13.156 -1.61,-4.543 -3.262,-9.203 -6.176,-12.02 1.863,0.313 3.812,0.719 5.828,1.137 4.637,0.965 9.433,1.961 13.937,1.961 3.77,0 6.856,-0.703 9.438,-2.148 l 2.348,-1.317 -2.68,-0.234 c -4.516,-0.395 -8.278,-5.012 -11.918,-9.477 -3.082,-3.781 -6.246,-7.664 -10.055,-9.316 1.836,-0.34 3.781,-0.625 5.793,-0.922 8.383,-1.23 17.047,-2.508 21.887,-8.16 l 1.738,-2.031 -2.582,0.695 c -0.652,0.172 -1.348,0.262 -2.066,0.262 -3.91,0 -8.328,-2.61 -12.606,-5.133 -4.394,-2.594 -8.937,-5.277 -13.164,-5.277 -0.621,0 -1.226,0.058 -1.808,0.171 -0.539,-0.984 -3.297,-2.23 -27.961,-2.23"
         style="fill:#b59b1c;fill-opacity:1;fill-rule:nonzero;stroke:none"
         id="path18" /><path
         d="m 114.348,152.133 -34.9066,14.265 37.6796,1.473 -27.9257,25.348 35.9137,-11.516 -17.57,33.371 29.816,-23.094 -5.093,37.36 20.109,-31.899 7.988,36.856 7.993,-36.856 20.109,31.899 -5.094,-37.36 29.805,23.094 -17.563,-33.371 35.907,11.516 -27.914,-25.348 37.668,-1.473 -34.895,-14.265 34.895,-14.266 H 79.4414 l 34.9066,14.266 v 0"
         style="fill:#f7cf0d;fill-opacity:1;fill-rule:nonzero;stroke:none"
         id="path20" /><path
         d="M 83.6602,138.695 H 237.055 l -30.996,12.672 c -0.309,0.125 -0.512,0.43 -0.512,0.766 0,0.34 0.203,0.64 0.512,0.769 l 31.359,12.821 -33.852,1.32 c -0.336,0.012 -0.628,0.227 -0.746,0.543 -0.113,0.316 -0.027,0.672 0.223,0.898 l 25.082,22.778 -32.262,-10.348 c -0.324,-0.101 -0.672,0 -0.886,0.258 -0.215,0.258 -0.254,0.621 -0.098,0.918 l 15.777,29.988 -26.781,-20.75 c -0.266,-0.207 -0.633,-0.23 -0.922,-0.062 -0.293,0.168 -0.453,0.496 -0.406,0.828 l 4.578,33.57 L 169.051,197 c -0.18,-0.285 -0.52,-0.43 -0.844,-0.375 -0.332,0.059 -0.594,0.313 -0.668,0.641 l -7.18,33.117 -7.175,-33.117 c -0.075,-0.328 -0.336,-0.582 -0.668,-0.641 -0.328,-0.059 -0.664,0.09 -0.844,0.375 l -18.074,28.668 4.578,-33.574 c 0.043,-0.332 -0.117,-0.66 -0.406,-0.828 -0.293,-0.168 -0.661,-0.145 -0.922,0.062 l -26.793,20.75 15.789,-29.988 c 0.156,-0.297 0.117,-0.66 -0.102,-0.918 -0.215,-0.258 -0.566,-0.359 -0.887,-0.258 L 92.5859,191.262 117.68,168.484 c 0.246,-0.226 0.336,-0.582 0.218,-0.898 -0.113,-0.316 -0.41,-0.531 -0.746,-0.543 l -33.859,-1.32 31.367,-12.821 c 0.313,-0.129 0.516,-0.429 0.516,-0.769 0,-0.336 -0.203,-0.641 -0.516,-0.766 z M 241.27,137.039 H 79.4414 c -0.3984,0 -0.7383,0.281 -0.8164,0.672 -0.0742,0.387 0.1367,0.773 0.5,0.926 l 33.031,13.496 -33.031,13.5 c -0.3594,0.148 -0.5703,0.527 -0.5,0.91 0.0664,0.387 0.3945,0.672 0.7813,0.687 l 35.6567,1.387 -26.4224,23.988 c -0.289,0.262 -0.3554,0.692 -0.1601,1.028 0.1953,0.34 0.6015,0.492 0.9687,0.375 l 33.9848,-10.895 -16.625,31.575 c -0.184,0.343 -0.098,0.773 0.199,1.023 0.301,0.25 0.734,0.258 1.039,0.019 l 28.211,-21.851 -4.82,35.351 c -0.051,0.387 0.171,0.758 0.539,0.891 0.371,0.133 0.777,-0.008 0.984,-0.336 l 19.031,-30.187 7.559,34.875 c 0.082,0.379 0.422,0.652 0.808,0.652 0.391,0 0.731,-0.273 0.813,-0.652 l 7.558,-34.875 19.032,30.187 c 0.207,0.328 0.617,0.469 0.984,0.336 0.363,-0.133 0.59,-0.504 0.535,-0.891 l -4.816,-35.351 28.199,21.851 c 0.305,0.239 0.738,0.231 1.039,-0.019 0.297,-0.25 0.383,-0.68 0.199,-1.023 l -16.613,-31.575 33.969,10.895 c 0.375,0.121 0.777,-0.035 0.972,-0.375 0.196,-0.336 0.129,-0.766 -0.16,-1.028 l -26.414,-23.988 35.649,-1.387 c 0.386,-0.015 0.715,-0.3 0.781,-0.687 0.07,-0.383 -0.141,-0.762 -0.5,-0.91 l -33.023,-13.5 33.023,-13.496 c 0.363,-0.153 0.574,-0.539 0.5,-0.926 -0.078,-0.391 -0.418,-0.672 -0.816,-0.672"
         style="fill:#b59b1c;fill-opacity:1;fill-rule:nonzero;stroke:none"
         id="path22" /><path
         d="m 160.359,197.836 c 25.243,0 45.704,-20.461 45.704,-45.703 0,-25.238 -20.461,-45.699 -45.704,-45.699 -25.238,0 -45.699,20.461 -45.699,45.699 0,25.242 20.461,45.703 45.699,45.703"
         style="fill:#f7cf0d;fill-opacity:1;fill-rule:nonzero;stroke:none"
         id="path24" /><path
         d="m 160.359,196.84 c -24.648,0 -44.707,-20.055 -44.707,-44.707 0,-24.649 20.059,-44.707 44.707,-44.707 24.653,0 44.707,20.058 44.707,44.707 0,24.652 -20.054,44.707 -44.707,44.707 z m 0,-91.402 c -25.746,0 -46.695,20.949 -46.695,46.695 0,25.75 20.949,46.695 46.695,46.695 25.75,0 46.7,-20.945 46.7,-46.695 0,-25.746 -20.95,-46.695 -46.7,-46.695"
         style="fill:#b59b1c;fill-opacity:1;fill-rule:nonzero;stroke:none"
         id="path26" /><path
         d="m 318.898,141.273 c 0.137,1.239 0.27,2.497 0.407,3.731 -0.137,-1.234 -0.27,-2.492 -0.407,-3.731"
         style="fill:url(#radialGradient32);fill-opacity:1;fill-rule:evenodd;stroke:none"
         id="path34" /><path
         d="m 319.305,145.16 c 0.109,1.262 0.222,2.516 0.312,3.797 -0.09,-1.281 -0.203,-2.535 -0.312,-3.797"
         style="fill:url(#radialGradient40);fill-opacity:1;fill-rule:evenodd;stroke:none"
         id="path42" /><path
         d="m 315.461,122.176 c -7.84,-5.547 -15.074,-12.246 -24.848,-13.68 -14.308,-1.105 -28.758,2.156 -41.656,8.422 -13.187,6.516 -27.051,14.359 -42.418,12.715 -16.375,-1.883 -25.809,-19.051 -42.148,-21.207 -14.129,-0.965 -28.375,2.226 -41.047,8.355 -13.215,6.543 -27.0081,14.36 -42.3752,12.922 C 64.3203,127.953 54.7539,110.336 38.168,108.383 27.6367,107.777 17.0273,109.352 7.09375,112.852 27.2969,47.6094 88.25,0 159.984,0 c 76.438,0 140.625,54.0547 156.332,125.887 -0.265,-1.239 -0.566,-2.477 -0.855,-3.711"
         style="fill:#274187;fill-opacity:1;fill-rule:evenodd;stroke:none"
         id="path44" /><path
         d="m 317.105,129.703 c 0.243,1.238 0.473,2.492 0.672,3.731 -0.199,-1.239 -0.429,-2.493 -0.672,-3.731"
         style="fill:url(#radialGradient50);fill-opacity:1;fill-rule:evenodd;stroke:none"
         id="path52" /><path
         d="m 318.379,137.387 c 0.184,1.234 0.355,2.472 0.492,3.73 -0.137,-1.258 -0.308,-2.496 -0.492,-3.73"
         style="fill:url(#radialGradient58);fill-opacity:1;fill-rule:evenodd;stroke:none"
         id="path60" /><path
         d="m 316.316,125.93 c 0.293,1.234 0.536,2.468 0.789,3.703 -0.253,-1.235 -0.496,-2.469 -0.789,-3.703"
         style="fill:url(#radialGradient66);fill-opacity:1;fill-rule:evenodd;stroke:none"
         id="path68" /><path
         d="m 317.797,133.547 c 0.203,1.234 0.406,2.473 0.582,3.703 -0.176,-1.23 -0.379,-2.469 -0.582,-3.703"
         style="fill:url(#radialGradient74);fill-opacity:1;fill-rule:evenodd;stroke:none"
         id="path76" /><path
         d="M 249.359,90.4961 C 235.949,97.082 222.086,104.992 206.609,103.418 190.164,101.527 180.73,84.2969 164.324,82.207 150.078,81.2188 135.699,84.5 122.871,90.8125 109.68,97.3477 95.7969,105.035 80.5156,103.418 64.0742,101.328 54.6367,84.0273 38.1055,82.1367 31.9492,81.7617 25.7461,82.1641 19.6797,83.2617 25.3398,72.9531 32.125,63.3125 39.832,54.5469 c 14.3985,2.6953 23.3438,16.7187 37.3633,20.3594 5.6211,1.4375 11.5274,0.832 17.1211,-0.2032 13.0746,-2.6054 24.0816,-10.5156 36.3516,-15.1406 10.691,-4.1133 22.262,-6 33.723,-5.2148 16.339,2.0898 25.773,19.3007 42.148,21.2109 15.547,1.6172 29.547,-6.4063 42.961,-12.9883 9.523,-4.5625 19.922,-7.5 30.465,-8.2461 8.601,9.75 16.043,20.5586 22.082,32.1719 -3.731,-2.1758 -7.684,-3.8398 -12.156,-4.3594 -13.926,-0.8515 -27.969,2.2969 -40.532,8.3594"
         style="fill:#ffffff;fill-opacity:1;fill-rule:nonzero;stroke:none"
         id="path78" /><path
         d="M 206.68,49.3164 C 190.207,47.4961 180.73,30.1953 164.391,28.1055 152.73,27.2773 140.957,29.2969 130.082,33.5195 118.313,38.0391 107.711,45.543 95.3516,48.2148 87.8008,49.7891 79.668,50.4414 72.5273,47.0508 67.1328,44.6172 62.3711,40.8438 57.5156,37.2734 64.6094,31.3398 72.207,26.0156 80.25,21.3672 85.2852,21.9961 90.4922,21.3867 95.418,20.3555 108.559,17.4102 119.617,9.32422 132.195,4.89844 139.609,2.11328 147.473,0.738281 155.332,0.0664063 156.859,0.0195313 158.438,0 159.984,0 c 1.621,0 3.215,0.0195313 4.836,0.0664063 C 177.867,2.5625 186.547,13.5469 198.094,19.0547 c 7.14,3.4609 15.34,2.918 22.894,1.3672 3.66,-0.8086 7.188,-2.0196 10.602,-3.4375 9.078,4.5625 17.637,9.957 25.637,16.0859 -2.676,0.9883 -5.305,2.0899 -7.868,3.3281 -13.343,6.5352 -27.203,14.4883 -42.679,12.918"
         style="fill:#ffffff;fill-opacity:1;fill-rule:nonzero;stroke:none"
         id="path80" /><path
         d="m 182.883,258.234 c 4.629,-0.406 9.281,-0.406 13.906,-0.117 -4.355,2.203 -9.41,1.418 -13.906,0.117 z m -73.965,25.789 c 10.586,-2.246 22.27,-1.574 31.746,-7.527 3.395,-1.887 4.289,-5.816 6.492,-8.672 2.246,-0.379 3.735,1.571 5.215,2.875 -3.281,7.192 -11.414,10.293 -18.781,11.008 -8.227,0.789 -16.406,2.047 -24.672,2.316 z m -15.5469,0.18 c 12.0899,-5.301 25.7029,-4.965 38.1519,-9.164 4.219,-1.262 8,-3.484 12.043,-5.148 -3.105,6.785 -11.191,8.406 -17.812,9.55 -10.813,1.504 -21.617,3.122 -32.3829,4.762 z m 101.9609,3.012 c -9.754,0.019 -20.133,-0.559 -28.535,-6 -5.617,-3.863 -10.246,-9.008 -14.758,-14.086 8.012,4.582 13.742,12.535 22.524,15.93 11.781,5.007 24.855,2.043 37.05,4.804 -5.433,0.27 -10.851,-0.695 -16.281,-0.648 z m 12.957,-2 c -10.531,-1.645 -21.57,0.18 -31.766,-3.551 -9.867,-3.504 -16.136,-12.582 -25.14,-17.523 0.183,0.832 -0.051,1.64 -0.41,2.379 -3.274,-1.5 -7.16,-1.461 -10.598,-0.559 -2.898,1.414 -5.707,3.051 -8.945,3.617 0.765,-2.519 -0.356,-5.484 -3.465,-4.519 0.051,1.488 -0.172,2.968 -0.039,4.453 -1.305,-0.696 -2.606,-1.371 -3.93,-2 0.918,-0.746 1.758,-1.598 2.359,-2.629 -4.316,-0.406 -8.656,0.043 -12.964,-0.473 5.48,-2.113 12.828,1.844 16.894,-3.484 7.684,-7.254 19.078,-10.516 29.438,-8.649 11.343,2.629 21.828,7.911 32.683,11.977 -6.941,0.672 -13.953,0.559 -20.918,0.605 -2.113,0.18 -3.304,-1.773 -4.648,-3.035 -3.59,-3.726 -8.676,-6.851 -14.067,-6.222 -2.828,0.449 -6.425,2.226 -6.332,5.57 2.872,-1.457 5.485,-4.379 9.028,-3.547 7.125,1.078 11.597,7.367 15.933,12.492 2.106,2.293 3.973,5.434 7.258,6.129 17.051,1.465 33.899,5.688 49.625,12.473 -6.715,-0.856 -13.277,-2.672 -19.996,-3.504 z m -15.57,4 c 16.043,0.066 31.883,2.832 47.722,4.871 0.993,-2.242 -1.711,-2.785 -3.125,-3.656 -18.328,-8.789 -38.257,-14.45 -58.523,-16.223 -3.305,-1.281 -5.102,-4.742 -7.367,-7.281 10.222,-0.246 20.484,-0.27 30.711,-0.719 0,-0.449 0.023,-1.348 0.047,-1.797 -3.168,-0.765 -6.321,-1.551 -9.414,-2.515 2.921,-0.922 6.648,-2.25 6.668,-5.934 -9.364,-0.879 -19.45,2.18 -28.2,-2.313 -5.093,-1.957 -10.398,-3.687 -15.906,-3.933 -10.578,-0.379 -21.137,4 -28.484,11.574 -4.379,1.277 -9.344,-0.562 -13.68,1.117 -1.91,1.035 -4.566,4.004 -2.434,5.981 4.7,1.008 9.957,-0.766 14.274,1.886 3.73,2.157 8.09,0.899 11.996,0.18 -5.531,3.192 -11.906,4.293 -18.063,5.57 -13.886,2.426 -29.0699,4.407 -40.1246,13.957 0.4024,0.536 0.8047,1.075 1.2266,1.614 18.1133,-4.938 36.965,-5.77 55.48,-8.11 7.325,-0.921 14.555,-4.539 18.422,-11.054 4.02,3.816 7.684,8.156 12.578,10.965 7.821,4.789 17.211,5.773 26.196,5.82"
         style="fill:#b79f1c;fill-opacity:1;fill-rule:nonzero;stroke:none"
         id="path82" /><path
         d="m 168.793,257.941 c 3.41,1.278 6.562,3.348 10.203,3.993 -0.719,-2.715 -3.726,-3.297 -5.93,-4.426 -7.597,-3.524 -16.019,-5.613 -24.468,-4.715 -0.067,0.426 -0.219,1.305 -0.317,1.754 6.965,-0.024 14.043,0.605 20.512,3.394"
         style="fill:#b79f1c;fill-opacity:1;fill-rule:nonzero;stroke:none"
         id="path84" /><path
         d="m 168.793,257.941 c -6.469,-2.789 -13.547,-3.418 -20.512,-3.394 0.098,-0.449 0.25,-1.328 0.317,-1.754 8.449,-0.898 16.871,1.191 24.468,4.715 2.204,1.129 5.211,1.711 5.93,4.426 -3.641,-0.645 -6.793,-2.715 -10.203,-3.993 z m 39.496,27.274 c 6.719,0.832 13.281,2.648 19.996,3.504 -15.726,-6.785 -32.574,-11.008 -49.625,-12.473 -3.285,-0.695 -5.152,-3.836 -7.258,-6.129 -4.336,-5.125 -8.808,-11.414 -15.933,-12.492 -3.543,-0.832 -6.156,2.09 -9.028,3.547 -0.093,-3.344 3.504,-5.121 6.332,-5.57 5.391,-0.629 10.477,2.496 14.067,6.222 1.344,1.262 2.535,3.215 4.648,3.035 6.965,-0.046 13.977,0.067 20.918,-0.605 -10.855,-4.066 -21.34,-9.348 -32.683,-11.977 -10.36,-1.867 -21.754,1.395 -29.438,8.649 -4.066,5.328 -11.414,1.371 -16.894,3.484 4.308,0.516 8.648,0.067 12.964,0.473 -0.601,1.031 -1.441,1.883 -2.359,2.629 1.324,0.629 2.625,1.304 3.93,2 -0.133,-1.485 0.09,-2.965 0.039,-4.453 3.109,-0.965 4.23,2 3.465,4.519 3.238,-0.566 6.047,-2.203 8.945,-3.617 3.438,-0.902 7.324,-0.941 10.598,0.559 0.359,-0.739 0.593,-1.547 0.41,-2.379 9.004,4.941 15.273,14.019 25.14,17.523 10.196,3.731 21.235,1.906 31.766,3.551"
         style="fill:#f4d00b;fill-opacity:1;fill-rule:nonzero;stroke:none"
         id="path86" /><path
         d="m 195.332,287.215 c 5.43,-0.047 10.848,0.918 16.281,0.648 -12.195,-2.761 -25.269,0.203 -37.05,-4.804 -8.782,-3.395 -14.512,-11.348 -22.524,-15.93 4.512,5.078 9.141,10.223 14.758,14.086 8.402,5.441 18.781,6.019 28.535,6"
         style="fill:#f4d00b;fill-opacity:1;fill-rule:nonzero;stroke:none"
         id="path88" /><path
         d="m 93.3711,284.203 c 10.7659,-1.64 21.5699,-3.258 32.3829,-4.762 6.621,-1.144 14.707,-2.765 17.812,-9.55 -4.043,1.664 -7.824,3.886 -12.043,5.148 -12.449,4.199 -26.062,3.863 -38.1519,9.164"
         style="fill:#f4d00b;fill-opacity:1;fill-rule:nonzero;stroke:none"
         id="path90" /><path
         d="m 108.918,284.023 c 8.266,-0.269 16.445,-1.527 24.672,-2.316 7.367,-0.715 15.5,-3.816 18.781,-11.008 -1.48,-1.304 -2.969,-3.254 -5.215,-2.875 -2.203,2.856 -3.097,6.785 -6.492,8.672 -9.476,5.953 -21.16,5.281 -31.746,7.527"
         style="fill:#f4d00b;fill-opacity:1;fill-rule:nonzero;stroke:none"
         id="path92" /><path
         d="m 182.883,258.234 c 4.496,1.301 9.551,2.086 13.906,-0.117 -4.625,-0.289 -9.277,-0.289 -13.906,0.117"
         style="fill:#f4d00b;fill-opacity:1;fill-rule:nonzero;stroke:none"
         id="path94" /><path
         d="m 289.176,136.176 c -10.871,-0.473 -21.86,1.301 -32.082,5.144 -15.727,5.996 -30.239,17.164 -47.879,16.375 -18.086,-0.132 -28.043,-19.769 -45.61,-21.457 -12.894,-0.648 -25.976,1.957 -37.66,7.235 -10.558,4.629 -20.441,11.082 -31.8981,13.238 -6.1094,1.125 -12.6289,1.703 -18.6055,-0.387 -13.3906,-4.441 -22.2422,-17.945 -36.6914,-20.015 -12.9102,-1.012 -25.9492,1.664 -37.875,6.789 1.09375,-10.407 3.21094,-20.516 6.21875,-30.246 9.93355,-3.5 20.54295,-5.075 31.07425,-4.469 16.5859,1.953 26.1523,19.57 42.8008,21.32 15.3671,1.438 29.1602,-6.379 42.3752,-12.922 12.672,-6.129 26.918,-9.32 41.047,-8.355 16.339,2.156 25.773,19.324 42.148,21.207 15.367,1.644 29.231,-6.199 42.418,-12.715 12.898,-6.266 27.348,-9.527 41.656,-8.422 9.774,1.434 17.008,8.133 24.848,13.68 2.426,9.91 3.91,20.203 4.387,30.738 -10.028,-6 -18.516,-15.664 -30.672,-16.738"
         style="fill:#ffffff;fill-opacity:1;fill-rule:nonzero;stroke:none"
         id="path96" /></g></g></svg>
