<?xml version="1.0" encoding="UTF-8" standalone="no"?>
<svg
   xmlns:dc="http://purl.org/dc/elements/1.1/"
   xmlns:cc="http://creativecommons.org/ns#"
   xmlns:rdf="http://www.w3.org/1999/02/22-rdf-syntax-ns#"
   xmlns:svg="http://www.w3.org/2000/svg"
   xmlns="http://www.w3.org/2000/svg"
   version="1.1"
   id="svg2"
   xml:space="preserve"
   width="42.666668"
   height="42.666668"
   viewBox="0 0 42.666668 42.666668"><metadata
     id="metadata8"><rdf:RDF><cc:Work
         rdf:about=""><dc:format>image/svg+xml</dc:format><dc:type
           rdf:resource="http://purl.org/dc/dcmitype/StillImage" /></cc:Work></rdf:RDF></metadata><defs
     id="defs6" /><g
     id="g10"
     transform="matrix(1.3333333,0,0,-1.3333333,0,42.666667)"><g
       id="g12"
       transform="scale(0.1)"><path
         d="M 26.918,248.82 C 9.92188,223.406 0,192.867 0,160 v -0.004 -0.004 C 0,127.125 9.92188,96.5859 26.918,71.1719 L 160.289,159.996 26.918,248.82"
         style="fill:#3b9139;fill-opacity:1;fill-rule:nonzero;stroke:none"
         id="path14" /><path
         d="M 160.281,160 H 320 c 0,29.137 -7.797,56.469 -21.414,79.996 H 40.1641 L 160.281,160"
         style="fill:#ffffff;fill-opacity:1;fill-rule:evenodd;stroke:none"
         id="path16" /><path
         d="m 160.281,160 0.008,-0.004 L 40.1719,80 H 298.586 C 312.203,103.543 320,130.855 320,160 H 160.281"
         style="fill:#d01e27;fill-opacity:1;fill-rule:evenodd;stroke:none"
         id="path18" /><path
         d="M 40.1719,80 26.918,71.1719 C 55.5977,28.2773 104.453,0.0390625 159.906,-0.00390625 h 0.188 C 219.266,0.0429688 270.934,32.1914 298.586,80 H 40.1719"
         style="fill:#486fbf;fill-opacity:1;fill-rule:evenodd;stroke:none"
         id="path20" /><path
         d="m 160.094,320.004 h -0.188 C 104.453,319.969 55.5977,291.711 26.9141,248.82 h 0.0039 l 13.2461,-8.824 H 298.586 c -27.652,47.797 -79.32,79.973 -138.492,80.008"
         style="fill:#fbc213;fill-opacity:1;fill-rule:evenodd;stroke:none"
         id="path22" /><path
         d="m 45.2773,159.996 c 0,15.766 11.0118,28.957 25.7657,32.305 -2.3672,0.539 -4.8321,0.82 -7.3633,0.82 -18.2969,0 -33.1289,-14.832 -33.1289,-33.125 0,-18.297 14.832,-33.129 33.1289,-33.129 2.5312,0 4.9961,0.285 7.3633,0.824 -14.7539,3.348 -25.7657,16.539 -25.7657,32.305"
         style="fill:#ffffff;fill-opacity:1;fill-rule:nonzero;stroke:none"
         id="path24" /><path
         d="m 73.2773,182.988 3.5977,2.606 h -4.4453 l -1.3828,4.242 -1.3867,-4.242 H 65.207 l 3.6016,-2.61 -1.3828,-4.234 3.6172,2.617 3.6172,-2.617 -1.3829,4.238"
         style="fill:#ffffff;fill-opacity:1;fill-rule:nonzero;stroke:none"
         id="path26" /><path
         d="m 73.2773,167.18 3.5977,2.609 h -4.4453 l -1.3828,4.238 -1.3867,-4.238 H 65.207 l 3.6016,-2.609 -1.3828,-4.239 3.6172,2.622 3.6172,-2.622 -1.3829,4.239"
         style="fill:#ffffff;fill-opacity:1;fill-rule:nonzero;stroke:none"
         id="path28" /><path
         d="m 73.2773,151.375 3.5977,2.605 h -4.4453 l -1.3828,4.243 -1.3867,-4.243 H 65.207 l 3.6016,-2.609 -1.3828,-4.234 3.6172,2.617 3.6172,-2.617 -1.3829,4.238"
         style="fill:#ffffff;fill-opacity:1;fill-rule:nonzero;stroke:none"
         id="path30" /><path
         d="m 73.2773,135.566 3.5977,2.606 h -4.4453 l -1.3828,4.242 -1.3867,-4.242 H 65.207 l 3.6016,-2.609 -1.3828,-4.235 3.6172,2.617 3.6172,-2.617 -1.3829,4.238"
         style="fill:#ffffff;fill-opacity:1;fill-rule:nonzero;stroke:none"
         id="path32" /></g></g></svg>
