<?xml version="1.0" encoding="UTF-8" standalone="no"?>
<svg
   xmlns:dc="http://purl.org/dc/elements/1.1/"
   xmlns:cc="http://creativecommons.org/ns#"
   xmlns:rdf="http://www.w3.org/1999/02/22-rdf-syntax-ns#"
   xmlns:svg="http://www.w3.org/2000/svg"
   xmlns="http://www.w3.org/2000/svg"
   version="1.1"
   id="svg2"
   xml:space="preserve"
   width="42.666668"
   height="42.666668"
   viewBox="0 0 42.666668 42.666668"><metadata
     id="metadata8"><rdf:RDF><cc:Work
         rdf:about=""><dc:format>image/svg+xml</dc:format><dc:type
           rdf:resource="http://purl.org/dc/dcmitype/StillImage" /></cc:Work></rdf:RDF></metadata><defs
     id="defs6" /><g
     id="g10"
     transform="matrix(1.3333333,0,0,-1.3333333,0,42.666667)"><g
       id="g12"
       transform="scale(0.1)"><path
         d="M 28.1797,69.2695 250.73,291.82 c -4.183,2.887 -8.468,5.547 -12.851,7.989 L 20.1914,82.1211 c 2.4414,-4.3828 5.1016,-8.668 7.9883,-12.8516"
         style="fill:#f7cf0d;fill-opacity:1;fill-rule:evenodd;stroke:none"
         id="path14" /><path
         d="M 237.867,299.797 C 176.953,333.758 98.5977,324.918 46.8398,273.16 -4.91797,221.402 -13.7578,143.047 20.2031,82.1328 L 237.867,299.797"
         style="fill:#2ca241;fill-opacity:1;fill-rule:evenodd;stroke:none"
         id="path16" /><path
         d="M 82.1445,20.1641 299.836,237.855 c -2.441,4.383 -5.106,8.668 -7.992,12.852 L 69.293,28.1563 c 4.1836,-2.8868 8.4687,-5.5508 12.8515,-7.9922"
         style="fill:#f7cf0d;fill-opacity:1;fill-rule:evenodd;stroke:none"
         id="path18" /><path
         d="M 299.781,237.805 82.1953,20.2188 C 143.102,-13.7461 221.434,-4.94141 273.188,46.8125 324.941,98.5664 333.746,176.898 299.781,237.805"
         style="fill:#d01e27;fill-opacity:1;fill-rule:evenodd;stroke:none"
         id="path20" /><path
         d="m 291.824,250.691 c -5.441,7.899 -11.613,15.442 -18.636,22.469 -7.028,7.024 -14.563,13.215 -22.458,18.66 L 28.1797,69.2695 C 33.625,61.375 39.8164,53.8398 46.8398,46.8125 53.8672,39.7891 61.4102,33.6133 69.3086,28.1719 L 291.824,250.691"
         style="fill:#131210;fill-opacity:1;fill-rule:evenodd;stroke:none"
         id="path22" /><path
         d="m 111.277,120.023 c -2.675,5.317 -5.386,10.59 -8.078,15.864 5.281,-2.676 10.551,-5.422 15.903,-8.047 4.152,4.148 8.281,8.39 12.523,12.473 -0.937,-5.782 -1.824,-11.594 -2.781,-17.387 5.172,-2.883 10.519,-5.336 15.734,-8.156 -5.82,-1.047 -11.664,-1.84 -17.426,-2.836 -1.019,-5.793 -1.785,-11.614 -2.832,-17.4067 -2.824,5.2071 -5.269,10.5507 -8.152,15.7187 -5.801,-0.961 -11.609,-1.848 -17.375,-2.785 4.074,4.25 8.332,8.344 12.484,12.562"
         style="fill:#ffffff;fill-opacity:1;fill-rule:nonzero;stroke:none"
         id="path24" /><path
         d="m 196.434,205.168 c -2.661,5.324 -5.399,10.598 -8.071,15.875 5.266,-2.668 10.539,-5.402 15.895,-8.063 4.156,4.153 8.281,8.395 12.515,12.477 -0.937,-5.773 -1.816,-11.586 -2.773,-17.367 5.164,-2.895 10.508,-5.324 15.734,-8.16 -5.812,-1.035 -11.664,-1.844 -17.429,-2.84 -1.016,-5.785 -1.785,-11.606 -2.828,-17.43 -2.832,5.227 -5.278,10.582 -8.157,15.746 -5.777,-0.957 -11.605,-1.836 -17.382,-2.781 4.078,4.23 8.335,8.332 12.496,12.543"
         style="fill:#ffffff;fill-opacity:1;fill-rule:nonzero;stroke:none"
         id="path26" /></g></g></svg>
