<?xml version="1.0" encoding="UTF-8" standalone="no"?>
<svg
   xmlns:dc="http://purl.org/dc/elements/1.1/"
   xmlns:cc="http://creativecommons.org/ns#"
   xmlns:rdf="http://www.w3.org/1999/02/22-rdf-syntax-ns#"
   xmlns:svg="http://www.w3.org/2000/svg"
   xmlns="http://www.w3.org/2000/svg"
   version="1.1"
   id="svg2"
   xml:space="preserve"
   width="42.666668"
   height="42.666668"
   viewBox="0 0 42.666668 42.666668"><metadata
     id="metadata8"><rdf:RDF><cc:Work
         rdf:about=""><dc:format>image/svg+xml</dc:format><dc:type
           rdf:resource="http://purl.org/dc/dcmitype/StillImage" /></cc:Work></rdf:RDF></metadata><defs
     id="defs6" /><g
     id="g10"
     transform="matrix(1.3333333,0,0,-1.3333333,0,42.666667)"><g
       id="g12"
       transform="scale(0.1)"><path
         d="M 30.2188,253.344 C 11.2383,227.039 0,194.809 0,160.023 0,125.219 11.2383,92.9727 30.2227,66.6602 H 289.773 C 308.758,92.9727 320,125.219 320,160.023 c 0,34.786 -11.238,67.016 -30.227,93.321 H 30.2188"
         style="fill:#ec1c29;fill-opacity:1;fill-rule:evenodd;stroke:none"
         id="path14" /><path
         d="M 278.797,267.18 C 249.504,299.602 207.125,320 159.988,320 112.875,320 70.5039,299.602 41.2266,267.18 H 278.797"
         style="fill:#264da4;fill-opacity:1;fill-rule:nonzero;stroke:none"
         id="path16" /><path
         d="M 41.2266,52.8203 C 70.5039,20.375 112.875,-0.00390625 159.988,-0.00390625 c 47.137,0 89.516,20.37890625 118.809,52.82420625 H 41.2266"
         style="fill:#264da4;fill-opacity:1;fill-rule:nonzero;stroke:none"
         id="path18" /><path
         d="m 30.082,66.6602 c 3.461,-4.836 7.1641,-9.4375 11.1446,-13.8399 H 278.797 c 3.957,4.4024 7.683,9.0039 11.144,13.8399 H 30.082"
         style="fill:#ffffff;fill-opacity:1;fill-rule:nonzero;stroke:none"
         id="path20" /><path
         d="m 289.941,253.344 c -3.461,4.804 -7.187,9.433 -11.144,13.836 H 41.2266 C 37.2461,262.777 33.543,258.148 30.082,253.344 h 259.859"
         style="fill:#ffffff;fill-opacity:1;fill-rule:nonzero;stroke:none"
         id="path22" /><path
         d="m 112.766,153.629 c 3.949,-12.266 7.996,-24.625 11.996,-36.895 -10.739,7.282 -20.961,15.575 -31.7464,22.559 -10.4726,-7.477 -20.8242,-15.207 -31.3008,-22.691 4,12.402 8.1094,24.691 11.9766,37.097 -10.4883,7.656 -21.0742,15.207 -31.4805,22.938 12.9414,-0.199 25.9297,0 38.8282,-0.067 4.2461,12.285 8.1757,24.688 12.1757,37.094 4.0899,-12.293 7.9572,-24.695 12.0862,-37.027 12.969,-0.067 25.933,-0.137 38.914,0 -10.379,-7.864 -21.027,-15.282 -31.449,-23.008 z m 27.945,34.914 c -10.535,17.953 -31.856,28.801 -52.6212,26.621 -18.7812,-1.57 -36.1718,-13.547 -44.4335,-30.414 -7.125,-14.047 -7.7344,-31.191 -1.711,-45.699 7.2383,-18.133 24.6914,-31.656 44.082,-33.973 19.9497,-2.875 41.0277,6.36 52.4847,23.008 12.629,17.387 13.48,42.191 2.199,60.457"
         style="fill:#ffffff;fill-opacity:1;fill-rule:nonzero;stroke:none"
         id="path24" /><path
         d="m 105.301,176.637 c -4.129,12.332 -7.9963,24.734 -12.0862,37.027 -4,-12.406 -7.9296,-24.809 -12.1757,-37.094 -12.8985,0.067 -25.8868,-0.132 -38.8282,0.067 10.4063,-7.727 20.9922,-15.282 31.4805,-22.938 -3.8672,-12.406 -7.9766,-24.695 -11.9766,-37.097 10.4727,7.484 20.8282,15.214 31.3008,22.691 10.7854,-6.984 21.0074,-15.277 31.7464,-22.559 -4,12.27 -8.047,24.629 -11.996,36.895 10.422,7.726 21.07,15.144 31.449,23.008 -12.981,-0.137 -25.945,-0.067 -38.914,0"
         style="fill:#ea1d2d;fill-opacity:1;fill-rule:evenodd;stroke:none"
         id="path26" /></g></g></svg>
