<?xml version="1.0" encoding="UTF-8" standalone="no"?>
<svg
   xmlns:dc="http://purl.org/dc/elements/1.1/"
   xmlns:cc="http://creativecommons.org/ns#"
   xmlns:rdf="http://www.w3.org/1999/02/22-rdf-syntax-ns#"
   xmlns:svg="http://www.w3.org/2000/svg"
   xmlns="http://www.w3.org/2000/svg"
   version="1.1"
   id="svg2"
   xml:space="preserve"
   width="42.666668"
   height="42.666668"
   viewBox="0 0 42.666668 42.666668"><metadata
     id="metadata8"><rdf:RDF><cc:Work
         rdf:about=""><dc:format>image/svg+xml</dc:format><dc:type
           rdf:resource="http://purl.org/dc/dcmitype/StillImage" /></cc:Work></rdf:RDF></metadata><defs
     id="defs6" /><g
     id="g10"
     transform="matrix(1.3333333,0,0,-1.3333333,0,42.666667)"><g
       id="g12"
       transform="scale(0.1)"><path
         d="M 320,159.844 C 320,71.4766 248.367,-0.15625 160,-0.15625 71.6328,-0.15625 0,71.4766 0,159.844 c 0,88.367 71.6328,160 160,160 88.367,0 160,-71.633 160,-160"
         style="fill:#ffffff;fill-opacity:1;fill-rule:nonzero;stroke:none"
         id="path14" /><path
         d="m 79.6836,244.957 c 2.457,-1.609 4.8555,-3.277 7.3242,-4.894 -9.7344,-14.586 -19.4883,-29.176 -29.2187,-43.75 -2.4258,1.613 -4.8633,3.23 -7.2735,4.843 9.6992,14.621 19.4532,29.168 29.168,43.801"
         style="fill:#100f0d;fill-opacity:1;fill-rule:nonzero;stroke:none"
         id="path16" /><path
         d="m 232.996,240.063 c 2.445,1.617 4.879,3.285 7.305,4.894 4.457,-6.73 8.91,-13.414 13.387,-20.055 -2.446,-1.621 -4.856,-3.277 -7.301,-4.898 -4.461,6.687 -8.942,13.375 -13.391,20.059"
         style="fill:#100f0d;fill-opacity:1;fill-rule:nonzero;stroke:none"
         id="path18" /><path
         d="m 90.6211,237.641 c 2.4414,-1.614 4.9102,-3.231 7.2891,-4.84 -9.6875,-14.641 -19.4336,-29.176 -29.1875,-43.805 -2.4063,1.621 -4.875,3.238 -7.2774,4.902 9.711,14.571 19.4531,29.114 29.1758,43.743"
         style="fill:#100f0d;fill-opacity:1;fill-rule:nonzero;stroke:none"
         id="path20" /><path
         d="m 222.059,232.801 c 2.398,1.609 4.855,3.226 7.3,4.84 9.731,-14.629 19.473,-29.172 29.168,-43.743 -2.386,-1.664 -4.839,-3.281 -7.285,-4.902 -9.734,14.629 -19.465,29.164 -29.183,43.805"
         style="fill:#100f0d;fill-opacity:1;fill-rule:nonzero;stroke:none"
         id="path22" /><path
         d="m 72.375,186.574 c 9.7656,14.582 19.4805,29.203 29.219,43.75 2.465,-1.617 4.851,-3.234 7.304,-4.847 -9.7652,-14.59 -19.4683,-29.164 -29.2144,-43.75 -2.4297,1.621 -4.8398,3.277 -7.3086,4.847"
         style="fill:#100f0d;fill-opacity:1;fill-rule:nonzero;stroke:none"
         id="path24" /><path
         d="m 211.09,225.477 c 2.445,1.613 4.84,3.23 7.293,4.847 4.457,-6.64 8.93,-13.375 13.394,-20.066 -2.418,-1.606 -4.863,-3.227 -7.273,-4.84 -4.512,6.684 -8.953,13.367 -13.414,20.059"
         style="fill:#100f0d;fill-opacity:1;fill-rule:nonzero;stroke:none"
         id="path26" /><path
         d="m 248.832,216.367 c 2.41,1.617 4.856,3.231 7.309,4.848 4.41,-6.695 8.925,-13.328 13.332,-20.059 -2.418,-1.613 -4.852,-3.23 -7.262,-4.843 -4.465,6.691 -8.938,13.371 -13.379,20.054"
         style="fill:#100f0d;fill-opacity:1;fill-rule:nonzero;stroke:none"
         id="path28" /><path
         d="m 144.73,210.184 c 13.286,4.027 28.196,2.589 40.368,-4.133 11.269,-6.055 20.183,-16.422 24.453,-28.488 5.453,-14.875 3.578,-32.145 -4.856,-45.571 4.535,7.86 4.731,18.051 0.223,25.949 -4.109,7.622 -12.191,12.883 -20.855,13.508 -9.258,0.852 -18.821,-3.683 -23.993,-11.484 -4.664,-7.102 -12.886,-11.715 -21.402,-11.809 -8.398,-0.269 -16.789,3.848 -21.746,10.688 -6.047,7.894 -6.805,19.301 -2.055,28.09 6.586,11.086 17.5,19.562 29.863,23.25"
         style="fill:#c71b31;fill-opacity:1;fill-rule:nonzero;stroke:none"
         id="path30" /><path
         d="m 226.914,201.789 c 2.445,1.621 4.863,3.219 7.309,4.84 4.476,-6.688 8.918,-13.367 13.382,-20.055 -2.445,-1.57 -4.855,-3.176 -7.304,-4.847 -4.457,6.683 -8.926,13.378 -13.387,20.062"
         style="fill:#100f0d;fill-opacity:1;fill-rule:nonzero;stroke:none"
         id="path32" /><path
         d="m 109.762,144.117 c -4.489,14.086 -2.641,30.117 5.105,42.817 -4.75,-8.789 -3.992,-20.196 2.055,-28.09 4.957,-6.84 13.348,-10.957 21.746,-10.688 8.516,0.094 16.738,4.707 21.402,11.809 5.172,7.801 14.735,12.336 23.993,11.484 8.664,-0.625 16.746,-5.886 20.855,-13.508 4.508,-7.898 4.312,-18.089 -0.223,-25.949 -6.55,-10.41 -16.742,-18.445 -28.476,-22.172 -13.34,-4.351 -28.438,-3.097 -40.821,3.504 -12.179,6.371 -21.597,17.692 -25.636,30.793"
         style="fill:#263975;fill-opacity:1;fill-rule:nonzero;stroke:none"
         id="path34" /><path
         d="m 72.375,133.078 c 2.4297,1.652 4.8789,3.27 7.3086,4.891 9.7461,-14.594 19.4492,-29.223 29.2144,-43.762 -2.453,-1.6289 -4.839,-3.2382 -7.304,-4.8476 -9.7385,14.5386 -19.4534,29.1756 -29.219,43.7186"
         style="fill:#100f0d;fill-opacity:1;fill-rule:nonzero;stroke:none"
         id="path36" /><path
         d="m 240.301,137.969 c 2.449,-1.621 4.902,-3.239 7.304,-4.891 -4.492,-6.644 -8.906,-13.383 -13.382,-20.066 -2.446,1.621 -4.864,3.234 -7.309,4.883 4.461,6.695 8.93,13.382 13.387,20.074"
         style="fill:#100f0d;fill-opacity:1;fill-rule:nonzero;stroke:none"
         id="path38" /><path
         d="m 61.4453,125.805 c 2.4024,1.617 4.8711,3.234 7.2774,4.894 4.5,-6.695 8.9375,-13.422 13.4179,-20.062 -2.457,-1.617 -4.8867,-3.285 -7.2968,-4.86 -4.4883,6.649 -8.9258,13.332 -13.3985,20.028"
         style="fill:#100f0d;fill-opacity:1;fill-rule:nonzero;stroke:none"
         id="path40" /><path
         d="m 237.875,110.637 c 4.43,6.64 8.891,13.367 13.367,20.062 2.446,-1.66 4.899,-3.277 7.285,-4.894 -4.437,-6.696 -8.906,-13.379 -13.367,-20.028 -2.41,1.575 -4.859,3.243 -7.285,4.86"
         style="fill:#100f0d;fill-opacity:1;fill-rule:nonzero;stroke:none"
         id="path42" /><path
         d="m 248.832,103.32 c 4.441,6.684 8.914,13.379 13.379,20.055 2.41,-1.609 4.844,-3.23 7.262,-4.84 -4.407,-6.734 -8.922,-13.418 -13.332,-20.0623 -2.453,1.5703 -4.899,3.2303 -7.309,4.8473"
         style="fill:#100f0d;fill-opacity:1;fill-rule:nonzero;stroke:none"
         id="path44" /><path
         d="m 50.5156,118.535 c 2.4102,1.61 4.8477,3.231 7.2735,4.84 9.7304,-14.629 19.4843,-29.168 29.2187,-43.8008 -2.4687,-1.6211 -4.8672,-3.2344 -7.3242,-4.8437 -9.7148,14.6289 -19.4688,29.1675 -29.168,43.8045"
         style="fill:#100f0d;fill-opacity:1;fill-rule:nonzero;stroke:none"
         id="path46" /><path
         d="m 224.457,114.27 c 2.457,-1.614 4.902,-3.235 7.32,-4.891 -4.464,-6.645 -8.937,-13.379 -13.394,-20.0196 -2.453,1.6094 -4.848,3.2187 -7.293,4.8476 4.461,6.688 8.902,13.375 13.367,20.063"
         style="fill:#100f0d;fill-opacity:1;fill-rule:nonzero;stroke:none"
         id="path48" /><path
         d="m 77.2539,102.098 c 2.4297,1.625 4.8867,3.238 7.2852,4.851 4.4609,-6.683 8.9297,-13.324 13.3711,-20.0584 -2.3789,-1.625 -4.8477,-3.2304 -7.2891,-4.8476 -4.4766,6.6836 -8.918,13.375 -13.3672,20.055"
         style="fill:#100f0d;fill-opacity:1;fill-rule:nonzero;stroke:none"
         id="path50" /><path
         d="m 222.059,86.8906 c 4.468,6.7344 8.906,13.3754 13.382,20.0584 2.434,-1.613 4.86,-3.226 7.309,-4.851 -4.469,-6.68 -8.93,-13.3714 -13.391,-20.055 -2.445,1.6172 -4.902,3.2226 -7.3,4.8476"
         style="fill:#100f0d;fill-opacity:1;fill-rule:nonzero;stroke:none"
         id="path52" /><path
         d="m 232.996,79.5742 c 4.449,6.7266 8.93,13.418 13.391,20.1016 2.445,-1.6055 4.855,-3.2735 7.301,-4.8906 -4.477,-6.6836 -8.93,-13.3321 -13.387,-20.0547 -2.426,1.6093 -4.86,3.2226 -7.305,4.8437"
         style="fill:#100f0d;fill-opacity:1;fill-rule:nonzero;stroke:none"
         id="path54" /></g></g></svg>
