<?xml version="1.0" encoding="UTF-8" standalone="no"?>
<svg
   xmlns:dc="http://purl.org/dc/elements/1.1/"
   xmlns:cc="http://creativecommons.org/ns#"
   xmlns:rdf="http://www.w3.org/1999/02/22-rdf-syntax-ns#"
   xmlns:svg="http://www.w3.org/2000/svg"
   xmlns="http://www.w3.org/2000/svg"
   version="1.1"
   id="svg2"
   xml:space="preserve"
   width="42.666668"
   height="42.666668"
   viewBox="0 0 42.666668 42.666668"><metadata
     id="metadata8"><rdf:RDF><cc:Work
         rdf:about=""><dc:format>image/svg+xml</dc:format><dc:type
           rdf:resource="http://purl.org/dc/dcmitype/StillImage" /></cc:Work></rdf:RDF></metadata><defs
     id="defs6" /><g
     id="g10"
     transform="matrix(1.3333333,0,0,-1.3333333,0,42.666667)"><g
       id="g12"
       transform="scale(0.1)"><path
         d="m 50.1172,276.137 c -8.5547,-8.121 -16.332,-17.403 -22.957,-27.254 -0.0235,0.062 0,0.027 0,0 C 10.0625,223.449 0.0429688,192.879 0,160.043 v 0 C 0.0429688,127.195 10.0625,96.6289 27.1602,71.1914 h 0.0195 C 33.7852,61.3516 41.5625,52.0703 50.1367,43.957 l 77.8513,61.731 v -0.79 55.137 0 54.356 l -77.8708,61.746"
         style="fill:#100f0d;fill-opacity:1;fill-rule:nonzero;stroke:none"
         id="path14" /><path
         d="M 127.988,105.688 50.1563,43.9727 C 78.8203,16.7617 117.477,0 160.098,0 c 69.273,0 128.257,44.0469 150.5,105.688 h -182.61"
         style="fill:#d01e27;fill-opacity:1;fill-rule:nonzero;stroke:none"
         id="path16" /><path
         d="M 310.52,214.391 H 127.988 V 105.688 H 310.52 c 6.152,16.964 9.48,35.273 9.48,54.347 0,19.094 -3.328,37.391 -9.48,54.356"
         style="fill:#ffffff;fill-opacity:1;fill-rule:evenodd;stroke:none"
         id="path18" /><path
         d="m 127.988,214.391 v -0.067 h 182.61 C 288.355,275.941 229.371,320 160.098,320 117.5,320 78.8242,303.285 50.1523,276.105 l 77.8357,-61.714"
         style="fill:#237a39;fill-opacity:1;fill-rule:evenodd;stroke:none"
         id="path20" /></g></g></svg>
