<?xml version="1.0" encoding="UTF-8" standalone="no"?>
<svg
   xmlns:dc="http://purl.org/dc/elements/1.1/"
   xmlns:cc="http://creativecommons.org/ns#"
   xmlns:rdf="http://www.w3.org/1999/02/22-rdf-syntax-ns#"
   xmlns:svg="http://www.w3.org/2000/svg"
   xmlns="http://www.w3.org/2000/svg"
   version="1.1"
   id="svg2"
   xml:space="preserve"
   width="42.666668"
   height="42.666668"
   viewBox="0 0 42.666668 42.666668"><metadata
     id="metadata8"><rdf:RDF><cc:Work
         rdf:about=""><dc:format>image/svg+xml</dc:format><dc:type
           rdf:resource="http://purl.org/dc/dcmitype/StillImage" /></cc:Work></rdf:RDF></metadata><defs
     id="defs6" /><g
     id="g10"
     transform="matrix(1.3333333,0,0,-1.3333333,0,42.666667)"><g
       id="g12"
       transform="scale(0.1)"><path
         d="M 160.008,-0.0234375 C 248.105,-0.0234375 320,71.8789 320,160.004 320,248.172 248.105,320.023 160.008,320.023 71.8789,320.023 0,248.172 0,160.004 0,71.8789 71.8789,-0.0234375 160.008,-0.0234375"
         style="fill:#44b4cc;fill-opacity:1;fill-rule:evenodd;stroke:none"
         id="path14" /><path
         d="m 35.6992,95.7656 c -1.1484,2.5196 -2.5781,5.8044 -0.7187,8.3204 2.1484,3.055 8.3008,2.098 8.3008,-1.973 0.1523,-1.972 -2.0704,-1.972 -3.4297,-1.617 -0.1563,1.074 -0.2852,2.152 -0.5078,3.238 -1.1446,-1.738 -2.2149,-3.664 -4.1485,-4.6832 l 2.1445,-1.5469 c 0.4336,-1.2617 1.1524,-2.332 2.004,-3.2344 -0.6446,4.0157 3.8007,3.2344 6.2968,4.1914 0,-2.7539 0.5117,-5.625 -0.0703,-8.4375 -1.5,-1.0859 -3.375,-0.4765 -5.0039,-0.5429 0.9375,-2.2149 2.8672,-3.4649 5.1563,-3.711 -1.8008,-2.875 -0.0821,-5.9843 2.0664,-8.0234 2.2265,1.9805 4.1601,5.5664 1.7187,8.2109 2.5195,-0.1875 4.5781,1.1953 5.5,3.5235 -1.6406,0.1211 -3.5742,-0.6016 -4.9258,0.664 -0.6523,2.6914 -0.0664,5.5625 -0.2187,8.3164 1.9219,-0.539 3.9336,-0.957 5.8672,-1.2617 0.1484,-0.957 0.3593,-1.8437 0.5,-2.8711 1.3593,1.4375 2.0703,3.3516 3.5781,4.668 l 1.0664,-1.375 C 56.293,88.7031 52.2266,79.5469 47.9297,70.4414 43.5078,78.7031 39.8516,87.3867 35.6992,95.7656 Z M 34.918,120.727 c 4.2187,9.16 8.5156,18.32 12.8711,27.421 4.4375,-9.101 8.5039,-18.316 13.0859,-27.351 l -1.0664,-1.262 c -1.5078,1.262 -2.2188,3.106 -3.5781,4.539 -0.1407,-0.945 -0.3516,-1.902 -0.5,-2.871 -2.0117,-0.242 -3.9453,-0.594 -5.8672,-1.254 0.1523,2.809 -0.4336,5.629 0.2187,8.387 1.2735,1.258 3.3555,0.477 4.9258,0.648 -0.9219,2.278 -2.9805,3.715 -5.5,3.539 2.3672,2.637 0.5078,6.161 -1.7187,8.133 -2.2188,-1.972 -4.0821,-5.383 -1.7813,-8.133 -2.4375,0.059 -4.5039,-1.261 -5.4414,-3.476 1.6289,-0.176 3.5039,0.43 5.0039,-0.656 0.582,-2.696 0.0703,-5.571 0.0703,-8.442 -2.4961,1.078 -6.9414,0.18 -6.2109,4.305 -0.9375,-1.008 -1.7305,-2.082 -2.0899,-3.41 l -2.1445,-1.192 c 1.7969,-1.379 3.0039,-3.226 4.3711,-4.855 -0.0625,1.144 -0.1367,2.289 -0.3047,3.418 1.1641,0 2.3633,0 3.5274,0.058 2.0625,-3.535 -2.3633,-7.058 -5.7383,-5.378 -3.293,1.015 -3.5781,5.203 -2.1328,7.832 z m 7.9492,39.277 c 1.918,0.648 3.5664,1.785 4.9219,3.23 1.3632,-1.445 3,-2.582 4.8632,-3.23 -1.8632,-0.664 -3.5,-1.809 -4.8632,-3.242 -1.3555,1.433 -3.0039,2.578 -4.9219,3.242 z m -6.7461,36.445 c -1.2031,2.699 -3,5.934 -1.4336,8.805 1.9492,3.48 8.5117,2.75 8.5938,-1.559 0.1523,-1.972 -2.0704,-2.035 -3.4297,-1.621 -0.1563,1.078 -0.2852,2.156 -0.4219,3.239 -1.2305,-1.739 -2.2266,-3.653 -4.1563,-4.676 l 2.0664,-1.563 c 0.4336,-1.308 1.1524,-2.265 2.0899,-3.277 -0.7305,4.066 3.7148,3.23 6.2109,4.246 0,-2.813 0.5117,-5.625 -0.0703,-8.449 -1.5,-1.008 -3.375,-0.473 -5.0039,-0.531 0.9375,-2.282 3.0039,-3.657 5.4414,-3.598 -2.3008,-2.688 -0.4375,-6.164 1.7813,-8.137 2.2265,1.973 4.0859,5.567 1.7187,8.199 2.5195,-0.179 4.5781,1.254 5.5,3.536 -1.6406,0.175 -4.3633,-0.836 -5.1445,1.136 -0.2149,2.645 0.0781,5.27 0,7.844 1.9219,-0.605 3.8555,-0.969 5.8672,-1.254 0.1484,-0.969 0.3593,-1.851 0.5,-2.879 1.3593,1.442 2.0703,3.293 3.5781,4.668 l 1.0664,-1.375 c -4.5078,-8.91 -8.6484,-18.07 -12.9453,-27.168 -4.293,7.957 -7.7149,16.285 -11.8086,24.414 z m 0.4414,18.203 c -3.1562,1.438 -2.8555,5.625 -1.4453,8.2 4.3125,8.859 8.1641,18.011 12.8125,26.746 4.2969,-9.09 8.3633,-18.25 12.9453,-27.227 l -1.1289,-1.312 c -1.4453,1.312 -2.1563,3.168 -3.5156,4.597 -0.1407,-0.957 -0.3516,-1.902 -0.5,-2.804 -1.9336,-0.301 -3.9453,-0.719 -5.8672,-1.321 0.1523,2.813 -0.3555,5.625 0.2187,8.383 1.3516,1.25 3.3555,0.481 4.9258,0.656 -0.9219,2.274 -2.9805,3.719 -5.5,3.481 2.3672,2.633 0.5742,6.215 -1.7187,8.258 -2.1485,-2.102 -3.7852,-5.157 -2.1485,-8.02 -2.2812,-0.312 -4.1367,-1.566 -5.0742,-3.719 1.6289,-0.117 3.5039,0.477 5.0039,-0.605 0.582,-2.809 0.0703,-5.621 0.0703,-8.434 -2.4961,1.02 -6.9414,0.239 -6.2109,4.301 -0.9375,-1.004 -1.6563,-2.078 -2.0899,-3.281 l -2.1445,-1.555 c 1.9336,-1.023 3.0039,-2.988 4.2344,-4.668 0.1367,1.074 0.2656,2.152 0.4219,3.235 1.1406,0.117 3.0156,0.597 3.3476,-1.024 0.8047,-3.535 -3.9375,-5.566 -6.6367,-3.887 z m 22.2461,-0.058 c -3.2227,-1.86 -7.7891,1.191 -6.293,5.027 2.3633,0.774 4.0039,-0.723 3.7774,-3.176 1.3711,1.922 2.5156,4.668 5.3828,4.551 0,-2.394 -0.2149,-5.449 -2.8672,-6.402 z m -10.9492,-9.102 c -1.5742,2.696 -4.0703,4.547 -7.0821,5.321 3.0118,0.722 5.5079,2.636 7.0821,5.277 1.4375,-2.699 3.9258,-4.496 6.875,-5.277 -2.8594,-0.891 -5.5156,-2.567 -6.875,-5.321 z m 13.8164,-4.855 c -2.8086,-0.117 -4.0117,2.578 -5.3828,4.433 0.2265,-2.332 -1.4141,-3.941 -3.7774,-3.058 -1.3633,3.48 2.6446,6.644 5.8594,5.207 2.8633,-0.77 3.3672,-4.004 3.3008,-6.582 z M 58.375,112.895 c -3.2148,-1.563 -7.2227,1.605 -5.8594,5.144 2.3633,0.832 4.0039,-0.723 3.7774,-3.113 1.3711,1.844 2.5156,4.609 5.3828,4.422 0.0664,-2.578 -0.4375,-5.75 -3.3008,-6.453 z m 0.4336,-7.493 c 2.6523,-0.886 2.793,-4.011 2.8672,-6.3512 -2.8086,-0.1172 -4.0117,2.5822 -5.3828,4.4452 0.2265,-2.34 -1.4141,-3.9022 -3.7774,-3.062 -1.4961,3.773 3.0703,6.832 6.293,4.968 z m 1.2891,-48.7809 c 1.0039,0.5977 1.9296,1.1328 2.8515,1.7891 l -2.5664,1.9257 c 6.8008,6.8164 -3.3711,16.8164 3.0039,24.1172 -3.4375,-0.8945 -5.9375,-4.1953 -4.7969,-7.7812 l -2.2226,0.1875 0.8008,-2.2266 -0.5078,-2.2695 c -3.2227,0.0586 -5.8008,-2.9375 -4.9375,-6.1055 0.5781,-2.2812 3.1562,-2.2812 5.0117,-2.75 l 1.5039,2.207 c -0.6485,0.8985 -1.2266,1.9141 -1.8711,2.9415 L 55.3711,66.375 c -2.4219,0.0625 -1.9336,3.5313 0.2891,3.4727 4.3632,0.664 4.9336,-6.2813 1.4296,-7.8477 -3.9375,-2.4492 -8.582,2.3984 -6.5859,6.3516 4.375,9.9453 9.5938,19.4609 13.8203,29.3281 2.0078,4.7343 -0.3633,10.7813 -5.7344,11.5503 5.7344,0.84 7.7969,7.493 5.5196,12.208 -4.3633,9.582 -9.3086,18.984 -13.6055,28.625 -1.7187,3.589 1.7969,8.191 5.7266,6.816 3.8672,-0.899 4.4375,-7.957 0.0625,-8.316 -2.4141,-0.723 -3.7774,3.41 -0.8477,3.472 l 0.9219,-2.269 c 0.5781,1.019 1.2226,2.031 1.8711,2.988 l -1.5039,2.16 c -1.8555,-0.492 -4.5078,-0.492 -5.0117,-2.762 -0.8633,-3.168 1.789,-6.164 4.9375,-6.105 l 0.5078,-2.336 -0.8008,-2.145 2.2226,0.293 c -1.1406,-3.652 1.3594,-6.933 4.7969,-7.843 -6.4414,7.242 3.7969,17.355 -3.0039,24.062 l 2.5664,1.926 -2.5664,1.91 c 6.8008,6.758 -3.4375,16.82 3.0039,24.055 -3.4375,-0.828 -5.9375,-4.121 -4.7969,-7.774 l -2.2226,0.301 0.8008,-2.164 -0.5078,-2.387 c -3.2227,0.059 -5.8008,-2.937 -4.9375,-6.062 0.5039,-2.317 3.1562,-2.317 5.0117,-2.801 l 1.5039,2.156 c -0.6485,1.024 -1.293,1.981 -1.8711,2.989 l -0.9961,-2.344 c -2.8555,0.207 -1.4922,4.211 0.9219,3.547 4.4609,-0.364 3.8047,-7.422 -0.0625,-8.262 -3.9297,-1.379 -7.4453,3.23 -5.7266,6.766 4.375,9.937 9.5938,19.453 13.8867,29.445 1.9414,4.617 -0.4297,10.66 -5.8008,11.434 5.4493,0.781 7.7969,7.003 5.7344,11.738 -3.4492,7.781 -7.4414,15.383 -11.0234,23.097 -1.3516,3.067 -3.6524,5.993 -3.0117,9.532 0.6562,3.226 5.2304,4.715 7.6015,2.269 2.4922,-1.859 1.918,-7.242 -1.5976,-7.304 -1.8477,-0.415 -3.4961,1.914 -1.9883,3.351 1.3555,0.481 1.5742,-1.199 2.1445,-2.027 0.5625,0.945 1.1406,1.91 1.7891,2.808 l -1.5039,2.274 c -1.8555,-0.543 -4.4336,-0.543 -5.0117,-2.813 -0.8633,-3.168 1.7148,-6.168 4.9375,-6.109 l 0.5078,-2.332 -0.8008,-2.16 2.2226,0.25 c -1.1406,-3.598 1.3594,-6.899 4.7969,-7.723 -6.375,7.176 3.8711,17.293 -3.0742,23.996 l 2.5,1.555 c -0.5703,1.082 -1.7109,1.68 -2.7148,2.168 4.414,2.969 2.8671,8.73 1.5976,13.031 -1.4531,-1.226 -2.8984,-2.457 -4.2969,-3.734 1.6836,-0.637 2.543,-2.735 2.1329,-4.524 -0.543,-3.742 -6.4883,-4.343 -8.5157,-1.683 l -2.3086,-2.418 c 1.3008,-1.082 2.8047,-1.899 4.5235,-2.293 -2.1563,-0.606 -3.9336,-1.801 -5.4414,-3.356 l -2.3985,1.977 -2.1367,-2.461 c 2.1406,-1.395 2.8477,-4.524 1.5977,-6.942 -4.3594,-9.64 -9.3672,-18.921 -13.586,-28.667 -2.0117,-4.614 0.3555,-10.598 5.586,-11.5 -5.5118,-1.016 -7.5977,-7.364 -5.3868,-12.024 4.2969,-9.637 9.168,-18.98 13.5352,-28.562 1.7188,-3.407 -1.0781,-7.957 -4.9414,-7.293 -4.0078,0.527 -5.4297,6.875 -1.5664,8.437 2.1406,0.723 3.8594,-1.086 3.2891,-3.109 l -1.5665,-0.172 -1.0781,2.195 c -0.5078,-0.949 -0.9375,-1.972 -1.4375,-2.988 l 0.9297,-2.277 c 2.1484,0.484 5.293,0.722 5.375,3.597 0.4297,3.047 -2.3789,5.504 -5.3047,5.262 l 0.5625,1.441 c -1.414,0.84 -0.2773,2.153 -0.0508,3.239 l -2.082,-0.422 c 0.9336,3.644 -1.4297,7.004 -4.9375,7.832 6.4375,-7.235 -3.7148,-17.231 3.0039,-24.055 l -2.4961,-1.91 2.4961,-1.926 c -6.7187,-6.824 3.4336,-16.82 -3.0039,-24.062 3.5078,0.91 5.8711,4.25 4.9375,7.902 l 2.082,-0.41 c -0.2265,1.004 -1.5117,2.383 0.0508,3.105 l -0.6328,1.5 c 2.9961,-0.183 5.8047,2.211 5.375,5.325 -0.082,2.871 -3.2266,3.046 -5.375,3.535 l -1.0117,-2.285 c 0.582,-0.958 1.082,-1.981 1.6445,-2.922 l 0.9531,2.207 1.5665,-0.176 c 0.5703,-2.098 -1.1485,-3.899 -3.2891,-3.176 -3.5742,1.5 -2.6524,7.359 1.0117,8.317 3.7774,1.21 7.2149,-3.106 5.6484,-6.637 -4.2968,-9.996 -9.6015,-19.578 -13.8867,-29.504 -2.0117,-4.621 0.3555,-10.727 5.7266,-11.567 -5.3711,-0.769 -7.7383,-6.878 -5.7266,-11.5503 3.4219,-8.0195 7.586,-15.8125 11.2344,-23.7578 1.2891,-2.8203 3.4336,-5.6875 2.7813,-9.043 -0.2344,-1.2109 -1.0235,-2.1601 -2.043,-2.7656 l 2.1289,-2.461 2.4219,1.9922 c 1.5078,-1.5547 3.2851,-2.8125 5.4414,-3.2929 -1.7266,-0.4493 -3.2422,-1.2657 -4.543,-2.3711 l 2.2852,-2.3985 c 1.4882,1.9883 5.0078,2.0274 7.0507,0.7032 2.5079,-1.5469 1.9454,-5.9883 -0.5781,-6.9961 1.3867,-1.2657 2.8164,-2.4766 4.2539,-3.6993 1.2031,4.3165 2.8047,10 -1.6015,13.0313"
         style="fill:#fac10c;fill-opacity:1;fill-rule:nonzero;stroke:none"
         id="path16" /><path
         d="m 192.609,208.793 c 17.743,0 32.121,-14.383 32.121,-32.121 0,-17.742 -14.378,-32.121 -32.121,-32.121 -17.742,0 -32.121,14.379 -32.121,32.121 0,17.738 14.379,32.121 32.121,32.121"
         style="fill:#fac10c;fill-opacity:1;fill-rule:nonzero;stroke:none"
         id="path18" /><path
         d="m 192.609,213.176 c 1.911,0.023 2.625,1.219 2.625,2.648 0,1.91 -2.625,11.008 -2.625,11.008 0,0 -2.625,-9.098 -2.625,-11.008 0,-1.429 0.715,-2.648 2.625,-2.648"
         style="fill:#fac10c;fill-opacity:1;fill-rule:nonzero;stroke:none"
         id="path20" /><path
         d="m 229.113,176.672 c 0.024,-1.91 1.219,-2.625 2.649,-2.625 1.91,0 11.008,2.625 11.008,2.625 0,0 -9.098,2.625 -11.008,2.625 -1.43,0 -2.649,-0.715 -2.649,-2.625"
         style="fill:#fac10c;fill-opacity:1;fill-rule:nonzero;stroke:none"
         id="path22" /><path
         d="m 192.609,140.168 c -1.91,-0.023 -2.625,-1.219 -2.625,-2.648 0,-1.911 2.625,-11.008 2.625,-11.008 0,0 2.625,9.097 2.625,11.008 0,1.429 -0.714,2.648 -2.625,2.648"
         style="fill:#fac10c;fill-opacity:1;fill-rule:nonzero;stroke:none"
         id="path24" /><path
         d="m 156.105,176.672 c -0.023,1.91 -1.214,2.625 -2.648,2.625 -1.91,0 -11.008,-2.625 -11.008,-2.625 0,0 9.098,-2.625 11.008,-2.625 1.434,0 2.648,0.715 2.648,2.625"
         style="fill:#fac10c;fill-opacity:1;fill-rule:nonzero;stroke:none"
         id="path26" /><path
         d="m 206.578,210.395 c 1.774,-0.707 2.895,0.121 3.442,1.445 0.73,1.765 1.785,11.172 1.785,11.172 0,0 -5.907,-7.399 -6.637,-9.16 -0.551,-1.325 -0.355,-2.723 1.41,-3.457"
         style="fill:#fac10c;fill-opacity:1;fill-rule:nonzero;stroke:none"
         id="path28" /><path
         d="m 226.336,162.703 c -0.711,-1.773 0.117,-2.894 1.441,-3.441 1.766,-0.731 11.172,-1.785 11.172,-1.785 0,0 -7.398,5.906 -9.16,6.636 -1.324,0.547 -2.723,0.356 -3.453,-1.41"
         style="fill:#fac10c;fill-opacity:1;fill-rule:nonzero;stroke:none"
         id="path30" /><path
         d="m 178.641,142.945 c -1.774,0.711 -2.895,-0.117 -3.442,-1.441 -0.73,-1.766 -1.785,-11.176 -1.785,-11.176 0,0 5.906,7.402 6.637,9.164 0.551,1.324 0.355,2.723 -1.41,3.453"
         style="fill:#fac10c;fill-opacity:1;fill-rule:nonzero;stroke:none"
         id="path32" /><path
         d="m 158.887,190.641 c 0.707,1.773 -0.121,2.89 -1.446,3.441 -1.765,0.731 -11.171,1.785 -11.171,1.785 0,0 7.398,-5.906 9.164,-6.637 1.32,-0.55 2.718,-0.355 3.453,1.411"
         style="fill:#fac10c;fill-opacity:1;fill-rule:nonzero;stroke:none"
         id="path34" /><path
         d="m 218.422,202.484 c 1.367,-1.336 2.719,-0.996 3.73,0.016 1.352,1.352 5.926,9.641 5.926,9.641 0,0 -8.289,-4.575 -9.64,-5.926 -1.012,-1.016 -1.368,-2.379 -0.016,-3.731"
         style="fill:#fac10c;fill-opacity:1;fill-rule:nonzero;stroke:none"
         id="path36" /><path
         d="m 218.422,150.859 c -1.332,-1.367 -0.996,-2.718 0.016,-3.73 1.351,-1.352 9.64,-5.926 9.64,-5.926 0,0 -4.574,8.289 -5.926,9.641 -1.011,1.011 -2.379,1.367 -3.73,0.015"
         style="fill:#fac10c;fill-opacity:1;fill-rule:nonzero;stroke:none"
         id="path38" /><path
         d="m 166.797,150.859 c -1.367,1.332 -2.719,0.996 -3.731,-0.015 -1.351,-1.352 -5.925,-9.641 -5.925,-9.641 0,0 8.289,4.574 9.64,5.926 1.012,1.012 1.367,2.379 0.016,3.73"
         style="fill:#fac10c;fill-opacity:1;fill-rule:nonzero;stroke:none"
         id="path40" /><path
         d="m 166.797,202.484 c 1.336,1.368 0.996,2.715 -0.016,3.731 -1.351,1.351 -9.64,5.926 -9.64,5.926 0,0 4.574,-8.289 5.925,-9.641 1.012,-1.012 2.379,-1.367 3.731,-0.016"
         style="fill:#fac10c;fill-opacity:1;fill-rule:nonzero;stroke:none"
         id="path42" /><path
         d="m 226.336,190.641 c 0.754,-1.754 2.129,-1.961 3.453,-1.411 1.762,0.731 9.16,6.637 9.16,6.637 0,0 -9.406,-1.054 -11.172,-1.785 -1.324,-0.551 -2.172,-1.676 -1.441,-3.441"
         style="fill:#fac10c;fill-opacity:1;fill-rule:nonzero;stroke:none"
         id="path44" /><path
         d="m 206.578,142.945 c -1.754,-0.75 -1.961,-2.129 -1.41,-3.453 0.73,-1.762 6.637,-9.164 6.637,-9.164 0,0 -1.055,9.41 -1.785,11.176 -0.547,1.324 -1.676,2.172 -3.442,1.441"
         style="fill:#fac10c;fill-opacity:1;fill-rule:nonzero;stroke:none"
         id="path46" /><path
         d="m 158.887,162.703 c -0.754,1.754 -2.133,1.957 -3.453,1.41 -1.766,-0.73 -9.164,-6.636 -9.164,-6.636 0,0 9.406,1.054 11.171,1.785 1.325,0.547 2.176,1.676 1.446,3.441"
         style="fill:#fac10c;fill-opacity:1;fill-rule:nonzero;stroke:none"
         id="path48" /><path
         d="m 178.641,210.395 c 1.754,0.753 1.961,2.132 1.41,3.457 -0.731,1.761 -6.637,9.16 -6.637,9.16 0,0 1.055,-9.407 1.785,-11.172 0.547,-1.324 1.676,-2.176 3.442,-1.445"
         style="fill:#fac10c;fill-opacity:1;fill-rule:nonzero;stroke:none"
         id="path50" /><path
         d="m 199.73,212.473 c 1.879,-0.348 2.817,0.683 3.094,2.086 0.371,1.875 -0.429,11.308 -0.429,11.308 0,0 -4.348,-8.41 -4.723,-10.281 -0.277,-1.406 0.187,-2.738 2.058,-3.113"
         style="fill:#fac10c;fill-opacity:1;fill-rule:nonzero;stroke:none"
         id="path52" /><path
         d="m 228.41,169.551 c -0.347,-1.879 0.684,-2.813 2.09,-3.094 1.871,-0.371 11.305,0.43 11.305,0.43 0,0 -8.407,4.347 -10.282,4.722 -1.406,0.278 -2.738,-0.187 -3.113,-2.058"
         style="fill:#fac10c;fill-opacity:1;fill-rule:nonzero;stroke:none"
         id="path54" /><path
         d="m 185.488,140.867 c -1.879,0.352 -2.812,-0.679 -3.093,-2.086 -0.372,-1.871 0.429,-11.304 0.429,-11.304 0,0 4.352,8.406 4.723,10.281 0.277,1.406 -0.188,2.738 -2.059,3.109"
         style="fill:#fac10c;fill-opacity:1;fill-rule:nonzero;stroke:none"
         id="path56" /><path
         d="m 156.809,183.793 c 0.347,1.879 -0.684,2.812 -2.086,3.094 -1.875,0.371 -11.309,-0.43 -11.309,-0.43 0,0 8.41,-4.352 10.281,-4.723 1.407,-0.281 2.739,0.188 3.114,2.059"
         style="fill:#fac10c;fill-opacity:1;fill-rule:nonzero;stroke:none"
         id="path58" /><path
         d="m 212.891,207.023 c 1.601,-1.043 2.859,-0.449 3.656,0.743 1.058,1.589 3.93,10.613 3.93,10.613 0,0 -7.239,-6.106 -8.297,-7.691 -0.797,-1.196 -0.879,-2.602 0.711,-3.665"
         style="fill:#fac10c;fill-opacity:1;fill-rule:nonzero;stroke:none"
         id="path60" /><path
         d="m 222.961,156.391 c -1.039,-1.602 -0.445,-2.86 0.746,-3.657 1.586,-1.058 10.609,-3.929 10.609,-3.929 0,0 -6.105,7.234 -7.691,8.297 -1.191,0.796 -2.602,0.878 -3.664,-0.711"
         style="fill:#fac10c;fill-opacity:1;fill-rule:nonzero;stroke:none"
         id="path62" /><path
         d="m 172.328,146.32 c -1.601,1.039 -2.859,0.446 -3.656,-0.746 -1.059,-1.586 -3.93,-10.609 -3.93,-10.609 0,0 7.238,6.105 8.297,7.691 0.797,1.192 0.879,2.602 -0.711,3.664"
         style="fill:#fac10c;fill-opacity:1;fill-rule:nonzero;stroke:none"
         id="path64" /><path
         d="m 162.258,196.953 c 1.043,1.602 0.445,2.86 -0.742,3.656 -1.59,1.059 -10.614,3.93 -10.614,3.93 0,0 6.106,-7.238 7.696,-8.301 1.187,-0.793 2.597,-0.875 3.66,0.715"
         style="fill:#fac10c;fill-opacity:1;fill-rule:nonzero;stroke:none"
         id="path66" /><path
         d="m 222.961,196.953 c 1.082,-1.574 2.473,-1.508 3.664,-0.715 1.586,1.063 7.691,8.301 7.691,8.301 0,0 -9.023,-2.871 -10.609,-3.93 -1.191,-0.796 -1.809,-2.07 -0.746,-3.656"
         style="fill:#fac10c;fill-opacity:1;fill-rule:nonzero;stroke:none"
         id="path68" /><path
         d="m 212.891,146.32 c -1.575,-1.082 -1.508,-2.472 -0.711,-3.664 1.058,-1.586 8.297,-7.691 8.297,-7.691 0,0 -2.872,9.023 -3.93,10.609 -0.797,1.192 -2.07,1.809 -3.656,0.746"
         style="fill:#fac10c;fill-opacity:1;fill-rule:nonzero;stroke:none"
         id="path70" /><path
         d="m 162.258,156.391 c -1.082,1.574 -2.473,1.507 -3.66,0.711 -1.59,-1.063 -7.696,-8.297 -7.696,-8.297 0,0 9.024,2.871 10.614,3.929 1.187,0.797 1.804,2.071 0.742,3.657"
         style="fill:#fac10c;fill-opacity:1;fill-rule:nonzero;stroke:none"
         id="path72" /><path
         d="m 172.328,207.023 c 1.574,1.082 1.508,2.469 0.711,3.665 -1.059,1.585 -8.297,7.691 -8.297,7.691 0,0 2.871,-9.024 3.93,-10.613 0.797,-1.192 2.07,-1.805 3.656,-0.743"
         style="fill:#fac10c;fill-opacity:1;fill-rule:nonzero;stroke:none"
         id="path74" /><path
         d="m 228.41,183.793 c 0.399,-1.867 1.707,-2.34 3.113,-2.059 1.875,0.371 10.282,4.723 10.282,4.723 0,0 -9.434,0.801 -11.305,0.43 -1.406,-0.282 -2.461,-1.223 -2.09,-3.094"
         style="fill:#fac10c;fill-opacity:1;fill-rule:nonzero;stroke:none"
         id="path76" /><path
         d="m 199.73,140.867 c -1.867,-0.394 -2.335,-1.703 -2.058,-3.109 0.375,-1.875 4.723,-10.281 4.723,-10.281 0,0 0.8,9.433 0.429,11.304 -0.277,1.407 -1.219,2.461 -3.094,2.086"
         style="fill:#fac10c;fill-opacity:1;fill-rule:nonzero;stroke:none"
         id="path78" /><path
         d="m 156.809,169.551 c -0.399,1.867 -1.707,2.336 -3.114,2.058 -1.871,-0.375 -10.281,-4.722 -10.281,-4.722 0,0 9.434,-0.801 11.309,-0.43 1.402,0.281 2.457,1.219 2.086,3.094"
         style="fill:#fac10c;fill-opacity:1;fill-rule:nonzero;stroke:none"
         id="path80" /><path
         d="m 185.488,212.473 c 1.867,0.398 2.336,1.707 2.059,3.113 -0.371,1.871 -4.723,10.281 -4.723,10.281 0,0 -0.801,-9.433 -0.429,-11.308 0.281,-1.403 1.218,-2.457 3.093,-2.086"
         style="fill:#fac10c;fill-opacity:1;fill-rule:nonzero;stroke:none"
         id="path82" /><path
         d="m 186.879,107.086 -2.516,-0.422 c -1.121,-0.152 -2.195,-0.543 -3.308,-0.723 l -0.446,-0.074 -0.75,-0.07 0.079,-0.621 -0.079,-0.598 -0.32,-0.5 -0.523,-0.422 -0.621,-0.152 -0.645,0.082 -0.598,0.363 -0.668,-0.117 h -0.629 l -0.667,0.223 -0.622,0.324 -2.211,-1.766 -0.398,-1.273 0.344,-1.6642 0.429,0.6442 1.59,0.797 0.223,-0.398 0.047,-0.571 c 1.617,0.715 3.406,0.86 5.148,0.993 2.532,0.261 5.071,0.32 7.61,0.351 2.386,-0.031 4.773,-0.062 7.164,-0.152 1.136,-0.031 2.281,-0.285 3.406,-0.094 l 0.852,0.246 -1.672,0.375 h -4.551 c -1.266,0.125 -2.59,0.141 -3.781,0.617 l -0.914,0.106 -1.418,-0.305 -2.446,0.426 1.84,2.164 -1.465,0.301 2.516,1.91"
         style="fill:#fac10c;fill-opacity:1;fill-rule:nonzero;stroke:none"
         id="path84" /><path
         d="m 174.543,104.629 c 1.348,-1.234 2.293,0.23 3.551,0.766 4.226,1.453 7.91,3.992 11.543,6.531 2.203,1.82 4.109,4.183 7.066,4.773 5.766,1.742 11.899,1.531 17.688,3.141 4.406,6.035 11.894,8.187 18.168,11.656 1.406,0.438 1.949,1.598 2.402,2.879 2.391,3.777 5.652,7.129 9.512,9.414 1.824,0.996 4,1.57 6.066,1.117 -0.148,-2.461 -1.559,-4.644 -3.262,-6.343 1.395,0.031 2.59,0.91 4,0.863 0.485,-2.528 -2.242,-3.848 -3.691,-5.422 0.805,-0.188 3.902,-0.422 2.215,-1.231 -2.149,-1.492 -4.606,-2.515 -6.59,-4.25 1.832,-0.328 2.039,-0.718 0.18,-1.378 -1.008,-0.684 -2.95,-0.922 -3.137,-2.254 1.383,-0.852 -0.637,-1.696 -1.414,-1.973 -1.492,-0.348 -3.059,-0.992 -1.078,-2.125 -0.746,-1.133 -2.356,-1.371 -3.664,-1.262 0.394,-1.281 0.972,-2.715 -0.692,-3.281 -3.73,-2.82 -8.109,-4.871 -12.797,-5.34 5.86,-0.449 11.891,0.637 16.899,3.82 0.66,0.786 4.125,1.622 2.187,2.282 -0.914,0.379 -2.871,0.801 -3.004,1.496 2.711,1.672 6.129,1.078 9.043,2.07 0.079,0.945 -2.214,0.684 -3.07,0.899 -2.043,0.164 -1.922,0.687 0.047,0.878 2.484,0.661 5.305,0.79 7.398,2.411 -1.707,0.789 -3.847,0.093 -5.668,0.742 3.082,1.347 6.719,1.48 9.485,3.508 1.262,1.402 -1.613,0.964 -2.449,0.929 -1.707,-0.297 -2.497,0.52 -0.559,1.231 3.312,2.441 7.504,4.027 9.832,7.566 0.551,0.793 1.297,3.18 -0.461,2.321 -2.312,-0.766 -4.344,-3.368 -6.976,-2.563 5.187,4.023 10.125,8.602 13.671,14.164 0.184,1.606 -2.336,1.781 -2.992,0.52 -3.336,-3.211 -6.351,-7.004 -10.621,-9.02 4.09,3.945 7.469,8.617 10.418,13.461 0.633,1.441 2.328,3.172 1.406,4.77 -1.484,1.23 -3.343,0.105 -4.117,-1.368 -2.59,-3.382 -4.558,-7.332 -7.89,-10.086 2.917,5.567 5.937,11.493 6.011,17.914 -0.008,1.325 -0.273,3.274 -2.07,3.024 -1.422,-0.254 -1.086,-2.387 -1.672,-3.461 -1.293,-4.391 -1.898,-9.141 -4.547,-12.98 0.594,3.562 1.641,7.281 0.836,10.878 -0.371,1.61 -2.973,0.918 -2.637,-0.671 -3.101,-15.727 -13.652,-29.477 -27.453,-37.43 -6.316,-3.578 -13.375,-5.883 -20.554,-6.926 -1.93,-0.422 -4.02,-0.176 -5.868,-0.836 -4.472,-3.43 -7.179,-9.168 -12.843,-10.965 -2.539,-1.261 -5.848,-1.515 -7.664,-3.875 l -0.184,-0.984 m 49.516,-5.7892 c -1.731,-1.039 -3.051,0.8008 -4.496,1.3552 -1.032,-0.5622 -1.129,-2.4372 -2.094,-3.3278 -1.153,-1.3125 -2.571,0.3672 -2.461,1.6641 -1.383,-1.1641 -2.082,-3.8008 -4.313,-3.4493 -1.058,0.8633 -1.843,2.6758 -2.652,0.6133 -0.66,-1.0078 -2.414,-2.4414 -3.32,-0.9219 -0.282,1.3438 -0.957,2.9258 -1.688,0.7891 -0.504,-1.5078 -2.113,-2.6211 -3.672,-1.957 -0.851,0.6953 0.684,3.2773 -0.402,3.0937 -1.621,-1.0742 -2.566,-3.7383 -4.832,-3.5273 -0.879,0.9883 0.531,2.664 -0.434,3.7578 -1.136,-1.4609 -2.398,-3.6016 -4.371,-3.7578 -0.953,0.7734 0.039,2.9844 -0.57,3.3125 -2.02,-1.211 -4.152,-3.3711 -6.695,-2.6953 0.988,3.789 5.129,5.1172 8.613,5.414 5.988,0.7383 12.289,-0.6172 18.051,1.5429 0.933,0.57 3.187,1.371 2.386,2.688 -0.714,1.035 1.852,0.629 2.098,1.843 -0.152,1.536 1.176,1.325 2.473,1.457 5.82,0.25 11.566,-0.972 17.371,-1.183 0.437,-2.824 -2.699,-4.813 -5.223,-3.938 -1.207,-0.195 -3.015,2.774 -2.66,0.614 -0.242,-1.133 -0.074,-2.6293 -1.109,-3.3872"
         style="fill:#fac10c;fill-opacity:1;fill-rule:nonzero;stroke:none"
         id="path86" /><path
         d="m 191.492,120.578 c -0.832,-1.515 -1.324,-3.262 -2.398,-4.617 -3.235,2.941 -7.922,2.844 -12.02,3.039 -3.386,0.18 -7.066,0.492 -9.683,2.906 -2.758,2.258 -5.004,5.188 -8.082,7.02 -2.813,0.762 -5.645,1.719 -7.903,3.644 -4.828,3.934 -7.593,9.774 -12.308,13.832 -0.903,0.883 -1.961,1.571 -2.969,2.321 -0.957,-0.235 -0.524,-2.297 -1.695,-1.246 l -2.375,-0.137 c 1.441,-1.899 2.886,-4.07 3.086,-6.5 -0.985,-0.102 -2.735,0.207 -3.219,-0.156 1.304,-1.961 2.976,-3.696 4.883,-5.079 -0.914,-0.144 -2.711,-0.066 -3.063,-0.433 1.891,-1.539 3.914,-3.113 6.387,-3.508 0.504,-0.668 -0.742,-1.953 0.308,-2.523 0.606,-0.25 2.614,-0.664 1.231,-1.356 -0.949,-0.64 -0.598,-2.129 0.617,-2.094 l 2.621,-1.164 c -0.68,-0.691 -2.793,-1.511 -0.996,-2.16 1.684,-0.933 3.598,-1.539 5.516,-1.601 -0.961,-0.813 -2.149,-1.274 -3.141,-2.036 4.43,-2.597 9.34,-4.304 14.191,-5.949 1.93,-0.644 3.883,-1.246 5.887,-1.625 -5.816,0.336 -11.441,2.059 -16.738,4.414 -2.746,1.207 -5.512,2.371 -8.328,3.407 1.234,0.64 2.664,0.8 3.941,1.355 -2.656,0.531 -5.558,0.707 -7.894,2.168 l 2.465,0.992 c 1.414,0.34 2.289,0.75 0.296,0.871 -2.004,0.547 -4.304,0.301 -6.074,1.512 l 2.719,0.785 c 0.949,0.164 2.004,0.301 2.762,0.938 -3.102,1.289 -7.161,0.375 -9.59,3.117 -0.559,1.043 1.738,0.203 2.394,0.375 1.664,0 3.453,-0.527 5.039,0.144 -4.519,1.985 -9.363,3.84 -12.808,7.512 -0.383,0.59 -1.531,2.203 -0.606,2.402 2.684,-0.355 4.625,-3.285 7.496,-2.828 l -2.175,2.09 c -4.188,3.594 -8.25,7.488 -11.18,12.192 -0.203,1.574 2.266,1.808 2.918,0.593 3.199,-3.082 6.09,-6.679 10.074,-8.785 1.414,-0.683 -0.812,0.813 -1.109,1.356 -3.684,4.277 -7.188,8.797 -9.762,13.832 -0.461,0.91 -1.223,2.55 0.152,3.035 1.379,0.691 2.746,-0.25 3.446,-1.434 2.711,-3.418 4.703,-7.476 8.074,-10.32 -2.871,5.574 -5.941,11.445 -6.016,17.863 0.067,1.246 0.149,3.125 1.832,3.074 1.418,0.215 1.196,-1.597 1.66,-2.461 1.395,-4.714 2.004,-9.82 4.801,-13.98 -0.617,3.496 -1.527,7.098 -0.922,10.652 0.141,1.168 1.454,1.524 2.313,0.817 0.691,-1.696 0.836,-3.793 1.469,-5.61 3.593,-12.296 11.668,-23.117 22.187,-30.375 8.664,-5.945 18.949,-9.492 29.445,-10.109 0.946,-0.082 1.899,-0.109 2.848,-0.172"
         style="fill:#fac10c;fill-opacity:1;fill-rule:nonzero;stroke:none"
         id="path88" /><path
         d="m 178.172,105.402 0.566,-0.566 -0.566,-0.563 -0.567,0.563 0.567,0.566"
         style="fill:#fac10c;fill-opacity:1;fill-rule:nonzero;stroke:none"
         id="path90" /><path
         d="m 178.125,105.156 0.23,-0.226 -0.23,-0.235 -0.23,0.235 0.23,0.226"
         style="fill:#fac10c;fill-opacity:1;fill-rule:nonzero;stroke:none"
         id="path92" /><path
         d="m 178.125,105.156 -1.348,-1.343 0.231,-0.231 1.347,1.348 -1.347,1.343 -0.231,-0.226 1.348,-1.352 1.348,1.352 -0.231,0.23 -1.347,-1.347 1.347,-1.352 0.231,0.231 -1.348,1.347 -1.348,-1.343 1.348,1.343 -1.348,1.352 -0.23,-0.231 -1.348,-1.347 1.578,-1.582 1.348,-1.348 1.578,1.582 1.348,1.348 -1.578,1.578 -1.348,1.347 -1.348,-1.347 1.348,-1.352"
         style="fill:#44b4cc;fill-opacity:1;fill-rule:nonzero;stroke:none"
         id="path94" /></g></g></svg>
