<?xml version="1.0" encoding="UTF-8" standalone="no"?>
<svg
   xmlns:dc="http://purl.org/dc/elements/1.1/"
   xmlns:cc="http://creativecommons.org/ns#"
   xmlns:rdf="http://www.w3.org/1999/02/22-rdf-syntax-ns#"
   xmlns:svg="http://www.w3.org/2000/svg"
   xmlns="http://www.w3.org/2000/svg"
   version="1.1"
   id="svg2"
   xml:space="preserve"
   width="42.666668"
   height="42.666668"
   viewBox="0 0 42.666668 42.666668"><metadata
     id="metadata8"><rdf:RDF><cc:Work
         rdf:about=""><dc:format>image/svg+xml</dc:format><dc:type
           rdf:resource="http://purl.org/dc/dcmitype/StillImage" /></cc:Work></rdf:RDF></metadata><defs
     id="defs6" /><g
     id="g10"
     transform="matrix(1.3333333,0,0,-1.3333333,0,42.666667)"><g
       id="g12"
       transform="scale(0.1)"><path
         d="M 13.8398,95.0117 C 38.8242,39.1211 94.9844,0.015625 160,0.015625 c 65.012,0 121.176,39.105475 146.16,94.996075 H 13.8398"
         style="fill:#d01e27;fill-opacity:1;fill-rule:evenodd;stroke:none"
         id="path14" /><path
         d="M 306.16,224.957 C 281.176,280.879 225.012,319.988 160,319.988 94.9844,319.988 38.8242,280.879 13.8398,224.957 H 306.16"
         style="fill:#d01e27;fill-opacity:1;fill-rule:evenodd;stroke:none"
         id="path16" /><path
         d="M 306.129,224.957 H 13.875 C 4.98438,205.082 0,183.105 0,159.988 0,136.871 5.01563,114.883 13.918,95.0117 H 306.105 C 315,114.883 320,136.871 320,159.988 c 0,23.117 -4.984,45.094 -13.871,64.969"
         style="fill:#222f61;fill-opacity:1;fill-rule:nonzero;stroke:none"
         id="path18" /><path
         d="m 160,103.766 c 30.98,0 56.242,25.261 56.242,56.222 0,30.981 -25.262,56.246 -56.242,56.246 -30.957,0 -56.242,-25.265 -56.242,-56.246 0,-30.961 25.285,-56.222 56.242,-56.222"
         style="fill:#ffffff;fill-opacity:1;fill-rule:evenodd;stroke:none"
         id="path20" /></g></g></svg>
