<?xml version="1.0" encoding="UTF-8" standalone="no"?>
<svg
   xmlns:dc="http://purl.org/dc/elements/1.1/"
   xmlns:cc="http://creativecommons.org/ns#"
   xmlns:rdf="http://www.w3.org/1999/02/22-rdf-syntax-ns#"
   xmlns:svg="http://www.w3.org/2000/svg"
   xmlns="http://www.w3.org/2000/svg"
   version="1.1"
   id="svg2"
   xml:space="preserve"
   width="42.666668"
   height="42.666668"
   viewBox="0 0 42.666668 42.666668"><metadata
     id="metadata8"><rdf:RDF><cc:Work
         rdf:about=""><dc:format>image/svg+xml</dc:format><dc:type
           rdf:resource="http://purl.org/dc/dcmitype/StillImage" /></cc:Work></rdf:RDF></metadata><defs
     id="defs6" /><g
     id="g10"
     transform="matrix(1.3333333,0,0,-1.3333333,0,42.666667)"><g
       id="g12"
       transform="scale(0.1)"><path
         d="M 13.8164,95.0078 C 38.8203,39.1133 94.9922,0 159.988,0 225.008,0 281.176,39.1133 306.16,95.0078 H 13.8164"
         style="fill:#ec1d27;fill-opacity:1;fill-rule:evenodd;stroke:none"
         id="path14" /><path
         d="M 306.16,224.961 C 281.176,280.887 225.008,320 159.988,320 94.9922,320 38.8203,280.887 13.8164,224.961 H 306.16"
         style="fill:#ec1d27;fill-opacity:1;fill-rule:evenodd;stroke:none"
         id="path16" /><path
         d="M 306.129,224.961 H 13.8672 C 4.98438,205.086 0,183.105 0,159.988 0,136.867 4.99609,114.879 13.8945,95.0078 H 306.105 C 315.004,114.879 320,136.867 320,159.988 c 0,23.117 -4.984,45.098 -13.871,64.973"
         style="fill:#ffffff;fill-opacity:1;fill-rule:nonzero;stroke:none"
         id="path18" /><path
         d="m 190.977,144.746 c -1.547,0.473 -4.504,-0.047 -4.782,1.969 1.36,2.094 4.477,5.047 6.864,2.699 2.207,-1.5 -1.098,-3.422 -2.082,-4.668 z m -6.938,5.516 c -1.527,-3.121 -6.238,-3.547 -8.465,-0.848 1.758,1.785 4.192,3.281 6.797,2.981 1.031,0 2.344,-0.989 1.668,-2.133 z m -14.836,25.101 c 0.512,2.672 3.629,3.91 5.973,2.672 2.066,-0.566 1.64,-4.34 -0.516,-4.34 -1.922,0.098 -3.797,0.727 -5.457,1.668 z m 3.02,15.586 c 0.562,-2.226 -1.664,-4.621 -3.754,-3.121 -0.672,2.442 1.761,3.5 3.754,3.121 z m -9.188,-14.207 c 0.633,1.711 1.621,3.473 3.516,3.988 1.566,-2.488 -0.91,-4.921 -3.516,-3.988 z m 3.891,-18.094 c -1.805,-0.82 -2.082,2.012 -1.711,3.168 1.617,0.211 1.851,-2.015 1.711,-3.168 z m -3.375,0.379 c -1.664,-0.261 -3.563,0.563 -4.031,2.274 -0.282,1.359 0.726,2.48 1.457,3.539 1.707,-1.41 2.882,-3.492 2.574,-5.813 z m -5.485,-18.093 c -0.726,1.804 -1.242,3.675 -1.523,5.601 1.523,-0.074 3.117,-0.379 4.621,-0.847 -0.73,-1.758 -1.926,-3.254 -3.098,-4.754 z m -2.597,22.074 c -1.364,1.359 -0.614,3.847 1.543,3.375 0.066,-1.195 0.211,-3.535 -1.543,-3.375 z m 6.207,16.738 c -0.727,-3.051 -4.078,-2.324 -6.113,-1.242 1.917,0.769 3.957,2.18 6.113,1.242 z m -7.711,6.703 c -0.328,3.114 3.801,4.285 6.234,4.547 1.598,-3.984 -3.609,-4.336 -6.234,-4.547 z m -1.5,-45.051 c -1.453,0.821 -1.922,2.532 -2.293,4.082 2.129,0.254 4.258,-2.582 2.293,-4.082 z m -5.34,23.418 c 1.824,0.278 4.027,-0.984 4.027,-3 -1.898,-0.168 -3.515,1.239 -4.027,3 z m -3.66,8.2 c -0.656,1.293 -1.594,2.605 -1.36,4.105 1.336,1.453 3.657,0.867 5.344,0.399 -0.75,-1.899 -2.207,-3.469 -3.984,-4.504 z m 2.109,-32.203 c -2.347,1.246 -2.484,4.453 -2.719,6.8 3.704,0.774 5.063,-4.828 2.719,-6.8 z m -9.094,31.476 c -1.031,1.106 -2.953,3.988 -0.375,4.313 2.93,0.988 4.172,-2.293 5.321,-4.219 -1.528,-0.61 -3.821,-2.11 -4.946,-0.094 z m -4.593,-18.656 c -1.313,1.074 -1.711,2.906 -2.395,4.457 3.848,0.816 8.348,1.805 11.934,-0.309 -2.137,-2.906 -6.071,-4.101 -9.539,-4.148 z m 18,33.379 c 0.703,0.418 2.297,0.722 2.109,-0.516 -0.469,-3.074 -3.844,-4.922 -6.707,-4.875 0.379,2.481 2.555,4.195 4.598,5.391 z m -4.266,5.902 c 1.031,0.566 2.176,0.168 3.164,-0.211 -0.867,-1.336 -1.969,-2.367 -3.351,-3.047 -0.028,1.078 -0.239,2.227 0.187,3.258 z m 20.719,-3.887 c -1.285,-0.144 -2.578,-0.144 -3.867,0 -0.633,3.071 4.547,3.071 3.867,0 z m 13.64,-19.386 c 1.969,1.312 4.618,-1.446 2.817,-3.211 -2.137,-2.18 -6.238,1.617 -2.817,3.211 z m 31.969,-39.516 c -4.453,4.102 -10.051,6.539 -15.211,9.613 -1.261,0.864 -2.765,1.66 -3.422,3.16 1.125,2.489 4.715,3.891 6.985,2.11 2.816,-1.848 6.168,-3.09 9.445,-1.754 -3.183,2.785 -6.629,5.391 -9.75,8.293 -1.566,1.574 -3.023,3.422 -5.254,4.105 -2.101,0.821 -4.492,0.207 -6.461,1.336 -0.093,1.051 1.074,1.356 1.871,1.567 4.879,1.152 10.149,0.14 14.911,1.922 -4.973,3.871 -12.004,3.144 -17.254,6.378 0.562,0.512 0.941,1.407 1.832,1.34 3.863,0.114 7.66,-1.34 11.554,-0.914 -0.988,1.332 -2.343,2.266 -3.75,3.039 -4.597,2.582 -9.047,5.395 -12.847,9.028 -2.086,1.968 -4.5,3.632 -7.004,4.968 -0.778,0.465 -2.324,1.36 -1.336,2.344 1.969,1.496 4.543,0.305 6.512,-0.543 2.601,-1.074 5.464,-0.769 8.207,-0.769 -4.411,1.754 -8.606,4.406 -11.883,7.875 2.39,0.168 4.777,0.023 7.168,-0.094 -3.235,2.601 -6.422,5.297 -10.051,7.359 -3.07,1.762 -6.707,1.66 -9.918,2.953 -3.727,2.133 -6.117,6.075 -7.547,10.008 h -0.117 c -2.695,-6.465 -9.633,-9.164 -13.57,-14.578 1.921,0.473 3.843,1.098 5.816,1.406 -2.629,-4.922 -9.332,-5.179 -12.402,-9.75 2.086,0.071 5.273,0.727 5.273,-2.316 -1.293,-1.199 -3.375,-0.731 -4.828,-1.809 -2.297,-1.101 -2.418,-4.195 -4.688,-5.254 -4.054,-2.179 -8.417,-4.097 -11.582,-7.566 3,-2.062 6.59,0.047 9.707,0.68 0.844,-1.36 1.875,-2.742 1.922,-4.407 -0.722,-2.015 -2.25,-3.632 -3.703,-5.132 -1.969,-2.016 -5.109,-1.715 -7.242,-3.422 -3.121,-2.442 -5.512,-5.649 -8.91,-7.715 1.148,-0.68 2.367,-1.57 3.777,-1.664 3.114,0.351 5.246,3 8.106,4.078 1.828,-0.773 3.14,-3.16 2.324,-5.059 -1.524,-1.878 -4.008,-2.601 -5.981,-3.894 -4.238,-2.301 -7.543,-5.859 -11.082,-9.074 -1.382,-1.403 -3.402,-1.145 -5.136,-1.094 1.148,-1.457 2.863,-2.746 4.879,-2.324 5.339,1.031 10.523,3.164 15.046,6.164 1.965,1.246 5.153,1.5 6.704,-0.567 0.332,-1.519 -1.317,-2.55 -2.368,-3.324 -5.601,-3.492 -12.211,-4.715 -18.308,-7.008 0.64,-2.621 3.66,-2.621 5.816,-2.535 7.614,0.356 14.156,4.668 21.141,7.242 2.441,0.895 4.875,-0.863 6.375,-2.621 1.969,-2.554 0.797,-6.019 -0.61,-8.554 -2.765,-4.664 -6.234,-9.586 -11.765,-11.039 -3.117,-0.68 -5.953,-2.766 -7.27,-5.766 0.328,0 1.082,0 1.457,0 1.965,2.551 5.016,4.051 8.254,4.051 4.399,0.148 8.082,2.84 11.297,5.582 1.656,1.359 3.981,1.828 5.996,0.84 1.969,-1.094 4.055,0.632 6.024,0.097 0.89,-1.172 0.89,-2.953 2.32,-3.726 2.508,-1.547 4.43,-3.891 7.098,-5.227 -0.512,1.715 -1.286,3.254 -1.942,4.875 3.141,-0.047 6.352,-0.047 9.309,-1.055 2.39,-1.285 3.746,-3.82 5.906,-5.437 0.676,0 1.309,0 1.992,0 0.184,0.207 0.563,0.586 0.727,0.816 -3.379,3.801 -7.832,6.496 -11.043,10.477 -2.953,3.801 -2.438,8.933 -2.391,13.527 -0.047,2.086 0.985,4.571 3.211,5.133 3,0 5.293,-2.414 8.18,-2.953 5.297,-0.984 10.832,0.426 16.078,-0.699 4.035,-1.457 7.316,-4.317 10.992,-6.403 1.176,-0.652 3.145,-1.078 3.895,0.375 0.511,1.293 -0.68,2.438 -1.481,3.305"
         style="fill:#2eab49;fill-opacity:1;fill-rule:nonzero;stroke:none"
         id="path20" /></g></g></svg>
