<?xml version="1.0" encoding="UTF-8" standalone="no"?>
<svg
   xmlns:dc="http://purl.org/dc/elements/1.1/"
   xmlns:cc="http://creativecommons.org/ns#"
   xmlns:rdf="http://www.w3.org/1999/02/22-rdf-syntax-ns#"
   xmlns:svg="http://www.w3.org/2000/svg"
   xmlns="http://www.w3.org/2000/svg"
   version="1.1"
   id="svg2"
   xml:space="preserve"
   width="42.666668"
   height="42.666668"
   viewBox="0 0 42.666668 42.666668"><metadata
     id="metadata8"><rdf:RDF><cc:Work
         rdf:about=""><dc:format>image/svg+xml</dc:format><dc:type
           rdf:resource="http://purl.org/dc/dcmitype/StillImage" /></cc:Work></rdf:RDF></metadata><defs
     id="defs6" /><g
     id="g10"
     transform="matrix(1.3333333,0,0,-1.3333333,0,42.666667)"><g
       id="g12"
       transform="scale(0.1)"><path
         d="M 160,-0.0195313 C 248.121,-0.0195313 320,71.8711 320,160 320,248.141 248.121,320.02 160,320.02 71.8789,320.02 0,248.141 0,160 0,71.8711 71.8789,-0.0195313 160,-0.0195313"
         style="fill:#80d0f4;fill-opacity:1;fill-rule:evenodd;stroke:none"
         id="path14" /><path
         d="m 159.758,258.836 h 0.496 c 26.148,-64.496 52.187,-128.941 78.297,-193.4297 0.433,-1.004 0.863,-2.0313 0.965,-3.1368 -7.266,8.9063 -14.739,17.6875 -21.536,26.9727 -18.109,45.4648 -36.632,90.7888 -54.945,136.1758 -1.004,2.402 -1.84,4.945 -3.035,7.27 C 140.484,184.949 121.184,137.121 101.996,89.2422 95.2109,79.957 87.75,71.1758 80.4688,62.2695 l 0.3828,1.7891 C 107.152,128.977 133.457,193.922 159.758,258.836"
         style="fill:#ffffff;fill-opacity:1;fill-rule:nonzero;stroke:none"
         id="path16" /><path
         d="M 101.996,89.2422 C 121.184,137.121 140.484,184.949 160,232.688 l 3.035,-7.27 c 18.313,-45.387 36.836,-90.711 54.945,-136.1758 -1.488,1.2109 -2.593,2.8086 -3.8,4.2851 -18.055,22.3517 -36.008,44.8007 -54.18,67.1017 -18.156,-22.301 -36.113,-44.75 -54.191,-67.1017 -1.207,-1.4765 -2.313,-3.0742 -3.813,-4.2851"
         style="fill:#100f0d;fill-opacity:1;fill-rule:nonzero;stroke:none"
         id="path18" /><path
         d="m 105.809,93.5273 c 18.078,22.3517 36.035,44.8007 54.191,67.1017 18.172,-22.301 36.125,-44.75 54.18,-67.1017 1.207,-1.4765 2.312,-3.0742 3.8,-4.2851 6.797,-9.2852 14.27,-18.0664 21.536,-26.9727 L 240,61.1641 c -53.316,0.0507 -106.684,0.0507 -160,0 l 0.4688,1.1054 c 7.2812,8.9063 14.7421,17.6875 21.5272,26.9727 1.5,1.2109 2.606,2.8086 3.813,4.2851"
         style="fill:#f7cf0d;fill-opacity:1;fill-rule:nonzero;stroke:none"
         id="path20" /></g></g></svg>
