<?xml version="1.0" encoding="UTF-8" standalone="no"?>
<svg
   xmlns:dc="http://purl.org/dc/elements/1.1/"
   xmlns:cc="http://creativecommons.org/ns#"
   xmlns:rdf="http://www.w3.org/1999/02/22-rdf-syntax-ns#"
   xmlns:svg="http://www.w3.org/2000/svg"
   xmlns="http://www.w3.org/2000/svg"
   version="1.1"
   id="svg2"
   xml:space="preserve"
   width="42.666668"
   height="42.666668"
   viewBox="0 0 42.666668 42.666668"><metadata
     id="metadata8"><rdf:RDF><cc:Work
         rdf:about=""><dc:format>image/svg+xml</dc:format><dc:type
           rdf:resource="http://purl.org/dc/dcmitype/StillImage" /></cc:Work></rdf:RDF></metadata><defs
     id="defs6" /><g
     id="g10"
     transform="matrix(1.3333333,0,0,-1.3333333,0,42.666667)"><g
       id="g12"
       transform="scale(0.1)"><path
         d="m 160,320.008 c -88.1094,0 -160,-71.891 -160,-160 h 320 c 0,88.109 -71.879,160 -160,160"
         style="fill:#273679;fill-opacity:1;fill-rule:evenodd;stroke:none"
         id="path14" /><path
         d="m 160,-0.015625 c 88.121,0 160,71.894525 160,160.023625 H 0 C 0,71.8789 71.8906,-0.015625 160,-0.015625"
         style="fill:#d01e27;fill-opacity:1;fill-rule:evenodd;stroke:none"
         id="path16" /><path
         d="m 56.1172,239.113 c -0.6719,3.039 -3.2188,16.5 3.918,19.707 3.5703,1.602 6.4101,2.336 9.7148,2.364 3.2969,0.035 7.0469,-0.625 12.4375,-1.797 3.6172,-0.789 6.5898,-1.18 9.5703,-1.063 2.9844,0.114 5.9766,0.75 9.6442,2.039 2.836,0.996 6.082,1.344 9.258,1.086 3.238,-0.254 6.406,-1.144 8.988,-2.597 2.598,-1.477 4.61,-3.52 5.516,-6.106 0.426,-1.211 0.609,-2.539 0.496,-3.976 -0.504,-6.297 -1.281,-8.547 -1.605,-9.508 l -0.012,-0.012 c 1.461,0.039 3.074,-0.285 4.84,-1.164 h 0.015 c 0.004,-0.008 2.118,-1.199 2.848,-2.941 l 0.129,-0.317 -0.336,0.043 c -0.008,0.004 -2.5,0.356 -5.238,-5.418 l -0.008,-0.015 -1.039,-2.208 c -1.649,-3.554 -3.125,-6.718 -4.602,-8.214 l -1.035,-1.27 c -0.703,-0.183 -1.804,-0.195 -3.472,-0.195 -0.321,0 -2.653,0 -5.985,0.012 -13.5702,0.027 -44.8045,0.085 -47.1991,-0.032 h -0.0234 l -1.5742,0.254 -0.2305,0.684 -0.2656,0.324 -0.0078,0.008 c -0.0196,0.031 -5.461,10.781 -6.9336,13.004 h -0.0039 l -0.6172,0.82 -0.6172,0.645 c -1.043,0.96 -2.0547,1.253 -2.793,1.253 H 49.707 l -0.0117,0.188 c -0.0039,0.004 -0.3047,3.144 4.5078,4.168 l 1.9141,0.234"
         style="fill:#100f0d;fill-opacity:1;fill-rule:nonzero;stroke:none"
         id="path18" /><path
         d="m 119.078,239.055 -0.039,-1.141 h 0.004 l 0.422,0.117 0.5,0.235 c 0.93,0.492 2.039,1.539 2.484,3.379 l 0.129,0.496 0.258,1.086 0.07,0.312 c 0.547,2.469 2.004,9.098 -4.273,13.727 -0.016,0.007 -4.778,3.617 -14.254,1.144 h -0.008 l -0.012,-0.008 c -0.019,0 -6.7067,-1.097 -8.566,-1.652 -1.1055,-0.332 -1.2266,-0.672 -1.125,-1.023 l 0.1601,-0.387 0.1172,-0.27 0.3242,-0.468 0.9805,0.109 h 0.0039 l 0.7969,0.191 c 2.664,0.684 10.6132,2.727 17.3012,1.328 7.679,-1.609 7.152,-7.964 6.925,-10.621 l -0.007,-0.121 c -0.114,-2.511 -2.176,-6.414 -2.188,-6.422 l -0.004,-0.011"
         style="fill:#f8d724;fill-opacity:1;fill-rule:nonzero;stroke:none"
         id="path20" /><path
         d="m 62.3281,237.914 -0.039,1.137 -0.0039,0.015 c -0.0118,0.008 -2.0743,3.911 -2.1875,6.422 l -0.0118,0.121 c -0.2187,2.657 -0.7461,9.012 6.9297,10.621 6.6953,1.399 14.6328,-0.644 17.3047,-1.328 l 0.7969,-0.191 0.9883,-0.109 0.3164,0.468 0.1172,0.27 0.1601,0.387 c 0.1016,0.351 -0.0156,0.691 -1.125,1.023 -1.8554,0.555 -8.5469,1.652 -8.5664,1.652 L 77,258.41 h -0.0117 c -9.4727,2.473 -14.2383,-1.137 -14.2539,-1.144 -6.2735,-4.629 -4.8164,-11.258 -4.2735,-13.727 l 0.0704,-0.312 0.2578,-1.086 0.1289,-0.496 c 0.4453,-1.84 1.5625,-2.887 2.4843,-3.379 l 0.5079,-0.235 0.414,-0.117 h 0.0039"
         style="fill:#f8d724;fill-opacity:1;fill-rule:nonzero;stroke:none"
         id="path22" /><path
         d="m 63.5859,218.305 -2.0664,-0.078 0.0821,-0.118 1.3164,-0.187 0.0156,0.008 c 2.3984,0.117 33.6523,0.05 47.2264,0.023 2.863,0 4.879,-0.012 5.985,-0.012 1.636,0 2.722,0.024 3.378,0.188 l 0.665,0.461 -0.493,-0.301 -0.742,-0.191 h -0.004 -0.094 -0.003 l -0.09,0.011 h -0.012 l -1.859,0.496 c -3.887,1.243 -13.278,4.219 -35.973,2.911 h -0.0117 -0.0196 l -0.0312,-0.004 -0.0508,-0.004 h -0.0586 l -0.0742,-0.012 h -0.0821 l -0.0898,-0.008 -0.1094,-0.011 -0.1211,-0.008 -0.1328,-0.02 -0.1367,-0.004 -0.1523,-0.015 -0.1602,-0.016 -0.1719,-0.016 -0.1797,-0.019 -0.1953,-0.02 -0.1992,-0.019 -0.207,-0.024 -0.2188,-0.023 -0.2304,-0.031 -0.2344,-0.02 -0.2422,-0.031 -0.25,-0.027 -0.2656,-0.028 -0.2617,-0.039 -0.2735,-0.035 v -0.004 l -0.2851,-0.023 v -0.008 l -0.2852,-0.039 -0.293,-0.039 -0.3047,-0.039 -0.3085,-0.047 -0.3125,-0.043 -0.3125,-0.051 -0.3243,-0.043 -0.3281,-0.055 -0.3359,-0.054 -0.336,-0.051 -0.3398,-0.055 -0.3438,-0.062 -0.3554,-0.059 -0.3516,-0.07 -0.3594,-0.063 -0.3632,-0.07 -0.3555,-0.066 -0.3633,-0.071 -0.375,-0.078 -0.3711,-0.078 -0.3711,-0.074 -0.3711,-0.086 -0.375,-0.082 -0.375,-0.078 -0.375,-0.09 -0.3828,-0.098 -0.3789,-0.09 -0.375,-0.093 -0.3828,-0.098 -0.375,-0.102 -0.3789,-0.101 -0.3789,-0.109 -0.375,-0.11 -0.3711,-0.109 -0.3789,-0.114 -0.3711,-0.117 v -0.004 l -0.0235,-0.007 h -0.0039 l -0.0195,-0.008 h -0.0039 l -0.0117,-0.008 H 63.668 63.6602 l -0.0118,-0.012 h -0.0039 l -0.0468,-0.011 -0.0118,-0.008"
         style="fill:#211c1d;fill-opacity:1;fill-rule:nonzero;stroke:none"
         id="path24" /><path
         d="m 123.621,239.223 0.055,0.172 c 0.328,0.949 1.09,3.164 1.59,9.406 0.109,1.379 -0.067,2.656 -0.469,3.82 -0.883,2.481 -2.824,4.457 -5.344,5.879 -2.527,1.434 -5.64,2.305 -8.824,2.559 -3.125,0.25 -6.316,-0.09 -9.098,-1.067 -3.699,-1.308 -6.7302,-1.953 -9.7537,-2.062 -3.0234,-0.125 -6.0273,0.277 -9.6718,1.074 -5.3672,1.164 -9.0938,1.82 -12.3516,1.785 -3.2461,-0.035 -6.043,-0.75 -9.5586,-2.328 -6.9219,-3.117 -4.3125,-16.523 -3.6758,-19.336 l 1.5743,-0.129 2.6289,-0.769 c -0.8789,0.609 -1.7852,1.668 -2.1914,3.32 l -0.125,0.496 -0.2618,1.102 -0.0703,0.304 c -0.5547,2.539 -2.0586,9.356 4.4258,14.133 0.0469,0.039 4.957,3.719 14.5742,1.215 0.1992,-0.035 6.7617,-1.117 8.6172,-1.676 1.4219,-0.418 1.5547,-0.945 1.3906,-1.508 l -0.1797,-0.433 -0.1171,-0.254 -0.5743,-0.696 -1.1679,0.09 h -0.0039 l -0.8203,0.196 c -2.6407,0.683 -10.5235,2.703 -17.125,1.332 -7.3282,-1.539 -6.8243,-7.645 -6.6094,-10.211 l 0.0078,-0.125 V 245.5 c 0.1016,-2.352 2.0351,-6.062 2.1328,-6.238 0.0742,-0.121 1.1992,-1.992 -0.3594,-1.731 h -0.0039 l -0.3906,0.098 c 1.5664,-0.926 3.0117,-2.258 4.2852,-3.992 -0.2579,2.293 -0.5157,8.64 4.6171,9.187 5.836,0.617 8.6446,-4.183 11.4102,-8.91 l 0.1602,-0.273 c 0.0937,1.074 0.4179,3.293 1.5429,5.406 h 0.0039 v 0.004 l 0.5,0.824 0.6055,0.793 1.5664,1.504 -0.5508,0.183 -0.0508,1.614 v 0.008 l 0.0313,0.211 v 0.003 0.012 l 1.2539,12.149 0.0156,0.164 0.168,0.011 0.9766,0.067 0.2187,0.019 -0.0078,-0.222 c 0,-0.024 -0.3125,-9.758 -0.4883,-12.09 l -0.3945,-1.192 -0.3516,-0.402 1.7617,0.625 0.5039,0.059 c 2.3086,0.191 4.3555,-0.508 5.9454,-2.082 1.5742,-1.579 2.6875,-4.024 3.1367,-7.356 l 0.0625,-0.508 c 1.207,2.407 5.77,10.719 10.879,9.297 4.875,-1.351 5.387,-7.23 5.41,-9.332 0.609,0.949 1.934,2.746 3.895,4.102 -1.364,-0.137 -0.305,1.636 -0.239,1.75 0.102,0.176 2.035,3.886 2.137,6.238 v 0.012 l 0.008,0.125 c 0.215,2.566 0.722,8.672 -6.61,10.211 -6.601,1.371 -14.48,-0.649 -17.1246,-1.332 l -0.8203,-0.196 h -0.0039 l -1.164,-0.09 -0.5782,0.696 -0.1132,0.254 -0.1836,0.433 c -0.1641,0.563 -0.0274,1.09 1.3945,1.508 1.8594,0.559 8.4373,1.649 8.6133,1.676 9.621,2.504 14.531,-1.176 14.574,-1.215 6.485,-4.777 4.985,-11.594 4.43,-14.133 l -0.07,-0.304 -0.266,-1.102 -0.125,-0.496 c -0.316,-1.289 -0.934,-2.207 -1.606,-2.848 l 2.391,0.524"
         style="fill:#100f0d;fill-opacity:1;fill-rule:nonzero;stroke:none"
         id="path26" /><path
         d="m 56.2578,238.508 -0.0508,0.215 h -0.0273 l -1.8945,-0.223 -0.0039,-0.012 c -3.793,-0.804 -4.1641,-2.941 -4.1954,-3.574 0.8008,-0.047 1.8282,-0.394 2.8672,-1.348 l 0.6563,-0.691 0.6406,-0.852 c 1.4688,-2.195 6.8008,-12.718 6.9609,-13.035 l 0.2579,-0.277 0.0117,-0.016 1.875,-0.05 0.0117,0.011 0.0195,0.004 h 0.0078 l 0.0196,0.004 0.0234,0.008 0.0078,0.008 0.0274,0.004 0.0039,0.007 0.0273,0.004 h 0.0156 l 0.0196,0.016 0.0039,0.004 0.0117,0.004 h 0.0039 l 0.0156,0.004 h 0.0039 0.0078 0.0079 l 0.0117,0.011 c 7.9609,2.539 17.2578,3.172 17.289,3.172 22.7655,1.321 32.2075,-1.679 36.1135,-2.918 l 1.785,-0.484 h 0.008 l 0.07,-0.008 h 0.02 0.007 0.055 l 0.051,0.008 h 0.012 0.011 l 0.504,0.141 0.782,0.578 0.218,0.215 c 1.344,1.48 2.77,4.535 4.364,7.957 l 1.039,2.207 0.007,0.027 c 2.278,4.793 4.493,5.527 5.313,5.629 -0.734,1.414 -2.414,2.398 -2.543,2.469 -8.629,4.293 -13.652,-5.118 -13.668,-5.137 l -0.418,-0.77 0.047,0.868 c 0,0.027 0.531,8.117 -5.102,9.679 -5.632,1.563 -10.7145,-9.699 -10.7223,-9.726 l -0.3125,-0.696 -0.0704,0.758 -0.125,1.195 c -0.4414,3.239 -1.5156,5.618 -3.0273,7.122 -1.4961,1.503 -3.4414,2.156 -5.6367,1.972 l -0.4766,-0.051 c -1.3984,-0.187 -2.8281,-1.242 -3.8984,-2.523 l -0.5781,-0.766 -0.4844,-0.793 c -1.5078,-2.839 -1.5391,-5.867 -1.5391,-5.879 l -0.0078,-0.71 -0.3555,0.605 -0.4921,0.84 c -2.7032,4.617 -5.4454,9.301 -11.0313,8.715 -5.8437,-0.621 -4.1484,-9.52 -4.1445,-9.547 l 0.1679,-0.926 -0.5273,0.781 c -2.2617,3.367 -5.1406,5.375 -8.2773,5.867 l -1.4141,0.125 0.0273,-0.132 -0.3867,-0.09"
         style="fill:#f8d724;fill-opacity:1;fill-rule:nonzero;stroke:none"
         id="path28" /><path
         d="m 88.2188,256.184 -0.5977,-0.039 -1.2344,-11.993 -0.0312,-0.234 -0.0117,-1.348 0.3007,0.078 0.7657,0.684 0.3242,0.996 c 0.1601,2.141 0.4336,10.41 0.4844,11.856"
         style="fill:#f8d724;fill-opacity:1;fill-rule:nonzero;stroke:none"
         id="path30" /><path
         d="m 93.0234,256.594 0.9805,-0.067 0.1641,-0.011 0.0195,-0.164 1.25,-12.149 v -0.012 -0.003 l 0.0313,-0.211 v -0.008 l -0.0508,-1.614 -0.8438,-0.042 -0.8789,0.796 -0.3945,1.192 c -0.1758,2.332 -0.4883,12.066 -0.4883,12.09 l -0.0117,0.222 0.2226,-0.019"
         style="fill:#211c1d;fill-opacity:1;fill-rule:nonzero;stroke:none"
         id="path32" /><path
         d="m 93.8086,256.145 -0.5977,0.039 c 0.0547,-1.446 0.3243,-9.715 0.4844,-11.856 l 0.3242,-0.996 0.7657,-0.684 0.3007,-0.078 -0.0078,1.348 -0.0351,0.234 -1.2344,11.993"
         style="fill:#f8d724;fill-opacity:1;fill-rule:nonzero;stroke:none"
         id="path34" /><path
         d="m 101.719,262.449 v 0 l -1.145,-0.469 -0.472,-1.148 0.472,-1.141 1.145,-0.472 v 0.004 -0.004 l 1.136,0.472 0.481,1.141 -0.481,1.148 -1.136,0.469"
         style="fill:#f8d724;fill-opacity:1;fill-rule:nonzero;stroke:none"
         id="path36" /><path
         d="m 97.7617,261.73 v -0.003 h -0.0039 v 0.003 l -1.1406,-0.468 -0.4727,-1.145 v -0.008 l 0.4727,-1.132 1.1406,-0.477 h 0.0039 l 1.1406,0.477 0.4727,1.132 v 0.008 l -0.4727,1.145 -1.1406,0.468"
         style="fill:#f8d724;fill-opacity:1;fill-rule:nonzero;stroke:none"
         id="path38" /><path
         d="m 94.418,260.363 v 0 h -0.0039 l -0.961,-0.398 -0.4062,-0.973 h 0.0039 -0.0039 l 0.4062,-0.961 0.9649,-0.406 v 0.004 -0.004 l 0.9687,0.406 0.3985,0.961 v 0.004 l -0.3985,0.969 -0.9687,0.398"
         style="fill:#f8d724;fill-opacity:1;fill-rule:nonzero;stroke:none"
         id="path40" /><path
         d="m 83.4141,261.523 v 0 h -0.0078 l -1.1133,-0.46 v -0.004 l -0.461,-1.114 v -0.004 l 0.461,-1.121 1.1211,-0.461 1.1172,0.461 0.4648,1.121 v 0.004 l -0.4648,1.114 -1.1172,0.464"
         style="fill:#f8d724;fill-opacity:1;fill-rule:nonzero;stroke:none"
         id="path42" /><path
         d="m 79.6133,262.609 v 0 h -0.0039 l -1.2266,-0.507 -0.5039,-1.223 v -0.008 l 0.5039,-1.219 1.2266,-0.507 h 0.0039 l 1.2265,0.507 0.5079,1.227 -0.5079,1.223 -1.2265,0.507"
         style="fill:#f8d724;fill-opacity:1;fill-rule:nonzero;stroke:none"
         id="path44" /><path
         d="m 75.418,263.301 v -0.008 h -0.0039 v 0.008 l -1.3086,-0.547 -0.543,-1.305 0.543,-1.32 1.3125,-0.535 1.3125,0.535 0.5429,1.32 -0.5429,1.305 -1.3125,0.547"
         style="fill:#f8d724;fill-opacity:1;fill-rule:nonzero;stroke:none"
         id="path46" /><path
         d="m 71.1094,263.879 v 0 h -0.0039 l -1.3125,-0.547 -0.543,-1.309 0.543,-1.308 1.3125,-0.547 h 0.0039 l 1.3086,0.547 0.5429,1.308 -0.5429,1.309 -1.3086,0.547"
         style="fill:#f8d724;fill-opacity:1;fill-rule:nonzero;stroke:none"
         id="path48" /><path
         d="m 66.793,263.949 v 0 h -0.0078 l -1.3047,-0.543 -0.543,-1.304 v -0.008 l 0.543,-1.309 1.3125,-0.543 1.3125,0.543 0.5429,1.309 v 0.008 l -0.5429,1.304 -1.3125,0.543"
         style="fill:#f8d724;fill-opacity:1;fill-rule:nonzero;stroke:none"
         id="path50" /><path
         d="m 62.5352,262.316 v 0 h -0.0079 l -1.3007,-0.546 -0.5469,-1.313 0.5469,-1.305 1.3086,-0.547 1.3125,0.547 0.5429,1.305 v 0.004 l -0.5429,1.309 -1.3125,0.546"
         style="fill:#f8d724;fill-opacity:1;fill-rule:nonzero;stroke:none"
         id="path52" /><path
         d="m 58.75,259.73 v 0 l -1.3086,-0.539 -0.543,-1.308 v -0.008 l 0.543,-1.309 1.3086,-0.543 h 0.0039 l 1.3086,0.543 0.543,1.309 v 0.008 l -0.543,1.308 -1.3125,0.539"
         style="fill:#f8d724;fill-opacity:1;fill-rule:nonzero;stroke:none"
         id="path54" /><path
         d="m 55.9453,256.277 v 0 l -1.3086,-0.543 -0.539,-1.316 0.539,-1.309 1.3086,-0.543 h 0.0078 l 1.3086,0.543 0.5391,1.309 v 0.004 l -0.5391,1.312 -1.3164,0.543"
         style="fill:#f8d724;fill-opacity:1;fill-rule:nonzero;stroke:none"
         id="path56" /><path
         d="m 54.7813,251.824 v -0.004 0.004 l -1.3086,-0.551 -0.543,-1.308 0.543,-1.309 1.3086,-0.547 h 0.0039 l 1.3086,0.547 0.5429,1.309 -0.5429,1.308 -1.3125,0.551"
         style="fill:#f8d724;fill-opacity:1;fill-rule:nonzero;stroke:none"
         id="path58" /><path
         d="m 54.7813,247.66 v 0 l -1.3086,-0.547 -0.543,-1.308 0.543,-1.321 1.3086,-0.535 h 0.0039 l 1.3086,0.535 0.5429,1.321 -0.5429,1.308 -1.3125,0.547"
         style="fill:#f8d724;fill-opacity:1;fill-rule:nonzero;stroke:none"
         id="path60" /><path
         d="m 55.7031,243.188 v 0 h -0.0117 l -1.3086,-0.543 -0.539,-1.313 0.539,-1.309 1.3164,-0.546 h 0.0039 l 1.3047,0.546 0.5391,1.309 -0.5391,1.313 -1.3047,0.543"
         style="fill:#f8d724;fill-opacity:1;fill-rule:nonzero;stroke:none"
         id="path62" /><path
         d="m 90.6328,252.277 v 0 l 1.4649,-0.605 0.6093,-1.465 -0.6132,-1.473 -1.461,-0.605 h -0.0039 l -1.4648,0.613 -0.6094,1.457 v 0.008 l 0.6094,1.465 1.4648,0.605 h 0.0039"
         style="fill:#211c1d;fill-opacity:1;fill-rule:nonzero;stroke:none"
         id="path64" /><path
         d="m 90.6328,247.816 v 0 l 1.4649,-0.605 0.6093,-1.465 v -0.012 l -0.6132,-1.464 -1.461,-0.606 h -0.0039 l -1.4648,0.617 -0.6094,1.453 v 0.012 l 0.6094,1.465 1.4648,0.605 h 0.0039"
         style="fill:#211c1d;fill-opacity:1;fill-rule:nonzero;stroke:none"
         id="path66" /><path
         d="m 90.6719,256.078 h 0.0078 l 1.2422,-0.508 0.5195,-1.25 -0.5195,-1.254 -1.2422,-0.515 h -0.0078 l -1.25,0.519 -0.5117,1.25 0.5195,1.25 1.2422,0.508"
         style="fill:#211c1d;fill-opacity:1;fill-rule:nonzero;stroke:none"
         id="path68" /><path
         d="m 125.445,243.254 v 0 h -0.007 l -1.368,-0.566 -0.562,-1.368 v -0.007 l 0.562,-1.36 1.368,-0.574 h 0.007 l 1.368,0.574 0.566,1.367 -0.566,1.368 -1.368,0.566"
         style="fill:#f8d724;fill-opacity:1;fill-rule:nonzero;stroke:none"
         id="path70" /><path
         d="m 126.516,247.629 v 0 h -0.008 l -1.367,-0.566 -0.571,-1.368 0.571,-1.367 1.367,-0.566 h 0.008 l 1.359,0.566 0.57,1.367 v 0.008 l -0.57,1.36 -1.359,0.566"
         style="fill:#f8d724;fill-opacity:1;fill-rule:nonzero;stroke:none"
         id="path72" /><path
         d="m 126.582,251.711 v 0 h -0.004 l -1.269,-0.52 -0.528,-1.277 0.532,-1.269 1.265,-0.528 h 0.004 l 1.266,0.528 0.527,1.269 v 0.008 l -0.527,1.269 -1.266,0.52"
         style="fill:#f8d724;fill-opacity:1;fill-rule:nonzero;stroke:none"
         id="path74" /><path
         d="m 125.434,256.223 v 0 l -1.368,-0.567 v -0.008 l -0.566,-1.359 v -0.008 l 0.566,-1.367 1.368,-0.566 v 0.004 h 0.004 v -0.004 l 1.363,0.566 0.566,1.375 -0.566,1.367 -1.367,0.567"
         style="fill:#f8d724;fill-opacity:1;fill-rule:nonzero;stroke:none"
         id="path76" /><path
         d="m 118.824,262.363 v 0 l -1.363,-0.574 -0.57,-1.355 v -0.012 l 0.57,-1.367 1.363,-0.567 h 0.004 l 1.367,0.567 0.567,1.367 v 0.012 l -0.567,1.355 -1.371,0.574"
         style="fill:#f8d724;fill-opacity:1;fill-rule:nonzero;stroke:none"
         id="path78" /><path
         d="m 114.617,263.836 v 0 h -0.004 l -1.367,-0.563 -0.57,-1.367 h 0.004 v -0.008 h -0.004 l 0.57,-1.367 1.367,-0.566 h 0.004 l 1.363,0.566 0.575,1.367 v 0.008 l -0.575,1.367 -1.363,0.563"
         style="fill:#f8d724;fill-opacity:1;fill-rule:nonzero;stroke:none"
         id="path80" /><path
         d="m 110.051,263.801 v 0 h -0.008 l -1.367,-0.567 -0.567,-1.367 v -0.004 l 0.567,-1.371 1.367,-0.562 h 0.008 l 1.363,0.562 0.566,1.375 -0.566,1.367 -1.363,0.567"
         style="fill:#f8d724;fill-opacity:1;fill-rule:nonzero;stroke:none"
         id="path82" /><path
         d="m 105.746,263.176 v -0.008 0.008 l -1.141,-0.477 -0.472,-1.144 0.472,-1.141 1.141,-0.473 h 0.008 l 1.141,0.473 0.468,1.141 -0.468,1.144 -1.149,0.477"
         style="fill:#f8d724;fill-opacity:1;fill-rule:nonzero;stroke:none"
         id="path84" /><path
         d="m 122.461,259.77 v 0 h -0.004 l -1.363,-0.563 -0.567,-1.371 0.563,-1.367 h 0.004 l 1.363,-0.567 h 0.008 l 1.363,0.567 0.57,1.367 h -0.003 0.003 l -0.57,1.371 -1.367,0.563"
         style="fill:#f8d724;fill-opacity:1;fill-rule:nonzero;stroke:none"
         id="path86" /><path
         d="m 90.6328,251.879 v 0 h -0.0039 l -1.1875,-0.488 -0.4922,-1.184 v -0.008 l 0.4922,-1.183 1.1875,-0.489 h 0.0039 l 1.1836,0.489 0.4922,1.191 -0.4922,1.184 -1.1836,0.488"
         style="fill:#f8d724;fill-opacity:1;fill-rule:nonzero;stroke:none"
         id="path88" /><path
         d="m 90.6328,247.426 v 0 h -0.0039 l -1.1875,-0.5 -0.4922,-1.18 v -0.012 l 0.4922,-1.179 1.1875,-0.489 h 0.0039 l 1.1836,0.489 0.4922,1.179 v 0.012 l -0.4922,1.18 -1.1836,0.5"
         style="fill:#f8d724;fill-opacity:1;fill-rule:nonzero;stroke:none"
         id="path90" /><path
         d="m 87.0469,260.441 v 0 H 87.043 l -1.0821,-0.449 -0.4492,-1.078 v -0.004 l 0.4492,-1.074 1.0821,-0.449 h 0.0039 l 1.0742,0.449 h 0.0039 l 0.4453,1.074 v 0.004 l -0.4453,1.078 -1.0781,0.449"
         style="fill:#f8d724;fill-opacity:1;fill-rule:nonzero;stroke:none"
         id="path92" /><path
         d="m 90.6797,255.688 v 0 h -0.0078 l -0.9649,-0.403 -0.4023,-0.965 0.4023,-0.968 0.9649,-0.411 v 0.008 h 0.0078 v -0.008 l 0.9648,0.411 0.4024,0.968 -0.4024,0.965 -0.9648,0.403"
         style="fill:#f8d724;fill-opacity:1;fill-rule:nonzero;stroke:none"
         id="path94" /><path
         d="m 90.5547,259.047 v 0 h -0.0039 l -0.8789,-0.363 -0.3672,-0.887 0.3672,-0.891 0.8828,-0.359 0.8867,0.359 0.3633,0.891 -0.3633,0.887 -0.8867,0.363"
         style="fill:#f8d724;fill-opacity:1;fill-rule:nonzero;stroke:none"
         id="path96" /><path
         d="m 90.7227,276.379 v -0.008 h -0.0039 v 0.008 l -1.0625,-0.449 -0.4375,-1.055 0.4375,-1.062 1.0664,-0.442 h 0.0039 l 1.0586,0.442 0.4414,1.062 -0.4414,1.055 -1.0625,0.449"
         style="fill:#f8d724;fill-opacity:1;fill-rule:nonzero;stroke:none"
         id="path98" /><path
         d="m 88.8477,274.598 -0.0196,0.277 h -0.0039 0.0039 l 0.0899,0.574 -0.75,0.071 h -0.0391 l -0.0391,0.019 -1.8984,1.074 -2.3555,-1.855 2.4532,-1.543 1.7617,1.359 0.0547,0.035 h 0.0664 l 0.6758,-0.011"
         style="fill:#f8d724;fill-opacity:1;fill-rule:nonzero;stroke:none"
         id="path100" /><path
         d="m 92.5273,275.449 0.0938,-0.574 -0.0234,-0.277 0.6679,0.011 h 0.0664 l 0.0547,-0.035 1.7656,-1.359 2.4454,1.543 -2.3477,1.855 -1.9023,-1.074 -0.0352,-0.019 h -0.0391 l -0.7461,-0.071"
         style="fill:#f8d724;fill-opacity:1;fill-rule:nonzero;stroke:none"
         id="path102" /><path
         d="m 90.7227,276.77 v 0 l 0.5468,-0.079 0.0664,0.758 v 0.043 l 0.0274,0.039 1.0664,1.903 -1.8555,2.343 -1.5351,-2.449 1.3476,-1.762 0.043,-0.054 v -0.067 l -0.0156,-0.703 0.3047,0.028 h 0.0039"
         style="fill:#f8d724;fill-opacity:1;fill-rule:nonzero;stroke:none"
         id="path104" /><path
         d="m 90.4805,272.992 0.0078,-0.664 0.0039,-0.074 -0.0391,-0.055 -1.3515,-1.758 1.539,-2.449 1.8594,2.344 -1.0742,1.902 -0.0235,0.039 -0.0039,0.039 -0.0664,0.762 -0.6054,-0.098 v -0.007 h -0.0039 v 0.007 l -0.2422,0.012"
         style="fill:#f8d724;fill-opacity:1;fill-rule:nonzero;stroke:none"
         id="path106" /><path
         d="m 89.8828,266.848 v -2.141 h 1.9297 v 2.098 l -1.0273,0.16 h -0.0039 l -0.8985,-0.117"
         style="fill:#f8d724;fill-opacity:1;fill-rule:nonzero;stroke:none"
         id="path108" /><path
         d="m 87.6016,264.707 h 1.9609 v 2.004 l -1.1641,-0.766 -0.7968,-1.238"
         style="fill:#f8d724;fill-opacity:1;fill-rule:nonzero;stroke:none"
         id="path110" /><path
         d="m 94.1563,264.379 h -6.7461 l -0.0977,-0.813 v -0.007 l 0.1484,-0.996 h 6.6407 l 0.1484,1.003 -0.0937,0.813"
         style="fill:#f8d724;fill-opacity:1;fill-rule:nonzero;stroke:none"
         id="path112" /><path
         d="m 92.1367,266.652 v -1.945 h 1.8242 l -0.7968,1.238 -1.0274,0.707"
         style="fill:#f8d724;fill-opacity:1;fill-rule:nonzero;stroke:none"
         id="path114" /><path
         d="m 87.6055,262.168 0.7265,-1.055 c 0.625,-0.625 1.4922,-1.023 2.4493,-1.023 h 0.0039 c 0.9531,0 1.8203,0.398 2.4453,1.023 l 0.7265,1.055 h -6.3515"
         style="fill:#f8d724;fill-opacity:1;fill-rule:nonzero;stroke:none"
         id="path116" /><path
         d="m 61.3672,218.539 c -0.1758,-0.422 -0.0391,-0.891 1.5586,-0.812 2.7734,0.148 49.3982,0.019 53.2192,0.019 3.304,0 4.39,0.07 4.308,1.34 l -1.676,-0.781 c -2.293,0.254 -10.254,5 -37.8747,3.406 0,0 -9.2968,-0.633 -17.2343,-3.164 z m 55.7658,4.352 0.527,8.285 c 0,0 0.445,-0.766 1.379,-1.332 l 2.328,2.629 c 1.207,0.293 0.918,0.148 0.582,-0.77 l -1.582,-2.383 c 0.719,-0.136 1.574,-0.121 2.594,0.215 z m -11.895,2.601 -0.675,8.574 c 0,0 0.675,-0.859 1.953,-1.441 l 1.468,2.691 c 0.43,0.145 0.766,0.672 0.672,-0.429 -0.082,-0.969 -0.273,-1.957 -0.668,-2.711 0.75,-0.121 1.621,-0.102 2.598,0.152 z m -14.5935,-0.207 c 0,0 -1.3047,8.117 -3.1836,10.047 l 0.7227,0.395 c 0.4648,-0.313 1.1172,-0.977 2.0273,-1.172 v 3.047 h 0.918 v -3.071 l 2.1289,1.141 0.4336,-0.531 c -1.2344,-1.641 -2.793,-9.036 -3.0469,-9.856 z m -14.6211,0.328 c 0,0 -4.4765,6.184 -5.4961,6.774 0,0 1.3672,-0.403 2.8868,-0.235 l -0.8321,2.481 0.2891,1.062 c 0.4023,-0.57 1.2734,-1.746 1.6836,-3.304 l 2.0078,1.5 z m -11.6328,-2.679 -6.2304,6.863 c 0,0 1.375,-0.887 2.9882,-0.606 l -1.7734,2.266 0.3398,1.07 c 0.6055,-0.453 1.8946,-1.48 2.4571,-2.984 l 1.6328,1.523 0.5859,-8.132"
         style="fill:#100f0d;fill-opacity:1;fill-rule:evenodd;stroke:none"
         id="path118" /><path
         d="m 103.438,254.68 0.394,0.105 v -13.57 h -0.394 z m -6.27,-11.731 -0.1758,0.375 -0.2227,0.711 v 4.899 l 0.3828,0.992 h 0.0157 z m 0.9218,-1.172 -0.3906,0.418 v 8.692 l 0.3906,0.531 z m 0.9336,-0.718 -0.3945,0.261 0.0508,10.743 0.3984,0.367 z m 1.0746,-0.489 -0.4027,0.137 -0.082,12.152 0.3907,0.278 z m 0.922,-0.179 -0.391,0.047 0.023,13.109 0.403,0.215 z m 0.96,0.039 -0.398,-0.047 v 13.644 l 0.398,0.176 z m 0.926,0.246 -0.39,-0.125 v 13.855 l 0.39,0.129 z m 1.856,1.094 -0.274,-0.196 -0.129,-0.09 v 13.43 l 0.403,0.09 z m 0.922,0.566 -0.395,-0.219 v 12.992 l 0.395,0.071 z m 0.925,0.406 -0.398,-0.16 v 12.676 l 0.398,0.058 z m 0.93,0.258 -0.394,-0.098 v 12.481 l 0.394,0.035 z m 0.93,0.129 -0.399,-0.039 v 12.371 l 0.399,0.019 z m 0.922,0 -0.403,0.016 V 255.5 h 0.403 z m 0.922,-0.129 -0.395,0.074 v 12.422 l 0.395,-0.016 z m 0.925,-0.246 -0.394,0.121 v 12.578 l 0.394,-0.023 z m 0.934,-0.406 -0.399,0.191 v 12.832 l 0.399,-0.047 z m 0.926,-0.578 -0.403,0.273 v 13.203 l 0.403,-0.066 z m 0.925,-0.633 -0.402,0.242 v 13.691 l 0.402,-0.09 z m 0.922,-0.344 -0.394,0.109 v 13.946 l 0.394,-0.118 z m 0.93,-0.02 -0.402,-0.031 v 13.821 l 0.402,-0.141 z m 1.449,12.907 0.403,-0.336 v -11.301 l -0.403,-0.461 z m -0.769,0.461 0.242,-0.125 v -12.871 l -0.395,-0.215 v 13.273 z m 2.093,-1.942 v -8.367 l -0.39,-0.91 v 9.855 l 0.39,-0.578"
         style="fill:#f8d724;fill-opacity:1;fill-rule:nonzero;stroke:none"
         id="path120" /><path
         d="m 77.8711,254.68 -0.3945,0.105 v -13.57 h 0.3945 z m 6.2656,-11.731 0.1797,0.375 0.2188,0.711 v 4.899 l -0.375,0.992 h -0.0235 z m -0.9179,-1.172 0.3945,0.418 v 8.692 l -0.3945,0.531 z m -0.9336,-0.718 0.3945,0.261 -0.0547,10.743 -0.3945,0.367 z m -1.0743,-0.489 0.3985,0.137 0.0781,12.152 -0.3906,0.278 z m -0.9296,-0.179 0.3984,0.047 -0.0313,13.109 -0.3945,0.215 z m -0.9571,0.039 0.4024,-0.047 v 13.644 l -0.4024,0.176 z m -0.9219,0.246 0.3946,-0.125 v 13.855 l -0.3946,0.129 z m -1.8554,1.094 0.2695,-0.196 0.125,-0.09 v 13.43 l -0.3945,0.09 z m -0.9219,0.566 0.3945,-0.219 v 12.992 l -0.3945,0.071 z m -0.9297,0.406 0.3985,-0.16 v 12.676 l -0.3985,0.058 z M 73.7695,243 74.168,242.902 v 12.481 l -0.3985,0.035 z m -0.9218,0.129 0.3945,-0.039 v 12.371 l -0.3945,0.019 z m -0.9297,0 0.3945,0.016 V 255.5 H 71.918 Z M 70.9922,243 l 0.3945,0.074 v 12.422 l -0.3945,-0.016 z m -0.9258,-0.246 0.3984,0.121 v 12.578 l -0.3984,-0.023 z m -0.9258,-0.406 0.3946,0.191 v 12.832 l -0.3946,-0.047 z m -0.9297,-0.578 0.3985,0.273 v 13.203 l -0.3985,-0.066 z m -0.9257,-0.633 0.4023,0.242 v 13.691 l -0.4023,-0.09 z m -0.9219,-0.344 0.3945,0.109 v 13.946 l -0.3945,-0.118 z m -0.9297,-0.02 0.3984,-0.031 v 13.821 l -0.3984,-0.141 z m -1.4531,12.907 -0.3946,-0.336 v -11.301 l 0.3946,-0.461 z m 0.7734,0.461 -0.2422,-0.125 v -12.871 l 0.3946,-0.215 v 13.273 z m -2.0976,-1.942 v -8.367 l 0.3945,-0.91 v 9.855 l -0.3945,-0.578"
         style="fill:#f8d724;fill-opacity:1;fill-rule:nonzero;stroke:none"
         id="path122" /></g></g></svg>
