<?xml version="1.0" encoding="UTF-8" standalone="no"?>
<svg
   xmlns:dc="http://purl.org/dc/elements/1.1/"
   xmlns:cc="http://creativecommons.org/ns#"
   xmlns:rdf="http://www.w3.org/1999/02/22-rdf-syntax-ns#"
   xmlns:svg="http://www.w3.org/2000/svg"
   xmlns="http://www.w3.org/2000/svg"
   version="1.1"
   id="svg2"
   xml:space="preserve"
   width="42.666668"
   height="42.666668"
   viewBox="0 0 42.666668 42.666668"><metadata
     id="metadata8"><rdf:RDF><cc:Work
         rdf:about=""><dc:format>image/svg+xml</dc:format><dc:type
           rdf:resource="http://purl.org/dc/dcmitype/StillImage" /></cc:Work></rdf:RDF></metadata><defs
     id="defs6" /><g
     id="g10"
     transform="matrix(1.3333333,0,0,-1.3333333,0,42.666667)"><g
       id="g12"
       transform="scale(0.1)"><path
         d="m 160,17.6484 c -13.977,0 -27.496,2.0704 -40.285,5.8399 V 296.16 c 12.789,3.817 26.308,5.836 40.285,5.836 78.305,0 142.184,-63.848 142.184,-142.168 C 302.184,81.5469 238.305,17.6484 160,17.6484 Z M 17.8242,159.828 c 0,55.531 32.1055,103.75 78.6602,127.16 V 32.7031 C 49.9297,56.0703 17.8242,104.336 17.8242,159.828 Z M 160,319.84 C 71.8789,319.84 0,247.984 0,159.828 0,71.7109 71.8789,-0.144531 160,-0.144531 c 88.121,0 160,71.855431 160,159.972531 0,88.156 -71.879,160.012 -160,160.012"
         style="fill:#f9af0b;fill-opacity:1;fill-rule:nonzero;stroke:none"
         id="path14" /><path
         d="m 160,301.996 c -13.977,0 -27.496,-2.019 -40.285,-5.836 V 23.4883 c 12.789,-3.7695 26.308,-5.8399 40.285,-5.8399 78.305,0 142.184,63.8985 142.184,142.1796 0,78.32 -63.879,142.168 -142.184,142.168"
         style="fill:#8b1b29;fill-opacity:1;fill-rule:evenodd;stroke:none"
         id="path16" /><path
         d="M 57.168,61.8594 V 257.813 C 32.8242,232.277 17.8242,197.766 17.8242,159.828 c 0,-37.914 15,-72.4374 39.3438,-97.9686"
         style="fill:#1d523e;fill-opacity:1;fill-rule:evenodd;stroke:none"
         id="path18" /><path
         d="M 57.168,257.813 V 61.8594 C 68.4531,50.0234 81.7383,40.1055 96.4844,32.7031 V 286.988 C 81.7383,279.57 68.4531,269.652 57.168,257.813"
         style="fill:#f1491c;fill-opacity:1;fill-rule:evenodd;stroke:none"
         id="path20" /><path
         d="m 130.816,209.449 c 2.344,0.985 5.473,0.211 6.696,-2.133 1.429,-2.609 0.883,-5.683 1.609,-8.5 0.629,-2.5 1.414,-5.054 1.18,-7.664 -1.281,1.621 -2.137,3.758 -3.938,4.907 -2.894,1.769 -6.621,1.507 -9.383,3.543 -1.539,1.093 -2.089,3.226 -1.281,4.949 0.625,1.304 1.047,2.66 0.891,4.121 1.43,0.051 2.89,0.262 4.226,0.777"
         style="fill:#100f0d;fill-opacity:1;fill-rule:nonzero;stroke:none"
         id="path22" /><path
         d="m 275.992,209.23 c 2.899,1.7 5.793,-0.769 8.828,-0.617 -0.105,-1.449 0.309,-2.847 0.953,-4.195 0.778,-1.656 0.207,-3.676 -1.242,-4.758 -2.871,-2.129 -6.804,-1.762 -9.726,-3.785 -1.664,-1.133 -2.258,-3.262 -3.68,-4.609 -0.207,3.734 1.633,7.148 1.734,10.875 0.157,2.535 0.516,5.8 3.133,7.089"
         style="fill:#11100e;fill-opacity:1;fill-rule:nonzero;stroke:none"
         id="path24" /><path
         d="m 130.758,208.586 c 2.16,1.039 5.207,0.348 6.289,-1.867 1,-2.11 0.805,-4.524 1.152,-6.832 0.406,-2.27 1.207,-4.379 1.41,-6.696 -1.082,1.258 -1.933,2.817 -3.398,3.622 -2.484,1.312 -5.375,1.414 -7.871,2.671 -1.152,0.551 -2.188,1.555 -2.262,2.914 -0.226,1.957 1.563,3.567 1.262,5.586 1.129,0.047 2.332,0.098 3.418,0.602"
         style="fill:#f8af0c;fill-opacity:1;fill-rule:nonzero;stroke:none"
         id="path26" /><path
         d="m 274.605,207.074 c 1.258,1.961 4.106,2.5 6.165,1.512 1.078,-0.504 2.257,-0.555 3.394,-0.602 -0.328,-2.019 1.508,-3.629 1.258,-5.636 -0.106,-1.258 -1.129,-2.262 -2.188,-2.864 -2.492,-1.257 -5.382,-1.359 -7.847,-2.625 -1.61,-0.8 -2.563,-2.41 -3.5,-3.914 0.129,3.016 1.488,5.782 1.59,8.743 0.121,1.812 0.199,3.777 1.128,5.386"
         style="fill:#f8af0c;fill-opacity:1;fill-rule:nonzero;stroke:none"
         id="path28" /><path
         d="m 136.359,113.176 c 1.801,1.148 2.657,3.285 3.938,4.894 0.391,-3.855 -1.641,-7.39 -1.668,-11.254 -0.074,-2.652 -0.727,-5.941 -3.52,-7.0308 -2.89,-1.3047 -5.656,0.9848 -8.57,0.8358 0.207,1.395 -0.266,2.809 -0.836,4.109 -0.808,1.672 -0.262,3.86 1.281,4.903 2.758,2.031 6.485,1.824 9.375,3.543"
         style="fill:#11100e;fill-opacity:1;fill-rule:nonzero;stroke:none"
         id="path30" /><path
         d="m 272.707,108.535 c -0.312,3.227 -1.953,6.293 -1.508,9.559 1.297,-1.711 2.129,-3.836 3.996,-4.981 2.868,-1.664 6.446,-1.457 9.18,-3.379 1.531,-1.043 2.227,-3.222 1.426,-4.941 -0.649,-1.348 -1.063,-2.707 -0.957,-4.203 -1.508,-0.051 -2.965,-0.266 -4.34,-0.8322 -2.367,-0.9414 -5.457,-0.0547 -6.629,2.3282 -1.035,1.98 -0.934,4.32 -1.168,6.449"
         style="fill:#11100e;fill-opacity:1;fill-rule:nonzero;stroke:none"
         id="path32" /><path
         d="m 136.164,112.422 c 1.59,0.851 2.484,2.461 3.492,3.871 -0.25,-2.973 -1.527,-5.734 -1.679,-8.75 -0.102,-1.664 -0.204,-3.477 -0.93,-5.035 -1.109,-2.211 -4.129,-2.9142 -6.289,-1.86 -1.086,0.551 -2.289,0.551 -3.418,0.649 0.301,2.016 -1.488,3.57 -1.262,5.586 0.074,1.211 1.012,2.211 2.063,2.82 2.515,1.352 5.507,1.402 8.023,2.719"
         style="fill:#f8af0c;fill-opacity:1;fill-rule:nonzero;stroke:none"
         id="path34" /><path
         d="m 271.867,116.293 c 0.957,-1.461 1.91,-3.07 3.52,-3.93 2.465,-1.258 5.355,-1.355 7.847,-2.609 1.059,-0.551 2.082,-1.563 2.188,-2.871 0.223,-2.016 -1.586,-3.57 -1.231,-5.586 -1.164,-0.098 -2.343,-0.098 -3.421,-0.594 -2.059,-1.0077 -4.875,-0.508 -6.165,1.504 -0.929,1.609 -1.007,3.57 -1.128,5.379 -0.102,2.973 -1.411,5.734 -1.61,8.707"
         style="fill:#f8af0c;fill-opacity:1;fill-rule:nonzero;stroke:none"
         id="path36" /><path
         d="m 186.43,114.383 0.976,0.562 0.418,-0.562 c 0.559,-0.754 2.102,-0.746 3.125,0.015 l 0.781,0.582 0.657,-0.582 c 0.863,-0.765 2.472,-0.765 3.5,-0.003 0.718,0.535 0.816,0.546 1.293,0.14 0.285,-0.246 1.117,-0.519 1.847,-0.613 1.321,-0.176 1.34,-0.164 2.114,0.992 0.648,0.973 0.75,1.363 0.593,2.305 -0.101,0.625 -0.211,1.629 -0.246,2.234 -0.054,1.09 -0.05,1.098 1.539,1.652 0.879,0.305 1.899,0.715 2.262,0.911 0.637,0.343 2.391,2.402 2.391,2.808 0,0.106 -0.688,0.274 -1.524,0.367 -3.328,0.372 -3.89,2.161 -1.726,5.481 3.527,5.414 5.656,10.683 5.672,14.043 0.003,1.5 0.089,2.004 0.285,1.68 0.785,-1.336 -0.625,-6.93 -2.766,-10.946 l -0.859,-1.621 0.82,0.192 c 0.453,0.105 3.109,1.226 5.906,2.492 7.657,3.465 10.285,4.144 15.239,3.937 4.148,-0.176 5.918,-0.984 8.847,-4.058 1.551,-1.629 3.047,-2.793 5.781,-4.504 5.829,-3.649 6.075,-3.965 6.352,-8.254 0.277,-4.348 0.141,-4.586 -3.148,-5.313 -2.809,-0.621 -4.571,-1.929 -5.043,-3.75 -0.254,-0.972 0.277,-1 1.695,-0.09 l 1.039,0.668 0.461,-0.668 c 0.605,-0.875 1.894,-0.878 2.969,-0.007 l 0.808,0.66 0.828,-0.66 c 1.286,-1.024 2.993,-0.774 3.477,0.507 0.094,0.247 0.34,0.165 0.84,-0.269 0.941,-0.816 3.347,-1.164 3.605,-0.523 0.102,0.242 -0.09,0.847 -0.418,1.343 -1.398,2.098 -1.84,3.102 -1.855,4.242 -0.027,1.59 0.449,2.36 2.258,3.653 2.195,1.57 2.875,3.597 1.203,3.597 -1.031,0 -2.071,0.911 -2.735,2.399 -1.347,3.019 -1.082,6.402 0.942,12.039 2.055,5.719 2.281,6.773 2.289,10.602 0.008,3.093 -0.07,3.628 -0.774,5.324 -0.429,1.039 -1.304,2.582 -1.941,3.433 l -1.156,1.543 1.484,1.235 c 4.539,3.761 3.613,9.914 -1.851,12.289 -1.676,0.722 -2.09,0.789 -5.024,0.769 -1.758,-0.011 -4.437,-0.246 -5.953,-0.515 -1.551,-0.278 -4.168,-0.496 -5.965,-0.504 -2.855,-0.012 -3.34,0.058 -4.441,0.644 -1.149,0.61 -1.344,0.899 -1.571,2.313 -0.042,0.289 -0.246,0.578 -0.449,0.64 -0.39,0.125 -2.191,-1.441 -2.457,-2.132 -0.133,-0.34 -0.238,-0.321 -0.625,0.136 -0.258,0.305 -0.613,1 -0.797,1.547 -0.453,1.375 0.106,2.406 1.723,3.184 l 1.258,0.597 -0.742,0.461 c -1.528,0.946 -4.125,0.297 -5.063,-1.265 -0.265,-0.442 -0.558,-0.805 -0.644,-0.805 -0.09,-0.004 -0.594,0.422 -1.125,0.938 -1.969,1.925 -1.293,4.777 1.347,5.648 1.407,0.465 2.649,0.109 2.91,-0.828 0.395,-1.434 1.625,0.449 1.403,2.148 -0.145,1.133 -0.125,1.172 0.66,1.172 1.086,0 3.398,-1.43 4.117,-2.539 0.832,-1.293 0.77,-3.328 -0.144,-4.844 l -0.719,-1.191 0.941,0.191 c 1.375,0.274 2.715,1.129 3.395,2.168 0.715,1.098 0.793,3.235 0.156,4.387 -0.613,1.117 -0.543,1.297 0.367,0.918 1.547,-0.641 2.375,-1.352 2.992,-2.562 0.563,-1.094 0.59,-1.368 0.289,-2.504 -0.187,-0.704 -0.601,-1.625 -0.921,-2.055 -0.5,-0.664 -0.516,-0.774 -0.122,-0.774 0.743,0 2.293,0.7 2.84,1.286 0.282,0.297 0.684,1.023 0.903,1.621 l 0.394,1.078 0.453,-0.824 c 0.645,-1.164 1.891,-2.211 3.414,-2.864 1.633,-0.703 2.317,-0.742 1.461,-0.086 -0.578,0.442 -1.64,3.563 -1.316,3.868 0.187,0.179 2.41,-1.532 4.945,-3.805 2.399,-2.156 3.906,-2.863 6.114,-2.863 2.816,0 4.453,2.453 3.187,4.769 -0.738,1.352 -2.383,1.539 -3.344,0.383 -0.441,-0.531 -0.562,-0.957 -0.433,-1.516 0.16,-0.683 0.097,-0.773 -0.524,-0.773 -0.82,0 -2.433,1.047 -5.297,3.437 -4.371,3.645 -9.679,6.735 -13.511,7.864 -2.461,0.726 -7.715,1.008 -10.215,0.55 -2.707,-0.496 -5.906,-2.042 -7.653,-3.703 -3.089,-2.937 -3.136,-6.847 -0.128,-10.406 l 0.863,-1.019 -0.586,-0.907 c -0.848,-1.32 -0.774,-3.093 0.18,-4.398 0.421,-0.578 0.847,-1.051 0.945,-1.047 0.098,0 0.207,0.367 0.238,0.82 0.086,1.145 0.574,1.91 1.418,2.215 0.762,0.274 1.25,0.145 4.723,-1.242 3.656,-1.461 9.668,-1.559 16.058,-0.27 3.133,0.633 6.829,0.594 8.454,-0.085 2.976,-1.247 3.667,-4.497 1.476,-6.961 -0.945,-1.067 -1.859,-1.5 -4.93,-2.344 -2.336,-0.641 -2.89,-0.684 -8.199,-0.629 -4.539,0.043 -6.168,-0.043 -8.019,-0.43 -2.008,-0.418 -3.246,-0.461 -9.153,-0.312 l -6.828,0.172 0.758,-0.629 c 0.418,-0.344 1.004,-0.77 1.309,-0.942 0.515,-0.297 0.496,-0.336 -0.27,-0.617 -0.449,-0.168 -1.445,-0.305 -2.219,-0.305 h -1.398 l -0.192,-1.191 c -0.101,-0.652 -0.093,-1.418 0.02,-1.699 0.168,-0.41 0.105,-0.469 -0.328,-0.313 -0.297,0.11 -1.117,0.317 -1.824,0.469 -0.711,0.148 -1.664,0.457 -2.121,0.68 -0.766,0.375 -0.852,0.367 -1.137,-0.133 -0.25,-0.449 -2.625,-2.215 -2.973,-2.215 -0.055,0 -0.129,0.34 -0.16,0.758 -0.031,0.414 -0.375,1.5 -0.762,2.406 -0.386,0.906 -0.789,1.899 -0.894,2.199 -0.16,0.457 -0.235,0.481 -0.43,0.141 -0.129,-0.227 -0.316,-0.848 -0.418,-1.379 -0.098,-0.527 -0.457,-1.387 -0.793,-1.91 l -0.609,-0.949 -0.391,0.812 c -0.418,0.871 -1.113,1.774 -1.363,1.774 -0.086,0 -0.231,-0.278 -0.324,-0.618 -0.192,-0.71 -1.84,-2.683 -2.243,-2.683 -0.144,0 -0.265,0.555 -0.265,1.238 0,0.68 -0.133,1.238 -0.293,1.238 -0.16,0 -0.289,-0.175 -0.289,-0.39 0,-0.528 -1.406,-2.086 -1.879,-2.086 -0.207,0 -0.539,-0.188 -0.738,-0.414 -0.52,-0.59 -0.942,-0.508 -0.723,0.14 0.102,0.305 0.035,1.02 -0.148,1.582 -0.184,0.567 -0.379,1.168 -0.434,1.34 -0.07,0.211 -0.574,0.157 -1.641,-0.187 -1.726,-0.551 -2.3,-0.453 -1.418,0.242 0.328,0.254 0.821,1.133 1.098,1.953 0.277,0.82 0.691,1.551 0.914,1.617 0.313,0.098 0.297,-0.019 -0.074,-0.519 -0.262,-0.36 -0.481,-0.836 -0.481,-1.071 0,-0.23 -0.199,-0.777 -0.441,-1.218 -0.242,-0.438 -0.395,-0.84 -0.336,-0.895 0.055,-0.051 0.711,0.199 1.457,0.555 l 1.356,0.652 0.007,-0.582 c 0,-0.32 0.164,-1.164 0.364,-1.875 l 0.355,-1.297 0.922,0.426 c 0.945,0.434 1.84,1.981 1.84,3.18 0,0.59 0.34,0.5 0.476,-0.129 0.043,-0.184 0.254,-0.879 0.473,-1.543 l 0.402,-1.203 0.629,0.761 c 0.348,0.418 0.785,1.239 0.969,1.825 0.32,1.015 0.828,1.449 0.828,0.715 0,-0.532 1.449,-2.438 1.727,-2.274 0.136,0.078 0.406,0.793 0.597,1.59 0.407,1.652 1.055,2.777 1.469,2.535 0.156,-0.094 0.215,-0.269 0.137,-0.394 -0.082,-0.125 0.25,-1.2 0.738,-2.387 0.492,-1.192 0.984,-2.387 1.094,-2.66 0.18,-0.442 0.34,-0.379 1.39,0.55 0.653,0.575 1.247,1.223 1.317,1.434 0.109,0.32 0.254,0.309 0.863,-0.07 0.856,-0.531 3.727,-1.383 3.949,-1.172 0.082,0.078 0.168,0.832 0.192,1.676 l 0.035,1.531 0.824,-0.172 c 0.457,-0.094 1.41,-0.086 2.125,0.016 l 1.297,0.183 -1.156,0.793 c -0.637,0.434 -1.278,1 -1.43,1.25 -0.156,0.274 -0.723,0.5 -1.363,0.555 -1.731,0.148 -4.801,1.867 -4.801,2.691 0,0.157 0.426,-0.105 0.945,-0.582 1.153,-1.054 2.754,-1.718 4.153,-1.718 h 1.043 l -0.645,0.859 c -0.371,0.496 -0.707,1.434 -0.785,2.203 -0.125,1.231 -0.254,1.426 -1.539,2.32 -0.77,0.536 -1.727,1.34 -2.121,1.786 l -0.723,0.808 -0.367,-0.961 c -0.203,-0.527 -0.449,-0.965 -0.547,-0.965 -0.101,0 -0.488,0.313 -0.863,0.692 -0.379,0.375 -0.762,0.683 -0.852,0.683 -0.093,-0.004 -0.426,-0.511 -0.738,-1.132 l -0.57,-1.129 -0.446,0.652 c -0.242,0.355 -0.816,0.988 -1.273,1.406 -0.457,0.414 -0.699,0.754 -0.535,0.754 0.164,0 0.73,-0.43 1.258,-0.961 l 0.957,-0.965 0.39,0.707 c 0.235,0.418 0.321,1.063 0.215,1.582 -0.152,0.758 -0.133,0.801 0.16,0.329 0.184,-0.305 0.746,-0.883 1.246,-1.29 l 0.91,-0.742 0.629,1.153 c 0.629,1.148 0.633,1.148 0.918,0.464 0.379,-0.914 3.137,-3.175 5.481,-4.496 0.363,-0.203 0.211,0.496 -0.457,2.106 -0.18,0.426 -0.321,1.195 -0.321,1.707 0,0.762 -0.222,1.101 -1.195,1.84 -1.402,1.07 -1.855,1.828 -2.121,3.554 -0.109,0.696 -0.355,1.473 -0.547,1.727 -0.289,0.371 -0.336,0.16 -0.258,-1.133 0.051,-0.875 -0.062,-1.961 -0.254,-2.414 l -0.343,-0.828 -0.27,0.687 c -0.148,0.379 -0.797,1.04 -1.445,1.465 -0.652,0.426 -1.106,0.844 -1.016,0.934 0.094,0.086 0.762,-0.301 1.485,-0.863 1.101,-0.856 1.347,-0.95 1.5,-0.571 0.179,0.442 0,2.367 -0.348,3.715 -0.172,0.672 -0.156,0.668 0.672,-0.16 0.609,-0.613 0.949,-1.344 1.211,-2.613 0.332,-1.617 0.5,-1.887 1.996,-3.2 0.898,-0.789 1.68,-1.39 1.738,-1.335 0.055,0.054 0.168,2.093 0.25,4.531 0.156,4.676 -0.019,5.789 -1.144,7.234 l -0.578,0.742 0.906,0.981 c 1.187,1.281 1.734,2.305 1.969,3.707 l 0.191,1.137 -1.024,-0.973 c -0.843,-0.793 -1.242,-0.973 -2.218,-0.973 -0.961,0 -1.34,0.164 -1.989,0.856 -0.781,0.832 -2.16,1.629 -3.488,2.019 -0.492,0.145 -0.656,0.082 -0.656,-0.25 0,-0.246 -0.27,-0.945 -0.602,-1.562 l -0.601,-1.117 -1.262,1.246 c -0.773,0.765 -1.691,1.363 -2.375,1.543 -1.746,0.457 -1.84,0.41 -1.84,-0.887 0,-1.977 -0.844,-2.344 -2.359,-1.031 -1.156,1 -2.113,1.218 -4.305,0.976 l -1.695,-0.187 0.305,-0.762 c 0.253,-0.641 0.199,-0.91 -0.348,-1.633 -0.883,-1.176 -2.031,-1.683 -3.801,-1.683 -0.816,0 -1.836,-0.172 -2.266,-0.375 -0.433,-0.207 -1.503,-0.446 -2.382,-0.532 -0.879,-0.082 -1.817,-0.23 -2.082,-0.332 -0.418,-0.156 -0.461,-0.027 -0.328,0.918 0.203,1.45 -0.809,2.52 -2.387,2.52 -2.047,0 -2.988,-1.832 -2.188,-4.246 0.153,-0.465 0.356,-1.196 0.45,-1.629 0.093,-0.445 1.015,-1.633 2.144,-2.762 1.09,-1.09 2.117,-2.223 2.285,-2.519 0.172,-0.297 0.731,-0.77 1.242,-1.055 l 0.934,-0.52 -0.121,1 c -0.137,1.098 0.101,1.27 0.687,0.496 0.207,-0.277 0.739,-0.722 1.176,-0.996 0.695,-0.425 0.801,-0.433 0.801,-0.062 0,0.234 0.141,0.773 0.312,1.199 l 0.317,0.774 0.543,-1.051 c 0.301,-0.582 1.273,-1.899 2.164,-2.93 1.726,-2 2.777,-4.234 2.234,-4.746 -0.218,-0.211 -0.816,-0.195 -2.051,0.055 -0.957,0.191 -2.14,0.293 -2.628,0.226 -1,-0.14 -1.079,-0.012 -0.465,0.758 0.648,0.813 0.547,0.949 -0.731,0.949 -1.472,0 -5.136,0.707 -6.543,1.262 -1.367,0.543 -1.683,0.406 -2.086,-0.891 -0.179,-0.582 -0.511,-1.64 -0.734,-2.347 l -0.41,-1.289 1.48,0.14 c 0.813,0.078 1.86,0.258 2.325,0.399 0.464,0.136 0.89,0.211 0.941,0.164 0.051,-0.051 -0.156,-0.555 -0.461,-1.121 l -0.555,-1.032 0.922,0.192 c 0.508,0.101 1.27,0.355 1.695,0.558 0.743,0.36 0.801,0.332 1.383,-0.601 0.719,-1.156 1.293,-1.11 1.422,0.113 0.133,1.266 0.547,1.078 1.328,-0.598 0.754,-1.609 1.535,-2.175 1.688,-1.222 0.047,0.316 0.453,0.832 0.898,1.144 0.903,0.637 1.578,0.446 1.969,-0.55 0.402,-1.032 -0.496,-2.094 -3.109,-3.676 -5.235,-3.172 -8.278,-7.512 -9.145,-13.043 -0.781,-4.988 1.664,-10.145 6.574,-13.848 2.348,-1.769 6.078,-3.64 5.84,-2.926 -1.004,3.028 -0.973,8.813 0.059,9.786 0.152,0.148 0.101,-0.458 -0.117,-1.34 -0.821,-3.293 -0.465,-5.914 1.632,-12.063 1.895,-5.558 1.633,-7.937 -1.05,-9.508 -0.864,-0.504 -1.418,-0.586 -3.735,-0.558 -2.515,0.031 -2.789,-0.02 -3.594,-0.664 -0.785,-0.625 -1.796,-2.672 -1.796,-3.625 0,-0.52 0.574,-0.453 1.703,0.203 v 0"
         style="fill:#f9af0b;fill-opacity:1;fill-rule:nonzero;stroke:none"
         id="path38" /><path
         d="m 227.246,114.492 1.055,0.68 0.715,-0.68 c 0.937,-0.887 2.035,-0.867 2.937,0.055 0.395,0.402 0.746,0.68 0.785,0.617 0.039,-0.059 0.215,-0.355 0.391,-0.66 0.223,-0.383 0.68,-0.574 1.508,-0.633 0.996,-0.07 1.265,0.024 1.66,0.598 l 0.473,0.683 1.039,-0.668 c 2.839,-1.828 4.355,0.09 3.086,3.907 -0.645,1.941 -0.29,3.031 1.793,5.5 0.875,1.043 1.593,2.156 1.597,2.472 0,0.504 -0.164,0.575 -1.332,0.551 -1.117,-0.023 -1.445,0.098 -2.035,0.742 -0.957,1.055 -0.898,2.262 0.172,3.602 l 0.855,1.07 -1.519,1.027 c -0.832,0.567 -2.336,1.907 -3.34,2.977 -2.258,2.406 -4.477,3.547 -7.402,3.805 l -1.961,0.176 0.004,-1.485 c 0.003,-1.91 0.902,-3.75 3.347,-6.863 2.785,-3.543 2.981,-4.09 3.09,-8.719 l 0.098,-3.91 -0.805,-0.766 c -0.73,-0.691 -1.059,-0.781 -3.406,-0.914 -2.235,-0.129 -2.703,-0.246 -3.36,-0.828 -0.871,-0.769 -1.132,-1.187 -1.402,-2.254 -0.156,-0.625 -0.094,-0.758 0.356,-0.758 0.3,0 1.019,0.305 1.601,0.676 v 0"
         style="fill:#f9af0b;fill-opacity:1;fill-rule:nonzero;stroke:none"
         id="path40" /><path
         d="m 167.422,124.609 c 0.25,0.336 0.449,0.879 0.449,1.207 0,0.493 0.223,0.625 1.313,0.782 l 1.304,0.183 -0.871,0.696 c -1.035,0.828 -1.133,1.472 -0.219,1.472 0.911,0 2.454,0.946 2.688,1.645 0.105,0.328 0.039,0.761 -0.156,0.984 -0.512,0.582 -1.469,0.492 -1.649,-0.152 -0.191,-0.692 -0.511,-0.696 -1.238,-0.004 -1.094,1.031 -1.117,3.176 -0.051,4.426 0.504,0.586 0.5,0.625 -0.144,1.234 -0.688,0.652 -1.18,1.945 -0.856,2.254 0.102,0.098 0.649,0.019 1.211,-0.176 0.801,-0.273 1.113,-0.277 1.445,-0.019 0.997,0.785 -0.085,1.797 -1.683,1.574 -0.645,-0.09 -0.914,0 -1.004,0.332 -0.07,0.254 -0.637,0.586 -1.27,0.746 -1.132,0.285 -1.14,0.281 -1.14,-0.496 0,-0.859 -0.492,-1.02 -1.418,-0.473 -0.758,0.449 -1.488,0.102 -1.488,-0.703 0,-0.75 0.753,-1.121 2.105,-1.031 1.035,0.066 1.074,-0.707 0.09,-1.813 l -0.707,-0.797 0.558,-0.808 c 0.832,-1.192 0.762,-3.176 -0.144,-4.16 l -0.711,-0.774 -0.469,0.621 c -0.648,0.86 -1.535,0.801 -1.777,-0.117 -0.16,-0.601 -0.031,-0.875 0.723,-1.512 0.507,-0.429 1.246,-0.781 1.64,-0.781 0.985,0 0.945,-0.769 -0.074,-1.551 l -0.801,-0.613 1.235,-0.191 c 0.679,-0.106 1.238,-0.301 1.238,-0.438 0,-0.527 0.855,-2.16 1.129,-2.16 0.16,0 0.492,0.277 0.742,0.613 v 0"
         style="fill:#f9af0b;fill-opacity:1;fill-rule:nonzero;stroke:none"
         id="path42" /><path
         d="m 183.5,131.578 c 1.121,0.442 3.551,2.496 3.551,3.008 0,0.156 -0.672,0.894 -1.492,1.637 -1.723,1.558 -3.598,4.183 -4.082,5.722 -0.254,0.797 -1.481,2.168 -4.926,5.516 l -4.59,4.449 -1.32,-0.336 c -0.727,-0.183 -1.618,-0.34 -1.973,-0.344 -0.617,-0.011 -0.605,-0.046 0.215,-0.679 l 0.863,-0.668 1.211,0.672 c 1.172,0.652 1.215,0.656 1.359,0.129 0.086,-0.305 -0.097,-0.836 -0.421,-1.227 -0.317,-0.379 -0.497,-0.809 -0.399,-0.957 0.094,-0.145 -0.207,-0.449 -0.672,-0.68 -0.859,-0.422 -1.461,-1.808 -0.777,-1.808 0.609,0 1.957,1.664 1.805,2.226 -0.082,0.289 -0.043,0.582 0.082,0.657 0.527,0.308 0.496,-0.997 -0.039,-1.641 -0.317,-0.379 -0.497,-0.809 -0.399,-0.953 0.094,-0.149 -0.207,-0.453 -0.672,-0.68 -0.855,-0.422 -1.461,-1.812 -0.785,-1.812 0.66,0 1.984,1.589 1.82,2.183 -0.086,0.313 -0.05,0.629 0.075,0.703 0.355,0.207 0.546,-0.824 0.246,-1.332 -0.16,-0.269 -0.157,-0.636 0.004,-0.929 0.296,-0.532 -0.004,-1.551 -0.543,-1.868 -0.235,-0.136 -0.078,-0.406 0.488,-0.828 0.812,-0.617 0.828,-0.679 0.828,-3.394 0,-2.27 0.094,-2.856 0.508,-3.25 0.469,-0.446 0.512,-0.446 0.512,-0.02 0,0.461 0.812,1.031 1.48,1.031 0.195,0 1.426,-1.042 2.731,-2.312 1.312,-1.281 2.683,-2.371 3.074,-2.441 0.386,-0.071 0.804,-0.141 0.929,-0.164 0.125,-0.02 0.715,0.156 1.309,0.39 v 0"
         style="fill:#f9af0b;fill-opacity:1;fill-rule:nonzero;stroke:none"
         id="path44" /><path
         d="m 169.473,142.555 c 0,0.73 -1.508,1.511 -3.317,1.715 -1.457,0.164 -1.476,0.152 -1.476,-0.575 0,-0.601 0.226,-0.84 1.23,-1.277 1.617,-0.703 3.563,-0.629 3.563,0.137 v 0"
         style="fill:#f9af0b;fill-opacity:1;fill-rule:nonzero;stroke:none"
         id="path46" /><path
         d="m 171.125,142.621 c 0.734,0.668 1.086,1.461 0.641,1.461 -0.508,0 -1.86,-1.211 -1.86,-1.668 0,-0.715 0.25,-0.672 1.219,0.207 v 0"
         style="fill:#f9af0b;fill-opacity:1;fill-rule:nonzero;stroke:none"
         id="path48" /><path
         d="m 169.559,144.785 c 0.058,0.41 -0.196,0.688 -0.961,1.031 -1.649,0.747 -3.621,1.09 -4.098,0.719 -0.875,-0.687 -0.293,-1.613 1.121,-1.777 0.57,-0.067 1.344,-0.242 1.719,-0.387 1.086,-0.422 2.121,-0.23 2.219,0.414"
         style="fill:#f9af0b;fill-opacity:1;fill-rule:nonzero;stroke:none"
         id="path50" /><path
         d="m 169.559,146.992 c 0.086,0.59 -0.289,0.801 -3.364,1.883 -2.293,0.809 -3.308,0.426 -2.574,-0.965 0.254,-0.484 0.684,-0.707 1.645,-0.851 0.714,-0.11 1.691,-0.317 2.172,-0.465 1.281,-0.399 2.019,-0.258 2.121,0.398 v 0"
         style="fill:#f9af0b;fill-opacity:1;fill-rule:nonzero;stroke:none"
         id="path52" /><path
         d="m 171.098,149.066 c 0.461,0.469 0.84,1.024 0.84,1.231 0,0.676 -1.829,-0.52 -2.063,-1.344 -0.281,-0.992 0.172,-0.949 1.223,0.113 v 0"
         style="fill:#f9af0b;fill-opacity:1;fill-rule:nonzero;stroke:none"
         id="path54" /><path
         d="m 169.559,149.203 c 0.097,0.672 -1.016,1.277 -3.207,1.742 -1.61,0.344 -2.321,0.149 -2.2,-0.597 0.067,-0.41 0.602,-0.707 2.121,-1.184 2.434,-0.758 3.165,-0.75 3.286,0.039 v 0"
         style="fill:#f9af0b;fill-opacity:1;fill-rule:nonzero;stroke:none"
         id="path56" /><path
         d="m 171.703,152.324 c 2.809,1.25 3.051,4.406 0.402,5.235 -1.101,0.343 -1.8,0.16 -2.222,-0.586 -0.324,-0.571 -0.11,-1.61 0.332,-1.61 0.148,0 0.273,-0.191 0.273,-0.425 0,-1.094 -4.293,-1.59 -6.05,-0.7 -0.622,0.313 -0.887,1.125 -0.375,1.125 0.386,0 0.652,0.828 0.453,1.414 -0.266,0.801 -1.071,1.078 -2.239,0.774 -2.632,-0.692 -2.558,-3.785 0.121,-5.098 2.2,-1.078 7.02,-1.144 9.305,-0.129 v 0"
         style="fill:#f9af0b;fill-opacity:1;fill-rule:nonzero;stroke:none"
         id="path58" /><path
         d="m 169.953,154.75 c 0.164,0.156 0.094,0.391 -0.18,0.605 -0.597,0.469 -0.566,1.168 0.09,1.969 0.492,0.602 0.555,1.5 0.723,10.563 0.293,15.617 1.453,27.367 2.984,30.183 0.61,1.121 0.524,1.125 -1.05,0.055 -2.032,-1.379 -3.575,-3.176 -4.942,-5.75 -2.586,-4.859 -3.484,-11.395 -3.484,-25.344 0,-7.922 0.054,-8.961 0.508,-9.703 0.425,-0.707 0.449,-0.969 0.148,-1.726 -0.195,-0.489 -0.281,-0.957 -0.195,-1.039 0.578,-0.547 4.781,-0.403 5.398,0.187 v 0"
         style="fill:#f9af0b;fill-opacity:1;fill-rule:nonzero;stroke:none"
         id="path60" /><path
         d="m 193.566,169.645 c 0.086,0.136 -0.109,0.816 -0.433,1.511 -0.508,1.09 -0.711,1.27 -1.438,1.27 -2.265,0 -5.91,1.012 -9.664,2.687 -2.172,0.965 -2.922,1.188 -3.179,0.942 -0.664,-0.629 0.437,-2.121 2.148,-2.903 1.516,-0.695 5.75,-1.55 7.684,-1.55 1.121,0 1.148,-0.051 0.507,-0.973 l -0.468,-0.68 1.269,-0.031 c 0.696,-0.02 1.66,-0.129 2.141,-0.242 1.246,-0.301 1.258,-0.301 1.433,-0.031 v 0"
         style="fill:#f9af0b;fill-opacity:1;fill-rule:nonzero;stroke:none"
         id="path62" /><path
         d="m 206.805,162.605 c 0,0.407 -1.188,1.5 -2.387,2.204 -0.941,0.554 -1.098,0.57 -1.102,0.121 -0.003,-0.688 -0.613,-2.41 -0.851,-2.41 -0.137,0 -0.336,0.335 -0.445,0.75 -0.11,0.41 -0.567,1.218 -1.016,1.8 l -0.816,1.051 -0.637,-0.973 c -0.594,-0.91 -1.625,-1.804 -2.082,-1.804 -0.11,0 -0.129,0.48 -0.047,1.066 0.09,0.637 0.023,1.141 -0.172,1.254 -0.18,0.106 -0.324,0.07 -0.324,-0.078 0,-0.344 -1.43,-1.965 -1.731,-1.965 -0.125,0 -0.297,0.465 -0.386,1.031 -0.09,0.567 -0.239,1.465 -0.336,1.996 -0.094,0.528 0.109,0.168 0.453,-0.8 l 0.625,-1.758 0.687,1.07 c 0.375,0.594 0.688,1.238 0.688,1.434 0,0.199 0.129,0.289 0.285,0.195 0.152,-0.09 0.367,-0.801 0.477,-1.574 l 0.199,-1.414 0.754,0.828 c 0.414,0.457 0.902,1.066 1.082,1.355 0.32,0.516 0.34,0.516 0.972,-0.023 0.36,-0.305 0.907,-1.027 1.223,-1.609 0.312,-0.582 0.609,-1.016 0.664,-0.965 0.051,0.054 0.164,0.652 0.254,1.336 0.09,0.679 0.168,1.261 0.176,1.293 0.047,0.168 2.273,-1.282 3.101,-2.016 0.528,-0.469 1.032,-0.789 1.117,-0.711 0.086,0.082 0.157,0.777 0.157,1.547 0,1.195 -0.125,1.512 -0.856,2.168 -0.84,0.75 -0.863,0.754 -1.172,0.203 -0.406,-0.711 -0.879,-0.723 -0.879,-0.019 0,0.511 -1.585,2.488 -1.996,2.488 -0.109,0 -0.441,-0.434 -0.742,-0.965 -0.301,-0.531 -0.625,-0.961 -0.722,-0.961 -0.407,0.004 -2.641,2.492 -2.641,2.941 0,0.36 0.152,0.27 0.543,-0.328 0.301,-0.457 0.894,-1.133 1.32,-1.508 0.871,-0.757 1.188,-0.574 1.524,0.887 0.093,0.418 0.261,0.758 0.367,0.758 0.371,0 2.316,-2.066 2.594,-2.754 l 0.273,-0.687 0.207,0.757 c 0.254,0.926 0.535,0.961 0.941,0.118 0.168,-0.356 1.008,-1.086 1.864,-1.629 l 1.554,-0.992 0.313,0.996 c 0.172,0.546 0.398,0.859 0.504,0.699 0.156,-0.242 -0.246,-1.891 -0.551,-2.246 -0.047,-0.051 -0.551,0.242 -1.117,0.652 l -1.039,0.75 -0.004,-1.34 c 0,-0.738 -0.082,-1.621 -0.18,-1.961 -0.187,-0.664 -0.687,-0.851 -0.687,-0.258 v 0"
         style="fill:#100f0d;fill-opacity:1;fill-rule:nonzero;stroke:none"
         id="path64" /><path
         d="m 199.059,173.285 c -1.848,1.543 -2.129,1.895 -2.086,2.625 l 0.043,0.781 0.121,-0.753 c 0.066,-0.438 0.558,-1.094 1.179,-1.579 l 1.063,-0.828 0.652,0.754 c 0.36,0.414 0.657,0.906 0.664,1.098 0.016,0.492 0.102,0.453 1.352,-0.633 1.113,-0.965 1.129,-0.969 1.297,-0.344 0.09,0.348 0.058,1.004 -0.074,1.457 -0.364,1.246 -0.293,1.434 0.257,0.68 0.274,-0.371 0.715,-0.902 0.981,-1.176 0.461,-0.472 0.488,-0.465 0.656,0.141 0.102,0.347 0.184,0.984 0.184,1.414 l 0.004,0.781 1.003,-1.133 c 0.934,-1.062 1.024,-1.101 1.309,-0.593 0.168,0.296 0.305,1.011 0.309,1.589 0.004,0.747 0.082,0.934 0.269,0.649 0.321,-0.473 0.098,-1.766 -0.484,-2.863 l -0.422,-0.793 -0.551,0.859 c -0.707,1.098 -0.941,1.082 -1.39,-0.105 -0.43,-1.118 -0.707,-1.204 -1.125,-0.344 -0.27,0.558 -0.321,0.492 -0.512,-0.68 l -0.211,-1.301 -1.274,0.989 -1.277,0.988 -0.57,-0.652 c -0.317,-0.356 -0.578,-0.805 -0.582,-0.993 -0.012,-0.41 -0.321,-0.425 -0.785,-0.035 v 0"
         style="fill:#100f0d;fill-opacity:1;fill-rule:nonzero;stroke:none"
         id="path66" /><path
         d="m 215.484,179.031 c -0.671,0.606 -1.132,1.184 -1.027,1.282 0.106,0.101 0.227,0.132 0.266,0.066 0.039,-0.066 0.59,-0.645 1.222,-1.285 1.453,-1.477 1.153,-1.516 -0.461,-0.063 v 0"
         style="fill:#100f0d;fill-opacity:1;fill-rule:nonzero;stroke:none"
         id="path68" /><path
         d="m 193.602,181.293 c -0.61,0.824 -0.567,1.371 0.175,2.27 0.539,0.648 0.786,0.734 1.723,0.617 0.602,-0.078 1.898,-0.61 2.883,-1.184 1.133,-0.664 2.308,-1.105 3.215,-1.219 0.789,-0.093 1.429,-0.129 1.429,-0.078 0,0.051 -0.324,0.582 -0.722,1.184 -0.95,1.422 -0.918,1.574 0.152,0.722 1.098,-0.875 2.41,-1.132 5.348,-1.042 l 1.433,0.042 -0.832,0.825 c -1.164,1.148 -0.804,1.254 0.481,0.136 1.207,-1.046 1.129,-1.121 -1.407,-1.371 -1.078,-0.109 -2.238,-0.031 -3.203,0.215 -1.441,0.367 -1.496,0.36 -1.222,-0.125 0.156,-0.277 0.41,-0.504 0.566,-0.504 0.152,0 0.277,-0.14 0.277,-0.312 0,-0.531 -3.113,-0.067 -4.601,0.687 -3.399,1.723 -3.824,1.871 -4.637,1.617 -0.449,-0.144 -0.898,-0.558 -1.055,-0.972 -0.515,-1.391 1.45,-2.469 2.262,-1.242 0.238,0.355 0.184,0.597 -0.23,1.031 -0.567,0.594 -0.516,0.68 0.25,0.398 0.543,-0.195 0.617,-1.5 0.109,-1.976 -0.574,-0.547 -1.894,-0.395 -2.394,0.281 v 0"
         style="fill:#100f0d;fill-opacity:1;fill-rule:nonzero;stroke:none"
         id="path70" /><path
         d="m 206.992,184.719 c -0.426,0.402 -0.09,0.504 1.817,0.539 2.355,0.043 3.789,0.437 5.476,1.504 1.356,0.851 1.723,0.683 0.438,-0.199 -1.172,-0.809 -3,-1.43 -4.766,-1.622 -0.855,-0.093 -1.828,-0.218 -2.164,-0.285 -0.336,-0.062 -0.695,-0.035 -0.801,0.063 v 0"
         style="fill:#100f0d;fill-opacity:1;fill-rule:nonzero;stroke:none"
         id="path72" /><path
         d="m 258.688,178.641 c -2.208,0 -3.715,0.707 -6.114,2.863 -2.535,2.273 -4.758,3.984 -4.945,3.805 -0.324,-0.305 0.738,-3.426 1.316,-3.868 0.856,-0.656 0.172,-0.617 -1.461,0.086 -1.523,0.653 -2.769,1.7 -3.414,2.864 l -0.453,0.824 -0.394,-1.078 c -0.219,-0.598 -0.621,-1.324 -0.903,-1.621 -0.547,-0.586 -2.097,-1.286 -2.84,-1.286 -0.394,0 -0.378,0.11 0.122,0.774 0.32,0.43 0.734,1.351 0.921,2.055 0.301,1.136 0.274,1.41 -0.289,2.504 -0.617,1.21 -1.445,1.921 -2.992,2.562 -0.91,0.379 -0.98,0.199 -0.367,-0.918 0.637,-1.152 0.559,-3.289 -0.156,-4.387 -0.68,-1.039 -2.02,-1.894 -3.395,-2.168 l -0.941,-0.191 0.719,1.191 c 0.914,1.516 0.976,3.551 0.144,4.844 -0.719,1.109 -3.031,2.539 -4.117,2.539 -0.785,0 -0.805,-0.039 -0.66,-1.172 0.222,-1.699 -1.008,-3.582 -1.403,-2.148 -0.261,0.937 -1.503,1.293 -2.91,0.828 -2.64,-0.871 -3.316,-3.723 -1.347,-5.648 0.531,-0.516 1.035,-0.942 1.125,-0.938 0.086,0 0.379,0.363 0.644,0.805 0.938,1.562 3.535,2.211 5.063,1.265 l 0.742,-0.461 -1.258,-0.597 c -1.617,-0.778 -2.176,-1.809 -1.723,-3.184 0.184,-0.547 0.539,-1.242 0.797,-1.547 0.387,-0.457 0.492,-0.476 0.625,-0.136 0.266,0.691 2.067,2.257 2.457,2.132 0.203,-0.062 0.407,-0.351 0.449,-0.64 0.227,-1.414 0.422,-1.703 1.571,-2.313 1.101,-0.586 1.586,-0.656 4.441,-0.644 1.797,0.008 4.414,0.226 5.965,0.504 1.516,0.269 4.195,0.504 5.953,0.515 2.934,0.02 3.348,-0.047 5.024,-0.769 5.464,-2.375 6.39,-8.528 1.851,-12.289 l -1.484,-1.235 1.156,-1.543 c 0.637,-0.851 1.512,-2.394 1.941,-3.433 0.704,-1.696 0.782,-2.231 0.774,-5.324 -0.008,-3.829 -0.234,-4.883 -2.289,-10.602 -2.024,-5.637 -2.289,-9.02 -0.942,-12.039 0.664,-1.488 1.704,-2.399 2.735,-2.399 1.672,0 0.992,-2.027 -1.203,-3.597 -1.809,-1.293 -2.285,-2.063 -2.258,-3.653 0.015,-1.14 0.457,-2.144 1.855,-4.242 0.328,-0.496 0.52,-1.101 0.418,-1.343 -0.258,-0.641 -2.664,-0.293 -3.605,0.523 -0.5,0.434 -0.746,0.516 -0.84,0.269 -0.484,-1.281 -2.191,-1.531 -3.477,-0.507 l -0.828,0.66 -0.808,-0.66 c -1.075,-0.871 -2.364,-0.868 -2.969,0.007 l -0.461,0.668 -1.039,-0.668 c -1.418,-0.91 -1.949,-0.882 -1.695,0.09 0.472,1.821 2.234,3.129 5.043,3.75 3.289,0.727 3.425,0.965 3.148,5.313 -0.277,4.289 -0.523,4.605 -6.352,8.254 -2.734,1.711 -4.226,2.875 -5.781,4.504 -2.929,3.074 -4.699,3.882 -8.847,4.058 -4.954,0.207 -7.582,-0.472 -15.239,-3.937 -2.797,-1.266 -5.453,-2.387 -5.906,-2.492 l -0.82,-0.192 0.859,1.621 c 2.141,4.016 3.551,9.61 2.766,10.946 -0.196,0.324 -0.282,-0.18 -0.285,-1.68 -0.016,-3.36 -2.145,-8.629 -5.672,-14.043 -2.164,-3.32 -1.602,-5.109 1.726,-5.481 0.836,-0.093 1.524,-0.261 1.524,-0.367 0,-0.406 -1.754,-2.465 -2.391,-2.808 -0.363,-0.196 -1.383,-0.606 -2.262,-0.911 -1.589,-0.554 -1.593,-0.562 -1.539,-1.652 0.035,-0.605 0.145,-1.609 0.246,-2.234 0.157,-0.942 0.055,-1.332 -0.593,-2.305 -0.774,-1.156 -0.793,-1.168 -2.114,-0.992 -0.73,0.094 -1.562,0.367 -1.847,0.613 -0.477,0.406 -0.575,0.395 -1.293,-0.14 -1.028,-0.762 -2.637,-0.762 -3.5,0.003 l -0.657,0.582 -0.781,-0.582 c -1.023,-0.761 -2.566,-0.769 -3.125,-0.015 l -0.418,0.562 -0.976,-0.562 v 0 c -1.129,-0.656 -1.703,-0.723 -1.703,-0.203 0,0.953 1.011,3 1.796,3.625 0.805,0.644 1.079,0.695 3.594,0.664 2.317,-0.028 2.871,0.054 3.735,0.558 2.683,1.571 2.945,3.95 1.05,9.508 -2.097,6.149 -2.453,8.77 -1.632,12.063 0.218,0.882 0.269,1.488 0.117,1.34 -1.032,-0.973 -1.063,-6.758 -0.059,-9.786 0.238,-0.714 -3.492,1.157 -5.84,2.926 -4.91,3.703 -7.355,8.86 -6.574,13.848 0.867,5.531 3.91,9.871 9.145,13.043 2.613,1.582 3.511,2.644 3.109,3.676 -0.391,0.996 -1.066,1.187 -1.969,0.55 -0.445,-0.312 -0.851,-0.828 -0.898,-1.144 -0.153,-0.953 -0.934,-0.387 -1.688,1.222 -0.781,1.676 -1.195,1.864 -1.328,0.598 -0.129,-1.223 -0.703,-1.269 -1.422,-0.113 -0.582,0.933 -0.64,0.961 -1.383,0.601 -0.425,-0.203 -1.187,-0.457 -1.695,-0.558 l -0.922,-0.192 0.555,1.032 c 0.305,0.566 0.512,1.07 0.461,1.121 -0.051,0.047 -0.477,-0.028 -0.941,-0.164 -0.465,-0.141 -1.512,-0.321 -2.325,-0.399 l -1.48,-0.14 0.41,1.289 c 0.223,0.707 0.555,1.765 0.734,2.347 0.403,1.297 0.719,1.434 2.086,0.891 1.407,-0.555 5.071,-1.262 6.543,-1.262 1.278,0 1.379,-0.136 0.731,-0.949 -0.614,-0.77 -0.535,-0.898 0.465,-0.758 0.488,0.067 1.671,-0.035 2.628,-0.226 1.235,-0.25 1.833,-0.266 2.051,-0.055 0.543,0.512 -0.508,2.746 -2.234,4.746 -0.891,1.031 -1.863,2.348 -2.164,2.93 l -0.543,1.051 -0.317,-0.774 c -0.171,-0.426 -0.312,-0.965 -0.312,-1.199 0,-0.371 -0.106,-0.363 -0.801,0.062 -0.437,0.27 -0.969,0.719 -1.176,0.996 -0.586,0.774 -0.824,0.602 -0.687,-0.496 l 0.121,-1 -0.934,0.52 c -0.511,0.285 -1.07,0.758 -1.242,1.055 -0.168,0.296 -1.195,1.429 -2.285,2.519 -1.129,1.129 -2.051,2.317 -2.144,2.762 -0.094,0.433 -0.297,1.164 -0.45,1.629 -0.8,2.414 0.141,4.246 2.188,4.246 1.578,0 2.59,-1.07 2.387,-2.52 -0.133,-0.945 -0.09,-1.074 0.328,-0.918 0.265,0.102 1.203,0.25 2.082,0.332 0.879,0.086 1.949,0.325 2.382,0.532 0.43,0.203 1.45,0.375 2.266,0.375 1.77,0 2.918,0.507 3.801,1.683 0.547,0.723 0.601,0.992 0.348,1.633 l -0.305,0.762 1.695,0.187 c 2.192,0.242 3.149,0.024 4.305,-0.976 1.515,-1.313 2.359,-0.946 2.359,1.031 0,1.297 0.094,1.344 1.84,0.887 0.684,-0.18 1.602,-0.778 2.375,-1.543 l 1.262,-1.246 0.601,1.117 c 0.332,0.617 0.602,1.316 0.602,1.562 0,0.332 0.164,0.395 0.656,0.25 1.328,-0.39 2.707,-1.187 3.488,-2.019 0.649,-0.692 1.028,-0.856 1.989,-0.856 0.976,0 1.375,0.18 2.218,0.973 l 1.024,0.973 -0.191,-1.137 c -0.235,-1.402 -0.782,-2.426 -1.969,-3.707 l -0.906,-0.981 0.578,-0.742 c 1.125,-1.445 1.3,-2.558 1.144,-7.234 -0.082,-2.438 -0.195,-4.477 -0.25,-4.531 -0.058,-0.055 -0.84,0.546 -1.738,1.335 -1.496,1.313 -1.664,1.583 -1.996,3.2 -0.262,1.269 -0.602,2 -1.211,2.613 -0.828,0.828 -0.844,0.832 -0.672,0.16 0.348,-1.348 0.527,-3.273 0.348,-3.715 -0.153,-0.379 -0.399,-0.285 -1.5,0.571 -0.723,0.562 -1.391,0.949 -1.485,0.863 -0.09,-0.09 0.364,-0.508 1.016,-0.934 0.648,-0.425 1.297,-1.086 1.445,-1.465 l 0.27,-0.687 0.343,0.828 c 0.192,0.453 0.305,1.539 0.254,2.414 -0.078,1.293 -0.031,1.504 0.258,1.133 0.192,-0.254 0.438,-1.031 0.547,-1.727 0.266,-1.726 0.719,-2.484 2.121,-3.554 0.973,-0.739 1.195,-1.078 1.195,-1.84 0,-0.512 0.141,-1.281 0.321,-1.707 0.668,-1.61 0.82,-2.309 0.457,-2.106 -2.344,1.321 -5.102,3.582 -5.481,4.496 -0.285,0.684 -0.289,0.684 -0.918,-0.464 l -0.629,-1.153 -0.91,0.742 c -0.5,0.407 -1.062,0.985 -1.246,1.29 -0.293,0.472 -0.312,0.429 -0.16,-0.329 0.106,-0.519 0.02,-1.164 -0.215,-1.582 l -0.39,-0.707 -0.957,0.965 c -0.528,0.531 -1.094,0.961 -1.258,0.961 -0.164,0 0.078,-0.34 0.535,-0.754 0.457,-0.418 1.031,-1.051 1.273,-1.406 l 0.446,-0.652 0.57,1.129 c 0.312,0.621 0.645,1.128 0.738,1.132 0.09,0 0.473,-0.308 0.852,-0.683 0.375,-0.379 0.762,-0.692 0.863,-0.692 0.098,0 0.344,0.438 0.547,0.965 l 0.367,0.961 0.723,-0.808 c 0.394,-0.446 1.351,-1.25 2.121,-1.786 1.285,-0.894 1.414,-1.089 1.539,-2.32 0.078,-0.769 0.414,-1.707 0.785,-2.203 l 0.645,-0.859 h -1.043 c -1.399,0 -3,0.664 -4.153,1.718 -0.519,0.477 -0.945,0.739 -0.945,0.582 0,-0.824 3.07,-2.543 4.801,-2.691 0.64,-0.055 1.207,-0.281 1.363,-0.555 0.152,-0.25 0.793,-0.816 1.43,-1.25 l 1.156,-0.793 -1.297,-0.183 c -0.715,-0.102 -1.668,-0.11 -2.125,-0.016 l -0.824,0.172 -0.035,-1.531 c -0.024,-0.844 -0.11,-1.598 -0.192,-1.676 -0.222,-0.211 -3.093,0.641 -3.949,1.172 -0.609,0.379 -0.754,0.39 -0.863,0.07 -0.07,-0.211 -0.664,-0.859 -1.317,-1.434 -1.05,-0.929 -1.21,-0.992 -1.39,-0.55 -0.11,0.273 -0.602,1.468 -1.094,2.66 -0.488,1.187 -0.82,2.262 -0.738,2.387 0.078,0.125 0.019,0.3 -0.137,0.394 -0.414,0.242 -1.062,-0.883 -1.469,-2.535 -0.191,-0.797 -0.461,-1.512 -0.597,-1.59 -0.278,-0.164 -1.727,1.742 -1.727,2.274 0,0.734 -0.508,0.3 -0.828,-0.715 -0.184,-0.586 -0.621,-1.407 -0.969,-1.825 l -0.629,-0.761 -0.402,1.203 c -0.219,0.664 -0.43,1.359 -0.473,1.543 -0.136,0.629 -0.476,0.719 -0.476,0.129 0,-1.199 -0.895,-2.746 -1.84,-3.18 l -0.922,-0.426 -0.355,1.297 c -0.2,0.711 -0.364,1.555 -0.364,1.875 l -0.007,0.582 -1.356,-0.652 c -0.746,-0.356 -1.402,-0.606 -1.457,-0.555 -0.059,0.055 0.094,0.457 0.336,0.895 0.242,0.441 0.441,0.988 0.441,1.218 0,0.235 0.219,0.711 0.481,1.071 0.371,0.5 0.387,0.617 0.074,0.519 -0.223,-0.066 -0.637,-0.797 -0.914,-1.617 -0.277,-0.82 -0.77,-1.699 -1.098,-1.953 -0.882,-0.695 -0.308,-0.793 1.418,-0.242 1.067,0.344 1.571,0.398 1.641,0.187 0.055,-0.172 0.25,-0.773 0.434,-1.34 0.183,-0.562 0.25,-1.277 0.148,-1.582 -0.219,-0.648 0.203,-0.73 0.723,-0.14 0.199,0.226 0.531,0.414 0.738,0.414 0.473,0 1.879,1.558 1.879,2.086 0,0.215 0.129,0.39 0.289,0.39 0.16,0 0.293,-0.558 0.293,-1.238 0,-0.683 0.121,-1.238 0.265,-1.238 0.403,0 2.051,1.973 2.243,2.683 0.093,0.34 0.238,0.618 0.324,0.618 0.25,0 0.945,-0.903 1.363,-1.774 l 0.391,-0.812 0.609,0.949 c 0.336,0.523 0.695,1.383 0.793,1.91 0.102,0.531 0.289,1.152 0.418,1.379 0.195,0.34 0.27,0.316 0.43,-0.141 0.105,-0.3 0.508,-1.293 0.894,-2.199 0.387,-0.906 0.731,-1.992 0.762,-2.406 0.031,-0.418 0.105,-0.758 0.16,-0.758 0.348,0 2.723,1.766 2.973,2.215 0.285,0.5 0.371,0.508 1.137,0.133 0.457,-0.223 1.41,-0.532 2.121,-0.68 0.707,-0.152 1.527,-0.359 1.824,-0.469 0.433,-0.156 0.496,-0.097 0.328,0.313 -0.113,0.281 -0.121,1.047 -0.02,1.699 l 0.192,1.191 h 1.398 c 0.774,0 1.77,0.137 2.219,0.305 0.766,0.281 0.785,0.32 0.27,0.617 -0.305,0.172 -0.891,0.598 -1.309,0.942 l -0.758,0.629 6.828,-0.172 c 5.907,-0.149 7.145,-0.106 9.153,0.312 1.851,0.387 3.48,0.473 8.019,0.43 5.309,-0.055 5.863,-0.012 8.199,0.629 3.071,0.844 3.985,1.277 4.93,2.344 2.191,2.464 1.5,5.714 -1.476,6.961 -1.625,0.679 -5.321,0.718 -8.454,0.085 -6.39,-1.289 -12.402,-1.191 -16.058,0.27 -3.473,1.387 -3.961,1.516 -4.723,1.242 -0.844,-0.305 -1.332,-1.07 -1.418,-2.215 -0.031,-0.453 -0.14,-0.82 -0.238,-0.82 -0.098,-0.004 -0.524,0.469 -0.945,1.047 -0.954,1.305 -1.028,3.078 -0.18,4.398 l 0.586,0.907 -0.863,1.019 c -3.008,3.559 -2.961,7.469 0.128,10.406 1.747,1.661 4.946,3.207 7.653,3.703 2.5,0.458 7.754,0.176 10.215,-0.55 3.832,-1.129 9.14,-4.219 13.511,-7.864 2.864,-2.39 4.477,-3.437 5.297,-3.437 0.621,0 0.684,0.09 0.524,0.773 -0.129,0.559 -0.008,0.985 0.433,1.516 0.961,1.156 2.606,0.969 3.344,-0.383 1.266,-2.316 -0.371,-4.769 -3.187,-4.769 z m -16.754,-62.02 c -0.067,0.602 -0.211,1.262 -0.45,1.965 -0.535,1.617 -0.382,2.461 1.68,4.902 0.289,0.348 1.742,2.11 1.742,2.875 0,1.176 -0.972,1.176 -1.613,1.176 -0.105,0 -0.223,0 -0.352,-0.004 -0.078,0 -0.148,0 -0.214,0 -0.786,0 -0.934,0.086 -1.344,0.543 -0.504,0.555 -0.942,1.371 0.191,2.789 l 0.75,0.938 c 0.227,-0.149 0.457,-0.293 0.703,-0.45 5.789,-3.621 5.797,-3.777 6.055,-7.765 0.262,-4.016 0.262,-4.016 -2.656,-4.66 -2.024,-0.446 -3.539,-1.231 -4.492,-2.309 z m -4.125,-2.137 -1.039,0.668 -0.473,-0.683 c -0.395,-0.574 -0.664,-0.668 -1.66,-0.598 -0.828,0.059 -1.285,0.25 -1.508,0.633 -0.176,0.305 -0.352,0.601 -0.391,0.66 -0.039,0.063 -0.39,-0.215 -0.785,-0.617 -0.902,-0.922 -2,-0.942 -2.937,-0.055 l -0.715,0.68 -1.055,-0.68 v 0 c -0.582,-0.371 -1.301,-0.676 -1.601,-0.676 -0.45,0 -0.512,0.133 -0.356,0.758 0.27,1.067 0.531,1.485 1.402,2.254 0.657,0.582 1.125,0.699 3.36,0.828 2.347,0.133 2.676,0.223 3.406,0.914 l 0.805,0.766 -0.098,3.91 c -0.109,4.629 -0.305,5.176 -3.09,8.719 -2.445,3.113 -3.344,4.953 -3.347,6.863 l -0.004,1.485 1.961,-0.176 c 2.925,-0.258 5.144,-1.399 7.402,-3.805 1.004,-1.07 2.508,-2.41 3.34,-2.977 l 1.519,-1.027 -0.855,-1.07 c -1.07,-1.34 -1.129,-2.547 -0.172,-3.602 0.59,-0.644 0.918,-0.765 2.035,-0.742 1.168,0.024 1.332,-0.047 1.332,-0.551 -0.004,-0.316 -0.722,-1.429 -1.597,-2.472 -2.083,-2.469 -2.438,-3.559 -1.793,-5.5 1.269,-3.817 -0.247,-5.735 -3.086,-3.907 z M 183.5,131.578 v 0 c -0.594,-0.234 -1.184,-0.41 -1.309,-0.39 -0.125,0.023 -0.543,0.093 -0.929,0.164 -0.391,0.07 -1.762,1.16 -3.074,2.441 -1.305,1.27 -2.536,2.312 -2.731,2.312 -0.668,0 -1.48,-0.57 -1.48,-1.031 0,-0.426 -0.043,-0.426 -0.512,0.02 -0.414,0.394 -0.508,0.98 -0.508,3.25 0,2.715 -0.016,2.777 -0.828,3.394 -0.566,0.422 -0.723,0.692 -0.488,0.828 0.539,0.317 0.839,1.336 0.543,1.868 -0.161,0.293 -0.164,0.66 -0.004,0.929 0.3,0.508 0.109,1.539 -0.246,1.332 -0.125,-0.074 -0.161,-0.39 -0.075,-0.703 0.164,-0.594 -1.16,-2.183 -1.82,-2.183 -0.676,0 -0.07,1.39 0.785,1.812 0.465,0.227 0.766,0.531 0.672,0.68 -0.098,0.144 0.082,0.574 0.399,0.953 0.535,0.644 0.566,1.949 0.039,1.641 -0.125,-0.075 -0.164,-0.368 -0.082,-0.657 0.152,-0.562 -1.196,-2.226 -1.805,-2.226 -0.684,0 -0.082,1.386 0.777,1.808 0.465,0.231 0.766,0.535 0.672,0.68 -0.098,0.148 0.082,0.578 0.399,0.957 0.324,0.391 0.507,0.922 0.421,1.227 -0.144,0.527 -0.187,0.523 -1.359,-0.129 l -1.211,-0.672 -0.863,0.668 c -0.82,0.633 -0.832,0.668 -0.215,0.679 0.355,0.004 1.246,0.161 1.973,0.344 l 1.32,0.336 4.59,-4.449 c 3.445,-3.348 4.672,-4.719 4.926,-5.516 0.484,-1.539 2.359,-4.164 4.082,-5.722 0.82,-0.743 1.492,-1.481 1.492,-1.637 0,-0.512 -2.43,-2.566 -3.551,-3.008 z m -13.594,10.836 c 0,0.457 1.352,1.668 1.86,1.668 0.445,0 0.093,-0.793 -0.641,-1.461 v 0 c -0.969,-0.879 -1.219,-0.922 -1.219,-0.207 z m -0.5,-1.047 c -0.172,0 -0.351,-0.012 -0.527,-0.035 -0.149,-0.019 -0.27,-0.031 -0.348,-0.027 -0.004,0.008 -0.008,0.011 -0.011,0.019 0.32,0.028 0.597,0.094 0.832,0.196 0.05,0.023 0.097,0.046 0.144,0.074 0.098,-0.133 0.215,-0.207 0.328,-0.25 -0.133,0.015 -0.273,0.023 -0.418,0.023 z m 1.242,-2.226 c -0.332,-0.258 -0.644,-0.254 -1.445,0.019 -0.562,0.195 -1.109,0.274 -1.211,0.176 -0.324,-0.309 0.168,-1.602 0.856,-2.254 0.644,-0.609 0.648,-0.648 0.144,-1.234 -1.066,-1.25 -1.043,-3.395 0.051,-4.426 0.727,-0.692 1.047,-0.688 1.238,0.004 0.18,0.644 1.137,0.734 1.649,0.152 0.195,-0.223 0.261,-0.656 0.156,-0.984 -0.234,-0.699 -1.777,-1.645 -2.688,-1.645 -0.914,0 -0.816,-0.644 0.219,-1.472 l 0.871,-0.696 -1.304,-0.183 c -1.09,-0.157 -1.313,-0.289 -1.313,-0.782 0,-0.328 -0.199,-0.871 -0.449,-1.207 v 0 c -0.25,-0.336 -0.582,-0.613 -0.742,-0.613 -0.274,0 -1.129,1.633 -1.129,2.16 0,0.137 -0.559,0.332 -1.238,0.438 l -1.235,0.191 0.801,0.613 c 1.019,0.782 1.059,1.551 0.074,1.551 -0.394,0 -1.133,0.352 -1.64,0.781 -0.754,0.637 -0.883,0.911 -0.723,1.512 0.242,0.918 1.129,0.977 1.777,0.117 l 0.469,-0.621 0.711,0.774 c 0.906,0.984 0.976,2.968 0.144,4.16 l -0.558,0.808 0.707,0.797 c 0.984,1.106 0.945,1.879 -0.09,1.813 -1.352,-0.09 -2.105,0.281 -2.105,1.031 0,0.805 0.73,1.152 1.488,0.703 0.926,-0.547 1.418,-0.386 1.418,0.473 0,0.777 0.008,0.781 1.14,0.496 0.633,-0.16 1.2,-0.492 1.27,-0.746 0.094,-0.332 0.359,-0.422 1.004,-0.332 1.598,0.223 2.68,-0.789 1.683,-1.574 z m -5.968,4.554 c 0,0.727 0.019,0.739 1.476,0.575 1.809,-0.204 3.317,-0.985 3.317,-1.715 v 0 c 0,-0.766 -1.946,-0.84 -3.563,-0.137 -1.004,0.437 -1.23,0.676 -1.23,1.277 z m -0.18,2.84 c 0.477,0.371 2.449,0.028 4.098,-0.719 0.765,-0.343 1.019,-0.621 0.961,-1.031 -0.098,-0.644 -1.133,-0.836 -2.219,-0.414 -0.375,0.145 -1.149,0.32 -1.719,0.387 -1.414,0.164 -1.996,1.09 -1.121,1.777 z m -0.879,1.375 c -0.734,1.391 0.281,1.774 2.574,0.965 3.075,-1.082 3.45,-1.293 3.364,-1.883 v 0 c -0.102,-0.656 -0.84,-0.797 -2.121,-0.398 -0.481,0.148 -1.458,0.355 -2.172,0.465 -0.961,0.144 -1.391,0.367 -1.645,0.851 z m 7.477,1.156 c -1.051,-1.062 -1.504,-1.105 -1.223,-0.113 0.234,0.824 2.063,2.02 2.063,1.344 0,-0.207 -0.379,-0.762 -0.84,-1.231 z m -4.746,1.879 c 2.191,-0.465 3.304,-1.07 3.207,-1.742 v 0 c -0.121,-0.789 -0.852,-0.797 -3.286,-0.039 -1.519,0.477 -2.054,0.774 -2.121,1.184 -0.121,0.746 0.59,0.941 2.2,0.597 z m -4.075,6.606 c 1.168,0.304 1.973,0.027 2.239,-0.774 0.199,-0.586 -0.067,-1.414 -0.453,-1.414 -0.512,0 -0.247,-0.812 0.375,-1.125 1.757,-0.89 6.05,-0.394 6.05,0.7 0,0.234 -0.125,0.425 -0.273,0.425 -0.442,0 -0.656,1.039 -0.332,1.61 0.422,0.746 1.121,0.929 2.222,0.586 2.649,-0.829 2.407,-3.985 -0.402,-5.235 v 0 c -2.285,-1.015 -7.105,-0.949 -9.305,0.129 -2.679,1.313 -2.753,4.406 -0.121,5.098 z m 1.817,9.48 c 0,13.949 0.898,20.485 3.484,25.344 1.367,2.574 2.91,4.371 4.942,5.75 1.574,1.07 1.66,1.066 1.05,-0.055 -1.531,-2.816 -2.691,-14.566 -2.984,-30.183 -0.168,-9.063 -0.231,-9.961 -0.723,-10.563 -0.656,-0.801 -0.687,-1.5 -0.09,-1.969 0.274,-0.214 0.344,-0.449 0.18,-0.605 v 0 c -0.617,-0.59 -4.82,-0.734 -5.398,-0.187 -0.086,0.082 0,0.55 0.195,1.039 0.301,0.757 0.277,1.019 -0.148,1.726 -0.454,0.742 -0.508,1.781 -0.508,9.703 z m 14.758,9.024 c 0.257,0.246 1.007,0.023 3.179,-0.942 3.754,-1.675 7.399,-2.687 9.664,-2.687 0.727,0 0.93,-0.18 1.438,-1.27 0.324,-0.695 0.519,-1.375 0.433,-1.511 v 0 c -0.175,-0.27 -0.187,-0.27 -1.433,0.031 -0.481,0.113 -1.445,0.222 -2.141,0.242 l -1.269,0.031 0.468,0.68 c 0.641,0.922 0.614,0.973 -0.507,0.973 -1.934,0 -6.168,0.855 -7.684,1.55 -1.711,0.782 -2.812,2.274 -2.148,2.903 z m 83.57,7.656 c -0.5,0.918 -1.379,1.465 -2.348,1.465 -0.773,0 -1.492,-0.348 -2.019,-0.985 -0.571,-0.683 -0.739,-1.3 -0.563,-2.054 v -0.004 c -0.683,0.086 -2.301,1.191 -4.816,3.289 -4.434,3.695 -9.824,6.832 -13.735,7.98 -1.617,0.481 -4.511,0.797 -7.203,0.797 -1.328,0 -2.468,-0.078 -3.3,-0.23 -2.844,-0.52 -6.122,-2.11 -7.969,-3.864 -3.317,-3.152 -3.383,-7.468 -0.176,-11.261 l 0.562,-0.668 -0.332,-0.52 c -0.988,-1.535 -0.91,-3.59 0.2,-5.105 0.953,-1.301 1.226,-1.301 1.449,-1.301 0.758,0.004 0.836,1.055 0.859,1.398 0.067,0.895 0.407,1.457 1.008,1.672 0.16,0.059 0.27,0.082 0.399,0.082 0.5,0 1.453,-0.343 3.882,-1.316 1.993,-0.793 4.684,-1.215 7.793,-1.215 2.68,0 5.657,0.317 8.617,0.914 1.403,0.285 2.985,0.442 4.458,0.442 1.57,0 2.89,-0.18 3.632,-0.489 1.231,-0.515 2.043,-1.414 2.301,-2.535 0.262,-1.14 -0.121,-2.394 -1.047,-3.437 -0.804,-0.907 -1.511,-1.301 -4.629,-2.157 -1.875,-0.511 -2.558,-0.625 -5.523,-0.625 -0.699,0 -1.52,0.008 -2.508,0.02 -4.512,0.043 -6.18,-0.031 -8.148,-0.445 -1.254,-0.258 -2.196,-0.375 -4.461,-0.375 -1.032,0 -2.352,0.019 -4.551,0.078 l -6.395,0.16 -1.285,1.707 c -0.301,0.406 -0.594,1.234 -0.66,1.891 -0.019,0.195 -0.043,0.367 -0.066,0.523 0.25,-0.152 0.492,-0.301 0.73,-0.434 0.367,-0.207 0.785,-0.109 0.988,0.196 0.243,0.359 0.215,0.812 -0.566,2.691 -0.145,0.352 -0.273,1.039 -0.273,1.469 0,0.07 0,0.137 -0.004,0.199 0.074,-0.023 0.125,-0.023 0.175,-0.023 l 0.258,0.004 0.184,0.171 c 0.215,0.204 0.289,0.274 0.445,4.965 0.153,4.594 0.02,5.973 -1.277,7.637 l -0.254,0.324 0.551,0.594 c 1.269,1.371 1.867,2.5 2.125,4.023 l 0.5,2.981 -2.379,-2.258 c -0.77,-0.727 -1.024,-0.801 -1.789,-0.801 -0.789,0 -1.004,0.094 -1.535,0.657 -0.856,0.91 -2.332,1.773 -3.766,2.191 -0.231,0.066 -0.406,0.098 -0.563,0.098 -0.41,0 -0.89,-0.247 -0.89,-0.93 -0.016,-0.133 -0.203,-0.68 -0.528,-1.281 l -0.207,-0.383 -0.671,0.66 c -0.852,0.84 -1.868,1.492 -2.657,1.699 -0.632,0.168 -1.109,0.285 -1.472,0.285 -1.149,0 -1.149,-1.066 -1.149,-1.773 0,-0.883 -0.183,-1.18 -0.265,-1.18 -0.059,0 -0.379,0.028 -1.063,0.621 -1.012,0.875 -1.941,1.215 -3.316,1.215 -0.414,0 -0.891,-0.027 -1.465,-0.09 l -2.508,-0.277 0.609,-1.523 c 0.157,-0.391 0.176,-0.442 -0.265,-1.028 -0.77,-1.019 -1.727,-1.437 -3.305,-1.437 -0.789,0 -1.945,-0.153 -2.535,-0.434 -0.324,-0.156 -1.297,-0.387 -2.176,-0.473 -0.484,-0.043 -1.222,-0.136 -1.75,-0.242 0.008,0.039 0.012,0.078 0.02,0.121 0.121,0.848 -0.098,1.641 -0.614,2.235 -0.554,0.64 -1.406,0.996 -2.39,0.996 -1.055,0 -1.938,-0.422 -2.488,-1.184 -0.688,-0.953 -0.793,-2.371 -0.293,-3.883 0.148,-0.441 0.343,-1.156 0.433,-1.562 0.199,-0.938 2.098,-2.859 2.313,-3.074 1.175,-1.176 2.066,-2.184 2.187,-2.387 0.258,-0.453 0.942,-0.992 1.481,-1.293 l 2.004,-1.109 -0.215,1.754 c 0.281,-0.25 0.605,-0.489 0.863,-0.649 0.484,-0.297 0.73,-0.422 1,-0.422 0.078,0 0.75,0.024 0.75,0.891 0,0.058 0.031,0.234 0.094,0.453 0.394,-0.68 1.289,-1.883 2.144,-2.867 0.18,-0.211 0.352,-0.418 0.508,-0.621 -2.172,0.031 -5.715,1.031 -9.297,2.629 -1.828,0.812 -2.621,1.089 -3.14,1.089 -0.293,0 -0.54,-0.089 -0.723,-0.265 -0.313,-0.297 -0.445,-0.715 -0.367,-1.176 0.109,-0.668 0.672,-1.414 1.476,-2.027 -0.508,-0.328 -0.711,-0.981 -0.847,-1.422 -0.18,-0.586 -0.512,-1.641 -0.739,-2.348 l -0.691,-2.187 2.418,0.23 c 0.738,0.07 1.633,0.219 2.191,0.352 l -1.179,-2.196 2.226,0.454 c 0.559,0.113 1.367,0.382 1.844,0.613 0.055,0.023 0.176,0.082 0.258,0.121 0.093,-0.125 0.238,-0.359 0.324,-0.496 0.473,-0.758 0.941,-1.125 1.434,-1.125 0.328,0 0.867,0.152 1.078,1.129 0.058,-0.121 0.129,-0.258 0.203,-0.418 0.633,-1.36 1.277,-2.051 1.918,-2.051 0.183,0 0.801,0.074 0.945,0.988 0.031,0.117 0.285,0.485 0.645,0.739 0.312,0.218 0.5,0.253 0.582,0.253 0.199,0 0.351,-0.285 0.445,-0.523 0.16,-0.414 0.043,-1.164 -2.852,-2.918 -5.367,-3.254 -8.543,-7.789 -9.433,-13.477 -0.242,-1.527 -0.192,-3.074 0.129,-4.589 -0.778,0.851 -1.887,1.961 -3.446,3.472 l -4.347,4.215 c 1.269,0.805 2.015,2.051 1.941,3.336 -0.074,1.266 -0.93,2.273 -2.289,2.695 -0.418,0.133 -0.785,0.196 -1.129,0.196 -0.101,0 -0.199,-0.004 -0.297,-0.016 0.176,1.262 0.239,3.777 0.348,9.543 0.285,15.441 1.43,27.176 2.906,29.898 0.356,0.649 0.567,1.043 0.328,1.442 -0.121,0.207 -0.34,0.332 -0.586,0.332 -0.328,0 -0.632,-0.184 -1.691,-0.906 -2.102,-1.43 -3.734,-3.328 -5.141,-5.973 -2.625,-4.934 -3.554,-11.645 -3.554,-25.637 0,-5.375 0.023,-7.629 0.191,-8.797 -0.168,0.036 -0.348,0.059 -0.535,0.059 -0.313,0 -0.649,-0.047 -1.008,-0.141 -1.367,-0.355 -2.262,-1.316 -2.387,-2.57 -0.144,-1.461 0.793,-2.906 2.391,-3.691 0.465,-0.227 1.055,-0.418 1.719,-0.567 -0.02,-0.019 -0.043,-0.043 -0.063,-0.062 -0.156,-0.188 -0.328,-0.512 -0.246,-1.016 0.024,-0.148 0.074,-0.281 0.149,-0.406 -0.411,-0.117 -0.633,-0.34 -0.754,-0.539 -0.266,-0.438 -0.219,-1.004 0.136,-1.684 0.2,-0.375 0.477,-0.629 0.817,-0.808 -0.367,-0.391 -0.504,-0.86 -0.371,-1.329 0.101,-0.363 0.359,-0.671 0.726,-0.91 -0.183,-0.281 -0.183,-0.644 -0.183,-0.875 0,-0.816 0.39,-1.226 1,-1.558 -0.129,-0.282 -0.129,-0.621 -0.129,-0.844 0,-0.063 -0.004,-0.109 -0.008,-0.148 -0.09,0.027 -0.238,0.082 -0.469,0.218 -0.316,0.184 -0.652,0.282 -0.972,0.282 -0.844,0 -1.457,-0.641 -1.457,-1.524 0,-0.391 0.171,-1.668 2.359,-1.668 0.129,0 0.266,0.004 0.41,0.012 0.039,0.004 0.078,0.004 0.109,0.004 -0.05,-0.137 -0.179,-0.395 -0.523,-0.778 l -1.035,-1.164 0.84,-1.211 c 0.66,-0.945 0.613,-2.621 -0.09,-3.382 l -0.207,-0.223 -0.016,0.023 c -0.418,0.555 -0.949,0.86 -1.492,0.86 -0.664,0 -1.195,-0.457 -1.391,-1.192 -0.25,-0.949 0.098,-1.449 0.926,-2.148 0.543,-0.457 1.414,-0.922 2.039,-0.926 -0.082,-0.109 -0.222,-0.262 -0.449,-0.433 l -1.961,-1.5 2.68,-0.415 c 0.355,-0.054 0.617,-0.128 0.769,-0.183 0.211,-0.813 0.934,-2.422 1.692,-2.422 0.558,0 1.093,0.66 1.242,0.863 0.285,0.387 0.574,1.051 0.574,1.578 0,0.004 0,0.004 0,0.008 0.094,0.035 0.305,0.09 0.774,0.156 l 2.742,0.387 -2.004,1.598 c -0.184,0.144 -0.317,0.269 -0.41,0.375 1.093,0.109 2.754,1.09 3.078,2.058 0.179,0.532 0.062,1.204 -0.278,1.59 -0.335,0.383 -0.816,0.602 -1.324,0.602 -0.648,0 -1.179,-0.36 -1.371,-0.922 -0.062,0.051 -0.137,0.117 -0.23,0.203 -0.856,0.809 -0.856,2.578 -0.008,3.57 0.773,0.907 0.633,1.317 -0.188,2.094 -0.343,0.324 -0.589,0.817 -0.699,1.16 0.125,-0.031 0.27,-0.07 0.422,-0.125 0.504,-0.172 0.828,-0.242 1.113,-0.242 0.348,0 0.641,0.102 0.918,0.324 0.535,0.422 0.746,0.996 0.559,1.536 -0.192,0.55 -0.738,0.949 -1.469,1.105 0.313,0.004 0.609,0.172 1.02,0.516 0.16,-0.207 0.379,-0.395 0.609,-0.571 0.586,-0.437 0.586,-0.437 0.586,-2.894 0,-2.356 0.09,-3.125 0.699,-3.703 0.313,-0.293 0.535,-0.508 0.863,-0.508 0.258,0 0.688,0.121 0.7,0.902 0.07,0.137 0.422,0.387 0.742,0.438 0.324,-0.215 1.25,-0.996 2.41,-2.129 0.258,-0.25 2.535,-2.453 3.402,-2.606 0.391,-0.07 0.813,-0.144 0.938,-0.164 0.035,-0.008 0.078,-0.011 0.125,-0.011 v 0 c 0.383,0 1.254,0.332 1.512,0.433 0.91,0.359 3.359,2.156 3.855,3.242 1.93,-1.367 4.699,-2.867 5.606,-2.867 0.05,0 0.097,0.004 0.14,0.012 0.274,-0.918 0.602,-1.926 0.985,-3.047 1.996,-5.859 1.304,-7.551 -0.778,-8.77 -0.64,-0.378 -1.055,-0.48 -2.715,-0.48 -0.211,0 -0.441,0.004 -0.695,0.008 -0.336,0.004 -0.633,0.004 -0.895,0.004 -1.773,0 -2.238,-0.121 -3.097,-0.805 -0.93,-0.742 -2.031,-2.973 -2.031,-4.113 0,-0.571 0.394,-0.969 0.957,-0.969 0.402,0 0.937,0.199 1.683,0.629 l 0.496,0.289 0.086,-0.117 c 0.383,-0.52 1.067,-0.817 1.875,-0.817 0.75,0 1.524,0.258 2.121,0.703 l 0.375,0.278 0.278,-0.242 c 0.531,-0.473 1.281,-0.735 2.105,-0.735 0.805,0 1.578,0.246 2.18,0.696 0.082,0.062 0.269,0.203 0.39,0.273 0.028,-0.023 0.071,-0.059 0.125,-0.105 0.434,-0.372 1.422,-0.665 2.176,-0.762 0.352,-0.047 0.656,-0.086 0.914,-0.086 0.895,0 1.215,0.48 1.797,1.355 0.738,1.106 0.871,1.645 0.692,2.75 -0.098,0.598 -0.207,1.59 -0.239,2.164 -0.011,0.219 -0.027,0.493 -0.008,0.582 0.118,0.098 0.61,0.27 1.129,0.45 0.922,0.32 1.954,0.738 2.352,0.953 0.609,0.328 2.715,2.535 2.715,3.355 0,0.571 -0.504,0.809 -2.074,0.985 -1.289,0.144 -2.079,0.504 -2.344,1.066 -0.324,0.688 0.043,1.883 1.066,3.453 0.625,0.957 1.203,1.906 1.739,2.844 l 1.035,0.238 c 0.574,0.133 3.531,1.406 6.023,2.535 6.875,3.114 9.539,3.899 13.356,3.914 v -1.035 c 0.007,-2.058 0.949,-4.023 3.484,-7.246 2.707,-3.445 2.848,-3.836 2.957,-8.348 l 0.09,-3.632 -0.606,-0.575 c -0.543,-0.515 -0.64,-0.609 -3.011,-0.746 -2.246,-0.129 -2.907,-0.242 -3.739,-0.98 -0.964,-0.856 -1.293,-1.383 -1.593,-2.57 -0.102,-0.411 -0.18,-0.84 0.086,-1.188 0.273,-0.348 0.71,-0.348 0.875,-0.348 0.578,0 1.519,0.508 1.937,0.778 l 0.645,0.414 0.359,-0.344 c 0.57,-0.535 1.219,-0.82 1.883,-0.82 0.691,0 1.359,0.308 1.929,0.89 0.055,0.055 0.106,0.106 0.153,0.153 0.012,-0.028 0.023,-0.047 0.039,-0.071 0.43,-0.742 1.297,-0.894 2.004,-0.945 0.207,-0.012 0.371,-0.019 0.515,-0.019 0.801,0 1.246,0.23 1.7,0.886 l 0.129,0.188 0.531,-0.344 c 0.824,-0.527 1.586,-0.797 2.265,-0.797 0.485,0 0.918,0.145 1.274,0.41 0.008,-0.007 0.012,-0.019 0.023,-0.035 0.168,-0.219 0.43,-0.34 0.731,-0.34 0.422,0 0.957,0.231 1.785,0.762 l 0.531,0.34 0.117,-0.168 c 0.41,-0.594 1.078,-0.93 1.832,-0.93 0.692,0 1.418,0.281 2.047,0.789 l 0.418,0.344 0.434,-0.348 c 0.625,-0.496 1.371,-0.769 2.105,-0.769 0.903,0 1.676,0.406 2.117,1.09 0.024,-0.02 0.047,-0.039 0.075,-0.067 0.757,-0.652 2.152,-1.008 3.082,-1.008 1.008,0 1.379,0.391 1.511,0.723 0.243,0.594 -0.187,1.488 -0.476,1.922 -1.328,1.992 -1.735,2.902 -1.75,3.91 -0.024,1.285 0.25,1.887 1.996,3.133 1.727,1.234 2.664,2.766 2.328,3.805 -0.09,0.277 -0.41,0.922 -1.488,0.922 -0.766,0 -1.613,0.796 -2.164,2.031 -1.278,2.855 -1.008,6.101 0.957,11.57 2.082,5.793 2.32,6.906 2.328,10.817 0.008,3.164 -0.086,3.785 -0.824,5.562 -0.45,1.082 -1.352,2.68 -2.016,3.566 l -0.805,1.071 1.032,0.855 c 2.316,1.918 3.429,4.535 3.05,7.18 -0.379,2.687 -2.222,4.933 -5.054,6.16 -1.653,0.719 -2.246,0.824 -4.535,0.824 -0.231,0 -0.473,0 -0.739,-0.004 -1.789,-0.011 -4.508,-0.246 -6.058,-0.523 -1.52,-0.27 -4.094,-0.488 -5.86,-0.496 h -0.492 c -2.371,0 -2.754,0.094 -3.652,0.574 -0.969,0.516 -1.051,0.637 -1.246,1.859 -0.071,0.438 -0.375,0.981 -0.879,1.137 -0.074,0.027 -0.156,0.039 -0.239,0.039 -0.691,0 -2.05,-1.183 -2.691,-2.039 -0.18,0.289 -0.41,0.758 -0.543,1.152 -0.246,0.75 -0.273,1.625 1.399,2.422 l 2.285,1.094 -1.711,1.059 c -0.563,0.351 -1.266,0.539 -2.024,0.539 -1.613,0 -3.179,-0.809 -3.902,-2.012 -0.07,-0.113 -0.137,-0.215 -0.195,-0.301 -0.157,0.141 -0.364,0.328 -0.602,0.559 -0.773,0.758 -1.098,1.711 -0.891,2.613 0.215,0.922 0.942,1.649 1.997,1.996 0.339,0.114 0.679,0.172 0.988,0.172 0.226,0 0.976,-0.039 1.125,-0.57 0.238,-0.871 0.789,-0.965 1.015,-0.965 0.211,0 0.532,0.074 0.852,0.437 0.492,0.559 0.91,1.743 0.758,2.922 -0.02,0.133 -0.043,0.317 -0.059,0.465 0.039,0 0.071,0 0.098,0 0.812,0 2.953,-1.258 3.594,-2.254 0.695,-1.082 0.629,-2.879 -0.157,-4.179 l -1.449,-2.403 2.328,0.465 c 1.539,0.309 3.028,1.266 3.793,2.441 0.801,1.227 0.918,3.465 0.282,4.836 1.074,-0.519 1.683,-1.105 2.16,-2.039 0.492,-0.957 0.504,-1.074 0.242,-2.058 -0.164,-0.617 -0.547,-1.477 -0.82,-1.84 -0.364,-0.481 -0.676,-0.899 -0.45,-1.356 0.211,-0.418 0.676,-0.418 0.828,-0.418 0.907,0 2.633,0.778 3.297,1.485 0.344,0.367 0.731,1.086 0.961,1.648 0.75,-1.14 2,-2.144 3.5,-2.785 1.407,-0.601 1.813,-0.601 1.946,-0.601 0.414,0 0.64,0.242 0.718,0.472 0.184,0.531 -0.332,0.922 -0.57,1.106 -0.254,0.23 -0.723,1.39 -0.973,2.265 0.821,-0.601 2.164,-1.687 3.797,-3.156 2.516,-2.258 4.164,-3.019 6.532,-3.019 1.617,0 3.019,0.73 3.746,1.957 0.671,1.128 0.668,2.492 -0.012,3.734"
         style="fill:#100f0d;fill-opacity:1;fill-rule:nonzero;stroke:none"
         id="path74" /></g></g></svg>
