<?xml version="1.0" encoding="UTF-8" standalone="no"?>
<svg
   xmlns:dc="http://purl.org/dc/elements/1.1/"
   xmlns:cc="http://creativecommons.org/ns#"
   xmlns:rdf="http://www.w3.org/1999/02/22-rdf-syntax-ns#"
   xmlns:svg="http://www.w3.org/2000/svg"
   xmlns="http://www.w3.org/2000/svg"
   version="1.1"
   id="svg2"
   xml:space="preserve"
   width="42.666668"
   height="42.666668"
   viewBox="0 0 42.666668 42.666668"><metadata
     id="metadata8"><rdf:RDF><cc:Work
         rdf:about=""><dc:format>image/svg+xml</dc:format><dc:type
           rdf:resource="http://purl.org/dc/dcmitype/StillImage" /></cc:Work></rdf:RDF></metadata><defs
     id="defs6" /><g
     id="g10"
     transform="matrix(1.3333333,0,0,-1.3333333,0,42.666667)"><g
       id="g12"
       transform="scale(0.1)"><path
         d="M 36.4414,58.3398 C 45.5313,47.3008 56.1016,37.5352 67.8008,29.2656 H 252.199 c 11.699,8.2696 22.27,18.0352 31.36,29.0742 H 36.4414"
         style="fill:#ffffff;fill-opacity:1;fill-rule:evenodd;stroke:none"
         id="path14" /><path
         d="m 0,159.992 c 0,-4.871 0.253906,-9.679 0.679688,-14.437 H 319.32 c 0.426,4.758 0.68,9.566 0.68,14.437 0,4.938 -0.258,9.813 -0.695,14.637 H 0.695313 C 0.257813,169.805 0,164.93 0,159.992"
         style="fill:#ffffff;fill-opacity:1;fill-rule:evenodd;stroke:none"
         id="path16" /><path
         d="M 6.03906,116.484 H 313.965 c 2.64,9.371 4.461,19.086 5.355,29.071 H 0.679688 C 1.57422,135.57 3.39453,125.855 6.03906,116.484"
         style="fill:#c01b31;fill-opacity:1;fill-rule:evenodd;stroke:none"
         id="path18" /><path
         d="M 17.4258,87.4102 H 302.574 c 4.699,9.2148 8.531,18.9378 11.391,29.0738 H 6.03906 C 8.89453,106.348 12.7227,96.625 17.4258,87.4102"
         style="fill:#ffffff;fill-opacity:1;fill-rule:evenodd;stroke:none"
         id="path20" /><path
         d="M 36.4414,58.3398 H 283.559 c 7.351,8.9219 13.718,18.6797 19.015,29.0704 H 17.4258 C 22.7227,77.0195 29.0898,67.2617 36.4414,58.3398"
         style="fill:#c01b31;fill-opacity:1;fill-rule:evenodd;stroke:none"
         id="path22" /><path
         d="m 152.02,0.191406 h 15.96 C 199.266,1.73047 228.164,12.2813 252.199,29.2656 H 67.8008 C 91.8359,12.2813 120.734,1.73047 152.02,0.191406"
         style="fill:#c01b31;fill-opacity:1;fill-rule:evenodd;stroke:none"
         id="path24" /><path
         d="M 117.684,174.629 V 314.293 C 54.4063,296.977 6.79297,241.813 0.695313,174.629 H 117.684"
         style="fill:#222f61;fill-opacity:1;fill-rule:nonzero;stroke:none"
         id="path26" /><path
         d="m 62.4023,243.324 c 2.7344,8.215 5.3516,16.453 8.004,24.61 2.6601,-8.157 5.3046,-16.395 8.0585,-24.61 8.5469,0 17.1563,0.106 25.6832,-0.051 -6.8785,-4.972 -13.7652,-10.035 -20.7105,-15.011 2.3516,-8.278 5.3555,-16.278 7.8086,-24.563 -7.0547,4.914 -13.875,10.102 -20.8398,15.012 -6.9688,-4.91 -13.7735,-10.098 -20.8243,-15.012 2.461,8.285 5.4336,16.285 7.8008,24.563 -6.9414,4.976 -13.8281,10.039 -20.7344,15.011 8.5469,0.157 17.1719,0 25.7539,0.051"
         style="fill:#ffffff;fill-opacity:1;fill-rule:nonzero;stroke:none"
         id="path28" /><path
         d="M 313.906,203.699 H 117.684 v -29.07 h 201.621 c -0.907,9.988 -2.742,19.699 -5.399,29.07"
         style="fill:#c01b31;fill-opacity:1;fill-rule:evenodd;stroke:none"
         id="path30" /><path
         d="m 117.684,203.699 h 196.222 c -2.875,10.141 -6.718,19.864 -11.433,29.074 H 117.684 v -29.074"
         style="fill:#ffffff;fill-opacity:1;fill-rule:evenodd;stroke:none"
         id="path32" /><path
         d="m 117.684,232.773 h 184.789 c -5.321,10.395 -11.703,20.153 -19.078,29.075 H 117.684 v -29.075"
         style="fill:#c01b31;fill-opacity:1;fill-rule:evenodd;stroke:none"
         id="path34" /><path
         d="m 117.684,261.848 h 165.711 c -9.129,11.043 -19.735,20.812 -31.481,29.07 h -134.23 v -29.07"
         style="fill:#ffffff;fill-opacity:1;fill-rule:evenodd;stroke:none"
         id="path36" /><path
         d="m 117.684,290.918 h 134.23 c -26.012,18.297 -57.695,29.074 -91.914,29.074 -14.668,0 -28.824,-2.09 -42.316,-5.793 v -23.281"
         style="fill:#c01b31;fill-opacity:1;fill-rule:evenodd;stroke:none"
         id="path38" /></g></g></svg>
