<?xml version="1.0" encoding="UTF-8" standalone="no"?>
<svg
   xmlns:dc="http://purl.org/dc/elements/1.1/"
   xmlns:cc="http://creativecommons.org/ns#"
   xmlns:rdf="http://www.w3.org/1999/02/22-rdf-syntax-ns#"
   xmlns:svg="http://www.w3.org/2000/svg"
   xmlns="http://www.w3.org/2000/svg"
   version="1.1"
   id="svg2"
   xml:space="preserve"
   width="42.666668"
   height="42.666668"
   viewBox="0 0 42.666668 42.666668"><metadata
     id="metadata8"><rdf:RDF><cc:Work
         rdf:about=""><dc:format>image/svg+xml</dc:format><dc:type
           rdf:resource="http://purl.org/dc/dcmitype/StillImage" /></cc:Work></rdf:RDF></metadata><defs
     id="defs6" /><g
     id="g10"
     transform="matrix(1.3333333,0,0,-1.3333333,0,42.666667)"><g
       id="g12"
       transform="scale(0.1)"><path
         d="M 310.512,214.344 H 9.48438 C 3.34766,197.367 0,179.07 0,159.996 0,140.91 3.34766,122.609 9.48438,105.652 H 310.512 c 6.14,16.957 9.488,35.258 9.488,54.344 0,19.074 -3.348,37.371 -9.488,54.348"
         style="fill:#ffffff;fill-opacity:1;fill-rule:evenodd;stroke:none"
         id="path14" /><path
         d="M 9.48438,214.344 H 310.512 C 288.254,275.941 229.266,319.996 160.004,319.996 90.7188,319.996 31.7227,275.941 9.48438,214.344"
         style="fill:#2b3793;fill-opacity:1;fill-rule:evenodd;stroke:none"
         id="path16" /><path
         d="M 310.512,105.652 H 9.48438 C 31.7227,44.0547 90.7188,0.00390625 160.004,0.00390625 c 69.262,0 128.25,44.05079375 150.508,105.64809375"
         style="fill:#2a9840;fill-opacity:1;fill-rule:evenodd;stroke:none"
         id="path18" /><path
         d="m 191.832,123.996 -0.301,1.809 2.207,3.312 v 0 l 1.91,-3.812 z m -5.422,7.027 5.223,2.11 1.101,-1.606 -3.109,-4.617 z m -4.32,-10.535 -1.203,2.106 4.515,3.414 v 0 l 2.914,-3.914 z m -5.317,7.426 6.024,1.809 1.605,-1.707 -4.718,-3.715 z m -5.929,-9.539 -1.504,2.41 5.621,2.813 v 0 l 3.414,-4.02 z m -5.117,8.328 v 0 0 0 l 6.527,0.805 1.504,-2.207 -5.621,-2.711 z m -7.832,-9.133 -1.504,2.61 v 0 l 7.027,2.613 3.312,-4.922 z m -5.625,9.336 v 0 l 9.136,-0.402 0.805,-1.906 -7.129,-2.614 z m -6.524,-8.031 -0.801,2.109 v 0 l 5.219,1.805 3.215,-5.019 z m -4.016,9.641 5.622,-1.203 1.609,-2.411 -4.922,-1.906 z m -6.527,-7.434 -0.703,2.41 v 0 l 4.617,1.504 2.613,-5.519 z m -3.812,10.449 5.625,-1.707 1.304,-2.812 -4.922,-1.407 z m -5.828,-6.933 4.015,1.304 v 0 l 0.805,-3.211 z m 1.812,7.031 1.305,-4.02 -3.813,-0.8 c 0,0 2.207,4.418 2.508,4.82 z m 18.551,57.406 c 0.847,7.703 4.543,12.434 10.515,13.602 l 0.106,-14.449 -5.856,-6.133 h 4.793 l -0.035,-9.817 -4.34,-5.843 c -1.304,2.945 -6.086,14.441 -5.183,22.64 z m 16.879,13.641 c 6.125,-1.02 9.433,-5.231 10.578,-13.274 1.117,-7.871 -3.336,-18.875 -4.938,-22.5 l -4.007,5.301 -0.036,10.117 h 4.832 l -6.461,6.067 z m 31.992,-64.446 -3.52,-1.527 -21.336,28.223 c 0.844,1.777 6.973,15.105 5.598,24.781 -1.312,9.234 -5.387,14.129 -12.73,15.18 l 0.004,1.051 -0.063,0.066 c -0.062,0.062 -1.469,1.508 -2.953,1.613 v 0.012 l -0.223,-0.004 c -1.566,-0.035 -3.039,-1.687 -3.101,-1.758 l -0.055,-0.058 0.008,-0.961 c -7.133,-1.211 -11.692,-6.743 -12.664,-15.575 -1.106,-10.043 5.422,-23.941 5.703,-24.527 l 0.164,-0.348 -20.688,-27.855 -3.972,1.375 -7.051,-15.039 0.164,-0.102 c 0.164,-0.105 16.902,-10.41 40.863,-10.41 0.332,0 0.66,0 0.996,0.004 26.887,0.32 41.844,10.797 41.993,10.902 l 0.148,0.11 -7.285,14.847"
         style="fill:#100f0d;fill-opacity:1;fill-rule:nonzero;stroke:none"
         id="path20" /></g></g></svg>
