<?xml version="1.0" encoding="UTF-8" standalone="no"?>
<svg
   xmlns:dc="http://purl.org/dc/elements/1.1/"
   xmlns:cc="http://creativecommons.org/ns#"
   xmlns:rdf="http://www.w3.org/1999/02/22-rdf-syntax-ns#"
   xmlns:svg="http://www.w3.org/2000/svg"
   xmlns="http://www.w3.org/2000/svg"
   version="1.1"
   id="svg2"
   xml:space="preserve"
   width="42.666668"
   height="42.666668"
   viewBox="0 0 42.666668 42.666668"><metadata
     id="metadata8"><rdf:RDF><cc:Work
         rdf:about=""><dc:format>image/svg+xml</dc:format><dc:type
           rdf:resource="http://purl.org/dc/dcmitype/StillImage" /></cc:Work></rdf:RDF></metadata><defs
     id="defs6" /><g
     id="g10"
     transform="matrix(1.3333333,0,0,-1.3333333,0,42.666667)"><g
       id="g12"
       transform="scale(0.1)"><path
         d="M 9.48047,214.355 H 310.516 c 6.129,-16.98 9.484,-35.265 9.484,-54.363 0,-19.078 -3.355,-37.371 -9.484,-54.351 H 9.48047 C 3.34375,122.621 0,140.914 0,159.992 c 0,19.098 3.34375,37.383 9.48047,54.363"
         style="fill:#206842;fill-opacity:1;fill-rule:evenodd;stroke:none"
         id="path14" /><path
         d="M 310.516,214.355 H 9.48047 C 31.7227,275.965 90.7188,320.02 159.988,320.02 c 69.266,0 128.27,-44.055 150.528,-105.665"
         style="fill:#f9b20c;fill-opacity:1;fill-rule:evenodd;stroke:none"
         id="path16" /><path
         d="M 9.48047,105.641 H 310.516 C 288.258,44.0313 229.254,-0.0195313 159.988,-0.0195313 90.7188,-0.0195313 31.7227,44.0313 9.48047,105.641"
         style="fill:#c2212b;fill-opacity:1;fill-rule:evenodd;stroke:none"
         id="path18" /></g></g></svg>
