<?xml version="1.0" encoding="UTF-8" standalone="no"?>
<svg
   xmlns:dc="http://purl.org/dc/elements/1.1/"
   xmlns:cc="http://creativecommons.org/ns#"
   xmlns:rdf="http://www.w3.org/1999/02/22-rdf-syntax-ns#"
   xmlns:svg="http://www.w3.org/2000/svg"
   xmlns="http://www.w3.org/2000/svg"
   version="1.1"
   id="svg2"
   xml:space="preserve"
   width="42.666668"
   height="42.666668"
   viewBox="0 0 42.666668 42.666668"><metadata
     id="metadata8"><rdf:RDF><cc:Work
         rdf:about=""><dc:format>image/svg+xml</dc:format><dc:type
           rdf:resource="http://purl.org/dc/dcmitype/StillImage" /></cc:Work></rdf:RDF></metadata><defs
     id="defs6" /><g
     id="g10"
     transform="matrix(1.3333333,0,0,-1.3333333,0,42.666667)"><g
       id="g12"
       transform="scale(0.1)"><path
         d="M 310.512,105.633 H 9.46875 C 3.33984,122.617 0,140.91 0,160.004 c 0,19.07 3.33984,37.383 9.46875,54.332 H 310.512 c 6.136,-16.949 9.488,-35.262 9.488,-54.332 0,-19.094 -3.352,-37.387 -9.488,-54.371"
         style="fill:#ffffff;fill-opacity:1;fill-rule:evenodd;stroke:none"
         id="path14" /><path
         d="M 310.512,214.355 H 9.46875 C 31.7227,275.961 90.7188,320.02 159.992,320.02 c 69.254,0 128.254,-44.059 150.52,-105.665"
         style="fill:#ec1e37;fill-opacity:1;fill-rule:evenodd;stroke:none"
         id="path16" /><path
         d="M 9.46875,105.633 H 310.512 C 288.246,44.0273 229.246,-0.0234375 159.992,-0.0234375 90.7188,-0.0234375 31.7227,44.0273 9.46875,105.633"
         style="fill:#48a2df;fill-opacity:1;fill-rule:evenodd;stroke:none"
         id="path18" /></g></g></svg>
