<?xml version="1.0" encoding="UTF-8" standalone="no"?>
<svg
   xmlns:dc="http://purl.org/dc/elements/1.1/"
   xmlns:cc="http://creativecommons.org/ns#"
   xmlns:rdf="http://www.w3.org/1999/02/22-rdf-syntax-ns#"
   xmlns:svg="http://www.w3.org/2000/svg"
   xmlns="http://www.w3.org/2000/svg"
   version="1.1"
   id="svg2"
   xml:space="preserve"
   width="42.666668"
   height="42.666668"
   viewBox="0 0 42.666668 42.666668"><metadata
     id="metadata8"><rdf:RDF><cc:Work
         rdf:about=""><dc:format>image/svg+xml</dc:format><dc:type
           rdf:resource="http://purl.org/dc/dcmitype/StillImage" /></cc:Work></rdf:RDF></metadata><defs
     id="defs6" /><g
     id="g10"
     transform="matrix(1.3333333,0,0,-1.3333333,0,42.666667)"><g
       id="g12"
       transform="scale(0.1)"><path
         d="m 0,160 c 0,-9.766 0.894531,-19.348 2.5625,-28.641 H 317.387 c 1.711,9.293 2.613,18.875 2.613,28.641 0,9.773 -0.902,19.344 -2.613,28.621 H 2.5625 C 0.894531,179.344 0,169.773 0,160"
         style="fill:#ffffff;fill-opacity:1;fill-rule:nonzero;stroke:none"
         id="path14" /><path
         d="M 317.379,188.621 C 303.813,263.176 238.336,320.02 160,320.02 81.6602,320.02 16.1875,263.176 2.62109,188.621 H 317.379"
         style="fill:#9c2436;fill-opacity:1;fill-rule:evenodd;stroke:none"
         id="path16" /><path
         d="M 2.625,131.359 C 16.1992,56.8242 81.668,-0.0195313 160,-0.0195313 c 78.332,0 143.801,56.8437313 157.375,131.3785313 H 2.625"
         style="fill:#9c2436;fill-opacity:1;fill-rule:evenodd;stroke:none"
         id="path18" /></g></g></svg>
