<?xml version="1.0" encoding="UTF-8" standalone="no"?>
<svg
   xmlns:dc="http://purl.org/dc/elements/1.1/"
   xmlns:cc="http://creativecommons.org/ns#"
   xmlns:rdf="http://www.w3.org/1999/02/22-rdf-syntax-ns#"
   xmlns:svg="http://www.w3.org/2000/svg"
   xmlns="http://www.w3.org/2000/svg"
   version="1.1"
   id="svg2"
   xml:space="preserve"
   width="42.666668"
   height="42.666668"
   viewBox="0 0 42.666668 42.666668"><metadata
     id="metadata8"><rdf:RDF><cc:Work
         rdf:about=""><dc:format>image/svg+xml</dc:format><dc:type
           rdf:resource="http://purl.org/dc/dcmitype/StillImage" /></cc:Work></rdf:RDF></metadata><defs
     id="defs6" /><g
     id="g10"
     transform="matrix(1.3333333,0,0,-1.3333333,0,42.666667)"><g
       id="g12"
       transform="scale(0.1)"><path
         d="M 0,159.988 C 0,125.961 10.7461,94.3828 28.9766,68.4023 H 291.016 C 309.246,94.3828 320,125.961 320,159.988 c 0,34.039 -10.754,65.629 -28.988,91.61 H 28.9805 C 10.75,225.617 0,194.027 0,159.988"
         style="fill:#131211;fill-opacity:1;fill-rule:evenodd;stroke:none"
         id="path14" /><path
         d="m 90.5117,166.691 c 2.6992,20.325 20.1763,37.129 40.4293,39.68 15.235,2.25 31.594,-3.375 42.036,-14.859 -11.649,9.164 -27.997,12.011 -41.782,6.543 -14.035,-5.266 -24.699,-18.606 -26.203,-33.543 -1.828,-13.891 4.488,-28.27 15.606,-36.684 14.847,-11.984 37.59,-11.387 52.379,0.52 -16.372,-18.45 -47.278,-20.399 -65.961,-4.266 -12.3793,10.059 -18.9691,26.77 -16.5043,42.609"
         style="fill:#ffffff;fill-opacity:1;fill-rule:nonzero;stroke:none"
         id="path16" /><path
         d="m 193.75,190.242 c 4.504,-6.445 8.871,-13.117 13.375,-19.586 7.621,2.176 15.297,4.274 22.875,6.469 -4.867,-6.246 -9.812,-12.312 -14.723,-18.453 4.313,-6.395 8.649,-12.688 12.84,-19.055 -7.265,2.621 -14.554,5.313 -21.898,7.863 -4.805,-5.996 -9.535,-11.988 -14.414,-17.933 0.218,7.672 0.531,15.238 0.672,22.879 -7.266,2.695 -14.622,5.269 -21.891,7.969 7.414,2.168 15,4.117 22.41,6.367 0.234,7.793 0.531,15.687 0.754,23.48"
         style="fill:#ffffff;fill-opacity:1;fill-rule:nonzero;stroke:none"
         id="path18" /><path
         d="m 291.012,251.598 c -28.985,41.3 -76.922,68.406 -131.024,68.406 -54.105,0 -102.031,-27.106 -131.0075,-68.406 H 291.012"
         style="fill:#e71d25;fill-opacity:1;fill-rule:evenodd;stroke:none"
         id="path20" /><path
         d="M 28.9766,68.4023 C 57.9531,27.1055 105.883,-0.00390625 159.988,-0.00390625 c 54.106,0 102.043,27.10940625 131.028,68.40620625 H 28.9766"
         style="fill:#33a23f;fill-opacity:1;fill-rule:evenodd;stroke:none"
         id="path22" /></g></g></svg>
