<?xml version="1.0" encoding="UTF-8" standalone="no"?>
<svg
   xmlns:dc="http://purl.org/dc/elements/1.1/"
   xmlns:cc="http://creativecommons.org/ns#"
   xmlns:rdf="http://www.w3.org/1999/02/22-rdf-syntax-ns#"
   xmlns:svg="http://www.w3.org/2000/svg"
   xmlns="http://www.w3.org/2000/svg"
   version="1.1"
   id="svg2"
   xml:space="preserve"
   width="42.666668"
   height="42.666668"
   viewBox="0 0 42.666668 42.666668"><metadata
     id="metadata8"><rdf:RDF><cc:Work
         rdf:about=""><dc:format>image/svg+xml</dc:format><dc:type
           rdf:resource="http://purl.org/dc/dcmitype/StillImage" /></cc:Work></rdf:RDF></metadata><defs
     id="defs6" /><g
     id="g10"
     transform="matrix(1.3333333,0,0,-1.3333333,0,42.666667)"><g
       id="g12"
       transform="scale(0.1)"><path
         d="m 103.043,287.797 c -0.254,-0.117 -0.523,-0.234 -0.777,-0.359 0.254,0.125 0.523,0.242 0.777,0.359"
         style="fill:#b9b9b9;fill-opacity:1;fill-rule:evenodd;stroke:none"
         id="path14" /><path
         d="M 159.988,0.00390625 C 248.121,0.00390625 320,71.8672 320,160.004 320,248.125 248.121,319.996 159.988,319.996 71.8867,319.996 0,248.125 0,160.004 0,71.8672 71.8867,0.00390625 159.988,0.00390625"
         style="fill:#c2212b;fill-opacity:1;fill-rule:evenodd;stroke:none"
         id="path16" /><path
         d="m 156.398,174.352 c 1.125,3.789 2.293,7.582 3.493,11.316 1.453,-3.641 2.484,-7.527 3.656,-11.316 -2.383,0 -4.766,0 -7.149,0 z m 33.004,-10.942 c -3.218,-2.183 -6.175,-4.769 -9.394,-7.031 -0.809,2.351 -1.453,4.758 -2.215,7.117 3.859,-0.051 7.738,0.043 11.609,-0.086 z M 149.039,150.5 c 1.231,4.32 2.645,8.633 3.941,12.945 4.676,0.094 9.348,0.051 13.977,0 1.301,-4.312 2.719,-8.625 3.957,-12.945 0.539,-0.984 -0.559,-1.566 -1.191,-2.059 -3.301,-2.406 -6.403,-4.964 -9.746,-7.343 -3.317,2.379 -6.454,4.937 -9.754,7.343 -0.625,0.493 -1.735,1.075 -1.184,2.059 z m -6.883,12.996 c -0.761,-2.359 -1.418,-4.766 -2.218,-7.117 -3.215,2.262 -6.219,4.715 -9.348,7.066 3.84,0.094 7.703,0.051 11.566,0.051 z m 3.211,-24.844 c 2.008,-1.339 3.848,-2.843 5.735,-4.281 -2.875,-2.453 -6,-4.762 -9.129,-6.988 1,3.797 2.207,7.531 3.394,11.269 z m 23.473,-4.39 c 1.805,1.597 3.781,3.015 5.734,4.39 1.309,-3.789 2.41,-7.648 3.614,-11.539 -3.075,2.41 -6.243,4.754 -9.348,7.149 z m 15.035,11.515 c 12.238,9.629 24.848,18.789 36.996,28.489 -15.48,0.222 -30.93,0 -46.433,0.132 -4.809,15.5 -9.618,31.036 -14.418,46.579 -5.036,-15.446 -9.618,-31.079 -14.512,-46.579 -15.461,-0.132 -30.942,0.09 -46.3947,-0.183 11.5747,-9.199 23.4917,-18.02 35.2697,-27.012 0.742,-0.758 2.43,-1.332 1.844,-2.707 -4.586,-15.129 -9.438,-30.234 -13.879,-45.4608 12.687,9.2498 24.972,19.1018 37.629,28.4848 12.597,-9.383 24.929,-19.184 37.628,-28.4419 -4.406,15.1839 -9.304,30.2889 -13.953,45.4569 -0.16,0.477 -0.113,0.891 0.223,1.242"
         style="fill:#1d5f2f;fill-opacity:1;fill-rule:nonzero;stroke:none"
         id="path18" /></g></g></svg>
