<?xml version="1.0" encoding="UTF-8" standalone="no"?>
<svg
   xmlns:dc="http://purl.org/dc/elements/1.1/"
   xmlns:cc="http://creativecommons.org/ns#"
   xmlns:rdf="http://www.w3.org/1999/02/22-rdf-syntax-ns#"
   xmlns:svg="http://www.w3.org/2000/svg"
   xmlns="http://www.w3.org/2000/svg"
   version="1.1"
   id="svg2"
   xml:space="preserve"
   width="42.666668"
   height="42.666668"
   viewBox="0 0 42.666668 42.666668"><metadata
     id="metadata8"><rdf:RDF><cc:Work
         rdf:about=""><dc:format>image/svg+xml</dc:format><dc:type
           rdf:resource="http://purl.org/dc/dcmitype/StillImage" /></cc:Work></rdf:RDF></metadata><defs
     id="defs6" /><g
     id="g10"
     transform="matrix(1.3333333,0,0,-1.3333333,0,42.666667)"><g
       id="g12"
       transform="scale(0.1)"><path
         d="M 105.66,9.51172 V 310.527 c 16.961,6.114 35.258,9.453 54.34,9.453 19.074,0 37.379,-3.339 54.34,-9.453 V 9.51172 C 197.379,3.37891 179.074,0.0195313 160,0.0195313 c -19.082,0 -37.379,3.3593787 -54.34,9.4921887"
         style="fill:#fad007;fill-opacity:1;fill-rule:evenodd;stroke:none"
         id="path14" /><path
         d="M 105.648,310.527 V 9.51172 C 44.0391,31.7695 0,90.7617 0,160.02 0,229.277 44.0391,288.262 105.648,310.527"
         style="fill:#2c47a3;fill-opacity:1;fill-rule:evenodd;stroke:none"
         id="path16" /><path
         d="M 214.34,9.51172 V 310.527 C 275.934,288.262 320,229.277 320,160.02 320,90.7617 275.934,31.7695 214.34,9.51172"
         style="fill:#ce1c30;fill-opacity:1;fill-rule:evenodd;stroke:none"
         id="path18" /><path
         d="m 140.258,137.129 1.976,0.144 0.172,-1.687 1.817,0.769 0.496,-2.324 4.008,4.067 5.574,-2.746 -10.574,-18.848 -3.778,-2.793 6.797,-2.551 6.969,8.125 -1.004,-5.332 -2.07,-5.176 8.476,-4.89 9.219,5.449 -4.531,9.504 1.472,0.672 5.969,-8.653 6.508,3.223 -8.457,9.895 -5.563,11.89 5.871,1.938 3.993,-3.84 0.597,2.5 2.11,-1.027 -0.266,2.089 2.129,-0.464 -2.594,4.097 6.571,5.512 4.16,-12.981 6.121,-7.003 1.301,0.167 4.441,-5.5 -0.043,76.157 -8.207,8.64 -7.984,-6.504 0.332,-7.011 -3.578,-0.125 -5.344,-2.739 -2.985,-0.984 -1.406,-0.273 -1.828,1.992 -2.461,4.902 -0.156,4.844 1.512,3.164 -0.282,2.988 1.364,-0.031 -0.868,2.023 1.192,0.477 -1.785,1.574 0.613,0.731 -6.762,2.91 -5.172,0.344 -1.386,-0.606 -0.684,-1.269 1.371,-3.86 -1.457,-1.465 1.445,-2.82 0.051,-6.199 -1.156,-5.238 -2.316,-3.946 -1.219,-0.468 -2.91,0.664 -6.098,3.214 -3.844,0.215 -0.273,7.449 -7.371,5.942 -7.532,-8.125 -1.074,-2.387 0.344,-73.914 4.871,5.899 1.027,-0.254 5.028,5.437 4.273,10.781 1.266,4.477 5.762,-6.809 -2.18,-4.023"
         style="fill:#ab7649;fill-opacity:1;fill-rule:nonzero;stroke:none"
         id="path20" /><path
         d="m 147.633,219.602 -1.817,-0.5 1.063,-1.446 v -1.758 h -0.672 -1.078 l -1.441,1.055 -0.5,-1.816 0.5,-1.817 1.441,1.067 h 1.078 0.672 v -0.676 -5.469 -2.297 l -0.984,-1.414 1.746,-1.843 1.757,1.843 -1.003,1.414 v 3.95 3.816 0.676 h 0.683 1.074 l 1.442,-1.059 0.496,1.828 -0.496,1.809 -1.442,-1.067 h -1.074 -0.683 v 1.758 l 1.054,1.446 -1.816,0.5"
         style="fill:#100f0d;fill-opacity:1;fill-rule:nonzero;stroke:none"
         id="path22" /><path
         d="m 147.633,219.227 -1.035,-0.164 0.648,-1.407 v -1.758 l -0.016,-0.07 v -0.281 h -0.273 l -0.078,-0.012 h -0.149 -0.523 -1.078 l -1.395,0.645 -0.179,-1.043 0.172,-1.047 1.402,0.656 h 1.078 0.223 0.449 0.367 l -0.016,-0.105 v -0.176 l 0.016,-0.078 v -0.676 -5.469 -2.297 l -0.66,-1.316 0.695,-0.606 0.36,-0.625 0.363,0.625 0.684,0.594 -0.657,1.328 v 3.95 3.816 0.098 0.578 0.347 h 0.293 l 0.071,0.012 h 0.671 1.086 l 1.391,-0.637 0.18,1.036 -0.168,1.046 -1.403,-0.656 h -1.086 -0.671 l -0.071,0.012 h -0.277 v 0.281 l -0.016,0.07 v 1.758 l 0.641,1.399 -1.039,0.172"
         style="fill:#f6d009;fill-opacity:1;fill-rule:nonzero;stroke:none"
         id="path24" /><path
         d="m 136.031,129.199 -2.476,0.071 -2.555,-1.204 -0.824,-2.773 0.375,-1.277 2.777,-3.008 2.254,1.277 1.805,1.953 0.445,1.727 6.461,8.41 -0.305,2.102 -1.425,-0.903 -0.524,1.731 -0.902,-0.305 -5.106,-7.801"
         style="fill:#d21d2c;fill-opacity:1;fill-rule:nonzero;stroke:none"
         id="path26" /><path
         d="m 181.313,123.645 3.003,-2.707 0.895,0.222 3.312,3.828 -0.753,2.629 -3.079,1.875 -2.332,-0.222 -5.175,7.73 -0.899,0.383 -0.375,-1.504 -1.512,0.449 -0.597,-1.648 6.836,-9.242 0.676,-1.793"
         style="fill:#d21d2c;fill-opacity:1;fill-rule:nonzero;stroke:none"
         id="path28" /><path
         d="m 136.68,122.938 3.832,-2.086 -0.926,-4.262 -3.828,2.09 0.922,4.258"
         style="fill:#100f0d;fill-opacity:1;fill-rule:nonzero;stroke:none"
         id="path30" /><path
         d="m 137.223,123.633 -1.125,-1.172 0.703,-1.543 1.367,0.625 z m -18.391,40.273 -1.383,-0.636 15.594,-34.149 h 1.66 l -15.871,34.785"
         style="fill:#100f0d;fill-opacity:1;fill-rule:nonzero;stroke:none"
         id="path32" /><path
         d="m 137.23,121.738 2.379,-1.3 -0.582,-2.645 -2.371,1.297 0.574,2.648"
         style="fill:#edd30a;fill-opacity:1;fill-rule:nonzero;stroke:none"
         id="path34" /><path
         d="m 158.938,132.578 9.46,5.176 11.114,5.254 2.105,3.23 v 18.098 l -45.058,0.066 0.078,-18.386 1.351,-2.176 8.555,-4.738 10.961,-5.032 1.434,-1.492"
         style="fill:#344aa4;fill-opacity:1;fill-rule:nonzero;stroke:none"
         id="path36" /><path
         d="m 136.039,186.555 0.566,-1.66 -0.136,-21.125 0.793,-0.872 6.492,-0.769 7.035,1.023 c 0,0 4.09,-0.632 6.902,-1.062 l 0.086,-0.418 1.348,0.203 1.328,-0.203 0.082,0.418 c 2.82,0.43 6.906,1.062 6.906,1.062 l 7.028,-1.023 6.504,0.769 0.789,0.872 -0.129,21.125 0.566,1.66 -7.789,-0.063 c 0,0 -8.89,-0.086 -15.285,-0.152 -6.395,0.066 -15.301,0.152 -15.301,0.152 l -7.785,0.063"
         style="fill:#d11c31;fill-opacity:1;fill-rule:nonzero;stroke:none"
         id="path38" /><path
         d="m 150.789,163.152 c 0,0 -4.816,1.184 -6.617,3.559 -3.152,-2.836 -6.914,-3.813 -6.914,-3.813 0,0 3.93,-1.777 6.914,-4.031 1.379,1.973 6.617,4.285 6.617,4.285"
         style="fill:#100f0d;fill-opacity:1;fill-rule:nonzero;stroke:none"
         id="path40" /><path
         d="m 167.438,163.152 c 0,0 5.25,-2.312 6.621,-4.285 2.988,2.254 6.914,4.031 6.914,4.031 0,0 -3.766,0.977 -6.914,3.813 -1.797,-2.375 -6.621,-3.559 -6.621,-3.559"
         style="fill:#100f0d;fill-opacity:1;fill-rule:nonzero;stroke:none"
         id="path42" /><path
         d="m 159.105,184.785 -1.355,-3.847 -3.691,1.757 1.757,-3.691 -3.847,-1.367 3.847,-1.367 -1.757,-3.68 3.691,1.746 1.355,-3.848 1.375,3.848 3.692,-1.746 -1.754,3.68 3.848,1.367 -3.848,1.367 1.754,3.691 -3.692,-1.757 -1.375,3.847"
         style="fill:#100f0d;fill-opacity:1;fill-rule:nonzero;stroke:none"
         id="path44" /><path
         d="m 151.402,156.113 1.336,1.426 1.481,-1.484 -1.375,-1.375 -1.442,1.433"
         style="fill:#edd30a;fill-opacity:1;fill-rule:nonzero;stroke:none"
         id="path46" /><path
         d="m 166.969,156.113 -1.438,1.59 -1.484,-1.543 1.328,-1.433 1.594,1.386"
         style="fill:#edd30a;fill-opacity:1;fill-rule:nonzero;stroke:none"
         id="path48" /><path
         d="m 163.938,153.137 -0.692,-1.547 -0.055,-4.246 1.122,-2.383 1.484,-0.637 -0.215,5.578 1.012,3.875 -2.656,-0.64"
         style="fill:#edd30a;fill-opacity:1;fill-rule:nonzero;stroke:none"
         id="path50" /><path
         d="m 152.629,148.992 v -4.566 l 1.324,0.957 0.906,2.066 0.157,3.614 -0.696,2.179 -2.644,0.481 0.953,-4.731"
         style="fill:#edd30a;fill-opacity:1;fill-rule:nonzero;stroke:none"
         id="path52" /><path
         d="m 171,143.367 -0.059,2.766 2.34,3.172 2.758,0.644 -3.074,1.489 -2.973,-0.637 -1.539,-1.809 -0.168,-2.918 2.18,-2.551 0.535,-0.156"
         style="fill:#edd30a;fill-opacity:1;fill-rule:nonzero;stroke:none"
         id="path54" /><path
         d="m 145.563,143.203 0.8,1.492 1.27,-0.847 1.543,0.312 1.012,1.543 -0.692,1.438 -0.742,0.586 1.055,0.574 0.429,1.758 -1.433,1.64 -1.379,-0.207 -0.692,-0.535 -0.324,1.277 -1.64,0.957 -1.379,-0.535 -0.692,-1.426 0.371,-1.281 -1.433,0.156 -1.168,-1.113 -0.16,-1.48 0.8,-0.957 1.114,-0.375 0.632,0.05 -0.531,-1.328 0.43,-1.316 1.324,-0.754 1.485,0.371"
         style="fill:#edd30a;fill-opacity:1;fill-rule:nonzero;stroke:none"
         id="path56" /><path
         d="m 159.125,182.195 0.871,-2.461 2.348,1.133 -1.117,-2.359 2.449,-0.883 -2.449,-0.867 1.117,-2.344 -2.348,1.113 -0.879,-2.453 -0.879,2.453 -2.343,-1.113 1.113,2.344 -2.453,0.867 2.453,0.883 -1.113,2.359 2.343,-1.133 0.887,2.461"
         style="fill:#f6d009;fill-opacity:1;fill-rule:nonzero;stroke:none"
         id="path58" /><path
         d="m 151.363,185.371 c -0.226,-1.562 -8.05,-4.797 -8.05,-11.308 0,-8.348 7.804,-10.313 7.804,-10.313 l -0.328,-0.598 -1.898,-3.464 c 0,0 3.226,-0.157 4.941,-1.622 2.063,-1.757 1.867,-5.488 1.867,-8.203 0,-2.136 -0.273,-4.402 -1.367,-5.332 -1.477,-1.25 -2.477,-1.34 -2.477,-2.804 0,-1.219 0.942,-1.473 2.477,-2.274 1.957,-1.035 1.863,-2.422 4.773,-2.422 2.922,0 2.844,1.387 4.801,2.422 1.528,0.801 2.465,1.055 2.465,2.274 0,1.464 -0.996,1.554 -2.465,2.804 -1.097,0.938 -1.371,3.196 -1.371,5.332 0,2.715 -0.199,6.446 1.863,8.203 1.715,1.465 4.942,1.622 4.942,1.622 l -1.902,3.464 -0.325,0.598 c 0,0 7.813,1.965 7.813,10.313 0,6.511 -7.832,9.746 -8.055,11.308 -0.766,-2.695 2.617,-6.418 2.617,-10.808 0,-5.708 -4.203,-5.969 -4.203,-5.969 -0.984,0 -1.379,-0.703 -1.765,-0.703 l -2.04,1.132 c -0.761,0 -1.359,-1.183 -2.375,-1.183 -1.007,0 -1.589,1.183 -2.351,1.183 l -2.035,-1.132 c -0.387,0 -0.789,0.703 -1.774,0.703 0,0 -4.199,0.261 -4.199,5.969 0,4.39 3.379,8.113 2.617,10.808"
         style="fill:#100f0d;fill-opacity:1;fill-rule:nonzero;stroke:none"
         id="path60" /><path
         d="m 144.098,165.527 c 1.59,-1.828 4.121,-2.519 4.121,-2.519 l -4.047,-3.008 -0.051,-0.059 -0.082,0.079 -4.484,2.8 c 0,0 2.863,0.989 4.543,2.707"
         style="fill:#f6d009;fill-opacity:1;fill-rule:nonzero;stroke:none"
         id="path62" /><path
         d="m 150.227,183.008 c 0.32,-0.695 -2.622,-4.953 -2.622,-8.445 0,-4.29 2.293,-6.821 5.348,-6.821 l 1.766,-0.789 2.035,0.996 c 0.691,0 1.156,-1.094 2.351,-1.094 1.208,0 1.684,1.094 2.375,1.094 l 2.04,-0.996 1.765,0.789 c 3.051,0 5.34,2.531 5.34,6.821 0,3.492 -2.937,7.75 -2.613,8.445 0,0 5.722,-4.113 5.722,-8.945 0,-7.793 -7.906,-9.715 -7.906,-9.715 l 1.785,-4.016 c 0,0 -2.453,-0.359 -3.953,-1.57 -1.996,-1.614 -2.019,-5.957 -2.019,-8.899 0,-3.468 0.132,-4.933 1.382,-5.871 1.317,-0.996 2.309,-1.211 2.309,-2.215 0,-0.879 -1.019,-1.242 -2.363,-1.836 -1.508,-0.664 -1.664,-1.828 -3.864,-1.828 -2.187,0 -2.328,1.164 -3.847,1.828 -1.332,0.594 -2.36,0.957 -2.36,1.836 0,1.004 0.993,1.219 2.317,2.215 1.246,0.938 1.379,2.403 1.379,5.871 0,2.942 -0.028,7.285 -2.02,8.899 -1.5,1.211 -3.953,1.57 -3.953,1.57 l 1.785,4.016 c 0,0 -7.91,1.922 -7.91,9.715 0,4.832 5.731,8.945 5.731,8.945"
         style="fill:#f6d009;fill-opacity:1;fill-rule:nonzero;stroke:none"
         id="path64" /><path
         d="m 174.137,165.527 c 1.679,-1.718 4.539,-2.707 4.539,-2.707 0,0 -2.988,-1.48 -4.481,-2.8 l -0.09,-0.079 -0.046,0.059 c -1.414,1.633 -4.039,3.008 -4.039,3.008 0,0 2.523,0.691 4.117,2.519"
         style="fill:#f6d009;fill-opacity:1;fill-rule:nonzero;stroke:none"
         id="path66" /><path
         d="m 152.77,158.02 -1.875,-1.875 1.875,-1.875 1.875,1.875 -1.875,1.875"
         style="fill:#100f0d;fill-opacity:1;fill-rule:nonzero;stroke:none"
         id="path68" /><path
         d="m 165.465,158.02 -1.875,-1.875 1.875,-1.875 1.879,1.875 -1.879,1.875"
         style="fill:#100f0d;fill-opacity:1;fill-rule:nonzero;stroke:none"
         id="path70" /><path
         d="m 152.77,157.129 0.976,-0.984 -0.976,-0.989 -0.997,0.989 0.997,0.984"
         style="fill:#f6d009;fill-opacity:1;fill-rule:nonzero;stroke:none"
         id="path72" /><path
         d="m 165.465,157.129 0.996,-0.984 -0.996,-0.989 -0.977,0.989 0.977,0.984"
         style="fill:#f6d009;fill-opacity:1;fill-rule:nonzero;stroke:none"
         id="path74" /><path
         d="m 151.035,154.27 c 0.375,-0.918 1.262,-3.782 1.262,-7.207 0,-2.368 -0.231,-3.618 -0.231,-3.618 0,0 2.645,0.782 3.172,3.457 0.246,1.262 0.524,5.903 -0.75,6.692 l -3.453,0.676"
         style="fill:#100f0d;fill-opacity:1;fill-rule:nonzero;stroke:none"
         id="path76" /><path
         d="m 167.199,154.27 -3.453,-0.676 c -1.269,-0.789 -0.996,-5.43 -0.754,-6.692 0.528,-2.675 3.176,-3.457 3.176,-3.457 0,0 -0.227,1.25 -0.227,3.618 0,3.425 0.883,6.289 1.258,7.207"
         style="fill:#100f0d;fill-opacity:1;fill-rule:nonzero;stroke:none"
         id="path78" /><path
         d="m 144.609,153.516 -0.449,-0.059 c -1.187,-0.305 -1.91,-1.516 -1.609,-2.707 l 0.207,-0.508 -0.547,0.117 h -0.231 c -1.125,-0.039 -2.062,-0.925 -2.14,-2.078 -0.09,-1.218 0.844,-2.273 2.07,-2.351 l 0.528,0.015 -0.266,-0.468 c -0.453,-1.129 0.098,-2.45 1.242,-2.911 1.133,-0.449 2.43,0.122 2.891,1.25 l 0.136,0.532 0.372,-0.403 c 0.937,-0.793 2.347,-0.664 3.132,0.274 0.785,0.937 0.664,2.336 -0.277,3.125 l -0.457,0.293 0.492,0.222 c 1.039,0.657 1.352,2.043 0.703,3.079 l -2.023,1.027 -1.039,-0.332 -0.426,-0.344 -0.059,0.547 c -0.261,1.035 -1.218,1.727 -2.25,1.68"
         style="fill:#100f0d;fill-opacity:1;fill-rule:nonzero;stroke:none"
         id="path80" /><path
         d="m 152.242,153.23 1.856,-0.39 c 0.691,-0.945 0.57,-2.469 0.57,-4.598 0,-2.148 -1.605,-2.969 -1.605,-2.969 0,5.157 -0.54,6.399 -0.821,7.957"
         style="fill:#f6d009;fill-opacity:1;fill-rule:nonzero;stroke:none"
         id="path82" /><path
         d="m 165.98,153.23 c -0.273,-1.558 -0.808,-2.8 -0.808,-7.957 0,0 -1.602,0.821 -1.602,2.969 0,2.129 -0.121,3.653 0.567,4.598 l 1.843,0.39"
         style="fill:#f6d009;fill-opacity:1;fill-rule:nonzero;stroke:none"
         id="path84" /><path
         d="m 144.742,152.59 1.742,-1.313 0.036,-0.562 -0.11,-0.442 -0.859,0.149 -1.879,-0.852 -0.313,0.36 -0.23,0.508 c -0.234,0.929 0.332,1.867 1.262,2.101 l 0.351,0.051"
         style="fill:#f6d009;fill-opacity:1;fill-rule:nonzero;stroke:none"
         id="path86" /><path
         d="m 172.402,151.875 c -2.839,0 -4.918,-2.195 -4.632,-4.883 0.242,-2.265 2.078,-4.172 4.355,-4.707 l -0.73,2.09 c -0.282,2.688 1.796,4.871 4.636,4.871 l 1.309,-0.156 c -1,1.64 -2.891,2.785 -4.938,2.785"
         style="fill:#100f0d;fill-opacity:1;fill-rule:nonzero;stroke:none"
         id="path88" /><path
         d="m 148.207,151.25 1.398,-0.812 -0.546,-2.383 -0.528,-0.215 -0.461,-0.027 v 0.078 c 0,1.023 -0.625,1.914 -1.504,2.312 l 0.247,0.422 0.41,0.359 0.976,0.266 h 0.008"
         style="fill:#f6d009;fill-opacity:1;fill-rule:nonzero;stroke:none"
         id="path90" /><path
         d="m 172.402,150.867 2.485,-0.73 c -2.778,-0.535 -4.774,-2.981 -4.481,-5.852 -0.886,0.742 -1.535,1.723 -1.644,2.817 -0.231,2.125 1.316,3.765 3.64,3.765"
         style="fill:#f6d009;fill-opacity:1;fill-rule:nonzero;stroke:none"
         id="path92" /><path
         d="m 142.621,149.824 0.559,-0.144 0.383,-0.227 -0.528,-1.562 0.34,-1.258 -0.469,-0.207 -0.527,-0.051 c -0.949,0.07 -1.676,0.891 -1.613,1.84 0.07,0.957 0.898,1.68 1.855,1.609"
         style="fill:#f6d009;fill-opacity:1;fill-rule:nonzero;stroke:none"
         id="path94" /><path
         d="m 145.551,149.57 c 0.929,0 1.672,-0.761 1.672,-1.687 0,-0.918 -0.743,-1.66 -1.672,-1.66 -0.922,0 -1.668,0.742 -1.668,1.66 0,0.926 0.746,1.687 1.668,1.687"
         style="fill:#f6d009;fill-opacity:1;fill-rule:nonzero;stroke:none"
         id="path96" /><path
         d="m 148.059,147.645 0.48,-0.118 0.469,-0.269 0.211,-2.434 -2.434,-0.215 -0.363,0.45 -0.172,0.41 c 0.973,0.281 1.703,1.14 1.809,2.176"
         style="fill:#f6d009;fill-opacity:1;fill-rule:nonzero;stroke:none"
         id="path98" /><path
         d="m 143.453,146.484 2.098,-1.113 0.527,0.059 0.051,-0.489 -0.109,-0.527 -2.247,-0.957 -0.968,2.258 0.285,0.465 0.363,0.304"
         style="fill:#f6d009;fill-opacity:1;fill-rule:nonzero;stroke:none"
         id="path100" /><path
         d="m 156.117,142.363 c -1.551,0 -2.539,-0.324 -2.539,-0.793 0,-0.476 0.988,-0.789 2.539,-0.789 l 0.891,0.789 -0.891,0.793"
         style="fill:#100f0d;fill-opacity:1;fill-rule:nonzero;stroke:none"
         id="path102" /><path
         d="m 162.113,142.363 -0.886,-0.793 0.886,-0.789 c 1.555,0 2.539,0.313 2.539,0.789 0,0.469 -0.984,0.793 -2.539,0.793"
         style="fill:#100f0d;fill-opacity:1;fill-rule:nonzero;stroke:none"
         id="path104" /><path
         d="m 182.055,121.887 -0.625,-0.383 v -0.734 l -1.141,0.121 v -4.133 l 3.328,2.43 -0.762,0.871 0.598,0.418 -0.644,1.242 z m 25.269,47.949 -2.691,-1.965 0.305,-0.637 -0.715,-0.601 0.148,-1.059 -2.961,-0.039 c -0.355,-0.23 0.156,-2 -0.082,-3.496 -0.328,-2.078 -1.152,-1.914 -1.183,-2.312 l 0.316,-1.004 -0.582,-0.356 -0.09,-1.304 c -1.105,-2.18 -2.75,-5.403 -3.832,-7.532 l -0.766,-0.808 -0.035,-0.91 -0.972,-0.528 -0.106,-1.222 -0.676,-0.497 0.059,-0.925 c -1.457,-2.864 -3.172,-6.235 -4.227,-8.293 -0.386,-0.75 -1.734,-0.91 -2.515,-2.442 -0.762,-1.496 0.32,-2.59 0.32,-2.59 l -1.422,-0.691 0.746,-1.926 2.012,0.52 -0.305,1.562 c 0,0 1.535,-0.226 2.289,1.27 0.789,1.535 0.125,2.707 0.504,3.469 1.055,2.046 2.774,5.425 4.231,8.289 l 0.781,0.496 v 0.832 l 0.926,0.808 -0.137,1.106 0.723,0.554 0.203,1.094 c 1.082,2.129 2.726,5.356 3.84,7.531 l 1.008,0.848 -0.071,0.676 1.008,0.332 c 0.309,0.266 -0.312,0.828 1.18,2.324 1.066,1.067 2.789,1.699 2.769,2.129 l -1.703,2.402 0.926,0.497 0.078,0.949 0.699,0.117 v 3.332"
         style="fill:#100f0d;fill-opacity:1;fill-rule:nonzero;stroke:none"
         id="path106" /><path
         d="m 183.109,123.895 h 0.133 l 0.278,-0.106 1.656,-1.445 0.015,-0.754 -0.753,-0.074 -1.645,1.422 -0.023,0.761 z m -48.066,0 0.48,-0.196 -0.031,-0.761 -1.644,-1.422 -0.746,0.074 0.007,0.754 1.661,1.445 z m 49.121,1.085 h 0.133 l 0.277,-0.117 1.649,-1.425 0.019,-0.762 -0.75,-0.086 -1.66,1.441 -0.023,0.742 z m -50.176,0 0.489,-0.207 -0.02,-0.75 -1.664,-1.433 -0.746,0.086 0.019,0.762 1.649,1.425 z m 51.106,1.122 h 0.136 l 0.293,-0.125 1.641,-1.426 0.027,-0.762 -0.765,-0.09 -1.645,1.438 -0.031,0.754 z m -52.031,0 0.472,-0.211 -0.023,-0.754 -1.653,-1.438 -0.761,0.09 0.031,0.762 1.644,1.426 z m 52.878,0.586 0.157,-0.047 0.679,-0.594 0.016,-0.317 -0.316,-0.027 -0.68,0.586 -0.012,0.32 z m -53.593,0 0.156,-0.079 -0.012,-0.32 -0.679,-0.586 -0.313,0.027 0.02,0.325 0.671,0.586 z m 21.398,9.062 c 0,0 -8.203,-18.855 -15.484,-21.758 0,0 3.164,-1.347 7.054,-3.367 l 1.747,-0.93 1.511,1.926 c 2.321,3.106 4.602,6.719 4.602,6.719 0.16,-0.938 -1.071,-3.828 -3.153,-7.402 l -1.308,-2.176 1.574,-0.922 c 3.856,-2.32 7.481,-4.981 8.816,-7.43 1.34,2.449 4.961,5.11 8.817,7.43 l 1.57,0.922 -1.308,2.176 c -2.075,3.574 -3.305,6.464 -3.145,7.402 0,0 2.27,-3.613 4.594,-6.719 l 1.519,-1.926 1.743,0.93 c 3.886,2.02 7.062,3.367 7.062,3.367 -7.285,2.903 -15.488,21.758 -15.488,21.758 l -1.211,-0.352 c 0,0 6.543,-16.296 12.937,-21.226 -1.453,-0.442 -3.152,-1.067 -4.91,-1.82 -2.14,2.511 -4.347,5.878 -6.144,8.878 -1.934,3.243 -3.52,8.926 -3.52,8.926 -0.894,-2.187 1.02,-13.144 4.879,-20.078 -3.195,-1.66 -6.031,-3.469 -7.395,-4.941 -1.355,1.472 -4.199,3.281 -7.402,4.941 3.867,6.934 5.781,17.891 4.883,20.078 0,0 -1.586,-5.683 -3.52,-8.926 -1.796,-3 -4.007,-6.367 -6.136,-8.878 -1.758,0.753 -3.469,1.378 -4.918,1.82 6.398,4.93 12.937,21.226 12.937,21.226 z m 22.734,0.988 0.469,-0.168 c 0.274,-0.418 3.067,-4.734 4.793,-7.398 l 2.766,-0.195 c 1.101,-0.207 2.676,-1.379 2.832,-1.797 l -0.352,-0.657 c -0.39,-0.019 -0.746,0.516 -2.023,0.907 -1.172,0.363 -2.051,-0.028 -3.063,0.722 0.051,-0.972 1.379,-1.714 1.379,-2.402 l -1.355,0.566 0.07,-1.218 -0.664,-0.887 -0.84,2.164 c -1.824,2.465 -5.515,7.5 -6.156,8.383 l 0.23,1.172 1.504,-1.028 z m -34.738,0 0.41,-1.836 1.504,1.028 0.231,-1.172 c -0.641,-0.883 -4.332,-5.918 -6.157,-8.383 l -0.839,-2.164 -0.664,0.879 0.078,1.226 -1.364,-0.574 c 0,0.696 1.332,1.438 1.383,2.41 -1.015,-0.75 -1.894,-0.359 -3.062,-0.722 -1.282,-0.391 -1.637,-0.926 -2.028,-0.907 l -0.343,0.657 c 0.148,0.418 1.722,1.59 2.824,1.797 l 2.765,0.195 c 1.719,2.664 4.52,6.98 4.79,7.398 z m 34.453,4.532 -0.82,-0.411 c 0,0 1.152,-2.832 2.129,-3.3 l -1.777,0.351 -0.274,-1.64 -1.504,0.75 -0.554,-1.993 -3.356,3.508 -1.168,-0.762 c 0,0 4.199,-3.378 5.078,-5.136 l 0.149,0.808 c 0.765,-1.023 4.14,-5.496 5.828,-7.832 l 0.984,-2.097 c 0.852,-1.258 1.785,-1.875 2.746,-2.746 l 1.719,0.097 2.449,3 0.239,-0.488 0.816,1.816 -0.699,2.235 c -0.391,0.668 -2.715,2.297 -3.742,2.297 -1.25,0 -1.817,-0.618 -2.618,0.781 -0.863,1.484 -3.613,5.449 -3.972,5.969 l 1.101,0.054 -2.754,4.739 h 0.012 z m -34.175,0 -2.747,-4.739 1.11,-0.054 c -0.367,-0.52 -3.113,-4.485 -3.973,-5.969 -0.808,-1.399 -1.375,-0.781 -2.617,-0.781 -1.027,0 -3.359,-1.629 -3.738,-2.297 l -0.703,-2.235 0.808,-1.816 0.238,0.488 2.45,-3 1.722,-0.097 c 0.961,0.871 1.891,1.488 2.743,2.746 l 0.984,2.097 c 1.699,2.336 5.062,6.809 5.836,7.832 l 0.14,-0.808 c 0.879,1.758 5.079,5.129 5.079,5.129 l -1.164,0.769 -3.36,-3.508 -0.555,1.993 -1.496,-0.75 -0.277,1.64 -1.781,-0.351 c 0.976,0.468 2.129,3.3 2.129,3.3 l -0.821,0.411 z m 51.14,42 2.059,-1.903 2.031,1.895 v -59.297 c -1.332,0.808 -4.09,4.324 -4.09,5.84 z m -68.097,0 v -53.465 c 0,-1.516 -2.754,-5.032 -4.09,-5.84 v 59.297 l 2.035,-1.895 z m 66.925,0.019 v -55.242 c 0,0 -3.441,3.484 -4.355,4.402 0.097,1.528 0.242,3.86 0.242,3.86 v 46.961 l 2.059,-1.903 z m -65.754,0 2.063,-1.922 2.058,1.903 v -46.961 c 0,0 0.149,-2.332 0.243,-3.86 -0.914,-0.918 -4.364,-4.402 -4.364,-4.402 z m 68.633,6.281 v -5.675 l -1.113,1.035 -0.84,0.773 v 2.051 l 0.84,0.769 z m -4.59,0 1.114,-1.047 0.839,-0.781 v -2.019 l -0.839,-0.793 -1.114,-1.035 z m -0.699,0 v -5.675 l -1.105,1.027 -0.84,0.801 v 2.019 z m -4.582,0 1.942,-1.965 v -1.902 l -0.84,-0.781 -1.102,-1.035 z m -51.758,0 v -5.695 l -1.113,1.047 -0.84,0.781 v 1.902 z m -4.59,0 1.95,-1.828 v -2.019 l -0.848,-0.801 -1.102,-1.027 z m -0.703,0 v -5.675 l -1.113,1.035 -0.832,0.793 v 2.019 l 0.832,0.781 z m -4.59,0 1.114,-1.047 0.84,-0.769 v -2.051 l -0.84,-0.773 -1.114,-1.035 z m 72.208,0.008 1.695,-1.582 v -2.527 l -1.695,-1.594 z m -72.891,0 v -5.703 l -1.699,1.594 v 2.527 z m 64.961,6.098 1.945,-1.875 v -2.024 l -1.945,-1.816 z m -57.031,0 v -5.715 l -1.954,1.816 v 2.024 z m 56.336,0.308 v -6.179 c -1.278,0.683 -2.461,2.246 -2.915,2.89 1.274,0.625 2.622,2.801 2.915,3.289 z m -55.653,0 c 0.293,-0.488 1.641,-2.664 2.918,-3.289 -0.449,-0.644 -1.629,-2.207 -2.918,-2.898 z m 61.641,0.469 1.941,-2.039 v -2.637 l -1.941,-1.816 v 6.504 z m -67.617,0 v -6.492 l -1.954,1.816 v 2.637 z m 66.921,0.539 v -7.043 l -1.953,1.828 v 2.246 z m -66.23,0 1.949,-2.969 v -2.246 L 126,189.949 Z m 70.676,0.457 0.582,-1.824 v -5.41 l -1.695,1.57 v 3.645 z m -75.117,0 1.113,-2.019 v -3.645 l -1.699,-1.57 v 5.41 z m 68.183,7.297 c 2.235,-1.633 4.613,-3.906 6.082,-5.937 l -1.219,-2.629 -2.406,2.48 v 0.625 l -0.73,1.66 -0.703,-0.254 0.738,-1.503 v -0.77 l -2.094,-3.164 -1.777,1.902 -0.121,0.141 -0.231,0.242 v 0.352 l -0.566,1.367 -0.715,-0.254 0.578,-1.211 v -0.605 c -0.723,-1.036 -2.211,-2.977 -3.398,-3.387 v 4.414 l 0.058,1.5 c 1.633,0.566 6.504,5.019 6.504,5.019 z m -61.25,0 v -0.012 c 0,0 4.863,-4.453 6.504,-5.019 l 0.059,-1.5 v -4.414 c -1.188,0.41 -2.676,2.351 -3.399,3.387 v 0.605 l 0.578,1.211 -0.714,0.254 -0.567,-1.367 v -0.352 l -0.234,-0.242 -0.117,-0.141 -1.786,-1.902 -2.086,3.164 v 0.77 l 0.735,1.503 -0.703,0.254 -0.723,-1.66 v -0.625 l -2.41,-2.48 -1.223,2.629 c 1.465,2.031 3.848,4.304 6.09,5.937 z m 27.485,9.324 0.699,-0.007 c 2.715,0 4.617,-1.243 7.176,-2.375 l 1.847,-0.731 -0.695,-0.867 c 0,0 1.152,-0.219 1.672,-1.176 l -1.27,-0.762 1.219,-1.562 -1.547,0.488 c 0,0 0.375,-1.746 0.375,-3.633 0,-0.965 -1.394,-2.105 -1.394,-3.738 0,-5.144 1.296,-7.117 2.214,-8.711 l 1.262,-1.875 c -2.648,1.414 -4.625,3.176 -4.625,4.824 v 6.211 h -0.687 v -6.211 c 0,-1.191 0.293,-1.75 0.293,-1.75 0.414,-1.316 1.254,-3.347 1.777,-4.16 -2.441,1.32 -3.684,2.973 -3.684,3.586 v 8.535 h -0.691 v -8.664 l 0.137,-0.594 -0.95,-1.14 -0.925,1.14 0.136,0.594 v 8.664 h -0.695 v -8.535 c 0,-0.613 -1.238,-2.266 -3.68,-3.586 0.524,0.813 1.364,2.844 1.782,4.16 0,0 0.289,0.559 0.289,1.75 v 6.211 h -0.696 v -6.211 c 0,-1.64 -1.961,-3.41 -4.609,-4.824 l 1.25,1.875 c 1.008,1.738 2.246,3.945 2.246,10.234 0,2.356 -0.348,3.965 -0.957,5.079 -0.18,0.371 -0.43,1.355 0.984,1.355 l 2.415,-1.289 -0.922,1.621 -0.375,0.684 0.652,0.883 c 0.195,0.085 -2.883,0.625 -2.883,2.019 l 0.824,0.481 c 0.832,0 2.207,-1.008 3.414,-1.008 0.891,0 1.243,0.222 2.165,0.222 1.121,0 3.464,-2.129 4.265,-2.05 -0.898,0.57 -2.344,2.699 -4.531,2.699 l -2.152,-0.18 c -0.914,0 -1.809,0.844 -2.789,0.844 l -1.5,0.125 0.16,0.715 c 0.332,0.465 1.265,0.601 2.187,0.633 z m -0.063,0.766 -2.816,-0.512 -0.856,-1.219 -1.945,-0.46 c -2.942,0 -3.051,-3.153 -3.051,-3.153 0,0 0.758,1.145 2.086,1.145 2.207,0 3.887,-1.203 3.887,-1.66 l -0.246,-0.215 c -1.446,0 -3.621,0.828 -4.785,0.867 v -0.457 l 0.05,-0.039 -0.05,0.015 v -0.085 c 2.589,-0.899 5.207,-2.168 5.207,-7.786 0,-3.535 -0.422,-7.136 -2.188,-9.976 -0.625,-1.008 -1.519,-1.86 -2.594,-2.629 -0.476,0.144 -2.718,0.84 -4.3,1.719 -2.77,1.55 -4.208,3.086 -7.5,3.23 v 2.512 c 0,1.34 0.484,2.547 0.484,3.828 -1.387,0.371 -5.242,5.09 -8.805,7.18 -5.234,-3.391 -9.281,-8.957 -9.281,-11.516 0,0 0.16,-54.98 0,-74.141 0,-1.101 -0.672,-2.668 -0.672,-2.668 1.914,0.813 5.41,5.61 6.152,7.422 v -0.867 c 2.891,1.317 5,4.774 5.946,6.563 l 0.062,-0.911 c 2.578,2.258 5.86,15.618 5.86,15.618 l -0.176,2.812 c 0,0 -2.266,-10.906 -4.844,-13.152 v 46.961 l 2.039,-1.895 3.102,2.891 v 2.195 l -2.75,-2.558 v 6.64 l 0.894,1.465 c 0.446,-0.77 1.887,-3.152 3.571,-4.605 0.281,1.128 2.109,2.207 2.109,2.207 0,0 0.652,-1.782 1.66,-2.219 l 2.453,1.992 -2.523,-0.957 -0.789,2.617 c 0,0 -2.649,-1.289 -3.117,-2.219 l -1.59,2.942 1.965,0.117 c 0.757,0 1.726,-0.359 2.742,-0.84 1.113,-0.527 2.273,-1.191 3.312,-1.66 1.336,-0.598 3.348,-0.723 3.934,-0.754 l -2.207,-1.297 c 0,0 3.164,0.02 5.394,1.133 l 2.321,1.621 -1.52,-2.715 c 3.266,0.282 4.899,2.149 5.359,2.774 l 1.207,-2.239 1.227,2.239 c 0.465,-0.625 2.09,-2.492 5.367,-2.774 l -1.527,2.715 2.328,-1.621 c 2.223,-1.113 5.395,-1.133 5.395,-1.133 l -2.231,1.297 c 0.566,0.031 2.606,0.149 3.953,0.754 1.035,0.469 2.203,1.133 3.313,1.66 1.015,0.481 1.98,0.84 2.734,0.84 l 1.977,-0.117 -1.598,-2.942 c -0.465,0.93 -3.113,2.219 -3.113,2.219 l -0.785,-2.617 -2.528,0.957 2.453,-1.992 c 1.004,0.437 1.649,2.219 1.649,2.219 0,0 1.844,-1.079 2.117,-2.207 1.691,1.453 3.129,3.835 3.566,4.605 l 0.899,-1.465 v -6.64 l -2.742,2.558 v -2.195 l 3.093,-2.891 2.047,1.895 v -46.961 c -2.59,2.246 -4.859,13.152 -4.859,13.152 l -0.164,-2.812 c 0,0 3.281,-13.36 5.859,-15.618 l 0.059,0.911 c 0.953,-1.789 3.058,-5.246 5.945,-6.563 v 0.867 c 0.734,-1.812 4.238,-6.609 6.149,-7.422 0,0 -0.668,1.567 -0.668,2.668 -0.153,19.161 0,74.141 0,74.141 0,2.559 -4.047,8.125 -9.278,11.516 -3.558,-2.09 -7.414,-6.809 -8.804,-7.18 0,-1.281 0.484,-2.488 0.484,-3.828 v -2.5 c -3.293,-0.149 -4.738,-1.699 -7.512,-3.242 -1.582,-0.879 -3.851,-1.582 -4.305,-1.719 -1.066,0.762 -1.953,1.621 -2.578,2.629 -1.504,2.422 -2.14,5.387 -2.14,8.406 0,1.27 1.426,2.703 1.426,3.738 0,1.555 -0.145,2.493 -0.145,2.493 l 1.395,-0.965 -0.848,3.035 c 0,0 0.332,0.344 1.523,0.371 l -2.004,1.894 0.442,0.391 1.453,0.469 -1.629,0.449 c -1.387,0.449 -3.016,1.113 -4.531,1.836 -2.774,1.328 -4.891,1.418 -6.055,1.418"
         style="fill:#100f0d;fill-opacity:1;fill-rule:nonzero;stroke:none"
         id="path108" /><path
         d="m 180.676,120.41 v -2.859 l 2.328,1.668 -1.008,0.906 z m 1.379,1.082 -0.36,-0.164 0.516,-0.781 0.937,0.039 -0.527,0.769 z m 4.687,9.289 -0.765,-0.441 0.57,-1.277 1.379,0.292 -0.578,1.282 z m 7.106,13.34 -0.426,-0.332 c 0,0 -2.942,-5.793 -3.984,-7.832 -0.329,-0.644 -1.723,-1.055 -2.274,-2.129 -0.547,-1.074 -0.16,-2.09 0.563,-2.453 0.714,-0.367 1.769,-0.105 2.316,0.977 0.547,1.078 0.059,2.453 0.391,3.097 1.043,2.039 3.98,7.84 3.98,7.84 l -0.23,0.774 z m 0.394,1.484 -0.418,-0.234 0.555,-0.937 1.09,0.097 -0.559,0.938 -0.656,0.136 z m 0.922,1.739 -0.726,-0.332 0.656,-1.172 1.336,0.156 -0.66,1.172 z m 0.68,1.386 -0.422,-0.234 0.555,-0.937 1.093,0.097 -0.57,0.938 z m 5.031,9.551 -0.527,-0.371 c -0.149,-0.293 -0.059,-0.676 -1.231,-2.969 -0.512,-1.003 -0.722,-1.406 -1.273,-2.492 -0.563,-1.101 -1.379,-2.691 -1.379,-2.691 l 0.238,-0.781 0.754,0.269 c 0,0 0.82,1.594 1.383,2.695 0.551,1.086 0.754,1.504 1.262,2.5 1.171,2.297 1.535,2.454 1.675,2.747 l -0.394,0.988 -0.508,0.105 v 0.008 z m 4.375,6.348 0.547,-1.555 c 0.008,-0.234 -1.93,-1.621 -2.598,-2.937 -0.578,-1.114 -0.816,-1.739 -0.816,-1.739 l 0.777,-0.128 0.125,1.164 c 0.207,0.402 0.266,0.879 1.168,1.601 0.961,0.762 2.262,1.426 2.25,1.621 z m -0.469,0.195 -1.683,-0.488 c -0.203,-0.195 -0.114,-2.188 -0.895,-3.723 -0.648,-1.277 -0.969,-1.746 -0.969,-1.746 l 0.403,-0.207 0.394,-0.195 c 0,0 0.192,0.519 0.836,1.801 0.785,1.531 2.461,2.644 2.488,2.918 z m -2.445,0.321 -0.445,-0.028 c -0.172,-0.105 0.058,-1.554 0.007,-2.773 -0.046,-1.153 -0.414,-1.485 -0.621,-1.875 l -0.851,-0.801 0.551,-0.559 c 0,0 0.367,0.571 0.933,1.68 0.672,1.32 0.653,3.711 0.848,3.84 l 1.574,0.461 z m 2.961,1.855 -0.664,-0.418 0.449,-1.152 1.188,0.312 -0.45,1.153 z m 1.527,1.855 -1.574,-1.113 0.801,-0.418 0.801,-0.398 -0.028,1.929"
         style="fill:#f6d009;fill-opacity:1;fill-rule:nonzero;stroke:none"
         id="path110" /><path
         d="m 123.676,136.973 c 0,0 1.308,-2.703 2.316,-3.078 l -2.199,-0.477 c 0,0 2.961,-2.637 5.465,-2.813 2.129,-0.144 3.16,0.918 3.16,0.918 l -0.426,2.247 c 0,0 -1.304,1.57 -3.383,2.293 -2.101,0.734 -4.933,0.91 -4.933,0.91"
         style="fill:#100f0d;fill-opacity:1;fill-rule:nonzero;stroke:none"
         id="path112" /><path
         d="m 133.578,141.836 c 0,0 -1.816,-1.555 -2.305,-3.352 -0.496,-1.796 0.313,-3.843 0.313,-3.843 l 1.535,-2.836 c 0,0 2.109,1.117 3.008,2.804 0.898,1.68 0.566,3.946 0.566,3.946 l -1.886,-0.899 c 0.351,1.864 -1.231,4.18 -1.231,4.18"
         style="fill:#100f0d;fill-opacity:1;fill-rule:nonzero;stroke:none"
         id="path114" /><path
         d="m 127.75,142.559 c 0,0 -2.066,-0.696 -4.062,-0.579 -1.915,0.122 -3.497,1.719 -3.497,1.719 l 2.364,0.93 -2.11,2.461 c 0,0 1.774,0.547 3.34,-0.051 1.57,-0.594 2.938,-2.312 2.938,-2.312 l 1.027,-2.168"
         style="fill:#100f0d;fill-opacity:1;fill-rule:nonzero;stroke:none"
         id="path116" /><path
         d="m 128.461,152.637 0.781,-2.879 1.535,1.265 c 0,0 0.731,-3.457 0.028,-5.593 -0.7,-2.141 -2.825,-2.95 -2.825,-2.95 l -2.355,4.571 c 0,0 -0.348,1.699 0.387,3.039 0.73,1.336 2.449,2.547 2.449,2.547"
         style="fill:#100f0d;fill-opacity:1;fill-rule:nonzero;stroke:none"
         id="path118" /><path
         d="m 115.039,158.289 c 0,0 2.231,0.234 4.27,-0.601 1.703,-0.715 2.23,-2.004 2.23,-2.004 l 0.84,-2.246 c 0,0 -2.434,-0.911 -4.348,-0.215 -1.918,0.691 -3.328,3 -3.328,3 l 1.856,0.308 -1.52,1.758"
         style="fill:#100f0d;fill-opacity:1;fill-rule:nonzero;stroke:none"
         id="path120" /><path
         d="m 122.047,162.473 c 0,0 0.98,-1.262 1.016,-2.707 l 1.476,1.621 c 0,0 1.258,-3.035 0.984,-5.196 -0.273,-2.16 -2.089,-3.437 -2.089,-3.437 l -2.25,4.277 c 0,0 -0.731,1.758 -0.516,3.114 0.215,1.359 1.379,2.328 1.379,2.328"
         style="fill:#100f0d;fill-opacity:1;fill-rule:nonzero;stroke:none"
         id="path122" /><path
         d="m 114.332,170.652 c 0,0 -0.406,-2.332 0.281,-3.672 0.617,-1.199 1.004,-1.46 1.004,-1.46 -1.168,0.769 -2.941,0.835 -2.941,0.835 0,0 0.629,-2.527 2.137,-3.691 1.503,-1.148 3.824,-0.887 3.824,-0.887 0,0 1.535,2.039 1.426,4.231 -0.106,2.183 -1.844,4.539 -1.844,4.539 0,0 -0.684,-1.426 -0.746,-2.492 -0.446,1.093 -3.141,2.597 -3.141,2.597"
         style="fill:#100f0d;fill-opacity:1;fill-rule:nonzero;stroke:none"
         id="path124" /><path
         d="m 115.016,169.238 c 0,0 -0.059,-1.711 0.504,-2.675 0.566,-0.965 1.82,-1.348 1.82,-1.348 0,0 0.058,1.699 -0.504,2.668 -0.563,0.965 -1.82,1.355 -1.82,1.355"
         style="fill:#267652;fill-opacity:1;fill-rule:nonzero;stroke:none"
         id="path126" /><path
         d="m 113.832,165.383 2.344,-0.742 1.183,-2.016 -1.836,0.551 -1.691,2.207"
         style="fill:#267652;fill-opacity:1;fill-rule:nonzero;stroke:none"
         id="path128" /><path
         d="m 118.48,168.816 c 0,0 -0.492,-1.121 -0.437,-2.339 0.059,-1.211 0.766,-2.59 0.766,-2.59 0,0 0.64,1.465 0.589,2.683 -0.062,1.211 -0.75,1.907 -0.918,2.246"
         style="fill:#267652;fill-opacity:1;fill-rule:nonzero;stroke:none"
         id="path130" /><path
         d="m 115.992,157.859 c 0,0 0.723,-1.011 1.844,-1.57 1.113,-0.547 2.781,-0.566 2.781,-0.566 0,0 -0.832,1.074 -1.949,1.629 -1.113,0.546 -2.676,0.507 -2.676,0.507"
         style="fill:#267652;fill-opacity:1;fill-rule:nonzero;stroke:none"
         id="path132" /><path
         d="m 116.348,155.508 c 0,0 0.531,-1.055 1.507,-1.492 0.977,-0.453 2.973,-0.422 2.973,-0.422 0,0 -0.765,0.976 -1.742,1.426 -0.977,0.449 -2.738,0.488 -2.738,0.488"
         style="fill:#267652;fill-opacity:1;fill-rule:nonzero;stroke:none"
         id="path134" /><path
         d="m 121.969,161.074 c 0,0 -0.586,-0.969 -0.531,-2.043 0.062,-1.07 0.765,-2.254 0.765,-2.254 0,0 0.492,1.348 0.438,2.422 -0.059,1.074 -0.672,1.875 -0.672,1.875"
         style="fill:#267652;fill-opacity:1;fill-rule:nonzero;stroke:none"
         id="path136" /><path
         d="m 124.145,159.695 c 0,0 -1.016,-1.343 -1.157,-2.742 -0.14,-1.398 0.571,-2.82 0.571,-2.82 0,0 1.226,1.219 1.367,2.613 0.148,1.391 -0.781,2.949 -0.781,2.949"
         style="fill:#267652;fill-opacity:1;fill-rule:nonzero;stroke:none"
         id="path138" /><path
         d="m 121.363,146.836 0.539,-1.035 1.149,-1.094 1.558,0.039 2.024,-0.969 c 0,0 -1.242,1.86 -2.531,2.578 -1.286,0.723 -2.739,0.481 -2.739,0.481"
         style="fill:#267652;fill-opacity:1;fill-rule:nonzero;stroke:none"
         id="path140" /><path
         d="m 121.234,143.652 c 0,0 1.602,0.684 2.93,0.508 1.32,-0.176 2.516,-1.222 2.516,-1.222 0,0 -1.793,-0.614 -3.117,-0.438 -1.321,0.176 -2.329,1.152 -2.329,1.152"
         style="fill:#267652;fill-opacity:1;fill-rule:nonzero;stroke:none"
         id="path142" /><path
         d="m 128.023,151.121 c 0,0 -1.425,-1.504 -1.543,-2.808 -0.117,-1.313 1.153,-2.524 1.153,-2.524 l 0.156,1.391 0.688,1.14 0.117,1.211 -0.571,1.59"
         style="fill:#267652;fill-opacity:1;fill-rule:nonzero;stroke:none"
         id="path144" /><path
         d="m 130.059,149.375 c 0,0 -1.344,-1.348 -1.696,-2.805 -0.351,-1.445 0.285,-2.996 0.285,-2.996 0,0 1.215,0.957 1.571,2.41 0.351,1.457 -0.16,3.391 -0.16,3.391"
         style="fill:#267652;fill-opacity:1;fill-rule:nonzero;stroke:none"
         id="path146" /><path
         d="m 133.414,140.637 c 0,0 0.606,-1.274 0.762,-2.324 0.148,-1.067 0.008,-1.426 0.008,-1.426 l -0.907,-0.981 -0.41,-1.316 c 0,0 -1.262,1.863 -1.066,3.23 0.191,1.379 1.613,2.817 1.613,2.817"
         style="fill:#267652;fill-opacity:1;fill-rule:nonzero;stroke:none"
         id="path148" /><path
         d="m 136.07,137.703 c 0,0 -1.613,-1.062 -2.257,-2.156 -0.633,-1.094 -0.305,-2.219 -0.305,-2.219 0,0 1.144,0.11 1.789,1.203 0.641,1.094 0.773,3.172 0.773,3.172"
         style="fill:#267652;fill-opacity:1;fill-rule:nonzero;stroke:none"
         id="path150" /><path
         d="m 125.473,133.203 c 0,0 2.32,0.067 3.742,-0.281 1.422,-0.356 1.937,-1.117 1.937,-1.117 0,0 -1.597,-0.742 -3.011,-0.399 -1.426,0.352 -2.668,1.797 -2.668,1.797"
         style="fill:#267652;fill-opacity:1;fill-rule:nonzero;stroke:none"
         id="path152" /><path
         d="m 125.078,135.957 c 0,0 1.051,-1.621 2.406,-2.207 1.868,-0.82 4.036,-0.422 4.036,-0.422 0,0 -1.176,1.438 -2.793,2.07 -1.622,0.649 -3.649,0.559 -3.649,0.559"
         style="fill:#267652;fill-opacity:1;fill-rule:nonzero;stroke:none"
         id="path154" /><path
         d="m 132.539,131.609 0.063,-0.828 c 1.386,-0.011 1.593,0.125 1.953,-0.312 l 1.367,-0.281 0.562,1.5 -1.293,0.585 -0.781,-0.437 -1.871,-0.227"
         style="fill:#100f0d;fill-opacity:1;fill-rule:nonzero;stroke:none"
         id="path156" /><path
         d="m 132.418,132.258 0.684,-0.5 c -0.735,-1.184 -0.957,-1.289 -0.774,-1.817 l -0.488,-1.32 -1.57,0.324 0.183,1.407 0.793,0.429 1.172,1.477"
         style="fill:#100f0d;fill-opacity:1;fill-rule:nonzero;stroke:none"
         id="path158" /><path
         d="m 127.715,142.188 0.058,-0.84 c 1.391,-0.008 1.598,0.129 1.957,-0.313 l 1.368,-0.285 0.562,1.508 -1.301,0.594 -0.781,-0.45 -1.867,-0.214 h 0.004"
         style="fill:#100f0d;fill-opacity:1;fill-rule:nonzero;stroke:none"
         id="path160" /><path
         d="m 127.992,141.895 0.594,-0.594 c -0.898,-1.059 -1.141,-1.125 -1.047,-1.684 l -0.68,-1.219 -1.507,0.555 0.406,1.367 0.847,0.293 1.387,1.282"
         style="fill:#100f0d;fill-opacity:1;fill-rule:nonzero;stroke:none"
         id="path162" /><path
         d="m 123.031,152.078 0.071,-0.828 c 1.386,-0.02 1.589,0.125 1.949,-0.312 l 1.363,-0.293 0.563,1.511 -1.293,0.586 -0.778,-0.445 -1.875,-0.219"
         style="fill:#100f0d;fill-opacity:1;fill-rule:nonzero;stroke:none"
         id="path164" /><path
         d="m 123.422,152.258 0.594,-0.598 c -0.907,-1.055 -1.149,-1.125 -1.047,-1.68 l -0.68,-1.218 -1.512,0.562 0.407,1.367 0.851,0.293 1.387,1.274"
         style="fill:#100f0d;fill-opacity:1;fill-rule:nonzero;stroke:none"
         id="path166" /><path
         d="m 118.051,162.527 0.058,-0.828 c 1.395,-0.019 1.602,0.117 1.954,-0.324 l 1.375,-0.281 0.558,1.511 -1.289,0.586 -0.781,-0.449 -1.875,-0.215"
         style="fill:#100f0d;fill-opacity:1;fill-rule:nonzero;stroke:none"
         id="path168" /><path
         d="m 118.438,162.703 0.589,-0.594 c -0.898,-1.054 -1.136,-1.125 -1.043,-1.679 l -0.675,-1.219 -1.508,0.555 0.394,1.367 0.852,0.305 1.391,1.265"
         style="fill:#100f0d;fill-opacity:1;fill-rule:nonzero;stroke:none"
         id="path170" /><path
         d="m 126.832,144.668 c -0.5,-0.203 -1.242,1.965 -1.781,3.145 -0.555,1.218 -1.688,3.093 -1.363,3.242 0.351,0.168 0.816,-0.821 1.378,-2.071 0.575,-1.25 2.235,-4.121 1.766,-4.316"
         style="fill:#edd30a;fill-opacity:1;fill-rule:nonzero;stroke:none"
         id="path172" /><path
         d="m 121.715,156.086 c -0.5,-0.207 -1.047,1.211 -1.586,2.398 -0.555,1.223 -1.094,2.082 -0.777,2.231 0.351,0.152 0.867,-0.91 1.328,-1.906 0.441,-0.969 1.504,-2.532 1.035,-2.723"
         style="fill:#edd30a;fill-opacity:1;fill-rule:nonzero;stroke:none"
         id="path174" /><path
         d="m 133.551,130.195 c -0.391,-0.105 -2.102,3.465 -3.477,6.485 -1.386,3.027 -2.414,5.468 -2.09,5.617 0.352,0.152 1.473,-2.695 2.852,-5.715 1.383,-3.027 3.008,-6.309 2.715,-6.387"
         style="fill:#edd30a;fill-opacity:1;fill-rule:nonzero;stroke:none"
         id="path176" /><path
         d="m 147.883,210.742 c 0,0 0.57,1.074 2.015,1.074 l 2.598,0.047 c 0.262,-0.691 1.481,-1.843 1.481,-3.047 0,0 -1.227,2.219 -4.664,2.219 l -1.438,-0.293 h 0.008"
         style="fill:#d11c31;fill-opacity:1;fill-rule:nonzero;stroke:none"
         id="path178" /><path
         d="m 152.305,210.43 -0.844,0.554 0.652,0.079 z"
         style="fill:#100f0d;fill-opacity:1;fill-rule:nonzero;stroke:none"
         id="path180" /><path
         d="m 153.461,208.398 -0.887,-1.183 -1.992,1.574 c 0,0 1.074,-0.625 2.879,-0.391"
         style="fill:#d11c31;fill-opacity:1;fill-rule:nonzero;stroke:none"
         id="path182" /><path
         d="m 157.145,210.41 -1.211,-0.957 -1.207,0.957 1.207,0.957 1.211,-0.957"
         style="fill:#100f0d;fill-opacity:1;fill-rule:nonzero;stroke:none"
         id="path184" /><path
         d="m 156.777,210.41 -0.843,-0.84 -0.84,0.84 0.84,0.852 0.843,-0.852"
         style="fill:#f6d009;fill-opacity:1;fill-rule:nonzero;stroke:none"
         id="path186" /><path
         d="m 156.293,210.41 -0.352,-0.359 -0.359,0.34 v 0.019 l 0.34,0.371 0.371,-0.351 v -0.02"
         style="fill:#100f0d;fill-opacity:1;fill-rule:nonzero;stroke:none"
         id="path188" /><path
         d="m 136.656,185.957 h 44.91 c 0,0 -0.605,-0.723 -0.605,-1.926 v -32.441 -4.91 c 0,-0.821 -0.844,-2.727 -5.723,-5.157 -8.07,-4.023 -14.265,-5.898 -16.133,-8.183 -1.855,2.285 -8.054,4.16 -16.121,8.183 -4.879,2.43 -5.722,4.336 -5.722,5.157 v 4.91 32.441 c 0,1.203 -0.606,1.926 -0.606,1.926 z m -2.648,1.191 c 0,0 2.062,-1.543 2.062,-3.117 v -32.441 -4.91 c 0,-0.989 0.301,-1.629 0.789,-2.254 0.481,-0.676 1.508,-1.606 2.579,-2.297 3.292,-2.141 8.808,-4.402 12.98,-6.301 3.477,-1.582 4.887,-2.215 6.687,-4.453 1.809,2.238 3.239,2.871 6.711,4.453 4.168,1.899 9.676,4.16 12.977,6.301 1.07,0.691 2.102,1.621 2.578,2.297 0.481,0.625 0.774,1.265 0.774,2.254 v 4.91 32.441 c 0,1.574 2.058,3.117 2.058,3.117 h -2.191 -1.285 -21.622 -21.613 -1.285 -2.199"
         style="fill:#edd30a;fill-opacity:1;fill-rule:nonzero;stroke:none"
         id="path190" /></g></g></svg>
