<?xml version="1.0" encoding="UTF-8" standalone="no"?>
<svg
   xmlns:dc="http://purl.org/dc/elements/1.1/"
   xmlns:cc="http://creativecommons.org/ns#"
   xmlns:rdf="http://www.w3.org/1999/02/22-rdf-syntax-ns#"
   xmlns:svg="http://www.w3.org/2000/svg"
   xmlns="http://www.w3.org/2000/svg"
   version="1.1"
   id="svg2"
   xml:space="preserve"
   width="42.666668"
   height="42.666668"
   viewBox="0 0 42.666668 42.666668"><metadata
     id="metadata8"><rdf:RDF><cc:Work
         rdf:about=""><dc:format>image/svg+xml</dc:format><dc:type
           rdf:resource="http://purl.org/dc/dcmitype/StillImage" /></cc:Work></rdf:RDF></metadata><defs
     id="defs6" /><g
     id="g10"
     transform="matrix(1.3333333,0,0,-1.3333333,0,42.666667)"><g
       id="g12"
       transform="scale(0.1)"><path
         d="m 160,-0.00390625 c 88.137,0 160,71.87500625 160,160.01190625 0,88.117 -71.863,159.996 -160,159.996 C 71.8906,320.004 0,248.125 0,160.008 0,71.8711 71.8906,-0.00390625 160,-0.00390625"
         style="fill:#293e90;fill-opacity:1;fill-rule:evenodd;stroke:none"
         id="path14" /><path
         d="m 98.1758,278.813 c 0.9453,-15 1.7578,-30.004 2.7422,-45 3.227,8.16 6.203,16.417 9.434,24.546 -1.258,-8.707 -2.789,-17.367 -4.137,-26.058 5.215,7.027 10.199,14.226 15.461,21.215 -3.438,-8.043 -7.164,-15.961 -10.649,-23.973 6.832,5.473 13.528,11.09 20.375,16.52 -5.371,-6.922 -11.05,-13.575 -16.488,-20.442 8.02,3.555 16.016,7.234 24.059,10.738 -7.008,-5.285 -14.243,-10.273 -21.297,-15.492 8.625,1.313 17.187,2.824 25.793,4.074 -8.047,-3.328 -16.266,-6.226 -24.403,-9.414 15.012,-1 30.063,-1.664 45.028,-2.832 -14.989,-0.84 -29.977,-1.761 -44.981,-2.695 8.153,-3.195 16.399,-6.164 24.532,-9.426 -8.692,1.246 -17.344,2.797 -26.012,4.114 7.058,-5.149 14.215,-10.157 21.203,-15.415 -8.043,3.407 -15.902,7.133 -23.902,10.606 5.437,-6.816 11.05,-13.484 16.445,-20.328 -6.895,5.32 -13.5,11.004 -20.352,16.398 3.457,-7.965 7.211,-15.816 10.559,-23.828 -5.211,6.973 -10.199,14.125 -15.371,21.141 1.348,-8.707 2.855,-17.375 4.16,-26.082 -3.254,8.019 -6.16,16.191 -9.324,24.242 -1.3049,-14.797 -1.8401,-29.723 -2.8752,-44.563 -1.086,14.989 -1.8008,30.004 -2.7852,45 -3.1718,-8.129 -6.1093,-16.363 -9.414,-24.437 1.2382,8.605 2.7656,17.191 4.0625,25.801 -5.2071,-7.047 -10.1993,-14.27 -15.4532,-21.282 3.4571,8.055 7.1407,16.008 10.6914,24.039 -6.914,-5.523 -13.7265,-11.214 -20.6679,-16.75 5.5508,6.93 11.1875,13.762 16.7773,20.661 -8.0078,-3.493 -15.9687,-7.2 -23.9844,-10.684 6.961,5.305 14.1758,10.27 21.2305,15.481 -8.7187,-1.344 -17.3906,-2.868 -26.0859,-4.149 8.1133,3.27 16.3789,6.191 24.4648,9.441 -14.957,1.024 -29.9258,1.829 -44.9062,2.75 15.0273,1.09 30.082,1.805 45.1093,2.797 -8.1367,3.188 -16.3789,6.114 -24.4648,9.438 8.6289,-1.262 17.2031,-2.797 25.8359,-4.09 -7.0078,5.176 -14.1523,10.152 -21.1406,15.387 8.043,-3.395 15.9336,-7.141 23.9414,-10.629 -5.457,6.801 -11.0742,13.461 -16.4179,20.332 6.832,-5.356 13.4843,-10.969 20.2851,-16.406 -3.457,8.004 -7.2109,15.879 -10.582,23.925 5.2187,-6.976 10.2031,-14.156 15.3672,-21.164 -1.2969,8.637 -2.8047,17.254 -4.0821,25.903 3.3243,-8.098 6.2422,-16.352 9.4336,-24.512 0.9844,15.027 1.6992,30.082 2.7852,45.102"
         style="fill:#ffffff;fill-opacity:1;fill-rule:nonzero;stroke:none"
         id="path16" /><path
         d="m 46.6406,47.293 c 82.9844,65.824 166.0194,131.578 249.0354,197.34 -7.418,11.836 -16.34,22.633 -26.485,32.133 C 193.18,202.227 117.18,127.676 41.2031,53.0195 c 1.7539,-1.957 3.5703,-3.8672 5.4375,-5.7265"
         style="fill:#dc671b;fill-opacity:1;fill-rule:nonzero;stroke:none"
         id="path18" /><path
         d="M 295.676,244.633 C 212.66,178.871 129.625,113.117 46.6406,47.293 c 2.2891,-2.3399 4.668,-4.5899 7.1407,-6.7657 87.1677,52.7071 174.3357,105.3207 261.5317,157.9377 -4.118,16.551 -10.813,32.094 -19.637,46.168"
         style="fill:#ffffff;fill-opacity:1;fill-rule:nonzero;stroke:none"
         id="path20" /></g></g></svg>
