<?xml version="1.0" encoding="UTF-8" standalone="no"?>
<svg
   xmlns:dc="http://purl.org/dc/elements/1.1/"
   xmlns:cc="http://creativecommons.org/ns#"
   xmlns:rdf="http://www.w3.org/1999/02/22-rdf-syntax-ns#"
   xmlns:svg="http://www.w3.org/2000/svg"
   xmlns="http://www.w3.org/2000/svg"
   version="1.1"
   id="svg2"
   xml:space="preserve"
   width="42.666668"
   height="42.666668"
   viewBox="0 0 42.666668 42.666668"><metadata
     id="metadata8"><rdf:RDF><cc:Work
         rdf:about=""><dc:format>image/svg+xml</dc:format><dc:type
           rdf:resource="http://purl.org/dc/dcmitype/StillImage" /></cc:Work></rdf:RDF></metadata><defs
     id="defs6" /><g
     id="g10"
     transform="matrix(1.3333333,0,0,-1.3333333,0,42.666667)"><g
       id="g12"
       transform="scale(0.1)"><path
         d="m 16.8438,231.5 c 6.0585,12.078 13.5742,23.309 22.3554,33.418 l 78.5588,-57.707 c -5.231,-4.648 -9.703,-10.195 -13.121,-16.375 l -1.297,-2.434 C 74.5117,202.758 45.6719,217.113 16.8438,231.5"
         style="fill:#f9e806;fill-opacity:1;fill-rule:evenodd;stroke:none"
         id="path14" /><path
         d="m 152.078,206.938 c -14.09,-2.266 -26.758,-11.25 -33.672,-23.75 -7.582,-13.34 -8.011,-30.528 -1.097,-44.278 5.921,-12.09 17.179,-21.433 30.187,-24.851 13.664,-3.809 28.926,-0.989 40.336,7.351 12.27,8.742 19.844,23.496 19.77,38.606 0.074,14.5 -6.922,28.75 -18.418,37.578 -10.336,8.172 -24.188,11.59 -37.106,9.344"
         style="fill:#f9e806;fill-opacity:1;fill-rule:evenodd;stroke:none"
         id="path16" /><path
         d="m 3.00781,129.098 c 31.58989,6.25 63.19919,12.539 94.78909,18.875 -1.5117,7.949 -1.5078,16.191 0.0117,24.121 C 66.207,178.414 34.5977,184.703 3.00781,190.973 1.04297,180.953 0,170.59 0,160.016 0,149.43 1.03516,139.086 3.00781,129.098"
         style="fill:#f9e806;fill-opacity:1;fill-rule:evenodd;stroke:none"
         id="path18" /><path
         d="M 303.129,88.4727 C 297.086,76.3906 289.559,65.1797 280.797,55.082 l -78.586,57.707 c 5.93,5.293 10.805,11.746 14.359,18.828 28.864,-14.367 57.711,-28.742 86.559,-43.1443"
         style="fill:#f9e806;fill-opacity:1;fill-rule:evenodd;stroke:none"
         id="path20" /><path
         d="M 39.2109,55.082 C 30.4336,65.1797 22.9102,76.3906 16.8516,88.4727 45.6992,102.875 74.5352,117.23 103.367,131.598 c 3.555,-7.129 8.488,-13.516 14.403,-18.809 L 39.2109,55.082"
         style="fill:#f9e806;fill-opacity:1;fill-rule:evenodd;stroke:none"
         id="path22" /><path
         d="m 280.797,264.898 c 8.793,-10.089 16.312,-21.32 22.351,-33.398 -28.847,-14.387 -57.714,-28.762 -86.558,-43.137 -3.547,7.09 -8.43,13.547 -14.36,18.828 l 78.567,57.707"
         style="fill:#f9e806;fill-opacity:1;fill-rule:evenodd;stroke:none"
         id="path24" /><path
         d="M 191.387,3.08203 C 181.23,1.05859 170.738,-0.015625 160,-0.015625 c -10.742,0 -21.223,1.074215 -31.367,3.078125 6.383,31.5625 12.558,63.2422 19.027,94.7852 8.16,-1.6524 16.602,-1.5743 24.738,0.039 6.399,-31.6133 12.649,-63.2422 18.989,-94.80467"
         style="fill:#f9e806;fill-opacity:1;fill-rule:evenodd;stroke:none"
         id="path26" /><path
         d="m 316.992,190.973 c -31.605,-6.27 -63.222,-12.559 -94.804,-18.879 0.781,-3.953 1.167,-8.028 1.136,-12.078 0.031,-4.055 -0.355,-8.098 -1.136,-12.043 31.605,-6.336 63.218,-12.625 94.804,-18.875 1.961,9.988 3.008,20.332 3.008,30.918 0,10.574 -1.047,20.937 -3.008,30.957"
         style="fill:#f9e806;fill-opacity:1;fill-rule:evenodd;stroke:none"
         id="path28" /><path
         d="m 160,320.016 c 10.738,0 21.23,-1.067 31.387,-3.078 -6.34,-31.571 -12.5,-63.243 -18.989,-94.833 -7.531,1.532 -15.351,1.661 -22.933,0.36 l -1.871,-0.34 c -6.414,31.57 -12.649,63.184 -18.981,94.813 10.153,2.011 20.645,3.078 31.387,3.078"
         style="fill:#f9e806;fill-opacity:1;fill-rule:evenodd;stroke:none"
         id="path30" /><path
         d="m 187.832,121.41 c -11.41,-8.34 -26.672,-11.16 -40.336,-7.351 -13.008,3.418 -24.262,12.761 -30.187,24.851 -6.914,13.75 -6.485,30.938 1.097,44.278 6.914,12.5 19.582,21.484 33.672,23.75 12.918,2.246 26.77,-1.172 37.106,-9.344 11.496,-8.828 18.492,-23.078 18.418,-37.578 0.074,-15.11 -7.5,-29.864 -19.77,-38.606 z m 14.379,-8.621 c 5.93,5.293 10.805,11.746 14.359,18.828 28.86,-14.363 57.703,-28.738 86.547,-43.1404 6.348,12.6754 11.071,26.3004 13.871,40.6214 -31.586,6.25 -63.195,12.539 -94.8,18.875 0.781,3.945 1.167,7.988 1.136,12.043 0.031,4.05 -0.355,8.125 -1.136,12.078 31.578,6.316 63.187,12.605 94.789,18.875 -2.801,14.285 -7.512,27.875 -13.844,40.523 -28.84,-14.383 -57.703,-28.758 -86.543,-43.129 -3.547,7.09 -8.43,13.547 -14.36,18.828 l 78.543,57.688 c -22.8,26.234 -53.976,44.98 -89.394,52.023 -6.336,-31.558 -12.496,-63.218 -18.981,-94.797 -7.531,1.532 -15.351,1.661 -22.933,0.36 l -1.871,-0.34 c -6.41,31.559 -12.645,63.16 -18.973,94.777 -35.414,-7.043 -66.5858,-25.785 -89.3866,-52.011 l 78.5236,-57.68 c -5.231,-4.648 -9.703,-10.195 -13.117,-16.375 l -1.301,-2.434 C 74.5195,202.754 45.6875,217.109 16.8633,231.488 10.5352,218.844 5.82422,205.254 3.02344,190.969 34.6094,184.699 66.2109,178.41 97.8086,172.094 96.2891,164.164 96.2852,155.922 97.7969,147.973 66.207,141.637 34.6016,135.348 3.01172,129.098 5.8125,114.781 10.5313,101.16 16.8789,88.4844 c 28.8359,14.4026 57.668,28.7496 86.4881,43.1136 3.555,-7.129 8.488,-13.516 14.403,-18.809 L 39.2383,55.1055 C 62.043,28.875 93.2227,10.1328 128.637,3.09375 135.02,34.6445 141.195,66.3125 147.66,97.8477 c 8.16,-1.6524 16.602,-1.5743 24.738,0.039 6.399,-31.6054 12.649,-63.2344 18.985,-94.78904 35.41,7.04294 66.582,25.78514 89.379,52.00784 l -78.551,57.6835"
         style="fill:#d31e25;fill-opacity:1;fill-rule:evenodd;stroke:none"
         id="path32" /></g></g></svg>
