<?xml version="1.0" encoding="UTF-8" standalone="no"?>
<svg
   xmlns:dc="http://purl.org/dc/elements/1.1/"
   xmlns:cc="http://creativecommons.org/ns#"
   xmlns:rdf="http://www.w3.org/1999/02/22-rdf-syntax-ns#"
   xmlns:svg="http://www.w3.org/2000/svg"
   xmlns="http://www.w3.org/2000/svg"
   version="1.1"
   id="svg2"
   xml:space="preserve"
   width="42.666668"
   height="42.666668"
   viewBox="0 0 42.666668 42.666668"><metadata
     id="metadata8"><rdf:RDF><cc:Work
         rdf:about=""><dc:format>image/svg+xml</dc:format><dc:type
           rdf:resource="http://purl.org/dc/dcmitype/StillImage" /></cc:Work></rdf:RDF></metadata><defs
     id="defs6" /><g
     id="g10"
     transform="matrix(1.3333333,0,0,-1.3333333,0,42.666667)"><g
       id="g12"
       transform="scale(0.1)"><path
         d="M 9.48438,214.344 H 310.523 c 6.153,-16.985 9.477,-35.285 9.477,-54.332 0,-19.102 -3.324,-37.391 -9.477,-54.375 H 9.48438 C 3.36719,122.621 0,140.91 0,160.012 c 0,19.047 3.36719,37.347 9.48438,54.332"
         style="fill:#3eb73c;fill-opacity:1;fill-rule:evenodd;stroke:none"
         id="path14" /><path
         d="M 310.523,214.344 H 9.48438 C 31.7656,275.941 90.7617,319.996 160,319.996 c 69.281,0 128.277,-44.055 150.523,-105.652"
         style="fill:#fac807;fill-opacity:1;fill-rule:evenodd;stroke:none"
         id="path16" /><path
         d="M 9.48438,105.637 H 310.523 C 288.277,44.0391 229.281,0.00390625 160,0.00390625 90.7617,0.00390625 31.7656,44.0391 9.48438,105.637"
         style="fill:#ea1e37;fill-opacity:1;fill-rule:evenodd;stroke:none"
         id="path18" /><path
         d="m 133.449,200.504 c 9.61,26.098 17.117,53.082 26.551,79.191 8.852,-26.242 17.297,-52.636 25.84,-79.035 27.992,-0.586 55.848,-0.297 83.703,-0.297 -22.195,-16.945 -45.246,-32.761 -67.438,-49.879 8.536,-26.558 17.114,-53.1168 25.524,-79.6246 -22.652,16.2187 -44.988,33.0746 -67.899,49.0276 -22.507,-16.129 -44.707,-32.6682 -67.3081,-48.4886 7.8201,26.6914 17.3911,52.7966 25.0741,79.6716 -22.3319,16.399 -44.9335,32.481 -66.9921,49.293 27.5391,0 55.2621,0.141 82.9451,0.141"
         style="fill:#ffffff;fill-opacity:1;fill-rule:nonzero;stroke:none"
         id="path20" /></g></g></svg>
