<?xml version="1.0" encoding="UTF-8" standalone="no"?>
<svg
   xmlns:dc="http://purl.org/dc/elements/1.1/"
   xmlns:cc="http://creativecommons.org/ns#"
   xmlns:rdf="http://www.w3.org/1999/02/22-rdf-syntax-ns#"
   xmlns:svg="http://www.w3.org/2000/svg"
   xmlns="http://www.w3.org/2000/svg"
   version="1.1"
   id="svg2"
   xml:space="preserve"
   width="42.666668"
   height="42.666668"
   viewBox="0 0 42.666668 42.666668"><metadata
     id="metadata8"><rdf:RDF><cc:Work
         rdf:about=""><dc:format>image/svg+xml</dc:format><dc:type
           rdf:resource="http://purl.org/dc/dcmitype/StillImage" /></cc:Work></rdf:RDF></metadata><defs
     id="defs6" /><g
     id="g10"
     transform="matrix(1.3333333,0,0,-1.3333333,0,42.666667)"><g
       id="g12"
       transform="scale(0.1)"><path
         d="M 105.648,9.54688 V 310.508 c 16.957,6.133 35.266,9.476 54.34,9.476 19.094,0 37.379,-3.343 54.364,-9.476 V 9.54688 C 197.367,3.4375 179.082,0.0625 159.988,0.0625 c -19.074,0 -37.383,3.375 -54.34,9.48438"
         style="fill:#244e9b;fill-opacity:1;fill-rule:evenodd;stroke:none"
         id="path14" /><path
         d="M 105.648,310.508 V 9.54688 C 44.0273,31.7852 0,90.7773 0,160.012 0,229.277 44.0273,288.266 105.648,310.508"
         style="fill:#c5202d;fill-opacity:1;fill-rule:evenodd;stroke:none"
         id="path16" /><path
         d="M 214.352,9.54688 V 310.508 C 275.945,288.266 320,229.277 320,160.012 320,90.7773 275.945,31.7852 214.352,9.54688"
         style="fill:#c5202d;fill-opacity:1;fill-rule:evenodd;stroke:none"
         id="path18" /><path
         d="m 56.6563,215.664 c 4.8789,-0.875 9.7226,3.527 9.3398,8.449 0.0508,1.66 -1.3867,2.828 -1.8789,4.356 0,1.574 0.2695,3.234 -0.7227,4.609 -0.4961,-1.215 -1.0351,-2.41 -1.3906,-3.625 -0.3789,-1.769 1.3008,-3.547 0.3125,-5.207 -1.0312,-1.074 -3.0547,-0.25 -2.8516,1.277 0.4219,2.161 1.8672,4.118 1.6172,6.43 -0.0898,3.641 -3.6172,5.93 -4.1132,9.477 -1.5274,-2.692 0.496,-5.95 -1.2344,-8.602 -1.461,-2.402 -0.3828,-4.941 0.4297,-7.348 0.3125,-2.511 -4.0508,-2.015 -3.125,0.383 1.1875,2.563 0.2031,5.008 -0.6953,7.461 -0.5391,-1.035 -1.1211,-2.16 -0.8282,-3.371 0.5313,-2.269 -2,-3.687 -1.8633,-5.91 -0.25,-4.066 2.9375,-7.93 7.004,-8.379"
         style="fill:#f5ce08;fill-opacity:1;fill-rule:nonzero;stroke:none"
         id="path20" /><path
         d="m 55.3086,186.383 c 7.6797,-1.793 15.7227,4.805 15.5898,12.633 0.4063,8.156 -8.0859,15.031 -15.9492,12.918 -5.75,-1.192 -10.1992,-6.582 -10.1992,-12.422 -0.3125,-6.168 4.4492,-12.047 10.5586,-13.129"
         style="fill:#f5ce08;fill-opacity:1;fill-rule:nonzero;stroke:none"
         id="path22" /><path
         d="m 60.9922,183.059 c -8.6953,-1.614 -17.6328,3.593 -21.3203,11.511 -0.0469,-9.265 7.6172,-17.937 17.0273,-18.207 10.0625,-0.945 19.5899,8.133 19.0547,18.254 -2.5391,-6.035 -8.293,-10.476 -14.7617,-11.558"
         style="fill:#f5ce08;fill-opacity:1;fill-rule:nonzero;stroke:none"
         id="path24" /><path
         d="m 21.8359,173.039 c 0,-26.191 0,-52.387 0,-78.5351 5.4336,0 10.875,0 16.3321,0 0.0468,26.1481 0.0468,52.3441 0,78.5351 -5.4571,0 -10.8985,0 -16.3321,0"
         style="fill:#f5ce08;fill-opacity:1;fill-rule:nonzero;stroke:none"
         id="path26" /><path
         d="m 73.9961,172.953 c -10.7578,0.133 -21.5,0.133 -32.3008,0 5.3008,-3.328 10.6485,-6.562 16.0391,-9.617 5.5703,2.918 10.8711,6.383 16.2617,9.617"
         style="fill:#f5ce08;fill-opacity:1;fill-rule:nonzero;stroke:none"
         id="path28" /><path
         d="m 93.8125,172.953 c -5.4375,0.133 -10.9414,0.133 -16.3984,0 0.0664,-26.148 0.0664,-52.258 0,-78.4022 5.457,-0.0899 10.9609,-0.0899 16.3984,0 -0.0469,26.1442 -0.0469,52.2542 0,78.4022"
         style="fill:#f5ce08;fill-opacity:1;fill-rule:nonzero;stroke:none"
         id="path30" /><path
         d="m 41.4453,159.922 c 0,-2.156 0,-4.356 0,-6.516 10.8985,0 21.8594,-0.047 32.7305,0.043 -0.043,2.117 -0.043,4.27 0,6.383 -10.8711,0.227 -21.7891,0.047 -32.7305,0.09"
         style="fill:#f5ce08;fill-opacity:1;fill-rule:nonzero;stroke:none"
         id="path32" /><path
         d="m 59.3047,139.52 c -3.7305,-2.11 -6.8086,4.179 -2.9883,5.847 3.7305,2.11 6.7617,-4.133 2.9883,-5.847 z m -0.1758,10.425 c -8.3984,1.121 -16.6914,-5.793 -17.5234,-14.156 -0.9883,-6.777 2.9414,-13.699 8.9843,-16.797 -4.582,5.301 -1.3906,14.598 5.6836,15.41 3.5704,-0.043 7.5235,1.528 8.7852,5.118 1.8633,4.363 -1.1641,9.886 -5.9297,10.425"
         style="fill:#f5ce08;fill-opacity:1;fill-rule:nonzero;stroke:none"
         id="path34" /><path
         d="m 61.0391,124.383 c -0.4297,-2.246 -3.4844,-3.367 -5.2578,-1.844 -2,1.527 -1.375,4.988 0.9882,5.664 2.3125,0.852 4.8555,-1.437 4.2696,-3.82 z m 3.9297,11.906 c -1.9375,-2.336 -4.8555,-3.414 -7.8204,-3.414 -3.8164,-0.133 -7.0937,-3.641 -7.0937,-7.461 -0.2734,-3.949 3.0742,-7.769 7.0937,-7.906 8.5821,-0.723 16.6914,6.742 16.9844,15.277 0.4961,6.469 -3.3711,12.672 -8.9844,15.77 2.5157,-3.641 2.8555,-8.899 -0.1796,-12.266"
         style="fill:#f5ce08;fill-opacity:1;fill-rule:nonzero;stroke:none"
         id="path36" /><path
         d="m 41.4453,114.137 c 0,-2.157 0,-4.36 0,-6.512 10.9414,0.043 21.8594,-0.176 32.7305,0.094 -0.043,2.101 -0.043,4.261 0,6.371 -10.8711,0.09 -21.832,0.047 -32.7305,0.047"
         style="fill:#f5ce08;fill-opacity:1;fill-rule:nonzero;stroke:none"
         id="path38" /><path
         d="m 41.6953,104.254 c 5.3008,-3.328 10.6485,-6.5587 16.0391,-9.6134 5.5703,2.9649 10.8711,6.3754 16.2617,9.6134 -10.7578,0.137 -21.5664,0.137 -32.3008,0"
         style="fill:#f5ce08;fill-opacity:1;fill-rule:nonzero;stroke:none"
         id="path40" /></g></g></svg>
