<?xml version="1.0" encoding="UTF-8" standalone="no"?>
<svg
   xmlns:dc="http://purl.org/dc/elements/1.1/"
   xmlns:cc="http://creativecommons.org/ns#"
   xmlns:rdf="http://www.w3.org/1999/02/22-rdf-syntax-ns#"
   xmlns:svg="http://www.w3.org/2000/svg"
   xmlns="http://www.w3.org/2000/svg"
   version="1.1"
   id="svg2"
   xml:space="preserve"
   width="42.666668"
   height="42.666668"
   viewBox="0 0 42.666668 42.666668"><metadata
     id="metadata8"><rdf:RDF><cc:Work
         rdf:about=""><dc:format>image/svg+xml</dc:format><dc:type
           rdf:resource="http://purl.org/dc/dcmitype/StillImage" /></cc:Work></rdf:RDF></metadata><defs
     id="defs6"><clipPath
       clipPathUnits="userSpaceOnUse"
       id="clipPath32"><path
         d="m 143.598,175.066 c 1.125,12.129 7.187,23.633 16.402,31.563 7.887,-6.762 13.477,-16.129 15.586,-26.328 2.613,-11.93 0.23,-24.649 -5.992,-35.071 10.105,13.727 11.707,32.934 4.402,48.297 1.973,2.184 3.457,4.789 4.426,7.618 9.141,-15.79 7.93,-36.5 -2.606,-51.286 11.118,11.164 26.914,17.5 42.727,16.692 -1.547,-1.594 -2.875,-3.352 -3.93,-5.254 -14.578,-0.047 -29.117,-5.867 -39.379,-16.227 15.789,12.289 38.098,15.481 56.567,7.664 -5.598,-14.961 -19.012,-26.597 -34.641,-29.902 -4.312,-1.055 -8.789,-1.055 -13.254,-1.234 14.621,-2.114 30.211,2.449 40.817,12.89 1.863,-0.535 3.82,-0.965 5.793,-1.187 -11.227,-12.871 -29.586,-18.871 -46.25,-15.051 -9.192,1.977 -17.703,6.879 -24.266,13.566 -11.91,-12.554 -30.867,-17.769 -47.473,-12.914 -8.871,2.45 -16.9137,7.547 -23.0231,14.356 1.9492,0.265 3.8633,0.695 5.793,1.23 10.5861,-10.441 26.1761,-15.004 40.7971,-12.933 -3.817,0.269 -7.707,0.156 -11.477,0.894 -16.336,2.832 -30.6678,14.742 -36.4178,30.285 18.6488,7.86 41.2458,4.625 56.9768,-8.046 -10.289,10.582 -25.031,16.562 -39.77,16.609 -1.078,1.902 -2.383,3.66 -3.953,5.254 15.817,0.808 31.633,-5.574 42.731,-16.692 -10.512,14.739 -11.75,35.539 -2.606,51.286 0.988,-2.829 2.473,-5.434 4.426,-7.618 -7.348,-15.363 -5.688,-34.57 4.426,-48.297 -5.254,8.942 -7.864,19.481 -6.832,29.836 z"
         id="path30" /></clipPath><linearGradient
       x1="0"
       y1="0"
       x2="1"
       y2="0"
       gradientUnits="userSpaceOnUse"
       gradientTransform="matrix(0,-89.5225,-89.5225,0,160,206.629)"
       spreadMethod="pad"
       id="linearGradient38"><stop
         style="stop-opacity:1;stop-color:#ffffff"
         offset="0"
         id="stop34" /><stop
         style="stop-opacity:1;stop-color:#e9e9e9"
         offset="1"
         id="stop36" /></linearGradient><clipPath
       clipPathUnits="userSpaceOnUse"
       id="clipPath48"><path
         d="m 128.074,113.465 c 11.821,0.199 23.367,5.105 31.926,13.187 8.582,-8.129 20.176,-12.988 31.988,-13.187 12.832,-0.043 25.59,0.047 38.418,-0.043 -1.058,-1.664 -2.222,-3.192 -3.508,-4.742 -12.238,0.043 -24.531,0 -36.773,0.043 -10.965,0.109 -21.703,4.203 -30.125,11.234 -9.102,-7.66 -21.074,-11.707 -32.98,-11.277 -11.278,0 -22.622,0.043 -33.9223,0 -1.2579,1.55 -2.4258,3.078 -3.5039,4.742 12.8242,0.09 25.6522,0 38.4802,0.043 z"
         id="path46" /></clipPath><linearGradient
       x1="0"
       y1="0"
       x2="1"
       y2="0"
       gradientUnits="userSpaceOnUse"
       gradientTransform="matrix(0,-18.0063,-18.0063,0,160,126.654)"
       spreadMethod="pad"
       id="linearGradient54"><stop
         style="stop-opacity:1;stop-color:#ffffff"
         offset="0"
         id="stop50" /><stop
         style="stop-opacity:1;stop-color:#e9e9e9"
         offset="1"
         id="stop52" /></linearGradient><clipPath
       clipPathUnits="userSpaceOnUse"
       id="clipPath64"><path
         d="m 97.2031,103.828 c 41.9019,0 83.7109,0 125.5859,0 -0.672,-0.785 -1.437,-1.598 -2.176,-2.34 -40.394,-0.043 -80.832,-0.043 -121.2263,0 -0.7461,0.742 -1.4804,1.555 -2.1836,2.34 z"
         id="path62" /></clipPath><linearGradient
       x1="0"
       y1="0"
       x2="1"
       y2="0"
       gradientUnits="userSpaceOnUse"
       gradientTransform="matrix(0,-2.37201,-2.37201,0,159.997,103.828)"
       spreadMethod="pad"
       id="linearGradient70"><stop
         style="stop-opacity:1;stop-color:#ffffff"
         offset="0"
         id="stop66" /><stop
         style="stop-opacity:1;stop-color:#e9e9e9"
         offset="1"
         id="stop68" /></linearGradient><clipPath
       clipPathUnits="userSpaceOnUse"
       id="clipPath80"><path
         d="m 104.648,96.5938 c 36.883,0 73.821,0 110.704,0 -1.704,-1.2149 -3.141,-3.1875 -5.278,-3.6602 -33.363,-0.0703 -66.785,-0.0703 -100.148,0 -2.141,0.4727 -3.578,2.4453 -5.278,3.6602 z"
         id="path78" /></clipPath><linearGradient
       x1="0"
       y1="0"
       x2="1"
       y2="0"
       gradientUnits="userSpaceOnUse"
       gradientTransform="matrix(0,-3.71391,-3.71391,0,160,96.594)"
       spreadMethod="pad"
       id="linearGradient86"><stop
         style="stop-opacity:1;stop-color:#ffffff"
         offset="0"
         id="stop82" /><stop
         style="stop-opacity:1;stop-color:#e9e9e9"
         offset="1"
         id="stop84" /></linearGradient><clipPath
       clipPathUnits="userSpaceOnUse"
       id="clipPath96"><path
         d="m 114.668,89.1992 c 30.23,0 60.449,0 90.664,0 -2.965,-1.6367 -5.84,-3.7695 -9.137,-4.7383 -24.105,0 -48.285,0 -72.363,0 -3.324,0.9688 -6.199,3.1016 -9.164,4.7383 z"
         id="path94" /></clipPath><linearGradient
       x1="0"
       y1="0"
       x2="1"
       y2="0"
       gradientUnits="userSpaceOnUse"
       gradientTransform="matrix(0,-4.74148,-4.74148,0,160,89.201)"
       spreadMethod="pad"
       id="linearGradient102"><stop
         style="stop-opacity:1;stop-color:#ffffff"
         offset="0"
         id="stop98" /><stop
         style="stop-opacity:1;stop-color:#e9e9e9"
         offset="1"
         id="stop100" /></linearGradient><clipPath
       clipPathUnits="userSpaceOnUse"
       id="clipPath112"><path
         d="m 128.93,82.082 c 20.691,0.0899 41.449,0.0899 62.16,0 -19.703,-7.9297 -42.457,-7.9297 -62.16,0 z"
         id="path110" /></clipPath><linearGradient
       x1="0"
       y1="0"
       x2="1"
       y2="0"
       gradientUnits="userSpaceOnUse"
       gradientTransform="matrix(0,-6.01485,-6.01485,0,160.01,82.148)"
       spreadMethod="pad"
       id="linearGradient118"><stop
         style="stop-opacity:1;stop-color:#ffffff"
         offset="0"
         id="stop114" /><stop
         style="stop-opacity:1;stop-color:#e9e9e9"
         offset="1"
         id="stop116" /></linearGradient></defs><g
     id="g10"
     transform="matrix(1.3333333,0,0,-1.3333333,0,42.666667)"><g
       id="g12"
       transform="scale(0.1)"><path
         d="m 160,0.015625 c 88.129,0 160,71.867175 160,159.976375 0,88.129 -71.871,160 -160,160 -88.1094,0 -160,-71.871 -160,-160 C 0,71.8828 71.8906,0.015625 160,0.015625"
         style="fill:#26775b;fill-opacity:1;fill-rule:evenodd;stroke:none"
         id="path14" /><path
         d="m 156.496,233.188 c 1.168,3.546 2.289,7.117 3.504,10.691 1.234,-3.574 2.289,-7.145 3.523,-10.691 3.665,-0.071 7.399,0.042 11.125,-0.071 -2.941,-2.34 -5.976,-4.402 -8.941,-6.582 1.055,-3.574 2.34,-7.074 3.348,-10.648 -3.078,2.066 -6.024,4.359 -9.055,6.492 -3.035,-2.133 -5.953,-4.426 -9.031,-6.492 0.984,3.574 2.289,7.074 3.344,10.648 -2.985,2.18 -6.02,4.242 -8.942,6.582 3.707,0.113 7.442,0 11.125,0.071"
         style="fill:#f7d00d;fill-opacity:1;fill-rule:nonzero;stroke:none"
         id="path16" /><path
         d="m 121.582,220.359 c 2.113,1.481 4.27,2.981 6.383,4.469 -0.856,-2.5 -1.754,-4.941 -2.496,-7.504 1.953,-1.484 4.043,-2.875 5.91,-4.515 -2.52,-0.071 -5.012,0 -7.508,0 -0.894,-2.403 -1.746,-4.895 -2.555,-7.348 -0.808,2.496 -1.531,4.945 -2.339,7.437 -2.61,0.071 -5.211,0.114 -7.817,0.176 2.113,1.485 4.313,2.922 6.383,4.52 -0.703,2.449 -1.488,4.894 -2.184,7.344 2.133,-1.508 4.094,-3.145 6.223,-4.579"
         style="fill:#f7d00d;fill-opacity:1;fill-rule:nonzero;stroke:none"
         id="path18" /><path
         d="m 192.035,224.828 c 2.133,-1.488 4.27,-2.988 6.403,-4.469 2.113,1.434 4.089,3.071 6.222,4.579 -0.695,-2.45 -1.508,-4.895 -2.176,-7.344 2.063,-1.598 4.243,-3.035 6.383,-4.52 -2.609,-0.062 -5.215,-0.105 -7.828,-0.176 -0.805,-2.492 -1.547,-4.941 -2.359,-7.437 -0.778,2.453 -1.633,4.898 -2.532,7.348 -2.515,0 -5.015,-0.071 -7.507,0 1.867,1.64 3.89,3.031 5.91,4.515 -0.696,2.563 -1.66,5.004 -2.516,7.504"
         style="fill:#f7d00d;fill-opacity:1;fill-rule:nonzero;stroke:none"
         id="path20" /><path
         d="m 97.0938,193.172 c 1.125,2.223 1.9765,4.625 3.3042,6.695 0.696,-2.289 0.922,-4.734 1.547,-7.008 2.336,-0.921 5.125,-0.695 7.598,-1.234 -2.156,-1.328 -4.449,-2.496 -6.695,-3.777 0.492,-2.493 1.007,-5.008 1.39,-7.504 -1.929,1.597 -3.73,3.414 -5.5974,5.101 -2.289,-1.101 -4.4648,-2.5 -6.8008,-3.617 1.0118,2.336 2.1797,4.625 3.1915,6.985 -1.8672,1.796 -3.7774,3.55 -5.7071,5.304 2.6055,-0.25 5.1641,-0.633 7.7696,-0.945"
         style="fill:#f7d00d;fill-opacity:1;fill-rule:nonzero;stroke:none"
         id="path22" /><path
         d="m 219.602,199.934 c 1.347,-2.137 2.179,-4.539 3.375,-6.762 2.535,0.312 5.093,0.695 7.699,0.945 -1.91,-1.754 -3.84,-3.508 -5.688,-5.304 1.012,-2.36 2.18,-4.649 3.196,-6.985 -2.34,1.117 -4.536,2.516 -6.875,3.617 -1.797,-1.687 -3.618,-3.504 -5.528,-5.101 0.36,2.496 0.903,5.011 1.367,7.504 -2.222,1.281 -4.511,2.449 -6.753,3.777 2.511,0.539 5.273,0.313 7.679,1.234 0.625,2.336 0.852,4.719 1.528,7.075"
         style="fill:#f7d00d;fill-opacity:1;fill-rule:nonzero;stroke:none"
         id="path24" /><g
         id="g26"><g
           id="g28"
           clip-path="url(#clipPath32)"><path
             d="m 143.598,175.066 c 1.125,12.129 7.187,23.633 16.402,31.563 7.887,-6.762 13.477,-16.129 15.586,-26.328 2.613,-11.93 0.23,-24.649 -5.992,-35.071 10.105,13.727 11.707,32.934 4.402,48.297 1.973,2.184 3.457,4.789 4.426,7.618 9.141,-15.79 7.93,-36.5 -2.606,-51.286 11.118,11.164 26.914,17.5 42.727,16.692 -1.547,-1.594 -2.875,-3.352 -3.93,-5.254 -14.578,-0.047 -29.117,-5.867 -39.379,-16.227 15.789,12.289 38.098,15.481 56.567,7.664 -5.598,-14.961 -19.012,-26.597 -34.641,-29.902 -4.312,-1.055 -8.789,-1.055 -13.254,-1.234 14.621,-2.114 30.211,2.449 40.817,12.89 1.863,-0.535 3.82,-0.965 5.793,-1.187 -11.227,-12.871 -29.586,-18.871 -46.25,-15.051 -9.192,1.977 -17.703,6.879 -24.266,13.566 -11.91,-12.554 -30.867,-17.769 -47.473,-12.914 -8.871,2.45 -16.9137,7.547 -23.0231,14.356 1.9492,0.265 3.8633,0.695 5.793,1.23 10.5861,-10.441 26.1761,-15.004 40.7971,-12.933 -3.817,0.269 -7.707,0.156 -11.477,0.894 -16.336,2.832 -30.6678,14.742 -36.4178,30.285 18.6488,7.86 41.2458,4.625 56.9768,-8.046 -10.289,10.582 -25.031,16.562 -39.77,16.609 -1.078,1.902 -2.383,3.66 -3.953,5.254 15.817,0.808 31.633,-5.574 42.731,-16.692 -10.512,14.739 -11.75,35.539 -2.606,51.286 0.988,-2.829 2.473,-5.434 4.426,-7.618 -7.348,-15.363 -5.688,-34.57 4.426,-48.297 -5.254,8.942 -7.864,19.481 -6.832,29.836"
             style="fill:url(#linearGradient38);fill-opacity:1;fill-rule:nonzero;stroke:none"
             id="path40" /></g></g><g
         id="g42"><g
           id="g44"
           clip-path="url(#clipPath48)"><path
             d="m 128.074,113.465 c 11.821,0.199 23.367,5.105 31.926,13.187 8.582,-8.129 20.176,-12.988 31.988,-13.187 12.832,-0.043 25.59,0.047 38.418,-0.043 -1.058,-1.664 -2.222,-3.192 -3.508,-4.742 -12.238,0.043 -24.531,0 -36.773,0.043 -10.965,0.109 -21.703,4.203 -30.125,11.234 -9.102,-7.66 -21.074,-11.707 -32.98,-11.277 -11.278,0 -22.622,0.043 -33.9223,0 -1.2579,1.55 -2.4258,3.078 -3.5039,4.742 12.8242,0.09 25.6522,0 38.4802,0.043"
             style="fill:url(#linearGradient54);fill-opacity:1;fill-rule:nonzero;stroke:none"
             id="path56" /></g></g><g
         id="g58"><g
           id="g60"
           clip-path="url(#clipPath64)"><path
             d="m 97.2031,103.828 c 41.9019,0 83.7109,0 125.5859,0 -0.672,-0.785 -1.437,-1.598 -2.176,-2.34 -40.394,-0.043 -80.832,-0.043 -121.2263,0 -0.7461,0.742 -1.4804,1.555 -2.1836,2.34"
             style="fill:url(#linearGradient70);fill-opacity:1;fill-rule:nonzero;stroke:none"
             id="path72" /></g></g><g
         id="g74"><g
           id="g76"
           clip-path="url(#clipPath80)"><path
             d="m 104.648,96.5938 c 36.883,0 73.821,0 110.704,0 -1.704,-1.2149 -3.141,-3.1875 -5.278,-3.6602 -33.363,-0.0703 -66.785,-0.0703 -100.148,0 -2.141,0.4727 -3.578,2.4453 -5.278,3.6602"
             style="fill:url(#linearGradient86);fill-opacity:1;fill-rule:nonzero;stroke:none"
             id="path88" /></g></g><g
         id="g90"><g
           id="g92"
           clip-path="url(#clipPath96)"><path
             d="m 114.668,89.1992 c 30.23,0 60.449,0 90.664,0 -2.965,-1.6367 -5.84,-3.7695 -9.137,-4.7383 -24.105,0 -48.285,0 -72.363,0 -3.324,0.9688 -6.199,3.1016 -9.164,4.7383"
             style="fill:url(#linearGradient102);fill-opacity:1;fill-rule:nonzero;stroke:none"
             id="path104" /></g></g><g
         id="g106"><g
           id="g108"
           clip-path="url(#clipPath112)"><path
             d="m 128.93,82.082 c 20.691,0.0899 41.449,0.0899 62.16,0 -19.703,-7.9297 -42.457,-7.9297 -62.16,0"
             style="fill:url(#linearGradient118);fill-opacity:1;fill-rule:nonzero;stroke:none"
             id="path120" /></g></g></g></g></svg>
