<?xml version="1.0" encoding="UTF-8" standalone="no"?>
<svg
   xmlns:dc="http://purl.org/dc/elements/1.1/"
   xmlns:cc="http://creativecommons.org/ns#"
   xmlns:rdf="http://www.w3.org/1999/02/22-rdf-syntax-ns#"
   xmlns:svg="http://www.w3.org/2000/svg"
   xmlns="http://www.w3.org/2000/svg"
   version="1.1"
   id="svg2"
   xml:space="preserve"
   width="42.666668"
   height="42.666668"
   viewBox="0 0 42.666668 42.666668"><metadata
     id="metadata8"><rdf:RDF><cc:Work
         rdf:about=""><dc:format>image/svg+xml</dc:format><dc:type
           rdf:resource="http://purl.org/dc/dcmitype/StillImage" /></cc:Work></rdf:RDF></metadata><defs
     id="defs6" /><g
     id="g10"
     transform="matrix(1.3333333,0,0,-1.3333333,0,42.666667)"><g
       id="g12"
       transform="scale(0.1)"><path
         d="M 159.996,0.00390625 C 248.137,0.00390625 320,71.8633 320,160 320,248.117 248.137,319.996 159.996,319.996 71.8828,319.996 0,248.117 0,160 0,71.8633 71.8828,0.00390625 159.996,0.00390625"
         style="fill:#1d5f2f;fill-opacity:1;fill-rule:evenodd;stroke:none"
         id="path14" /><path
         d="m 152.992,204.574 c 2.391,7.172 4.684,14.367 7.004,21.508 2.34,-7.141 4.629,-14.336 7.067,-21.508 7.472,0 14.976,0.086 22.457,-0.062 -6.02,-4.336 -12.036,-8.77 -18.094,-13.11 2.035,-7.226 4.633,-14.242 6.793,-21.476 -6.176,4.308 -12.149,8.832 -18.223,13.125 -6.113,-4.293 -12.039,-8.817 -18.191,-13.125 2.148,7.234 4.761,14.25 6.824,21.476 -6.09,4.34 -12.098,8.774 -18.125,13.11 7.484,0.148 14.98,0 22.488,0.062"
         style="fill:#fac009;fill-opacity:1;fill-rule:nonzero;stroke:none"
         id="path16" /><path
         d="m 86.7695,141.039 c -7.7148,16.809 -9.1718,36.219 -4.4609,54.051 -0.4922,-25.988 13.668,-51.477 35.5044,-65.445 14.687,-9.567 32.652,-13.817 50.14,-12 16.887,1.644 33.184,9.144 45.52,20.828 15.336,14.468 24.59,35.48 24.211,56.617 4.582,-17.367 3.324,-36.219 -3.86,-52.692 -10.836,-25.578 -35.812,-44.5425 -63.488,-47.7964 -17.184,-2.293 -35.113,1.2148 -50.145,9.8394 -14.605,8.309 -26.4683,21.344 -33.4215,36.598"
         style="fill:#fac009;fill-opacity:1;fill-rule:nonzero;stroke:none"
         id="path18" /></g></g></svg>
