<?xml version="1.0" encoding="UTF-8" standalone="no"?>
<svg
   xmlns:dc="http://purl.org/dc/elements/1.1/"
   xmlns:cc="http://creativecommons.org/ns#"
   xmlns:rdf="http://www.w3.org/1999/02/22-rdf-syntax-ns#"
   xmlns:svg="http://www.w3.org/2000/svg"
   xmlns="http://www.w3.org/2000/svg"
   version="1.1"
   id="svg2"
   xml:space="preserve"
   width="42.666668"
   height="42.666668"
   viewBox="0 0 42.666668 42.666668"><metadata
     id="metadata8"><rdf:RDF><cc:Work
         rdf:about=""><dc:format>image/svg+xml</dc:format><dc:type
           rdf:resource="http://purl.org/dc/dcmitype/StillImage" /></cc:Work></rdf:RDF></metadata><defs
     id="defs6" /><g
     id="g10"
     transform="matrix(1.3333333,0,0,-1.3333333,0,42.666667)"><g
       id="g12"
       transform="scale(0.1)"><path
         d="M 160.012,-0.0390625 C 248.133,-0.0390625 320,71.8477 320,159.977 320,248.117 248.133,320.012 160.012,320.012 71.8906,320.012 0,248.117 0,159.977 0,71.8477 71.8906,-0.0390625 160.012,-0.0390625"
         style="fill:#273375;fill-opacity:1;fill-rule:evenodd;stroke:none"
         id="path14" /><path
         d="m 50.168,272.699 c 0,1.172 0,2.367 0,3.528 -1.2266,-1.161 -2.418,-2.332 -3.625,-3.528 1.2304,0 2.4453,0 3.625,0"
         style="fill:#ffffff;fill-opacity:1;fill-rule:nonzero;stroke:none"
         id="path16" /><path
         d="m 159.684,199.996 0.269,-0.047 c -0.031,3.215 0.051,6.485 -0.066,9.676 -15.77,9.676 -31.524,19.289 -47.27,28.953 -1.445,0.813 -2.855,2.02 -4.547,1.973 -4.769,-0.082 -9.5778,0.09 -14.3395,-0.141 21.8985,-13.742 44.0505,-26.738 65.9535,-40.414 z M 42.1133,240.41 c -4.711,0.231 -9.5117,0.059 -14.2539,0.141 -1.3399,0.09 -2.5547,-0.715 -3.75,-1.43 -1.5821,-0.996 -3.1563,-1.941 -4.7305,-2.937 -2.4531,-4.469 -4.6797,-9.071 -6.6992,-13.793 9.8476,5.933 19.668,11.906 29.4336,18.019 z m 97.1097,78.281 c -20.473,-12.582 -41.0589,-24.8 -61.4535,-37.515 4.6016,-0.184 9.25,0 13.8633,-0.098 1.168,-0.086 2.336,0.27 3.3828,0.973 20.6134,12.726 41.3904,25.16 61.9884,37.961 -6.024,-0.094 -11.945,-0.551 -17.781,-1.321 z M 50.168,276.227 c 6.0976,5.75 12.6406,11.031 19.5547,15.769 0,-6.418 0,-12.871 0.0117,-19.297 30.0312,0 60.1206,0 90.1876,0 0.031,-7.933 0.031,-15.836 -0.035,-23.765 -30.032,0 -60.1214,0 -90.1526,0 -0.043,-16.313 0,-32.668 -0.043,-48.985 -6.4844,0 -12.9805,0 -19.5234,0 -0.0313,16.317 0,32.672 0,48.985 -7.6953,0 -15.3867,0 -23.086,0 5.7227,8.531 12.2657,16.519 19.461,23.765 1.2304,0 2.4453,0 3.625,0 0,1.172 0,2.367 0,3.528"
         style="fill:#d11d2c;fill-opacity:1;fill-rule:nonzero;stroke:none"
         id="path18" /><path
         d="m 19.3789,236.184 c 1.5742,0.996 3.1484,1.941 4.7305,2.937 1.1953,0.715 2.4101,1.52 3.75,1.43 4.7422,-0.082 9.5429,0.09 14.2539,-0.141 -9.7656,-6.113 -19.586,-12.086 -29.4336,-18.019 -0.9102,-2.172 -1.8047,-4.375 -2.6289,-6.602 10.9687,6.656 21.9961,13.32 32.9961,19.961 0.0312,-11.945 0,-23.871 0.0312,-35.801 2.3516,0 4.7266,0 7.0899,0 -0.0313,16.317 0,32.672 0,48.985 -7.6953,0 -15.3867,0 -23.086,0 -2.7695,-4.114 -5.3242,-8.364 -7.7031,-12.75"
         style="fill:#ffffff;fill-opacity:1;fill-rule:nonzero;stroke:none"
         id="path20" /><path
         d="m 112.617,238.578 c 15.746,-9.664 31.5,-19.277 47.27,-28.953 l 0.019,5.148 c -14.019,8.625 -28.179,16.879 -42.113,25.696 14,0.172 28.094,0 42.113,0.082 v 8.383 h -0.019 c -6.934,0 -13.864,0 -20.793,0 -23.121,0 -46.2542,0 -69.3596,0 -0.043,-16.313 0,-32.668 -0.043,-48.985 2.2109,0 4.4649,0 6.6641,0 0,11.93 -0.043,23.856 0.0429,35.801 18.6172,-11.195 37.1646,-22.516 55.7616,-33.742 1.528,-0.891 2.996,-2.258 4.785,-2.059 7.575,0.047 15.16,-0.051 22.739,0.047 -21.903,13.676 -44.055,26.672 -65.9535,40.414 4.7617,0.231 9.5705,0.059 14.3395,0.141 1.692,0.047 3.102,-1.16 4.547,-1.973"
         style="fill:#ffffff;fill-opacity:1;fill-rule:nonzero;stroke:none"
         id="path22" /><path
         d="m 159.906,281.133 c -14.019,0.086 -28.113,-0.141 -42.113,0.086 13.918,8.863 28.211,16.886 42.094,25.855 l 0.019,2.231 v 10.734 h -0.515 l -2.387,-0.027 c -20.598,-12.801 -41.375,-25.235 -61.9884,-37.961 -1.0468,-0.703 -2.2148,-1.059 -3.3828,-0.973 -4.6133,0.098 -9.2617,-0.086 -13.8633,0.098 20.3946,12.715 40.9805,24.933 61.4535,37.515 h -0.051 c -1.93,-0.265 -3.817,-0.543 -5.762,-0.843 l -0.504,-0.102 c -1.953,-0.355 -3.886,-0.715 -5.832,-1.109 -16.844,-10.321 -33.7771,-20.504 -50.6756,-30.742 -0.0195,3.507 -0.0195,6.968 -0.0195,10.468 l -0.0234,-0.031 c -2.25,-1.394 -4.4532,-2.828 -6.6328,-4.336 0,-6.418 0,-12.871 0.0117,-19.297 23.0898,0 46.2226,0 69.3596,0 6.937,0 13.875,0 20.812,0 v 8.434"
         style="fill:#ffffff;fill-opacity:1;fill-rule:nonzero;stroke:none"
         id="path24" /><path
         d="m 185.133,228.938 h 109.875 l -0.133,-78.18 c 0.914,-31.43 -18.676,-50.9338 -54.719,-59.7267 -25.593,6.3554 -55.105,19.5037 -55.148,58.8317 l 0.129,79.075 h -0.004"
         style="fill:#ffffff;fill-opacity:1;fill-rule:nonzero;stroke:none"
         id="path26" /><path
         d="m 187.566,226.582 h 105 l -0.121,-74.918 c 0.871,-30.117 -17.847,-48.805 -52.297,-57.2304 -24.46,6.0894 -52.664,18.6874 -52.707,56.3754 l 0.125,75.773 v 0"
         style="fill:#3ea4bf;fill-opacity:1;fill-rule:nonzero;stroke:none"
         id="path28" /><path
         d="m 187.953,226.195 -0.125,-75.386 c 0.043,-38.454 29.852,-50.368 52.32,-55.977 35.29,8.66 52.75,27.773 51.907,56.82 l 0.125,74.543 z m 52.195,-132.1598 -0.093,0.0234 c -22.731,5.6602 -52.957,17.6994 -53,56.7504 l 0.125,76.16 h 105.777 v -0.387 l -0.125,-74.918 c 0.856,-29.476 -16.84,-48.859 -52.59,-57.6054 l -0.094,-0.0234"
         style="fill:#ffffff;fill-opacity:1;fill-rule:nonzero;stroke:none"
         id="path30" /><path
         d="m 291.754,142.789 c -3.82,-28.746 -25.961,-41.305 -51.609,-47.9726 -22.7,6.0896 -47.122,15.8126 -51.856,47.8286 l 103.465,0.144 v 0"
         style="fill:#a2331f;fill-opacity:1;fill-rule:nonzero;stroke:none"
         id="path32" /><path
         d="m 235.988,212.625 -0.144,9.445 7.465,-0.074 0.074,-9.371 h 20.422 l 0.07,-7.316 -20.492,-0.075 -0.164,-86.32 -7.281,-0.047 -0.094,86.442 -20.356,-0.075 0.008,7.465 20.492,-0.074"
         style="fill:#100f0d;fill-opacity:1;fill-rule:nonzero;stroke:none"
         id="path34" /><path
         d="m 219.457,139.227 18.691,-19.391 c 6.465,7.105 1.981,33.66 -6.519,38.551 -1.02,-3.145 -2.75,-6.914 -4.594,-8.129 -4.055,-2.762 -13.984,-5.992 -10.664,-8.059 0.758,1.047 2.738,2.035 3.668,-0.293 1.106,-3.668 -4.133,-3.902 -4.133,-3.902 0,0 -3.32,0.41 -3.902,3.785 -0.582,3.379 4.941,6.461 5.414,6.699 0.469,0.172 7.687,2.094 8.91,8.5 1.516,6.289 3.086,5.36 3.379,5.477 9.434,-0.934 15.606,-17.82 15.957,-29.699 0.348,-11.879 -4.836,-19.743 -5.766,-20.266 -0.933,-0.523 -22.48,25.563 -22.48,25.563 l 2.039,1.164"
         style="fill:#f78e11;fill-opacity:1;fill-rule:nonzero;stroke:none"
         id="path36" /><path
         d="m 219.73,139.242 18.415,-19.101 c 2.738,3.226 3.605,10.511 2.257,19.121 -1.418,9.066 -4.8,16.398 -8.66,18.812 -1.035,-3.117 -2.762,-6.781 -4.594,-7.992 -1.273,-0.863 -3.136,-1.785 -4.945,-2.68 -2.922,-1.445 -6.234,-3.082 -6.293,-4.25 l 0.414,-0.675 2.024,1.062 c 0.578,0 1.371,-0.269 1.882,-1.555 0.336,-1.113 0.168,-2.031 -0.5,-2.742 z m -1.996,-1.234 c 8.27,-10.004 20.774,-24.754 22.11,-25.297 0.992,0.715 5.953,8.406 5.613,20.047 -0.348,11.687 -6.496,28.539 -15.734,29.496 l -0.114,-0.012 -0.16,0.004 c -1.09,0 -2.07,-1.785 -2.918,-5.305 -1.019,-5.328 -6.008,-7.675 -8.89,-8.597 l -0.149,-0.051 c -1.23,-0.613 -5.789,-3.539 -5.285,-6.469 0.547,-3.179 3.676,-3.609 3.723,-3.613 -0.012,0.004 1.097,0.059 2.152,0.469 l 1.164,0.668 c 0.703,0.601 0.91,1.449 0.594,2.5 l -1.492,1.277 -1.809,-1.047 -0.113,-0.156 -0.164,0.101 -0.766,1.153 c 0.07,1.41 3.207,2.957 6.527,4.597 1.79,0.887 3.645,1.801 4.895,2.653 1.797,1.187 3.508,4.922 4.516,8.023 l 0.078,0.242 0.218,-0.125 c 4.051,-2.332 7.618,-9.882 9.083,-19.242 1.089,-6.957 1,-15.769 -2.508,-19.629 l -0.153,-0.164 -18.726,19.434 -1.196,-0.672 z m 22.129,-25.723 c -1.351,0 -19.066,21.363 -22.601,25.645 l -0.051,0.058 -1.297,-0.191 c -0.07,0.008 -3.512,0.469 -4.113,3.961 -0.633,3.66 5.465,6.883 5.527,6.914 l 0.188,0.066 c 2.797,0.895 7.629,3.164 8.609,8.289 1.215,5.051 2.48,5.633 3.324,5.633 l 0.16,-0.004 0.047,0.02 0.071,-0.008 c 4.324,-0.426 8.425,-4.281 11.55,-10.859 2.692,-5.664 4.407,-12.782 4.59,-19.039 0.356,-12.012 -4.961,-19.942 -5.871,-20.45 l -0.047,-0.027 -0.086,-0.008"
         style="fill:#100f0d;fill-opacity:1;fill-rule:nonzero;stroke:none"
         id="path38" /><path
         d="m 233.086,157.281 0.113,-35"
         style="fill:#f78e11;fill-opacity:1;fill-rule:nonzero;stroke:none"
         id="path40" /><path
         d="m 232.992,122.281 -0.113,35 h 0.41 l 0.117,-35 h -0.414"
         style="fill:#100f0d;fill-opacity:1;fill-rule:nonzero;stroke:none"
         id="path42" /><path
         d="m 230.988,156.641 0.117,-31.797"
         style="fill:#f78e11;fill-opacity:1;fill-rule:nonzero;stroke:none"
         id="path44" /><path
         d="m 230.898,124.844 c -0.007,1.297 -0.117,31.738 -0.117,31.797 h 0.414 l 0.114,-31.797 h -0.411"
         style="fill:#100f0d;fill-opacity:1;fill-rule:nonzero;stroke:none"
         id="path46" /><path
         d="m 228.715,152.039 0.117,-25.273"
         style="fill:#f78e11;fill-opacity:1;fill-rule:nonzero;stroke:none"
         id="path48" /><path
         d="m 228.625,126.766 -0.113,25.273 h 0.41 l 0.117,-25.273 h -0.414"
         style="fill:#100f0d;fill-opacity:1;fill-rule:nonzero;stroke:none"
         id="path50" /><path
         d="m 226.852,150.234 0.117,-20.906"
         style="fill:#f78e11;fill-opacity:1;fill-rule:nonzero;stroke:none"
         id="path52" /><path
         d="m 226.762,129.328 -0.117,20.906 h 0.414 l 0.117,-20.906 h -0.414"
         style="fill:#100f0d;fill-opacity:1;fill-rule:nonzero;stroke:none"
         id="path54" /><path
         d="M 224.871,149.305 V 131.656"
         style="fill:#f78e11;fill-opacity:1;fill-rule:nonzero;stroke:none"
         id="path56" /><path
         d="m 225.078,131.656 h -0.414 v 17.645 h 0.414 v -17.645"
         style="fill:#100f0d;fill-opacity:1;fill-rule:nonzero;stroke:none"
         id="path58" /><path
         d="M 222.719,147.906 V 133.93"
         style="fill:#f78e11;fill-opacity:1;fill-rule:nonzero;stroke:none"
         id="path60" /><path
         d="m 222.926,133.93 h -0.414 v 13.976 h 0.414 V 133.93"
         style="fill:#100f0d;fill-opacity:1;fill-rule:nonzero;stroke:none"
         id="path62" /><path
         d="M 220.855,146.797 V 136.086"
         style="fill:#f78e11;fill-opacity:1;fill-rule:nonzero;stroke:none"
         id="path64" /><path
         d="m 221.063,136.086 h -0.415 v 10.711 h 0.415 v -10.711"
         style="fill:#100f0d;fill-opacity:1;fill-rule:nonzero;stroke:none"
         id="path66" /><path
         d="m 238.441,114.738 -0.156,0.071 -19.273,22.07 0.019,0.293 0.289,-0.02 19.278,-22.074 -0.02,-0.289 -0.137,-0.051"
         style="fill:#f9e005;fill-opacity:1;fill-rule:nonzero;stroke:none"
         id="path68" /><path
         d="m 240.012,115.723 -0.176,0.043 -0.168,0.519 c 7.918,15.379 -0.563,34.297 -0.648,34.488 l 0.191,0.512 0.516,-0.191 c 0.086,-0.192 8.718,-19.453 0.632,-35.164 l -0.347,-0.207"
         style="fill:#f9e005;fill-opacity:1;fill-rule:nonzero;stroke:none"
         id="path70" /><path
         d="m 216.895,140.645 -0.137,0.027 -0.227,0.5 1.196,1.379 0.875,-0.235 0.043,-0.546 -0.547,-0.04 -0.18,0.071 -0.66,-0.906 -0.363,-0.25"
         style="fill:#f9e005;fill-opacity:1;fill-rule:nonzero;stroke:none"
         id="path72" /><path
         d="m 213.809,140.473 -0.278,0.117 -0.683,1.762 c 0.07,1.894 2.187,3.785 2.277,3.863 l 0.547,-0.031 -0.035,-0.547 c -0.02,-0.02 -1.957,-1.754 -2.016,-3.317 l 0.465,-1.191 -0.008,-0.551 -0.269,-0.105"
         style="fill:#f9e005;fill-opacity:1;fill-rule:nonzero;stroke:none"
         id="path74" /><path
         d="m 243.438,194.5 c 1.292,1.109 1.964,1.789 2.765,1.664 l 2.695,0.188 c 0.805,0.246 4.782,0.738 6.415,0.183 0.554,-0.062 1.296,-0.371 2.433,-1.324 1.145,-0.957 2.809,-2.625 2.254,-7.25 -0.555,-4.625 -0.375,-6.602 -0.617,-9.188 -0.43,-4.562 -1.442,-8.32 -3.27,-8.015 2.469,-4.32 2.715,-8.02 4.317,-10.981 1.605,-2.961 2.59,-9.004 1.972,-15.539 -0.613,-6.539 -2.339,-21.215 2.84,-31.082 -0.863,-0.617 -2.961,0 -4.812,1.973 -1.848,1.973 -2.66,1.906 -4.192,0.738 -4.687,-3.574 -9.078,-7.887 -15.539,-3.574 -1.48,0.984 -1.953,2.168 -0.863,5.18 2.711,7.523 4.027,17.847 3.602,22.695 v 54.332 0"
         style="fill:#26803a;fill-opacity:1;fill-rule:nonzero;stroke:none"
         id="path76" /><path
         d="m 243.523,194.461 v -54.293 c 0.434,-4.93 -0.91,-15.242 -3.609,-22.727 -1.105,-3.066 -0.562,-4.152 0.832,-5.078 1.805,-1.207 3.524,-1.789 5.246,-1.789 3.317,0 6.071,2.149 8.985,4.426 l 1.207,0.938 1.828,0.839 c 0.703,0 1.422,-0.461 2.48,-1.589 1.238,-1.325 2.774,-2.176 3.906,-2.176 l 0.731,0.172 c -4.899,9.414 -3.555,23.351 -2.906,30.058 l 0.097,1.004 c 0.657,6.984 -0.511,12.813 -1.965,15.492 -0.707,1.305 -1.156,2.77 -1.632,4.325 -0.61,1.984 -1.301,4.234 -2.684,6.652 l -0.086,0.156 0.176,-0.031 c 1.539,-0.254 2.664,2.59 3.168,7.941 0.094,0.992 0.125,1.918 0.16,2.895 0.055,1.617 0.117,3.449 0.457,6.297 0.578,4.828 -1.312,6.41 -2.223,7.172 -0.972,0.816 -1.734,1.234 -2.386,1.304 -0.504,0.168 -1.239,0.254 -2.203,0.254 -1.661,0 -3.618,-0.262 -4.18,-0.433 l -1.844,-0.254 -0.887,0.062 c -0.675,0.11 -1.265,-0.402 -2.304,-1.305 z m 2.469,-84.059 c -1.758,0 -3.508,0.594 -5.34,1.821 -1.433,0.953 -2.039,2.121 -0.898,5.277 2.691,7.461 4.031,17.738 3.598,22.66 v 54.379 l 0.031,0.024 0.39,0.339 c 0.981,0.848 1.571,1.364 2.243,1.364 l 0.203,-0.016 0.859,-0.062 1.793,0.242 c 0.574,0.175 2.555,0.445 4.231,0.445 0.98,0 1.734,-0.09 2.238,-0.262 0.672,-0.07 1.461,-0.5 2.461,-1.34 0.933,-0.781 2.875,-2.402 2.285,-7.32 -0.344,-2.844 -0.406,-4.672 -0.461,-6.281 -0.031,-0.981 -0.062,-1.91 -0.156,-2.906 -0.285,-3.032 -1.074,-8.114 -3.149,-8.114 l -0.05,0.004 c 1.335,-2.383 2.015,-4.59 2.617,-6.547 0.472,-1.543 0.922,-3 1.617,-4.289 1.465,-2.703 2.648,-8.57 1.984,-15.59 l -0.093,-1.003 c -0.649,-6.707 -1.997,-20.664 2.921,-30.032 l 0.036,-0.066 -0.059,-0.043 -0.895,-0.246 c -0.937,0 -2.488,0.586 -4.031,2.23 -1.019,1.09 -1.703,1.535 -2.355,1.535 l -1.723,-0.804 -1.207,-0.934 c -2.809,-2.195 -5.715,-4.465 -9.09,-4.465"
         style="fill:#100f0d;fill-opacity:1;fill-rule:nonzero;stroke:none"
         id="path78" /><path
         d="m 247.883,199.125 c 0.34,-1.051 0.523,-2.406 -0.031,-3.641 -0.555,-1.23 -0.68,-2.711 0.246,-4.5 1.48,2.098 3.578,1.664 4.808,2.899 1.235,1.234 1.481,2.406 2.407,2.652 -0.926,0.801 -2.344,1.664 -2.036,4.008 0.309,2.344 3.578,4.258 0.618,7.832 -1.911,2.309 -4.688,1.664 -5.891,0.773 l -1.231,-1.421 -0.406,-1.848 -1.109,-1.051 -0.153,-0.832 0.575,-0.246 -0.45,-0.754 0.09,-0.523 -0.09,-1.375 c -0.269,-0.481 -0.632,-1.047 0.372,-1.602 l 2.281,-0.371"
         style="fill:#fdddcb;fill-opacity:1;fill-rule:nonzero;stroke:none"
         id="path80" /><path
         d="m 247.941,199.219 0.024,-0.067 c 0.308,-0.964 0.555,-2.386 -0.039,-3.703 -0.621,-1.383 -0.563,-2.793 0.183,-4.301 0.868,1.153 1.938,1.516 2.883,1.836 l 1.856,0.957 1.144,1.446 1.153,1.179 -0.196,0.161 c -0.906,0.75 -2.039,1.687 -1.758,3.828 l 0.875,2.14 c 0.872,1.575 1.77,3.2 -0.238,5.625 -1.062,1.289 -2.332,1.559 -3.211,1.559 -1.097,0 -2.043,-0.414 -2.562,-0.801 l -1.203,-1.387 -0.086,-0.609 -0.332,-1.258 -1.125,-1.062 -0.27,-0.375 0.129,-0.332 0.359,-0.168 0.18,-0.059 0.09,-0.027 -0.043,-0.09 -0.457,-0.77 0.082,-0.402 0.039,-0.035 -0.016,-0.055 -0.019,-0.703 -0.078,-0.687 -0.028,-0.047 -0.23,-0.84 0.594,-0.602 1.961,-0.375 0.269,0.016 z m 0.145,-8.399 -0.066,0.125 c -0.829,1.606 -0.911,3.106 -0.247,4.578 0.555,1.235 0.34,2.579 0.047,3.508 l -0.218,-0.008 -2.043,0.399 -0.676,0.703 0.246,0.969 0.027,0.047 0.063,0.566 0.004,0.742 -0.063,0.598 0.399,0.652 -0.082,0.024 -0.434,0.218 -0.176,0.465 0.344,0.492 1.094,1.036 0.289,1.156 0.101,0.676 1.258,1.449 c 0.543,0.402 1.527,0.832 2.664,0.832 0.914,0 2.238,-0.281 3.344,-1.617 2.082,-2.516 1.109,-4.27 0.254,-5.817 l -0.852,-2.082 c -0.269,-2.047 0.821,-2.949 1.696,-3.672 l 0.312,-0.261 0.121,-0.106 -0.156,-0.039 -1.203,-1.16 -1.164,-1.469 -1.922,-1 c -1,-0.34 -2.035,-0.687 -2.879,-1.89 l -0.082,-0.114"
         style="fill:#100f0d;fill-opacity:1;fill-rule:nonzero;stroke:none"
         id="path82" /><path
         d="m 235.887,186.852 c -1.727,-0.43 -4.5,0.308 -6.602,0.062 -0.926,-0.109 -1.664,0.371 -1.539,1.297 0.121,0.922 0.246,2.34 0.059,3.637 -0.285,2.019 0.679,4.808 2.039,7.894 1.355,3.082 2.035,4.809 2.035,6.258 0,0.957 0.09,2.035 0.953,2.59 l 0.988,1.14 1.078,0.497 -0.308,-0.895 1.711,1.156 1.371,0.2 0.836,-0.032 -0.172,-0.539 0.047,-0.957 0.078,-0.922 -1.481,-1.265 -2.265,-1.774 -0.617,-1.449 c 0,-9.496 -1.141,-8.727 -1.141,-11.008 l 0.492,-0.988 c 0.617,0.187 1.512,0.465 2.438,0.465 v -5.367"
         style="fill:#fdddcb;fill-opacity:1;fill-rule:nonzero;stroke:none"
         id="path84" /><path
         d="m 230.266,187.051 2.199,-0.129 2.051,-0.121 1.285,0.117 v 5.215 l -2.266,-0.442 -0.058,-0.019 -0.489,0.058 -0.121,0.743 0.004,0.269 0.293,1.758 c 0.34,1.152 0.848,2.891 0.848,9.25 l 0.672,1.527 2.222,1.735 0.856,0.793 0.644,0.496 0.258,0.629 -0.254,0.152 -0.078,0.148 0.285,0.614 -0.265,0.191 -0.321,-0.066 0.25,0.215 0.149,0.437 -0.719,-0.008 -0.113,-0.058 -0.008,0.125 -0.215,0.23 -1.023,-0.492 -0.36,-0.23 -1.347,-0.922 -0.125,0.113 0.293,0.836 -0.133,0.176 -0.789,-0.707 -0.137,-0.223 -0.875,-0.941 c -0.805,-0.516 -0.914,-1.516 -0.914,-2.52 0,-1.418 -0.606,-3.02 -2.043,-6.293 -1.176,-2.672 -2.336,-5.695 -2.031,-7.848 0.144,-1.015 0.125,-2.25 -0.059,-3.66 l 0.215,-0.836 1.23,-0.363 z m 4.25,-0.422 -2.067,0.125 -2.183,0.125 -0.969,-0.051 -1.379,0.422 -0.258,0.969 c 0.188,1.398 0.207,2.617 0.063,3.617 -0.313,2.195 0.855,5.246 2.043,7.941 1.429,3.25 2.027,4.836 2.027,6.223 0,1.051 0.117,2.102 0.992,2.664 l 0.82,0.883 0.145,0.234 0.93,0.782 0.304,-0.325 -0.105,-0.578 1.023,0.676 0.352,0.223 1.121,0.519 0.363,-0.265 0.453,0.113 0.395,-0.235 -0.059,-0.511 0.25,-0.282 -0.183,-0.66 0.23,-0.25 -0.308,-0.816 -0.653,-0.508 -0.808,-0.73 -2.309,-1.813 -0.562,-1.371 c 0,-6.387 -0.516,-8.137 -0.856,-9.297 l -0.285,-1.711 -0.008,-0.273 0.078,-0.621 0.129,-0.043 0.184,0.031 0.058,0.019 c 0.629,0.188 1.493,0.45 2.403,0.45 h 0.086 v -5.52 l -0.067,-0.015 -1.39,-0.141"
         style="fill:#100f0d;fill-opacity:1;fill-rule:nonzero;stroke:none"
         id="path86" /><path
         d="m 236.254,166.379 c 2.789,1.391 5.984,1.91 7.648,2.344 1.664,0.429 4.321,1.726 5.614,2.402 1.297,0.68 2.343,1.605 3.082,1.852 0.742,0.246 1.57,0.757 2.035,1.664 2.406,4.687 3.703,8.449 3.703,11.718 0,2.157 -0.555,4.563 -2.652,2.836 -1.973,-1.625 -4.121,-4.75 -4.688,-7.031 -0.863,-3.453 -1.601,-4.191 -1.789,-4.871 l -1.727,-0.863 c -3.64,-0.801 -4.503,-1.356 -7.214,-3.391 -2.715,-2.035 -5.676,-3.824 -7.649,-4.934 -1.972,-1.113 -2.344,-1.234 -2.773,-2.128 l -1.203,-1.973 -0.403,-1.359 -0.152,-2.868 0.371,-0.8 0.707,0.832 0.957,0.062 1.109,0.402 0.895,0.09 0.586,1.789 1.449,2.161 c 0.801,0.585 0.43,1.234 2.094,2.066"
         style="fill:#fdddcb;fill-opacity:1;fill-rule:nonzero;stroke:none"
         id="path88" /><path
         d="m 256.938,189.699 -1.204,-0.57 c -2.019,-1.664 -4.109,-4.801 -4.656,-6.984 -0.609,-2.442 -1.164,-3.543 -1.496,-4.204 l -0.293,-0.671 -1.379,-0.84 -0.414,-0.082 c -3.644,-0.805 -4.496,-1.364 -7.18,-3.379 -2.933,-2.199 -6.058,-4.039 -7.66,-4.938 l -0.601,-0.34 c -1.461,-0.812 -1.762,-0.98 -2.137,-1.75 -0.457,-0.953 -0.855,-1.605 -1.215,-1.996 l -0.379,-1.285 -0.094,-2.043 -0.058,-0.844 0.293,-0.71 0.058,-0.004 0.559,0.765 0.168,-0.027 0.047,-0.289 0.191,-0.074 0.547,0.449 0.172,-0.016 0.07,-0.273 0.157,-0.059 0.711,0.742 0.171,-0.004 0.176,-0.183 0.551,0.301 0.129,0.457 0.461,1.343 0.144,0.289 1.332,1.899 0.563,0.687 c 0.234,0.407 0.5,0.864 1.547,1.387 2.207,1.106 4.644,1.656 6.422,2.059 l 1.242,0.293 c 1.488,0.383 3.941,1.531 5.594,2.394 l 1.64,1.016 1.453,0.844 c 0.52,0.171 1.469,0.613 1.989,1.621 2.55,4.976 3.691,8.582 3.691,11.679 0,0.786 -0.094,3.34 -1.312,3.34 z m -28.415,-30.812 -0.078,0.004 -0.445,0.89 0.059,0.848 0.097,2.004 0.422,1.43 c 0.348,0.375 0.735,1.015 1.188,1.953 0.394,0.816 0.742,1.011 2.207,1.828 l 0.601,0.336 c 1.598,0.894 4.711,2.73 7.641,4.925 2.707,2.032 3.566,2.598 7.246,3.407 l 0.418,0.086 1.246,0.718 0.305,0.704 c 0.328,0.652 0.879,1.742 1.484,4.168 0.551,2.214 2.664,5.386 4.715,7.074 l 1.309,0.609 c 1.335,0 1.484,-2.457 1.484,-3.512 0,-3.129 -1.145,-6.754 -3.711,-11.757 -0.547,-1.063 -1.539,-1.528 -2.086,-1.707 l -1.41,-0.821 -1.66,-1.023 c -0.602,-0.317 -3.692,-1.91 -5.629,-2.414 l -1.246,-0.293 c -1.774,-0.399 -4.196,-0.949 -6.387,-2.043 -1,-0.5 -1.242,-0.918 -1.473,-1.321 l -0.609,-0.738 -1.281,-1.836 -0.145,-0.293 -0.445,-1.312 -0.133,-0.461 -0.715,-0.422 -0.242,0.082 -0.816,-0.637 -0.278,0.114 -0.066,0.093 -0.602,-0.308 -0.324,0.136 -0.016,0.02 -0.625,-0.531"
         style="fill:#100f0d;fill-opacity:1;fill-rule:nonzero;stroke:none"
         id="path90" /><path
         d="m 256.238,115.867 0.645,-1.91 -0.211,-0.863 c -0.649,-1.36 -1.344,-3.52 -1.453,-4.688 l -0.739,-1.726 0.399,-1.203 1.203,0.492 1.109,0.277 1.051,0.371 0.832,0.434 0.91,0.894 0.231,0.66 0.156,0.926 0.492,1.496 0.586,2.129 c -0.203,0.746 -0.523,0.676 -0.804,1.758 -0.676,0.707 -1.602,1.695 -2.555,1.758 -0.957,0.058 -1.512,-0.586 -1.852,-0.805"
         style="fill:#fdddcb;fill-opacity:1;fill-rule:nonzero;stroke:none"
         id="path92" /><path
         d="m 256.336,115.832 0.352,-1.035 0.277,-0.817 -0.129,-0.765 -0.09,-0.156 c -0.68,-1.43 -1.34,-3.563 -1.441,-4.661 l -0.602,-1.503 -0.148,-0.254 0.379,-1.094 0.211,-0.055 0.855,0.496 0.031,0.153 0.114,-0.11 0.355,-0.144 0.617,0.402 0.055,0.102 0.082,-0.082 0.918,0.355 0.047,0.07 0.07,-0.046 0.711,0.406 0.043,0.066 0.07,-0.035 0.246,-0.062 0.539,0.882 0.247,0.707 0.14,0.875 0.504,1.543 0.574,2.063 -0.316,0.668 -0.477,1.07 -0.019,0.02 c -0.66,0.687 -1.563,1.636 -2.469,1.695 l -1.555,-0.609 z m -1.191,-10.508 -0.317,0.086 -0.422,1.309 0.149,0.261 0.578,1.434 c 0.113,1.231 0.847,3.43 1.461,4.715 l 0.097,0.176 0.11,0.629 -0.274,0.8 -0.375,1.114 -0.015,0.058 0.054,0.035 0.231,0.172 1.672,0.645 c 0.972,-0.067 1.902,-1.039 2.582,-1.75 l 0.054,-0.074 0.458,-1.039 0.343,-0.719 -0.593,-2.192 -0.481,-1.449 -0.168,-0.972 -0.219,-0.622 -0.711,-1.046 -0.254,0.046 -0.695,-0.457 -0.14,0.024 -1.055,-0.387 -0.715,-0.406 -0.379,0.113 -0.976,-0.504"
         style="fill:#100f0d;fill-opacity:1;fill-rule:nonzero;stroke:none"
         id="path94" /><path
         d="m 238.691,110.566 c 0.864,-0.863 2.809,-0.894 4.164,0.555 l -2.066,1.109 -2.098,-1.664"
         style="fill:#fdddcb;fill-opacity:1;fill-rule:nonzero;stroke:none"
         id="path96" /><path
         d="m 238.852,110.535 1.476,-0.484 2.379,1.039 -1.91,1.027 z m 1.476,-0.656 v 0 l -1.695,0.625 -0.102,0.098 0.133,0.043 2.066,1.644 0.051,0.055 0.063,-0.047 2.047,-1.098 0.109,-0.051 -0.082,-0.085 c -0.703,-0.754 -1.648,-1.184 -2.59,-1.184"
         style="fill:#100f0d;fill-opacity:1;fill-rule:nonzero;stroke:none"
         id="path98" /><path
         d="m 247.418,208.621 c 0.34,2.192 1.891,2.141 2.867,1.914 0.403,-0.094 1.391,-0.187 2.313,0.063 1.832,0.484 3.207,-0.157 3.023,-1.914 l 0.926,-1.973 0.738,-1.141 c 0.68,-0.093 2.129,-0.925 1.172,-2.097 0.926,-0.555 1.637,-1.973 1.141,-2.93 -0.493,-0.957 -1.973,-1.109 -2.59,-0.246 l -2.465,0.34 h -1.852 l -1.015,0.894 0.215,1.664 0.125,1.078 -0.403,0.957 -0.371,2.344 -2.715,0.957 -1.109,0.09"
         style="fill:#83171c;fill-opacity:1;fill-rule:nonzero;stroke:none"
         id="path100" /><path
         d="m 257.035,200.402 0.043,-0.054 1.106,-0.532 1.339,0.766 c 0.469,0.91 -0.222,2.285 -1.109,2.816 l -0.086,0.051 0.063,0.078 0.242,1.012 -1.36,0.945 -0.812,1.235 -0.891,1.898 -0.039,0.028 0.004,0.046 -0.367,1.438 -1.457,0.539 -1.09,-0.156 -1.32,-0.16 -1.035,0.097 c -1.489,0.348 -2.403,-0.183 -2.711,-1.566 l 1.043,-0.305 2.285,-0.969 0.332,0.047 0.223,0.071 -0.122,-0.2 0.348,-2.23 0.508,-0.75 -0.094,-0.328 -0.105,-1.004 0.019,-0.086 -0.086,-0.016 -0.504,-0.773 0.297,-0.731 1.071,-0.941 0.789,-0.34 0.918,0.363 0.062,0.071 0.066,-0.067 1.36,-0.531 1.008,0.211 z m 1.149,-0.757 -1.204,0.546 -1.015,-0.199 -1.422,0.52 -0.984,-0.356 -0.946,0.446 -0.965,0.847 -0.414,0.899 0.555,0.91 0.16,1.07 0.055,0.199 -0.445,0.637 -0.473,2.285 -0.203,-0.011 -2.422,1.042 -0.973,0.094 -0.152,0.063 c 0.258,1.668 1.285,2.367 2.969,1.98 l 0.996,-0.094 1.273,0.157 1.137,0.16 1.582,-0.598 0.418,-1.519 0.918,-2.024 0.668,-1.047 1.492,-1.05 -0.207,-1.106 c 0.926,-0.613 1.598,-2.016 1.094,-2.992 l -1.492,-0.859"
         style="fill:#100f0d;fill-opacity:1;fill-rule:nonzero;stroke:none"
         id="path102" /><path
         d="m 247.895,199.039 -0.024,0.172 1.309,0.473 1.203,0.359 -0.012,-0.172 -1.109,-0.336 -1.367,-0.496"
         style="fill:#100f0d;fill-opacity:1;fill-rule:nonzero;stroke:none"
         id="path104" /><path
         d="m 246.359,202.023 -0.093,0.012 -0.692,0.176 -0.308,0.199 0.113,0.129 0.277,-0.18 0.629,-0.156 0.094,-0.012 -0.02,-0.168"
         style="fill:#100f0d;fill-opacity:1;fill-rule:nonzero;stroke:none"
         id="path106" /><path
         d="m 246.125,203.383 -0.473,0.285 0.055,0.16 0.539,-0.328 -0.121,-0.117"
         style="fill:#100f0d;fill-opacity:1;fill-rule:nonzero;stroke:none"
         id="path108" /><path
         d="m 252.824,208.301 -1.211,0.351 -2.527,0.934 -0.672,-0.547 0.113,-0.355 -0.121,-0.125 -0.16,0.523 0.793,0.664 2.695,-0.973 1.516,-0.253 0.055,-0.165 -0.481,-0.054"
         style="fill:#100f0d;fill-opacity:1;fill-rule:nonzero;stroke:none"
         id="path110" /><path
         d="m 257.77,203.07 -0.149,0.012 c -0.601,0.094 -1.238,0.773 -1.891,2.016 l -0.996,0.84 -0.859,0.773 c -0.465,1.215 -2.258,0.863 -2.613,0.781 l -0.039,0.164 c 1.097,0.258 2.414,0.16 2.812,-0.883 l 0.754,-0.675 1.094,-0.922 c 0.613,-1.172 1.226,-1.84 1.765,-1.926 l 0.75,0.285 0.118,-0.125 -0.746,-0.34"
         style="fill:#100f0d;fill-opacity:1;fill-rule:nonzero;stroke:none"
         id="path112" /><path
         d="m 254.473,200.586 -0.243,1.758 0.02,1.812 0.152,-0.074 -0.011,-1.664 0.031,-0.035 -0.016,-0.047 0.203,-1.648 -0.136,-0.102"
         style="fill:#100f0d;fill-opacity:1;fill-rule:nonzero;stroke:none"
         id="path114" /><path
         d="m 253.172,201.938 -1.367,1.25 0.168,0.015 1.226,-1.094 -0.027,-0.171"
         style="fill:#100f0d;fill-opacity:1;fill-rule:nonzero;stroke:none"
         id="path116" /><path
         d="m 256.941,200.242 -0.293,1.793 0.168,-0.023 0.258,-1.664 -0.133,-0.106"
         style="fill:#100f0d;fill-opacity:1;fill-rule:nonzero;stroke:none"
         id="path118" /><path
         d="m 255.137,203.746 c -1.078,0 -1.649,0.738 -1.801,1.078 l -0.914,1.614 0.172,-0.008 0.84,-1.461 0.031,-0.012 0.012,-0.035 c 0.128,-0.317 0.718,-1.113 1.886,-0.996 l 0.02,-0.168 -0.246,-0.012"
         style="fill:#100f0d;fill-opacity:1;fill-rule:nonzero;stroke:none"
         id="path120" /><path
         d="m 255.57,208.617 c -0.765,0.594 -1.632,1.164 -2.765,1.313 l 0.023,0.172 c 1.172,-0.157 2.063,-0.743 2.848,-1.352 l -0.106,-0.133"
         style="fill:#100f0d;fill-opacity:1;fill-rule:nonzero;stroke:none"
         id="path122" /><path
         d="m 246.18,176.059 -0.114,0.125 c 1.938,1.761 1.258,5.578 0.758,8.359 l -0.043,0.258 c -0.433,2.429 -0.015,4.527 1.246,6.234 l 0.137,-0.101 c -1.23,-1.668 -1.641,-3.719 -1.215,-6.102 l 0.043,-0.258 c 0.504,-2.824 1.196,-6.691 -0.812,-8.515"
         style="fill:#100f0d;fill-opacity:1;fill-rule:nonzero;stroke:none"
         id="path124" /><path
         d="m 249.242,169.516 -1.922,0.425 0.075,0.153 c 1.25,-0.629 3.054,-0.524 4.105,0.238 1.113,0.805 3.129,0.836 4.633,0.508 l -0.035,-0.168 c -1.418,0.308 -3.434,0.293 -4.496,-0.477 l -2.36,-0.679"
         style="fill:#100f0d;fill-opacity:1;fill-rule:nonzero;stroke:none"
         id="path126" /><path
         d="m 251.156,158.598 c -0.293,2.234 -0.16,4.465 -0.043,6.429 l 0.106,2.461 c 0,2.211 0.547,3.211 1.89,3.446 l 0.028,-0.168 c -1.258,-0.219 -1.746,-1.141 -1.746,-3.278 l -0.106,-2.468 c -0.117,-1.961 -0.25,-4.18 0.043,-6.403 l -0.172,-0.019"
         style="fill:#100f0d;fill-opacity:1;fill-rule:nonzero;stroke:none"
         id="path128" /><path
         d="m 249.309,167.48 c -0.149,2.071 0.621,2.262 1.363,2.45 l 0.176,0.047 0.047,-0.168 -0.184,-0.047 c -0.734,-0.184 -1.371,-0.344 -1.234,-2.27 l -0.168,-0.012"
         style="fill:#100f0d;fill-opacity:1;fill-rule:nonzero;stroke:none"
         id="path130" /><path
         d="m 246.797,167.426 -0.172,0.004 c 0.023,1.066 0.316,1.937 0.762,2.281 l 0.699,0.141 -0.039,-0.164 -0.555,-0.114 c -0.406,-0.308 -0.676,-1.133 -0.695,-2.148"
         style="fill:#100f0d;fill-opacity:1;fill-rule:nonzero;stroke:none"
         id="path132" /><path
         d="m 260.719,135.828 c -0.461,1.641 -0.539,4.516 -0.633,7.848 -0.129,4.605 -0.285,10.34 -1.586,14.597 l -0.652,1.973 c -0.563,1.637 -1.051,3.051 -1.325,5.692 -0.367,3.554 -0.914,4.511 -1.597,4.777 l 0.031,-0.031 c 0.523,-0.512 0.758,-1.661 0.719,-3.508 l -0.172,0.004 c 0.039,1.773 -0.184,2.91 -0.664,3.383 l -0.543,0.257 -0.156,0.004 -0.004,0.172 0.191,-0.008 c 1.152,-0.062 1.899,-0.519 2.363,-5.035 0.274,-2.617 0.758,-4.023 1.321,-5.652 l 0.648,-1.977 c 1.309,-4.281 1.469,-10.027 1.598,-14.644 0.09,-3.321 0.172,-6.188 0.625,-7.809 l -0.164,-0.043"
         style="fill:#100f0d;fill-opacity:1;fill-rule:nonzero;stroke:none"
         id="path134" /><path
         d="m 259.234,124.613 c -0.293,1.758 -1.339,4.336 -2.671,7.602 -0.915,2.246 -1.95,4.793 -2.997,7.676 l -0.007,0.027 0.007,0.027 c 3.926,12.41 2.438,19.996 0.247,26.344 l 0.164,0.055 c 2.199,-6.371 3.691,-13.981 -0.239,-26.422 1.039,-2.871 2.071,-5.406 2.985,-7.641 1.332,-3.277 2.386,-5.863 2.679,-7.64 l -0.168,-0.028"
         style="fill:#100f0d;fill-opacity:1;fill-rule:nonzero;stroke:none"
         id="path136" /><path
         d="m 246.574,150.258 -0.164,0.047 -0.066,1.375 c -0.227,0.898 -0.567,2.25 0.312,5.773 0.578,2.313 0.68,3.723 0.317,4.445 l 0.152,0.079 c 0.383,-0.762 0.285,-2.211 -0.301,-4.563 -0.871,-3.484 -0.539,-4.812 -0.316,-5.691 l 0.066,-1.465"
         style="fill:#100f0d;fill-opacity:1;fill-rule:nonzero;stroke:none"
         id="path138" /><path
         d="m 247.746,148.527 -0.16,0.055 c 0.66,1.84 0.184,4.117 -0.238,6.129 -0.321,1.535 -0.625,2.984 -0.383,4.039 l 0.168,-0.039 c -0.235,-1.016 0.062,-2.449 0.383,-3.969 0.425,-2.027 0.906,-4.332 0.23,-6.215"
         style="fill:#100f0d;fill-opacity:1;fill-rule:nonzero;stroke:none"
         id="path140" /><path
         d="m 251.656,112.34 -0.086,0.148 c 0.977,0.559 0.926,2.289 0.887,3.551 l -0.008,0.945 c 0.332,6.594 -1.933,11.496 -5.66,18.95 l -0.59,1.117 c -0.722,1.332 -1.25,2.293 -1.148,3.984 0.07,1.172 -0.059,2.551 -0.18,3.883 -0.098,1.078 -0.191,2.098 -0.191,3.02 h 0.172 c 0,-0.915 0.093,-1.93 0.191,-3.004 0.121,-1.34 0.246,-2.723 0.18,-3.911 -0.098,-1.64 0.418,-2.585 1.129,-3.89 l 0.589,-1.121 c 3.739,-7.481 6.012,-12.403 5.68,-19.039 l 0.008,-0.93 c 0.039,-1.305 0.09,-3.094 -0.973,-3.703"
         style="fill:#100f0d;fill-opacity:1;fill-rule:nonzero;stroke:none"
         id="path142" /><path
         d="m 244.93,110.508 -0.078,0.004 0.015,0.168 c 0.301,-0.02 0.684,0.097 1.149,1.215 0.429,1.031 1.941,7.695 1.32,12.289 l 0.168,0.019 c 0.625,-4.621 -0.899,-11.336 -1.332,-12.375 -0.383,-0.918 -0.758,-1.32 -1.242,-1.32"
         style="fill:#100f0d;fill-opacity:1;fill-rule:nonzero;stroke:none"
         id="path144" /><path
         d="m 247.496,112.383 -0.156,0.062 c 0.949,2.348 0.894,5.317 0.734,6.559 l 0.168,0.019 c 0.164,-1.257 0.219,-4.261 -0.746,-6.64"
         style="fill:#100f0d;fill-opacity:1;fill-rule:nonzero;stroke:none"
         id="path146" /><path
         d="m 250.648,115.602 -0.168,0.039 c 0.469,2.074 0.446,4.851 -0.062,7.613 l 0.168,0.031 c 0.512,-2.785 0.535,-5.586 0.062,-7.683"
         style="fill:#100f0d;fill-opacity:1;fill-rule:nonzero;stroke:none"
         id="path148" /><path
         d="m 248.98,110.977 -0.042,0.164 c 0.667,0.179 0.464,2.195 0.328,3.527 l -0.082,0.949 0.171,0.008 0.083,-0.937 c 0.156,-1.559 0.351,-3.497 -0.458,-3.711"
         style="fill:#100f0d;fill-opacity:1;fill-rule:nonzero;stroke:none"
         id="path150" /><path
         d="m 259.816,115.621 c -1.015,0.981 -1.98,3.856 -3.003,6.902 -0.938,2.782 -1.907,5.661 -2.989,7.36 l 0.145,0.094 c 1.094,-1.719 2.062,-4.606 3.004,-7.399 1.015,-3.023 1.976,-5.883 2.961,-6.832 l -0.118,-0.125"
         style="fill:#100f0d;fill-opacity:1;fill-rule:nonzero;stroke:none"
         id="path152" /><path
         d="m 255.781,117.098 -0.008,0.121 c -0.054,0.937 -0.136,2.219 -0.648,2.789 l 0.129,0.109 c 0.551,-0.613 0.629,-1.875 0.691,-2.887 l 0.008,-0.121 -0.172,-0.011"
         style="fill:#100f0d;fill-opacity:1;fill-rule:nonzero;stroke:none"
         id="path154" /><path
         d="m 231.316,160.27 -0.171,0.007 0.007,0.301 c 0.004,0.594 0.012,1.203 0.657,2.117 l 0.136,-0.097 -0.621,-2.024 -0.008,-0.304"
         style="fill:#100f0d;fill-opacity:1;fill-rule:nonzero;stroke:none"
         id="path156" /><path
         d="m 230.207,159.867 -0.172,0.008 0.016,0.395 c 0.074,2.007 0.086,2.265 0.75,2.902 l 0.117,-0.125 c -0.613,-0.586 -0.621,-0.793 -0.695,-2.785 l -0.016,-0.395"
         style="fill:#100f0d;fill-opacity:1;fill-rule:nonzero;stroke:none"
         id="path158" /><path
         d="m 229.25,159.809 -0.172,0.004 -0.004,1 c -0.015,0.996 -0.027,1.546 0.512,2.402 l 0.144,-0.09 c -0.511,-0.812 -0.503,-1.344 -0.484,-2.312 l 0.004,-1.004"
         style="fill:#100f0d;fill-opacity:1;fill-rule:nonzero;stroke:none"
         id="path160" /><path
         d="m 235.277,208.785 -0.105,0.137 2.457,1.84 0.09,-0.145 -2.442,-1.832"
         style="fill:#100f0d;fill-opacity:1;fill-rule:nonzero;stroke:none"
         id="path162" /><path
         d="m 235.738,208.141 -0.105,0.132 0.652,0.504 c 1.141,0.891 1.77,1.383 2.039,1.426 l 0.028,-0.168 c -0.227,-0.039 -0.918,-0.574 -1.961,-1.39 l -0.653,-0.504"
         style="fill:#100f0d;fill-opacity:1;fill-rule:nonzero;stroke:none"
         id="path164" /><path
         d="m 236.211,207.41 -0.098,0.141 1.071,0.836 1.164,0.851 0.07,-0.152 -1.125,-0.832 -1.082,-0.844"
         style="fill:#100f0d;fill-opacity:1;fill-rule:nonzero;stroke:none"
         id="path166" /><path
         d="m 233.75,208.43 -0.105,0.136 0.398,0.375 0.496,0.457 0.102,-0.136 -0.477,-0.442 -0.414,-0.39"
         style="fill:#100f0d;fill-opacity:1;fill-rule:nonzero;stroke:none"
         id="path168" /><path
         d="m 256.02,105.914 0.093,1.383 0.157,-0.063 -0.125,-1.207 -0.125,-0.113"
         style="fill:#100f0d;fill-opacity:1;fill-rule:nonzero;stroke:none"
         id="path170" /><path
         d="m 257.133,106.188 0.148,1.476 0.16,-0.059 -0.187,-1.296 -0.121,-0.121"
         style="fill:#100f0d;fill-opacity:1;fill-rule:nonzero;stroke:none"
         id="path172" /><path
         d="m 258.207,106.539 -0.184,0.223 0.172,1.004 0.153,-0.075 -0.16,-0.875 0.089,-0.121 -0.07,-0.156"
         style="fill:#100f0d;fill-opacity:1;fill-rule:nonzero;stroke:none"
         id="path174" /><path
         d="m 259.047,106.969 -0.141,0.129 0.133,0.937 0.16,-0.058 -0.14,-0.805 0.043,-0.043 -0.055,-0.16"
         style="fill:#100f0d;fill-opacity:1;fill-rule:nonzero;stroke:none"
         id="path176" /><path
         d="m 246.941,206.68 0.989,-0.903 0.23,-0.515 -0.359,-0.032 -0.727,0.051 -0.316,0.289 0.113,0.196 0.16,0.332 -0.039,0.179 -0.051,0.403 v 0"
         style="fill:#100f0d;fill-opacity:1;fill-rule:nonzero;stroke:none"
         id="path178" /><path
         d="m 247.211,207.215 1.832,-0.848 -0.117,-0.312 -0.738,0.347 -1.016,0.602 0.039,0.211"
         style="fill:#100f0d;fill-opacity:1;fill-rule:nonzero;stroke:none"
         id="path180" /></g></g></svg>
