<?xml version="1.0" encoding="UTF-8" standalone="no"?>
<svg
   xmlns:dc="http://purl.org/dc/elements/1.1/"
   xmlns:cc="http://creativecommons.org/ns#"
   xmlns:rdf="http://www.w3.org/1999/02/22-rdf-syntax-ns#"
   xmlns:svg="http://www.w3.org/2000/svg"
   xmlns="http://www.w3.org/2000/svg"
   version="1.1"
   id="svg2"
   xml:space="preserve"
   width="42.666668"
   height="42.666668"
   viewBox="0 0 42.666668 42.666668"><metadata
     id="metadata8"><rdf:RDF><cc:Work
         rdf:about=""><dc:format>image/svg+xml</dc:format><dc:type
           rdf:resource="http://purl.org/dc/dcmitype/StillImage" /></cc:Work></rdf:RDF></metadata><defs
     id="defs6" /><g
     id="g10"
     transform="matrix(1.3333333,0,0,-1.3333333,0,42.666667)"><g
       id="g12"
       transform="scale(0.1)"><path
         d="M 0,160.023 C 0,71.8125 71.9492,-0.121094 160.156,-0.121094 V 320.133 C 71.9492,320.133 0,248.207 0,160.023"
         style="fill:#ffffff;fill-opacity:1;fill-rule:evenodd;stroke:none"
         id="path14" /><path
         d="M 160.156,320.121 V -0.113281 C 248.219,0.0546875 320,71.918 320,160.023 c 0,88.079 -71.781,159.922 -159.844,160.098"
         style="fill:#d11d2c;fill-opacity:1;fill-rule:evenodd;stroke:none"
         id="path16" /><path
         d="m 78.2578,257.504 v -16.973 c 0.9024,-0.242 1.9219,-0.867 2.8203,-1.765 0.8985,-0.899 1.5235,-1.926 1.7696,-2.832 H 99.8203 V 213.012 H 82.8477 c -0.2461,-0.899 -0.8594,-1.922 -1.7696,-2.821 -0.9023,-0.898 -1.9179,-1.523 -2.8203,-1.769 V 191.449 H 55.332 v 16.973 c -0.9023,0.246 -1.9297,0.871 -2.8281,1.769 l -1.7656,2.821 H 33.7695 v 22.922 h 16.9688 c 0.25,0.906 0.8672,1.933 1.7656,2.832 0.8984,0.898 1.9258,1.523 2.8281,1.765 v 16.973 h 22.9258"
         style="fill:#d11d2c;fill-opacity:1;fill-rule:nonzero;stroke:none"
         id="path18" /><path
         d="M 98.043,234.176 H 81.4883 c 0.0586,0.957 -0.3945,2.402 -1.5039,3.515 -1.0977,1.094 -2.5391,1.551 -3.4961,1.504 v 16.524 H 57.1055 v -16.543 c -0.9649,0.058 -2.4024,-0.41 -3.5078,-1.524 -1.1016,-1.093 -1.5704,-2.519 -1.5235,-3.476 H 35.5469 v -19.395 h 16.5586 c -0.0703,-0.957 0.3984,-2.394 1.5117,-3.508 1.1016,-1.093 2.5234,-1.562 3.4883,-1.511 v -16.535 h 19.3828 v 16.554 c 0.957,-0.058 2.414,0.399 3.5156,1.512 1.0977,1.094 1.5547,2.531 1.5039,3.488 H 98.043 v 19.395"
         style="fill:#a4afb4;fill-opacity:1;fill-rule:nonzero;stroke:none"
         id="path20" /><path
         d="M 58.3945,216.07 H 36.8438 v 16.805 H 58.3945 V 254.43 H 75.1953 V 232.875 H 96.7422 V 216.07 H 75.1953 V 194.527 H 58.3945 v 21.543"
         style="fill:#e4e5e5;fill-opacity:1;fill-rule:nonzero;stroke:none"
         id="path22" /><path
         d="m 66.9688,209.633 c 8.1015,0 14.6679,6.562 14.6679,14.668 0,8.105 -6.5664,14.668 -14.6679,14.668 -8.0977,0 -14.668,-6.563 -14.668,-14.668 0,-8.106 6.5703,-14.668 14.668,-14.668"
         style="fill:#a4afb4;fill-opacity:1;fill-rule:nonzero;stroke:none"
         id="path24" /><path
         d="m 66.9688,210.074 c 7.8593,0 14.2226,6.375 14.2226,14.227 0,7.851 -6.3633,14.219 -14.2226,14.219 -7.8477,0 -14.2188,-6.368 -14.2188,-14.219 0,-7.852 6.3711,-14.227 14.2188,-14.227"
         style="fill:#e4e5e5;fill-opacity:1;fill-rule:nonzero;stroke:none"
         id="path26" /><path
         d="m 66.793,214.566 c 5.4765,0 9.9101,4.434 9.9101,9.911 0,5.468 -4.4336,9.914 -9.9101,9.914 -5.4688,0 -9.9141,-4.446 -9.9141,-9.914 0,-5.477 4.4453,-9.911 9.9141,-9.911"
         style="fill:#e4e5e5;fill-opacity:1;fill-rule:nonzero;stroke:none"
         id="path28" /><path
         d="m 58.5898,217.836 -0.0898,-0.047 -0.5352,0.215 -1.9453,-1.145 -0.082,-0.566 -0.0742,-0.047 -1.4063,2.41 0.8399,0.489 0.0664,-0.106 -0.3047,-1.144 0.2227,-0.379 0.3476,0.007 0.8984,0.528 -0.9609,0.344 -0.0547,0.085 1.3399,0.782 0.0664,-0.098 -0.2539,-1.035 0.9179,0.539 0.1172,0.508 0.0781,0.047 0.8125,-1.387"
         style="fill:#a4afb4;fill-opacity:1;fill-rule:nonzero;stroke:none"
         id="path30" /><path
         d="m 56.4805,222.523 -1.5977,0.547 -1.3242,-1.043 1.5977,-0.558 1.3242,1.054 0.0976,0.012 c 0.1758,-0.996 -0.4375,-1.68 -1.2968,-1.828 -0.8516,-0.144 -1.6524,0.293 -1.8204,1.301 -0.1757,0.996 0.4258,1.68 1.2891,1.824 0.8594,0.148 1.6523,-0.293 1.8281,-1.297 l -0.0976,-0.012"
         style="fill:#a4afb4;fill-opacity:1;fill-rule:nonzero;stroke:none"
         id="path32" /><path
         d="m 54.9297,226.285 -0.5391,1.024 -0.7617,-0.43 0.1289,-0.359 1.1719,-0.235 0.1211,-0.031 1.0195,-0.203 0.4297,0.293 0.0859,-0.02 -0.3007,-1.496 -0.0938,0.02 -0.2734,0.441 -2.211,0.449 -0.4414,-0.371 -0.0859,0.02 0.3008,1.523 1.0703,1.141 0.6133,-0.867 1.5703,0.652 0.0976,0.137 0.086,-0.02 -0.1836,-0.887 -1.6641,-0.683 -0.0195,-0.129 -0.1211,0.031"
         style="fill:#a4afb4;fill-opacity:1;fill-rule:nonzero;stroke:none"
         id="path34" /><path
         d="m 59.1211,231.43 -2.3203,-0.164 -0.0781,2.226 0.6953,0.488 0.1172,0.352 0.0859,0.086 0.7539,-0.684 -0.0781,-0.097 -1.4649,-0.254 c -0.1679,-0.176 -0.4492,-0.684 0.4883,-1.543 0.9453,-0.867 1.4141,-0.606 1.6875,-0.313 l 0.1055,0.539 -0.4453,0.399 -0.5078,-0.039 -0.0586,0.058 1.0039,1.106 0.0625,-0.07 -0.0039,-0.516 0.582,-0.527 -0.625,-1.047"
         style="fill:#a4afb4;fill-opacity:1;fill-rule:nonzero;stroke:none"
         id="path36" /><path
         d="m 61.4102,234.633 0.4804,0.234 -0.9218,0.801 0.082,-1.211 0.3594,0.176 0.0703,-0.184 -0.4141,-0.207 0.0195,-0.429 0.4922,-0.262 0.0391,-0.078 -0.8516,-0.41 -0.0429,0.078 0.1836,0.507 c -0.1758,2.891 -0.1758,2.918 -0.1758,2.918 l 0.1484,0.071 c 0,0 0.1094,-0.09 2.1836,-1.895 l 0.5547,-0.187 0.0391,-0.078 -1.4063,-0.692 -0.0391,0.086 0.2149,0.527 -0.3789,0.325 -0.5664,-0.274 -0.0703,0.184"
         style="fill:#a4afb4;fill-opacity:1;fill-rule:nonzero;stroke:none"
         id="path38" /><path
         d="m 65.5625,237.953 0.0039,-0.086 -0.3711,-0.402 0.2188,-2.195 0.3007,-0.313 0.3985,0.039 0.8945,0.984 0.1367,0.012 -0.0898,-1.066 -2.7344,-0.274 -0.0078,0.09 0.4141,0.41 -0.2305,2.246 -0.4336,0.313 -0.0117,0.086 1.5117,0.156"
         style="fill:#a4afb4;fill-opacity:1;fill-rule:nonzero;stroke:none"
         id="path40" /><path
         d="m 70.1055,237.633 -0.0117,-0.09 -0.4883,-0.262 -0.5078,-2.14 0.1796,-0.399 0.3907,-0.09 1.1601,0.637 0.1289,-0.031 -0.4297,-0.977 -2.6718,0.637 0.0195,0.086 0.5195,0.246 0.5274,2.195 -0.3047,0.45 0.0117,0.089 1.4766,-0.351"
         style="fill:#a4afb4;fill-opacity:1;fill-rule:nonzero;stroke:none"
         id="path42" /><path
         d="m 73.0234,234.223 0.3907,-0.262 c 0.2226,1.141 0.2343,1.191 0.2343,1.191 l -1.0078,-0.675 0.3828,-0.254 -0.1093,-0.164 -0.4493,0.3 -0.3593,-0.234 0.0195,-0.555 -0.0508,-0.078 -0.7851,0.535 0.0547,0.071 0.5273,0.097 c 2.4102,1.59 2.4414,1.61 2.4414,1.61 l 0.1367,-0.086 c 0,0 -0.0195,-0.137 -0.5508,-2.844 l 0.125,-0.574 -0.0507,-0.071 -1.3125,0.872 0.0586,0.078 0.5585,0.078 0.0977,0.488 -0.4609,0.313 0.1093,0.164"
         style="fill:#a4afb4;fill-opacity:1;fill-rule:nonzero;stroke:none"
         id="path44" /><path
         d="m 76.9883,233.414 -0.0508,0.156 0.0781,0.047 0.586,-0.82 -0.6641,-2.508 1.2617,0.899 0.0664,0.527 0.0703,0.058 0.5274,-0.734 -0.0781,-0.059 -0.4883,0.079 -2.2071,-1.571 -0.0937,0.125 0.8242,3.164 -1.6719,-1.199 -0.0664,-0.539 -0.0742,-0.047 -0.543,0.762 0.0704,0.059 0.5195,-0.11 1.8359,1.309 0.0977,0.402"
         style="fill:#a4afb4;fill-opacity:1;fill-rule:nonzero;stroke:none"
         id="path46" /><path
         d="m 76.6953,228.051 0.086,0.031 0.4609,-0.266 2.4414,0.704 -0.0469,0.156 -0.9219,0.519 -0.0273,0.086 0.8789,0.254 0.7617,-2.664 -0.875,-0.254 -0.0234,0.098 0.5078,0.918 -0.0508,0.156 -2.4414,-0.695 -0.2539,-0.457 -0.0781,-0.02 -0.418,1.434"
         style="fill:#a4afb4;fill-opacity:1;fill-rule:nonzero;stroke:none"
         id="path48" /><path
         d="m 78.9414,224.047 0.668,-0.957 0.7031,0.527 -0.1758,0.344 -1.039,0.086 -0.1133,0.012 -1.2071,0.066 -0.3789,-0.34 -0.0898,0.008 0.1094,1.523 0.0859,-0.007 0.332,-0.411 2.2539,-0.156 0.3868,0.418 h 0.0976 l -0.1094,-1.551 -0.9179,-1.281 -0.7188,0.793 -1.4804,-0.84 -0.0782,-0.156 -0.0859,0.008 0.0664,0.898 1.5703,0.899 0.0078,0.129 0.1133,-0.012"
         style="fill:#a4afb4;fill-opacity:1;fill-rule:nonzero;stroke:none"
         id="path50" /><path
         d="m 76.5977,219.438 -0.5274,-0.243 -0.082,0.039 0.7148,1.493 0.0782,-0.039 0.1367,-0.555 0.7422,-0.352 c 0,0 0.7343,0.047 1.6523,0.125 l 0.4922,0.196 0.0781,-0.039 -0.6601,-1.387 -0.0782,0.039 -0.1523,0.43 -1.3203,-0.098 0.6054,-0.977 0.5743,0.039 0.082,-0.039 -0.4609,-0.965 -0.0782,0.04 -0.1757,0.644 -0.7618,1.238 -0.8593,0.411"
         style="fill:#a4afb4;fill-opacity:1;fill-rule:nonzero;stroke:none"
         id="path52" /><path
         d="m 65.7734,233.355 0.9024,0.321 0.7305,-0.438 0.7929,0.157 0.6485,-0.157 2.1328,-1.222 c 0.7539,-0.547 1.5234,-1.387 -0.6836,-2.078 l 1.3594,-2.188 c 1.0429,0.879 1.4921,1.074 2,0.672 l 1.7734,-0.996 0.9414,-1.074 -0.7383,-0.829 -0.5781,0.586 -1.1328,0.711 -1.2031,-0.058 -0.4883,-0.469 0.5859,-0.125 1.2227,-0.605 1.414,-1.641 0.3555,-0.801 0.0742,-0.898 0.1875,-0.852 -1.3203,-1.609 0.0781,-0.715 c -0.2617,-0.262 -0.457,-0.887 -1.6797,-0.848 -1.2304,0.039 -1.8906,0.125 -2.7382,-0.136 -0.8516,-0.266 -2.4571,-0.04 -3.4141,-0.598 l -0.6445,0.656 -0.6055,0.379 -0.7109,0.02 -1.0625,-0.04 0.0586,-0.925 c 1.8906,-0.715 3.8632,-1.379 5.1015,-1.809 l -0.4961,-0.476 c -1.7969,0.644 -3.0156,1.093 -4.0039,1.425 -0.414,0.145 -0.6992,-0.636 -1.9219,-0.461 l 0.0586,0.422 0.6328,0.477 c -0.9765,0.351 -1.8046,0.644 -3.0156,1.105 l 0.4024,0.469 1.3554,-0.508 0.3789,0.321 1.0352,0.937 -0.8984,0.871 -0.2539,0.965 -0.1836,1.242 -1.4766,1.153 -1.3555,0.546 0.1875,-0.488 c 0.4375,-0.344 0.4922,-1.027 0.2305,-2.609 l 0.2266,-0.489 -0.3438,-1.503 -0.3594,0.351 -0.2461,0.488 -0.164,0.606 -0.0391,0.742 -0.625,1.035 -0.4023,1.477 0.207,1.433 c 0.418,0.411 1.1406,0.996 2.3477,-0.683 l 1.1171,1.398 v 0.281 l -0.7617,0.891 -1.0898,-0.168 -1.0586,-0.789 -0.3789,0.996 0.1836,1.152 0.6836,1.258 0.8515,1.438 -0.0898,0.535 2.9101,1.973 1.0079,-0.301 1.3632,0.164 0.625,-0.067"
         style="fill:#a4afb4;fill-opacity:1;fill-rule:nonzero;stroke:none"
         id="path54" /><path
         d="m 60.3867,228.258 0.2266,0.586 -0.5625,0.019 -1.4024,-0.722 0.1563,-0.325 1.2109,0.586 0.1055,-0.144 h 0.2656"
         style="fill:#e4e5e5;fill-opacity:1;fill-rule:nonzero;stroke:none"
         id="path56" /><path
         d="m 60.1055,227.934 -1.0586,-0.528 -0.5274,-0.672 0.4141,-0.039 1.1719,0.918 v 0.321"
         style="fill:#e4e5e5;fill-opacity:1;fill-rule:nonzero;stroke:none"
         id="path58" /><path
         d="m 59.0703,229.313 1.7188,0.683 0.164,-0.363 -2.0195,-0.938 0.1367,0.618"
         style="fill:#e4e5e5;fill-opacity:1;fill-rule:nonzero;stroke:none"
         id="path60" /><path
         d="m 59.3906,229.809 c 0.0586,0.246 0.1211,1.164 1.2422,1.164 l 1.668,0.175 -0.3242,-0.46 -2.586,-0.879"
         style="fill:#e4e5e5;fill-opacity:1;fill-rule:nonzero;stroke:none"
         id="path62" /><path
         d="m 63.0508,232.055 -0.3399,-0.516 -1.1523,-0.187 -1.2227,-0.039 0.8829,0.449 0.9843,0.136 0.8477,0.157"
         style="fill:#e4e5e5;fill-opacity:1;fill-rule:nonzero;stroke:none"
         id="path64" /><path
         d="m 60.8398,232.164 1.9297,0.457 1.5078,-0.117 0.6055,-0.059 -0.2656,-0.203 -1.6641,0.203 -0.8867,-0.144 -1.2266,-0.137"
         style="fill:#e4e5e5;fill-opacity:1;fill-rule:nonzero;stroke:none"
         id="path66" /><path
         d="m 62.6602,233.219 1.6171,-0.149 1.2969,-0.156 -0.2187,-0.223 -1.0977,0.157 -1.168,0.019 -0.8281,0.125 0.3985,0.227"
         style="fill:#e4e5e5;fill-opacity:1;fill-rule:nonzero;stroke:none"
         id="path68" /><path
         d="m 59.6914,224.918 -1.375,0.039 0.1055,-0.441 0.2265,-0.332 0.3594,0.109 0.4219,0.457 0.2617,0.168"
         style="fill:#e4e5e5;fill-opacity:1;fill-rule:nonzero;stroke:none"
         id="path70" /><path
         d="m 58.8438,223.844 -0.2149,-0.285 -0.0312,-0.34 0.0312,-0.567 0.1563,-0.91 0.5117,-0.086 0.3008,0.43 -0.2657,0.398 h -0.4297 l 0.2422,0.43 0.3203,0.363 -0.621,0.567"
         style="fill:#e4e5e5;fill-opacity:1;fill-rule:nonzero;stroke:none"
         id="path72" /><path
         d="m 65.957,233.09 0.2032,-1.074 0.25,-0.02 0.625,0.547 -0.2032,-0.047 -0.3047,0.164 -0.5703,0.43"
         style="fill:#e4e5e5;fill-opacity:1;fill-rule:nonzero;stroke:none"
         id="path74" /><path
         d="m 69.8281,232.027 -0.3593,-0.168 -0.254,-0.117 0.0391,-0.242 0.5078,-0.168 0.8125,0.09 -0.039,0.254 -0.7071,0.351"
         style="fill:#e4e5e5;fill-opacity:1;fill-rule:nonzero;stroke:none"
         id="path76" /><path
         d="m 67.7109,232.652 -0.3711,-1.359 -0.2539,-1.504 0.3789,-0.742 1.5547,0.527 0.2969,0.684 -0.9609,0.996 0.1836,0.625 0.2695,0.148 0.2617,0.254 0.0625,0.332 -0.2695,0.184 -0.3242,0.012 -0.5078,0.039 -0.3204,-0.196"
         style="fill:#e4e5e5;fill-opacity:1;fill-rule:nonzero;stroke:none"
         id="path78" /><path
         d="m 65.4453,232.066 -1.3398,-0.187 -0.7696,-0.281 -1.2695,-1.524 -1.2266,-1.797 0.1329,-0.937 0.4765,-0.07 v 0.566 l 0.1485,0.898 1.1015,1.204 0.5664,0.535 0.5078,0.429 0.6446,0.176 0.0781,-0.476 -0.0664,0.066 -0.4805,-0.262 0.1485,-0.019 0.2265,-0.09 -0.1094,-0.332 -0.164,-0.32 0.3242,-0.11 0.3359,0.254 0.4063,0.039 -0.043,-0.469 -0.0976,-0.019 -0.2344,-0.02 -0.2539,-0.047 -0.1445,-0.351 0.1015,-0.215 0.2031,-0.156 0.0625,-0.215 -0.0742,-0.098 -0.2031,0.106 -0.3125,-0.41 0.043,-0.645 0.6132,-0.137 1.1993,-0.125 1.1484,-0.39 0.8008,-0.684 0.5078,-0.812 0.5469,-0.907 0.3828,-0.507 0.543,-0.02 0.1875,0.164 -0.75,0.684 -0.5,1.035 -0.2071,0.547 -0.0976,0.324 -0.3711,0.488 -1.1211,0.457 -0.3828,0.274 -0.1641,0.078 -0.1562,0.031 -0.2305,0.078 -0.2266,0.254 -0.0508,0.613 -0.1289,0.442 0.2813,0.332 0.2305,0.234 0.1132,0.203 0.0586,0.481 0.0508,0.41 -0.0195,0.281 -0.1406,0.176 -0.2227,-0.039 -0.4375,-0.02 0.043,0.45 0.0781,0.429 -0.2969,-0.047"
         style="fill:#e4e5e5;fill-opacity:1;fill-rule:nonzero;stroke:none"
         id="path80" /><path
         d="m 69.6563,227.926 -0.7071,0.156 -0.4765,0.242 -0.5,0.176 -0.3711,0.031 -0.4688,-0.39 0.1563,-0.391 1.0351,-0.461 0.2344,0.149 -0.2344,0.312 0.1094,0.195 0.4102,-0.175 1.1171,-0.461 v -0.899 l -0.625,-0.945 0.9805,-0.344 1.1719,0.039 0.9297,0.078 0.8086,-0.156 0.7929,-0.633 0.5664,-0.285 -0.2695,0.586 -0.6601,0.754 -0.8086,0.203 -1.211,0.02 -0.6562,0.109 0.0742,0.379 0.2578,0.988 -1.2187,2.207 -0.5469,-0.019 -0.5547,-0.227 -0.0117,-0.203 0.375,-0.344 0.4726,-0.476 -0.1718,-0.215"
         style="fill:#e4e5e5;fill-opacity:1;fill-rule:nonzero;stroke:none"
         id="path82" /><path
         d="m 68.8828,227.25 0.5742,-0.117 0.1016,-0.262 -0.4258,0.215 -0.25,0.164"
         style="fill:#e4e5e5;fill-opacity:1;fill-rule:nonzero;stroke:none"
         id="path84" /><path
         d="m 71.832,227.34 0.1563,-0.676 1.1133,0.977 0.7187,-0.164 1.2422,-0.84 0.4063,-0.645 0.5117,0.196 -0.3711,0.613 -1.6016,0.801 -1.1211,0.546 -1.0547,-0.808"
         style="fill:#e4e5e5;fill-opacity:1;fill-rule:nonzero;stroke:none"
         id="path86" /><path
         d="m 62.9531,229.516 -0.9179,-0.938 -0.0782,-0.828 0.2735,-0.363 0.1289,-0.254 0.2031,-0.281 0.6836,0.273 0.2461,0.125 0.1445,0.41 -0.0664,0.774 0.0781,0.73 -0.6953,0.352"
         style="fill:#e4e5e5;fill-opacity:1;fill-rule:nonzero;stroke:none"
         id="path88" /><path
         d="m 61.5,226.871 0.2227,-0.109 v 0.246 z"
         style="fill:#e4e5e5;fill-opacity:1;fill-rule:nonzero;stroke:none"
         id="path90" /><path
         d="m 62.0352,226.559 0.1562,-0.567 0.5469,-0.48 0.6836,-0.313 -0.0196,0.344 -1.1328,1.023 -0.2343,-0.007"
         style="fill:#e4e5e5;fill-opacity:1;fill-rule:nonzero;stroke:none"
         id="path92" /><path
         d="m 63.0313,226.48 1,0.176 2.3984,-0.343 1.1328,-0.45 0.3906,-0.847 0.0586,-0.344 -0.5664,-0.215 -1.4492,0.195 -0.7227,0.11 -0.5625,-0.168 0.3243,-0.731 0.0156,-0.742 -1.3438,-1.504 0.0664,-1.172 1.4258,-1.211 0.5078,-0.226 -0.0312,-0.301 -0.4766,0.078 -0.4336,0.125 -0.375,0.254 -1.2812,1.164 -0.418,0.906 0.3203,0.996 0.0196,0.606 -0.5469,0.625 -0.9063,0.266 -0.6992,0.359 0.9414,1.66 1.6524,-1.035 0.5,0.488 -0.9414,1.281"
         style="fill:#e4e5e5;fill-opacity:1;fill-rule:nonzero;stroke:none"
         id="path94" /><path
         d="m 65.0898,220.855 -0.4726,-0.05 -0.4531,0.39 -0.1914,-0.39 0.6132,-0.567 0.5039,0.617"
         style="fill:#e4e5e5;fill-opacity:1;fill-rule:nonzero;stroke:none"
         id="path96" /><path
         d="m 65.6406,222.992 -0.5195,-0.527 -0.3906,-0.965 0.5273,-0.305 c 0.9219,0.078 2.0117,0.02 2.3633,-0.136 l 0.4492,0.097 -1.9687,0.461 -0.6328,0.203 0.1875,0.567 0.2226,0.488 -0.2383,0.117"
         style="fill:#e4e5e5;fill-opacity:1;fill-rule:nonzero;stroke:none"
         id="path98" /><path
         d="m 63.707,219.066 -0.8593,-1.035 0.4687,-0.176 0.2227,0.95 0.1679,0.261"
         style="fill:#e4e5e5;fill-opacity:1;fill-rule:nonzero;stroke:none"
         id="path100" /><path
         d="m 73.1797,224.43 -0.7539,0.429 -0.957,-0.168 -0.836,-0.242 -0.2031,-0.383 0.2031,-0.906 0.9258,-0.676 0.6445,1.172 -0.3047,0.578 0.2149,0.098 0.793,-0.227 0.2734,0.325"
         style="fill:#e4e5e5;fill-opacity:1;fill-rule:nonzero;stroke:none"
         id="path102" /><path
         d="m 73.6758,224.184 -0.1367,-0.477 0.2148,-0.227 0.2656,0.137 -0.3437,0.567"
         style="fill:#e4e5e5;fill-opacity:1;fill-rule:nonzero;stroke:none"
         id="path104" /><path
         d="m 74.6172,223.688 0.4805,-0.997 -0.4454,-0.175 -0.7851,-0.578 -0.3477,-0.137 -0.5937,0.039 -0.4024,-0.137 0.3829,-0.39 0.3984,-0.157 0.293,-0.261 0.039,-0.715 0.3047,-0.02 0.5078,0.528 v 0.246 h -0.3906 l -0.1367,0.281 0.4375,0.324 0.2578,-0.059 0.1523,-0.05 0.25,-0.274 0.2774,0.547 0.2851,-0.086 -0.2851,-0.703 -1.5039,-1.281 -0.5352,-0.039 -0.2344,-0.156 0.086,-0.469 c -0.9961,-0.145 -2.0977,-0.242 -2.4883,-0.125 l -1.9453,0.058 -0.1563,0.711 -0.2617,-0.242 -0.2851,-0.422 -0.7305,-0.429 0.2031,-0.079 0.8516,0.059 0.4531,-0.223 -1.5586,-0.285 -0.4961,0.09 0.3203,0.606 0.1485,0.457 -0.3516,-0.098 -0.7617,0.93 -0.5274,-0.039 -0.3593,0.261 1.9804,0.528 c 1.0039,-0.489 1.0743,-0.079 1.5703,-0.34 l 2.0899,-0.664 0.1914,0.82 -0.7188,0.223 -0.0351,0.449 0.7539,-0.242 0.3945,0.144 0.5274,0.196 0.0508,0.949 0.75,0.234 1.0898,-0.031 0.3242,0.754 0.3399,0.301 0.1445,0.168"
         style="fill:#e4e5e5;fill-opacity:1;fill-rule:nonzero;stroke:none"
         id="path106" /><path
         d="m 71.0313,222.309 c -0.2227,0.48 -1.4336,0.89 -2.4727,0.91 -1.0352,0.019 -1.0547,-0.078 -0.9375,-0.168 l 0.168,-0.34 0.3906,-0.098 1.2344,0.098 0.5859,-0.078 0.2422,-0.285 0.0898,-0.262 0.6993,0.223"
         style="fill:#e4e5e5;fill-opacity:1;fill-rule:nonzero;stroke:none"
         id="path108" /><path
         d="m 69.082,222.301 -0.2929,-0.176 h 0.4453 z"
         style="fill:#e4e5e5;fill-opacity:1;fill-rule:nonzero;stroke:none"
         id="path110" /><path
         d="m 69.7695,221.832 0.9532,-0.305 -0.0938,-0.144 -0.75,0.203 -0.2891,0.195 0.1797,0.051"
         style="fill:#e4e5e5;fill-opacity:1;fill-rule:nonzero;stroke:none"
         id="path112" /><path
         d="m 65.9961,222.105 0.3945,1.356 2.2657,0.488 0.1523,-0.351 c -1.207,-0.059 -1.8906,-0.157 -2.0742,-0.477 l 0.164,-0.41 0.5079,-0.363 0.7031,-0.118 0.2265,-0.449 0.4727,-0.183 0.6406,-0.442 0.168,-0.144 0.1914,-0.196 -0.7148,0.028 -2.0782,0.996 -1.0195,0.265"
         style="fill:#e4e5e5;fill-opacity:1;fill-rule:nonzero;stroke:none"
         id="path114" /><path
         d="m 74.1953,219.164 -0.6836,-0.223 -0.3125,-0.363 0.293,-0.086 0.7226,0.438 -0.0195,0.234"
         style="fill:#e4e5e5;fill-opacity:1;fill-rule:nonzero;stroke:none"
         id="path116" /><path
         d="m 59.2969,220.484 0.0781,-0.5 0.2578,-0.261 0.1524,0.398 -0.1524,0.469 -0.3359,-0.106"
         style="fill:#e4e5e5;fill-opacity:1;fill-rule:nonzero;stroke:none"
         id="path118" /><path
         d="m 67.7695,230.609 -0.0195,-0.879 0.3594,0.168 -0.1563,0.684 -0.1836,0.027"
         style="fill:#a4afb4;fill-opacity:1;fill-rule:nonzero;stroke:none"
         id="path120" /><path
         d="m 63.3633,222.574 -0.2031,-0.586 0.3125,-0.058 0.1757,0.508 -0.2851,0.136"
         style="fill:#a4afb4;fill-opacity:1;fill-rule:nonzero;stroke:none"
         id="path122" /><path
         d="m 64.9648,223.324 -0.5117,0.696 -0.3086,-0.235 0.5039,-0.383 0.3164,-0.078"
         style="fill:#a4afb4;fill-opacity:1;fill-rule:nonzero;stroke:none"
         id="path124" /><path
         d="m 73.043,215.023 c -1.125,0 -1.125,-1.679 0,-1.679 1.1211,0 1.1367,1.679 0,1.679"
         style="fill:#a4afb4;fill-opacity:1;fill-rule:nonzero;stroke:none"
         id="path126" /><path
         d="m 60.543,215.023 c 1.1211,0 1.1211,-1.679 0,-1.679 -1.1289,0 -1.1485,1.679 0,1.679"
         style="fill:#a4afb4;fill-opacity:1;fill-rule:nonzero;stroke:none"
         id="path128" /><path
         d="m 66.1016,213.09 c -0.5196,1.367 1.8828,1.359 1.3828,0.012 1.3711,0.527 1.3633,-1.875 0.0117,-1.379 0.5273,-1.368 -1.8672,-1.356 -1.375,-0.008 -1.3711,-0.527 -1.3555,1.863 -0.0195,1.375"
         style="fill:#a4afb4;fill-opacity:1;fill-rule:nonzero;stroke:none"
         id="path130" /><path
         d="m 52.8867,212.895 2.3711,2.453 1.2227,-0.852 c -1.0391,-0.086 -2.5664,-1.687 -2.9024,-2.598 l 3.4375,1.954 -1.1406,-3.243 -0.9648,0.137 0.8945,1.68 -1.6484,-1.367 -1.2696,1.836"
         style="fill:#e4e5e5;fill-opacity:1;fill-rule:nonzero;stroke:none"
         id="path132" /><path
         d="m 78.3828,210.551 -2.4453,2.383 0.8438,1.222 c 0.0976,-1.047 1.6992,-2.57 2.6093,-2.902 l -1.9648,3.437 3.2422,-1.14 -0.1367,-0.969 -1.6758,0.898 1.375,-1.648 -1.8477,-1.281"
         style="fill:#e4e5e5;fill-opacity:1;fill-rule:nonzero;stroke:none"
         id="path134" /><path
         d="m 80.7305,236.059 -2.375,-2.45 -1.2305,0.848 c 1.043,0.098 2.5703,1.699 2.9063,2.609 l -3.4336,-1.964 1.1328,3.242 0.9648,-0.137 -0.8984,-1.68 1.6601,1.368 1.2735,-1.836"
         style="fill:#e4e5e5;fill-opacity:1;fill-rule:nonzero;stroke:none"
         id="path136" /><path
         d="m 55.2188,238.402 2.4531,-2.382 -0.8516,-1.219 c -0.0859,1.043 -1.6914,2.566 -2.5976,2.898 l 1.9531,-3.437 -3.2305,1.144 0.1367,0.965 1.668,-0.898 -1.3672,1.652 1.836,1.277"
         style="fill:#e4e5e5;fill-opacity:1;fill-rule:nonzero;stroke:none"
         id="path138" /></g></g></svg>
