<?xml version="1.0" encoding="UTF-8" standalone="no"?>
<svg
   xmlns:dc="http://purl.org/dc/elements/1.1/"
   xmlns:cc="http://creativecommons.org/ns#"
   xmlns:rdf="http://www.w3.org/1999/02/22-rdf-syntax-ns#"
   xmlns:svg="http://www.w3.org/2000/svg"
   xmlns="http://www.w3.org/2000/svg"
   version="1.1"
   id="svg2"
   xml:space="preserve"
   width="42.666668"
   height="42.666668"
   viewBox="0 0 42.666668 42.666668"><metadata
     id="metadata8"><rdf:RDF><cc:Work
         rdf:about=""><dc:format>image/svg+xml</dc:format><dc:type
           rdf:resource="http://purl.org/dc/dcmitype/StillImage" /></cc:Work></rdf:RDF></metadata><defs
     id="defs6" /><g
     id="g10"
     transform="matrix(1.3333333,0,0,-1.3333333,0,42.666667)"><g
       id="g12"
       transform="scale(0.1)"><path
         d="M 21.4102,79.9961 H 298.59 C 312.211,103.551 320,130.863 320,160 H 0 C 0,130.863 7.78516,103.551 21.4102,79.9961"
         style="fill:#fad406;fill-opacity:1;fill-rule:evenodd;stroke:none"
         id="path14" /><path
         d="M 21.4102,79.9961 C 49.0625,32.1953 100.727,0.0429688 159.906,-0.0078125 h 0.188 C 219.258,0.0429688 270.934,32.1953 298.59,79.9961 H 21.4102"
         style="fill:#2eaa49;fill-opacity:1;fill-rule:evenodd;stroke:none"
         id="path16" /><path
         d="M 21.4102,240.004 H 298.59 C 312.211,216.473 320,189.148 320,160 H 0 c 0,29.148 7.78516,56.473 21.4102,80.004"
         style="fill:#282c68;fill-opacity:1;fill-rule:evenodd;stroke:none"
         id="path18" /><path
         d="m 21.4102,240.004 c 27.6523,47.793 79.3168,79.969 138.4958,80.004 h 0.188 c 59.164,-0.035 110.84,-32.211 138.496,-80.004 H 21.4102"
         style="fill:#ea1e37;fill-opacity:1;fill-rule:evenodd;stroke:none"
         id="path20" /></g></g></svg>
