<?xml version="1.0" encoding="UTF-8" standalone="no"?>
<svg
   xmlns:dc="http://purl.org/dc/elements/1.1/"
   xmlns:cc="http://creativecommons.org/ns#"
   xmlns:rdf="http://www.w3.org/1999/02/22-rdf-syntax-ns#"
   xmlns:svg="http://www.w3.org/2000/svg"
   xmlns="http://www.w3.org/2000/svg"
   version="1.1"
   id="svg2"
   xml:space="preserve"
   width="42.666668"
   height="42.666668"
   viewBox="0 0 42.666668 42.666668"><metadata
     id="metadata8"><rdf:RDF><cc:Work
         rdf:about=""><dc:format>image/svg+xml</dc:format><dc:type
           rdf:resource="http://purl.org/dc/dcmitype/StillImage" /></cc:Work></rdf:RDF></metadata><defs
     id="defs6" /><g
     id="g10"
     transform="matrix(1.3333333,0,0,-1.3333333,0,42.666667)"><g
       id="g12"
       transform="scale(0.1)"><path
         d="M 160.008,0.0117188 C 248.117,0.0117188 320,71.8789 320,159.988 c 0,88.137 -71.883,160 -159.992,160 C 71.8711,319.988 0,248.125 0,159.988 0,71.8789 71.8711,0.0117188 160.008,0.0117188"
         style="fill:#d41b34;fill-opacity:1;fill-rule:evenodd;stroke:none"
         id="path14" /><path
         d="m 160.008,50.8359 c 60.094,0 109.172,49.0274 109.172,109.1521 0,60.125 -49.078,109.18 -109.172,109.18 -60.1486,0 -109.1877,-49.055 -109.1877,-109.18 0,-60.1247 49.0391,-109.1521 109.1877,-109.1521"
         style="fill:#247e3a;fill-opacity:1;fill-rule:evenodd;stroke:none"
         id="path16" /><path
         d="m 161.586,207.652 c 9.219,3.637 19.402,4.411 29.105,2.625 -14.953,-2.25 -28.355,-12.172 -35.714,-25.289 -6.797,-12.148 -8.317,-27.074 -4.102,-40.3 5.469,-17.727 21.254,-32.079 39.773,-34.879 -18.832,-3.903 -39.312,3.769 -50.839,19.132 -9.219,11.891 -12.657,28.028 -9.157,42.622 3.598,16.117 15.547,30.074 30.934,36.089"
         style="fill:#ffffff;fill-opacity:1;fill-rule:nonzero;stroke:none"
         id="path18" /></g></g></svg>
