<?xml version="1.0" encoding="UTF-8" standalone="no"?>
<svg
   xmlns:dc="http://purl.org/dc/elements/1.1/"
   xmlns:cc="http://creativecommons.org/ns#"
   xmlns:rdf="http://www.w3.org/1999/02/22-rdf-syntax-ns#"
   xmlns:svg="http://www.w3.org/2000/svg"
   xmlns="http://www.w3.org/2000/svg"
   version="1.1"
   id="svg2"
   xml:space="preserve"
   width="42.666668"
   height="42.666668"
   viewBox="0 0 42.666668 42.666668"><metadata
     id="metadata8"><rdf:RDF><cc:Work
         rdf:about=""><dc:format>image/svg+xml</dc:format><dc:type
           rdf:resource="http://purl.org/dc/dcmitype/StillImage" /></cc:Work></rdf:RDF></metadata><defs
     id="defs6" /><g
     id="g10"
     transform="matrix(1.3333333,0,0,-1.3333333,0,42.666667)"><g
       id="g12"
       transform="scale(0.1)"><path
         d="M 310.523,214.34 H 9.47266 C 3.34375,197.367 0,179.066 0,159.996 0,140.906 3.34375,122.613 9.47266,105.652 H 310.523 c 6.129,16.961 9.477,35.254 9.477,54.344 0,19.07 -3.348,37.371 -9.477,54.344"
         style="fill:#d01e27;fill-opacity:1;fill-rule:evenodd;stroke:none"
         id="path14" /><path
         d="M 9.47266,214.34 H 310.523 C 288.246,275.941 229.258,319.992 159.996,319.992 90.7148,319.992 31.7227,275.941 9.47266,214.34"
         style="fill:#100f0d;fill-opacity:1;fill-rule:evenodd;stroke:none"
         id="path16" /><path
         d="M 310.523,105.652 H 9.47266 C 31.7227,44.0469 90.7148,-0.00390625 159.996,-0.00390625 c 69.262,0 128.25,44.05080625 150.527,105.65590625"
         style="fill:#39a23d;fill-opacity:1;fill-rule:evenodd;stroke:none"
         id="path18" /><path
         d="m 159.91,221.203 c -17.863,0 -35.73,0.035 -53.597,-0.047 -2.176,-0.008 -2.442,0.504 -1.602,2.395 9.582,21.629 25.914,34.445 49.547,36.918 26.605,2.781 51.32,-12.465 61.055,-36.895 0.73,-1.832 0.679,-2.429 -1.571,-2.418 -17.941,0.082 -35.887,0.047 -53.832,0.047"
         style="fill:#d01e27;fill-opacity:1;fill-rule:nonzero;stroke:none"
         id="path20" /><path
         d="m 160.277,269.613 c -1.711,7.012 -3.367,14.016 -2.933,21.246 0.105,1.797 0.136,4.493 2.558,4.536 2.606,0.043 2.633,-2.731 2.778,-4.598 0.425,-5.395 -0.598,-10.699 -1.469,-16 -0.285,-1.734 -0.621,-3.457 -0.934,-5.184"
         style="fill:#d01e27;fill-opacity:1;fill-rule:nonzero;stroke:none"
         id="path22" /><path
         d="m 126.184,259.91 c -4.379,5.172 -9.032,10.094 -12.371,16.02 -0.833,1.476 -1.629,2.957 -1.84,4.668 -0.11,0.89 0.113,1.691 0.894,2.23 0.844,0.582 1.621,0.199 2.36,-0.238 1.222,-0.731 2.046,-1.852 2.765,-3.035 3.731,-6.125 5.922,-12.895 8.192,-19.645"
         style="fill:#d01e27;fill-opacity:1;fill-rule:nonzero;stroke:none"
         id="path24" /><path
         d="m 223.668,224.516 c 5.789,3.468 11.441,7.136 17.836,9.359 1.363,0.473 2.793,0.836 4.223,1.031 1.078,0.145 2.214,-0.168 2.714,-1.304 0.536,-1.219 -0.296,-2.012 -1.136,-2.719 -1.555,-1.32 -3.45,-1.949 -5.34,-2.586 -5.945,-2 -12.125,-2.824 -18.297,-3.781"
         style="fill:#d01e27;fill-opacity:1;fill-rule:nonzero;stroke:none"
         id="path26" /><path
         d="m 221.773,230.152 c 5.27,3.957 10.465,7.875 16.403,10.641 1.39,0.648 2.804,1.227 4.332,1.453 1.125,0.164 2.234,0.016 2.812,-1.055 0.563,-1.039 -0.05,-1.964 -0.793,-2.66 -0.777,-0.726 -1.621,-1.441 -2.558,-1.926 -6.364,-3.292 -13.289,-4.875 -20.196,-6.453"
         style="fill:#d01e27;fill-opacity:1;fill-rule:nonzero;stroke:none"
         id="path28" /><path
         d="m 208.395,249.445 c 3.847,6.266 7.742,12.414 13.261,17.258 1.352,1.184 3.231,2.75 4.844,1.121 1.609,-1.633 -0.008,-3.48 -1.16,-4.851 -3.805,-4.512 -8.688,-7.758 -13.43,-11.153 -1.148,-0.824 -2.344,-1.586 -3.515,-2.375"
         style="fill:#d01e27;fill-opacity:1;fill-rule:nonzero;stroke:none"
         id="path30" /><path
         d="m 166.137,269.367 c -0.864,7 -2.071,13.696 -1.086,20.465 0.176,1.223 0.39,2.414 0.879,3.543 0.414,0.957 0.988,1.82 2.175,1.742 1.297,-0.086 1.719,-1.133 2.051,-2.183 0.696,-2.204 0.242,-4.434 -0.019,-6.618 -0.672,-5.562 -2.235,-10.937 -3.754,-16.312 -0.063,-0.219 -0.164,-0.426 -0.246,-0.637"
         style="fill:#d01e27;fill-opacity:1;fill-rule:nonzero;stroke:none"
         id="path32" /><path
         d="m 215.676,240.324 c 4.719,4.973 9.34,10.02 15.054,13.86 1.215,0.816 2.485,1.519 3.938,1.863 0.992,0.238 1.84,0.113 2.469,-0.719 0.613,-0.808 0.304,-1.687 -0.153,-2.375 -0.586,-0.887 -1.289,-1.762 -2.121,-2.41 -5.797,-4.508 -12.472,-7.383 -19.187,-10.219"
         style="fill:#d01e27;fill-opacity:1;fill-rule:nonzero;stroke:none"
         id="path34" /><path
         d="m 188.688,262.875 c 1.628,6.461 2.996,12.965 5.882,18.996 0.664,1.391 1.301,2.785 2.438,3.879 0.746,0.723 1.551,1.359 2.648,0.98 1.211,-0.417 1.153,-1.531 1.125,-2.523 -0.019,-0.758 -0.082,-1.559 -0.343,-2.262 -2.649,-7.129 -7.317,-13.015 -11.75,-19.07"
         style="fill:#d01e27;fill-opacity:1;fill-rule:nonzero;stroke:none"
         id="path36" /><path
         d="m 194.098,260.07 c 2.203,7.125 4.449,14.196 8.59,20.43 0.941,1.418 2.234,3.355 4.195,2.379 2.258,-1.121 1.055,-3.309 0.34,-4.879 -2.371,-5.219 -6.051,-9.57 -9.692,-13.93 -1.129,-1.347 -2.289,-2.668 -3.433,-4"
         style="fill:#d01e27;fill-opacity:1;fill-rule:nonzero;stroke:none"
         id="path38" /><path
         d="m 203.672,253.398 c 3.336,6.114 6.543,12.231 11.133,17.457 0.972,1.11 2.004,2.133 3.367,2.727 1.875,0.82 3.027,-0.004 2.867,-2.023 -0.133,-1.7 -1.137,-2.981 -2.141,-4.243 -4.343,-5.433 -9.812,-9.652 -15.226,-13.918"
         style="fill:#d01e27;fill-opacity:1;fill-rule:nonzero;stroke:none"
         id="path40" /><path
         d="m 154.082,269.832 c -1.715,4.512 -3.004,9.086 -3.758,13.793 -0.457,2.852 -1.144,5.711 -0.59,8.645 0.246,1.296 0.438,2.765 2.121,2.828 1.614,0.058 2.114,-1.368 2.536,-2.586 0.785,-2.27 0.824,-4.668 0.925,-7.032 0.227,-5.246 -0.562,-10.421 -1.234,-15.648"
         style="fill:#d01e27;fill-opacity:1;fill-rule:nonzero;stroke:none"
         id="path42" /><path
         d="m 131.195,263.129 c -3.957,5.273 -7.886,10.48 -10.66,16.434 -0.652,1.398 -1.219,2.812 -1.402,4.359 -0.129,1.043 -0.028,2.086 0.926,2.656 1.132,0.68 2.093,-0.012 2.851,-0.808 0.68,-0.719 1.34,-1.512 1.789,-2.387 3.297,-6.383 4.949,-13.305 6.496,-20.254"
         style="fill:#d01e27;fill-opacity:1;fill-rule:nonzero;stroke:none"
         id="path44" /><path
         d="m 95.9688,224.637 c -6.668,1.019 -13.375,1.859 -19.7227,4.304 -1.4492,0.559 -2.8594,1.172 -3.9766,2.27 -0.5976,0.586 -1.1523,1.32 -0.7773,2.25 0.3555,0.879 1.1133,1.227 2.0312,1.258 1.3125,0.047 2.5938,-0.039 3.8672,-0.449 6.711,-2.165 12.6172,-5.879 18.5782,-9.633"
         style="fill:#d01e27;fill-opacity:1;fill-rule:nonzero;stroke:none"
         id="path46" /><path
         d="m 111.934,249.754 c -6.34,3.851 -12.5317,7.793 -17.4027,13.391 -1.1407,1.308 -2.5821,3.109 -1.0391,4.671 1.543,1.559 3.3516,0.11 4.6836,-0.988 4.1992,-3.449 7.3012,-7.867 10.4292,-12.246 1.137,-1.59 2.219,-3.219 3.329,-4.828"
         style="fill:#d01e27;fill-opacity:1;fill-rule:nonzero;stroke:none"
         id="path48" /><path
         d="m 116.367,253.383 c -5.601,4.41 -11.207,8.781 -15.637,14.418 -0.9019,1.152 -1.73,2.363 -1.7964,3.902 -0.0742,1.793 0.9414,2.563 2.6294,1.981 1.109,-0.387 2.035,-1.098 2.824,-1.938 5.078,-5.406 8.468,-11.914 11.98,-18.363"
         style="fill:#d01e27;fill-opacity:1;fill-rule:nonzero;stroke:none"
         id="path50" /><path
         d="m 148.25,268.246 c -2.73,7.117 -5.887,14.086 -6.387,21.84 -0.035,0.531 0.043,1.074 0.086,1.609 0.09,1.168 0.551,2.176 1.77,2.399 1.152,0.211 1.793,-0.727 2.324,-1.574 1.309,-2.086 1.504,-4.504 1.828,-6.84 0.801,-5.774 0.59,-11.59 0.379,-17.434"
         style="fill:#d01e27;fill-opacity:1;fill-rule:nonzero;stroke:none"
         id="path52" /><path
         d="m 171.797,268.254 c -0.301,7.355 -0.449,14.676 1.187,21.891 0.2,0.882 0.586,1.757 1.067,2.527 0.519,0.836 1.203,1.742 2.394,1.387 1.071,-0.321 1.489,-1.25 1.61,-2.313 0.308,-2.719 -0.27,-5.332 -0.883,-7.957 -1.254,-5.363 -3.309,-10.437 -5.375,-15.535"
         style="fill:#d01e27;fill-opacity:1;fill-rule:nonzero;stroke:none"
         id="path54" /><path
         d="m 177.727,267.348 c 0.324,7.472 0.691,14.914 3.23,22.035 0.254,0.703 0.731,1.347 1.184,1.957 0.527,0.707 1.238,1.183 2.179,0.969 0.969,-0.223 1.356,-1.051 1.481,-1.871 0.148,-0.977 0.215,-2.024 0.015,-2.977 -1.496,-7.168 -4.765,-13.637 -8.089,-20.113"
         style="fill:#d01e27;fill-opacity:1;fill-rule:nonzero;stroke:none"
         id="path56" /><path
         d="m 136.828,265.035 c -3.457,5.781 -7.055,11.399 -9.344,17.695 -0.527,1.454 -0.953,2.926 -1.043,4.45 -0.066,1.09 0.243,2.215 1.43,2.64 1.125,0.407 1.895,-0.359 2.547,-1.121 1.273,-1.484 1.906,-3.289 2.539,-5.109 2.086,-6.031 2.898,-12.324 3.871,-18.555"
         style="fill:#d01e27;fill-opacity:1;fill-rule:nonzero;stroke:none"
         id="path58" /><path
         d="m 212.461,245.348 c 4.309,5.672 8.719,11.211 14.387,15.558 0.91,0.696 1.91,1.317 3.093,1.461 0.848,0.102 1.723,0.203 2.305,-0.633 0.563,-0.812 0.297,-1.609 -0.101,-2.394 -1.235,-2.426 -3.422,-3.902 -5.489,-5.496 -4.386,-3.379 -9.258,-5.949 -14.195,-8.496"
         style="fill:#d01e27;fill-opacity:1;fill-rule:nonzero;stroke:none"
         id="path60" /><path
         d="m 219.18,235.824 c 5.652,4.785 11.09,9.719 17.8,12.922 0.481,0.231 1.004,0.391 1.524,0.508 1.18,0.269 2.375,0.309 3.062,-0.891 0.657,-1.144 -0.097,-2.074 -0.793,-2.886 -1.796,-2.098 -4.308,-3.149 -6.691,-4.356 -4.375,-2.219 -9.031,-3.754 -13.621,-5.449 -0.363,-0.133 -0.723,-0.203 -1.281,0.152"
         style="fill:#d01e27;fill-opacity:1;fill-rule:nonzero;stroke:none"
         id="path62" /><path
         d="m 107.605,245.359 c -5.765,2.891 -11.3589,6.012 -16.3355,10.129 -1.375,1.133 -2.6992,2.278 -3.4765,3.938 -0.3828,0.816 -0.5469,1.621 0.0468,2.379 0.5508,0.707 1.3516,0.617 2.129,0.554 0.871,-0.074 1.6328,-0.453 2.332,-0.929 6.2461,-4.25 10.6952,-10.219 15.3042,-16.071"
         style="fill:#d01e27;fill-opacity:1;fill-rule:nonzero;stroke:none"
         id="path64" /><path
         d="m 100.203,235.5 c -6.9139,2.473 -13.8944,4.699 -19.9725,8.98 -0.3711,0.262 -0.7071,0.602 -1,0.954 -0.6953,0.839 -1.4258,1.769 -0.7774,2.894 0.6836,1.188 1.8867,1.192 3.0664,0.895 2.4258,-0.606 4.4844,-1.969 6.5508,-3.297 4.1445,-2.668 7.8164,-5.946 11.6133,-9.067 0.3324,-0.269 0.7734,-0.535 0.5194,-1.359"
         style="fill:#d01e27;fill-opacity:1;fill-rule:nonzero;stroke:none"
         id="path66" /><path
         d="m 142.344,266.805 c -3.36,6.953 -6.606,13.363 -8.074,20.449 -0.364,1.734 -1,4.336 1.441,4.934 2.148,0.523 2.949,-1.778 3.574,-3.485 1.66,-4.566 2.289,-9.359 2.668,-14.168 0.188,-2.359 0.781,-4.699 0.391,-7.73"
         style="fill:#d01e27;fill-opacity:1;fill-rule:nonzero;stroke:none"
         id="path68" /><path
         d="m 119.766,258.133 c -4.555,4.234 -8.93,8.629 -12.477,13.773 -0.875,1.262 -1.625,2.582 -1.988,4.106 -0.242,1.004 -0.078,1.824 0.734,2.461 0.82,0.632 1.649,0.234 2.367,-0.164 1.364,-0.758 2.399,-1.918 3.278,-3.18 3.554,-5.113 6.332,-10.649 8.66,-16.41 0.152,-0.535 -0.102,-0.672 -0.574,-0.586"
         style="fill:#d01e27;fill-opacity:1;fill-rule:nonzero;stroke:none"
         id="path70" /><path
         d="m 98.0195,230.535 c -2.7422,-0.183 -4.5937,0.781 -6.5429,1.246 -4.1875,0.996 -8.2461,2.36 -12.1407,4.203 -0.7617,0.364 -1.5859,0.657 -2.2382,1.164 -1.2891,1.008 -3.3204,1.993 -2.3438,3.942 0.9297,1.848 3.0703,1.183 4.582,0.664 5.8086,-1.981 10.7149,-5.606 15.7149,-9.031 0.8203,-0.559 1.6015,-1.176 2.9687,-2.188"
         style="fill:#d01e27;fill-opacity:1;fill-rule:nonzero;stroke:none"
         id="path72" /><path
         d="m 183.316,265.391 c 0.997,6.879 1.938,13.797 4.532,20.332 0.539,1.355 1.152,2.718 2.343,3.644 1.481,1.149 2.86,0.59 3.153,-1.273 0.254,-1.625 -0.02,-3.219 -0.571,-4.762 -2.285,-6.398 -5.8,-12.156 -9.457,-17.941"
         style="fill:#d01e27;fill-opacity:1;fill-rule:nonzero;stroke:none"
         id="path74" /><path
         d="m 199.535,257.824 c 2.637,6.489 5.336,12.879 9.68,18.395 0.375,0.476 0.816,0.922 1.281,1.312 1,0.836 2.09,1.875 3.434,0.907 1.3,-0.938 0.855,-2.411 0.39,-3.594 -1.195,-3.039 -3.394,-5.438 -5.453,-7.906 -2.789,-3.34 -5.941,-6.317 -9.332,-9.114"
         style="fill:#d01e27;fill-opacity:1;fill-rule:nonzero;stroke:none"
         id="path76" /><path
         d="m 104.461,240.465 c -6.879,2.855 -13.8047,5.562 -19.586,10.359 -1.2891,1.071 -3.25,2.465 -1.9258,4.332 1.3281,1.871 3.3828,0.719 4.9727,-0.176 3.2969,-1.855 6.164,-4.308 8.8906,-6.902 2.6055,-2.476 5.1015,-5.07 7.6485,-7.613"
         style="fill:#d01e27;fill-opacity:1;fill-rule:nonzero;stroke:none"
         id="path78" /><path
         d="m 88.9688,221.379 c -5.1094,0.109 -10.211,-0.762 -15.2657,0.305 -1.4258,0.304 -2.7929,0.89 -3.8672,1.925 -1.4257,1.371 -1.0468,2.957 0.8633,3.446 0.8711,0.218 1.8555,0.277 2.7344,0.121 5.5117,-0.985 10.6133,-3.11 15.5352,-5.797"
         style="fill:#d01e27;fill-opacity:1;fill-rule:nonzero;stroke:none"
         id="path80" /><path
         d="m 231.121,221.211 c 4.555,2.68 9.274,4.633 14.297,5.773 0.809,0.184 1.664,0.204 2.5,0.243 1.273,0.054 2.613,-0.055 3.023,-1.493 0.414,-1.468 -0.82,-2.211 -1.836,-2.863 -1.429,-0.918 -3.042,-1.586 -4.726,-1.625 -4.418,-0.105 -8.84,-0.035 -13.258,-0.035"
         style="fill:#d01e27;fill-opacity:1;fill-rule:nonzero;stroke:none"
         id="path82" /><path
         d="m 119.766,258.133 c 0.191,0.195 0.382,0.39 0.574,0.586 0.441,-0.5 0.824,-1.016 0.715,-1.774 -0.641,0.227 -1,0.668 -1.289,1.188"
         style="fill:#d01e27;fill-opacity:1;fill-rule:nonzero;stroke:none"
         id="path84" /></g></g></svg>
