<?xml version="1.0" encoding="UTF-8" standalone="no"?>
<svg
   xmlns:dc="http://purl.org/dc/elements/1.1/"
   xmlns:cc="http://creativecommons.org/ns#"
   xmlns:rdf="http://www.w3.org/1999/02/22-rdf-syntax-ns#"
   xmlns:svg="http://www.w3.org/2000/svg"
   xmlns="http://www.w3.org/2000/svg"
   version="1.1"
   id="svg2"
   xml:space="preserve"
   width="42.666668"
   height="42.666668"
   viewBox="0 0 42.666668 42.666668"><metadata
     id="metadata8"><rdf:RDF><cc:Work
         rdf:about=""><dc:format>image/svg+xml</dc:format><dc:type
           rdf:resource="http://purl.org/dc/dcmitype/StillImage" /></cc:Work></rdf:RDF></metadata><defs
     id="defs6" /><g
     id="g10"
     transform="matrix(1.3333333,0,0,-1.3333333,0,42.666667)"><g
       id="g12"
       transform="scale(0.1)"><path
         d="m 159.988,320.004 v -22.871 c 27.422,0 54.848,0 82.274,0 -24.063,14.512 -52.211,22.871 -82.274,22.871"
         style="fill:#cd1e25;fill-opacity:1;fill-rule:evenodd;stroke:none"
         id="path14" /><path
         d="m 28.7969,68.4688 c 87.4651,0 174.9301,0 262.4021,0 5.067,7.2421 9.559,14.9101 13.383,22.9609 -96.398,0 -192.789,0 -289.164,0 3.8242,-8.0508 8.3164,-15.7188 13.3789,-22.9609"
         style="fill:#cd1e25;fill-opacity:1;fill-rule:evenodd;stroke:none"
         id="path16" /><path
         d="m 77.6719,22.793 c 54.8871,0 109.7691,0 164.6561,0 10.738,6.4609 20.645,14.1523 29.551,22.8672 -74.594,0 -149.184,0 -223.7579,0 8.9062,-8.7149 18.8125,-16.4063 29.5508,-22.8672"
         style="fill:#cd1e25;fill-opacity:1;fill-rule:evenodd;stroke:none"
         id="path18" /><path
         d="m 1.65625,137.094 c 1.13672,-7.926 2.85547,-15.66 5.10938,-23.164 102.14037,-0.004 204.28937,-0.024 306.44937,-0.071 2.265,7.532 3.988,15.293 5.129,23.25 -105.563,0.004 -211.125,0.051 -316.68775,-0.015"
         style="fill:#cd1e25;fill-opacity:1;fill-rule:evenodd;stroke:none"
         id="path20" /><path
         d="m 159.988,205.145 c 51.168,0.003 102.344,0.058 153.508,0 -2.371,8.082 -5.344,15.902 -8.902,23.398 -48.203,0 -96.403,0 -144.606,0 v -23.398"
         style="fill:#cd1e25;fill-opacity:1;fill-rule:evenodd;stroke:none"
         id="path22" /><path
         d="m 159.988,250.852 c 43.903,-0.008 87.797,-0.004 131.7,-0.012 -5.84,8.449 -12.465,16.305 -19.782,23.469 -37.308,-0.008 -74.613,0 -111.918,0 v -23.457"
         style="fill:#cd1e25;fill-opacity:1;fill-rule:evenodd;stroke:none"
         id="path24" /><path
         d="m 318.348,182.867 c -52.785,0 -105.575,0.004 -158.36,0 v -23.32 h -0.312 v -0.067 c 53.437,0.004 106.879,0.051 160.312,0 0,0.172 0.012,0.344 0.012,0.516 0,7.77 -0.582,15.399 -1.652,22.871"
         style="fill:#cd1e25;fill-opacity:1;fill-rule:evenodd;stroke:none"
         id="path26" /><path
         d="m 28.8008,68.4688 c 5.7265,-8.1993 12.1953,-15.8321 19.3203,-22.8086 74.5819,0 149.1639,0 223.7579,0 7.129,6.9765 13.594,14.6093 19.32,22.8086 -87.469,0 -174.933,0 -262.3982,0"
         style="fill:#ffffff;fill-opacity:1;fill-rule:nonzero;stroke:none"
         id="path28" /><path
         d="m 6.76953,113.906 c 2.33203,-7.754 5.22267,-15.2654 8.64847,-22.4763 96.383,0 192.77,0 289.168,0 3.418,7.1992 6.305,14.6993 8.633,22.4413 -102.156,0.02 -204.301,0.027 -306.44947,0.035"
         style="fill:#ffffff;fill-opacity:1;fill-rule:nonzero;stroke:none"
         id="path30" /><path
         d="M 77.6719,22.793 C 101.727,8.32813 129.887,-0.00390625 160,-0.00390625 c 30.113,0 58.273,8.33203625 82.328,22.79690625 -54.887,0 -109.769,0 -164.6561,0"
         style="fill:#ffffff;fill-opacity:1;fill-rule:nonzero;stroke:none"
         id="path32" /><path
         d="m 0,160 c 0,-0.152 0.0117188,-0.301 0.0117188,-0.453 H 159.988 V 160 320.004 C 71.8555,320.004 0,248.113 0,160"
         style="fill:#24285a;fill-opacity:1;fill-rule:nonzero;stroke:none"
         id="path34" /><path
         d="m 0,160 c 0,-0.152 0.0117188,-0.301 0.0117188,-0.453 H 159.988 V 160 320.004 C 71.8555,320.004 0,248.113 0,160"
         style="fill:#212459;fill-opacity:1;fill-rule:nonzero;stroke:none"
         id="path36" /><path
         d="m 159.988,228.543 c 48.2,0 96.403,0 144.606,0 -3.707,7.805 -8.035,15.254 -12.906,22.301 -43.903,0 -87.801,0.004 -131.7,0.004 v -22.305"
         style="fill:#ffffff;fill-opacity:1;fill-rule:nonzero;stroke:none"
         id="path38" /><path
         d="m 159.988,182.867 c 52.785,0 105.575,0 158.36,0 -1.09,7.617 -2.727,15.051 -4.852,22.278 -51.168,0.003 -102.34,0.003 -153.508,0 v -22.278"
         style="fill:#ffffff;fill-opacity:1;fill-rule:nonzero;stroke:none"
         id="path40" /><path
         d="m 159.988,274.309 c 37.305,0 74.61,0 111.918,0 -8.883,8.695 -18.758,16.375 -29.465,22.824 -27.484,0 -54.968,0 -82.453,0 v -22.824"
         style="fill:#ffffff;fill-opacity:1;fill-rule:nonzero;stroke:none"
         id="path42" /><path
         d="m 110.996,159.48 v 0.067 H 0.015625 c 0.0234375,-7.621 0.589844,-15.113 1.640625,-22.449 105.56275,0.007 211.12475,0.015 316.68775,0.007 1.051,7.313 1.621,14.778 1.644,22.375 -69.664,0.004 -139.324,0.004 -208.992,0"
         style="fill:#ffffff;fill-opacity:1;fill-rule:nonzero;stroke:none"
         id="path44" /><path
         d="m 82.0547,272.258 c -21.5859,0 -39.1055,-17.461 -39.1055,-38.977 0,-21.515 17.5196,-38.976 39.1055,-38.976 7.8008,0 15.0664,2.281 21.1683,6.207 -3.5511,-1.227 -7.3675,-1.899 -11.3363,-1.899 -19.1445,0 -34.6797,15.485 -34.6797,34.563 0,19.078 15.5352,34.562 34.6797,34.562 4.2305,0 8.2813,-0.754 12.0313,-2.14 -6.2422,4.203 -13.7657,6.66 -21.8633,6.66 v 0"
         style="fill:#fbc907;fill-opacity:1;fill-rule:nonzero;stroke:none"
         id="path46" /><path
         d="m 146.91,212.988 -16.472,8.598 4.871,-17.594 -11.02,14.719 -3.437,-17.91 -3.379,17.918 -11.067,-14.68 4.926,17.574 -16.5,-8.547 12.258,13.754 -18.6681,-0.718 17.1601,7.203 -17.1367,7.254 18.6637,-0.774 -12.2106,13.789 16.4726,-8.597 -4.871,17.589 11.02,-14.711 3.433,17.907 3.383,-17.918 11.066,14.679 -4.929,-17.574 16.504,8.547 -12.258,-13.754 18.668,0.719 -17.164,-7.203 17.14,-7.254 -18.668,0.773 12.215,-13.789"
         style="fill:#fbc907;fill-opacity:1;fill-rule:nonzero;stroke:none"
         id="path48" /></g></g></svg>
