<?xml version="1.0" encoding="UTF-8" standalone="no"?>
<svg
   xmlns:dc="http://purl.org/dc/elements/1.1/"
   xmlns:cc="http://creativecommons.org/ns#"
   xmlns:rdf="http://www.w3.org/1999/02/22-rdf-syntax-ns#"
   xmlns:svg="http://www.w3.org/2000/svg"
   xmlns="http://www.w3.org/2000/svg"
   version="1.1"
   id="svg2"
   xml:space="preserve"
   width="42.666668"
   height="42.666668"
   viewBox="0 0 42.666668 42.666668"><metadata
     id="metadata8"><rdf:RDF><cc:Work
         rdf:about=""><dc:format>image/svg+xml</dc:format><dc:type
           rdf:resource="http://purl.org/dc/dcmitype/StillImage" /></cc:Work></rdf:RDF></metadata><defs
     id="defs6" /><g
     id="g10"
     transform="matrix(1.3333333,0,0,-1.3333333,0,42.666667)"><g
       id="g12"
       transform="scale(0.1)"><path
         d="M 26.6914,71.7188 C 71.1172,101.324 115.563,130.926 160.043,160.496 115.738,189.984 71.4336,219.492 27.1602,249.004 10.0273,223.516 0,192.898 0,159.992 0,127.406 9.84766,97.0313 26.6914,71.7188"
         style="fill:#d41b34;fill-opacity:1;fill-rule:nonzero;stroke:none"
         id="path14" /><path
         d="M 26.6914,71.7188 C 71.1172,101.324 115.563,130.926 160.043,160.496 115.738,189.984 71.4336,219.492 27.1602,249.004 10.0273,223.516 0,192.898 0,159.992 0,127.406 9.84766,97.0313 26.6914,71.7188"
         style="fill:#d41b34;fill-opacity:1;fill-rule:nonzero;stroke:none"
         id="path16" /><path
         d="m 159.996,320.004 c -55.398,0 -104.0116,-28.301 -132.6913,-71.094 15.6836,-10.457 31.3789,-20.902 47.0703,-31.355 h 234.844 c -23.133,59.89 -81.176,102.449 -149.223,102.449"
         style="fill:#256f66;fill-opacity:1;fill-rule:nonzero;stroke:none"
         id="path18" /><path
         d="M 70.8906,101.145 C 56.1797,91.3438 41.4492,81.5547 26.7422,71.7539 55.3633,28.5586 104.289,-0.00390625 159.996,-0.00390625 227.543,-0.00390625 285.219,41.9492 308.688,101.145 H 70.8906"
         style="fill:#f6e305;fill-opacity:1;fill-rule:evenodd;stroke:none"
         id="path20" /><path
         d="m 84.4805,110.188 c -4.5313,-3.016 -9.0586,-6.028 -13.5899,-9.043 H 308.688 c 1.183,2.972 2.285,5.988 3.292,9.043 H 84.4805"
         style="fill:#ffffff;fill-opacity:1;fill-rule:evenodd;stroke:none"
         id="path22" /><path
         d="M 87.957,208.512 H 312.43 c -0.977,3.058 -2.067,6.066 -3.219,9.043 H 74.375 c 4.5273,-3.016 9.0547,-6.028 13.582,-9.043"
         style="fill:#ffffff;fill-opacity:1;fill-rule:evenodd;stroke:none"
         id="path24" /><path
         d="M 312.488,208.512 H 87.957 c 24.027,-16.008 48.051,-32.02 72.086,-48.016 C 134.84,143.738 109.664,126.961 84.4805,110.188 H 312.047 c 5.141,15.675 7.953,32.414 7.953,49.804 0,16.922 -2.641,33.211 -7.512,48.52"
         style="fill:#100f0d;fill-opacity:1;fill-rule:evenodd;stroke:none"
         id="path26" /><path
         d="m 75.793,122.461 -24.6407,18.043 -24.6093,-18.047 9.5429,29.012 -24.7695,17.828 30.543,-0.113 9.3008,29.066 9.332,-29.082 30.5156,0.137 -24.7734,-17.864 9.5586,-28.98"
         style="fill:#f6e305;fill-opacity:1;fill-rule:nonzero;stroke:none"
         id="path28" /><path
         d="m 29.7617,142.691 h 17.7539 c 1.4297,-1.601 4.6133,-2.253 7.6485,0.02 5.5664,3.047 16.3281,-0.02 16.3281,-0.02 l 2.1211,2.254 -5.168,16.957 -1.8515,1.989 c 0,0 -3.9766,2.382 -11.5274,1.586 -7.5508,-0.793 -10.1992,0.265 -10.1992,0.265 0,0 -6.625,-0.793 -8.4805,-1.722 -0.2031,-0.165 -2.1172,-2.118 -2.1172,-2.118 l -4.5078,-19.211"
         style="fill:#ffffff;fill-opacity:1;fill-rule:nonzero;stroke:none"
         id="path30" /><path
         d="m 30.0273,142.902 h 17.4883 c 0.0586,0 0.1172,-0.023 0.1563,-0.07 0.7734,-0.867 2.0429,-1.383 3.3945,-1.383 v 0 c 1.3516,0 2.7227,0.496 3.9727,1.43 1.6914,0.93 3.9726,1.391 6.8007,1.391 4.3946,0 8.8008,-1.129 9.586,-1.34 l 1.9492,2.07 -5.1172,16.793 -1.7969,1.93 c -0.2929,0.164 -3.1836,1.707 -8.3789,1.707 -0.9726,0 -1.9765,-0.055 -2.9922,-0.16 -1.871,-0.2 -3.6054,-0.297 -5.1523,-0.297 -3.3242,0 -4.8047,0.453 -5.0977,0.554 -0.6093,-0.074 -6.5898,-0.828 -8.3359,-1.683 -0.1953,-0.172 -1.3008,-1.289 -2.043,-2.047 z m 21.0391,-1.875 v 0 c -1.4336,0 -2.7891,0.543 -3.6445,1.453 H 29.7617 c -0.0625,0 -0.125,0.032 -0.164,0.083 -0.0391,0.05 -0.0547,0.117 -0.0391,0.179 l 4.5039,19.207 c 0.0078,0.039 0.0273,0.074 0.0547,0.102 0.1953,0.199 1.9297,1.965 2.1367,2.133 0.0117,0.011 0.0274,0.019 0.0391,0.027 1.8672,0.93 8.2773,1.711 8.5468,1.742 0.0352,0.004 0.0704,0 0.1016,-0.015 0.0156,-0.004 1.4258,-0.543 4.9961,-0.543 1.5313,0 3.25,0.097 5.1055,0.293 1.0312,0.109 2.0547,0.164 3.039,0.164 5.586,0 8.4961,-1.711 8.6172,-1.782 0.0196,-0.011 0.0313,-0.023 0.0469,-0.039 l 1.8555,-1.984 c 0.0195,-0.024 0.0351,-0.055 0.0468,-0.082 l 5.168,-16.957 c 0.0195,-0.074 0.0039,-0.153 -0.0508,-0.207 l -2.1172,-2.254 c -0.0546,-0.055 -0.1367,-0.078 -0.2109,-0.059 -0.0508,0.016 -4.8359,1.364 -9.5977,1.364 -2.7578,0 -4.9687,-0.446 -6.5742,-1.325 -1.2968,-0.976 -2.7578,-1.5 -4.1992,-1.5"
         style="fill:#100f0d;fill-opacity:1;fill-rule:nonzero;stroke:none"
         id="path32" /><path
         d="m 47.6875,142.602 c 2.3398,-1.637 4.5781,-1.594 7.207,0.14 -0.8515,1.051 -2.0468,1.863 -3.4375,2.488 -2.2343,-1.074 -3.4062,-2.226 -3.7695,-2.628 z m 3.3945,-1.61 c -1.2968,0 -2.5586,0.469 -3.8242,1.399 -0.0859,0.062 -0.1133,0.183 -0.0547,0.277 0.3321,0.555 1.5313,1.715 3.7149,2.793 -6.7344,2.695 -17.418,1.41 -17.5508,1.394 -0.1172,-0.015 -0.2227,0.067 -0.2344,0.184 -0.0156,0.113 0.0664,0.219 0.1797,0.234 0.5664,0.071 11.3945,1.372 18.1328,-1.562 3.3516,1.519 8.7383,2.762 16.5,1.695 0.1172,-0.015 0.1953,-0.125 0.1797,-0.238 -0.0156,-0.117 -0.1211,-0.195 -0.2383,-0.18 -7.6211,1.047 -12.7265,-0.113 -15.914,-1.519 1.3789,-0.672 2.5546,-1.535 3.3945,-2.649 0.0351,-0.047 0.0508,-0.105 0.0391,-0.16 -0.0079,-0.058 -0.0391,-0.109 -0.0899,-0.14 -1.4844,-1.016 -2.8789,-1.528 -4.2344,-1.528"
         style="fill:#100f0d;fill-opacity:1;fill-rule:nonzero;stroke:none"
         id="path34" /><path
         d="m 69.9766,148.965 -3.1797,14.836 c -0.0235,0.113 -0.1367,0.183 -0.25,0.164 -0.1133,-0.027 -0.1836,-0.141 -0.1602,-0.25 l 3.1797,-14.84 c 0.0195,-0.098 0.1094,-0.164 0.2031,-0.164 0.0157,0 0.0313,0 0.0469,0.004 0.1133,0.023 0.1836,0.133 0.1602,0.25"
         style="fill:#100f0d;fill-opacity:1;fill-rule:nonzero;stroke:none"
         id="path36" /><path
         d="m 36.6094,164.195 c -0.1133,0.028 -0.2266,-0.047 -0.2539,-0.16 l -1.7617,-7.648 c -0.0274,-0.114 0.0429,-0.227 0.1562,-0.254 0.0156,-0.004 0.0313,-0.004 0.0469,-0.004 0.0976,0 0.1836,0.062 0.207,0.16 l 1.7617,7.652 c 0.0274,0.114 -0.0429,0.227 -0.1562,0.254"
         style="fill:#100f0d;fill-opacity:1;fill-rule:nonzero;stroke:none"
         id="path38" /><path
         d="m 51.4922,164.23 h -0.0039 c -0.1133,0 -0.207,-0.089 -0.211,-0.207 l -0.1289,-18.679 c -0.0039,-0.117 0.0899,-0.211 0.2071,-0.211 v 0 c 0.1172,0 0.2109,0.09 0.2109,0.207 l 0.1328,18.68 c 0,0.117 -0.0937,0.21 -0.207,0.21"
         style="fill:#100f0d;fill-opacity:1;fill-rule:nonzero;stroke:none"
         id="path40" /><path
         d="m 52.8164,168.887 1.6602,1.492 c 0.0312,0.027 0.0547,0.066 0.0625,0.109 l 0.0234,0.11 0.2539,-0.508 c -0.6992,-0.61 -1.4414,-1.242 -1.7617,-1.488 -0.0586,0.078 -0.1367,0.171 -0.2383,0.285 z m 4.5742,0.683 2.6797,2.332 c 0.6719,-0.254 1.1797,-0.675 1.6367,-1.359 0.0352,-0.051 0.086,-0.082 0.1446,-0.094 0.0625,-0.008 0.1211,0.012 0.1679,0.051 l 7.6953,6.52 c 0.2149,-0.133 0.5274,-0.223 0.8086,-0.223 0.2032,0 0.3868,0.043 0.543,0.129 0.0156,0.008 0.0313,0.019 0.043,0.031 l 12.9375,12.418 c 0.0781,0.074 0.0859,0.199 0.0156,0.285 -0.0703,0.086 -0.1953,0.102 -0.2852,0.039 l -13.9726,-9.871 -0.2695,0.203 c 0.0117,0.047 0.039,0.094 0.0703,0.149 0.1523,0.281 0.2578,0.574 -0.1367,1.133 -0.1836,0.218 -0.3868,0.261 -0.5235,0.261 -0.4297,0 -0.8203,-0.414 -1.0742,-0.687 -0.0391,-0.039 -0.0703,-0.074 -0.0938,-0.102 -0.3789,0.11 -1.8867,0.711 -2.2265,1.403 -0.043,0.085 -0.1367,0.132 -0.2305,0.113 -0.0937,-0.02 -0.164,-0.098 -0.168,-0.196 l -0.1328,-2.191 -3.4648,-3.226 -2.6328,0.121 c -0.0586,0.004 -0.1133,-0.02 -0.1563,-0.059 l -3.9609,-3.836 c -0.0234,-0.023 -0.043,-0.055 -0.0508,-0.086 l -0.2305,-0.695 -0.3671,0.57 c -0.0313,0.051 -0.0821,0.082 -0.1368,0.094 -0.0586,0.012 -0.1172,-0.004 -0.164,-0.035 -0.0547,-0.043 -0.1836,-0.168 -0.5352,-0.516 -0.4765,-0.473 -1.5586,-1.539 -1.8711,-1.738 -0.6875,0.777 -5.8437,6.605 -6.5351,7.383 l 0.3437,1.25 c 0.0156,0.07 0,0.144 -0.0508,0.199 L 41,183.918 c -0.0234,0.027 -0.0508,0.047 -0.0859,0.059 -0.5469,0.187 -1.1016,0.285 -1.6055,0.285 -1.2031,0 -2.7227,-0.543 -3.1211,-3.137 -0.0547,-0.078 -0.2734,-0.246 -1.0898,-0.246 -1,0 -2.2383,0.254 -2.2539,0.258 -0.0274,0.004 -0.0547,0.004 -0.086,0 l -1.7305,-0.371 c -0.0546,-0.012 -0.0976,-0.043 -0.1289,-0.086 l -9.7773,-13.86 c -0.0547,-0.078 -0.0508,-0.183 0.0117,-0.254 l 5.4453,-6.558 c 0.0391,-0.051 0.1055,-0.074 0.1641,-0.078 0.0625,0 0.1211,0.031 0.1641,0.082 l 11.1367,14.105 c 0.0234,0.031 0.039,0.071 0.0429,0.113 l 0.2891,3.508 2.0117,-2.246 c 0.0352,-0.039 0.0781,-0.062 0.1289,-0.07 0.3282,-0.043 0.5977,-0.063 0.8477,-0.063 0.5078,0 0.9531,0.086 1.3555,0.262 l 6.3593,-7.098 -0.9531,-0.929 c -0.082,-0.078 -0.0859,-0.207 -0.0117,-0.293 0.1875,-0.207 0.3437,-0.379 0.5039,-0.547 0.1562,-0.168 0.3125,-0.336 0.4961,-0.539 0.0703,-0.078 0.1836,-0.094 0.2734,-0.035 0.1875,0.125 0.375,0.261 0.5586,0.402 0.1211,0.094 0.2461,0.184 0.3711,0.273 0.0313,-0.046 0.0664,-0.097 0.1016,-0.148 0.0312,-0.047 0.0664,-0.094 0.0976,-0.141 -0.207,-0.125 -0.3906,-0.261 -0.5703,-0.398 -0.1992,-0.148 -0.3945,-0.293 -0.6094,-0.422 -0.8125,0.543 -1.5312,1.188 -1.4726,2.18 0.0039,0.082 -0.043,0.16 -0.1172,0.199 -0.0742,0.039 -0.1641,0.027 -0.2305,-0.027 l -3.7109,-3.094 c -0.0352,-0.031 -0.0625,-0.07 -0.0703,-0.121 l -0.1094,-0.543 -10.9102,-9.07 -0.9296,-0.118 c -0.0977,-0.011 -0.1719,-0.089 -0.1836,-0.191 l -0.2461,-2.844 c -0.0078,-0.086 0.0351,-0.168 0.1133,-0.207 0.0742,-0.039 0.164,-0.027 0.2304,0.028 l 7.1758,5.937 c 0.0508,0.039 0.0781,0.102 0.0781,0.16 v 0.418 l 0.3985,-0.332 c 0.0742,-0.062 0.1875,-0.062 0.2656,0 l 5.3945,4.313 c 0.0235,-0.036 0.0469,-0.071 0.0625,-0.102 -0.375,-0.289 -1.4531,-1.238 -4.8672,-4.387 -0.0273,-0.027 -0.0507,-0.062 -0.0586,-0.105 l -0.1093,-0.43 -0.6875,-0.59 -0.3594,0.274 c -0.0781,0.058 -0.1914,0.054 -0.2656,-0.012 l -6.6211,-5.887 h -0.9102 c -0.0586,0 -0.1094,-0.023 -0.1484,-0.062 l -3.6602,-3.656 c -0.9804,-0.09 -1.8047,-0.211 -2.6445,-0.789 l -6.6484,-5.872 C 18.0078,140.742 18,140.609 18.0742,140.523 l 4.1758,-4.894 c 0.0117,-0.02 0.0313,-0.035 0.0508,-0.047 0.2734,-0.16 0.5351,-0.242 0.7969,-0.242 v 0 c 0.2656,0 0.5234,0.082 0.7851,0.246 0.0195,0.012 0.0352,0.027 0.0469,0.043 l 6.1914,7.426 2.5937,3.215 c 0.4649,0.55 0.5625,1.121 0.5508,1.531 l 4.8242,4.289 c 0.1602,-0.016 0.293,-0.031 0.4297,-0.043 0.1641,-0.02 0.3321,-0.039 0.5391,-0.055 0.0078,0 0.0117,0 0.0195,0 0.1211,-0.004 0.211,0.094 0.211,0.211 0,0.106 -0.0782,0.195 -0.1836,0.207 -0.3399,0.094 -0.4141,0.199 -0.4297,0.242 -0.0235,0.063 0.0117,0.164 0.0976,0.289 l 0.9219,0.715 0.6367,-0.816 c -0.4765,-0.613 -0.9961,-1.25 -1.1562,-1.399 H 37.875 c -0.0508,0 -0.1016,-0.019 -0.1406,-0.054 l -2.5977,-2.352 c -0.0429,-0.039 -0.0703,-0.097 -0.0703,-0.156 0,-0.059 0.0274,-0.117 0.0703,-0.156 l 1.0977,-0.969 1.6914,-4.637 c 0.0234,-0.062 0.0742,-0.109 0.1367,-0.129 0.0625,-0.019 0.1289,-0.008 0.1836,0.028 l 2.1016,1.484 c 0.0742,0.055 0.1054,0.145 0.082,0.23 l -1.3281,4.711 2.8906,3.133 c 0.0625,0.071 0.0742,0.176 0.0195,0.254 l -1.0351,1.613 0.5429,0.719 c 1.1953,-0.738 8.2422,-4.965 12.543,-4.965 0.6523,0 1.2188,0.098 1.6875,0.293 0.2188,0.02 0.2734,0.285 0.4023,4.821 0.004,0.109 -0.0781,0.203 -0.1875,0.214 -4.0507,0.426 -10.5351,1.622 -10.7031,3.036 -0.0547,0.484 0.0508,0.902 0.3203,1.238 0.6055,0.75 1.8321,0.875 1.8438,0.879 0.0742,0.004 0.1367,0.051 0.168,0.121 0.0312,0.066 0.0273,0.144 -0.0157,0.207 l -1.0586,1.527 0.1094,0.375 1.6016,-2.027 c 0.0351,-0.047 0.0859,-0.074 0.1445,-0.082 0.0547,-0.004 0.1133,0.012 0.1563,0.051 l 4.0507,3.453 24.6094,-28.059 c 0.0586,-0.066 0.1563,-0.09 0.2383,-0.054 1.4531,0.589 1.7656,0.996 1.8633,2.406 0.0039,0.058 -0.0157,0.117 -0.0547,0.16 -0.1719,0.191 -22.25,25.539 -24.125,27.691 l 1.7305,1.848 c 0.3593,0.406 0.5312,0.625 0.5468,1.277"
         style="fill:#100f0d;fill-opacity:1;fill-rule:nonzero;stroke:none"
         id="path42" /></g></g></svg>
