<?xml version="1.0" encoding="UTF-8" standalone="no"?>
<svg
   xmlns:dc="http://purl.org/dc/elements/1.1/"
   xmlns:cc="http://creativecommons.org/ns#"
   xmlns:rdf="http://www.w3.org/1999/02/22-rdf-syntax-ns#"
   xmlns:svg="http://www.w3.org/2000/svg"
   xmlns="http://www.w3.org/2000/svg"
   version="1.1"
   id="svg2"
   xml:space="preserve"
   width="42.666668"
   height="42.666668"
   viewBox="0 0 42.666668 42.666668"><metadata
     id="metadata8"><rdf:RDF><cc:Work
         rdf:about=""><dc:format>image/svg+xml</dc:format><dc:type
           rdf:resource="http://purl.org/dc/dcmitype/StillImage" /></cc:Work></rdf:RDF></metadata><defs
     id="defs6"><radialGradient
       fx="0"
       fy="0"
       cx="0"
       cy="0"
       r="1"
       gradientUnits="userSpaceOnUse"
       gradientTransform="matrix(22.6221,0,0,-22.6221,48.822,48.829)"
       spreadMethod="pad"
       id="radialGradient20"><stop
         style="stop-opacity:1;stop-color:#3b3b3c"
         offset="0"
         id="stop16" /><stop
         style="stop-opacity:1;stop-color:#201d1c"
         offset="1"
         id="stop18" /></radialGradient></defs><g
     id="g10"
     transform="matrix(1.3333333,0,0,-1.3333333,0,42.666667)"><g
       id="g12"
       transform="scale(0.1)"><path
         d="M 27.8867,69.75 C 39.1094,53.3516 53.3438,39.1328 69.7578,27.9063 L 292.113,250.242 c -11.226,16.418 -25.453,30.625 -41.875,41.86 L 27.8867,69.75"
         style="fill:#d41b34;fill-opacity:1;fill-rule:evenodd;stroke:none"
         id="path14" /><path
         d="M 27.9063,69.7305 C 39.1289,53.332 53.3438,39.1328 69.7383,27.9297 53.3438,39.1328 39.1289,53.332 27.9063,69.7305"
         style="fill:url(#radialGradient20);fill-opacity:1;fill-rule:evenodd;stroke:none"
         id="path22" /><path
         d="M 27.8867,69.75 250.238,292.102 c -4.218,2.906 -8.621,5.601 -13.14,8.089 L 19.7656,82.9063 c 2.5196,-4.5274 5.2032,-8.8985 8.1211,-13.1563"
         style="fill:#ffffff;fill-opacity:1;fill-rule:evenodd;stroke:none"
         id="path24" /><path
         d="m 237.031,300.125 c -22.855,12.602 -49.09,19.859 -77.035,19.859 C 71.6172,319.984 0,248.371 0,159.988 0,132.063 7.24219,105.848 19.8438,82.9844 L 237.031,300.125"
         style="fill:#273a7c;fill-opacity:1;fill-rule:evenodd;stroke:none"
         id="path26" /><path
         d="M 82.8984,19.7969 300.199,237.098 c -2.461,4.515 -5.179,8.914 -8.086,13.144 L 69.7578,27.9063 c 4.2383,-2.8946 8.6133,-5.6211 13.1406,-8.1094"
         style="fill:#ffffff;fill-opacity:1;fill-rule:evenodd;stroke:none"
         id="path28" /><path
         d="M 300.109,237.008 82.9727,19.875 C 105.824,7.27344 132.059,0.015625 159.996,0.015625 248.352,0.015625 320,71.6523 320,159.988 c 0,27.961 -7.281,54.164 -19.891,77.02"
         style="fill:#2a9840;fill-opacity:1;fill-rule:nonzero;stroke:none"
         id="path30" /><path
         d="m 76.4688,249.684 c 2.039,5.293 3.9296,10.656 5.9765,15.949 2.0235,-5.293 3.918,-10.656 5.9258,-15.949 -3.8828,0.996 -7.9922,0.996 -11.9023,0"
         style="fill:#facc07;fill-opacity:1;fill-rule:nonzero;stroke:none"
         id="path32" /><path
         d="m 63.3555,260.547 c 4.3515,-3.609 8.7343,-7.25 13.1133,-10.863 -3.8438,-1.094 -7.4141,-3.137 -10.2422,-5.95 -0.9922,5.602 -1.9297,11.211 -2.8711,16.813"
         style="fill:#facc07;fill-opacity:1;fill-rule:nonzero;stroke:none"
         id="path34" /><path
         d="m 88.3711,249.684 c 4.4062,3.613 8.7695,7.254 13.1489,10.863 -0.922,-5.602 -1.9106,-11.211 -2.8911,-16.813 -2.8164,2.813 -6.3828,4.856 -10.2578,5.95"
         style="fill:#facc07;fill-opacity:1;fill-rule:nonzero;stroke:none"
         id="path36" /><path
         d="m 49.3789,246.59 c 5.6172,-0.926 11.2383,-1.922 16.8281,-2.887 -2.8125,-2.828 -4.8281,-6.387 -5.9531,-10.25 -3.5937,4.399 -7.2891,8.746 -10.875,13.137"
         style="fill:#facc07;fill-opacity:1;fill-rule:nonzero;stroke:none"
         id="path38" /><path
         d="m 79.4336,246.391 c 5.9258,0.964 12.25,-1.075 16.4531,-5.336 4.1483,-4.059 6.2463,-10.071 5.4723,-15.852 -0.625,-5.976 -4.3707,-11.512 -9.6754,-14.394 -5.0039,-2.817 -11.3555,-3.168 -16.6719,-0.887 -4.8476,2.019 -8.7851,6.148 -10.5586,11.094 -2.0078,5.492 -1.3125,11.929 1.9102,16.836 2.9101,4.519 7.7773,7.742 13.0703,8.539"
         style="fill:#facc07;fill-opacity:1;fill-rule:nonzero;stroke:none"
         id="path40" /><path
         d="m 98.6641,243.703 c 5.5939,0.965 11.1879,1.961 16.8009,2.887 -3.594,-4.391 -7.25,-8.738 -10.871,-13.137 -1.078,3.863 -3.114,7.422 -5.9299,10.25"
         style="fill:#facc07;fill-opacity:1;fill-rule:nonzero;stroke:none"
         id="path42" /><path
         d="m 44.2539,227.512 c 5.3477,1.98 10.6719,3.961 16,5.914 -0.9883,-3.852 -0.9375,-7.992 0,-11.824 -5.3281,1.98 -10.6523,3.902 -16,5.91"
         style="fill:#facc07;fill-opacity:1;fill-rule:nonzero;stroke:none"
         id="path44" /><path
         d="m 104.594,233.426 c 5.347,-1.953 10.672,-3.934 16,-5.914 -5.328,-2.008 -10.653,-3.93 -16,-5.91 1.019,3.832 0.992,7.972 0,11.824"
         style="fill:#facc07;fill-opacity:1;fill-rule:nonzero;stroke:none"
         id="path46" /><path
         d="m 49.3789,208.438 c 3.6367,4.39 7.2305,8.765 10.9258,13.125 1.0742,-3.852 3.1094,-7.434 5.9023,-10.25 -5.5898,-0.954 -11.2109,-1.958 -16.8281,-2.875"
         style="fill:#facc07;fill-opacity:1;fill-rule:nonzero;stroke:none"
         id="path48" /><path
         d="m 104.57,221.563 c 3.672,-4.36 7.301,-8.735 10.895,-13.125 -5.613,0.917 -11.207,1.921 -16.8009,2.875 2.7849,2.816 4.8519,6.398 5.9059,10.25"
         style="fill:#facc07;fill-opacity:1;fill-rule:nonzero;stroke:none"
         id="path50" /><path
         d="m 66.2266,211.285 c 2.8281,-2.777 6.3828,-4.836 10.1992,-5.902 -4.3086,-3.68 -8.7188,-7.274 -13.0703,-10.895 0.9414,5.602 1.8789,11.196 2.8711,16.797"
         style="fill:#facc07;fill-opacity:1;fill-rule:nonzero;stroke:none"
         id="path52" /><path
         d="m 88.418,205.383 c 3.8476,1.066 7.3945,3.125 10.2109,5.902 0.9492,-5.601 1.9691,-11.195 2.8911,-16.797 -4.3794,3.621 -8.7817,7.215 -13.102,10.895"
         style="fill:#facc07;fill-opacity:1;fill-rule:nonzero;stroke:none"
         id="path54" /><path
         d="m 76.4688,205.383 c 3.9101,-1.035 8.0195,-1.035 11.9023,0 -2.0078,-5.332 -3.9023,-10.707 -5.9258,-16 -2.0469,5.293 -3.9375,10.668 -5.9765,16"
         style="fill:#facc07;fill-opacity:1;fill-rule:nonzero;stroke:none"
         id="path56" /></g></g></svg>
