<?xml version="1.0" encoding="UTF-8" standalone="no"?>
<svg
   xmlns:dc="http://purl.org/dc/elements/1.1/"
   xmlns:cc="http://creativecommons.org/ns#"
   xmlns:rdf="http://www.w3.org/1999/02/22-rdf-syntax-ns#"
   xmlns:svg="http://www.w3.org/2000/svg"
   xmlns="http://www.w3.org/2000/svg"
   version="1.1"
   id="svg2"
   xml:space="preserve"
   width="42.666668"
   height="42.666668"
   viewBox="0 0 42.666668 42.666668"><metadata
     id="metadata8"><rdf:RDF><cc:Work
         rdf:about=""><dc:format>image/svg+xml</dc:format><dc:type
           rdf:resource="http://purl.org/dc/dcmitype/StillImage" /></cc:Work></rdf:RDF></metadata><defs
     id="defs6" /><g
     id="g10"
     transform="matrix(1.3333333,0,0,-1.3333333,0,42.666667)"><g
       id="g12"
       transform="scale(0.1)"><path
         d="M 310.52,214.352 H 9.48438 C 3.34375,197.375 0,179.086 0,159.996 0,140.922 3.34375,122.621 9.48438,105.66 H 310.52 c 6.136,16.961 9.48,35.262 9.48,54.336 0,19.09 -3.344,37.379 -9.48,54.356"
         style="fill:#ffffff;fill-opacity:1;fill-rule:evenodd;stroke:none"
         id="path14" /><path
         d="M 9.48438,214.352 H 310.52 c -22.262,61.597 -81.25,105.66 -150.516,105.66 -69.2852,0 -128.2813,-44.063 -150.51962,-105.66"
         style="fill:#e0441f;fill-opacity:1;fill-rule:evenodd;stroke:none"
         id="path16" /><path
         d="M 310.52,105.66 H 9.48438 C 31.7227,44.0664 90.7188,-0.00390625 160.004,-0.00390625 229.27,-0.00390625 288.258,44.0664 310.52,105.66"
         style="fill:#34b540;fill-opacity:1;fill-rule:evenodd;stroke:none"
         id="path18" /><path
         d="m 201.898,159.996 c 0,-23.125 -18.75,-41.894 -41.894,-41.894 -23.145,0 -41.902,18.769 -41.902,41.894 0,23.152 18.757,41.899 41.902,41.899 23.144,0 41.894,-18.747 41.894,-41.899"
         style="fill:#e0441f;fill-opacity:1;fill-rule:evenodd;stroke:none"
         id="path20" /></g></g></svg>
