<?xml version="1.0" encoding="UTF-8" standalone="no"?>
<svg
   xmlns:dc="http://purl.org/dc/elements/1.1/"
   xmlns:cc="http://creativecommons.org/ns#"
   xmlns:rdf="http://www.w3.org/1999/02/22-rdf-syntax-ns#"
   xmlns:svg="http://www.w3.org/2000/svg"
   xmlns="http://www.w3.org/2000/svg"
   version="1.1"
   id="svg2"
   xml:space="preserve"
   width="42.666668"
   height="42.666668"
   viewBox="0 0 42.666668 42.666668"><metadata
     id="metadata8"><rdf:RDF><cc:Work
         rdf:about=""><dc:format>image/svg+xml</dc:format><dc:type
           rdf:resource="http://purl.org/dc/dcmitype/StillImage" /></cc:Work></rdf:RDF></metadata><defs
     id="defs6" /><g
     id="g10"
     transform="matrix(1.3333333,0,0,-1.3333333,0,42.666667)"><g
       id="g12"
       transform="scale(0.1)"><path
         d="M 214.363,9.35156 V 310.309 c -16.984,6.136 -35.265,9.476 -54.359,9.476 -19.07,0 -37.359,-3.34 -54.336,-9.476 V 9.35156 c 16.977,-6.10937 35.266,-9.4492163 54.336,-9.4492163 19.094,0 37.375,3.3398463 54.359,9.4492163"
         style="fill:#ffffff;fill-opacity:1;fill-rule:evenodd;stroke:none"
         id="path14" /><path
         d="M 214.363,310.309 V 9.38281 C 275.953,31.6211 320,90.6055 320,159.836 c 0,69.246 -44.047,128.238 -105.637,150.473"
         style="fill:#237838;fill-opacity:1;fill-rule:evenodd;stroke:none"
         id="path16" /><path
         d="M 105.668,9.38281 V 310.309 C 44.0508,288.074 0,229.082 0,159.836 0,90.6055 44.0508,31.6211 105.668,9.38281"
         style="fill:#237838;fill-opacity:1;fill-rule:nonzero;stroke:none"
         id="path18" /><path
         d="m 166.184,119.742 c 1.629,0.008 3.597,-0.371 3.886,-0.922 0.051,-0.109 0.035,-0.234 -0.066,-0.359 -0.809,-0.973 -5.395,-0.09 -5.395,-0.09 v 1.184 c 0.407,0.117 0.969,0.183 1.575,0.187 z m -27.844,0.219 c 1.461,0.086 3.098,-0.809 3.281,-0.898 h 0.012 c 0,-0.051 -0.055,-1.622 -0.055,-1.622 0,0 -2.894,0.801 -3.808,2.418 0.179,0.051 0.378,0.09 0.57,0.102 z m 16.48,0.828 c 1.602,0.078 3.336,-0.555 3.336,-0.555 0.043,-0.082 0.86,-1.687 0.133,-2.222 -0.027,-0.02 -0.059,-0.039 -0.09,-0.055 -0.89,-0.465 -5.152,0.363 -5.402,2.066 0.5,0.528 1.242,0.731 2.023,0.766 z m 14.774,4.371 c 0.703,0.035 1.004,-0.18 0.453,-0.953 -1.527,-2.152 -5.484,-1.269 -5.484,-1.269 l -0.165,1.335 c 1.395,-0.054 3.946,0.821 5.196,0.887 z m -19.649,0.832 c 0.914,0.043 1.715,-0.551 2.551,-1.031 1.871,0.383 5.703,-0.293 5.703,-0.293 v -1.688 c 0,0 -0.008,-0.007 -0.008,-0.011 0,0 -0.011,0.004 -0.011,0 -0.352,-0.059 -4.844,0.136 -5.848,0.765 -0.816,0 -3.137,1.219 -3.312,1.84 0,0.004 -0.012,0.02 -0.012,0.02 0,0.011 0,0.027 0,0.027 0,0.016 0,0.027 0,0.027 0,0.008 0,0.02 0,0.02 v 0.016 c 0,0.004 0.012,0.019 0.012,0.019 v 0.016 c 0.32,0.168 0.632,0.258 0.925,0.273 z m 17.524,3.336 c 0.324,0.016 0.59,-0.015 0.738,-0.109 0.02,-0.008 0.043,-0.028 0.055,-0.043 0.008,-0.004 0.019,-0.016 0.019,-0.016 0.008,-0.012 0.02,-0.031 0.028,-0.039 0.004,-0.008 0.007,-0.023 0.007,-0.031 0.028,-0.082 0.02,-0.195 -0.054,-0.328 -0.676,-1.27 -3.653,-0.801 -3.653,-0.801 v 0.887 h 0.008 c 0.168,-0.012 1.809,0.437 2.852,0.48 z m 9.281,4.688 c 0.172,0.007 0.328,-0.028 0.441,-0.098 0.047,-0.031 0.09,-0.074 0.122,-0.121 0.042,-0.067 0.07,-0.16 0.078,-0.266 -0.453,-0.691 -2.793,-0.39 -2.942,-0.371 0.117,0.043 1.469,0.824 2.301,0.856 z m -24.824,0.285 c 0.019,0 0.043,0 0.066,0 4.332,-0.465 5.949,-2.078 6.406,-2.727 -0.863,-1.508 -7.71,1.871 -6.992,2.594 0.082,0.074 0.254,0.125 0.52,0.133 z m 25.64,5.777 c 0.844,0.012 1.493,-0.113 1.86,-0.383 h 0.012 v -0.007 -0.012 c 0,0 0,-0.02 0,-0.024 -0.036,-0.261 -0.575,-1.492 -2.465,-2.023 -2.36,0.207 -12.375,-2.734 -12.575,-2.781 h -0.011 c 0,0 0,0.015 0,0.019 -0.004,0.192 0.133,1.207 0.133,1.207 3.453,2.051 9.726,3.977 13.046,4.004 z m -4.031,1.5 c 0.231,0.008 0.367,-0.031 0.387,-0.098 0,0 0,-0.015 0,-0.019 -0.012,-0.059 -0.078,-0.145 -0.219,-0.242 -1.914,-1.352 -9.094,-2.739 -9.094,-2.739 0,0 0.086,0.946 0.129,1.172 0.203,0.004 7.078,1.883 8.797,1.926 z m -4.789,1.961 c 0.734,0.027 1.305,-0.016 1.477,-0.187 0.011,-0.008 0.027,-0.032 0.035,-0.043 0.004,-0.008 0.008,-0.024 0.008,-0.032 0.004,-0.007 0,-0.023 0,-0.023 0,-0.024 0.004,-0.051 0,-0.066 -0.008,-0.032 -0.032,-0.071 -0.055,-0.11 -0.984,-0.961 -5.77,-1.105 -5.77,-1.105 v 1.195 c 0.899,0.027 2.899,0.316 4.305,0.371 z m 7.445,6.809 c 0.731,0.027 1.047,-0.094 1.145,-0.262 0.008,-0.016 0.016,-0.039 0.019,-0.055 0.008,-0.027 0.016,-0.07 0.012,-0.097 -0.023,-0.219 -0.258,-0.481 -0.441,-0.649 -0.723,-0.676 -12.231,-4.301 -12.231,-4.301 0,0 -0.086,2.407 -0.043,2.618 6.731,2.027 10.02,2.687 11.539,2.746 z m -5.89,1.773 c 0.578,0.016 0.992,-0.051 1.078,-0.219 0.051,-0.113 -0.047,-0.281 -0.32,-0.504 -2.121,-1.73 -6.746,-2.07 -6.746,-2.07 v 1.906 h 0.007 c 0.266,0.032 4.063,0.84 5.981,0.887 z m -6,3.371 c 0.176,-0.039 2.656,-0.121 3.113,-0.504 0.004,0 0.012,-0.008 0.012,-0.008 0.004,-0.003 0.008,-0.011 0.008,-0.011 0.004,-0.004 0.011,-0.012 0.011,-0.012 0.008,-0.008 0.012,-0.016 0.012,-0.016 0.004,-0.007 0.012,-0.015 0.012,-0.015 0.004,-0.012 0.011,-0.028 0.011,-0.028 0,-0.011 0,-0.015 0,-0.015 0,-0.004 0,-0.012 0,-0.012 0,-0.008 0,-0.019 0,-0.019 0,-0.008 0,-0.012 0,-0.012 0,-0.008 -0.007,-0.024 -0.007,-0.024 -0.004,-0.003 0,-0.011 0,-0.011 -0.004,-0.008 -0.012,-0.02 -0.012,-0.02 -0.383,-0.594 -2.973,-0.812 -2.973,-0.812 0,0 -0.129,1.156 -0.187,1.519 z m -19.477,3.754 c 1.453,0.094 5.047,-0.504 13.926,-3.711 l 0.297,-1.726 c 0,0 -14.781,4.742 -15.203,4.89 v 0.012 c 0,0.012 0,0.031 0,0.055 0.008,0.043 0.027,0.113 0.078,0.175 0.105,0.125 0.344,0.274 0.902,0.305 z m 25.387,0.363 c 0.5,0.016 0.855,-0.011 0.937,-0.097 l 0.008,-0.012 v -0.023 l 0.012,-0.008 -0.012,-0.012 c 0,-0.008 0.004,-0.019 0.004,-0.019 l -0.012,-0.016 c -0.007,-0.008 -0.015,-0.024 -0.023,-0.031 -0.008,-0.008 -0.023,-0.028 -0.031,-0.036 -0.77,-0.656 -6.781,-1.914 -6.781,-1.914 0,0 -0.168,1.438 -0.168,1.477 0.168,-0.004 4.191,0.629 6.066,0.691 z m 0.574,4.52 c 0.516,0.023 0.895,0 1.012,-0.066 0.016,-0.008 0.027,-0.02 0.031,-0.032 v -0.011 -0.012 c 0,0 0.004,-0.016 0,-0.02 0,-0.004 -0.008,-0.008 -0.008,-0.008 -0.007,-0.011 -0.023,-0.027 -0.035,-0.035 -0.765,-0.675 -7.859,-2.07 -7.859,-2.07 0,0 -0.035,1.309 -0.035,1.434 0.203,0.043 4.785,0.726 6.894,0.82 z m -22.152,0.898 c 2.48,0.129 9.992,-3.297 10.359,-3.406 h 0.012 c -0.039,-0.152 -0.043,-1.387 -0.074,-1.586 -0.004,-0.004 0,-0.019 0,-0.019 h -0.016 c -0.199,0.105 -10.496,4.355 -10.953,4.015 -0.281,0.668 0.012,0.961 0.672,0.996 z m 24.484,3.668 c 0.418,0.016 0.696,-0.019 0.762,-0.109 0.004,-0.012 0.008,-0.031 0.012,-0.047 -0.004,-0.043 -0.039,-0.098 -0.114,-0.16 -1.304,-1.176 -9.632,-2.598 -9.929,-2.617 h -0.012 -0.012 l -0.008,0.011 c -0.003,0.004 -0.007,0.016 -0.007,0.016 -0.004,0.008 -0.004,0.016 -0.004,0.016 0,0.004 -0.012,0.015 -0.012,0.015 -0.055,0.278 0.121,1.231 0.133,1.364 0,0.004 0,0.011 0,0.011 h 0.012 l 0.007,-0.011 h 0.012 c 0.535,0.007 6.918,1.418 9.16,1.511 z m -27.422,6.293 c 1.633,0.086 5.328,-0.773 13.606,-4.672 0,-0.043 0.074,-1.386 0.047,-1.511 h -0.012 c -0.492,0.156 -14.898,5.187 -14.898,5.187 -0.012,0.055 -0.231,0.918 1.257,0.996 z m 24.02,0.2 c 0.336,0.015 0.57,-0.016 0.652,-0.098 l 0.012,-0.012 c 0.004,-0.008 0.008,-0.027 0.008,-0.035 0.004,-0.008 0.011,-0.023 0.011,-0.031 -0.003,-0.047 -0.039,-0.11 -0.097,-0.176 -1.02,-1.141 -6.496,-2.277 -6.496,-2.277 0,0 0,1.433 0,1.476 h 0.011 c 0.25,0.012 4.27,1.07 5.899,1.153 z m -21.469,2.398 c 1.25,0.062 4.156,-0.617 10.625,-3.34 l 0.043,-1.609 c 0,0 -10.953,3.304 -11.336,3.851 -0.187,0.27 -0.539,1.032 0.672,1.098 z m 21.008,6.961 c 1.488,0.027 2.535,-0.098 2.148,-0.547 C 170.34,182.773 163,181.766 163,181.766 L 162.867,184 c 0.16,0.023 3.887,0.496 6.387,0.547 z m -15.324,3.832 c 1.554,0.055 5.285,-0.84 5.492,-0.789 0,-0.297 0.168,-1.695 -0.02,-1.981 l -0.011,-0.011 -0.012,-0.012 -0.012,-0.012 c 0,0 -0.015,-0.008 -0.019,-0.011 h -0.012 c 0,0 -0.02,0 -0.023,0 h -0.012 c -0.317,0.082 -5.821,1.82 -6.031,2.531 -0.004,0.011 0,0.031 0,0.043 0,0.023 0.011,0.054 0.031,0.078 0,0 0.008,0.008 0.012,0.008 0,0 0.007,0.011 0.011,0.011 0.106,0.082 0.324,0.133 0.606,0.145 z m -5.067,4.125 c 1.457,0.074 4.34,-0.266 9.754,-1.75 0,-0.117 0.113,-1.512 0.067,-1.742 L 158.676,189 v -0.012 l -0.012,-0.008 c -0.086,0.043 -9.855,2.833 -10.746,2.79 -0.023,0 -0.055,0 -0.078,0 -0.02,0.003 -0.047,0.007 -0.067,0.011 -0.023,0.008 -0.054,0.024 -0.074,0.035 -0.008,0 -0.027,0.004 -0.035,0.008 -0.004,0.004 -0.008,0.012 -0.008,0.012 -0.031,0.019 -0.062,0.051 -0.078,0.078 -0.004,0 -0.012,0.008 -0.012,0.008 -0.003,0.008 -0.007,0.019 -0.007,0.019 -0.004,0.008 -0.004,0.012 -0.004,0.012 0,0.008 -0.008,0.02 -0.008,0.02 -0.004,0.007 -0.004,0.015 -0.004,0.015 0,0.004 0,0.02 0,0.02 0,0.008 0,0.019 0,0.019 0.004,0.02 0.008,0.039 0.012,0.051 0.011,0.027 0.035,0.067 0.066,0.098 0.149,0.144 0.524,0.293 1.242,0.328 z m 13.575,3.656 h 0.023 c 0.266,-0.07 2.109,-0.129 2.336,-0.437 0,-0.004 0.008,-0.008 0.008,-0.008 0.004,-0.004 0,-0.012 0,-0.012 0.004,-0.004 0.011,-0.012 0.011,-0.012 v -0.011 -0.012 -0.012 -0.011 -0.008 l -0.007,-0.012 v -0.012 c -0.004,-0.004 -0.008,-0.015 -0.012,-0.023 0,0 -0.012,-0.008 -0.012,-0.012 v -0.008 c -0.383,-0.465 -2.086,-0.593 -2.168,-0.593 h -0.012 v 0.011 c 0,0 -0.011,0.008 -0.011,0.012 -0.078,0.156 -0.156,1.16 -0.156,1.16 z m 0.253,2.746 c 0.079,0 4.532,-0.035 4.922,-0.609 l 0.012,-0.024 c 0.004,-0.007 0.008,-0.027 0.012,-0.035 0,-0.004 0,-0.015 0,-0.015 0,-0.012 0,-0.028 0,-0.039 -0.004,-0.008 -0.008,-0.024 -0.012,-0.032 -0.34,-0.718 -4.844,-1.148 -4.844,-1.148 l -0.09,1.902 z m -3.222,1.852 v -1.391 c 0,0 -2.278,0.117 -2.699,0.473 -0.004,0 -0.008,0.008 -0.008,0.008 l -0.016,0.011 -0.008,0.012 c -0.004,0 -0.011,0.012 -0.011,0.012 -0.004,0.004 -0.008,0.015 -0.008,0.015 l -0.004,0.016 -0.012,0.012 v 0.012 0.023 0.008 0.011 c 0.004,0.008 0.008,0.024 0.012,0.036 l 0.012,0.007 c 0.003,0.008 0.011,0.028 0.019,0.036 l 0.012,0.007 c 0,0 0.019,0.02 0.023,0.024 0.016,0.015 0.035,0.031 0.055,0.043 0.762,0.531 2.285,0.519 2.586,0.601 h 0.012 l 0.011,0.012 h 0.012 l 0.012,0.012 z m 1.804,34.57 c -0.304,-3.293 -0.609,-6.59 -0.914,-9.887 -1.117,-0.168 -2.23,-0.332 -3.347,-0.503 0,0 2.324,-1.305 2.73,-2.614 0.067,-0.211 0.039,-0.386 -0.054,-0.515 -0.032,-0.039 -0.079,-0.086 -0.122,-0.121 -0.671,-0.516 -2.664,-0.274 -2.664,-0.274 0,0 2.637,-2.226 2.84,-3.031 0.004,-0.02 0.012,-0.035 0.012,-0.055 0,-0.015 0.004,-0.039 0,-0.055 -0.004,-0.011 -0.02,-0.035 -0.024,-0.043 -0.015,-0.042 -0.05,-0.085 -0.085,-0.121 -0.622,-0.574 -3.547,-0.734 -3.547,-0.734 0,0 3.242,-2.312 3.445,-3.621 0.184,-1.191 0.031,-1.887 0,-2.004 -0.227,0.191 -5.453,4.586 -8.828,3.305 -0.168,-0.086 -0.27,-0.172 -0.309,-0.25 -0.019,-0.043 -0.023,-0.094 -0.011,-0.133 0.238,-0.731 5.007,-1.481 8.335,-4.359 -0.082,-0.719 -9.484,2.292 -9.832,0.406 0.293,-0.531 10.118,-1.946 10.844,-3.231 -3.617,-0.133 -11.09,0.797 -10.844,-0.39 -0.757,-1.375 7.059,-0.602 10.336,-1.719 0.961,-1.09 0.871,-2 -0.8,-2.113 -3.161,1.5 -10.235,2.617 -10.25,0.699 0,0 0,-0.008 0,-0.012 0,0 0.007,-0.008 0.007,-0.012 0,0 0.008,-0.015 0.012,-0.019 0.012,-0.012 0.039,-0.024 0.055,-0.035 0.801,-0.399 7.387,-0.203 9.867,-1.836 -3.516,-0.797 -15.437,1.609 -15.512,0.437 0.336,-0.55 2.227,-2.961 5.469,-2.859 3.246,0.101 10.758,-1.313 11.266,-2.32 0.015,-0.032 0.015,-0.063 0.007,-0.086 -0.218,-0.703 -9.886,2.144 -13.605,0.394 -3.855,-1.816 11.051,-0.715 13.484,-2.933 2.438,-2.219 -4.863,0.207 -4.863,0.207 0,0 -10.141,1.406 -11.66,0.699 -1.523,-0.707 -3.246,-2.32 -3.246,-2.32 0,0 1.012,-2.012 2.023,-1.61 0.157,0.063 0.262,0.074 0.321,0.055 h 0.011 l 0.008,-0.012 0.012,-0.008 0.012,-0.011 0.011,-0.012 c 0.004,-0.012 0.008,-0.031 0.012,-0.043 0.023,-0.305 -0.695,-1.184 -0.695,-1.184 0,0 14.207,-3.422 17.351,-6.449 3.145,-3.023 -18.054,4.742 -18.054,4.742 0,0 -8.52,-3.125 0.507,-3.328 -1.007,-1.465 0.414,-2.363 0.504,-2.418 0,0 15.016,-3.129 16.535,-5.551 1.524,-2.421 -10.242,2.325 -12.878,3.633 -2.543,1.266 -9.625,-0.668 -10.032,-1.258 0,0 -0.008,-0.015 -0.008,-0.023 0,0 0,-0.008 0,-0.012 0,0 0,-0.015 0,-0.019 0,0 0,-0.008 0,-0.012 0,0 -0.003,-0.008 0,-0.012 l 0.008,-0.008 v -0.011 c 0,0 0.02,-0.028 0.024,-0.035 0,0 0.008,-0.008 0.011,-0.008 0.454,-0.5 3.614,-1.184 3.711,-2.039 v -0.008 c 0,-0.047 -0.015,-0.102 -0.035,-0.145 -0.398,-0.765 -4.168,-1.093 -4.328,-1.816 0,-0.012 -0.008,-0.031 -0.008,-0.043 0,-0.809 18.973,-4.742 24.043,-8.977 5.071,-4.238 -14.906,5.047 -14.906,5.047 0,0 1.117,-1.511 0,-1.918 -1.117,-0.402 -5.078,5.649 -11.57,1.918 -1.184,-1.535 5.668,-2.754 7.41,-2.925 -0.598,-1.52 -1.113,-2.024 1.32,-3.536 0.266,-0.164 0.414,-0.265 0.473,-0.316 0.004,-0.004 0.012,-0.012 0.012,-0.012 l 0.011,-0.011 v -0.008 -0.012 h -0.011 c 0,0 -0.008,0 -0.012,0 -0.375,0.059 -4.75,2.293 -5.207,2.387 -0.004,0 -0.02,0 -0.024,0 h -0.007 c 0,-0.203 0.503,-2.629 0.503,-2.629 -2.246,1.816 -4.964,2.363 -7.507,0.504 -0.004,-0.11 -0.024,-1.848 2.531,-2.922 -1.438,-2.926 1.629,-2.02 6.496,-4.742 -7.234,1.882 -7.816,-1.614 -2.641,-2.418 5.172,-0.809 19.375,-1.313 22.723,-5.649 0.703,-0.914 0.898,-1.375 0.758,-1.523 -0.559,-0.5 -5.692,3.191 -6.438,3.328 h -0.011 l -0.012,-0.012 c -0.012,-0.011 -0.024,-0.035 -0.031,-0.051 -0.184,-0.402 -0.356,-2.148 -0.356,-2.148 -2.164,1.246 -4.148,2.363 -6.734,2.891 -0.203,-0.403 -0.164,-0.977 -0.367,-1.379 -2.348,1.683 -4.395,2.867 -7.805,3.031 -0.133,-0.535 -0.27,-1.082 -0.406,-1.617 0,0 -2.844,3.527 -8.422,0 -3.117,-2.223 11.765,-0.805 14.203,-3.43 2.434,-2.621 0.504,-3.019 0.504,-3.019 -2.028,0.738 -4.047,1.472 -6.078,2.211 0,0 -7.207,1.316 -9.235,-0.297 -2.031,-1.614 29.614,-5.547 30.528,-9.883 0.617,-2.352 -7.434,2.461 -14.399,4.531 -0.269,-0.769 -0.547,-1.539 -0.816,-2.309 -0.164,0.161 -2.86,2.766 -5.879,3.215 l -0.012,-0.007 c 0,-0.004 0,-0.02 0,-0.02 0.004,-0.336 0.617,-2.695 0.617,-2.695 0,0 -7.8,3.632 -11.757,1.718 -3.957,-1.918 13.789,-2.925 15.414,-4.742 0.175,-0.199 0.25,-0.344 0.242,-0.437 -0.004,-0.016 -0.016,-0.039 -0.024,-0.055 -0.39,-0.57 -5.683,1.539 -6.207,0.492 -0.609,-1.211 -9.23,2.215 -9.129,0.602 0.102,-1.613 1.223,-2.516 1.223,-2.516 0,0 17.953,-1.715 18.563,-3.832 0.605,-2.117 -9.942,1.203 -9.942,1.203 0,0 -1.019,-1.504 -0.211,-2.211 0.032,-0.027 0.059,-0.054 0.067,-0.066 v -0.008 l -0.012,-0.004 c -0.363,0.121 -6.082,3.844 -5.523,0.988 -2.239,0.883 -8.012,3.629 -7.204,1.508 0.801,-2.086 15.864,-5.054 16.305,-5.144 -0.398,-0.031 -6.766,-0.559 -6.473,-2.223 -8.535,5.172 -8.515,2.07 -8.324,1.828 v -0.008 c -0.476,0.075 -10.98,2.676 -2.629,-1.82 4.481,-2.406 5.571,-3.348 5.594,-3.711 0,-0.008 0,-0.023 0,-0.031 -0.004,-0.012 -0.008,-0.024 -0.012,-0.031 l -0.011,-0.012 c -0.004,-0.008 -0.008,-0.016 -0.012,-0.023 0,0 -0.008,-0.008 -0.012,-0.012 0,0 -0.008,-0.008 -0.008,-0.012 l -0.011,-0.008 c 0,0 -0.008,-0.011 -0.012,-0.011 -0.176,-0.11 -0.594,-0.067 -0.715,-0.067 -0.008,0 -0.019,0 -0.019,0 l -0.016,-0.012 0.012,-0.007 c 0.121,-0.18 0.773,-1.957 0.738,-2.27 0,-0.004 -0.012,-0.016 -0.012,-0.016 v -0.015 h -0.012 v -0.012 h -0.011 -0.008 c -0.367,0.094 -5.898,3.031 -7.797,3.231 -1.926,0.203 -11.059,-2.52 -1.32,-6.754 9.738,-4.239 15.719,1.007 21.094,0.406 5.375,-0.606 7.914,-1.516 7.41,-3.231 -0.508,-1.714 -5.5,5.622 -10.746,-0.722 -5.969,1.172 -10.016,1.851 -6.938,-2.508 -9.742,3.621 -15.695,-1.105 -3.422,-3.02 12.059,-0.355 19.477,2.922 19.477,2.922 0,0 2.031,-3.738 4.972,-1.117 2.805,2.5 3.028,-0.68 3.129,-0.984 0,-0.004 0.008,-0.008 0.008,-0.008 l 0.004,-0.016 h 0.012 c 0.215,0.055 2.828,1.215 2.828,1.215 0.234,0 0.476,0 0.715,0 V 84.457 c 3.277,-0.0312 6.551,-0.0625 9.832,-0.0976 0,0 -3.145,21.0746 -1.422,23.8986 1.672,2.734 3.25,2.437 3.348,2.418 0,0 6.39,-1.914 7.101,-1.61 0.008,0.004 0.024,0.008 0.031,0.012 0.008,0 0.02,0.008 0.02,0.008 0.016,0.012 0.035,0.027 0.047,0.035 l 0.011,0.012 c 0.52,0.469 -0.007,2.332 3.239,2.047 1,0.363 0.617,1.949 1.265,2.343 0.012,0.004 0.032,0.016 0.043,0.02 0.024,0.012 0.063,0.023 0.086,0.031 0.039,0.012 0.09,0.02 0.133,0.024 1.016,0.101 20.59,-5.442 24.848,-0.196 -1.114,2.922 -4.973,0.2 -5.989,0.098 -0.914,0 -4.769,1.816 -7,0 -2.031,1.512 -11.253,2.516 -11.253,2.516 -1.215,1.211 22.011,-0.602 23.328,0.308 2.742,2.723 -5.067,2.418 -6.285,1.512 -2.165,1.309 -4.883,1.215 -6.54,0.305 -0.792,1.89 -8.335,1.07 -12.527,1.609 -1.344,0.781 -1.117,1.23 -0.211,1.719 8.758,-0.371 17.469,-1.508 26.27,-1.117 2.379,3.082 -2.996,4.246 -6.289,1.621 -1.93,3.16 -5.883,0.101 -8.52,0.406 -2.637,0.301 -1.422,3.523 1.926,3.019 3.348,-0.503 9.332,0.207 10.449,1.719 1.113,1.512 -0.668,3.047 -6.187,1.61 -1.868,1.816 -5.977,0.003 -7.907,-0.602 -2.562,1.422 -8.527,0.199 -10.554,-0.309 -1.989,1.231 10.445,3.231 10.445,3.231 4.801,0.086 7.508,0.91 9.027,1.312 7.254,3.868 -0.101,4.278 -3.906,1.469 -2.363,1.836 -4.609,-0.16 -6.738,-0.863 -1.996,-0.664 -5.692,-1.145 -6.145,-0.953 0,0 -0.015,0.008 -0.019,0.011 l -0.012,0.008 -0.012,0.012 v 0.012 0.011 c 0,0 0.008,0.016 0.012,0.024 0.297,0.461 5.77,3.797 5.77,3.797 0,0 7.097,0.508 8.519,0.711 0.863,0.125 3.899,1.55 3.899,2.082 -0.028,0.328 -1.29,0.297 -5.122,-0.668 -3.449,-0.305 -5.472,-0.11 -6.793,-0.211 -2.121,0.219 -3.011,0.441 -3.191,0.637 -0.008,0.007 -0.019,0.023 -0.023,0.031 -0.012,0.035 -0.004,0.078 0.023,0.109 0.008,0.008 0.024,0.027 0.031,0.035 0.52,0.41 3.875,0.711 3.875,0.711 0,0 10.246,0.934 10.922,1.465 0.004,0.004 0.012,0.012 0.012,0.012 0.004,0.004 0.008,0.019 0.012,0.023 l 0.007,0.008 c 0.215,4.168 -8.687,2.242 -8.925,2.215 0.023,2.926 -8.035,0.043 -8.41,0 h -0.012 c -0.348,0.203 -0.496,0.418 -0.528,0.613 -0.011,0.074 0,0.156 0.02,0.231 0.203,0.601 1.422,1.07 1.422,1.07 2.23,0.539 5.566,0.707 6.441,1.41 0,0 6.297,0.059 7.043,1.723 -1.543,4.238 -13.328,-0.75 -14.906,-1.512 -0.316,0 -0.508,0.078 -0.605,0.207 -0.516,0.754 2.039,3.231 2.125,3.316 l 0.011,0.012 c 0.391,0.11 9.797,0.59 14.289,6.645 0.317,3.746 -5.371,-2.114 -5.371,-2.114 -0.426,4.86 -6.187,-0.308 -9.535,-0.71 -3.348,-0.403 -3.445,1.515 -1.109,1.816 2.332,0.305 4.965,0.105 6.285,3.637 1.316,3.527 5.277,-0.207 5.988,1.105 0.688,1.27 -1.297,2.352 -1.422,2.418 0,0 2.942,3.035 -1.824,2.934 -4.719,-0.102 -10.82,0.59 -10.945,0.601 0.297,0.114 5.101,1.914 9.625,1.817 4.664,-0.102 2.129,3.328 -2.336,3.328 -4.461,0 -6.793,1.511 -6.793,1.511 2.535,0.942 5.07,1.883 7.605,2.825 -0.168,0.707 -0.336,1.406 -0.504,2.113 0,0 4.461,3.531 -1.828,2.727 -6.289,-0.809 -7,-0.911 -7,-0.911 0,0 -12.383,-1.886 -12.672,-1.914 -0.004,0 -0.011,0 -0.011,0 -0.121,0.02 -1.348,0.399 -1.575,0.864 -0.007,0.015 -0.019,0.039 -0.023,0.054 -0.004,0.02 -0.008,0.047 -0.012,0.067 0,0.019 -0.004,0.054 0,0.078 0.055,0.246 0.434,0.512 1.41,0.754 3.247,0.804 14.711,3.121 16.438,2.515 0.223,-0.078 0.383,-0.058 0.484,0.024 0.645,0.582 -1.504,4.293 -6.781,4.816 -6.086,0.606 -9.832,-1.512 -9.832,-1.512 0,0 -3.961,1.418 -0.309,2.629 3.653,1.211 9.438,-0.406 9.438,-0.406 0,0 6.484,1.918 1.109,2.727 -5.375,0.808 -7.07,-0.727 -9.535,-0.809 -0.98,1.219 8.442,1.508 9.027,2.516 -0.992,1.816 -6.824,0 -10.238,0 -1.449,0.613 -1.547,1.609 0.102,2.222 3.48,0.133 6.754,-0.07 10.238,0.067 -0.102,1.847 0,4.039 -0.102,5.89 -4.414,0.801 -9.593,-0.589 -12.074,-0.472 0.66,2.015 10.199,2.539 11.262,3.086 2.191,2.722 -9.148,0.043 -9.426,0 -2.012,0.297 -1.89,1.562 -0.613,2.324 2.937,0.336 9.535,-0.43 9.035,1.551 -0.383,1.859 -4.57,0.863 -6.297,0.461 -1.722,-0.403 -4.258,-0.098 -4.258,-0.098 -1.105,1.477 9.942,0.871 9.84,2.016 -0.144,1.308 -7.004,0.406 -9.336,0.304 -1.793,1.231 8.438,2.051 8.918,2.211 l 0.012,0.012 c 0.383,3.352 -7.102,0 -8.52,0 -0.246,0 -0.429,0.059 -0.562,0.164 -0.031,0.023 -0.063,0.059 -0.09,0.086 -0.484,0.566 -0.055,1.863 -0.055,1.863 0,0 2.668,1.192 2.829,1.477 l 0.011,0.012 v 0.011 0.012 l -0.011,0.008 c -0.004,0.008 -0.02,0.023 -0.032,0.035 -0.312,0.238 -2.148,0.844 -2.39,0.863 h -0.008 l -0.012,0.012 c 0,0 -0.008,0.008 -0.012,0.012 l -0.011,0.007 c -0.137,0.286 0.035,2.29 0.035,2.29 0,0 2.109,1.574 2.246,2.199 0,0 -0.004,0.019 0,0.023 0,0 0,0.016 0,0.024 0,0 0,0.015 0,0.019 0,0 0,0.02 0,0.024 0,0 0,0.007 0,0.011 0,0 -0.012,0.016 -0.012,0.02 v 0.012 c 0,0 -0.011,0.007 -0.011,0.011 -0.004,0.004 -0.008,0.008 -0.012,0.012 -0.004,0.004 -0.008,0.016 -0.012,0.02 0,0 -0.008,0.011 -0.012,0.011 -0.007,0.008 -0.019,0.016 -0.031,0.024 -0.004,0 -0.019,0.007 -0.023,0.011 -0.532,0.254 -2.739,-0.504 -2.739,-0.504 0,0.672 0,1.34 0,2.012 0,0 1.93,0.211 2.133,1.117 0.012,0.055 0.008,0.106 0,0.153 -0.004,0.019 -0.004,0.047 -0.012,0.066 -0.011,0.039 -0.031,0.086 -0.054,0.121 0,0 -0.016,0.016 -0.02,0.024 -0.441,0.566 -2.246,0.644 -2.246,0.644 -0.34,3.531 -0.676,7.055 -1.015,10.586 h 0.003"
         style="fill:#237838;fill-opacity:1;fill-rule:nonzero;stroke:none"
         id="path20" /></g></g></svg>
