<?xml version="1.0" encoding="UTF-8" standalone="no"?>
<svg
   xmlns:dc="http://purl.org/dc/elements/1.1/"
   xmlns:cc="http://creativecommons.org/ns#"
   xmlns:rdf="http://www.w3.org/1999/02/22-rdf-syntax-ns#"
   xmlns:svg="http://www.w3.org/2000/svg"
   xmlns="http://www.w3.org/2000/svg"
   version="1.1"
   id="svg2"
   xml:space="preserve"
   width="42.666668"
   height="42.666668"
   viewBox="0 0 42.666668 42.666668"><metadata
     id="metadata8"><rdf:RDF><cc:Work
         rdf:about=""><dc:format>image/svg+xml</dc:format><dc:type
           rdf:resource="http://purl.org/dc/dcmitype/StillImage" /></cc:Work></rdf:RDF></metadata><defs
     id="defs6" /><g
     id="g10"
     transform="matrix(1.3333333,0,0,-1.3333333,0,42.666667)"><g
       id="g12"
       transform="scale(0.1)"><path
         d="M 214.352,9.51953 V 310.473 c -16.973,6.121 -35.262,9.476 -54.36,9.476 -19.066,0 -37.347,-3.355 -54.336,-9.476 V 9.51953 c 16.989,-6.11328 35.27,-9.4687487 54.336,-9.4687487 19.098,0 37.387,3.3554687 54.36,9.4687487"
         style="fill:#ffffff;fill-opacity:1;fill-rule:evenodd;stroke:none"
         id="path14" /><path
         d="M 214.352,310.473 V 9.53906 C 275.953,31.7773 320,90.7539 320,159.98 c 0,69.258 -44.047,128.247 -105.648,150.493"
         style="fill:#27884f;fill-opacity:1;fill-rule:evenodd;stroke:none"
         id="path16" /><path
         d="M 105.656,9.53906 V 310.473 C 44.0469,288.227 0,229.238 0,159.98 0,90.7539 44.0469,31.7773 105.656,9.53906"
         style="fill:#27884f;fill-opacity:1;fill-rule:nonzero;stroke:none"
         id="path18" /></g></g></svg>
