<?xml version="1.0" encoding="UTF-8" standalone="no"?>
<svg
   xmlns:dc="http://purl.org/dc/elements/1.1/"
   xmlns:cc="http://creativecommons.org/ns#"
   xmlns:rdf="http://www.w3.org/1999/02/22-rdf-syntax-ns#"
   xmlns:svg="http://www.w3.org/2000/svg"
   xmlns="http://www.w3.org/2000/svg"
   version="1.1"
   id="svg2"
   xml:space="preserve"
   width="42.666668"
   height="42.666668"
   viewBox="0 0 42.666668 42.666668"><metadata
     id="metadata8"><rdf:RDF><cc:Work
         rdf:about=""><dc:format>image/svg+xml</dc:format><dc:type
           rdf:resource="http://purl.org/dc/dcmitype/StillImage" /></cc:Work></rdf:RDF></metadata><defs
     id="defs6" /><g
     id="g10"
     transform="matrix(1.3333333,0,0,-1.3333333,0,42.666667)"><g
       id="g12"
       transform="scale(0.1)"><path
         d="M 310.516,214.352 H 9.46875 C 31.7266,275.984 90.7266,320.023 160.004,320.023 c 69.25,0 128.25,-44.039 150.512,-105.671"
         style="fill:#3862b7;fill-opacity:1;fill-rule:evenodd;stroke:none"
         id="path14" /><path
         d="M 9.46875,105.637 H 310.516 C 288.254,44.0352 229.254,-0.0234375 160.004,-0.0234375 90.7266,-0.0234375 31.7266,44.0352 9.46875,105.637"
         style="fill:#3862b7;fill-opacity:1;fill-rule:evenodd;stroke:none"
         id="path16" /><path
         d="m 136.172,123.332 c 0.531,0.91 1.058,1.801 1.594,2.715 3.082,-0.949 0.738,-4.52 -1.594,-2.715"
         style="fill:#ffffff;fill-opacity:1;fill-rule:nonzero;stroke:none"
         id="path18" /><path
         d="M 0,160 C 0,140.91 3.35547,122.609 9.48828,105.637 H 310.512 C 316.645,122.609 320,140.91 320,160 c 0,19.086 -3.355,37.383 -9.484,54.352 H 9.48438 C 3.35547,197.383 0,179.086 0,160"
         style="fill:#ffffff;fill-opacity:1;fill-rule:nonzero;stroke:none"
         id="path20" /><path
         d="m 159.242,193.289 1.227,0.371 c 10.504,-18.199 21.054,-36.336 31.465,-54.597 -21.282,0 -42.61,0 -63.883,0 10.285,18.097 20.855,36.128 31.191,54.226"
         style="fill:#f8cc09;fill-opacity:1;fill-rule:nonzero;stroke:none"
         id="path22" /><path
         d="m 155.582,183.102 c 1.379,2.609 2.813,5.093 4.414,7.586 1.582,-2.493 3.027,-5.043 4.402,-7.586 -2.929,0.539 -5.89,0.586 -8.816,0"
         style="fill:#96dbf6;fill-opacity:1;fill-rule:nonzero;stroke:none"
         id="path24" /><path
         d="m 155.582,183.102 c 2.926,0.586 5.887,0.539 8.816,0 0.735,-0.844 1.157,-1.848 1.629,-2.797 -4.074,0.996 -8.527,1.254 -12.457,-0.598 0.641,1.172 1.176,2.391 2.012,3.395"
         style="fill:#4170b6;fill-opacity:1;fill-rule:nonzero;stroke:none"
         id="path26" /><path
         d="m 153.57,179.707 c 3.93,1.852 8.383,1.594 12.457,0.598 l 0.332,-0.11 0.739,-1.972 c -4.614,2.234 -9.914,1.859 -14.586,-0.071 l 1.058,1.555"
         style="fill:#82c628;fill-opacity:1;fill-rule:nonzero;stroke:none"
         id="path28" /><path
         d="m 150.277,174.078 c 1.653,3.606 6.215,4.305 9.719,4.422 3.5,-0.117 8.059,-0.816 9.703,-4.422 -5.676,4.145 -13.734,4.145 -19.422,0"
         style="fill:#d51a3a;fill-opacity:1;fill-rule:nonzero;stroke:none"
         id="path30" /><path
         d="m 150.277,174.078 c 5.688,4.145 13.746,4.145 19.422,0 l 1.168,-2.281 c -5.992,5.617 -15.703,5.617 -21.703,0.055 l 1.113,2.226"
         style="fill:#bc138f;fill-opacity:1;fill-rule:nonzero;stroke:none"
         id="path32" /><path
         d="m 149.164,171.852 c 6,5.562 15.711,5.562 21.703,-0.055 4.356,-7.156 8.535,-14.473 12.563,-21.859 l -1.528,-0.047 -1.75,1.16 c -2.015,1.699 -3.816,3.769 -6.16,5.054 l -0.847,0.469 -2.387,-1.168 c -0.953,0.746 -2.067,1.274 -3.238,1.332 l -1.536,-1.285 -2.07,1.641 c -0.949,0.652 -1.914,1.285 -2.867,1.871 l -1.274,-1.969 c -0.949,0.844 -2.07,1.43 -3.175,1.902 l -0.582,0.266 -1.438,-1.676 c -1.168,0.469 -2.387,0.938 -3.609,1.41 l -1.696,1.598 -2.386,0.156 c -3.61,-1.957 -5.836,-5.504 -8.813,-8.23 3.348,6.695 7.278,13.062 11.09,19.43"
         style="fill:#93daf6;fill-opacity:1;fill-rule:nonzero;stroke:none"
         id="path34" /><path
         d="m 157.82,169.887 c 2.438,0.375 5.989,-2.176 4.18,-4.813 -1,-2.14 -3.656,-1.441 -4.664,0.305 l 1.535,2.754 -1.051,1.754"
         style="fill:#d51b34;fill-opacity:1;fill-rule:nonzero;stroke:none"
         id="path36" /><path
         d="m 146.887,160.652 2.386,-0.156 c -4.343,-2.117 -7.214,-6.625 -8.492,-11.199 2.231,0.75 3.508,2.769 4.778,4.574 l 0.16,-2.129 1.375,0.856 c 0.586,-1.817 1.754,-4.836 4.207,-3.34 0.355,1.633 0.051,3.394 -0.113,5.094 2.062,-2.399 3.71,-5.575 6.945,-6.59 l 0.531,2.023 1.91,0.106 c -2.441,3.761 -6.097,6.367 -9.605,9.007 1.222,-0.472 2.441,-0.941 3.609,-1.41 l 1.438,1.676 0.582,-0.266 c 0,-0.941 0.152,-2.043 0.949,-2.746 2.82,-2.711 6.215,-4.89 9.922,-6.105 -2.231,2.703 -5.196,4.57 -7.696,6.949 l 1.274,1.969 c 0.953,-0.586 1.918,-1.219 2.867,-1.871 l -1.269,-0.153 c 2.703,-2.761 5.351,-6.003 9.226,-7.05 -1.535,2.226 -3.875,3.761 -5.887,5.562 l 1.536,1.285 c 2.863,-2.98 5.894,-6.379 10.136,-7.328 -1.801,2.543 -4.558,4.031 -6.898,5.996 l 2.387,1.168 0.847,-0.469 -1.379,-0.23 c 2.227,-1.906 4.301,-4.871 7.539,-4.824 l 1.75,-1.16 c -2.761,-3.086 -7.007,-1.215 -10.507,-2.34 -10.563,-1.16 -21.223,-0.317 -31.829,-0.797 -1.652,0.105 -3.285,0.164 -4.941,0.164 1.172,1.859 2.07,3.863 3.449,5.504 2.977,2.726 5.203,6.273 8.813,8.23"
         style="fill:#4d6f29;fill-opacity:1;fill-rule:nonzero;stroke:none"
         id="path38" /><path
         d="m 140.781,149.297 c 1.278,4.574 4.149,9.082 8.492,11.199 l 1.696,-1.598 c 3.508,-2.64 7.164,-5.246 9.605,-9.007 l -1.91,-0.106 -0.531,-2.023 c -3.235,1.015 -4.883,4.191 -6.945,6.59 0.164,-1.7 0.468,-3.461 0.113,-5.094 -2.453,-1.496 -3.621,1.523 -4.207,3.34 l -1.375,-0.856 -0.16,2.129 c -1.27,-1.805 -2.547,-3.824 -4.778,-4.574"
         style="fill:#7ec829;fill-opacity:1;fill-rule:nonzero;stroke:none"
         id="path40" /><path
         d="m 157.547,156.152 c -0.797,0.703 -0.949,1.805 -0.949,2.746 1.105,-0.472 2.226,-1.058 3.175,-1.902 2.5,-2.379 5.465,-4.246 7.696,-6.949 -3.707,1.215 -7.102,3.394 -9.922,6.105"
         style="fill:#7ec829;fill-opacity:1;fill-rule:nonzero;stroke:none"
         id="path42" /><path
         d="m 162.645,156.941 1.269,0.153 2.07,-1.641 c 2.012,-1.801 4.352,-3.336 5.887,-5.562 -3.875,1.047 -6.523,4.289 -9.226,7.05"
         style="fill:#74b72c;fill-opacity:1;fill-rule:nonzero;stroke:none"
         id="path44" /><path
         d="m 167.52,156.738 c 1.171,-0.058 2.285,-0.586 3.238,-1.332 2.34,-1.965 5.097,-3.453 6.898,-5.996 -4.242,0.949 -7.273,4.348 -10.136,7.328"
         style="fill:#74b82c;fill-opacity:1;fill-rule:nonzero;stroke:none"
         id="path46" /><path
         d="m 172.613,155.875 1.379,0.23 c 2.344,-1.285 4.145,-3.355 6.16,-5.054 -3.238,-0.047 -5.312,2.918 -7.539,4.824"
         style="fill:#78c02b;fill-opacity:1;fill-rule:nonzero;stroke:none"
         id="path48" /><path
         d="m 181.902,149.891 1.528,0.047 0.273,0.058 c 1.594,-3.078 3.457,-6.058 5.098,-9.07 -1.59,0.113 -3.246,0.211 -4.828,0.265 0.636,0.586 1.754,0.789 1.906,1.758 -2.074,0.41 -4.184,0.41 -6.266,0.41 1.274,0.375 2.61,0.739 3.875,1.121 -1.855,0.321 -3.765,0.684 -5.621,1.008 1.973,0.211 3.918,0.528 5.781,1.266 -3.972,0.949 -8.164,0.633 -12.253,0.797 3.5,1.125 7.746,-0.746 10.507,2.34"
         style="fill:#3e7aac;fill-opacity:1;fill-rule:nonzero;stroke:none"
         id="path50" /><path
         d="m 139.566,146.754 c 10.606,0.48 21.266,-0.363 31.829,0.797 4.089,-0.164 8.281,0.152 12.253,-0.797 -1.863,-0.738 -3.808,-1.055 -5.781,-1.266 1.856,-0.324 3.766,-0.687 5.621,-1.008 -1.265,-0.382 -2.601,-0.746 -3.875,-1.121 2.082,0 4.192,0 6.266,-0.41 -0.152,-0.969 -1.27,-1.172 -1.906,-1.758 1.582,-0.054 3.238,-0.152 4.828,-0.265 -19.207,-0.117 -38.426,0 -57.617,-0.047 1.484,0.16 2.968,0.258 4.461,0.363 -1.079,0.219 -2.079,0.469 -3.133,0.738 2.383,0.852 4.929,0.969 7.426,1.055 -1.754,0.43 -3.508,0.903 -5.204,1.555 3.918,1.055 8.114,0.64 12.094,1.543 -2.43,0.039 -4.875,0.199 -7.262,0.621"
         style="fill:#93daf6;fill-opacity:1;fill-rule:nonzero;stroke:none"
         id="path52" /><path
         d="m 134.625,146.918 c 1.656,0 3.289,-0.059 4.941,-0.164 2.387,-0.422 4.832,-0.582 7.262,-0.621 -3.98,-0.903 -8.176,-0.488 -12.094,-1.543 1.696,-0.652 3.45,-1.125 5.204,-1.555 -2.497,-0.086 -5.043,-0.203 -7.426,-1.055 1.054,-0.269 2.054,-0.519 3.133,-0.738 -1.493,-0.105 -2.977,-0.203 -4.461,-0.363 1.05,2.07 2.222,4.074 3.441,6.039"
         style="fill:#3f7bab;fill-opacity:1;fill-rule:nonzero;stroke:none"
         id="path54" /><path
         d="m 155.223,146.238 c 3.441,0 6.894,-0.105 10.281,0 l -0.063,-0.855 c 0.973,-0.067 1.973,-0.106 2.922,-0.153 -1.215,-0.976 -2.429,-1.871 -3.699,-2.808 l 1.695,-0.645 c -5.629,-0.586 -11.254,-0.316 -16.925,-0.586 l 1.589,0.903 -0.32,1.015 c 2.762,-0.336 5.578,-0.113 8.219,0.829 l -1.699,0.746 -0.262,1.015 -1.738,0.539"
         style="fill:#ffffff;fill-opacity:1;fill-rule:nonzero;stroke:none"
         id="path56" /><path
         d="m 187.629,130.766 c 2.23,2.011 4.512,-0.942 2.168,-2.696 -0.738,0.891 -1.488,1.754 -2.168,2.696"
         style="fill:#ffffff;fill-opacity:1;fill-rule:nonzero;stroke:none"
         id="path58" /><path
         d="m 114.883,161.039 0.18,2.508 0.5,1.148 0.941,-0.312 0.113,-2.004 -0.097,-1.445 -1.637,0.105 z m -0.774,-0.691 c 1.696,-0.114 3.391,-0.227 5.086,-0.34 l 0.051,0.742 -2,0.133 0.152,2.453 2.122,1.539 0.066,0.941 -2.238,-1.625 -0.903,1.258 -1.437,-0.133 -0.668,-1.636 c -0.09,-1.11 -0.152,-2.223 -0.231,-3.332"
         style="fill:#f8cc09;fill-opacity:1;fill-rule:nonzero;stroke:none"
         id="path60" /><path
         d="m 114.77,168.16 c 1.656,-0.387 3.308,-0.773 4.964,-1.16 0.375,1.609 0.754,3.223 1.129,4.832 l -0.707,0.164 c -0.316,-1.367 -0.636,-2.738 -0.957,-4.109 l -1.511,0.351 c 0.289,1.235 0.574,2.473 0.863,3.703 l -0.699,0.164 c -0.289,-1.234 -0.579,-2.468 -0.868,-3.703 l -1.336,0.313 c 0.309,1.32 0.618,2.637 0.922,3.957 l -0.707,0.164 c -0.367,-1.559 -0.73,-3.117 -1.093,-4.676"
         style="fill:#f8cc09;fill-opacity:1;fill-rule:nonzero;stroke:none"
         id="path62" /><path
         d="m 117.488,175.289 0.77,2.172 0.824,0.953 0.773,-0.562 -0.417,-1.957 -0.399,-1.141 z m -0.929,-0.465 c 1.605,-0.554 3.211,-1.113 4.816,-1.672 l 0.242,0.703 -1.894,0.657 0.746,2.183 -0.063,1.864 -1.301,0.66 -1.253,-0.906 -0.832,-2.161 -0.461,-1.328"
         style="fill:#f8cc09;fill-opacity:1;fill-rule:nonzero;stroke:none"
         id="path64" /><path
         d="m 119.219,180.992 c 0.906,-0.527 1.808,-1.066 2.722,-1.582 l 1.704,-0.125 1.558,1.891 0.125,2.012 -1.703,1.296 -1.762,1.032 -0.375,-0.641 2.594,-1.523 0.68,-1.207 -0.766,-1.614 -1.258,-0.605 -1.414,0.691 -1.73,1.016 -0.375,-0.641"
         style="fill:#f8cc09;fill-opacity:1;fill-rule:nonzero;stroke:none"
         id="path66" /><path
         d="m 125.566,185.883 1.473,1.89 1.02,0.543 0.496,-0.832 -1.102,-1.73 -0.633,-0.828 z m -1.648,1.262 1.418,1.824 0.961,0.359 0.25,-0.848 -0.996,-1.429 -0.555,-0.731 z m -1.027,-0.153 c 1.347,-1.031 2.699,-2.062 4.05,-3.097 l 1.887,2.46 0.449,1.836 -1.308,0.93 -0.723,-0.242 -0.801,1.199 -1.609,-0.601 -1.293,-1.629 -0.652,-0.856"
         style="fill:#f8cc09;fill-opacity:1;fill-rule:nonzero;stroke:none"
         id="path68" /><path
         d="m 127.48,192.402 3.5,-3.707 3,2.832 -0.496,0.528 -2.398,-2.266 -0.063,-0.059 -0.043,0.047 -2.96,3.133 -0.54,-0.508"
         style="fill:#f8cc09;fill-opacity:1;fill-rule:nonzero;stroke:none"
         id="path70" /><path
         d="m 131.969,196.328 3.109,-4.043 0.606,0.469 -3.11,4.043 -0.605,-0.469"
         style="fill:#f8cc09;fill-opacity:1;fill-rule:nonzero;stroke:none"
         id="path72" /><path
         d="m 136.535,199.43 -1.222,-1.11 -0.504,-1.336 0.375,-1.355 1.007,-0.941 1.364,-0.25 1.668,0.66 1.273,1.285 0.211,1.504 -0.703,-0.278 c 0.184,-1.019 -0.473,-1.507 -1.207,-1.976 -1.152,-0.699 -2.277,-0.649 -2.965,0.402 -0.711,1.188 0.066,2.168 1.047,2.805 l 2.031,0.316 0.555,0.492 -1.305,0.356 -1.625,-0.574"
         style="fill:#f8cc09;fill-opacity:1;fill-rule:nonzero;stroke:none"
         id="path74" /><path
         d="m 143.258,201.852 1.695,-1.469 -1.898,-0.766 z m -0.699,0.586 -0.532,-5.715 0.793,0.32 0.16,1.773 h 0.004 l 2.579,1.039 1.343,-1.164 0.793,0.321 -4.344,3.746 -0.796,-0.32 v 0"
         style="fill:#f8cc09;fill-opacity:1;fill-rule:nonzero;stroke:none"
         id="path76" /><path
         d="m 154.52,204.91 2.199,0.113 1.164,-0.355 0.742,-1.594 -1.246,-1.539 -1.207,-0.176 -1.426,-0.089 c -0.074,1.214 -0.152,2.429 -0.226,3.64 z m -0.786,0.68 c 0.106,-1.699 0.211,-3.395 0.321,-5.09 0.918,0.063 1.84,0.105 2.758,0.18 l 1.992,0.847 0.449,2.645 -1.719,1.512 -2.351,-0.004 -1.45,-0.09 v 0"
         style="fill:#f8cc09;fill-opacity:1;fill-rule:nonzero;stroke:none"
         id="path78" /><path
         d="m 160.84,205.891 c -0.098,-1.7 -0.192,-3.395 -0.289,-5.09 1.648,-0.098 3.301,-0.192 4.953,-0.285 l 0.043,0.722 c -1.406,0.082 -2.813,0.16 -4.215,0.242 l 0.086,1.547 c 1.266,-0.07 2.531,-0.14 3.801,-0.214 l 0.039,0.718 c -1.266,0.074 -2.531,0.145 -3.797,0.219 l 0.078,1.371 c 1.352,-0.078 2.703,-0.156 4.055,-0.234 l 0.043,0.726 c -1.598,0.094 -3.199,0.184 -4.797,0.278"
         style="fill:#f8cc09;fill-opacity:1;fill-rule:nonzero;stroke:none"
         id="path80" /><path
         d="m 174.152,203.766 -1.843,-4.754 0.656,-0.254 1.461,3.769 0.078,0.196 0.078,-0.219 1.758,-5.055 0.859,-0.336 1.844,4.754 -0.656,0.254 -1.461,-3.766 -0.074,-0.191 -0.082,0.215 -1.762,5.055 -0.856,0.332"
         style="fill:#f8cc09;fill-opacity:1;fill-rule:nonzero;stroke:none"
         id="path82" /><path
         d="m 181,200.824 -2.316,-4.543 -0.68,0.348 2.316,4.543 0.68,-0.348"
         style="fill:#f8cc09;fill-opacity:1;fill-rule:nonzero;stroke:none"
         id="path84" /><path
         d="m 184.848,198.57 -1.52,0.649 -1.426,-0.102 -1.074,-0.902 -0.433,-1.309 0.339,-1.343 1.293,-1.243 1.703,-0.621 1.454,0.434 -0.543,0.527 -2.301,0.274 c -1.117,0.754 -1.539,1.796 -0.871,2.859 0.781,1.141 2,0.844 2.984,0.219 l 1.137,-1.715 0.676,-0.297 -0.219,1.332 -1.199,1.238 v 0"
         style="fill:#f8cc09;fill-opacity:1;fill-rule:nonzero;stroke:none"
         id="path86" /><path
         d="m 189.496,194.02 -0.535,-2.176 -1.543,1.34 z m 0.203,0.89 -5.328,-2.129 0.649,-0.558 1.648,0.664 0.004,-0.004 2.098,-1.824 -0.426,-1.727 0.648,-0.559 1.356,5.575 -0.649,0.558 v 0.004"
         style="fill:#f8cc09;fill-opacity:1;fill-rule:nonzero;stroke:none"
         id="path88" /><path
         d="m 193.465,190.328 1.652,-2.039 0.27,-1.285 -1.039,-0.098 -1.524,1.625 -0.625,0.754 z m 0.086,1.039 c -1.313,-1.082 -2.621,-2.164 -3.934,-3.246 l 0.473,-0.574 1.547,1.277 1.57,-1.89 -0.484,-2.575 0.597,-0.73 c 0.172,0.906 0.344,1.812 0.516,2.719 l 1.609,-0.258 0.875,1.152 -0.847,1.793 -1.922,2.332 v 0"
         style="fill:#f8cc09;fill-opacity:1;fill-rule:nonzero;stroke:none"
         id="path90" /><path
         d="m 199.031,182.48 -1.218,-1.882 -1.02,1.773 z m 0.485,0.774 -5.731,-0.266 0.426,-0.742 1.777,0.09 v -0.004 l 1.387,-2.41 -0.969,-1.492 0.43,-0.742 3.105,4.824 -0.425,0.742 v 0"
         style="fill:#f8cc09;fill-opacity:1;fill-rule:nonzero;stroke:none"
         id="path92" /><path
         d="m 202.785,176.504 -1.672,2.184 c -0.945,0.476 -2.207,0.242 -2.879,-0.59 l -0.457,-2.524 c 0.188,-0.98 0.633,-1.91 1.309,-2.644 l -0.383,-0.137 0.246,-0.68 2.387,0.86 -0.93,2.578 -0.551,-0.199 0.684,-1.899 -0.809,-0.293 c -0.714,0.613 -1.113,1.52 -1.32,2.422 l 0.356,2.02 2.336,0.281 1.289,-2.16 -0.293,-1.606 0.097,-0.308 0.196,-0.321 0.683,1.426 -0.289,1.59"
         style="fill:#f8cc09;fill-opacity:1;fill-rule:nonzero;stroke:none"
         id="path94" /><path
         d="m 204.25,172.523 -2.852,-0.554 -1.187,-0.496 -0.516,-0.953 0.047,-1.536 0.004,-0.011 0.531,-1.442 0.832,-0.691 1.289,-0.012 2.852,0.555 -0.141,0.726 -2.781,-0.543 c -1.25,-0.242 -1.672,0.414 -1.887,1.539 v 0.016 c -0.222,1.121 -0.082,1.891 1.168,2.133 l 2.782,0.543 -0.141,0.726"
         style="fill:#f8cc09;fill-opacity:1;fill-rule:nonzero;stroke:none"
         id="path96" /><path
         d="m 205.043,163.359 -1.914,-1.164 -0.149,2.043 z m 0.773,0.485 -5.277,2.258 0.063,-0.856 1.636,-0.691 v -0.004 l 0.2,-2.774 -1.52,-0.925 0.062,-0.852 4.895,2.992 -0.059,0.852 v 0"
         style="fill:#f8cc09;fill-opacity:1;fill-rule:nonzero;stroke:none"
         id="path98" /><path
         d="m 118.059,150.656 -0.739,-0.195 0.817,-3.106 0.742,0.196 -0.82,3.105"
         style="fill:#f8cc09;fill-opacity:1;fill-rule:nonzero;stroke:none"
         id="path100" /><path
         d="m 201.941,150.656 0.743,-0.191 -0.821,-3.11 -0.738,0.196 0.816,3.105"
         style="fill:#f8cc09;fill-opacity:1;fill-rule:nonzero;stroke:none"
         id="path102" /><path
         d="m 125.516,136.773 -1.086,-1.96 -1.141,1.699 z m 0.429,0.805 -5.703,-0.656 0.481,-0.711 1.765,0.211 v -0.004 l 1.551,-2.309 -0.863,-1.558 0.476,-0.711 2.77,5.027 -0.477,0.711 v 0"
         style="fill:#f8cc09;fill-opacity:1;fill-rule:nonzero;stroke:none"
         id="path104" /><path
         d="m 128.129,134.465 -3.637,-3.399 0.485,-0.519 3.062,2.863 -1.605,-4.422 0.554,-0.593 4.395,1.332 -3.008,-2.809 0.484,-0.52 3.633,3.399 -0.738,0.785 -4.461,-1.332 1.672,4.316 -0.836,0.899"
         style="fill:#f8cc09;fill-opacity:1;fill-rule:nonzero;stroke:none"
         id="path106" /><path
         d="m 133.418,129.063 c -1.02,-1.356 -2.043,-2.715 -3.066,-4.071 1.324,-0.996 2.644,-1.992 3.964,-2.984 l 0.438,0.578 c -1.125,0.848 -2.25,1.691 -3.375,2.539 l 0.934,1.238 c 1.011,-0.761 2.027,-1.523 3.039,-2.289 l 0.433,0.578 c -1.012,0.762 -2.023,1.524 -3.039,2.289 l 0.828,1.094 c 1.082,-0.812 2.164,-1.629 3.246,-2.441 l 0.438,0.582 c -1.281,0.961 -2.559,1.926 -3.84,2.887"
         style="fill:#f8cc09;fill-opacity:1;fill-rule:nonzero;stroke:none"
         id="path108" /><path
         d="m 138.723,124.422 2.304,-1.254 0.75,-1.035 -0.871,-0.551 -2.031,0.898 -0.926,0.497 z m -0.317,0.992 c -0.801,-1.5 -1.601,-3 -2.398,-4.5 l 0.656,-0.351 0.941,1.769 2.172,-1.148 0.532,-2.567 0.832,-0.445 c -0.188,0.902 -0.371,1.805 -0.559,2.711 l 1.586,0.375 0.387,1.344 -1.387,1.336 c -0.918,0.496 -1.84,0.984 -2.762,1.476"
         style="fill:#f8cc09;fill-opacity:1;fill-rule:nonzero;stroke:none"
         id="path110" /><path
         d="m 144.164,122.402 -1.926,-4.718 0.707,-0.289 1.93,4.718 -0.711,0.289"
         style="fill:#f8cc09;fill-opacity:1;fill-rule:nonzero;stroke:none"
         id="path112" /><path
         d="m 148.762,120.813 -1.633,0.234 -1.352,-0.469 -0.8,-1.152 -0.082,-1.375 0.679,-1.211 1.571,-0.86 1.804,-0.16 1.293,0.797 -0.664,0.367 -2.293,-0.332 c -1.273,0.438 -1.949,1.332 -1.582,2.536 0.457,1.304 1.711,1.332 2.828,0.984 l 1.539,-1.359 0.731,-0.114 -0.559,1.231 -1.48,0.883 v 0"
         style="fill:#f8cc09;fill-opacity:1;fill-rule:nonzero;stroke:none"
         id="path114" /><path
         d="m 154.199,118.809 0.727,-2.121 -2.028,0.292 z m -0.308,0.859 -3.336,-4.672 0.847,-0.121 1.028,1.449 h 0.004 l 2.754,-0.398 0.574,-1.684 0.847,-0.121 -1.875,5.422 -0.843,0.125"
         style="fill:#f8cc09;fill-opacity:1;fill-rule:nonzero;stroke:none"
         id="path116" /><path
         d="m 165.84,119.629 -1.539,-0.598 -0.949,-1.066 -0.137,-1.399 0.605,-1.238 1.184,-0.723 1.793,0.016 1.648,0.746 0.739,1.328 -0.758,-0.007 c -0.196,-1.016 -0.981,-1.239 -1.836,-1.411 -1.328,-0.242 -2.356,0.207 -2.621,1.438 -0.242,1.363 0.84,2 1.98,2.242 l 2.012,-0.434 0.691,0.262 -1.089,0.801 -1.723,0.043"
         style="fill:#f8cc09;fill-opacity:1;fill-rule:nonzero;stroke:none"
         id="path118" /><path
         d="m 169.242,120.234 c 0.485,-1.629 0.969,-3.257 1.453,-4.886 1.586,0.468 3.172,0.937 4.758,1.41 l -0.207,0.695 c -1.348,-0.402 -2.699,-0.801 -4.047,-1.203 l -0.441,1.488 c 1.215,0.364 2.43,0.723 3.644,1.082 l -0.203,0.692 c -1.215,-0.36 -2.429,-0.719 -3.644,-1.082 l -0.395,1.316 c 1.301,0.387 2.598,0.77 3.899,1.156 l -0.207,0.7 c -1.536,-0.457 -3.071,-0.914 -4.61,-1.368"
         style="fill:#f8cc09;fill-opacity:1;fill-rule:nonzero;stroke:none"
         id="path120" /><path
         d="m 174.762,121.969 c 0.711,-1.543 1.426,-3.086 2.136,-4.629 l 0.641,0.297 c -0.598,1.285 -1.191,2.57 -1.785,3.855 1.648,-0.746 3.289,-1.515 4.937,-2.273 l 0.329,0.027 0.64,0.297 c -0.711,1.543 -1.426,3.086 -2.14,4.625 l -0.637,-0.293 c 0.594,-1.285 1.187,-2.57 1.781,-3.855 -1.695,0.765 -3.379,1.554 -5.07,2.332 l -0.832,-0.383"
         style="fill:#f8cc09;fill-opacity:1;fill-rule:nonzero;stroke:none"
         id="path122" /><path
         d="m 180.359,124.598 0.399,-0.61 1.82,1.2 0.07,0.046 0.036,-0.054 2.367,-3.598 0.621,0.406 -2.371,3.602 -0.035,0.051 0.07,0.047 1.832,1.203 -0.398,0.609 -4.411,-2.902"
         style="fill:#f8cc09;fill-opacity:1;fill-rule:nonzero;stroke:none"
         id="path124" /><path
         d="m 186.527,128.078 1.946,1.766 1.273,0.336 0.152,-1.032 -1.539,-1.613 -0.718,-0.664 z m -1.039,0.031 c 1.153,-1.25 2.301,-2.5 3.453,-3.75 l 0.551,0.504 -1.359,1.477 1.801,1.672 2.597,-0.348 0.696,0.641 c -0.914,0.121 -1.829,0.242 -2.743,0.363 l 0.168,1.621 -1.199,0.813 -1.742,-0.946 -2.223,-2.047"
         style="fill:#f8cc09;fill-opacity:1;fill-rule:nonzero;stroke:none"
         id="path126" /><path
         d="m 192.313,133.867 2.191,-0.469 -1.293,-1.585 z m -0.895,0.18 2.281,-5.266 0.543,0.66 -0.711,1.633 v 0 l 1.762,2.153 1.738,-0.372 0.543,0.661 -5.613,1.191 -0.543,-0.66 v 0"
         style="fill:#f8cc09;fill-opacity:1;fill-rule:nonzero;stroke:none"
         id="path128" /><path
         d="m 193.641,136.934 4.277,-2.774 2.242,3.461 -0.605,0.395 -1.797,-2.77 -0.043,-0.07 -0.059,0.035 -3.613,2.344 -0.402,-0.621"
         style="fill:#f8cc09;fill-opacity:1;fill-rule:nonzero;stroke:none"
         id="path130" /></g></g></svg>
