<?xml version="1.0" encoding="UTF-8" standalone="no"?>
<svg
   xmlns:dc="http://purl.org/dc/elements/1.1/"
   xmlns:cc="http://creativecommons.org/ns#"
   xmlns:rdf="http://www.w3.org/1999/02/22-rdf-syntax-ns#"
   xmlns:svg="http://www.w3.org/2000/svg"
   xmlns="http://www.w3.org/2000/svg"
   version="1.1"
   id="svg2"
   xml:space="preserve"
   width="42.666668"
   height="42.666668"
   viewBox="0 0 42.666668 42.666668"><metadata
     id="metadata8"><rdf:RDF><cc:Work
         rdf:about=""><dc:format>image/svg+xml</dc:format><dc:type
           rdf:resource="http://purl.org/dc/dcmitype/StillImage" /></cc:Work></rdf:RDF></metadata><defs
     id="defs6" /><g
     id="g10"
     transform="matrix(1.3333333,0,0,-1.3333333,0,42.666667)"><g
       id="g12"
       transform="scale(0.1)"><path
         d="m 160.777,160.355 -1.554,-0.71 1.554,0.71"
         style="fill:#bababa;fill-opacity:1;fill-rule:evenodd;stroke:none"
         id="path14" /><path
         d="m 310.059,154.043 v 0.012 C 306.953,75.6992 243.359,12.4492 164.875,9.92969 V 45.6914 h 0.012 c 0.027,17.4063 0.019,34.8047 0.019,52.2109 33.68,18.9567 67.461,37.7737 101.172,56.6997 l 2.473,0.582 c 11.578,-0.032 23.152,-0.008 34.734,0 h 6.813 l -0.02,-0.559 z M 9.90234,155.184 h 6.80076 c 11.7032,-0.008 23.4024,-0.032 35.1055,0 1.1445,0.109 2.1094,-0.598 3.0742,-1.11 33.3985,-18.754 66.8442,-37.383 100.2222,-56.1717 0,-13.957 -0.019,-27.9335 0,-41.8906 V 9.92969 C 76.2422,12.4805 12.4297,76.3125 9.90234,155.184 Z M 155.105,310.055 v -47.157 c 0,-13.562 0.012,-27.128 -0.035,-40.695 C 121.152,203.234 87.2656,184.246 53.3516,165.266 l -1.5274,-0.301 c -11.7109,0.019 -23.4179,0.012 -35.1211,0.012 H 9.90234 C 12.5273,243.758 76.3047,307.504 155.105,310.055 Z m 4.879,-203.61 c -13.293,7.543 -26.804,14.809 -39.988,22.539 -9.762,5.106 -19.297,10.746 -28.9491,16.075 -8.9258,5.031 -17.9141,9.941 -26.793,15.043 31.8984,17.89 63.8161,35.753 95.7301,53.605 31.922,-17.891 63.922,-35.641 95.739,-53.684 -5.731,-3.164 -11.434,-6.406 -17.172,-9.582 -12.84,-7.152 -25.606,-14.539 -38.547,-21.457 -13.195,-7.73 -26.684,-14.996 -40.02,-22.539 z m 150.075,59.493 v 0 l 0.019,-0.59 0.012,-0.371 h -10.188 c -10.566,0 -21.156,0 -31.718,-0.012 -1.407,-0.098 -2.489,0.883 -3.664,1.48 -33.2,18.586 -66.375,37.176 -99.594,55.758 -0.067,17.438 0,34.879 -0.02,52.324 h -0.031 v 35.528 C 243.359,307.52 306.953,244.281 310.059,165.938 Z M 320,160.039 c 0,1.145 -0.023,2.266 -0.051,3.395 l -0.062,2.261 -0.028,0.633 V 166.32 C 316.48,251.52 245.984,319.961 159.984,319.961 71.9102,319.961 0.0664063,248.137 0,160.039 V 160 159.945 159.93 C 0.0664063,71.8516 71.9102,0.03125 159.984,0.03125 c 86,0 156.496,68.43355 159.875,153.62875 v -0.015 l 0.028,0.632 0.062,2.286 c 0.028,1.113 0.051,2.242 0.051,3.367 v 0.058 0.051"
         style="fill:#dd1e25;fill-opacity:1;fill-rule:nonzero;stroke:none"
         id="path16" /><path
         d="m 51.8086,155.184 c -11.7031,-0.032 -23.4023,-0.008 -35.1055,0 H 9.90234 C 12.4297,76.3125 76.2422,12.4805 155.105,9.93359 V 56.0117 c -0.019,13.9571 0,27.9336 0,41.8906 -33.378,18.7887 -66.8237,37.4177 -100.2222,56.1717 -0.9648,0.512 -1.9297,1.219 -3.0742,1.11"
         style="fill:#293781;fill-opacity:1;fill-rule:nonzero;stroke:none"
         id="path18" /><path
         d="m 310.078,154.625 0.02,0.559 h -6.813 c -11.582,-0.008 -23.156,-0.032 -34.734,0 l -2.473,-0.582 c -33.711,-18.926 -67.492,-37.743 -101.172,-56.6997 0,-17.4062 0.008,-34.8046 -0.019,-52.2109 h -0.012 V 9.93359 C 243.359,12.4492 306.953,75.6992 310.059,154.055 v -0.012 l 0.019,0.582"
         style="fill:#293781;fill-opacity:1;fill-rule:nonzero;stroke:none"
         id="path20" /><path
         d="m 164.926,222.203 c 33.219,-18.582 66.398,-37.172 99.594,-55.758 1.175,-0.597 2.261,-1.578 3.664,-1.48 10.562,0.012 21.152,0.012 31.718,0.012 h 10.188 l -0.012,0.371 -0.019,0.59 c -3.106,78.343 -66.7,141.582 -145.184,144.117 v -35.528 h 0.031 c 0.02,-17.445 -0.047,-34.886 0.02,-52.324"
         style="fill:#293781;fill-opacity:1;fill-rule:nonzero;stroke:none"
         id="path22" /><path
         d="m 200.004,128.984 c 12.941,6.918 25.707,14.305 38.547,21.457 5.738,3.176 11.441,6.418 17.172,9.582 -31.817,18.043 -63.817,35.793 -95.739,53.684 C 128.07,195.855 96.1523,177.992 64.2539,160.102 73.1328,155 82.1211,150.09 91.0469,145.059 c 9.6521,-5.329 19.1871,-10.969 28.9491,-16.075 13.184,-7.73 26.695,-14.996 39.988,-22.539 13.336,7.543 26.825,14.809 40.02,22.539"
         style="fill:#293781;fill-opacity:1;fill-rule:nonzero;stroke:none"
         id="path24" /><path
         d="m 16.7031,164.977 c 11.7032,0 23.4102,0.007 35.1211,-0.012 l 1.5274,0.301 c 33.914,18.98 67.8004,37.968 101.7184,56.937 0.047,13.567 0.035,27.133 0.035,40.695 v 47.157 C 76.3047,307.504 12.5273,243.758 9.90234,164.977 h 6.80076"
         style="fill:#293781;fill-opacity:1;fill-rule:nonzero;stroke:none"
         id="path26" /><path
         d="m 159.816,200.867 c -1.125,-3.183 -2.031,-6.457 -3.156,-9.625 -3.539,-0.051 -7.062,0.02 -10.578,-0.027 2.719,-2.227 5.656,-4.176 8.488,-6.27 -0.945,-3.41 -2.218,-6.722 -3.172,-10.14 2.95,1.937 5.7,4.152 8.606,6.148 2.902,-1.996 5.644,-4.211 8.609,-6.148 -0.968,3.402 -2.222,6.73 -3.183,10.129 2.824,2.105 5.773,4.054 8.508,6.281 -3.528,0.047 -7.075,-0.024 -10.594,0.027 -1.133,3.184 -2.035,6.442 -3.156,9.629 z M 63.3203,160 c 32.2149,18.078 64.4527,36.113 96.6837,54.141 32.211,-18.078 64.535,-35.993 96.676,-54.211 -5.809,-3.2 -11.555,-6.473 -17.364,-9.676 -9.312,7.262 -18.703,14.476 -28.027,21.738 -1.969,1.582 -4.844,1.813 -7.09,0.762 -1.398,-0.652 -2.176,-2.199 -3.676,-2.68 -1.882,-0.59 -3.898,0.199 -5.359,1.395 -3.074,2.781 -8.305,2.422 -11.226,-0.371 -8.204,-8.899 -16.282,-17.918 -24.754,-26.539 -0.832,-0.754 -1.614,-1.875 -2.871,-1.758 -7.551,-0.149 -15.118,-0.051 -22.68,0.035 -1.727,-0.051 -3.094,1.316 -4.817,1.266 -2.859,0.246 -6.32,0.074 -8.351,2.457 -2.922,2.914 -5.723,5.933 -8.781,8.703 -5.207,3.535 -12.9418,0.105 -14.4692,-5.852 -3.2343,0.781 -6.0273,-1.617 -6.8515,-4.59 -9.0117,5.078 -18.0742,10.039 -27.043,15.18"
         style="fill:#ffffff;fill-opacity:1;fill-rule:nonzero;stroke:none"
         id="path28" /><path
         d="m 119.613,128.598 c 26.926,0.039 53.856,0.039 80.785,0 -13.332,-7.821 -26.949,-15.153 -40.394,-22.758 -13.441,7.605 -27.078,14.937 -40.391,22.758"
         style="fill:#ffffff;fill-opacity:1;fill-rule:nonzero;stroke:none"
         id="path30" /><path
         d="m 159.816,200.867 0.372,0.004 c 1.121,-3.187 2.023,-6.445 3.156,-9.629 3.519,-0.051 7.066,0.02 10.594,-0.027 -2.735,-2.227 -5.684,-4.176 -8.508,-6.281 0.961,-3.399 2.215,-6.727 3.183,-10.129 -2.965,1.937 -5.707,4.152 -8.609,6.148 -2.906,-1.996 -5.656,-4.211 -8.606,-6.148 0.954,3.418 2.227,6.73 3.172,10.14 -2.832,2.094 -5.769,4.043 -8.488,6.27 3.516,0.047 7.039,-0.024 10.578,0.027 1.125,3.168 2.031,6.442 3.156,9.625"
         style="fill:#f4d909;fill-opacity:1;fill-rule:nonzero;stroke:none"
         id="path32" /><path
         d="m 183.938,171.098 c 2.921,2.793 8.152,3.152 11.226,0.371 1.461,-1.196 3.477,-1.985 5.359,-1.395 1.5,0.481 2.278,2.028 3.676,2.68 2.246,1.051 5.121,0.82 7.09,-0.762 9.324,-7.262 18.715,-14.476 28.027,-21.738 -12.964,-7.223 -25.851,-14.68 -38.918,-21.656 -26.929,0.039 -53.859,0.039 -80.785,0 -9.851,5.144 -19.508,10.832 -29.2497,16.222 0.8242,2.973 3.6172,5.371 6.8515,4.59 1.5274,5.957 9.2622,9.387 14.4692,5.852 3.058,-2.77 5.859,-5.789 8.781,-8.703 2.031,-2.383 5.492,-2.211 8.351,-2.457 1.723,0.05 3.09,-1.317 4.817,-1.266 7.562,-0.086 15.129,-0.184 22.68,-0.035 1.257,-0.117 2.039,1.004 2.871,1.758 8.472,8.621 16.55,17.64 24.754,26.539"
         style="fill:#28893d;fill-opacity:1;fill-rule:nonzero;stroke:none"
         id="path34" /></g></g></svg>
