<?xml version="1.0" encoding="UTF-8" standalone="no"?>
<svg
   xmlns:dc="http://purl.org/dc/elements/1.1/"
   xmlns:cc="http://creativecommons.org/ns#"
   xmlns:rdf="http://www.w3.org/1999/02/22-rdf-syntax-ns#"
   xmlns:svg="http://www.w3.org/2000/svg"
   xmlns="http://www.w3.org/2000/svg"
   version="1.1"
   id="svg2"
   xml:space="preserve"
   width="42.666668"
   height="42.666668"
   viewBox="0 0 42.666668 42.666668"><metadata
     id="metadata8"><rdf:RDF><cc:Work
         rdf:about=""><dc:format>image/svg+xml</dc:format><dc:type
           rdf:resource="http://purl.org/dc/dcmitype/StillImage" /></cc:Work></rdf:RDF></metadata><defs
     id="defs6" /><g
     id="g10"
     transform="matrix(1.3333333,0,0,-1.3333333,0,42.666667)"><g
       id="g12"
       transform="scale(0.1)"><path
         d="M 310.523,214.348 H 9.46094 C 31.7266,275.949 90.7227,320 159.988,320 c 69.27,0 128.274,-44.051 150.535,-105.652"
         style="fill:#ae1c28;fill-opacity:1;fill-rule:evenodd;stroke:none"
         id="path14" /><path
         d="M 9.46094,105.664 H 310.523 C 288.262,44.0547 229.258,0 159.988,0 90.7227,0 31.7266,44.0547 9.46094,105.664"
         style="fill:#29448f;fill-opacity:1;fill-rule:evenodd;stroke:none"
         id="path16" /><path
         d="M 310.523,105.664 H 9.46094 C 3.33984,122.629 0,140.918 0,160.012 0,179.07 3.33984,197.371 9.46094,214.348 H 310.523 C 316.648,197.371 320,179.07 320,160.012 c 0,-19.094 -3.352,-37.383 -9.477,-54.348"
         style="fill:#ffffff;fill-opacity:1;fill-rule:evenodd;stroke:none"
         id="path18" /></g></g></svg>
