<?xml version="1.0" encoding="UTF-8" standalone="no"?>
<svg
   xmlns:dc="http://purl.org/dc/elements/1.1/"
   xmlns:cc="http://creativecommons.org/ns#"
   xmlns:rdf="http://www.w3.org/1999/02/22-rdf-syntax-ns#"
   xmlns:svg="http://www.w3.org/2000/svg"
   xmlns="http://www.w3.org/2000/svg"
   version="1.1"
   id="svg2"
   xml:space="preserve"
   width="42.666668"
   height="42.666668"
   viewBox="0 0 42.666668 42.666668"><metadata
     id="metadata8"><rdf:RDF><cc:Work
         rdf:about=""><dc:format>image/svg+xml</dc:format><dc:type
           rdf:resource="http://purl.org/dc/dcmitype/StillImage" /></cc:Work></rdf:RDF></metadata><defs
     id="defs6" /><g
     id="g10"
     transform="matrix(1.3333333,0,0,-1.3333333,0,42.666667)"><g
       id="g12"
       transform="scale(0.1)"><path
         d="M 126.379,316.258 C 113.402,313.457 101.008,309.09 89.3906,303.34 v -125 H 1.10547 C 0.40625,172.266 0,166.102 0,159.844 0,153.586 0.40625,147.422 1.10938,141.348 H 89.3906 V 16.3555 C 101.008,10.6055 113.402,6.23047 126.379,3.4375 V 141.348 h 192.512 c 0.711,6.074 1.109,12.238 1.109,18.496 0,6.258 -0.398,12.422 -1.102,18.496 H 126.379 v 137.918"
         style="fill:#222f61;fill-opacity:1;fill-rule:nonzero;stroke:none"
         id="path14" /><path
         d="M 70.9063,292.625 V 196.836 H 4.375 C 2.93359,190.789 1.83594,184.617 1.10547,178.34 h 69.80083 18.496 v 18.496 106.512 c -6.4101,-3.172 -12.6015,-6.746 -18.496,-10.723"
         style="fill:#ffffff;fill-opacity:1;fill-rule:evenodd;stroke:none"
         id="path16" /><path
         d="m 1.10938,141.348 c 0.72656,-6.282 1.82421,-12.453 3.26953,-18.496 H 70.9063 V 27.0586 c 5.8945,-3.9648 12.0859,-7.5391 18.496,-10.7109 V 122.852 141.348 H 70.9063 1.10938"
         style="fill:#ffffff;fill-opacity:1;fill-rule:evenodd;stroke:none"
         id="path18" /><path
         d="m 315.621,196.836 h -170.75 v 122.277 c -6.273,-0.59 -12.445,-1.554 -18.492,-2.855 V 316.063 282.41 196.836 178.34 h 18.492 174.027 c -0.734,6.277 -1.832,12.449 -3.277,18.496"
         style="fill:#ffffff;fill-opacity:1;fill-rule:evenodd;stroke:none"
         id="path20" /><path
         d="M 318.891,141.348 H 126.379 V 3.4375 c 6.047,-1.30078 12.219,-2.26562 18.492,-2.863281 V 0.644531 104.102 v 18.75 h 170.75 c 1.442,6.043 2.543,12.214 3.27,18.496"
         style="fill:#ffffff;fill-opacity:1;fill-rule:evenodd;stroke:none"
         id="path22" /><path
         d="m 70.9063,196.836 v 95.793 C 38.0469,270.488 13.8203,236.473 4.375,196.836 h 66.5313"
         style="fill:#ee222d;fill-opacity:1;fill-rule:evenodd;stroke:none"
         id="path24" /><path
         d="m 144.871,196.836 h 170.75 C 298.844,267.223 235.379,319.852 160,319.852 c -5.102,0 -10.145,-0.266 -15.129,-0.735 V 196.836"
         style="fill:#ee222d;fill-opacity:1;fill-rule:evenodd;stroke:none"
         id="path26" /><path
         d="M 70.9063,122.852 H 4.37891 C 13.8242,83.2188 38.0469,49.2109 70.9063,27.0664 v 95.7856"
         style="fill:#ee222d;fill-opacity:1;fill-rule:evenodd;stroke:none"
         id="path28" /><path
         d="M 144.871,122.852 V 0.582031 C 149.855,0.109375 154.898,-0.15625 160,-0.15625 c 75.375,0 138.844,52.62895 155.621,123.00825 h -170.75"
         style="fill:#ee222d;fill-opacity:1;fill-rule:evenodd;stroke:none"
         id="path30" /></g></g></svg>
