<?xml version="1.0" encoding="UTF-8" standalone="no"?>
<svg
   xmlns:dc="http://purl.org/dc/elements/1.1/"
   xmlns:cc="http://creativecommons.org/ns#"
   xmlns:rdf="http://www.w3.org/1999/02/22-rdf-syntax-ns#"
   xmlns:svg="http://www.w3.org/2000/svg"
   xmlns="http://www.w3.org/2000/svg"
   version="1.1"
   id="svg2"
   xml:space="preserve"
   width="42.666668"
   height="42.666668"
   viewBox="0 0 42.666668 42.666668"><metadata
     id="metadata8"><rdf:RDF><cc:Work
         rdf:about=""><dc:format>image/svg+xml</dc:format><dc:type
           rdf:resource="http://purl.org/dc/dcmitype/StillImage" /></cc:Work></rdf:RDF></metadata><defs
     id="defs6" /><g
     id="g10"
     transform="matrix(1.3333333,0,0,-1.3333333,0,42.666667)"><g
       id="g12"
       transform="scale(0.1)"><path
         d="M 159.984,0.00390625 C 248.121,0.00390625 320,71.8555 320,160 320,248.125 248.121,319.996 159.984,319.996 71.8711,319.996 0,248.125 0,160 0,71.8555 71.8711,0.00390625 159.984,0.00390625"
         style="fill:#ffffff;fill-opacity:1;fill-rule:evenodd;stroke:none"
         id="path14" /><path
         d="M 67.4883,269.457 C 67.5313,194.602 67.4414,119.723 67.5313,44.9258 123.59,44.8359 179.664,44.8789 235.742,44.8789 233.34,47.668 230.527,50.1406 228.035,52.7891 191.012,89.875 153.84,126.781 116.98,163.953 c 39.606,0.09 79.204,0 118.809,0.043 -56.035,35.266 -112.199,70.363 -168.3007,105.461 z m -8.4258,14.07 h 0.1133 C 126.332,241.285 193.781,199.512 260.941,157.238 c -41.992,-0.117 -84.019,0 -126.027,-0.05 C 175.102,116.891 215.352,76.7031 255.59,36.4727 H 59.0625 V 283.527"
         style="fill:#293e90;fill-opacity:1;fill-rule:nonzero;stroke:none"
         id="path16" /><path
         d="m 103.695,126.508 c -4.0466,3.015 -7.9997,6.164 -12.0895,9.078 0.539,-4.988 1.2422,-9.93 1.8164,-14.922 -4.9844,0.543 -9.9766,1.215 -14.9649,1.797 2.9219,-4.086 6.0664,-8.043 9.0391,-12.09 -4.6328,-2.019 -9.3086,-3.867 -13.918,-5.933 4.6563,-1.973 9.2852,-3.958 13.918,-5.8872 -2.9727,-4.0899 -6.1172,-8.043 -9.082,-12.0899 5.0312,0.5352 10.0234,1.211 15.0078,1.7969 -0.5742,-4.9883 -1.2774,-9.9805 -1.8164,-15.0156 4.0429,3.0586 8.0898,6.0273 12.0465,9.1719 2.028,-4.586 3.754,-9.3516 6.024,-13.7969 1.933,4.5781 3.929,9.168 5.867,13.7969 3.953,-3.1446 8.004,-6.1133 12.047,-9.1719 -0.539,5.0351 -1.211,10.0273 -1.844,15.0156 5.012,-0.5859 10,-1.2617 15.035,-1.7969 -2.992,4.0469 -6.109,8 -9.078,12.0899 4.606,1.9292 9.238,3.9572 13.914,5.8442 -4.629,2.109 -9.308,3.957 -13.914,5.976 2.969,4.047 6.086,8.004 9.035,12.09 -4.992,-0.582 -9.98,-1.254 -14.992,-1.84 0.586,4.992 1.305,9.977 1.844,14.965 -4.09,-2.961 -8.051,-6.063 -12.094,-9.078 -1.891,4.68 -3.957,9.262 -5.867,13.937 -2.043,-4.629 -3.996,-9.257 -5.934,-13.937 z m 1.645,82.613 c -0.586,-2.269 -1.145,-4.5 -1.688,-6.769 -2.066,1.152 -4.0465,2.429 -6.0661,3.589 0.2422,-2.304 0.6524,-4.621 0.9649,-6.929 -2.3399,0.25 -4.5899,0.652 -6.9453,0.945 1.1015,-2.066 2.4023,-4.043 3.5742,-6.066 -2.2031,-0.493 -4.4024,-1.145 -6.6328,-1.618 1.4219,-1.707 3.7109,-2.832 5.4609,-4.359 -0.9414,-0.652 -1.9062,-1.394 -2.8515,-2.066 -6.8555,3.886 -12.2032,10.363 -15.1016,17.699 -0.0195,-8.254 3.125,-16.442 8.6992,-22.559 8.9844,-10.152 24.3591,-13.75 36.8831,-8.738 12.695,4.691 21.683,17.777 21.504,31.34 -2.903,-7.336 -8.227,-13.836 -15.102,-17.742 -0.945,0.672 -1.91,1.414 -2.855,2.066 1.777,1.527 3.957,2.652 5.484,4.359 -2.223,0.473 -4.449,1.125 -6.676,1.618 1.192,2.023 2.477,4 3.598,6.066 -2.36,-0.293 -4.629,-0.695 -6.945,-0.945 0.289,2.308 0.695,4.625 0.964,6.929 -2.019,-1.16 -3.996,-2.437 -6.066,-3.589 -0.492,2.269 -1.125,4.543 -1.707,6.769 -1.578,-1.73 -2.723,-3.805 -4.27,-5.531 -1.421,1.851 -2.699,3.801 -4.226,5.531 M 67.4883,269.457 C 123.59,234.359 179.754,199.262 235.789,163.996 c -39.605,-0.043 -79.203,0.047 -118.809,-0.043 36.86,-37.172 74.032,-74.078 111.055,-111.1639 2.492,-2.6485 5.305,-5.1211 7.707,-7.9102 -56.078,0 -112.152,-0.043 -168.2107,0.0469 -0.0899,74.7972 0,149.6762 -0.043,224.5312"
         style="fill:#de183b;fill-opacity:1;fill-rule:nonzero;stroke:none"
         id="path18" /><path
         d="m 105.34,209.121 c 1.527,-1.73 2.805,-3.68 4.226,-5.531 1.547,1.726 2.692,3.801 4.27,5.531 0.582,-2.226 1.215,-4.5 1.707,-6.769 2.07,1.152 4.047,2.429 6.066,3.589 -0.269,-2.304 -0.675,-4.621 -0.964,-6.929 2.316,0.25 4.585,0.652 6.945,0.945 -1.121,-2.066 -2.406,-4.043 -3.598,-6.066 2.227,-0.493 4.453,-1.145 6.676,-1.618 -1.527,-1.707 -3.707,-2.832 -5.484,-4.359 0.945,-0.652 1.91,-1.394 2.855,-2.066 6.875,3.906 12.199,10.406 15.102,17.742 0.179,-13.563 -8.809,-26.649 -21.504,-31.34 -12.524,-5.012 -27.8987,-1.414 -36.8831,8.738 -5.5742,6.117 -8.7187,14.305 -8.6992,22.559 2.8984,-7.336 8.2461,-13.813 15.1016,-17.699 0.9453,0.672 1.9101,1.414 2.8515,2.066 -1.75,1.527 -4.039,2.652 -5.4609,4.359 2.2304,0.473 4.4297,1.125 6.6328,1.618 -1.1719,2.023 -2.4727,4 -3.5742,6.066 2.3554,-0.293 4.6054,-0.695 6.9453,-0.945 -0.3125,2.308 -0.7227,4.625 -0.9649,6.929 2.0196,-1.16 4.0001,-2.437 6.0661,-3.589 0.543,2.269 1.102,4.5 1.688,6.769"
         style="fill:#ffffff;fill-opacity:1;fill-rule:nonzero;stroke:none"
         id="path20" /><path
         d="m 103.695,126.508 c 1.938,4.68 3.891,9.308 5.934,13.937 1.91,-4.675 3.976,-9.257 5.867,-13.937 4.043,3.015 8.004,6.117 12.094,9.078 -0.539,-4.988 -1.258,-9.973 -1.844,-14.965 5.012,0.586 10,1.258 14.992,1.84 -2.949,-4.086 -6.066,-8.043 -9.035,-12.09 4.606,-2.019 9.285,-3.867 13.914,-5.976 -4.676,-1.887 -9.308,-3.915 -13.914,-5.8442 2.969,-4.0899 6.086,-8.043 9.078,-12.0899 -5.035,0.5352 -10.023,1.211 -15.035,1.7969 0.633,-4.9883 1.305,-9.9805 1.844,-15.0156 -4.043,3.0586 -8.094,6.0273 -12.047,9.1719 -1.938,-4.6289 -3.934,-9.2188 -5.867,-13.7969 -2.27,4.4453 -3.996,9.2109 -6.024,13.7969 -3.9567,-3.1446 -8.0036,-6.1133 -12.0465,-9.1719 0.539,5.0351 1.2422,10.0273 1.8164,15.0156 -4.9844,-0.5859 -9.9766,-1.2617 -15.0078,-1.7969 2.9648,4.0469 6.1093,8 9.082,12.0899 -4.6328,1.9292 -9.2617,3.9142 -13.918,5.8872 4.6094,2.066 9.2852,3.914 13.918,5.933 -2.9727,4.047 -6.1172,8.004 -9.0391,12.09 4.9883,-0.582 9.9805,-1.254 14.9649,-1.797 -0.5742,4.992 -1.2774,9.934 -1.8164,14.922 4.0898,-2.914 8.0429,-6.063 12.0895,-9.078"
         style="fill:#ffffff;fill-opacity:1;fill-rule:nonzero;stroke:none"
         id="path22" /></g></g></svg>
