<?xml version="1.0" encoding="UTF-8" standalone="no"?>
<svg
   xmlns:dc="http://purl.org/dc/elements/1.1/"
   xmlns:cc="http://creativecommons.org/ns#"
   xmlns:rdf="http://www.w3.org/1999/02/22-rdf-syntax-ns#"
   xmlns:svg="http://www.w3.org/2000/svg"
   xmlns="http://www.w3.org/2000/svg"
   version="1.1"
   id="svg2"
   xml:space="preserve"
   width="42.666668"
   height="42.666668"
   viewBox="0 0 42.666668 42.666668"><metadata
     id="metadata8"><rdf:RDF><cc:Work
         rdf:about=""><dc:format>image/svg+xml</dc:format><dc:type
           rdf:resource="http://purl.org/dc/dcmitype/StillImage" /></cc:Work></rdf:RDF></metadata><defs
     id="defs6" /><g
     id="g10"
     transform="matrix(1.3333333,0,0,-1.3333333,0,42.666667)"><g
       id="g12"
       transform="scale(0.1)"><path
         d="M 319.273,175 C 311.672,256.133 243.074,319.996 160,319.996 76.9414,319.996 8.32813,256.133 0.726563,175 H 319.273"
         style="fill:#273679;fill-opacity:1;fill-rule:evenodd;stroke:none"
         id="path14" /><path
         d="M 0.730469,145 C 8.33984,63.8633 76.9492,0.00390625 160,0.00390625 243.066,0.00390625 311.66,63.8633 319.27,145 H 0.730469"
         style="fill:#273679;fill-opacity:1;fill-rule:evenodd;stroke:none"
         id="path16" /><path
         d="M 0,160.012 C 0,154.949 0.265625,149.945 0.730469,145 H 319.27 c 0.464,4.945 0.73,9.949 0.73,15.012 0,5.054 -0.266,10.051 -0.727,14.988 H 0.726563 C 0.265625,170.063 0,165.066 0,160.012"
         style="fill:#fbc213;fill-opacity:1;fill-rule:nonzero;stroke:none"
         id="path18" /><path
         d="m 96.3281,121.551 c 2,7.793 3.9059,15.633 5.9379,23.449 2.019,-7.816 3.906,-15.656 5.886,-23.449 5.661,5.769 11.203,11.613 16.887,17.363 -2.195,-7.769 -4.445,-15.504 -6.648,-23.273 7.777,2.16 15.504,4.468 23.281,6.605 -5.758,-5.66 -11.621,-11.191 -17.348,-16.875 7.817,-1.949 15.637,-3.863 23.434,-5.8827 -7.797,-2.0274 -15.637,-3.9102 -23.434,-5.9102 5.75,-5.6406 11.59,-11.1875 17.348,-16.8476 -7.777,2.1562 -15.504,4.4453 -23.281,6.5976 2.183,-7.75 4.453,-15.4726 6.629,-23.2226 -5.684,5.707 -11.207,11.5898 -16.868,17.2929 -2.121,-7.6328 -3.554,-15.4726 -6.027,-22.9961 -1.953,7.6524 -3.8203,15.3438 -5.7773,22.9961 C 90.668,71.6953 85.168,65.8125 79.4766,60.1055 c 2.1836,7.75 4.4531,15.4726 6.6132,23.2226 -7.7734,-2.1523 -15.5039,-4.4414 -23.2812,-6.5976 5.7539,5.6601 11.5937,11.207 17.3945,16.8476 -7.8203,2 -15.664,3.8828 -23.4531,5.9102 7.7891,2.0197 15.6094,3.9337 23.4297,5.8827 -5.7266,5.684 -11.5938,11.215 -17.3516,16.875 7.7578,-2.137 15.5117,-4.445 23.2617,-6.605 -2.1835,7.769 -4.4492,15.504 -6.6132,23.273 5.664,-5.75 11.2422,-11.594 16.8515,-17.363"
         style="fill:#ffffff;fill-opacity:1;fill-rule:nonzero;stroke:none"
         id="path20" /></g></g></svg>
