<?xml version="1.0" encoding="UTF-8" standalone="no"?>
<svg
   xmlns:dc="http://purl.org/dc/elements/1.1/"
   xmlns:cc="http://creativecommons.org/ns#"
   xmlns:rdf="http://www.w3.org/1999/02/22-rdf-syntax-ns#"
   xmlns:svg="http://www.w3.org/2000/svg"
   xmlns="http://www.w3.org/2000/svg"
   version="1.1"
   id="svg2"
   xml:space="preserve"
   width="42.666668"
   height="42.666668"
   viewBox="0 0 42.666668 42.666668"><metadata
     id="metadata8"><rdf:RDF><cc:Work
         rdf:about=""><dc:format>image/svg+xml</dc:format><dc:type
           rdf:resource="http://purl.org/dc/dcmitype/StillImage" /></cc:Work></rdf:RDF></metadata><defs
     id="defs6" /><g
     id="g10"
     transform="matrix(1.3333333,0,0,-1.3333333,0,42.666667)"><g
       id="g12"
       transform="scale(0.1)"><path
         d="m 160.777,160.355 c -0.507,-0.234 -1.047,-0.457 -1.554,-0.71 0.507,0.253 1.047,0.476 1.554,0.71"
         style="fill:#bababa;fill-opacity:1;fill-rule:evenodd;stroke:none"
         id="path14" /><path
         d="m 159.945,199.906 v 120.11 C 85.5977,319.988 22.8242,268.809 5.02344,199.906 H 159.945"
         style="fill:#222f61;fill-opacity:1;fill-rule:nonzero;stroke:none"
         id="path16" /><path
         d="m 50.1445,272.652 c 0,1.168 0,2.332 0,3.5 -1.207,-1.144 -2.4257,-2.312 -3.5976,-3.5 1.2148,0 2.4101,0 3.5976,0"
         style="fill:#ffffff;fill-opacity:1;fill-rule:nonzero;stroke:none"
         id="path18" /><path
         d="m 50.1445,272.652 c -1.1875,0 -2.3828,0 -3.5976,0 -7.2344,-7.281 -13.7461,-15.238 -19.4805,-23.769 7.7149,0 15.3984,0 23.0781,0 0,-16.317 -0.0468,-32.672 0,-48.977 6.5625,0 13.0313,0 19.5508,0 0.0391,16.305 0,32.66 0.0391,48.977 30.0156,0 60.0976,0 90.1406,0 0.07,7.949 0.07,15.836 0.039,23.769 -30.082,0 -60.164,0 -90.1796,0 -0.0196,6.426 -0.0196,12.871 -0.0196,19.321 -6.9414,-4.762 -13.4531,-10.043 -19.5703,-15.821 0,-1.168 0,-2.332 0,-3.5"
         style="fill:#d11d2c;fill-opacity:1;fill-rule:nonzero;stroke:none"
         id="path20" /><path
         d="m 159.383,319.988 c -0.789,0 -1.578,0 -2.387,-0.023 -20.598,-12.801 -41.379,-25.231 -62.0038,-37.969 -1.0352,-0.672 -2.2031,-1.074 -3.375,-0.965 -4.6055,0.09 -9.2539,-0.109 -13.8828,0.09 20.4023,12.715 40.9996,24.961 61.4726,37.52 -0.019,0 -0.051,0 -0.051,0 -1.929,-0.246 -3.816,-0.543 -5.75,-0.856 -0.179,-0.043 -0.336,-0.062 -0.515,-0.082 -1.95,-0.34 -3.883,-0.723 -5.817,-1.133 -16.851,-10.308 -33.7927,-20.465 -50.6912,-30.734 -0.0195,3.484 -0.0195,6.973 -0.039,10.453 v 0 c -2.2461,-1.398 -4.4493,-2.828 -6.629,-4.316 0,-6.45 0,-12.895 0.0196,-19.321 30.0156,0 60.0976,0 90.1796,0 0.031,-7.933 0.031,-15.82 -0.039,-23.769 -30.043,0 -60.125,0 -90.1406,0 -0.0391,-16.317 0,-32.672 -0.0391,-48.977 2.1992,0 4.4453,0 6.6485,0 0,11.926 -0.0508,23.86 0.039,35.785 18.6094,-11.211 37.1642,-22.511 55.7692,-33.746 1.528,-0.875 2.985,-2.246 4.782,-2.039 7.578,0.039 15.171,-0.051 22.738,0.039 -21.91,13.684 -44.055,26.696 -65.965,40.418 4.7891,0.25 9.594,0.043 14.359,0.141 1.684,0.062 3.102,-1.172 4.536,-1.981 15.753,-9.664 31.5,-19.3 47.273,-28.933 0.109,-3.215 0.039,-6.477 0.07,-9.684 0.133,4.961 -0.07,9.879 -0.031,14.801 -14.039,8.606 -28.191,16.895 -42.144,25.699 14.023,0.207 28.105,0 42.144,0.098 0.07,13.496 0.07,27.027 0,40.574 -14.039,0.086 -28.121,-0.156 -42.144,0.086 13.91,8.879 28.218,16.899 42.105,25.859 0.109,4.34 0,8.653 0.02,12.993 -0.153,0 -0.329,-0.028 -0.512,-0.028"
         style="fill:#ffffff;fill-opacity:1;fill-rule:nonzero;stroke:none"
         id="path22" /><path
         d="m 139.207,318.641 c -20.473,-12.559 -41.0703,-24.805 -61.4726,-37.52 4.6289,-0.199 9.2773,0 13.8828,-0.09 1.1719,-0.109 2.3398,0.293 3.375,0.965 20.6248,12.738 41.4058,25.168 62.0038,37.969 -6.023,-0.11 -11.949,-0.563 -17.789,-1.324"
         style="fill:#d11d2c;fill-opacity:1;fill-rule:nonzero;stroke:none"
         id="path24" /><path
         d="m 27.0664,248.883 c -2.7617,-4.117 -5.3437,-8.36 -7.7266,-12.738 1.5938,0.964 3.1641,1.929 4.7422,2.894 1.2149,0.742 2.4258,1.574 3.7774,1.465 4.7187,-0.098 9.5,0.109 14.2461,-0.141 -9.7539,-6.109 -19.6016,-12.062 -29.4375,-18.015 -0.9414,-2.18 -1.7969,-4.379 -2.6485,-6.606 11.0078,6.649 21.9961,13.321 33.0078,19.949 0.0196,-11.925 0,-23.859 0.0196,-35.785 2.3828,0 4.7383,0 7.0976,0 -0.0468,16.305 0,32.66 0,48.977 -7.6797,0 -15.3632,0 -23.0781,0"
         style="fill:#ffffff;fill-opacity:1;fill-rule:nonzero;stroke:none"
         id="path26" /><path
         d="m 42.1055,240.363 c -4.7461,0.25 -9.5274,0.043 -14.2461,0.141 -1.3516,0.109 -2.5625,-0.723 -3.7774,-1.465 -1.5781,-0.965 -3.1484,-1.93 -4.7422,-2.894 -2.4492,-4.473 -4.6523,-9.082 -6.6718,-13.797 9.8359,5.953 19.6836,11.906 29.4375,18.015"
         style="fill:#d11d2c;fill-opacity:1;fill-rule:nonzero;stroke:none"
         id="path28" /><path
         d="m 93.707,240.363 c 4.7891,0.25 9.594,0.043 14.359,0.141 1.684,0.062 3.102,-1.172 4.536,-1.981 15.753,-9.664 31.5,-19.3 47.273,-28.933 0.109,-3.215 0.039,-6.477 0.07,-9.684 l -0.273,0.039 c -21.91,13.684 -44.055,26.696 -65.965,40.418"
         style="fill:#d11d2c;fill-opacity:1;fill-rule:nonzero;stroke:none"
         id="path30" /><path
         d="m 56.6602,265.281 c -3.5079,-0.133 -7.0586,0 -10.5664,-0.062 2.7929,-2.137 5.7148,-4.117 8.496,-6.25 -1.0312,-3.352 -2.1757,-6.649 -3.1914,-9.996 2.8829,1.972 5.668,4.129 8.543,6.129 2.8711,-2 5.6406,-4.157 8.5352,-6.129 -1.0352,3.347 -2.1563,6.644 -3.211,9.996 2.8086,2.133 5.7227,4.113 8.5157,6.25 -3.5079,0.062 -7.0508,-0.071 -10.5586,0.062 -1.125,3.324 -2.1368,6.653 -3.2813,9.953 -1.168,-3.3 -2.1523,-6.629 -3.2812,-9.953 z m -5.4805,7.164 c 5.0312,3.825 12.4961,3.825 17.5273,0 1.0938,-0.875 2.1094,-1.859 2.9571,-2.965 3.8281,-5.054 3.8281,-12.488 0,-17.523 -0.8477,-1.121 -1.836,-2.109 -2.9571,-2.961 -5.0312,-3.848 -12.4961,-3.848 -17.5273,0 -1.125,0.852 -2.1094,1.84 -2.9688,2.961 -3.8437,5.035 -3.8437,12.469 0,17.523 0.8594,1.106 1.8438,2.09 2.9688,2.965"
         style="fill:#222f61;fill-opacity:1;fill-rule:nonzero;stroke:none"
         id="path32" /><path
         d="m 64.9766,282.176 c -0.4297,1.773 -1.0821,3.461 -1.5938,5.195 -0.9258,-0.703 -1.8281,-1.418 -2.7422,-2.137 1.4571,-0.988 2.8321,-2.132 4.336,-3.058"
         style="fill:#f7cf0d;fill-opacity:1;fill-rule:nonzero;stroke:none"
         id="path34" /><path
         d="m 56.6602,265.281 c 1.1289,3.324 2.1132,6.653 3.2812,9.953 1.1445,-3.3 2.1563,-6.629 3.2813,-9.953 3.5078,-0.133 7.0507,0 10.5586,-0.062 -2.793,-2.137 -5.7071,-4.117 -8.5157,-6.25 1.0547,-3.352 2.1758,-6.649 3.211,-9.996 -2.8946,1.972 -5.6641,4.129 -8.5352,6.129 -2.875,-2 -5.6601,-4.157 -8.543,-6.129 1.0157,3.347 2.1602,6.644 3.1914,9.996 -2.7812,2.133 -5.7031,4.113 -8.496,6.25 3.5078,0.062 7.0585,-0.071 10.5664,0.062"
         style="fill:#f7cf0d;fill-opacity:1;fill-rule:nonzero;stroke:none"
         id="path36" /><path
         d="m 111.238,269.91 c 0.821,-1.887 1.278,-3.957 2.02,-5.863 2.039,-0.113 4.105,0.047 6.176,-0.094 -1.575,-1.348 -3.325,-2.398 -4.942,-3.707 0.543,-1.996 1.348,-3.906 1.84,-5.926 -1.75,1.102 -3.324,2.442 -5.031,3.575 -1.774,-1.106 -3.367,-2.5 -5.117,-3.625 0.531,2.027 1.324,3.98 1.836,6 -1.594,1.285 -3.372,2.359 -4.946,3.683 2.094,0.16 4.184,-0.086 6.246,0.141 0.68,1.929 1.215,3.879 1.918,5.816"
         style="fill:#f7cf0d;fill-opacity:1;fill-rule:nonzero;stroke:none"
         id="path38" /><path
         d="m 58.0117,233.398 c 0.6992,1.754 0.9844,3.981 1.9297,5.461 0.9219,-1.461 1.2109,-3.707 1.9063,-5.461 2.1171,-0.199 4.25,0 6.3593,-0.085 -1.6172,-1.305 -3.3672,-2.43 -5.0312,-3.688 0.4492,-2.02 1.3515,-3.93 1.8242,-5.957 -1.7773,1.062 -3.3242,2.453 -5.0586,3.555 -1.7539,-1.102 -3.2812,-2.493 -5.0781,-3.555 0.4922,2.027 1.3984,3.937 1.8164,5.98 -1.6641,1.235 -3.3945,2.36 -5.0078,3.665 2.1172,0.085 4.2187,-0.114 6.3398,0.085"
         style="fill:#f7cf0d;fill-opacity:1;fill-rule:nonzero;stroke:none"
         id="path40" /><path
         d="m 159.984,320.016 c -0.011,0 -0.023,0 -0.039,0 V 199.906 H 5.05078 C 1.75391,187.141 0,173.77 0,160 0,71.8594 71.8516,-0.015625 159.984,-0.015625 248.125,-0.015625 320,71.8594 320,160 c 0,88.117 -71.875,160.016 -160.016,160.016"
         style="fill:#f7cf0d;fill-opacity:1;fill-rule:evenodd;stroke:none"
         id="path42" /></g></g></svg>
