<?xml version="1.0" encoding="UTF-8" standalone="no"?>
<svg
   xmlns:dc="http://purl.org/dc/elements/1.1/"
   xmlns:cc="http://creativecommons.org/ns#"
   xmlns:rdf="http://www.w3.org/1999/02/22-rdf-syntax-ns#"
   xmlns:svg="http://www.w3.org/2000/svg"
   xmlns="http://www.w3.org/2000/svg"
   version="1.1"
   id="svg2"
   xml:space="preserve"
   width="42.666668"
   height="42.666668"
   viewBox="0 0 42.666668 42.666668"><metadata
     id="metadata8"><rdf:RDF><cc:Work
         rdf:about=""><dc:format>image/svg+xml</dc:format><dc:type
           rdf:resource="http://purl.org/dc/dcmitype/StillImage" /></cc:Work></rdf:RDF></metadata><defs
     id="defs6" /><g
     id="g10"
     transform="matrix(1.3333333,0,0,-1.3333333,0,42.666667)"><g
       id="g12"
       transform="scale(0.1)"><path
         d="M 159.988,-0.0117188 C 248.129,-0.0117188 320,71.8633 320,160.004 320,248.117 248.129,320.012 159.988,320.012 71.8516,320.012 0,248.117 0,160.004 0,71.8633 71.8516,-0.0117188 159.988,-0.0117188"
         style="fill:#273375;fill-opacity:1;fill-rule:evenodd;stroke:none"
         id="path14" /><path
         d="m 50.1445,272.652 c 0,1.172 0,2.336 0,3.504 -1.207,-1.144 -2.4257,-2.312 -3.5976,-3.504 1.2187,0 2.4101,0 3.5976,0"
         style="fill:#ffffff;fill-opacity:1;fill-rule:nonzero;stroke:none"
         id="path16" /><path
         d="m 159.383,319.988 c -0.785,0 -1.578,0 -2.379,-0.019 -20.609,-12.809 -41.387,-25.235 -62.0118,-37.973 -1.0352,-0.676 -2.2031,-1.078 -3.375,-0.965 -4.6055,0.09 -9.2539,-0.113 -13.8828,0.09 20.3984,12.715 40.9996,24.965 61.4726,37.52 -0.019,0 -0.047,0 -0.047,0 -1.93,-0.246 -3.82,-0.539 -5.75,-0.852 -0.18,-0.047 -0.34,-0.066 -0.519,-0.09 -1.95,-0.34 -3.883,-0.722 -5.817,-1.125 -16.851,-10.316 -33.7888,-20.469 -50.6873,-30.734 -0.0234,3.48 -0.0234,6.965 -0.0429,10.449 v 0 c -2.25,-1.394 -4.4493,-2.832 -6.629,-4.316 0,-6.446 0,-12.895 0.0235,-19.321 30.0156,0 60.0977,0 90.1837,0 0.019,-7.933 0.019,-15.82 -0.047,-23.773 -30.039,0 -60.1211,0 -90.1367,0 -0.043,-16.309 0,-32.664 -0.043,-48.977 2.1992,0 4.4414,0 6.6485,0 0,11.926 -0.0508,23.86 0.0429,35.793 18.6055,-11.218 37.1603,-22.511 55.7653,-33.746 1.528,-0.883 2.985,-2.25 4.782,-2.047 7.578,0.047 15.168,-0.043 22.738,0.047 -21.899,13.676 -44.055,26.688 -65.965,40.418 4.793,0.246 9.594,0.043 14.359,0.133 1.684,0.07 3.102,-1.168 4.543,-1.977 15.746,-9.66 31.493,-19.3 47.266,-28.937 0.113,-3.215 0.047,-6.473 0.066,-9.684 0.137,4.965 -0.066,9.887 -0.019,14.805 -14.043,8.606 -28.199,16.898 -42.152,25.703 14.023,0.203 28.109,0 42.152,0.09 0.066,13.5 0.066,27.027 0,40.578 -14.043,0.09 -28.129,-0.16 -42.152,0.09 13.91,8.875 28.218,16.898 42.105,25.859 0.113,4.336 0,8.649 0.02,12.985 -0.153,0 -0.336,-0.024 -0.512,-0.024"
         style="fill:#ffffff;fill-opacity:1;fill-rule:nonzero;stroke:none"
         id="path18" /><path
         d="m 27.0781,248.879 c -2.7734,-4.109 -5.3554,-8.359 -7.7304,-12.738 1.5898,0.964 3.1562,1.937 4.7343,2.902 1.2149,0.734 2.4219,1.57 3.7774,1.457 4.7148,-0.09 9.5,0.113 14.2461,-0.133 -9.7539,-6.113 -19.6016,-12.066 -29.4375,-18.019 -0.9453,-2.18 -1.7969,-4.383 -2.6485,-6.606 11.0078,6.653 21.9961,13.324 33,19.953 0.0313,-11.933 0,-23.867 0.0313,-35.793 2.3789,0 4.7344,0 7.0937,0 -0.039,16.313 0,32.668 0,48.977 -7.6797,0 -15.3632,0 -23.0664,0"
         style="fill:#ffffff;fill-opacity:1;fill-rule:nonzero;stroke:none"
         id="path20" /><path
         d="m 50.1445,272.652 c -1.1875,0 -2.3789,0 -3.5976,0 -7.2266,-7.285 -13.7461,-15.234 -19.4688,-23.773 7.7032,0 15.3867,0 23.0664,0 0,-16.309 -0.039,-32.664 0,-48.977 6.5586,0 13.0313,0 19.5508,0 0.043,16.313 0,32.668 0.043,48.977 30.0156,0 60.0977,0 90.1367,0 0.066,7.953 0.066,15.84 0.047,23.773 -30.086,0 -60.1681,0 -90.1837,0 -0.0235,6.426 -0.0235,12.875 -0.0235,19.321 -6.9414,-4.762 -13.4609,-10.043 -19.5703,-15.817 0,-1.168 0,-2.332 0,-3.504"
         style="fill:#ce1d2b;fill-opacity:1;fill-rule:nonzero;stroke:none"
         id="path22" /><path
         d="m 139.207,318.641 c -20.473,-12.555 -41.0742,-24.805 -61.4726,-37.52 4.6289,-0.203 9.2773,0 13.8828,-0.09 1.1719,-0.113 2.3398,0.289 3.375,0.965 20.6248,12.738 41.4028,25.164 62.0118,37.973 -6.031,-0.117 -11.957,-0.563 -17.797,-1.328"
         style="fill:#ce1d2b;fill-opacity:1;fill-rule:nonzero;stroke:none"
         id="path24" /><path
         d="m 42.1055,240.367 c -4.7461,0.246 -9.5313,0.043 -14.2461,0.133 -1.3555,0.113 -2.5625,-0.723 -3.7774,-1.457 -1.5781,-0.965 -3.1445,-1.938 -4.7343,-2.902 -2.4571,-4.473 -4.6485,-9.075 -6.6797,-13.793 9.8359,5.953 19.6836,11.906 29.4375,18.019"
         style="fill:#ce1d2b;fill-opacity:1;fill-rule:nonzero;stroke:none"
         id="path26" /><path
         d="m 93.707,240.367 c 4.793,0.246 9.594,0.043 14.359,0.133 1.684,0.07 3.102,-1.168 4.543,-1.977 15.746,-9.66 31.493,-19.3 47.266,-28.937 0.113,-3.215 0.047,-6.473 0.066,-9.684 l -0.269,0.047 c -21.899,13.676 -44.055,26.688 -65.965,40.418"
         style="fill:#ce1d2b;fill-opacity:1;fill-rule:nonzero;stroke:none"
         id="path28" /><path
         d="m 238.938,232.777 c 1.683,4.52 2.761,9.668 4.757,13.809 1.957,-4.141 3.059,-9.289 4.727,-13.809 5.121,0 10.148,0.051 15.269,0 -4.113,-2.98 -8.246,-5.925 -12.324,-8.929 1.43,-4.821 3.125,-9.618 4.555,-14.403 -4.133,2.828 -8.152,5.86 -12.227,8.805 -4.082,-2.945 -8.129,-5.977 -12.257,-8.805 1.449,4.785 3.117,9.582 4.578,14.403 -4.106,3.004 -8.25,5.949 -12.325,8.929 5.094,0.051 10.153,0 15.247,0"
         style="fill:#ffffff;fill-opacity:1;fill-rule:nonzero;stroke:none"
         id="path30" /><path
         d="m 240.102,231.371 c 1.324,3.293 1.925,7.375 3.597,10.188 1.696,-2.875 2.239,-6.895 3.586,-10.188 3.844,0 7.617,0.059 11.391,-0.058 -2.922,-2.383 -6.098,-4.504 -9.153,-6.774 1.125,-3.652 2.45,-7.246 3.485,-10.961 -3.145,2.203 -6.203,4.496 -9.309,6.707 -3.117,-2.211 -6.168,-4.504 -9.34,-6.707 1.024,3.715 2.387,7.309 3.473,10.961 -3.059,2.27 -6.219,4.391 -9.156,6.774 3.808,0.117 7.59,0.058 11.426,0.058"
         style="fill:#ce1d2b;fill-opacity:1;fill-rule:nonzero;stroke:none"
         id="path32" /><path
         d="m 283.691,193.602 c 1.789,4.746 3.129,9.73 4.848,14.507 1.828,-4.777 3.137,-9.695 4.852,-14.507 5.082,0 10.136,0.07 15.191,-0.067 -4.019,-3.09 -8.184,-5.945 -12.269,-8.937 1.437,-4.985 3.195,-9.825 4.703,-14.774 -4.157,3.059 -8.25,6.121 -12.477,9.106 -4.152,-3.063 -8.309,-6.047 -12.473,-9.106 1.512,4.949 3.266,9.789 4.711,14.774 -4.093,2.992 -8.254,5.847 -12.195,8.937 5.039,0.137 10.063,0.067 15.109,0.067"
         style="fill:#ffffff;fill-opacity:1;fill-rule:nonzero;stroke:none"
         id="path34" /><path
         d="m 284.957,192.121 c 1.27,3.59 2.289,7.254 3.59,10.738 1.308,-3.484 2.433,-7.148 3.664,-10.738 3.742,0 7.551,0 11.355,0 -2.945,-2.426 -6.023,-4.601 -9.074,-6.738 0.946,-3.735 2.321,-7.293 3.34,-11.028 -3.125,2.176 -6.137,4.458 -9.285,6.633 -3.074,-2.175 -6.055,-4.457 -9.203,-6.562 0.937,3.664 2.433,7.222 3.363,10.957 -3.148,2.137 -6.23,4.312 -9.141,6.738 3.778,0 7.586,0 11.391,0"
         style="fill:#ce1d2b;fill-opacity:1;fill-rule:nonzero;stroke:none"
         id="path36" /><path
         d="m 186.652,180.344 c 1.75,4.629 2.825,9.41 4.723,13.953 1.57,-4.723 3.117,-9.442 4.578,-14.192 5.137,-0.117 10.238,-0.058 15.375,-0.058 -4.121,-2.914 -8.254,-5.965 -12.375,-8.91 1.481,-4.875 3.168,-9.59 4.598,-14.379 -4.192,2.734 -8.137,5.972 -12.352,8.742 -4.011,-2.949 -8.019,-5.945 -12.148,-8.742 1.426,4.789 3.183,9.504 4.601,14.379 -4.129,2.945 -8.191,5.996 -12.324,8.91 5.078,0.176 10.367,-0.414 15.324,0.297"
         style="fill:#ffffff;fill-opacity:1;fill-rule:nonzero;stroke:none"
         id="path38" /><path
         d="m 187.852,178.648 c 1.136,3.555 2.035,7.165 3.523,10.536 1.223,-3.493 2.301,-6.981 3.43,-10.536 3.828,-0.121 7.668,0 11.527,-0.058 -3.078,-2.301 -6.215,-4.512 -9.277,-6.75 1.062,-3.61 2.41,-7.098 3.422,-10.707 -3.192,1.969 -6.082,4.383 -9.227,6.504 -3.039,-2.242 -5.996,-4.535 -9.129,-6.563 1.07,3.61 2.328,7.156 3.43,10.766 -3.067,2.301 -6.199,4.394 -9.219,6.75 3.852,0.058 7.641,-0.121 11.52,0.058"
         style="fill:#ce1d2b;fill-opacity:1;fill-rule:nonzero;stroke:none"
         id="path40" /><path
         d="m 238.895,97.0195 c 1.675,4.7145 2.96,9.5625 4.8,14.2815 1.813,-4.719 3.114,-9.567 4.766,-14.2815 5.062,0 10.125,0.0469 15.219,-0.0507 -4.028,-3.1211 -8.27,-5.9727 -12.313,-9.0352 1.571,-4.8516 3.223,-9.6719 4.688,-14.5195 -4.149,2.8984 -8.235,5.9687 -12.36,8.9257 -4.16,-2.957 -8.234,-6.0273 -12.367,-8.9257 1.438,4.8476 3.121,9.6679 4.66,14.5195 -4.07,3.0625 -8.254,5.9141 -12.308,9.0352 5.117,0.0976 10.172,0.0507 15.215,0.0507"
         style="fill:#ffffff;fill-opacity:1;fill-rule:nonzero;stroke:none"
         id="path42" /><path
         d="m 239.887,95.5664 c 1.656,3.3945 2.328,7.2816 3.808,10.8286 1.453,-3.547 2.118,-7.4341 3.805,-10.8286 3.703,-0.2031 7.484,0.0469 11.188,-0.1055 -2.922,-2.4062 -6.067,-4.4804 -9.141,-6.7382 1.031,-3.7032 2.41,-7.3008 3.5,-10.9805 -3.192,2.0937 -6.219,4.5117 -9.352,6.6328 -3.136,-2.1211 -6.172,-4.5391 -9.355,-6.6836 1.09,3.7305 2.437,7.3281 3.5,11.0313 -3.09,2.2578 -6.223,4.332 -9.152,6.7382 3.71,0.1524 7.464,-0.0976 11.199,0.1055"
         style="fill:#ce1d2b;fill-opacity:1;fill-rule:nonzero;stroke:none"
         id="path44" /></g></g></svg>
