<?xml version="1.0" encoding="UTF-8" standalone="no"?>
<svg
   xmlns:dc="http://purl.org/dc/elements/1.1/"
   xmlns:cc="http://creativecommons.org/ns#"
   xmlns:rdf="http://www.w3.org/1999/02/22-rdf-syntax-ns#"
   xmlns:svg="http://www.w3.org/2000/svg"
   xmlns="http://www.w3.org/2000/svg"
   version="1.1"
   id="svg2"
   xml:space="preserve"
   width="42.666668"
   height="42.666668"
   viewBox="0 0 42.666668 42.666668"><metadata
     id="metadata8"><rdf:RDF><cc:Work
         rdf:about=""><dc:format>image/svg+xml</dc:format><dc:type
           rdf:resource="http://purl.org/dc/dcmitype/StillImage" /></cc:Work></rdf:RDF></metadata><defs
     id="defs6" /><g
     id="g10"
     transform="matrix(1.3333333,0,0,-1.3333333,0,42.666667)"><g
       id="g12"
       transform="scale(0.1)"><path
         d="M 95.0391,105.641 H 310.449 c 6.164,16.976 9.539,35.269 9.539,54.328 0,19.074 -3.379,37.379 -9.547,54.367 H 95.0391 v 91.793 C 39.125,281.145 -0.0117188,225.008 -0.0117188,159.969 -0.0117188,94.9531 39.125,38.8242 95.0391,13.8438 v 91.7972"
         style="fill:#dd1e25;fill-opacity:1;fill-rule:evenodd;stroke:none"
         id="path14" /><path
         d="M 95.0391,214.332 H 310.52 c -22.247,61.606 -81.243,105.664 -150.532,105.664 -23.14,0 -45.086,-5.012 -64.9489,-13.859 v -91.805"
         style="fill:#ffffff;fill-opacity:1;fill-rule:evenodd;stroke:none"
         id="path16" /><path
         d="M 95.0391,105.641 V 13.8594 C 114.902,5.01172 136.848,0.00390625 159.988,0.00390625 229.277,0.00390625 288.273,44.0352 310.52,105.641 H 95.0391"
         style="fill:#26813a;fill-opacity:1;fill-rule:evenodd;stroke:none"
         id="path18" /><path
         d="m 69.6602,233.934 c -0.1836,-0.012 -0.3555,-0.039 -0.5235,-0.075 0.0508,0.082 0.1016,0.168 0.1524,0.246 z M 80,209.816 79.4258,209.668 c -3.0742,2.508 -7.1289,5.98 -12.1406,10.883 -1.0625,1.039 -2.043,2.027 -2.9571,2.969 0.1914,0.804 0.293,1.695 0.293,2.671 v 1.524 c 0.8398,1.015 1.6133,1.988 2.3047,2.914 h 0.3398 v -0.32 c 0,-0.899 1.25,-1.621 2.8047,-1.621 1.2383,0 2.2735,0.464 2.6445,1.109 h 1.4727 v -0.992 c 0,-0.524 0.4531,-0.95 1.0117,-0.95 h 10.1211 c 0.5547,0 1.0078,0.426 1.0078,0.95 v 4.765 c 0,0.524 -0.4531,0.95 -1.0078,0.95 H 75.1992 c -0.5586,0 -1.0117,-0.426 -1.0117,-0.95 v -1 h -1.3594 c -0.1953,0.785 -1.3437,1.391 -2.7578,1.391 -0.0898,0 -0.1758,-0.012 -0.2656,-0.016 6.6836,11.547 11.1172,21.36 9.8945,21.922 -1.2226,0.563 -7.6523,-8.371 -14.3554,-19.945 l 0.4218,-0.195 c -0.3359,-0.481 -0.7187,-1.016 -1.1445,-1.594 v 0.387 1.386 1.387 1.391 1.386 h -0.0117 v 0.844 c -1.3985,-0.012 -2.3321,0.82 -2.3321,1.664 h -0.332 v 1.656 h -0.3359 v 1.664 0 1.665 h -0.3321 v 2.222 h 0.1172 V 251 c 0.211,0.051 0.4063,0.129 0.6094,0.234 0.3789,0.137 0.7227,0.305 0.9961,0.493 0,0 -0.0156,0.019 -0.0312,0.043 0.3164,0.238 0.5703,0.515 0.7421,0.824 0.0821,-0.02 0.168,-0.035 0.2539,-0.035 0.5352,0 0.9649,0.375 0.9649,0.836 0,0.457 -0.4297,0.832 -0.9649,0.832 -0.0429,0 -0.0898,-0.008 -0.1328,-0.012 -0.1601,0.41 -0.4609,0.777 -0.8672,1.086 0.0196,0.019 0.0352,0.035 0.0352,0.035 -0.2734,0.187 -0.6172,0.355 -0.9961,0.492 -0.3008,0.16 -0.5898,0.25 -0.9375,0.293 0,0.016 0.0039,0.031 0.0039,0.047 0,0.461 -0.4297,0.832 -0.9648,0.832 -0.5313,0 -0.9649,-0.371 -0.9649,-0.832 0,-0.016 0.0039,-0.031 0.0039,-0.047 -0.3437,-0.043 -0.6328,-0.133 -0.9336,-0.293 -0.3789,-0.137 -0.7226,-0.305 -1,-0.492 0,0 0.0157,-0.016 0.0352,-0.035 -0.4023,-0.309 -0.7031,-0.676 -0.8633,-1.086 -0.0469,0.004 -0.0898,0.012 -0.1367,0.012 -0.5313,0 -0.9648,-0.375 -0.9648,-0.832 0,-0.461 0.4335,-0.836 0.9648,-0.836 0.0898,0 0.1758,0.015 0.2578,0.035 0.168,-0.309 0.4219,-0.586 0.7383,-0.824 -0.0156,-0.024 -0.0313,-0.043 -0.0313,-0.043 0.211,-0.262 0.5664,-0.45 0.9805,-0.579 0.0977,-0.062 0.1992,-0.113 0.3086,-0.148 v -1.215 h 0.1133 v -2.222 h -0.332 v -1.665 0 -1.664 h -0.336 v -1.664 l -0.332,-0.004 c 0,-0.832 -0.9336,-1.664 -2.332,-1.664 v -0.832 -0.554 -0.832 0 c 0,-0.481 0,-0.942 0,-1.391 v 0 -1.387 -0.918 c 0,-0.332 0,-0.656 -0.004,-0.968 -0.4609,0.625 -0.8671,1.195 -1.2265,1.707 l 0.4219,0.195 c -6.7032,11.574 -13.1329,20.508 -14.3555,19.945 -1.2109,-0.558 3.1367,-10.211 9.7266,-21.629 0,0 -0.0079,0 -0.0118,0 -1.4101,0 -2.5625,-0.601 -2.7578,-1.386 h -1.4453 v 0.718 c 0,0.524 -0.4492,0.95 -1.0078,0.95 H 34.5 c -0.5586,0 -1.0117,-0.426 -1.0117,-0.95 v -4.765 c 0,-0.524 0.4531,-0.95 1.0117,-0.95 h 10.1211 c 0.5586,0 1.0078,0.426 1.0078,0.95 v 1.269 h 1.5586 c 0.3672,-0.644 1.4023,-1.109 2.6445,-1.109 1.2461,0 2.2852,0.469 2.6524,1.117 0.2812,-0.254 0.6601,-0.41 1.0859,-0.41 0.0156,0 0.0352,0.004 0.0508,0.004 0.4648,-0.602 0.9609,-1.219 1.4844,-1.852 -0.0977,-0.953 -0.25,-1.469 -0.4844,-1.633 h -1.5195 c -0.0118,-0.062 -0.0196,-0.128 -0.0313,-0.191 -2.414,-0.133 -7.1836,-0.195 -11.2148,-0.555 0.0156,0.063 0.0234,0.129 0.039,0.192 l -1.8672,-0.278 c -0.0078,-0.035 -0.0156,-0.07 -0.0234,-0.105 -2.8398,-0.352 -4.957,-0.91 -4.957,-1.84 0,-1.012 2.082,-2.027 4.9492,-2.906 0.0117,-0.047 0.0195,-0.094 0.0312,-0.145 l 1.8672,-0.554 c -0.0117,0.054 -0.0234,0.117 -0.0351,0.171 2.6797,-0.695 5.7344,-1.273 8.3633,-1.648 -3.961,-3.758 -7.2461,-6.555 -9.8321,-8.664 l -0.5742,0.148 c -4.0469,-4.441 -8.4062,-6.386 -6.8476,-7.218 1.5546,-0.832 7.1601,1.113 12.1406,5.832 l -0.125,0.031 c 3.1914,2.555 6.7851,5.793 10.4687,9.406 3.0235,0.028 5.3008,0.719 6.8282,2.074 0.2187,-0.218 0.4335,-0.437 0.6562,-0.656 4.1797,-4.183 8.293,-7.937 11.8945,-10.824 l -0.1211,-0.031 c 4.9805,-4.719 10.5821,-6.664 12.1407,-5.832 1.5547,0.832 -2.8047,2.777 -6.8516,7.218"
         style="fill:#ffffff;fill-opacity:1;fill-rule:nonzero;stroke:none"
         id="path20" /></g></g></svg>
