<?xml version="1.0" encoding="UTF-8" standalone="no"?>
<svg
   xmlns:dc="http://purl.org/dc/elements/1.1/"
   xmlns:cc="http://creativecommons.org/ns#"
   xmlns:rdf="http://www.w3.org/1999/02/22-rdf-syntax-ns#"
   xmlns:svg="http://www.w3.org/2000/svg"
   xmlns="http://www.w3.org/2000/svg"
   version="1.1"
   id="svg2"
   xml:space="preserve"
   width="42.666668"
   height="42.666668"
   viewBox="0 0 42.666668 42.666668"><metadata
     id="metadata8"><rdf:RDF><cc:Work
         rdf:about=""><dc:format>image/svg+xml</dc:format><dc:type
           rdf:resource="http://purl.org/dc/dcmitype/StillImage" /></cc:Work></rdf:RDF></metadata><defs
     id="defs6" /><g
     id="g10"
     transform="matrix(1.3333333,0,0,-1.3333333,0,42.666667)"><g
       id="g12"
       transform="scale(0.1)"><path
         d="M 159.996,320.023 V 159.996 H 320 c 0,88.152 -71.883,160.027 -160.004,160.027"
         style="fill:#d41b34;fill-opacity:1;fill-rule:evenodd;stroke:none"
         id="path14" /><path
         d="M 0,159.996 C 0,71.8555 71.875,-0.0234375 159.996,-0.0234375 V 159.996 H 0"
         style="fill:#244f97;fill-opacity:1;fill-rule:nonzero;stroke:none"
         id="path16" /><path
         d="M 159.996,159.996 V -0.0234375 L 159.18,0 v 0 l 0.816,-0.0234375 C 248.117,-0.0234375 320,71.8555 320,159.996 H 159.996"
         style="fill:#ffffff;fill-opacity:1;fill-rule:evenodd;stroke:none"
         id="path18" /><path
         d="M 0,159.996 H 159.996 V 320.023 C 71.875,320.023 0,248.148 0,159.996"
         style="fill:#ffffff;fill-opacity:1;fill-rule:evenodd;stroke:none"
         id="path20" /><path
         d="m 76.1016,244.059 c 2.5117,7.363 4.7422,14.839 7.3242,22.152 2.5898,-7.344 4.7617,-14.828 7.3125,-22.172 7.8047,-0.031 15.6097,0.02 23.4177,-0.051 -6.289,-4.625 -12.621,-9.164 -18.9333,-13.75 2.2226,-7.484 4.8673,-14.879 7.1173,-22.363 -6.3556,4.539 -12.6056,9.184 -18.9455,13.734 -6.3789,-4.449 -12.5507,-9.195 -18.957,-13.617 2.2578,7.465 4.8359,14.809 7.1445,22.246 -6.2343,4.637 -12.6718,9.055 -18.7968,13.801 7.7617,0.09 15.5351,0 23.3164,0.02"
         style="fill:#244f97;fill-opacity:1;fill-rule:nonzero;stroke:none"
         id="path22" /><path
         d="m 228.098,103.441 c 2.507,7.375 4.75,14.829 7.328,22.145 2.597,-7.336 4.762,-14.82 7.308,-22.172 7.801,-0.019 15.61,0.027 23.418,-0.051 -6.289,-4.6169 -12.625,-9.1442 -18.929,-13.7419 2.226,-7.4844 4.867,-14.8789 7.121,-22.3633 -6.36,4.5391 -12.617,9.1875 -18.949,13.7344 -6.372,-4.4609 -12.547,-9.1953 -18.965,-13.625 2.258,7.4648 4.843,14.8203 7.148,22.2539 -6.23,4.6367 -12.672,9.0547 -18.793,13.7929 7.774,0.098 15.535,0 23.313,0.027"
         style="fill:#d41b34;fill-opacity:1;fill-rule:nonzero;stroke:none"
         id="path24" /></g></g></svg>
