<?xml version="1.0" encoding="UTF-8" standalone="no"?>
<svg
   xmlns:dc="http://purl.org/dc/elements/1.1/"
   xmlns:cc="http://creativecommons.org/ns#"
   xmlns:rdf="http://www.w3.org/1999/02/22-rdf-syntax-ns#"
   xmlns:svg="http://www.w3.org/2000/svg"
   xmlns="http://www.w3.org/2000/svg"
   version="1.1"
   id="svg2"
   xml:space="preserve"
   width="42.666668"
   height="42.666668"
   viewBox="0 0 42.666668 42.666668"><metadata
     id="metadata8"><rdf:RDF><cc:Work
         rdf:about=""><dc:format>image/svg+xml</dc:format><dc:type
           rdf:resource="http://purl.org/dc/dcmitype/StillImage" /></cc:Work></rdf:RDF></metadata><defs
     id="defs6" /><g
     id="g10"
     transform="matrix(1.3333333,0,0,-1.3333333,0,42.666667)"><g
       id="g12"
       transform="scale(0.1)"><path
         d="M 320,160 C 320,71.6328 248.363,0 160,0 71.6328,0 0,71.6328 0,160 c 0,88.367 71.6328,160 160,160 88.363,0 160,-71.633 160,-160"
         style="fill:#ffffff;fill-opacity:1;fill-rule:nonzero;stroke:none"
         id="path14" /><path
         d="M 110.309,297.664 V 22.4258 c -56.3051,20.3711 -96.5942,74.25 -96.5942,137.6602 0,63.328 40.2891,117.211 96.5942,137.578"
         style="fill:#db1e25;fill-opacity:1;fill-rule:evenodd;stroke:none"
         id="path16" /><path
         d="M 209.691,297.664 V 22.4258 c 56.305,20.3711 96.594,74.25 96.594,137.6602 0,63.328 -40.289,117.211 -96.594,137.578"
         style="fill:#db1e25;fill-opacity:1;fill-rule:evenodd;stroke:none"
         id="path18" /><path
         d="M 209.691,297.664 V 22.4258 c -15.523,-5.586 -32.238,-8.707 -49.691,-8.707 -17.453,0 -34.168,3.121 -49.691,8.707 V 297.664 c 15.523,5.586 32.238,8.625 49.691,8.625 17.453,0 34.168,-3.039 49.691,-8.625"
         style="fill:#ffffff;fill-opacity:1;fill-rule:evenodd;stroke:none"
         id="path20" /></g></g></svg>
