<?xml version="1.0" encoding="UTF-8" standalone="no"?>
<svg
   xmlns:dc="http://purl.org/dc/elements/1.1/"
   xmlns:cc="http://creativecommons.org/ns#"
   xmlns:rdf="http://www.w3.org/1999/02/22-rdf-syntax-ns#"
   xmlns:svg="http://www.w3.org/2000/svg"
   xmlns="http://www.w3.org/2000/svg"
   version="1.1"
   id="svg2"
   xml:space="preserve"
   width="42.666668"
   height="42.666668"
   viewBox="0 0 42.666668 42.666668"><metadata
     id="metadata8"><rdf:RDF><cc:Work
         rdf:about=""><dc:format>image/svg+xml</dc:format><dc:type
           rdf:resource="http://purl.org/dc/dcmitype/StillImage" /></cc:Work></rdf:RDF></metadata><defs
     id="defs6" /><g
     id="g10"
     transform="matrix(1.3333333,0,0,-1.3333333,0,42.666667)"><g
       id="g12"
       transform="scale(0.1)"><path
         d="M 13.8164,95.0156 C 38.8203,39.1172 94.9922,0.00390625 159.988,0.00390625 225.008,0.00390625 281.176,39.1172 306.16,95.0156 H 13.8164"
         style="fill:#d01e27;fill-opacity:1;fill-rule:evenodd;stroke:none"
         id="path14" /><path
         d="m 306.16,224.965 c -24.984,55.926 -81.152,95.039 -146.172,95.039 -64.9958,0 -121.1677,-39.113 -146.1716,-95.039 H 306.16"
         style="fill:#d01e27;fill-opacity:1;fill-rule:evenodd;stroke:none"
         id="path16" /><path
         d="M 306.129,224.965 H 13.8672 C 4.98438,205.09 0,183.109 0,159.992 0,136.875 4.99219,114.891 13.8945,95.0156 H 306.105 C 314.996,114.891 320,136.875 320,159.992 c 0,23.117 -4.984,45.098 -13.871,64.973"
         style="fill:#ffffff;fill-opacity:1;fill-rule:nonzero;stroke:none"
         id="path18" /><path
         d="m 146.617,165.848 -9.281,0.265 v 3.672 l 9.281,-3.937 v 0"
         style="fill:#f79010;fill-opacity:1;fill-rule:nonzero;stroke:none"
         id="path20" /><path
         d="m 146.582,166.918 -9.246,4.703 v 6.117 c 0,0 -1.086,-0.152 -0.93,1.071 0.051,2.546 6.793,-4.653 10.25,-6.996 l -0.078,-4.895 h 0.004"
         style="fill:#f79010;fill-opacity:1;fill-rule:nonzero;stroke:none"
         id="path22" /><path
         d="m 106.535,150.973 19.5,-0.153 v 12.082 l -22.285,1.063 2.785,-13 v 0.008"
         style="fill:#f79010;fill-opacity:1;fill-rule:nonzero;stroke:none"
         id="path24" /><path
         d="m 105.605,167.645 20.739,-1.989 -0.156,8.563 -20.274,7.953 -0.309,-14.527 v 0"
         style="fill:#f79010;fill-opacity:1;fill-rule:nonzero;stroke:none"
         id="path26" /><path
         d="m 109.785,184.766 15.942,-7.645 2.273,2.348 c 0,0 -1.465,1 -1.395,1.918 0.032,0.926 1.477,1.066 1.504,2.078 0.028,0.926 -1.64,1.039 -1.656,1.969 -0.109,1.007 1.281,2.086 1.281,2.086 l -14.39,12.386 -3.559,-15.14 v 0"
         style="fill:#f79010;fill-opacity:1;fill-rule:nonzero;stroke:none"
         id="path28" /><path
         d="m 214.395,150.82 h -20.582 l -0.157,11.774 22.594,1.683 -1.855,-13.461 v 0.004"
         style="fill:#f79010;fill-opacity:1;fill-rule:nonzero;stroke:none"
         id="path30" /><path
         d="m 214.898,167.828 c -0.261,1.91 -0.535,3.817 -0.976,5.692 -0.594,2.511 -1.352,4.98 -2.27,7.386 -0.066,0.18 -0.172,0.34 -0.238,0.52 l -17.598,-7.367 0.157,-8.719 20.925,2.488 v 0"
         style="fill:#f79010;fill-opacity:1;fill-rule:nonzero;stroke:none"
         id="path32" /><path
         d="m 202.867,196.137 c -3.508,-2.653 -7.019,-5.309 -10.527,-7.961 0.015,-0.762 0.773,-1.348 0.984,-2.078 0.489,-1.024 -0.48,-1.926 -1.078,-2.653 -0.484,-0.664 0.559,-1.004 0.906,-1.398 0.766,-0.785 0.102,-2.016 -0.714,-2.473 0.98,-0.586 1.476,-1.683 1.691,-2.765 5.258,2.734 10.512,5.468 15.769,8.203 -1.886,3.968 -4.238,7.726 -7.027,11.125 h -0.004"
         style="fill:#f79010;fill-opacity:1;fill-rule:nonzero;stroke:none"
         id="path34" /><path
         d="m 173.547,165.578 8.82,0.383 0.153,3.519 -8.973,-3.902 v 0"
         style="fill:#f79010;fill-opacity:1;fill-rule:nonzero;stroke:none"
         id="path36" /><path
         d="m 173.539,167.488 -0.035,3.977 c 0,0 8.351,7.457 10.133,8.832 0,-1.527 -0.965,-2.711 -0.965,-2.711 v -5.813 l -9.133,-4.285 v 0"
         style="fill:#f79010;fill-opacity:1;fill-rule:nonzero;stroke:none"
         id="path38" /><path
         d="m 119.387,200.98 c 0.152,-0.156 9.375,-10.285 9.375,-10.285 0.258,0.961 2.383,1.11 4.551,0.953 2.167,-0.152 3.894,0.145 3.894,-1.382 0,-1.532 -1.102,-1.313 -1.102,-2.383 0,-1.074 1.649,-0.985 1.649,-2.36 0,-1.375 -1.195,-1.093 -1.199,-2.16 -0.004,-0.879 1.246,-0.925 1.246,-0.925 l 8.781,-8.415 0.039,8.985 -18.105,28.062 -9.129,-10.093 v 0.003"
         style="fill:#f79010;fill-opacity:1;fill-rule:nonzero;stroke:none"
         id="path40" /><path
         d="m 133.871,211.605 c 0.137,-0.41 12.266,-24.785 12.266,-24.785 0,0 0.136,22.879 2.203,24.106 l -3.445,6.262 -11.024,-5.583 v 0"
         style="fill:#f79010;fill-opacity:1;fill-rule:nonzero;stroke:none"
         id="path42" /><path
         d="m 173.449,214.234 c -1.523,-5.273 -3.051,-10.55 -4.578,-15.824 1.43,-0.172 2.871,-0.215 4.305,-0.137 1.289,-0.113 0.285,-1.32 0.355,-2.035 -0.008,-3.246 -0.015,-6.488 -0.019,-9.734 4.312,7.617 8.625,15.238 12.937,22.855 -2.972,1.551 -6.133,2.707 -9.308,3.762 -1.215,0.426 -2.446,0.797 -3.692,1.113 v 0"
         style="fill:#f79010;fill-opacity:1;fill-rule:nonzero;stroke:none"
         id="path44" /><path
         d="m 189.555,207.621 c -5.336,-8.199 -10.668,-16.402 -16.004,-24.601 -0.008,-3.161 -0.016,-6.321 -0.02,-9.477 3.563,3.391 7.145,6.762 10.696,10.164 0.675,0.953 -2.137,1.422 -0.731,2.586 1.274,0.402 1.488,2.461 0.149,2.855 -1.11,1.625 1,2.485 2.324,2.305 1.847,-0.082 3.754,0.406 5.558,-0.109 0.996,-0.949 1.914,1.437 2.891,1.976 1.93,1.942 3.859,3.879 5.77,5.844 -3.149,3.277 -6.739,6.125 -10.633,8.461 v -0.004"
         style="fill:#f79010;fill-opacity:1;fill-rule:nonzero;stroke:none"
         id="path46" /><path
         d="m 148.27,112.086 c -3.938,-0.223 -7.86,-2.875 -9.696,-4.301 3.301,-1.441 6.821,-2.57 10.571,-3.344 5.972,-1 11.945,-0.996 17.918,-0.996 0.972,0.125 1.937,0.266 2.886,0.418 l 12.578,4.242 c 0,0 -6.05,3.997 -10.847,3.825 -4.797,-0.176 -8.035,-4.867 -11.907,-4.52 -3.867,0.344 -5.418,4.676 -10.988,4.676 -0.172,0 -0.344,0.012 -0.515,0 v 0"
         style="fill:#294099;fill-opacity:1;fill-rule:nonzero;stroke:none"
         id="path48" /><path
         d="m 139.883,107.941 c 2.992,-1.226 6.144,-2.187 9.394,-2.855 5.852,-0.984 11.789,-0.984 17.532,-0.984 h 0.211 c 0.957,0.121 1.886,0.257 2.769,0.402 l 11.188,3.769 c -1.957,1.114 -5.969,3.118 -9.274,3 -2.238,-0.082 -4.152,-1.246 -6.008,-2.375 -1.976,-1.203 -3.855,-2.332 -5.98,-2.14 -1.875,0.168 -3.207,1.14 -4.613,2.176 -1.672,1.226 -3.403,2.5 -6.317,2.5 l -0.344,0.004 c -0.043,0 -0.089,-0.004 -0.136,-0.004 -3.184,-0.18 -6.383,-2.039 -8.422,-3.493 z m 27.219,-5.148 h -0.293 c -5.797,0 -11.789,0 -17.774,1.004 -3.742,0.769 -7.344,1.91 -10.722,3.391 l -1.012,0.441 0.871,0.676 c 2.016,1.558 6,4.207 10.058,4.437 0.071,0.004 0.141,0.004 0.211,0.004 l 0.344,-0.004 c 3.344,0 5.336,-1.461 7.094,-2.754 1.309,-0.961 2.441,-1.793 3.957,-1.925 1.715,-0.157 3.387,0.867 5.18,1.957 1.902,1.156 4.062,2.468 6.64,2.562 0.11,0.004 0.219,0.008 0.332,0.008 4.883,0 10.66,-3.777 10.903,-3.938 l 1.121,-0.738 -13.957,-4.695 c -0.926,-0.153 -1.907,-0.293 -2.91,-0.422 l -0.043,-0.004"
         style="fill:#294099;fill-opacity:1;fill-rule:nonzero;stroke:none"
         id="path50" /><path
         d="m 125.418,115.336 71.496,-0.305 c 0,0 -6.191,6.574 -13.465,6.727 -7.273,0.156 -5.261,-3.059 -10.832,-3.516 -5.57,-0.461 -6.965,3.363 -12.07,3.211 -5.106,-0.152 -8.047,-3.211 -11.914,-3.363 -3.867,-0.152 -8.82,3.824 -11.762,3.668 -2.937,-0.153 -13.461,-4.586 -13.461,-4.586 l 2.012,-1.836 h -0.004"
         style="fill:#294099;fill-opacity:1;fill-rule:nonzero;stroke:none"
         id="path52" /><path
         d="m 125.66,115.949 69.699,-0.297 c -2.058,1.817 -6.746,5.383 -11.921,5.493 -3.77,0.078 -4.856,-0.762 -5.993,-1.653 -1.023,-0.808 -2.086,-1.64 -4.777,-1.863 -3.09,-0.254 -4.965,0.73 -6.77,1.676 -1.574,0.824 -3.058,1.605 -5.332,1.535 -2.628,-0.078 -4.652,-0.961 -6.613,-1.813 -1.742,-0.761 -3.39,-1.476 -5.297,-1.554 -2.203,-0.086 -4.59,1.011 -6.894,2.07 -1.867,0.855 -3.61,1.672 -4.86,1.602 -2.312,-0.122 -9.777,-3.11 -12.363,-4.172 z m 72.684,-1.543 -72.93,0.313 -0.031,0.574 -0.379,-0.41 -2.719,2.48 0.887,0.375 c 0.433,0.184 10.656,4.481 13.668,4.633 1.515,0.082 3.422,-0.785 5.433,-1.711 2.176,-0.996 4.426,-2.031 6.336,-1.957 1.672,0.067 3.215,0.738 4.856,1.449 1.969,0.86 4.199,1.832 7.062,1.914 2.614,0.09 4.301,-0.812 5.942,-1.671 1.738,-0.911 3.375,-1.766 6.097,-1.54 2.321,0.192 3.196,0.875 4.122,1.606 1.253,0.984 2.535,2.004 6.777,1.914 7.445,-0.156 13.637,-6.648 13.894,-6.922 l 0.985,-1.047"
         style="fill:#294099;fill-opacity:1;fill-rule:nonzero;stroke:none"
         id="path54" /><path
         d="m 116.289,123.75 88.203,-0.305 c 1.395,1.989 -4.332,6.727 -9.594,7.188 -4.332,-0.153 -7.425,-4.434 -10.984,-4.59 -3.559,-0.152 -7.582,4.437 -11.605,4.281 -4.024,-0.148 -8.204,-4.281 -12.227,-4.281 -4.023,0 -6.965,4.437 -12.07,4.437 -5.106,0 -7.426,-4.894 -11.297,-4.589 -3.867,0.308 -7.274,4.894 -10.985,4.894 -3.714,0 -9.906,-5.504 -11.14,-5.199 -1.238,0.305 1.543,-2.293 1.699,-1.836 v 0"
         style="fill:#294099;fill-opacity:1;fill-rule:nonzero;stroke:none"
         id="path56" /><path
         d="m 116.168,124.367 h 0.125 l 87.793,-0.304 c 0.023,0.195 -0.035,0.437 -0.168,0.722 -0.973,2.094 -5.215,4.883 -9.035,5.231 -2.098,-0.086 -3.938,-1.246 -5.715,-2.371 -1.738,-1.098 -3.379,-2.137 -5.227,-2.215 -1.886,-0.075 -3.793,0.992 -5.793,2.125 -1.929,1.093 -3.918,2.222 -5.82,2.156 -1.836,-0.07 -3.816,-1.086 -5.734,-2.07 -2.121,-1.086 -4.313,-2.211 -6.512,-2.211 -2.062,0 -3.785,1.023 -5.609,2.105 -1.93,1.145 -3.922,2.328 -6.461,2.328 -2.469,0 -4.25,-1.242 -5.977,-2.449 -1.695,-1.184 -3.297,-2.301 -5.367,-2.137 -2.051,0.164 -3.918,1.395 -5.727,2.586 -1.8,1.188 -3.5,2.309 -5.211,2.309 -2.031,0 -5.113,-1.949 -7.363,-3.367 -1.433,-0.907 -2.371,-1.485 -3.051,-1.723 0.282,-0.281 0.629,-0.578 0.852,-0.715 z m 88.645,-1.539 h -0.321 l -88.008,0.309 c -0.086,-0.035 -0.179,-0.055 -0.281,-0.055 v 0 c -0.691,0 -2.547,1.633 -2.547,2.422 0,0.41 0.328,0.723 0.762,0.723 0.098,0 0.199,-0.012 0.316,-0.043 0.356,0.007 1.809,0.921 2.973,1.66 2.512,1.586 5.637,3.554 8.023,3.554 2.083,0 4.016,-1.273 5.891,-2.507 1.676,-1.106 3.406,-2.25 5.145,-2.387 1.644,-0.129 2.984,0.816 4.566,1.922 1.793,1.25 3.824,2.672 6.68,2.672 2.875,0 5.113,-1.332 7.09,-2.504 1.675,-0.996 3.257,-1.934 4.98,-1.934 1.902,0 3.961,1.055 5.949,2.074 2.035,1.047 4.145,2.125 6.25,2.207 2.254,0.086 4.399,-1.136 6.477,-2.316 1.84,-1.047 3.558,-2.035 5.129,-1.965 1.519,0.067 3.027,1.016 4.625,2.024 1.926,1.218 3.918,2.476 6.367,2.562 l 0.035,0.004 0.039,-0.004 c 4.293,-0.375 8.945,-3.5 10.082,-5.937 0.5,-1.075 0.254,-1.797 -0.039,-2.215 l -0.183,-0.266"
         style="fill:#294099;fill-opacity:1;fill-rule:nonzero;stroke:none"
         id="path58" /><path
         d="m 150.391,132.188 19.687,0.007 c 0.156,0.157 -4.406,6.723 -9.84,6.258 -6.054,-0.156 -10.164,-6.269 -9.847,-6.269 v 0.004"
         style="fill:#294099;fill-opacity:1;fill-rule:nonzero;stroke:none"
         id="path60" /><path
         d="m 160.789,137.863 c -0.164,0 -0.332,-0.008 -0.5,-0.023 -4.359,-0.113 -7.617,-3.481 -8.824,-5.039 l 17.504,0.012 c -1.239,1.609 -4.465,5.05 -8.18,5.05 z m -10.398,-6.293 h -0.61 l -0.023,0.629 c -0.012,0.793 4.328,6.711 10.465,6.871 0.164,0.016 0.367,0.024 0.566,0.024 5.16,0 9.441,-5.614 9.848,-6.59 0.168,-0.41 -0.051,-0.672 -0.121,-0.742 l -0.18,-0.18 -19.945,-0.012"
         style="fill:#294099;fill-opacity:1;fill-rule:nonzero;stroke:none"
         id="path62" /><path
         d="m 213.176,132.656 h -26.942 c 0,0 3.489,2.039 4.438,3.918 1.742,-0.941 1.266,-1.883 4.754,-2.039 3.488,-0.156 6.816,3.918 10.144,3.762 3.328,-0.156 7.606,-5.797 7.606,-5.641 v 0"
         style="fill:#294099;fill-opacity:1;fill-rule:nonzero;stroke:none"
         id="path64" /><path
         d="m 211.133,133.273 h 0.652 c -2.601,2.852 -4.699,4.336 -6.246,4.407 -1.453,0.066 -2.996,-0.821 -4.617,-1.766 -1.762,-1.019 -3.598,-2.078 -5.524,-1.992 -2.433,0.109 -3.121,0.574 -3.96,1.332 -0.172,0.152 -0.348,0.312 -0.567,0.473 -0.652,-0.911 -1.699,-1.793 -2.601,-2.454 z m 2.297,-1.234 h -29.465 l 1.957,1.149 c 0.93,0.542 3.488,2.257 4.199,3.664 l 0.285,0.562 0.559,-0.301 c 0.613,-0.328 0.976,-0.656 1.297,-0.945 0.593,-0.535 1.023,-0.918 3.191,-1.016 1.582,-0.07 3.242,0.895 4.848,1.828 1.707,0.993 3.496,2.016 5.297,1.93 3.019,-0.14 6.535,-4.152 7.687,-5.472 0.059,-0.063 0.106,-0.118 0.149,-0.165 h 0.347 l 0.004,-0.289 1.418,-0.945 h -1.773"
         style="fill:#294099;fill-opacity:1;fill-rule:nonzero;stroke:none"
         id="path66" /><path
         d="m 107,132.656 h 26.945 c 0,0 -3.488,2.039 -4.437,3.918 -1.742,-0.941 -1.27,-1.883 -4.754,-2.039 -3.488,-0.156 -6.816,3.918 -10.145,3.762 C 111.281,138.141 107,132.5 107,132.656 v 0"
         style="fill:#294099;fill-opacity:1;fill-rule:nonzero;stroke:none"
         id="path68" /><path
         d="m 109.039,133.273 h 22.871 c -0.902,0.661 -1.949,1.543 -2.601,2.454 -0.219,-0.161 -0.399,-0.321 -0.571,-0.473 -0.84,-0.758 -1.523,-1.223 -3.961,-1.332 -0.074,-0.004 -0.148,-0.004 -0.222,-0.004 v 0 c -1.86,0 -3.61,1.016 -5.297,1.996 -1.625,0.945 -3.156,1.844 -4.621,1.766 -1.543,-0.071 -3.641,-1.555 -6.242,-4.407 z m -2.289,-1.238 -0.004,0.004 h -1.773 l 1.414,0.941 v 0.293 h 0.359 c 0.039,0.047 0.09,0.102 0.145,0.165 1.156,1.32 4.672,5.332 7.687,5.472 1.817,0.086 3.594,-0.937 5.297,-1.93 1.551,-0.902 3.152,-1.832 4.68,-1.832 v 0 c 0.054,0 0.113,0 0.168,0.004 2.172,0.098 2.601,0.481 3.195,1.016 0.32,0.289 0.684,0.617 1.297,0.945 l 0.555,0.301 0.285,-0.562 c 0.711,-1.407 3.273,-3.122 4.199,-3.664 l 1.961,-1.149 -29.465,-0.004"
         style="fill:#294099;fill-opacity:1;fill-rule:nonzero;stroke:none"
         id="path70" /><path
         d="m 109.016,141.027 19.187,-0.152 c 0,0 -1.238,2.598 -1.394,5.813 -4.954,1.679 -8.973,-3.672 -12.532,-3.825 -3.558,-0.152 -7.273,3.825 -7.273,3.825 l 2.012,-5.661 v 0"
         style="fill:#294099;fill-opacity:1;fill-rule:nonzero;stroke:none"
         id="path72" /><path
         d="m 109.449,141.641 17.832,-0.145 c -0.367,0.988 -0.902,2.715 -1.058,4.727 -0.453,0.117 -0.907,0.175 -1.375,0.175 -2.051,0 -3.961,-1.125 -5.809,-2.214 -1.637,-0.961 -3.184,-1.868 -4.738,-1.938 -2.207,-0.086 -4.422,1.231 -5.914,2.383 z m 19.731,-1.387 -20.602,0.16 -2.152,6.066 1.027,0.625 c 0.035,-0.035 3.551,-3.757 6.797,-3.628 1.246,0.054 2.664,0.886 4.164,1.769 1.899,1.117 4.051,2.383 6.434,2.383 0.73,0 1.457,-0.121 2.16,-0.359 l 0.398,-0.137 0.02,-0.418 c 0.144,-3.039 1.32,-5.551 1.332,-5.574 l 0.422,-0.887"
         style="fill:#294099;fill-opacity:1;fill-rule:nonzero;stroke:none"
         id="path74" /><path
         d="m 211.457,141.027 -19.187,-0.152 c 0,0 1.238,2.598 1.39,5.813 4.953,1.679 8.977,-3.672 12.535,-3.825 3.559,-0.152 7.274,3.825 7.274,3.825 l -2.012,-5.661 v 0"
         style="fill:#294099;fill-opacity:1;fill-rule:nonzero;stroke:none"
         id="path76" /><path
         d="m 194.246,146.223 c -0.152,-2.012 -0.687,-3.739 -1.058,-4.727 l 17.832,0.145 1.062,2.988 c -1.488,-1.156 -3.727,-2.477 -5.914,-2.383 -1.555,0.07 -3.098,0.977 -4.734,1.938 -1.848,1.089 -3.762,2.214 -5.809,2.214 -0.473,0 -0.926,-0.058 -1.379,-0.175 z m -2.953,-5.969 0.418,0.887 c 0.012,0.023 1.187,2.535 1.336,5.574 l 0.019,0.418 0.399,0.137 c 0.699,0.238 1.426,0.359 2.16,0.359 2.383,0 4.535,-1.266 6.434,-2.383 1.496,-0.883 2.914,-1.715 4.164,-1.769 3.257,-0.141 6.761,3.593 6.797,3.628 l 1.027,-0.625 -2.156,-6.066 -20.598,-0.16"
         style="fill:#294099;fill-opacity:1;fill-rule:nonzero;stroke:none"
         id="path78" /><path
         d="m 155.281,140.875 9.75,0.305 c 0,0 0.157,2.906 -4.953,2.906 -5.105,0 -4.64,-3.363 -4.797,-3.211 v 0"
         style="fill:#294099;fill-opacity:1;fill-rule:nonzero;stroke:none"
         id="path80" /><path
         d="m 160.078,143.473 c -2.937,0 -3.754,-1.153 -4.012,-1.957 l 8.219,0.257 c -0.082,0.184 -0.207,0.395 -0.414,0.606 -0.695,0.715 -2.008,1.094 -3.793,1.094 z m -5.992,-3.25 0.402,0.574 -0.656,0.648 0.957,0.032 c 0.586,2.652 3.176,3.222 5.289,3.222 2.184,0 3.77,-0.504 4.711,-1.5 0.887,-0.937 0.863,-1.941 0.856,-2.051 l -0.032,-0.566 -11.527,-0.359"
         style="fill:#294099;fill-opacity:1;fill-rule:nonzero;stroke:none"
         id="path82" /><path
         d="m 129.801,145.488 c 1.457,-7.347 6.414,-12.476 12.074,-12.476 4.957,0 9.105,3.976 11.414,10.781 -1.98,-1.727 -4.676,-2.68 -7.738,-2.68 -4.453,0 -8.656,1.973 -10.297,4.809 -0.43,0.535 -0.656,2.93 -0.625,16.051 0.019,6.699 0.113,13.449 0.137,15.09 -0.5,0.3 -1.313,0.929 -1.371,1.867 -0.051,0.816 0.605,1.238 1.082,1.547 0.48,0.308 0.707,0.484 0.707,0.765 0,0.145 -0.024,0.203 -0.563,0.414 -0.496,0.196 -1.332,0.524 -1.363,1.543 0.004,1 0.816,1.399 1.355,1.664 0.403,0.2 0.582,0.309 0.575,0.414 -0.02,0.223 -0.266,0.368 -0.848,0.629 -0.602,0.266 -1.422,0.629 -1.496,1.551 -0.047,0.613 0.304,1.117 0.761,1.535 l -2.89,-0.058 c 0.262,-0.329 0.484,-0.75 0.469,-1.286 -0.016,-0.703 -0.477,-1.222 -0.848,-1.644 -0.195,-0.219 -0.41,-0.465 -0.469,-0.641 0.063,-0.133 0.379,-0.394 0.574,-0.554 0.504,-0.418 1.133,-0.938 1.153,-1.711 0.019,-0.817 -0.707,-1.196 -1.188,-1.446 -0.144,-0.074 -0.379,-0.195 -0.465,-0.273 0.055,-0.469 0.364,-0.75 0.715,-1.074 0.364,-0.332 0.817,-0.75 0.797,-1.395 -0.019,-0.785 -0.765,-1.187 -1.367,-1.515 -0.184,-0.098 -0.445,-0.239 -0.555,-0.332 0.067,-2.125 0.258,-29.715 0.27,-31.575 z m 12.074,-13.707 c -6.27,0 -11.738,5.563 -13.293,13.528 -0.008,0.039 -0.012,0.074 -0.012,0.113 0,0.305 -0.207,30.476 -0.273,31.699 0.004,0.711 0.641,1.055 1.203,1.356 0.234,0.128 0.672,0.363 0.73,0.496 -0.003,0.054 -0.246,0.277 -0.406,0.425 -0.437,0.403 -1.035,0.95 -1.113,1.93 -0.063,0.801 0.652,1.172 1.125,1.418 0.168,0.086 0.484,0.25 0.531,0.34 -0.012,0.195 -0.414,0.531 -0.711,0.773 -0.496,0.411 -1.058,0.875 -1.023,1.567 0.078,0.601 0.453,1.023 0.781,1.394 0.262,0.297 0.535,0.606 0.539,0.86 0.012,0.328 -0.312,0.629 -0.574,0.875 -0.266,0.25 -0.625,0.59 -0.438,1.066 0.211,0.539 0.899,0.539 1.622,0.543 l 3.367,0.066 c 0.019,0 0.039,0 0.058,0 0.141,-0.007 1.16,-0.035 1.418,-0.019 0.266,0.008 0.5,-0.141 0.602,-0.383 0.097,-0.238 0.035,-0.515 -0.156,-0.691 -0.141,-0.125 -0.336,-0.258 -0.563,-0.414 -0.34,-0.231 -1.242,-0.848 -1.219,-1.168 0.016,-0.176 0.313,-0.325 0.77,-0.528 0.629,-0.277 1.488,-0.66 1.57,-1.648 0.082,-0.957 -0.719,-1.356 -1.254,-1.617 -0.5,-0.25 -0.668,-0.364 -0.668,-0.547 0.004,-0.145 0.063,-0.207 0.582,-0.414 0.504,-0.196 1.344,-0.528 1.344,-1.559 0,-0.98 -0.766,-1.472 -1.269,-1.801 -0.2,-0.125 -0.528,-0.339 -0.524,-0.433 0.031,-0.434 0.711,-0.879 1.02,-1.02 0.222,-0.101 0.367,-0.324 0.363,-0.57 -0.176,-11.039 -0.27,-28.953 0.207,-30.703 0.019,-0.024 0.039,-0.051 0.055,-0.078 1.359,-2.489 5.265,-4.293 9.285,-4.293 3.777,0 6.91,1.59 8.601,4.355 0.157,0.258 0.481,0.367 0.762,0.246 0.277,-0.113 0.434,-0.418 0.359,-0.711 -2.195,-9.05 -7.203,-14.453 -13.398,-14.453"
         style="fill:#5e1119;fill-opacity:1;fill-rule:nonzero;stroke:none"
         id="path84" /><path
         d="m 154.676,146.379 c -4.406,-7.219 -16.196,-5.078 -18.953,-0.039 -0.825,0.23 -0.336,31.09 -0.336,31.09 0,0 -1.317,0.59 -1.379,1.539 -0.059,0.961 1.793,1.047 1.793,2.273 0,1.223 -1.891,0.742 -1.93,1.977 0.008,1.179 2.02,1.015 1.93,2.105 -0.106,1.231 -2.254,1.047 -2.344,2.18 -0.07,0.902 1.535,1.684 1.981,2.09 -0.29,-0.016 -1.489,0.019 -1.497,0.023 -1.128,-0.023 -2.253,-0.047 -3.378,-0.07 -2.399,0 0.042,-0.516 0.007,-1.883 -0.023,-0.894 -1.215,-1.488 -1.324,-2.266 -0.035,-0.796 1.711,-1.359 1.731,-2.316 0.019,-0.852 -1.715,-0.91 -1.653,-1.703 0.11,-1.344 1.539,-1.641 1.516,-2.453 -0.024,-0.813 -1.926,-1.121 -1.93,-1.77 0.067,-1.254 0.278,-31.73 0.278,-31.73 3.031,-15.524 20.531,-19.473 25.488,0.953 v 0"
         style="fill:#d01e27;fill-opacity:1;fill-rule:nonzero;stroke:none"
         id="path86" /><path
         d="m 150.785,172.703 19.047,-5.027 v 27.179 c -5.531,0.18 -9.992,6.024 -10.18,11.063 -0.144,3.895 2.078,6.746 6.106,8.07 -1.418,0.121 -2.719,0.184 -3.895,0.184 -8.437,0 -9.836,-3.106 -11.226,-6.43 z m 19.66,-6.441 c -0.05,0 -0.105,0.008 -0.156,0.019 l -20.273,5.356 c -0.27,0.07 -0.457,0.312 -0.457,0.59 l -0.157,35.632 c 0,0.086 0.02,0.164 0.051,0.243 1.5,3.589 3.055,7.3 12.41,7.3 2.266,0 4.973,-0.222 8.051,-0.66 0.313,-0.043 0.539,-0.316 0.527,-0.629 -0.007,-0.312 -0.253,-0.57 -0.57,-0.593 -5.875,-0.438 -9.152,-3.192 -8.992,-7.555 0.168,-4.477 4.316,-9.883 9.215,-9.883 v 0 c 0.105,0 0.215,0.004 0.32,0.008 0.164,0.008 0.332,-0.051 0.457,-0.168 0.121,-0.117 0.192,-0.277 0.192,-0.445 v -28.602 c 0,-0.191 -0.09,-0.371 -0.243,-0.484 -0.105,-0.086 -0.242,-0.129 -0.375,-0.129"
         style="fill:#5e1119;fill-opacity:1;fill-rule:nonzero;stroke:none"
         id="path88" /><path
         d="m 150.172,172.23 20.273,-5.355 v 28.602 c -9.285,-0.461 -17.019,17.433 -0.617,18.656 -16.094,2.297 -17.953,-1.832 -19.808,-6.27 l 0.156,-35.633 h -0.004"
         style="fill:#d01e27;fill-opacity:1;fill-rule:nonzero;stroke:none"
         id="path90" /><path
         d="m 167.602,143.793 c 2.308,-6.805 6.457,-10.777 11.41,-10.781 h 0.004 c 5.66,0.004 10.621,5.129 12.074,12.476 0.012,1.852 0.203,29.168 0.269,31.575 -0.109,0.093 -0.371,0.234 -0.554,0.332 -0.602,0.328 -1.348,0.73 -1.367,1.515 -0.02,0.645 0.433,1.063 0.796,1.395 0.352,0.324 0.661,0.605 0.715,1.074 -0.086,0.078 -0.316,0.199 -0.461,0.273 -0.48,0.25 -1.207,0.629 -1.191,1.446 0.019,0.773 0.648,1.293 1.152,1.711 0.196,0.16 0.516,0.421 0.574,0.554 -0.054,0.176 -0.273,0.422 -0.464,0.641 -0.375,0.418 -0.836,0.941 -0.852,1.644 -0.016,0.536 0.207,0.957 0.469,1.286 l -3.121,0.062 c 0.285,-0.375 0.492,-0.844 0.449,-1.422 -0.063,-0.855 -0.641,-1.242 -1.063,-1.523 -0.41,-0.274 -0.554,-0.399 -0.582,-0.699 -0.011,-0.125 0.09,-0.211 0.536,-0.469 0.492,-0.285 1.234,-0.711 1.242,-1.66 -0.032,-1.035 -0.824,-1.364 -1.297,-1.563 -0.496,-0.207 -0.52,-0.258 -0.52,-0.418 0,-0.293 0.203,-0.461 0.66,-0.773 0.45,-0.313 1.067,-0.735 1.016,-1.539 -0.058,-0.938 -0.871,-1.567 -1.371,-1.867 0.023,-1.641 0.117,-8.391 0.137,-15.09 0.031,-13.121 -0.196,-15.516 -0.625,-16.051 -1.641,-2.836 -5.844,-4.809 -10.297,-4.809 v 0 c -3.063,0 -5.758,0.953 -7.738,2.68 z m 11.41,-12.012 c -6.192,0 -11.199,5.403 -13.395,14.453 -0.074,0.293 0.082,0.598 0.36,0.711 0.281,0.118 0.605,0.012 0.761,-0.246 1.692,-2.765 4.825,-4.355 8.602,-4.355 v 0 c 4.019,0 7.926,1.804 9.285,4.293 0.016,0.027 0.035,0.054 0.055,0.078 0.476,1.75 0.383,19.664 0.211,30.703 -0.004,0.246 0.136,0.469 0.363,0.57 0.316,0.149 0.988,0.59 1.016,1.02 0.003,0.105 -0.254,0.285 -0.489,0.445 -0.472,0.324 -1.187,0.82 -1.187,1.789 0,1.024 0.793,1.356 1.269,1.555 0.489,0.203 0.535,0.262 0.539,0.441 0,0.184 -0.148,0.305 -0.625,0.578 -0.488,0.282 -1.222,0.707 -1.144,1.637 0.078,0.922 0.683,1.324 1.125,1.621 0.379,0.254 0.504,0.356 0.519,0.59 0.032,0.457 -0.359,0.813 -0.875,1.234 -0.105,0.086 -0.203,0.165 -0.285,0.239 -0.191,0.176 -0.254,0.453 -0.156,0.691 0.102,0.242 0.34,0.391 0.602,0.383 0.257,-0.016 1.199,0.012 1.335,0.019 0.024,0 0.043,0 0.067,0 l 3.375,-0.066 c 0.715,-0.004 1.398,-0.004 1.609,-0.543 0.192,-0.476 -0.172,-0.816 -0.437,-1.066 -0.258,-0.242 -0.582,-0.547 -0.574,-0.875 0.003,-0.254 0.277,-0.563 0.539,-0.86 0.332,-0.371 0.703,-0.793 0.777,-1.336 0.039,-0.75 -0.524,-1.214 -1.02,-1.625 -0.296,-0.246 -0.703,-0.578 -0.707,-0.789 0.043,-0.074 0.36,-0.238 0.528,-0.324 0.472,-0.246 1.187,-0.617 1.125,-1.418 -0.078,-0.98 -0.676,-1.527 -1.114,-1.93 -0.16,-0.148 -0.402,-0.371 -0.398,-0.457 0.055,-0.101 0.488,-0.336 0.723,-0.464 0.562,-0.301 1.199,-0.645 1.207,-1.317 -0.067,-1.262 -0.278,-31.433 -0.278,-31.738 0,-0.039 -0.004,-0.074 -0.011,-0.113 -1.555,-7.961 -7.024,-13.524 -13.293,-13.528 h -0.004"
         style="fill:#5e1119;fill-opacity:1;fill-rule:nonzero;stroke:none"
         id="path92" /><path
         d="m 166.215,146.379 c 4.406,-7.219 16.195,-5.078 18.953,-0.039 0.824,0.23 0.336,31.09 0.336,31.09 0,0 1.316,0.59 1.379,1.539 0.058,0.961 -1.676,1.047 -1.676,2.273 0,1.223 1.773,0.742 1.813,1.977 -0.008,1.179 -1.864,1.094 -1.774,2.183 0.106,1.231 1.563,1.086 1.645,2.219 0.07,0.973 -0.914,1.567 -1.36,1.973 0.289,-0.016 1.41,0.019 1.418,0.023 1.125,-0.023 2.254,-0.047 3.379,-0.07 2.399,0 -0.043,-0.516 -0.008,-1.883 0.024,-0.894 1.215,-1.488 1.325,-2.266 0.039,-0.796 -1.711,-1.359 -1.731,-2.316 -0.019,-0.852 1.715,-0.91 1.652,-1.703 -0.105,-1.344 -1.539,-1.641 -1.515,-2.453 0.023,-0.813 1.926,-1.121 1.929,-1.77 -0.066,-1.254 -0.277,-31.73 -0.277,-31.73 -3.031,-15.524 -20.527,-19.473 -25.488,0.953 v 0"
         style="fill:#d01e27;fill-opacity:1;fill-rule:nonzero;stroke:none"
         id="path94" /><path
         d="m 149.402,145.008 c 1.703,0.918 3.25,1.836 4.332,3.976 l -6.652,-0.152 c 0,0 -3.094,-1.836 -4.644,-3.824 h 6.964 v 0"
         style="fill:#5e1119;fill-opacity:1;fill-rule:nonzero;stroke:none"
         id="path96" /><path
         d="m 170.91,145.008 c -1.703,0.918 -3.25,1.836 -4.336,3.976 l 6.656,-0.152 c 0,0 3.094,-1.836 4.641,-3.824 h -6.961 v 0"
         style="fill:#5e1119;fill-opacity:1;fill-rule:nonzero;stroke:none"
         id="path98" /><path
         d="m 137.332,151.43 45.805,-0.153"
         style="fill:#5e1119;fill-opacity:1;fill-rule:nonzero;stroke:none"
         id="path100" /><path
         d="m 183.137,150.387 h -0.004 l -45.805,0.152 c -0.492,0.004 -0.887,0.402 -0.887,0.895 0,0.488 0.399,0.886 0.891,0.886 h 0.004 l 45.805,-0.152 c 0.488,-0.004 0.886,-0.402 0.882,-0.895 0,-0.488 -0.398,-0.886 -0.886,-0.886"
         style="fill:#5e1119;fill-opacity:1;fill-rule:nonzero;stroke:none"
         id="path102" /><path
         d="m 139.496,162.285 5.418,-7.187"
         style="fill:#5e1119;fill-opacity:1;fill-rule:nonzero;stroke:none"
         id="path104" /><path
         d="m 144.914,154.207 c -0.269,0 -0.535,0.121 -0.711,0.356 l -5.418,7.187 c -0.293,0.395 -0.215,0.949 0.176,1.246 0.391,0.293 0.949,0.219 1.246,-0.176 l 5.414,-7.187 c 0.297,-0.395 0.219,-0.949 -0.172,-1.246 -0.16,-0.121 -0.347,-0.18 -0.535,-0.18"
         style="fill:#5e1119;fill-opacity:1;fill-rule:nonzero;stroke:none"
         id="path106" /><path
         d="m 139.496,155.102 5.883,7.035"
         style="fill:#5e1119;fill-opacity:1;fill-rule:nonzero;stroke:none"
         id="path108" /><path
         d="m 139.496,154.211 c -0.199,0 -0.402,0.066 -0.57,0.207 -0.375,0.312 -0.426,0.875 -0.113,1.254 l 5.882,7.031 c 0.317,0.379 0.875,0.43 1.254,0.113 0.375,-0.312 0.426,-0.875 0.11,-1.253 l -5.879,-7.036 c -0.176,-0.207 -0.43,-0.316 -0.684,-0.316"
         style="fill:#5e1119;fill-opacity:1;fill-rule:nonzero;stroke:none"
         id="path110" /><path
         d="m 142.594,162.75 -0.156,-4.434"
         style="fill:#5e1119;fill-opacity:1;fill-rule:nonzero;stroke:none"
         id="path112" /><path
         d="m 142.438,157.426 c -0.008,0 -0.02,0 -0.032,0 -0.492,0.019 -0.875,0.429 -0.855,0.922 l 0.152,4.433 c 0.02,0.492 0.442,0.883 0.922,0.86 0.488,-0.02 0.875,-0.43 0.855,-0.922 l -0.156,-4.434 c -0.015,-0.48 -0.41,-0.859 -0.886,-0.859"
         style="fill:#5e1119;fill-opacity:1;fill-rule:nonzero;stroke:none"
         id="path114" /><path
         d="m 148.164,162.285 5.414,-7.187"
         style="fill:#5e1119;fill-opacity:1;fill-rule:nonzero;stroke:none"
         id="path116" /><path
         d="m 153.578,154.207 c -0.269,0 -0.535,0.121 -0.711,0.356 l -5.414,7.187 c -0.297,0.395 -0.219,0.949 0.176,1.246 0.391,0.293 0.949,0.219 1.242,-0.176 l 5.418,-7.187 c 0.297,-0.395 0.219,-0.949 -0.176,-1.246 -0.16,-0.121 -0.347,-0.18 -0.535,-0.18"
         style="fill:#5e1119;fill-opacity:1;fill-rule:nonzero;stroke:none"
         id="path118" /><path
         d="m 148.164,155.102 5.879,7.035"
         style="fill:#5e1119;fill-opacity:1;fill-rule:nonzero;stroke:none"
         id="path120" /><path
         d="m 148.16,154.211 c -0.199,0 -0.402,0.066 -0.566,0.207 -0.379,0.312 -0.43,0.875 -0.114,1.254 l 5.879,7.031 c 0.317,0.379 0.875,0.43 1.254,0.113 0.375,-0.312 0.426,-0.875 0.114,-1.253 l -5.883,-7.036 c -0.176,-0.207 -0.426,-0.316 -0.684,-0.316"
         style="fill:#5e1119;fill-opacity:1;fill-rule:nonzero;stroke:none"
         id="path122" /><path
         d="m 151.258,162.75 -0.153,-4.434"
         style="fill:#5e1119;fill-opacity:1;fill-rule:nonzero;stroke:none"
         id="path124" /><path
         d="m 151.105,157.426 c -0.011,0 -0.019,0 -0.031,0 -0.492,0.019 -0.875,0.429 -0.859,0.922 l 0.156,4.433 c 0.016,0.492 0.43,0.883 0.918,0.86 0.492,-0.02 0.875,-0.43 0.859,-0.922 l -0.156,-4.434 c -0.015,-0.48 -0.41,-0.859 -0.887,-0.859"
         style="fill:#5e1119;fill-opacity:1;fill-rule:nonzero;stroke:none"
         id="path126" /><path
         d="m 156.984,162.285 5.414,-7.187"
         style="fill:#5e1119;fill-opacity:1;fill-rule:nonzero;stroke:none"
         id="path128" /><path
         d="m 162.398,154.207 c -0.265,0 -0.535,0.121 -0.71,0.356 l -5.415,7.187 c -0.296,0.395 -0.218,0.949 0.176,1.246 0.391,0.293 0.949,0.219 1.242,-0.176 l 5.418,-7.187 c 0.297,-0.395 0.219,-0.949 -0.175,-1.246 -0.161,-0.121 -0.348,-0.18 -0.536,-0.18"
         style="fill:#5e1119;fill-opacity:1;fill-rule:nonzero;stroke:none"
         id="path130" /><path
         d="m 156.984,155.102 5.879,7.035"
         style="fill:#5e1119;fill-opacity:1;fill-rule:nonzero;stroke:none"
         id="path132" /><path
         d="m 156.98,154.211 c -0.199,0 -0.402,0.066 -0.566,0.207 -0.379,0.312 -0.43,0.875 -0.113,1.254 l 5.879,7.031 c 0.316,0.379 0.875,0.43 1.254,0.113 0.379,-0.312 0.425,-0.875 0.113,-1.253 l -5.883,-7.036 c -0.176,-0.207 -0.426,-0.316 -0.684,-0.316"
         style="fill:#5e1119;fill-opacity:1;fill-rule:nonzero;stroke:none"
         id="path134" /><path
         d="m 160.078,162.75 -0.152,-4.434"
         style="fill:#5e1119;fill-opacity:1;fill-rule:nonzero;stroke:none"
         id="path136" /><path
         d="m 159.926,157.426 c -0.012,0 -0.024,0 -0.031,0 -0.493,0.019 -0.875,0.429 -0.86,0.922 l 0.156,4.433 c 0.016,0.492 0.434,0.883 0.918,0.86 0.493,-0.02 0.875,-0.43 0.86,-0.922 l -0.156,-4.434 c -0.016,-0.48 -0.411,-0.859 -0.887,-0.859"
         style="fill:#5e1119;fill-opacity:1;fill-rule:nonzero;stroke:none"
         id="path138" /><path
         d="m 166.113,162.285 5.414,-7.187"
         style="fill:#5e1119;fill-opacity:1;fill-rule:nonzero;stroke:none"
         id="path140" /><path
         d="m 171.531,154.207 c -0.269,0 -0.539,0.121 -0.711,0.356 l -5.418,7.187 c -0.297,0.395 -0.218,0.949 0.176,1.246 0.391,0.293 0.949,0.219 1.246,-0.176 l 5.414,-7.187 c 0.297,-0.395 0.219,-0.949 -0.172,-1.246 -0.16,-0.121 -0.347,-0.18 -0.535,-0.18"
         style="fill:#5e1119;fill-opacity:1;fill-rule:nonzero;stroke:none"
         id="path142" /><path
         d="m 166.113,155.102 5.879,7.035"
         style="fill:#5e1119;fill-opacity:1;fill-rule:nonzero;stroke:none"
         id="path144" /><path
         d="m 166.113,154.211 c -0.203,0 -0.402,0.066 -0.57,0.207 -0.379,0.312 -0.426,0.875 -0.113,1.254 l 5.883,7.031 c 0.312,0.379 0.875,0.43 1.25,0.113 0.378,-0.312 0.429,-0.875 0.113,-1.253 l -5.879,-7.036 c -0.18,-0.207 -0.43,-0.316 -0.684,-0.316"
         style="fill:#5e1119;fill-opacity:1;fill-rule:nonzero;stroke:none"
         id="path146" /><path
         d="m 169.211,162.75 -0.156,-4.434"
         style="fill:#5e1119;fill-opacity:1;fill-rule:nonzero;stroke:none"
         id="path148" /><path
         d="m 169.055,157.426 c -0.012,0 -0.02,0 -0.032,0 -0.492,0.019 -0.875,0.429 -0.855,0.922 l 0.152,4.433 c 0.02,0.492 0.414,0.883 0.918,0.86 0.492,-0.02 0.875,-0.43 0.86,-0.922 l -0.157,-4.434 c -0.015,-0.48 -0.41,-0.859 -0.886,-0.859"
         style="fill:#5e1119;fill-opacity:1;fill-rule:nonzero;stroke:none"
         id="path150" /><path
         d="m 174.934,162.285 5.418,-7.187"
         style="fill:#5e1119;fill-opacity:1;fill-rule:nonzero;stroke:none"
         id="path152" /><path
         d="m 180.352,154.207 c -0.27,0 -0.539,0.121 -0.711,0.356 l -5.418,7.187 c -0.297,0.395 -0.215,0.949 0.175,1.246 0.391,0.293 0.95,0.219 1.247,-0.176 l 5.414,-7.187 c 0.296,-0.395 0.218,-0.949 -0.172,-1.246 -0.16,-0.121 -0.352,-0.18 -0.535,-0.18"
         style="fill:#5e1119;fill-opacity:1;fill-rule:nonzero;stroke:none"
         id="path154" /><path
         d="m 174.934,155.102 5.879,7.035"
         style="fill:#5e1119;fill-opacity:1;fill-rule:nonzero;stroke:none"
         id="path156" /><path
         d="m 174.934,154.211 c -0.204,0 -0.403,0.066 -0.571,0.207 -0.379,0.316 -0.425,0.875 -0.113,1.254 l 5.883,7.031 c 0.316,0.379 0.875,0.43 1.254,0.113 0.375,-0.316 0.426,-0.875 0.109,-1.253 l -5.879,-7.036 c -0.176,-0.207 -0.429,-0.316 -0.683,-0.316"
         style="fill:#5e1119;fill-opacity:1;fill-rule:nonzero;stroke:none"
         id="path158" /><path
         d="m 178.031,162.75 -0.156,-4.434"
         style="fill:#5e1119;fill-opacity:1;fill-rule:nonzero;stroke:none"
         id="path160" /><path
         d="m 177.875,157.426 c -0.012,0 -0.02,0 -0.031,0 -0.492,0.019 -0.875,0.429 -0.856,0.922 l 0.153,4.433 c 0.015,0.492 0.422,0.883 0.922,0.86 0.488,-0.02 0.871,-0.43 0.855,-0.922 l -0.152,-4.434 c -0.02,-0.48 -0.414,-0.859 -0.891,-0.859"
         style="fill:#5e1119;fill-opacity:1;fill-rule:nonzero;stroke:none"
         id="path162" /></g></g></svg>
