<?xml version="1.0" encoding="UTF-8" standalone="no"?>
<svg
   xmlns:dc="http://purl.org/dc/elements/1.1/"
   xmlns:cc="http://creativecommons.org/ns#"
   xmlns:rdf="http://www.w3.org/1999/02/22-rdf-syntax-ns#"
   xmlns:svg="http://www.w3.org/2000/svg"
   xmlns="http://www.w3.org/2000/svg"
   version="1.1"
   id="svg2"
   xml:space="preserve"
   width="42.666668"
   height="42.666668"
   viewBox="0 0 42.666668 42.666668"><metadata
     id="metadata8"><rdf:RDF><cc:Work
         rdf:about=""><dc:format>image/svg+xml</dc:format><dc:type
           rdf:resource="http://purl.org/dc/dcmitype/StillImage" /></cc:Work></rdf:RDF></metadata><defs
     id="defs6" /><g
     id="g10"
     transform="matrix(1.3333333,0,0,-1.3333333,0,42.666667)"><g
       id="g12"
       transform="scale(0.1)"><path
         d="m 46.7734,46.7813 c 62.3676,-62.3438 164.0786,-62.3438 226.4416,0.0273 62.363,62.3394 62.39,164.0704 0.023,226.4104 -62.367,62.344 -164.097,62.344 -226.4646,-0.02 -62.3632,-62.363 -62.3632,-164.074 0,-226.4177"
         style="fill:#100f0d;fill-opacity:1;fill-rule:evenodd;stroke:none"
         id="path14" /><path
         d="m 273.238,273.219 c -62.367,62.344 -164.097,62.344 -226.4646,-0.02 L 273.215,46.8086 c 62.363,62.3394 62.39,164.0704 0.023,226.4104"
         style="fill:#d01e27;fill-opacity:1;fill-rule:evenodd;stroke:none"
         id="path16" /><path
         d="m 239.676,208.32 c 0.199,0.512 0.359,1.008 0.578,1.453 3.242,-0.828 5.91,-3.14 9.195,-3.863 0.969,0.586 1.059,1.844 1.512,2.785 5.5,-5.461 9.574,-12.496 11.32,-20.074 -6.691,7.418 -14.25,14.16 -22.605,19.699 z m 29.601,-28.984 c -1.277,1.598 -2.07,3.508 -2.047,5.578 -0.574,5.305 -1.777,10.68 -4.609,15.238 -1.121,1.934 -3.008,3.465 -3.461,5.711 1.461,-0.941 2.789,-2.066 4.406,-2.781 0.09,2.328 -1.164,4.379 -1.707,6.582 3.02,-1.254 5.125,-3.883 8.008,-5.367 -0.679,5.773 -2.883,11.437 -5.781,16.449 0.945,-0.336 1.91,-0.625 2.898,-0.965 -2.199,4.453 -5.125,8.543 -8.066,12.5 -1.371,1.778 -2.746,3.715 -4.883,4.61 1.258,0.25 2.543,0.519 3.848,0.765 -4.594,4.492 -9.715,8.785 -15.625,11.356 1.906,1.347 4.109,2.047 6.246,2.965 -9.805,5.191 -22.16,5.281 -31.871,-0.137 2.176,3.305 6.242,5.082 7.707,8.836 -0.879,1.082 -2.094,1.801 -3.039,2.785 1.664,1.465 3.781,2.543 4.879,4.59 -1.399,0.738 -2.926,0.992 -4.52,1.125 0.883,2.383 3.309,3.91 3.715,6.496 -1.375,0.336 -2.793,0.445 -4.207,0.496 0.793,1.594 1.461,3.258 1.707,5.035 -1.215,-0.066 -2.402,-0.203 -3.574,-0.316 1.129,3.109 3.531,5.738 4.004,9.152 -4.184,-0.875 -7.555,-3.715 -10.926,-6.113 -5.328,-4.207 -10.52,-9.242 -12.91,-15.785 -1.703,-4.539 -1.5,-9.555 -0.621,-14.25 0.715,-3.286 0,-6.836 -1.711,-9.715 -0.742,-1.328 -2.543,-1.418 -3.778,-0.785 -3.8,1.597 -7.214,4.047 -9.843,7.214 -3.379,3.524 -8.457,0.743 -12.461,0.157 -4.067,-0.446 -8.11,1.078 -12.207,1.008 3.254,-2.512 7.511,-3.168 10.972,-5.329 1.461,-1.007 2.207,-2.828 3.953,-3.457 3.582,-1.617 7.739,-2.875 10.165,-6.164 1.664,-2.218 -0.629,-5.843 -3.375,-5.058 -4.469,1.105 -8.247,3.957 -12.793,4.84 -4.582,1.164 -9.489,-0.317 -13.122,-3.196 -5.089,-4.051 -9.132,-9.261 -12.125,-14.949 -2.156,-4.203 -4.832,-8.297 -6.043,-12.926 2.918,1.344 4.497,4.336 7.153,6.043 -0.367,-1.949 -1.266,-3.707 -1.801,-5.613 3.191,1.027 5.488,3.703 8.652,4.828 -0.062,-1.844 -0.742,-3.594 -0.742,-5.461 2.496,1.117 3.91,3.664 6.41,4.742 -0.199,-2.25 -1.957,-4.609 -0.703,-6.859 3.039,2.25 5.196,5.668 8.656,7.289 0.047,-2.297 -0.785,-4.5 -0.738,-6.793 3.192,2.402 5.488,5.867 8.949,7.918 0.403,-2.59 -0.136,-5.18 -0.039,-7.758 3.161,2.676 5.368,6.246 7.86,9.461 0.289,-4.336 0.679,-8.742 2.476,-12.793 1.664,-3.797 4.989,-6.355 7.821,-9.234 3.171,-2.789 6.211,-5.918 9.914,-7.961 0.34,2 0.117,4.086 0.16,6.117 2.879,-2.41 5.328,-5.488 8.879,-6.902 -0.043,1.523 -0.133,3.078 0,4.605 1.172,-0.832 2.16,-1.863 3.172,-2.902 6.793,-7.168 15.332,-12.785 24.863,-15.535 -0.918,2.539 -2.629,4.656 -3.617,7.199 1.91,-0.586 3.773,-1.371 5.73,-1.871 -2.199,4.363 -5.914,7.867 -7.691,12.461 1.285,-0.137 2.57,-0.34 3.871,-0.477 -1.957,2.926 -4.383,5.465 -6.426,8.297 -1.039,1.457 -2.32,2.973 -2.168,4.879 1.082,-0.34 2.137,-0.672 3.223,-1.012 -0.543,3.125 -2.203,5.957 -2.5,9.172 4.164,-0.875 7.152,-4.59 11.445,-5.035 0.203,0.746 0.426,1.461 0.625,2.203 8.348,-6.586 16.324,-13.777 22.488,-22.48 1.164,-1.465 0.422,-3.465 0.27,-5.129 -1.684,-7.707 -6.973,-14.922 -14.34,-18.028 -5.918,-2.519 -12.461,-1.511 -18.422,0.246 4.254,-4.386 10.637,-6.925 16.707,-6.089 7.328,1.457 14.41,5.707 18.004,12.406 1.426,2.433 2.004,5.172 2.836,7.848 2.863,-6.254 4.004,-13.333 2.699,-20.075 -0.922,-5.398 -3.91,-10.547 -8.656,-13.336 -5.418,-3.304 -12.008,-3.64 -18.16,-3.375 10.406,-6.297 25.848,-1.05 30.441,10.278 4.668,10.707 1.957,23.16 -4.504,32.531"
         style="fill:#f7cf0d;fill-opacity:1;fill-rule:nonzero;stroke:none"
         id="path18" /><path
         d="m 95.1406,178.305 c 1.4102,4.566 2.8242,9.16 4.3711,13.699 1.3323,-4.559 2.6873,-9.133 3.9723,-13.699 4.633,-0.063 9.297,0 13.934,-0.024 -3.645,-2.855 -7.34,-5.648 -10.996,-8.433 1.336,-4.508 2.734,-8.91 4.016,-13.418 -3.625,2.812 -7.274,5.562 -10.8872,8.394 -3.7266,-2.601 -7.332,-5.371 -11.0274,-7.988 1.2852,4.355 2.7032,8.652 3.9922,13.012 -3.6015,2.785 -7.2968,5.578 -10.9023,8.433 4.4805,0.024 8.9726,-0.039 13.5273,0.024"
         style="fill:#ffffff;fill-opacity:1;fill-rule:nonzero;stroke:none"
         id="path20" /><path
         d="m 141.461,141.918 c 1.441,-4.531 2.68,-9.125 4.008,-13.695 4.64,-0.067 9.281,0 13.961,-0.067 -3.657,-2.812 -7.321,-5.597 -10.969,-8.433 1.324,-4.469 2.676,-8.934 3.988,-13.379 -3.644,2.765 -7.293,5.562 -10.906,8.347 -3.691,-2.593 -7.293,-5.363 -10.988,-7.976 1.289,4.355 2.664,8.648 3.988,13.008 -3.645,2.836 -7.34,5.621 -10.984,8.433 4.531,0.067 9.011,0 13.562,0.02 1.422,4.617 2.899,9.168 4.34,13.742"
         style="fill:#ffffff;fill-opacity:1;fill-rule:nonzero;stroke:none"
         id="path22" /><path
         d="m 57.2656,137.941 c 1.5,-4.48 2.6836,-9.097 4.0391,-13.625 4.6133,0 9.2226,0.043 13.8203,0 -3.5586,-2.875 -7.2539,-5.628 -10.8633,-8.437 1.293,-4.449 2.6875,-8.906 3.9766,-13.352 -3.6719,2.703 -7.2813,5.582 -10.9258,8.352 -3.6953,-2.66 -7.3008,-5.371 -10.9922,-7.988 1.2813,4.336 2.7031,8.656 4.0117,12.988 -3.6523,2.809 -7.3164,5.562 -10.9023,8.437 4.4844,0.043 8.9922,0 13.457,0 1.4571,4.528 2.8321,9.098 4.3789,13.625"
         style="fill:#ffffff;fill-opacity:1;fill-rule:nonzero;stroke:none"
         id="path24" /><path
         d="m 118.273,94.5156 c 0.801,-2.2265 1.379,-4.5273 2.082,-6.7617 2.278,-0.043 4.575,0 6.895,-0.043 -1.805,-1.4375 -3.609,-2.8086 -5.41,-4.207 0.598,-2.207 1.312,-4.4219 1.93,-6.6523 -1.844,1.3515 -3.645,2.75 -5.454,4.164 -1.839,-1.3242 -3.601,-2.7031 -5.453,-4.0156 0.649,2.2148 1.332,4.3398 1.981,6.5039 -1.805,1.3984 -3.61,2.7695 -5.434,4.207 2.254,0.043 4.488,0 6.742,0.043 0.703,2.2344 1.395,4.5352 2.121,6.7617"
         style="fill:#ffffff;fill-opacity:1;fill-rule:nonzero;stroke:none"
         id="path26" /><path
         d="m 99.4336,65.1094 c 1.5394,-4.5078 2.7034,-9.1446 4.1174,-13.6758 4.613,0.043 9.25,0 13.867,0 -3.586,-2.832 -7.254,-5.5195 -10.84,-8.3477 0.969,-4.5312 2.641,-8.9531 3.844,-13.4414 -3.649,2.7032 -7.258,5.5391 -10.9103,8.3516 -3.6875,-2.6172 -7.2539,-5.3906 -10.9883,-7.9805 1.2852,4.3321 2.7032,8.6485 3.9922,12.9844 -3.6484,2.8086 -7.3437,5.6016 -10.9531,8.4336 4.0625,0 8.1641,0.043 12.1992,0 0.4727,0.0898 1.3789,-0.2148 1.4571,0.4687 1.4609,4.4063 2.7929,8.8086 4.2148,13.2071"
         style="fill:#ffffff;fill-opacity:1;fill-rule:nonzero;stroke:none"
         id="path28" /></g></g></svg>
