<?xml version="1.0" encoding="UTF-8" standalone="no"?>
<svg
   xmlns:dc="http://purl.org/dc/elements/1.1/"
   xmlns:cc="http://creativecommons.org/ns#"
   xmlns:rdf="http://www.w3.org/1999/02/22-rdf-syntax-ns#"
   xmlns:svg="http://www.w3.org/2000/svg"
   xmlns="http://www.w3.org/2000/svg"
   version="1.1"
   id="svg2"
   xml:space="preserve"
   width="42.666668"
   height="42.666668"
   viewBox="0 0 42.666668 42.666668"><metadata
     id="metadata8"><rdf:RDF><cc:Work
         rdf:about=""><dc:format>image/svg+xml</dc:format><dc:type
           rdf:resource="http://purl.org/dc/dcmitype/StillImage" /></cc:Work></rdf:RDF></metadata><defs
     id="defs6" /><g
     id="g10"
     transform="matrix(1.3333333,0,0,-1.3333333,0,42.666667)"><g
       id="g12"
       transform="scale(0.1)"><path
         d="M 26.7188,71.7148 C 71.1289,101.328 115.57,130.914 160.07,160.477 115.77,190.004 71.4688,219.496 27.1602,248.996 10.0195,223.52 0,192.898 0,160.012 0,127.41 9.83594,97.0391 26.7188,71.7148"
         style="fill:#ffffff;fill-opacity:1;fill-rule:nonzero;stroke:none"
         id="path14" /><path
         d="m 320,160.477 c -0.27,87.918 -72.043,159.511 -160,159.511 -55.242,0 -104.082,-28.218 -132.8398,-70.992 44.3086,-29.5 88.6098,-58.992 132.9098,-88.519 53.305,0 106.618,0 159.93,0"
         style="fill:#29409d;fill-opacity:1;fill-rule:nonzero;stroke:none"
         id="path16" /><path
         d="M 26.7188,71.7148 C 55.3945,28.5391 104.484,0.0117188 160,0.0117188 c 88.137,0 160,71.8632812 160,160.0002812 0,0.16 0,0.336 0,0.465 -53.312,0 -106.625,0 -159.93,0 C 115.57,130.914 71.1289,101.328 26.7188,71.7148"
         style="fill:#d01e27;fill-opacity:1;fill-rule:nonzero;stroke:none"
         id="path18" /><path
         d="m 27.7227,223.203 c 1.6836,-1.348 3.2539,-2.871 4.8515,-4.312 1.9492,0.945 3.7969,2.246 5.7969,3.211 -0.7422,-2.043 -1.7773,-3.969 -2.6289,-6 1.625,-1.567 3.375,-3.004 5.0351,-4.489 -2.2539,0.133 -4.496,0.45 -6.746,0.668 -0.9336,-1.929 -1.5274,-4.019 -2.7149,-5.832 -0.5586,2.043 -0.918,4.129 -1.3242,6.223 -2.2031,0.336 -4.4531,0.445 -6.6758,0.715 1.8242,1.215 3.8008,2.23 5.6797,3.304 -0.3086,2.2 -0.9336,4.313 -1.2734,6.512"
         style="fill:#f7cf0d;fill-opacity:1;fill-rule:nonzero;stroke:none"
         id="path20" /><path
         d="m 64.2773,188.789 c 1.0743,1.234 2.1055,2.445 3.2735,3.551 1.0351,-1.176 2.0508,-2.363 3.0547,-3.508 -0.4414,-4.473 -1.0039,-8.941 -1.4766,-13.414 0.3164,-0.043 0.9414,-0.043 1.2344,-0.063 0.6523,4 1.414,8 2.0898,11.969 0.6758,-0.965 2.0703,-1.769 1.5703,-3.164 -0.7851,-3.008 -1.6211,-6.09 -2.3828,-9.125 1.1016,-0.445 2.2032,-0.894 3.3047,-1.363 1.6914,2.719 3.2188,5.562 4.9024,8.328 0.6054,1.125 2.082,0.699 3.1171,0.926 -2.1132,-3.442 -4.625,-6.625 -6.871,-10 0.289,-0.27 0.6015,-0.492 0.8515,-0.766 2.6055,3.106 5.0547,6.25 7.5469,9.395 1.1719,1.98 3.7773,1.078 5.6133,1.414 -0.0196,-1.547 -0.1328,-3.125 -0.1758,-4.672 -3.457,-2.879 -7.0469,-5.621 -10.5547,-8.496 0.2656,-0.289 0.5352,-0.606 0.7578,-0.914 3.3242,2.359 6.543,4.785 9.8867,7.004 -0.1328,-0.946 0,-1.953 -0.4257,-2.832 -2.8516,-1.93 -5.9063,-3.481 -8.7422,-5.387 0.4726,-1.035 0.9062,-2.051 1.3007,-3.055 3.375,0.781 6.75,1.66 10.1368,2.492 0.6523,-0.613 1.6601,-1.015 1.9336,-1.914 -3.8829,-0.668 -7.7813,-1.281 -11.6797,-1.929 0,-0.27 -0.0508,-0.852 -0.0508,-1.125 4.4726,0.336 8.8711,1.035 13.375,1.351 1.3867,-0.738 2.4609,-2.07 3.6797,-3.105 -1.2578,-0.985 -2.293,-2.426 -3.7735,-3.028 -4.4492,0.223 -8.8515,1.055 -13.3007,1.329 0.0195,-0.321 0.0898,-0.856 0.1328,-1.176 3.957,-0.664 7.9062,-1.324 11.8398,-2.11 -0.7187,-0.625 -1.418,-1.234 -2.1562,-1.8 -3.3868,0.875 -6.7149,1.82 -10.086,2.609 -0.4258,-1.059 -0.8789,-2.109 -1.3515,-3.141 2.9257,-1.937 6.0507,-3.597 8.9648,-5.488 0.1133,-0.965 0.2031,-1.906 0.2695,-2.824 -3.3437,2.336 -6.5976,4.758 -9.9531,7.094 -0.2226,-0.289 -0.4922,-0.629 -0.7148,-0.942 3.5039,-2.832 7.0937,-5.574 10.5547,-8.492 0.0664,-1.574 0.1328,-3.102 0.1836,-4.68 -1.5469,0.098 -3.0547,0.16 -4.629,0.278 -2.832,3.457 -5.6171,7.007 -8.4101,10.511 -0.3555,-0.218 -0.6836,-0.429 -1.0234,-0.652 2.2695,-3.387 4.7382,-6.621 6.9609,-10.039 -0.9024,0.062 -1.7969,0.133 -2.7149,0.223 -1.8671,2.964 -3.5273,6.07 -5.3945,9.035 -1.1015,-0.496 -2.2031,-0.946 -3.3047,-1.418 0.7617,-3.125 1.6407,-6.223 2.4297,-9.324 0.3828,-1.258 -0.9922,-2.043 -1.6172,-2.965 -0.6758,4 -1.4375,7.957 -2.0898,11.996 -0.293,-0.047 -0.918,-0.047 -1.2344,-0.09 0.4727,-4.469 1.0352,-8.941 1.4766,-13.434 -1.0039,-1.125 -2.0196,-2.312 -3.0547,-3.484 -1.168,1.105 -2.1992,2.316 -3.2735,3.523 0.4649,4.481 1.1875,8.926 1.4141,13.348 -0.2734,0.09 -0.7891,0.207 -1.0547,0.27 -0.6758,-4.043 -1.3554,-8.082 -1.9804,-12.129 -0.629,0.761 -1.3946,1.386 -1.7969,2.312 0.6719,3.414 1.7578,6.672 2.3594,10.09 -1.0547,0.426 -2.0899,0.828 -3.0938,1.305 -1.8281,-3.016 -3.5781,-6.071 -5.3555,-9.078 -0.9218,-0.086 -1.8672,-0.157 -2.7617,-0.227 2.2188,3.375 4.6914,6.649 6.9649,10.039 -0.2227,0.16 -0.6289,0.543 -0.8516,0.75 -2.918,-3.465 -5.6602,-7.105 -8.5391,-10.609 -1.5703,-0.11 -3.1718,-0.231 -4.7187,-0.27 0.0898,1.574 0.1523,3.145 0.2226,4.719 3.5274,2.828 7.0586,5.66 10.6055,8.492 -0.2656,0.313 -0.4883,0.606 -0.7578,0.899 -3.3516,-2.336 -6.6133,-4.805 -9.9609,-7.121 0.0664,0.964 0.2031,1.91 0.2695,2.855 2.9453,1.82 5.9609,3.59 8.9219,5.391 -0.4297,1.054 -0.8086,2.156 -1.2618,3.183 -3.4101,-0.715 -6.7343,-1.883 -10.1914,-2.402 -0.5429,0.5 -1.9336,0.992 -1.7539,1.777 3.8203,0.696 7.7032,1.305 11.5703,1.91 0,0.289 0.0391,0.899 0.0391,1.168 -4.4453,-0.293 -8.8242,-1.058 -13.2734,-1.367 -1.4844,0.649 -2.5157,2.129 -3.7735,3.125 1.2578,0.961 2.2891,2.442 3.7735,3.027 4.4492,-0.226 8.875,-1.078 13.3008,-1.343 -0.0274,0.308 -0.0665,0.894 -0.0938,1.183 -3.9531,0.7 -7.9062,1.332 -11.8594,2.094 0.8555,0.625 1.5742,1.977 2.7852,1.617 3.1484,-0.785 6.289,-1.664 9.4375,-2.429 0.3594,1.125 1.1211,2.16 1.1445,3.324 -2.8984,1.84 -5.8867,3.484 -8.7656,5.347 -0.1055,0.95 -0.2031,1.887 -0.2695,2.832 3.3476,-2.335 6.6093,-4.765 9.9609,-7.144 0.2227,0.32 0.4922,0.676 0.7148,0.965 -3.5039,2.855 -7.1015,5.574 -10.5625,8.496 -0.0703,1.547 -0.1328,3.125 -0.2226,4.672 1.5469,-0.071 3.1015,-0.156 4.6758,-0.27 2.9218,-3.465 5.6172,-7.121 8.582,-10.539 0.1758,0.18 0.5781,0.567 0.8047,0.766 -2.2656,3.324 -4.6992,6.582 -6.918,9.972 0.8945,-0.085 1.7969,-0.179 2.7617,-0.246 1.7774,-2.988 3.5274,-5.996 5.2344,-8.98 1.0547,0.426 2.1602,0.828 3.2149,1.254 -0.5625,3.144 -1.504,6.226 -2.2266,9.324 -0.4258,1.305 0.9922,2.16 1.6641,3.074 0.625,-4.062 1.3046,-8.09 1.9804,-12.148 0.2656,0.09 0.7813,0.199 1.0547,0.269 -0.2266,4.446 -0.9492,8.895 -1.4141,13.344"
         style="fill:#f7cf0d;fill-opacity:1;fill-rule:nonzero;stroke:none"
         id="path22" /><path
         d="m 126.422,163.719 c 1.293,1.75 2.512,3.617 3.887,5.32 0.101,-2.223 0,-4.422 0.058,-6.672 2.133,-0.629 4.27,-1.32 6.383,-1.98 -2.09,-0.766 -4.223,-1.391 -6.383,-2.086 -0.058,-2.184 0.043,-4.379 -0.039,-6.586 -1.394,1.707 -2.613,3.508 -3.906,5.262 -2.117,-0.61 -4.164,-1.442 -6.34,-2.024 1.254,1.844 2.629,3.594 3.887,5.395 -1.258,1.84 -2.68,3.547 -3.918,5.39 2.168,-0.609 4.254,-1.39 6.371,-2.019"
         style="fill:#f7cf0d;fill-opacity:1;fill-rule:nonzero;stroke:none"
         id="path24" /><path
         d="m 31.3164,114.266 c 1.1875,-1.821 1.7813,-3.911 2.7149,-5.84 2.25,0.226 4.4921,0.543 6.746,0.676 -1.5976,-1.551 -3.5078,-2.809 -4.9453,-4.539 0.6719,-2.09 1.8203,-3.973 2.6094,-6.0396 -1.957,1.0313 -3.8672,2.3086 -5.8672,3.3436 -1.5976,-1.48 -3.1679,-2.9842 -4.8515,-4.3592 0.3398,2.1992 0.9648,4.3122 1.2734,6.5192 -1.8789,1.055 -3.8555,2.082 -5.6797,3.297 2.2227,0.274 4.4727,0.383 6.6758,0.723 0.4062,2.09 0.7656,4.18 1.3242,6.219"
         style="fill:#f7cf0d;fill-opacity:1;fill-rule:nonzero;stroke:none"
         id="path26" /></g></g></svg>
