<?xml version="1.0" encoding="UTF-8" standalone="no"?>
<svg
   xmlns:dc="http://purl.org/dc/elements/1.1/"
   xmlns:cc="http://creativecommons.org/ns#"
   xmlns:rdf="http://www.w3.org/1999/02/22-rdf-syntax-ns#"
   xmlns:svg="http://www.w3.org/2000/svg"
   xmlns="http://www.w3.org/2000/svg"
   version="1.1"
   id="svg2"
   xml:space="preserve"
   width="42.666668"
   height="42.666668"
   viewBox="0 0 42.666668 42.666668"><metadata
     id="metadata8"><rdf:RDF><cc:Work
         rdf:about=""><dc:format>image/svg+xml</dc:format><dc:type
           rdf:resource="http://purl.org/dc/dcmitype/StillImage" /></cc:Work></rdf:RDF></metadata><defs
     id="defs6" /><g
     id="g10"
     transform="matrix(1.3333333,0,0,-1.3333333,0,42.666667)"><g
       id="g12"
       transform="scale(0.1)"><path
         d="M 95.0117,306.109 C 39.1289,281.129 0,224.996 0,159.988 0,95.0078 39.1289,38.8711 95.0117,13.875 v 292.234"
         style="fill:#ffffff;fill-opacity:1;fill-rule:evenodd;stroke:none"
         id="path14" /><path
         d="m 160.004,320.02 c -23.125,0 -45.109,-4.993 -64.9923,-13.887 V 13.8633 C 114.895,4.97266 136.879,-0.0195313 160.004,-0.0195313 248.133,-0.0195313 320,71.8633 320,159.992 320,248.133 248.133,320.02 160.004,320.02"
         style="fill:#193c1e;fill-opacity:1;fill-rule:evenodd;stroke:none"
         id="path16" /><path
         d="m 141.199,191.281 c 7.703,15.024 21.516,26.664 37.602,31.782 -15.59,-11.954 -24.528,-31.981 -22.778,-51.598 0.985,-13.254 6.692,-26.008 15.813,-35.668 9.617,-10.422 23.137,-17.094 37.242,-18.504 17.699,-1.84 36.211,4.691 48.43,17.648 -5.574,-12.394 -15.278,-22.933 -27.086,-29.601 -11.777,-6.7423 -25.656,-9.547 -39.137,-8.0002 -13.027,1.461 -25.562,6.9882 -35.394,15.6802 -9.325,8.152 -16.2,19.078 -19.547,30.976 -4.446,15.633 -2.715,32.887 4.855,47.285"
         style="fill:#ffffff;fill-opacity:1;fill-rule:nonzero;stroke:none"
         id="path18" /><path
         d="m 222.109,209.813 c 3.547,-3.797 6.914,-7.75 10.465,-11.637 4.762,2.062 9.481,4.199 14.242,6.222 -2.562,-4.511 -5.3,-8.964 -7.816,-13.5 3.504,-3.867 6.914,-7.796 10.469,-11.66 -5.168,1.168 -10.289,2.293 -15.41,3.348 -2.606,-4.535 -5.301,-8.965 -7.911,-13.539 -0.492,5.203 -0.988,10.394 -1.523,15.609 -4.988,1.274 -10.203,1.973 -15.141,3.547 4.758,1.863 9.34,4.113 14.106,6.024 -0.274,5.203 -0.988,10.371 -1.481,15.586"
         style="fill:#ffffff;fill-opacity:1;fill-rule:nonzero;stroke:none"
         id="path20" /></g></g></svg>
