<?xml version="1.0" encoding="UTF-8" standalone="no"?>
<svg
   xmlns:dc="http://purl.org/dc/elements/1.1/"
   xmlns:cc="http://creativecommons.org/ns#"
   xmlns:rdf="http://www.w3.org/1999/02/22-rdf-syntax-ns#"
   xmlns:svg="http://www.w3.org/2000/svg"
   xmlns="http://www.w3.org/2000/svg"
   version="1.1"
   id="svg2"
   xml:space="preserve"
   width="42.666668"
   height="42.666668"
   viewBox="0 0 42.666668 42.666668"><metadata
     id="metadata8"><rdf:RDF><cc:Work
         rdf:about=""><dc:format>image/svg+xml</dc:format><dc:type
           rdf:resource="http://purl.org/dc/dcmitype/StillImage" /></cc:Work></rdf:RDF></metadata><defs
     id="defs6" /><g
     id="g10"
     transform="matrix(1.3333333,0,0,-1.3333333,0,42.666667)"><g
       id="g12"
       transform="scale(0.1)"><path
         d="M 159.988,-0.15625 C 248.129,-0.15625 320,71.7148 320,159.836 320,247.973 248.129,319.844 159.988,319.844 71.8516,319.844 0,247.973 0,159.836 0,71.7148 71.8516,-0.15625 159.988,-0.15625"
         style="fill:#273375;fill-opacity:1;fill-rule:evenodd;stroke:none"
         id="path14" /><path
         d="m 50.1445,272.484 c 0,1.192 0,2.36 0,3.528 -1.207,-1.149 -2.4257,-2.336 -3.5976,-3.528 1.2187,0 2.4101,0 3.5976,0"
         style="fill:#ffffff;fill-opacity:1;fill-rule:nonzero;stroke:none"
         id="path16" /><path
         d="m 50.1445,272.484 c -1.1875,0 -2.3789,0 -3.5976,0 -7.2266,-7.254 -13.7461,-15.211 -19.4688,-23.75 7.7032,0 15.3867,0 23.0664,0 0,-16.308 -0.039,-32.687 0,-49.004 6.5586,0 13.0313,0 19.5508,0 0.043,16.317 0,32.696 0.043,49.004 30.0156,0 60.0977,0 90.1367,0 0.066,7.934 0.066,15.821 0.047,23.75 -30.086,0 -60.1681,0 -90.1837,0 -0.0235,6.45 -0.0235,12.899 -0.0235,19.329 -6.9414,-4.75 -13.4609,-10.055 -19.5703,-15.801 0,-1.168 0,-2.336 0,-3.528"
         style="fill:#d11d2c;fill-opacity:1;fill-rule:nonzero;stroke:none"
         id="path18" /><path
         d="m 159.383,319.844 c -0.785,0 -1.578,-0.02 -2.379,-0.043 -20.609,-12.785 -41.387,-25.235 -62.0118,-37.946 -1.0352,-0.699 -2.2031,-1.082 -3.375,-0.992 -4.6055,0.11 -9.2539,-0.09 -13.8789,0.11 20.3945,12.718 40.9957,24.945 61.4687,37.527 -0.019,0 -0.047,0 -0.047,0 -1.93,-0.273 -3.82,-0.566 -5.75,-0.879 -0.18,-0.019 -0.34,-0.066 -0.519,-0.086 -1.95,-0.34 -3.883,-0.695 -5.817,-1.105 -16.851,-10.309 -33.7888,-20.489 -50.6873,-30.735 -0.0234,3.485 -0.0234,6.961 -0.0429,10.446 v 0 c -2.25,-1.395 -4.4493,-2.828 -6.629,-4.328 0,-6.43 0,-12.879 0.0235,-19.329 30.0156,0 60.0977,0 90.1837,0 0.019,-7.929 0.019,-15.816 -0.047,-23.75 -30.039,0 -60.1211,0 -90.1367,0 -0.043,-16.308 0,-32.687 -0.043,-49.004 2.1992,0 4.4414,0 6.6485,0 0,11.934 -0.0508,23.864 0.0429,35.793 18.6055,-11.183 37.1603,-22.488 55.7653,-33.746 1.528,-0.875 2.985,-2.226 4.782,-2.047 7.578,0.047 15.171,-0.039 22.738,0.047 -21.899,13.703 -44.055,26.692 -65.965,40.426 4.793,0.242 9.594,0.063 14.359,0.152 1.684,0.047 3.102,-1.167 4.543,-2 15.746,-9.636 31.493,-19.281 47.266,-28.914 0.113,-3.214 0.047,-6.5 0.066,-9.711 0.137,4.969 -0.066,9.891 -0.019,14.813 -14.043,8.621 -28.199,16.891 -42.152,25.723 14.023,0.179 28.109,0 42.152,0.089 0.066,13.481 0.066,27.024 0,40.547 -14.043,0.121 -28.129,-0.129 -42.152,0.121 13.91,8.852 28.218,16.891 42.105,25.86 0.113,4.312 0,8.652 0.02,12.961 -0.153,0 -0.336,0 -0.512,0"
         style="fill:#ffffff;fill-opacity:1;fill-rule:nonzero;stroke:none"
         id="path20" /><path
         d="m 139.207,318.5 c -20.473,-12.582 -41.0742,-24.809 -61.4687,-37.527 4.625,-0.2 9.2734,0 13.8789,-0.11 1.1719,-0.09 2.3398,0.293 3.375,0.992 20.6248,12.711 41.4028,25.161 62.0118,37.946 -6.031,-0.117 -11.957,-0.539 -17.797,-1.301"
         style="fill:#d11d2c;fill-opacity:1;fill-rule:nonzero;stroke:none"
         id="path22" /><path
         d="m 27.0781,248.734 c -2.7734,-4.109 -5.3554,-8.351 -7.7304,-12.742 1.5898,0.965 3.1562,1.938 4.7343,2.903 1.2149,0.718 2.4258,1.55 3.7774,1.46 4.7187,-0.089 9.5,0.09 14.2461,-0.152 -9.7539,-6.09 -19.6016,-12.074 -29.4375,-18.004 -0.9453,-2.179 -1.7969,-4.398 -2.6485,-6.629 11.0078,6.68 21.9961,13.348 33,19.953 0.0313,-11.929 0,-23.859 0.0313,-35.793 2.3789,0 4.7344,0 7.0937,0 -0.039,16.317 0,32.696 0,49.004 -7.6797,0 -15.3632,0 -23.0664,0"
         style="fill:#ffffff;fill-opacity:1;fill-rule:nonzero;stroke:none"
         id="path24" /><path
         d="m 42.1055,240.203 c -4.7461,0.242 -9.5274,0.063 -14.2461,0.152 -1.3516,0.09 -2.5625,-0.742 -3.7774,-1.46 -1.5781,-0.965 -3.1445,-1.938 -4.7343,-2.903 -2.4571,-4.469 -4.6485,-9.074 -6.6797,-13.793 9.8359,5.93 19.6836,11.914 29.4375,18.004"
         style="fill:#d11d2c;fill-opacity:1;fill-rule:nonzero;stroke:none"
         id="path26" /><path
         d="m 93.707,240.203 c 4.793,0.242 9.594,0.063 14.359,0.152 1.684,0.047 3.102,-1.167 4.543,-2 15.746,-9.636 31.493,-19.281 47.266,-28.914 0.113,-3.214 0.047,-6.5 0.066,-9.711 l -0.269,0.047 c -21.899,13.703 -44.055,26.692 -65.965,40.426"
         style="fill:#d11d2c;fill-opacity:1;fill-rule:nonzero;stroke:none"
         id="path28" /><path
         d="m 207.41,153.137 c -4.129,-3.496 -8.066,-8.61 -9.031,-13.227 -2.727,-12.996 -6.34,-15.887 -11.914,-13.101 0,-6.981 6.117,-7.508 8.801,-3.43 0,-6.543 2.375,-12.223 7.73,-17.063 2.262,-2.039 2.684,-0.644 1.613,1.614 -1.07,2.258 -1.07,9.55 -3.211,13.73 3.43,-2.465 8.477,-1.07 8.051,5.692 -4.398,-2.582 -8.773,-2.477 -9.226,3.652 -0.555,7.187 2.246,17.629 7.187,22.133"
         style="fill:#f0e20b;fill-opacity:1;fill-rule:nonzero;stroke:none"
         id="path30" /><path
         d="m 202.184,204.824 c 0.296,2.582 -0.258,5.227 -2.141,6.891 -3.641,3.199 -7.203,2.144 -9.859,-0.438 -3.977,2.141 -6.082,-5.461 -10.586,-4.183 0.75,-2.461 1.937,-3.535 4.183,-2.684 -2.363,-2.14 0,-4.722 -2.789,-7.293 5.047,-1.609 7.731,1.176 7.512,6.016 1.937,-1.715 4.93,-1.613 6.543,0.324 -2.684,0.863 -2.695,3.188 -1.613,5.367 1.613,3.215 9.175,3.086 8.75,-4"
         style="fill:#f0e20b;fill-opacity:1;fill-rule:nonzero;stroke:none"
         id="path32" /><path
         d="m 213.824,167.488 c -5.691,-3.008 -16.094,-1.715 -17.058,5.692 -0.969,7.406 6.218,10.738 8.156,11.691 3.004,1.512 5.367,-1.172 4.398,-4.297 3.328,1.176 4.078,5.047 2.465,7.293 4.403,-0.324 8.481,3.004 10.195,7.731 -1.546,-1.473 -5.753,-0.481 -9.214,-0.258 1.074,1.172 1.058,3.469 0.738,4.656 -3.641,-3.742 -8.906,-2.023 -15.875,-12.863 1.07,3.754 3.109,11.265 4.297,16.207 0.117,0.488 0.207,0.98 0.269,1.484 0.414,7.086 -7.136,7.215 -8.75,3.989 1.77,-1.989 0.84,-4.313 0.207,-7.836 -0.746,-4.18 -2.359,-13.844 -3.754,-17.059 -0.425,5.047 -3.757,5.367 -4.402,7.832 -0.969,-0.645 -1.496,-2.359 -1.289,-3.535 -1.187,1.289 -5.266,-0.324 -6.762,1.613 -1.613,-3.215 0.965,-6.441 3.653,-7.836 -1.563,-0.101 -1.938,-1.984 -3.653,-1.984 2.309,-2.688 4.672,-3.758 7.407,-3.977 2.738,-0.218 4.777,-1.238 6.441,-4.554 2.684,-5.383 12.902,-8.868 22.531,-3.989"
         style="fill:#327231;fill-opacity:1;fill-rule:nonzero;stroke:none"
         id="path34" /><path
         d="m 227.996,174.043 c -3.215,-8.902 -12.016,-15.238 -15.992,-16.207 -6.762,-1.641 -20.543,-8.34 -24.234,-11.785 -0.582,0.129 -1.125,0.336 -1.524,0.621 -1.82,1.289 -3.332,5.473 -0.105,9.019 10.093,9.45 20.933,5.372 27.699,11.809 -5.692,-3.008 -16.094,-1.715 -17.063,5.691 6.118,-1.613 17.176,-1.714 25.965,7.731 1.176,-1.305 4.61,-5.383 5.254,-6.879"
         style="fill:#f0e20b;fill-opacity:1;fill-rule:nonzero;stroke:none"
         id="path36" /><path
         d="m 207.41,153.137 c -5.097,-4.324 -7.742,-14.946 -7.199,-22.133 0.152,-2 0.707,-3.356 1.559,-4.18 0.375,4.078 3.214,14.621 10.457,19.317 6.117,3.976 15.664,12.882 19.214,23.078 -0.644,1.816 -1.714,3.109 -3.753,4.398 -3.528,-9.625 -12.934,-14.246 -20.278,-20.48"
         style="fill:#327231;fill-opacity:1;fill-rule:nonzero;stroke:none"
         id="path38" /><path
         d="m 224.719,178.176 c -1.821,-2.738 -5.965,-6.492 -9.926,-8.004 0.852,0.969 1.121,2.195 1.176,3.215 -5.047,-1.938 -15.141,-1.715 -19.219,-0.219 6.117,-1.613 17.18,-1.719 25.969,7.73 0.875,-0.957 1.625,-1.808 2,-2.722"
         style="fill:#306b35;fill-opacity:1;fill-rule:nonzero;stroke:none"
         id="path40" /><path
         d="m 186.141,155.691 c -8.207,-7.675 -2.786,-14.375 0.425,-15.886 -0.847,-5.367 4.184,-4.723 4.082,-9.227 2.04,1.176 2.579,4.297 2.258,6.762 2.578,-2.785 9.121,0.324 10.516,-4.824 0.867,5.687 -3.535,11.367 -9.008,10.839 2.258,2.04 0.969,5.368 -1.172,6.219 -0.426,-4.179 -5.152,-4.179 -6.984,-2.902 -1.832,1.289 -3.344,5.473 -0.117,9.019"
         style="fill:#327231;fill-opacity:1;fill-rule:nonzero;stroke:none"
         id="path42" /><path
         d="m 203.902,106.859 c -0.89,-0.519 -0.828,-1.668 -0.273,-2.414 1.125,-1.5 -0.801,-4.9059 2.84,-5.6403 1.07,-0.2188 1.898,0.4375 2.308,1.6643 1.125,3.383 -2.464,3.758 -2.785,5.371 -0.324,1.609 -1.344,1.441 -2.09,1.019"
         style="fill:#f0e20b;fill-opacity:1;fill-rule:nonzero;stroke:none"
         id="path44" /><path
         d="m 206.961,100.52 c -1.203,-0.5552 -2.262,-1.3403 -1.77,-5.1997 0.196,-1.6015 0.102,-5.4726 -1.289,-5.5234 0.852,-0.4258 2.684,-0.8906 3.43,0.1015 0.723,-1.2109 2.363,-0.8632 3.008,0.6485 0.851,-0.6992 2.039,0.4765 2.039,1.4961 0.75,-0.4805 2.258,0.2187 1.871,2.5156 0.918,-0.3242 2.094,0.3242 2.516,0.918 -1.34,0.2695 -4.723,2.0898 -5.524,3.5351 -0.797,1.4573 -2.89,2.1523 -4.281,1.5083"
         style="fill:#f0e20b;fill-opacity:1;fill-rule:nonzero;stroke:none"
         id="path46" /><path
         d="m 263.73,155.574 c 13.204,-11.058 14.055,-19.847 12.016,-25.008 -1.07,4.825 -6.543,12.336 -12.234,14.274 l 0.218,10.734"
         style="fill:#f0e20b;fill-opacity:1;fill-rule:nonzero;stroke:none"
         id="path48" /><path
         d="m 240.129,161.809 h 24.469 c 0,0 0,-6.438 0,-28.973 0,-24.688 -13.735,-39.2852 -27.7,-47.0001 -13.949,7.7305 -27.695,22.3241 -27.695,47.0001 0,22.535 0,28.973 0,28.973 h 17.18 c 0.023,-1.496 0.168,-3.754 1.933,-6.012 4.055,0.398 8.637,3.433 11.813,6.012"
         style="fill:#327231;fill-opacity:1;fill-rule:nonzero;stroke:none"
         id="path50" /><path
         d="m 240.129,161.809 h 24.469 c 0,0 0,-6.438 0,-28.973 0,-24.688 -13.735,-39.2852 -27.7,-47.0001 -13.949,7.7305 -27.695,22.3241 -27.695,47.0001 0,22.535 0,28.973 0,28.973 h 17.18 c 0.023,-1.496 0.168,-3.754 1.933,-6.012 4.055,0.398 8.637,3.433 11.813,6.012 z"
         style="fill:none;stroke:#100f0d;stroke-width:0.15;stroke-linecap:butt;stroke-linejoin:miter;stroke-miterlimit:4;stroke-dasharray:none;stroke-opacity:1"
         id="path52" /><path
         d="m 264.598,161.809 c 0,0 0,-6.438 0,-28.973 0,-7.445 -1.254,-13.988 -3.383,-19.68 l -24.301,44.586 -24.301,-44.586 c -2.133,5.703 -3.383,12.235 -3.383,19.68 0,22.535 0,28.973 0,28.973 h 55.368 v 0"
         style="fill:#3969bb;fill-opacity:1;fill-rule:nonzero;stroke:none"
         id="path54" /><path
         d="m 261.949,115.285 c -0.426,-1.316 -1.211,-3.445 -1.804,-4.762 l -23.231,43.18 -23.23,-43.18 c -0.61,1.317 -1.383,3.446 -1.809,4.762 l 25.051,46.434 25.023,-46.434"
         style="fill:#f0e20b;fill-opacity:1;fill-rule:nonzero;stroke:none"
         id="path56" /><path
         d="m 247.945,99.3984 c 0.649,-0.3242 1.836,-0.9179 2.364,-1.1367 1.293,2.5823 1.496,6.2223 1.07,9.4493 -1.391,-3.551 -6.117,-3.434 -7.406,-5.578 0.789,-0.399 1.523,-0.914 2.156,-1.367 -1.613,-1.6137 -5.383,-4.309 -7.524,-4.9574 v 23.0274 c 0,1.609 -0.542,2.953 -0.542,4.297 0,0 0,3.691 0,4.762 0,1.07 -0.219,2.632 -1.176,2.632 -0.969,0 -1.172,-1.562 -1.172,-2.632 0,-1.071 0,-4.762 0,-4.762 0,-1.344 -0.543,-2.906 -0.543,-4.297 V 95.8086 c -1.176,3.4336 -5.809,2.2617 -7.949,5.6954 0.836,0.203 1.726,0.269 2.578,0.101 -1.613,5.473 -6.012,5.899 -6.863,7.512 0,-2.258 -0.969,-7.512 0.539,-9.7693 0.336,0.3984 0.839,0.8243 1.461,1.1873 1.82,-3.9764 10.027,-3.9881 11.96,-10.5311 1.551,2.4102 7.137,5.1992 11.047,9.3945"
         style="fill:#f0e20b;fill-opacity:1;fill-rule:nonzero;stroke:none"
         id="path58" /><path
         d="m 236.898,118.551 c 1.821,0 7.618,0.594 9.719,0.594 0.543,0 0.996,0.812 0.996,1.82 0,1.004 -0.441,1.816 -0.996,1.816 -2.09,0 -7.883,0.598 -9.719,0.598 -1.816,0 -7.613,-0.598 -9.714,-0.598 -0.543,0 -0.996,-0.812 -0.996,-1.816 0,-1.008 0.441,-1.82 0.996,-1.82 2.101,0 7.898,-0.594 9.714,-0.594"
         style="fill:#f0e20b;fill-opacity:1;fill-rule:nonzero;stroke:none"
         id="path60" /><path
         d="m 235.727,127.984 c -0.387,0.309 -0.891,0.504 -1.461,0.504 -1.211,0 -2.203,-0.902 -2.203,-2.015 0,-1.11 0.976,-2.012 2.203,-2.012 1.214,0 2.195,0.902 2.195,2.012 0,0.867 1.254,0.867 1.254,0 0,-1.743 -1.551,-3.149 -3.449,-3.149 -1.911,0 -3.446,1.406 -3.446,3.149 0,1.742 1.551,3.148 3.446,3.148 0.57,0 1.113,-0.129 1.589,-0.348 -0.039,-0.281 -0.128,-0.824 -0.128,-1.289"
         style="fill:#f0e20b;fill-opacity:1;fill-rule:nonzero;stroke:none"
         id="path62" /><path
         d="m 231.984,141.316 c 0,0.528 0.426,0.747 0.926,1.122 0.61,0.453 0.856,0.671 1.395,0.671 h 7.047 c 0.515,0 0.644,-0.129 0.644,-0.621 v -9.562 c 0,-0.477 -0.113,-0.617 -0.644,-0.617 h -9.368 v 9.109"
         style="fill:#ffffff;fill-opacity:1;fill-rule:nonzero;stroke:none"
         id="path64" /><path
         d="m 239.609,131.469 c 0.93,0 0.762,0.023 1.407,0.672 0.683,0.672 0.621,0.617 0.621,1.238 v 8.762 c 0,0.453 -0.117,0.582 -0.594,0.582 h -6.516 c -0.519,0 -0.738,-0.207 -1.293,-0.633 -0.464,-0.348 -0.851,-0.567 -0.851,-1.059 v -9.562 h 7.226 v 0"
         style="fill:#e8e7e6;fill-opacity:1;fill-rule:nonzero;stroke:none"
         id="path66" /><path
         d="m 240.309,131.676 c 0,-0.477 -0.118,-0.621 -0.649,-0.621 h -7.043 c -0.531,0 -0.633,0.129 -0.633,0.621 v 9.574 c 0,0.48 0.114,0.621 0.633,0.621 h 7.043 c 0.531,0 0.649,-0.129 0.649,-0.621 v -9.574"
         style="fill:#ffffff;fill-opacity:1;fill-rule:nonzero;stroke:none"
         id="path68" /><path
         d="m 253.961,167.426 c 1.367,-1.539 1.82,-3.59 1.07,-5.602 h -2.039 c 0.852,2.578 0.324,5.031 -3.328,5.356 -5.461,0.476 -11.809,-10.094 -21.359,-11.371 -2.789,3.328 -2.645,9.668 0.902,12.671 -1.832,5.282 -5.691,11.086 -8.375,13.59 -1.754,0.285 -3.781,0.426 -5.086,0.352 1.395,3.004 5.371,6.168 8.598,7.457 0.515,0.762 1.082,1.496 1.597,2.156 0.325,4.129 19.965,2.195 24.149,-0.375 0.012,-4.633 1.832,-20.055 3.871,-24.234"
         style="fill:#918177;fill-opacity:1;fill-rule:nonzero;stroke:none"
         id="path70" /><path
         d="m 230.164,164.598 c -0.465,7.148 -3.355,13.047 -7.422,17.058 1.938,-0.539 5.899,-0.539 8.582,1.395 3.535,2.363 12.778,6.492 16.16,4.726 0.27,-0.593 0.426,-1.937 0.219,-2.789 -0.801,2.145 -9.719,-1.175 -12.234,-2.195 -2.414,-1.121 -3.485,-2.633 -2.633,-6.012 -1.395,1.172 -0.918,2.309 -2.363,3.16 0.582,-1.394 1.058,-3.91 1.226,-5.949 -0.543,1.446 -1.496,4.555 -3.601,6.391 1.82,-3.539 3.41,-12.043 2.66,-16.559 1.445,0 4.644,1.418 5.922,2.438 -1.121,-1.614 -4.375,-2.735 -6.465,-3.16 -0.942,-1.125 -1.586,-4.028 -1.535,-5.641 -0.145,1.988 0.476,6.828 1.484,7.137"
         style="fill:#100f0d;fill-opacity:1;fill-rule:nonzero;stroke:none"
         id="path72" /><path
         d="m 253.961,167.426 c -1.781,1.972 -5.098,3.043 -9.328,1.894 0.644,0.325 2.039,0.864 3.277,1.071 -0.156,1.125 -1.176,5.964 -1.344,7.136 l 1.188,0.481 c 0.594,-2.906 1.344,-6.223 1.82,-7.563 0.375,-0.105 1.239,-0.273 1.989,-0.648 -0.325,1.125 -2.145,9.23 -2.094,10.094 l 1.617,0.863 c 0.629,-4.399 1.648,-10.789 2.875,-13.328"
         style="fill:#100f0d;fill-opacity:1;fill-rule:nonzero;stroke:none"
         id="path74" /><path
         d="m 253.008,161.809 c 0.851,2.582 0.32,5.035 -3.332,5.355 -2.824,0.246 -5.899,-2.504 -9.524,-5.355 h 12.856"
         style="fill:#918177;fill-opacity:1;fill-rule:nonzero;stroke:none"
         id="path76" /><path
         d="m 253.008,161.809 c 0.851,2.582 0.32,5.035 -3.332,5.355 -2.824,0.246 -5.899,-2.504 -9.524,-5.355 z"
         style="fill:none;stroke:#100f0d;stroke-width:0.15;stroke-linecap:butt;stroke-linejoin:miter;stroke-miterlimit:4;stroke-dasharray:none;stroke-opacity:1"
         id="path78" /><path
         d="m 229.285,184.938 c -1.613,-0.219 -5.199,0.101 -7.031,0.695 0.101,0.492 0.297,0.98 0.527,1.523 -1.121,-0.75 -3.265,-2.218 -4.078,-3.238 2.582,-0.543 7.899,-0.813 10.582,1.02"
         style="fill:#918177;fill-opacity:1;fill-rule:nonzero;stroke:none"
         id="path80" /><path
         d="m 229.223,168.469 c 0.593,-1.715 0.98,-3.367 1.031,-4.84"
         style="fill:none;stroke:#100f0d;stroke-width:0.15;stroke-linecap:butt;stroke-linejoin:miter;stroke-miterlimit:4;stroke-dasharray:none;stroke-opacity:1"
         id="path82" /><path
         d="m 263.73,155.574 c 9.008,-6.219 15.668,-12.23 17.606,-21.886 1.934,-9.653 5.586,-12.235 10.09,-9.653 -1.071,-5.574 -6.66,-6.222 -11.367,-1.937 0.421,-6.438 -2.145,-14.168 -8.805,-16.957 -0.426,3.859 2.129,6.918 1.394,10.093 -0.324,1.395 -0.425,4.621 1.395,6.118 -3.535,-1.176 -9.125,1.07 -9.652,6.336 4.078,-1.938 9.328,-2.258 11.367,2.902 2.027,5.137 1.176,13.937 -12.028,24.984"
         style="fill:#327231;fill-opacity:1;fill-rule:nonzero;stroke:none"
         id="path84" /><path
         d="m 275.113,205.805 c 2.789,7.293 10.094,6.543 12.559,3.433 7.187,4.078 8.156,-5.148 14.273,-3.332 -0.105,-1.715 -2.144,-3.328 -4.402,-3.211 2.363,-2.144 -0.969,-5.371 4.078,-7.293 -4.297,-2.14 -10.297,0.106 -11.91,6.016 -1.395,-2.789 -6.441,-2.789 -8.481,-0.543 4.403,1.176 4.079,5.254 1.614,6.867 -2.492,1.625 -6.879,0.969 -7.731,-1.937"
         style="fill:#327231;fill-opacity:1;fill-rule:nonzero;stroke:none"
         id="path86" /><path
         d="m 253.344,189.738 c 2,-6.453 6.14,-12.468 10.605,-16.558 5.153,-4.723 12.934,-3.535 17.281,0.968 0.106,-8.984 -9.203,-9.679 -14.375,-6.867 -2.285,1.239 -4.132,0.594 -1.937,-1.394 3.328,-3.004 10.609,-5.239 19.203,-7.082 15.024,-3.215 9.668,-15.141 5.266,-15.024 1.265,0.024 2.297,1.34 0.476,2.981 -13.035,11.73 -39.543,7.109 -39.117,33.297 -2.785,-6.868 -14.273,-4.18 -8.902,3.972 1.715,-1.39 4.722,-1.496 5.586,0.649 0.672,1.664 0.234,4.566 -2.774,7.07 0.492,0.039 1.563,0 1.446,1.238 0.128,-0.722 0.789,-1.793 2.476,-1.429 0.481,-0.762 0.996,-1.266 1.68,-0.996 0.129,0.05 0.543,0.257 0.375,1.019 0.129,-1.445 1.816,-1.949 2.711,-1.844"
         style="fill:#327231;fill-opacity:1;fill-rule:nonzero;stroke:none"
         id="path88" /><path
         d="m 266.84,167.281 c 6.223,-4.078 13.269,-4.078 19.746,3.434 2.039,2.359 5.254,4.398 7.512,4.621 2.257,0.219 2.14,2.359 3.859,2.785 -1.07,0.324 -1.496,1.613 -3.109,1.445 4.023,1.395 2.84,4.622 4.824,6.172 -1.613,-0.593 -4.129,1.817 -6.438,-1.242 0.594,1.395 -0.218,3.059 -0.8,3.707 0.218,-1.613 -3.164,-1.937 -3.809,-6.015 -0.359,-2.286 -1.613,-2.141 -1.82,1.394 -0.153,2.594 -1.395,9.77 -2.891,13.406 -1.496,3.657 -1.844,8.66 0.195,9.41 -0.308,0.516 -0.738,0.981 -1.265,1.317 -2.492,1.625 -6.867,0.969 -7.731,-1.938 -2.789,-7.289 5.047,-11.484 4.403,-19.422 -1.176,5.899 -10.739,7.411 -10.621,13.204 -3.114,-1.395 -2.684,-3.973 -1.5,-6.012 -1.934,3.004 -6.336,-1.938 -10.09,2.141 -0.426,-5.372 4.297,-7.411 8.156,-7.614 -1.938,-3.433 0.644,-6.34 3.215,-7.293 0.101,6.016 12.426,3.547 12.554,-6.761 0.106,-8.778 -9.343,-9.528 -14.39,-6.739"
         style="fill:#f0e20b;fill-opacity:1;fill-rule:nonzero;stroke:none"
         id="path90" /><path
         d="m 284.121,158.805 c 15.024,-3.215 9.668,-15.141 5.266,-15.024 -2.801,0.063 -5.473,2.414 -5.641,4.453 -3.211,-1.718 -2.359,-5.097 0.106,-6.441 -6.762,0.801 -9.602,-3.652 -9.77,-8.531 1.238,2.258 4.992,2.414 6.387,1.937 1.394,-0.476 4.996,-0.75 6.441,0.864 -1.187,-1.02 0.746,-3.379 -0.918,-5.2 5.641,0.219 8.106,5.473 7.137,7.782 7.305,6.632 5.914,17.472 -9.008,20.16"
         style="fill:#f0e20b;fill-opacity:1;fill-rule:nonzero;stroke:none"
         id="path92" /><path
         d="m 272.688,107.813 c 0.98,-0.606 0.851,-1.899 0.195,-2.711 -1.332,-1.625 0.668,-5.5082 -3.422,-6.1684 -1.215,-0.1953 -2.106,0.582 -2.504,1.9614 -1.109,3.82 2.918,4.078 3.344,5.871 0.437,1.781 1.562,1.562 2.387,1.047"
         style="fill:#f0e20b;fill-opacity:1;fill-rule:nonzero;stroke:none"
         id="path94" /><path
         d="m 268.996,100.883 c 1.317,-0.672 2.453,-1.6017 1.758,-5.8869 -0.301,-1.7813 -0.363,-6.1016 1.199,-6.2188 -0.98,-0.4375 -3.035,-0.8671 -3.836,0.2696 -0.863,-1.3164 -2.672,-0.8516 -3.328,0.8515 -0.992,-0.7343 -2.258,0.6329 -2.207,1.7696 -0.863,-0.5039 -2.504,0.3359 -1.988,2.8906 -1.031,-0.3242 -2.321,0.4531 -2.774,1.1211 1.508,0.2461 5.356,2.1328 6.325,3.7187 0.953,1.5746 3.316,2.2576 4.851,1.4846"
         style="fill:#f0e20b;fill-opacity:1;fill-rule:nonzero;stroke:none"
         id="path96" /><path
         d="m 250.746,180.047 c -0.18,-10.996 4.391,-16.57 10.727,-20.188 -2.348,1.411 -1.328,6.235 -4.504,7.797 0.75,0.051 1.933,-1.019 3.808,-0.593 -0.918,2.039 -2.414,5.148 -5.898,5.574 0.914,0.105 2.902,-0.219 4.18,0.269 -1.821,2.805 -6.645,1.461 -8.313,7.141"
         style="fill:#f0e20b;fill-opacity:1;fill-rule:nonzero;stroke:none"
         id="path98" /><path
         d="m 250.746,180.047 c -0.18,-10.996 4.391,-16.57 10.727,-20.188 -2.348,1.411 -1.328,6.235 -4.504,7.797 0.75,0.051 1.933,-1.019 3.808,-0.593 -0.918,2.039 -2.414,5.148 -5.898,5.574 0.914,0.105 2.902,-0.219 4.18,0.269 -1.821,2.805 -6.645,1.461 -8.313,7.141 z"
         style="fill:none;stroke:#100f0d;stroke-width:0.15;stroke-linecap:butt;stroke-linejoin:miter;stroke-miterlimit:4;stroke-dasharray:none;stroke-opacity:1"
         id="path100" /><path
         d="m 249.613,190.512 c -0.386,0.129 -0.711,0.515 -1.035,1.019 -1.687,-0.359 -2.348,0.711 -2.476,1.434 0.101,-1.238 -0.954,-1.188 -1.457,-1.227 3.019,-2.504 3.457,-5.41 2.785,-7.074 -0.864,-2.141 -3.86,-2.039 -5.586,-0.644 -0.219,-4.555 5.691,-6.067 7.832,-0.321 0,-0.969 1.238,-0.867 1.562,-2.144 1.524,2.465 0.364,6.015 -1.625,8.957"
         style="fill:#f0e20b;fill-opacity:1;fill-rule:nonzero;stroke:none"
         id="path102" /><path
         d="m 249.613,190.512 c -0.386,0.129 -0.711,0.515 -1.035,1.019 -1.687,-0.359 -2.348,0.711 -2.476,1.434 0.101,-1.238 -0.954,-1.188 -1.457,-1.227 3.019,-2.504 3.457,-5.41 2.785,-7.074 -0.864,-2.141 -3.86,-2.039 -5.586,-0.644 -0.219,-4.555 5.691,-6.067 7.832,-0.321 0,-0.969 1.238,-0.867 1.562,-2.144 1.524,2.465 0.364,6.015 -1.625,8.957 z"
         style="fill:none;stroke:#100f0d;stroke-width:0.15;stroke-linecap:butt;stroke-linejoin:miter;stroke-miterlimit:4;stroke-dasharray:none;stroke-opacity:1"
         id="path104" /><path
         d="m 240.18,212.297 c -2.688,2.465 -3.926,6.594 -3.809,8.957 0.102,2.359 1.07,4.941 4.504,3.859 -1.07,0 -0.32,-2.144 -1.445,-2.363 0.918,-0.324 2.14,0.426 2.308,0.918 0.223,-0.75 1.614,-0.543 1.719,-1.395 0.539,0.426 -0.051,2.516 -0.852,2.954 0.594,0.324 0.915,1.988 0.645,2.789 -0.543,-0.102 -1.344,-0.864 -1.496,-1.938 0.269,0.867 -0.055,3.008 -1.563,3.332 -0.425,-0.594 -0.543,-2.039 0.051,-2.84 -1.394,0.325 -3.433,-0.593 -3.922,-1.769 0.102,1.422 0.309,3.445 1.188,4.726 0.297,0.426 -0.426,1.172 -0.996,0.153 -1.043,2.039 -3.832,3.109 -5.071,2.09 -1.238,-1.02 -2.89,0.48 -3.91,-1.122 -1.019,-1.613 -4.476,-1.781 -4.297,-3.484 0.102,-1.019 -0.144,-2.594 -0.644,-3.164 -1.242,-1.391 0.59,-2.41 0.914,-3.652 -0.219,4.082 6.273,12.015 12.777,8.906 -0.593,-1.02 -1.109,-3.059 -1.293,-5.524 -0.269,-3.652 0.274,-8.8 3.809,-11.808 l 1.383,0.375"
         style="fill:#327231;fill-opacity:1;fill-rule:nonzero;stroke:none"
         id="path106" /><path
         d="m 242.102,225.074 c -0.039,0.965 1.636,2.219 3.882,2.192 2.711,-0.024 4.801,-2.489 6.969,-2.258 2.168,0.246 1.098,-0.969 0.649,-1.289 -0.454,-0.324 -0.723,-0.801 -0.571,-1.395 0.157,-0.594 -0.117,-0.98 -0.992,-0.426 -1.937,1.215 -3.859,-0.476 -6.414,0.454 -2.184,0.824 -3.461,1.277 -3.523,2.722"
         style="fill:#d11d2c;fill-opacity:1;fill-rule:nonzero;stroke:none"
         id="path108" /><path
         d="m 231.055,199.738 c -1.071,3.383 -5.149,7.086 -7.137,7.938 l -0.105,1.82 c 1.074,0.426 3.652,2.465 4.828,3.602 8.054,-3.86 18.996,1.613 24.043,7.289 l 1.937,-1.172 -0.969,-1.293 -1.019,0.543 c -1.238,-1.496 -5.848,-5.832 -7.242,-6.75 1.871,-0.477 4.441,-0.801 5.148,-0.762 4.508,3.227 8.043,6.117 9.758,6.336 l 1.445,-1.934 -1.289,-0.917 -1.019,0.593 c -4.829,-3.972 -10.297,-12.66 -12.454,-18.453 -2.996,0.645 -13.734,0.219 -15.925,3.16"
         style="fill:#918177;fill-opacity:1;fill-rule:nonzero;stroke:none"
         id="path110" /><path
         d="m 235.402,223.563 c -1.238,1.718 -4.632,2.257 -5.367,-0.051 -0.324,-1.02 -0.801,-2.09 -1.613,-2.582 -0.801,-0.477 -0.621,-1.95 -0.274,-2.582 0.856,-1.559 0.106,-3.059 1.77,-4.078 0,1.242 1.82,2.519 3.383,2.839 1.558,0.325 3.91,1.719 4.23,3.278 0.336,1.574 0.879,2.867 -2.129,3.176"
         style="fill:#327231;fill-opacity:1;fill-rule:nonzero;stroke:none"
         id="path112" /><path
         d="m 227.672,208.113 h 0.426 l 0.011,-2.925 c 0.094,-0.028 0.184,-0.079 0.262,-0.133 l 2.527,1.461 0.219,-0.375 -2.543,-1.473 c 0.016,-0.09 0.028,-0.191 0.016,-0.281 l 2.527,-1.461 -0.219,-0.371 -2.554,1.441 c -0.067,-0.062 -0.156,-0.129 -0.246,-0.152 v -2.918 h -0.426 v 2.929 c -0.09,0.028 -0.18,0.079 -0.258,0.129 l -2.527,-1.457 -0.223,0.375 2.543,1.469 c -0.012,0.094 -0.023,0.195 -0.012,0.285 l -2.531,1.457 0.223,0.375 2.543,-1.457 c 0.062,0.063 0.152,0.129 0.242,0.157 v 2.925 0"
         style="fill:#918177;fill-opacity:1;fill-rule:nonzero;stroke:none"
         id="path114" /><path
         d="m 231.492,200.938 c -0.918,-0.926 -2.191,-1.497 -3.613,-1.497 -2.813,0 -5.086,2.274 -5.086,5.086 0,2.813 2.273,5.086 5.086,5.086 1.652,0 3.109,-0.789 4.039,-2 -0.258,-0.648 -0.566,-2.078 -0.594,-2.722 -0.179,1.754 -1.652,3.121 -3.457,3.121 -1.926,0 -3.472,-1.563 -3.472,-3.473 0,-1.922 1.562,-3.469 3.472,-3.469 1.602,0 2.992,1.121 3.395,2.606 0.011,-0.672 0.039,-2.207 0.23,-2.738"
         style="fill:#918177;fill-opacity:1;fill-rule:nonzero;stroke:none"
         id="path116" /><path
         d="m 225.738,196.102 c -0.324,0.371 -0.918,1.39 -0.851,2.14 0.476,0.051 1.39,-0.269 1.816,-0.695 -0.051,0.539 -0.269,1.715 -0.152,2.258 0.594,-0.219 1.82,-0.918 2.258,-1.719 -0.106,0.543 -0.325,1.937 -0.106,2.789 0.649,-0.375 1.719,-1.395 1.938,-2.09 0.05,1.07 0.425,2.84 0.75,3.278 0.476,-0.477 1.238,-0.918 1.714,-1.563 0.106,0.863 0.543,1.887 1.176,2.145 0.477,-0.543 1.239,-1.77 1.395,-3.165 0.476,0.157 1.121,0.969 1.39,1.395 0.274,-0.426 0.543,-1.176 0.375,-2.09 0.594,0.539 1.293,1.289 1.446,1.934 0.426,-0.321 1.242,-1.121 1.445,-1.985 -0.102,0.696 -0.051,1.934 -0.269,2.629 0.8,-0.425 1.445,-1.172 1.613,-1.984 0.219,0.746 0.695,2.09 1.121,2.41 0.426,-0.863 0.867,-1.883 0.801,-2.734 0.269,0.543 0.699,1.496 1.125,1.718 0.371,-0.593 0.32,-1.886 0.218,-2.582 0.375,0.543 1.071,1.172 1.497,1.395 0.05,-0.324 0.101,-0.969 0,-1.445 0.476,0.269 1.289,1.714 1.562,2.464 0.746,-0.375 1.496,-1.667 1.563,-2.312 0.539,0.219 1.613,1.176 1.933,1.719 0,-0.375 0.168,-1.395 -0.051,-2.196 0.321,0.325 0.645,0.969 0.801,1.239 0.219,-0.543 0.051,-1.821 -0.168,-2.516 0.477,0.426 1.188,0.695 1.613,0.695 0.051,-0.914 -0.593,-2.515 -1.187,-3.703 -5.137,1.434 -15.926,1.977 -26.766,2.571"
         style="fill:#327231;fill-opacity:1;fill-rule:nonzero;stroke:none"
         id="path118" /><path
         d="m 225.738,196.102 c -0.324,0.371 -0.918,1.39 -0.851,2.14 0.476,0.051 1.39,-0.269 1.816,-0.695 -0.051,0.539 -0.269,1.715 -0.152,2.258 0.594,-0.219 1.82,-0.918 2.258,-1.719 -0.106,0.543 -0.325,1.937 -0.106,2.789 0.649,-0.375 1.719,-1.395 1.938,-2.09 0.05,1.07 0.425,2.84 0.75,3.278 0.476,-0.477 1.238,-0.918 1.714,-1.563 0.106,0.863 0.543,1.887 1.176,2.145 0.477,-0.543 1.239,-1.77 1.395,-3.165 0.476,0.157 1.121,0.969 1.39,1.395 0.274,-0.426 0.543,-1.176 0.375,-2.09 0.594,0.539 1.293,1.289 1.446,1.934 0.426,-0.321 1.242,-1.121 1.445,-1.985 -0.102,0.696 -0.051,1.934 -0.269,2.629 0.8,-0.425 1.445,-1.172 1.613,-1.984 0.219,0.746 0.695,2.09 1.121,2.41 0.426,-0.863 0.867,-1.883 0.801,-2.734 0.269,0.543 0.699,1.496 1.125,1.718 0.371,-0.593 0.32,-1.886 0.218,-2.582 0.375,0.543 1.071,1.172 1.497,1.395 0.05,-0.324 0.101,-0.969 0,-1.445 0.476,0.269 1.289,1.714 1.562,2.464 0.746,-0.375 1.496,-1.667 1.563,-2.312 0.539,0.219 1.613,1.176 1.933,1.719 0,-0.375 0.168,-1.395 -0.051,-2.196 0.321,0.325 0.645,0.969 0.801,1.239 0.219,-0.543 0.051,-1.821 -0.168,-2.516 0.477,0.426 1.188,0.695 1.613,0.695 0.051,-0.914 -0.593,-2.515 -1.187,-3.703 -5.137,1.434 -15.926,1.977 -26.766,2.571 z"
         style="fill:none;stroke:#100f0d;stroke-width:0.15;stroke-linecap:butt;stroke-linejoin:miter;stroke-miterlimit:4;stroke-dasharray:none;stroke-opacity:1"
         id="path120" /><path
         d="m 243.699,224.52 c -0.023,0.398 0.856,1.289 2.442,1.277 1.898,-0.016 3.652,-1.406 5.164,-1.305 1.519,0.102 0.773,-0.398 0.449,-0.527 -0.32,-0.129 -0.504,-0.336 -0.399,-0.57 0.118,-0.247 -0.078,-0.399 -0.699,-0.18 -1.351,0.488 -2.711,-0.195 -4.492,0.18 -1.531,0.347 -2.426,0.531 -2.465,1.125"
         style="fill:#f0e20b;fill-opacity:1;fill-rule:nonzero;stroke:none"
         id="path122" /><path
         d="m 227.402,192.875 c -1.613,-1.937 -3.214,-1.613 -3.535,-0.375 -0.324,1.238 0.863,1.82 0.422,2.902 -0.422,1.071 0.699,1.563 1.242,1.071 0.539,-0.477 2.258,1.074 3.004,-0.539 0.75,-1.614 1.344,-2.739 0.918,-3.383 -0.437,-0.645 -1.73,-0.324 -2.051,0.324"
         style="fill:#f0e20b;fill-opacity:1;fill-rule:nonzero;stroke:none"
         id="path124" /><path
         d="m 234.32,195.777 c -0.297,0.711 1.368,2.067 2.231,1.098 0.863,-0.969 2.207,1.047 2.957,-0.477 0.75,-1.539 0.992,-2.335 1.367,-3.187 0.375,-0.867 -2.039,-1.316 -2.785,-0.57 0.101,-0.504 -2.094,-0.903 -2.688,0.543 -0.32,0.761 -0.672,1.652 -1.082,2.593"
         style="fill:#f0e20b;fill-opacity:1;fill-rule:nonzero;stroke:none"
         id="path126" /><path
         d="m 245.48,194.887 c -0.398,0.75 1.563,1.82 2.583,0.453 0.273,0.566 2.207,0.672 2.335,-0.969 0.129,-1.641 0.196,-2.605 0.247,-3.254 0.05,-0.644 -1.176,-1.238 -2.067,0.403 -1.586,-0.325 -2.308,0.566 -2.488,1.496 -0.195,0.953 -0.387,1.418 -0.61,1.871"
         style="fill:#f0e20b;fill-opacity:1;fill-rule:nonzero;stroke:none"
         id="path128" /><path
         d="m 228.445,195.957 c -0.242,0.543 1.371,1.613 2.465,0.801 1.098,-0.801 2.621,0.695 3.281,-0.746 1.317,-2.934 1.395,-3.137 0.993,-3.707 -0.399,-0.567 -2.118,-0.348 -2.555,0.425 -0.078,-0.542 -1.563,-0.449 -2.336,-0.023 -0.879,0.488 -1.496,2.281 -1.848,3.25"
         style="fill:#327231;fill-opacity:1;fill-rule:nonzero;stroke:none"
         id="path130" /><path
         d="m 239.738,195.828 c -0.375,0.828 2.145,1.563 3.254,0.106 0.567,0.515 1.793,0.539 2.488,-1.047 0.7,-1.586 0.801,-2.465 0.297,-2.864 -0.359,-0.285 -1.664,-0.503 -2.089,0.219 -0.594,-0.375 -2.415,-0.054 -2.813,0.969 -0.398,1.004 -0.746,1.894 -1.137,2.617"
         style="fill:#327231;fill-opacity:1;fill-rule:nonzero;stroke:none"
         id="path132" /><path
         d="m 250.426,194.242 c -0.051,0.746 1.316,1.098 1.82,0 0.516,-1.097 2.141,-0.105 2.281,-1.937 0.028,-0.348 -0.191,-1.692 -0.695,-2.336 -0.504,-0.645 -3.008,0 -3.16,1.371 -0.168,1.379 -0.223,2.152 -0.246,2.902"
         style="fill:#327231;fill-opacity:1;fill-rule:nonzero;stroke:none"
         id="path134" /></g></g></svg>
