<?xml version="1.0" encoding="UTF-8" standalone="no"?>
<svg
   xmlns:dc="http://purl.org/dc/elements/1.1/"
   xmlns:cc="http://creativecommons.org/ns#"
   xmlns:rdf="http://www.w3.org/1999/02/22-rdf-syntax-ns#"
   xmlns:svg="http://www.w3.org/2000/svg"
   xmlns="http://www.w3.org/2000/svg"
   version="1.1"
   id="svg2"
   xml:space="preserve"
   width="42.666668"
   height="42.666668"
   viewBox="0 0 42.666668 42.666668"><metadata
     id="metadata8"><rdf:RDF><cc:Work
         rdf:about=""><dc:format>image/svg+xml</dc:format><dc:type
           rdf:resource="http://purl.org/dc/dcmitype/StillImage" /></cc:Work></rdf:RDF></metadata><defs
     id="defs6" /><g
     id="g10"
     transform="matrix(1.3333333,0,0,-1.3333333,0,42.666667)"><g
       id="g12"
       transform="scale(0.1)"><path
         d="M 26.7305,71.707 C 71.1406,101.313 115.574,130.906 160.078,160.492 115.777,189.965 71.4727,219.484 27.1953,249.004 10.0313,223.527 0.0117188,192.887 0.0117188,159.996 0.0117188,127.402 9.85156,97.0273 26.7305,71.707"
         style="fill:#d01e27;fill-opacity:1;fill-rule:nonzero;stroke:none"
         id="path14" /><path
         d="M 77.7148,105.652 C 60.7227,94.3359 43.707,83.0273 26.7305,71.707 26.625,71.8633 26.5352,72.0352 26.4297,72.1914 26.4219,72.1797 26.4102,72.1719 26.4023,72.1602 55,28.7109 104.129,0.00390625 160.012,0.00390625 229.293,0.00390625 288.285,44.0313 310.531,105.652 H 77.7148"
         style="fill:#237a39;fill-opacity:1;fill-rule:evenodd;stroke:none"
         id="path16" /><path
         d="m 160.012,319.996 c -55.371,0 -104.094,-28.215 -132.8011,-71.004 17.336,-11.554 34.6875,-23.097 52.0313,-34.656 H 310.531 c -22.246,61.602 -81.238,105.66 -150.519,105.66"
         style="fill:#100f0d;fill-opacity:1;fill-rule:nonzero;stroke:none"
         id="path18" /><path
         d="M 310.531,214.316 H 79.2734 C 106.207,196.371 133.141,178.414 160.078,160.492 132.59,142.219 105.16,123.934 77.7148,105.652 H 310.531 c 6.153,16.965 9.481,35.246 9.481,54.344 0,19.078 -3.328,37.387 -9.481,54.32"
         style="fill:#ffffff;fill-opacity:1;fill-rule:evenodd;stroke:none"
         id="path20" /></g></g></svg>
