<?xml version="1.0" encoding="UTF-8" standalone="no"?>
<svg
   xmlns:dc="http://purl.org/dc/elements/1.1/"
   xmlns:cc="http://creativecommons.org/ns#"
   xmlns:rdf="http://www.w3.org/1999/02/22-rdf-syntax-ns#"
   xmlns:svg="http://www.w3.org/2000/svg"
   xmlns="http://www.w3.org/2000/svg"
   version="1.1"
   id="svg2"
   xml:space="preserve"
   width="42.666668"
   height="42.666668"
   viewBox="0 0 42.666668 42.666668"><metadata
     id="metadata8"><rdf:RDF><cc:Work
         rdf:about=""><dc:format>image/svg+xml</dc:format><dc:type
           rdf:resource="http://purl.org/dc/dcmitype/StillImage" /></cc:Work></rdf:RDF></metadata><defs
     id="defs6" /><g
     id="g10"
     transform="matrix(1.3333333,0,0,-1.3333333,0,42.666667)"><g
       id="g12"
       transform="scale(0.1)"><path
         d="M 105.66,9.51172 V 310.473 c 16.981,6.129 35.262,9.476 54.336,9.476 19.086,0 37.383,-3.347 54.363,-9.476 V 9.51172 c -16.98,-6.11328 -35.277,-9.4609387 -54.363,-9.4609387 -19.074,0 -37.355,3.3476587 -54.336,9.4609387"
         style="fill:#fbc70c;fill-opacity:1;fill-rule:evenodd;stroke:none"
         id="path14" /><path
         d="M 105.66,310.473 V 9.53125 C 44.0391,31.7695 0,90.7578 0,159.988 0,229.242 44.0391,288.23 105.66,310.473"
         style="fill:#244a92;fill-opacity:1;fill-rule:evenodd;stroke:none"
         id="path16" /><path
         d="M 214.359,9.53125 V 310.473 C 275.949,288.23 320,229.242 320,159.988 320,90.7578 275.949,31.7695 214.359,9.53125"
         style="fill:#244a92;fill-opacity:1;fill-rule:evenodd;stroke:none"
         id="path18" /><path
         d="m 120.566,204.598 c 26.317,0 52.575,0 78.868,0 -8.672,-2.895 -17.481,-5.426 -26.192,-8.297 -0.031,-7.696 -0.078,-15.403 0,-23.094 7.703,0.02 15.461,-0.055 23.141,0.02 2.668,8.836 5.629,17.578 8.156,26.433 0.16,-26.453 0.16,-52.859 0,-79.273 -2.527,8.808 -5.488,17.551 -8.156,26.359 -7.68,0.074 -15.438,0 -23.141,0.055 -0.078,-7.699 -0.031,-15.406 0,-23.102 8.711,-2.879 17.52,-5.406 26.192,-8.301 -26.293,0 -52.551,0 -78.868,0 8.657,2.895 17.473,5.422 26.188,8.301 0.027,7.696 0.074,15.403 0,23.102 -7.738,-0.055 -15.449,0.019 -23.141,-0.055 -2.679,-8.808 -5.601,-17.496 -8.129,-26.336 -0.296,25.27 -0.054,50.547 -0.144,75.844 -0.024,1.113 0.047,2.238 0.164,3.359 2.465,-8.863 5.43,-17.55 8.109,-26.386 7.692,-0.075 15.403,0 23.141,-0.02 0.074,7.691 0.027,15.398 0,23.094 -8.715,2.871 -17.531,5.402 -26.188,8.297"
         style="fill:#cd1e25;fill-opacity:1;fill-rule:nonzero;stroke:none"
         id="path20" /><path
         d="m 153.371,196.352 c 4.434,0 8.813,0 13.242,0 0,-9.957 -0.019,-19.84 0,-29.739 9.934,-0.031 19.84,0 29.77,-0.031 0,-4.402 0,-8.781 0,-13.164 -9.93,-0.055 -19.836,0 -29.77,-0.055 -0.019,-9.879 0,-19.785 0,-29.707 -4.429,0 -8.808,0 -13.242,0 0,9.922 0.031,19.828 0,29.707 -9.922,0.055 -19.832,0 -29.758,0.055 0,4.383 0,8.762 0,13.164 9.926,0.031 19.836,0 29.758,0.031 0.031,9.899 0,19.782 0,29.739"
         style="fill:#ffffff;fill-opacity:1;fill-rule:nonzero;stroke:none"
         id="path22" /></g></g></svg>
