<?xml version="1.0" encoding="UTF-8" standalone="no"?>
<svg
   xmlns:dc="http://purl.org/dc/elements/1.1/"
   xmlns:cc="http://creativecommons.org/ns#"
   xmlns:rdf="http://www.w3.org/1999/02/22-rdf-syntax-ns#"
   xmlns:svg="http://www.w3.org/2000/svg"
   xmlns="http://www.w3.org/2000/svg"
   version="1.1"
   id="svg2"
   xml:space="preserve"
   width="42.666668"
   height="42.666668"
   viewBox="0 0 42.666668 42.666668"><metadata
     id="metadata8"><rdf:RDF><cc:Work
         rdf:about=""><dc:format>image/svg+xml</dc:format><dc:type
           rdf:resource="http://purl.org/dc/dcmitype/StillImage" /></cc:Work></rdf:RDF></metadata><defs
     id="defs6" /><g
     id="g10"
     transform="matrix(1.3333333,0,0,-1.3333333,0,42.666667)"><g
       id="g12"
       transform="scale(0.1)"><path
         d="M 95.0391,13.6836 V 306.016 c -1.7422,-0.782 -3.4649,-1.59 -5.1602,-2.422 21.1801,10.41 44.9921,16.25 70.1211,16.25 88.125,0 160,-71.864 160,-160 0,-88.1135 -71.875,-160.00025 -160,-160.00025 -25.129,0 -48.941,5.85938 -70.1211,16.26955 1.6953,-0.8477 3.418,-1.6602 5.1602,-2.4297"
         style="fill:#ed1d24;fill-opacity:1;fill-rule:evenodd;stroke:none"
         id="path14" /><path
         d="M 95.0391,13.9141 C 39.1406,38.9063 0,95.0703 0,160.078 0,225.098 39.1406,281.262 95.0391,306.25 V 13.9141"
         style="fill:#22632f;fill-opacity:1;fill-rule:evenodd;stroke:none"
         id="path16" /><path
         d="m 146,136.035 -1.16,0.086 c -6.785,0.824 -26.945,10.207 -49.7502,23.442 -22.8046,13.23 -40.9843,26.05 -45.0898,31.55 l -0.6211,0.918 -4.832,-8.418 c -0.2696,-0.449 -0.543,-0.527 0.164,-1.504 3.9688,-5.429 22.2266,-18.32 45.1524,-31.621 22.9417,-13.308 43.2027,-22.734 49.8597,-23.457 1.207,-0.129 0.984,0.235 1.375,0.598 l 4.902,8.406"
         style="fill:#efee0e;fill-opacity:1;fill-rule:nonzero;stroke:none"
         id="path18" /><path
         d="m 48.9258,192.766 c -0.4649,-0.559 0,-1.235 0.7656,-2.258 4.0938,-5.481 22.2774,-18.313 45.0781,-31.531 22.8285,-13.235 42.9805,-22.618 49.7465,-23.45 1.254,-0.144 2.031,-0.234 2.324,0.461 l -0.942,2.379 c 0.274,-0.797 0.704,-1.621 -0.488,-1.492 -6.656,0.723 -26.914,10.156 -49.8436,23.457 -22.9531,13.289 -41.1914,26.199 -45.1523,31.633 -0.7227,0.976 0,1.015 0.8984,1.148 -1.4453,0.039 -1.9023,0.246 -2.3867,-0.347"
         style="fill:#f7e31a;fill-opacity:1;fill-rule:nonzero;stroke:none"
         id="path20" /><path
         d="m 43.2617,183.145 c -0.3789,-0.555 0.0664,-1.336 0.836,-2.356 4.1015,-5.476 22.2812,-18.316 45.082,-31.531 22.8243,-13.231 42.9803,-22.637 49.7503,-23.457 1.254,-0.149 1.925,-0.188 2.32,0.461 l -0.27,1.218 c 0,0 0.032,-0.468 -1.156,-0.332 -6.656,0.735 -26.918,10.157 -49.8592,23.465 -22.9414,13.293 -41.1796,26.196 -45.1484,31.625 -0.7187,0.965 -0.4414,0.797 -0.3984,1.239 l -1.1563,-0.332"
         style="fill:#efee0e;fill-opacity:1;fill-rule:nonzero;stroke:none"
         id="path22" /><path
         d="m 49.043,129.68 c 5.2734,-2.571 23.8633,-4.465 45.9961,-4.465 22.0509,0 40.6089,1.887 45.9409,4.433 l 2.821,4.786 c -5.391,-2.735 -25.18,-4.754 -48.7619,-4.754 -23.6133,0 -43.4219,2.031 -48.7735,4.765 l 2.7774,-4.765"
         style="fill:#efee0e;fill-opacity:1;fill-rule:nonzero;stroke:none"
         id="path24" /><path
         d="m 141.742,130.906 -1.371,-0.808 c -6.238,-2.395 -24.176,-4.11 -45.3319,-4.11 -21.1719,0 -39.1172,1.715 -45.3282,4.11 l -1.3945,0.793 -0.1523,-0.539 c 0,-3.243 20.9804,-5.848 46.875,-5.848 25.8909,0 46.8749,2.605 46.8749,5.848 l -0.172,0.554"
         style="fill:#efee0e;fill-opacity:1;fill-rule:nonzero;stroke:none"
         id="path26" /><path
         d="m 46.1094,136.047 0.789,-1.262 c 6.3164,-2.558 25.4805,-4.422 48.1407,-4.422 22.0659,0 42.8749,2.285 48.1639,4.434 l 0.824,1.141 0.567,-0.868 c 0,-3.41 -22.188,-6.183 -49.5549,-6.183 -27.3672,0 -49.5508,2.773 -49.5508,6.183 l 0.6211,0.977"
         style="fill:#efee0e;fill-opacity:1;fill-rule:nonzero;stroke:none"
         id="path28" /><path
         d="m 150.145,161.777 -1.028,-0.761 c -6.203,-4.09 -28.07,-7.11 -54.0936,-7.11 -26.0234,0 -47.8828,3.02 -54.0898,7.11 l -0.9922,0.714 0.0117,-3.554 c 0,-0.793 -0.2031,-1.098 0.8828,-1.828 6.0625,-4.121 28.0157,-7.168 54.1875,-7.168 26.1676,0 48.1366,3.047 54.1876,7.168 1.078,0.73 0.715,1.054 0.863,1.828 l 0.071,3.601"
         style="fill:#efee0e;fill-opacity:1;fill-rule:nonzero;stroke:none"
         id="path30" /><path
         d="m 149.281,163.82 c 0.641,-0.84 1.028,-1.789 -0.054,-2.519 -6.047,-4.121 -28.004,-7.16 -54.1879,-7.16 -26.168,0 -48.1133,3.039 -54.1836,7.16 -1.0782,0.73 -0.6797,1.726 -0.0391,2.566 l -1.6211,-1.844 c -0.1172,-1.085 0.5977,-1.613 1.7539,-2.367 6.2031,-4.09 28.0781,-7.086 54.0899,-7.086 26.0239,0 47.8949,2.996 54.0979,7.086 1.14,0.754 1.843,1.25 1.746,2.367 -0.086,1.153 -1.602,1.797 -1.602,1.797"
         style="fill:#efee0e;fill-opacity:1;fill-rule:nonzero;stroke:none"
         id="path32" /><path
         d="m 150.117,158.457 c -0.121,0.051 0.192,-1.152 -0.89,-1.894 -6.047,-4.09 -28.004,-7.129 -54.1879,-7.129 -26.168,0 -48.1133,3.027 -54.1836,7.129 -1.0782,0.734 -0.9453,1.054 -0.9141,1.914 l -0.7461,-1.192 c -0.0703,-1.055 0.5977,-1.609 1.7539,-2.363 6.2031,-4.07 28.0781,-7.07 54.0899,-7.07 26.0239,0 47.8949,3 54.0979,7.07 1.14,0.754 1.742,1.238 1.746,2.363 l -0.766,1.172"
         style="fill:#efee0e;fill-opacity:1;fill-rule:nonzero;stroke:none"
         id="path34" /><path
         d="m 144.082,184.617 c -1.316,-3.238 -22.773,-5.808 -49.0429,-5.808 -25.9141,0 -47.1328,2.5 -48.9805,5.683 l 2.6367,4.844 c 1.6016,-3.027 21.7461,-5.422 46.3438,-5.422 24.6019,0 44.7269,2.395 46.3399,5.422 l 2.703,-4.719"
         style="fill:#efee0e;fill-opacity:1;fill-rule:nonzero;stroke:none"
         id="path36" /><path
         d="m 141.742,189.707 -1.371,-0.82 c -6.238,-2.383 -24.183,-4.11 -45.3319,-4.11 -21.1719,0 -39.1172,1.727 -45.336,4.11 l -1.3867,0.801 -0.1562,-0.536 c 0,-3.234 20.9843,-5.863 46.8789,-5.863 25.8909,0 46.8749,2.629 46.8749,5.863 l -0.172,0.555"
         style="fill:#efee0e;fill-opacity:1;fill-rule:nonzero;stroke:none"
         id="path38" /><path
         d="m 46.1094,185.32 0.789,-1.277 c 6.3164,-2.566 25.4805,-4.441 48.1407,-4.441 22.0659,0 42.8749,2.3 48.1639,4.441 l 0.824,1.152 0.567,-0.879 c 0,-3.41 -22.188,-6.191 -49.5549,-6.191 -27.3672,0 -49.5508,2.781 -49.5508,6.191 l 0.6211,1.004"
         style="fill:#efee0e;fill-opacity:1;fill-rule:nonzero;stroke:none"
         id="path40" /><path
         d="m 149.316,159.531 c 0,-29.98 -24.304,-54.277 -54.2769,-54.277 -29.9766,0 -54.2774,24.297 -54.2774,54.277 0,29.973 24.3008,54.278 54.2774,54.278 29.9729,0 54.2769,-24.305 54.2769,-54.278 m -54.2769,47.981 c -26.4961,0 -47.9805,-21.477 -47.9805,-47.981 0,-26.504 21.4844,-47.976 47.9805,-47.976 26.4999,0 47.9769,21.472 47.9769,47.976 0,26.504 -21.477,47.981 -47.9769,47.981"
         style="fill:#efee0e;fill-opacity:1;fill-rule:nonzero;stroke:none"
         id="path42" /><path
         d="m 39.9414,157.168 1.0313,0.762 c 6.1953,4.093 28.0664,7.109 54.0898,7.109 26.0275,0 47.8865,-3.016 54.0785,-7.109 l 1.004,-0.711 -0.024,3.562 c 0,0.789 0.211,1.094 -0.875,1.836 -6.066,4.113 -28.019,7.149 -54.1835,7.149 -26.1758,0 -48.1367,-3.047 -54.1992,-7.157 -1.0781,-0.746 -0.707,-1.054 -0.8594,-1.828 l -0.0625,-3.613"
         style="fill:#efee0e;fill-opacity:1;fill-rule:nonzero;stroke:none"
         id="path44" /><path
         d="m 40.8047,155.137 c -0.6289,0.832 -1.0391,1.765 0.0508,2.5 6.0586,4.133 28.0078,7.179 54.1836,7.179 26.1519,0 48.1209,-3.039 54.1799,-7.168 1.09,-0.734 0.679,-1.73 0.039,-2.558 l 1.625,1.836 c 0.129,1.082 -0.606,1.609 -1.758,2.371 -6.199,4.082 -28.062,7.09 -54.0859,7.09 -26.0235,0 -47.8907,-3.008 -54.0899,-7.09 -1.1562,-0.762 -1.8515,-1.25 -1.7539,-2.371 0.086,-1.153 1.6094,-1.789 1.6094,-1.789"
         style="fill:#efee0e;fill-opacity:1;fill-rule:nonzero;stroke:none"
         id="path46" /><path
         d="m 39.9727,160.488 c 0.1171,-0.047 -0.2071,1.164 0.8828,1.895 6.0586,4.101 28.0078,7.148 54.1836,7.148 26.1519,0 48.1209,-3.039 54.1799,-7.148 1.09,-0.731 0.941,-1.055 0.926,-1.914 l 0.738,1.191 c 0.07,1.067 -0.606,1.613 -1.758,2.371 -6.199,4.067 -28.062,7.074 -54.0859,7.074 -26.0235,0 -47.8907,-3.007 -54.0899,-7.082 -1.1562,-0.75 -1.7461,-1.218 -1.7539,-2.363 l 0.7774,-1.172"
         style="fill:#efee0e;fill-opacity:1;fill-rule:nonzero;stroke:none"
         id="path48" /><path
         d="m 97.3906,104.473 h -4.7148 v 110.129 h 4.7148 V 104.473"
         style="fill:#efee0e;fill-opacity:1;fill-rule:nonzero;stroke:none"
         id="path50" /><path
         d="m 93.4727,104.473 -0.7969,-0.789 -0.7891,0.789 v 110.129 l 0.7891,0.781 0.7969,-0.781 V 104.473"
         style="fill:#efee0e;fill-opacity:1;fill-rule:nonzero;stroke:none"
         id="path52" /><path
         d="m 98.1875,104.473 -0.7969,-0.789 -0.7773,0.789 v 110.129 l 0.7773,0.781 0.7969,-0.781 V 104.473"
         style="fill:#efee0e;fill-opacity:1;fill-rule:nonzero;stroke:none"
         id="path54" /><path
         d="m 45.9922,134.902 c 1.3242,3.25 22.7695,5.821 49.0469,5.821 25.9219,0 47.1289,-2.5 48.9769,-5.696 l -2.625,-4.832 c -1.625,3.028 -21.746,5.41 -46.3519,5.41 -24.5977,0 -44.7422,-2.382 -46.3438,-5.41 l -2.7031,4.707"
         style="fill:#efee0e;fill-opacity:1;fill-rule:nonzero;stroke:none"
         id="path56" /><path
         d="m 50.2188,128.66 c -1.4766,1.203 -1.0938,1.762 -0.4961,1.992 6.2148,2.375 24.164,4.106 45.3164,4.106 21.1719,0 39.1209,-1.731 45.3439,-4.113 0.547,-0.204 0.832,-0.829 -0.438,-1.946 2.035,0.824 1.969,1.684 1.969,1.684 0,3.25 -20.976,5.867 -46.8749,5.867 -25.8946,0 -46.875,-2.617 -46.875,-5.867 0,0 -0.1875,-0.82 2.0547,-1.723"
         style="fill:#efee0e;fill-opacity:1;fill-rule:nonzero;stroke:none"
         id="path58" /><path
         d="m 143.414,133.82 -0.234,1.66 c -6.305,2.579 -25.477,4.454 -48.1409,4.454 -22.0547,0 -42.8789,-2.297 -48.1407,-4.454 l -0.4687,-1.632 c -1.1797,0.781 -0.9531,1.367 -0.9531,1.367 0,3.418 22.1953,6.191 49.5625,6.191 27.3669,0 49.5549,-2.773 49.5549,-6.191 0,0 -0.055,-0.977 -1.18,-1.395"
         style="fill:#efee0e;fill-opacity:1;fill-rule:nonzero;stroke:none"
         id="path60" /><path
         d="m 141.039,189.871 c -5.273,2.563 -23.867,4.453 -45.9999,4.453 -22.0547,0 -40.6094,-1.875 -45.9453,-4.422 l -2.8243,-4.793 c 5.3907,2.735 25.1797,4.762 48.7696,4.762 23.6169,0 43.4219,-2.027 48.7769,-4.781 l -2.777,4.781"
         style="fill:#efee0e;fill-opacity:1;fill-rule:nonzero;stroke:none"
         id="path62" /><path
         d="m 48.3359,188.633 1.375,0.82 c 6.2266,2.395 24.1758,4.113 45.3282,4.113 21.1719,0 39.1209,-1.718 45.3439,-4.113 l 1.383,-0.801 0.148,0.547 c 0,3.235 -20.984,5.852 -46.8749,5.852 -25.8946,0 -46.8789,-2.617 -46.8789,-5.852 l 0.1757,-0.566"
         style="fill:#efee0e;fill-opacity:1;fill-rule:nonzero;stroke:none"
         id="path64" /><path
         d="m 143.984,183.477 -0.804,1.269 c -6.305,2.578 -25.477,4.445 -48.1409,4.445 -22.0547,0 -42.8789,-2.296 -48.1407,-4.453 l -0.8593,-1.144 -0.5625,0.871 c 0,3.426 22.1953,6.199 49.5625,6.199 27.3669,0 49.5549,-2.773 49.5549,-6.199 l -0.61,-0.988"
         style="fill:#efee0e;fill-opacity:1;fill-rule:nonzero;stroke:none"
         id="path66" /><path
         d="m 44.0859,183.027 1.1485,-0.086 C 52.0078,182.129 72.1836,172.734 95,159.504 c 22.809,-13.227 40.969,-26.059 45.066,-31.555 l 0.633,-0.91 4.828,8.422 c 0.262,0.445 0.532,0.508 -0.16,1.492 -3.965,5.43 -22.222,18.34 -45.152,31.633 -22.9494,13.301 -43.2033,22.734 -49.8595,23.445 -1.1992,0.137 -0.9766,-0.234 -1.3672,-0.605 l -4.9024,-8.399"
         style="fill:#efee0e;fill-opacity:1;fill-rule:nonzero;stroke:none"
         id="path68" /><path
         d="m 141.156,126.301 c 0.461,0.554 -0.008,1.226 -0.769,2.246 -4.094,5.484 -22.285,18.316 -45.0823,31.543 -22.8281,13.23 -42.9805,22.625 -49.75,23.445 -1.2617,0.149 -2.0274,0.227 -2.3281,-0.461 l 0.9492,-2.379 c -0.2774,0.809 -0.707,1.629 0.4844,1.485 6.6523,-0.715 26.914,-10.149 49.8632,-23.442 22.9376,-13.308 41.1796,-26.199 45.1566,-31.636 0.707,-0.981 -0.016,-1.016 -0.926,-1.157 1.449,-0.039 1.91,-0.23 2.402,0.356"
         style="fill:#efee0e;fill-opacity:1;fill-rule:nonzero;stroke:none"
         id="path70" /><path
         d="m 146.813,135.938 c 0.382,0.539 -0.079,1.328 -0.836,2.343 -4.106,5.469 -22.286,18.313 -45.086,31.543 -22.809,13.223 -42.9769,22.617 -49.7426,23.449 -1.2656,0.145 -1.9296,0.172 -2.3164,-0.46 l 0.2618,-1.231 c 0,0 -0.0196,0.469 1.1562,0.344 6.6602,-0.735 26.9219,-10.156 49.855,-23.469 22.942,-13.293 41.188,-26.199 45.168,-31.633 0.704,-0.965 0.442,-0.797 0.379,-1.238 l 1.161,0.352"
         style="fill:#efee0e;fill-opacity:1;fill-rule:nonzero;stroke:none"
         id="path72" /><path
         d="m 62.1602,153.516 c 0,-18.114 14.8554,-32.832 32.9921,-32.832 18.1177,0 32.7617,14.718 32.7617,32.832 v 42.472 H 62.1602 v -42.472"
         style="fill:#ffffff;fill-opacity:1;fill-rule:nonzero;stroke:none"
         id="path74" /><path
         d="m 62.3672,195.781 v -42.265 c 0,-17.989 14.6992,-32.618 32.7851,-32.618 17.9607,0 32.5777,14.629 32.5777,32.618 v 42.265 z m 32.7851,-75.293 c -18.3007,0 -33.1835,14.825 -33.1835,33.028 v 42.668 h 66.1562 v -42.668 c 0,-18.203 -14.805,-33.028 -32.9727,-33.028"
         style="fill:#ffffff;fill-opacity:1;fill-rule:nonzero;stroke:none"
         id="path76" /><path
         d="m 62.9492,153.633 c 0,-17.688 14.4883,-32.039 32.2031,-32.039 17.6957,0 31.9887,14.351 31.9887,32.039 v 41.445 H 62.9492 v -41.445"
         style="fill:#ed1d24;fill-opacity:1;fill-rule:nonzero;stroke:none"
         id="path78" /><path
         d="m 114.605,143.965 0.391,-0.399 -0.484,-0.48 0.379,-0.391 0.496,0.481 0.375,-0.371 -0.477,-0.489 0.367,-0.382 0.485,0.476 0.398,-0.379 -0.484,-0.488 -0.184,0.187 -0.254,-0.246 -1.531,1.543 0.25,0.246 -0.211,0.204 0.484,0.488"
         style="fill:#efee0e;fill-opacity:1;fill-rule:nonzero;stroke:none"
         id="path80" /><path
         d="m 117.555,143.059 -0.524,-0.532 0.199,-0.183 -0.261,-0.254 1.562,-1.555 0.254,0.246 0.188,-0.183 0.519,0.515 -0.398,0.403 -0.516,-0.52 -0.394,0.383 0.531,0.516 -0.379,0.363 -0.516,-0.5 -0.402,0.39 0.527,0.516 -0.39,0.395"
         style="fill:#efee0e;fill-opacity:1;fill-rule:nonzero;stroke:none"
         id="path82" /><path
         d="m 118.48,140.098 -0.507,-0.496 0.211,-0.2 -0.262,-0.23 1.558,-1.555 0.247,0.254 0.191,-0.195 0.496,0.488 -0.394,0.383 -0.489,-0.488 -0.394,0.398 0.496,0.488 -0.379,0.371 -0.492,-0.476 -0.387,0.379 0.48,0.488 -0.375,0.391"
         style="fill:#efee0e;fill-opacity:1;fill-rule:nonzero;stroke:none"
         id="path84" /><path
         d="m 112.301,141.25 -0.235,-0.234 5.395,-5.411 0.242,0.247 -5.402,5.398"
         style="fill:#efee0e;fill-opacity:1;fill-rule:nonzero;stroke:none"
         id="path86" /><path
         d="m 111.797,140.754 -0.242,-0.258 5.394,-5.398 0.258,0.254 -5.41,5.402"
         style="fill:#efee0e;fill-opacity:1;fill-rule:nonzero;stroke:none"
         id="path88" /><path
         d="m 114.594,132.441 0.832,1.504 0.586,0.586 0.183,-0.183 0.5,0.496 -5.394,5.41 -0.504,-0.508 0.195,-0.195 -0.601,-0.586 -1.489,-0.828 0.934,-0.942 c 1.316,0.969 2.969,1.047 3.894,0.11 0.942,-0.926 0.864,-2.578 -0.097,-3.899 l 0.961,-0.965"
         style="fill:#efee0e;fill-opacity:1;fill-rule:nonzero;stroke:none"
         id="path90" /><path
         d="m 114.672,131.863 -0.606,-0.906 -6.668,6.672 0.911,0.594 1.652,-1.641 c 1.098,1.106 2.68,1.309 3.547,0.457 0.844,-0.848 0.637,-2.437 -0.461,-3.543 z m -2.227,2.207 0.293,2.231 -2.246,-0.285 z"
         style="fill:#efee0e;fill-opacity:1;fill-rule:nonzero;stroke:none"
         id="path92" /><path
         d="m 112.301,134.758 0.172,1.269 -1.285,-0.168 z"
         style="fill:#efee0e;fill-opacity:1;fill-rule:nonzero;stroke:none"
         id="path94" /><path
         d="m 115.141,141.414 -1.235,-1.226 -1.148,1.132 1.242,1.239 z m -1.02,0.383 -0.562,-0.567 0.281,-0.253 0.535,0.546 -0.254,0.274"
         style="fill:#efee0e;fill-opacity:1;fill-rule:nonzero;stroke:none"
         id="path96" /><path
         d="m 119.023,137.539 -1.238,-1.23 -1.16,1.152 1.242,1.238 z m -1.05,0.402 -0.555,-0.558 0.277,-0.274 0.547,0.555 -0.269,0.277"
         style="fill:#efee0e;fill-opacity:1;fill-rule:nonzero;stroke:none"
         id="path98" /><path
         d="m 118.07,140.488 -2.234,-2.234 -1.164,1.148 2.246,2.239 z m -1.41,0.008 -0.89,-0.887 0.269,-0.261 0.887,0.886 -0.266,0.262"
         style="fill:#efee0e;fill-opacity:1;fill-rule:nonzero;stroke:none"
         id="path100" /><path
         d="m 69.793,138.164 0.3867,0.391 0.4844,-0.489 0.3945,0.391 -0.4883,0.488 0.3828,0.371 0.4727,-0.476 0.3906,0.379 -0.4922,0.488 0.3946,0.391 0.4804,-0.496 -0.1758,-0.176 0.2539,-0.246 -1.5546,-1.551 -0.25,0.254 -0.1993,-0.207 -0.4804,0.488"
         style="fill:#efee0e;fill-opacity:1;fill-rule:nonzero;stroke:none"
         id="path102" /><path
         d="m 70.6992,141.113 0.5156,-0.515 0.1954,0.183 0.2578,-0.246 1.5508,1.555 -0.2461,0.254 0.1875,0.183 -0.5196,0.532 -0.3984,-0.403 0.5117,-0.515 -0.375,-0.383 -0.5195,0.5 -0.3789,-0.363 0.5156,-0.516 -0.4023,-0.402 -0.5157,0.515 -0.3789,-0.379"
         style="fill:#efee0e;fill-opacity:1;fill-rule:nonzero;stroke:none"
         id="path104" /><path
         d="m 73.6523,142.031 0.5,-0.488 0.1875,0.195 0.2461,-0.246 1.5547,1.543 -0.25,0.254 0.1836,0.188 -0.4726,0.488 -0.4024,-0.379 0.5,-0.488 -0.4101,-0.403 -0.4883,0.481 -0.3711,-0.371 0.4883,-0.489 -0.3946,-0.382 -0.4804,0.476 -0.3907,-0.379"
         style="fill:#efee0e;fill-opacity:1;fill-rule:nonzero;stroke:none"
         id="path106" /><path
         d="m 72.4844,135.859 0.2461,-0.234 5.4062,5.41 -0.2344,0.227 -5.4179,-5.403"
         style="fill:#efee0e;fill-opacity:1;fill-rule:nonzero;stroke:none"
         id="path108" /><path
         d="m 73.0039,135.363 0.2422,-0.254 5.4023,5.399 -0.25,0.254 -5.3945,-5.399"
         style="fill:#efee0e;fill-opacity:1;fill-rule:nonzero;stroke:none"
         id="path110" /><path
         d="m 81.3125,138.152 -1.5078,0.832 -0.6055,0.579 0.211,0.203 -0.5039,0.5 -5.4102,-5.411 0.5078,-0.5 0.1953,0.196 0.586,-0.606 0.8242,-1.484 0.9453,0.93 c -0.9531,1.328 -1.0586,2.976 -0.1133,3.914 0.9375,0.929 2.582,0.847 3.9063,-0.117 l 0.9648,0.964"
         style="fill:#efee0e;fill-opacity:1;fill-rule:nonzero;stroke:none"
         id="path112" /><path
         d="m 81.8945,138.223 0.9024,-0.594 -6.6875,-6.672 -0.5938,0.906 1.6563,1.645 c -1.1055,1.101 -1.3164,2.691 -0.4571,3.543 0.8477,0.859 2.4297,0.644 3.5352,-0.457 z m -2.2148,-2.207 -2.2344,0.285 0.2969,-2.231 z"
         style="fill:#efee0e;fill-opacity:1;fill-rule:nonzero;stroke:none"
         id="path114" /><path
         d="m 79,135.859 -1.2773,0.168 0.164,-1.269 z"
         style="fill:#efee0e;fill-opacity:1;fill-rule:nonzero;stroke:none"
         id="path116" /><path
         d="m 72.3359,138.699 1.2383,-1.238 -1.1484,-1.141 -1.2383,1.231 z m -0.3711,-1.023 0.5586,-0.559 0.2461,0.266 -0.5429,0.558 -0.2618,-0.265"
         style="fill:#efee0e;fill-opacity:1;fill-rule:nonzero;stroke:none"
         id="path118" /><path
         d="m 76.2031,142.578 1.2422,-1.238 -1.1719,-1.152 -1.2304,1.226 z m -0.3828,-1.047 0.5469,-0.554 0.2695,0.261 -0.5508,0.559 -0.2656,-0.266"
         style="fill:#efee0e;fill-opacity:1;fill-rule:nonzero;stroke:none"
         id="path120" /><path
         d="m 73.2617,141.641 2.2344,-2.246 -1.1563,-1.153 -2.2421,2.238 z m -0.0156,-1.414 0.8945,-0.891 0.2657,0.266 -0.8946,0.886 -0.2656,-0.261"
         style="fill:#efee0e;fill-opacity:1;fill-rule:nonzero;stroke:none"
         id="path122" /><path
         d="m 65.8438,167.766 h 0.5664 v -0.696 h 0.5468 v 0.696 h 0.5352 v -0.696 h 0.5351 v 0.696 h 0.5508 v -0.696 h -0.2539 v -0.351 h -2.1914 v 0.351 h -0.289 v 0.696"
         style="fill:#efee0e;fill-opacity:1;fill-rule:nonzero;stroke:none"
         id="path124" /><path
         d="m 68.5781,169.199 v -0.73 h 0.2735 v -0.356 h 2.207 v 0.356 h 0.2656 v 0.73 h -0.5625 v -0.73 h -0.5429 v 0.73 h -0.5313 v -0.73 H 69.125 v 0.73 h -0.5469"
         style="fill:#efee0e;fill-opacity:1;fill-rule:nonzero;stroke:none"
         id="path126" /><path
         d="m 71.3242,167.766 v -0.696 h 0.2696 v -0.351 h 2.1875 v 0.351 h 0.2734 v 0.696 h -0.5586 v -0.696 h -0.5547 v 0.696 h -0.5195 v -0.696 h -0.5508 v 0.696 h -0.5469"
         style="fill:#efee0e;fill-opacity:1;fill-rule:nonzero;stroke:none"
         id="path128" /><path
         d="m 66.1328,163.887 h 7.6367 v 0.332 h -7.6367 v -0.332"
         style="fill:#efee0e;fill-opacity:1;fill-rule:nonzero;stroke:none"
         id="path130" /><path
         d="m 66.1328,163.152 h 7.6367 v 0.356 h -7.6367 v -0.356"
         style="fill:#efee0e;fill-opacity:1;fill-rule:nonzero;stroke:none"
         id="path132" /><path
         d="m 73.9922,159.609 -0.4805,1.653 -0.0156,0.828 h 0.2852 v 0.715 h -7.6485 v -0.715 h 0.2774 v -0.84 l -0.4727,-1.641 h 1.3242 c 0.2617,1.614 1.3516,2.832 2.6914,2.832 1.3203,0 2.4258,-1.218 2.6602,-2.832 h 1.3789"
         style="fill:#efee0e;fill-opacity:1;fill-rule:nonzero;stroke:none"
         id="path134" /><path
         d="m 74.4492,159.258 0.211,-1.063 h -9.4297 l 0.2148,1.063 h 2.3399 c 0,1.555 0.9609,2.832 2.1757,2.832 1.211,0 2.1875,-1.277 2.1875,-2.832 z m -3.125,-0.02 c 0,0.989 -0.6172,1.789 -1.3633,1.789 -0.7773,0 -1.3828,-0.8 -1.3828,-1.789 h 2.7461"
         style="fill:#efee0e;fill-opacity:1;fill-rule:nonzero;stroke:none"
         id="path136" /><path
         d="m 70.7383,159.617 -0.7774,1.02 -0.8046,-1.02 z"
         style="fill:#efee0e;fill-opacity:1;fill-rule:nonzero;stroke:none"
         id="path138" /><path
         d="m 68.0273,164.602 h -1.6171 v 1.746 h 1.6171 z m -0.9921,0.496 h 0.3828 v 0.781 h -0.3828 v -0.781"
         style="fill:#efee0e;fill-opacity:1;fill-rule:nonzero;stroke:none"
         id="path140" /><path
         d="m 73.4961,164.602 h -1.625 v 1.746 h 1.625 z m -1.0117,0.496 h 0.3906 v 0.781 h -0.3906 v -0.781"
         style="fill:#efee0e;fill-opacity:1;fill-rule:nonzero;stroke:none"
         id="path142" /><path
         d="M 70.7617,164.602 H 69.125 v 3.164 h 1.6367 z m -1.0156,0.918 h 0.3906 v 1.25 h -0.3906 v -1.25"
         style="fill:#efee0e;fill-opacity:1;fill-rule:nonzero;stroke:none"
         id="path144" /><path
         d="m 115.961,167.766 h 0.559 v -0.696 h 0.539 v 0.696 h 0.539 v -0.696 h 0.543 v 0.696 h 0.55 v -0.696 h -0.253 v -0.351 h -2.2 v 0.351 h -0.277 v 0.696"
         style="fill:#efee0e;fill-opacity:1;fill-rule:nonzero;stroke:none"
         id="path146" /><path
         d="m 118.691,169.199 v -0.73 h 0.262 v -0.356 h 2.203 v 0.356 h 0.278 v 0.73 h -0.567 v -0.73 h -0.539 v 0.73 h -0.539 v -0.73 h -0.562 v 0.73 h -0.536"
         style="fill:#efee0e;fill-opacity:1;fill-rule:nonzero;stroke:none"
         id="path148" /><path
         d="m 121.434,167.766 v -0.696 h 0.261 v -0.351 h 2.192 v 0.351 h 0.269 v 0.696 h -0.535 v -0.696 h -0.558 v 0.696 h -0.54 v -0.696 h -0.543 v 0.696 h -0.546"
         style="fill:#efee0e;fill-opacity:1;fill-rule:nonzero;stroke:none"
         id="path150" /><path
         d="m 116.238,163.887 h 7.649 v 0.332 h -7.649 v -0.332"
         style="fill:#efee0e;fill-opacity:1;fill-rule:nonzero;stroke:none"
         id="path152" /><path
         d="m 116.238,163.152 h 7.649 v 0.356 h -7.649 v -0.356"
         style="fill:#efee0e;fill-opacity:1;fill-rule:nonzero;stroke:none"
         id="path154" /><path
         d="m 124.098,159.609 -0.477,1.653 v 0.828 h 0.266 v 0.715 h -7.649 v -0.715 h 0.282 v -0.84 l -0.481,-1.641 h 1.332 c 0.258,1.614 1.356,2.832 2.684,2.832 1.324,0 2.422,-1.218 2.668,-2.832 h 1.375"
         style="fill:#efee0e;fill-opacity:1;fill-rule:nonzero;stroke:none"
         id="path156" /><path
         d="m 124.551,159.258 0.207,-1.063 h -9.426 l 0.234,1.063 h 2.321 c 0,1.555 0.968,2.832 2.187,2.832 1.196,0 2.176,-1.277 2.176,-2.832 z m -3.117,-0.02 c 0,0.989 -0.625,1.789 -1.371,1.789 -0.766,0 -1.372,-0.8 -1.372,-1.789 h 2.743"
         style="fill:#efee0e;fill-opacity:1;fill-rule:nonzero;stroke:none"
         id="path158" /><path
         d="m 120.844,159.629 -0.781,1.008 -0.797,-1.008 z"
         style="fill:#efee0e;fill-opacity:1;fill-rule:nonzero;stroke:none"
         id="path160" /><path
         d="m 118.141,164.602 h -1.621 v 1.746 h 1.621 z m -0.993,0.496 h 0.372 v 0.781 h -0.372 v -0.781"
         style="fill:#efee0e;fill-opacity:1;fill-rule:nonzero;stroke:none"
         id="path162" /><path
         d="m 123.621,164.602 h -1.641 v 1.746 h 1.641 z m -1.008,0.496 h 0.364 v 0.781 h -0.364 v -0.781"
         style="fill:#efee0e;fill-opacity:1;fill-rule:nonzero;stroke:none"
         id="path164" /><path
         d="m 120.867,164.602 h -1.64 v 3.164 h 1.64 z m -1.015,0.918 h 0.386 v 1.25 h -0.386 v -1.25"
         style="fill:#efee0e;fill-opacity:1;fill-rule:nonzero;stroke:none"
         id="path166" /><path
         d="m 115.961,191.406 h 0.559 v -0.683 h 0.539 v 0.683 h 0.539 v -0.683 h 0.543 v 0.683 h 0.55 v -0.683 h -0.253 v -0.352 h -2.2 v 0.352 h -0.277 v 0.683"
         style="fill:#efee0e;fill-opacity:1;fill-rule:nonzero;stroke:none"
         id="path168" /><path
         d="m 118.691,192.852 v -0.735 h 0.262 v -0.359 h 2.203 v 0.359 h 0.278 v 0.735 h -0.567 v -0.735 h -0.539 v 0.735 h -0.539 v -0.735 h -0.562 v 0.735 h -0.536"
         style="fill:#efee0e;fill-opacity:1;fill-rule:nonzero;stroke:none"
         id="path170" /><path
         d="m 121.434,191.406 v -0.683 h 0.261 v -0.352 h 2.192 v 0.352 h 0.269 v 0.683 h -0.535 v -0.683 h -0.558 v 0.683 h -0.54 v -0.683 h -0.543 v 0.683 h -0.546"
         style="fill:#efee0e;fill-opacity:1;fill-rule:nonzero;stroke:none"
         id="path172" /><path
         d="m 116.238,187.539 h 7.649 v 0.332 h -7.649 v -0.332"
         style="fill:#efee0e;fill-opacity:1;fill-rule:nonzero;stroke:none"
         id="path174" /><path
         d="m 116.238,186.797 h 7.649 v 0.359 h -7.649 v -0.359"
         style="fill:#efee0e;fill-opacity:1;fill-rule:nonzero;stroke:none"
         id="path176" /><path
         d="m 124.098,183.254 -0.477,1.648 v 0.832 h 0.266 v 0.711 h -7.649 v -0.711 h 0.282 v -0.839 l -0.481,-1.641 h 1.332 c 0.258,1.617 1.356,2.84 2.684,2.84 1.324,0 2.422,-1.223 2.668,-2.84 h 1.375"
         style="fill:#efee0e;fill-opacity:1;fill-rule:nonzero;stroke:none"
         id="path178" /><path
         d="m 124.551,182.902 0.207,-1.054 h -9.426 l 0.234,1.054 h 2.321 c 0,1.571 0.968,2.832 2.187,2.832 1.196,0 2.176,-1.261 2.176,-2.832 z m -3.117,-0.011 c 0,0.976 -0.625,1.789 -1.371,1.789 -0.766,0 -1.372,-0.813 -1.372,-1.789 h 2.743"
         style="fill:#efee0e;fill-opacity:1;fill-rule:nonzero;stroke:none"
         id="path180" /><path
         d="m 120.844,183.273 -0.781,1.024 -0.797,-1.024 z"
         style="fill:#efee0e;fill-opacity:1;fill-rule:nonzero;stroke:none"
         id="path182" /><path
         d="m 118.141,188.254 h -1.621 v 1.734 h 1.621 z m -0.993,0.496 h 0.372 v 0.781 h -0.372 v -0.781"
         style="fill:#efee0e;fill-opacity:1;fill-rule:nonzero;stroke:none"
         id="path184" /><path
         d="m 123.621,188.254 h -1.641 v 1.734 h 1.641 z m -1.008,0.496 h 0.364 v 0.781 h -0.364 v -0.781"
         style="fill:#efee0e;fill-opacity:1;fill-rule:nonzero;stroke:none"
         id="path186" /><path
         d="m 120.867,188.254 h -1.64 v 3.152 h 1.64 z m -1.015,0.906 h 0.386 v 1.27 h -0.386 v -1.27"
         style="fill:#efee0e;fill-opacity:1;fill-rule:nonzero;stroke:none"
         id="path188" /><path
         d="m 65.8438,191.406 h 0.5664 v -0.683 h 0.5468 v 0.683 h 0.5352 v -0.683 h 0.5351 v 0.683 h 0.5508 v -0.683 h -0.2617 v -0.352 h -2.1836 v 0.352 h -0.289 v 0.683"
         style="fill:#efee0e;fill-opacity:1;fill-rule:nonzero;stroke:none"
         id="path190" /><path
         d="m 68.5781,192.852 v -0.735 h 0.2657 v -0.359 h 2.1992 v 0.359 h 0.2812 v 0.735 h -0.5703 v -0.735 h -0.5351 v 0.735 h -0.5313 v -0.735 H 69.125 v 0.735 h -0.5469"
         style="fill:#efee0e;fill-opacity:1;fill-rule:nonzero;stroke:none"
         id="path192" /><path
         d="m 71.3242,191.406 v -0.683 h 0.2696 v -0.352 h 2.1757 v 0.352 h 0.2852 v 0.683 h -0.5586 v -0.683 h -0.5547 v 0.683 h -0.5195 v -0.683 h -0.5508 v 0.683 h -0.5469"
         style="fill:#efee0e;fill-opacity:1;fill-rule:nonzero;stroke:none"
         id="path194" /><path
         d="m 66.1328,187.539 h 7.6367 v 0.332 h -7.6367 v -0.332"
         style="fill:#efee0e;fill-opacity:1;fill-rule:nonzero;stroke:none"
         id="path196" /><path
         d="m 66.1328,186.797 h 7.6367 v 0.359 h -7.6367 v -0.359"
         style="fill:#efee0e;fill-opacity:1;fill-rule:nonzero;stroke:none"
         id="path198" /><path
         d="m 73.9922,183.254 -0.4805,1.648 -0.0156,0.832 h 0.2734 v 0.711 h -7.6367 v -0.711 h 0.2774 v -0.839 l -0.4727,-1.641 h 1.3242 c 0.2617,1.617 1.3516,2.84 2.6914,2.84 1.3125,0 2.3985,-1.223 2.6602,-2.84 h 1.3789"
         style="fill:#efee0e;fill-opacity:1;fill-rule:nonzero;stroke:none"
         id="path200" /><path
         d="m 74.4375,182.902 0.2227,-1.054 h -9.4297 l 0.2148,1.054 h 2.3399 c 0,1.571 0.9609,2.832 2.1757,2.832 1.1954,0 2.1875,-1.261 2.1875,-2.832 z m -3.1133,-0.011 c 0,0.976 -0.6172,1.789 -1.3711,1.789 -0.7695,0 -1.375,-0.813 -1.375,-1.789 h 2.7461"
         style="fill:#efee0e;fill-opacity:1;fill-rule:nonzero;stroke:none"
         id="path202" /><path
         d="m 70.7266,183.273 -0.7735,1.024 -0.7968,-1.024 z"
         style="fill:#efee0e;fill-opacity:1;fill-rule:nonzero;stroke:none"
         id="path204" /><path
         d="m 68.0273,188.254 h -1.6171 v 1.734 h 1.6171 z m -0.9921,0.496 h 0.3828 v 0.781 h -0.3828 v -0.781"
         style="fill:#efee0e;fill-opacity:1;fill-rule:nonzero;stroke:none"
         id="path206" /><path
         d="m 73.4961,188.254 h -1.625 v 1.734 h 1.625 z m -1.0117,0.496 h 0.3906 v 0.781 h -0.3906 v -0.781"
         style="fill:#efee0e;fill-opacity:1;fill-rule:nonzero;stroke:none"
         id="path208" /><path
         d="M 70.7539,188.254 H 69.125 v 3.152 h 1.6289 z m -1.0078,0.906 h 0.3906 v 1.27 h -0.3906 v -1.27"
         style="fill:#efee0e;fill-opacity:1;fill-rule:nonzero;stroke:none"
         id="path210" /><path
         d="M 90.9492,191.426 H 91.5 v -0.684 h 0.5469 v 0.684 h 0.5234 v -0.684 h 0.5547 v 0.684 h 0.5352 v -0.684 h -0.2383 v -0.34 h -2.1992 v 0.34 h -0.2735 v 0.684"
         style="fill:#efee0e;fill-opacity:1;fill-rule:nonzero;stroke:none"
         id="path212" /><path
         d="m 93.6602,192.883 v -0.735 h 0.2812 v -0.363 h 2.1992 v 0.363 h 0.2735 v 0.735 h -0.5586 v -0.735 h -0.5508 v 0.735 h -0.5352 v -0.735 h -0.5547 v 0.735 h -0.5546"
         style="fill:#efee0e;fill-opacity:1;fill-rule:nonzero;stroke:none"
         id="path214" /><path
         d="m 96.4141,191.426 v -0.684 h 0.2773 v -0.34 h 2.1875 v 0.34 h 0.2578 v 0.684 h -0.5273 v -0.684 h -0.5742 v 0.684 H 97.5 v -0.684 h -0.543 v 0.684 h -0.5429"
         style="fill:#efee0e;fill-opacity:1;fill-rule:nonzero;stroke:none"
         id="path216" /><path
         d="m 91.2227,187.559 h 7.6562 v 0.332 h -7.6562 v -0.332"
         style="fill:#efee0e;fill-opacity:1;fill-rule:nonzero;stroke:none"
         id="path218" /><path
         d="m 91.2227,186.824 h 7.6562 v 0.364 h -7.6562 v -0.364"
         style="fill:#efee0e;fill-opacity:1;fill-rule:nonzero;stroke:none"
         id="path220" /><path
         d="m 99.0742,183.281 -0.4648,1.653 v 0.828 h 0.2695 v 0.715 h -7.6562 v -0.715 H 91.5 v -0.852 l -0.4648,-1.629 h 1.3086 c 0.2617,1.614 1.3632,2.832 2.6953,2.832 1.3164,0 2.4218,-1.211 2.6836,-2.832 h 1.3515"
         style="fill:#efee0e;fill-opacity:1;fill-rule:nonzero;stroke:none"
         id="path222" /><path
         d="m 99.5352,182.922 0.2265,-1.047 h -9.4492 l 0.2383,1.047 h 2.3203 c 0,1.57 0.9766,2.84 2.1836,2.84 1.1992,0 2.1758,-1.27 2.1758,-2.84 z m -3.1211,-0.012 c 0,0.988 -0.6172,1.785 -1.375,1.785 -0.7618,0 -1.3789,-0.797 -1.3789,-1.785 h 2.7539"
         style="fill:#efee0e;fill-opacity:1;fill-rule:nonzero;stroke:none"
         id="path224" /><path
         d="m 95.8242,183.301 -0.7851,1.015 -0.7813,-1.015 z"
         style="fill:#efee0e;fill-opacity:1;fill-rule:nonzero;stroke:none"
         id="path226" /><path
         d="M 93.125,188.273 H 91.5 v 1.747 h 1.625 z m -1,0.497 H 92.5 v 0.781 h -0.375 v -0.781"
         style="fill:#efee0e;fill-opacity:1;fill-rule:nonzero;stroke:none"
         id="path228" /><path
         d="M 98.6094,188.273 H 96.957 v 1.747 h 1.6524 z m -1.0274,0.497 h 0.3828 v 0.781 H 97.582 v -0.781"
         style="fill:#efee0e;fill-opacity:1;fill-rule:nonzero;stroke:none"
         id="path230" /><path
         d="m 95.8555,188.273 h -1.6407 v 3.165 h 1.6407 z m -1.0117,0.918 h 0.375 v 1.25 h -0.375 v -1.25"
         style="fill:#efee0e;fill-opacity:1;fill-rule:nonzero;stroke:none"
         id="path232" /><path
         d="m 76.1602,154.563 c 0,-10.969 8.5312,-19.856 18.9375,-19.856 10.4143,0 18.8323,8.887 18.8323,19.856 v 25.664 H 76.1602 v -25.664"
         style="fill:#ffffff;fill-opacity:1;fill-rule:nonzero;stroke:none"
         id="path234" /><path
         d="m 90.6797,157.023 c 0,-2.578 1.9609,-4.668 4.375,-4.668 2.4062,0 4.3555,2.09 4.3555,4.668 v 6.004 h -8.7305 v -6.004"
         style="fill:#efee0e;fill-opacity:1;fill-rule:nonzero;stroke:none"
         id="path236" /><path
         d="m 110.703,163.027 h -8.73 v -6.004 c 0,-2.578 1.949,-4.668 4.355,-4.668 2.399,0 4.375,2.09 4.375,4.668 z m -31.328,-6.004 c 0,-2.578 1.9688,-4.668 4.3867,-4.668 2.3946,0 4.3555,2.09 4.3555,4.668 v 6.004 H 79.375 Z m 11.3047,-13.988 c 0,-2.566 1.9609,-4.656 4.375,-4.656 2.4062,0 4.3555,2.09 4.3555,4.656 v 6.02 h -8.7305 z m 0,13.988 c 0,-2.578 1.9609,-4.668 4.375,-4.668 2.4062,0 4.3555,2.09 4.3555,4.668 v 6.004 h -8.7305 z m 0,19.981 h 8.7305 v -6.016 c 0,-2.582 -1.9493,-4.66 -4.3555,-4.66 -2.4141,0 -4.375,2.078 -4.375,4.66 v 6.016"
         style="fill:#2a3c93;fill-opacity:1;fill-rule:nonzero;stroke:none"
         id="path238" /><path
         d="m 104.266,156.563 -0.813,-0.809 0.813,-0.813 0.816,0.813 -0.816,0.809 m 4.136,0 -0.808,-0.809 0.808,-0.813 0.832,0.813 -0.832,0.809 m -4.136,3.781 0.816,0.808 -0.816,0.813 -0.813,-0.813 0.813,-0.808 m 4.136,0 0.832,0.808 -0.832,0.813 -0.808,-0.813 0.808,-0.808 m -2.07,-2.707 0.813,0.82 -0.813,0.813 -0.809,-0.813 0.809,-0.82 M 85.8086,156.563 85,155.754 l 0.8086,-0.813 0.8359,0.813 -0.8359,0.809 m -4.1406,0 -0.8242,-0.809 0.8242,-0.813 0.8086,0.813 -0.8086,0.809 m 4.1406,3.781 0.8359,0.808 -0.8359,0.813 -0.8086,-0.813 0.8086,-0.808 m -4.1406,0 0.8086,0.808 -0.8086,0.813 -0.8242,-0.813 0.8242,-0.808 m 2.082,-2.707 0.8047,0.82 -0.8047,0.813 -0.8242,-0.813 0.8242,-0.82 m 13.3555,-15.047 -0.8047,-0.813 0.8047,-0.808 0.8203,0.808 -0.8203,0.813 m -4.1367,0 -0.8204,-0.813 0.8204,-0.808 0.8046,0.808 -0.8046,0.813 m 4.1367,3.789 0.8203,0.801 -0.8203,0.808 -0.8047,-0.808 0.8047,-0.801 m -4.1367,0 0.8046,0.801 -0.8046,0.808 -0.8204,-0.808 0.8204,-0.801 m 2.0703,-2.719 0.8164,0.813 -0.8164,0.82 -0.8164,-0.82 0.8164,-0.813 m 2.0664,12.903 -0.8047,-0.809 0.8047,-0.813 0.8203,0.813 -0.8203,0.809 m -4.1367,0 -0.8204,-0.809 0.8204,-0.813 0.8046,0.813 -0.8046,0.809 m 4.1367,3.781 0.8203,0.808 -0.8203,0.813 -0.8047,-0.813 0.8047,-0.808 m -4.1367,0 0.8046,0.808 -0.8046,0.813 -0.8204,-0.813 0.8204,-0.808 m 2.0703,-2.707 0.8164,0.82 -0.8164,0.813 -0.8164,-0.813 0.8164,-0.82 m 2.0664,12.89 -0.8047,-0.808 0.8047,-0.821 0.8203,0.821 -0.8203,0.808 m -4.1367,0 -0.8204,-0.808 0.8204,-0.821 0.8046,0.821 -0.8046,0.808 m 4.1367,3.789 0.8203,0.821 -0.8203,0.808 -0.8047,-0.808 0.8047,-0.821 m -4.1367,0 0.8046,0.821 -0.8046,0.808 -0.8204,-0.808 0.8204,-0.821 m 2.0703,-2.714 -0.8164,0.82 0.8164,0.82 0.8164,-0.82 -0.8164,-0.82"
         style="fill:#ffffff;fill-opacity:1;fill-rule:nonzero;stroke:none"
         id="path240" /></g></g></svg>
