<?xml version="1.0" encoding="UTF-8" standalone="no"?>
<svg
   xmlns:dc="http://purl.org/dc/elements/1.1/"
   xmlns:cc="http://creativecommons.org/ns#"
   xmlns:rdf="http://www.w3.org/1999/02/22-rdf-syntax-ns#"
   xmlns:svg="http://www.w3.org/2000/svg"
   xmlns="http://www.w3.org/2000/svg"
   version="1.1"
   id="svg2"
   xml:space="preserve"
   width="42.666668"
   height="42.666668"
   viewBox="0 0 42.666668 42.666668"><metadata
     id="metadata8"><rdf:RDF><cc:Work
         rdf:about=""><dc:format>image/svg+xml</dc:format><dc:type
           rdf:resource="http://purl.org/dc/dcmitype/StillImage" /></cc:Work></rdf:RDF></metadata><defs
     id="defs6" /><g
     id="g10"
     transform="matrix(1.3333333,0,0,-1.3333333,0,42.666667)"><g
       id="g12"
       transform="scale(0.1)"><path
         d="M 159.988,-0.0117188 C 248.129,-0.0117188 320,71.8633 320,160 320,248.117 248.129,320.012 159.988,320.012 71.8516,320.012 0,248.117 0,160 0,71.8633 71.8516,-0.0117188 159.988,-0.0117188"
         style="fill:#5cb0da;fill-opacity:1;fill-rule:evenodd;stroke:none"
         id="path14" /><path
         d="m 139.613,74.332 c 47.18,0 85.641,38.484 85.641,85.668 0,47.16 -38.461,85.648 -85.641,85.648 -47.1872,0 -85.6482,-38.488 -85.6482,-85.648 0,-47.184 38.461,-85.668 85.6482,-85.668"
         style="fill:#f9de05;fill-opacity:1;fill-rule:evenodd;stroke:none"
         id="path16" /></g></g></svg>
