<?xml version="1.0" encoding="UTF-8" standalone="no"?>
<svg
   xmlns:dc="http://purl.org/dc/elements/1.1/"
   xmlns:cc="http://creativecommons.org/ns#"
   xmlns:rdf="http://www.w3.org/1999/02/22-rdf-syntax-ns#"
   xmlns:svg="http://www.w3.org/2000/svg"
   xmlns="http://www.w3.org/2000/svg"
   version="1.1"
   id="svg2"
   xml:space="preserve"
   width="42.666668"
   height="42.666668"
   viewBox="0 0 42.666668 42.666668"><metadata
     id="metadata8"><rdf:RDF><cc:Work
         rdf:about=""><dc:format>image/svg+xml</dc:format><dc:type
           rdf:resource="http://purl.org/dc/dcmitype/StillImage" /></cc:Work></rdf:RDF></metadata><defs
     id="defs6" /><g
     id="g10"
     transform="matrix(1.3333333,0,0,-1.3333333,0,42.666667)"><g
       id="g12"
       transform="scale(0.1)"><path
         d="M 160.004,0 C 248.109,0 320,71.8633 320,160 320,248.109 248.109,320 160.004,320 71.8711,320 0,248.109 0,160 0,71.8633 71.8711,0 160.004,0"
         style="fill:#ffffff;fill-opacity:1;fill-rule:evenodd;stroke:none"
         id="path14" /><path
         d="m 160.004,320 c -38.102,0 -73.129,-13.434 -100.6446,-35.762 14.2812,-4.586 28.664,-8.785 42.9496,-13.215 l 0.179,-0.585 c -14.7107,-4.489 -29.4021,-9.004 -44.1208,-13.524 14.6289,-4.488 29.3437,-8.918 44.0308,-13.5 l 0.09,-0.5 C 87.7773,238.316 73.0859,234 58.3672,229.418 c 14.9648,-4.672 30.082,-9.031 44.9338,-13.859 -14.8518,-4.493 -29.719,-8.922 -44.5744,-13.684 14.7851,-4.895 29.8789,-8.988 44.6604,-13.84 -15.0276,-4.398 -29.9651,-9.004 -44.93,-13.656 14.9649,-4.766 29.9922,-9.035 44.93,-13.863 -15.0979,-4.422 -30.1448,-9.164 -45.18,-13.68 15.0352,-4.582 30.0821,-8.984 45.023,-13.84 -15.0308,-4.488 -29.9878,-9.168 -45.023,-13.683 15.0352,-4.583 30.1524,-9.075 45.094,-13.836 C 88.4492,101.051 73.582,96.3789 58.6367,91.9766 72.9258,87.0547 87.9336,82.9648 102.488,78.2891 l -0.09,-0.5821 C 87.7109,73.1953 72.9258,68.6992 58.207,64.2695 73.2422,59.7813 88.2891,55.1094 103.301,50.5938 88.3398,45.8516 73.2422,41.2031 58.0977,36.7969 85.8203,13.8398 121.34,0 160.004,0 248.109,0 320,71.8633 320,160 c 0,88.109 -71.891,160 -159.996,160"
         style="fill:#8a163a;fill-opacity:1;fill-rule:nonzero;stroke:none"
         id="path16" /></g></g></svg>
