<?xml version="1.0" encoding="UTF-8" standalone="no"?>
<svg
   xmlns:dc="http://purl.org/dc/elements/1.1/"
   xmlns:cc="http://creativecommons.org/ns#"
   xmlns:rdf="http://www.w3.org/1999/02/22-rdf-syntax-ns#"
   xmlns:svg="http://www.w3.org/2000/svg"
   xmlns="http://www.w3.org/2000/svg"
   version="1.1"
   id="svg2"
   xml:space="preserve"
   width="42.666668"
   height="42.666668"
   viewBox="0 0 42.666668 42.666668"><metadata
     id="metadata8"><rdf:RDF><cc:Work
         rdf:about=""><dc:format>image/svg+xml</dc:format><dc:type
           rdf:resource="http://purl.org/dc/dcmitype/StillImage" /></cc:Work></rdf:RDF></metadata><defs
     id="defs6" /><g
     id="g10"
     transform="matrix(1.3333333,0,0,-1.3333333,0,42.666667)"><g
       id="g12"
       transform="scale(0.1)"><path
         d="M 105.664,9.47656 V 310.512 c 16.965,6.129 35.266,9.484 54.348,9.484 19.074,0 37.379,-3.355 54.347,-9.484 V 9.47656 c -16.968,-6.1289 -35.273,-9.47265375 -54.347,-9.47265375 -19.082,0 -37.383,3.34375375 -54.348,9.47265375"
         style="fill:#ffffff;fill-opacity:1;fill-rule:evenodd;stroke:none"
         id="path14" /><path
         d="M 105.664,310.512 V 9.48047 C 44.0664,31.7344 0.0117188,90.7305 0.0117188,160 c 0,69.258 44.0546812,128.262 105.6522812,150.512"
         style="fill:#2b368b;fill-opacity:1;fill-rule:evenodd;stroke:none"
         id="path16" /><path
         d="M 214.359,9.48047 V 310.512 C 275.961,288.262 320.012,229.258 320.012,160 320.012,90.7305 275.961,31.7344 214.359,9.48047"
         style="fill:#ec1e37;fill-opacity:1;fill-rule:evenodd;stroke:none"
         id="path18" /></g></g></svg>
