<?xml version="1.0" encoding="UTF-8" standalone="no"?>
<svg
   xmlns:dc="http://purl.org/dc/elements/1.1/"
   xmlns:cc="http://creativecommons.org/ns#"
   xmlns:rdf="http://www.w3.org/1999/02/22-rdf-syntax-ns#"
   xmlns:svg="http://www.w3.org/2000/svg"
   xmlns="http://www.w3.org/2000/svg"
   version="1.1"
   id="svg2"
   xml:space="preserve"
   width="42.666668"
   height="42.666668"
   viewBox="0 0 42.666668 42.666668"><metadata
     id="metadata8"><rdf:RDF><cc:Work
         rdf:about=""><dc:format>image/svg+xml</dc:format><dc:type
           rdf:resource="http://purl.org/dc/dcmitype/StillImage" /></cc:Work></rdf:RDF></metadata><defs
     id="defs6" /><g
     id="g10"
     transform="matrix(1.3333333,0,0,-1.3333333,0,42.666667)"><g
       id="g12"
       transform="scale(0.1)"><path
         d="M 105.668,9.33594 V 310.363 c 16.961,6.102 35.266,9.492 54.336,9.492 19.105,0 37.387,-3.39 54.328,-9.492 V 9.33594 c -16.941,-6.11328 -35.223,-9.480471 -54.328,-9.480471 -19.07,0 -37.375,3.367191 -54.336,9.480471"
         style="fill:#f7cf0d;fill-opacity:1;fill-rule:evenodd;stroke:none"
         id="path14" /><path
         d="M 105.668,310.363 V 9.33594 C 44.0586,31.582 0,90.5664 0,159.855 c 0,69.247 44.0586,128.25 105.668,150.508"
         style="fill:#273679;fill-opacity:1;fill-rule:evenodd;stroke:none"
         id="path16" /><path
         d="M 214.379,9.33594 V 310.363 C 275.961,288.105 320,229.102 320,159.855 320,90.5664 275.961,31.582 214.379,9.33594"
         style="fill:#d01e27;fill-opacity:1;fill-rule:evenodd;stroke:none"
         id="path18" /></g></g></svg>
