<?xml version="1.0" encoding="UTF-8" standalone="no"?>
<svg
   xmlns:dc="http://purl.org/dc/elements/1.1/"
   xmlns:cc="http://creativecommons.org/ns#"
   xmlns:rdf="http://www.w3.org/1999/02/22-rdf-syntax-ns#"
   xmlns:svg="http://www.w3.org/2000/svg"
   xmlns="http://www.w3.org/2000/svg"
   version="1.1"
   id="svg2"
   xml:space="preserve"
   width="42.666668"
   height="42.666668"
   viewBox="0 0 42.666668 42.666668"><metadata
     id="metadata8"><rdf:RDF><cc:Work
         rdf:about=""><dc:format>image/svg+xml</dc:format><dc:type
           rdf:resource="http://purl.org/dc/dcmitype/StillImage" /></cc:Work></rdf:RDF></metadata><defs
     id="defs6" /><g
     id="g10"
     transform="matrix(1.3333333,0,0,-1.3333333,0,42.666667)"><g
       id="g12"
       transform="scale(0.1)"><path
         d="M 310.52,105.52 H 9.48047 C 3.34766,122.48 0,140.773 0,159.863 c 0,19.075 3.34766,37.364 9.48047,54.325 H 310.52 c 6.117,-16.961 9.48,-35.25 9.48,-54.325 0,-19.09 -3.363,-37.383 -9.48,-54.343"
         style="fill:#293f9d;fill-opacity:1;fill-rule:evenodd;stroke:none"
         id="path14" /><path
         d="M 310.508,214.188 H 9.49219 C 31.7266,275.793 90.7227,319.844 160.004,319.844 c 69.254,0 128.254,-44.051 150.504,-105.656"
         style="fill:#ffffff;fill-opacity:1;fill-rule:evenodd;stroke:none"
         id="path16" /><path
         d="M 9.49219,105.508 H 310.508 C 288.258,43.9141 229.258,-0.136719 160.004,-0.136719 90.7227,-0.136719 31.7266,43.9141 9.49219,105.508"
         style="fill:#d72624;fill-opacity:1;fill-rule:evenodd;stroke:none"
         id="path18" /></g></g></svg>
