<?xml version="1.0" encoding="UTF-8" standalone="no"?>
<svg
   xmlns:dc="http://purl.org/dc/elements/1.1/"
   xmlns:cc="http://creativecommons.org/ns#"
   xmlns:rdf="http://www.w3.org/1999/02/22-rdf-syntax-ns#"
   xmlns:svg="http://www.w3.org/2000/svg"
   xmlns="http://www.w3.org/2000/svg"
   version="1.1"
   id="svg2"
   xml:space="preserve"
   width="42.666668"
   height="42.666668"
   viewBox="0 0 42.666668 42.666668"><metadata
     id="metadata8"><rdf:RDF><cc:Work
         rdf:about=""><dc:format>image/svg+xml</dc:format><dc:type
           rdf:resource="http://purl.org/dc/dcmitype/StillImage" /></cc:Work></rdf:RDF></metadata><defs
     id="defs6" /><g
     id="g10"
     transform="matrix(1.3333333,0,0,-1.3333333,0,42.666667)"><g
       id="g12"
       transform="scale(0.1)"><path
         d="M 0,159.855 H 320 C 320,248.203 248.355,319.848 159.996,319.848 71.6133,319.848 0,248.203 0,159.855"
         style="fill:#48a2df;fill-opacity:1;fill-rule:evenodd;stroke:none"
         id="path14" /><path
         d="M 21.4141,79.8398 H 298.598 C 312.211,103.395 320,130.707 320,159.855 H 0 c 0,-29.148 7.79297,-56.46 21.4141,-80.0152"
         style="fill:#f5d107;fill-opacity:1;fill-rule:evenodd;stroke:none"
         id="path16" /><path
         d="M 21.4141,79.8398 C 49.0664,32.0391 100.738,-0.121094 159.914,-0.160156 h 0.18 C 219.27,-0.121094 270.934,32.0391 298.598,79.8398 H 21.4141"
         style="fill:#265d3a;fill-opacity:1;fill-rule:evenodd;stroke:none"
         id="path18" /><path
         d="m 225.113,277.152 c 0.754,-8.449 1.274,-16.988 1.492,-25.464 -3.871,0.566 -8.132,-1.004 -10.46,-4.211 -0.727,0.05 -1.282,0.539 -1.739,1.027 -5.195,5.969 -10.468,11.891 -15.664,17.859 6.348,-5.531 12.567,-11.175 18.957,-16.707 -3.711,7.692 -7.672,15.285 -11.383,22.938 4.747,-7.074 9.332,-14.239 14.118,-21.254 -1.5,8.16 -3.371,16.297 -4.836,24.469 2.746,-7.762 5.066,-15.774 8.011,-23.465 0.489,8.277 1.145,16.527 1.504,24.808"
         style="fill:#f5d107;fill-opacity:1;fill-rule:nonzero;stroke:none"
         id="path20" /><path
         d="m 234.934,276.164 c -1.692,-8.437 -3.293,-16.965 -5.317,-25.273 -0.914,0.496 -2.375,0.449 -2.734,1.64 2.828,7.813 5.383,15.715 8.051,23.633"
         style="fill:#f5d107;fill-opacity:1;fill-rule:nonzero;stroke:none"
         id="path22" /><path
         d="m 230.594,252.254 c 4.469,6.508 8.629,13.184 13.156,19.582 -3.613,-7.422 -7.453,-14.707 -11.035,-22.18 6.277,5.395 12.406,11.008 18.707,16.352 -5.395,-6.281 -11.016,-12.379 -16.449,-18.61 7.582,3.582 15.023,7.422 22.578,11.094 -6.539,-4.508 -13.305,-8.746 -19.883,-13.215 -0.496,-0.527 -1.293,-0.605 -1.949,-0.437 -0.836,2.519 -2.914,4.719 -5.442,5.613 -0.339,0.617 -0.25,1.414 0.317,1.801"
         style="fill:#f5d107;fill-opacity:1;fill-rule:nonzero;stroke:none"
         id="path24" /><path
         d="m 193.02,258.492 c 7.078,-3.351 14.07,-7.074 21.125,-10.476 0.675,-0.129 1.078,-0.618 1.316,-1.196 -2.141,-3.273 -2.789,-7.582 -1.188,-11.222 2.18,-5.832 9.516,-8.918 15.168,-6.438 4.907,1.762 8.09,7.145 7.352,12.328 8.687,-0.636 17.363,-1.066 26.02,-1.73 -8.329,-0.481 -16.637,-0.977 -24.926,-1.465 -0.039,-0.09 -0.09,-0.18 -0.141,-0.258 7.922,-2.656 15.863,-5.305 23.785,-8.039 -8.32,1.719 -16.59,3.481 -24.918,5.125 6.899,-4.816 14.039,-9.285 20.887,-14.051 -7.504,3.7 -15.035,7.563 -22.566,11.262 5.39,-6.367 11.093,-12.457 16.488,-18.824 -6.34,5.383 -12.379,11.094 -18.707,16.445 3.582,-7.609 7.519,-15.031 11.082,-22.637 -4.664,7.086 -9.274,14.192 -13.988,21.176 1.671,-8.347 3.343,-16.758 5.074,-25.086 -2.797,8.063 -5.442,16.153 -8.078,24.282 -0.848,-8.301 -1.016,-17.008 -1.832,-25.125 -0.469,8.328 -0.828,16.734 -1.524,25.042 -2.695,-7.96 -5.281,-15.96 -8.14,-23.859 1.652,8.277 3.484,16.477 5.078,24.785 -4.739,-6.906 -9.168,-14 -14.024,-20.816 3.801,7.473 7.555,14.984 11.336,22.461 -6.39,-5.473 -12.609,-11.098 -18.957,-16.578 5.375,6.316 11.125,12.418 16.528,18.773 -7.481,-3.57 -14.766,-7.422 -22.278,-10.953 6.887,4.715 13.961,9.152 20.863,13.832 -8.277,-1.633 -16.496,-3.406 -24.816,-4.898 7.961,2.687 15.961,5.207 23.871,7.992 -8.375,0.488 -16.734,1.074 -25.144,1.59 8.41,0.668 16.808,1.015 25.195,1.554 -7.918,2.825 -15.961,5.332 -23.922,8.11 8.281,-1.582 16.539,-3.352 24.777,-5.004 -6.863,4.703 -13.937,9.172 -20.796,13.898"
         style="fill:#f5d107;fill-opacity:1;fill-rule:nonzero;stroke:none"
         id="path26" /><path
         d="m 221.938,250.223 c 5.023,1.734 10.894,-1.012 12.996,-5.86 2.777,-5.89 -1.118,-13.523 -7.543,-14.726 -5.633,-1.403 -11.93,2.777 -12.758,8.566 -1.043,5.137 2.328,10.559 7.305,12.02"
         style="fill:#f5d107;fill-opacity:1;fill-rule:nonzero;stroke:none"
         id="path28" /><path
         d="m 236.027,244.313 c 8.438,1.933 17.004,3.433 25.465,5.246 -6.867,-2.469 -13.851,-4.629 -20.769,-6.965 -1.332,-0.41 -2.657,-1.164 -4.071,-0.899 0.141,0.938 -0.316,1.774 -0.625,2.618"
         style="fill:#f5d107;fill-opacity:1;fill-rule:nonzero;stroke:none"
         id="path30" /></g></g></svg>
