<?xml version="1.0" encoding="UTF-8" standalone="no"?>
<svg
   xmlns:dc="http://purl.org/dc/elements/1.1/"
   xmlns:cc="http://creativecommons.org/ns#"
   xmlns:rdf="http://www.w3.org/1999/02/22-rdf-syntax-ns#"
   xmlns:svg="http://www.w3.org/2000/svg"
   xmlns="http://www.w3.org/2000/svg"
   version="1.1"
   id="svg2"
   xml:space="preserve"
   width="42.666668"
   height="42.666668"
   viewBox="0 0 42.666668 42.666668"><metadata
     id="metadata8"><rdf:RDF><cc:Work
         rdf:about=""><dc:format>image/svg+xml</dc:format><dc:type
           rdf:resource="http://purl.org/dc/dcmitype/StillImage" /></cc:Work></rdf:RDF></metadata><defs
     id="defs6" /><g
     id="g10"
     transform="matrix(1.3333333,0,0,-1.3333333,0,42.666667)"><g
       id="g12"
       transform="scale(0.1)"><path
         d="M 159.988,-0.152344 C 248.125,-0.152344 320,71.7109 320,159.828 320,247.973 248.125,319.84 159.988,319.84 71.8516,319.84 0,247.973 0,159.828 0,71.7109 71.8516,-0.152344 159.988,-0.152344"
         style="fill:#206a33;fill-opacity:1;fill-rule:evenodd;stroke:none"
         id="path14" /><path
         d="m 208.402,77.6719 c 0.004,0 0.008,-0.0039 0.012,0 4.473,-0.2188 8.672,-0.043 13.141,-0.2617 0.711,-0.6016 0.355,-1.9805 -0.106,-2.2344 -0.019,-0.0117 -0.054,-0.0235 -0.078,-0.0313 -0.016,-0.0039 -0.043,0 -0.058,0 -0.016,0 -0.047,-0.0039 -0.063,0 -1.453,0.0391 -2.293,0.0743 -3.746,0.1094 -0.004,0.0703 -0.012,0.1484 -0.031,0.2149 -0.344,1.0195 -2.84,0.9531 -3.426,0.1523 -0.008,-0.0117 -0.024,-0.0352 -0.031,-0.0469 -0.008,-0.0156 -0.024,-0.0469 -0.032,-0.0625 -0.007,-0.0195 -0.023,-0.0547 -0.031,-0.0742 -0.008,-0.0312 -0.012,-0.0781 -0.015,-0.1094 -0.004,-0.0351 -0.016,-0.082 -0.016,-0.1211 -1.961,-0.2343 -3.727,0.0664 -5.688,0.1368 -0.578,0.7187 -0.507,2.0156 0.168,2.3281 z m -2.082,11.0586 c -0.004,-0.0039 -0.011,-0.0117 -0.015,-0.0157 -2.903,-0.746 -2.813,-3.7578 -0.95,-5.0781 -30.636,0 -77.656,0.5196 -87.738,0.5196 -5.644,0 -23.492,0.6718 -23.8318,0.6718 3.8242,-5.5976 9.3708,-6.7383 16.6248,-6.8515 13.61,0 76.664,0.1679 94.61,0.1679 -1.278,-2.2656 0.117,-5.9101 1.117,-6.5781 0.019,-0.0117 0.054,-0.0351 0.078,-0.0469 0.035,-0.0156 0.086,-0.0351 0.121,-0.0429 0.012,-0.0039 0.035,0 0.047,0 1.187,-0.2813 1.711,0.5781 2.109,1.207 1.926,-0.1719 12.774,-0.3281 13.766,0.0156 0.004,0 0.012,0.0117 0.015,0.0156 0.672,-0.9882 1.34,-1.9218 2.618,-1.7617 2.238,0.4805 3.996,0.7266 4.054,5.2657 0,0 -0.23,7.7343 -5.308,7.25 -1.203,-0.1836 -4.574,-0.5235 -4.574,-0.5235 -3.903,0.4649 -6.766,0.5156 -11.153,0.6758 0.406,0.5117 1.121,2.5937 0.246,3.3477 -0.23,0.1914 -0.57,0.2968 -1.043,0.2617 h -0.011 c -0.008,0 -0.028,0 -0.032,0 -0.004,0 -0.011,0.0117 -0.015,0.0156 -0.012,0.0039 -0.035,0.0078 -0.047,0.0156 -0.024,0.0156 -0.055,0.0508 -0.074,0.0742 -0.008,0.0079 -0.028,0.0235 -0.032,0.0313 -0.222,0.3242 -0.343,1.1172 -0.492,1.3164 0,0 -0.012,0.0117 -0.012,0.0156 -0.003,0 -0.015,0.0117 -0.015,0.0156 -0.008,0.004 -0.028,0.0118 -0.031,0.0157 -0.004,0 -0.016,0 -0.016,0 -0.004,-0.0039 -0.016,0 -0.016,0 z m 26.207,53.0585 c -0.363,-0.012 -0.746,-0.059 -1.3,-0.105 -0.598,-0.129 -0.809,-0.391 -0.918,-1.118 0.043,-1.101 0.718,-1.046 1.41,-1.484 0.398,-0.508 0.66,-0.969 -0.031,-1.805 -0.657,-0.597 -1.122,-0.929 -1.778,-1.531 -0.305,-0.523 -0.5,-1.336 0.445,-1.59 1.747,-0.488 5.782,2.133 5.782,2.188 0.656,0.492 0.437,1.422 0.383,1.422 -0.379,0.437 -1.243,0.175 -1.821,0.246 -0.273,0 -1.179,0.133 -0.75,0.933 0.36,0.496 0.492,0.793 0.735,1.407 0.273,0.601 0.035,1.003 -0.95,1.332 -0.496,0.089 -0.843,0.117 -1.207,0.105 z m -62.73,2.344 c -0.215,0.008 -0.445,-0.024 -0.676,-0.141 -0.047,0 -2.058,-1.359 -2.707,-2.308 -0.394,-0.301 -0.351,-0.563 -0.23,-1.086 0.308,-0.711 0.851,-0.489 1.468,-0.153 0.821,0.11 1.215,-0.425 1.149,-1.41 -0.379,-1.222 0.168,-1.68 0.168,-1.758 0,-0.078 0.789,-0.754 1.715,-0.214 1.953,0.746 3.168,1.472 5.902,2.066 0.719,0.016 0.676,1.934 -0.457,2.004 -1.484,-0.074 -2.848,-0.153 -4.328,-1.317 -0.914,-0.211 -1.071,0.344 -1.274,0.84 -0.23,1.235 0.524,2.106 0.368,3.032 0.043,-0.043 -0.457,0.41 -1.098,0.445 z m -97.9806,6.012 c -0.1211,0 -0.3633,-0.368 -0.6875,-0.778 -2.875,-4.582 -3.1289,-11.422 -1.543,-13.461 0.8438,-0.965 2.2344,-1.39 3.2579,-1.086 1.8046,0.782 2.6015,4.442 2.1718,5.782 -0.6015,0.945 -1.082,1.093 -1.6836,0.289 -1.2695,-2.582 -1.8007,-0.817 -1.9101,0.629 -0.1953,2.734 0.0703,5.253 0.3672,7.25 0.1562,1.023 0.1523,1.378 0.0273,1.375 z m 76.3316,3.32 c 0.059,0.004 0.11,0 0.168,0 0.012,0 0.024,0 0.032,0 1.949,-0.527 4.82,-0.582 7.312,-0.84 2.031,-0.129 3.035,-1.719 1.133,-2.387 -1.875,-0.64 -3.68,-1.144 -3.688,-3.855 0.247,-1.34 0.196,-2.047 -0.015,-2.371 -0.016,-0.024 -0.043,-0.055 -0.059,-0.074 -0.004,-0.004 -0.015,-0.016 -0.015,-0.016 -0.004,-0.004 -0.012,-0.016 -0.016,-0.016 -0.004,-0.004 -0.016,-0.011 -0.016,-0.015 l -0.015,-0.016 c -0.004,-0.004 -0.028,-0.012 -0.031,-0.016 -0.028,-0.015 -0.063,-0.035 -0.09,-0.046 -0.028,-0.008 -0.067,-0.008 -0.094,-0.012 -0.445,-0.067 -1.094,0.355 -1.574,0.609 -1.157,0.832 -4.403,2.844 -4.867,7.16 -0.063,0.973 0.664,1.813 1.835,1.895 z m -31.25,4.269 c -0.757,-0.054 -1.437,-0.461 -1.132,-1.531 -0.043,-0.777 2.148,-1.719 2.281,-3.515 0.312,-0.743 -0.469,-3.118 0.183,-3.336 0.598,-0.247 1.43,1.64 1.743,3.394 0.175,0.961 -0.75,4.324 -2.325,4.926 -0.242,0.051 -0.496,0.078 -0.75,0.062 z m 104.415,4.711 c -0.86,-0.105 -1.676,-0.918 -1.301,-2.218 -0.235,-0.762 1.168,-3.43 1.527,-4.848 0.328,-1.008 -0.418,-3.863 0.262,-4.16 0.629,-0.336 2.277,1.691 2.219,4.234 0.179,1.309 -0.465,6.129 -2.11,6.945 -0.191,0.055 -0.398,0.071 -0.597,0.047 z m -122.9419,1.922 c 0.4727,-0.004 0.9727,-0.238 1.2383,-0.902 0.2383,-0.606 0.0117,-1.242 -0.2735,-1.559 -0.0039,-0.004 0,-0.011 0,-0.015 -0.0039,-0.008 -0.0117,-0.024 -0.0156,-0.032 -0.2031,-0.261 -0.914,-0.152 -1.4219,-0.152 -0.6132,0.027 -0.9179,0.129 -1.2851,0.629 -0.1758,0.555 0.3594,1.098 0.5937,1.512 0.0039,0.004 0.0157,0.011 0.0157,0.015 0.0273,0.039 0.0703,0.086 0.1093,0.121 0.1836,0.168 0.5,0.329 0.8399,0.368 0.0664,0.007 0.1328,0.015 0.1992,0.015 z m -15.6641,2.172 c -4.832,-0.086 -11.914,-6.336 -12.0976,-9.805 5.0976,2.45 10.1094,4.809 15.2969,7.344 -0.8399,1.25 -0.0508,2.375 -3.1993,2.461 z m 81.703,1.684 c 0.379,0.043 0.879,-0.086 1.36,-0.368 0.695,-0.402 1.125,-1.011 1.07,-1.453 0,-0.011 0.004,-0.035 0,-0.047 0,-0.007 -0.027,-0.031 -0.031,-0.042 -0.004,-0.012 -0.008,-0.036 -0.012,-0.047 -0.004,-0.008 -0.016,-0.024 -0.016,-0.032 -0.004,-0.007 -0.011,-0.023 -0.015,-0.031 -0.024,-0.035 -0.063,-0.074 -0.094,-0.105 -0.332,-0.313 -1.106,-0.27 -1.836,0.152 -0.688,0.398 -1.117,1.012 -1.07,1.453 0.004,0.012 0.011,0.035 0.015,0.047 0.012,0.055 0.035,0.105 0.063,0.152 0.008,0.016 0.015,0.047 0.027,0.063 0.004,0 0.016,0.012 0.016,0.015 0.023,0.024 0.054,0.055 0.078,0.075 0.109,0.086 0.269,0.148 0.445,0.168 z m 58.719,0.984 c -0.051,0.008 -0.109,0.008 -0.168,-0.016 0,0 -9.332,-6.636 -9.563,-6.867 -0.925,-0.824 -0.46,-3.715 0,-3.383 0.668,-0.253 10.063,6.11 9.883,6.856 0.41,-0.024 0.606,3.273 -0.152,3.41 z m -67.535,2.77 c -0.364,-0.063 -0.715,-0.364 -0.844,-0.86 -0.078,-0.32 0.156,-0.859 -0.137,-1.023 -0.168,-0.168 -0.82,-0.071 -0.797,0.828 0,0.285 -0.207,0.598 -0.336,0.777 -0.125,0.086 -0.195,0.11 -0.425,0.11 -0.282,-0.012 -0.289,-0.086 -0.446,-0.321 -0.062,-0.242 -0.152,-0.48 -0.152,-0.75 -0.035,-0.32 -0.148,-0.429 -0.383,-0.476 -0.261,0 -0.199,-0.028 -0.414,0.109 -0.125,0.137 -0.289,0.192 -0.289,0.426 0,0.246 -0.051,0.637 -0.121,0.797 -0.113,0.148 -0.305,0.207 -0.508,0.261 -1.097,-0.003 -1.164,-1.253 -1.101,-1.73 -0.082,-0.09 -0.137,-2.344 1.363,-2.969 2.012,-0.957 6.812,-0.394 5.644,2.707 0,0.289 -0.078,1.254 -0.109,1.516 -0.203,0.48 -0.582,0.66 -0.945,0.598 z m -16.735,2.628 c -0.027,-0.007 -0.054,-0.031 -0.078,-0.042 -0.011,-0.008 -0.035,-0.024 -0.047,-0.032 -0.195,-0.148 -0.425,-0.488 -0.949,-0.855 -0.875,-0.996 -1.031,-1.692 -0.976,-3.688 0.05,-0.211 1.664,-4.695 3.027,-7.847 0.922,-3.278 1.773,-7.028 1.148,-10.571 -2.156,-4.683 -6.492,-8.882 -10.675,-11.168 -2.133,-0.679 -3.973,-0.449 -4.469,0.016 -0.004,0.004 -0.012,0.012 -0.016,0.016 -1.222,0.824 -1.25,2.289 -1.176,2.539 0,0.004 0,0.015 0,0.015 0.004,0.004 0.012,0.016 0.016,0.016 3.531,2.461 7.563,4.449 10.723,11.09 0.929,2.539 1.215,4.062 0.289,7.984 -0.36,1.461 -0.809,2.664 -1.805,3.703 0.004,0.004 0.012,0.012 0.016,0.016 0.601,0.289 2.16,-0.863 2.402,-0.141 -0.371,1.875 -1.637,4.391 -3.074,5.676 -1.258,1.145 -2.629,1.277 -3.777,0.231 -1.301,-0.723 -1.575,-3.313 -0.95,-5.583 0.692,-1.707 2.567,-2.007 3.899,-5.445 0,-0.004 0,-0.015 0,-0.015 0.027,-0.215 0.461,-2.567 -0.211,-3.52 -0.547,-1.699 -7.551,-7.223 -8.047,-7.555 -0.008,-0.007 -0.043,-0.027 -0.047,-0.031 -0.004,-0.004 -0.012,-0.016 -0.016,-0.016 0,0 -0.011,-0.011 -0.015,-0.015 l -0.016,-0.016 c 0,0 -0.012,0 -0.015,0 0,0 -0.012,0 -0.016,0 0,0.004 -0.012,0.012 -0.016,0.016 v 0.015 c 0,0.004 -0.011,0.024 -0.011,0.032 -0.024,0.136 0.015,0.488 0,1.054 -0.047,1.036 0.378,3.375 0.347,3.778 0,0.004 0,0.015 0,0.015 0,0.004 -0.011,0.012 -0.011,0.016 0,0 0,0.012 0,0.016 -0.004,0 -0.016,0 -0.016,0 -2.317,-1.496 -3.082,-6.079 -3.504,-7.434 -5.863,-4.051 -12.52,-7.066 -16.352,-11.168 -1.996,-3.117 13.758,3.582 15.586,4.391 0.016,-0.012 0.032,-0.032 0.047,-0.047 0.348,-0.383 0.379,-1.719 1.422,-2.922 1.637,-2.219 5.117,-3.582 8.508,-2.738 5.676,2.054 8.949,5.925 12.281,10.218 0.477,0.696 1.223,1.239 1.91,0.704 2.289,-5.125 8.891,-8.77 17.426,-9.149 1.973,2.402 1.027,3.582 0.231,4.086 -0.25,0.164 -4.247,1.723 -4.868,3.273 -0.39,1.446 0.563,2.723 2.465,3.688 5.477,0.66 10.864,1.398 16.074,3.074 0.055,1.75 1.086,4.367 1.778,5.508 0.476,0.789 0.785,0.867 0.902,0.977 0.004,0.003 0.012,0.011 0.016,0.015 0,0.004 0.011,0.016 0.011,0.016 0.004,0.004 0.016,0.012 0.016,0.015 0,0.004 0,0.028 0,0.032 0.004,0.035 0,0.093 -0.016,0.152 l -0.886,0.52 -17.485,0.078 c -0.214,0.082 -0.375,0.164 -0.472,0.242 -0.008,0.008 -0.024,0.027 -0.032,0.031 -0.003,0.004 -0.011,0.012 -0.015,0.016 0,0.004 -0.012,0.011 -0.016,0.015 0,0.004 -0.011,0.028 -0.015,0.032 0,0 -0.012,0.011 -0.012,0.015 0,0 0,0.012 0,0.016 -0.004,0 -0.016,0.012 -0.016,0.015 v 0.012 c 0,0.004 0,0.016 0,0.016 0,0.004 0,0.015 0,0.015 0,0.004 0,0.016 0,0.016 0,0 0,0.012 0,0.016 0,0.004 0,0.015 0,0.015 v 0.016 0.016 c 0,0.003 0.012,0.011 0.016,0.015 0.004,0.008 0.008,0.024 0.012,0.031 0.086,0.114 0.293,0.223 0.55,0.321 4.176,0.566 11.594,1.785 12.086,8.918 -0.078,3.715 -1.59,6.148 -6.148,6.824 -3.352,-0.262 -5.738,-3.5 -5.356,-7.07 -0.16,-0.961 0.329,-2.844 -0.656,-3.059 -6.426,-0.586 -13.441,-4.613 -13.676,-7.496 h -0.015 c 0,0 -0.012,-0.012 -0.016,-0.016 -0.004,0 -0.023,-0.007 -0.031,-0.011 -0.004,0 -0.024,-0.004 -0.027,0 -0.012,-0.004 -0.04,-0.016 -0.047,-0.02 -0.004,0 -0.012,0 -0.016,0 -0.008,0 -0.023,0 -0.031,0 -0.004,0 -0.012,0 -0.016,0 -0.008,0 -0.023,0 -0.031,0 -0.016,0.008 -0.047,0.016 -0.059,0.02 -0.418,0.113 -0.957,0.804 -0.875,1.773 -0.242,4.981 -1.863,10.617 -4.402,14.957 -0.906,0.906 -1.301,1.274 -1.563,1.316 -0.007,0 -0.019,0 -0.031,0 -0.008,0 -0.031,0 -0.043,0 -0.004,0 -0.015,0 -0.015,0 -0.004,0 -0.016,0 -0.016,0 -0.004,0 -0.016,0 -0.016,0 z m 79.11,6.594 c -0.989,0.047 -2.039,-0.59 -2.309,-1.941 0.004,-0.797 0.36,-1.235 0.289,-1.957 -0.101,-0.414 -0.527,-0.688 -1.543,-0.199 0.157,0.144 -0.66,1.3 -0.66,1.3 -0.793,0.481 -1.848,-0.027 -2.535,-0.476 -0.383,-0.688 -0.66,-1.867 -0.231,-3.074 1.137,-2.102 5.036,-5.688 6.899,-5.719 0.035,1.89 0.219,4.414 0.32,5.98 0.043,0.59 0.184,1.242 0.75,1.391 0.567,0.148 1.547,-0.57 1.559,0.047 -0.102,1.203 -0.344,2.984 -1.024,3.824 -0.347,0.516 -0.921,0.797 -1.515,0.824 z m -95.574,0.446 c -0.247,0.023 -0.571,-0.067 -0.946,-0.293 -1.781,-0.961 -2.472,-3.821 -1.363,-5.493 1.035,-1.468 2.676,-0.929 2.891,-0.929 1.746,-0.219 2.785,3.273 2.785,3.273 0,0 0.051,0.981 -2.02,-0.875 -0.871,-0.164 -0.988,0.152 -1.207,0.645 -0.183,0.91 -0.144,1.828 0.274,2.738 0.195,0.543 0,0.891 -0.414,0.934 z m 67.609,0.671 c -0.363,-0.062 -0.715,-0.378 -0.84,-0.871 -0.078,-0.324 0.156,-0.847 -0.137,-1.011 -0.168,-0.168 -0.824,-0.071 -0.797,0.828 0,0.285 -0.21,0.597 -0.335,0.777 -0.129,0.086 -0.215,0.109 -0.446,0.109 -0.277,-0.011 -0.273,-0.085 -0.426,-0.32 -0.066,-0.242 -0.156,-0.476 -0.156,-0.75 -0.031,-0.32 -0.144,-0.43 -0.379,-0.476 -0.265,0 -0.218,-0.028 -0.429,0.109 -0.125,0.137 -0.278,0.191 -0.278,0.43 0,0.242 -0.062,0.632 -0.136,0.793 -0.11,0.148 -0.286,0.207 -0.489,0.261 -1.101,-0.004 -1.164,-1.254 -1.101,-1.73 -0.082,-0.09 -0.141,-2.344 1.359,-2.969 2.016,-0.957 5.805,-0.535 5.645,2.711 0,0.285 -0.079,1.25 -0.106,1.512 -0.207,0.48 -0.586,0.66 -0.949,0.597 z m -14.805,7.282 c 0.086,-0.383 0.172,-0.77 0.227,-1.164 0.195,-0.844 0.359,-1.688 0.539,-2.524 -0.746,1.024 -1.36,1.852 -1.625,2.145 -1.68,1.996 0.039,1.308 0.859,1.543 z m 64.274,1.59 c -0.942,0.035 -1.965,-0.68 -1.559,-2.079 -0.238,-0.765 2.008,-3.355 2.371,-4.773 0.324,-1.008 -0.5,-4.258 0.184,-4.559 0.625,-0.336 1.508,2.246 1.836,4.633 0.179,1.309 -0.789,5.899 -2.434,6.719 -0.125,0.035 -0.266,0.055 -0.398,0.059 z m -116.254,3.015 c 0.469,0.047 1.039,-0.387 1.316,-0.996 0.297,-0.648 0.149,-1.273 -0.336,-1.391 -0.484,-0.121 -1.113,0.313 -1.41,0.961 -0.297,0.653 -0.144,1.289 0.34,1.411 0.027,0.007 0.059,0.011 0.09,0.015 z m 62.668,2.203 c -1.032,0.028 -2.172,-0.621 -1.727,-1.914 -0.258,-0.703 2.215,-3.097 2.617,-4.406 0.715,-2.012 -0.55,-3.93 0.2,-4.203 0.683,-0.313 1.64,2.074 2,4.281 0.418,1.785 -0.856,5.441 -2.661,6.195 -0.136,0.032 -0.281,0.039 -0.425,0.047 z m -80.442,0.043 c -0.293,-0.035 -0.613,-0.203 -0.996,-0.289 -1.246,-0.398 -2.418,-1.476 -2.047,-3.578 1.477,-8.977 2.438,-15.824 3.914,-24.797 0.227,-1.051 -0.652,-2.437 -1.789,-2.297 -1.929,1.309 -2.41,3.953 -5.7067,3.84 -2.3828,-0.027 -5.1055,-2.625 -5.4453,-5.125 -0.3945,-1.984 -0.5391,-4.14 0,-5.871 1.6797,-2.016 3.6875,-1.801 5.4453,-1.348 1.4497,0.598 2.6407,2.024 3.1527,1.684 0.004,0 0.015,0.004 0.015,0 0,-0.004 0,-0.012 0,-0.016 0.317,-0.55 -0.027,-5.218 -6.8239,-8.824 -4.1719,-1.875 -7.4961,-2.324 -9.2852,1.086 -1.1055,2.129 0.082,10.242 -2.6445,8.367 -8.0625,-20.789 18.8946,-23.691 21.9066,-0.859 0.195,0.644 0.789,1.293 1.207,1.133 0.183,-0.078 0.351,-0.328 0.414,-0.793 -0.625,-20.676 -20.8557,-22.094 -24.2932,-15.59 -0.8516,1.535 -1.1055,4.945 -1.1915,6.992 -0.1562,1.234 -0.4687,1.949 -0.8281,2.231 -0.8164,0.617 -1.9179,-0.989 -2.1562,-3.778 -0.3399,-2.242 -0.2422,-2.859 -0.2422,-5.015 1.0781,-16.329 27.1092,-9.313 31.3402,4.175 2.093,6.973 -0.043,12.235 0.66,12.879 0.004,0.004 0.023,0.012 0.027,0.016 0.008,0.004 0.027,0.012 0.031,0.016 0.008,0.003 0.024,0.011 0.032,0.015 0.023,0.004 0.062,0.016 0.093,0.016 2.582,-2.785 6.211,-0.356 7.004,0.609 0.34,0.485 1.196,0.793 1.789,0.168 2.016,-1.445 5.551,-0.766 6.289,1.789 0.426,2.5 0.786,5.074 0.872,7.742 -1.313,-0.41 -2.375,-0.714 -2.801,-1.164 -0.102,-0.109 -0.176,-0.23 -0.199,-0.367 -0.114,-0.738 -0.223,-1.476 -0.336,-2.219 -0.012,-0.058 -0.032,-0.117 -0.063,-0.168 -0.055,-0.089 -0.144,-0.171 -0.242,-0.226 -0.465,-0.254 -1.274,-0.11 -1.317,0.566 -0.625,2.836 -3.195,3.207 -4.757,-1.195 -1.051,-0.852 -2.965,-1.016 -3.164,0.262 0.254,2.953 -0.938,3.347 -3.321,1.957 -0.765,5.847 -1.527,11.433 -2.293,17.285 0.993,0.027 1.903,-0.692 2.813,0.441 -0.985,3.063 -3.063,9.285 -4.238,9.867 -0.008,0.004 -0.02,0.012 -0.032,0.016 -0.05,0.063 -0.113,0.121 -0.168,0.168 -0.019,0.02 -0.054,0.047 -0.074,0.063 -0.023,0.015 -0.055,0.035 -0.078,0.046 -0.047,0.024 -0.105,0.047 -0.152,0.059 -0.106,0.031 -0.211,0.047 -0.321,0.031 z m -20.6364,0.031 c -0.5664,-0.066 -1.1016,-0.531 -1.3594,-1.144 -0.0937,-2.188 -0.1094,-4.367 0.1367,-6.383 0.9922,-3.527 1.3086,-6.633 1.7891,-10.246 0.1367,-4.844 -2.793,-2.094 -2.6602,0.305 0.6758,3.117 0.4922,8.027 -0.1054,9.269 -0.4766,1.246 -1.0313,1.551 -2.1875,1.348 -0.9219,0.055 -3.3008,-2.535 -3.9649,-6.824 0,0 -0.5507,-2.2 -0.7929,-4.16 -0.3282,-2.215 -1.793,-3.782 -2.8164,0.304 -0.8829,2.973 -1.4258,10.297 -2.9063,8.582 -0.4219,-5.715 -0.9258,-15.777 3.9336,-16.808 5.875,-0.567 2.6289,9.933 4.7539,11.84 0.4024,0.941 1.1484,0.957 1.2109,-0.231 v -8.918 c -0.0546,-2.898 1.8516,-3.762 3.3321,-4.359 1.5429,0.117 2.5625,0.078 3.1679,-1.422 0.2422,-5.141 0.4922,-10.297 0.7344,-15.438 0,0 3.5625,-1.019 3.7305,8.676 0.1719,5.692 -1.1328,10.473 -0.3633,11.578 0.0234,1.09 1.4219,1.145 2.3828,0.614 1.5391,-1.086 2.2188,-2.418 4.6055,-1.883 3.6333,1 5.8203,2.765 5.8753,5.554 -0.211,2.649 -0.52,5.301 -1.668,7.954 0.16,0.484 -0.696,1.734 -0.535,2.218 0.652,-1.023 1.64,-0.937 1.867,0 -0.621,2.035 -1.582,3.989 -3.137,4.832 -1.2851,1.133 -3.1679,0.895 -3.8554,-1.468 -0.3203,-2.719 0.9882,-5.946 2.9687,-8.582 0.4219,-1.028 1.0078,-2.743 0.75,-4.282 -1.0547,-0.601 -2.1015,-0.351 -2.9844,0.582 0,0 -2.8906,2.164 -2.8906,2.645 0.7656,4.914 0.1641,5.476 -0.2617,6.84 -0.2969,1.879 -1.1875,2.476 -1.9102,3.761 -0.7226,0.766 -1.7031,0.766 -2.1718,0 -1.2774,-2.214 -0.6797,-6.972 0.2422,-9.101 0.6679,-1.957 1.6914,-3.184 1.2109,-3.184 -0.3984,-1.105 -1.2227,-0.847 -1.8203,0.43 -0.8516,2.641 -1.0274,6.578 -1.0274,8.351 -0.2539,2.2 -0.539,6.903 -1.9882,8.094 -0.3868,0.524 -0.8399,0.707 -1.2852,0.656 z m 109.3864,0.418 c -0.199,-0.019 -0.445,-0.332 -0.824,-1.132 -0.906,-1.489 -1.523,-4.078 -1.453,-6.5 1.965,-13.618 2.57,-25.532 3.855,-39.145 0.106,-1.316 -0.089,-3.23 -0.964,-3.992 -3.239,-3.383 -7.907,-7.551 -12.989,-9.469 -0.547,-0.613 1.36,-3.23 3.825,-3.226 4.125,0.476 7.746,2.789 11.109,8.886 0.894,1.418 2.476,4.461 2.523,6.821 0.313,13.828 -0.699,24.578 -2.769,34.57 -0.133,0.973 -0.043,2.125 0.121,2.418 0.266,0.316 1.172,-0.008 1.652,0.781 0.703,0.719 -1.883,6.684 -3.347,8.977 -0.297,0.578 -0.477,1.035 -0.739,1.011 z m -70.605,0.032 c -0.699,-0.039 -1.313,-0.239 -1.836,-0.508 -1.336,-1.277 -1.649,-3.324 -0.598,-4.602 1.024,-0.484 2.043,-1.515 1.36,-2.082 -2.891,-3.09 -10.418,-8.25 -10.797,-9.191 -0.004,-0.008 -0.016,-0.024 -0.016,-0.031 0,-0.008 0,-0.028 0,-0.032 0,-0.004 0,-0.011 0,-0.015 0,-0.008 0.012,-0.024 0.016,-0.031 0,0 0.011,-0.012 0.015,-0.016 0,0 0.012,0.004 0.012,0 0.004,0 0.016,-0.012 0.02,-0.016 0,0 0.007,0.004 0.011,0 0.004,0 0.016,-0.011 0.016,-0.015 0.383,-0.254 5.094,-0.25 5.613,-0.012 0.004,0 0.016,0.012 0.016,0.012 0.004,0.004 0.016,0 0.016,0 0.003,0.004 0,0.015 0,0.015 1.621,0.598 9.3,9.379 9.3,9.379 -0.398,0.34 -0.765,0.594 -1.16,0.934 -0.43,0.367 -0.387,0.73 0,1.101 1.902,1.106 1.297,3.543 0.305,4.649 -0.824,0.371 -1.598,0.496 -2.293,0.461 z m -27.0158,0.027 c -0.3633,-0.062 -0.7148,-0.359 -0.8398,-0.855 -0.0821,-0.325 0.1367,-0.864 -0.1563,-1.024 -0.1679,-0.172 -0.8047,-0.058 -0.7773,0.84 0,0.285 -0.211,0.586 -0.336,0.766 -0.1289,0.082 -0.2148,0.105 -0.4453,0.105 -0.2812,-0.012 -0.2734,-0.086 -0.4297,-0.32 -0.0664,-0.239 -0.1562,-0.477 -0.1562,-0.75 -0.0352,-0.317 -0.1641,-0.426 -0.3984,-0.473 -0.2618,0 -0.1993,-0.027 -0.4102,0.106 -0.1289,0.14 -0.2773,0.195 -0.2773,0.429 0,0.242 -0.0625,0.633 -0.1368,0.797 -0.1132,0.145 -0.289,0.223 -0.4882,0.274 -1.1016,-0.004 -1.1797,-1.266 -1.1172,-1.743 -0.0821,-0.089 -0.125,-2.332 1.375,-2.953 2.0156,-0.961 5.789,-0.554 5.6289,2.692 0,0.289 -0.0625,1.254 -0.0899,1.515 -0.207,0.477 -0.5859,0.66 -0.9492,0.598 z m 105.2538,0.293 c -0.168,-0.031 -0.422,-0.289 -0.887,-0.902 -1.152,-3.766 -1.554,-6.84 -1.117,-9.18 2.957,-15.434 5.989,-29.496 5.508,-44.191 1.402,-0.008 3.023,3.211 3.719,6.394 0.379,4.387 -0.254,7.059 -0.367,9.637 -0.114,2.578 -2.922,23.504 -3.489,25.453 -0.687,3.691 2.727,0.484 2.356,2.633 -1.18,2.703 -4.125,6.644 -5.047,8.992 -0.348,0.629 -0.391,1.211 -0.676,1.164 z m 43.231,0.227 c -0.204,-0.02 -0.45,-0.344 -0.829,-1.145 -0.906,-1.488 -1.218,-4.148 -0.855,-6.504 2.184,-14.781 3.809,-29.098 4.145,-42.199 -0.188,-1.246 -0.243,-1.906 -0.825,-3.473 -1.293,-1.656 -2.715,-3.73 -4.054,-4.726 -1.34,-1 -4.192,-1.953 -5.125,-2.696 -2.957,-1.707 -2.973,-3.675 -0.582,-3.746 4.125,0.481 9,0.817 12.359,5.891 0.898,1.418 1.961,5.273 2.004,7.633 0.316,13.824 -0.176,27.343 -2.246,37.336 -0.133,0.976 -0.563,3.211 -0.399,3.504 0.266,0.683 1.614,-0.071 2.094,0.718 0.707,0.719 -3.484,6.086 -4.957,8.383 -0.293,0.578 -0.473,1.051 -0.73,1.024 z m -169.8129,0.019 c -0.8867,0.027 -1.8633,-0.523 -1.4805,-1.59 -0.2226,-0.582 1.7344,-2.543 2.0782,-3.625 0.3085,-0.769 -0.3047,-3.242 0.3359,-3.472 0.5898,-0.254 1.4062,1.714 1.7148,3.535 0.1719,0.996 0.043,4.41 -2.2812,5.109 -0.1172,0.027 -0.2383,0.043 -0.3672,0.043 z m 149.0669,0.156 c -0.25,0.039 -0.52,-0.086 -0.825,-0.535 -0.586,-0.512 -1.215,-1.441 -1.195,-2.633 0.141,-2.097 0.516,-4.25 0.656,-6.347 0.051,-0.282 0.106,-0.563 0.156,-0.84 -0.226,0.285 -0.421,0.512 -0.535,0.625 -4.093,4.301 1.879,0.703 -0.781,4.023 -2.25,2.469 -2.91,3.258 -4.836,4.743 -0.965,0.625 -1.547,1.816 -1.863,-0.215 -0.129,-1.785 -0.258,-3.852 -0.141,-5.356 -0.004,-0.836 0.86,-2.406 1.61,-3.332 2.726,-3.355 5.515,-6.922 8.32,-10.648 0.59,-7.594 0.746,-14.555 1.348,-22.164 -0.086,-3.254 -1.086,-7.575 -2.036,-7.985 0,0 -1.449,-0.832 -2.418,0.09 -0.703,0.285 -3.519,4.699 -3.519,4.699 -1.441,1.321 -2.399,0.942 -3.426,0 -2.824,-2.73 -4.105,-7.843 -6.027,-11.367 -0.492,-0.785 -1.891,-1.453 -3.442,0.063 -3.937,5.382 -1.636,13.043 -2.125,11.074 -3.507,-3.953 -1.957,-10.508 -1.164,-11.914 1.157,-2.317 2.094,-3.797 4.344,-4.942 2.051,-1.511 3.649,-0.57 4.531,0.489 2.063,2.136 2.09,7.605 3.059,8.687 0.68,1.988 2.383,1.645 3.211,0.766 0.805,-1.156 1.754,-1.91 2.937,-2.539 1.926,-1.699 4.223,-2.008 6.485,-0.457 1.547,0.867 2.551,1.992 3.457,4.218 0.972,2.602 0.492,16.223 0.277,23.801 1.453,-2.047 2.887,-4.136 4.313,-6.254 0.625,-6.652 0.91,-13.207 0.703,-19.488 -0.149,-1.25 4.359,3.731 4.328,6.09 -0.02,2.062 0.004,3.934 0,5.672 2.187,-3.488 4.305,-7.035 6.305,-10.629 1.238,0.656 0.812,7.672 0.031,8.641 -2.098,3.515 -4.778,7.312 -6.856,10.25 -0.41,3.707 -0.968,8.082 -1.222,9.421 -0.399,2.09 -0.793,5.231 -1.391,7.711 -0.168,0.969 -0.66,4.063 -0.508,4.36 0.246,0.691 1.168,-0.024 1.621,0.781 0.684,0.738 -2.355,8.613 -3.898,10.859 -0.555,1.008 -1.559,0.66 -2.801,-0.98 -1.148,-1.074 -0.73,-3.535 -0.289,-5.871 1.141,-5.961 2.16,-12.028 2.969,-18.082 -1.496,2.218 -3.317,4.906 -5.11,7.496 -0.05,0.25 -0.23,1.164 -0.23,1.176 0,0.109 -0.246,4.875 -0.457,6.011 -0.039,0.461 -0.149,0.594 0.336,0.535 0.512,-0.429 0.582,-0.453 0.902,-0.593 0.516,-0.098 0.969,0.777 0.656,1.59 -1.601,2.953 -3.203,5.918 -4.804,8.871 -0.192,0.187 -0.406,0.39 -0.656,0.429 z m -57.758,0.594 c -0.516,-0.047 -0.922,-0.344 -1.075,-1.101 -0.203,-1.774 -0.097,-2.743 0.2,-4.219 0.23,-0.988 1.664,-2.641 2.371,-3.598 3.375,-4.535 6.625,-9.094 9.762,-13.812 0.492,-3.5 0.851,-6.926 1.085,-10.34 0.508,-7.481 0.661,-16.793 0.2,-24.672 1.398,-0.055 3.644,2.262 4.433,5.656 0.516,4.699 -0.183,14.285 -0.226,17.059 -0.035,1.148 -0.106,2.523 -0.188,3.961 3.649,-5.961 7.188,-12.278 10.664,-19.211 1.266,0.601 0.985,7.73 0.242,8.734 -2.777,5.985 -6.621,11.891 -7.843,14.164 -0.446,0.821 -1.95,3.11 -3.735,5.75 -0.328,3.77 -0.683,6.961 -0.918,7.926 -0.574,3.984 1.637,-0.449 1.332,1.867 -0.718,3.977 -2.914,6.68 -5.507,10.324 -0.836,1.184 -0.821,1.426 -2.11,-0.293 -0.773,-1.75 -0.762,-3.207 -0.535,-4.57 -0.34,0.492 -0.762,1.078 -1.363,1.805 -2.239,1.922 -2.379,2.023 -4.239,3.594 -0.585,0.414 -1.699,1.054 -2.55,0.976 z m -19.489,0.356 c -0.5,-0.047 -1.05,-0.625 -1.5,-1.747 -0.386,-0.851 -0.855,-5.308 -0.781,-5.308 -0.308,-1.324 1.387,-1.887 2.156,-0.184 1.157,3.125 1.164,4.457 1.239,5.782 -0.18,1.011 -0.617,1.5 -1.114,1.453 z m 5.278,0.41 c -0.321,-0.043 -0.715,-0.453 -1.258,-1.438 -0.387,-1.035 -2.066,-2.594 -0.856,-5.812 0.993,-2.043 1.399,-5.36 0.95,-9.059 -0.688,-1.051 -0.844,-1.41 -1.746,-2.461 -1.262,-1.359 -2.633,-1.012 -3.684,-0.504 -0.984,0.66 -1.754,1 -2.203,3.106 0.082,3.351 0.273,8.84 -0.336,10.004 -0.906,1.8 -2.395,1.156 -3.031,0.609 -3.059,-2.797 -4.567,-7.516 -5.492,-11.273 -0.848,-2.739 -1.75,-1.946 -2.383,-0.84 -1.547,1.445 -1.657,12.765 -3.52,10.906 -2.988,-8.535 1.715,-17.891 4.973,-16.98 2.347,-0.973 3.84,3.5 4.801,8.398 0.66,1.375 1.16,1.531 1.5,0.824 -0.086,-6.512 0.464,-7.965 2.14,-9.941 3.735,-2.879 6.824,-0.363 7.067,-0.121 0.242,0.242 2.906,2.906 2.906,2.906 0.648,0.68 1.504,0.723 2.418,0.121 0.89,-0.809 0.773,-2.199 2.676,-3.164 1.601,-0.641 5.019,-0.156 5.812,1.223 1.07,1.828 1.328,2.457 1.82,3.148 0.762,1.016 2.067,0.566 2.067,0.246 -0.121,-0.562 -0.887,-1.121 -0.367,-2.14 0.906,-0.68 1.117,-0.243 1.652,-0.09 1.895,0.906 3.32,5.015 3.32,5.015 0.082,1.532 -0.789,1.418 -1.347,1.102 -0.727,-0.445 -0.77,-0.598 -1.5,-1.039 -0.926,-0.141 -2.719,-0.75 -3.61,0.625 -0.906,1.656 -0.91,3.961 -1.605,5.629 0,0.121 -1.211,2.625 -0.094,2.785 0.566,-0.106 1.785,-0.418 1.977,0.598 0.593,0.988 -1.282,3.796 -2.555,5.214 -1.109,1.215 -2.637,1.364 -4.117,0.121 -1.035,-0.953 -0.879,-2.015 -1.086,-3.027 -0.262,-1.16 -0.211,-2.598 0.965,-4.129 1.035,-2.043 2.914,-4.66 2.297,-8.351 0,0 -1.094,-1.758 -3.016,-1.532 -0.801,0.176 -2.106,0.524 -2.801,5.645 -0.523,3.879 0.133,9.312 -1.512,11.855 -0.371,0.961 -0.691,1.891 -1.222,1.821 z m -16.676,0.09 c -0.188,0.007 -0.473,-0.098 -0.871,-0.336 -0.895,-0.602 -2.668,-2.45 -2.723,-4.575 -0.054,-1.199 -0.281,-1.195 0.504,-1.957 0.567,-0.82 1.137,-0.738 2.281,-0.136 0.657,0.484 0.879,0.793 1.102,1.605 0.269,1.363 -1.438,-0.644 -1.652,0.871 -0.383,1.41 0.707,1.989 1.742,3.352 0.023,0.64 0.035,1.164 -0.383,1.176 v 0"
         style="fill:#ffffff;fill-opacity:1;fill-rule:nonzero;stroke:none"
         id="path16" /></g></g></svg>
