<?xml version="1.0" encoding="UTF-8" standalone="no"?>
<svg
   xmlns:dc="http://purl.org/dc/elements/1.1/"
   xmlns:cc="http://creativecommons.org/ns#"
   xmlns:rdf="http://www.w3.org/1999/02/22-rdf-syntax-ns#"
   xmlns:svg="http://www.w3.org/2000/svg"
   xmlns="http://www.w3.org/2000/svg"
   version="1.1"
   id="svg2"
   xml:space="preserve"
   width="42.666668"
   height="42.666668"
   viewBox="0 0 42.666668 42.666668"><metadata
     id="metadata8"><rdf:RDF><cc:Work
         rdf:about=""><dc:format>image/svg+xml</dc:format><dc:type
           rdf:resource="http://purl.org/dc/dcmitype/StillImage" /></cc:Work></rdf:RDF></metadata><defs
     id="defs6" /><g
     id="g10"
     transform="matrix(1.3333333,0,0,-1.3333333,0,42.666667)"><g
       id="g12"
       transform="scale(0.1)"><path
         d="M 46.7891,46.7813 C 50.3398,43.207 54.0742,39.8359 57.8945,36.6641 L 283.34,262.09 c -3.168,3.824 -6.52,7.543 -10.117,11.117 -3.575,3.586 -7.285,6.945 -11.129,10.121 L 36.6445,57.9102 c 3.1719,-3.8164 6.5508,-7.5313 10.1446,-11.1289"
         style="fill:#f7cf0d;fill-opacity:1;fill-rule:nonzero;stroke:none"
         id="path14" /><path
         d="M 283.328,262.078 57.918,36.6875 c 62.801,-52.0273 156.535,-48.6953 215.324,10.0938 58.793,58.7657 62.125,152.4997 10.086,215.2967"
         style="fill:#265730;fill-opacity:1;fill-rule:evenodd;stroke:none"
         id="path16" /><path
         d="M 262.086,283.316 C 199.277,335.348 105.523,331.996 46.7422,273.227 -12.0195,214.457 -15.375,120.738 36.668,57.9336 L 262.086,283.316"
         style="fill:#3250aa;fill-opacity:1;fill-rule:evenodd;stroke:none"
         id="path18" /><path
         d="m 51.0547,248.09 c 1.3047,3.781 2.4297,7.648 3.7812,11.422 1.2579,-3.809 2.4766,-7.574 3.6836,-11.383 4.0547,-0.137 8.0977,0 12.1016,-0.07 -3.2227,-2.411 -6.4531,-4.739 -9.6914,-7.051 1.1016,-3.863 2.4766,-7.676 3.668,-11.512 -3.3321,2.262 -6.5196,4.734 -9.8047,7.043 -3.2422,-2.375 -6.4766,-4.781 -9.7617,-7.074 1.2148,3.836 2.5195,7.64 3.7148,11.473 -3.2422,2.382 -6.5234,4.746 -9.7617,7.121 4.0234,0.031 8.0469,0 12.0703,0.031"
         style="fill:#ffffff;fill-opacity:1;fill-rule:nonzero;stroke:none"
         id="path20" /><path
         d="m 120.711,259.512 c 1.375,-3.774 2.48,-7.641 3.805,-11.422 4.023,-0.031 8.047,0 12.078,-0.031 -3.25,-2.375 -6.531,-4.739 -9.766,-7.121 1.188,-3.833 2.5,-7.637 3.695,-11.473 -3.261,2.293 -6.503,4.699 -9.742,7.074 -3.304,-2.309 -6.5,-4.781 -9.824,-7.043 1.211,3.836 2.563,7.649 3.684,11.512 -3.231,2.312 -6.473,4.64 -9.692,7.051 4.004,0.07 8.028,-0.067 12.078,0.07 1.215,3.809 2.45,7.574 3.684,11.383"
         style="fill:#ffffff;fill-opacity:1;fill-rule:nonzero;stroke:none"
         id="path22" /><path
         d="m 87.6602,230.961 c 0.0468,0 0.1796,-0.035 0.25,-0.035 1.1914,-3.66 2.4453,-7.336 3.5781,-11.051 4.043,-0.098 8.0469,0 12.0897,-0.07 -3.191,-2.434 -6.5194,-4.711 -9.7108,-7.133 1.2187,-3.813 2.4922,-7.625 3.6836,-11.461 -3.2774,2.305 -6.4961,4.73 -9.7735,7.07 -3.2617,-2.34 -6.4726,-4.765 -9.7851,-7.07 1.2148,3.836 2.4726,7.648 3.707,11.461 -3.1679,2.422 -6.5351,4.664 -9.7265,7.133 4.0429,0.07 8.0468,-0.028 12.0898,0.07 1.1484,3.715 2.4336,7.391 3.5977,11.086"
         style="fill:#ffffff;fill-opacity:1;fill-rule:nonzero;stroke:none"
         id="path24" /><path
         d="m 51.0547,191.59 c 1.2851,3.816 2.4297,7.68 3.7812,11.453 1.2188,-3.805 2.4766,-7.574 3.6836,-11.387 4.0547,-0.199 8.0977,-0.031 12.1211,-0.093 -3.2109,-2.481 -6.6054,-4.684 -9.7343,-7.211 1.2617,-3.778 2.4804,-7.59 3.6914,-11.391 -3.2813,2.309 -6.5196,4.777 -9.8047,7.035 -3.2852,-2.359 -6.5235,-4.695 -9.8008,-7.098 1.2109,3.864 2.582,7.707 3.7344,11.579 -3.2618,2.375 -6.5274,4.703 -9.7696,7.086 4.0508,0 8.0547,0 12.0977,0.027"
         style="fill:#ffffff;fill-opacity:1;fill-rule:nonzero;stroke:none"
         id="path26" /><path
         d="m 120.711,203.043 c 1.375,-3.773 2.5,-7.637 3.805,-11.453 4.043,-0.027 8.047,-0.027 12.097,-0.027 -3.238,-2.383 -6.523,-4.711 -9.758,-7.086 1.141,-3.872 2.497,-7.715 3.708,-11.551 -3.282,2.375 -6.52,4.711 -9.782,7.07 -3.304,-2.258 -6.519,-4.726 -9.824,-7.035 1.211,3.801 2.426,7.613 3.711,11.391 -3.125,2.527 -6.547,4.765 -9.762,7.211 4.047,0.062 8.071,-0.106 12.121,0.093 1.215,3.813 2.469,7.582 3.684,11.387"
         style="fill:#ffffff;fill-opacity:1;fill-rule:nonzero;stroke:none"
         id="path28" /></g></g></svg>
