<?xml version="1.0" encoding="UTF-8" standalone="no"?>
<svg
   xmlns:dc="http://purl.org/dc/elements/1.1/"
   xmlns:cc="http://creativecommons.org/ns#"
   xmlns:rdf="http://www.w3.org/1999/02/22-rdf-syntax-ns#"
   xmlns:svg="http://www.w3.org/2000/svg"
   xmlns="http://www.w3.org/2000/svg"
   version="1.1"
   id="svg2"
   xml:space="preserve"
   width="42.666668"
   height="42.666668"
   viewBox="0 0 42.666668 42.666668"><metadata
     id="metadata8"><rdf:RDF><cc:Work
         rdf:about=""><dc:format>image/svg+xml</dc:format><dc:type
           rdf:resource="http://purl.org/dc/dcmitype/StillImage" /></cc:Work></rdf:RDF></metadata><defs
     id="defs6" /><g
     id="g10"
     transform="matrix(1.3333333,0,0,-1.3333333,0,42.666667)"><g
       id="g12"
       transform="scale(0.1)"><path
         d="m 46.5625,47.1836 v 0 c 29,-29.2148 69.1485,-47.347663 113.4295,-47.347663 69.137,0 128.27,44.203163 150.555,105.809063 L 46.5625,47.1836"
         style="fill:#237a39;fill-opacity:1;fill-rule:nonzero;stroke:none"
         id="path14" /><path
         d="M 0,159.828 C 0,115.965 17.793,76.1523 46.5625,47.1836 v 0 L 116.699,313.879 C 49.4766,294.914 0,232.949 0,159.828"
         style="fill:#274187;fill-opacity:1;fill-rule:nonzero;stroke:none"
         id="path16" /><path
         d="m 226.719,305.191 c -20.313,9.407 -42.946,14.661 -66.727,14.661 -13.336,0 -26.265,-1.664 -38.644,-4.766 L 116.699,313.879 46.5625,47.1836 226.719,305.191"
         style="fill:#f9d839;fill-opacity:1;fill-rule:nonzero;stroke:none"
         id="path18" /><path
         d="m 308.445,219.453 c -15.293,37.895 -44.754,68.664 -81.726,85.738 v 0 L 46.5625,47.1836 308.445,219.453"
         style="fill:#d82326;fill-opacity:1;fill-rule:nonzero;stroke:none"
         id="path20" /><path
         d="m 320,159.828 c 0,21.035 -4.109,41.168 -11.555,59.625 L 46.5625,47.1836 310.547,105.645 c 6.105,16.949 9.453,35.187 9.453,54.183"
         style="fill:#ffffff;fill-opacity:1;fill-rule:evenodd;stroke:none"
         id="path22" /></g></g></svg>
