<?xml version="1.0" encoding="UTF-8" standalone="no"?>
<svg
   xmlns:dc="http://purl.org/dc/elements/1.1/"
   xmlns:cc="http://creativecommons.org/ns#"
   xmlns:rdf="http://www.w3.org/1999/02/22-rdf-syntax-ns#"
   xmlns:svg="http://www.w3.org/2000/svg"
   xmlns="http://www.w3.org/2000/svg"
   version="1.1"
   id="svg2"
   xml:space="preserve"
   width="42.666668"
   height="42.666668"
   viewBox="0 0 42.666668 42.666668"><metadata
     id="metadata8"><rdf:RDF><cc:Work
         rdf:about=""><dc:format>image/svg+xml</dc:format><dc:type
           rdf:resource="http://purl.org/dc/dcmitype/StillImage" /></cc:Work></rdf:RDF></metadata><defs
     id="defs6" /><g
     id="g10"
     transform="matrix(1.3333333,0,0,-1.3333333,0,42.666667)"><g
       id="g12"
       transform="scale(0.1)"><path
         d="M 310.516,214.305 H 9.47656 C 3.34766,197.34 0,179.031 0,159.945 0,140.859 3.34766,122.563 9.47656,105.602 H 310.516 c 6.136,16.961 9.484,35.257 9.484,54.343 0,19.086 -3.348,37.395 -9.484,54.36"
         style="fill:#ffffff;fill-opacity:1;fill-rule:evenodd;stroke:none"
         id="path14" /><path
         d="M 9.47656,214.305 H 310.516 c -22.254,61.597 -81.254,105.648 -150.52,105.648 -69.2772,0 -128.2733,-44.051 -150.51944,-105.648"
         style="fill:#d41b34;fill-opacity:1;fill-rule:evenodd;stroke:none"
         id="path16" /><path
         d="M 310.516,105.602 H 9.47656 C 31.7227,44.0156 90.7188,-0.0429688 159.996,-0.0429688 c 69.266,0 128.266,44.0585688 150.52,105.6449688"
         style="fill:#100f0d;fill-opacity:1;fill-rule:evenodd;stroke:none"
         id="path18" /><path
         d="m 27.1641,248.969 h -0.125 C 9.96875,223.52 0,192.902 0,159.957 0,127.313 9.79688,96.9688 26.582,71.6563 h 0.5821 v 0.3164 C 71.4492,101.48 115.723,130.992 160.039,160.461 115.746,189.922 71.4453,219.445 27.1641,248.969"
         style="fill:#227035;fill-opacity:1;fill-rule:nonzero;stroke:none"
         id="path20" /></g></g></svg>
