<?xml version="1.0" encoding="UTF-8" standalone="no"?>
<svg
   xmlns:dc="http://purl.org/dc/elements/1.1/"
   xmlns:cc="http://creativecommons.org/ns#"
   xmlns:rdf="http://www.w3.org/1999/02/22-rdf-syntax-ns#"
   xmlns:svg="http://www.w3.org/2000/svg"
   xmlns="http://www.w3.org/2000/svg"
   version="1.1"
   id="svg2"
   xml:space="preserve"
   width="42.666668"
   height="42.666668"
   viewBox="0 0 42.666668 42.666668"><metadata
     id="metadata8"><rdf:RDF><cc:Work
         rdf:about=""><dc:format>image/svg+xml</dc:format><dc:type
           rdf:resource="http://purl.org/dc/dcmitype/StillImage" /></cc:Work></rdf:RDF></metadata><defs
     id="defs6" /><g
     id="g10"
     transform="matrix(1.3333333,0,0,-1.3333333,0,42.666667)"><g
       id="g12"
       transform="scale(0.1)"><path
         d="M 159.988,319.98 C 71.8516,319.98 0,248.137 0,159.98 h 320 c 0,88.157 -71.879,160 -160.012,160"
         style="fill:#ec1e37;fill-opacity:1;fill-rule:evenodd;stroke:none"
         id="path14" /><path
         d="M 159.988,-0.015625 C 71.8516,-0.015625 0,71.8281 0,159.98 H 320 C 320,71.8281 248.121,-0.015625 159.988,-0.015625"
         style="fill:#ffffff;fill-opacity:1;fill-rule:evenodd;stroke:none"
         id="path16" /><path
         d="m 78.1445,271.949 c 10.1993,3.68 21.4766,3.371 31.7185,0.043 -14.8239,-0.402 -29.07,-8.762 -36.7107,-21.476 -8.2226,-13.211 -8.6523,-30.825 -1.0976,-44.43 7.2539,-13.613 22.1719,-23.277 37.7653,-23.188 -8.695,-3.363 -18.5544,-3.64 -27.57,-1.394 -13.4531,3.324 -25.1406,12.988 -31.0664,25.48 -5.3516,11.129 -6.0273,24.344 -1.9805,35.938 4.625,13.394 15.5899,24.355 28.9414,29.027"
         style="fill:#ffffff;fill-opacity:1;fill-rule:nonzero;stroke:none"
         id="path18" /><path
         d="m 116.09,257.707 c 0.941,2.516 1.461,5.211 2.535,7.727 0.809,-2.563 1.617,-5.121 2.363,-7.637 2.582,-0.09 5.235,0 7.883,-0.09 -2.066,-1.672 -4.242,-3.23 -6.336,-4.898 0.719,-2.563 1.711,-5.125 2.379,-7.778 -2.18,1.532 -4.223,3.285 -6.379,4.723 -2.109,-1.617 -4.199,-3.191 -6.336,-4.813 0.719,2.653 1.664,5.254 2.43,7.868 -2.09,1.668 -4.266,3.187 -6.293,4.898 2.609,0.09 5.148,0 7.754,0"
         style="fill:#ffffff;fill-opacity:1;fill-rule:nonzero;stroke:none"
         id="path20" /><path
         d="m 93.2813,246.832 c 0.9453,-2.559 1.664,-5.164 2.4726,-7.769 2.5391,-0.09 5.1251,0.039 7.6841,-0.051 -1.836,-1.891 -4.1528,-3.235 -6.1333,-4.899 0.7891,-2.644 1.6406,-5.3 2.4922,-7.953 -2.1563,1.621 -4.2891,3.328 -6.4727,4.899 -2.1523,-1.571 -4.2851,-3.231 -6.4219,-4.899 0.8086,2.653 1.6641,5.309 2.4727,7.953 -2.0664,1.664 -4.2891,3.192 -6.3789,4.899 2.6523,0.051 5.3008,-0.09 7.9297,0.09 0.7617,2.605 1.5469,5.125 2.3555,7.73"
         style="fill:#ffffff;fill-opacity:1;fill-rule:nonzero;stroke:none"
         id="path22" /><path
         d="m 143.742,246.832 c 0.946,-2.559 1.598,-5.215 2.496,-7.769 2.539,-0.09 5.102,0 7.688,-0.09 -1.938,-1.758 -4.16,-3.196 -6.184,-4.86 0.766,-2.566 1.664,-5.121 2.36,-7.769 -2.18,1.484 -4.2,3.183 -6.266,4.715 -2.227,-1.532 -4.313,-3.231 -6.469,-4.899 0.809,2.653 1.66,5.309 2.446,7.953 -2.063,1.664 -4.29,3.192 -6.36,4.95 2.582,-0.051 5.168,0 7.731,-0.09 1.082,2.511 1.66,5.254 2.558,7.859"
         style="fill:#ffffff;fill-opacity:1;fill-rule:nonzero;stroke:none"
         id="path24" /><path
         d="m 102.723,217 c 0.941,-2.605 1.66,-5.293 2.511,-7.949 2.586,0 5.172,0.137 7.731,0 -1.977,-1.703 -4.09,-3.188 -6.18,-4.758 0.653,-2.695 1.594,-5.355 2.406,-8.047 -2.16,1.617 -4.246,3.328 -6.425,4.942 -2.114,-1.524 -4.0902,-3.278 -6.3168,-4.715 0.6563,2.605 1.6875,5.164 2.3164,7.82 -2.1093,1.57 -4.2461,3.094 -6.25,4.758 2.6133,0.137 5.2149,-0.043 7.7974,0.047 0.812,2.648 1.667,5.297 2.41,7.902"
         style="fill:#ffffff;fill-opacity:1;fill-rule:nonzero;stroke:none"
         id="path26" /><path
         d="m 134.309,217 c 0.902,-2.605 1.636,-5.293 2.496,-7.949 2.582,0 5.187,0.137 7.789,0 -2.043,-1.703 -4.262,-3.145 -6.285,-4.848 0.761,-2.656 1.664,-5.215 2.363,-7.82 -2.141,1.527 -4.207,3.191 -6.274,4.805 -2.222,-1.524 -4.203,-3.325 -6.378,-4.766 0.675,2.605 1.66,5.176 2.312,7.871 -2.09,1.57 -4.246,3.094 -6.223,4.758 2.606,0.137 5.192,-0.09 7.77,0.047 0.809,2.648 1.664,5.297 2.43,7.902"
         style="fill:#ffffff;fill-opacity:1;fill-rule:nonzero;stroke:none"
         id="path28" /></g></g></svg>
