<?xml version="1.0" encoding="UTF-8" standalone="no"?>
<svg
   xmlns:dc="http://purl.org/dc/elements/1.1/"
   xmlns:cc="http://creativecommons.org/ns#"
   xmlns:rdf="http://www.w3.org/1999/02/22-rdf-syntax-ns#"
   xmlns:svg="http://www.w3.org/2000/svg"
   xmlns="http://www.w3.org/2000/svg"
   version="1.1"
   id="svg2"
   xml:space="preserve"
   width="42.666668"
   height="42.666668"
   viewBox="0 0 42.666668 42.666668"><metadata
     id="metadata8"><rdf:RDF><cc:Work
         rdf:about=""><dc:format>image/svg+xml</dc:format><dc:type
           rdf:resource="http://purl.org/dc/dcmitype/StillImage" /></cc:Work></rdf:RDF></metadata><defs
     id="defs6" /><g
     id="g10"
     transform="matrix(1.3333333,0,0,-1.3333333,0,42.666667)"><g
       id="g12"
       transform="scale(0.1)"><path
         d="M 159.984,-0.015625 C 248.121,-0.015625 320,71.8633 320,159.992 320,248.117 248.121,320.02 159.984,320.02 71.8438,320.02 0,248.117 0,159.992 0,71.8633 71.8438,-0.015625 159.984,-0.015625"
         style="fill:#273375;fill-opacity:1;fill-rule:evenodd;stroke:none"
         id="path14" /><path
         d="m 50.1445,272.648 c 0,1.172 0,2.344 0,3.508 -1.2148,-1.133 -2.4218,-2.336 -3.5976,-3.508 1.2187,0 2.4023,0 3.5976,0"
         style="fill:#ffffff;fill-opacity:1;fill-rule:nonzero;stroke:none"
         id="path16" /><path
         d="m 50.1445,272.648 c -1.1953,0 -2.3789,0 -3.5976,0 -7.2344,-7.273 -13.7461,-15.234 -19.4727,-23.765 7.6953,0 15.3828,0 23.0703,0 0,-16.301 -0.0468,-32.676 0,-48.973 6.5586,0 13.0196,0 19.5547,0 0.0391,16.297 0,32.672 0.0391,48.973 30.0117,0 60.1017,0 90.1367,0 0.07,7.949 0.07,15.816 0.051,23.765 -30.086,0 -60.176,0 -90.1877,0 -0.0195,6.43 -0.0195,12.883 -0.0195,19.332 -6.9571,-4.761 -13.4649,-10.07 -19.5743,-15.824 0,-1.164 0,-2.336 0,-3.508"
         style="fill:#d11d2c;fill-opacity:1;fill-rule:nonzero;stroke:none"
         id="path18" /><path
         d="m 159.371,319.992 c -0.777,0 -1.57,-0.019 -2.375,-0.019 -20.594,-12.809 -41.383,-25.262 -62.0116,-37.969 -1.0313,-0.676 -2.1992,-1.078 -3.3594,-0.988 -4.6133,0.113 -9.2578,-0.09 -13.9023,0.113 20.414,12.707 41.0193,24.953 61.4803,37.516 -0.019,0 -0.043,0 -0.043,0 -1.933,-0.25 -3.82,-0.567 -5.754,-0.875 -0.183,-0.02 -0.343,-0.04 -0.519,-0.09 -1.953,-0.321 -3.879,-0.707 -5.821,-1.11 -16.847,-10.316 -33.7887,-20.465 -50.6793,-30.718 -0.0195,3.464 -0.0195,6.949 -0.0469,10.433 v 0 c -2.25,-1.394 -4.4453,-2.828 -6.621,-4.305 0,-6.449 0,-12.902 0.0195,-19.332 30.0117,0 60.1017,0 90.1877,0 0.019,-7.949 0.019,-15.816 -0.051,-23.765 -30.035,0 -60.125,0 -90.1367,0 -0.0391,-16.301 0,-32.676 -0.0391,-48.973 2.1953,0 4.4336,0 6.6406,0 0,11.903 -0.0429,23.856 0.0469,35.758 18.5977,-11.188 37.1603,-22.488 55.7613,-33.746 1.528,-0.848 2.993,-2.219 4.79,-2.012 7.574,0.043 15.167,-0.047 22.73,0.043 -21.91,13.676 -44.055,26.68 -65.9571,40.395 4.7813,0.261 9.5861,0.066 14.3551,0.148 1.688,0.07 3.094,-1.164 4.536,-1.988 15.75,-9.637 31.5,-19.281 47.273,-28.922 0.109,-3.207 0.051,-6.496 0.07,-9.676 0.129,4.938 -0.07,9.875 -0.019,14.774 -14.043,8.632 -28.207,16.894 -42.153,25.73 14.02,0.195 28.11,0 42.153,0.082 0.058,13.512 0.058,27.035 0,40.567 -14.043,0.109 -28.133,-0.137 -42.153,0.109 13.895,8.867 28.215,16.887 42.102,25.855 0.109,4.313 0,8.649 0.02,12.993 -0.165,0 -0.336,-0.028 -0.524,-0.028"
         style="fill:#ffffff;fill-opacity:1;fill-rule:nonzero;stroke:none"
         id="path20" /><path
         d="m 139.203,318.645 c -20.461,-12.563 -41.0663,-24.809 -61.4803,-37.516 4.6445,-0.203 9.289,0 13.9023,-0.113 1.1602,-0.09 2.3281,0.312 3.3594,0.988 20.6286,12.707 41.4176,25.16 62.0116,37.969 -6.016,-0.141 -11.953,-0.563 -17.793,-1.328"
         style="fill:#d11d2c;fill-opacity:1;fill-rule:nonzero;stroke:none"
         id="path22" /><path
         d="m 27.0742,248.883 c -2.7734,-4.11 -5.3515,-8.363 -7.7344,-12.75 1.5938,0.972 3.168,1.941 4.7383,2.906 1.2149,0.719 2.4258,1.57 3.7852,1.457 4.7109,-0.082 9.5039,0.113 14.2344,-0.148 -9.7461,-6.09 -19.5899,-12.047 -29.4336,-18.004 -0.9375,-2.18 -1.793,-4.375 -2.6563,-6.625 11.0235,6.672 22.0117,13.351 33.0156,19.949 0.0196,-11.902 0,-23.855 0.0196,-35.758 2.3828,0 4.7422,0 7.1015,0 -0.0468,16.297 0,32.672 0,48.973 -7.6875,0 -15.375,0 -23.0703,0"
         style="fill:#ffffff;fill-opacity:1;fill-rule:nonzero;stroke:none"
         id="path24" /><path
         d="m 42.0977,240.348 c -4.7305,0.261 -9.5235,0.066 -14.2344,0.148 -1.3594,0.113 -2.5703,-0.738 -3.7852,-1.457 -1.5703,-0.965 -3.1445,-1.934 -4.7383,-2.906 -2.4492,-4.465 -4.6562,-9.063 -6.6757,-13.789 9.8437,5.957 19.6875,11.914 29.4336,18.004"
         style="fill:#d11d2c;fill-opacity:1;fill-rule:nonzero;stroke:none"
         id="path26" /><path
         d="m 93.7109,240.348 c 4.7813,0.261 9.5861,0.066 14.3551,0.148 1.688,0.07 3.094,-1.164 4.536,-1.988 15.75,-9.637 31.5,-19.281 47.273,-28.922 0.109,-3.207 0.051,-6.496 0.07,-9.676 l -0.277,0.043 c -21.91,13.676 -44.055,26.68 -65.9571,40.395"
         style="fill:#d11d2c;fill-opacity:1;fill-rule:nonzero;stroke:none"
         id="path28" /><path
         d="m 102.258,289.523 c -0.266,-0.121 -0.528,-0.238 -0.789,-0.347 0.261,0.109 0.523,0.226 0.789,0.347"
         style="fill:#b9babb;fill-opacity:1;fill-rule:evenodd;stroke:none"
         id="path30" /><path
         d="m 237.699,228.664 c 1.098,1.75 2.223,3.531 3.176,5.391 0.855,-1.473 1.48,-3.106 2.441,-4.512 -0.871,-1.375 -1.957,-3.152 -1.074,-4.836 0.184,0.336 0.363,0.695 0.563,1.027 -0.586,-2.468 1.683,-4.179 2.152,-6.379 -0.352,0.317 -0.719,0.68 -1.078,0.993 0.062,-1.301 0.039,-2.602 -0.156,-3.883 -0.625,2 0.289,4.328 -1.047,6.066 -0.25,-2.496 -0.301,-4.992 0,-7.508 1.265,0.36 2.551,0.735 3.836,1.145 0.441,0.156 0.914,0.316 1.363,0.457 0.586,0.047 1.188,-0.051 1.785,-0.09 -4.211,-1.293 -8.367,-2.699 -12.137,-4.949 -0.136,5.711 0.043,11.394 0.176,17.078"
         style="fill:#c3eae8;fill-opacity:1;fill-rule:nonzero;stroke:none"
         id="path32" /><path
         d="m 236.488,231.766 c 0.18,0.07 0.582,0.199 0.789,0.269 -0.066,-1.847 0.786,-4.445 -0.496,-5.808 0.223,-0.18 0.496,-0.336 0.719,-0.465 -0.223,-0.16 -0.473,-0.36 -0.719,-0.52 0.606,-0.133 0.379,-0.422 0.024,-0.722 0.199,-0.086 0.562,-0.332 0.718,-0.422 -0.156,-0.114 -0.519,-0.332 -0.671,-0.469 0.308,-0.274 0.488,-0.539 -0.047,-0.668 0.199,-0.18 0.425,-0.34 0.695,-0.5 -0.16,-0.09 -0.496,-0.309 -0.648,-0.406 0.242,-0.289 0.425,-0.539 0.07,-0.801 0.082,-0.231 0.219,-0.434 0.355,-0.68 -0.117,0 -0.297,-0.136 -0.406,-0.176 0.43,-2.496 -0.226,-5.265 0.133,-7.875 0.226,-0.621 -0.199,-0.937 -0.789,-0.984 0,6.742 -0.078,13.504 0.273,20.227"
         style="fill:#b5781d;fill-opacity:1;fill-rule:nonzero;stroke:none"
         id="path34" /><path
         d="m 242.242,224.707 c -0.883,1.684 0.203,3.461 1.074,4.836 1.215,-2.18 2.965,-4.141 4.11,-6.227 -0.531,-2.343 -0.848,-4.714 -0.914,-7.148 -1.285,-0.41 -2.571,-0.785 -3.836,-1.145 -0.301,2.516 -0.25,5.012 0,7.508 1.336,-1.738 0.422,-4.066 1.047,-6.066 0.195,1.281 0.218,2.582 0.156,3.883 0.359,-0.313 0.726,-0.676 1.078,-0.993 -0.469,2.2 -2.738,3.911 -2.152,6.379 -0.2,-0.332 -0.379,-0.691 -0.563,-1.027"
         style="fill:#e6f6f2;fill-opacity:1;fill-rule:nonzero;stroke:none"
         id="path36" /><path
         d="m 231.234,223.336 c 1.434,1.504 3,2.934 4.762,4.133 0,-5.207 0,-10.403 -0.117,-15.59 -1.668,0.855 -3.25,1.797 -4.957,2.516 -0.492,2.988 0.289,5.953 0.312,8.941"
         style="fill:#c4eae6;fill-opacity:1;fill-rule:nonzero;stroke:none"
         id="path38" /><path
         d="m 231.211,223.629 0.023,-0.293 c -0.023,-2.988 -0.804,-5.953 -0.312,-8.941 -0.07,-0.028 -0.203,-0.071 -0.274,-0.071 v 0.199 c -0.16,2.926 0.161,5.825 0.516,8.719 l 0.047,0.387"
         style="fill:#100f0d;fill-opacity:1;fill-rule:nonzero;stroke:none"
         id="path40" /><path
         d="m 223.723,215.352 c 2.23,2.836 4.707,5.531 7.441,7.89 -0.355,-2.894 -0.676,-5.793 -0.516,-8.719 -1.906,0.52 -3.847,0.7 -5.777,0.7 -0.379,0.019 -0.797,0.043 -1.148,0.129"
         style="fill:#ffffff;fill-opacity:1;fill-rule:nonzero;stroke:none"
         id="path42" /><path
         d="m 246.512,216.168 c 0.066,2.434 0.383,4.805 0.914,7.148 -0.129,-2.261 -0.785,-4.449 -0.696,-6.742 0.293,0.02 0.907,0.02 1.145,0.051 -0.449,-0.141 -0.922,-0.301 -1.363,-0.457"
         style="fill:#100f0d;fill-opacity:1;fill-rule:nonzero;stroke:none"
         id="path44" /><path
         d="m 247.426,223.316 c 2,-2.023 3.929,-4.07 6.066,-5.98 -1.398,0.047 -2.562,-0.641 -3.832,-0.801 -0.597,0.039 -1.199,0.137 -1.785,0.09 -0.238,-0.031 -0.852,-0.031 -1.145,-0.051 -0.089,2.293 0.567,4.481 0.696,6.742"
         style="fill:#ffffff;fill-opacity:1;fill-rule:nonzero;stroke:none"
         id="path46" /><path
         d="m 252.168,216.406 c 0.656,0.352 1.437,1.043 2.152,0.489 -0.511,-0.727 -1.246,-1.176 -1.968,-1.672 -0.11,-0.09 -0.348,-0.2 -0.426,-0.27 -2.363,-1.117 -4.289,-3.453 -7.149,-3.012 2.383,1.614 4.938,2.946 7.391,4.465"
         style="fill:#b4771d;fill-opacity:1;fill-rule:nonzero;stroke:none"
         id="path48" /><path
         d="m 223.473,215.043 c 0.066,0.062 0.179,0.199 0.25,0.309 0.351,-0.086 0.769,-0.11 1.148,-0.129 -0.379,-0.133 -0.746,-0.227 -1.148,-0.356 0.91,-0.679 2.656,-0.312 2.836,-1.687 -1.422,0.355 -3.196,0.425 -4.141,1.64 0.281,0.047 0.785,0.176 1.055,0.223"
         style="fill:#a67e1e;fill-opacity:1;fill-rule:nonzero;stroke:none"
         id="path50" /><path
         d="m 252.352,215.223 c 1.234,0.09 2.511,0 3.753,0.043 -0.214,-1.457 -0.531,-2.918 -0.996,-4.352 -0.039,0.473 -0.086,0.945 -0.148,1.387 -0.231,0 -0.684,0.023 -0.926,0.023 0.113,-0.113 0.332,-0.355 0.426,-0.465 -1.027,-0.25 -2.109,-0.472 -3.176,-0.675 -2.394,0.425 -4.707,-0.661 -7.113,-0.45 -2.422,0.27 -4.813,-0.32 -7.234,0.02 -1.93,0.019 -3.84,0.785 -5.727,0.43 -0.992,0.183 -1.941,0.355 -2.91,0.535 0.129,-0.754 0.215,-1.489 0.316,-2.242 -0.101,-0.321 -0.238,-0.661 -0.347,-0.997 -0.317,0 -0.633,0.051 -0.926,0.051 -0.653,1.934 -0.895,3.992 -0.559,6.024 0.356,-0.032 0.758,-0.051 1.117,-0.141 0.09,-0.449 0.18,-0.894 0.239,-1.348 6.129,-1.925 12.707,-1.906 19.019,-1.328 2.938,0.391 5.996,0.864 8.629,2.321 -1.144,0.937 -2.785,-0.032 -3.863,0.894 0.078,0.07 0.316,0.18 0.426,0.27"
         style="fill:#43a2d8;fill-opacity:1;fill-rule:nonzero;stroke:none"
         id="path52" /><path
         d="m 256.598,214.395 c 0.109,0 0.343,0.019 0.425,0.058 -0.07,-0.644 -0.07,-1.34 -0.199,-1.988 -0.66,-1.324 -1.035,-2.77 -1.437,-4.203 -0.657,2.043 0.777,4.133 1.211,6.133"
         style="fill:#43a2d8;fill-opacity:1;fill-rule:nonzero;stroke:none"
         id="path54" /><path
         d="m 254.461,211.859 c 0,-0.855 -0.223,-1.722 -0.602,-2.523 -0.785,0.852 -1.824,0.707 -2.504,-0.16 -1.281,0.109 -2.55,0.211 -3.792,0.34 -0.114,-0.09 -0.333,-0.321 -0.426,-0.399 -1.262,0.469 -2.559,0.578 -3.821,1.02 2.676,0.328 5.348,0.468 7.969,1.047 1.067,0.203 2.149,0.425 3.176,0.675"
         style="fill:#c8ece9;fill-opacity:1;fill-rule:nonzero;stroke:none"
         id="path56" /><path
         d="m 228.301,211.719 c 0.969,-0.18 1.918,-0.352 2.91,-0.535 3.23,-0.719 6.57,-0.996 9.93,-1.016 0,-0.125 0.031,-0.25 0.031,-0.344 -2.758,-1.113 -5.965,1.227 -8.324,-1.156 0.496,1.797 -1.684,1.562 -2.2,0.289 l -0.16,-0.199 c -0.566,-0.227 -1.148,-0.16 -1.711,-0.16 -0.062,0.218 -0.132,0.648 -0.16,0.879 -0.101,0.753 -0.187,1.488 -0.316,2.242"
         style="fill:#caedeb;fill-opacity:1;fill-rule:nonzero;stroke:none"
         id="path58" /><path
         d="m 241.359,209.695 c 0.571,1.059 1.485,1.059 2.028,0 -0.676,-0.019 -1.328,-0.019 -2.028,0"
         style="fill:#ca9819;fill-opacity:1;fill-rule:nonzero;stroke:none"
         id="path60" /><path
         d="m 251.355,209.176 c 0.68,0.867 1.719,1.012 2.504,0.16 -0.367,-0.449 -0.761,-0.895 -1.129,-1.391 -0.019,0.266 -0.085,0.723 -0.125,0.942 -0.32,-0.574 -0.66,-1.207 -0.859,-1.86 -0.5,1.286 -2.074,0.426 -3.082,0.918 1.051,0.071 2.109,0.09 3.191,0.157 -0.23,0.296 -0.476,0.628 -0.699,0.964 l 0.199,0.11"
         style="fill:#3a291d;fill-opacity:1;fill-rule:nonzero;stroke:none"
         id="path62" /><path
         d="m 241.203,209.156 c 0.727,0.449 1.641,0.489 2.363,-0.039 -0.668,-1.172 -1.707,-1.172 -2.363,0.039"
         style="fill:#94721f;fill-opacity:1;fill-rule:nonzero;stroke:none"
         id="path64" /><path
         d="m 243.789,208.379 c 0.492,1.226 2.313,1.226 2.922,0.082 -0.996,-0.063 -1.934,-0.082 -2.922,-0.082"
         style="fill:#88d6e7;fill-opacity:1;fill-rule:nonzero;stroke:none"
         id="path66" /><path
         d="m 233.941,207.633 c -0.382,2.101 3.039,1.793 3.84,0.383 -1.293,0.425 -2.644,0.297 -3.84,-0.383"
         style="fill:#96dbe7;fill-opacity:1;fill-rule:nonzero;stroke:none"
         id="path68" /><path
         d="m 247.789,208.938 c 1.102,-0.141 2.242,-0.227 3.367,0.128 0.223,-0.336 0.469,-0.668 0.699,-0.964 -1.082,-0.067 -2.14,-0.086 -3.191,-0.157 -0.297,0.297 -0.582,0.653 -0.875,0.993"
         style="fill:#b68a1c;fill-opacity:1;fill-rule:nonzero;stroke:none"
         id="path70" /><path
         d="m 230.488,208.758 0.16,0.199 c 0.231,-0.141 0.723,-0.34 0.942,-0.426 0,-0.152 0.043,-0.496 0.043,-0.629 -1.203,-0.644 -2.629,-1.593 -3.977,-0.714 0.426,0.199 0.899,0.359 1.395,0.535 0.582,0.16 1.035,0.539 1.437,1.035"
         style="fill:#a47b1e;fill-opacity:1;fill-rule:nonzero;stroke:none"
         id="path72" /><path
         d="m 231.883,208.977 c 0.894,-0.497 1.215,-1.813 0.844,-2.688 -0.95,0.246 -0.711,1.832 -0.844,2.688"
         style="fill:#a07a1e;fill-opacity:1;fill-rule:nonzero;stroke:none"
         id="path74" /><path
         d="m 251.746,207.027 c 0.199,0.653 0.539,1.286 0.859,1.86 0.04,-0.219 0.106,-0.676 0.125,-0.942 -0.156,-0.558 -0.339,-1.14 -0.488,-1.75 -0.156,0.274 -0.316,0.586 -0.496,0.832"
         style="fill:#ae841d;fill-opacity:1;fill-rule:nonzero;stroke:none"
         id="path76" /><path
         d="m 224.492,206.449 c 1.082,1.184 2.988,2.149 4.559,1.274 -2.129,0.398 -3.914,-1.657 -3.621,-3.688 -0.293,0.832 -0.578,1.625 -0.938,2.414"
         style="fill:#8ed8e6;fill-opacity:1;fill-rule:nonzero;stroke:none"
         id="path78" /><path
         d="m 238.375,207.852 c 0.477,-0.219 0.891,-0.399 1.344,-0.594 -0.582,-0.43 -1.274,-0.746 -1.996,-0.371 0.156,0.254 0.492,0.726 0.652,0.965"
         style="fill:#ae841d;fill-opacity:1;fill-rule:nonzero;stroke:none"
         id="path80" /><path
         d="m 245.207,207.324 c 0.379,0.172 0.805,0.309 1.234,0.485 0.137,-0.219 0.454,-0.668 0.633,-0.922 -0.703,-0.352 -1.398,-0.149 -1.867,0.437"
         style="fill:#b48b1d;fill-opacity:1;fill-rule:nonzero;stroke:none"
         id="path82" /><path
         d="m 254.887,207.633 c 1.554,-0.852 3.402,-1.121 4.847,-2.188 -0.929,0.149 -1.855,0.258 -2.781,0.371 -0.676,0.614 -1.441,1.141 -2.066,1.817"
         style="fill:#7ccce5;fill-opacity:1;fill-rule:nonzero;stroke:none"
         id="path84" /><path
         d="m 229.473,204.711 c 2.304,1.355 4.89,2.094 7.465,2.699 -0.875,-2.613 -0.512,-5.488 0.722,-7.922 -2.375,1.051 -5.644,1.051 -6.719,-1.769 -1.937,1.66 -2.816,4.75 -1.468,6.992"
         style="fill:#d29e17;fill-opacity:1;fill-rule:nonzero;stroke:none"
         id="path86" /><path
         d="m 239.719,207.258 c 0.136,-0.024 0.359,-0.117 0.449,-0.211 -0.027,-0.352 -0.051,-0.719 -0.09,-1.07 0.133,0.039 0.406,0.089 0.516,0.128 -0.383,-0.273 -0.785,-0.511 -1.207,-0.761 0.109,0.406 0.179,0.808 0.242,1.191 -0.461,-0.105 -0.895,-0.226 -1.344,-0.363 0.063,-0.219 0.16,-0.695 0.227,-0.926 -0.352,0.199 -0.633,0.414 -0.946,0.586 -0.043,0.145 -0.136,0.41 -0.199,0.547 0.133,0.156 0.223,0.316 0.356,0.508 0.722,-0.375 1.414,-0.059 1.996,0.371"
         style="fill:#11100e;fill-opacity:1;fill-rule:nonzero;stroke:none"
         id="path88" /><path
         d="m 240.594,206.105 c 0.676,0.407 1.265,0.903 1.851,1.391 0.52,-0.539 1.071,-1.047 1.703,-1.453 0.43,-0.25 0.856,-0.48 1.274,-0.699 -0.055,0.406 -0.176,0.828 -0.215,1.261 0.586,-0.226 1.164,-0.5 1.731,-0.773 -0.336,-0.129 -0.637,-0.269 -0.946,-0.445 0.61,-2.43 -0.277,-5.239 -2.625,-6.364 -0.781,0.067 -1.574,0.114 -2.336,0.067 -1.265,0.723 -2.078,2.008 -2.476,3.379 0.242,0.758 0.242,1.539 0.05,2.285 -0.031,0.141 -0.05,0.363 -0.093,0.492 -0.067,0.231 -0.164,0.707 -0.227,0.926 0.449,0.137 0.883,0.258 1.344,0.363 -0.063,-0.383 -0.133,-0.785 -0.242,-1.191 0.422,0.25 0.824,0.488 1.207,0.761"
         style="fill:#d29e17;fill-opacity:1;fill-rule:nonzero;stroke:none"
         id="path90" /><path
         d="m 244.645,207.098 c 0.199,0.066 0.359,0.136 0.562,0.226 0.469,-0.586 1.164,-0.789 1.867,-0.437 0.156,-0.242 0.313,-0.457 0.489,-0.735 -0.176,-0.086 -0.473,-0.199 -0.625,-0.32 -0.567,0.273 -1.145,0.547 -1.731,0.773 0.039,-0.433 0.16,-0.855 0.215,-1.261 -0.418,0.219 -0.844,0.449 -1.274,0.699 0.133,0 0.383,0.023 0.524,0.023 0,0.364 0,0.715 -0.027,1.032"
         style="fill:#11100e;fill-opacity:1;fill-rule:nonzero;stroke:none"
         id="path92" /><path
         d="m 247.738,207.41 c 2.36,-0.531 4.723,-1.238 6.907,-2.344 0.582,-0.269 0.847,-0.855 1.074,-1.386 0.015,-0.992 0.015,-1.938 -0.047,-2.922 -0.356,-1.125 -1.141,-2.113 -1.926,-3.039 -1.172,2.719 -4.32,2.859 -6.742,1.769 1.234,2.453 1.57,5.266 0.734,7.922"
         style="fill:#d19f16;fill-opacity:1;fill-rule:nonzero;stroke:none"
         id="path94" /><path
         d="m 237.566,205.832 c 0.313,-0.172 0.594,-0.387 0.946,-0.586 0.043,-0.129 0.062,-0.351 0.093,-0.492 -0.445,-0.68 -0.476,-1.566 -0.05,-2.285 0.398,-1.371 1.211,-2.656 2.476,-3.379 -0.437,-0.094 -0.863,-0.227 -1.242,-0.356 -1.726,1.844 -3.301,4.582 -2.223,7.098"
         style="fill:#548fd2;fill-opacity:1;fill-rule:nonzero;stroke:none"
         id="path96" /><path
         d="m 222.012,205.594 c 0.566,-0.25 1.129,-0.477 1.687,-0.656 -0.07,-0.141 -0.16,-0.36 -0.226,-0.477 -0.246,-0.07 -0.625,-0.231 -0.852,-0.297 -0.203,0.453 -0.402,0.953 -0.609,1.43"
         style="fill:#b1881d;fill-opacity:1;fill-rule:nonzero;stroke:none"
         id="path98" /><path
         d="m 247.246,205.316 c 0.141,0 0.34,0 0.469,0 -0.129,-2.089 -0.641,-4.242 -2.195,-5.796 0.851,1.871 1.8,3.707 1.726,5.796"
         style="fill:#518bd1;fill-opacity:1;fill-rule:nonzero;stroke:none"
         id="path100" /><path
         d="m 260.688,204.711 c 0.625,0.316 1.273,0.605 1.96,0.852 -0.144,-1.172 -1.046,-1.911 -1.96,-0.852"
         style="fill:#a17b1e;fill-opacity:1;fill-rule:nonzero;stroke:none"
         id="path102" /><path
         d="m 227.215,204.848 c 0.508,-0.387 0.91,-0.856 1.086,-1.485 -0.598,0 -1.25,0.024 -1.875,0.024 0.265,0.484 0.519,0.984 0.789,1.461"
         style="fill:#84671f;fill-opacity:1;fill-rule:nonzero;stroke:none"
         id="path104" /><path
         d="m 238.555,202.469 c -0.426,0.719 -0.395,1.605 0.05,2.285 0.192,-0.746 0.192,-1.527 -0.05,-2.285"
         style="fill:#11100e;fill-opacity:1;fill-rule:nonzero;stroke:none"
         id="path106" /><path
         d="m 239.809,204.461 c 1.828,0.117 3.629,0.117 5.418,0 0,-0.59 0,-1.172 0,-1.727 -1.789,-0.089 -3.59,-0.089 -5.418,0 0,0.582 0,1.164 0,1.727"
         style="fill:#992620;fill-opacity:1;fill-rule:nonzero;stroke:none"
         id="path108" /><path
         d="m 256.637,204.125 c 0.164,0.105 0.476,0.336 0.66,0.48 0.293,-0.304 0.582,-0.597 0.918,-0.882 -0.606,-0.137 -1.145,-0.274 -1.707,-0.36 0.019,0.172 0.09,0.578 0.129,0.762"
         style="fill:#a57d1f;fill-opacity:1;fill-rule:nonzero;stroke:none"
         id="path110" /><path
         d="m 222.867,203.809 c 0.274,0.199 0.543,0.402 0.785,0.632 0.11,-0.632 0.2,-1.214 0.286,-1.836 -0.641,0.129 -0.887,0.665 -1.071,1.204"
         style="fill:#b1881d;fill-opacity:1;fill-rule:nonzero;stroke:none"
         id="path112" /><path
         d="m 255.719,203.68 c 0.289,0.129 0.605,0.312 0.918,0.445 -0.039,-0.184 -0.11,-0.59 -0.129,-0.762 0.562,0.086 1.101,0.223 1.707,0.36 0.09,-0.094 0.297,-0.313 0.387,-0.407 -0.231,-0.269 -0.493,-0.519 -0.723,-0.781 0,0.133 -0.024,0.383 -0.063,0.512 -0.359,0 -0.726,0 -1.082,0 -0.027,-0.129 -0.097,-0.402 -0.136,-0.539 -0.09,0.051 -0.371,0.226 -0.453,0.289 -0.18,-0.695 -0.27,-1.344 -0.473,-2.039 0.062,0.984 0.062,1.93 0.047,2.922"
         style="fill:#11100e;fill-opacity:1;fill-rule:nonzero;stroke:none"
         id="path114" /><path
         d="m 260.926,203.898 c 0.656,0.364 0.808,-0.941 0.183,-0.98 -0.449,0.039 -0.492,0.734 -0.183,0.98"
         style="fill:#c69619;fill-opacity:1;fill-rule:nonzero;stroke:none"
         id="path116" /><path
         d="m 201.344,203.09 c 3.066,-0.621 6.019,1.121 9.058,0.359 1.563,-0.261 2.356,-1.996 4,-2.058 0.383,-0.293 0.789,-0.543 1.168,-0.852 0.157,-0.367 0.336,-0.676 0.52,-1.051 -1.496,-1.523 -0.715,-3.816 -1.727,-5.523 -0.75,-1.57 -2.593,-2.02 -3.601,-3.356 -0.633,2.039 0.426,4.036 1.035,5.899 0.168,0.851 1.457,1.555 0.914,2.426 -0.586,-0.2 -0.746,-0.86 -1.074,-1.321 -1.641,-3.148 -4.496,-5.668 -7.817,-6.894 -0.922,-0.383 -1.98,-0.16 -2.761,0.383 -1.575,1.164 -3.289,2.261 -4.293,3.992 0.218,-0.039 0.644,-0.172 0.875,-0.274 0.636,-0.175 1.277,-0.304 1.933,-0.375 3.395,0.719 6.543,2.625 8.985,5.043 -2.629,0.422 -6.067,0.75 -7.215,3.602"
         style="fill:#a6bce5;fill-opacity:1;fill-rule:nonzero;stroke:none"
         id="path118" /><path
         d="m 273.016,202.605 c 3.414,1.875 7.047,-0.363 10.652,0.266 -1.438,-2.601 -4.641,-3.219 -7.371,-3.058 2.312,-2.36 5.312,-4.161 8.68,-4.29 0.07,-0.289 0.222,-0.832 0.289,-1.078 -0.239,-0.652 -0.641,-1.285 -1.102,-1.863 -3.344,-1.844 -6.699,1.34 -8.828,3.656 0.266,-1.547 0.398,-3.129 0.242,-4.648 -2.25,1.484 -4.961,3.574 -4.555,6.601 0.137,1.211 -0.117,3.2 -1.574,3.329 -1.371,0.132 -2.722,-0.176 -3.847,-0.942 l -0.493,-0.18 c 1.055,3.254 5.215,2.989 7.907,2.207"
         style="fill:#44a3da;fill-opacity:1;fill-rule:nonzero;stroke:none"
         id="path120" /><path
         d="m 226.492,203.137 c 0.559,0 1.074,0 1.633,0 -0.062,-0.18 -0.199,-0.532 -0.27,-0.719 -0.152,-0.109 -0.492,-0.316 -0.64,-0.402 -0.235,0.402 -0.496,0.761 -0.723,1.121"
         style="fill:#b88a1c;fill-opacity:1;fill-rule:nonzero;stroke:none"
         id="path122" /><path
         d="m 256.734,203.047 c 0.356,0 0.723,0 1.082,0 0.039,-0.129 0.063,-0.379 0.063,-0.512 -0.09,-0.164 -0.359,-0.433 -0.453,-0.566 -0.129,0.09 -0.403,0.222 -0.485,0.34 -0.117,0.019 -0.234,0.129 -0.343,0.199 0.039,0.137 0.109,0.41 0.136,0.539"
         style="fill:#d29e17;fill-opacity:1;fill-rule:nonzero;stroke:none"
         id="path124" /><path
         d="m 213.73,202.059 c 2.79,1.211 6.696,0.761 8.125,-2.246 1.372,-3.512 -0.511,-7.231 -2.945,-9.754 -0.555,-0.758 -1.855,-1.391 -1.273,-2.465 2.136,2.199 4.742,4.222 8,4.09 -0.434,-0.743 -0.899,-1.481 -1.442,-2.157 -1.054,-0.953 -2,-2.074 -2.718,-3.312 0.429,-0.063 0.878,-0.106 1.3,-0.149 0.45,-0.097 0.946,-0.211 1.438,-0.312 -0.301,-0.59 -0.625,-1.133 -0.918,-1.699 0.918,-0.129 1.84,-0.27 2.723,-0.52 0.066,-0.242 0.175,-0.66 0.195,-0.887 -3.66,-0.921 -6.867,2.34 -10.445,1.168 -0.512,-0.367 -1.004,-0.742 -1.551,-1.109 -0.172,0.297 -0.387,0.606 -0.586,0.949 -1.117,4.489 2.769,8.246 3.086,12.582 0.066,1.453 0.226,3.395 -1.149,4.301 -0.379,0.309 -0.785,0.559 -1.168,0.852 -0.25,0.195 -0.48,0.425 -0.672,0.668"
         style="fill:#44a3da;fill-opacity:1;fill-rule:nonzero;stroke:none"
         id="path126" /><path
         d="m 223.563,202.535 c 0.199,-0.066 0.632,-0.164 0.863,-0.207 0.355,-0.176 0.691,-0.387 1.058,-0.539 0.243,-0.18 0.512,-0.336 0.805,-0.492 -0.633,-0.317 -1.215,-0.559 -1.844,-0.805 -0.297,0.668 -0.609,1.344 -0.882,2.043"
         style="fill:#bb8d1b;fill-opacity:1;fill-rule:nonzero;stroke:none"
         id="path128" /><path
         d="m 227.215,202.016 c 0.148,0.086 0.488,0.293 0.64,0.402 0.098,-0.266 0.161,-0.582 0.227,-0.832 -1.102,-0.426 -2.445,-0.715 -3.23,-1.676 1.168,0.238 2.246,0.828 3.289,1.434 0.347,-1.262 0.476,-2.567 0.074,-3.824 -0.512,-0.051 -1.051,-0.067 -1.567,-0.141 -0.062,-0.176 -0.222,-0.621 -0.308,-0.852 -0.32,0.633 -0.613,1.215 -0.926,1.801 l 0.223,0.09 c 0.879,0.133 0.09,1.492 -0.5,0.879 l -0.266,-0.141 c -0.18,0.438 -0.297,0.856 -0.426,1.336 0.629,0.246 1.211,0.488 1.844,0.805 -0.293,0.156 -0.562,0.312 -0.805,0.492 0.579,-0.047 1.164,0 1.731,0.227"
         style="fill:#100f0d;fill-opacity:1;fill-rule:nonzero;stroke:none"
         id="path130" /><path
         d="m 260.324,202.309 c 0.172,0.019 0.473,0.16 0.625,0.226 -0.222,-0.719 -0.492,-1.414 -0.738,-2.137 -0.676,0.274 -1.34,0.563 -1.922,0.946 0.66,0.308 1.367,0.625 2.035,0.965"
         style="fill:#d29e17;fill-opacity:1;fill-rule:nonzero;stroke:none"
         id="path132" /><path
         d="m 239.855,202.082 c 1.735,0.094 3.461,0.16 5.219,0 -1.508,-0.113 -1.707,-1.141 -2.109,-2.34 -0.098,0.656 -0.16,1.356 -0.188,2 -0.191,0 -0.558,-0.023 -0.757,-0.023 -0.067,-0.645 -0.161,-1.281 -0.27,-1.957 -0.289,1.086 -0.609,2.16 -1.895,2.32"
         style="fill:#a63821;fill-opacity:1;fill-rule:nonzero;stroke:none"
         id="path134" /><path
         d="m 256.941,202.309 c 0.082,-0.118 0.356,-0.25 0.485,-0.34 0.254,-0.18 0.547,-0.399 0.863,-0.625 0.582,-0.383 1.246,-0.672 1.922,-0.946 -0.117,-0.636 -0.43,-1.101 -0.832,-1.535 -0.152,1.149 -1.008,0 -0.617,-0.625 0.066,-0.164 0.133,-0.547 0.168,-0.769 -0.762,0.672 -1.703,1.039 -2.653,1.265 l -0.113,0.043 0.305,0.219 c 0.472,0.313 0.847,0.746 1.211,1.176 -0.492,0.207 -0.973,0.367 -1.477,0.566 0.16,0.559 0.434,1.078 0.738,1.571"
         style="fill:#100f0d;fill-opacity:1;fill-rule:nonzero;stroke:none"
         id="path136" /><path
         d="m 224.852,199.91 c 0.785,0.961 2.128,1.25 3.23,1.676 l 0.059,-0.242 c -1.043,-0.606 -2.121,-1.196 -3.289,-1.434"
         style="fill:#d29e17;fill-opacity:1;fill-rule:nonzero;stroke:none"
         id="path138" /><path
         d="m 231.793,201.121 c 1.57,0.531 3.773,1.031 4.875,-0.582 -1.66,0.332 -3.441,0.535 -5.016,-0.269 0.051,0.222 0.125,0.621 0.141,0.851"
         style="fill:#a43420;fill-opacity:1;fill-rule:nonzero;stroke:none"
         id="path140" /><path
         d="m 248.012,200.539 c 0.449,0.535 0.949,1.25 1.726,1.031 1.215,-0.14 2.934,0.246 3.489,-1.191 -1.707,0.469 -3.489,0.562 -5.215,0.16"
         style="fill:#a23020;fill-opacity:1;fill-rule:nonzero;stroke:none"
         id="path142" /><path
         d="m 256.637,201.43 c 1.218,-0.309 2.363,-0.852 3.371,-1.617 -1.18,0.308 -2.711,0.539 -3.371,1.617"
         style="fill:#d29e17;fill-opacity:1;fill-rule:nonzero;stroke:none"
         id="path144" /><path
         d="m 265.602,200.578 c 1.125,0.766 2.476,1.074 3.847,0.942 -1.715,-4.903 1.281,-9.528 2.645,-14.114 2.57,1.168 5.527,3.422 8.379,1.895 1.578,-1.227 2.25,-3.547 1.578,-5.406 -0.492,-0.18 -0.735,0.41 -1.074,0.648 -1.235,1.293 -3.223,0.961 -4.747,0.602 1.079,-0.793 1.731,-2.012 1.368,-3.356 -1.66,0.59 -3.477,0.859 -5.223,0.359 0.227,1.438 0.285,2.926 0.148,4.36 -0.296,-0.871 -0.492,-1.742 -0.714,-2.66 -0.59,1.316 -1.985,2.082 -3.368,2.238 -2.277,0.023 -4.007,-2.031 -6.3,-1.637 -0.364,0.137 -0.692,0.317 -1.055,0.453 0.625,1.164 1.855,1.68 2.926,2.239 -1.364,0.043 -2.793,0.16 -4.117,0.625 -0.844,0.589 -1.504,1.406 -2.215,2.125 -0.071,0.265 -0.223,0.718 -0.293,0.937 1.73,-0.133 3.433,0 5.191,-0.133 -0.637,0.629 -1.758,1.434 -1.512,2.399 1.825,0.738 3.614,-0.512 5.157,-1.461 -1.602,2.601 -3.407,6.441 -0.621,8.945"
         style="fill:#a6bce5;fill-opacity:1;fill-rule:nonzero;stroke:none"
         id="path146" /><path
         d="m 227.074,200.398 c 0.356,0.141 0.688,0.274 1.051,0.411 0,-0.59 0.016,-1.176 0.016,-1.786 -0.661,0.133 -0.868,0.84 -1.067,1.375"
         style="fill:#d29e17;fill-opacity:1;fill-rule:nonzero;stroke:none"
         id="path148" /><path
         d="m 256.203,200.738 c 0.504,-0.199 0.985,-0.359 1.477,-0.566 -0.364,-0.43 -0.739,-0.863 -1.211,-1.176 -0.082,0.598 -0.172,1.152 -0.266,1.742"
         style="fill:#d29e17;fill-opacity:1;fill-rule:nonzero;stroke:none"
         id="path150" /><path
         d="m 227.215,198.801 c -1.059,-0.434 -1.641,1.199 -0.477,1.437 0.184,-0.476 0.403,-0.929 0.477,-1.437"
         style="fill:#d29e17;fill-opacity:1;fill-rule:nonzero;stroke:none"
         id="path152" /><path
         d="m 233.699,199.91 c 0.805,0.043 0.949,-0.863 1.262,-1.402 -0.156,-0.199 -0.313,-0.41 -0.52,-0.582 0.336,0.039 0.645,0.137 0.985,0.215 0.746,0.168 1.512,0.297 2.297,0.367 0.691,0.066 1.371,0.137 2.066,0.226 0.379,0.129 0.805,0.262 1.242,0.356 0.762,0.047 1.555,0 2.336,-0.067 0.492,-0.117 1,-0.289 1.528,-0.425 -0.793,-0.024 -1.594,-0.137 -2.379,-0.231 4.125,0.051 8.054,-1.164 12.058,-1.969 0.535,-0.136 1.098,-0.308 1.629,-0.535 0.305,-0.191 0.555,-0.359 0.867,-0.558 -0.175,-0.66 -0.175,-1.36 -0.117,-2.012 -0.219,-0.043 -0.656,-0.082 -0.879,-0.133 0.09,-0.449 0.129,-0.933 0.203,-1.394 l -0.402,0.136 c -1.484,0.547 -2.937,1.106 -4.445,1.528 -1.692,0.449 -3.348,0.765 -5.09,0.765 -0.527,0.02 -1.043,0.02 -1.563,0.039 -5.64,0.411 -11.289,-0.652 -16.562,-2.55 0.055,0.492 0.074,0.984 0.086,1.476 -0.219,0.051 -0.664,0.09 -0.891,0.133 0.07,0.43 0.133,0.902 0.227,1.352 -0.227,0.449 -0.496,0.898 -0.715,1.375 0.086,-0.071 0.293,-0.227 0.379,-0.297 0.492,0.07 0.969,0.179 1.414,0.316 0.625,0.262 1.207,0.539 1.844,0.719 1.093,0.402 2.25,0.695 3.382,1.074 -0.109,0.719 -0.312,1.344 -0.242,2.078"
         style="fill:#a67e1e;fill-opacity:1;fill-rule:nonzero;stroke:none"
         id="path154" /><path
         d="m 250.137,199.723 c 0.211,0.019 0.636,0.09 0.863,0.16 -0.047,-0.231 -0.047,-0.664 -0.07,-0.86 0,-0.335 -0.067,-0.949 -0.11,-1.281 0.36,-0.09 0.746,-0.179 1.106,-0.312 0.875,-0.317 1.75,-0.629 2.648,-1.032 -4.004,0.805 -7.933,2.02 -12.058,1.969 0.785,0.094 1.586,0.207 2.379,0.231 1.636,-0.09 3.273,-0.317 4.914,-0.657 0.109,0.61 0.199,1.196 0.328,1.782"
         style="fill:#cc9b18;fill-opacity:1;fill-rule:nonzero;stroke:none"
         id="path156" /><path
         d="m 257.246,198.863 c 0.344,0.59 0.57,1.407 1.426,1.047 -0.16,-0.457 -0.367,-0.887 -0.524,-1.336 -0.293,0.094 -0.605,0.203 -0.902,0.289"
         style="fill:#d29e17;fill-opacity:1;fill-rule:nonzero;stroke:none"
         id="path158" /><path
         d="m 283.172,199.176 c 1.492,1.582 4.851,0.836 5.512,-1.391 0.328,-0.765 -0.508,-1.289 -0.887,-1.902 -1.129,-1.192 -1.969,-2.809 -3.633,-3.301 0.461,0.578 0.863,1.211 1.102,1.863 0.601,1.934 -0.856,3.496 -2.094,4.731"
         style="fill:#a6bce5;fill-opacity:1;fill-rule:nonzero;stroke:none"
         id="path160" /><path
         d="m 225.137,199.297 c 0.59,0.613 1.379,-0.746 0.5,-0.879 -0.137,0.227 -0.364,0.672 -0.5,0.879"
         style="fill:#d29e17;fill-opacity:1;fill-rule:nonzero;stroke:none"
         id="path162" /><path
         d="m 235.363,199.633 c 0.852,-0.231 1.664,-0.543 2.36,-1.125 -0.785,-0.07 -1.551,-0.199 -2.297,-0.367 -0.02,0.504 -0.063,0.996 -0.063,1.492"
         style="fill:#518ad0;fill-opacity:1;fill-rule:nonzero;stroke:none"
         id="path164" /><path
         d="m 258.762,198.238 c -0.391,0.625 0.465,1.774 0.617,0.625 -0.152,-0.175 -0.449,-0.445 -0.617,-0.625"
         style="fill:#d29e17;fill-opacity:1;fill-rule:nonzero;stroke:none"
         id="path166" /><path
         d="m 225.953,197.52 c 0.203,0.988 1.527,0.941 2.262,1.308 -0.223,-1.019 -1.477,-0.996 -2.262,-1.308"
         style="fill:#d29e17;fill-opacity:1;fill-rule:nonzero;stroke:none"
         id="path168" /><path
         d="m 250.93,199.023 c 0.746,-0.289 1.379,-0.785 1.871,-1.429 -0.227,-0.031 -0.653,-0.125 -0.875,-0.164 -0.36,0.133 -0.746,0.222 -1.106,0.312 0.043,0.332 0.11,0.946 0.11,1.281"
         style="fill:#4a7ec9;fill-opacity:1;fill-rule:nonzero;stroke:none"
         id="path170" /><path
         d="m 196.426,196.238 c 0.429,1.836 2.543,2.758 4.273,2.313 -0.636,-1.301 -1.078,-2.668 -1.125,-4.106 -0.656,0.071 -1.297,0.2 -1.933,0.375 -0.453,0.453 -1.008,0.832 -1.215,1.418"
         style="fill:#3f78c2;fill-opacity:1;fill-rule:nonzero;stroke:none"
         id="path172" /><path
         d="m 256.277,198.734 c 0.95,-0.226 1.891,-0.593 2.653,-1.265 -0.914,0.222 -2.293,0.144 -2.653,1.265"
         style="fill:#d29e17;fill-opacity:1;fill-rule:nonzero;stroke:none"
         id="path174" /><path
         d="m 228.848,198.191 c 0.558,-0.472 1.144,-0.941 1.711,-1.433 -0.637,-0.18 -1.219,-0.457 -1.844,-0.719 0.027,0.719 0.062,1.43 0.133,2.152"
         style="fill:#3b63b6;fill-opacity:1;fill-rule:nonzero;stroke:none"
         id="path176" /><path
         d="m 254.574,196.398 c 0.43,0.602 0.848,1.122 1.281,1.676 0.29,-0.738 0.532,-1.547 0.719,-2.351 l -0.371,0.14 c -0.531,0.227 -1.094,0.399 -1.629,0.535"
         style="fill:#426cbb;fill-opacity:1;fill-rule:nonzero;stroke:none"
         id="path178" /><path
         d="m 226.648,197.379 c 0.516,0.074 1.055,0.09 1.567,0.141 -0.289,-0.629 -0.625,-1.219 -0.914,-1.797 -0.086,0.07 -0.293,0.226 -0.379,0.297 -0.137,0.132 -0.43,0.378 -0.582,0.507 0.086,0.231 0.246,0.676 0.308,0.852"
         style="fill:#d29e17;fill-opacity:1;fill-rule:nonzero;stroke:none"
         id="path180" /><path
         d="m 235.406,197.09 c 1.516,0.14 3.008,0.473 4.516,0.43 -0.113,-0.09 -0.274,-0.317 -0.356,-0.43 -0.472,0.07 -0.902,0.14 -1.332,0.211 0,-0.453 0,-0.953 0,-1.418 0.719,0.109 1.532,0.25 2.18,-0.231 -0.246,-0.007 -0.648,-0.058 -0.898,-0.109 -1.141,-0.039 -2.239,-0.18 -3.364,-0.27 0.426,0.817 0,1.438 -0.746,1.817"
         style="fill:#d19f16;fill-opacity:1;fill-rule:nonzero;stroke:none"
         id="path182" /><path
         d="m 256.441,197.691 c 0.649,-0.171 1.286,-0.332 1.887,-0.488 -0.219,-0.625 -0.512,-1.211 -0.902,-1.699 -0.426,0.668 -0.762,1.387 -0.985,2.187"
         style="fill:#b1881d;fill-opacity:1;fill-rule:nonzero;stroke:none"
         id="path184" /><path
         d="m 233.41,195.453 c 0.422,0.41 1.012,0.496 1.551,0.567 -0.52,-0.207 -1.043,-0.375 -1.551,-0.567"
         style="fill:#100f0d;fill-opacity:1;fill-rule:nonzero;stroke:none"
         id="path186" /><path
         d="m 249.496,196.02 c 0.379,-0.071 0.801,-0.118 1.215,-0.157 0.062,-0.09 0.152,-0.34 0.172,-0.429 -0.453,0.211 -0.938,0.379 -1.387,0.586"
         style="fill:#100f0d;fill-opacity:1;fill-rule:nonzero;stroke:none"
         id="path188" /><path
         d="m 240.414,195.652 c 0.594,0 1.223,0.02 1.805,0.071 0.879,-0.071 1.769,0 2.625,-0.289 -1.77,-0.02 -3.574,-0.27 -5.328,0.109 0.25,0.051 0.652,0.102 0.898,0.109"
         style="fill:#100f0d;fill-opacity:1;fill-rule:nonzero;stroke:none"
         id="path190" /><path
         d="m 228.215,191.684 c 5.273,1.898 10.922,2.961 16.562,2.55 0.18,-0.152 0.43,-0.312 0.645,-0.492 -1.211,-0.039 -2.457,-0.133 -3.492,-0.804 2.218,0.406 4.511,-0.399 6.668,0.425 0.066,-0.695 0.047,-1.371 0,-2.062 -1.172,-0.43 -1.868,-1.242 -0.137,-1.375 1.055,-1.488 0.539,-3.477 0.762,-5.16 -0.332,-0.274 -0.649,-0.543 -1.012,-0.821 0.434,-2.648 1.074,-5.238 1.637,-7.882 -2.895,0.519 -2.043,4.382 -3.043,6.496 -0.293,-0.129 -0.594,-0.27 -0.879,-0.45 0.355,-1.82 0.715,-3.683 1.027,-5.55 -0.512,-0.157 -1.078,-0.36 -1.586,-0.567 2.219,0.098 4.664,-0.043 6.309,-1.746 1.054,-1.262 1.398,-2.93 1.054,-4.496 -0.507,0 -1.054,0 -1.574,0 0.153,1.125 0.43,2.539 -0.566,3.383 -1.305,1.086 -3.164,0.887 -4.645,0.308 0.207,-1.222 0.426,-2.433 0.633,-3.652 -0.496,-0.019 -1.019,-0.039 -1.504,-0.078 -0.297,0.941 -0.496,1.875 -0.656,2.871 -1.215,-0.883 -2.398,-1.863 -3.57,-2.812 -0.114,-0.059 -0.344,-0.239 -0.473,-0.329 -0.137,-0.089 -0.363,-0.277 -0.496,-0.359 -0.453,-0.316 -0.871,-0.644 -1.305,-1.008 -2.035,-1.578 -4.496,-2.883 -7.07,-3.148 -0.824,0.504 -1.145,1.539 -1.441,2.418 -0.18,1.242 -0.211,2.496 -0.071,3.734 0.024,2.176 3.371,3.777 1.219,5.727 -1.359,2.347 -2.543,4.722 -4.16,6.871 -0.129,-0.02 -0.403,-0.047 -0.535,-0.09 l -0.496,-0.051 c 0.269,0.231 0.539,0.449 0.781,0.688 -0.215,0.398 -0.442,0.765 -0.645,1.14 0.133,0.071 0.473,0.203 0.582,0.274 -1.308,0.293 -2.613,0.379 -3.961,0.429 -0.422,0.043 -0.871,0.086 -1.3,0.149 0.718,1.238 1.664,2.359 2.718,3.312 1.289,0.809 2.496,1.883 4.02,2.157"
         style="fill:#87a2c0;fill-opacity:1;fill-rule:nonzero;stroke:none"
         id="path192" /><path
         d="m 244.777,194.234 c 0.52,-0.019 1.036,-0.019 1.563,-0.039 0.797,-0.23 1.535,-0.492 2.258,-0.832 -2.157,-0.824 -4.45,-0.019 -6.668,-0.425 1.035,0.671 2.281,0.765 3.492,0.804 -0.215,0.18 -0.465,0.34 -0.645,0.492"
         style="fill:#778fa9;fill-opacity:1;fill-rule:nonzero;stroke:none"
         id="path194" /><path
         d="m 246.34,194.195 c 1.742,0 3.398,-0.316 5.09,-0.765 -1.082,-0.535 -1.867,-1.485 -2.832,-2.129 0.047,0.691 0.066,1.367 0,2.062 -0.723,0.34 -1.461,0.602 -2.258,0.832"
         style="fill:#242656;fill-opacity:1;fill-rule:nonzero;stroke:none"
         id="path196" /><path
         d="m 248.598,191.301 c 0.965,0.644 1.75,1.594 2.832,2.129 1.508,-0.422 2.961,-0.981 4.445,-1.528 0.566,-0.718 1.125,-1.379 1.805,-2.011 0.711,-0.719 1.371,-1.536 2.215,-2.125 0.832,-0.582 1.769,-0.719 2.703,-0.985 -0.211,-0.183 -0.657,-0.539 -0.864,-0.695 -0.382,0.066 -0.734,0.129 -1.14,0.156 0.156,-0.406 0.332,-0.879 0.492,-1.34 0.363,-0.136 0.691,-0.316 1.055,-0.453 0.953,-0.465 2.004,-0.773 3.007,-1.086 1.891,-1.015 4.016,-0.41 5.942,0.086 -0.223,-1.23 -0.637,-2.465 -1.281,-3.578 -1.411,-2.664 -5.008,-1.664 -7.356,-0.996 -0.125,0.07 -0.375,0.277 -0.512,0.363 -1.777,1.348 -3.359,2.91 -4.574,4.817 -0.277,0.375 -0.496,0.73 -0.73,1.09 0.187,-2.321 0.097,-4.719 -0.918,-6.899 -2.356,2.07 -2.856,5.34 -2.781,8.313 -0.852,-1.836 -1.219,-3.954 -2.508,-5.575 -1.227,2.942 -1.539,6.375 -0.082,9.352 -0.633,-0.18 -1.254,-0.32 -1.887,-0.41 -1.731,0.133 -1.035,0.945 0.137,1.375"
         style="fill:#44a3da;fill-opacity:1;fill-rule:nonzero;stroke:none"
         id="path198" /><path
         d="m 234.574,187.184 c 3.508,1.687 7.219,3.687 11.239,3.425 1.21,0 1.011,-1.351 1.082,-2.214 -2.29,0.726 -4.59,-0.274 -6.754,-0.899 -1.586,-0.625 -3.403,-0.988 -4.696,-2.191 -0.89,-0.899 -0.668,-2.301 -0.718,-3.446 -0.493,0.727 -0.895,1.414 -1.43,2.086 0.191,-1.121 0.465,-2.238 0.535,-3.41 -0.824,1.121 -1.203,2.52 -2.242,3.41 1.219,-4.074 2.199,-8.355 1.773,-12.672 0.508,0.071 1.059,0.094 1.575,0.094 -0.704,-0.312 -1.379,-0.586 -2.09,-0.762 -0.289,-0.496 -0.586,-0.976 -0.914,-1.441 1.918,5.805 -0.993,12 -4.926,16.27 2.644,-0.43 5.437,0.07 7.566,1.75"
         style="fill:#100f0d;fill-opacity:1;fill-rule:nonzero;stroke:none"
         id="path200" /><path
         d="m 226.156,189.367 c 0.336,0.293 0.645,0.606 0.985,0.926 -0.133,-0.5 -0.289,-1.035 -0.422,-1.535 0.379,-0.137 0.761,-0.32 1.136,-0.473 -0.781,-0.031 -1.339,0.426 -1.699,1.082"
         style="fill:#11100e;fill-opacity:1;fill-rule:nonzero;stroke:none"
         id="path202" /><path
         d="m 248.461,189.926 c 0.633,0.09 1.254,0.23 1.887,0.41 -1.457,-2.977 -1.145,-6.41 0.082,-9.352 -0.133,-2.328 0.789,-4.496 1.246,-6.738 -1.645,1.703 -4.09,1.844 -6.309,1.746 0.508,0.207 1.074,0.41 1.586,0.567 -0.312,1.867 -0.672,3.73 -1.027,5.55 0.285,0.18 0.586,0.321 0.879,0.45 1,-2.114 0.148,-5.977 3.043,-6.496 -0.563,2.644 -1.203,5.234 -1.637,7.882 0.363,0.278 0.68,0.547 1.012,0.821 -0.223,1.683 0.293,3.672 -0.762,5.16"
         style="fill:#11100e;fill-opacity:1;fill-rule:nonzero;stroke:none"
         id="path204" /><path
         d="m 223.723,187.184 c 0.632,0.937 1.55,1.574 2.433,2.183 0.36,-0.656 0.918,-1.113 1.699,-1.082 1.415,-0.14 2.864,-0.109 4.27,-0.34 -0.914,-0.449 -1.883,-0.804 -2.914,-0.875 -1.488,0 -2.996,0 -4.473,0.024 -0.246,0 -0.746,0.09 -1.015,0.09"
         style="fill:#ea1b32;fill-opacity:1;fill-rule:nonzero;stroke:none"
         id="path206" /><path
         d="m 259.895,187.766 c 1.324,-0.465 2.753,-0.582 4.117,-0.625 -1.071,-0.559 -2.301,-1.075 -2.926,-2.239 -0.16,0.461 -0.336,0.934 -0.492,1.34 0.406,-0.027 0.758,-0.09 1.14,-0.156 0.207,0.156 0.653,0.512 0.864,0.695 -0.934,0.266 -1.871,0.403 -2.703,0.985"
         style="fill:#11100e;fill-opacity:1;fill-rule:nonzero;stroke:none"
         id="path208" /><path
         d="m 202.27,185.703 c 3.011,2.285 7.168,1.891 10.382,0.266 0.262,-1.52 -0.566,-3.321 0.418,-4.805 0.043,-0.086 0.114,-0.219 0.133,-0.312 -0.062,-0.137 -0.133,-0.45 -0.148,-0.633 -1.907,0.304 -3.801,0.304 -5.649,-0.27 -0.043,1.348 0.856,2.391 1.742,3.235 -2.242,0.582 -5.386,0.402 -6.605,-1.907 -0.07,-0.16 -0.25,-0.492 -0.297,-0.644 -0.539,1.617 0.227,3.402 0.024,5.07"
         style="fill:#44a3da;fill-opacity:1;fill-rule:nonzero;stroke:none"
         id="path210" /><path
         d="m 224.738,187.094 c 1.477,-0.024 2.985,-0.024 4.473,-0.024 -1.449,-0.289 -3.016,-0.289 -4.473,0.024"
         style="fill:#11100e;fill-opacity:1;fill-rule:nonzero;stroke:none"
         id="path212" /><path
         d="m 282.59,186.961 c 1.008,-2.238 1.008,-4.883 0.808,-7.324 -1.398,-2.141 -5.144,-2.114 -6.089,0.449 1.668,0.359 3.511,0.898 4.519,2.422 1.016,1.258 0.762,2.969 0.762,4.453"
         style="fill:#3f78c2;fill-opacity:1;fill-rule:nonzero;stroke:none"
         id="path214" /><path
         d="m 264.508,184.086 c 2.019,-0.16 4.09,-0.301 5.996,0.586 0.363,-0.824 0.969,-1.488 1.457,-2.203 -0.02,-1.172 -0.914,-2.024 -1.637,-2.832 -0.133,0.074 -0.375,0.16 -0.515,0.234 0.644,1.113 1.058,2.348 1.281,3.578 -1.926,-0.496 -4.051,-1.101 -5.942,-0.086 -0.214,0.223 -0.418,0.485 -0.64,0.723"
         style="fill:#3f77c2;fill-opacity:1;fill-rule:nonzero;stroke:none"
         id="path216" /><path
         d="m 212.984,184.621 c 0.219,-0.328 0.43,-0.637 0.649,-0.965 0.199,-0.343 0.414,-0.652 0.586,-0.949 2.726,-2.996 7.976,-4 11.195,-1.211 -3.332,-0.355 -6.504,0.383 -9.414,1.906 1.078,1.028 2.621,0.383 3.793,-0.039 1.863,-0.855 3.93,-1.164 5.98,-1.074 0.743,-0.07 0.586,0.844 0.743,1.297 0.132,0.043 0.406,0.07 0.535,0.09 1.617,-2.149 2.801,-4.524 4.16,-6.871 -2.07,-2.668 -4.652,-5.305 -8.07,-6.153 -0.157,2.008 0.797,3.782 1.906,5.391 -4.465,-1.926 -10.262,0.02 -11.844,4.809 -0.019,0.093 -0.09,0.226 -0.133,0.312 -0.222,1.125 -0.375,2.285 -0.086,3.457"
         style="fill:#a6bce5;fill-opacity:1;fill-rule:nonzero;stroke:none"
         id="path218" /><path
         d="m 215.77,183.816 c 3.578,1.172 6.785,-2.089 10.445,-1.168 -0.02,0.227 -0.129,0.645 -0.195,0.887 l 0.496,0.051 c -0.157,-0.453 0,-1.367 -0.743,-1.297 -2.05,-0.09 -4.117,0.219 -5.98,1.074 -1.172,0.422 -2.715,1.067 -3.793,0.039 -0.07,0.094 -0.152,0.274 -0.23,0.414"
         style="fill:#11100e;fill-opacity:1;fill-rule:nonzero;stroke:none"
         id="path220" /><path
         d="m 259.051,179.016 c -2.098,0.355 -2.61,3.363 -1.684,5.039 1.215,-1.907 2.797,-3.469 4.574,-4.817 -0.992,0.27 -1.933,-0.027 -2.89,-0.222"
         style="fill:#3f78c4;fill-opacity:1;fill-rule:nonzero;stroke:none"
         id="path222" /><path
         d="m 202.543,181.277 c 0.805,-2.218 2.895,-3.531 5.223,-3.64 -1.051,-2.203 -4.309,-2.492 -5.766,-0.61 -0.871,1.082 -0.184,2.481 0.246,3.606 0.047,0.152 0.227,0.484 0.297,0.644"
         style="fill:#a6bce5;fill-opacity:1;fill-rule:nonzero;stroke:none"
         id="path224" /><path
         d="m 259.051,179.016 c 0.957,0.195 1.898,0.492 2.89,0.222 0.137,-0.086 0.387,-0.293 0.512,-0.363 0.93,-1.512 0.981,-3.328 0.906,-5.035 -2.5,0.496 -4.898,2.379 -5.41,4.906 0.289,0.09 0.813,0.199 1.102,0.27"
         style="fill:#a6bce5;fill-opacity:1;fill-rule:nonzero;stroke:none"
         id="path226" /><path
         d="m 189.754,173.074 c 2.086,1.805 5.144,1.996 7.695,1.281 -1.043,0 -2.101,-0.019 -3.113,-0.148 -0.27,-0.59 -0.695,-1.094 -1.273,-1.422 1.074,-0.344 2.125,-0.695 3.132,-1.199 -1.765,-0.402 -3.859,1.922 -5.136,-0.016 1.73,-0.254 4.871,-0.832 3.769,-3.254 -0.062,0.411 -0.133,0.848 -0.152,1.305 -1.414,0.297 -2.785,0.625 -4.246,0.734 -4.024,-8.203 -7.188,-17.183 -6.535,-26.468 -0.34,-3.071 0.871,-5.996 1.097,-9.051 -3.332,9.613 -4.187,20.398 -1.328,30.242 0.902,3.27 2.313,7.27 6.09,7.996"
         style="fill:#996731;fill-opacity:1;fill-rule:nonzero;stroke:none"
         id="path228" /><path
         d="m 194.336,174.207 c 1.012,0.129 2.07,0.148 3.113,0.148 2.231,-0.582 4.117,-1.695 5.809,-3.242 0.07,-0.484 0.09,-0.984 0.14,-1.492 -0.703,-0.18 -1.398,-0.34 -2.074,-0.469 -0.047,-0.652 -0.07,-1.308 -0.07,-1.964 0.187,0.496 0.363,0.996 0.562,1.437 1.399,-1.25 2.774,-2.695 2.301,-4.781 -0.929,0.16 -1.847,0.379 -2.726,0.722 -0.672,-1.687 -2.625,-0.972 -3.551,0.063 -0.52,0.781 -0.723,1.715 -1.051,2.586 -0.543,-0.719 -0.789,-1.594 -0.816,-2.496 0.207,0.359 0.359,0.765 0.566,1.164 0.719,-1.254 1.461,-3.242 3.234,-2.863 1.442,0.445 2.942,0.445 4.415,0 1.027,-1.989 -0.547,-3.961 -0.071,-5.891 0.672,-2.379 -0.144,-4.938 0.293,-7.375 -1.351,-0.332 -1.937,-1.594 -1.551,-2.91 0.258,0.554 0.489,1.113 0.711,1.679 0.121,0 0.34,0.016 0.481,0.016 -0.047,-0.934 -0.047,-1.926 0.019,-2.926 -0.289,0.09 -0.566,0.2 -0.812,0.285 -0.34,-0.445 -0.633,-0.863 -0.903,-1.316 -0.062,1.012 -0.226,2.098 -1.031,2.746 0.02,-1.125 0.117,-2.226 0.223,-3.351 0.422,-0.149 0.855,-0.36 1.281,-0.539 0.18,0.589 0.141,1.945 0.992,1.171 -0.129,-0.812 -0.199,-1.636 -0.25,-2.433 -0.312,0.207 -0.672,0.476 -1.007,0.726 -0.208,-0.07 -0.563,-0.129 -0.747,-0.16 -0.316,0.43 -0.601,0.875 -0.894,1.356 -0.578,-0.41 -1.172,-0.789 -1.723,-1.196 -0.344,1.68 -1.519,1.215 -2.082,-0.019 -0.133,0.355 -0.262,0.734 -0.422,1.094 -0.132,-0.516 -0.269,-1.028 -0.379,-1.563 1.891,0.199 3.801,-0.09 5.547,-0.855 -0.023,-0.11 -0.047,-0.434 -0.09,-0.563 -2.355,0.34 -4.878,0.606 -7.144,-0.406 0.066,3.137 -0.852,6.226 -1.051,9.348 0.559,5.613 -0.226,11.472 2.133,16.8 -1.527,0.098 -2.738,-0.855 -4.117,-1.347 0.836,1.211 2.32,1.73 3.234,2.925 1.102,2.422 -2.039,3 -3.769,3.254 1.277,1.938 3.371,-0.386 5.136,0.016 -1.007,0.504 -2.058,0.855 -3.132,1.199 0.578,0.328 1.003,0.832 1.273,1.422"
         style="fill:#d5a45b;fill-opacity:1;fill-rule:nonzero;stroke:none"
         id="path230" /><path
         d="m 281.738,171.055 c 3.367,2.875 8.782,4.894 12.852,2.238 v -0.219 c 0,-0.652 0,-1.258 0,-1.89 -1.852,0.16 -5.485,-0.219 -4.332,-2.954 0.914,-1.269 2.512,-1.886 3.492,-3.175 -1.48,0.496 -2.777,1.859 -4.426,1.441 1.649,-3.656 2.051,-7.797 1.848,-11.746 0.586,-4.277 0.141,-8.594 -0.902,-12.758 -0.036,0.129 -0.157,0.332 -0.172,0.461 -0.332,0.856 -0.293,2.067 -1.332,2.43 -0.36,-0.633 -0.59,-1.332 -0.86,-1.981 -0.445,0.426 -0.863,0.895 -1.316,1.325 -0.274,-0.559 -0.543,-1.106 -0.762,-1.633 -0.512,0.578 -1.125,1.094 -1.871,1.383 -0.199,-0.426 -0.359,-0.856 -0.516,-1.235 -0.406,0.031 -0.777,0.071 -1.195,0.141 -0.066,-0.231 -0.195,-0.699 -0.246,-0.922 -0.102,0.031 -0.332,0.141 -0.465,0.16 l -0.019,0.223 c -0.118,0.695 -0.2,1.383 -0.278,2.066 0.762,1.137 0.922,-0.363 1.215,-0.972 0.137,0.113 0.36,0.398 0.492,0.539 0.16,-0.141 0.317,-0.25 0.496,-0.379 0,0.941 0.086,1.886 0.317,2.855 0.34,-0.707 0.652,-1.398 0.996,-2.07 0.023,0.289 0.133,0.812 0.156,1.07 0.184,-0.351 0.34,-0.711 0.5,-1.07 0.031,0.98 0.059,1.933 0.078,2.922 -0.238,-0.461 -0.461,-0.961 -0.711,-1.407 -0.453,0.418 -0.886,0.875 -1.308,1.297 -0.297,-0.879 -0.563,-1.781 -0.746,-2.656 -0.325,0.422 -0.606,0.824 -0.918,1.258 -0.356,-0.094 -0.762,-0.133 -1.121,-0.203 0.359,0.949 0.402,1.961 0.402,2.945 0.113,0 0.383,0 0.523,-0.016 0.129,-0.632 0.262,-1.261 0.418,-1.91 0.657,1.231 0.063,3.121 -1.613,2.782 0.852,2.796 -0.652,5.867 0.785,8.519 -0.156,1.145 -1.039,2.402 -0.156,3.434 0.785,0.55 1.801,0.625 2.695,0.984 -0.859,0.598 -1.91,0.051 -2.832,-0.129 0,0.199 0,0.586 0,0.789 1.492,0.473 3.051,0.27 4.563,-0.133 1.765,-0.16 2.418,1.817 3.129,3.024 0.144,-0.492 0.285,-0.981 0.414,-1.477 0.093,0.985 -0.18,1.887 -0.727,2.715 -0.379,-2 -1.625,-4.152 -3.988,-3.711 -0.199,0.434 -0.359,0.813 -0.539,1.266 -0.852,-0.453 -1.707,-0.832 -2.559,-1.211 -0.515,1.965 0.489,3.683 1.992,4.941 0.25,-0.402 0.477,-0.808 0.7,-1.191 0,0.758 -0.063,1.512 -0.582,2.086 -0.403,-0.27 -0.77,-0.535 -1.129,-0.848 0.066,0.313 0.14,0.578 0.199,0.828 -0.219,0.61 -0.418,1.192 -0.641,1.774"
         style="fill:#d3a658;fill-opacity:1;fill-rule:nonzero;stroke:none"
         id="path232" /><path
         d="m 195.102,173.887 c 0.453,-0.133 0.871,-0.27 1.304,-0.446 -0.269,-0.043 -0.836,-0.168 -1.125,-0.238 0.403,-0.129 0.785,-0.289 1.196,-0.418 -0.637,-0.344 -1.262,-0.164 -1.801,0.16 0.152,0.328 0.293,0.625 0.426,0.942"
         style="fill:#a16c31;fill-opacity:1;fill-rule:nonzero;stroke:none"
         id="path234" /><path
         d="m 245.945,173.441 c 1.481,0.579 3.34,0.778 4.645,-0.308 0.996,-0.844 0.719,-2.258 0.566,-3.383 -1.496,-0.039 -3.054,0.09 -4.578,0.039 -0.207,1.219 -0.426,2.43 -0.633,3.652"
         style="fill:#ea1b32;fill-opacity:1;fill-rule:nonzero;stroke:none"
         id="path236" /><path
         d="m 294.59,173.074 c 4.672,-0.414 6.289,-5.5 7.121,-9.383 2.133,-7.355 1.609,-15.128 0.207,-22.527 -0.566,-2.219 -0.785,-4.57 -1.871,-6.617 0.148,3.141 1.484,6.148 1.148,9.34 0.649,9.238 -2.57,18.246 -6.586,26.398 -1.437,-0.219 -2.851,-0.496 -4.269,-0.844 -0.02,-0.289 -0.07,-0.875 -0.082,-1.211 -1.153,2.735 2.48,3.114 4.332,2.954 0,0.632 0,1.238 0,1.89"
         style="fill:#9a6431;fill-opacity:1;fill-rule:nonzero;stroke:none"
         id="path238" /><path
         d="m 203.258,171.113 c 2.652,-1.363 3.707,-4.328 5.203,-6.683 0.234,0.246 0.437,0.472 0.656,0.691 0.723,-0.762 1.356,-1.617 1.867,-2.512 0.094,0.45 0.219,0.895 0.344,1.368 0,-0.696 0,-1.348 0.016,-2.004 0.144,-1.387 -0.016,-2.782 -0.449,-4.129 0.378,-0.067 0.742,-0.16 1.144,-0.27 -0.426,-0.851 -0.851,-1.715 -0.922,-2.672 0.137,-1.347 0.387,-2.711 0.156,-4.074 l -0.019,-0.355 c -0.051,-0.813 0,-1.602 0.074,-2.426 0.309,-0.09 0.66,-0.203 1.031,-0.313 -0.871,-0.761 -1.886,-1.339 -2.738,-2.121 -0.293,-1.273 1.301,-0.199 1.867,-0.09 0.016,-0.535 0.055,-1.003 0.078,-1.546 0.141,-0.02 0.399,-0.09 0.493,-0.141 -1.496,-1.004 -3.274,-1.652 -4.379,-3.16 -0.715,-1.059 -2.262,-0.426 -3.043,-1.231 -0.203,-1.035 1.051,-1.465 1.363,-2.336 -0.426,-0.023 -0.855,-0.023 -1.273,-0.07 -0.364,-1.418 1.316,-2.004 2.39,-1.961 -0.211,-1.058 -1.765,-1.48 -1.406,-2.715 0.129,-1.254 1.633,-0.898 2.484,-1.144 -0.203,-0.785 -1.191,-1.414 -0.879,-2.27 0.747,-0.289 1.582,0.028 2.364,0.071 0.019,-0.36 0.07,-0.762 0.121,-1.145 0.308,0.059 0.601,0.09 0.898,0.156 0.246,-0.363 0.504,-0.742 0.805,-1.105 0.648,0.586 1.055,1.371 1.387,2.183 1.32,-1.796 3.964,-1.347 5.375,0 0.875,1.579 -1.262,2.489 -2.36,3.059 0.879,0.289 1.953,0.508 2.785,-0.074 0.586,-0.946 0.219,-2.16 0.321,-3.215 1.929,-0.445 2.582,-2.641 1.258,-4.09 0.089,1.379 -0.696,2.684 -2.043,3.106 -1.645,-0.446 -3.375,-1.86 -3.461,-3.665 0.582,-1.058 1.929,-0.992 2.953,-1.082 -2.168,-1.253 -4.805,-0.421 -7.156,-0.398 0.64,1.395 -1.641,2.43 -0.629,3.418 -0.157,0.07 -0.313,0.137 -0.496,0.203 -0.583,-0.426 -1.215,-0.898 -1.829,-1.332 -0.043,-0.598 -0.105,-1.234 -0.136,-1.867 -0.828,0.187 -1.633,0.363 -2.434,0.613 0.672,0.039 1.367,0.11 2.078,0.149 0.071,0.828 -0.133,1.601 -0.558,2.254 0.367,-0.043 0.695,-0.153 1.05,-0.243 -0.265,0.45 -0.535,0.918 -0.824,1.344 -0.945,-0.672 -2.086,-0.785 -3.164,-0.488 1.016,0.359 2.176,0.488 2.984,1.316 -0.847,0.387 -1.617,-0.101 -2.257,-0.644 -0.375,1.695 -1.875,2.621 -3.567,2.691 0.141,0.141 0.407,0.387 0.543,0.563 1.328,-0.793 2.793,-0.403 3.313,1.093 -0.926,-0.129 -1.809,-0.289 -2.707,-0.441 0.109,0.269 0.25,0.512 0.34,0.805 0.152,0 0.492,0.046 0.699,0.046 -0.141,0.247 -0.254,0.516 -0.317,0.739 -0.543,0.34 -1.105,0.629 -1.625,0.961 0.746,0.09 1.516,0.191 2.231,0.254 -2.004,1.796 -4.981,1.437 -7.149,0.117 -0.043,-0.481 -0.07,-0.922 -0.07,-1.352 -0.512,0.922 -0.851,1.934 -1.07,2.992 2.148,-1.484 4.16,1.239 6.441,0.454 -0.222,1.074 -0.195,2.148 0,3.203 -2.058,1.277 -4.644,0.992 -6.863,0.273 0.012,0.18 0.062,0.531 0.082,0.719 2.266,1.012 4.789,0.746 7.144,0.406 0.043,0.129 0.067,0.453 0.09,0.563 -1.746,0.765 -3.656,1.054 -5.547,0.855 0.11,0.535 0.247,1.047 0.379,1.563 0.16,-0.36 0.289,-0.739 0.422,-1.094 0.563,1.234 1.738,1.699 2.082,0.019 0.551,0.407 1.145,0.786 1.723,1.196 0.293,-0.481 0.578,-0.926 0.894,-1.356 0.184,0.031 0.539,0.09 0.747,0.16 0.335,-0.25 0.695,-0.519 1.007,-0.726 0.051,0.797 0.121,1.621 0.25,2.433 0.032,0.149 0.051,0.512 0.09,0.692 0.094,-0.36 0.231,-0.692 0.363,-1.031 0.516,0.25 1.008,0.472 1.524,0.718 0.066,-0.515 0.183,-1.031 0.246,-1.527 0.383,0.656 0.672,1.371 0.883,2.133 -0.211,0 -0.567,-0.071 -0.766,-0.071 0.199,1.043 0.039,2.094 -0.25,3.161 0.496,-0.434 0.875,-0.95 1.207,-1.508 1.235,1.457 -0.918,3.121 -0.062,4.871 -0.43,-0.625 -0.856,-1.219 -1.285,-1.84 0,0.691 -0.012,1.344 -0.012,2.051 -0.406,-0.067 -0.789,-0.113 -1.168,-0.16 0.379,0.382 0.762,0.742 1.168,1.125 0.172,-0.364 0.383,-0.719 0.582,-1.032 0.445,0.289 0.914,0.625 1.34,0.934 0.015,0.5 0.015,0.992 0.015,1.48 -0.129,-0.058 -0.418,-0.171 -0.578,-0.195 -0.133,-0.383 -0.262,-0.742 -0.402,-1.097 -0.07,0.121 -0.238,0.394 -0.309,0.531 -0.207,-0.176 -0.406,-0.41 -0.609,-0.621 -0.027,0.765 -0.027,1.527 -0.039,2.257 -0.406,-0.019 -0.789,-0.089 -1.168,-0.156 0.609,1.399 1.527,1.082 1.887,-0.261 0.148,0.082 0.289,0.171 0.429,0.261 -0.261,0.871 -0.261,1.805 -0.261,2.719 -0.504,-0.488 -0.957,-1.008 -1.375,-1.566 -0.055,0.945 -0.125,1.914 -0.192,2.871 -0.508,-0.649 -0.851,-1.41 -0.961,-2.219 -0.476,1.93 1.098,3.902 0.071,5.891 -1.473,0.445 -2.973,0.445 -4.415,0 -1.773,-0.379 -2.515,1.609 -3.234,2.863 -0.207,-0.399 -0.359,-0.805 -0.566,-1.164 0.027,0.902 0.273,1.777 0.816,2.496 0.328,-0.871 0.531,-1.805 1.051,-2.586 0.926,-1.035 2.879,-1.75 3.551,-0.063 0.879,-0.343 1.797,-0.562 2.726,-0.722 0.473,2.086 -0.902,3.531 -2.301,4.781 -0.199,-0.441 -0.375,-0.941 -0.562,-1.437 0,0.656 0.023,1.312 0.07,1.964 0.676,0.129 1.371,0.289 2.074,0.469 -0.05,0.508 -0.07,1.008 -0.14,1.492"
         style="fill:#9a6731;fill-opacity:1;fill-rule:nonzero;stroke:none"
         id="path240" /><path
         d="m 229.652,169.75 c 0.121,0.406 0.231,0.879 0.34,1.328 -0.14,-1.238 -0.109,-2.492 0.071,-3.734 -0.047,0.164 -0.141,0.57 -0.211,0.75 -0.02,0.277 -0.129,0.808 -0.2,1.058 -3.136,0.063 -6.242,0.012 -9.382,0 0,-1.058 -0.051,-2.054 0.07,-3.129 -0.34,0.18 -0.707,0.36 -1.039,0.54 0.558,0.945 0.402,2.113 0.531,3.097 3.281,0.051 6.547,0 9.82,0.09"
         style="fill:#11100e;fill-opacity:1;fill-rule:nonzero;stroke:none"
         id="path242" /><path
         d="m 276.652,164.336 c 1.399,2.449 2.621,5.144 5.086,6.719 0.223,-0.582 0.422,-1.164 0.641,-1.774 -0.059,-0.25 -0.133,-0.515 -0.199,-0.828 0.359,0.313 0.726,0.578 1.129,0.848 0.519,-0.574 0.582,-1.328 0.582,-2.086 -0.223,0.383 -0.45,0.789 -0.7,1.191 -1.503,-1.258 -2.507,-2.976 -1.992,-4.941 0.852,0.379 1.707,0.758 2.559,1.211 0.18,-0.453 0.34,-0.832 0.539,-1.266 2.363,-0.441 3.609,1.711 3.988,3.711 0.547,-0.828 0.82,-1.73 0.727,-2.715 -0.129,0.496 -0.27,0.985 -0.414,1.477 -0.711,-1.207 -1.364,-3.184 -3.129,-3.024 -1.512,0.403 -3.071,0.606 -4.563,0.133 0,-0.203 0,-0.59 0,-0.789 0.922,0.18 1.973,0.727 2.832,0.129 -0.894,-0.359 -1.91,-0.434 -2.695,-0.984 -0.883,-1.032 0,-2.289 0.156,-3.434 -1.437,-2.652 0.067,-5.723 -0.785,-8.519 1.676,0.339 2.27,-1.551 1.613,-2.782 -0.156,0.649 -0.289,1.278 -0.418,1.91 -0.14,0.016 -0.41,0.016 -0.523,0.016 0,-0.984 -0.043,-1.996 -0.402,-2.945 0.359,0.07 0.765,0.109 1.121,0.203 0.312,-0.434 0.593,-0.836 0.918,-1.258 0.183,0.875 0.449,1.777 0.746,2.656 0.422,-0.422 0.855,-0.879 1.308,-1.297 0.25,0.446 0.473,0.946 0.711,1.407 -0.019,-0.989 -0.047,-1.942 -0.078,-2.922 -0.16,0.359 -0.316,0.719 -0.5,1.07 -0.023,-0.258 -0.133,-0.781 -0.156,-1.07 -0.344,0.672 -0.656,1.363 -0.996,2.07 -0.231,-0.969 -0.317,-1.914 -0.317,-2.855 -0.179,0.129 -0.336,0.238 -0.496,0.379 -0.132,-0.141 -0.355,-0.426 -0.492,-0.539 -0.293,0.609 -0.453,2.109 -1.215,0.972 -0.484,-0.027 -0.937,-0.07 -1.41,-0.07 l -0.238,0.07 c 0.019,-1.101 0.281,-2.226 0.801,-3.211 0.062,0.422 0.132,0.852 0.203,1.285 0.312,-0.101 0.605,-0.23 0.941,-0.363 0.133,-0.019 0.363,-0.129 0.465,-0.16 0.051,0.223 0.18,0.691 0.246,0.922 0.418,-0.07 0.789,-0.11 1.195,-0.141 0.157,0.379 0.317,0.809 0.516,1.235 0.746,-0.289 1.359,-0.805 1.871,-1.383 0.219,0.527 0.488,1.074 0.762,1.633 0.453,-0.43 0.871,-0.899 1.316,-1.325 0.27,0.649 0.5,1.348 0.86,1.981 1.039,-0.363 1,-1.574 1.332,-2.43 0.015,-0.129 0.136,-0.332 0.172,-0.461 0.05,-0.137 0.183,-0.371 0.25,-0.504 -2.344,1.106 -5.364,1.254 -7.434,-0.492 2.473,0.203 5.004,0.453 7.391,-0.387 0,-0.265 0.043,-0.738 0.043,-1.011 -2.207,0.929 -4.692,1.058 -6.782,-0.153 0.141,-1.097 0.141,-2.207 -0.07,-3.32 2.25,1.074 4.195,-1.824 6.383,-0.434 -0.184,-0.949 -0.496,-1.871 -0.879,-2.742 -0.727,2.852 -5.137,2.953 -7.012,1.235 0.563,-0.063 1.149,-0.133 1.731,-0.184 -0.063,-0.18 -0.2,-0.562 -0.223,-0.762 -0.426,-0.019 -0.824,-0.093 -1.215,-0.136 -0.082,-0.356 -0.207,-0.668 -0.273,-1.008 0.41,-0.223 0.793,-0.446 1.148,-0.715 -0.855,0.023 -1.66,0.086 -2.508,0.203 0.157,-0.676 0.555,-1.219 1.051,-1.648 1.656,1.175 3.016,-0.188 4.156,-1.348 0.09,0.074 0.313,0.16 0.422,0.23 -0.16,-0.382 -0.351,-0.785 -0.582,-1.148 -0.762,0.789 -1.383,1.77 -2.359,2.285 -1.391,-0.207 -2.332,-1.273 -2.781,-2.504 -0.567,0.281 -1.118,0.629 -1.7,0.914 0.172,-0.468 0.348,-0.914 0.508,-1.39 1.481,0.562 2.426,-0.602 3.309,-1.59 -0.305,-0.203 -0.598,-0.434 -0.883,-0.653 -0.34,1.887 -2.133,1.797 -3.57,2.29 -0.34,-0.36 -0.637,-0.715 -0.926,-1.075 0.355,0.09 0.715,0.16 1.078,0.223 -0.742,-0.871 -0.602,-1.938 -0.023,-2.859 -0.34,-0.071 -0.633,-0.137 -0.942,-0.2 0.363,1.551 -0.742,2.473 -1.976,3.129 0.289,-0.765 0,-1.289 -0.739,-1.508 -0.066,-0.585 -0.109,-1.195 -0.179,-1.781 0.828,-0.019 1.613,-0.062 2.421,-0.09 -1.148,-0.714 -2.511,-0.07 -3.777,-0.332 -1.75,0 -3.672,-0.511 -5.316,0.262 0.945,0.32 1.812,0.856 2.676,1.395 -0.864,1.398 -1.797,2.855 -3.379,3.461 -1.637,0.25 -2.508,-1.477 -2.559,-2.883 -1.316,1.476 -0.453,3.535 1.344,4.035 0.09,1.078 -0.442,2.582 0.59,3.32 0.921,0.317 2.007,0.246 2.828,-0.316 -1.364,-0.219 -3.211,-1.25 -2.563,-2.903 1.375,-1.316 4.008,-1.5 5.215,0.211 0.309,-0.851 0.688,-1.777 1.484,-2.289 0.227,0.399 0.473,0.762 0.735,1.145 0.281,-0.07 0.527,-0.09 0.789,-0.141 -0.016,1.614 1.441,0.903 2.449,0.856 0.699,0.687 -0.383,1.484 -0.715,2.117 0.469,0.894 2.145,0.062 2.434,1.234 0.422,1.278 -0.887,1.93 -1.473,2.805 1.086,0.105 2.676,0.5 2.547,1.918 -0.445,0.152 -0.879,0.266 -1.324,0.332 0.5,0.574 1.027,1.176 1.453,1.816 -0.313,1.422 -2.289,0.473 -3.008,1.551 -1.176,1.539 -2.922,2.289 -4.519,3.235 0.222,0.562 0.453,1.121 0.726,1.695 0.621,-0.211 1.278,-0.422 1.93,-0.574 -0.336,1.246 -1.711,1.714 -2.563,2.519 0.399,0.922 0.539,1.934 0.43,2.918 -0.031,0.293 -0.031,0.582 -0.031,0.875 0.367,1.137 -0.039,2.344 0.59,3.426 -0.067,0.058 -0.16,0.203 -0.223,0.234 0.063,0.86 -0.227,1.664 -0.656,2.414 0.32,0.227 0.683,0.489 1.035,0.719 -0.555,1.277 -0.715,2.645 -0.492,4.008 0.047,0.687 0.047,1.359 0,2.035 0.113,-0.453 0.246,-0.898 0.336,-1.328 0.586,0.781 1.168,1.555 1.859,2.273 0.16,-0.183 0.516,-0.445 0.695,-0.566"
         style="fill:#9c6833;fill-opacity:1;fill-rule:nonzero;stroke:none"
         id="path244" /><path
         d="m 246.578,169.789 c 1.524,0.051 3.082,-0.078 4.578,-0.039 0.52,0 1.067,0 1.574,0 4.028,0 8.09,0.039 12.161,0 0.218,-1.164 -0.434,-2.695 0.574,-3.547 -0.317,-0.226 -0.574,-0.543 -0.867,-0.793 -0.09,1.285 -0.09,2.594 -0.164,3.871 -7.993,0.11 -16.067,-0.25 -24.059,0.16 0.129,0.09 0.359,0.27 0.473,0.329 1.394,0.019 2.808,-0.11 4.226,-0.059 0.485,0.039 1.008,0.059 1.504,0.078"
         style="fill:#131110;fill-opacity:1;fill-rule:nonzero;stroke:none"
         id="path246" /><path
         d="m 209.117,165.121 c 0.684,1.746 1.086,4.77 3.594,4.649 2.547,-0.141 4.41,-2.172 6.59,-3.207 0.332,-0.18 0.699,-0.36 1.039,-0.54 0.383,-1.035 0.644,-2.16 0.644,-3.281 -0.132,0.117 -0.402,0.379 -0.558,0.52 0.156,2.222 -2.41,1.64 -3.641,2.621 -1.41,0.742 -2.656,2.191 -4.363,1.961 -1.078,-0.989 -1.094,-2.535 -1.094,-3.867 -0.125,-0.473 -0.25,-0.918 -0.344,-1.368 -0.511,0.895 -1.144,1.75 -1.867,2.512"
         style="fill:#c69752;fill-opacity:1;fill-rule:nonzero;stroke:none"
         id="path248" /><path
         d="m 270.754,169.352 c 1.207,0.488 3.008,0.539 3.769,-0.766 0.649,-1.121 1.149,-2.434 1.434,-3.684 -0.691,-0.718 -1.273,-1.492 -1.859,-2.273 -0.09,0.43 -0.223,0.875 -0.336,1.328 -0.063,1.254 0.047,2.91 -1.18,3.727 -1.992,0.269 -3.328,-1.661 -5.043,-2.336 -0.973,-0.512 -2.578,-0.227 -2.879,-1.618 0,0.586 -0.039,1.129 -0.062,1.68 0.293,0.25 0.55,0.567 0.867,0.793 1.765,1.117 3.492,2.235 5.289,3.149"
         style="fill:#c5944f;fill-opacity:1;fill-rule:nonzero;stroke:none"
         id="path250" /><path
         d="m 239.879,169.082 c 0.133,0.082 0.359,0.27 0.496,0.359 7.992,-0.41 16.066,-0.05 24.059,-0.16 0.074,-1.277 0.074,-2.586 0.164,-3.871 0.023,-0.551 0.062,-1.094 0.062,-1.68 -0.039,-1.101 -0.039,-2.191 0.02,-3.261 -0.293,-0.285 -0.578,-0.606 -0.875,-0.875 0.269,3.105 0.23,6.246 0,9.351 -7.95,0.188 -15.95,0.356 -23.926,0.137"
         style="fill:#303258;fill-opacity:1;fill-rule:nonzero;stroke:none"
         id="path252" /><path
         d="m 220.27,169.152 c 3.14,0.012 6.246,0.063 9.382,0 0.071,-0.25 0.18,-0.781 0.2,-1.058 -2.844,0.039 -5.704,0.121 -8.551,-0.02 -0.231,-2.664 -0.098,-5.301 -0.156,-7.992 -0.293,0.273 -0.582,0.594 -0.875,0.84 0.019,0.781 0.089,1.566 0.156,2.34 0.156,-0.141 0.426,-0.403 0.558,-0.52 0,1.121 -0.261,2.246 -0.644,3.281 -0.121,1.075 -0.07,2.071 -0.07,3.129"
         style="fill:#589ad9;fill-opacity:1;fill-rule:nonzero;stroke:none"
         id="path254" /><path
         d="m 238.574,168.074 c 0.434,0.364 0.852,0.692 1.305,1.008 7.976,0.219 15.976,0.051 23.926,-0.137 0.23,-3.105 0.269,-6.246 0,-9.351 l -0.219,-0.246 c 0.086,2.925 0.066,5.863 0,8.836 -8.332,0 -16.691,0.187 -25.012,-0.11"
         style="fill:#4557a4;fill-opacity:1;fill-rule:nonzero;stroke:none"
         id="path256" /><path
         d="m 221.301,168.074 c 2.847,0.141 5.707,0.059 8.551,0.02 0.07,-0.18 0.164,-0.586 0.211,-0.75 0.296,-0.879 0.617,-1.914 1.441,-2.418 2.574,0.265 5.035,1.57 7.07,3.148 8.321,0.297 16.68,0.11 25.012,0.11 0.066,-2.973 0.086,-5.911 0,-8.836 -0.77,-0.957 -0.695,-2.172 0,-3.211 0.16,-0.942 0.199,-1.93 0.199,-2.875 v -0.18 c -1.551,-1.492 -1.457,-3.66 0.098,-5.164 -0.281,-1.574 -0.211,-3.176 -0.078,-4.746 h -0.27 c -4.238,-0.109 -8.512,0 -12.762,-0.051 -4.543,4.207 -6.625,10.207 -8.398,15.938 -0.516,-0.899 -0.805,-1.864 -1.082,-2.864 -1.574,-4.867 -4.223,-9.422 -7.863,-13.023 -4.379,0.027 -8.785,-0.07 -13.16,0.027 -0.051,0.262 -0.075,0.758 -0.075,0.981 v 0.16 c 0.164,2.183 -0.066,4.344 0.25,6.488 0.207,-1.012 0.278,-2.058 0.336,-3.07 0.723,0.875 1.637,1.726 1.735,2.941 -0.258,1.492 -1.289,2.696 -2.297,3.735 0.191,0.265 0.344,0.488 0.504,0.761 0.261,0.403 0.578,0.762 0.84,1.141 0.953,1.195 0.429,2.676 -0.418,3.746 0.058,2.691 -0.075,5.328 0.156,7.992"
         style="fill:#548dd2;fill-opacity:1;fill-rule:nonzero;stroke:none"
         id="path258" /><path
         d="m 211.344,161.973 c 1.547,0.8 1.84,3.148 3.601,3.375 2.133,-0.989 3.618,-2.879 5.325,-4.426 0.293,-0.246 0.582,-0.567 0.875,-0.84 0.847,-1.07 1.371,-2.551 0.418,-3.746 -0.262,0.477 -0.512,0.879 -0.782,1.328 -1.769,2.066 -3.855,3.996 -6.015,5.668 -0.934,-1.941 -1.696,-3.914 -2.727,-5.758 -0.402,0.11 -0.766,0.203 -1.144,0.27 0.433,1.347 0.593,2.742 0.449,4.129"
         style="fill:#ce9e56;fill-opacity:1;fill-rule:nonzero;stroke:none"
         id="path260" /><path
         d="m 199.844,165.281 c 0.992,-0.293 0.761,-1.187 -0.024,-1.57 0,0.512 0,1.055 0.024,1.57"
         style="fill:#11100e;fill-opacity:1;fill-rule:nonzero;stroke:none"
         id="path262" /><path
         d="m 264.68,160.469 c 1.543,1.804 3.261,3.625 5.422,4.742 1.839,-0.09 1.992,-2.742 3.66,-3.289 -0.223,-1.363 -0.063,-2.731 0.492,-4.008 -0.352,-0.23 -0.715,-0.492 -1.035,-0.719 -1.149,1.817 -1.817,3.883 -2.852,5.797 -1.047,-0.023 -1.609,-1.109 -2.336,-1.734 -1.433,-1.754 -3.929,-2.692 -4.445,-5.121 -0.695,1.039 -0.77,2.254 0,3.211 l 0.219,0.246 c 0.297,0.269 0.582,0.59 0.875,0.875"
         style="fill:#d09f57;fill-opacity:1;fill-rule:nonzero;stroke:none"
         id="path264" /><path
         d="m 285.488,163.711 c -1.234,-0.02 -1.191,1.5 0,1.5 -0.078,-0.18 -0.289,-0.535 -0.383,-0.754 0.094,-0.18 0.305,-0.551 0.383,-0.746"
         style="fill:#161514;fill-opacity:1;fill-rule:nonzero;stroke:none"
         id="path266" /><path
         d="m 235.52,161.68 c 1.691,0.203 2.992,1.312 4.492,1.965 -1.5,-1.805 -3.274,-3.329 -5.145,-4.747 0.289,-0.648 0.633,-1.418 1.418,-1.546 -0.367,-0.379 -0.699,-0.817 -1.008,-1.247 -0.371,0.528 -0.683,1.11 -0.855,1.692 -0.231,0.363 -0.481,0.742 -0.703,1.101 -0.442,-0.246 -0.871,-0.468 -1.34,-0.699 0.043,0.59 0.113,1.219 0.137,1.793 v 0.192 c 0.828,0.804 1.828,1.386 3.004,1.496"
         style="fill:#d0d0cd;fill-opacity:1;fill-rule:nonzero;stroke:none"
         id="path268" /><path
         d="m 244.863,163.375 c 2.09,-1.672 5.055,-1.332 6.992,-3.102 -1.464,0.536 -2.925,0.805 -4.468,0.887 -0.965,0.52 -1.965,1.223 -2.524,2.215"
         style="fill:#f9fbe7;fill-opacity:1;fill-rule:nonzero;stroke:none"
         id="path270" /><path
         d="m 199.199,161.66 c 0.793,0.613 2.016,0.403 2.801,1.219 0.762,-0.238 1.57,-0.41 2.051,-1.129 -0.703,0.02 -1.356,0.273 -2.012,0.523 -0.824,-0.57 -1.832,-0.793 -2.84,-0.613"
         style="fill:#a57131;fill-opacity:1;fill-rule:nonzero;stroke:none"
         id="path272" /><path
         d="m 247.387,161.16 c 1.543,-0.082 3.004,-0.351 4.468,-0.887 l 0.368,-0.089 -0.055,-0.211 c -0.074,-0.782 -0.164,-1.543 -0.293,-2.262 -0.059,0.227 -0.156,0.766 -0.227,1.031 -0.585,-0.332 -1.257,-0.629 -1.933,-0.629 -0.043,0.227 -0.11,0.676 -0.129,0.899 -0.852,0.601 -2.09,0.941 -2.199,2.148"
         style="fill:#cecbca;fill-opacity:1;fill-rule:nonzero;stroke:none"
         id="path274" /><path
         d="m 214.875,159.348 c 0.43,0.836 1.578,0.968 2.246,0.355 1.387,-1.543 2,-3.566 3.098,-5.269 1.008,-1.039 2.039,-2.243 2.297,-3.735 -0.098,-1.215 -1.012,-2.066 -1.735,-2.941 -0.058,1.012 -0.129,2.058 -0.336,3.07 -0.472,1.805 -2.179,2.969 -2.898,4.652 -0.469,0.606 -0.914,2.434 -1.836,1.422 -1.367,-2.062 -2.77,-4.203 -4.438,-6.074 0.231,1.363 -0.019,2.727 -0.156,4.074 1.399,1.364 2.653,2.875 3.758,4.446"
         style="fill:#ce9e56;fill-opacity:1;fill-rule:nonzero;stroke:none"
         id="path276" /><path
         d="m 208.582,157.258 c 0.43,0.765 0.43,2.09 1.117,2.512 1.645,-1.973 0.078,-4.508 1.156,-6.598 0.196,-0.848 -0.582,-1.582 -0.992,-2.274 1.032,-2.128 -1.031,-3.703 -0.851,-5.777 -0.114,-0.894 -1.332,-1.215 -1.477,-2.172 -0.062,0.063 -0.191,0.223 -0.258,0.313 -0.062,1.547 -0.312,3.261 0.786,4.515 -0.157,2.039 0.996,3.86 0.339,5.891 0.61,1.172 0.946,2.379 0.18,3.59"
         style="fill:#c4924e;fill-opacity:1;fill-rule:nonzero;stroke:none"
         id="path278" /><path
         d="m 232.516,159.992 c -0.024,-0.574 -0.094,-1.203 -0.137,-1.793 0.469,0.231 0.898,0.453 1.34,0.699 0.222,-0.359 0.472,-0.738 0.703,-1.101 0.172,-0.582 0.484,-1.164 0.855,-1.692 0.309,0.43 0.641,0.868 1.008,1.247 1.016,1.058 2.649,1.078 4.016,0.781 -2.488,-1.36 -4.422,-3.699 -7.164,-4.598 -1.485,-1.277 -3.344,-2.137 -4.422,-3.801 0.094,0.875 0.691,1.5 1.207,2.153 0.383,0.523 0.383,1.176 0.508,1.781 -0.211,-0.496 -0.367,-0.988 -0.547,-1.457 -0.613,-0.02 -1.215,0 -1.82,-0.066 l -0.208,-0.028 c -0.875,-0.371 -1.699,-0.883 -2.503,-1.375 l 0.148,0.317 c 1.641,2.636 5.219,2.406 7.078,4.691 0,1.445 -1.414,2.992 -0.062,4.242"
         style="fill:#ffffff;fill-opacity:1;fill-rule:nonzero;stroke:none"
         id="path280" /><path
         d="m 252.168,159.973 c 1.195,-1.34 -0.133,-2.844 -0.133,-4.285 0.676,-0.786 1.551,-1.348 2.496,-1.661 v -0.039 c -0.07,-0.191 -0.211,-0.523 -0.254,-0.675 0.043,-0.188 0.184,-0.497 0.254,-0.633 0.625,-0.176 1.258,-0.317 1.856,-0.489 -0.598,0.02 -1.207,0.02 -1.813,0.067 0.364,-0.641 0.781,-1.227 1.145,-1.828 -1.418,0.968 -2.895,1.843 -4.153,3.035 -2.761,0.945 -4.761,3.109 -7.148,4.668 1.684,0.472 3.437,-0.195 4.785,-1.27 0,0.442 0.02,0.848 0.043,1.25 0.133,0 0.359,0 0.469,0 0.676,0 1.348,0.297 1.933,0.629 0.071,-0.265 0.168,-0.804 0.227,-1.031 0.129,0.719 0.219,1.48 0.293,2.262"
         style="fill:#ffffff;fill-opacity:1;fill-rule:nonzero;stroke:none"
         id="path282" /><path
         d="m 267.449,158.898 c 0.422,1.055 2.063,1.457 2.715,0.383 1.125,-1.57 2.359,-3.086 3.711,-4.5 0.063,-0.031 0.156,-0.176 0.223,-0.234 -0.629,-1.082 -0.223,-2.289 -0.59,-3.426 -1.93,1.785 -2.82,4.391 -4.707,6.094 -1.403,-1.891 -2.5,-4.02 -4.051,-5.817 -0.09,-0.164 -0.242,-0.476 -0.316,-0.609 -0.422,0.691 -0.602,1.535 -0.649,2.293 v 0.18 c 1.957,1.304 2.219,3.914 3.664,5.636"
         style="fill:#d4a457;fill-opacity:1;fill-rule:nonzero;stroke:none"
         id="path284" /><path
         d="m 282.23,159.914 c 1.168,0.168 1.278,-1.644 1.239,-2.492 -0.434,0.621 -0.563,1.457 -1.168,1.902 -0.926,-2 0.941,-3.484 0.824,-5.39 -0.352,0.718 -0.727,1.41 -1.164,2.062 -0.805,-1.969 1.055,-3.297 1.281,-5.098 -0.469,0.582 -0.922,1.219 -1.371,1.825 -0.133,-0.977 0.063,-1.934 0.219,-2.836 -1.836,1.011 -0.285,3.441 -0.934,5.082 0.961,1.566 -0.273,3.57 1.074,4.945"
         style="fill:#9a6431;fill-opacity:1;fill-rule:nonzero;stroke:none"
         id="path286" /><path
         d="m 274.32,153.355 c 1.063,1.907 -0.812,4.844 1.375,6.239 0.172,-0.824 0.403,-1.61 0.778,-2.379 -0.606,-1.219 -0.535,-2.453 0.199,-3.547 -0.715,-3.551 1.215,-6.723 1.359,-10.207 -0.164,-0.152 -0.343,-0.34 -0.496,-0.488 -1.015,1.054 -1.801,2.222 -1.597,3.773 -1.051,1.172 -1.122,2.649 -0.711,4.125 -0.43,0.746 -1.352,1.59 -0.907,2.484"
         style="fill:#c4924e;fill-opacity:1;fill-rule:nonzero;stroke:none"
         id="path288" /><path
         d="m 204.117,157.129 c 0.11,0.809 0.453,1.57 0.961,2.219 0.067,-0.957 0.137,-1.926 0.192,-2.871 0.418,0.558 0.871,1.078 1.375,1.566 0,-0.914 0,-1.848 0.261,-2.719 -0.14,-0.09 -0.281,-0.179 -0.429,-0.261 -0.36,1.343 -1.278,1.66 -1.887,0.261 0.379,0.067 0.762,0.137 1.168,0.156 0.012,-0.73 0.012,-1.492 0.039,-2.257 0.203,0.211 0.402,0.445 0.609,0.621 0.071,-0.137 0.239,-0.41 0.309,-0.531 0.14,0.355 0.269,0.714 0.402,1.097 0.16,0.024 0.449,0.137 0.578,0.195 0,-0.488 0,-0.98 -0.015,-1.48 -0.426,-0.309 -0.895,-0.645 -1.34,-0.934 -0.199,0.313 -0.41,0.668 -0.582,1.032 -0.406,-0.383 -0.789,-0.743 -1.168,-1.125 0.379,0.047 0.762,0.093 1.168,0.16 0,-0.707 0.012,-1.36 0.012,-2.051 0.429,0.621 0.855,1.215 1.285,1.84 -0.856,-1.75 1.297,-3.414 0.062,-4.871 -0.332,0.558 -0.711,1.074 -1.207,1.508 0.289,-1.067 0.449,-2.118 0.25,-3.161 0.199,0 0.555,0.071 0.766,0.071 -0.211,-0.762 -0.5,-1.477 -0.883,-2.133 -0.063,0.496 -0.18,1.012 -0.246,1.527 -0.516,-0.246 -1.008,-0.468 -1.524,-0.718 -0.132,0.339 -0.269,0.671 -0.363,1.031 -0.039,-0.18 -0.058,-0.543 -0.09,-0.692 -0.851,0.774 -0.812,-0.582 -0.992,-1.171 -0.426,0.179 -0.859,0.39 -1.281,0.539 -0.106,1.125 -0.203,2.226 -0.223,3.351 0.805,-0.648 0.969,-1.734 1.031,-2.746 0.27,0.453 0.563,0.871 0.903,1.316 0.246,-0.085 0.523,-0.195 0.812,-0.285 -0.066,1 -0.066,1.992 -0.019,2.926 -0.141,0 -0.36,-0.016 -0.481,-0.016 -0.222,-0.566 -0.453,-1.125 -0.711,-1.679 -0.386,1.316 0.2,2.578 1.551,2.91 -0.437,2.437 0.379,4.996 -0.293,7.375"
         style="fill:#b07d43;fill-opacity:1;fill-rule:nonzero;stroke:none"
         id="path290" /><path
         d="m 241.293,156.195 c 0.277,1 0.566,1.965 1.082,2.864 1.773,-5.731 3.855,-11.731 8.398,-15.938 -4.332,-4.355 -6.671,-10.172 -8.347,-15.941 -0.676,0.851 -0.836,1.929 -1.156,2.914 -1.575,4.871 -4.11,9.504 -7.84,13.078 3.64,3.601 6.289,8.156 7.863,13.023"
         style="fill:#4f3528;fill-opacity:1;fill-rule:nonzero;stroke:none"
         id="path292" /><path
         d="m 220.781,157.664 c 0.27,-0.449 0.52,-0.851 0.782,-1.328 -0.262,-0.379 -0.579,-0.738 -0.84,-1.141 0.035,0.801 0.035,1.649 0.058,2.469"
         style="fill:#87a2c0;fill-opacity:1;fill-rule:nonzero;stroke:none"
         id="path294" /><path
         d="m 234.234,143.172 c 3.918,3.933 6.34,8.973 8.121,14.152 1.563,-5.133 3.727,-10.332 7.563,-14.222 -5.207,0.07 -10.469,0.07 -15.684,0.07"
         style="fill:#ffffff;fill-opacity:1;fill-rule:nonzero;stroke:none"
         id="path296" /><path
         d="m 200.434,157.035 c 0.82,-0.93 0.625,-2.152 0.695,-3.281 0.418,-1.074 0.625,-2.254 0.418,-3.41 -0.106,0.035 -0.332,0.035 -0.418,0.062 0.059,0.856 0.086,1.711 0.059,2.567 -0.333,-0.114 -0.649,-0.25 -0.934,-0.34 0.285,1.074 1.156,3.453 -0.41,3.703 0.136,0.16 0.453,0.508 0.59,0.699"
         style="fill:#9a6431;fill-opacity:1;fill-rule:nonzero;stroke:none"
         id="path298" /><path
         d="m 202.473,156.266 c 0.925,1.308 1.644,-0.805 1.398,-1.614 -0.473,-1.57 0.918,-3.73 -0.863,-4.765 0.109,0.941 0.207,1.859 0.207,2.812 -0.453,-0.582 -0.922,-1.219 -1.352,-1.801 0,1.825 2.641,3.707 0.61,5.368"
         style="fill:#a26e30;fill-opacity:1;fill-rule:nonzero;stroke:none"
         id="path300" /><path
         d="m 254.277,153.313 c 0.043,0.152 0.184,0.484 0.254,0.675 1.746,-0.191 3.258,-1.394 4.469,-2.617 1.141,-1.711 1.879,-3.687 3.234,-5.316 -2.875,0.789 -4.625,3.605 -5.847,6.136 -0.598,0.172 -1.231,0.313 -1.856,0.489 -0.07,0.136 -0.211,0.445 -0.254,0.633"
         style="fill:#a9a9a7;fill-opacity:1;fill-rule:nonzero;stroke:none"
         id="path302" /><path
         d="m 215.434,153.262 c 0.832,0.582 2,0.203 2.496,-0.645 1.504,-2.5 1.433,-5.554 2.265,-8.277 v -0.16 c -0.175,-1.348 -0.222,-2.692 -0.422,-4.016 -0.703,-0.902 -1.546,-1.711 -2.519,-2.223 1.887,2.223 1.031,5.18 1.176,7.856 -0.34,1.98 -1.215,3.82 -1.797,5.754 -1.781,-0.762 -2.711,-2.715 -4.274,-3.817 -0.371,0.11 -0.722,0.223 -1.031,0.313 -0.074,0.824 -0.125,1.613 -0.074,2.426 1.73,0.316 2.812,1.879 4.18,2.789"
         style="fill:#d4a458;fill-opacity:1;fill-rule:nonzero;stroke:none"
         id="path304" /><path
         d="m 229.883,152.211 c 0.18,0.469 0.336,0.961 0.547,1.457 -0.125,-0.605 -0.125,-1.258 -0.508,-1.781 -0.625,0.121 -1.254,0.211 -1.859,0.258 0.605,0.066 1.207,0.046 1.82,0.066"
         style="fill:#11100e;fill-opacity:1;fill-rule:nonzero;stroke:none"
         id="path306" /><path
         d="m 266.617,151.5 c 0.399,1.133 1.461,2.297 2.723,1.813 1.488,-0.95 2.621,-2.301 4.199,-3.067 0.109,-0.984 -0.031,-1.996 -0.43,-2.918 -1.796,1.082 -2.742,3.231 -4.644,4.133 -0.703,-2.43 -2.027,-4.715 -1.848,-7.301 0.039,-2.129 -0.433,-4.43 1.102,-6.18 -1.223,0.43 -1.906,1.567 -2.719,2.547 0.223,1.395 0,2.84 0.109,4.282 0.332,2.254 0.762,4.535 1.508,6.691"
         style="fill:#d3a658;fill-opacity:1;fill-rule:nonzero;stroke:none"
         id="path308" /><path
         d="m 263.883,147.918 c -1.555,1.504 -1.649,3.672 -0.098,5.164 0.047,-0.758 0.227,-1.602 0.649,-2.293 -0.137,-0.973 -0.289,-1.918 -0.551,-2.871"
         style="fill:#a9773d;fill-opacity:1;fill-rule:nonzero;stroke:none"
         id="path310" /><path
         d="m 225.352,150.742 c 0.804,0.492 1.628,1.004 2.503,1.375 -0.511,-2.652 -2.652,-5.012 -5.156,-5.863 0.93,1.59 1.676,3.297 2.801,4.805 l -0.148,-0.317"
         style="fill:#a3a2a4;fill-opacity:1;fill-rule:nonzero;stroke:none"
         id="path312" /><path
         d="m 264.434,150.789 c 0.074,0.133 0.226,0.445 0.316,0.609 0,-2.207 -0.516,-4.515 0.359,-6.589 -0.109,-1.442 0.114,-2.887 -0.109,-4.282 -0.832,-5.691 -1.328,-11.8 -5.039,-16.453 -1.012,-1.457 -2.664,-2.328 -3.387,-3.926 -0.922,-0.613 -1.82,-1.222 -2.695,-1.832 -2.449,-0.804 -4.676,-2.152 -7.168,-2.816 -1.977,-0.543 -4,-1.855 -6.117,-1.035 -3.145,0.691 -5.93,2.535 -9.067,3.176 -1.285,0.988 -2.617,1.894 -3.961,2.797 -0.687,1.457 -2.199,2.312 -3.074,3.707 -3.441,4.582 -3.98,10.531 -4.719,16.019 0.2,1.324 0.247,2.668 0.422,4.016 0,-0.223 0.024,-0.719 0.075,-0.981 0.175,-5.871 0.539,-12.051 3.632,-17.234 2.883,-5.367 8.614,-8.324 14.18,-10.176 1.707,-0.492 3.488,-1.551 5.305,-0.914 4.824,1.426 9.75,3.27 13.566,6.633 6.141,5.242 7.371,13.828 7.434,21.465 -0.153,0.039 -0.446,0.129 -0.582,0.199 -0.133,1.57 -0.203,3.172 0.078,4.746 0.262,0.953 0.414,1.898 0.551,2.871"
         style="fill:#363671;fill-opacity:1;fill-rule:nonzero;stroke:none"
         id="path314" /><path
         d="m 199.129,148.211 c 1.078,-0.969 1.051,-2.547 0.621,-3.828 -0.109,0.98 -0.109,1.933 -0.129,2.922 -0.922,-0.266 -0.894,-1.336 -1.344,-2.004 0,1.043 0.422,2.004 0.852,2.91"
         style="fill:#9e692e;fill-opacity:1;fill-rule:nonzero;stroke:none"
         id="path316" /><path
         d="m 211.488,145.613 c 1.164,0.442 2.242,1.094 3.457,1.332 1.485,-0.55 0.985,-2.535 1.121,-3.773 0.157,-2.879 -0.066,-6.336 -2.632,-8.16 0.359,3.039 1.578,6.023 1.289,9.148 -0.504,1.254 -1.875,0 -2.664,-0.324 -0.094,0.051 -0.352,0.121 -0.493,0.141 -0.023,0.543 -0.062,1.011 -0.078,1.546 v 0.09"
         style="fill:#d09f55;fill-opacity:1;fill-rule:nonzero;stroke:none"
         id="path318" /><path
         d="m 269.184,145.746 c 0.691,2.211 3.179,0.067 4.558,-0.363 -0.273,-0.574 -0.504,-1.133 -0.726,-1.695 -0.762,0.41 -2.059,1.546 -2.621,0.429 -0.383,-3.121 0.894,-6.086 1.253,-9.152 -3.41,2.433 -2.691,7.211 -2.464,10.781"
         style="fill:#d09f55;fill-opacity:1;fill-rule:nonzero;stroke:none"
         id="path320" /><path
         d="m 200.699,146.344 c 0.449,-0.317 -0.043,-1.223 -0.23,-1.672 -0.489,0.289 -0.289,1.426 0.23,1.672"
         style="fill:#9e692f;fill-opacity:1;fill-rule:nonzero;stroke:none"
         id="path322" /><path
         d="m 279.59,144.41 0.238,-0.07 c 0.586,-0.652 1.125,-1.328 1.688,-1.996 l 0.019,-0.223 c -0.336,0.133 -0.629,0.262 -0.941,0.363 -0.071,-0.433 -0.141,-0.863 -0.203,-1.285 -0.52,0.985 -0.782,2.11 -0.801,3.211"
         style="fill:#ae7c41;fill-opacity:1;fill-rule:nonzero;stroke:none"
         id="path324" /><path
         d="m 279.828,144.34 c 0.473,0 0.926,0.043 1.41,0.07 0.078,-0.683 0.16,-1.371 0.278,-2.066 -0.563,0.668 -1.102,1.344 -1.688,1.996"
         style="fill:#965d26;fill-opacity:1;fill-rule:nonzero;stroke:none"
         id="path326" /><path
         d="m 183.895,143.887 c 1.207,-5.344 3.64,-10.289 6.582,-14.867 -2.129,1.933 -3.305,4.648 -5.063,6.921 0.203,-2.273 1.285,-4.293 1.715,-6.503 -0.883,1.71 -1.938,3.445 -2.137,5.398 -0.226,3.055 -1.437,5.98 -1.097,9.051"
         style="fill:#96632e;fill-opacity:1;fill-rule:nonzero;stroke:none"
         id="path328" /><path
         d="m 293.977,128.117 c 3.339,4.789 5.996,10.074 7.218,15.77 0.336,-3.192 -1,-6.199 -1.148,-9.34 -0.207,-1.598 -0.945,-3.106 -1.774,-4.524 0.247,2.008 1.254,3.797 1.383,5.848 -1.812,-2.633 -3.336,-5.508 -5.679,-7.754"
         style="fill:#97642f;fill-opacity:1;fill-rule:nonzero;stroke:none"
         id="path330" /><path
         d="m 220.27,143.199 c 4.375,-0.097 8.781,0 13.16,-0.027 3.73,-3.574 6.265,-8.207 7.84,-13.078 0.32,-0.985 0.48,-2.063 1.156,-2.914 1.676,5.769 4.015,11.586 8.347,15.941 4.25,0.051 8.524,-0.058 12.762,0.051 0.117,-7.113 -1.012,-15.055 -6.347,-20.242 -4.032,-3.692 -9.196,-5.75 -14.383,-7.192 -2.504,-0.152 -4.742,1.153 -7.075,1.903 -4.578,1.707 -8.496,4.797 -11.828,8.324 -3.093,5.183 -3.457,11.363 -3.632,17.234"
         style="fill:#ffffff;fill-opacity:1;fill-rule:nonzero;stroke:none"
         id="path332" /><path
         d="m 234.234,143.172 c 5.215,0 10.477,0 15.684,-0.07 -3.707,-3.93 -6,-8.981 -7.563,-14.125 -1.82,5.183 -4.121,10.347 -8.121,14.195"
         style="fill:#548dd2;fill-opacity:1;fill-rule:nonzero;stroke:none"
         id="path334" /><path
         d="m 263.535,143.172 h 0.27 c 0.136,-0.07 0.429,-0.16 0.582,-0.199 -0.063,-7.637 -1.293,-16.223 -7.434,-21.465 0.117,0.457 0.16,0.93 0.235,1.422 5.335,5.187 6.464,13.129 6.347,20.242"
         style="fill:#bebdbb;fill-opacity:1;fill-rule:nonzero;stroke:none"
         id="path336" /><path
         d="m 283.086,140.996 c 2.07,1.746 5.09,1.598 7.434,0.492 0,-0.222 -0.043,-0.652 -0.043,-0.879 -2.387,0.84 -4.918,0.59 -7.391,0.387"
         style="fill:#d6a85b;fill-opacity:1;fill-rule:nonzero;stroke:none"
         id="path338" /><path
         d="m 194.547,139.871 c 2.219,0.719 4.805,1.004 6.863,-0.273 -0.195,-1.055 -0.222,-2.129 0,-3.203 -2.281,0.785 -4.293,-1.938 -6.441,-0.454 -0.563,1.239 -0.274,2.649 -0.422,3.93"
         style="fill:#cd9c57;fill-opacity:1;fill-rule:nonzero;stroke:none"
         id="path340" /><path
         d="m 222.195,140.539 c 2.922,-0.59 4.903,-3.301 6,-5.93 0.582,-0.222 1.235,-0.203 1.891,-0.289 -0.68,0.782 -1.637,1.621 -1.238,2.766 1.871,-2.281 4.308,-3.941 6.968,-5.195 1.571,-1.34 3.254,-2.493 5.032,-3.528 -1.711,-0.718 -3.508,-0.195 -5.032,0.715 -0.187,-0.492 -0.41,-0.98 -0.66,-1.473 0.762,-0.566 1.696,-0.945 2.231,-1.73 0.847,-1.262 2.562,-1.777 2.961,-3.371 -1.571,0.785 -2.981,2.008 -4.782,2.226 -1.578,0.129 -3.007,1.145 -3.683,2.583 -0.293,1.082 0.469,2.054 0.609,3.07 -0.902,2.094 -3.558,1.867 -5.082,3.215 -2.695,1.504 -3.094,4.925 -5.215,6.941"
         style="fill:#518bd1;fill-opacity:1;fill-rule:nonzero;stroke:none"
         id="path342" /><path
         d="m 283.738,139.445 c 2.09,1.211 4.575,1.082 6.782,0.153 -0.106,-1.278 0.16,-2.715 -0.469,-3.907 -2.188,-1.39 -4.133,1.508 -6.383,0.434 0.211,1.113 0.211,2.223 0.07,3.32"
         style="fill:#cd9c57;fill-opacity:1;fill-rule:nonzero;stroke:none"
         id="path344" /><path
         d="m 256.387,134.52 c 1.07,2.589 3.043,5.382 5.98,5.882 -2.113,-1.992 -2.472,-5.254 -5.051,-6.804 -1.582,-1.368 -4.218,-1.164 -5.23,-3.235 0.199,-1.105 0.937,-2.105 0.559,-3.203 -0.661,-1.426 -2.118,-2.371 -3.645,-2.547 -1.84,-0.172 -3.187,-1.465 -4.828,-2.156 1.348,2.055 3.254,3.731 5.273,5.055 -0.242,0.504 -0.484,0.992 -0.711,1.508 -1.488,-0.942 -3.285,-1.438 -4.984,-0.762 1.457,1.039 3.074,1.836 4.352,3.074 1.211,1.215 3.207,1.215 4.25,2.688 1.253,0.785 2.586,1.652 3.32,3.066 0.605,-1.113 -0.445,-1.984 -1.07,-2.785 0.578,0.062 1.253,0.019 1.785,0.219"
         style="fill:#518bd1;fill-opacity:1;fill-rule:nonzero;stroke:none"
         id="path346" /><path
         d="m 196.109,134.301 c 2.168,1.32 5.145,1.679 7.149,-0.117 -0.715,-0.063 -1.485,-0.164 -2.231,-0.254 0.52,-0.332 1.082,-0.621 1.625,-0.961 0.063,-0.223 0.176,-0.492 0.317,-0.739 -0.207,0 -0.547,-0.046 -0.699,-0.046 -0.09,-0.293 -0.231,-0.536 -0.34,-0.805 0.898,0.152 1.781,0.312 2.707,0.441 -0.52,-1.496 -1.985,-1.886 -3.313,-1.093 -0.136,-0.176 -0.402,-0.422 -0.543,-0.563 1.692,-0.07 3.192,-0.996 3.567,-2.691 0.64,0.543 1.41,1.031 2.257,0.644 -0.808,-0.828 -1.968,-0.957 -2.984,-1.316 1.078,-0.297 2.219,-0.184 3.164,0.488 0.289,-0.426 0.559,-0.894 0.824,-1.344 -0.355,0.09 -0.683,0.2 -1.05,0.243 0.425,-0.653 0.629,-1.426 0.558,-2.254 -0.711,-0.039 -1.406,-0.11 -2.078,-0.149 -2.344,1.461 -5.219,2.586 -6.473,5.192 -0.726,1.406 -2.003,2.464 -2.527,3.972 0,0.43 0.027,0.871 0.07,1.352"
         style="fill:#ce9e56;fill-opacity:1;fill-rule:nonzero;stroke:none"
         id="path348" /><path
         d="m 282.16,134.184 c 1.875,1.718 6.285,1.617 7.012,-1.235 -0.656,-1.547 -1.91,-2.715 -2.723,-4.133 -0.109,-0.07 -0.332,-0.156 -0.422,-0.23 -1.14,1.16 -2.5,2.523 -4.156,1.348 -0.496,0.429 -0.894,0.972 -1.051,1.648 0.848,-0.117 1.653,-0.18 2.508,-0.203 -0.355,0.269 -0.738,0.492 -1.148,0.715 0.066,0.34 0.191,0.652 0.273,1.008 0.391,0.043 0.789,0.117 1.215,0.136 0.023,0.2 0.16,0.582 0.223,0.762 -0.582,0.051 -1.168,0.121 -1.731,0.184"
         style="fill:#d09f57;fill-opacity:1;fill-rule:nonzero;stroke:none"
         id="path350" /><path
         d="m 212.891,129.109 c 0.543,1.422 1.703,2.403 3.015,3.059 1.098,-0.57 3.235,-1.48 2.36,-3.059 -1.411,-1.347 -4.055,-1.796 -5.375,0"
         style="fill:#ca9a52;fill-opacity:1;fill-rule:nonzero;stroke:none"
         id="path352" /><path
         d="m 266.949,128.898 c -0.648,1.653 1.199,2.684 2.563,2.903 1.242,-0.469 2.066,-1.547 2.652,-2.692 -1.207,-1.711 -3.84,-1.527 -5.215,-0.211"
         style="fill:#ca9852;fill-opacity:1;fill-rule:nonzero;stroke:none"
         id="path354" /><path
         d="m 280.727,127.449 c 0.449,1.231 1.39,2.297 2.781,2.504 0.976,-0.515 1.597,-1.496 2.359,-2.285 -0.89,-0.867 -1.887,-1.723 -3.023,-2.285 -0.883,0.988 -1.828,2.152 -3.309,1.59 -0.16,0.476 -0.336,0.922 -0.508,1.39 0.582,-0.285 1.133,-0.633 1.7,-0.914"
         style="fill:#d4a458;fill-opacity:1;fill-rule:nonzero;stroke:none"
         id="path356" /><path
         d="m 214.766,124.23 c 0.086,1.805 1.816,3.219 3.461,3.665 1.347,-0.422 2.132,-1.727 2.043,-3.106 -0.657,-0.781 -1.547,-1.391 -2.551,-1.641 -1.024,0.09 -2.371,0.024 -2.953,1.082"
         style="fill:#ca9a54;fill-opacity:1;fill-rule:nonzero;stroke:none"
         id="path358" /><path
         d="m 264.75,124.762 c 0.051,1.406 0.922,3.133 2.559,2.883 1.582,-0.606 2.515,-2.063 3.379,-3.461 -0.864,-0.539 -1.731,-1.075 -2.676,-1.395 -1.258,0.32 -2.5,0.875 -3.262,1.973"
         style="fill:#ca9852;fill-opacity:1;fill-rule:nonzero;stroke:none"
         id="path360" /><path
         d="m 277.465,125.945 c 0.289,0.36 0.586,0.715 0.926,1.075 1.437,-0.493 3.23,-0.403 3.57,-2.29 -1.008,-0.703 -2.152,-1.269 -3.441,-1.421 -0.579,0.921 -0.719,1.988 0.023,2.859 -0.363,-0.063 -0.723,-0.133 -1.078,-0.223"
         style="fill:#d1a157;fill-opacity:1;fill-rule:nonzero;stroke:none"
         id="path362" /><path
         d="m 207.609,125.039 c 0.614,0.434 1.246,0.906 1.829,1.332 0.183,-0.066 0.339,-0.133 0.496,-0.203 -1.012,-0.988 1.269,-2.023 0.629,-3.418 -1.055,-0.094 -2.141,-0.133 -3.09,0.422 0.031,0.633 0.093,1.269 0.136,1.867"
         style="fill:#d4a458;fill-opacity:1;fill-rule:nonzero;stroke:none"
         id="path364" /><path
         d="m 275.602,126.238 c 1.234,-0.656 2.339,-1.578 1.976,-3.129 v -0.25 c -0.113,0 -0.359,0 -0.473,0 -0.808,0.028 -1.593,0.071 -2.421,0.09 0.07,0.586 0.113,1.196 0.179,1.781 0.739,0.219 1.028,0.743 0.739,1.508"
         style="fill:#d3a658;fill-opacity:1;fill-rule:nonzero;stroke:none"
         id="path366" /><path
         d="m 223.902,125.965 c 3.332,-3.527 7.25,-6.617 11.828,-8.324 2.333,-0.75 4.571,-2.055 7.075,-1.903 5.187,1.442 10.351,3.5 14.383,7.192 -0.075,-0.492 -0.118,-0.965 -0.235,-1.422 -3.816,-3.363 -8.742,-5.207 -13.566,-6.633 -1.817,-0.637 -3.598,0.422 -5.305,0.914 -5.566,1.852 -11.297,4.809 -14.18,10.176"
         style="fill:#d6d6d3;fill-opacity:1;fill-rule:nonzero;stroke:none"
         id="path368" /><path
         d="m 219.301,119.016 c 2.465,1.511 5.437,2.457 8.265,1.422 1.344,-0.903 2.676,-1.809 3.961,-2.797 1.2,-1.25 2.778,-1.985 4.262,-2.887 1.238,-1.242 0.363,-3.891 -1.445,-4.113 -1.676,0.492 -3.192,1.371 -4.981,1.39 7.418,-5.508 18.442,-5.617 25.817,0 -1.688,-0.039 -3.196,-0.879 -4.809,-1.39 -2.133,0.132 -2.984,3.8 -0.808,4.547 1.593,0.785 3.109,1.812 4.316,3.128 0.875,0.61 1.773,1.219 2.695,1.832 2.582,1.235 5.68,0.786 8.047,-0.769 0.82,-0.723 1.692,0.195 2.555,0.426 2.789,1.238 6.633,0.504 7.996,-2.45 -3.008,-2.101 0.34,-6.222 -2.133,-8.621 -2.586,-2.722 -6.875,-1.449 -9.566,0.422 -4.176,-3.308 -8.813,-6.297 -14.047,-7.566 -6.352,-1.527 -13.254,-1.035 -19.207,1.773 -3.274,1.43 -6.145,3.586 -8.992,5.731 -1.993,-1.09 -4.223,-2.211 -6.571,-1.871 -2.097,0.129 -4.164,1.98 -4.023,4.164 0,2.027 0.871,4.558 -1.125,5.968 1.746,3.754 6.687,3.528 9.793,1.661"
         style="fill:#b9772b;fill-opacity:1;fill-rule:nonzero;stroke:none"
         id="path370" /><path
         d="m 220.289,118.809 c 2.359,1.652 5.664,2.011 8.16,0.41 2.199,-1.375 3.871,-3.5 6.328,-4.504 2.028,-0.567 0.629,-4.477 -1.289,-3.203 -2.047,1.129 -4.484,1.086 -6.703,1.773 -1.512,0.594 -1.551,2.504 -1.371,3.824 0.512,-0.218 1.012,-0.449 1.508,-0.718 -0.203,-0.09 -0.633,-0.289 -0.859,-0.375 -0.829,-2.227 2.316,-2.77 3.234,-0.993 0.066,0.512 0.066,1.079 -0.086,1.618 -0.91,3.687 -5.938,3.597 -8.453,1.66 -0.399,-0.028 -0.563,0.133 -0.469,0.508"
         style="fill:#fdfefc;fill-opacity:1;fill-rule:nonzero;stroke:none"
         id="path372" /><path
         d="m 256.508,119.379 c 2.512,1.484 5.797,0.988 8.09,-0.723 -0.164,-0.093 -0.496,-0.289 -0.657,-0.426 -2.652,2.278 -8.289,1.942 -8.648,-2.214 0,-0.36 0.023,-0.7 0.094,-1.059 1.054,-1.734 3.929,-1.098 3.304,1.188 -0.476,-0.063 -0.964,-0.11 -1.464,-0.172 0.562,0.597 1.304,0.886 2.07,1.136 0.133,-1.39 0.062,-3.32 -1.57,-3.863 -2.372,-0.605 -4.926,-0.785 -7.137,-1.953 -1.785,-0.227 -2.488,3.016 -0.606,3.461 2.528,1.062 4.231,3.269 6.524,4.625"
         style="fill:#fdfefc;fill-opacity:1;fill-rule:nonzero;stroke:none"
         id="path374" /><path
         d="m 210.293,117.582 c 1.566,2.656 5.211,2.656 7.707,1.418 2.879,-1.574 5.762,-3.328 8.02,-5.754 2.625,-1.234 4.859,-3.156 7.566,-4.223 7.289,-3.144 16.019,-1.894 22.379,2.715 3.394,1.575 5.637,4.711 9.058,6.336 2.696,1.891 7.34,2.809 9.297,-0.492 -1.429,-1.668 -1.082,-3.844 -0.871,-5.863 0.25,-1.801 -1.156,-3.422 -2.832,-3.797 -2.359,-0.609 -4.722,0.426 -6.719,1.598 0.067,0.16 0.204,0.492 0.27,0.652 1.996,-1.078 4.43,-2.293 6.699,-1.18 1.578,0.656 1.926,3.352 0.156,4.028 -2.406,0.949 -4.839,-0.743 -6.636,-2.196 -5.856,-5.402 -13.367,-9.547 -21.52,-9.531 -7.781,-0.313 -15.164,3.148 -20.961,8.094 -2.183,1.906 -4.652,4.343 -7.777,3.836 -1.84,-0.266 -2.293,-2.848 -0.785,-3.864 0.129,-0.113 0.426,-0.265 0.578,-0.367 2.273,-1.254 4.586,0.324 6.707,1.11 -1.578,-2.911 -8.27,-3.579 -9.375,0.5 -0.238,2.355 0.898,5.054 -0.961,6.98"
         style="fill:#f9fbe7;fill-opacity:1;fill-rule:nonzero;stroke:none"
         id="path376" /><path
         d="m 220.758,118.301 c 2.515,1.937 7.543,2.027 8.453,-1.66 l -0.051,-0.321 c -1.504,0.18 -2.711,1.262 -4.176,1.614 -0.062,-0.778 -0.113,-1.614 -0.183,-2.399 -1.438,0.836 -2.789,1.711 -4.043,2.766"
         style="fill:#cd1c30;fill-opacity:1;fill-rule:nonzero;stroke:none"
         id="path378" /><path
         d="m 255.293,116.016 c 0.359,4.156 5.996,4.492 8.648,2.214 -1.293,-0.875 -2.589,-1.91 -4,-2.644 -0.14,0.785 -0.226,1.594 -0.355,2.379 -1.438,-0.586 -2.852,-1.305 -4.293,-1.949"
         style="fill:#cd1c30;fill-opacity:1;fill-rule:nonzero;stroke:none"
         id="path380" /><path
         d="m 269.023,116.035 c 0.852,0.246 0.801,1.32 1.524,1.77 -0.043,-0.856 -0.113,-1.66 -0.313,-2.442 0.161,-0.273 0.356,-0.558 0.567,-0.836 -0.906,-0.289 -1.082,0.661 -1.461,1.211 -0.836,-0.203 -0.293,-1.453 -1.102,-1.769 0,0.496 0.067,1.027 0.086,1.531 -0.136,0.02 -0.429,0.02 -0.562,0.035 0.25,0.281 0.496,0.547 0.765,0.785 -0.269,0.321 -0.496,0.61 -0.722,0.899 0.383,0.027 0.812,0.027 1.218,0.027 0,-0.297 0,-0.926 0,-1.211"
         style="fill:#548dd2;fill-opacity:1;fill-rule:nonzero;stroke:none"
         id="path382" /><path
         d="m 215.789,117.109 c 0.774,0.403 1.578,-0.308 1.395,-1.093 -0.039,-1.282 -2.129,-2.344 -2.84,-1.02 -0.614,1.039 0.492,2.024 1.445,2.113"
         style="fill:#548dd2;fill-opacity:1;fill-rule:nonzero;stroke:none"
         id="path384" /><path
         d="m 264.387,115.156 c 0.703,0.789 1.617,1.293 2.543,1.793 -0.274,-0.449 -0.563,-0.914 -0.836,-1.344 0.207,-0.73 0.472,-1.496 0.66,-2.292 -0.941,0.171 -0.883,1.402 -1.242,2.117 -0.403,-0.114 -0.762,-0.207 -1.125,-0.274"
         style="fill:#548dd2;fill-opacity:1;fill-rule:nonzero;stroke:none"
         id="path386" /><path
         d="m 215.711,116.75 c 1.566,0.34 0.922,-2.172 -0.297,-1.996 -0.648,0.141 -0.629,0.902 -0.785,1.348 0.316,-0.086 0.656,-0.188 0.988,-0.313 0,0.246 0.071,0.711 0.094,0.961"
         style="fill:#f9fbe7;fill-opacity:1;fill-rule:nonzero;stroke:none"
         id="path388" /><path
         d="m 218.824,116.301 c 0.297,-0.137 0.59,-0.285 0.879,-0.457 -0.633,-0.59 -1.293,-1.129 -1.613,-1.985 1.187,-0.187 1.84,1.016 2.894,1.231 -0.492,-0.781 -1.636,-1.445 -1.191,-2.52 -0.672,0.426 -1.363,0.785 -2.074,1.239 -0.285,0.945 0.972,1.574 1.105,2.492"
         style="fill:#548dd2;fill-opacity:1;fill-rule:nonzero;stroke:none"
         id="path390" /><path
         d="m 230.629,116.301 c 1.324,-0.856 2.715,-1.707 4.019,-2.656 0.758,-0.473 0.129,-1.344 0,-2 -1.73,0.925 -3.546,1.867 -5.578,1.73 0.813,0.805 1.36,1.813 1.559,2.926"
         style="fill:#f1e3af;fill-opacity:1;fill-rule:nonzero;stroke:none"
         id="path392" /><path
         d="m 250.031,111.68 c -1.316,2.629 2.481,3.144 3.887,4.55 0.359,-0.976 0.836,-1.945 1.469,-2.855 -1.953,0.066 -3.668,-0.848 -5.356,-1.695"
         style="fill:#f1e3af;fill-opacity:1;fill-rule:nonzero;stroke:none"
         id="path394" /><path
         d="m 226.063,116.016 c 1.101,-0.071 2.386,-0.172 3.234,-0.993 -0.918,-1.777 -4.063,-1.234 -3.234,0.993"
         style="fill:#9a1c22;fill-opacity:1;fill-rule:nonzero;stroke:none"
         id="path396" /><path
         d="m 255.387,114.957 c 0.488,0.488 1.121,0.859 1.84,1.016 0.5,0.062 0.988,0.109 1.464,0.172 0.625,-2.286 -2.25,-2.922 -3.304,-1.188"
         style="fill:#9a1c22;fill-opacity:1;fill-rule:nonzero;stroke:none"
         id="path398" /><path
         d="m 263.25,111.738 c -1.172,0.86 -0.797,2.996 0.648,3.328 -0.312,-0.757 -1.394,-1.492 -0.746,-2.363 0.321,-0.836 1.305,-0.465 1.446,0.293 -0.383,-0.039 -0.793,-0.113 -1.145,-0.137 0.332,0.426 0.649,0.871 1.004,1.25 0.41,-0.668 0.766,-1.382 0.793,-2.168 -0.652,-0.074 -1.352,-0.203 -2,-0.203"
         style="fill:#548dd2;fill-opacity:1;fill-rule:nonzero;stroke:none"
         id="path400" /><path
         d="m 220.781,113.73 c 0.985,0.782 2.422,0.008 2.809,-1.074 -0.051,-0.808 -1.102,-0.625 -1.684,-0.847 0.219,-0.383 0.449,-0.813 0.672,-1.235 -1.14,-0.133 -1.637,0.719 -1.074,1.664 -0.52,-0.39 -1.078,-0.66 -1.711,-0.633 0.336,0.739 0.965,1.196 1.645,1.567 -0.235,0.183 -0.454,0.383 -0.657,0.558"
         style="fill:#d2ebea;fill-opacity:1;fill-rule:nonzero;stroke:none"
         id="path402" /><path
         d="m 261.219,113.129 c 1.285,-0.246 1.527,-1.742 1.742,-2.777 -0.656,0.16 -1.324,0.347 -1.941,0.539 0.199,-0.516 0.429,-1.032 0.617,-1.594 -1.043,0.648 -1.34,1.93 -2.051,2.851 1.031,-0.207 1.949,-0.761 2.937,-1.128 -0.382,0.718 -0.886,1.418 -1.304,2.109"
         style="fill:#548dd2;fill-opacity:1;fill-rule:nonzero;stroke:none"
         id="path404" /><path
         d="m 213.344,109.359 c -0.289,1.102 -0.828,2.942 0.703,3.368 2.148,0.086 4.18,-0.989 5.855,-2.215 -1.886,-0.887 -3.863,-1.559 -5.98,-1.52 -0.152,0.102 -0.449,0.254 -0.578,0.367"
         style="fill:#c91c2e;fill-opacity:1;fill-rule:nonzero;stroke:none"
         id="path406" /><path
         d="m 264.801,110.602 c 1.656,1.078 3.57,2.171 5.594,2.125 1.98,-0.227 1.5,-3.571 -0.321,-3.633 -1.886,-0.141 -3.691,0.586 -5.273,1.508"
         style="fill:#c91c2e;fill-opacity:1;fill-rule:nonzero;stroke:none"
         id="path408" /><path
         d="m 224.574,111.484 c 0.926,-0.238 1.715,-0.754 2.371,-1.394 -0.812,0.445 -2.5,0.351 -1.218,-0.66 -0.36,0.066 -0.719,0.09 -1.082,0.156 -0.45,-0.383 -0.946,-0.723 -1.504,-0.949 0.293,0.566 0.644,1.082 0.984,1.601 0.656,0.223 1.227,0.696 0.449,1.246"
         style="fill:#548dd2;fill-opacity:1;fill-rule:nonzero;stroke:none"
         id="path410" /><path
         d="m 257.816,109.918 c 0.422,0.723 1.114,1.172 1.84,1.566 -0.277,-0.488 -0.566,-1.023 -0.828,-1.496 0.399,0.114 0.758,0.231 1.133,0.364 -0.285,-0.493 -0.664,-1.036 -0.465,-1.649 0.445,0.219 0.934,0.453 1.383,0.684 -0.352,-0.524 -0.738,-1.41 -1.52,-1.219 -0.464,0.496 -0.668,1.148 -0.906,1.777 -0.148,0 -0.48,-0.027 -0.637,-0.027"
         style="fill:#548dd2;fill-opacity:1;fill-rule:nonzero;stroke:none"
         id="path412" /><path
         d="m 255.355,108.902 c 0.848,0.192 1.872,1.672 2.571,0.485 -0.317,-0.949 0.047,-1.828 1.164,-1.383 -0.16,-1.274 -1.274,-0.918 -2.02,-0.379 0.118,-0.539 0.227,-1.102 0.317,-1.637 -0.789,0.289 -0.918,1.168 -1.184,1.86 -0.394,0.074 -0.781,0.093 -1.18,0.129 0.133,-0.891 0.27,-1.766 0.399,-2.688 -1.055,0.066 -0.891,1.305 -1.184,2.024 -0.359,-0.051 -0.722,-0.09 -1.082,-0.157 0.496,0.848 1.418,1.282 2.199,1.746"
         style="fill:#f3faf0;fill-opacity:1;fill-rule:nonzero;stroke:none"
         id="path414" /><path
         d="m 225.484,109.074 c 1.032,-0.152 1.996,0.379 3.032,0.422 -0.563,-0.93 -0.614,-2.34 -1.637,-2.902 -0.078,0.492 -0.141,0.984 -0.188,1.48 -0.535,-0.097 -1.101,-0.226 -1.617,-0.336 0.129,0.43 0.231,0.899 0.41,1.336"
         style="fill:#bee3f2;fill-opacity:1;fill-rule:nonzero;stroke:none"
         id="path416" /><path
         d="m 229.211,108.773 c 1.508,-0.851 3.078,-1.617 4.73,-2.113 -0.152,-0.426 -0.355,-0.851 -0.511,-1.285 0.84,0.07 1.437,0.836 2.156,1.199 -0.43,-0.836 -0.875,-1.625 -1.375,-2.351 0.094,-0.211 0.363,-0.559 0.453,-0.727 -0.223,0.027 -0.676,0.067 -0.902,0.09 0,0.574 -0.043,1.144 -0.043,1.703 -0.672,-0.34 -1.051,-1.047 -1.594,-1.535 0.098,0.66 0.297,1.269 0.434,1.894 1.23,0.629 0.109,1.153 -0.719,1.215 -0.535,-0.652 -0.848,-1.777 -1.848,-1.867 0.367,0.742 0.86,1.418 1.348,2.09 -0.418,0.266 -0.852,0.562 -1.277,0.855 -0.59,-0.628 -1.418,-1.281 -1.059,-2.222 -0.449,0.203 -0.922,0.422 -1.414,0.652 0.605,0.43 1.125,0.891 1.64,1.418 -0.019,0.215 -0.019,0.758 -0.019,0.984"
         style="fill:#548dd2;fill-opacity:1;fill-rule:nonzero;stroke:none"
         id="path418" /><path
         d="m 251.648,106.438 c 0.356,0.511 0.864,0.937 1.489,1.074 -0.274,-0.289 -0.563,-0.582 -0.852,-0.871 0.469,-0.407 1.031,-0.692 1.461,-1.196 0.289,-1.004 -1.367,-1.781 -1.801,-0.734 0.446,0.019 0.993,-0.113 1.442,0.137 -0.289,0.781 -1.239,0.961 -1.739,1.59"
         style="fill:#548dd2;fill-opacity:1;fill-rule:nonzero;stroke:none"
         id="path420" /><path
         d="m 247.656,104.73 c 0,1.368 1.477,1.684 2.559,1.504 -0.078,-0.586 -0.184,-1.148 -0.297,-1.703 0.453,-0.218 0.902,-0.468 0.965,-1.078 -0.649,0 -1.278,0.25 -1.75,0.68 0,-0.43 0,-0.856 -0.039,-1.293 -0.164,0 -0.52,0 -0.727,0 0,0.723 0,1.473 -0.019,2.183 -0.18,-0.074 -0.543,-0.23 -0.692,-0.293"
         style="fill:#bfe4ee;fill-opacity:1;fill-rule:nonzero;stroke:none"
         id="path422" /><path
         d="m 237.07,105.738 c 0.563,-0.09 1.082,-0.222 1.645,-0.316 -0.949,-0.426 -1.711,-1.719 -0.902,-2.625 -0.512,0.043 -1.075,0.043 -1.598,0.062 0.656,0.844 1.285,1.805 0.855,2.879"
         style="fill:#548dd2;fill-opacity:1;fill-rule:nonzero;stroke:none"
         id="path424" /><path
         d="m 238.734,104.57 c 0.293,0.875 1.254,1.008 1.93,0.426 -0.496,-0.047 -0.945,-0.062 -1.398,-0.129 0.3,-0.515 0.683,-1.023 0.875,-1.66 -0.192,-1.148 -2.219,-1.078 -1.981,0.246 0.481,-0.355 0.934,-0.723 1.559,-0.676 -0.27,0.61 -0.625,1.227 -0.985,1.793"
         style="fill:#548dd2;fill-opacity:1;fill-rule:nonzero;stroke:none"
         id="path426" /><path
         d="m 243.629,105.289 c 2.363,-0.156 0.359,-3.859 -1.344,-2.738 -1.347,1.012 0.09,2.609 1.344,2.738"
         style="fill:#548dd2;fill-opacity:1;fill-rule:nonzero;stroke:none"
         id="path428" /><path
         d="m 244.934,105.445 c 0.363,0 0.714,0 1.078,0 -0.199,-0.734 -0.645,-1.593 -0.219,-2.347 1.281,0.246 0.68,1.925 1.594,2.531 -0.067,-0.988 -0.18,-1.996 0.351,-2.899 -0.375,0.11 -0.785,0.2 -1.136,0.297 -1.739,-1.214 -1.575,1.325 -1.668,2.418"
         style="fill:#548dd2;fill-opacity:1;fill-rule:nonzero;stroke:none"
         id="path430" /><path
         d="m 243.277,104.793 c 0.223,-0.016 0.641,-0.063 0.871,-0.063 0.629,-1.703 -2,-2.812 -1.976,-0.648 0.32,-0.019 0.605,-0.078 0.902,-0.141 0.024,0.219 0.153,0.629 0.203,0.852"
         style="fill:#f9fbe7;fill-opacity:1;fill-rule:nonzero;stroke:none"
         id="path432" /></g></g></svg>
