<?xml version="1.0" encoding="UTF-8" standalone="no"?>
<svg
   xmlns:dc="http://purl.org/dc/elements/1.1/"
   xmlns:cc="http://creativecommons.org/ns#"
   xmlns:rdf="http://www.w3.org/1999/02/22-rdf-syntax-ns#"
   xmlns:svg="http://www.w3.org/2000/svg"
   xmlns="http://www.w3.org/2000/svg"
   version="1.1"
   id="svg2"
   xml:space="preserve"
   width="42.666668"
   height="42.666668"
   viewBox="0 0 42.666668 42.666668"><metadata
     id="metadata8"><rdf:RDF><cc:Work
         rdf:about=""><dc:format>image/svg+xml</dc:format><dc:type
           rdf:resource="http://purl.org/dc/dcmitype/StillImage" /></cc:Work></rdf:RDF></metadata><defs
     id="defs6"><radialGradient
       fx="0"
       fy="0"
       cx="0"
       cy="0"
       r="1"
       gradientUnits="userSpaceOnUse"
       gradientTransform="matrix(0,159.852,-159.828,0,103.753,161.878)"
       spreadMethod="pad"
       id="radialGradient328"><stop
         style="stop-opacity:1;stop-color:#e21e27"
         offset="0"
         id="stop324" /><stop
         style="stop-opacity:1;stop-color:#a41c23"
         offset="1"
         id="stop326" /></radialGradient></defs><g
     id="g10"
     transform="matrix(1.3333333,0,0,-1.3333333,0,42.666667)"><g
       id="g12"
       transform="scale(0.1)"><path
         d="M 159.988,-0.0117188 C 248.129,-0.0117188 320,71.8672 320,160 320,248.129 248.129,320.012 159.988,320.012 71.8477,320.012 0,248.129 0,160 0,71.8672 71.8477,-0.0117188 159.988,-0.0117188"
         style="fill:#273375;fill-opacity:1;fill-rule:evenodd;stroke:none"
         id="path14" /><path
         d="m 50.1367,272.641 c 0,1.195 0,2.367 0,3.523 -1.207,-1.137 -2.4297,-2.328 -3.5937,-3.523 1.2148,0 2.4062,0 3.5937,0"
         style="fill:#ffffff;fill-opacity:1;fill-rule:nonzero;stroke:none"
         id="path16" /><path
         d="m 50.1367,272.641 c -1.1875,0 -2.3789,0 -3.5937,0 -7.2266,-7.254 -13.7539,-15.196 -19.4766,-23.746 7.7031,0 15.3867,0 23.0703,0 0,-16.309 -0.0508,-32.68 0,-49 6.5664,0 13.0352,0 19.5547,0 0.0469,16.32 0,32.691 0.0469,49 30.0156,0 60.0977,0 90.1327,0 0.07,7.941 0.07,15.824 0.039,23.746 -30.074,0 -60.1561,0 -90.1717,0 -0.0195,6.457 -0.0195,12.898 -0.0195,19.324 -6.9532,-4.735 -13.4649,-10.039 -19.5821,-15.801 0,-1.156 0,-2.328 0,-3.523"
         style="fill:#d11d2c;fill-opacity:1;fill-rule:nonzero;stroke:none"
         id="path18" /><path
         d="m 159.383,320.012 c -0.785,0 -1.574,-0.024 -2.379,-0.043 -20.609,-12.797 -41.399,-25.235 -62.0157,-37.946 -1.0352,-0.707 -2.211,-1.082 -3.375,-1.003 -4.6094,0.117 -9.2539,-0.079 -13.8711,0.117 20.3906,12.718 40.9878,24.941 61.4488,37.519 -0.019,0 -0.039,0 -0.039,0 -1.929,-0.269 -3.812,-0.566 -5.754,-0.875 -0.168,-0.019 -0.328,-0.062 -0.515,-0.09 -1.942,-0.339 -3.883,-0.687 -5.82,-1.105 -16.84,-10.309 -33.7896,-20.488 -50.6763,-30.731 -0.0312,3.485 -0.0312,6.977 -0.0508,10.45 v 0 c -2.2461,-1.391 -4.4453,-2.825 -6.6171,-4.34 0,-6.426 0,-12.867 0.0195,-19.324 30.0156,0 60.0977,0 90.1717,0 0.031,-7.922 0.031,-15.805 -0.039,-23.746 -30.035,0 -60.1171,0 -90.1327,0 -0.0469,-16.309 0,-32.68 -0.0469,-49 2.1992,0 4.4375,0 6.6445,0 0,11.921 -0.0468,23.863 0.0508,35.785 18.6016,-11.184 37.1603,-22.481 55.7693,-33.735 1.512,-0.886 2.985,-2.23 4.778,-2.05 7.57,0.039 15.164,-0.047 22.738,0.039 -21.902,13.714 -44.067,26.703 -65.9689,40.425 4.7969,0.246 9.5939,0.079 14.3709,0.157 1.672,0.05 3.094,-1.164 4.528,-2 15.753,-9.633 31.503,-19.274 47.269,-28.918 0.117,-3.215 0.039,-6.489 0.07,-9.703 0.137,4.964 -0.07,9.882 -0.031,14.808 -14.031,8.629 -28.191,16.899 -42.144,25.735 14.019,0.167 28.113,0 42.144,0.078 0.078,13.476 0.078,27.031 0,40.554 -14.031,0.11 -28.125,-0.129 -42.144,0.11 13.914,8.855 28.222,16.898 42.105,25.863 0.117,4.32 0,8.648 0.02,12.969 -0.149,0 -0.34,0 -0.508,0"
         style="fill:#ffffff;fill-opacity:1;fill-rule:nonzero;stroke:none"
         id="path20" /><path
         d="M 139.191,318.656 C 118.73,306.078 98.1328,293.855 77.7422,281.137 c 4.6172,-0.196 9.2617,0 13.8711,-0.117 1.164,-0.079 2.3398,0.296 3.375,1.003 20.6167,12.711 41.4067,25.149 62.0157,37.946 -6.031,-0.117 -11.953,-0.535 -17.813,-1.313"
         style="fill:#d11d2c;fill-opacity:1;fill-rule:nonzero;stroke:none"
         id="path22" /><path
         d="m 27.0664,248.895 c -2.7656,-4.098 -5.3516,-8.36 -7.7305,-12.747 1.5899,0.977 3.1641,1.942 4.7383,2.907 1.211,0.715 2.4258,1.55 3.7813,1.461 4.707,-0.078 9.4922,0.089 14.2383,-0.157 -9.75,-6.082 -19.5938,-12.074 -29.4258,-18.004 -0.9453,-2.179 -1.8125,-4.386 -2.6563,-6.617 11.0039,6.668 22.0039,13.344 33,19.942 0.0274,-11.922 0,-23.864 0.0274,-35.785 2.3789,0 4.7382,0 7.0976,0 -0.0508,16.32 0,32.691 0,49 -7.6836,0 -15.3672,0 -23.0703,0"
         style="fill:#ffffff;fill-opacity:1;fill-rule:nonzero;stroke:none"
         id="path24" /><path
         d="m 42.0938,240.359 c -4.7461,0.246 -9.5313,0.079 -14.2383,0.157 -1.3555,0.089 -2.5703,-0.746 -3.7813,-1.461 -1.5742,-0.965 -3.1484,-1.93 -4.7383,-2.907 -2.4492,-4.457 -4.6484,-9.066 -6.6679,-13.793 9.832,5.93 19.6758,11.922 29.4258,18.004"
         style="fill:#d11d2c;fill-opacity:1;fill-rule:nonzero;stroke:none"
         id="path26" /><path
         d="m 93.7031,240.359 c 4.7969,0.246 9.5939,0.079 14.3709,0.157 1.672,0.05 3.094,-1.164 4.528,-2 15.753,-9.633 31.503,-19.274 47.269,-28.918 0.117,-3.215 0.039,-6.489 0.07,-9.703 l -0.269,0.039 c -21.902,13.714 -44.067,26.703 -65.9689,40.425"
         style="fill:#d11d2c;fill-opacity:1;fill-rule:nonzero;stroke:none"
         id="path28" /><path
         d="m 277.18,232.766 c -0.61,-0.25 -1.106,-0.121 -1.504,0.359 -1.172,0.246 -2.379,0.496 -3.531,0.746 0.906,0.156 1.871,0.309 2.765,0.445 0.207,-0.289 0.567,-0.894 0.766,-1.191 0.648,0.457 1.144,0.297 1.504,-0.359 1.59,1.222 1.293,-1.621 0,0 z m -30.778,4.574 c -0.203,-0.043 -0.402,-0.082 -0.519,-0.106 -2.27,0.11 -4.469,0.11 -6.75,0 -0.117,0.024 -0.317,0.063 -0.52,0.11 0.203,-0.047 0.403,-0.086 0.52,-0.11 2.281,0.11 4.48,0.11 6.75,0 0.117,0.024 0.316,0.063 0.519,0.106 0.2,0.039 0.407,0.078 0.536,0.101 0.5,0.176 1.007,0.325 1.515,0.485 -0.508,-0.16 -1.015,-0.309 -1.515,-0.485 -0.129,-0.023 -0.336,-0.062 -0.536,-0.101 z m -35.629,-3.16 c -0.25,-0.707 -0.707,-1.016 -1.464,-0.965 -0.258,-0.16 -0.817,-0.41 -1.114,-0.57 -0.488,0.828 0.778,1.472 1.114,0.57 0.25,0.656 0.718,1.012 1.464,0.965 0.446,0.457 1.114,0.586 1.77,0.386 -0.27,-0.738 -1.262,-1.144 -1.77,-0.386 z m 72.446,-15.856 c -0.36,4.012 0.051,8.102 -0.317,12.133 0.157,0.051 0.407,0.156 0.567,0.199 0.199,0.16 0.644,0.535 0.855,0.735 -9.676,3.859 -20.062,6.238 -30.476,6.789 -0.055,0.074 -0.129,0.172 -0.176,0.226 -0.852,0 -1.703,-0.004 -2.578,-0.066 -0.375,0.008 -0.75,0.066 -1.121,0.066 h -0.004 c -4.832,0.899 -10.067,0.899 -14.895,0 v 0 c -0.304,0 -0.609,-0.047 -0.914,-0.051 -0.047,0.02 -0.101,0.028 -0.152,0.051 -0.844,0 -1.699,-0.066 -2.555,-0.066 -0.047,-0.074 -0.101,-0.09 -0.144,-0.152 -10.477,-0.54 -20.907,-2.922 -30.61,-6.797 0.203,-0.2 0.649,-0.575 0.848,-0.735 0.16,-0.043 0.476,-0.148 0.566,-0.199 -0.406,-4.031 0.11,-8.121 -0.355,-12.133 0.109,-2.258 0.265,-4.625 -0.09,-6.957 l -0.32,-0.644 c -0.446,-3.254 -0.336,-6.629 -0.039,-9.91 27.476,0.046 54.933,0.046 82.398,0 0.246,3.332 0.578,6.695 -0.148,10.019 -0.657,2.406 -0.34,4.965 -0.34,7.492"
         style="fill:#ffffff;fill-opacity:1;fill-rule:nonzero;stroke:none"
         id="path30" /><path
         d="m 232.965,237.145 c 9.961,-0.2 19.973,0.644 29.723,-1.504 6.789,-1.114 13.476,-2.836 20.011,-5.184 0.36,-6.391 -0.039,-12.789 0.321,-19.137 0.847,-3.047 0.687,-6.211 0.648,-9.336 -0.32,-0.765 -1.164,-0.964 -1.852,-0.925 -26.519,0.121 -53.031,-0.039 -79.543,0.121 -1.921,1.414 -0.566,4.496 -0.855,6.629 1.352,7.453 0.406,15.093 0.895,22.648 9.703,4.07 20.332,5.184 30.652,6.688"
         style="fill:#ecec09;fill-opacity:1;fill-rule:nonzero;stroke:none"
         id="path32" /><path
         d="m 210.773,234.18 c 0.446,0.457 1.114,0.586 1.77,0.386 -0.27,-0.738 -1.262,-1.144 -1.77,-0.386"
         style="fill:#ffffff;fill-opacity:1;fill-rule:nonzero;stroke:none"
         id="path34" /><path
         d="m 272.145,233.871 c 0.906,0.156 1.871,0.309 2.765,0.445 0.207,-0.289 0.567,-0.894 0.766,-1.195 -1.172,0.25 -2.379,0.5 -3.531,0.75"
         style="fill:#ffffff;fill-opacity:1;fill-rule:nonzero;stroke:none"
         id="path36" /><path
         d="m 209.309,233.211 c 0.25,0.66 0.718,1.016 1.464,0.969 -0.25,-0.707 -0.707,-1.016 -1.464,-0.969"
         style="fill:#ffffff;fill-opacity:1;fill-rule:nonzero;stroke:none"
         id="path38" /><path
         d="m 208.195,232.645 c -0.488,0.828 0.778,1.472 1.114,0.566 -0.258,-0.156 -0.817,-0.406 -1.114,-0.566"
         style="fill:#ffffff;fill-opacity:1;fill-rule:nonzero;stroke:none"
         id="path40" /><path
         d="m 275.676,233.121 c 0.648,0.461 1.144,0.301 1.504,-0.355 -0.61,-0.25 -1.106,-0.121 -1.504,0.355"
         style="fill:#ffffff;fill-opacity:1;fill-rule:nonzero;stroke:none"
         id="path42" /><path
         d="m 234.219,231.672 c 2.039,1.183 4.886,1.293 6.746,-0.32 1.762,-1.801 1.344,-4.965 3.613,-6.379 2.27,-1.504 4.231,-3.332 6.586,-4.586 2.828,-1.453 6.082,-0.856 9.047,-1.215 -0.695,-0.637 -1.453,-1.254 -2.25,-1.801 0.758,-0.308 1.555,-0.558 2.32,-0.898 -0.875,-0.516 -1.859,-0.477 -2.828,-0.567 1.703,-1.414 3.207,-3.113 4.172,-5.113 -4.828,-1.215 -8.031,5.57 -13.027,3.422 -0.746,-2.367 -1.461,-4.797 -2,-7.195 1.55,-0.477 3.414,-1.024 3.711,-2.875 -1.215,0.449 -2.368,1.492 -3.711,1.253 -1.325,-0.644 -0.965,-2.218 -0.926,-3.363 -1.094,0.559 -1.094,1.899 -1.344,2.965 -0.965,-0.656 -1.812,-1.422 -2.668,-2.16 -0.039,1.601 1.414,2.508 2.461,3.453 -1.105,-0.336 -2.879,-0.039 -3.316,-1.391 -1.91,2.418 -3.969,-0.113 -4.059,-2.261 -0.277,0.894 -0.418,1.8 -0.578,2.707 -0.758,-0.907 -1.492,-1.852 -2.258,-2.754 0.039,1.183 0.309,2.406 0.559,3.609 -0.899,-0.644 -1.703,-1.363 -2.559,-2.058 0.039,3.015 3.094,4.019 5.68,3.523 1.394,1.66 1.594,3.859 1.914,5.93 -3.625,1.8 -6.051,5.73 -5.844,9.754 -0.051,1.414 0.559,3.035 -0.496,4.218 -1.523,1.723 -4.023,1.621 -5.883,2.727 2.239,0.848 4.867,0 6.938,1.375"
         style="fill:#110f0e;fill-opacity:1;fill-rule:nonzero;stroke:none"
         id="path44" /><path
         d="m 233.004,230.199 c 1.144,0.914 2.566,1.512 4.082,1.313 l -0.051,-0.457 c -0.289,-0.153 -0.816,-0.442 -1.105,-0.649 -0.16,-0.207 -0.52,-0.656 -0.688,-0.855 -0.418,-0.11 -1.234,-0.258 -1.633,-0.36 1.067,-1.261 2.77,-1.261 4.282,-1.414 h 0.554 c 0.899,-0.902 1.137,-2.117 0.809,-3.363 l -0.199,0.559 c -0.11,0.289 -0.321,0.894 -0.469,1.203 -0.09,0.051 -0.348,0.211 -0.457,0.25 l -0.539,0.211 c -1.172,-1.426 -2.11,-2.969 -2.965,-4.602 -0.117,2.817 -0.07,5.594 -2.109,7.766 -0.407,0.09 -1.164,0.297 -1.571,0.398 0.696,0 1.364,0 2.059,0"
         style="fill:#ffffff;fill-opacity:1;fill-rule:nonzero;stroke:none"
         id="path46" /><path
         d="m 237.086,231.512 c 0.504,-0.399 1.043,-0.809 1.57,-1.215 -0.316,-0.547 -0.668,-1.106 -0.976,-1.703 0.05,-0.207 0.16,-0.617 0.211,-0.817 -1.512,0.153 -3.215,0.153 -4.282,1.414 0.399,0.102 1.215,0.25 1.633,0.36 0.168,0.199 0.528,0.648 0.688,0.855 0.449,-1.859 2.468,-0.715 1.105,0.649 l 0.051,0.457"
         style="fill:#707073;fill-opacity:1;fill-rule:nonzero;stroke:none"
         id="path48" /><path
         d="m 238.895,231.75 c 2.257,-0.797 2.925,-3.156 3.414,-5.273 -0.149,-0.567 -0.289,-1.106 -0.45,-1.664 -1.101,2.308 -3.273,4.179 -2.964,6.937"
         style="fill:#efc49d;fill-opacity:1;fill-rule:nonzero;stroke:none"
         id="path50" /><path
         d="m 200.414,215.152 c -0.121,5.344 -0.609,11.024 0.285,16.239 0.203,-0.2 0.649,-0.578 0.848,-0.735 -0.199,-4.14 -0.238,-8.16 0.211,-12.332 0.109,-2.258 0.265,-4.625 -0.09,-6.957 l -0.32,-0.644 c -0.129,1.043 -0.336,2.121 -0.578,3.125 -0.118,0.367 -0.266,0.965 -0.356,1.304"
         style="fill:#888b89;fill-opacity:1;fill-rule:nonzero;stroke:none"
         id="path52" /><path
         d="m 201.547,230.656 c 0.16,-0.043 0.476,-0.152 0.566,-0.199 -0.406,-4.031 0.11,-8.121 -0.355,-12.133 -0.449,4.172 -0.41,8.192 -0.211,12.332"
         style="fill:#ffffff;fill-opacity:1;fill-rule:nonzero;stroke:none"
         id="path54" /><path
         d="m 235.93,230.406 c 0.289,0.207 0.816,0.496 1.105,0.649 1.363,-1.364 -0.656,-2.508 -1.105,-0.649"
         style="fill:#181615;fill-opacity:1;fill-rule:nonzero;stroke:none"
         id="path56" /><path
         d="m 282.902,230.457 c 0.157,0.047 0.407,0.156 0.567,0.199 -0.61,-2.48 0.855,-4.836 0.199,-7.258 -0.359,-1.648 -0.398,-3.371 -0.449,-5.074 -0.36,4.012 0.051,8.102 -0.317,12.133"
         style="fill:#ffffff;fill-opacity:1;fill-rule:nonzero;stroke:none"
         id="path58" /><path
         d="m 284.324,231.391 c 0.906,-5.215 0.406,-10.895 0.289,-16.239 -0.082,-0.339 -0.242,-0.937 -0.328,-1.304 -0.281,-1.004 -0.527,-2 -0.726,-3.016 -0.657,2.406 -0.34,4.965 -0.34,7.492 0.051,1.703 0.09,3.426 0.449,5.074 0.656,2.422 -0.809,4.778 -0.199,7.258 0.199,0.157 0.644,0.535 0.855,0.735"
         style="fill:#878888;fill-opacity:1;fill-rule:nonzero;stroke:none"
         id="path60" /><path
         d="m 234.625,222.035 c 0.855,1.633 1.793,3.176 2.965,4.602 l 0.539,-0.211 c -1.094,-1.613 -2.449,-3.164 -2.406,-5.184 0.605,0.348 1.222,0.754 1.8,1.164 -0.488,-0.976 -0.886,-1.91 -1.355,-2.875 l -0.289,-0.648 c -0.516,1.047 -0.875,2.109 -1.254,3.152"
         style="fill:#ecec09;fill-opacity:1;fill-rule:nonzero;stroke:none"
         id="path62" /><path
         d="m 238.129,226.426 c 0.109,-0.039 0.367,-0.199 0.457,-0.25 0.148,-0.309 0.359,-0.914 0.469,-1.203 l 0.199,-0.528 c -0.469,-0.488 -0.856,-0.976 -1.266,-1.504 -0.097,-0.128 -0.347,-0.406 -0.465,-0.535 -0.578,-0.41 -1.195,-0.816 -1.8,-1.164 -0.043,2.02 1.312,3.571 2.406,5.184"
         style="fill:#7a391a;fill-opacity:1;fill-rule:nonzero;stroke:none"
         id="path64" /><path
         d="m 241.859,224.813 c 0.161,0.558 0.301,1.097 0.45,1.664 0.168,-0.301 0.527,-0.856 0.656,-1.145 -0.129,-0.199 -0.399,-0.727 -0.488,-0.965 0.648,-0.57 1.293,-1.164 1.902,-1.762 0.359,0.208 1.055,0.657 1.402,0.864 -0.269,-0.528 -0.468,-1.063 -0.715,-1.59 0.368,-0.199 0.766,-0.328 1.164,-0.488 0.2,0.25 0.547,0.855 0.747,1.144 0.07,-0.449 0.16,-1.383 0.199,-1.84 0.367,-0.765 0.726,-1.453 1.133,-2.211 -2.079,0.996 -4.289,1.95 -5.95,3.602 -0.05,0 -0.25,0 -0.289,0 -0.828,-0.051 -1.55,-0.09 -2.328,-0.129 0.656,0.238 1.313,0.449 1.969,0.648 -0.617,0.598 -1.191,1.153 -1.809,1.762 0.657,0.156 1.313,0.285 1.957,0.446"
         style="fill:#ffffff;fill-opacity:1;fill-rule:nonzero;stroke:none"
         id="path66" /><path
         d="m 237.523,222.406 c 0.118,0.129 0.368,0.407 0.465,0.535 -0.593,-2.199 0.41,-4.656 2.532,-5.671 4.007,-2.567 9.339,0.859 13.023,-2.528 -1.66,0.367 -3.324,0.606 -4.996,0.41 -0.238,0.196 -0.695,0.606 -0.965,0.754 -0.445,-1.254 -0.805,-2.547 -1.254,-3.879 -0.605,0.817 -1.144,1.621 -1.672,2.465 -0.328,-0.039 -1.043,-0.187 -1.371,-0.238 -1.515,0.559 -2.48,1.91 -3.703,2.867 -1.086,0.867 -1.992,2.012 -3.414,2.41 0.469,0.965 0.867,1.899 1.355,2.875"
         style="fill:#ffffff;fill-opacity:1;fill-rule:nonzero;stroke:none"
         id="path68" /><path
         d="m 238.695,220.633 c -0.039,0.918 0.36,1.324 1.047,1.324 0.778,0.039 1.5,0.078 2.328,0.129 -0.211,-1.59 -2.328,-1.004 -3.375,-1.453"
         style="fill:#deea37;fill-opacity:1;fill-rule:nonzero;stroke:none"
         id="path70" /><path
         d="m 247.176,220.695 c 0.406,0.207 0.816,0.387 1.215,0.547 1.468,-1.105 3.172,-1.914 4.347,-3.414 -1.054,0.406 -2.121,0.895 -3.125,1.344 -0.05,-0.289 -0.16,-0.938 -0.211,-1.305 -0.347,0.16 -0.695,0.328 -1.054,0.457 l -0.039,0.16 c -0.407,0.758 -0.766,1.446 -1.133,2.211"
         style="fill:#ecec09;fill-opacity:1;fill-rule:nonzero;stroke:none"
         id="path72" /><path
         d="m 238.734,220.387 c 1.305,0.047 2.649,0.109 3.942,0.109 -0.856,-0.566 -1.871,-0.758 -2.774,-1.125 1.512,-0.984 3.223,0.805 4.883,0.656 -0.855,-0.894 -1.949,-1.394 -2.926,-2.109 0.657,0.07 1.317,0.156 1.954,0.277 0.406,-0.277 0.765,-0.527 1.125,-0.765 l 0.656,-0.407 c -2.758,-0.707 -5.852,0.645 -6.86,3.364"
         style="fill:#cfda11;fill-opacity:1;fill-rule:nonzero;stroke:none"
         id="path74" /><path
         d="m 244.938,217.43 c 0.496,0.398 0.984,0.804 1.539,1.164 0.816,-0.52 1.722,-0.965 2.578,-1.473 -1.203,-0.058 -2.379,-0.148 -3.461,-0.098 l -0.656,0.407"
         style="fill:#eaeae7;fill-opacity:1;fill-rule:nonzero;stroke:none"
         id="path76" /><path
         d="m 239.582,217.121 c 1.223,-0.957 2.188,-2.308 3.703,-2.867 l 0.399,-0.207 c -0.114,-0.09 -0.27,-0.348 -0.36,-0.449 -1.91,0.101 -4.07,0.16 -5.246,1.91 0.766,-0.16 1.504,-0.246 2.32,-0.399 -0.289,0.649 -0.558,1.364 -0.816,2.012"
         style="fill:#c79a19;fill-opacity:1;fill-rule:nonzero;stroke:none"
         id="path78" /><path
         d="m 253.344,215.906 c 1.992,0.41 3.812,-0.398 4.965,-2.058 -1.957,-0.289 -3.461,1.101 -4.965,2.058"
         style="fill:#ffffff;fill-opacity:1;fill-rule:nonzero;stroke:none"
         id="path80" /><path
         d="m 200.414,215.152 c 0.09,-0.339 0.238,-0.937 0.356,-1.304 0.289,-7.305 -0.266,-14.578 0.199,-21.922 -0.27,-0.66 -0.465,-1.305 -0.676,-2.031 -0.246,8.41 -0.246,16.847 0.121,25.257"
         style="fill:#f6f7fc;fill-opacity:1;fill-rule:nonzero;stroke:none"
         id="path82" /><path
         d="m 284.285,213.848 c 0.086,0.367 0.246,0.965 0.328,1.304 0.157,-8.203 0.617,-16.402 -0.043,-24.531 l -0.199,0.617 c -0.258,7.512 -0.219,15.055 -0.086,22.61"
         style="fill:#f9f9fc;fill-opacity:1;fill-rule:nonzero;stroke:none"
         id="path84" /><path
         d="m 200.77,213.848 c 0.242,-1.004 0.449,-2.082 0.578,-3.125 -0.446,-3.254 -0.336,-6.629 -0.039,-9.91 0,-0.25 -0.051,-0.809 -0.051,-1.055 -0.09,-2.36 0.051,-4.77 0.051,-7.137 l -0.34,-0.695 c -0.465,7.344 0.09,14.617 -0.199,21.922"
         style="fill:#12110f;fill-opacity:1;fill-rule:nonzero;stroke:none"
         id="path86" /><path
         d="m 243.684,214.047 c 1.183,-0.758 1.75,-2.109 2.437,-3.254 -0.289,-1.055 -0.648,-2.133 -0.984,-3.195 -1.567,-0.039 -3.227,-0.25 -4.172,-1.711 -0.567,0.617 -1.223,1.172 -1.832,1.711 0.527,1.015 1.066,1.98 1.574,2.925 0.297,0.11 0.914,0.309 1.203,0.399 0.399,0.926 0.817,1.871 1.414,2.676 0.09,0.101 0.246,0.359 0.36,0.449"
         style="fill:#ecec09;fill-opacity:1;fill-rule:nonzero;stroke:none"
         id="path88" /><path
         d="m 283.559,210.832 c 0.199,1.016 0.445,2.012 0.726,3.016 -0.133,-7.555 -0.172,-15.098 0.086,-22.61 -0.418,0.934 -0.613,1.981 -0.664,3.043 0.09,1.824 0.16,3.672 0.051,5.477 0,0.246 -0.051,0.765 -0.051,1.055 0.246,3.332 0.578,6.695 -0.148,10.019"
         style="fill:#110f0e;fill-opacity:1;fill-rule:nonzero;stroke:none"
         id="path90" /><path
         d="m 239.988,211.766 c 0.121,0.629 0.25,1.226 0.36,1.832 0.656,-0.239 1.511,-0.239 1.812,-1.004 -0.25,0.039 -0.867,0.039 -1.156,0.039 -0.297,-0.238 -0.656,-0.535 -1.016,-0.867"
         style="fill:#ffffff;fill-opacity:1;fill-rule:nonzero;stroke:none"
         id="path92" /><path
         d="m 201.309,200.813 c 27.476,0.046 54.933,0.046 82.398,0 0,-0.29 0.051,-0.809 0.051,-1.055 -7.387,-0.199 -14.77,0.156 -22.172,-0.199 h -0.359 c -3.422,0.156 -6.829,0.304 -10.27,-0.102 0.246,-0.039 0.856,-0.109 1.125,-0.148 -0.398,-0.7 -0.816,-1.356 -1.254,-1.993 -0.211,0 -0.566,0 -0.765,0 -0.161,0.579 -0.29,1.254 -0.45,1.832 0.16,0.161 0.36,0.411 0.489,0.567 -16.282,0.043 -32.532,-0.098 -48.844,0.043 0,0.246 0.051,0.805 0.051,1.055"
         style="fill:#929393;fill-opacity:1;fill-rule:nonzero;stroke:none"
         id="path94" /><path
         d="m 201.258,199.758 c 16.312,-0.141 32.562,0 48.844,-0.043 -0.129,-0.156 -0.329,-0.406 -0.489,-0.567 -3.941,0 -7.902,0.122 -11.883,-0.039 -0.25,0 -0.695,0 -0.933,0 -11.637,0.161 -23.27,0.161 -34.891,0 -0.039,-3.265 0.16,-6.539 0.407,-9.754 l -0.29,-0.359 c -0.265,1.215 -0.515,2.43 -0.714,3.625 0,2.367 -0.141,4.777 -0.051,7.137"
         style="fill:#f3f9fd;fill-opacity:1;fill-rule:nonzero;stroke:none"
         id="path96" /><path
         d="m 250.957,199.457 c 3.441,0.406 6.848,0.258 10.27,0.102 l -0.25,-0.411 c -2.965,0.071 -5.922,-0.039 -8.895,0.161 -0.269,0.039 -0.879,0.109 -1.125,0.148"
         style="fill:#f5f9fd;fill-opacity:1;fill-rule:nonzero;stroke:none"
         id="path98" /><path
         d="m 261.586,199.559 c 7.402,0.355 14.785,0 22.172,0.199 0.109,-1.805 0.039,-3.653 -0.051,-5.477 -0.148,-1.5 -0.359,-3.015 -0.437,-4.527 -0.11,-1.563 -0.161,-3.066 -0.161,-4.617 -0.089,-0.657 -0.16,-1.305 -0.25,-1.981 -0.308,-2.109 -0.593,-4.16 -0.804,-6.269 -0.039,-0.348 -0.16,-0.965 -0.2,-1.324 -0.289,-1.352 -0.605,-2.766 -0.894,-4.118 l -0.32,0.098 c 1.625,9.105 2.418,18.301 2.468,27.566 -6.988,0.2 -14.031,-0.05 -21.078,0.161 l -0.445,0.289"
         style="fill:#f2f5fb;fill-opacity:1;fill-rule:nonzero;stroke:none"
         id="path100" /><path
         d="m 201.906,199.109 c 11.621,0.161 23.254,0.161 34.891,0 -0.051,-1.793 -0.051,-3.625 -0.051,-5.484 -1.742,0.109 -3.492,0.199 -5.207,0.039 0,-0.535 0,-1.144 0.051,-1.691 1.703,-0.098 3.484,0.05 5.156,-0.618 0,-1.3 0,-2.605 0,-3.91 -1.066,0.2 -2.121,0.34 -3.137,0.618 -0.605,-0.278 -1.203,-0.567 -1.82,-0.817 0.32,-0.051 0.856,-0.109 1.125,-0.156 0.051,-0.449 0.051,-1.348 0.051,-1.871 0.785,0.258 1.543,0.457 2.359,0.652 0.246,-0.129 0.696,-0.496 0.895,-0.652 0.109,-1.664 0.109,-3.367 0.16,-5.028 -1.465,0.161 -2.969,0.161 -4.391,-0.082 -0.039,-1.312 -0.039,-2.574 -0.039,-3.82 0.289,0.649 0.567,1.297 0.817,1.992 0.984,0.039 2.058,0.117 3.113,0.199 0.09,-0.242 0.379,-0.648 0.539,-0.894 -0.09,-1.258 -0.039,-2.52 -0.199,-3.773 -1.395,-1.352 -3.414,-1.016 -5.164,-0.977 -0.309,-1.254 -1.164,-3.004 0.894,-2.836 0.766,-0.129 1.555,-0.219 2.309,-0.246 -0.848,-1.149 -1.692,-2.199 -2.559,-3.297 0.946,0.766 1.871,1.504 2.809,2.27 -0.5,-2.668 -1.254,-5.286 -1.742,-7.942 l -0.2,0.102 c -0.578,2.715 -1.921,5.222 -1.871,8.039 -0.16,-0.321 -0.359,-0.559 -0.496,-0.848 -0.679,1.356 -1.414,2.649 -2.109,3.914 -2.59,4.297 -2.836,9.363 -3.235,14.16 0.11,1.184 -0.898,1.789 -1.875,2.2 -0.445,0.199 -0.894,0.398 -1.339,0.558 -0.45,1.254 -0.907,2.445 -1.305,3.711 -0.606,-0.34 -1.215,-0.746 -1.832,-1.105 -1.133,-3.016 -2.547,-5.891 -5.621,-7.356 -1.871,2.172 -2.36,5.195 -4.481,7.106 -0.089,0.949 -0.156,1.914 -0.246,2.879 -0.359,0 -1.015,0.089 -1.375,0.136 -0.129,-0.136 -0.445,-0.336 -0.605,-0.457 -0.688,-0.754 -1.293,-1.543 -1.953,-2.308 -0.645,-0.754 -1.254,-1.461 -1.91,-2.161 -0.247,3.215 -0.446,6.489 -0.407,9.754"
         style="fill:#9cc4ea;fill-opacity:1;fill-rule:nonzero;stroke:none"
         id="path102" /><path
         d="m 236.797,199.109 c 0.238,0 0.683,0 0.933,0 0.2,-1.793 0.309,-3.625 0.11,-5.445 2,0.16 4.07,0.121 6.09,-0.09 -0.047,-0.554 -0.047,-1.054 -0.047,-1.601 -0.113,0.308 -0.36,0.836 -0.52,1.097 -3.781,0.188 -7.593,0.309 -11.375,0.188 -0.078,-0.328 -0.289,-0.977 -0.398,-1.285 -0.051,0.547 -0.051,1.156 -0.051,1.691 1.715,0.16 3.465,0.07 5.207,-0.039 0,1.859 0,3.691 0.051,5.484"
         style="fill:#12110f;fill-opacity:1;fill-rule:nonzero;stroke:none"
         id="path104" /><path
         d="m 237.73,199.109 c 3.981,0.161 7.942,0.039 11.883,0.039 0.16,-0.578 0.289,-1.253 0.45,-1.832 -1.543,0.039 -3.086,0 -4.59,-0.316 0.121,-0.09 0.308,-0.25 0.41,-0.359 1.211,-1.762 3.281,-0.914 5.035,-0.914 1.91,0.117 3.82,-0.082 5.633,0.664 0,0.16 -0.043,0.519 -0.043,0.718 -1.86,0.246 -3.77,0.207 -5.68,0.207 0.438,0.637 0.856,1.293 1.254,1.993 2.973,-0.2 5.93,-0.09 8.895,-0.161 -0.161,-1.382 -0.25,-2.843 -0.446,-4.32 0.129,-0.199 0.407,-0.547 0.496,-0.765 l 0.25,-0.278 c -1.91,0.238 -3.824,0.039 -5.683,-0.121 0,-0.594 0.058,-1.254 0.097,-1.859 -1.492,0.07 -3.023,0 -4.488,-0.078 -0.039,1.293 0.57,3.351 -1.14,3.839 -0.161,-1.332 -0.204,-2.687 -0.204,-4 -0.457,0.516 -0.964,1.004 -1.41,1.563 -0.547,-1.106 -4.191,-1.492 -2.816,-2.656 1.144,-1.164 2.715,-1.325 4.18,-0.778 0.289,-2.199 0.046,-4.429 0.25,-6.59 -1.915,0.25 -3.875,0.411 -5.805,-0.039 0.16,-0.16 0.398,-0.406 0.57,-0.566 1.36,-2.148 4.02,-0.895 6.09,-1.195 -0.699,-1.981 -0.5,-4.039 -0.371,-5.981 -1.055,0 -2.027,0 -3.043,0.039 0.238,0.309 0.695,0.926 0.945,1.207 -0.945,-0.531 -1.929,-1.047 -2.855,-1.504 0.078,-0.199 0.187,-0.398 0.328,-0.566 0.266,-0.449 0.555,-0.906 0.816,-1.344 0.239,-0.359 0.438,-0.656 0.715,-1.008 -1.781,-3.382 -3.332,-6.824 -5.144,-10.199 -0.805,2.61 -2.2,5.067 -2.2,7.832 1.911,-0.027 4.348,-0.695 5.164,1.664 l -0.207,0.618 c -2.23,0.535 -4.668,0.398 -6.988,0.128 0,1.7 0,3.442 -0.09,5.145 0.746,0.199 1.516,0.406 2.25,0.535 1.422,0.211 2.727,0.527 4.09,0.856 h 0.25 c 0,0.308 -0.051,0.968 -0.051,1.265 -2.168,0.36 -4.328,0.516 -6.449,0.199 0.051,1.414 0.051,2.825 0,4.18 0.817,0.309 1.621,0.559 2.442,0.805 1.14,0.301 2.367,0.5 3.5,0.976 0.359,0.379 0.636,0.786 1.003,1.223 -2.347,0.367 -4.714,0.469 -7.132,0.16 0.039,1.215 0,2.43 -0.051,3.582 0.289,0.121 0.945,0.309 1.265,0.36 1.602,0.25 3.204,0.289 4.778,0.496 0,0.547 0,1.047 0.047,1.601 -2.02,0.211 -4.09,0.25 -6.09,0.09 0.199,1.82 0.09,3.652 -0.11,5.445"
         style="fill:#9cc4ea;fill-opacity:1;fill-rule:nonzero;stroke:none"
         id="path106" /><path
         d="m 260.977,199.148 0.25,0.411 c -0.09,-1.793 -0.2,-3.625 -0.2,-5.496 -0.089,0.218 -0.367,0.566 -0.496,0.765 0.196,1.477 0.285,2.938 0.446,4.32"
         style="fill:#2f2e2e;fill-opacity:1;fill-rule:nonzero;stroke:none"
         id="path108" /><path
         d="m 261.227,199.559 h 0.359 c 0.199,-1.954 0.199,-3.914 0.199,-5.895 l -0.508,0.121 -0.25,0.278 c 0,1.871 0.11,3.703 0.2,5.496"
         style="fill:#d7e612;fill-opacity:1;fill-rule:nonzero;stroke:none"
         id="path110" /><path
         d="m 261.586,199.559 0.445,-0.289 c 0.199,-1.825 0.25,-3.625 0.25,-5.407 2.16,-0.039 4.34,-0.129 6.496,-0.289 -0.047,-0.445 -0.156,-0.894 -0.195,-1.359 -4.07,1.41 -8.57,0.664 -12.84,0.805 0.895,-0.61 1.821,-1.145 2.77,-1.665 -0.25,0 -0.75,0 -1.059,0 -0.09,-0.117 -0.297,-0.488 -0.406,-0.644 -2.309,0 -4.629,0.051 -6.945,0 0.367,-0.609 0.656,-1.156 1.003,-1.75 -0.843,-1.766 -0.636,-3.742 -0.449,-5.606 l 0.547,-0.25 c 0.32,-0.156 0.926,-0.394 1.215,-0.488 -2.516,0 -5.074,0 -7.59,-0.117 -0.172,0.16 -0.41,0.406 -0.57,0.566 1.93,0.45 3.89,0.289 5.805,0.039 -0.204,2.161 0.039,4.391 -0.25,6.59 -0.04,0.27 -0.2,0.778 -0.25,1.067 -1.325,-0.051 -2.625,-0.141 -3.93,-0.289 -1.375,1.164 2.269,1.55 2.816,2.656 0.446,-0.559 0.953,-1.047 1.41,-1.563 0,1.313 0.043,2.668 0.204,4 1.71,-0.488 1.101,-2.546 1.14,-3.839 1.465,0.078 2.996,0.148 4.488,0.078 -0.039,0.605 -0.097,1.265 -0.097,1.859 1.859,0.16 3.773,0.359 5.683,0.121 l 0.508,-0.121 c 0,1.981 0,3.941 -0.199,5.895"
         style="fill:#507096;fill-opacity:1;fill-rule:nonzero;stroke:none"
         id="path112" /><path
         d="m 262.031,199.27 c 7.047,-0.211 14.09,0.039 21.078,-0.161 -0.05,-9.265 -0.843,-18.461 -2.468,-27.566 -0.496,-3.832 -1.762,-7.484 -3.262,-11.016 -0.16,-0.109 -0.52,-0.359 -0.649,-0.476 -0.726,1.492 -1.375,3.351 0.29,4.554 -0.09,0.508 -0.25,1.008 -0.36,1.504 -2.051,0 -4.16,-0.097 -6.219,-0.14 0.161,0.609 0.348,1.144 0.497,1.742 0.707,-0.156 1.453,-0.246 2.218,-0.398 0.699,0 1.453,0 2.16,0 0.11,0.242 0.25,0.808 0.36,1.054 1.543,0.039 3.324,0.309 3.164,2.321 0.09,0.449 0.289,1.375 0.406,1.859 -0.406,-0.086 -1.172,-0.285 -1.57,-0.399 1.047,0.559 1.324,1.606 1.324,2.68 -0.719,-0.16 -1.414,-0.367 -2.18,-0.527 -0.699,0.07 -1.394,0.109 -2.109,0.16 -0.16,-0.5 -0.25,-1.016 -0.367,-1.555 0,0.41 -0.082,1.094 -0.082,1.504 -0.367,0.09 -1.016,0.309 -1.301,0.418 -0.211,0.09 -0.66,0.199 -0.859,0.238 -0.528,-0.855 -0.965,-1.711 -1.422,-2.566 -0.559,0.816 -1.043,1.602 -1.492,2.457 -0.051,-0.391 -0.11,-0.797 -0.161,-1.203 0.657,-0.707 1.254,-1.402 1.864,-2.102 -0.571,-1.871 -1.047,-3.781 -1.664,-5.593 -0.36,-0.129 -1.153,-0.407 -1.551,-0.496 -0.52,1.304 -0.856,2.757 0.445,3.71 -0.805,0.676 -1.66,1.325 -2.476,1.973 0.257,0.199 0.777,0.645 0.976,0.856 0.199,0.207 0.606,0.554 0.785,0.734 l 0.11,0.121 c 0.089,0.238 0.297,0.797 0.41,1.043 -1.715,0.211 -3.485,0.301 -5.196,0.16 0.079,1.563 0.079,3.176 -0.042,4.778 0.816,0.386 1.625,0.804 2.359,1.253 0.719,0.457 1.305,1.016 1.91,1.571 0.16,-0.157 0.359,-0.246 0.559,-0.407 0.089,0.297 0.41,0.856 0.496,1.145 0.109,0.16 0.269,0.449 0.351,0.605 -2.062,0.11 -4.05,0.11 -6.082,0.051 0.11,2.379 -0.09,4.739 -0.09,7.098 0.668,0.117 1.313,0.156 2,0.258 0.25,-1.157 0.528,-2.258 0.856,-3.422 -0.199,1.301 -0.445,2.605 -0.645,3.937 1.403,0.289 3.075,0.039 4.18,1.188 0.039,0.465 0.148,0.914 0.195,1.359 -2.156,0.16 -4.336,0.25 -6.496,0.289 0,1.782 -0.051,3.582 -0.25,5.407"
         style="fill:#9cc4ea;fill-opacity:1;fill-rule:nonzero;stroke:none"
         id="path114" /><path
         d="m 237.125,199.059 c 0.676,-1.661 1.113,-4.18 -0.09,-5.641 -0.09,1.91 -0.09,3.781 0.09,5.641"
         style="fill:#ecec09;fill-opacity:1;fill-rule:nonzero;stroke:none"
         id="path116" /><path
         d="m 245.473,197 c 1.504,0.316 3.047,0.355 4.59,0.316 0.199,0 0.554,0 0.765,0 1.91,0 3.82,0.039 5.68,-0.207 0,-0.199 0.043,-0.558 0.043,-0.718 -3.524,0.648 -7.149,0.359 -10.668,0.25 -0.102,0.109 -0.289,0.269 -0.41,0.359"
         style="fill:#12110f;fill-opacity:1;fill-rule:nonzero;stroke:none"
         id="path118" /><path
         d="m 245.883,196.641 c 3.519,0.109 7.144,0.398 10.668,-0.25 -1.813,-0.746 -3.723,-0.547 -5.633,-0.664 -1.754,0 -3.824,-0.848 -5.035,0.914"
         style="fill:#ffffff;fill-opacity:1;fill-rule:nonzero;stroke:none"
         id="path120" /><path
         d="m 206.176,193.824 c 0.16,0.121 0.476,0.321 0.605,0.457 0.36,-0.047 1.016,-0.136 1.375,-0.136 0.09,-0.965 0.157,-1.93 0.246,-2.879 2.121,-1.911 2.61,-4.934 4.481,-7.106 3.074,1.465 4.488,4.34 5.621,7.356 -0.559,-2.715 0.816,-5.235 0.976,-7.84 -0.519,-1.254 -1.214,-2.43 -1.82,-3.684 l -0.398,-0.558 c -0.489,1.562 0.347,2.828 1.453,3.871 -0.301,1.425 -0.61,2.777 -0.899,4.191 -1.363,-1.254 -2.664,-2.48 -3.968,-3.742 0.894,-1.703 1.859,-3.363 3.015,-4.906 0.953,-3.524 1.762,-7.118 2.348,-10.727 0.269,-0.808 0.766,-1.504 1.465,-2.012 0.195,-0.586 0.347,-1.195 0.515,-1.839 0,-2.391 1.094,-4.43 2.149,-6.5 2.41,1.703 5.445,-0.817 7.515,1.703 0.336,-0.309 0.735,-0.559 1.094,-0.848 -2.469,-2.156 -5.633,-0.656 -8.398,-1.719 -0.051,-0.351 -0.211,-1.047 -0.289,-1.406 -0.817,1.652 -1.266,3.523 -2.321,5.027 0.457,-1.543 0.899,-3.175 1.055,-4.777 -2.836,2.52 -2.019,6.648 -3.73,9.703 0.289,-0.09 0.855,-0.238 1.144,-0.34 -1.961,4.52 -1.902,9.555 -3.851,14.082 -0.118,-2.867 0.238,-5.793 1.343,-8.468 -1.195,0.855 -1.793,2.109 -1.711,3.574 -0.449,-0.547 -0.906,-1.055 -1.343,-1.543 0.187,2.715 1.461,5.523 0.25,8.148 -0.868,1.711 -2.371,2.926 -3.426,4.469 -0.199,1.113 -0.516,2.16 -0.844,3.176 -1.265,1.344 -2.238,2.926 -2.43,4.777 -0.296,0.09 -0.906,0.336 -1.222,0.496"
         style="fill:#7b3b1a;fill-opacity:1;fill-rule:nonzero;stroke:none"
         id="path122" /><path
         d="m 283.27,189.754 c 0.078,1.512 0.289,3.027 0.437,4.527 0.051,-1.062 0.246,-2.109 0.664,-3.043 l 0.199,-0.617 c -0.039,-12.223 -2.515,-24.898 -8,-36.016 -6.777,-13.941 -19.773,-23.964 -34.054,-29.445 -10.161,4.102 -19.821,9.981 -26.809,18.52 -9.98,11.664 -14.289,27.207 -15.008,42.312 0.071,0.946 0.16,1.949 0.27,2.918 0.09,-0.062 0.25,-0.211 0.34,-0.269 0.757,-16.043 4.738,-32.891 15.754,-45.121 0.148,-0.129 0.507,-0.489 0.636,-0.696 1.223,-1.511 2.637,-2.918 4.18,-4.062 5.332,-5.192 11.98,-8.766 18.719,-11.774 1.312,-0.703 2.886,-0.566 4.187,0.153 6.578,3.004 13.117,6.476 18.363,11.574 1.571,1.191 2.954,2.598 4.168,4.109 0.411,0.446 0.805,0.977 1.204,1.422 2.57,2.707 4.726,5.883 6.339,9.305 0.297,0.328 0.618,0.648 0.856,1.004 -1.055,0 -2.16,0 -3.281,0 1.332,1.593 2.882,3.008 3.64,4.968 0.141,0.157 0.457,0.407 0.656,0.528 0.129,0.117 0.489,0.367 0.649,0.476 1.5,3.532 2.766,7.184 3.262,11.016 l 0.32,-0.098 c 0.051,-0.043 0.199,-0.109 0.289,-0.109 0.156,1.422 0.355,2.824 0.605,4.227 0.04,0.359 0.161,0.976 0.2,1.324 0.05,-0.199 0.109,-0.559 0.109,-0.754 0.199,2.347 0.496,4.664 0.695,7.023 0.09,0.676 0.161,1.324 0.25,1.981 0.11,-0.457 0.239,-0.926 0.399,-1.383 -0.289,1.988 -0.348,3.988 -0.238,6"
         style="fill:#7f8282;fill-opacity:1;fill-rule:nonzero;stroke:none"
         id="path124" /><path
         d="m 204.223,191.516 c 0.66,0.765 1.265,1.554 1.953,2.308 0.316,-0.16 0.926,-0.406 1.222,-0.496 0.192,-1.851 1.165,-3.433 2.43,-4.777 -0.816,-1.055 -1.992,-1.961 -2.39,-3.332 0.152,-1.793 0.757,-3.504 0.917,-5.317 0.297,0.895 0.547,1.75 0.817,2.668 -0.371,1.055 -0.68,2.11 -0.926,3.172 0.656,-0.933 1.262,-1.879 1.871,-2.836 0.207,0.848 0.406,1.664 0.555,2.469 1.055,-1.543 2.558,-2.758 3.426,-4.469 1.211,-2.625 -0.063,-5.433 -0.25,-8.148 0.437,0.488 0.894,0.996 1.343,1.543 -0.082,-1.465 0.516,-2.719 1.711,-3.574 -1.105,2.675 -1.461,5.601 -1.343,8.468 1.949,-4.527 1.89,-9.562 3.851,-14.082 -0.289,0.102 -0.855,0.25 -1.144,0.34 1.711,-3.055 0.894,-7.183 3.73,-9.703 -0.156,1.602 -0.598,3.234 -1.055,4.777 1.055,-1.504 1.504,-3.375 2.321,-5.027 0.726,-0.445 1.492,-0.855 2.199,-1.352 1.699,-2.628 2.16,-5.793 2.426,-8.808 -2.426,1.613 -2.832,4.687 -4.746,6.789 -0.239,-0.746 -0.496,-1.555 -0.766,-2.309 -0.379,0.606 -0.844,1.203 -1.262,1.813 -1.234,0.246 -2.699,0.047 -3.742,0.805 -1.414,2.046 -0.359,4.804 -1.613,6.925 -1.215,1.93 -0.805,4.336 -2.07,6.2 -0.09,0.207 -0.297,0.546 -0.407,0.738 -1.066,2.875 -0.5,6.297 -2.398,8.816 -1.414,0.715 -3.086,0.356 -4.59,0.446 -1.301,4.179 -1.66,8.507 -0.047,12.628 -0.558,-0.906 -1.117,-1.789 -1.613,-2.765 -1.664,1.769 -1.106,4.082 -0.41,6.09"
         style="fill:#ce561f;fill-opacity:1;fill-rule:nonzero;stroke:none"
         id="path126" /><path
         d="m 231.988,193.258 c 3.782,0.121 7.594,0 11.375,-0.188 0.16,-0.261 0.407,-0.789 0.52,-1.097 -1.574,-0.207 -3.176,-0.246 -4.778,-0.496 -0.609,-0.051 -1.214,-0.161 -1.832,-0.321 h -0.187 l -0.34,0.199 c -1.672,0.668 -3.453,0.52 -5.156,0.618 0.109,0.308 0.32,0.957 0.398,1.285"
         style="fill:#ffffff;fill-opacity:1;fill-rule:nonzero;stroke:none"
         id="path128" /><path
         d="m 255.742,193.02 c 4.27,-0.141 8.77,0.605 12.84,-0.805 -1.105,-1.149 -2.777,-0.899 -4.18,-1.188 -0.75,-0.16 -1.504,-0.355 -2.211,-0.515 -0.277,0.16 -0.804,0.515 -1.054,0.644 l -0.199,0.16 c -0.805,0.039 -1.622,0.039 -2.426,0.039 -0.949,0.52 -1.875,1.055 -2.77,1.665"
         style="fill:#ffffff;fill-opacity:1;fill-rule:nonzero;stroke:none"
         id="path130" /><path
         d="m 218.504,191.516 c 0.617,0.359 1.226,0.765 1.832,1.105 0.398,-1.266 0.855,-2.457 1.305,-3.711 0.445,-0.16 0.894,-0.359 1.339,-0.558 1.676,-2.926 0.411,-6.379 1.825,-9.356 -1.703,0.488 -2.309,2.121 -2.809,3.621 -0.465,-2.922 -0.715,-5.929 -0.516,-8.902 0.657,1.558 0.317,4.027 2.321,4.566 -1.305,-4.281 -1.059,-8.847 1.402,-12.668 -1.613,0.246 -2.918,1.203 -4.219,1.942 -0.597,1.582 -1.058,3.172 -0.398,4.797 -2.481,1.808 -1.582,5.183 -2.926,7.64 0.606,1.254 1.301,2.43 1.82,3.684 -0.16,2.605 -1.535,5.125 -0.976,7.84"
         style="fill:#ce561f;fill-opacity:1;fill-rule:nonzero;stroke:none"
         id="path132" /><path
         d="m 200.969,191.926 0.34,0.695 c 0.199,-1.195 0.449,-2.41 0.714,-3.625 -0.199,-0.086 -0.566,-0.246 -0.714,-0.355 -0.09,0.058 -0.25,0.207 -0.34,0.269 -0.11,-0.969 -0.199,-1.972 -0.27,-2.918 -0.347,1.293 -0.605,2.598 -0.406,3.903 0.211,0.726 0.406,1.371 0.676,2.031"
         style="fill:#929393;fill-opacity:1;fill-rule:nonzero;stroke:none"
         id="path134" /><path
         d="m 237.273,191.156 c 0.618,0.16 1.223,0.27 1.832,0.321 -0.32,-0.051 -0.976,-0.239 -1.265,-0.36 0.051,-1.152 0.09,-2.367 0.051,-3.582 2.418,0.309 4.785,0.207 7.132,-0.16 -0.367,-0.437 -0.644,-0.844 -1.003,-1.223 0.07,0.25 0.238,0.735 0.359,0.985 -3.82,0.199 -7.633,0 -11.465,-0.047 -0.269,0.047 -0.805,0.105 -1.125,0.156 0.617,0.25 1.215,0.539 1.82,0.817 1.016,-0.278 2.071,-0.418 3.137,-0.618 0,1.305 0,2.61 0,3.91 l 0.34,-0.199 c 0,-1.101 -0.289,-2.308 0.148,-3.414 0.965,0.699 0.289,2.469 0.039,3.414"
         style="fill:#12110f;fill-opacity:1;fill-rule:nonzero;stroke:none"
         id="path136" /><path
         d="m 257.453,191.355 c 0.309,0 0.809,0 1.059,0 0.804,0 1.621,0 2.426,-0.039 l 0.199,-0.16 c -0.071,-2.656 -0.11,-5.32 0,-8 -2.18,0.059 -4.379,0.199 -6.539,-0.297 0.34,-0.199 0.699,-0.398 1.093,-0.558 1.016,-0.539 2.114,-0.785 3.227,-0.946 0.199,-0.148 0.598,-0.449 0.805,-0.597 0.449,-0.297 0.898,-0.649 1.414,-1.016 -0.16,-1.801 -0.321,-3.66 -0.199,-5.48 -1.215,0.039 -2.426,-0.051 -3.641,-0.262 1.012,-1.648 2.426,-3.191 1.125,-5.234 -1.125,1.273 -2.07,2.679 -2.77,4.23 0.2,0.598 0.45,1.215 0.7,1.832 0.246,0.039 0.644,0.09 0.894,0.129 -1.793,0.715 -3.703,0.566 -5.562,0.367 0,2.012 -0.071,3.961 -0.2,5.981 1.293,0.05 2.797,-0.348 3.969,0.59 -1.015,0.277 -2.019,0.527 -3.035,0.722 -0.289,0.094 -0.895,0.332 -1.215,0.488 0.063,1.981 0.063,3.891 -0.098,5.856 1.961,0.594 4.926,-0.609 5.942,1.75 0.109,0.156 0.316,0.527 0.406,0.644"
         style="fill:#9cc4ea;fill-opacity:1;fill-rule:nonzero;stroke:none"
         id="path138" /><path
         d="m 202.313,189.355 c 0.656,0.7 1.265,1.407 1.91,2.161 -0.696,-2.008 -1.254,-4.321 0.41,-6.09 0.496,0.976 1.055,1.859 1.613,2.765 -1.613,-4.121 -1.254,-8.449 0.047,-12.628 1.504,-0.09 3.176,0.269 4.59,-0.446 1.898,-2.519 1.332,-5.941 2.398,-8.816 -1.394,1.371 -2.558,2.972 -2.558,5.035 0.449,2.625 -1.75,4.547 -4.071,2.766 0.688,-2.25 0.786,-4.629 0.586,-6.946 0.258,-3.715 4.172,-5.972 4.043,-9.804 0.785,-2.618 2.914,-4.579 3.055,-7.485 1.621,-3.074 5.074,-3.312 8.039,-4.066 -0.445,2.156 -0.445,5.472 -3.453,5.472 -0.906,0.04 -1.859,0.04 -2.817,0.04 -0.468,0.972 -0.507,2.031 -0.308,3.085 0.16,1.711 0.25,3.821 -1.352,4.926 -0.347,2.059 -0.558,4.168 -0.757,6.239 1.265,-1.864 0.855,-4.27 2.07,-6.2 1.254,-2.121 0.199,-4.879 1.613,-6.925 1.043,-0.758 2.508,-0.559 3.742,-0.805 0.418,-0.61 0.883,-1.207 1.262,-1.813 0.27,0.754 0.527,1.563 0.766,2.309 1.914,-2.102 2.32,-5.176 4.746,-6.789 -0.266,3.015 -0.727,6.18 -2.426,8.808 0.488,-0.359 1.055,-0.648 1.621,-1.015 0.539,-2.754 1.395,-5.524 1.293,-8.399 -1.055,0.45 -2.109,0.926 -3.121,1.461 -2.399,-1.8 -5.566,-1.351 -8.191,-2.675 -11.016,12.23 -14.997,29.078 -15.754,45.121 0.148,0.109 0.515,0.269 0.714,0.355 l 0.29,0.359"
         style="fill:#552e18;fill-opacity:1;fill-rule:nonzero;stroke:none"
         id="path140" /><path
         d="m 237.086,191.156 h 0.187 c 0.25,-0.945 0.926,-2.715 -0.039,-3.414 -0.437,1.106 -0.148,2.313 -0.148,3.414"
         style="fill:#ecec09;fill-opacity:1;fill-rule:nonzero;stroke:none"
         id="path142" /><path
         d="m 261.137,191.156 c 0.25,-0.129 0.777,-0.484 1.054,-0.644 v -0.258 c 0,-2.359 0.2,-4.719 0.09,-7.098 -0.289,0 -0.855,0 -1.144,0 -0.11,2.68 -0.071,5.344 0,8"
         style="fill:#90a024;fill-opacity:1;fill-rule:nonzero;stroke:none"
         id="path144" /><path
         d="m 262.191,190.512 c 0.707,0.16 1.461,0.355 2.211,0.515 0.2,-1.332 0.446,-2.636 0.645,-3.937 -0.328,1.164 -0.606,2.265 -0.856,3.422 -0.687,-0.102 -1.332,-0.141 -2,-0.258 v 0.258"
         style="fill:#12110f;fill-opacity:1;fill-rule:nonzero;stroke:none"
         id="path146" /><path
         d="m 245.633,190.473 c 1.305,0.148 2.605,0.238 3.93,0.289 0.05,-0.289 0.21,-0.797 0.25,-1.067 -1.465,-0.547 -3.036,-0.386 -4.18,0.778"
         style="fill:#f9fafb;fill-opacity:1;fill-rule:nonzero;stroke:none"
         id="path148" /><path
         d="m 250.102,190.711 c 2.316,0.051 4.636,0 6.945,0 -1.016,-2.359 -3.981,-1.156 -5.942,-1.75 -0.347,0.594 -0.636,1.141 -1.003,1.75"
         style="fill:#ffffff;fill-opacity:1;fill-rule:nonzero;stroke:none"
         id="path150" /><path
         d="m 283.27,189.754 c -0.11,-2.012 -0.051,-4.012 0.238,-6 -0.16,0.457 -0.289,0.926 -0.399,1.383 0,1.551 0.051,3.054 0.161,4.617"
         style="fill:#ffffff;fill-opacity:1;fill-rule:nonzero;stroke:none"
         id="path152" /><path
         d="m 207.438,185.219 c 0.398,1.371 1.574,2.277 2.39,3.332 0.328,-1.016 0.645,-2.063 0.844,-3.176 -0.149,-0.805 -0.348,-1.621 -0.555,-2.469 -0.609,0.957 -1.215,1.903 -1.871,2.836 0.246,-1.062 0.555,-2.117 0.926,-3.172 -0.27,-0.918 -0.52,-1.773 -0.817,-2.668 -0.16,1.813 -0.765,3.524 -0.917,5.317"
         style="fill:#38b43f;fill-opacity:1;fill-rule:nonzero;stroke:none"
         id="path154" /><path
         d="m 250.656,183.355 c -0.187,1.864 -0.394,3.84 0.449,5.606 0.161,-1.965 0.161,-3.875 0.098,-5.856 l -0.547,0.25"
         style="fill:#e0e90f;fill-opacity:1;fill-rule:nonzero;stroke:none"
         id="path156" /><path
         d="m 222.98,188.352 c 0.977,-0.411 1.985,-1.016 1.875,-2.2 0.399,-4.797 0.645,-9.863 3.235,-14.16 -0.77,0.715 -1.535,1.41 -2.34,2.059 -0.102,1.672 -0.391,3.336 -0.945,4.945 -1.414,2.977 -0.149,6.43 -1.825,9.356"
         style="fill:#552e18;fill-opacity:1;fill-rule:nonzero;stroke:none"
         id="path158" /><path
         d="m 213.848,183.754 c 1.304,1.262 2.605,2.488 3.968,3.742 0.289,-1.414 0.598,-2.766 0.899,-4.191 -1.106,-1.043 -1.942,-2.309 -1.453,-3.871 -0.102,-0.149 -0.289,-0.438 -0.399,-0.586 -1.156,1.543 -2.121,3.203 -3.015,4.906"
         style="fill:#ce561f;fill-opacity:1;fill-rule:nonzero;stroke:none"
         id="path160" /><path
         d="m 232.914,187.09 c 3.832,0.047 7.645,0.246 11.465,0.047 -0.121,-0.25 -0.289,-0.735 -0.359,-0.985 -1.133,-0.476 -2.36,-0.675 -3.5,-0.976 -1.415,-0.039 -2.879,0 -4.301,0.043 -0.199,0.156 -0.649,0.523 -0.895,0.652 -0.816,-0.195 -1.574,-0.394 -2.359,-0.652 0,0.523 0,1.422 -0.051,1.871"
         style="fill:#ffffff;fill-opacity:1;fill-rule:nonzero;stroke:none"
         id="path162" /><path
         d="m 236.219,185.219 c 1.422,-0.043 2.886,-0.082 4.301,-0.043 -0.821,-0.246 -1.625,-0.496 -2.442,-0.805 0.051,-1.355 0.051,-2.766 0,-4.18 2.121,0.317 4.281,0.161 6.449,-0.199 0,-0.297 0.051,-0.957 0.051,-1.265 h -0.25 c -2.058,0.41 -4.426,1.015 -6.25,-0.407 0.578,-0.082 1.664,-0.328 2.16,-0.449 -0.734,-0.129 -1.504,-0.336 -2.25,-0.535 -0.258,-0.109 -0.754,-0.25 -0.996,-0.309 -0.117,-1.664 -0.047,-3.312 -0.047,-4.925 0.289,0 0.856,0.089 1.133,0.089 2.32,0.27 4.758,0.407 6.988,-0.128 l 0.207,-0.618 c -4.566,0.137 -9.144,0.207 -13.683,0.047 0.109,-0.496 0.199,-1.004 0.359,-1.492 -2.058,-0.168 -1.203,1.582 -0.894,2.836 1.75,-0.039 3.769,-0.375 5.164,0.977 0.16,1.253 0.109,2.515 0.199,3.773 0.328,0.086 0.926,0.246 1.223,0.355 0.16,0.297 0.488,0.907 0.648,1.196 -1.82,0.109 -3.613,0.187 -5.375,0.187 -0.059,-0.238 -0.109,-0.726 -0.148,-1.043 -0.25,-0.695 -0.528,-1.343 -0.817,-1.992 0,1.246 0,2.508 0.039,3.82 1.422,0.243 2.926,0.243 4.391,0.082 -0.051,1.661 -0.051,3.364 -0.16,5.028"
         style="fill:#577aa0;fill-opacity:1;fill-rule:nonzero;stroke:none"
         id="path164" /><path
         d="m 237.086,185.016 c 0.992,-1.313 1.043,-4.02 0,-5.321 -0.141,1.75 -0.141,3.571 0,5.321"
         style="fill:#e9ec0d;fill-opacity:1;fill-rule:nonzero;stroke:none"
         id="path166" /><path
         d="m 254.598,182.859 c 2.16,0.496 4.359,0.356 6.539,0.297 0.289,0 0.855,0 1.144,0 2.032,0.059 4.02,0.059 6.082,-0.051 -0.082,-0.156 -0.242,-0.445 -0.351,-0.605 -4.059,0 -8.25,0.406 -12.321,-0.199 -0.394,0.16 -0.753,0.359 -1.093,0.558"
         style="fill:#12110f;fill-opacity:1;fill-rule:nonzero;stroke:none"
         id="path168" /><path
         d="m 282.859,183.156 c -0.199,-2.359 -0.496,-4.676 -0.695,-7.023 0,0.195 -0.059,0.555 -0.109,0.754 0.211,2.109 0.496,4.16 0.804,6.269"
         style="fill:#ffffff;fill-opacity:1;fill-rule:nonzero;stroke:none"
         id="path170" /><path
         d="m 221.996,182.617 c 0.5,-1.5 1.106,-3.133 2.809,-3.621 0.554,-1.609 0.843,-3.273 0.945,-4.945 l 0.109,-0.606 c -0.605,1.016 -1.265,1.989 -1.961,2.883 -0.636,-4.785 1.305,-10.027 5.243,-12.926 -0.317,0.039 -0.965,0.039 -1.321,0.09 -0.945,0.567 -1.871,1.266 -2.617,2.121 -2.461,3.821 -2.707,8.387 -1.402,12.668 -2.004,-0.539 -1.664,-3.008 -2.321,-4.566 -0.199,2.973 0.051,5.98 0.516,8.902"
         style="fill:#38b43f;fill-opacity:1;fill-rule:nonzero;stroke:none"
         id="path172" /><path
         d="m 244.828,182.5 c 2.516,0.117 5.074,0.117 7.59,0.117 1.016,-0.195 2.02,-0.445 3.035,-0.722 -1.172,-0.938 -2.676,-0.54 -3.969,-0.59 h -0.566 c -2.07,0.3 -4.73,-0.953 -6.09,1.195"
         style="fill:#ffffff;fill-opacity:1;fill-rule:nonzero;stroke:none"
         id="path174" /><path
         d="m 255.691,182.301 c 4.071,0.605 8.262,0.199 12.321,0.199 -0.086,-0.289 -0.407,-0.848 -0.496,-1.145 -0.2,0.161 -0.399,0.25 -0.559,0.407 -0.605,-0.555 -1.191,-1.114 -1.91,-1.571 -1.789,-0.289 -3.531,0.715 -5.324,0.567 -0.207,0.148 -0.606,0.449 -0.805,0.597 -1.113,0.161 -2.211,0.407 -3.227,0.946"
         style="fill:#ffffff;fill-opacity:1;fill-rule:nonzero;stroke:none"
         id="path176" /><path
         d="m 250.918,181.305 h 0.566 c 0.129,-2.02 0.2,-3.969 0.2,-5.981 -0.36,0 -0.766,0 -1.137,0 -0.129,1.942 -0.328,4 0.371,5.981"
         style="fill:#839225;fill-opacity:1;fill-rule:nonzero;stroke:none"
         id="path178" /><path
         d="m 259.723,180.758 c 1.793,0.148 3.535,-0.856 5.324,-0.567 -0.734,-0.449 -1.543,-0.867 -2.359,-1.253 0.121,-1.602 0.121,-3.215 0.042,-4.778 1.711,0.141 3.481,0.051 5.196,-0.16 -0.113,-0.246 -0.321,-0.805 -0.41,-1.043 l -0.11,-0.121 c -1.144,0.211 -2.359,0.359 -3.504,0.48 0.2,-0.32 0.649,-0.964 0.856,-1.324 0.597,0.071 1.254,0.071 1.863,0.11 -0.199,-0.211 -0.719,-0.657 -0.976,-0.856 0.816,-0.648 1.671,-1.297 2.476,-1.973 -1.301,-0.953 -0.965,-2.406 -0.445,-3.71 -0.16,-0.04 -0.449,-0.149 -0.61,-0.2 h -0.109 c -0.09,0.2 -0.285,0.567 -0.457,0.696 -0.598,-0.2 -1.203,-0.407 -1.781,-0.606 -0.117,0.27 -0.278,0.715 -0.367,0.914 -0.657,1.754 -0.965,3.582 -1.664,5.285 -0.297,0.039 -0.817,0.129 -1.063,0.2 -0.039,-2.168 -0.039,-4.297 0.051,-6.399 -1.254,-0.656 -2.559,-1.094 -3.973,-1.055 -0.098,0.207 -0.297,0.715 -0.406,0.965 -0.25,-0.566 -0.5,-1.093 -0.699,-1.621 -1.211,3.125 -2.2,6.258 -3.055,9.453 0.695,-0.039 1.395,-0.148 2.109,-0.199 0.7,-1.551 1.645,-2.957 2.77,-4.23 1.301,2.043 -0.113,3.586 -1.125,5.234 1.215,0.211 2.426,0.301 3.641,0.262 -0.122,1.82 0.039,3.679 0.199,5.48 -0.516,0.367 -0.965,0.719 -1.414,1.016"
         style="fill:#4e6c8d;fill-opacity:1;fill-rule:nonzero;stroke:none"
         id="path180" /><path
         d="m 261.477,180.191 0.656,0.071 c 0.058,-1.864 0.148,-3.723 0.058,-5.653 -1.164,1.614 -0.468,3.789 -0.714,5.582"
         style="fill:#ecec0a;fill-opacity:1;fill-rule:nonzero;stroke:none"
         id="path182" /><path
         d="m 217.262,179.434 0.398,0.558 c 1.344,-2.457 0.445,-5.832 2.926,-7.64 -0.66,-1.625 -0.199,-3.215 0.398,-4.797 -0.597,0.207 -1.214,0.367 -1.773,0.566 -0.586,3.609 -1.395,7.203 -2.348,10.727 0.11,0.148 0.297,0.437 0.399,0.586"
         style="fill:#38b43f;fill-opacity:1;fill-rule:nonzero;stroke:none"
         id="path184" /><path
         d="m 232.914,179.324 c 1.762,0 3.555,-0.078 5.375,-0.187 -0.16,-0.289 -0.488,-0.899 -0.648,-1.196 -0.297,-0.109 -0.895,-0.269 -1.223,-0.355 -0.16,0.246 -0.449,0.652 -0.539,0.894 -1.055,-0.082 -2.129,-0.16 -3.113,-0.199 0.039,0.317 0.089,0.805 0.148,1.043"
         style="fill:#ffffff;fill-opacity:1;fill-rule:nonzero;stroke:none"
         id="path186" /><path
         d="m 238.078,178.32 c 1.824,1.422 4.192,0.817 6.25,0.407 -1.363,-0.329 -2.668,-0.645 -4.09,-0.856 -0.496,0.121 -1.582,0.367 -2.16,0.449"
         style="fill:#fbfeff;fill-opacity:1;fill-rule:nonzero;stroke:none"
         id="path188" /><path
         d="m 236.992,177.027 c 0.242,0.059 0.738,0.2 0.996,0.309 0.09,-1.703 0.09,-3.445 0.09,-5.145 -0.277,0 -0.844,-0.089 -1.133,-0.089 0,1.613 -0.07,3.261 0.047,4.925"
         style="fill:#a7b521;fill-opacity:1;fill-rule:nonzero;stroke:none"
         id="path190" /><path
         d="m 245.594,175.066 c 0.926,0.457 1.91,0.973 2.855,1.504 -0.25,-0.281 -0.707,-0.898 -0.945,-1.207 1.016,-0.039 1.988,-0.039 3.043,-0.039 0.371,0 0.777,0 1.137,0 1.859,0.199 3.769,0.348 5.562,-0.367 -0.25,-0.039 -0.648,-0.09 -0.894,-0.129 -3.473,-0.328 -7.098,0.645 -10.43,-0.328 -0.141,0.168 -0.25,0.367 -0.328,0.566"
         style="fill:#12110f;fill-opacity:1;fill-rule:nonzero;stroke:none"
         id="path192" /><path
         d="m 223.898,176.328 c 0.696,-0.894 1.356,-1.867 1.961,-2.883 1.352,-3.496 2.875,-7.027 4.727,-10.312 -0.457,0.109 -0.945,0.199 -1.445,0.269 -3.938,2.899 -5.879,8.141 -5.243,12.926"
         style="fill:#522e18;fill-opacity:1;fill-rule:nonzero;stroke:none"
         id="path194" /><path
         d="m 281.855,175.563 c -0.25,-1.403 -0.449,-2.805 -0.605,-4.227 -0.09,0 -0.238,0.066 -0.289,0.109 0.289,1.352 0.605,2.766 0.894,4.118"
         style="fill:#ffffff;fill-opacity:1;fill-rule:nonzero;stroke:none"
         id="path196" /><path
         d="m 206.652,174.102 c 2.321,1.781 4.52,-0.141 4.071,-2.766 -0.149,-0.199 -0.508,-0.609 -0.696,-0.809 1.301,-3.711 1.539,-8.339 4.418,-11.203 1.602,-1.105 1.512,-3.215 1.352,-4.926 -1.094,1.461 -2.27,2.793 -3.621,3.981 -0.289,-0.32 -0.61,-0.668 -0.895,-1.027 0.129,3.832 -3.785,6.089 -4.043,9.804 0.2,2.317 0.102,4.696 -0.586,6.946"
         style="fill:#ce561f;fill-opacity:1;fill-rule:nonzero;stroke:none"
         id="path198" /><path
         d="m 269.188,174.957 c 0.449,-0.855 0.933,-1.641 1.492,-2.457 0.457,0.855 0.894,1.711 1.422,2.566 0.199,-0.039 0.648,-0.148 0.859,-0.238 -0.371,-1.074 -0.66,-2.172 -0.969,-3.285 -0.148,-0.547 -0.347,-1.145 -0.496,-1.762 -0.199,-0.644 -0.359,-1.375 -0.558,-2.07 -0.149,-0.598 -0.336,-1.133 -0.497,-1.742 2.059,0.043 4.168,0.14 6.219,0.14 0.11,-0.496 0.27,-0.996 0.36,-1.504 -1.665,-1.203 -1.016,-3.062 -0.29,-4.554 -0.199,-0.121 -0.515,-0.371 -0.656,-0.528 -0.758,-1.96 -2.308,-3.375 -3.64,-4.968 -5.614,-1.871 -11.903,-0.676 -17.836,-1.383 -4.785,-0.887 -9.575,1.433 -14.36,0.058 -3.769,-0.746 -5.414,3.813 -8.289,5.395 -0.359,0.289 -0.758,0.539 -1.094,0.848 -0.726,0.457 -1.464,0.945 -2.179,1.414 -2.617,1.801 -5.246,3.672 -8,5.222 -0.699,0.508 -1.196,1.204 -1.465,2.012 0.559,-0.199 1.176,-0.359 1.773,-0.566 1.301,-0.739 2.606,-1.696 4.219,-1.942 0.746,-0.855 1.672,-1.554 2.617,-2.121 1.571,-0.945 3.125,-1.82 4.746,-2.605 l 0.2,-0.102 c 1.343,-0.617 2.757,-1.015 4.269,-1.262 0.199,-0.05 0.695,-0.16 0.953,-0.199 2.61,-0.261 5.297,-0.199 7.934,-0.34 1.621,-0.07 3.172,-0.07 4.785,0 l 0.398,0.039 c 0.161,0.04 0.508,0.102 0.668,0.141 0.11,0.117 0.309,0.406 0.399,0.516 1.055,1.613 2.266,3.207 4.226,3.652 0.043,0.109 0.153,0.32 0.2,0.41 0.199,0.528 0.449,1.055 0.699,1.621 0.109,-0.25 0.308,-0.758 0.406,-0.965 1.414,-0.039 2.719,0.399 3.973,1.055 0.238,0.11 0.765,0.27 1.012,0.367 0.57,0.192 1.105,0.399 1.664,0.547 0.089,-0.199 0.25,-0.644 0.367,-0.914 0.578,0.199 1.183,0.406 1.781,0.606 0.172,-0.129 0.367,-0.496 0.457,-0.696 -1.91,-0.148 -3.809,-0.308 -5.73,-0.41 -0.5,-2.875 -0.09,-5.789 1.371,-8.297 0.906,0.09 1.843,0.207 2.808,0.297 0.207,-0.683 0.399,-1.422 0.606,-2.109 0,0.765 0.043,1.465 0.043,2.199 0.703,0 1.422,0 2.117,0 0.039,-0.734 0.16,-1.434 0.191,-2.199 0.157,0.765 0.258,1.504 0.367,2.269 0.657,0 1.301,0 2,0.039 0.059,-0.754 0.11,-1.5 0.161,-2.257 0.109,0.714 0.246,1.414 0.347,2.097 1.395,0.121 2.864,0.321 3.989,1.227 -1.262,-0.09 -2.528,-0.25 -3.782,-0.41 0.051,1.214 0.129,2.41 0.2,3.683 0.988,0 1.96,0 2.964,0 0.301,-0.558 0.668,-1.113 0.957,-1.652 -0.41,1.949 -0.41,3.949 0.758,5.683 -3.078,-0.07 -6.203,-0.269 -9.258,-0.16 0.161,0.051 0.45,0.16 0.61,0.2 0.398,0.089 1.191,0.367 1.551,0.496 0.617,1.812 1.093,3.722 1.664,5.593 -0.61,0.7 -1.207,1.395 -1.864,2.102 0.051,0.406 0.11,0.812 0.161,1.203"
         style="fill:#110f0e;fill-opacity:1;fill-rule:nonzero;stroke:none"
         id="path200" /><path
         d="m 276.82,174.301 c 0.766,0.16 1.461,0.367 2.18,0.527 0,-1.074 -0.277,-2.121 -1.324,-2.68 -0.25,-0.046 -0.817,-0.195 -1.067,-0.257 0.051,0.816 0.161,1.625 0.211,2.41"
         style="fill:#ffffff;fill-opacity:1;fill-rule:nonzero;stroke:none"
         id="path202" /><path
         d="m 245.922,174.5 c 3.332,0.973 6.957,0 10.43,0.328 -0.25,-0.617 -0.5,-1.234 -0.7,-1.832 -0.714,0.051 -1.414,0.16 -2.109,0.199 -0.406,0.051 -0.766,0.051 -1.176,0 -1.859,-0.148 -3.769,0.457 -5.629,-0.039 -0.261,0.438 -0.55,0.895 -0.816,1.344"
         style="fill:#ffffff;fill-opacity:1;fill-rule:nonzero;stroke:none"
         id="path204" /><path
         d="m 272.961,174.828 c 0.285,-0.109 0.934,-0.328 1.301,-0.418 0,-0.41 0.082,-1.094 0.082,-1.504 -0.043,-0.359 -0.129,-1.054 -0.18,-1.414 -0.719,0.051 -1.465,0.051 -2.172,0.051 0.309,1.113 0.598,2.211 0.969,3.285"
         style="fill:#ffffff;fill-opacity:1;fill-rule:nonzero;stroke:none"
         id="path206" /><path
         d="m 274.711,174.461 c 0.715,-0.051 1.41,-0.09 2.109,-0.16 -0.05,-0.785 -0.16,-1.594 -0.211,-2.41 0.25,0.062 0.817,0.211 1.067,0.257 0.398,0.114 1.164,0.313 1.57,0.399 -0.117,-0.484 -0.316,-1.41 -0.406,-1.859 -0.926,-0.25 -1.86,-0.45 -2.766,-0.739 -0.109,-0.355 -0.308,-1.183 -0.398,-1.582 -0.11,-0.246 -0.25,-0.812 -0.36,-1.054 -0.707,0 -1.461,0 -2.16,0 0.25,0.808 0.5,1.574 0.699,2.32 -0.746,0.051 -1.554,0.121 -2.359,0.148 0.149,0.617 0.348,1.215 0.496,1.762 0.707,0 1.453,0 2.172,-0.051 0.051,0.36 0.137,1.055 0.18,1.414 0.117,0.539 0.207,1.055 0.367,1.555"
         style="fill:#ea1b31;fill-opacity:1;fill-rule:nonzero;stroke:none"
         id="path208" /><path
         d="m 225.75,174.051 c 0.805,-0.649 1.57,-1.344 2.34,-2.059 0.695,-1.265 1.43,-2.558 2.109,-3.914 0.137,0.289 0.336,0.527 0.496,0.848 -0.05,-2.817 1.293,-5.324 1.871,-8.039 -1.621,0.785 -3.175,1.66 -4.746,2.605 0.356,-0.051 1.004,-0.051 1.321,-0.09 0.5,-0.07 0.988,-0.16 1.445,-0.269 -1.852,3.285 -3.375,6.816 -4.727,10.312 l -0.109,0.606"
         style="fill:#2f7e37;fill-opacity:1;fill-rule:nonzero;stroke:none"
         id="path210" /><path
         d="m 246.738,173.156 c 1.86,0.496 3.77,-0.109 5.629,0.039 -0.594,-4.109 -0.156,-8.242 -0.238,-12.41 -0.516,3.973 -0.406,7.942 -0.566,11.922 l -0.696,-0.051 c 0.09,-4.535 0.207,-9.113 0.238,-13.633 l -0.398,-0.039 c -0.199,4.668 -0.051,9.293 -0.238,13.973 -1.375,-0.648 -1.512,-2.23 -1.871,-3.523 -0.856,-3.504 -1.821,-6.996 -2.676,-10.45 -2.637,0.141 -5.324,0.079 -7.934,0.34 -0.347,3.414 0.797,7.332 -0.804,10.43 -0.387,-3.453 -0.149,-6.867 -0.149,-10.231 -1.512,0.247 -2.926,0.645 -4.269,1.262 0.488,2.656 1.242,5.274 1.742,7.942 -0.938,-0.766 -1.863,-1.504 -2.809,-2.27 0.867,1.098 1.711,2.148 2.559,3.297 1.961,0.117 3.941,0.394 5.851,0.027 0,-2.765 1.395,-5.222 2.2,-7.832 1.812,3.375 3.363,6.817 5.144,10.199 -0.277,0.352 -0.476,0.649 -0.715,1.008"
         style="fill:#496689;fill-opacity:1;fill-rule:nonzero;stroke:none"
         id="path212" /><path
         d="m 252.367,173.195 c 0.41,0.051 0.77,0.051 1.176,0 0.855,-3.195 1.844,-6.328 3.055,-9.453 -0.047,-0.09 -0.157,-0.301 -0.2,-0.41 -1.96,-0.445 -3.171,-2.039 -4.226,-3.652 0,0.3 -0.043,0.847 -0.043,1.105 0.082,4.168 -0.356,8.301 0.238,12.41"
         style="fill:#9cc4ea;fill-opacity:1;fill-rule:nonzero;stroke:none"
         id="path214" /><path
         d="m 257.961,173.402 c 1.852,-0.297 4.898,0.86 5.832,-1.3 -1.801,0.554 -4.766,-0.45 -5.832,1.3"
         style="fill:#ffffff;fill-opacity:1;fill-rule:nonzero;stroke:none"
         id="path216" /><path
         d="m 263.902,173.316 c 1.145,-0.121 2.36,-0.269 3.504,-0.48 -0.179,-0.18 -0.586,-0.527 -0.785,-0.734 -0.609,-0.039 -1.266,-0.039 -1.863,-0.11 -0.207,0.36 -0.656,1.004 -0.856,1.324"
         style="fill:#ffffff;fill-opacity:1;fill-rule:nonzero;stroke:none"
         id="path218" /><path
         d="m 248.598,169.434 c 0.359,1.293 0.496,2.875 1.871,3.523 0.187,-4.68 0.039,-9.305 0.238,-13.973 -1.613,-0.07 -3.164,-0.07 -4.785,0 0.855,3.454 1.82,6.946 2.676,10.45"
         style="fill:#9cc4ea;fill-opacity:1;fill-rule:nonzero;stroke:none"
         id="path220" /><path
         d="m 250.867,172.656 0.696,0.051 c 0.16,-3.98 0.05,-7.949 0.566,-11.922 0,-0.258 0.043,-0.805 0.043,-1.105 -0.09,-0.11 -0.289,-0.399 -0.399,-0.516 -0.16,-0.039 -0.507,-0.101 -0.668,-0.141 -0.031,4.52 -0.148,9.098 -0.238,13.633"
         style="fill:#e0e913;fill-opacity:1;fill-rule:nonzero;stroke:none"
         id="path222" /><path
         d="m 231.59,171.492 c 4.539,0.16 9.117,0.09 13.683,-0.047 -0.816,-2.359 -3.253,-1.691 -5.164,-1.664 -1.91,0.367 -3.89,0.09 -5.851,-0.027 -0.754,0.027 -1.543,0.117 -2.309,0.246 -0.16,0.488 -0.25,0.996 -0.359,1.492"
         style="fill:#ffffff;fill-opacity:1;fill-rule:nonzero;stroke:none"
         id="path224" /><path
         d="m 261.625,171.852 c 0.246,-0.071 0.766,-0.161 1.063,-0.2 -0.09,-1.968 -0.047,-3.89 0,-5.832 -0.247,-0.097 -0.774,-0.257 -1.012,-0.367 -0.09,2.102 -0.09,4.231 -0.051,6.399"
         style="fill:#aab81e;fill-opacity:1;fill-rule:nonzero;stroke:none"
         id="path226" /><path
         d="m 262.688,171.652 c 0.699,-1.703 1.007,-3.531 1.664,-5.285 -0.559,-0.148 -1.094,-0.355 -1.664,-0.547 -0.047,1.942 -0.09,3.864 0,5.832"
         style="fill:#8db3e3;fill-opacity:1;fill-rule:nonzero;stroke:none"
         id="path228" /><path
         d="m 210.027,170.527 c 0.188,0.2 0.547,0.61 0.696,0.809 0,-2.063 1.164,-3.664 2.558,-5.035 0.11,-0.192 0.317,-0.531 0.407,-0.738 0.199,-2.071 0.41,-4.18 0.757,-6.239 -2.879,2.864 -3.117,7.492 -4.418,11.203"
         style="fill:#38b43f;fill-opacity:1;fill-rule:nonzero;stroke:none"
         id="path230" /><path
         d="m 276.074,169.949 c 0.906,0.289 1.84,0.489 2.766,0.739 0.16,-2.012 -1.621,-2.282 -3.164,-2.321 0.09,0.399 0.289,1.227 0.398,1.582"
         style="fill:#ffffff;fill-opacity:1;fill-rule:nonzero;stroke:none"
         id="path232" /><path
         d="m 237.184,169.754 c 1.601,-3.098 0.457,-7.016 0.804,-10.43 -0.258,0.039 -0.754,0.149 -0.953,0.199 0,3.364 -0.238,6.778 0.149,10.231"
         style="fill:#d5e110;fill-opacity:1;fill-rule:nonzero;stroke:none"
         id="path234" /><path
         d="m 270.938,167.711 c 0.199,0.695 0.359,1.426 0.558,2.07 0.805,-0.027 1.613,-0.097 2.359,-0.148 -0.199,-0.746 -0.449,-1.512 -0.699,-2.32 -0.765,0.152 -1.511,0.242 -2.218,0.398"
         style="fill:#ffffff;fill-opacity:1;fill-rule:nonzero;stroke:none"
         id="path236" /><path
         d="m 221.191,164.27 c -0.168,0.644 -0.32,1.253 -0.515,1.839 2.754,-1.55 5.383,-3.421 8,-5.222 -0.457,-0.809 -1.395,-1.047 -2.211,-1.453 -1.961,1.39 -3.414,3.363 -5.274,4.836"
         style="fill:#ce561f;fill-opacity:1;fill-rule:nonzero;stroke:none"
         id="path238" /><path
         d="m 266.957,165.363 h 0.109 c 3.055,-0.109 6.18,0.09 9.258,0.16 -1.168,-1.734 -1.168,-3.734 -0.758,-5.683 -0.289,0.539 -0.656,1.094 -0.957,1.652 -1.004,0 -1.976,0 -2.964,0 -0.071,-1.273 -0.149,-2.469 -0.2,-3.683 1.254,0.16 2.52,0.32 3.782,0.41 -1.125,-0.906 -2.594,-1.106 -3.989,-1.227 -0.101,-0.683 -0.238,-1.383 -0.347,-2.097 -0.051,0.757 -0.102,1.503 -0.161,2.257 -0.699,-0.039 -1.343,-0.039 -2,-0.039 -0.109,-0.765 -0.21,-1.504 -0.367,-2.269 -0.031,0.765 -0.152,1.465 -0.191,2.199 -0.695,0 -1.414,0 -2.117,0 0,-0.734 -0.043,-1.434 -0.043,-2.199 -0.207,0.687 -0.399,1.426 -0.606,2.109 -0.965,-0.09 -1.902,-0.207 -2.808,-0.297 -1.461,2.508 -1.871,5.422 -1.371,8.297 1.921,0.102 3.82,0.262 5.73,0.41"
         style="fill:#ce561f;fill-opacity:1;fill-rule:nonzero;stroke:none"
         id="path240" /><path
         d="m 271.695,164.676 c 1.004,0.082 2,0.199 3.016,0.238 -0.051,-0.914 -0.102,-1.828 -0.16,-2.766 -0.946,-0.07 -1.918,-0.109 -2.856,-0.148 0,0.848 0,1.742 0,2.676"
         style="fill:#12110f;fill-opacity:1;fill-rule:nonzero;stroke:none"
         id="path242" /><path
         d="m 261.625,164.469 c 0.906,0 1.762,0.051 2.688,0.051 0.089,-0.868 0.199,-1.723 0.328,-2.641 -1.047,-0.039 -2.043,-0.039 -3.055,-0.09 0,0.899 0.039,1.754 0.039,2.68"
         style="fill:#110f0e;fill-opacity:1;fill-rule:nonzero;stroke:none"
         id="path244" /><path
         d="m 265.008,164.559 c 1.004,0 2.019,-0.039 3.004,-0.039 0,-0.868 0.062,-1.672 0.062,-2.52 -0.957,-0.051 -1.972,-0.121 -2.906,-0.16 -0.051,0.898 -0.121,1.812 -0.16,2.719"
         style="fill:#100f0d;fill-opacity:1;fill-rule:nonzero;stroke:none"
         id="path246" /><path
         d="m 268.582,164.676 c 0.895,0 1.738,0 2.656,0 0,-0.887 -0.058,-1.789 -0.058,-2.676 -0.86,0 -1.703,0 -2.559,0 0,0.848 -0.039,1.742 -0.039,2.676"
         style="fill:#100f0d;fill-opacity:1;fill-rule:nonzero;stroke:none"
         id="path248" /><path
         d="m 221.191,164.27 c 1.86,-1.473 3.313,-3.446 5.274,-4.836 0.816,0.406 1.754,0.644 2.211,1.453 0.715,-0.469 1.453,-0.957 2.179,-1.414 -2.07,-2.52 -5.105,0 -7.515,-1.703 -1.055,2.07 -2.149,4.109 -2.149,6.5"
         style="fill:#38b43f;fill-opacity:1;fill-rule:nonzero;stroke:none"
         id="path250" /><path
         d="m 238.445,164.359 c 0.739,-1.472 1.215,-3.226 1.008,-4.886 -2.019,-0.192 -0.867,3.461 -1.008,4.886"
         style="fill:#98bfe9;fill-opacity:1;fill-rule:nonzero;stroke:none"
         id="path252" /><path
         d="m 256.957,163.652 c 0.648,0.868 2,0.407 2.914,0.09 -0.644,-0.34 -2.375,-0.855 -2.914,-0.09"
         style="fill:#9cc4ea;fill-opacity:1;fill-rule:nonzero;stroke:none"
         id="path254" /><path
         d="m 257.902,162.738 c 0.727,0.149 1.414,0.266 2.11,0.395 0,-1.899 -0.289,-4.07 1.215,-5.531 -7.028,-0.946 -14.18,-0.649 -21.239,-0.161 -1.91,0.27 -4.019,0.122 -5.73,1.075 5.582,-0.594 11.215,-0.914 16.816,-0.594 0.899,-0.07 1.465,0.703 2.153,1.203 -0.09,-0.301 -0.25,-0.906 -0.289,-1.203 1.261,0.047 2.515,0.086 3.769,0.086 0,1.426 -0.07,2.816 -0.156,4.18 -0.758,-0.399 -1.563,-0.805 -2.313,-1.254 0.539,1.304 1.864,1.613 3.168,1.804 -0.25,-1.554 -0.25,-3.105 -0.109,-4.609 0.805,0.039 1.621,0.09 2.426,0.141 -0.047,1.363 -0.16,2.664 -0.207,4.019 -0.399,0.109 -1.207,0.348 -1.614,0.449"
         style="fill:#ce561f;fill-opacity:1;fill-rule:nonzero;stroke:none"
         id="path256" /><path
         d="m 265.297,161.293 c 0.914,0 1.859,0.039 2.824,0.09 0.051,-1.215 0.051,-2.399 0.09,-3.613 -0.856,0 -1.711,0 -2.566,0 -0.079,1.144 -0.239,2.308 -0.348,3.523"
         style="fill:#100f0d;fill-opacity:1;fill-rule:nonzero;stroke:none"
         id="path258" /><path
         d="m 268.73,161.383 c 0.817,0 1.59,0 2.407,0 -0.09,-1.164 -0.199,-2.36 -0.297,-3.531 -0.758,-0.043 -1.453,-0.043 -2.168,-0.043 0,1.214 0,2.359 0.058,3.574"
         style="fill:#110f0e;fill-opacity:1;fill-rule:nonzero;stroke:none"
         id="path260" /><path
         d="m 261.516,161.133 c 1.082,0.051 2.136,0.051 3.203,0.051 0.129,-1.106 0.289,-2.27 0.488,-3.375 -0.855,-0.098 -1.66,-0.207 -2.477,-0.246 -0.5,1.152 -0.898,2.367 -1.214,3.57"
         style="fill:#100f0d;fill-opacity:1;fill-rule:nonzero;stroke:none"
         id="path262" /><path
         d="m 211.281,157.352 c 0.285,0.359 0.606,0.707 0.895,1.027 1.351,-1.188 2.527,-2.52 3.621,-3.981 -0.199,-1.054 -0.16,-2.113 0.308,-3.085 0.958,0 1.911,0 2.817,-0.04 0.082,-0.41 0.199,-1.097 0.238,-1.453 0.367,-0.25 1.067,-0.66 1.426,-0.855 -1.824,0.156 -3.574,0.555 -5.027,1.75 -0.407,-0.289 -0.817,-0.539 -1.223,-0.848 -0.141,2.906 -2.27,4.867 -3.055,7.485"
         style="fill:#38b43f;fill-opacity:1;fill-rule:nonzero;stroke:none"
         id="path264" /><path
         d="m 223.551,156.906 c 2.765,1.063 5.929,-0.437 8.398,1.719 2.875,-1.582 4.52,-6.141 8.289,-5.395 4.785,1.375 9.575,-0.945 14.36,-0.058 5.933,0.707 12.222,-0.488 17.836,1.383 1.121,0 2.226,0 3.281,0 -0.238,-0.356 -0.559,-0.676 -0.856,-1.004 -3.164,-2.168 -5.582,-5.531 -6.339,-9.305 -0.399,-0.445 -0.793,-0.976 -1.204,-1.422 -1.55,-1.226 -2.914,-2.566 -4.168,-4.109 -5.246,-5.098 -11.785,-8.57 -18.363,-11.574 -1.301,-0.719 -2.875,-0.856 -4.187,-0.153 -6.739,3.008 -13.387,6.582 -18.719,11.774 -1.254,1.496 -2.668,2.836 -4.18,4.062 -0.129,0.207 -0.488,0.567 -0.636,0.696 2.625,1.324 5.792,0.875 8.191,2.675 1.012,-0.535 2.066,-1.011 3.121,-1.461 0.102,2.875 -0.754,5.645 -1.293,8.399 -0.566,0.367 -1.133,0.656 -1.621,1.015 -0.707,0.497 -1.473,0.907 -2.199,1.352 0.078,0.359 0.238,1.055 0.289,1.406"
         style="fill:#4766b8;fill-opacity:1;fill-rule:nonzero;stroke:none"
         id="path266" /><path
         d="m 229.48,156.746 c 1.872,-0.637 3.813,-1.215 5.594,-2.058 -0.965,-1.106 -2.429,-1.106 -3.773,-1.008 1.105,-0.996 2.707,-0.746 4.062,-0.907 -0.121,-0.16 -0.539,-0.394 -0.687,-0.488 0.187,-0.246 0.437,-0.523 0.687,-0.765 -0.738,-0.09 -1.453,-0.207 -2.199,-0.336 -0.07,0.289 -0.25,0.785 -0.309,1.101 -1.105,0.61 -2.269,1.059 -3.425,1.395 0.25,0.109 0.769,0.41 1.008,0.566 -1.407,1.098 -3.305,-0.207 -4.629,1.047 1.203,0.516 2.457,0.977 3.671,1.453"
         style="fill:#4dbd52;fill-opacity:1;fill-rule:nonzero;stroke:none"
         id="path268" /><path
         d="m 237.48,156.348 c 3.165,-1.254 7.137,0.644 9.813,-1.864 -3.172,1.625 -6.773,-0.238 -9.813,1.864"
         style="fill:#38b43f;fill-opacity:1;fill-rule:nonzero;stroke:none"
         id="path270" /><path
         d="m 268.52,144.246 c 0.757,3.774 3.175,7.137 6.339,9.305 -1.613,-3.422 -3.769,-6.598 -6.339,-9.305"
         style="fill:#2d934d;fill-opacity:1;fill-rule:nonzero;stroke:none"
         id="path272" /><path
         d="m 264.512,151.633 c 2.16,1.758 5.172,0.695 7.722,1.183 -2.203,-1.632 -5.168,-2.437 -7.722,-1.183"
         style="fill:#4bbb55;fill-opacity:1;fill-rule:nonzero;stroke:none"
         id="path274" /><path
         d="m 236.328,152.379 c 1.602,0 3.371,0.059 4.727,-0.906 4.082,0.207 8.238,0.812 12.218,0.457 -0.496,-0.168 -0.992,-0.25 -1.5,-0.41 -2.57,-0.247 -5.175,-0.399 -7.753,-0.09 -2.637,-0.356 -5.782,-1.95 -8.25,-0.207 0.558,0 1.105,0 1.664,-0.039 0.156,0.089 0.457,0.336 0.605,0.496 -0.559,0.25 -1.164,0.449 -1.711,0.699"
         style="fill:#4dbd52;fill-opacity:1;fill-rule:nonzero;stroke:none"
         id="path276" /><path
         d="m 253.273,151.93 c 0.559,0.148 1.055,0.25 1.625,0.398 -0.816,-0.898 -1.832,-1.543 -2.976,-1.863 -0.965,-0.039 -1.91,-0.129 -2.867,-0.246 0.718,0.765 1.773,1.004 2.718,1.301 0.508,0.16 1.004,0.242 1.5,0.41"
         style="fill:#1d2e53;fill-opacity:1;fill-rule:nonzero;stroke:none"
         id="path278" /><path
         d="m 256.797,151.879 c 1.625,-0.16 3.215,-0.406 4.828,-0.566 l -0.039,-0.528 c -1.125,0.078 -2.27,0.129 -3.363,0.238 -0.52,0.25 -0.977,0.547 -1.426,0.856"
         style="fill:#182339;fill-opacity:1;fill-rule:nonzero;stroke:none"
         id="path280" /><path
         d="m 214.336,149.867 c 0.406,0.309 0.816,0.559 1.223,0.848 1.453,-1.195 3.203,-1.594 5.027,-1.75 -0.359,0.195 -1.059,0.605 -1.426,0.855 -0.039,0.356 -0.156,1.043 -0.238,1.453 3.008,0 3.008,-3.316 3.453,-5.472 -2.965,0.754 -6.418,0.992 -8.039,4.066"
         style="fill:#ce561f;fill-opacity:1;fill-rule:nonzero;stroke:none"
         id="path282" /><path
         d="m 251.922,150.465 c 2.117,-0.246 4.219,0.211 6.301,0.558 1.093,-0.109 2.238,-0.16 3.363,-0.238 2.656,-0.566 5.281,-1.375 8.051,-1.015 -0.199,-0.407 -0.41,-0.805 -0.61,-1.215 -3.461,-1.262 -7.441,-0.907 -11.015,-0.489 0.906,0.411 1.859,0.77 2.715,1.215 -4.02,-0.605 -8.059,0.539 -12.02,0.895 l 0.348,0.043 c 0.957,0.117 1.902,0.207 2.867,0.246"
         style="fill:#4dbd51;fill-opacity:1;fill-rule:nonzero;stroke:none"
         id="path284" /><path
         d="m 229.84,150.379 c 1.75,-0.449 3.453,-0.969 5.234,-1.375 -1.859,-0.887 -3.82,0.117 -5.234,1.375"
         style="fill:#110f0e;fill-opacity:1;fill-rule:nonzero;stroke:none"
         id="path286" /><path
         d="m 236.836,148.914 c 1.75,-0.078 3.562,-0.078 5.324,0 -0.14,-0.289 -0.449,-0.894 -0.59,-1.203 -0.722,-0.352 -1.461,-0.707 -2.226,-0.957 -1.504,0 -3.016,0.199 -4.481,0.406 0.946,0.199 1.934,0.399 2.867,0.61 -0.207,0.296 -0.644,0.906 -0.894,1.144"
         style="fill:#4dbd5d;fill-opacity:1;fill-rule:nonzero;stroke:none"
         id="path288" /><path
         d="m 243.234,148.676 c 0.786,-0.41 1.594,-0.809 2.438,-1.274 -1.652,0.157 -3.402,0.309 -4.777,-0.765 -0.446,-0.192 -0.856,-0.391 -1.235,-0.598 -1.074,-0.051 -2.137,0 -3.191,0 0.965,0.207 1.929,0.406 2.875,0.715 0.765,0.25 1.504,0.605 2.226,0.957 0.539,0.309 1.106,0.644 1.664,0.965"
         style="fill:#110f0e;fill-opacity:1;fill-rule:nonzero;stroke:none"
         id="path290" /><path
         d="m 243.973,146.637 c 1.949,-0.332 3.929,-0.282 5.59,0.972 2.519,-0.906 5.085,-1.859 6.789,-3.98 0.089,-0.289 0.246,-0.887 0.355,-1.152 0.59,-0.114 1.254,-0.153 1.922,-0.262 -0.566,-0.246 -1.066,-0.445 -1.582,-0.695 0.715,-0.161 1.422,-0.368 2.109,-0.497 -1.703,-0.152 -3.363,0 -4.957,0.375 0.289,0.321 0.539,0.68 0.856,0.965 -2.317,0.508 -4.707,0 -7.063,0.051 -2.609,0.172 -4.629,-1.949 -6.937,-2.844 0.566,-0.16 1.105,-0.359 1.672,-0.519 l -0.508,-0.149 c -2.02,-0.496 -4.09,-0.746 -6.09,-1.144 0.25,0.398 0.508,0.797 0.816,1.203 -1.222,0.687 -2.59,1.098 -3.89,1.453 -0.051,0.34 -0.09,1.106 -0.09,1.465 0.605,0.09 1.183,0.141 1.801,0.246 0.097,0.289 0.347,0.855 0.476,1.145 3.098,-0.856 6.262,-0.684 9.285,0.41 2.321,-1.555 5.036,-0.41 7.555,-0.25 -0.977,1.105 -2.18,1.953 -3.535,2.468 -0.805,-0.367 -1.57,-0.714 -2.317,-1.054 0,0.207 0.047,0.605 0.098,0.816 -0.816,0.289 -1.543,0.645 -2.355,0.977"
         style="fill:#4dbd52;fill-opacity:1;fill-rule:nonzero;stroke:none"
         id="path292" /><path
         d="m 239.66,146.039 c 0.379,0.207 0.789,0.406 1.235,0.598 -0.25,-1.106 -0.336,-2.551 -1.504,-3.117 -3.133,0.16 -6.336,0.675 -9.106,2.23 3.086,-0.617 6.551,-1.555 9.375,0.289"
         style="fill:#4bbd54;fill-opacity:1;fill-rule:nonzero;stroke:none"
         id="path294" /><path
         d="m 260.172,145.184 c 1.699,0.765 3.48,0.504 5.234,0.066 -0.051,-0.199 -0.109,-0.605 -0.109,-0.766 0.348,-0.16 1.055,-0.398 1.414,-0.488 -3.254,-0.367 -7.844,-2.117 -10.27,0.899 1.461,-0.571 3.036,-1.008 4.625,-1.215 -0.289,0.515 -0.605,1.004 -0.894,1.504"
         style="fill:#4dbd51;fill-opacity:1;fill-rule:nonzero;stroke:none"
         id="path296" /><path
         d="m 220.781,143.031 c 1.864,0.77 3.875,1.813 5.844,0.856 -0.258,-0.407 -0.52,-0.856 -0.766,-1.25 -1.711,0.187 -3.363,0.234 -5.078,0.394"
         style="fill:#43bb68;fill-opacity:1;fill-rule:nonzero;stroke:none"
         id="path298" /><path
         d="m 217.699,142.824 c 1.512,-1.226 2.926,-2.566 4.18,-4.062 -1.543,1.144 -2.957,2.551 -4.18,4.062"
         style="fill:#12110f;fill-opacity:1;fill-rule:nonzero;stroke:none"
         id="path300" /><path
         d="m 227.32,142.168 c 1.762,0.418 3.535,0.574 5.325,0.617 -1.661,-0.707 -3.563,-1.117 -5.325,-0.617"
         style="fill:#100f0d;fill-opacity:1;fill-rule:nonzero;stroke:none"
         id="path302" /><path
         d="m 263.148,138.715 c 1.254,1.543 2.618,2.883 4.168,4.109 -1.214,-1.511 -2.597,-2.918 -4.168,-4.109"
         style="fill:#12110f;fill-opacity:1;fill-rule:nonzero;stroke:none"
         id="path304" /><path
         d="m 222.695,141.969 c 1.262,-0.039 2.309,-0.739 3.254,-1.555 0.774,-0.059 1.531,-0.156 2.317,-0.238 -2,-0.567 -4.625,-0.367 -5.571,1.793"
         style="fill:#43bc6e;fill-opacity:1;fill-rule:nonzero;stroke:none"
         id="path306" /><path
         d="m 248.449,141.07 c 1.86,0.192 3.879,0.489 5.633,-0.355 -0.539,-0.211 -1.105,-0.457 -1.664,-0.699 2.02,-0.161 4.289,-0.161 5.844,-1.653 -3.414,-0.722 -7.157,0.598 -9.813,2.707"
         style="fill:#4ebd55;fill-opacity:1;fill-rule:nonzero;stroke:none"
         id="path308" /><path
         d="m 236.219,140.215 c 1.461,0.449 2.965,0.699 4.539,0.699 -1.305,-0.816 -3.278,-2.469 -4.539,-0.699"
         style="fill:#3f7bbe;fill-opacity:1;fill-rule:nonzero;stroke:none"
         id="path310" /><path
         d="m 257.496,140.016 c 1.82,0.699 3.731,1.007 5.692,0.898 -0.141,-0.25 -0.458,-0.816 -0.547,-1.105 -1.703,0 -3.414,0.046 -5.145,0.207"
         style="fill:#4abb5c;fill-opacity:1;fill-rule:nonzero;stroke:none"
         id="path312" /><path
         d="m 226.367,139.16 c 1.52,0 3.063,-0.07 4.578,-0.109 -0.199,-0.149 -0.558,-0.399 -0.699,-0.496 l -0.316,-0.11 c -1.254,-0.129 -2.399,0.317 -3.563,0.715"
         style="fill:#110f0e;fill-opacity:1;fill-rule:nonzero;stroke:none"
         id="path314" /><path
         d="m 236.129,137.758 c 2,0.398 4.07,0.648 6.09,1.144 -1.981,-1.351 -4.539,-1.851 -6.895,-1.351 0.199,0.039 0.606,0.156 0.805,0.207"
         style="fill:#110f0e;fill-opacity:1;fill-rule:nonzero;stroke:none"
         id="path316" /><path
         d="m 241.293,137.152 c 1.223,0.399 2.32,1.004 3.535,1.371 3.692,-1.789 7.84,-0.765 11.723,-1.742 -0.043,-0.187 -0.199,-0.656 -0.242,-0.855 0.132,-0.129 0.531,-0.446 0.738,-0.586 -1.594,0.051 -3.055,0.695 -4.508,1.254 -2.391,-0.914 -4.887,-0.559 -7.355,-0.309 l -0.446,0.051 c -0.57,0.059 -1.168,0.059 -1.722,0.059 -0.129,-0.469 -0.25,-0.915 -0.387,-1.364 0.547,-0.051 1.094,-0.16 1.629,-0.25 0,-0.195 0,-0.644 0,-0.894 2.789,-0.11 5.555,0.09 8.32,0.449 -0.211,-2.887 -3.73,-2.223 -5.64,-3.176 0.714,-0.25 1.41,-0.449 2.117,-0.715 -1.879,-0.5 -3.742,-0.949 -5.571,-1.433 0.329,0.437 0.684,0.894 1.043,1.343 -2.757,0 -5.582,0.2 -8.148,1.301 2.566,0.211 5.086,-0.406 7.641,-0.496 -0.336,0.668 -0.657,1.313 -0.895,1.961 -1.016,0.149 -2.031,0.246 -3.016,0.359 0.289,0.297 0.598,0.606 0.895,0.856 -3.074,-0.199 -6.18,-0.609 -9.305,0.039 2,1.305 4.559,1.961 6.836,1.055 0.918,0.25 1.774,0.496 2.617,0.765 0.063,0.34 0.09,0.657 0.141,0.957"
         style="fill:#4bbd54;fill-opacity:1;fill-rule:nonzero;stroke:none"
         id="path318" /><path
         d="m 229.93,138.445 0.316,0.11 c 1.395,-0.11 2.969,-0.438 3.863,-1.653 -2.07,0 -4.113,0.039 -6.14,-0.308 0.051,0.258 0.121,0.797 0.16,1.047 0.605,0.316 1.191,0.566 1.801,0.804"
         style="fill:#4abb5e;fill-opacity:1;fill-rule:nonzero;stroke:none"
         id="path320" /><path
         d="m 244.738,136.336 0.446,-0.051 c 1.144,-0.695 2.32,-1.344 3.523,-1.91 -1.57,0.051 -3.273,0.449 -3.969,1.961"
         style="fill:#110f0e;fill-opacity:1;fill-rule:nonzero;stroke:none"
         id="path322" /><path
         d="m 93.3555,285.078 c 1.4414,0.777 2.9062,1.527 4.3711,2.25 -1.4649,-0.723 -2.9297,-1.473 -4.3711,-2.25"
         style="fill:url(#radialGradient328);fill-opacity:1;fill-rule:evenodd;stroke:none"
         id="path330" /></g></g></svg>
