<?xml version="1.0" encoding="UTF-8" standalone="no"?>
<svg
   xmlns:dc="http://purl.org/dc/elements/1.1/"
   xmlns:cc="http://creativecommons.org/ns#"
   xmlns:rdf="http://www.w3.org/1999/02/22-rdf-syntax-ns#"
   xmlns:svg="http://www.w3.org/2000/svg"
   xmlns="http://www.w3.org/2000/svg"
   version="1.1"
   id="svg2"
   xml:space="preserve"
   width="42.666668"
   height="42.666668"
   viewBox="0 0 42.666668 42.666668"><metadata
     id="metadata8"><rdf:RDF><cc:Work
         rdf:about=""><dc:format>image/svg+xml</dc:format><dc:type
           rdf:resource="http://purl.org/dc/dcmitype/StillImage" /></cc:Work></rdf:RDF></metadata><defs
     id="defs6" /><g
     id="g10"
     transform="matrix(1.3333333,0,0,-1.3333333,0,42.666667)"><g
       id="g12"
       transform="scale(0.1)"><path
         d="M 9.46484,214.313 H 310.508 C 316.652,197.34 320,179.047 320,159.945 c 0,-19.082 -3.348,-37.351 -9.492,-54.355 H 9.46484 C 3.33984,122.594 0,140.863 0,159.945 c 0,19.102 3.33984,37.395 9.46484,54.368"
         style="fill:#2959aa;fill-opacity:1;fill-rule:evenodd;stroke:none"
         id="path14" /><path
         d="M 310.508,214.32 H 9.46484 C 31.7188,275.941 90.7227,319.977 159.988,319.977 c 69.27,0 128.254,-44.036 150.52,-105.657"
         style="fill:#ffffff;fill-opacity:1;fill-rule:evenodd;stroke:none"
         id="path16" /><path
         d="M 9.46484,105.59 H 310.508 C 288.242,44 229.258,-0.0625 159.988,-0.0625 90.7227,-0.0625 31.7188,44 9.46484,105.59"
         style="fill:#ec1d27;fill-opacity:1;fill-rule:evenodd;stroke:none"
         id="path18" /><path
         d="m 84.418,187.934 c 4.4453,-5.965 10.8008,-10.332 17.809,-12.754 6.933,2.422 13.32,6.789 17.738,12.715 -3.27,-0.672 -6,1.621 -9.125,2.023 -3.063,0.281 -5.602,-2.023 -8.613,-2.082 -3.0082,0.012 -5.5473,2.336 -8.6293,2.082 -3.1211,-0.402 -5.9063,-2.734 -9.1797,-1.984 z m 1.9218,4.453 c -2.0273,-0.125 -4.0039,0.586 -5.6601,1.769 0.5195,-1.035 0.957,-2.121 1.6562,-3.019 1.0821,-0.742 2.3868,-1.172 3.6993,-1.172 2.8476,0.058 5.2461,2.121 8.1054,2.16 2.8438,-0.09 5.2383,-2.102 8.0864,-2.16 2.843,0.058 5.246,2.121 8.078,2.16 2.855,-0.09 5.242,-2.102 8.097,-2.16 1.305,0.051 2.618,0.41 3.672,1.172 0.656,0.898 1.102,1.933 1.594,2.929 -1.563,-0.996 -3.359,-1.718 -5.266,-1.679 -2.855,0.051 -5.242,2.07 -8.097,2.148 -2.832,-0.078 -5.235,-2.097 -8.078,-2.148 -2.8481,0.051 -5.2426,2.07 -8.0864,2.148 -2.7734,-0.078 -5.0625,-1.941 -7.8008,-2.148 z m 8.5704,20.273 c -1.6094,2.004 -3.1172,4.074 -4.7149,6.113 -4.125,-5.488 -8.2812,-10.867 -12.3633,-16.355 0.4219,-3.742 3.4063,-7.023 7.0547,-7.785 3.4024,-0.625 6.2031,2.16 9.5508,2.031 2.7109,-0.176 5.0313,-2.07 7.7895,-2.117 2.761,0.047 5.078,1.941 7.777,2.117 3.176,0.129 5.801,-2.391 8.988,-2.117 2.957,0.34 5.473,2.527 6.832,5.078 0.192,1.172 1.196,2.617 0.16,3.652 -3.929,5.137 -7.804,10.332 -11.75,15.496 -1.546,-2.039 -3.121,-4.05 -4.668,-6.093 -2.543,4.648 -4.886,9.511 -7.339,14.211 -2.4614,-4.758 -4.8559,-9.485 -7.3168,-14.231 z m 16.4098,37.793 -1.039,-1.687 -1.976,-0.012 0.941,-1.766 -0.922,-1.769 h 1.93 l 1.086,-1.739 1.008,1.739 h 1.976 l -0.941,1.769 0.965,1.766 -2,0.012 z m -18.2106,0 -1.0156,-1.687 -2.0391,-0.012 1.0039,-1.766 -0.9766,-1.738 1.9922,-0.031 1.0352,-1.746 1.0742,1.746 h 1.9297 l -0.9219,1.769 0.9414,1.766 -1.9726,0.012 z m 4.0586,3.527 c 3.168,0.047 6.391,0.047 9.664,0 8.695,-0.949 17.426,-2.714 25.387,-6.496 -0.649,-12.039 -1.457,-24.129 -2.129,-36.199 -0.25,-6.769 -1.695,-13.586 -4.875,-19.57 -4.723,-9.121 -13.246,-16.035 -22.988,-19.043 -9.4536,2.918 -17.809,9.539 -22.6098,18.23 -3.2656,5.891 -4.9063,12.59 -5.2227,19.258 -0.7187,12.422 -1.5625,24.875 -2.2031,37.324 7.8438,3.711 16.4414,5.442 24.9766,6.496"
         style="fill:#2959aa;fill-opacity:1;fill-rule:evenodd;stroke:none"
         id="path20" /><path
         d="m 93.1094,250.453 1.0508,-1.687 1.9726,-0.012 -0.9414,-1.766 0.9219,-1.769 h -1.9297 l -1.0742,-1.746 -1.0352,1.746 -1.9922,0.031 0.9766,1.738 -1.0039,1.766 2.0391,0.012 1.0156,1.687"
         style="fill:#f5de06;fill-opacity:1;fill-rule:evenodd;stroke:none"
         id="path22" /><path
         d="m 111.32,250.453 1.028,-1.687 2,-0.012 -0.965,-1.766 0.941,-1.769 h -1.976 l -1.008,-1.739 -1.086,1.739 h -1.93 l 0.922,1.769 -0.941,1.766 1.976,0.012 1.039,1.687"
         style="fill:#f5de06;fill-opacity:1;fill-rule:evenodd;stroke:none"
         id="path24" /><path
         d="m 69.8477,246.402 2.3437,1.082 c 0.6406,-12.449 1.4844,-24.902 2.2031,-37.324 0.3164,-6.668 1.9571,-13.367 5.2227,-19.258 4.8008,-8.691 13.1562,-15.312 22.6098,-18.23 9.742,3.008 18.265,9.922 22.988,19.043 3.18,5.984 4.625,12.801 4.875,19.57 0.672,12.07 1.48,24.16 2.129,36.199 l 2.344,-1.211 c -0.813,-12.761 -1.618,-25.574 -2.461,-38.339 -0.45,-6.727 -2.336,-13.477 -5.836,-19.297 -5.297,-8.875 -14.18,-15.352 -24.039,-18.301 -10.3012,3.039 -19.5942,10.039 -24.7895,19.562 -3.2344,5.821 -4.8867,12.489 -5.1875,19.141 -0.8047,12.41 -1.5898,24.785 -2.4023,37.207 v 0.156"
         style="fill:#ec1d27;fill-opacity:1;fill-rule:evenodd;stroke:none"
         id="path26" /><path
         d="m 86.3398,192.387 c 2.7383,0.207 5.0274,2.07 7.8008,2.148 2.8438,-0.078 5.2383,-2.097 8.0864,-2.148 2.843,0.051 5.246,2.07 8.078,2.148 2.855,-0.078 5.242,-2.097 8.097,-2.148 1.907,-0.039 3.703,0.683 5.266,1.679 -0.492,-0.996 -0.938,-2.031 -1.594,-2.929 -1.054,-0.762 -2.367,-1.121 -3.672,-1.172 -2.855,0.058 -5.242,2.07 -8.097,2.16 -2.832,-0.039 -5.235,-2.102 -8.078,-2.16 -2.8481,0.058 -5.2426,2.07 -8.0864,2.16 -2.8593,-0.039 -5.2578,-2.102 -8.1054,-2.16 -1.3125,0 -2.6172,0.43 -3.6993,1.172 -0.6992,0.898 -1.1367,1.984 -1.6562,3.019 1.6562,-1.183 3.6328,-1.894 5.6601,-1.769"
         style="fill:#ffffff;fill-opacity:1;fill-rule:evenodd;stroke:none"
         id="path28" /><path
         d="m 84.418,187.934 c 3.2734,-0.75 6.0586,1.582 9.1797,1.984 3.082,0.254 5.6211,-2.07 8.6293,-2.082 3.011,0.059 5.55,2.363 8.613,2.082 3.125,-0.402 5.855,-2.695 9.125,-2.023 -4.418,-5.926 -10.805,-10.293 -17.738,-12.715 -7.0082,2.422 -13.3637,6.789 -17.809,12.754"
         style="fill:#ffffff;fill-opacity:1;fill-rule:evenodd;stroke:none"
         id="path30" /><path
         d="m 102.191,238.402 1.036,-1.699 2.011,-0.047 -0.976,-1.75 0.949,-1.758 h -1.984 l -1,-1.718 -1.09,1.718 h -1.9182 l 0.9182,1.797 -0.9534,1.711 1.9764,0.047 1.031,1.699"
         style="fill:#f5de06;fill-opacity:1;fill-rule:evenodd;stroke:none"
         id="path32" /><path
         d="m 94.9102,212.66 c 2.4609,4.746 4.8554,9.473 7.3168,14.231 2.453,-4.758 4.851,-9.485 7.312,-14.231 1.621,2.004 3.121,4.074 4.695,6.113 4.141,-5.488 8.301,-10.867 12.371,-16.355 -0.414,-3.742 -3.402,-7.023 -7.066,-7.785 -3.402,-0.625 -6.18,2.16 -9.535,2.031 -2.699,-0.176 -5.016,-2.07 -7.777,-2.117 -2.7582,0.047 -5.0786,1.941 -7.7895,2.117 -3.3477,0.129 -6.1484,-2.656 -9.5508,-2.031 -3.6484,0.762 -6.6328,4.043 -7.0547,7.785 4.0821,5.488 8.2383,10.867 12.3633,16.355 1.5977,-2.039 3.1055,-4.109 4.7149,-6.113"
         style="fill:#ffffff;fill-opacity:1;fill-rule:evenodd;stroke:none"
         id="path34" /></g></g></svg>
