<?xml version="1.0" encoding="UTF-8" standalone="no"?>
<svg
   xmlns:dc="http://purl.org/dc/elements/1.1/"
   xmlns:cc="http://creativecommons.org/ns#"
   xmlns:rdf="http://www.w3.org/1999/02/22-rdf-syntax-ns#"
   xmlns:svg="http://www.w3.org/2000/svg"
   xmlns="http://www.w3.org/2000/svg"
   version="1.1"
   id="svg2"
   xml:space="preserve"
   width="42.666668"
   height="42.666668"
   viewBox="0 0 42.666668 42.666668"><metadata
     id="metadata8"><rdf:RDF><cc:Work
         rdf:about=""><dc:format>image/svg+xml</dc:format><dc:type
           rdf:resource="http://purl.org/dc/dcmitype/StillImage" /></cc:Work></rdf:RDF></metadata><defs
     id="defs6"><clipPath
       clipPathUnits="userSpaceOnUse"
       id="clipPath32"><path
         d="m 87.7813,146.469 c 2.9843,0.832 6.164,0.832 9.2421,0 5.5976,-2.813 9.1326,-8.321 12.0396,-13.711 4.199,5.781 12.773,8.937 18.929,4.18 2.528,-2.508 7.09,-5.606 5.692,-9.59 C 123.52,112.504 108.496,101.598 92.3555,94.0469 75.8438,102.055 59.7969,113.09 50.1914,129 c 2.9883,5.156 7.6484,10.652 14.0899,10.273 4.8515,0 8.7539,-3.253 11.5625,-6.894 2.3281,5.769 6.3398,11.101 11.9375,14.09 z"
         id="path30" /></clipPath></defs><g
     id="g10"
     transform="matrix(1.3333333,0,0,-1.3333333,0,42.666667)"><g
       id="g12"
       transform="scale(0.1)"><path
         d="M 9.47266,214.281 H 310.52 c 6.132,-16.933 9.48,-35.234 9.48,-54.324 0,-19.094 -3.348,-37.363 -9.48,-54.367 H 9.47266 C 3.35547,122.594 0,140.863 0,159.957 c 0,19.09 3.35547,37.391 9.47266,54.324"
         style="fill:#274ca4;fill-opacity:1;fill-rule:evenodd;stroke:none"
         id="path14" /><path
         d="M 310.52,214.313 H 9.47266 C 31.7227,275.922 90.7227,319.984 159.988,319.984 c 69.27,0 128.266,-44.062 150.532,-105.671"
         style="fill:#ffffff;fill-opacity:1;fill-rule:evenodd;stroke:none"
         id="path16" /><path
         d="M 9.47266,105.59 H 310.52 C 288.254,43.9883 229.258,-0.0742188 159.988,-0.0742188 90.7227,-0.0742188 31.7227,43.9883 9.47266,105.59"
         style="fill:#ed1d27;fill-opacity:1;fill-rule:evenodd;stroke:none"
         id="path18" /><path
         d="m 150.727,164.645 c 0,16.875 -0.231,39.082 -1.981,61.562 l -0.406,5.184 -5.195,0.019 c -14.579,0.09 -30.157,0.137 -50.5512,0.137 -8.4102,0 -16.8204,-0.027 -25.2344,-0.027 -8.4024,-0.02 -16.793,-0.02 -25.1875,-0.02 h -4.9258 l -0.6797,-4.844 c -1.9492,-13.711 -2.0976,-27.949 -2.2539,-41.699 -0.0586,-4.504 -0.1211,-9.121 -0.2266,-13.527 -0.7656,-17.207 3.1602,-32.957 11.3633,-45.508 l 5.711,-4.805 4.8476,-5.547 5.5352,-5.996 30.7656,-21.8162 36.1994,30.1562 4.527,3.594 5.422,2.773 c 7.93,12.434 12.168,26.379 12.27,40.364"
         style="fill:#ffffff;fill-opacity:1;fill-rule:nonzero;stroke:none"
         id="path20" /><path
         d="m 42.1719,225.844 c 33.5742,0 67.2581,0.09 100.9331,-0.086 1.586,-20.332 1.958,-40.754 1.958,-61.113 -0.086,-13.243 -4.29,-26.192 -11.379,-37.297 1.398,3.984 -3.164,7.082 -5.692,9.59 -6.156,4.757 -14.73,1.601 -18.929,-4.18 -2.907,5.39 -6.442,10.898 -12.0396,13.711 0.086,6.984 -0.1015,13.898 0.086,20.89 9.1446,0.293 18.3786,-0.468 27.2456,-2.804 0,5.136 -0.097,10.265 0.09,15.402 -8.863,-2.512 -18.191,-3.273 -27.3356,-2.891 -0.1875,4.637 -0.086,9.325 -0.086,14.09 7.3716,0.352 14.6366,-1.043 21.7426,-2.898 -0.383,5.137 0.086,10.359 -0.282,15.469 -6.918,-2.043 -14.089,-3.164 -21.2731,-2.961 -0.1875,6.789 1.5821,13.515 2.6133,20.214 -4.9414,-0.175 -9.8867,-0.351 -14.8437,0.09 0.9375,-6.691 2.7109,-13.398 2.7109,-20.215 -7.375,-0.382 -14.5469,0.918 -21.543,2.872 0.0821,-5.11 0,-10.332 0.0821,-15.559 6.914,2.219 14.1797,3.254 21.4609,2.988 0.0899,-4.676 0.1953,-9.453 -0.0898,-14.09 -9.1446,-0.382 -18.3828,0.379 -27.2461,2.891 0.1953,-5.137 0.1953,-10.383 0,-15.5 8.9492,2.434 18.1914,3.195 27.3359,2.902 0.1953,-6.992 0,-13.906 0.0899,-20.89 -5.5977,-2.989 -9.6094,-8.321 -11.9375,-14.09 -2.8086,3.641 -6.711,6.894 -11.5625,6.894 -6.4415,0.379 -11.1016,-5.117 -14.0899,-10.273 -8.1211,12.43 -11.1016,27.559 -10.4453,42.176 0.4648,18.105 -0.0938,36.875 2.4258,54.668"
         style="fill:#ed1d27;fill-opacity:1;fill-rule:nonzero;stroke:none"
         id="path22" /><path
         d="m 87.7813,146.469 c 2.9843,0.832 6.164,0.832 9.2421,0 5.5976,-2.813 9.1326,-8.321 12.0396,-13.711 4.199,5.781 12.773,8.937 18.929,4.18 2.528,-2.508 7.09,-5.606 5.692,-9.59 C 123.52,112.504 108.496,101.598 92.3555,94.0469 75.8438,102.055 59.7969,113.09 50.1914,129 c 2.9883,5.156 7.6484,10.652 14.0899,10.273 4.8515,0 8.7539,-3.253 11.5625,-6.894 2.3281,5.769 6.3398,11.101 11.9375,14.09"
         style="fill:#ffffff;fill-opacity:1;fill-rule:nonzero;stroke:none"
         id="path24" /><g
         id="g26"><g
           id="g28"
           clip-path="url(#clipPath32)"><path
             d="M 135.082,147.086 H 50.1914 v 0.215 h 84.8906 v -0.215"
             style="fill:#ffffff;fill-opacity:1;fill-rule:nonzero;stroke:none"
             id="path34" /><path
             d="M 135.082,146.441 H 50.1914 v 0.645 h 84.8906 v -0.645"
             style="fill:#ffffff;fill-opacity:1;fill-rule:nonzero;stroke:none"
             id="path36" /><path
             d="M 135.082,145.785 H 50.1914 v 0.656 h 84.8906 v -0.656"
             style="fill:#ffffff;fill-opacity:1;fill-rule:nonzero;stroke:none"
             id="path38" /><path
             d="M 135.082,145.16 H 50.1914 v 0.625 h 84.8906 v -0.625"
             style="fill:#ffffff;fill-opacity:1;fill-rule:nonzero;stroke:none"
             id="path40" /><path
             d="M 135.082,144.508 H 50.1914 v 0.652 h 84.8906 v -0.652"
             style="fill:#ffffff;fill-opacity:1;fill-rule:nonzero;stroke:none"
             id="path42" /><path
             d="M 135.082,143.863 H 50.1914 v 0.645 h 84.8906 v -0.645"
             style="fill:#ffffff;fill-opacity:1;fill-rule:nonzero;stroke:none"
             id="path44" /><path
             d="M 135.082,143.199 H 50.1914 v 0.664 h 84.8906 v -0.664"
             style="fill:#ffffff;fill-opacity:1;fill-rule:nonzero;stroke:none"
             id="path46" /><path
             d="M 135.082,142.555 H 50.1914 v 0.644 h 84.8906 v -0.644"
             style="fill:#ffffff;fill-opacity:1;fill-rule:nonzero;stroke:none"
             id="path48" /><path
             d="M 135.082,141.918 H 50.1914 v 0.637 h 84.8906 v -0.637"
             style="fill:#ffffff;fill-opacity:1;fill-rule:nonzero;stroke:none"
             id="path50" /><path
             d="M 135.082,141.273 H 50.1914 v 0.645 h 84.8906 v -0.645"
             style="fill:#ffffff;fill-opacity:1;fill-rule:nonzero;stroke:none"
             id="path52" /><path
             d="M 135.082,140.629 H 50.1914 v 0.644 h 84.8906 v -0.644"
             style="fill:#ffffff;fill-opacity:1;fill-rule:nonzero;stroke:none"
             id="path54" /><path
             d="M 135.082,139.977 H 50.1914 v 0.652 h 84.8906 v -0.652"
             style="fill:#ffffff;fill-opacity:1;fill-rule:nonzero;stroke:none"
             id="path56" /><path
             d="M 135.082,139.32 H 50.1914 v 0.657 h 84.8906 v -0.657"
             style="fill:#ffffff;fill-opacity:1;fill-rule:nonzero;stroke:none"
             id="path58" /><path
             d="M 135.082,138.688 H 50.1914 v 0.632 h 84.8906 v -0.632"
             style="fill:#ffffff;fill-opacity:1;fill-rule:nonzero;stroke:none"
             id="path60" /><path
             d="M 135.082,138.031 H 50.1914 v 0.657 h 84.8906 v -0.657"
             style="fill:#ffffff;fill-opacity:1;fill-rule:nonzero;stroke:none"
             id="path62" /><path
             d="M 135.082,137.379 H 50.1914 v 0.652 h 84.8906 v -0.652"
             style="fill:#ffffff;fill-opacity:1;fill-rule:nonzero;stroke:none"
             id="path64" /><path
             d="M 135.082,136.734 H 50.1914 v 0.645 h 84.8906 v -0.645"
             style="fill:#ffffff;fill-opacity:1;fill-rule:nonzero;stroke:none"
             id="path66" /><path
             d="M 135.082,136.078 H 50.1914 v 0.656 h 84.8906 v -0.656"
             style="fill:#ffffff;fill-opacity:1;fill-rule:nonzero;stroke:none"
             id="path68" /><path
             d="M 135.082,135.453 H 50.1914 v 0.625 h 84.8906 v -0.625"
             style="fill:#ffffff;fill-opacity:1;fill-rule:nonzero;stroke:none"
             id="path70" /><path
             d="M 135.082,134.809 H 50.1914 v 0.644 h 84.8906 v -0.644"
             style="fill:#ffffff;fill-opacity:1;fill-rule:nonzero;stroke:none"
             id="path72" /><path
             d="M 135.082,134.156 H 50.1914 v 0.653 h 84.8906 v -0.653"
             style="fill:#ffffff;fill-opacity:1;fill-rule:nonzero;stroke:none"
             id="path74" /><path
             d="M 135.082,133.5 H 50.1914 v 0.656 H 135.082 V 133.5"
             style="fill:#ffffff;fill-opacity:1;fill-rule:nonzero;stroke:none"
             id="path76" /><path
             d="M 135.082,132.848 H 50.1914 v 0.652 h 84.8906 v -0.652"
             style="fill:#ffffff;fill-opacity:1;fill-rule:nonzero;stroke:none"
             id="path78" /><path
             d="M 135.082,132.211 H 50.1914 v 0.637 h 84.8906 v -0.637"
             style="fill:#ffffff;fill-opacity:1;fill-rule:nonzero;stroke:none"
             id="path80" /><path
             d="M 135.082,131.566 H 50.1914 v 0.645 h 84.8906 v -0.645"
             style="fill:#ffffff;fill-opacity:1;fill-rule:nonzero;stroke:none"
             id="path82" /><path
             d="M 135.082,130.922 H 50.1914 v 0.644 h 84.8906 v -0.644"
             style="fill:#ffffff;fill-opacity:1;fill-rule:nonzero;stroke:none"
             id="path84" /><path
             d="M 135.082,130.27 H 50.1914 v 0.652 h 84.8906 v -0.652"
             style="fill:#ffffff;fill-opacity:1;fill-rule:nonzero;stroke:none"
             id="path86" /><path
             d="M 135.082,129.613 H 50.1914 v 0.657 h 84.8906 v -0.657"
             style="fill:#ffffff;fill-opacity:1;fill-rule:nonzero;stroke:none"
             id="path88" /><path
             d="M 135.082,128.988 H 50.1914 v 0.625 h 84.8906 v -0.625"
             style="fill:#ffffff;fill-opacity:1;fill-rule:nonzero;stroke:none"
             id="path90" /><path
             d="M 135.082,128.324 H 50.1914 v 0.664 h 84.8906 v -0.664"
             style="fill:#ffffff;fill-opacity:1;fill-rule:nonzero;stroke:none"
             id="path92" /><path
             d="M 135.082,127.672 H 50.1914 v 0.652 h 84.8906 v -0.652"
             style="fill:#ffffff;fill-opacity:1;fill-rule:nonzero;stroke:none"
             id="path94" /><path
             d="M 135.082,127.027 H 50.1914 v 0.645 h 84.8906 v -0.645"
             style="fill:#ffffff;fill-opacity:1;fill-rule:nonzero;stroke:none"
             id="path96" /><path
             d="M 135.082,126.371 H 50.1914 v 0.656 h 84.8906 v -0.656"
             style="fill:#ffffff;fill-opacity:1;fill-rule:nonzero;stroke:none"
             id="path98" /><path
             d="M 135.082,125.746 H 50.1914 v 0.625 h 84.8906 v -0.625"
             style="fill:#ffffff;fill-opacity:1;fill-rule:nonzero;stroke:none"
             id="path100" /><path
             d="M 135.082,125.094 H 50.1914 v 0.652 h 84.8906 v -0.652"
             style="fill:#ffffff;fill-opacity:1;fill-rule:nonzero;stroke:none"
             id="path102" /><path
             d="M 135.082,124.449 H 50.1914 v 0.645 h 84.8906 v -0.645"
             style="fill:#ffffff;fill-opacity:1;fill-rule:nonzero;stroke:none"
             id="path104" /><path
             d="M 135.082,123.793 H 50.1914 v 0.656 h 84.8906 v -0.656"
             style="fill:#ffffff;fill-opacity:1;fill-rule:nonzero;stroke:none"
             id="path106" /><path
             d="M 135.082,123.148 H 50.1914 v 0.645 h 84.8906 v -0.645"
             style="fill:#ffffff;fill-opacity:1;fill-rule:nonzero;stroke:none"
             id="path108" /><path
             d="M 135.082,122.504 H 50.1914 v 0.644 h 84.8906 v -0.644"
             style="fill:#ffffff;fill-opacity:1;fill-rule:nonzero;stroke:none"
             id="path110" /><path
             d="M 135.082,121.859 H 50.1914 v 0.645 h 84.8906 v -0.645"
             style="fill:#ffffff;fill-opacity:1;fill-rule:nonzero;stroke:none"
             id="path112" /><path
             d="M 135.082,121.207 H 50.1914 v 0.652 h 84.8906 v -0.652"
             style="fill:#ffffff;fill-opacity:1;fill-rule:nonzero;stroke:none"
             id="path114" /><path
             d="M 135.082,120.563 H 50.1914 v 0.644 h 84.8906 v -0.644"
             style="fill:#ffffff;fill-opacity:1;fill-rule:nonzero;stroke:none"
             id="path116" /><path
             d="M 135.082,119.906 H 50.1914 v 0.657 h 84.8906 v -0.657"
             style="fill:#ffffff;fill-opacity:1;fill-rule:nonzero;stroke:none"
             id="path118" /><path
             d="M 135.082,119.281 H 50.1914 v 0.625 h 84.8906 v -0.625"
             style="fill:#ffffff;fill-opacity:1;fill-rule:nonzero;stroke:none"
             id="path120" /><path
             d="M 135.082,118.637 H 50.1914 v 0.644 h 84.8906 v -0.644"
             style="fill:#ffffff;fill-opacity:1;fill-rule:nonzero;stroke:none"
             id="path122" /><path
             d="M 135.082,117.965 H 50.1914 v 0.672 h 84.8906 v -0.672"
             style="fill:#ffffff;fill-opacity:1;fill-rule:nonzero;stroke:none"
             id="path124" /><path
             d="M 135.082,117.32 H 50.1914 v 0.645 h 84.8906 v -0.645"
             style="fill:#ffffff;fill-opacity:1;fill-rule:nonzero;stroke:none"
             id="path126" /><path
             d="M 135.082,116.664 H 50.1914 v 0.656 h 84.8906 v -0.656"
             style="fill:#ffffff;fill-opacity:1;fill-rule:nonzero;stroke:none"
             id="path128" /><path
             d="M 135.082,116.039 H 50.1914 v 0.625 h 84.8906 v -0.625"
             style="fill:#ffffff;fill-opacity:1;fill-rule:nonzero;stroke:none"
             id="path130" /><path
             d="M 135.082,115.395 H 50.1914 v 0.644 h 84.8906 v -0.644"
             style="fill:#ffffff;fill-opacity:1;fill-rule:nonzero;stroke:none"
             id="path132" /><path
             d="M 135.082,114.742 H 50.1914 v 0.653 h 84.8906 v -0.653"
             style="fill:#ffffff;fill-opacity:1;fill-rule:nonzero;stroke:none"
             id="path134" /><path
             d="M 135.082,114.086 H 50.1914 v 0.656 h 84.8906 v -0.656"
             style="fill:#ffffff;fill-opacity:1;fill-rule:nonzero;stroke:none"
             id="path136" /><path
             d="M 135.082,113.441 H 50.1914 v 0.645 h 84.8906 v -0.645"
             style="fill:#ffffff;fill-opacity:1;fill-rule:nonzero;stroke:none"
             id="path138" /><path
             d="M 135.082,112.797 H 50.1914 v 0.644 h 84.8906 v -0.644"
             style="fill:#ffffff;fill-opacity:1;fill-rule:nonzero;stroke:none"
             id="path140" /><path
             d="M 135.082,112.152 H 50.1914 v 0.645 h 84.8906 v -0.645"
             style="fill:#ffffff;fill-opacity:1;fill-rule:nonzero;stroke:none"
             id="path142" /><path
             d="M 135.082,111.5 H 50.1914 v 0.652 H 135.082 V 111.5"
             style="fill:#ffffff;fill-opacity:1;fill-rule:nonzero;stroke:none"
             id="path144" /><path
             d="M 135.082,110.855 H 50.1914 v 0.645 h 84.8906 v -0.645"
             style="fill:#ffffff;fill-opacity:1;fill-rule:nonzero;stroke:none"
             id="path146" /><path
             d="M 135.082,110.199 H 50.1914 v 0.656 h 84.8906 v -0.656"
             style="fill:#ffffff;fill-opacity:1;fill-rule:nonzero;stroke:none"
             id="path148" /><path
             d="M 135.082,109.574 H 50.1914 v 0.625 h 84.8906 v -0.625"
             style="fill:#ffffff;fill-opacity:1;fill-rule:nonzero;stroke:none"
             id="path150" /><path
             d="M 135.082,108.93 H 50.1914 v 0.644 h 84.8906 v -0.644"
             style="fill:#ffffff;fill-opacity:1;fill-rule:nonzero;stroke:none"
             id="path152" /><path
             d="M 135.082,108.277 H 50.1914 v 0.653 h 84.8906 v -0.653"
             style="fill:#ffffff;fill-opacity:1;fill-rule:nonzero;stroke:none"
             id="path154" /><path
             d="M 135.082,107.621 H 50.1914 v 0.656 h 84.8906 v -0.656"
             style="fill:#ffffff;fill-opacity:1;fill-rule:nonzero;stroke:none"
             id="path156" /><path
             d="M 135.082,106.957 H 50.1914 v 0.664 h 84.8906 v -0.664"
             style="fill:#ffffff;fill-opacity:1;fill-rule:nonzero;stroke:none"
             id="path158" /><path
             d="M 135.082,106.332 H 50.1914 v 0.625 h 84.8906 v -0.625"
             style="fill:#ffffff;fill-opacity:1;fill-rule:nonzero;stroke:none"
             id="path160" /><path
             d="M 135.082,105.68 H 50.1914 v 0.652 h 84.8906 v -0.652"
             style="fill:#ffffff;fill-opacity:1;fill-rule:nonzero;stroke:none"
             id="path162" /><path
             d="M 135.082,105.035 H 50.1914 v 0.645 h 84.8906 v -0.645"
             style="fill:#ffffff;fill-opacity:1;fill-rule:nonzero;stroke:none"
             id="path164" /><path
             d="M 135.082,104.379 H 50.1914 v 0.656 h 84.8906 v -0.656"
             style="fill:#ffffff;fill-opacity:1;fill-rule:nonzero;stroke:none"
             id="path166" /><path
             d="M 135.082,103.754 H 50.1914 v 0.625 h 84.8906 v -0.625"
             style="fill:#ffffff;fill-opacity:1;fill-rule:nonzero;stroke:none"
             id="path168" /><path
             d="M 135.082,103.09 H 50.1914 v 0.664 h 84.8906 v -0.664"
             style="fill:#ffffff;fill-opacity:1;fill-rule:nonzero;stroke:none"
             id="path170" /><path
             d="M 135.082,102.445 H 50.1914 v 0.645 h 84.8906 v -0.645"
             style="fill:#ffffff;fill-opacity:1;fill-rule:nonzero;stroke:none"
             id="path172" /><path
             d="M 135.082,101.793 H 50.1914 v 0.652 h 84.8906 v -0.652"
             style="fill:#ffffff;fill-opacity:1;fill-rule:nonzero;stroke:none"
             id="path174" /><path
             d="M 135.082,101.148 H 50.1914 v 0.645 h 84.8906 v -0.645"
             style="fill:#ffffff;fill-opacity:1;fill-rule:nonzero;stroke:none"
             id="path176" /><path
             d="M 135.082,100.492 H 50.1914 v 0.656 h 84.8906 v -0.656"
             style="fill:#ffffff;fill-opacity:1;fill-rule:nonzero;stroke:none"
             id="path178" /><path
             d="M 135.082,99.8672 H 50.1914 v 0.6248 h 84.8906 v -0.6248"
             style="fill:#ffffff;fill-opacity:1;fill-rule:nonzero;stroke:none"
             id="path180" /><path
             d="M 135.082,99.2227 H 50.1914 v 0.6445 h 84.8906 v -0.6445"
             style="fill:#ffffff;fill-opacity:1;fill-rule:nonzero;stroke:none"
             id="path182" /><path
             d="M 135.082,98.5703 H 50.1914 v 0.6524 h 84.8906 v -0.6524"
             style="fill:#ffffff;fill-opacity:1;fill-rule:nonzero;stroke:none"
             id="path184" /><path
             d="M 135.082,97.9141 H 50.1914 v 0.6562 h 84.8906 v -0.6562"
             style="fill:#ffffff;fill-opacity:1;fill-rule:nonzero;stroke:none"
             id="path186" /><path
             d="M 135.082,97.2813 H 50.1914 v 0.6328 h 84.8906 v -0.6328"
             style="fill:#ffffff;fill-opacity:1;fill-rule:nonzero;stroke:none"
             id="path188" /><path
             d="M 135.082,96.625 H 50.1914 v 0.6563 H 135.082 V 96.625"
             style="fill:#ffffff;fill-opacity:1;fill-rule:nonzero;stroke:none"
             id="path190" /><path
             d="M 135.082,95.9805 H 50.1914 v 0.6445 h 84.8906 v -0.6445"
             style="fill:#ffffff;fill-opacity:1;fill-rule:nonzero;stroke:none"
             id="path192" /><path
             d="M 135.082,95.3281 H 50.1914 v 0.6524 h 84.8906 v -0.6524"
             style="fill:#ffffff;fill-opacity:1;fill-rule:nonzero;stroke:none"
             id="path194" /><path
             d="M 135.082,94.6719 H 50.1914 v 0.6562 h 84.8906 v -0.6562"
             style="fill:#ffffff;fill-opacity:1;fill-rule:nonzero;stroke:none"
             id="path196" /><path
             d="M 135.082,94.0469 H 50.1914 v 0.625 h 84.8906 v -0.625"
             style="fill:#ffffff;fill-opacity:1;fill-rule:nonzero;stroke:none"
             id="path198" /><path
             d="M 50.1914,94.0469 H 135.082 50.1914"
             style="fill:#ffffff;fill-opacity:1;fill-rule:nonzero;stroke:none"
             id="path200" /></g></g><path
         d="m 56.9297,128.988 c 7.5273,-10.996 19.1797,-20.41 35.4687,-28.652 15.1176,7.48 27.3356,17.355 35.5816,28.742 l -2.378,2.363 -1.301,1.18 c -0.926,0.656 -1.946,0.977 -3.125,0.977 -2.692,0 -5.727,-1.68 -7.539,-4.16 l -5.313,-7.325 -4.265,7.969 c -2.368,4.453 -5.1098,8.828 -9.0785,11.047 -1.6953,0.391 -3.4336,0.391 -5.0742,0.027 -3.7305,-2.176 -6.8438,-6.015 -8.8086,-10.886 l -3.711,-9.192 -6.0273,7.832 c -1.6446,2.16 -4.2149,4.699 -7.0781,4.699 l -0.3243,0.028 c -2.75,0.148 -5.2031,-2.227 -7.0273,-4.649 z m 3.4258,-9.707 6.6328,8.469 c 3.4961,-0.051 7.293,-4.512 10.3984,-6.672 2.8946,4.231 6.1914,10.84 16.1211,1.047 l 6.6522,-1.945 -5.1717,12.199 c -6.7461,20.086 -3.5,4.355 -1.418,4.355 0,0 -7.2969,-25.859 -7.3242,-1.445 -0.0117,2.059 10.4336,-0.566 12.4414,-1.133 l 5.3715,-4.074 -7.9106,4.727 c 4.6646,-2.344 7.0116,-6.524 9.7186,-10.45 3.285,2.11 8.309,7.551 12.078,7.551 3.766,0 -5.226,-3.019 -2.277,-5.305 l -3.391,-0.742 3.391,0.742 c 2.867,-2.605 25.754,5.723 23.359,-1.121 l -0.25,-0.734 -0.425,-0.613 c -9.786,-14.27 -24.86,-26.4456 -43.5903,-35.2347 l -2.4531,-1.1445 -2.4219,1.1914 C 68.8086,99.1953 54.2422,111.352 45.3477,126.078 l -1.7422,2.883 1.6875,2.898"
         style="fill:#ffffff;fill-opacity:1;fill-rule:nonzero;stroke:none"
         id="path202" /><path
         d="m 87.7813,146.469 c 2.9843,0.832 6.164,0.832 9.2421,0 5.5976,-2.813 9.1326,-8.321 12.0396,-13.711 4.199,5.781 12.773,8.937 18.929,4.18 2.528,-2.508 7.09,-5.606 5.692,-9.59 C 123.52,112.504 108.496,101.598 92.3555,94.0469 75.8438,102.055 59.7969,113.09 50.1914,129 c 2.9883,5.156 7.6484,10.652 14.0899,10.273 4.8515,0 8.7539,-3.253 11.5625,-6.894 2.3281,5.769 6.3398,11.101 11.9375,14.09"
         style="fill:#274ca4;fill-opacity:1;fill-rule:nonzero;stroke:none"
         id="path204" /><path
         d="m 84.9805,221.07 c 4.957,-0.441 9.9023,-0.265 14.8437,-0.09 -1.0312,-6.699 -2.8008,-13.425 -2.6133,-20.214 7.1841,-0.203 14.3551,0.918 21.2731,2.961 0.368,-5.11 -0.101,-10.332 0.282,-15.469 -7.106,1.855 -14.371,3.25 -21.7426,2.898 0,-4.765 -0.1015,-9.453 0.086,-14.09 9.1446,-0.382 18.4726,0.379 27.3356,2.891 -0.187,-5.137 -0.09,-10.266 -0.09,-15.402 -8.867,2.336 -18.101,3.097 -27.2456,2.804 -0.1875,-6.992 0,-13.906 -0.086,-20.89 -3.0781,0.832 -6.2578,0.832 -9.2421,0 -0.0899,6.984 0.1054,13.898 -0.0899,20.89 -9.1445,0.293 -18.3867,-0.468 -27.3359,-2.902 0.1953,5.117 0.1953,10.363 0,15.5 8.8633,-2.512 18.1015,-3.273 27.2461,-2.891 0.2851,4.637 0.1797,9.414 0.0898,14.09 -7.2812,0.266 -14.5469,-0.769 -21.4609,-2.988 -0.0821,5.227 0,10.449 -0.0821,15.559 6.9961,-1.954 14.168,-3.254 21.543,-2.872 0,6.817 -1.7734,13.524 -2.7109,20.215"
         style="fill:#ffffff;fill-opacity:1;fill-rule:nonzero;stroke:none"
         id="path206" /></g></g></svg>
