<?xml version="1.0" encoding="UTF-8" standalone="no"?>
<svg
   xmlns:dc="http://purl.org/dc/elements/1.1/"
   xmlns:cc="http://creativecommons.org/ns#"
   xmlns:rdf="http://www.w3.org/1999/02/22-rdf-syntax-ns#"
   xmlns:svg="http://www.w3.org/2000/svg"
   xmlns="http://www.w3.org/2000/svg"
   version="1.1"
   id="svg2"
   xml:space="preserve"
   width="42.666668"
   height="42.666668"
   viewBox="0 0 42.666668 42.666668"><metadata
     id="metadata8"><rdf:RDF><cc:Work
         rdf:about=""><dc:format>image/svg+xml</dc:format><dc:type
           rdf:resource="http://purl.org/dc/dcmitype/StillImage" /></cc:Work></rdf:RDF></metadata><defs
     id="defs6" /><g
     id="g10"
     transform="matrix(1.3333333,0,0,-1.3333333,0,42.666667)"><g
       id="g12"
       transform="scale(0.1)"><path
         d="M 310.512,214.184 H 9.47656 C 3.34375,197.227 0,178.918 0,159.836 0,140.75 3.34375,122.461 9.47656,105.496 H 310.512 c 6.136,16.965 9.488,35.254 9.488,54.34 0,19.082 -3.352,37.391 -9.488,54.348"
         style="fill:#ffffff;fill-opacity:1;fill-rule:evenodd;stroke:none"
         id="path14" /><path
         d="M 9.47656,214.184 H 310.512 c -22.27,61.609 -81.258,105.66 -150.524,105.66 -69.2692,0 -128.2614,-44.051 -150.51144,-105.66"
         style="fill:#39b73e;fill-opacity:1;fill-rule:evenodd;stroke:none"
         id="path16" /><path
         d="M 310.512,105.496 H 9.47656 C 31.7266,43.9023 90.7188,-0.15625 159.988,-0.15625 c 69.266,0 128.254,44.05855 150.524,105.65225"
         style="fill:#396dbe;fill-opacity:1;fill-rule:evenodd;stroke:none"
         id="path18" /></g></g></svg>
