<?xml version="1.0" encoding="UTF-8" standalone="no"?>
<svg
   xmlns:dc="http://purl.org/dc/elements/1.1/"
   xmlns:cc="http://creativecommons.org/ns#"
   xmlns:rdf="http://www.w3.org/1999/02/22-rdf-syntax-ns#"
   xmlns:svg="http://www.w3.org/2000/svg"
   xmlns="http://www.w3.org/2000/svg"
   version="1.1"
   id="svg2"
   xml:space="preserve"
   width="42.666668"
   height="42.666668"
   viewBox="0 0 42.666668 42.666668"><metadata
     id="metadata8"><rdf:RDF><cc:Work
         rdf:about=""><dc:format>image/svg+xml</dc:format><dc:type
           rdf:resource="http://purl.org/dc/dcmitype/StillImage" /></cc:Work></rdf:RDF></metadata><defs
     id="defs6" /><g
     id="g10"
     transform="matrix(1.3333333,0,0,-1.3333333,0,42.666667)"><g
       id="g12"
       transform="scale(0.1)"><path
         d="M 105.66,9.35156 V 310.309 c 16.985,6.164 35.27,9.476 54.336,9.476 19.094,0 37.383,-3.312 54.363,-9.476 V 9.35156 c -16.98,-6.10937 -35.269,-9.4492163 -54.363,-9.4492163 -19.066,0 -37.351,3.3398463 -54.336,9.4492163"
         style="fill:#f5f12a;fill-opacity:1;fill-rule:evenodd;stroke:none"
         id="path14" /><path
         d="M 105.66,310.309 V 9.37109 C 44.0469,31.6172 0,90.5977 0,159.848 0,229.074 44.0469,288.063 105.66,310.309"
         style="fill:#26863c;fill-opacity:1;fill-rule:evenodd;stroke:none"
         id="path16" /><path
         d="M 214.359,9.37109 V 310.309 C 275.949,288.063 320,229.074 320,159.848 320,90.5977 275.949,31.6172 214.359,9.37109"
         style="fill:#e41d25;fill-opacity:1;fill-rule:nonzero;stroke:none"
         id="path18" /><path
         d="m 151.102,168.305 c 3.203,8.758 5.738,17.773 8.894,26.55 2.965,-8.82 5.797,-17.66 8.672,-26.503 9.379,-0.18 18.719,-0.09 28.059,-0.09 -7.446,-5.707 -15.184,-10.989 -22.618,-16.723 2.871,-8.918 5.75,-17.812 8.563,-26.707 -7.606,5.438 -15.082,11.074 -22.766,16.445 -7.551,-5.418 -14.976,-10.957 -22.57,-16.265 2.633,8.965 5.832,17.703 8.426,26.707 -7.489,5.488 -15.078,10.894 -22.489,16.543 9.25,0 18.555,0.043 27.829,0.043"
         style="fill:#26863c;fill-opacity:1;fill-rule:nonzero;stroke:none"
         id="path20" /></g></g></svg>
