<?xml version="1.0" encoding="UTF-8" standalone="no"?>
<svg
   xmlns:dc="http://purl.org/dc/elements/1.1/"
   xmlns:cc="http://creativecommons.org/ns#"
   xmlns:rdf="http://www.w3.org/1999/02/22-rdf-syntax-ns#"
   xmlns:svg="http://www.w3.org/2000/svg"
   xmlns="http://www.w3.org/2000/svg"
   version="1.1"
   id="svg2"
   xml:space="preserve"
   width="42.666668"
   height="42.666668"
   viewBox="0 0 42.666668 42.666668"><metadata
     id="metadata8"><rdf:RDF><cc:Work
         rdf:about=""><dc:format>image/svg+xml</dc:format><dc:type
           rdf:resource="http://purl.org/dc/dcmitype/StillImage" /></cc:Work></rdf:RDF></metadata><defs
     id="defs6" /><g
     id="g10"
     transform="matrix(1.3333333,0,0,-1.3333333,0,42.666667)"><g
       id="g12"
       transform="scale(0.1)"><path
         d="m 237.98,276.84 c -0.234,-0.106 -0.476,-0.207 -0.71,-0.324 0.234,0.117 0.476,0.218 0.71,0.324"
         style="fill:#bababa;fill-opacity:1;fill-rule:evenodd;stroke:none"
         id="path14" /><path
         d="M 159.984,-0.160156 C 248.133,-0.160156 320,71.707 320,159.84 320,247.965 248.133,319.848 159.984,319.848 71.8477,319.848 0,247.965 0,159.84 0,71.707 71.8477,-0.160156 159.984,-0.160156"
         style="fill:#5482cb;fill-opacity:1;fill-rule:evenodd;stroke:none"
         id="path16" /><path
         d="m 145.328,173.77 c 5.293,14.421 9.485,29.347 14.656,43.769 4.907,-14.512 9.555,-29.09 14.27,-43.684 15.476,-0.308 30.871,-0.175 46.234,-0.175 -12.242,-9.367 -25.008,-18.102 -37.238,-27.539 4.707,-14.676 9.453,-29.344 14.102,-43.993 -12.52,8.954 -24.848,18.258 -37.516,27.075 -12.43,-8.907 -24.68,-18.02 -37.188,-26.758 4.34,14.738 9.622,29.156 13.852,43.984 -12.34,9.063 -24.84,17.953 -37.0195,27.231 15.2265,0 30.5315,0.09 45.8475,0.09"
         style="fill:#ffffff;fill-opacity:1;fill-rule:nonzero;stroke:none"
         id="path18" /></g></g></svg>
