<?xml version="1.0" encoding="UTF-8" standalone="no"?>
<svg
   xmlns:dc="http://purl.org/dc/elements/1.1/"
   xmlns:cc="http://creativecommons.org/ns#"
   xmlns:rdf="http://www.w3.org/1999/02/22-rdf-syntax-ns#"
   xmlns:svg="http://www.w3.org/2000/svg"
   xmlns="http://www.w3.org/2000/svg"
   version="1.1"
   id="svg2"
   xml:space="preserve"
   width="42.666668"
   height="42.666668"
   viewBox="0 0 42.666668 42.666668"><metadata
     id="metadata8"><rdf:RDF><cc:Work
         rdf:about=""><dc:format>image/svg+xml</dc:format><dc:type
           rdf:resource="http://purl.org/dc/dcmitype/StillImage" /></cc:Work></rdf:RDF></metadata><defs
     id="defs6" /><g
     id="g10"
     transform="matrix(1.3333333,0,0,-1.3333333,0,42.666667)"><g
       id="g12"
       transform="scale(0.1)"><path
         d="M 310.523,105.68 H 9.47656 C 3.34766,122.645 0,140.949 0,160.027 0,179.105 3.34766,197.41 9.47656,214.379 H 310.523 C 316.652,197.41 320,179.105 320,160.027 c 0,-19.078 -3.348,-37.382 -9.477,-54.347"
         style="fill:#b41b2e;fill-opacity:1;fill-rule:evenodd;stroke:none"
         id="path14" /><path
         d="M 292.078,250.332 H 27.9141 C 20.3398,239.273 14.1094,227.211 9.47656,214.391 H 310.523 c -4.636,12.82 -10.867,24.882 -18.445,35.941"
         style="fill:#ffffff;fill-opacity:1;fill-rule:nonzero;stroke:none"
         id="path16" /><path
         d="M 292.078,69.6641 H 27.9141 C 20.3398,80.7266 14.1094,92.7852 9.47656,105.609 H 310.523 C 305.887,92.7852 299.656,80.7266 292.078,69.6641"
         style="fill:#ffffff;fill-opacity:1;fill-rule:nonzero;stroke:none"
         id="path18" /><path
         d="m 177.887,149.379 c 9.765,7.246 19.859,14.164 29.445,21.598 -12.168,0.144 -24.34,0 -36.508,0.035 -3.812,11.215 -7.25,22.558 -11.136,33.715 v 0.261 l -0.047,-0.133 -0.039,0.133 v -0.261 c -3.891,-11.157 -7.332,-22.5 -11.141,-33.715 -12.164,-0.035 -24.34,0.109 -36.508,-0.035 9.586,-7.434 19.684,-14.352 29.445,-21.598 -3.628,-11.652 -7.66,-23.156 -11.207,-34.84 9.977,6.856 19.555,14.223 29.45,21.16 9.898,-6.937 19.476,-14.304 29.453,-21.16 -3.547,11.684 -7.578,23.188 -11.207,34.84"
         style="fill:#e6c60d;fill-opacity:1;fill-rule:nonzero;stroke:none"
         id="path20" /><path
         d="M 310.523,105.617 9.47656,105.609 H 310.52 Z"
         style="fill:#357e38;fill-opacity:1;fill-rule:evenodd;stroke:none"
         id="path22" /><path
         d="M 28.0313,69.6641 C 56.8633,27.6094 105.176,-0.0507813 160,-0.0507813 c 54.824,0 103.137,27.6562813 131.969,69.7148813 H 28.0313"
         style="fill:#357e38;fill-opacity:1;fill-rule:evenodd;stroke:none"
         id="path24" /><path
         d="m 291.969,250.332 c -28.832,42.063 -77.145,69.719 -131.969,69.719 -54.824,0 -103.1367,-27.66 -131.9687,-69.719 H 291.969"
         style="fill:#357e38;fill-opacity:1;fill-rule:evenodd;stroke:none"
         id="path26" /></g></g></svg>
