<?xml version="1.0" encoding="UTF-8" standalone="no"?>
<svg
   xmlns:dc="http://purl.org/dc/elements/1.1/"
   xmlns:cc="http://creativecommons.org/ns#"
   xmlns:rdf="http://www.w3.org/1999/02/22-rdf-syntax-ns#"
   xmlns:svg="http://www.w3.org/2000/svg"
   xmlns="http://www.w3.org/2000/svg"
   version="1.1"
   id="svg2"
   xml:space="preserve"
   width="42.666668"
   height="42.666668"
   viewBox="0 0 42.666668 42.666668"><metadata
     id="metadata8"><rdf:RDF><cc:Work
         rdf:about=""><dc:format>image/svg+xml</dc:format><dc:type
           rdf:resource="http://purl.org/dc/dcmitype/StillImage" /></cc:Work></rdf:RDF></metadata><defs
     id="defs6" /><g
     id="g10"
     transform="matrix(1.3333333,0,0,-1.3333333,0,42.666667)"><g
       id="g12"
       transform="scale(0.1)"><path
         d="M 12.3477,98.1055 H 307.645 c 2.175,5.2145 4.085,10.5395 5.699,16.0155 H 6.65234 C 8.26172,108.645 10.1797,103.32 12.3477,98.1055"
         style="fill:#ffffff;fill-opacity:1;fill-rule:evenodd;stroke:none"
         id="path14" /><path
         d="M 12.4688,98.1055 C 36.6406,40.4297 93.5352,-0.152344 159.996,-0.152344 c 66.442,0 123.332,40.582044 147.527,98.257844 H 12.4688"
         style="fill:#298b3d;fill-opacity:1;fill-rule:evenodd;stroke:none"
         id="path16" /><path
         d="m 313.328,114.121 c 4.32,14.484 6.672,29.824 6.672,45.719 0,15.961 -2.375,31.371 -6.73,45.926 H 6.72656 C 2.37109,191.211 0,175.801 0,159.84 0,143.945 2.34766,128.605 6.66406,114.121 H 313.328"
         style="fill:#dc1e25;fill-opacity:1;fill-rule:evenodd;stroke:none"
         id="path18" /><path
         d="M 6.69531,205.766 H 313.305 c -1.641,5.468 -3.555,10.808 -5.754,16.007 H 12.4492 C 10.2383,216.574 8.32422,211.234 6.69531,205.766"
         style="fill:#ffffff;fill-opacity:1;fill-rule:evenodd;stroke:none"
         id="path20" /><path
         d="M 307.441,221.773 C 283.203,279.348 226.359,319.84 159.996,319.84 93.6094,319.84 36.7656,279.348 12.5469,221.773 H 307.441"
         style="fill:#100f0d;fill-opacity:1;fill-rule:evenodd;stroke:none"
         id="path22" /><path
         d="M 27.1641,248.598 H 26.875 C 9.90625,223.199 0,192.684 0,159.844 0,127.09 9.85938,96.6484 26.7461,71.2891 h 0.418 v 0.3086 C 71.4453,101.109 115.711,130.621 160.043,160.09 115.738,189.555 71.4453,219.078 27.1641,248.598"
         style="fill:#2f48a4;fill-opacity:1;fill-rule:nonzero;stroke:none"
         id="path24" /><path
         d="m 35.1172,194.105 c 6.8203,-5.964 13.5156,-12.207 20.3359,-18.171 7.9414,4.57 15.918,9.027 23.7696,13.562 -3.7305,-8.308 -7.5586,-16.473 -11.293,-24.687 6.5469,-5.934 13.1523,-11.789 19.5898,-17.727 -8.8281,0.914 -17.7187,1.906 -26.6523,2.719 -3.6797,-8.043 -7.3125,-16.031 -11.1016,-24.02 -1.8828,8.629 -3.6367,17.16 -5.5742,25.735 -8.9101,1.007 -17.7969,1.812 -26.6719,2.816 7.6719,4.5 15.6016,8.762 23.2696,13.34 -1.9063,8.769 -3.7696,17.672 -5.6719,26.433"
         style="fill:#f6de07;fill-opacity:1;fill-rule:nonzero;stroke:none"
         id="path26" /></g></g></svg>
