<?xml version="1.0" encoding="UTF-8" standalone="no"?>
<svg
   xmlns:dc="http://purl.org/dc/elements/1.1/"
   xmlns:cc="http://creativecommons.org/ns#"
   xmlns:rdf="http://www.w3.org/1999/02/22-rdf-syntax-ns#"
   xmlns:svg="http://www.w3.org/2000/svg"
   xmlns="http://www.w3.org/2000/svg"
   version="1.1"
   id="svg2"
   xml:space="preserve"
   width="42.666668"
   height="42.666668"
   viewBox="0 0 42.666668 42.666668"><metadata
     id="metadata8"><rdf:RDF><cc:Work
         rdf:about=""><dc:format>image/svg+xml</dc:format><dc:type
           rdf:resource="http://purl.org/dc/dcmitype/StillImage" /></cc:Work></rdf:RDF></metadata><defs
     id="defs6" /><g
     id="g10"
     transform="matrix(1.3333333,0,0,-1.3333333,0,42.666667)"><g
       id="g12"
       transform="scale(0.1)"><path
         d="M 0,159.855 C 0,136.301 5.07422,113.922 14.2383,93.793 H 305.781 c 9.121,20.129 14.219,42.508 14.219,66.062 0,23.532 -5.098,45.911 -14.219,66.04 H 14.2383 C 5.07422,205.766 0,183.387 0,159.855"
         style="fill:#facc07;fill-opacity:1;fill-rule:evenodd;stroke:none"
         id="path14" /><path
         d="M 14.2578,93.793 C 39.4063,38.3906 95.1953,-0.160156 159.996,-0.160156 c 64.789,0 120.582,38.550756 145.738,93.953156 H 14.2578"
         style="fill:#33b240;fill-opacity:1;fill-rule:evenodd;stroke:none"
         id="path16" /><path
         d="m 305.738,225.895 c -25.152,55.39 -80.949,93.953 -145.742,93.953 -64.8046,0 -120.5976,-38.563 -145.7421,-93.953 H 305.738"
         style="fill:#33b240;fill-opacity:1;fill-rule:evenodd;stroke:none"
         id="path18" /><path
         d="m 149.082,166.621 c 2.602,7.063 4.633,14.317 7.16,21.352 2.371,-7.075 4.656,-14.18 6.953,-21.301 7.547,-0.133 15.059,-0.094 22.555,-0.094 -5.996,-4.535 -12.191,-8.805 -18.172,-13.43 2.317,-7.144 4.61,-14.289 6.871,-21.425 -6.082,4.379 -12.101,8.886 -18.289,13.207 -6.043,-4.36 -12.004,-8.809 -18.129,-13.047 2.117,7.183 4.68,14.219 6.762,21.441 -6.016,4.41 -12.109,8.746 -18.035,13.254 7.406,0 14.875,0.043 22.324,0.043"
         style="fill:#100f0d;fill-opacity:1;fill-rule:nonzero;stroke:none"
         id="path20" /><path
         d="m 250.363,166.621 c 2.559,7.063 4.606,14.317 7.145,21.352 2.387,-7.075 4.656,-14.18 6.949,-21.301 7.543,-0.133 15.039,-0.094 22.555,-0.094 -5.977,-4.535 -12.196,-8.805 -18.176,-13.43 2.309,-7.144 4.625,-14.289 6.871,-21.425 -6.09,4.379 -12.109,8.886 -18.285,13.207 -6.051,-4.36 -12.024,-8.809 -18.129,-13.047 2.098,7.183 4.687,14.219 6.758,21.441 -6.024,4.41 -12.106,8.746 -18.035,13.254 7.406,0 14.875,0.043 22.347,0.043"
         style="fill:#100f0d;fill-opacity:1;fill-rule:nonzero;stroke:none"
         id="path22" /><path
         d="M 27.1641,248.852 H 27.0273 C 9.98047,223.406 0,192.781 0,159.855 0,127.207 9.79688,96.8555 26.5586,71.5547 h 0.1289 l 67.082,88.7853 -66.6054,88.512"
         style="fill:#d41b34;fill-opacity:1;fill-rule:nonzero;stroke:none"
         id="path24" /></g></g></svg>
