<?xml version="1.0" encoding="UTF-8" standalone="no"?>
<svg
   xmlns:dc="http://purl.org/dc/elements/1.1/"
   xmlns:cc="http://creativecommons.org/ns#"
   xmlns:rdf="http://www.w3.org/1999/02/22-rdf-syntax-ns#"
   xmlns:svg="http://www.w3.org/2000/svg"
   xmlns="http://www.w3.org/2000/svg"
   version="1.1"
   id="svg2"
   xml:space="preserve"
   width="42.666668"
   height="42.666668"
   viewBox="0 0 42.666668 42.666668"><metadata
     id="metadata8"><rdf:RDF><cc:Work
         rdf:about=""><dc:format>image/svg+xml</dc:format><dc:type
           rdf:resource="http://purl.org/dc/dcmitype/StillImage" /></cc:Work></rdf:RDF></metadata><defs
     id="defs6" /><g
     id="g10"
     transform="matrix(1.3333333,0,0,-1.3333333,0,42.666667)"><g
       id="g12"
       transform="scale(0.1)"><path
         d="M 26.6914,71.6445 C 71.125,101.273 115.559,130.898 160.066,160.461 115.75,189.965 71.4531,219.469 27.1602,248.992 10.0117,223.512 0,192.879 0,159.969 0,127.359 9.83203,97.0039 26.6914,71.6445"
         style="fill:#ffffff;fill-opacity:1;fill-rule:nonzero;stroke:none"
         id="path14" /><path
         d="m 319.988,160.32 c -0.265,87.918 -72.039,159.551 -159.992,159.551 -55.223,0 -104.0663,-28.254 -132.8358,-71.019 44.2929,-29.524 88.5898,-59.032 132.9058,-88.532 53.313,0 106.614,0 159.922,0"
         style="fill:#dd1e25;fill-opacity:1;fill-rule:nonzero;stroke:none"
         id="path16" /><path
         d="M 26.6914,71.5039 C 55.3906,28.3477 104.465,-0.1875 159.996,-0.1875 248.129,-0.1875 320,71.6875 320,159.824 l -0.012,0.496 c -53.308,0 -106.609,0 -159.922,0 C 115.559,130.758 71.125,101.129 26.6914,71.5039"
         style="fill:#293781;fill-opacity:1;fill-rule:nonzero;stroke:none"
         id="path18" /><path
         d="m 68.8398,180.832 0.0352,1.297 c 0,0 -0.6953,1.105 0.1094,2.297 0,0 -1.711,0.906 -1.3125,2.324 0,0 -1.5508,0.398 -1.4375,2.102 0,0 -1.6719,0.117 -1.8477,1.543 0,0 -1.6719,-0.278 -2.4062,1.113 0,0 -1.6328,-0.32 -2.0938,0.824 0,0 -1.5859,-0.551 -2.5273,0.793 0,0 -1.6758,-0.676 -2.3789,0.594 -0.6914,-1.266 -2.3672,-0.594 -2.3672,-0.594 -0.9297,-1.34 -2.5274,-0.781 -2.5274,-0.781 -0.4453,-1.153 -2.0742,-0.824 -2.0742,-0.824 -0.7344,-1.387 -2.4062,-1.114 -2.4062,-1.114 -0.1641,-1.418 -1.8321,-1.535 -1.8321,-1.535 0.1329,-1.711 -1.4179,-2.098 -1.4179,-2.098 0.4101,-1.418 -1.3008,-2.324 -1.3008,-2.324 0.8242,-1.195 0.1367,-2.297 0.1367,-2.297 l -0.0391,-1.191 27.6915,-0.129"
         style="fill:#efee0e;fill-opacity:1;fill-rule:nonzero;stroke:none"
         id="path20" /><path
         d="m 68.8398,180.832 0.0352,1.297 c 0,0 -0.6953,1.105 0.1094,2.297 0,0 -1.711,0.906 -1.3125,2.324 0,0 -1.5508,0.398 -1.4375,2.102 0,0 -1.6719,0.117 -1.8477,1.543 0,0 -1.6719,-0.278 -2.4062,1.113 0,0 -1.6328,-0.32 -2.0938,0.824 0,0 -1.5859,-0.551 -2.5273,0.793 0,0 -1.6758,-0.676 -2.3789,0.594 -0.6914,-1.266 -2.3672,-0.594 -2.3672,-0.594 -0.9297,-1.34 -2.5274,-0.781 -2.5274,-0.781 -0.4453,-1.153 -2.0742,-0.824 -2.0742,-0.824 -0.7344,-1.387 -2.4062,-1.114 -2.4062,-1.114 -0.1641,-1.418 -1.8321,-1.535 -1.8321,-1.535 0.1329,-1.711 -1.4179,-2.098 -1.4179,-2.098 0.4101,-1.418 -1.3008,-2.324 -1.3008,-2.324 0.8242,-1.195 0.1367,-2.297 0.1367,-2.297 l -0.0391,-1.191 27.6915,-0.129 h -0.004 v 0"
         style="fill:#f4d909;fill-opacity:1;fill-rule:nonzero;stroke:none"
         id="path22" /><path
         d="m 74.6914,158.523 v 0 m -6.5,23.926 c -4.3476,0.434 -9.3555,1.465 -13.2226,-0.711 -2.5899,1.528 -6.1993,1.438 -9.2735,1.137 -1.668,-0.301 -3.6289,-0.301 -5.375,-0.586 l -0.2734,-0.035 c -3.1641,-0.211 -6.0352,0.723 -8.7813,1.953 0.8711,-4.957 1.8399,-10.035 2.3164,-15.223 1.0391,-7.679 -3.6367,-14.132 -1.7187,-21.722 1.1445,-3.641 5.1484,-5.758 8.8164,-6.176 3.5469,-0.211 7.2226,-0.793 10.5039,-1.508 l 1.7969,-0.605 c 0.9062,-0.379 1.5703,-0.934 2.1523,-1.528 1.9805,2.067 4.8867,2.641 7.7539,2.942 5.168,0.605 11.5391,0.277 14.7031,4.957 v 0.265 c 1.7188,2.586 1.4922,6.539 0.7461,9.469 -0.0507,1.027 -0.3242,1.93 -0.4726,2.902 -3.1563,8.34 -0.4531,17.715 0.9062,26.118 -1.6601,-0.907 -3.5117,-1.336 -5.3554,-1.789 -1.4727,-0.196 -3.1133,-0.106 -4.6055,-0.028 l -0.6172,0.168"
         style="fill:#dd1e25;fill-opacity:1;fill-rule:nonzero;stroke:none"
         id="path24" /><path
         d="m 74.6914,158.523 0.3828,-1.488 c 0.6016,-3.644 1.1875,-8.472 -2.5664,-10.734 -4.1523,-2.641 -9.5937,-1.508 -14.3984,-2.906 -0.9571,-0.266 -2.2813,-1.149 -2.9571,-1.774 l -1.4257,0.981 c -3.9532,2.101 -9.0899,1.398 -13.5508,2.535 -2.2422,0.707 -4.5781,2.453 -5.1445,4.746 -1.461,6.015 2.0351,11.144 1.621,17.113 -0.2656,4.559 -1.0312,8.934 -2.0859,13.207 3.4883,-1.625 7.5274,-1.894 11.4453,-1.117 2.9063,0.406 6.2852,0.414 9.0078,-0.813 1.5,0.645 3.2539,0.934 4.8711,1.114 3.0742,-0.301 6.375,-0.856 9.5391,-0.832 2.1133,0.109 4.0351,0.718 5.8711,1.531 -1.0899,-7.063 -3.1836,-14.461 -0.6133,-21.563"
         style="fill:#6fb1e4;fill-opacity:1;fill-rule:nonzero;stroke:none"
         id="path26" /><path
         d="m 68.4141,157.113 -0.0313,6.641 h 0.8164 l -10.1523,6.559 -0.0196,3.406 h 0.9805 l -5.0742,3.636 -5.0547,-3.632 h 0.9805 l 0.0156,-3.407 -10.0977,-6.546 0.8086,-0.004 0.0352,-6.637 26.793,-0.02"
         style="fill:#ffffff;fill-opacity:1;fill-rule:nonzero;stroke:none"
         id="path28" /><path
         d="m 41.7109,157.219 26.6133,-0.016 -0.0351,6.645 h 0.5976 l -9.9336,6.414 -0.0195,3.551 h 0.7852 l -4.7852,3.429 -4.7656,-3.426 h 0.7812 l 0.0196,-3.55 -0.043,-0.028 -9.836,-6.379 0.5899,-0.004 z m 26.7032,-0.203 -26.8868,0.019 -0.0351,6.637 -1.0234,0.008 10.3164,6.687 -0.0196,3.262 h -1.1718 l 5.3398,3.84 5.3633,-3.84 h -1.1758 l 0.0195,-3.266 10.375,-6.703 h -1.039 l 0.0312,-6.64 -0.0937,-0.004"
         style="fill:#100f0d;fill-opacity:1;fill-rule:nonzero;stroke:none"
         id="path30" /><path
         d="m 71.5352,148.391 0.0039,-2.078 -32.711,0.035 -0.0117,2.066 32.7227,-0.023"
         style="fill:#ffffff;fill-opacity:1;fill-rule:nonzero;stroke:none"
         id="path32" /><path
         d="m 38.9219,146.441 32.5234,-0.039 v 1.895 l -32.5351,0.027 z m 32.7109,-0.222 h -0.0937 l -32.8008,0.035 -0.0156,2.258 h 0.0937 l 32.8125,-0.032 0.0039,-2.261"
         style="fill:#100f0d;fill-opacity:1;fill-rule:nonzero;stroke:none"
         id="path34" /><path
         d="m 41.0039,148.516 -0.0273,7.031 1.3242,0.004 -0.0742,-7.117 0.0781,7.058 -1.9063,0.055 v 1.512 l 29.2344,-0.036 0.0117,-1.492 h -1.8007 l 0.0312,-7.125 -0.0625,7.125 h 1.3438 l 0.0273,-7.043"
         style="fill:#ffffff;fill-opacity:1;fill-rule:nonzero;stroke:none"
         id="path36" /><path
         d="m 44.4805,159.363 1.6133,-0.004 -0.0157,2.657 h -1.6054 z m 1.7968,-0.191 -1.9843,0.004 -0.0078,3.027 h 1.9804 z m 5.3086,0.187 1.6094,-0.007 -0.0117,2.66 h -1.6055 z m 1.7969,-0.195 -1.9844,0.008 -0.0078,3.027 h 1.9805 z m 3.6797,0.18 h 1.6094 l -0.0078,2.664 h -1.6172 z m 1.7969,-0.188 H 56.875 l -0.0117,2.946 h 0.0898 v 0.089 h 1.8946 z m 4.8125,0.184 h 1.6094 V 162 h -1.6172 z m 1.7969,-0.188 h -1.9805 l -0.0117,3.032 h 1.9882 z m -22.0469,-0.82 h 3.7383 l -0.0235,4.707 -3.7344,0.008 z m 3.832,-0.184 h -4.0195 l -0.0196,5.082 4.1055,-0.003 0.0274,-4.989 h -0.0938 z m 3.2734,0.172 h 3.7383 l -0.0195,4.711 -3.7344,0.004 z m 3.8321,-0.183 h -4.0156 l -0.0196,5.086 4.1094,-0.004 0.0195,-4.989 -0.0937,-0.003 z M 56,158.32 l 3.7422,-0.007 -0.0274,4.718 -3.7343,0.004 z m 3.832,-0.191 -4.0195,0.008 -0.0195,5.086 4.1054,-0.004 0.0274,-5 h -0.0899 z m 2.7813,0.184 h 3.7383 l -0.0196,4.718 h -3.7304 z m 3.8359,-0.188 h -4.0195 l -0.0156,5.094 h 4.1015 l 0.0235,-5 h -0.0899 z m -21.9336,-6.754 h 1.6094 l -0.0078,2.664 h -1.6133 z m 1.7969,-0.183 h -1.9844 l -0.0117,3.035 h 1.9844 z m 17.3984,0.175 h 1.6094 l -0.0156,2.653 h -1.6133 z m 1.7969,-0.187 h -1.9805 l -0.0195,3.027 h 1.9844 z m -22.0508,-0.832 3.7383,-0.004 -0.0234,4.719 h -3.7383 z m 3.9219,-0.192 -4.1055,0.004 -0.0234,5.086 h 4.1094 z m 15.2734,0.172 h 3.7305 l -0.0234,4.715 -3.7227,0.008 z m 3.918,-0.183 h -4.1015 l -0.0196,5.089 4.0977,-0.003 z m 1.211,-1.735 v 0 l -0.0625,7.215 h 1.832 l -0.0117,1.313 -29.0469,0.031 v -1.328 l 0.3906,-0.008 v 0.012 l 1.5117,0.004 v -0.059 h 0.0039 l -0.0781,-7.152 -0.1875,0.004 0.0742,6.964 -1.1406,0.036 0.0274,-6.922 h -0.1836 l -0.0274,6.925 -0.5781,0.016 v 1.691 h 0.0937 l 29.3243,-0.031 0.0156,-1.679 h -0.4922 l 0.0312,-6.95 h -0.1875 l -0.0273,6.95 h -1.1289 l 0.0352,-7.032 h -0.1875"
         style="fill:#100f0d;fill-opacity:1;fill-rule:nonzero;stroke:none"
         id="path38" /><path
         d="m 60.8047,159.723 0.043,-11.305 -11.3594,0.016 -0.0391,11.3 11.3516,-0.011"
         style="fill:#ffffff;fill-opacity:1;fill-rule:nonzero;stroke:none"
         id="path40" /><path
         d="m 52.0234,170.328 5.8594,-0.004 -0.0078,2.664 -5.8594,0.004 z m 6.0469,-0.187 -6.2305,0.004 -0.0117,3.035 6.2305,-0.004 z m -12.7656,-5.493 19.3594,-0.015 -6.1407,4.484 -7.125,0.008 z m 19.6484,-0.203 -20.2148,0.02 6.5976,4.848 7.25,-0.012 6.4219,-4.688 -0.0547,-0.074 z m -15.4023,-7.855 11.1719,-0.012 -0.0118,3.055 -11.1679,0.008 z m 0.0312,-8.063 h 1.1328 l -0.039,7.875 h -1.1211 z m 1.3164,0 8.4766,-0.015 -0.0391,7.883 -8.4765,0.007 z m 8.6602,-0.015 h 1.1953 l -0.0312,7.883 h -1.2032 z m 1.3828,-0.188 h -0.0937 l -11.4493,0.02 -0.0429,11.48 11.539,-0.008 0.0039,-0.093 0.043,-11.399"
         style="fill:#100f0d;fill-opacity:1;fill-rule:nonzero;stroke:none"
         id="path42" /><path
         d="m 52.0234,170.328 5.8594,-0.004 -0.0078,2.664 -5.8594,0.004 z m 6.0469,-0.187 -6.2305,0.004 -0.0117,3.035 6.2305,-0.004 0.0117,-3.035"
         style="fill:#100f0d;fill-opacity:1;fill-rule:nonzero;stroke:none"
         id="path44" /><path
         d="m 51.8867,174.051 6.1172,-0.008 -3.0703,2.172 z m 6.7031,-0.196 -7.2851,0.012 3.5742,2.535 0.0547,-0.074 0.0547,0.074 z m -4.9296,-2.804 H 56.25 l -0.0039,1.234 h -2.5938 z m 2.7773,-0.184 h -2.9609 l -0.0118,1.606 h 2.9649 l 0.0078,-1.606"
         style="fill:#100f0d;fill-opacity:1;fill-rule:nonzero;stroke:none"
         id="path46" /><path
         d="m 68.5273,177.938 c 0.9571,0.023 1.2032,-3.934 1.2032,-5.895 0.8203,-0.23 2.6406,-1.371 3.4453,-2.406 l -9.2266,0.011 c 0.793,1.024 2.5977,2.172 3.4102,2.399 0,1.965 0.2031,5.918 1.1679,5.894"
         style="fill:#ffffff;fill-opacity:1;fill-rule:nonzero;stroke:none"
         id="path48" /><path
         d="m 64.1445,169.742 8.836,-0.012 c -0.8594,0.993 -2.5313,2.016 -3.2735,2.223 l -0.0703,0.02 v 0.07 c 0,1.676 -0.1875,5.02 -0.8828,5.699 l -0.2226,0.102 -0.004,0.097 v -0.093 l -0.2265,-0.102 c -0.668,-0.652 -0.8477,-3.887 -0.8477,-5.699 v -0.07 l -0.0664,-0.016 c -0.7344,-0.207 -2.3906,-1.231 -3.2422,-2.219 z m 9.2227,-0.199 -9.6094,0.012 0.1172,0.152 c 0.8008,1.031 2.5664,2.145 3.3945,2.41 0,0.965 0.0625,4.946 0.8985,5.762 l 0.3633,0.156 v -0.004 h 0.0039 l 0.3476,-0.156 0.9414,-5.762 c 0.836,-0.265 2.6172,-1.383 3.4258,-2.422 z M 50.1484,157.547 h 0.4844 l -0.168,0.32 0.0313,0.047 -0.0039,0.992 -0.0391,0.047 0.1953,0.36 h -0.5117 l 0.2031,-0.368 -0.0468,-0.047 -0.0117,-1.003 0.0312,-0.051 z m 0.793,-0.188 H 49.832 l 0.2696,0.481 0.0117,1.137 -0.293,0.523 h 1.1445 l -0.2929,-0.531 0.0078,-1.11 z m 0.8906,0.188 h 0.4844 l -0.168,0.32 0.0313,0.047 0.0039,0.988 -0.0391,0.051 0.1953,0.36 h -0.5156 l 0.1992,-0.368 -0.0468,-0.047 -0.0118,-1.003 0.0313,-0.051 z m 0.793,-0.188 h -1.1055 l 0.2657,0.481 0.0117,1.137 -0.211,0.386 0.0821,0.043 v 0.094 h 0.9804 l -0.2851,-0.531 v -1.114 z m 3.125,0.176 h 0.4922 l -0.1758,0.328 0.0313,0.047 v 0.985 l -0.0391,0.05 0.1992,0.364 h -0.5156 l 0.207,-0.371 -0.0469,-0.051 -0.0156,-1 0.0274,-0.055 z m 0.8008,-0.183 h -1.1133 l 0.2656,0.48 0.0196,1.133 -0.2188,0.39 0.0781,0.047 v 0.094 h 0.9883 l -0.293,-0.539 0.004,-1.102 z m 1.043,0.183 h 0.4843 l -0.1718,0.332 0.0312,0.047 v 0.981 l -0.0391,0.05 0.1993,0.364 h -0.5118 l 0.2071,-0.371 -0.0508,-0.051 -0.0195,-1 0.0273,-0.051 z m 0.7929,-0.183 h -1.1054 l 0.2578,0.48 0.0234,1.133 -0.293,0.531 h 1.1407 l -0.293,-0.539 0.0039,-1.102 z m 1.0352,0.183 h 0.4922 l -0.1641,0.332 0.0313,0.043 -0.0079,0.985 -0.039,0.046 0.1992,0.368 -0.5117,-0.004 0.1992,-0.367 -0.0469,-0.051 -0.0156,-1 0.0273,-0.055 z m 0.7929,-0.183 h -1.1054 l 0.2656,0.48 0.0195,1.133 -0.289,0.523 1.1406,0.008 -0.293,-0.539 0.0117,-1.105 z m -6.5429,0.195 0.4844,-0.008 -0.1719,0.328 0.0312,0.047 -0.0039,0.992 -0.039,0.047 0.1992,0.36 h -0.5117 l 0.1992,-0.368 -0.0469,-0.047 -0.0078,-1.003 0.0312,-0.051 z m 0.789,-0.195 -1.0976,0.011 0.2617,0.477 0.0078,1.137 -0.2851,0.523 h 1.1406 l -0.293,-0.531 0.0039,-1.114 0.2617,-0.503"
         style="fill:#100f0d;fill-opacity:1;fill-rule:nonzero;stroke:none"
         id="path50" /><path
         d="m 55.1797,133.926 c 4.2539,-0.016 9.4844,0.851 11.9375,2.121 l 5.3828,0.476 0.1055,-6.566 c -4.5586,-2.516 -15.086,-3.055 -17.4024,-3.035 -2.3164,-0.02 -12.9765,0.527 -17.5547,3.051 l 0.0586,6.57 5.3946,-0.484 c 2.4492,-1.262 7.8398,-2.137 12.0898,-2.137 h -0.0117"
         style="fill:#f4d909;fill-opacity:1;fill-rule:nonzero;stroke:none"
         id="path52" /><path
         d="m 23.793,161.934 4.7422,-1.512 -1.4336,-7.676 -4.4883,-0.695 c 0,0 -0.7578,4.035 1.1797,9.887"
         style="fill:#f4d909;fill-opacity:1;fill-rule:nonzero;stroke:none"
         id="path54" /><path
         d="m 27.0977,152.832 -4.4844,-0.781 2.8398,4.035 1.6446,-3.254"
         style="fill:#78797b;fill-opacity:1;fill-rule:nonzero;stroke:none"
         id="path56" /><path
         d="m 27.0977,152.832 -4.4844,-0.781 2.8398,4.035 1.6446,-3.254"
         style="fill:#f5af0c;fill-opacity:1;fill-rule:nonzero;stroke:none"
         id="path58" /><path
         d="m 20.957,156.402 4.5703,-0.332 c 0.1055,-3.871 0.5743,-18.648 18.2227,-19.449 l -0.5508,-5.379 C 21.7188,131.02 20.0859,149.367 20.957,156.402"
         style="fill:#f4d909;fill-opacity:1;fill-rule:nonzero;stroke:none"
         id="path60" /><path
         d="m 86.1953,161.879 -4.7226,-1.496 1.4961,-7.664 4.496,-0.723 c 0,0 0.7227,4.031 -1.2695,9.887"
         style="fill:#efee0e;fill-opacity:1;fill-rule:nonzero;stroke:none"
         id="path62" /><path
         d="m 86.1953,161.879 -4.7226,-1.496 1.4961,-7.664 4.496,-0.723 c 0,0 0.7227,4.031 -1.2695,9.887 v -0.004 0"
         style="fill:#f4d909;fill-opacity:1;fill-rule:nonzero;stroke:none"
         id="path64" /><path
         d="m 82.9688,152.797 4.496,-0.805 -2.875,4.035 -1.621,-3.23"
         style="fill:#78797b;fill-opacity:1;fill-rule:nonzero;stroke:none"
         id="path66" /><path
         d="m 82.9688,152.797 4.496,-0.805 -2.875,4.035 -1.621,-3.23"
         style="fill:#f5af0c;fill-opacity:1;fill-rule:nonzero;stroke:none"
         id="path68" /><path
         d="m 89.082,156.34 -4.5781,-0.313 C 84.4375,152.16 84.1016,137.375 66.4531,136.594 l 0.6016,-5.375 c 21.4766,-0.246 22.9531,18.094 22.0273,25.125"
         style="fill:#f4d909;fill-opacity:1;fill-rule:nonzero;stroke:none"
         id="path70" /><path
         d="m 38.1875,186.578 v 0 m -4.2344,-52.883 0.4141,1.243 0.9297,-0.301 0.3476,-0.164 0.0938,-0.446 -0.1406,-0.496 -0.0625,-0.234 0.0078,-0.109 0.4883,-0.161 0.0312,0.071 -0.0781,0.211 0.0586,0.254 0.1172,0.394 0.0234,0.398 -0.1992,0.27 0.4023,0.16 0.2539,0.406 -0.1992,0.817 -0.5273,0.289 -1.3946,0.43 -0.9765,-2.907 0.4101,-0.125 m 0.8633,2.559 0.9961,-0.316 0.3125,-0.161 0.0859,-0.504 -0.3007,-0.347 -0.4844,0.035 -0.9414,0.301 0.332,0.992 m -4.9219,-0.504 1.6641,2.605 1.9648,-1.195 -0.207,-0.308 -1.6133,0.968 -0.5,-0.789 1.4844,-0.902 -0.1914,-0.297 -1.4844,0.895 -0.5664,-0.883 1.6367,-0.981 -0.1992,-0.308 -1.9883,1.195 m -2.7617,2.465 0.9649,0.883 0.6875,-0.696 0.6836,-0.324 0.6289,0.277 0.3046,0.629 -0.2929,0.629 -0.9844,1.004 -2.293,-2.105 0.293,-0.301 m 2.2344,0.281 -0.4102,0.25 -0.5859,0.606 0.789,0.722 0.5899,-0.601 0.2266,-0.317 -0.168,-0.496 -0.4414,-0.164 m -5.168,4.082 2.7734,1.473 0.2969,-0.52 -1.9062,-2.011 2.7851,0.472 0.2852,-0.511 -2.7656,-1.461 -0.1954,0.339 1.6329,0.86 0.2812,0.156 0.4219,0.215 -2.7695,-0.473 -0.2032,0.36 1.8907,2.007 -0.0899,-0.046 -0.3008,-0.164 -0.3086,-0.165 -1.625,-0.871 -0.2031,0.348 m -1.3359,3.672 3.0156,0.906 0.7031,-2.121 -0.3672,-0.117 -0.5742,1.742 -0.918,-0.273 0.5313,-1.61 -0.3516,-0.113 -0.5273,1.613 -1.0195,-0.304 0.582,-1.782 -0.3594,-0.101 -0.7148,2.16 m 0.1953,4.039 0.0703,-0.383 -0.4063,-0.191 -0.1796,-0.766 0.1445,-0.402 0.5391,-0.289 0.3281,0.211 0.0976,0.523 0.0235,0.43 0.1015,0.594 0.5313,0.382 0.7383,-0.172 0.4062,-0.75 -0.0859,-0.843 -0.6953,-0.461 -0.0664,0.387 0.3632,0.195 0.125,0.68 -0.2539,0.484 -0.3867,0.105 -0.3008,-0.242 -0.0742,-0.57 -0.0195,-0.445 -0.1172,-0.504 -0.5742,-0.395 -0.8086,0.242 -0.3789,0.809 0.1367,0.93 0.7422,0.437 m 63.8906,-0.18 0.0352,0.387 0.4453,0.082 0.3867,0.692 -0.0313,0.429 -0.4375,0.422 -0.3828,-0.117 -0.2304,-0.481 -0.1407,-0.402 -0.2656,-0.551 -0.6133,-0.238 -0.6718,0.356 -0.1914,0.824 0.3164,0.797 0.789,0.254 -0.0312,-0.391 -0.4024,-0.098 -0.3047,-0.605 0.1016,-0.551 0.3594,-0.188 0.3515,0.153 0.2266,0.531 0.1367,0.426 0.2461,0.453 0.6758,0.23 0.7109,-0.433 0.1407,-0.883 -0.3829,-0.859 -0.8398,-0.243 m 0.2461,-3.91 -3.082,0.68 0.1015,0.477 2.8477,0.961 -2.5,0.55 0.0898,0.375 3.0821,-0.664 -0.0977,-0.461 -2.8516,-0.98 2.5,-0.543 -0.0859,-0.395 m -1.3477,-3.597 -2.9296,1.172 0.8632,2.058 0.3555,-0.137 -0.7031,-1.695 0.8828,-0.348 0.6562,1.567 0.3399,-0.141 -0.6524,-1.562 0.9844,-0.403 0.7227,1.719 0.3594,-0.133 -0.8829,-2.097 m -1.0625,-1.852 -2.7109,1.594 0.2188,0.351 2.7187,-1.586 -0.2227,-0.363 m -1.8281,-2.371 0.2266,1.289 -0.5625,0.727 -1.0078,0.457 -1.0157,-0.43 -0.8554,-0.914 2.3594,-2.055 0.8515,0.918 m -2.6445,1.203 0.5,0.551 0.7461,0.328 0.8359,-0.422 0.2227,-0.23 0.2539,-0.457 -0.0352,-0.508 -0.207,-0.285 -0.5039,-0.547 -1.8125,1.574 m -1.5313,-4.511 -1.75,2.55 1.9219,1.223 0.2109,-0.309 -1.5742,-1.003 0.5391,-0.778 1.4531,0.934 0.1992,-0.297 -1.4531,-0.938 0.5938,-0.859 1.5976,1.023 0.2149,-0.3 -1.9532,-1.246 m -3.5859,-1.52 -0.4766,1.231 0.9102,0.328 0.3789,0.074 0.3672,-0.305 0.207,-0.469 0.1133,-0.218 0.0664,-0.09 0.4922,0.18 -0.0274,0.066 -0.1953,0.121 -0.1289,0.234 -0.1601,0.383 -0.2344,0.332 -0.3281,0.086 0.2031,0.371 -0.0508,0.465 -0.6797,0.527 -0.5937,-0.101 -1.375,-0.488 1.1133,-2.883 0.4023,0.148 m -0.9844,2.543 0.9805,0.356 0.3516,0.054 0.3867,-0.336 -0.0078,-0.453 -0.4102,-0.269 -0.918,-0.332 -0.3828,0.98 m -3.0937,-0.238 0.7812,-0.043 0.7188,-0.746 -0.4219,-0.063 -0.3984,0.434 -0.6289,0.059 -0.6797,-0.418 -0.1367,-0.993 0.3945,-0.836 0.8515,-0.218 0.6602,0.347 0.1563,0.813 -0.9844,-0.149 -0.0508,0.336 1.3711,0.211 0.2656,-1.621 -0.2734,-0.043 -0.168,0.375 -0.3281,-0.375 -0.6797,-0.258 -1.0117,0.207 -0.6367,1.129 0.2265,1.274 0.9727,0.582 m -14.3946,-4.41 -0.2539,-1.078 0.4375,-1.122 1.1719,-0.402 1.1719,0.582 0.293,1.172 -0.375,1.008 -1.2696,0.469 -1.1758,-0.629 m 0.5,-1.926 -0.3085,0.848 0.2539,0.968 0.7812,0.368 0.8086,-0.297 0.3477,-0.848 -0.2071,-0.91 -0.7929,-0.434 -0.8829,0.305 m -3.25,-0.645 0.0079,1.305 0.9765,-0.012 0.3906,-0.058 0.2188,-0.395 0.0234,-0.515 0.0196,-0.246 0.0351,-0.106 h 0.5274 l -0.0118,0.066 -0.125,0.188 -0.0312,0.262 -0.0117,0.406 -0.1094,0.383 -0.2734,0.195 0.332,0.277 0.1172,0.461 -0.4375,0.719 -0.5938,0.113 -1.4648,0.012 -0.0117,-3.062 h 0.4218 m 0.0157,2.714 1.039,-0.011 0.3594,-0.071 0.2344,-0.445 -0.1758,-0.426 -0.4687,-0.109 -1,0.012 0.0117,1.05 m 0,0 1.039,-0.011 m -1.039,0.011 1.039,-0.011 m -1.039,0.011 1.039,-0.011 m -1.039,0.011 1.039,-0.011 m -4.1289,-2.543 0.086,1.297 0.9922,-0.067 0.7226,0.223 0.2656,0.605 -0.2109,0.668 -0.6641,0.27 -1.4179,0.09 -0.1953,-3.055 0.4218,-0.027 m 1.4336,1.672 -0.4726,-0.09 -0.8516,0.043 0.0703,1.066 0.8477,-0.047 0.3789,-0.094 0.2304,-0.48 -0.2031,-0.398"
         style="fill:#293781;fill-opacity:1;fill-rule:nonzero;stroke:none"
         id="path72" /><path
         d="m 38.1875,186.578 c 0.3594,0.867 3.6953,3.238 14.6484,2.199 0,0 1.8516,-1.129 2.9375,-0.984 l -1.1718,0.633 c -0.8282,0.672 -1.0039,2.051 0.8828,2.015 1.875,-0.046 8.8984,-0.445 9.0312,-1.074 0.125,-0.64 -3.7148,-0.906 -5.1406,-0.871 -1.4336,0.039 -1.2656,-0.683 0.1602,-0.629 4.457,0.16 9.3242,1.731 14.4648,-1.906 0.6133,-0.441 -1.5508,-0.512 -3.2227,0.199 0,0 -4.5351,-0.234 -6.496,0.086 0,0 -1.504,-1.226 -3.4688,-1.105 0.2578,-0.637 -0.7227,-3.008 -6.8945,-1.223 -1.0196,-0.313 -4.7305,-0.934 -4.3282,0.168 -0.9765,0 -2.6914,-0.316 -2.9453,0.242 l 3.5899,1.965 c 0,0 -6.9063,-0.066 -8.2149,0.41 l -3.832,-0.117"
         style="fill:#bb6155;fill-opacity:1;fill-rule:nonzero;stroke:none"
         id="path74" /><path
         d="m 40.4023,176.91 0.5196,0.551 1.9922,-0.621 0.6562,-0.387 1.1328,0.094 c 0.8907,0.394 1.9961,0.488 3.0508,0.293 l -1.1719,-1.82 0.625,-1.817 -0.4101,-0.75 -1.3906,0.418 -0.1954,0.117 0.4493,-0.691 -1.0079,-0.043 -0.2539,-0.707 -0.7968,0.726 0.2617,-0.714 -1.043,-2.364 -0.6055,-0.3 -0.1679,1.609 -1.1563,-1.574 -1.1015,1.515 0.4414,2.032 -0.9219,0.8 c -0.957,0.625 -1.4883,-1.093 -2.1094,-0.199 l 0.6446,2.492 -0.8477,0.45 c -0.6016,0.511 -1.4727,1.054 -1.4297,1.98 1.6524,0.625 3.6289,0.164 4.8281,-1.09"
         style="fill:#28893d;fill-opacity:1;fill-rule:nonzero;stroke:none"
         id="path76" /><path
         d="m 40.7578,175.285 0.1758,-0.832 1.0508,-0.074 0.0625,-0.524 -1.5156,0.11 -0.1211,-0.141 0.2968,-0.91 -1.1172,0.289 -0.1132,0.785 -0.7422,-0.429 -0.25,0.832 1.2578,0.234 0.293,1.078 0.7226,-0.418 m 2.543,1.098 v 0 l 0.1172,-0.453 0.6562,-0.215 -0.1328,-0.367 -0.3867,0.07 -0.1445,0.195 -0.3985,-0.168 0.2617,-0.414 -0.5898,0.09 -0.207,0.527 -0.5157,-0.316 -0.1328,0.57 0.6055,-0.066 0.8711,0.547 m -2.0469,0.621 0.918,-0.664 -0.8633,-0.164 -0.1953,-0.188 0.1055,-0.578 -0.5704,0.469 -0.0742,0.266 -0.664,-0.196 -0.0703,0.449 0.8671,0.122 0.0899,0.632 0.457,-0.148"
         style="fill:#f4d909;fill-opacity:1;fill-rule:nonzero;stroke:none"
         id="path78" /><path
         d="m 43.9219,174.191 v 0 l -0.5313,0.579 0.1524,0.136 0.3789,-0.715 m -1.7735,0.825 -1.0039,0.07 1.0039,-0.07"
         style="fill:#ffffff;fill-opacity:1;fill-rule:nonzero;stroke:none"
         id="path80" /><path
         d="m 43.3828,174.344 0.0625,-0.664 0.2735,0.246 0.7773,-0.395 -0.6797,-0.699 -0.3164,0.016 -0.1914,0.328 -0.3477,-0.133 0.0586,-0.945 -0.9257,0.398 -0.1797,0.77 -0.8672,-0.407 0.0586,0.567 1.2109,0.422 0.0938,1.015 0.9726,-0.519"
         style="fill:#f4d909;fill-opacity:1;fill-rule:nonzero;stroke:none"
         id="path82" /><path
         d="m 43.0469,173.492 -0.3516,-0.437 -0.4648,0.199 0.3554,0.508 0.461,-0.27"
         style="fill:#100f0d;fill-opacity:1;fill-rule:nonzero;stroke:none"
         id="path84" /><path
         d="m 42.7695,173.309 -0.1953,-0.063 -0.0703,0.34 0.2656,-0.277"
         style="fill:#ffffff;fill-opacity:1;fill-rule:nonzero;stroke:none"
         id="path86" /></g></g></svg>
