<?xml version="1.0" encoding="UTF-8" standalone="no"?>
<svg
   xmlns:dc="http://purl.org/dc/elements/1.1/"
   xmlns:cc="http://creativecommons.org/ns#"
   xmlns:rdf="http://www.w3.org/1999/02/22-rdf-syntax-ns#"
   xmlns:svg="http://www.w3.org/2000/svg"
   xmlns="http://www.w3.org/2000/svg"
   version="1.1"
   id="svg2"
   xml:space="preserve"
   width="42.666668"
   height="42.666668"
   viewBox="0 0 42.666668 42.666668"><metadata
     id="metadata8"><rdf:RDF><cc:Work
         rdf:about=""><dc:format>image/svg+xml</dc:format><dc:type
           rdf:resource="http://purl.org/dc/dcmitype/StillImage" /></cc:Work></rdf:RDF></metadata><defs
     id="defs6" /><g
     id="g10"
     transform="matrix(1.3333333,0,0,-1.3333333,0,42.666667)"><g
       id="g12"
       transform="scale(0.1)"><path
         d="M 9.47656,214.18 H 310.523 c 6.129,-16.996 9.477,-35.278 9.477,-54.328 0,-19.094 -3.348,-37.395 -9.477,-54.368 H 9.47656 C 3.36719,122.457 0,140.758 0,159.852 c 0,19.05 3.36719,37.332 9.47656,54.328"
         style="fill:#ffffff;fill-opacity:1;fill-rule:evenodd;stroke:none"
         id="path14" /><path
         d="M 310.523,214.18 H 9.47656 C 31.7422,275.781 90.7383,319.84 160,319.84 c 69.285,0 128.277,-44.059 150.523,-105.66"
         style="fill:#d01e27;fill-opacity:1;fill-rule:evenodd;stroke:none"
         id="path16" /><path
         d="M 9.47656,105.484 H 310.523 C 288.277,43.8828 229.285,-0.152344 160,-0.152344 90.7383,-0.152344 31.7422,43.8828 9.47656,105.484"
         style="fill:#131210;fill-opacity:1;fill-rule:evenodd;stroke:none"
         id="path18" /><path
         d="m 217.27,167.336 c 2.875,7.727 5.082,15.769 7.91,23.496 2.601,-7.769 5.121,-15.637 7.636,-23.453 8.317,-0.18 16.586,-0.09 24.848,-0.09 -6.605,-5.035 -13.434,-9.707 -20.039,-14.785 2.563,-7.863 5.078,-15.774 7.594,-23.641 -6.696,4.813 -13.348,9.797 -20.129,14.563 -6.699,-4.809 -13.258,-9.703 -20,-14.375 2.34,7.902 5.168,15.637 7.457,23.59 -6.602,4.898 -13.344,9.66 -19.856,14.648 8.18,0 16.356,0.047 24.579,0.047"
         style="fill:#237a39;fill-opacity:1;fill-rule:nonzero;stroke:none"
         id="path20" /><path
         d="m 86.9648,167.336 c 2.8243,7.727 5.0743,15.769 7.8594,23.496 2.6289,-7.769 5.125,-15.637 7.6638,-23.453 8.309,-0.18 16.551,-0.09 24.821,-0.09 -6.559,-5.035 -13.434,-9.707 -19.993,-14.785 2.52,-7.863 5.079,-15.774 7.571,-23.641 -6.719,4.813 -13.348,9.797 -20.1526,14.563 -6.6485,-4.809 -13.2539,-9.703 -19.9492,-14.375 2.3125,7.902 5.1679,15.637 7.4375,23.59 -6.6329,4.898 -13.3438,9.66 -19.8868,14.648 8.1797,0 16.4024,0.047 24.6289,0.047"
         style="fill:#237a39;fill-opacity:1;fill-rule:nonzero;stroke:none"
         id="path22" /></g></g></svg>
