<?xml version="1.0" encoding="UTF-8" standalone="no"?>
<svg
   xmlns:dc="http://purl.org/dc/elements/1.1/"
   xmlns:cc="http://creativecommons.org/ns#"
   xmlns:rdf="http://www.w3.org/1999/02/22-rdf-syntax-ns#"
   xmlns:svg="http://www.w3.org/2000/svg"
   xmlns="http://www.w3.org/2000/svg"
   version="1.1"
   id="svg2"
   xml:space="preserve"
   width="42.666668"
   height="42.666668"
   viewBox="0 0 42.666668 42.666668"><metadata
     id="metadata8"><rdf:RDF><cc:Work
         rdf:about=""><dc:format>image/svg+xml</dc:format><dc:type
           rdf:resource="http://purl.org/dc/dcmitype/StillImage" /></cc:Work></rdf:RDF></metadata><defs
     id="defs6" /><g
     id="g10"
     transform="matrix(1.3333333,0,0,-1.3333333,0,42.666667)"><g
       id="g12"
       transform="scale(0.1)"><path
         d="M 306.336,95.3438 C 315.082,115.121 320,136.949 320,159.953 c 0,23.004 -4.914,44.852 -13.656,64.617 H 13.6563 C 4.91406,204.805 0,182.957 0,159.953 0,136.949 4.91797,115.121 13.6641,95.3438 H 306.336"
         style="fill:#b01d23;fill-opacity:1;fill-rule:evenodd;stroke:none"
         id="path14" /><path
         d="M 21.4102,79.9531 C 49.0625,32.1523 100.727,-0.0078125 159.906,-0.0546875 h 0.188 C 219.258,-0.0078125 270.934,32.1523 298.59,79.9531 H 21.4102"
         style="fill:#4557b0;fill-opacity:1;fill-rule:evenodd;stroke:none"
         id="path16" /><path
         d="m 21.4102,239.961 c 27.6523,47.785 79.3168,79.961 138.4958,80.004 h 0.188 c 59.164,-0.043 110.84,-32.219 138.496,-80.004 H 21.4102"
         style="fill:#4557b0;fill-opacity:1;fill-rule:evenodd;stroke:none"
         id="path18" /><path
         d="M 306.039,95.3438 H 13.6094 c 2.3437,-5.2774 4.9179,-10.4219 7.8008,-15.3907 H 298.59 c 2.723,4.7188 5.183,9.5664 7.449,14.5782 v 0.8125"
         style="fill:#f9d805;fill-opacity:1;fill-rule:evenodd;stroke:none"
         id="path20" /><path
         d="m 306.398,224.57 c -2.343,5.282 -4.925,10.426 -7.808,15.391 H 21.4102 C 18.5273,234.996 15.9531,229.852 13.6094,224.57 H 306.398"
         style="fill:#f9d805;fill-opacity:1;fill-rule:evenodd;stroke:none"
         id="path22" /><g
         id="g24"
         transform="scale(10)"><text
           transform="matrix(1,0,0,-1,11.3629,15.077)"
           style="font-variant:normal;font-weight:100;font-size:0.710639px;font-family:LHLineSans;-inkscape-font-specification:LHLineSans-Thin;writing-mode:lr-tb;fill:#ffffff;fill-opacity:1;fill-rule:nonzero;stroke:none"
           id="text30"><tspan
             x="0 0.47612813 0.89185196 1.3260524 1.761674 2.185215 2.3472407 2.5057132 2.905803"
             y="0"
             id="tspan26">Republic </tspan><tspan
             x="-0.65117198 -0.22692052 0.03246272 0.24991825 0.51853979 0.94776577 1.3634896 1.5809451 2.0606265 2.4848778 2.9190784 3.3497255"
             y="0.85234398"
             id="tspan28">of the Congo</tspan></text></g><path
         d="m 260.848,184.199 -12.879,-4.543 12.879,-4.547 12.879,4.547 -12.879,4.543"
         style="fill:#ffffff;fill-opacity:1;fill-rule:nonzero;stroke:none"
         id="path32" /><path
         d="m 249.039,179.656 11.809,-4.168 11.804,4.168 -11.804,4.168 z m 11.809,-4.922 -0.118,0.039 -13.832,4.883 13.95,4.922 0.117,-0.043 13.832,-4.879 -13.949,-4.922"
         style="fill:#100f0d;fill-opacity:1;fill-rule:nonzero;stroke:none"
         id="path34" /><path
         d="M 66.3008,181.168 H 252.375 c 0.91,0 1.648,-0.68 1.648,-1.516 v 0 c 0,-0.836 -0.738,-1.515 -1.648,-1.515 H 66.3008 c -0.9102,0 -1.6485,0.679 -1.6485,1.515 v 0 c 0,0.836 0.7383,1.516 1.6485,1.516"
         style="fill:#f9d805;fill-opacity:1;fill-rule:nonzero;stroke:none"
         id="path36" /><path
         d="m 66.3008,180.813 c -0.711,0 -1.2891,-0.524 -1.2891,-1.161 0,-0.636 0.5781,-1.16 1.2891,-1.16 H 252.375 c 0.715,0 1.293,0.524 1.293,1.16 0,0.637 -0.578,1.161 -1.293,1.161 z M 252.375,177.781 H 66.3008 c -1.1055,0 -2.0039,0.84 -2.0039,1.871 0,1.032 0.8984,1.871 2.0039,1.871 H 252.375 c 1.105,0 2.004,-0.839 2.004,-1.871 0,-1.031 -0.899,-1.871 -2.004,-1.871"
         style="fill:#100f0d;fill-opacity:1;fill-rule:nonzero;stroke:none"
         id="path38" /><path
         d="m 249.496,178.141 c 0.758,0 1.516,0.757 1.516,1.515 0,0.754 -0.758,1.512 -1.516,1.512"
         style="fill:#f9d805;fill-opacity:1;fill-rule:nonzero;stroke:none"
         id="path40" /><path
         d="m 249.496,177.785 v 0.711 c 0.563,0 1.16,0.598 1.16,1.16 0,0.563 -0.597,1.157 -1.16,1.157 v 0.714 c 0.961,0 1.871,-0.91 1.871,-1.871 0,-0.965 -0.91,-1.871 -1.871,-1.871"
         style="fill:#100f0d;fill-opacity:1;fill-rule:nonzero;stroke:none"
         id="path42" /><path
         d="m 247.977,178.141 c 0.757,0 1.515,0.757 1.515,1.515 0,0.754 -0.758,1.512 -1.512,1.512"
         style="fill:#f9d805;fill-opacity:1;fill-rule:nonzero;stroke:none"
         id="path44" /><path
         d="m 247.977,177.785 v 0.711 c 0.566,0 1.16,0.598 1.16,1.16 0,0.563 -0.594,1.157 -1.157,1.157 v 0.714 c 0.961,0 1.872,-0.91 1.872,-1.871 0,-0.965 -0.911,-1.871 -1.875,-1.871"
         style="fill:#100f0d;fill-opacity:1;fill-rule:nonzero;stroke:none"
         id="path46" /><path
         d="m 246.461,178.141 c 0.758,0 1.516,0.757 1.516,1.515 0,0.754 -0.758,1.512 -1.516,1.512"
         style="fill:#f9d805;fill-opacity:1;fill-rule:nonzero;stroke:none"
         id="path48" /><path
         d="m 246.461,177.785 v 0.711 c 0.562,0 1.16,0.598 1.16,1.16 0,0.563 -0.594,1.157 -1.16,1.157 v 0.714 c 0.965,0 1.875,-0.91 1.875,-1.871 0,-0.965 -0.91,-1.871 -1.875,-1.871"
         style="fill:#100f0d;fill-opacity:1;fill-rule:nonzero;stroke:none"
         id="path50" /><path
         d="m 248.508,175.105 -12.875,-4.542 12.875,-4.547 12.879,4.547 -12.879,4.542"
         style="fill:#ffffff;fill-opacity:1;fill-rule:nonzero;stroke:none"
         id="path52" /><path
         d="m 236.703,170.563 11.805,-4.168 11.808,4.168 -11.808,4.167 z m 11.805,-4.922 -0.117,0.039 -13.828,4.883 13.945,4.921 0.121,-0.043 13.828,-4.878 -13.949,-4.922"
         style="fill:#100f0d;fill-opacity:1;fill-rule:nonzero;stroke:none"
         id="path54" /><path
         d="M 53.9609,172.074 H 240.035 c 0.91,0 1.649,-0.679 1.649,-1.515 v 0 c 0,-0.836 -0.739,-1.516 -1.649,-1.516 H 53.9609 c -0.9101,0 -1.6445,0.68 -1.6445,1.516 v 0 c 0,0.836 0.7344,1.515 1.6445,1.515"
         style="fill:#f9d805;fill-opacity:1;fill-rule:nonzero;stroke:none"
         id="path56" /><path
         d="m 53.9609,171.719 c -0.7109,0 -1.289,-0.52 -1.289,-1.16 0,-0.641 0.5781,-1.161 1.289,-1.161 H 240.035 c 0.715,0 1.293,0.52 1.293,1.161 0,0.64 -0.578,1.16 -1.293,1.16 z M 240.035,168.688 H 53.9609 c -1.1054,0 -2.0039,0.839 -2.0039,1.871 0,1.031 0.8985,1.871 2.0039,1.871 H 240.035 c 1.106,0 2.004,-0.84 2.004,-1.871 0,-1.032 -0.898,-1.871 -2.004,-1.871"
         style="fill:#100f0d;fill-opacity:1;fill-rule:nonzero;stroke:none"
         id="path58" /><path
         d="m 237.156,169.047 c 0.758,0 1.516,0.758 1.516,1.516 0,0.753 -0.758,1.511 -1.516,1.511"
         style="fill:#f9d805;fill-opacity:1;fill-rule:nonzero;stroke:none"
         id="path60" /><path
         d="m 237.156,168.691 v 0.711 c 0.563,0 1.16,0.594 1.16,1.161 0,0.558 -0.597,1.156 -1.16,1.156 v 0.715 c 0.961,0 1.871,-0.911 1.871,-1.871 0,-0.965 -0.91,-1.872 -1.871,-1.872"
         style="fill:#100f0d;fill-opacity:1;fill-rule:nonzero;stroke:none"
         id="path62" /><path
         d="m 235.641,169.047 c 0.754,0 1.515,0.758 1.515,1.516 0,0.753 -0.758,1.511 -1.515,1.511"
         style="fill:#f9d805;fill-opacity:1;fill-rule:nonzero;stroke:none"
         id="path64" /><path
         d="m 235.641,168.691 v 0.711 c 0.562,0 1.16,0.594 1.16,1.161 0,0.558 -0.598,1.156 -1.16,1.156 v 0.715 c 0.961,0 1.871,-0.911 1.871,-1.871 0,-0.965 -0.91,-1.872 -1.871,-1.872"
         style="fill:#100f0d;fill-opacity:1;fill-rule:nonzero;stroke:none"
         id="path66" /><path
         d="m 234.121,169.047 c 0.758,0 1.52,0.758 1.52,1.516 0,0.753 -0.762,1.511 -1.52,1.511"
         style="fill:#f9d805;fill-opacity:1;fill-rule:nonzero;stroke:none"
         id="path68" /><path
         d="m 234.121,168.691 v 0.711 c 0.567,0 1.16,0.594 1.16,1.161 0,0.558 -0.593,1.156 -1.16,1.156 v 0.715 c 0.965,0 1.875,-0.911 1.875,-1.871 0,-0.965 -0.91,-1.872 -1.875,-1.872"
         style="fill:#100f0d;fill-opacity:1;fill-rule:nonzero;stroke:none"
         id="path70" /><path
         d="M 33.4688,162.227 H 286.531 c 1.239,0 2.242,-1.016 2.242,-2.274 v 0 c 0,-1.254 -1.003,-2.269 -2.242,-2.269 H 33.4688 c -1.2383,0 -2.2422,1.015 -2.2422,2.269 v 0 c 0,1.258 1.0039,2.274 2.2422,2.274"
         style="fill:#f9d805;fill-opacity:1;fill-rule:nonzero;stroke:none"
         id="path72" /><path
         d="m 33.4688,161.844 c -1.0235,0 -1.8594,-0.848 -1.8594,-1.891 0,-1.043 0.8359,-1.89 1.8594,-1.89 H 286.531 c 1.028,0 1.86,0.847 1.86,1.89 0,1.043 -0.832,1.891 -1.86,1.891 z M 286.531,157.301 H 33.4688 c -1.4454,0 -2.6211,1.191 -2.6211,2.652 0,1.465 1.1757,2.656 2.6211,2.656 H 286.531 c 1.446,0 2.621,-1.191 2.621,-2.656 0,-1.461 -1.175,-2.652 -2.621,-2.652"
         style="fill:#100f0d;fill-opacity:1;fill-rule:nonzero;stroke:none"
         id="path74" /><path
         d="m 234.336,159.957 c -15.152,-15.148 -35.352,-45.449 -75.754,-45.449 -35.352,0 -60.5976,30.301 -75.75,45.449 15.1485,15.152 40.398,45.449 75.75,45.449 40.398,0 60.598,-30.297 75.754,-45.449 v 0"
         style="fill:#ffffff;fill-opacity:1;fill-rule:nonzero;stroke:none"
         id="path76" /><path
         d="m 83.3359,159.957 c 1.5079,-1.512 3.1172,-3.176 4.8125,-4.926 15.4966,-15.996 38.9146,-40.168 70.4336,-40.168 33.992,0 53.672,21.61 68.039,37.383 2.535,2.785 4.938,5.418 7.211,7.711 -2.277,2.293 -4.68,4.93 -7.215,7.715 -14.371,15.777 -34.047,37.379 -68.035,37.379 -31.527,0 -54.949,-24.18 -70.4492,-40.18 -1.6914,-1.75 -3.293,-3.406 -4.7969,-4.914 z m 75.2461,-45.805 c -31.82,0 -55.363,24.301 -70.9453,40.383 -1.789,1.848 -3.4804,3.594 -5.0586,5.168 l -0.25,0.254 0.25,0.254 c 1.5742,1.57 3.2578,3.312 5.043,5.152 15.5819,16.09 39.1289,40.403 70.9609,40.403 34.305,0 54.106,-21.739 68.563,-37.614 2.625,-2.882 5.101,-5.605 7.441,-7.941 l 0.254,-0.254 -0.254,-0.254 c -2.336,-2.336 -4.813,-5.055 -7.438,-7.937 -14.457,-15.871 -34.257,-37.614 -68.566,-37.614"
         style="fill:#100f0d;fill-opacity:1;fill-rule:nonzero;stroke:none"
         id="path78" /><path
         d="m 153.297,189.598 c 4.031,-4.532 0.664,-6.36 4.93,-6.657 4.5,-0.332 1.949,-4.793 5.734,-4.945 2.644,-0.117 -0.266,-10.687 2.281,-14.176 2.598,-3.632 4.77,-1.062 4.817,-3.691 0.043,-2.719 -7.063,-2.441 -7.188,-10.813 -0.211,-4.824 -5.996,-5.128 -6.273,-8.234 -0.344,-2.918 11.402,-4.559 11.246,-7.172 -0.16,-2.605 -12.684,-2.195 -13.231,-5.168 -0.277,-2.668 17.207,-4.855 18.614,-12.574 -2.61,-0.852 -10.032,-1.656 -15.641,-1.66 -35.348,-0.024 -60.6016,30.305 -75.7501,45.453 15.1524,15.148 40.3981,45.449 75.7541,45.449 0,0 -10.492,-9.586 -5.289,-15.808 l -0.004,-0.004"
         style="fill:#100f0d;fill-opacity:1;fill-rule:nonzero;stroke:none"
         id="path80" /><path
         d="m 125.195,164 h 4.899 v 12.117 h -4.899 V 164"
         style="fill:#ffffff;fill-opacity:1;fill-rule:nonzero;stroke:none"
         id="path82" /><path
         d="m 110.504,164 h 4.894 v 12.117 h -4.894 V 164"
         style="fill:#ffffff;fill-opacity:1;fill-rule:nonzero;stroke:none"
         id="path84" /><path
         d="m 117.848,164 h 4.894 v 12.117 h -4.894 V 164"
         style="fill:#ffffff;fill-opacity:1;fill-rule:nonzero;stroke:none"
         id="path86" /><path
         d="m 125.195,143.797 h 4.899 v 12.121 h -4.899 v -12.121"
         style="fill:#ffffff;fill-opacity:1;fill-rule:nonzero;stroke:none"
         id="path88" /><path
         d="m 117.848,143.797 h 4.894 v 12.121 h -4.894 v -12.121"
         style="fill:#ffffff;fill-opacity:1;fill-rule:nonzero;stroke:none"
         id="path90" /><path
         d="m 110.504,143.797 h 4.894 v 12.121 h -4.894 v -12.121"
         style="fill:#ffffff;fill-opacity:1;fill-rule:nonzero;stroke:none"
         id="path92" /><path
         d="M 147.234,176.117 V 164 h 4.895 v 12.117 h -4.895"
         style="fill:#ffffff;fill-opacity:1;fill-rule:nonzero;stroke:none"
         id="path94" /><path
         d="m 132.539,164 h 4.899 v 12.117 h -4.899 V 164"
         style="fill:#ffffff;fill-opacity:1;fill-rule:nonzero;stroke:none"
         id="path96" /><path
         d="m 139.883,164 h 4.898 v 12.117 h -4.898 V 164"
         style="fill:#ffffff;fill-opacity:1;fill-rule:nonzero;stroke:none"
         id="path98" /><path
         d="m 147.234,143.797 h 4.895 v 12.121 h -4.895 v -12.121"
         style="fill:#ffffff;fill-opacity:1;fill-rule:nonzero;stroke:none"
         id="path100" /><path
         d="m 132.539,143.797 h 4.899 v 12.121 h -4.899 v -12.121"
         style="fill:#ffffff;fill-opacity:1;fill-rule:nonzero;stroke:none"
         id="path102" /><path
         d="m 139.883,143.797 h 4.898 v 12.121 h -4.898 v -12.121"
         style="fill:#ffffff;fill-opacity:1;fill-rule:nonzero;stroke:none"
         id="path104" /><path
         d="m 173.395,164 h 4.898 v 12.117 h -4.898 V 164"
         style="fill:#100f0d;fill-opacity:1;fill-rule:nonzero;stroke:none"
         id="path106" /><path
         d="m 180.746,164 h 4.895 v 12.117 h -4.895 V 164"
         style="fill:#100f0d;fill-opacity:1;fill-rule:nonzero;stroke:none"
         id="path108" /><path
         d="m 166.051,164 h 4.898 v 12.117 h -4.898 V 164"
         style="fill:#100f0d;fill-opacity:1;fill-rule:nonzero;stroke:none"
         id="path110" /><path
         d="m 180.746,143.797 h 4.895 v 12.121 h -4.895 v -12.121"
         style="fill:#100f0d;fill-opacity:1;fill-rule:nonzero;stroke:none"
         id="path112" /><path
         d="m 173.395,143.797 h 4.898 v 12.121 h -4.898 v -12.121"
         style="fill:#100f0d;fill-opacity:1;fill-rule:nonzero;stroke:none"
         id="path114" /><path
         d="m 166.051,143.797 h 4.898 v 12.121 h -4.898 v -12.121"
         style="fill:#100f0d;fill-opacity:1;fill-rule:nonzero;stroke:none"
         id="path116" /><path
         d="M 202.781,176.117 V 164 h 4.899 v 12.117 h -4.899"
         style="fill:#100f0d;fill-opacity:1;fill-rule:nonzero;stroke:none"
         id="path118" /><path
         d="m 195.434,164 h 4.894 v 12.117 h -4.894 V 164"
         style="fill:#100f0d;fill-opacity:1;fill-rule:nonzero;stroke:none"
         id="path120" /><path
         d="m 188.09,164 h 4.894 v 12.117 H 188.09 V 164"
         style="fill:#100f0d;fill-opacity:1;fill-rule:nonzero;stroke:none"
         id="path122" /><path
         d="m 202.781,143.797 h 4.899 v 12.121 h -4.899 v -12.121"
         style="fill:#100f0d;fill-opacity:1;fill-rule:nonzero;stroke:none"
         id="path124" /><path
         d="m 195.434,143.797 h 4.894 v 12.121 h -4.894 v -12.121"
         style="fill:#100f0d;fill-opacity:1;fill-rule:nonzero;stroke:none"
         id="path126" /><path
         d="m 188.09,143.797 h 4.894 v 12.121 h -4.894 v -12.121"
         style="fill:#100f0d;fill-opacity:1;fill-rule:nonzero;stroke:none"
         id="path128" /><path
         d="m 270.656,161.762 c -2.293,-3.977 1.762,1.32 11.66,-5.332 1.832,-1.239 3.434,-4.504 3.434,-6.77 -0.465,0.313 -0.809,1.008 -1.324,1.457 -0.715,-0.719 0.687,-4.019 0.89,-5.578 -1.546,0.867 -1.394,1.277 -1.91,2.34 0.102,-1.285 -0.265,-4.828 0.352,-6.191 -1.223,0.347 -1.141,1.328 -1.778,1.527 0.434,-1.543 -0.378,-3.227 -0.164,-4.961 -0.711,0.707 -1.468,1.258 -1.8,1.543 -0.055,-0.828 -1.371,-3 -1.403,-3.781 -0.601,0.367 -0.765,0.933 -0.867,1.316 -0.754,-0.941 -3.422,-4.43 -3.594,-5.492 -2.058,1.816 -7.332,6.242 -8.015,8.59 -0.606,-1.332 -1.485,-1.782 -3.223,-2.754 -0.684,3.722 -3.246,7.906 -1.879,11.097 -0.969,-0.574 -1.769,-1.152 -2.742,-1.859 0.922,5.391 5.613,11.715 12.367,14.848 h -0.004"
         style="fill:#4056ac;fill-opacity:1;fill-rule:nonzero;stroke:none"
         id="path130" /><path
         d="m 266.199,141.297 0.227,-0.781 c 0.597,-2.043 5.101,-5.981 7.265,-7.871 l 0.317,-0.278 c 0.699,1.621 3.375,4.996 3.5,5.153 l 0.379,0.472 0.152,-0.582 c 0.074,-0.293 0.172,-0.594 0.387,-0.844 0.133,0.414 0.367,0.926 0.609,1.457 0.309,0.672 0.656,1.438 0.68,1.793 l 0.039,0.602 0.461,-0.395 c 0.09,-0.078 0.211,-0.175 0.355,-0.289 0.258,-0.207 0.575,-0.461 0.91,-0.754 0.008,0.567 0.09,1.122 0.172,1.661 0.129,0.882 0.254,1.714 0.039,2.492 l -0.152,0.535 0.531,-0.164 c 0.371,-0.117 0.555,-0.402 0.735,-0.68 0.125,-0.195 0.254,-0.394 0.461,-0.562 -0.219,1.078 -0.188,2.621 -0.161,3.91 0.016,0.699 0.032,1.301 0,1.683 l 0.575,0.157 c 0.109,-0.227 0.187,-0.426 0.261,-0.61 0.207,-0.511 0.332,-0.82 0.95,-1.246 -0.094,0.395 -0.219,0.84 -0.352,1.301 -0.476,1.684 -0.926,3.27 -0.324,3.871 l 0.199,0.203 0.211,-0.187 c 0.262,-0.227 0.469,-0.496 0.672,-0.758 0.031,-0.039 0.058,-0.078 0.09,-0.113 -0.317,2.109 -1.742,4.695 -3.242,5.703 -5.383,3.621 -9.059,3.621 -10.27,3.621 -0.258,0 -0.488,-0.008 -0.691,-0.012 -0.164,-0.004 -0.313,-0.008 -0.442,-0.008 -0.398,0 -0.769,0.028 -0.941,0.321 -0.133,0.23 -0.074,0.523 0.137,0.972 -5.54,-2.875 -9.989,-8.222 -11.196,-13.461 0.735,0.532 1.383,0.977 2.141,1.426 l 0.801,0.473 -0.368,-0.852 c -0.882,-2.054 -0.011,-4.66 0.829,-7.176 0.367,-1.101 0.746,-2.238 0.984,-3.339 1.461,0.816 2.211,1.265 2.73,2.414 z m 8.164,-10.051 -1.07,0.942 c -2.168,1.898 -6.039,5.281 -7.191,7.539 -0.61,-0.957 -1.461,-1.434 -2.832,-2.2 l -0.575,-0.324 -0.078,0.418 c -0.215,1.184 -0.64,2.445 -1.047,3.668 -0.773,2.32 -1.574,4.707 -1.078,6.793 -0.656,-0.426 -1.277,-0.871 -2.019,-1.414 l -0.602,-0.438 0.125,0.735 c 1.012,5.914 6.164,12.113 12.531,15.066 l 0.868,0.403 -0.477,-0.825 c -0.148,-0.257 -0.598,-1.035 -0.582,-1.226 0.004,0.027 0.102,0 0.406,0 0.125,0 0.27,0.004 0.43,0.008 0.207,0.004 0.441,0.011 0.703,0.011 1.254,0 5.07,0 10.609,-3.722 1.868,-1.258 3.571,-4.606 3.571,-7.02 v -0.562 l -0.473,0.312 c -0.289,0.195 -0.519,0.492 -0.762,0.805 -0.097,0.125 -0.191,0.246 -0.293,0.363 -0.058,-0.652 0.325,-2.004 0.594,-2.957 0.219,-0.769 0.426,-1.496 0.496,-2.043 l 0.078,-0.598 -0.523,0.297 c -0.832,0.465 -1.215,0.821 -1.453,1.196 -0.004,-0.102 -0.004,-0.207 -0.008,-0.317 -0.031,-1.461 -0.074,-3.465 0.32,-4.343 l 0.27,-0.594 -0.629,0.176 c -0.695,0.199 -1.031,0.589 -1.262,0.925 0.016,-0.59 -0.074,-1.183 -0.16,-1.769 -0.109,-0.742 -0.227,-1.508 -0.133,-2.262 l 0.11,-0.863 -0.622,0.613 c -0.496,0.492 -1.019,0.91 -1.402,1.215 -0.137,-0.422 -0.371,-0.941 -0.617,-1.481 -0.309,-0.671 -0.656,-1.437 -0.668,-1.769 l -0.02,-0.512 -0.437,0.266 c -0.441,0.265 -0.684,0.625 -0.824,0.945 -1.293,-1.66 -3.063,-4.148 -3.188,-4.914 l -0.086,-0.543"
         style="fill:#100f0d;fill-opacity:1;fill-rule:nonzero;stroke:none"
         id="path132" /><path
         d="m 262.098,142.078 c 0.953,1.902 1.832,2.508 2.449,3.735 1.086,2.156 1.242,3.871 2.187,3.617 0.95,-0.25 0.95,-1.133 -0.281,-3.254 -1.226,-2.117 -1.808,-2.571 -4.355,-4.098 v 0"
         style="fill:#a51c21;fill-opacity:1;fill-rule:nonzero;stroke:none"
         id="path134" /><path
         d="m 268.539,137.539 c -0.121,1.449 0.301,2.055 0.223,2.988 -0.129,1.645 -0.801,2.774 0.074,2.852 0.871,0.082 1.281,-0.481 1.281,-2.137 0.004,-1.656 -0.25,-2.09 -1.574,-3.703 h -0.004"
         style="fill:#a51c21;fill-opacity:1;fill-rule:nonzero;stroke:none"
         id="path136" /><path
         d="m 273.43,134.695 c -0.379,2.028 -0.094,2.922 -0.34,4.227 -0.426,2.297 -1.266,3.805 -0.457,4.016 0.808,0.21 1.297,-0.532 1.605,-2.86 0.305,-2.328 0.145,-2.965 -0.808,-5.383 v 0"
         style="fill:#a51c21;fill-opacity:1;fill-rule:nonzero;stroke:none"
         id="path138" /><path
         d="m 278.516,148.879 c -1.196,0.906 -1.891,0.969 -2.661,1.551 -1.359,1.019 -2.042,2.117 -2.48,1.574 -0.437,-0.543 -0.125,-1.141 1.297,-2.082 1.422,-0.942 1.902,-1.016 3.844,-1.043 v 0"
         style="fill:#a51c21;fill-opacity:1;fill-rule:nonzero;stroke:none"
         id="path140" /><path
         d="m 277.672,142.16 c -0.629,1.309 -1.289,1.641 -1.699,2.481 -0.719,1.476 -0.719,2.757 -1.5,2.429 -0.782,-0.328 -0.844,-0.996 -0.008,-2.429 0.836,-1.43 1.269,-1.688 3.207,-2.481 v 0"
         style="fill:#a51c21;fill-opacity:1;fill-rule:nonzero;stroke:none"
         id="path142" /><path
         d="m 42.3477,157.934 c -0.1289,1.156 0.1211,1.293 -0.5938,2.168 1.0391,-0.438 1.0781,-1.586 2.3359,-0.77 0.4649,0.238 0.668,0.246 0.1055,1.531 1.3125,-0.058 5.6172,-1.535 6.3047,-1.57 1.8125,-0.082 5.1172,1.902 7.4102,-0.539 2.1992,-2.223 1.4648,-4.531 1.4648,-7.613 -0.8828,0.422 -0.457,0.632 -1.3984,1.734 0.707,-2.695 -0.0352,-7.551 -0.0352,-10.406 -0.3633,0.687 -0.3086,0.39 -0.6601,1.101 -0.9415,-2.605 -2.0665,-3.14 -2.0665,-6.222 -0.3359,1.207 -0.0117,0.953 -0.3867,1.586 -0.914,-1.981 -7.0312,-3.668 -4.6718,-5.664 -2.129,1.246 -3.0625,1.117 -4.0274,2.238 -0.418,-0.27 -0.7461,-0.778 -1.1328,-1.473 -3.7422,1.723 -2.4063,5.434 -5.3359,7.914 -0.5079,-1.039 -0.2774,-0.886 -0.8243,-2.582 -0.5937,2.352 -0.7578,3.848 -1.4257,5.574 -0.5743,-0.957 -0.5235,-0.589 -1.5664,-2.039 -0.4336,2.868 -1.1407,3.543 -0.8594,5.438 -1.1133,-0.785 -0.3867,-0.469 -1.4961,-1.434 1.0547,7.34 5.5976,12.762 8.8594,11.028 v 0"
         style="fill:#4056ac;fill-opacity:1;fill-rule:nonzero;stroke:none"
         id="path144" /><path
         d="m 46.1992,136.004 0.2149,-0.25 c 0.5039,-0.59 1.0039,-0.793 1.7578,-1.106 0.3125,-0.128 0.664,-0.273 1.0703,-0.468 -0.0039,0.035 0,0.074 0,0.109 0.0703,1.035 1.3828,1.871 2.7734,2.762 1.0625,0.676 2.1641,1.375 2.4688,2.043 l 0.3008,0.652 0.25,-0.426 c 0.207,0.914 0.5546,1.575 0.9375,2.297 0.3164,0.598 0.6406,1.219 0.9531,2.082 l 0.2969,0.832 0.3789,-0.758 c 0.0273,0.602 0.0742,1.25 0.1172,1.922 0.1679,2.489 0.3593,5.309 -0.1055,7.082 l 0.6523,0.34 c 0.4414,-0.515 0.6055,-0.855 0.7227,-1.101 0.0078,-0.02 0.0156,-0.036 0.0234,-0.051 0.0156,0.351 0.0313,0.695 0.0508,1.031 0.1133,2.152 0.2031,3.852 -1.4219,5.492 -0.7148,0.762 -1.5625,1.114 -2.6758,1.114 -0.8359,0 -1.7109,-0.204 -2.4804,-0.383 -0.6797,-0.156 -1.3203,-0.305 -1.8672,-0.305 l -0.1328,0.004 c -0.3164,0.016 -1.0703,0.227 -2.3672,0.605 -1.125,0.325 -2.4609,0.711 -3.332,0.879 0.2461,-0.718 0.1523,-1.066 -0.4454,-1.367 l -0.0742,-0.039 c -0.6484,-0.422 -1.2187,-0.371 -1.5976,-0.094 0.0039,-0.066 0.0078,-0.136 0.0078,-0.211 0.0078,-0.191 0.0156,-0.418 0.0469,-0.718 l 0.0781,-0.707 -0.6289,0.336 c -0.3516,0.183 -0.7266,0.281 -1.1211,0.281 -2.4805,0 -5.793,-3.961 -6.9727,-9.789 0.1172,0.129 0.3047,0.281 0.6875,0.554 l 0.7188,0.504 -0.1289,-0.867 c -0.1563,-1.066 0.0195,-1.715 0.2851,-2.695 0.1289,-0.477 0.2813,-1.043 0.4258,-1.766 0.1992,0.25 0.332,0.399 0.4453,0.524 0.1875,0.207 0.3008,0.332 0.5781,0.789 l 0.3946,0.66 0.2773,-0.719 c 0.4453,-1.148 0.6719,-2.199 0.9375,-3.422 0.0508,-0.25 0.1094,-0.511 0.168,-0.781 0.0898,0.379 0.1523,0.621 0.4531,1.242 l 0.2149,0.434 0.3671,-0.313 c 1.3985,-1.179 1.8711,-2.593 2.3282,-3.961 0.5117,-1.531 0.957,-2.863 2.6133,-3.746 0.3515,0.602 0.6718,1.032 1.0781,1.293 z m 3.7656,-3.063 c -0.8632,0.508 -1.539,0.786 -2.082,1.008 -0.6836,0.285 -1.2461,0.52 -1.789,1.043 -0.25,-0.25 -0.4883,-0.637 -0.7696,-1.14 l -0.1679,-0.305 -0.3204,0.144 c -2.207,1.02 -2.7734,2.711 -3.3203,4.344 -0.3789,1.137 -0.7695,2.301 -1.7304,3.281 -0.0938,-0.234 -0.1289,-0.39 -0.1875,-0.636 -0.0704,-0.289 -0.1641,-0.688 -0.4024,-1.426 l -0.4062,-1.246 -0.3203,1.269 c -0.211,0.832 -0.3633,1.555 -0.5079,2.219 -0.2031,0.938 -0.3828,1.77 -0.6562,2.613 -0.0781,-0.097 -0.1524,-0.175 -0.2344,-0.269 -0.1875,-0.207 -0.4219,-0.465 -0.9219,-1.156 l -0.5429,-0.75 -0.1367,0.914 c -0.168,1.113 -0.375,1.875 -0.5547,2.547 -0.2032,0.746 -0.3633,1.343 -0.3711,2.078 -0.0039,-0.008 -0.0078,-0.012 -0.0117,-0.02 -0.1055,-0.152 -0.2383,-0.344 -0.7969,-0.832 l -0.7617,-0.664 0.1406,1.004 c 0.9101,6.328 4.543,11.676 7.9375,11.676 0.3008,0 0.5937,-0.043 0.8789,-0.125 -0.0039,0.054 -0.0039,0.105 -0.0078,0.156 -0.0156,0.504 -0.0196,0.656 -0.4571,1.195 l 0.4375,0.586 c 0.4297,-0.179 0.711,-0.461 0.9336,-0.683 0.4219,-0.422 0.5547,-0.438 1.0508,-0.118 L 44,159.707 c 0.0625,0.031 0.1523,0.078 0.1719,0.102 -0.0039,0.015 -0.0156,0.203 -0.3242,0.906 l -0.2422,0.555 0.6054,-0.028 c 0.8086,-0.039 2.5664,-0.547 4.1133,-0.996 0.961,-0.277 1.9531,-0.562 2.1953,-0.574 l 0.0977,-0.004 c 0.4609,0 1.0625,0.141 1.6992,0.285 0.8086,0.188 1.7266,0.399 2.6484,0.399 1.3165,0 2.3711,-0.438 3.2188,-1.34 1.8516,-1.871 1.75,-3.809 1.6328,-6.055 -0.0312,-0.582 -0.0625,-1.184 -0.0625,-1.816 v -0.602 l -0.543,0.262 c -0.289,0.137 -0.4726,0.265 -0.6015,0.406 0.125,-1.695 -0.0117,-3.719 -0.1367,-5.562 -0.0782,-1.172 -0.1563,-2.282 -0.1563,-3.176 l -0.7109,-0.176 c -0.1289,0.25 -0.1992,0.352 -0.2539,0.43 -0.2422,-0.567 -0.4883,-1.032 -0.711,-1.457 -0.5859,-1.11 -1.0468,-1.985 -1.0468,-3.918 l -0.7422,-0.106 c -0.1094,0.403 -0.1563,0.656 -0.1758,0.836 -0.5469,-0.578 -1.3828,-1.109 -2.2539,-1.664 -1.1172,-0.715 -2.3828,-1.523 -2.4258,-2.176 -0.0039,-0.082 -0.0234,-0.324 0.4023,-0.683 l -0.4336,-0.614"
         style="fill:#100f0d;fill-opacity:1;fill-rule:nonzero;stroke:none"
         id="path146" /><path
         d="m 37.7461,145.953 c 0.9609,2.363 1.832,3.106 2.4531,4.625 1.1016,2.676 1.2813,4.813 2.2071,4.485 0.9218,-0.325 0.9062,-1.426 -0.3282,-4.051 -1.2383,-2.629 -1.8164,-3.188 -4.332,-5.059 v 0"
         style="fill:#a51c21;fill-opacity:1;fill-rule:nonzero;stroke:none"
         id="path148" /><path
         d="m 41.3945,140.043 c 0.3868,2.117 0.9961,2.887 1.2461,4.254 0.4453,2.398 0.1992,4.183 1.0586,4.09 0.8555,-0.094 1.0508,-1 0.4805,-3.387 -0.5742,-2.387 -0.9649,-2.949 -2.7852,-4.957 v 0"
         style="fill:#a51c21;fill-opacity:1;fill-rule:nonzero;stroke:none"
         id="path150" /><path
         d="m 45.7617,135.93 c 0.1094,2.054 0.5899,2.855 0.6602,4.179 0.1328,2.329 -0.3164,3.993 0.5039,4.004 0.8164,0.008 1.1094,-0.828 0.8594,-3.16 -0.25,-2.328 -0.5547,-2.91 -2.0235,-5.023"
         style="fill:#a51c21;fill-opacity:1;fill-rule:nonzero;stroke:none"
         id="path152" /><path
         d="m 55.1367,149.363 c -1.7929,1.785 -2.8789,2.117 -4.0351,3.27 -2.0352,2.015 -3.0196,3.91 -3.7461,3.238 -0.7227,-0.672 -0.2891,-1.68 1.8554,-3.598 2.1446,-1.918 2.8907,-2.199 5.9258,-2.91"
         style="fill:#a51c21;fill-opacity:1;fill-rule:nonzero;stroke:none"
         id="path154" /><path
         d="m 54.043,142.461 c -1.168,1.793 -2.0235,2.254 -2.7774,3.41 -1.3281,2.027 -1.7851,3.77 -2.539,3.34 -0.7539,-0.434 -0.586,-1.344 0.8554,-3.309 1.4375,-1.964 2.0196,-2.328 4.461,-3.445 v 0.004"
         style="fill:#a51c21;fill-opacity:1;fill-rule:nonzero;stroke:none"
         id="path156" /><path
         d="m 134.09,197.34 c -2.098,-4.059 3.676,1.351 12.726,-5.445 1.676,-1.262 4.082,-6.25 4.082,-8.563 -1.929,0.41 -5.339,2.313 -5.339,2.313 0,0 4.004,-4.012 4.004,-8.633 -1.415,0.883 -2.122,0.75 -2.594,1.836 0,-1.496 1.258,-2.45 1.258,-4.762 -1.02,0.812 -1.883,1.355 -2.75,1.836 1.336,-2.313 -2.43,-6.801 -0.547,-8.297 -3.297,0.477 -6.668,2.586 -8.004,4.895 -0.707,-0.473 -0.785,-1.223 -0.813,-2.024 0.106,-0.086 -5.019,3.805 -4.547,5.297 -0.687,-0.965 -0.785,-1.492 -0.941,-2.578 -1.883,1.855 -3.605,3.711 -4.234,6.109 -0.836,-1.086 -0.887,-1.086 -1.727,-2.172 -0.625,3.801 -0.625,3.668 0.629,6.926 -0.891,-0.59 -1.621,-1.176 -2.508,-1.902 0.84,5.508 5.133,11.965 11.305,15.164 v 0"
         style="fill:#4056ac;fill-opacity:1;fill-rule:nonzero;stroke:none"
         id="path158" /><path
         d="m 137.023,172.938 0.157,-0.27 c 1.203,-2.082 4.152,-3.984 7.07,-4.621 -0.398,0.937 0.051,2.269 0.52,3.66 0.511,1.504 1.035,3.059 0.457,4.066 l -0.528,0.911 0.918,-0.508 c 0.832,-0.457 1.559,-0.926 2.285,-1.469 -0.093,0.887 -0.386,1.539 -0.672,2.176 -0.285,0.637 -0.55,1.234 -0.55,1.965 l 0.558,0.117 c 0.266,-0.61 0.582,-0.758 1.219,-1.047 0.227,-0.105 0.492,-0.227 0.797,-0.391 -0.281,4.235 -3.863,7.875 -3.902,7.911 l 0.347,0.46 c 0.031,-0.015 2.985,-1.656 4.887,-2.187 -0.231,2.34 -2.402,6.789 -3.945,7.949 -4.407,3.309 -8.055,3.692 -10.414,3.692 -0.297,0 -0.571,-0.004 -0.821,-0.012 -0.211,-0.004 -0.402,-0.008 -0.578,-0.008 -0.582,0 -1.125,0.031 -1.359,0.414 -0.145,0.238 -0.125,0.547 0.004,0.918 -5.078,-2.934 -9.16,-8.402 -10.262,-13.766 0.652,0.524 1.238,0.973 1.922,1.422 l 0.762,0.504 -0.418,-1.082 c -1.063,-2.762 -1.118,-2.902 -0.633,-5.883 0.183,0.227 0.32,0.395 0.457,0.563 0.219,0.269 0.441,0.539 0.859,1.082 l 0.363,0.473 0.149,-0.579 c 0.566,-2.164 2.07,-3.886 3.754,-5.574 0.133,0.778 0.312,1.317 0.902,2.141 l 0.516,-0.258 c -0.297,-0.945 2.652,-3.57 4.011,-4.644 0.071,0.664 0.266,1.269 0.907,1.703 z m 8.938,-5.754 -1.07,0.152 c -3.223,0.465 -6.532,2.437 -8.039,4.746 -0.344,-0.363 -0.414,-0.859 -0.442,-1.453 l 0.047,-0.035 -0.133,-0.383 -0.203,-0.008 c -0.023,0.004 -0.098,0.027 -0.183,0.082 l -0.012,-0.012 -0.098,0.082 c -0.828,0.559 -3.019,2.528 -3.887,3.68 -0.253,0.34 -0.437,0.649 -0.554,0.926 -0.282,-0.547 -0.36,-1.008 -0.473,-1.789 l -0.082,-0.57 -0.41,0.406 c -1.762,1.734 -3.399,3.476 -4.149,5.691 -0.214,-0.273 -0.367,-0.461 -0.519,-0.648 -0.223,-0.27 -0.441,-0.539 -0.856,-1.078 l -0.41,-0.532 -0.133,0.801 c -0.55,3.336 -0.589,3.649 0.325,6.051 -0.551,-0.402 -1.086,-0.832 -1.711,-1.344 l -0.59,-0.476 0.117,0.75 c 0.918,6.004 5.59,12.297 11.375,15.332 l 0.223,0.429 0.125,-0.25 0.551,0.286 -0.422,-0.821 c -0.45,-0.863 -0.414,-1.094 -0.379,-1.148 0.07,-0.117 0.597,-0.145 1.426,-0.125 0.253,0.004 0.531,0.012 0.832,0.012 2.445,0 6.218,-0.399 10.765,-3.809 1.766,-1.328 4.196,-6.426 4.196,-8.797 v -0.359 l -0.352,0.074 c -1.18,0.25 -2.867,1.027 -4.047,1.621 1.215,-1.547 3.066,-4.438 3.066,-7.656 v -0.528 l -0.449,0.278 c -0.468,0.293 -0.851,0.468 -1.191,0.625 -0.27,0.125 -0.512,0.23 -0.723,0.371 0.078,-0.207 0.172,-0.414 0.274,-0.637 0.351,-0.793 0.754,-1.691 0.754,-3.035 v -0.606 l -0.473,0.375 c -0.676,0.54 -1.32,0.993 -2.031,1.418 0.199,-1.113 -0.25,-2.453 -0.692,-3.753 -0.527,-1.555 -1.023,-3.02 -0.211,-3.665 l 0.848,-0.671"
         style="fill:#100f0d;fill-opacity:1;fill-rule:nonzero;stroke:none"
         id="path160" /><path
         d="m 128.914,177.508 c 0.336,2.797 1.066,3.851 1.285,5.652 0.391,3.168 -0.07,5.485 1.051,5.426 1.121,-0.059 1.445,-1.227 0.891,-4.391 -0.555,-3.16 -1.024,-3.925 -3.227,-6.687 v 0"
         style="fill:#a51c21;fill-opacity:1;fill-rule:nonzero;stroke:none"
         id="path162" /><path
         d="m 134.773,172.387 c -0.226,2.359 0.211,3.363 0.067,4.883 -0.25,2.675 -1.078,4.488 -0.098,4.656 0.977,0.164 1.473,-0.735 1.578,-3.434 0.106,-2.699 -0.156,-3.418 -1.547,-6.105 v 0"
         style="fill:#a51c21;fill-opacity:1;fill-rule:nonzero;stroke:none"
         id="path164" /><path
         d="m 143.922,168.207 c -0.996,2.043 -1.852,2.652 -2.492,3.965 -1.133,2.312 -1.371,4.195 -2.246,3.855 -0.875,-0.343 -0.829,-1.316 0.437,-3.578 1.262,-2.261 1.832,-2.722 4.301,-4.242"
         style="fill:#a51c21;fill-opacity:1;fill-rule:nonzero;stroke:none"
         id="path166" /><path
         d="m 147.086,186.496 c -2.531,1.332 -3.832,1.352 -5.465,2.207 -2.875,1.504 -4.551,3.199 -5.144,2.266 -0.594,-0.934 0.199,-1.864 3.164,-3.231 2.964,-1.363 3.875,-1.429 7.449,-1.242 h -0.004"
         style="fill:#a51c21;fill-opacity:1;fill-rule:nonzero;stroke:none"
         id="path168" /><path
         d="m 148.016,178.855 c -1.844,1.536 -2.938,1.762 -4.125,2.747 -2.098,1.734 -3.141,3.433 -3.84,2.746 -0.699,-0.692 -0.235,-1.602 1.969,-3.235 2.199,-1.633 2.949,-1.836 5.996,-2.258 v 0"
         style="fill:#a51c21;fill-opacity:1;fill-rule:nonzero;stroke:none"
         id="path170" /></g></g></svg>
