<?xml version="1.0" encoding="UTF-8" standalone="no"?>
<svg
   xmlns:dc="http://purl.org/dc/elements/1.1/"
   xmlns:cc="http://creativecommons.org/ns#"
   xmlns:rdf="http://www.w3.org/1999/02/22-rdf-syntax-ns#"
   xmlns:svg="http://www.w3.org/2000/svg"
   xmlns="http://www.w3.org/2000/svg"
   version="1.1"
   id="svg2"
   xml:space="preserve"
   width="42.666668"
   height="42.666668"
   viewBox="0 0 42.666668 42.666668"><metadata
     id="metadata8"><rdf:RDF><cc:Work
         rdf:about=""><dc:format>image/svg+xml</dc:format><dc:type
           rdf:resource="http://purl.org/dc/dcmitype/StillImage" /></cc:Work></rdf:RDF></metadata><defs
     id="defs6" /><g
     id="g10"
     transform="matrix(1.3333333,0,0,-1.3333333,0,42.666667)"><g
       id="g12"
       transform="scale(0.1)"><path
         d="M 160.012,-0.195313 C 248.133,-0.195313 320,71.6914 320,159.82 320,247.961 248.133,319.855 160.012,319.855 71.8906,319.855 0,247.961 0,159.82 0,71.6914 71.8906,-0.195313 160.012,-0.195313"
         style="fill:#273375;fill-opacity:1;fill-rule:evenodd;stroke:none"
         id="path14" /><path
         d="m 50.168,272.543 c 0,1.172 0,2.367 0,3.527 -1.2266,-1.16 -2.4219,-2.332 -3.625,-3.527 1.2304,0 2.4453,0 3.625,0"
         style="fill:#ffffff;fill-opacity:1;fill-rule:nonzero;stroke:none"
         id="path16" /><path
         d="m 159.684,199.84 0.269,-0.047 c -0.031,3.215 0.051,6.484 -0.066,9.676 -15.77,9.676 -31.524,19.289 -47.27,28.953 -1.445,0.812 -2.855,2.019 -4.547,1.973 -4.769,-0.082 -9.5778,0.089 -14.3395,-0.141 21.8945,-13.742 44.0505,-26.738 65.9535,-40.414 z M 42.1133,240.254 c -4.711,0.23 -9.5117,0.059 -14.2539,0.141 -1.3399,0.089 -2.5547,-0.715 -3.75,-1.43 -1.5821,-0.996 -3.1563,-1.942 -4.7305,-2.938 -2.4531,-4.468 -4.6797,-9.07 -6.6992,-13.793 9.8476,5.934 19.668,11.907 29.4336,18.02 z m 97.1097,78.281 C 118.75,305.953 98.1641,293.734 77.7695,281.02 c 4.6016,-0.184 9.25,0 13.8633,-0.098 1.168,-0.086 2.336,0.269 3.3828,0.973 20.6094,12.726 41.3904,25.16 61.9884,37.96 -6.024,-0.093 -11.945,-0.55 -17.781,-1.32 z M 50.168,276.07 c 6.0976,5.75 12.6406,11.032 19.5547,15.77 0,-6.418 0,-12.871 0.0117,-19.297 30.0312,0 60.1206,0 90.1876,0 0.031,-7.934 0.031,-15.836 -0.035,-23.766 -30.032,0 -60.1214,0 -90.1526,0 -0.043,-16.312 0,-32.668 -0.043,-48.984 -6.4844,0 -12.9805,0 -19.5234,0 -0.0313,16.316 0,32.672 0,48.984 -7.6953,0 -15.3867,0 -23.086,0 5.7227,8.532 12.2657,16.52 19.461,23.766 1.2304,0 2.4453,0 3.625,0 0,1.172 0,2.367 0,3.527"
         style="fill:#d11d2c;fill-opacity:1;fill-rule:nonzero;stroke:none"
         id="path18" /><path
         d="m 19.3789,236.027 c 1.5742,0.996 3.1484,1.942 4.7305,2.938 1.1953,0.715 2.4101,1.519 3.75,1.43 4.7422,-0.082 9.5429,0.089 14.2539,-0.141 -9.7656,-6.113 -19.586,-12.086 -29.4336,-18.02 -0.9102,-2.171 -1.8047,-4.375 -2.6289,-6.601 10.9687,6.656 21.9961,13.32 32.9961,19.961 0.0312,-11.946 0,-23.871 0.0312,-35.801 2.3516,0 4.7266,0 7.0899,0 -0.0313,16.316 0,32.672 0,48.984 -7.6953,0 -15.3867,0 -23.086,0 -2.7695,-4.113 -5.3242,-8.363 -7.7031,-12.75"
         style="fill:#ffffff;fill-opacity:1;fill-rule:nonzero;stroke:none"
         id="path20" /><path
         d="m 112.617,238.422 c 15.746,-9.664 31.5,-19.277 47.27,-28.953 l 0.019,5.148 c -14.019,8.625 -28.179,16.879 -42.113,25.696 14,0.171 28.094,0 42.113,0.082 v 8.382 h -0.019 c -6.934,0 -13.864,0 -20.793,0 -23.121,0 -46.2542,0 -69.3596,0 -0.043,-16.312 0,-32.668 -0.043,-48.984 2.2109,0 4.4649,0 6.6641,0 0,11.93 -0.043,23.855 0.0429,35.801 18.6172,-11.196 37.1646,-22.516 55.7616,-33.742 1.528,-0.887 2.996,-2.258 4.785,-2.059 7.575,0.047 15.16,-0.051 22.739,0.047 -21.903,13.676 -44.059,26.672 -65.9535,40.414 4.7617,0.23 9.5705,0.059 14.3395,0.141 1.692,0.046 3.102,-1.161 4.547,-1.973"
         style="fill:#ffffff;fill-opacity:1;fill-rule:nonzero;stroke:none"
         id="path22" /><path
         d="m 159.906,280.977 c -14.019,0.086 -28.113,-0.141 -42.113,0.086 13.918,8.863 28.211,16.886 42.094,25.855 l 0.019,2.23 v 10.735 h -0.515 l -2.387,-0.028 c -20.598,-12.8 -41.379,-25.234 -61.9884,-37.96 -1.0468,-0.704 -2.2148,-1.059 -3.3828,-0.973 -4.6133,0.098 -9.2617,-0.086 -13.8633,0.098 20.3946,12.714 40.9805,24.933 61.4535,37.515 h -0.051 c -1.93,-0.265 -3.817,-0.543 -5.762,-0.844 l -0.504,-0.101 c -1.953,-0.356 -3.886,-0.715 -5.832,-1.11 -16.844,-10.32 -33.781,-20.503 -50.6756,-30.742 -0.0195,3.508 -0.0195,6.969 -0.0195,10.469 l -0.0234,-0.031 c -2.25,-1.395 -4.4532,-2.828 -6.6328,-4.336 0,-6.418 0,-12.871 0.0117,-19.297 23.0898,0 46.2226,0 69.3596,0 6.937,0 13.875,0 20.812,0 v 8.434"
         style="fill:#ffffff;fill-opacity:1;fill-rule:nonzero;stroke:none"
         id="path24" /><path
         d="m 295.008,224.953 v -42.996 c 0,-35.301 -13.867,-67.613 -55,-87.2539 -41.137,19.6449 -55,51.9569 -55,87.2539 v 42.996 h 109.996 0.004"
         style="fill:#ffffff;fill-opacity:1;fill-rule:nonzero;stroke:none"
         id="path26" /><path
         d="m 291.305,220.57 v -40.101 c 0,-32.922 -12.934,-63.063 -51.297,-81.3831 -38.367,18.3201 -51.301,48.4611 -51.301,81.3831 v 40.105 h 102.598 v -0.004"
         style="fill:#f8bf09;fill-opacity:1;fill-rule:nonzero;stroke:none"
         id="path28" /><path
         d="m 216.121,202.996 c -0.742,0.559 -1.551,0.899 -2.66,0.93 0.242,2.722 -1.734,3.898 -3.16,4.39 -1.418,0.497 -1.918,1.055 -2.164,2.168 -0.246,1.114 -0.989,1.793 -2.289,2.164 -1.301,0.375 -2.414,1.672 -2.91,2.293 -0.493,0.618 -0.68,0.493 -1.051,-0.558 -0.371,-1.051 -1.856,-3.031 -0.496,-3.094 -0.989,-0.805 -1.547,-1.734 -0.926,-2.973 -0.684,-0.554 -1.176,-1.359 -0.25,-1.668 0.93,-0.308 1.176,-0.558 1.238,-0.804 -0.836,0 -1.051,-1.672 0.93,-2.043 l 0.187,-1.422 c -1.117,0 -2.047,-1.672 -3.468,-1.672 -1.422,0 -2.164,-0.309 -2.227,-0.93 l -1.176,-1.672 c 1.055,-0.121 1.731,0 2.289,0.434 l 2.106,0.063 2.535,-0.618 c -1.359,-0.929 -2.352,-2.168 -2.473,-3.343 -0.125,-1.176 -0.929,-2.536 -1.859,-2.911 -0.926,-0.371 -2.164,-1.359 -2.598,-2.535 1.176,-2.91 2.844,-3.629 4.516,-4.394 2.973,-1.363 4.828,-2.352 6.066,-3.711 1.239,-1.363 1.735,-0.375 3.586,-2.727 1.86,-2.351 3.594,-6.804 5.446,-7.55 1.859,-0.743 4.21,-0.247 5.57,2.105 1.363,2.352 2.23,26.117 -4.762,30.078 v 0"
         style="fill:#f7912e;fill-opacity:1;fill-rule:nonzero;stroke:none"
         id="path30" /><path
         d="m 219.277,212.898 c -1.734,-1.859 -3.964,-3.714 -3.589,-7.054 0.371,-3.344 0.742,-8.789 -2.352,-10.645 -3.094,-1.855 -4.578,-6.562 -0.867,-9.285 3.711,-2.723 3.836,-6.062 4.453,-9.156 0.621,-3.098 2.23,-5.57 4.707,-3.469 2.473,-0.371 3.836,0.621 3.836,2.602 0,1.976 0.125,3.093 1.98,3.711 1.856,0.621 2.352,1.238 3.215,2.91 0.867,1.672 1.363,2.414 0.867,3.402 -0.492,0.992 -0.679,3.031 -0.308,4.52 0.371,1.484 -0.492,2.289 -0.992,3.218 -0.493,0.926 -0.676,1.731 -0.43,2.969 0.246,1.238 -0.371,2.043 -1.238,2.66 -0.868,0.621 -1.239,1.239 -1.051,2.231 0.183,0.988 -0.621,1.609 -1.547,2.351 -0.93,0.742 -1.609,1.731 -1.609,3.215 0,1.488 -2.848,4.953 -5.075,5.82 v 0"
         style="fill:#f57b76;fill-opacity:1;fill-rule:nonzero;stroke:none"
         id="path32" /><path
         d="m 219.957,172.484 c 4.145,1.055 3.773,7.86 3.156,10.707 -0.621,2.848 -2.211,6.926 -0.992,10.153 1.734,4.578 -2.105,8.91 -1.113,10.64 0.992,1.735 0.867,2.664 0.742,3.219 -0.121,0.559 -1.051,0.992 -1.113,-0.183 -0.063,-1.176 -0.371,-1.61 -1.114,-2.352 -0.742,-0.742 -0.558,-2.352 0,-4.148 0.555,-1.793 1.735,-4.516 -0.125,-8.106 -1.855,-3.59 -1.089,-5.191 -0.371,-6.871 1.114,-2.598 3.778,-11.633 0.93,-13.059"
         style="fill:#ee8ccb;fill-opacity:1;fill-rule:nonzero;stroke:none"
         id="path34" /><path
         d="m 201.391,211.289 1.363,-0.434"
         style="fill:#f7912e;fill-opacity:1;fill-rule:nonzero;stroke:none"
         id="path36" /><path
         d="m 200.465,208.32 c 0.555,0.403 1.547,-0.062 2.535,0.524"
         style="fill:#f7912e;fill-opacity:1;fill-rule:nonzero;stroke:none"
         id="path38" /><path
         d="m 201.453,205.844 c 0.742,0 1.735,0.031 2.66,0.773"
         style="fill:#f7912e;fill-opacity:1;fill-rule:nonzero;stroke:none"
         id="path40" /><path
         d="m 202.383,203.801 2.258,1.332"
         style="fill:#f7912e;fill-opacity:1;fill-rule:nonzero;stroke:none"
         id="path42" /><path
         d="m 202.57,202.379 c 1.328,0.059 3.094,-0.434 3.34,0.027"
         style="fill:#f7912e;fill-opacity:1;fill-rule:nonzero;stroke:none"
         id="path44" /><path
         d="m 202.629,197.984 c 0.93,0.868 3.129,1.454 3.621,2.352"
         style="fill:#f7912e;fill-opacity:1;fill-rule:nonzero;stroke:none"
         id="path46" /><path
         d="m 204.98,211.785 c 1.547,-0.496 0.907,-1.453 1.672,-2.043 1.364,-1.054 0.125,-2.226 1.239,-2.539 1.113,-0.308 1.093,-0.496 0.804,-1.73 -0.343,-1.457 1.051,-1.52 0.555,-2.477"
         style="fill:#f7912e;fill-opacity:1;fill-rule:nonzero;stroke:none"
         id="path48" /><path
         d="m 213.461,203.926 c -0.621,0 -2.445,-0.063 -3.219,-1.703"
         style="fill:#f7912e;fill-opacity:1;fill-rule:nonzero;stroke:none"
         id="path50" /><path
         d="m 200.246,186.07 1.27,0.68 0.957,0.773 1.859,0.711 c 0.215,0.496 0.988,0.032 1.641,1.332 0.648,1.301 1.082,2.848 2.812,3.403"
         style="fill:#f7912e;fill-opacity:1;fill-rule:nonzero;stroke:none"
         id="path52" /><path
         d="m 249.34,159.027 c 0.699,-1.019 -0.027,-2.117 1.164,-2.558 1.391,-0.516 0.176,-2.348 1.816,-2.992 1.457,-0.571 0.012,-2.325 1.586,-3.11 1.407,-0.703 -0.234,-2.347 1.641,-3.285 1.879,-0.937 -0.352,-3.051 1.058,-3.871 1.407,-0.82 -0.468,-2.934 1.172,-3.754 1.645,-0.824 -0.703,-2.465 0.821,-3.641 1.523,-1.171 -0.352,-2.929 1.172,-3.988 1.527,-1.055 -0.934,-2.465 0.589,-3.988 1.172,-1.176 -0.421,-2.324 0.469,-4.11 0.586,-1.171 -0.59,-5.867 -3.875,-5.394 -1.172,-1.996 -5.746,-3.758 -7.387,-3.168 -1.644,-1.176 -6.921,-2.816 -9.625,-0.234 -2.695,-2.582 -7.976,-0.942 -9.621,0.234 -1.64,-0.59 -6.215,1.172 -7.386,3.168 -3.286,-0.473 -4.461,4.223 -3.875,5.394 0.894,1.786 -0.704,2.934 0.468,4.11 1.524,1.523 -0.937,2.933 0.59,3.988 1.524,1.059 -0.351,2.817 1.172,3.988 1.524,1.176 -0.82,2.817 0.82,3.641 1.645,0.82 -0.234,2.934 1.172,3.754 1.41,0.82 -0.816,2.934 1.059,3.871 1.879,0.938 0.234,2.582 1.64,3.285 1.575,0.785 0.129,2.539 1.586,3.11 1.641,0.644 0.426,2.476 1.821,2.992 1.207,0.449 0.433,1.578 1.195,2.605 3.496,-1.375 14.309,-2.359 18.758,-0.047"
         style="fill:#30ac41;fill-opacity:1;fill-rule:nonzero;stroke:none"
         id="path54" /><path
         d="m 233.727,158.699 c -1.293,-1.293 0.234,-2.23 -1.055,-3.754 -1.293,-1.527 -0.121,-2.347 -1.176,-3.757 -1.055,-1.407 0.469,-2.11 -0.703,-3.637 -1.172,-1.524 0.234,-2.461 -1.059,-3.754 -1.289,-1.289 0.239,-2.465 -1.054,-3.871 -1.289,-1.41 0.234,-2.348 -1.055,-3.637 -1.289,-1.293 0.234,-2.699 -1.055,-3.992 -1.293,-1.289 0.235,-2.934 -1.175,-4.457 -1.407,-1.527 0.234,-2.699 -0.938,-3.871 -1.176,-1.176 -0.117,-2.348 -0.937,-3.168 l -0.586,-2.465"
         style="fill:#30ac41;fill-opacity:1;fill-rule:nonzero;stroke:none"
         id="path56" /><path
         d="m 236.188,158.23 c -1.172,-1.527 0.585,-2.23 -0.469,-3.519 -1.055,-1.293 0.469,-1.762 -0.352,-3.285 -0.82,-1.528 0.586,-1.879 -0.469,-3.406 -1.054,-1.524 0.586,-2.7 -0.585,-4.223 -1.172,-1.524 0.585,-2.348 -0.469,-3.871 -1.055,-1.528 0.469,-2.348 -0.469,-3.52 -0.941,-1.176 0.703,-2.347 -0.469,-3.758 -1.176,-1.406 0.469,-2.46 -0.472,-3.753 -0.938,-1.29 0.355,-2.7 -0.469,-3.754 -0.82,-1.055 0.586,-2.582 -0.586,-3.989 -1.176,-1.41 0.234,-2.347 -0.469,-3.289 -0.707,-0.937 -1.262,-2.316 -0.586,-2.695"
         style="fill:#30ac41;fill-opacity:1;fill-rule:nonzero;stroke:none"
         id="path58" /><path
         d="m 239.941,156.82 c -0.582,-2.453 0.825,-4.632 0,-6.675 -0.82,-2.047 0.59,-2.864 0.122,-4.5 -0.469,-1.633 0.585,-2.864 -0.122,-4.633 -0.703,-1.774 0.942,-3.133 0,-5.453 -0.937,-2.317 0.61,-2.895 0,-5.18 -0.703,-2.656 1.176,-4.066 0,-5.941 -1.171,-1.879 1.059,-2.348 0.122,-4.461 -0.942,-2.11 0.585,-2.93 -0.122,-5.043"
         style="fill:#30ac41;fill-opacity:1;fill-rule:nonzero;stroke:none"
         id="path60" /><path
         d="m 246.16,158.699 c 1.293,-1.293 -0.234,-2.23 1.059,-3.754 1.289,-1.527 0.117,-2.347 1.172,-3.757 1.054,-1.407 -0.469,-2.11 0.707,-3.637 1.168,-1.524 -0.239,-2.461 1.054,-3.754 1.289,-1.289 -0.238,-2.465 1.055,-3.871 1.289,-1.41 -0.234,-2.348 1.055,-3.637 1.293,-1.293 -0.235,-2.699 1.058,-3.992 1.289,-1.289 -0.234,-2.934 1.172,-4.457 1.406,-1.527 -0.234,-2.699 0.938,-3.871 1.175,-1.176 0.121,-2.348 0.937,-3.168 l 0.59,-2.465"
         style="fill:#30ac41;fill-opacity:1;fill-rule:nonzero;stroke:none"
         id="path62" /><path
         d="m 243.699,158.23 c 1.172,-1.527 -0.586,-2.23 0.469,-3.519 1.055,-1.293 -0.469,-1.762 0.352,-3.285 0.824,-1.528 -0.586,-1.879 0.468,-3.406 1.055,-1.524 -0.586,-2.7 0.586,-4.223 1.176,-1.524 -0.586,-2.348 0.469,-3.871 1.059,-1.528 -0.469,-2.348 0.469,-3.52 0.941,-1.176 -0.699,-2.347 0.472,-3.758 1.172,-1.406 -0.472,-2.46 0.469,-3.753 0.938,-1.29 -0.351,-2.7 0.469,-3.754 0.82,-1.055 -0.586,-2.582 0.586,-3.989 1.176,-1.41 -0.235,-2.347 0.469,-3.289 0.707,-0.937 1.261,-2.316 0.589,-2.695"
         style="fill:#30ac41;fill-opacity:1;fill-rule:nonzero;stroke:none"
         id="path64" /><path
         d="m 231.996,152.891 -0.5,-1.703 c -1.055,-1.407 0.469,-2.11 -0.703,-3.637 -1.172,-1.524 0.234,-2.461 -1.059,-3.754 -1.289,-1.289 0.239,-2.465 -1.054,-3.871 -1.289,-1.41 0.234,-2.348 -1.055,-3.637 -1.289,-1.293 0.234,-2.699 -1.055,-3.992 -1.293,-1.289 0.235,-2.934 -1.175,-4.457 -1.407,-1.527 0.234,-2.699 -0.938,-3.871 -1.176,-1.176 -0.117,-2.348 -0.937,-3.168 1.406,1.054 1.406,2.695 2.46,3.519 1.059,0.821 -0.351,1.993 0.239,2.582 0.586,0.586 0.117,3.047 1.172,4.223 1.054,1.172 0.117,3.52 1.054,4.34 0.942,0.824 0.235,3.289 1.41,4.109 1.172,0.821 0,2.817 0.938,3.871 0.937,1.055 0,2.7 0.937,3.989 0.942,1.293 0.043,2.464 0.704,3.519 0.296,0.473 0.296,3.875 -0.438,1.938 v 0"
         style="fill:#f7bf09;fill-opacity:1;fill-rule:nonzero;stroke:none"
         id="path66" /><path
         d="m 235.367,151.426 c -0.82,-1.528 0.586,-1.879 -0.469,-3.406 -1.054,-1.524 0.586,-2.7 -0.585,-4.223 -1.172,-1.524 0.585,-2.348 -0.469,-3.871 -1.055,-1.528 0.469,-2.348 -0.469,-3.52 -0.941,-1.176 0.703,-2.347 -0.469,-3.758 -1.176,-1.406 0.469,-2.46 -0.472,-3.753 -0.938,-1.29 0.355,-2.7 -0.469,-3.754 -0.82,-1.055 0.586,-2.582 -0.586,-3.989 -1.176,-1.41 0.234,-2.347 -0.469,-3.289 1.41,0.473 0.879,2.407 1.41,2.821 l 0.641,3.812 c 0.824,0.703 -0.527,2.875 0.238,3.813 1.289,1.582 0.176,2.64 0.938,3.871 0.761,1.234 -0.289,2.812 0.293,3.636 0.996,1.411 -0.442,2.68 0.293,3.7 1.054,1.464 -0.203,2.672 0.527,3.636 1.113,1.465 -0.117,2.934 0.355,3.696 0.469,0.761 1.231,4.047 -0.238,4.578 v 0"
         style="fill:#f7bf09;fill-opacity:1;fill-rule:nonzero;stroke:none"
         id="path68" /><path
         d="m 239.941,150.145 c -0.82,-2.047 0.59,-2.864 0.122,-4.5 -0.469,-1.633 0.585,-2.864 -0.122,-4.633 -0.703,-1.774 0.942,-3.133 0,-5.453 -0.937,-2.317 0.61,-2.895 0,-5.18 -0.703,-2.656 1.176,-4.066 0,-5.941 -1.171,-1.879 1.344,-2.5 0.122,-4.461 -0.59,-0.938 0.054,-3.344 0.996,-0.469 0.937,2.875 -0.704,3.226 0.117,4.402 0.82,1.172 -0.293,4.281 0.058,5.926 0.356,1.641 -0.82,3.871 -0.058,5.629 0.762,1.762 -1.172,3.64 -0.41,5.164 0.761,1.523 -0.352,3.402 0.351,4.637 0.703,1.23 -0.527,2.875 -0.234,3.578 0.293,0.703 -0.293,3.304 -0.942,1.301 v 0"
         style="fill:#f7bf09;fill-opacity:1;fill-rule:nonzero;stroke:none"
         id="path70" /><path
         d="m 248.742,157.645 c 0,13.257 -1.875,17.832 -8.801,17.832 -6.921,0 -8.796,-4.575 -8.796,-17.832 h 17.597 v 0"
         style="fill:#ed192f;fill-opacity:1;fill-rule:nonzero;stroke:none"
         id="path72" /><path
         d="m 231.145,157.645 c 0,13.257 1.875,17.832 8.796,17.832 -3.168,0 -5.101,-2.461 -5.628,-4.106 -0.528,-1.641 -0.235,-1.523 0.468,-0.879 l -0.234,-1.527 -0.352,-2.231 c 0.821,0.707 1.465,-0.117 0.586,-1.347 -0.879,-1.231 -1.64,-4.106 -0.761,-3.11 0.878,0.996 1.054,-0.644 0.527,-1.464 v -1.176 l -0.059,-1.992 h -3.343 v 0"
         style="fill:#100f0d;fill-opacity:1;fill-rule:nonzero;stroke:none"
         id="path74" /><path
         d="m 247.395,158.406 c 0,10.383 -1.29,13.492 -3.872,14.547 -1.46,0.602 -1.503,0.473 -0.804,-0.469 0.699,-0.937 0.59,-2.285 -0.055,-1.347 -0.644,0.937 -0.859,1.113 -1.129,0.703 -0.265,-0.41 0.754,-2.348 1.504,-4.106 0.609,-1.418 0.219,-2.113 -0.695,-0.703 -0.914,1.407 -0.914,0.129 -0.114,-1.058 1.032,-1.524 0.997,-6.16 0.997,-8.094 l 4.168,0.527"
         style="fill:#100f0d;fill-opacity:1;fill-rule:nonzero;stroke:none"
         id="path76" /><path
         d="m 239.941,155.707 c 2.758,0 5.778,0.492 7.805,1.277 2.406,0.938 2.535,1.758 1.699,2.805 -0.586,0.738 -1.875,0.293 -3.105,-0.246 -1.235,-0.539 -4.637,-0.887 -6.399,-0.887 -1.757,0 -5.16,0.348 -6.39,0.887 -1.231,0.539 -2.524,0.984 -3.11,0.246 -0.832,-1.047 -0.707,-1.867 1.7,-2.805 2.027,-0.785 5.047,-1.277 7.8,-1.277"
         style="fill:#ed192f;fill-opacity:1;fill-rule:nonzero;stroke:none"
         id="path78" /><path
         d="m 266.695,173.262 c 0,0 1.805,-3.117 3.129,-5.391 1.324,-2.273 2.399,-2.793 3.36,-2.117 0.957,0.676 0.144,2.527 -0.625,3.406 l -4.993,5 -0.871,-0.898"
         style="fill:#b74d1f;fill-opacity:1;fill-rule:nonzero;stroke:none"
         id="path80" /><path
         d="m 266.883,173.238 c 0.32,-0.55 1.89,-3.258 3.074,-5.293 0.895,-1.535 1.715,-2.312 2.434,-2.312 l 0.703,0.246 0.359,0.648 -1.012,2.532 -4.875,4.886 z m 5.508,-7.91 v 0 c -0.848,0 -1.731,0.805 -2.696,2.465 -1.328,2.273 -3.132,5.391 -3.132,5.391 l -0.055,0.097 1.055,1.098 0.109,-0.106 5,-5.015 1.086,-2.766 -0.488,-0.863 -0.879,-0.301"
         style="fill:#f8bf09;fill-opacity:1;fill-rule:nonzero;stroke:none"
         id="path82" /><path
         d="m 266.266,173.02 c 0,0 0.714,-3.575 1.246,-6.184 0.527,-2.606 1.375,-3.473 2.492,-3.176 1.117,0.301 0.937,2.332 0.492,3.43 -0.445,1.101 -3.125,6.476 -3.125,6.476 l -1.105,-0.546 v 0"
         style="fill:#b74d1f;fill-opacity:1;fill-rule:nonzero;stroke:none"
         id="path84" /><path
         d="m 266.438,172.934 c 0.125,-0.629 0.75,-3.735 1.222,-6.067 0.481,-2.363 1.207,-3.355 2.305,-3.058 l 0.531,0.461 -0.141,2.761 c -0.402,0.985 -2.632,5.489 -3.054,6.328 z m 3.164,-9.481 c -1.051,0 -1.782,1.098 -2.243,3.356 -0.527,2.605 -1.242,6.183 -1.242,6.183 l -0.023,0.113 1.347,0.665 0.067,-0.137 c 0.109,-0.219 2.683,-5.395 3.129,-6.485 l 0.133,-3.011 -0.727,-0.621 -0.441,-0.063"
         style="fill:#f8bf09;fill-opacity:1;fill-rule:nonzero;stroke:none"
         id="path86" /><path
         d="m 265.504,172.906 c 0,0 -0.004,-3.652 0,-6.32 0.004,-2.664 0.664,-3.699 1.816,-3.652 1.153,0.046 1.375,2.074 1.157,3.246 -0.223,1.175 -1.782,7.019 -1.782,7.019 l -1.191,-0.293"
         style="fill:#b74d1f;fill-opacity:1;fill-rule:nonzero;stroke:none"
         id="path88" /><path
         d="m 265.656,172.789 c 0,-0.652 -0.004,-3.82 0,-6.203 0.004,-2.356 0.524,-3.5 1.59,-3.5 h 0.067 l 0.605,0.328 0.406,2.738 c -0.195,1.051 -1.496,5.957 -1.738,6.864 z m 1.59,-10.008 c -1.269,0 -1.891,1.242 -1.894,3.805 -0.004,2.668 0,6.32 0,6.32 v 0.121 l 1.453,0.356 0.035,-0.145 c 0.066,-0.238 1.566,-5.863 1.785,-7.027 0.176,-0.941 0.07,-2.309 -0.469,-2.988 l -0.832,-0.442 h -0.078"
         style="fill:#f8bf09;fill-opacity:1;fill-rule:nonzero;stroke:none"
         id="path90" /><path
         d="m 264.316,173.262 c 0,0 -1.804,-3.117 -3.128,-5.391 -1.325,-2.273 -2.399,-2.793 -3.356,-2.117 -0.961,0.676 -0.144,2.527 0.621,3.406 l 4.996,5 0.867,-0.898"
         style="fill:#b74d1f;fill-opacity:1;fill-rule:nonzero;stroke:none"
         id="path92" /><path
         d="m 263.445,173.945 -4.875,-4.886 -1.011,-2.532 0.359,-0.648 0.703,-0.246 c 0.723,0 1.539,0.777 2.434,2.312 1.187,2.035 2.758,4.743 3.074,5.293 z m -4.824,-8.617 -0.879,0.301 -0.488,0.863 1.086,2.766 5.004,5.015 0.105,0.106 1.059,-1.098 -0.059,-0.097 c 0,0 -1.804,-3.118 -3.129,-5.391 -0.968,-1.66 -1.847,-2.465 -2.699,-2.465"
         style="fill:#f8bf09;fill-opacity:1;fill-rule:nonzero;stroke:none"
         id="path94" /><path
         d="m 264.746,173.02 c 0,0 -0.715,-3.575 -1.242,-6.184 -0.531,-2.606 -1.379,-3.473 -2.496,-3.176 -1.117,0.301 -0.938,2.332 -0.488,3.43 0.445,1.101 3.121,6.476 3.121,6.476 l 1.105,-0.546 v 0"
         style="fill:#b74d1f;fill-opacity:1;fill-rule:nonzero;stroke:none"
         id="path96" /><path
         d="m 263.711,173.359 c -0.418,-0.839 -2.652,-5.343 -3.051,-6.328 l -0.144,-2.761 0.531,-0.461 c 1.101,-0.297 1.828,0.695 2.308,3.058 0.473,2.332 1.094,5.438 1.223,6.067 z m -2.301,-9.906 -0.441,0.063 -0.727,0.621 0.137,3.011 c 0.441,1.09 3.019,6.266 3.129,6.485 l 0.066,0.137 1.348,-0.665 -0.024,-0.113 c 0,0 -0.714,-3.578 -1.246,-6.183 -0.457,-2.258 -1.191,-3.356 -2.242,-3.356"
         style="fill:#f8bf09;fill-opacity:1;fill-rule:nonzero;stroke:none"
         id="path98" /><path
         d="m 265.508,172.906 c 0,0 0.004,-3.652 0,-6.32 -0.004,-2.664 -0.664,-3.699 -1.817,-3.652 -1.148,0.046 -1.375,2.074 -1.152,3.246 0.219,1.175 1.781,7.019 1.781,7.019 l 1.188,-0.293"
         style="fill:#b74d1f;fill-opacity:1;fill-rule:nonzero;stroke:none"
         id="path100" /><path
         d="m 264.43,173.016 c -0.242,-0.907 -1.543,-5.813 -1.742,-6.864 l 0.41,-2.738 0.601,-0.328 h 0.067 c 1.066,0 1.586,1.144 1.589,3.5 0.004,2.383 0,5.551 0,6.203 z m -0.664,-10.235 h -0.078 l -0.833,0.446 c -0.539,0.675 -0.644,2.043 -0.468,2.984 0.218,1.164 1.722,6.789 1.785,7.027 l 0.039,0.145 1.449,-0.356 v -0.121 c 0,0 0.004,-3.652 0,-6.32 -0.004,-2.563 -0.625,-3.805 -1.894,-3.805"
         style="fill:#f8bf09;fill-opacity:1;fill-rule:nonzero;stroke:none"
         id="path102" /><path
         d="m 267.508,201.02 c 0,0 2.941,3.125 8.086,6.25 5.148,3.125 8.871,5.527 9.558,4.996 0,-0.625 -4.41,-3.746 -8.086,-6.246 -3.675,-2.5 -8.089,-6.25 -8.089,-6.25 l -1.469,1.25 v 0"
         style="fill:#b74d1f;fill-opacity:1;fill-rule:nonzero;stroke:none"
         id="path104" /><path
         d="m 267.73,201.031 1.247,-1.058 c 0.675,0.566 4.664,3.902 8.003,6.172 6.586,4.476 7.793,5.707 7.989,6.035 l -0.086,0.008 c -0.934,0 -3.793,-1.743 -7.41,-3.954 l -1.797,-1.093 c -4.524,-2.746 -7.363,-5.52 -7.946,-6.11 z m 1.247,-1.461 -1.883,1.602 h 0.347 c 0.399,0.406 3.313,3.336 8.075,6.226 l 1.797,1.094 c 3.804,2.324 6.55,4 7.57,4 l 0.363,-0.105 0.059,-0.043 v -0.078 c 0,-0.227 0,-0.828 -8.153,-6.371 -3.629,-2.469 -8.031,-6.204 -8.078,-6.239 l -0.097,-0.086"
         style="fill:#f8bf09;fill-opacity:1;fill-rule:nonzero;stroke:none"
         id="path106" /><path
         d="m 267.848,198.52 c 0,0 2.906,1.835 8.484,4.375 5.488,2.253 13.234,1.875 13.234,1.25 -0.734,-0.625 -7.351,-0.625 -11.765,-2.5 -4.211,-1.79 -8.481,-4.372 -8.481,-4.372 l -1.472,1.247"
         style="fill:#b74d1f;fill-opacity:1;fill-rule:nonzero;stroke:none"
         id="path108" /><path
         d="m 268.105,198.5 1.231,-1.039 c 0.652,0.387 4.574,2.695 8.406,4.324 2.719,1.156 6.207,1.598 8.758,1.918 1.285,0.164 2.414,0.305 2.836,0.485 -0.297,0.117 -1.359,0.285 -3.113,0.285 -1.325,0 -5.95,-0.125 -9.832,-1.719 -4.739,-2.156 -7.575,-3.82 -8.286,-4.254 z m 1.2,-1.414 -1.715,1.453 0.176,0.109 c 0.031,0.02 2.98,1.872 8.504,4.387 3.937,1.617 8.613,1.742 9.953,1.742 1.05,0 3.496,-0.062 3.496,-0.632 v -0.071 l -0.055,-0.047 c -0.305,-0.257 -1.281,-0.39 -3.125,-0.625 -2.531,-0.32 -6,-0.757 -8.68,-1.894 -4.152,-1.77 -8.418,-4.34 -8.461,-4.367 l -0.093,-0.055"
         style="fill:#f8bf09;fill-opacity:1;fill-rule:nonzero;stroke:none"
         id="path110" /><path
         d="m 267.879,194.219 c 0,0 2.559,1.234 8.484,3.125 5.879,1.871 13.692,0.621 13.692,0 -0.739,-0.625 -7.075,-0.246 -11.489,-1.25 -4.562,-0.981 -9.214,-3.125 -9.214,-3.125 l -1.473,1.25 v 0"
         style="fill:#b74d1f;fill-opacity:1;fill-rule:nonzero;stroke:none"
         id="path112" /><path
         d="m 268.16,194.18 1.215,-1.032 c 0.668,0.297 4.977,2.196 9.16,3.094 2.383,0.539 5.293,0.68 7.633,0.793 1.629,0.078 3.176,0.153 3.672,0.356 -0.442,0.261 -2.902,0.789 -6.25,0.789 -1.867,0 -4.633,-0.172 -7.184,-0.985 -4.902,-1.562 -7.519,-2.687 -8.246,-3.015 z m 1.164,-1.391 -1.722,1.465 0.211,0.101 c 0.027,0.012 2.636,1.262 8.503,3.129 2.586,0.825 5.383,1 7.274,1 3.058,0 6.613,-0.5 6.613,-1.144 v -0.07 l -0.051,-0.043 c -0.363,-0.309 -1.609,-0.383 -3.968,-0.497 -2.329,-0.113 -5.227,-0.25 -7.582,-0.789 -4.497,-0.961 -9.141,-3.089 -9.188,-3.113 l -0.09,-0.039"
         style="fill:#f8bf09;fill-opacity:1;fill-rule:nonzero;stroke:none"
         id="path114" /><path
         d="m 268.16,189.848 c 0,0 2.949,2.504 9.235,3.125 6.32,0.625 11.468,-3.125 11.468,-3.75 -0.734,-0.625 -6.621,2.75 -11.031,2.265 -4.676,-0.48 -8.203,-2.89 -8.203,-2.89 l -1.469,1.25 v 0"
         style="fill:#b74d1f;fill-opacity:1;fill-rule:nonzero;stroke:none"
         id="path116" /><path
         d="m 268.398,189.84 1.243,-1.055 c 0.605,0.391 3.945,2.418 8.175,2.856 l 0.922,0.05 c 2.477,0 5.246,-0.964 7.27,-1.668 1.168,-0.406 2.094,-0.726 2.558,-0.726 l 0.106,0.008 c -0.43,0.668 -4.527,3.586 -9.852,3.586 l -1.414,-0.071 c -5.398,-0.535 -8.347,-2.492 -9.008,-2.98 z m 1.223,-1.434 -1.695,1.442 0.133,0.117 c 0.031,0.023 3.058,2.539 9.32,3.156 l 1.441,0.074 c 5.618,0 10.196,-3.195 10.196,-3.972 v -0.071 l -0.055,-0.047 -0.395,-0.113 c -0.515,0 -1.461,0.328 -2.66,0.746 -2.004,0.696 -4.746,1.649 -7.168,1.649 l -0.89,-0.047 c -4.578,-0.473 -8.098,-2.844 -8.133,-2.867 l -0.094,-0.067"
         style="fill:#f8bf09;fill-opacity:1;fill-rule:nonzero;stroke:none"
         id="path118" /><path
         d="m 266.695,203.594 c 0,0 4.739,3.125 4.739,5.621 0,2.5 -2.09,5 -2.68,6.25 1.184,0 3.867,-3.75 3.867,-6.25 0,-2.731 -4.457,-6.871 -4.457,-6.871 l -1.469,1.25"
         style="fill:#b74d1f;fill-opacity:1;fill-rule:nonzero;stroke:none"
         id="path120" /><path
         d="m 266.945,203.578 1.215,-1.031 c 0.649,0.629 4.309,4.258 4.309,6.672 0,2.226 -2.235,5.515 -3.43,6.027 l 0.531,-0.887 c 0.852,-1.367 2.016,-3.242 2.016,-5.14 0,-2.313 -3.777,-5.043 -4.641,-5.641 z m 1.227,-1.437 -1.731,1.468 0.168,0.11 c 0.047,0.031 4.672,3.109 4.672,5.5 0,1.812 -1.136,3.644 -1.968,4.98 l -0.7,1.199 -0.101,0.219 h 0.242 c 1.348,0 4.016,-3.89 4.016,-6.398 0,-2.77 -4.317,-6.817 -4.5,-6.989 l -0.098,-0.089"
         style="fill:#f8bf09;fill-opacity:1;fill-rule:nonzero;stroke:none"
         id="path122" /><path
         d="m 266.695,203.594 c 0,0 -0.593,1.875 -0.593,5.621 0,4.375 2.617,7.156 3.554,8.125 0.246,-0.969 -2.371,-4.375 -2.371,-8.125 0,-2.731 0.879,-6.871 0.879,-6.871 l -1.469,1.25"
         style="fill:#b74d1f;fill-opacity:1;fill-rule:nonzero;stroke:none"
         id="path124" /><path
         d="m 266.828,203.68 1.102,-0.938 c -0.223,1.137 -0.793,4.278 -0.793,6.477 0,2.324 0.98,4.496 1.695,6.078 l 0.656,1.641 c -2.148,-2.325 -3.234,-4.918 -3.234,-7.719 0,-3.383 0.492,-5.246 0.574,-5.539 z m 1.578,-1.742 -1.843,1.566 -0.012,0.043 c -0.028,0.078 -0.602,1.941 -0.602,5.672 0,3 1.211,5.769 3.602,8.226 l 0.187,0.196 0.067,-0.266 c 0.105,-0.426 -0.231,-1.172 -0.696,-2.203 -0.703,-1.559 -1.671,-3.695 -1.671,-5.953 0,-2.688 0.867,-6.805 0.875,-6.844 l 0.093,-0.437"
         style="fill:#f8bf09;fill-opacity:1;fill-rule:nonzero;stroke:none"
         id="path126" /><path
         d="m 263.508,201.02 c 0,0 -2.942,3.125 -8.09,6.25 -5.148,3.125 -8.871,5.527 -9.559,4.996 0,-0.625 4.411,-3.746 8.086,-6.246 3.68,-2.5 8.09,-6.25 8.09,-6.25 l 1.473,1.25 v 0"
         style="fill:#b74d1f;fill-opacity:1;fill-rule:nonzero;stroke:none"
         id="path128" /><path
         d="m 246.047,212.18 c 0.191,-0.328 1.394,-1.555 7.984,-6.035 3.34,-2.27 7.328,-5.606 8.004,-6.172 l 1.25,1.058 c -0.586,0.59 -3.43,3.367 -7.945,6.11 l -1.801,1.093 c -3.617,2.211 -6.476,3.954 -7.41,3.954 z m 15.988,-12.61 -0.097,0.086 c -0.043,0.035 -4.45,3.77 -8.079,6.239 -8.152,5.543 -8.152,6.144 -8.152,6.371 v 0.078 l 0.059,0.043 0.363,0.105 c 1.019,0 3.766,-1.676 7.57,-3.996 l 1.797,-1.098 c 5.106,-3.097 8.09,-6.242 8.121,-6.273 l 0.11,-0.117 -1.692,-1.438"
         style="fill:#f8bf09;fill-opacity:1;fill-rule:nonzero;stroke:none"
         id="path130" /><path
         d="m 263.164,198.52 c 0,0 -2.906,1.835 -8.48,4.375 -5.489,2.253 -13.239,1.875 -13.239,1.25 0.739,-0.625 7.356,-0.625 11.766,-2.5 4.211,-1.79 8.484,-4.372 8.484,-4.372 l 1.469,1.247 v 0"
         style="fill:#b74d1f;fill-opacity:1;fill-rule:nonzero;stroke:none"
         id="path132" /><path
         d="m 241.703,204.176 c 0.442,-0.172 1.551,-0.313 2.809,-0.473 2.551,-0.32 6.043,-0.762 8.761,-1.918 3.829,-1.629 7.754,-3.937 8.407,-4.324 l 1.226,1.039 c -0.711,0.434 -3.547,2.098 -8.289,4.258 -3.875,1.59 -8.5,1.715 -9.828,1.715 -1.691,0 -2.742,-0.16 -3.086,-0.297 z m 20.008,-7.09 -0.094,0.055 c -0.043,0.027 -4.312,2.601 -8.465,4.367 -2.679,1.137 -6.144,1.574 -8.675,1.894 -1.844,0.235 -2.821,0.368 -3.129,0.625 l -0.051,0.047 v 0.071 c 0,0.57 2.441,0.632 3.492,0.632 1.34,0 6.016,-0.125 9.949,-1.742 5.528,-2.515 8.481,-4.367 8.508,-4.387 l 0.176,-0.109 -1.711,-1.453"
         style="fill:#f8bf09;fill-opacity:1;fill-rule:nonzero;stroke:none"
         id="path134" /><path
         d="m 263.133,194.219 c 0,0 -2.559,1.234 -8.481,3.125 -5.882,1.871 -13.691,0.621 -13.691,0 0.734,-0.625 7.074,-0.246 11.484,-1.25 4.567,-0.981 9.219,-3.125 9.219,-3.125 l 1.469,1.25 v 0"
         style="fill:#b74d1f;fill-opacity:1;fill-rule:nonzero;stroke:none"
         id="path136" /><path
         d="m 241.195,197.383 c 0.516,-0.199 2.043,-0.274 3.649,-0.348 2.34,-0.113 5.254,-0.254 7.636,-0.793 4.18,-0.898 8.489,-2.797 9.157,-3.094 l 1.215,1.032 c -0.727,0.328 -3.344,1.453 -8.247,3.015 -2.55,0.813 -5.312,0.985 -7.179,0.985 -3.289,0 -5.723,-0.508 -6.231,-0.797 z m 20.493,-4.594 -0.09,0.039 c -0.043,0.024 -4.688,2.152 -9.184,3.113 -2.359,0.539 -5.258,0.676 -7.586,0.789 -2.355,0.114 -3.605,0.188 -3.969,0.497 l -0.05,0.043 v 0.07 c 0,0.644 3.554,1.144 6.617,1.144 1.89,0 4.683,-0.175 7.269,-1 5.868,-1.867 8.481,-3.117 8.504,-3.129 l 0.211,-0.101 -1.722,-1.465"
         style="fill:#f8bf09;fill-opacity:1;fill-rule:nonzero;stroke:none"
         id="path138" /><path
         d="m 262.855,189.848 c 0,0 -2.953,2.504 -9.234,3.125 -6.324,0.625 -11.469,-3.125 -11.469,-3.75 0.735,-0.625 6.618,2.75 11.028,2.265 4.675,-0.48 8.203,-2.89 8.203,-2.89 l 1.472,1.25"
         style="fill:#b74d1f;fill-opacity:1;fill-rule:nonzero;stroke:none"
         id="path140" /><path
         d="m 252.273,191.691 0.926,-0.05 c 4.227,-0.438 7.567,-2.465 8.172,-2.856 l 1.242,1.055 c -0.66,0.488 -3.605,2.445 -9.008,2.98 l -1.414,0.071 c -5.316,0 -9.414,-2.911 -9.851,-3.586 l 0.105,-0.008 c 0.465,0 1.391,0.32 2.563,0.726 2.019,0.704 4.793,1.668 7.265,1.668 z m 9.122,-3.285 -0.098,0.067 c -0.035,0.023 -3.555,2.394 -8.133,2.867 l -0.891,0.047 c -2.421,0 -5.164,-0.953 -7.168,-1.649 -1.195,-0.418 -2.144,-0.746 -2.66,-0.746 l -0.394,0.113 -0.051,0.047 v 0.071 c 0,0.777 4.578,3.972 10.191,3.972 l 1.446,-0.074 c 6.258,-0.617 9.285,-3.133 9.316,-3.156 l 0.137,-0.117 -1.695,-1.442"
         style="fill:#f8bf09;fill-opacity:1;fill-rule:nonzero;stroke:none"
         id="path142" /><path
         d="m 264.316,203.594 c 0,0 -4.738,3.125 -4.738,5.621 0,2.5 2.09,5 2.684,6.25 -1.188,0 -3.867,-3.75 -3.867,-6.25 0,-2.731 4.453,-6.871 4.453,-6.871 l 1.468,1.25"
         style="fill:#b74d1f;fill-opacity:1;fill-rule:nonzero;stroke:none"
         id="path144" /><path
         d="m 261.977,215.246 c -1.2,-0.512 -3.43,-3.801 -3.43,-6.027 0,-2.414 3.656,-6.043 4.308,-6.672 l 1.211,1.031 c -0.863,0.598 -4.64,3.328 -4.64,5.641 0,1.898 1.164,3.773 2.015,5.14 z m 0.867,-13.105 -0.102,0.089 c -0.183,0.172 -4.5,4.219 -4.5,6.989 0,2.508 2.668,6.398 4.02,6.398 h 0.238 l -0.102,-0.219 -0.699,-1.199 c -0.832,-1.336 -1.969,-3.168 -1.969,-4.98 0,-2.391 4.625,-5.469 4.672,-5.5 l 0.168,-0.11 -1.726,-1.468"
         style="fill:#f8bf09;fill-opacity:1;fill-rule:nonzero;stroke:none"
         id="path146" /><path
         d="m 264.316,203.594 c 0,0 0.594,1.875 0.594,5.621 0,4.375 -2.613,7.156 -3.555,8.125 -0.246,-0.969 2.372,-4.375 2.372,-8.125 0,-2.731 -0.879,-6.871 -0.879,-6.871 l 1.468,1.25"
         style="fill:#b74d1f;fill-opacity:1;fill-rule:nonzero;stroke:none"
         id="path148" /><path
         d="m 261.527,216.938 0.657,-1.641 c 0.714,-1.586 1.695,-3.754 1.695,-6.078 0,-2.199 -0.57,-5.34 -0.793,-6.477 l 1.102,0.938 c 0.082,0.293 0.57,2.156 0.57,5.539 0,2.801 -1.086,5.394 -3.231,7.719 z m 1.078,-15 0.094,0.437 c 0.008,0.039 0.875,4.156 0.875,6.844 0,2.258 -0.965,4.394 -1.668,5.953 -0.468,1.031 -0.804,1.777 -0.699,2.203 l 0.066,0.266 0.192,-0.196 c 2.387,-2.457 3.598,-5.226 3.598,-8.226 0,-3.731 -0.575,-5.594 -0.598,-5.672 l -0.016,-0.043 -1.844,-1.566"
         style="fill:#f8bf09;fill-opacity:1;fill-rule:nonzero;stroke:none"
         id="path150" /><path
         d="m 280.914,158.605 c -1.84,4.317 -2.367,11.872 -2.367,13.122 0,3.519 1.101,20.636 1.183,27.492 0.083,6.855 -4.148,10.621 -8.296,10.621 -3.555,0 -5.922,-2.496 -5.922,-6.246 h 1.773 c 0,2.5 1.781,4.375 4.149,4.375 3.554,0 6.289,-2.953 6.519,-8.75 0.254,-6.696 -0.715,-24.086 -0.594,-28.742 0.121,-4.657 1.715,-8.805 3.555,-11.872"
         style="fill:#b74d1f;fill-opacity:1;fill-rule:nonzero;stroke:none"
         id="path152" /><path
         d="m 280.914,158.605 3.449,1.473 c -1.453,3.168 -2.129,10.977 -2.066,11.649 -0.008,1.496 0.269,6.757 0.555,12.304 0.285,5.59 0.586,11.574 0.628,15.145 v 0.242 c 0.008,4.137 -1.316,7.703 -3.546,10.223 -2.219,2.515 -5.317,3.953 -8.5,3.953 -2.645,0.015 -5.243,-0.996 -7.016,-2.891 -1.789,-1.879 -2.668,-4.457 -2.66,-7.109 v -3.75 h 5.527 3.754 v 3.75 l 0.156,0.543 0.239,0.078 1.562,-0.774 c 0.512,-0.628 1.121,-2.023 1.207,-4.371 0.027,-0.707 0.039,-1.597 0.039,-2.605 0.004,-7.16 -0.64,-19.817 -0.644,-25.031 l 0.011,-1.055 c 0.153,-5.461 1.981,-10.184 4.09,-13.703 l 6.664,3.402 -3.449,-1.473 3.215,1.934 c -1.574,2.609 -2.93,6.188 -3.02,10.035 l -0.011,0.86 c 0,4.796 0.644,17.562 0.648,25.031 0,1.07 -0.016,2.043 -0.047,2.898 -0.14,3.45 -1.015,6.43 -2.816,8.731 -1.774,2.308 -4.625,3.664 -7.449,3.625 -2.18,0.011 -4.262,-0.906 -5.684,-2.422 -1.434,-1.504 -2.219,-3.567 -2.215,-5.703 h 3.75 v 3.75 h -1.773 v -3.75 h 3.75 c 0.008,1.097 0.312,1.64 0.597,1.949 0.301,0.293 0.668,0.527 1.575,0.547 1.769,-0.043 4.429,-1.508 4.546,-6.672 v -0.156 c -0.039,-3.285 -0.335,-9.285 -0.621,-14.848 -0.285,-5.605 -0.562,-10.664 -0.566,-12.687 0.062,-1.825 0.445,-9.133 2.672,-14.594 l 3.449,1.472 3.215,1.934 -3.215,-1.934"
         style="fill:#f8bf09;fill-opacity:1;fill-rule:nonzero;stroke:none"
         id="path154" /><path
         d="m 250.098,158.605 c 1.843,4.317 2.371,11.872 2.371,13.122 0,3.519 -1.102,20.636 -1.184,27.492 -0.086,6.855 4.145,10.621 8.293,10.621 3.555,0 5.926,-2.496 5.926,-6.246 h -1.777 c 0,2.5 -1.778,4.375 -4.149,4.375 -3.555,0 -6.285,-2.953 -6.515,-8.75 -0.254,-6.696 0.71,-24.086 0.589,-28.742 -0.121,-4.657 -1.711,-8.805 -3.554,-11.872"
         style="fill:#b74d1f;fill-opacity:1;fill-rule:nonzero;stroke:none"
         id="path156" /><path
         d="m 250.098,158.605 3.449,-1.472 c 2.23,5.461 2.613,12.769 2.672,14.594 -0.004,2.023 -0.281,7.082 -0.567,12.687 -0.285,5.563 -0.578,11.563 -0.617,14.852 l -0.004,0.152 c 0.117,5.164 2.782,6.629 4.547,6.672 0.91,-0.02 1.274,-0.254 1.574,-0.547 0.286,-0.309 0.59,-0.852 0.602,-1.949 h 3.75 v 3.75 h -1.777 v -3.75 h 3.75 c 0.003,2.136 -0.782,4.199 -2.215,5.703 -1.418,1.516 -3.504,2.433 -5.684,2.422 -2.82,0.039 -5.672,-1.317 -7.445,-3.625 -1.805,-2.301 -2.68,-5.281 -2.82,-8.727 -0.032,-0.859 -0.043,-1.828 -0.043,-2.898 0,-7.473 0.648,-20.239 0.644,-25.039 l -0.008,-0.856 c -0.093,-3.847 -1.449,-7.426 -3.023,-10.035 l 3.215,-1.934 3.449,-1.472 -3.449,1.472 3.215,-1.929 c 2.109,3.519 3.941,8.242 4.089,13.707 l 0.012,1.047 c -0.004,5.215 -0.648,17.875 -0.644,25.039 0,1.004 0.011,1.894 0.039,2.609 0.089,2.34 0.699,3.735 1.207,4.363 l 1.562,0.774 0.242,-0.078 0.157,-0.543 v -3.75 h 5.527 3.75 v 3.75 c 0.012,2.652 -0.867,5.23 -2.656,7.109 -1.778,1.895 -4.371,2.906 -7.02,2.891 -3.183,0 -6.277,-1.438 -8.496,-3.953 -2.234,-2.52 -3.559,-6.086 -3.551,-10.223 l 0.004,-0.246 c 0.043,-3.567 0.34,-9.551 0.625,-15.141 0.289,-5.547 0.563,-10.808 0.559,-12.304 0.058,-0.672 -0.614,-8.481 -2.071,-11.649 l 6.665,-3.402 -3.215,1.929"
         style="fill:#f8bf09;fill-opacity:1;fill-rule:nonzero;stroke:none"
         id="path158" /><path
         d="m 265.508,172.977 c 3.312,0.05 3.68,1.25 3.68,1.25 l 0.367,3.125 -4.047,0.625 v -5"
         style="fill:#b74d1f;fill-opacity:1;fill-rule:nonzero;stroke:none"
         id="path160" /><path
         d="m 265.66,177.824 v -4.691 c 2.985,0.078 3.375,1.129 3.383,1.14 0.273,0.938 0.625,2.586 0.379,3 -0.215,0.368 -2.277,0.54 -3.762,0.551 z m -0.301,-5 v 5.305 h 0.153 l 4.172,-0.699 -0.352,-3.246 c -0.016,-0.055 -0.437,-1.309 -3.82,-1.36 h -0.153"
         style="fill:#f8bf09;fill-opacity:1;fill-rule:nonzero;stroke:none"
         id="path162" /><path
         d="m 265.508,175.477 c 3.555,0 4.148,1.25 4.148,1.25 l 0.594,3.125 -4.742,0.625 v -5"
         style="fill:#b74d1f;fill-opacity:1;fill-rule:nonzero;stroke:none"
         id="path164" /><path
         d="m 265.66,180.32 v -4.691 c 3.25,0.035 3.856,1.152 3.86,1.164 0.441,0.93 1,2.551 0.617,2.953 -0.383,0.406 -2.883,0.567 -4.477,0.574 z m -0.152,-4.996 h -0.153 v 5.301 h 0.153 l 4.851,-0.672 -0.566,-3.293 c -0.023,-0.055 -0.676,-1.336 -4.285,-1.336"
         style="fill:#f8bf09;fill-opacity:1;fill-rule:nonzero;stroke:none"
         id="path166" /><path
         d="m 265.508,177.977 c 2.965,0 4.742,1.25 4.742,1.25 l 0.594,3.121 -5.336,0.625 v -4.996 0"
         style="fill:#b74d1f;fill-opacity:1;fill-rule:nonzero;stroke:none"
         id="path168" /><path
         d="m 265.66,182.82 v -4.691 c 2.574,0.039 4.223,1.039 4.469,1.199 0.437,0.938 0.976,2.524 0.601,2.914 -0.386,0.41 -3.25,0.571 -5.07,0.578 z m -0.152,-4.996 h -0.153 v 5.305 h 0.153 l 5.445,-0.676 -0.566,-3.293 -0.051,-0.058 c -0.074,-0.051 -1.852,-1.278 -4.828,-1.278"
         style="fill:#f8bf09;fill-opacity:1;fill-rule:nonzero;stroke:none"
         id="path170" /><path
         d="m 265.508,181.102 c 5.34,0.046 5.336,1.601 5.336,1.601 l 0.59,3.125 -5.926,0.27 v -4.996"
         style="fill:#b74d1f;fill-opacity:1;fill-rule:nonzero;stroke:none"
         id="path172" /><path
         d="m 265.66,185.953 v -4.699 c 4.903,0.074 5.028,1.441 5.031,1.457 l 0.012,0.059 c 0.442,0.929 1,2.554 0.621,2.953 -0.094,0.097 -0.551,0.324 -2.801,0.324 -1.214,0 -2.453,-0.067 -2.863,-0.094 z m -0.305,-5.008 v 5.297 l 0.145,0.008 c 0.016,0 1.535,0.102 3.023,0.102 2.356,0 2.852,-0.239 3.024,-0.418 l -0.555,-3.266 c -0.027,-0.297 -0.429,-1.676 -5.48,-1.719 l -0.157,-0.004"
         style="fill:#f8bf09;fill-opacity:1;fill-rule:nonzero;stroke:none"
         id="path174" /><path
         d="m 265.508,183.598 c 5.34,0.05 5.926,1.25 5.926,1.25 l 0.593,3.125 -6.519,0.625 v -5"
         style="fill:#b74d1f;fill-opacity:1;fill-rule:nonzero;stroke:none"
         id="path176" /><path
         d="m 265.66,188.445 v -4.691 c 4.957,0.066 5.633,1.156 5.641,1.168 0.437,0.922 0.996,2.547 0.617,2.945 -0.391,0.41 -3.98,0.571 -6.258,0.578 z m -0.301,-5 v 5.305 h 0.153 c 1,0 6.019,-0.031 6.625,-0.672 l -0.567,-3.293 c -0.062,-0.137 -0.781,-1.289 -6.058,-1.34 h -0.153"
         style="fill:#f8bf09;fill-opacity:1;fill-rule:nonzero;stroke:none"
         id="path178" /><path
         d="m 265.508,186.723 c 5.34,0.05 6.519,1.25 6.519,1.25 l 0.59,3.125 -7.109,0.625 v -5"
         style="fill:#b74d1f;fill-opacity:1;fill-rule:nonzero;stroke:none"
         id="path180" /><path
         d="m 265.66,191.57 v -4.691 c 4.727,0.062 6.082,1.055 6.242,1.187 0.438,0.934 0.981,2.532 0.606,2.926 -0.391,0.41 -4.34,0.571 -6.848,0.578 z m -0.305,-5 v 5.301 h 0.153 c 1.101,0 6.613,-0.027 7.222,-0.672 l -0.566,-3.293 -0.027,-0.039 c -0.051,-0.051 -1.289,-1.246 -6.625,-1.297 h -0.157"
         style="fill:#f8bf09;fill-opacity:1;fill-rule:nonzero;stroke:none"
         id="path182" /><path
         d="m 265.508,189.848 c 5.34,0.047 7.109,1.25 7.109,1.25 v 3.125 l -7.109,0.621 v -4.996"
         style="fill:#b74d1f;fill-opacity:1;fill-rule:nonzero;stroke:none"
         id="path184" /><path
         d="M 265.66,194.691 V 190 c 4.633,0.063 6.512,1.012 6.824,1.191 l 0.024,2.926 c -0.391,0.41 -4.34,0.571 -6.848,0.574 z m -0.305,-5 v 5.305 h 0.153 c 1.101,0 6.613,-0.031 7.222,-0.672 l 0.036,-3.261 -0.012,-0.059 -0.051,-0.035 c -0.074,-0.047 -1.871,-1.227 -7.191,-1.274 l -0.157,-0.004"
         style="fill:#f8bf09;fill-opacity:1;fill-rule:nonzero;stroke:none"
         id="path186" /><path
         d="m 265.508,192.973 c 5.34,0.047 7.109,1.25 7.109,1.25 l -0.59,3.121 -6.519,0.625 v -4.996"
         style="fill:#b74d1f;fill-opacity:1;fill-rule:nonzero;stroke:none"
         id="path188" /><path
         d="m 265.66,197.816 v -4.691 c 4.547,0.063 6.442,0.977 6.805,1.184 l -0.547,2.929 c -0.391,0.414 -3.98,0.575 -6.258,0.578 z m -0.305,-5 v 5.305 h 0.153 c 1,0 6.023,-0.031 6.629,-0.672 l 0.633,-3.226 v -0.082 l -0.067,-0.047 c -0.074,-0.047 -1.871,-1.227 -7.191,-1.274 l -0.157,-0.004"
         style="fill:#f8bf09;fill-opacity:1;fill-rule:nonzero;stroke:none"
         id="path190" /><path
         d="m 265.508,196.094 c 5.34,0.051 6.519,1.25 6.519,1.25 l -0.593,3.125 -5.926,0.625 v -5 0"
         style="fill:#b74d1f;fill-opacity:1;fill-rule:nonzero;stroke:none"
         id="path192" /><path
         d="m 265.66,200.941 v -4.691 c 4.52,0.063 5.957,0.969 6.215,1.164 l -0.551,2.949 c -0.39,0.41 -3.613,0.571 -5.664,0.578 z m -0.305,-5 v 5.305 h 0.153 l 6.039,-0.672 0.633,-3.23 v -0.063 l -0.043,-0.043 c -0.051,-0.05 -1.289,-1.246 -6.625,-1.297 h -0.157"
         style="fill:#f8bf09;fill-opacity:1;fill-rule:nonzero;stroke:none"
         id="path194" /><path
         d="m 265.508,203.934 c 4.152,-0.004 5.945,-3.614 5.937,-3.539 l -1.195,-1.176 -4.691,-0.621 -0.051,5.336 v 0"
         style="fill:#b74d1f;fill-opacity:1;fill-rule:nonzero;stroke:none"
         id="path196" /><path
         d="m 265.664,203.777 0.047,-5.027 c 1.531,0.008 4.012,0.164 4.43,0.578 l 1.109,1.09 c -0.633,1.031 -2.379,3.285 -5.586,3.359 z m -0.051,-5.332 -0.207,0.149 -0.051,5.492 h 0.153 c 3.512,-0.004 5.387,-2.488 6.031,-3.559 l 0.027,-0.043 0.129,-0.105 -0.144,-0.094 -1.196,-1.176 -4.742,-0.664"
         style="fill:#f8bf09;fill-opacity:1;fill-rule:nonzero;stroke:none"
         id="path198" /><path
         d="m 265.504,172.977 c -3.313,0.05 -3.676,1.25 -3.676,1.25 l -0.367,3.125 4.043,0.625 v -5 0"
         style="fill:#b74d1f;fill-opacity:1;fill-rule:nonzero;stroke:none"
         id="path200" /><path
         d="m 265.352,177.824 c -1.485,-0.011 -3.547,-0.183 -3.762,-0.551 -0.242,-0.414 0.105,-2.062 0.383,-3.003 0,0 0.394,-1.059 3.379,-1.137 z m 0.304,-5 h -0.152 c -3.387,0.051 -3.805,1.305 -3.824,1.36 l -0.352,3.246 4.176,0.699 h 0.152 v -5.305"
         style="fill:#f8bf09;fill-opacity:1;fill-rule:nonzero;stroke:none"
         id="path202" /><path
         d="m 265.504,175.477 c -3.555,0 -4.149,1.25 -4.149,1.25 l -0.589,3.125 4.738,0.625 v -5"
         style="fill:#b74d1f;fill-opacity:1;fill-rule:nonzero;stroke:none"
         id="path204" /><path
         d="m 265.352,180.32 c -1.59,-0.007 -4.09,-0.168 -4.477,-0.574 -0.379,-0.402 0.176,-2.023 0.617,-2.957 0.008,-0.008 0.61,-1.125 3.86,-1.16 z m 0.304,-4.996 h -0.152 c -3.609,0 -4.262,1.281 -4.285,1.336 l -0.567,3.293 4.852,0.672 h 0.152 v -5.301"
         style="fill:#f8bf09;fill-opacity:1;fill-rule:nonzero;stroke:none"
         id="path206" /><path
         d="m 265.504,177.977 c -2.961,0 -4.738,1.25 -4.738,1.25 l -0.594,3.121 5.332,0.625 v -4.996"
         style="fill:#b74d1f;fill-opacity:1;fill-rule:nonzero;stroke:none"
         id="path208" /><path
         d="m 260.883,179.328 c 0.246,-0.16 1.894,-1.16 4.469,-1.199 v 4.691 c -1.821,-0.007 -4.68,-0.168 -5.071,-0.578 -0.375,-0.39 0.164,-1.976 0.602,-2.914 z m 4.773,-1.504 h -0.152 c -2.977,0 -4.754,1.227 -4.828,1.278 l -0.031,0.023 -0.02,0.035 -0.566,3.293 5.445,0.676 h 0.152 v -5.305"
         style="fill:#f8bf09;fill-opacity:1;fill-rule:nonzero;stroke:none"
         id="path210" /><path
         d="m 265.504,181.102 c -5.336,0.046 -5.332,1.601 -5.332,1.601 l -0.594,3.125 5.926,0.27 v -4.996"
         style="fill:#b74d1f;fill-opacity:1;fill-rule:nonzero;stroke:none"
         id="path212" /><path
         d="m 262.488,186.047 c -2.25,0 -2.707,-0.227 -2.8,-0.324 -0.379,-0.399 0.179,-2.024 0.621,-2.953 l 0.015,-0.067 c 0,-0.008 0.129,-1.375 5.028,-1.449 v 4.699 c -0.411,0.027 -1.649,0.094 -2.864,0.094 z m 3.168,-5.102 -0.152,0.004 c -5.055,0.043 -5.457,1.422 -5.484,1.719 l -0.551,3.266 c 0.168,0.179 0.668,0.418 3.019,0.418 1.492,0 3.012,-0.102 3.028,-0.102 l 0.14,-0.008 v -5.297"
         style="fill:#f8bf09;fill-opacity:1;fill-rule:nonzero;stroke:none"
         id="path214" /><path
         d="m 265.504,183.598 c -5.336,0.05 -5.926,1.25 -5.926,1.25 l -0.594,3.125 6.52,0.625 v -5 0"
         style="fill:#b74d1f;fill-opacity:1;fill-rule:nonzero;stroke:none"
         id="path216" /><path
         d="m 265.352,188.445 c -2.278,-0.007 -5.864,-0.168 -6.254,-0.578 -0.379,-0.398 0.175,-2.023 0.617,-2.953 0.004,-0.004 0.68,-1.094 5.637,-1.16 z m 0.304,-5 h -0.152 c -5.281,0.051 -5.996,1.203 -6.063,1.336 l -0.566,3.297 c 0.609,0.641 5.629,0.672 6.629,0.672 h 0.152 v -5.305"
         style="fill:#f8bf09;fill-opacity:1;fill-rule:nonzero;stroke:none"
         id="path218" /><path
         d="m 265.504,186.723 c -5.336,0.05 -6.52,1.25 -6.52,1.25 l -0.589,3.125 7.109,0.625 v -5"
         style="fill:#b74d1f;fill-opacity:1;fill-rule:nonzero;stroke:none"
         id="path220" /><path
         d="m 259.109,188.066 c 0.157,-0.128 1.512,-1.125 6.243,-1.187 v 4.691 c -2.504,-0.007 -6.457,-0.168 -6.848,-0.578 -0.375,-0.394 0.168,-1.992 0.605,-2.926 z m 6.547,-1.496 h -0.152 c -5.34,0.051 -6.578,1.246 -6.625,1.297 l -0.031,0.039 -0.567,3.293 c 0.61,0.645 6.125,0.672 7.223,0.672 h 0.152 v -5.301"
         style="fill:#f8bf09;fill-opacity:1;fill-rule:nonzero;stroke:none"
         id="path222" /><path
         d="m 265.504,189.848 c -5.336,0.047 -7.109,1.25 -7.109,1.25 v 3.125 l 7.109,0.621 v -4.996"
         style="fill:#b74d1f;fill-opacity:1;fill-rule:nonzero;stroke:none"
         id="path224" /><path
         d="m 258.527,191.191 c 0.317,-0.179 2.196,-1.128 6.825,-1.191 v 4.691 c -2.504,-0.003 -6.457,-0.164 -6.848,-0.574 z m 7.129,-1.5 -0.152,0.004 c -5.324,0.047 -7.121,1.227 -7.195,1.274 l -0.051,0.035 -0.012,0.059 0.035,3.261 c 0.61,0.641 6.125,0.672 7.223,0.672 h 0.152 v -5.305"
         style="fill:#f8bf09;fill-opacity:1;fill-rule:nonzero;stroke:none"
         id="path226" /><path
         d="m 265.504,192.973 c -5.336,0.047 -7.109,1.25 -7.109,1.25 l 0.589,3.121 6.52,0.625 v -4.996"
         style="fill:#b74d1f;fill-opacity:1;fill-rule:nonzero;stroke:none"
         id="path228" /><path
         d="m 258.547,194.309 c 0.363,-0.207 2.262,-1.121 6.805,-1.184 v 4.691 c -2.278,-0.003 -5.864,-0.164 -6.254,-0.578 z m 7.109,-1.493 -0.152,0.004 c -5.324,0.047 -7.121,1.227 -7.195,1.274 l -0.067,0.047 v 0.082 l 0.633,3.226 c 0.609,0.641 5.629,0.672 6.629,0.672 h 0.152 v -5.305"
         style="fill:#f8bf09;fill-opacity:1;fill-rule:nonzero;stroke:none"
         id="path230" /><path
         d="m 265.504,196.094 c -5.336,0.051 -6.52,1.25 -6.52,1.25 l 0.594,3.125 5.926,0.625 v -5"
         style="fill:#b74d1f;fill-opacity:1;fill-rule:nonzero;stroke:none"
         id="path232" /><path
         d="m 259.141,197.414 c 0.254,-0.191 1.687,-1.101 6.211,-1.164 v 4.691 c -2.047,-0.007 -5.274,-0.168 -5.664,-0.578 z m 6.515,-1.473 h -0.152 c -5.34,0.051 -6.578,1.247 -6.625,1.297 l -0.043,0.043 v 0.063 l 0.633,3.23 6.035,0.672 h 0.152 v -5.305"
         style="fill:#f8bf09;fill-opacity:1;fill-rule:nonzero;stroke:none"
         id="path234" /><path
         d="m 265.504,203.934 c -4.152,-0.004 -5.945,-3.614 -5.934,-3.539 l 1.196,-1.176 4.687,-0.621 0.051,5.336 v 0"
         style="fill:#b74d1f;fill-opacity:1;fill-rule:nonzero;stroke:none"
         id="path236" /><path
         d="m 259.762,200.418 1.109,-1.09 c 0.418,-0.414 2.899,-0.57 4.434,-0.578 l 0.047,5.027 c -3.211,-0.074 -4.957,-2.328 -5.59,-3.359 z m 5.636,-1.973 -4.742,0.664 -1.312,1.297 0.082,0.067 0.035,0.246 0.078,-0.082 c 0.703,1.121 2.566,3.445 5.965,3.449 h 0.152 l -0.051,-5.488 -0.207,-0.153"
         style="fill:#f8bf09;fill-opacity:1;fill-rule:nonzero;stroke:none"
         id="path238" /></g></g></svg>
