<?xml version="1.0" encoding="UTF-8" standalone="no"?>
<svg
   xmlns:dc="http://purl.org/dc/elements/1.1/"
   xmlns:cc="http://creativecommons.org/ns#"
   xmlns:rdf="http://www.w3.org/1999/02/22-rdf-syntax-ns#"
   xmlns:svg="http://www.w3.org/2000/svg"
   xmlns="http://www.w3.org/2000/svg"
   version="1.1"
   id="svg2"
   xml:space="preserve"
   width="42.666668"
   height="42.666668"
   viewBox="0 0 42.666668 42.666668"><metadata
     id="metadata8"><rdf:RDF><cc:Work
         rdf:about=""><dc:format>image/svg+xml</dc:format><dc:type
           rdf:resource="http://purl.org/dc/dcmitype/StillImage" /></cc:Work></rdf:RDF></metadata><defs
     id="defs6" /><g
     id="g10"
     transform="matrix(1.3333333,0,0,-1.3333333,0,42.666667)"><g
       id="g12"
       transform="scale(0.1)"><path
         d="M 105.668,9.50391 V 310.48 c 16.98,6.129 35.27,9.473 54.359,9.473 19.098,0 37.375,-3.344 54.36,-9.473 V 9.50391 c -16.985,-6.10938 -35.262,-9.457035 -54.36,-9.457035 -19.089,0 -37.379,3.347655 -54.359,9.457035"
         style="fill:#fac807;fill-opacity:1;fill-rule:evenodd;stroke:none"
         id="path14" /><path
         d="M 105.668,310.48 V 9.52344 C 44.0742,31.7656 0,90.75 0,160 0,229.25 44.0742,288.211 105.668,310.48"
         style="fill:#212d5d;fill-opacity:1;fill-rule:evenodd;stroke:none"
         id="path16" /><path
         d="M 214.387,9.52344 V 310.48 C 275.98,288.211 320,229.25 320,160 320,90.75 275.98,31.7656 214.387,9.52344"
         style="fill:#c71b31;fill-opacity:1;fill-rule:evenodd;stroke:none"
         id="path18" /></g></g></svg>
