<?xml version="1.0" encoding="UTF-8" standalone="no"?>
<svg
   xmlns:dc="http://purl.org/dc/elements/1.1/"
   xmlns:cc="http://creativecommons.org/ns#"
   xmlns:rdf="http://www.w3.org/1999/02/22-rdf-syntax-ns#"
   xmlns:svg="http://www.w3.org/2000/svg"
   xmlns="http://www.w3.org/2000/svg"
   version="1.1"
   id="svg2"
   xml:space="preserve"
   width="42.666668"
   height="42.666668"
   viewBox="0 0 42.666668 42.666668"><metadata
     id="metadata8"><rdf:RDF><cc:Work
         rdf:about=""><dc:format>image/svg+xml</dc:format><dc:type
           rdf:resource="http://purl.org/dc/dcmitype/StillImage" /></cc:Work></rdf:RDF></metadata><defs
     id="defs6" /><g
     id="g10"
     transform="matrix(1.3333333,0,0,-1.3333333,0,42.666667)"><g
       id="g12"
       transform="scale(0.1)"><path
         d="M 31.6367,64.2773 C 58.0547,28.8047 98.8047,4.58203 145.207,0.285156 h 29.586 C 221.164,4.58203 261.945,28.8047 288.375,64.2773 H 31.6367"
         style="fill:#21684c;fill-opacity:1;fill-rule:evenodd;stroke:none"
         id="path14" /><path
         d="M 31.5938,64.3047 H 288.395 c 13.882,18.6445 23.812,40.4183 28.531,64.0113 H 3.07422 C 7.79297,104.723 17.7031,82.9492 31.5938,64.3047"
         style="fill:#facc07;fill-opacity:1;fill-rule:evenodd;stroke:none"
         id="path16" /><path
         d="M 159.984,319.629 H 145.207 C 63.9648,312.109 0,243.465 0,160.305 0,149.34 1.10547,138.652 3.21484,128.316 H 159.984 v 191.313"
         style="fill:#d41b34;fill-opacity:1;fill-rule:evenodd;stroke:none"
         id="path18" /><path
         d="m 79.7695,223.234 c 3.6524,11.051 7.1758,22.114 10.7578,33.075 3.5899,-10.961 7.0821,-22.024 10.8437,-33.075 11.465,0 23.027,0.137 34.5,-0.089 -9.242,-6.641 -18.496,-13.485 -27.84,-20.145 3.164,-11.129 7.172,-21.895 10.489,-33.012 -9.485,6.606 -18.6684,13.567 -27.9927,20.184 -9.414,-6.617 -18.5195,-13.578 -27.9921,-20.184 3.2929,11.117 7.3125,21.883 10.4882,33.012 -9.3437,6.66 -18.6093,13.504 -27.8632,20.145 11.4804,0.226 23.0546,0 34.6093,0.089"
         style="fill:#ffffff;fill-opacity:1;fill-rule:nonzero;stroke:none"
         id="path20" /><path
         d="M 316.637,192.293 H 159.984 v -63.977 h 156.922 c 2.039,10.129 3.094,20.579 3.094,31.293 0,11.184 -1.164,22.129 -3.363,32.684"
         style="fill:#21684c;fill-opacity:1;fill-rule:evenodd;stroke:none"
         id="path22" /><path
         d="m 159.984,192.32 h 156.653 c -4.946,23.637 -15.145,45.399 -29.328,63.989 H 159.984 V 192.32"
         style="fill:#facc07;fill-opacity:1;fill-rule:evenodd;stroke:none"
         id="path24" /><path
         d="m 159.984,256.309 h 127.325 c -29.254,38.418 -75.469,63.32 -127.325,63.32 v -63.32"
         style="fill:#21684c;fill-opacity:1;fill-rule:evenodd;stroke:none"
         id="path26" /></g></g></svg>
