<?xml version="1.0" encoding="UTF-8" standalone="no"?>
<svg
   xmlns:dc="http://purl.org/dc/elements/1.1/"
   xmlns:cc="http://creativecommons.org/ns#"
   xmlns:rdf="http://www.w3.org/1999/02/22-rdf-syntax-ns#"
   xmlns:svg="http://www.w3.org/2000/svg"
   xmlns="http://www.w3.org/2000/svg"
   version="1.1"
   id="svg2"
   xml:space="preserve"
   width="42.666668"
   height="42.666668"
   viewBox="0 0 42.666668 42.666668"><metadata
     id="metadata8"><rdf:RDF><cc:Work
         rdf:about=""><dc:format>image/svg+xml</dc:format><dc:type
           rdf:resource="http://purl.org/dc/dcmitype/StillImage" /></cc:Work></rdf:RDF></metadata><defs
     id="defs6" /><g
     id="g10"
     transform="matrix(1.3333333,0,0,-1.3333333,0,42.666667)"><g
       id="g12"
       transform="scale(0.1)"><path
         d="M 9.48047,214.164 H 310.52 c 6.132,-16.984 9.48,-35.273 9.48,-54.324 0,-19.094 -3.348,-37.383 -9.48,-54.363 H 9.48047 C 3.36719,122.457 0,140.746 0,159.84 c 0,19.051 3.36719,37.34 9.48047,54.324"
         style="fill:#22214a;fill-opacity:1;fill-rule:evenodd;stroke:none"
         id="path14" /><path
         d="M 278.773,267 H 41.2422 C 27.4766,251.77 16.5977,233.848 9.48047,214.164 H 310.52 C 303.418,233.848 292.547,251.77 278.773,267"
         style="fill:#ffffff;fill-opacity:1;fill-rule:evenodd;stroke:none"
         id="path16" /><path
         d="M 278.773,267 C 249.5,299.441 207.133,319.844 160,319.844 112.863,319.844 70.4961,299.441 41.2422,267 H 278.773"
         style="fill:#ec1d27;fill-opacity:1;fill-rule:nonzero;stroke:none"
         id="path18" /><path
         d="M 41.2461,52.6367 H 278.777 c 13.77,15.2344 24.621,33.1563 31.743,52.8403 H 9.48047 C 16.6016,85.793 27.4766,67.8711 41.2461,52.6367"
         style="fill:#ffffff;fill-opacity:1;fill-rule:evenodd;stroke:none"
         id="path20" /><path
         d="M 41.2422,52.6367 C 70.4961,20.1953 112.863,-0.15625 160,-0.15625 c 47.133,0 89.5,20.35155 118.773,52.79295 H 41.2422"
         style="fill:#ec1d27;fill-opacity:1;fill-rule:nonzero;stroke:none"
         id="path22" /></g></g></svg>
