<?xml version="1.0" encoding="UTF-8" standalone="no"?>
<svg
   xmlns:dc="http://purl.org/dc/elements/1.1/"
   xmlns:cc="http://creativecommons.org/ns#"
   xmlns:rdf="http://www.w3.org/1999/02/22-rdf-syntax-ns#"
   xmlns:svg="http://www.w3.org/2000/svg"
   xmlns="http://www.w3.org/2000/svg"
   version="1.1"
   id="svg2"
   xml:space="preserve"
   width="42.666668"
   height="42.666668"
   viewBox="0 0 42.666668 42.666668"><metadata
     id="metadata8"><rdf:RDF><cc:Work
         rdf:about=""><dc:format>image/svg+xml</dc:format><dc:type
           rdf:resource="http://purl.org/dc/dcmitype/StillImage" /></cc:Work></rdf:RDF></metadata><defs
     id="defs6" /><g
     id="g10"
     transform="matrix(1.3333333,0,0,-1.3333333,0,42.666667)"><g
       id="g12"
       transform="scale(0.1)"><path
         d="M 9.47656,214.18 H 310.523 c 6.129,-16.996 9.477,-35.278 9.477,-54.328 0,-19.094 -3.348,-37.395 -9.477,-54.368 H 9.47656 C 3.36719,122.457 0,140.758 0,159.852 c 0,19.05 3.36719,37.332 9.47656,54.328"
         style="fill:#ffffff;fill-opacity:1;fill-rule:evenodd;stroke:none"
         id="path14" /><path
         d="M 310.523,214.18 H 9.47656 C 31.7422,275.781 90.7383,319.84 160,319.84 c 69.285,0 128.277,-44.059 150.523,-105.66"
         style="fill:#cd1e25;fill-opacity:1;fill-rule:evenodd;stroke:none"
         id="path16" /><path
         d="M 9.47656,105.484 H 310.523 C 288.277,43.8828 229.285,-0.152344 160,-0.152344 90.7383,-0.152344 31.7422,43.8828 9.47656,105.484"
         style="fill:#22632f;fill-opacity:1;fill-rule:evenodd;stroke:none"
         id="path18" /><path
         d="m 153.031,167.453 c 0.43,3.125 2.887,5.582 6.012,6.012 3.848,0.531 7.398,-2.16 7.926,-6.012 -2.754,0.563 -5.559,-0.691 -6.969,-3.125 -1.41,2.434 -4.215,3.688 -6.969,3.125 z m 29.395,-23.976 c -2.024,-1.903 -4.629,-3.067 -7.395,-3.317 -6.836,-0.613 -12.879,4.434 -13.492,11.27 v 9.824 c 0.066,2.258 1.953,4.031 4.211,3.965 1.41,-0.047 2.699,-0.813 3.41,-2.035 1.68,5.058 -1.062,10.523 -6.121,12.199 -5.059,1.68 -10.523,-1.063 -12.199,-6.121 -0.656,-1.973 -0.656,-4.106 0,-6.078 1.137,1.953 3.637,2.617 5.59,1.48 1.222,-0.711 1.988,-2 2.031,-3.41 v -9.824 c -0.613,-6.836 -6.656,-11.883 -13.492,-11.27 -2.766,0.25 -5.371,1.414 -7.395,3.317 -2.64,-6.633 -10.16,-9.868 -16.789,-7.223 -0.976,0.387 -1.898,0.894 -2.754,1.508 1.196,-11.918 19.059,-9.485 20.391,2.101 5.609,-9.851 17.945,-7.031 21.558,5.032 h 0.04 c 3.613,-12.063 15.949,-14.883 21.558,-5.032 1.332,-11.586 19.195,-14.019 20.391,-2.101 -0.856,-0.614 -1.778,-1.121 -2.754,-1.508 -6.629,-2.645 -14.149,0.59 -16.789,7.223"
         style="fill:#f4bf0a;fill-opacity:1;fill-rule:nonzero;stroke:none"
         id="path20" /><path
         d="m 146.535,130.27 v 0 0 z"
         style="fill:#f4bf0a;fill-opacity:1;fill-rule:nonzero;stroke:none"
         id="path22" /><path
         d="m 146.535,130.27 c 0,0 -1.265,0.757 -3.89,0.418 -0.375,1.695 -1.864,3.156 -2.93,3.882 -1.016,-1.117 -1.738,-3.187 -1.387,-4.683 -1.875,-0.34 -3.625,-1.578 -3.625,-1.578 4.356,-4.344 9.336,-3.422 11.832,1.961"
         style="fill:#f4bf0a;fill-opacity:1;fill-rule:nonzero;stroke:none"
         id="path24" /><path
         d="m 166.031,130.879 c 0,0 -1.121,0.953 -3.765,1.047 -0.098,1.734 -1.328,3.418 -2.262,4.308 -1.184,-0.937 -2.231,-2.863 -2.129,-4.398 -1.906,-0.031 -3.836,-0.969 -3.836,-0.969 3.594,-4.992 8.656,-4.89 11.992,0.012"
         style="fill:#f4bf0a;fill-opacity:1;fill-rule:nonzero;stroke:none"
         id="path26" /><path
         d="m 166.031,130.879 v 0 0 z"
         style="fill:#f4bf0a;fill-opacity:1;fill-rule:nonzero;stroke:none"
         id="path28" /><path
         d="m 180.297,134.57 c -1.324,-0.734 -2.672,-2.461 -2.82,-3.992 -1.883,0.277 -3.942,-0.332 -3.942,-0.332 2.731,-5.512 7.746,-6.234 11.836,-1.941 0,0 -0.953,1.125 -3.547,1.644 0.188,1.731 -0.754,3.59 -1.527,4.621"
         style="fill:#f4bf0a;fill-opacity:1;fill-rule:nonzero;stroke:none"
         id="path30" /><path
         d="m 185.371,128.305 v 0 0 z"
         style="fill:#f4bf0a;fill-opacity:1;fill-rule:nonzero;stroke:none"
         id="path32" /><path
         d="m 127.395,121.191 1.742,-5.851 c 20.191,6.008 41.535,6.008 61.726,0 l 1.742,5.851 c -21.332,6.348 -43.878,6.348 -65.21,0"
         style="fill:#f4bf0a;fill-opacity:1;fill-rule:nonzero;stroke:none"
         id="path34" /><path
         d="m 157.027,195.164 -1.836,-5.648 4.809,3.492 4.809,-3.492 -1.836,5.648 4.804,3.492 h -5.941 l -1.836,5.653 -1.836,-5.653 h -5.941 l 4.804,-3.492"
         style="fill:#f4bf0a;fill-opacity:1;fill-rule:nonzero;stroke:none"
         id="path36" /><path
         d="m 134.129,189.027 -1.84,-5.648 4.809,3.492 4.808,-3.492 -1.836,5.648 4.809,3.496 h -5.945 l -1.836,5.653 -1.836,-5.653 h -5.942 l 4.809,-3.496"
         style="fill:#f4bf0a;fill-opacity:1;fill-rule:nonzero;stroke:none"
         id="path38" /><path
         d="m 117.363,172.266 -1.84,-5.653 4.809,3.492 4.809,-3.492 -1.836,5.653 4.808,3.492 h -5.945 l -1.836,5.648 -1.836,-5.648 h -5.941 l 4.808,-3.492"
         style="fill:#f4bf0a;fill-opacity:1;fill-rule:nonzero;stroke:none"
         id="path40" /><path
         d="m 114.195,147.203 4.809,-3.492 -1.836,5.652 4.809,3.492 h -5.946 l -1.836,5.653 -1.836,-5.653 h -5.941 l 4.809,-3.492 -1.836,-5.652 4.804,3.492"
         style="fill:#f4bf0a;fill-opacity:1;fill-rule:nonzero;stroke:none"
         id="path42" /><path
         d="m 179.93,189.027 -1.836,-5.648 4.808,3.492 4.809,-3.492 -1.84,5.648 4.809,3.496 h -5.942 l -1.836,5.653 -1.836,-5.653 h -5.945 l 4.809,-3.496"
         style="fill:#f4bf0a;fill-opacity:1;fill-rule:nonzero;stroke:none"
         id="path44" /><path
         d="m 196.695,172.266 -1.836,-5.653 4.809,3.492 4.809,-3.492 -1.836,5.649 4.804,3.496 h -5.941 l -1.836,5.648 -1.836,-5.648 h -5.945 l 4.808,-3.492"
         style="fill:#f4bf0a;fill-opacity:1;fill-rule:nonzero;stroke:none"
         id="path46" /><path
         d="m 208.773,149.363 4.809,3.492 h -5.941 l -1.836,5.653 -1.836,-5.653 h -5.946 l 4.809,-3.492 -1.836,-5.652 4.809,3.492 4.804,-3.492 -1.836,5.652"
         style="fill:#f4bf0a;fill-opacity:1;fill-rule:nonzero;stroke:none"
         id="path48" /></g></g></svg>
