<?xml version="1.0" encoding="UTF-8" standalone="no"?>
<svg
   xmlns:dc="http://purl.org/dc/elements/1.1/"
   xmlns:cc="http://creativecommons.org/ns#"
   xmlns:rdf="http://www.w3.org/1999/02/22-rdf-syntax-ns#"
   xmlns:svg="http://www.w3.org/2000/svg"
   xmlns="http://www.w3.org/2000/svg"
   version="1.1"
   id="svg2"
   xml:space="preserve"
   width="42.666668"
   height="42.666668"
   viewBox="0 0 42.666668 42.666668"><metadata
     id="metadata8"><rdf:RDF><cc:Work
         rdf:about=""><dc:format>image/svg+xml</dc:format><dc:type
           rdf:resource="http://purl.org/dc/dcmitype/StillImage" /></cc:Work></rdf:RDF></metadata><defs
     id="defs6" /><g
     id="g10"
     transform="matrix(1.3333333,0,0,-1.3333333,0,42.666667)"><g
       id="g12"
       transform="scale(0.1)"><path
         d="M 159.988,-0.160156 C 248.113,-0.160156 320,71.7227 320,159.848 320,247.977 248.113,319.84 159.988,319.84 71.8633,319.84 0,247.977 0,159.848 0,71.7227 71.8633,-0.160156 159.988,-0.160156"
         style="fill:#273375;fill-opacity:1;fill-rule:evenodd;stroke:none"
         id="path14" /><path
         d="m 67.9375,235.43 c 0.6797,2.05 1.3203,4.121 2.0273,6.168 0.6485,-2.067 1.3243,-4.118 1.9961,-6.192 2.1954,-0.019 4.3594,0 6.5352,0.024 -1.7422,-1.293 -3.5156,-2.567 -5.2852,-3.844 0.6407,-2.07 1.3438,-4.137 2.0391,-6.211 -1.7695,1.277 -3.543,2.57 -5.3125,3.84 -1.7734,-1.297 -3.5195,-2.563 -5.293,-3.867 0.7305,2.078 1.4024,4.144 2.0235,6.238 -1.7461,1.301 -3.5157,2.551 -5.2852,3.844 2.1875,-0.024 4.3867,-0.043 6.5547,0"
         style="fill:#ffffff;fill-opacity:1;fill-rule:nonzero;stroke:none"
         id="path16" /><path
         d="m 103.652,210.801 c 0.571,-1.727 1.121,-3.446 1.692,-5.141 1.824,-0.023 3.648,0 5.445,0.028 -1.449,-1.098 -2.941,-2.149 -4.422,-3.223 0.559,-1.746 1.125,-3.469 1.731,-5.195 -1.477,1.078 -2.946,2.152 -4.418,3.203 -1.5,-1.024 -2.973,-2.125 -4.4222,-3.203 0.5469,1.726 1.1522,3.449 1.6762,5.195 -1.4692,1.094 -2.9731,2.144 -4.4418,3.223 1.8164,-0.028 3.6598,-0.051 5.4848,-0.028 0.578,1.727 1.125,3.414 1.675,5.141"
         style="fill:#ffffff;fill-opacity:1;fill-rule:nonzero;stroke:none"
         id="path18" /><path
         d="m 28.5898,195.855 c 0.7969,1.946 1.1446,4.067 2.1172,5.938 0.6524,-1.969 1.2735,-3.969 1.918,-5.938 2.1992,-0.019 4.3945,-0.019 6.5938,0.024 -1.7969,-1.274 -3.543,-2.543 -5.3165,-3.844 0.625,-2.094 1.3204,-4.168 1.9961,-6.238 -1.7461,1.305 -3.4882,2.598 -5.2656,3.867 -1.793,-1.269 -3.543,-2.562 -5.293,-3.867 0.6758,2.07 1.3946,4.144 1.9961,6.238 -1.7421,1.301 -3.5429,2.57 -5.2851,3.844 2.1914,-0.043 4.3672,-0.043 6.539,-0.024"
         style="fill:#ffffff;fill-opacity:1;fill-rule:nonzero;stroke:none"
         id="path20" /><path
         d="m 67.6172,133.766 c 0.7969,2.398 1.5469,4.82 2.3476,7.207 0.7461,-2.41 1.5508,-4.809 2.3438,-7.231 2.543,0 5.0898,0 7.6328,0.047 -2.043,-1.492 -4.1328,-2.965 -6.1836,-4.512 0.7735,-2.422 1.5469,-4.82 2.3711,-7.242 -2.0742,1.5 -4.125,3.043 -6.1914,4.488 -2.0703,-1.492 -4.1094,-2.988 -6.1602,-4.488 0.793,2.403 1.5977,4.82 2.3711,7.242 -2.0312,1.547 -4.125,3.02 -6.164,4.512 2.5351,-0.047 5.0898,-0.047 7.6328,-0.023"
         style="fill:#ffffff;fill-opacity:1;fill-rule:nonzero;stroke:none"
         id="path22" /><path
         d="m 67.0938,104.957 c -3.0508,0.023 28.6796,16.91 55.2382,38.539 34.809,28.352 109.773,73.734 131.813,81.109 2.3,0.774 -4.727,-3.921 -5.637,-5.445 -23.531,-27.847 -4.75,-80.402 24.656,-106.82 8.844,-6.766 8.391,-7.117 24.781,-7.781 v -1.532 l -230.8512,1.93 v 0"
         style="fill:#f9cf07;fill-opacity:1;fill-rule:nonzero;stroke:none"
         id="path24" /><path
         d="m 65.1797,101.887 c 0,0 -2.2383,-1.602 -2.2305,-2.7932 0.0039,-1.3204 2.5078,-3.0704 2.5078,-3.0704 l 227.703,-2.5078 4.188,2.7891 -5.864,3.6289 -226.3043,1.9534 v 0"
         style="fill:#f9cf07;fill-opacity:1;fill-rule:nonzero;stroke:none"
         id="path26" /></g></g></svg>
