<?xml version="1.0" encoding="UTF-8" standalone="no"?>
<svg
   xmlns:dc="http://purl.org/dc/elements/1.1/"
   xmlns:cc="http://creativecommons.org/ns#"
   xmlns:rdf="http://www.w3.org/1999/02/22-rdf-syntax-ns#"
   xmlns:svg="http://www.w3.org/2000/svg"
   xmlns="http://www.w3.org/2000/svg"
   version="1.1"
   id="svg2"
   xml:space="preserve"
   width="42.666668"
   height="42.666668"
   viewBox="0 0 42.666668 42.666668"><metadata
     id="metadata8"><rdf:RDF><cc:Work
         rdf:about=""><dc:format>image/svg+xml</dc:format><dc:type
           rdf:resource="http://purl.org/dc/dcmitype/StillImage" /></cc:Work></rdf:RDF></metadata><defs
     id="defs6" /><g
     id="g10"
     transform="matrix(1.3333333,0,0,-1.3333333,0,42.666667)"><g
       id="g12"
       transform="scale(0.1)"><path
         d="m 160.016,-0.0507813 c 88.136,0 159.996,71.8788813 159.996,160.0037813 0,88.106 -71.86,160.008 -159.996,160.008 C 71.9063,319.961 0.0117188,248.059 0.0117188,159.953 0.0117188,71.8281 71.9063,-0.0507813 160.016,-0.0507813"
         style="fill:#e71d25;fill-opacity:1;fill-rule:evenodd;stroke:none"
         id="path14" /><path
         d="m 153.695,192.082 c -13.117,-7.41 -20.64,-23.309 -17.992,-38.144 2.231,-14.653 14.074,-27.153 28.531,-30.243 11.774,-2.687 24.715,0.75 33.454,9.035 -5.122,-7.035 -12.239,-12.597 -20.29,-15.859 -14.168,-5.816 -31.214,-3.953 -43.804,4.867 -12.715,8.657 -20.578,23.946 -20.082,39.379 0.289,14.973 8.367,29.535 20.941,37.664 12.449,8.336 29.067,9.973 42.906,4.289 8.09,-3.211 15.207,-8.828 20.329,-15.863 -11.485,11.078 -30.333,13.121 -43.993,4.875 z m 41.297,-48.523 c -6.418,2.086 -12.836,4.179 -19.262,6.289 -4.039,-5.457 -7.898,-10.989 -11.945,-16.383 0,6.742 0,13.488 0,20.226 -6.379,2.129 -12.844,4.086 -19.164,6.313 6.379,2.059 12.785,4.16 19.164,6.25 0,6.73 0,13.476 0,20.211 4.047,-5.383 7.906,-10.914 11.945,-16.356 6.426,2.09 12.844,4.188 19.262,6.274 -3.957,-5.438 -7.855,-10.875 -11.863,-16.289 3.726,-5.656 7.949,-10.965 11.863,-16.535 z m 26.403,25.027 c -2.133,15.801 -10.743,30.566 -23.399,40.301 -11.293,8.875 -25.777,13.57 -40.16,12.972 -19.348,-0.476 -38.035,-10.785 -48.906,-26.785 -9.6878,-13.863 -13.1214,-31.789 -9.4886,-48.301 3.4176,-16.043 13.6246,-30.507 27.4536,-39.207 13.027,-8.2652 29.171,-11.3394 44.281,-8.5465 15.961,2.8435 30.554,12.3285 39.773,25.6255 8.867,12.621 12.645,28.668 10.446,43.941"
         style="fill:#ffffff;fill-opacity:1;fill-rule:nonzero;stroke:none"
         id="path16" /></g></g></svg>
