<?xml version="1.0" encoding="UTF-8" standalone="no"?>
<svg
   xmlns:dc="http://purl.org/dc/elements/1.1/"
   xmlns:cc="http://creativecommons.org/ns#"
   xmlns:rdf="http://www.w3.org/1999/02/22-rdf-syntax-ns#"
   xmlns:svg="http://www.w3.org/2000/svg"
   xmlns="http://www.w3.org/2000/svg"
   version="1.1"
   id="svg2"
   xml:space="preserve"
   width="42.666668"
   height="42.666668"
   viewBox="0 0 42.666668 42.666668"><metadata
     id="metadata8"><rdf:RDF><cc:Work
         rdf:about=""><dc:format>image/svg+xml</dc:format><dc:type
           rdf:resource="http://purl.org/dc/dcmitype/StillImage" /></cc:Work></rdf:RDF></metadata><defs
     id="defs6" /><g
     id="g10"
     transform="matrix(1.3333333,0,0,-1.3333333,0,42.666667)"><g
       id="g12"
       transform="scale(0.1)"><path
         d="M 160,199.844 V 319.996 C 85.6289,319.977 22.832,268.797 5.03516,199.844 H 160"
         style="fill:#ffffff;fill-opacity:1;fill-rule:nonzero;stroke:none"
         id="path14" /><path
         d="m 128.063,269.477 h -26.086 v 26.082 H 75.3086 V 269.477 H 49.2461 v -26.649 h 26.0625 v -26.082 h 26.6684 v 26.082 h 26.086 v 26.649"
         style="fill:#c11e24;fill-opacity:1;fill-rule:evenodd;stroke:none"
         id="path16" /><path
         d="M 160,319.996 V 199.844 H 5.03516 C 1.75,187.094 0,173.738 0,159.988 0,71.8711 71.8516,-0.00390625 159.988,-0.00390625 248.129,-0.00390625 320,71.8711 320,159.988 c 0,88.137 -71.863,160.004 -160,160.008"
         style="fill:#c11e24;fill-opacity:1;fill-rule:evenodd;stroke:none"
         id="path18" /></g></g></svg>
