<?xml version="1.0" encoding="UTF-8" standalone="no"?>
<svg
   xmlns:dc="http://purl.org/dc/elements/1.1/"
   xmlns:cc="http://creativecommons.org/ns#"
   xmlns:rdf="http://www.w3.org/1999/02/22-rdf-syntax-ns#"
   xmlns:svg="http://www.w3.org/2000/svg"
   xmlns="http://www.w3.org/2000/svg"
   version="1.1"
   id="svg2"
   xml:space="preserve"
   width="42.666668"
   height="42.666668"
   viewBox="0 0 42.666668 42.666668"><metadata
     id="metadata8"><rdf:RDF><cc:Work
         rdf:about=""><dc:format>image/svg+xml</dc:format><dc:type
           rdf:resource="http://purl.org/dc/dcmitype/StillImage" /></cc:Work></rdf:RDF></metadata><defs
     id="defs6" /><g
     id="g10"
     transform="matrix(1.3333333,0,0,-1.3333333,0,42.666667)"><g
       id="g12"
       transform="scale(0.1)"><path
         d="M 159.988,-0.078125 C 248.109,-0.078125 320,71.8164 320,159.961 320,248.105 248.109,319.992 159.988,319.992 71.8555,319.992 0,248.105 0,159.961 0,71.8164 71.8555,-0.078125 159.988,-0.078125"
         style="fill:#e41d25;fill-opacity:1;fill-rule:evenodd;stroke:none"
         id="path14" /><path
         d="m 87.6953,229.25 c 20.2537,8.922 44.3087,8.621 64.3207,-0.695 13.351,-6.211 25.156,-16.114 32.945,-28.582 -12.981,13.925 -32.484,21.609 -51.539,19.832 -20.746,-1.602 -40.1134,-14.285 -49.9142,-32.52 -9.8164,-17.629 -10.2773,-39.941 -1.2461,-57.961 8.6406,-17.691 26.0043,-30.8787 45.4413,-34.1873 20.945,-3.9375 43.434,3.7696 57.742,19.6213 -9.687,-15.1799 -24.757,-26.8674 -41.886,-32.4338 -19.411,-6.3789 -41.286,-4.9023 -59.5199,4.3164 -17.3477,8.6133 -31.3438,23.8554 -38.3399,41.9334 -7.5898,19.348 -7.0781,41.758 1.5508,60.696 7.9023,17.71 22.6328,32.312 40.4453,39.98"
         style="fill:#ffffff;fill-opacity:1;fill-rule:evenodd;stroke:none"
         id="path16" /><path
         d="m 212.852,166.121 0.113,28.125 c 6.14,-7.215 10.906,-15.348 16.808,-22.676 8.993,2.539 17.657,6.301 26.825,8.489 l -16.348,-22.793 16.414,-23.036 -26.934,8.504 -16.703,-22.675 -0.175,28.171 -26.762,8.743 26.762,9.148"
         style="fill:#ffffff;fill-opacity:1;fill-rule:evenodd;stroke:none"
         id="path18" /></g></g></svg>
