<?xml version="1.0" encoding="UTF-8" standalone="no"?>
<svg
   xmlns:dc="http://purl.org/dc/elements/1.1/"
   xmlns:cc="http://creativecommons.org/ns#"
   xmlns:rdf="http://www.w3.org/1999/02/22-rdf-syntax-ns#"
   xmlns:svg="http://www.w3.org/2000/svg"
   xmlns="http://www.w3.org/2000/svg"
   version="1.1"
   id="svg2"
   xml:space="preserve"
   width="42.666668"
   height="42.666668"
   viewBox="0 0 42.666668 42.666668"><metadata
     id="metadata8"><rdf:RDF><cc:Work
         rdf:about=""><dc:format>image/svg+xml</dc:format><dc:type
           rdf:resource="http://purl.org/dc/dcmitype/StillImage" /></cc:Work></rdf:RDF></metadata><defs
     id="defs6" /><g
     id="g10"
     transform="matrix(1.3333333,0,0,-1.3333333,0,42.666667)"><g
       id="g12"
       transform="scale(0.1)"><path
         d="m 27.875,250.254 c 11.2344,16.422 25.4453,30.637 41.875,41.871 L 292.125,69.7461 C 280.891,53.3359 266.66,39.1133 250.25,27.8672 L 27.875,250.254"
         style="fill:#100f0d;fill-opacity:1;fill-rule:evenodd;stroke:none"
         id="path14" /><path
         d="M 27.875,250.254 250.25,27.8672 C 246,24.9727 241.621,22.2695 237.105,19.7773 L 19.7734,237.105 c 2.4883,4.524 5.1954,8.911 8.1016,13.149"
         style="fill:#ffffff;fill-opacity:1;fill-rule:evenodd;stroke:none"
         id="path16" /><path
         d="M 19.8438,237.035 C 7.25,214.172 0,187.949 0,160.004 0,71.625 71.6406,0 160,0 c 27.945,0 54.176,7.25 77.039,19.8438 L 19.8438,237.035"
         style="fill:#d01e27;fill-opacity:1;fill-rule:evenodd;stroke:none"
         id="path18" /><path
         d="M 82.8867,300.227 300.215,82.9063 c -2.488,-4.5352 -5.184,-8.9102 -8.09,-13.1602 L 69.75,292.125 c 4.2383,2.918 8.6289,5.605 13.1367,8.102"
         style="fill:#ffffff;fill-opacity:1;fill-rule:evenodd;stroke:none"
         id="path20" /><path
         d="m 300.102,83.0234 0.011,-0.0078 C 312.734,105.859 320,132.059 320,160.004 320,248.371 248.348,320 160,320 132.055,320 105.824,312.754 82.9609,300.152 L 300.102,83.0234"
         style="fill:#d01e27;fill-opacity:1;fill-rule:nonzero;stroke:none"
         id="path22" /></g></g></svg>
