<?xml version="1.0" encoding="UTF-8" standalone="no"?>
<svg
   xmlns:dc="http://purl.org/dc/elements/1.1/"
   xmlns:cc="http://creativecommons.org/ns#"
   xmlns:rdf="http://www.w3.org/1999/02/22-rdf-syntax-ns#"
   xmlns:svg="http://www.w3.org/2000/svg"
   xmlns="http://www.w3.org/2000/svg"
   version="1.1"
   id="svg2"
   xml:space="preserve"
   width="42.666668"
   height="42.666668"
   viewBox="0 0 42.666668 42.666668"><metadata
     id="metadata8"><rdf:RDF><cc:Work
         rdf:about=""><dc:format>image/svg+xml</dc:format><dc:type
           rdf:resource="http://purl.org/dc/dcmitype/StillImage" /></cc:Work></rdf:RDF></metadata><defs
     id="defs6" /><g
     id="g10"
     transform="matrix(1.3333333,0,0,-1.3333333,0,42.666667)"><g
       id="g12"
       transform="scale(0.1)"><path
         d="m 159.996,319.988 c -0.016,0 -0.027,0 -0.043,0 V 199.887 H 5.04688 C 1.75391,187.121 0,173.754 0,159.988 0,71.8789 71.8438,0.0117188 159.996,0.0117188 248.105,0.0117188 320,71.8789 320,159.988 c 0,88.129 -71.895,160 -160.004,160"
         style="fill:#5e97b2;fill-opacity:1;fill-rule:evenodd;stroke:none"
         id="path14" /><path
         d="M 159.953,199.887 V 319.988 C 85.5977,319.961 22.8281,268.809 5.03516,199.887 H 159.953"
         style="fill:#273375;fill-opacity:1;fill-rule:nonzero;stroke:none"
         id="path16" /><path
         d="m 50.1406,272.625 c 0,1.195 0,2.359 0,3.531 -1.2148,-1.144 -2.4218,-2.336 -3.5898,-3.531 1.2109,0 2.4219,0 3.5898,0"
         style="fill:#ffffff;fill-opacity:1;fill-rule:nonzero;stroke:none"
         id="path18" /><path
         d="m 50.1406,272.625 c -1.1679,0 -2.3789,0 -3.5898,0 -7.2422,-7.254 -13.7539,-15.203 -19.4649,-23.742 7.6914,0 15.375,0 23.0547,0 0,-16.309 -0.0429,-32.688 0,-48.996 6.5625,0 13.0274,0 19.543,0 0.0469,16.308 0,32.687 0.0469,48.996 30.0156,0 60.1215,0 90.1325,0 0.09,7.93 0.09,15.816 0.051,23.742 -30.062,0 -60.1679,0 -90.1835,0 0,6.453 0,12.895 0,19.324 -6.9649,-4.738 -13.4805,-10.039 -19.5899,-15.793 0,-1.172 0,-2.336 0,-3.531"
         style="fill:#d11d2c;fill-opacity:1;fill-rule:nonzero;stroke:none"
         id="path20" /><path
         d="m 159.371,319.988 c -0.762,0 -1.574,-0.027 -2.383,-0.047 C 136.414,307.16 115.605,294.715 94.9805,282 c -1.0274,-0.699 -2.1953,-1.082 -3.3633,-0.988 -4.582,0.109 -9.2617,-0.094 -13.8867,0.109 20.3984,12.715 41.0235,24.938 61.4645,37.516 h -0.043 c -1.937,-0.27 -3.824,-0.559 -5.754,-0.875 -0.179,-0.02 -0.312,-0.067 -0.492,-0.09 -1.98,-0.34 -3.914,-0.695 -5.847,-1.106 -16.844,-10.308 -33.7817,-20.484 -50.6723,-30.726 0,3.48 0,6.965 -0.0508,10.449 v 0 c -2.2461,-1.394 -4.4531,-2.832 -6.6054,-4.34 0,-6.429 0,-12.871 0,-19.324 30.0156,0 60.1215,0 90.1835,0 0.039,-7.926 0.039,-15.812 -0.051,-23.742 -30.011,0 -60.1169,0 -90.1325,0 -0.0469,-16.309 0,-32.688 -0.0469,-48.996 2.1992,0 4.4492,0 6.6523,0 0,11.929 -0.0429,23.859 0.0508,35.785 18.5938,-11.188 37.1523,-22.484 55.7543,-33.742 1.527,-0.875 3.015,-2.223 4.812,-2.043 7.547,0.043 15.133,-0.043 22.731,0.043 -21.926,13.703 -44.079,26.691 -65.9574,40.414 4.7617,0.25 9.5704,0.07 14.3324,0.16 1.703,0.043 3.093,-1.168 4.535,-2 15.769,-9.637 31.504,-19.274 47.269,-28.91 0.133,-3.211 0.051,-6.496 0.09,-9.707 0.133,4.965 -0.09,9.883 -0.039,14.804 -14.023,8.629 -28.176,16.899 -42.152,25.723 14.019,0.18 28.129,0 42.152,0.09 0.082,13.484 0.082,27.027 0,40.551 -14.023,0.109 -28.133,-0.137 -42.152,0.109 13.937,8.856 28.215,16.895 42.101,25.859 0.133,4.317 0,8.649 0.051,12.965 -0.184,0 -0.371,0 -0.543,0"
         style="fill:#ffffff;fill-opacity:1;fill-rule:nonzero;stroke:none"
         id="path22" /><path
         d="m 139.195,318.637 c -20.441,-12.578 -41.0661,-24.801 -61.4645,-37.516 4.625,-0.203 9.3047,0 13.8867,-0.109 1.168,-0.094 2.3359,0.289 3.3633,0.988 20.6245,12.715 41.4335,25.16 62.0075,37.941 -6.019,-0.109 -11.957,-0.539 -17.793,-1.304"
         style="fill:#d11d2c;fill-opacity:1;fill-rule:nonzero;stroke:none"
         id="path24" /><path
         d="m 27.0859,248.883 c -2.7812,-4.11 -5.3437,-8.36 -7.7226,-12.738 1.5781,0.964 3.1445,1.929 4.7187,2.898 1.2071,0.715 2.4258,1.551 3.7735,1.461 4.7187,-0.09 9.5234,0.09 14.2461,-0.16 -9.7578,-6.09 -19.5938,-12.059 -29.4336,-17.989 -0.9453,-2.179 -1.7969,-4.41 -2.6485,-6.628 11.0078,6.668 22.0157,13.343 33.0235,19.945 0,-11.926 0,-23.856 0,-35.785 2.3828,0 4.7617,0 7.0976,0 -0.0429,16.308 0,32.687 0,48.996 -7.6797,0 -15.3633,0 -23.0547,0"
         style="fill:#ffffff;fill-opacity:1;fill-rule:nonzero;stroke:none"
         id="path26" /><path
         d="m 42.1016,240.344 c -4.7227,0.25 -9.5274,0.07 -14.2461,0.16 -1.3477,0.09 -2.5664,-0.746 -3.7735,-1.461 -1.5742,-0.969 -3.1406,-1.934 -4.7187,-2.898 -2.4727,-4.473 -4.6758,-9.075 -6.6953,-13.79 9.8398,5.93 19.6758,11.899 29.4336,17.989"
         style="fill:#d11d2c;fill-opacity:1;fill-rule:nonzero;stroke:none"
         id="path28" /><path
         d="m 93.7266,240.344 c 4.7617,0.25 9.5704,0.07 14.3324,0.16 1.703,0.043 3.093,-1.168 4.535,-2 15.769,-9.637 31.504,-19.274 47.269,-28.91 0.133,-3.211 0.051,-6.496 0.09,-9.707 l -0.269,0.043 c -21.926,13.703 -44.079,26.691 -65.9574,40.414"
         style="fill:#d11d2c;fill-opacity:1;fill-rule:nonzero;stroke:none"
         id="path30" /><path
         d="m 276.891,204.879 c 1.527,4.07 2.695,8.269 4.316,12.289 1.434,-4.063 2.824,-8.148 4.223,-12.262 4.582,-0.047 9.117,0.024 13.703,-0.027 -3.547,-2.715 -7.371,-5.074 -11.055,-7.68 1.438,-4.07 2.922,-8.109 4.184,-12.219 -3.778,2.403 -7.371,5.036 -11.102,7.524 -3.683,-2.488 -7.277,-5.121 -11.055,-7.508 1.211,4.113 2.782,8.133 4.137,12.246 -3.683,2.563 -7.457,5.035 -11.14,7.637 4.578,0 9.16,0.027 13.789,0"
         style="fill:#facc07;fill-opacity:1;fill-rule:nonzero;stroke:none"
         id="path32" /><path
         d="m 235.688,183.18 c 3.816,-2.36 7.375,-5.059 11.097,-7.481 3.735,2.453 7.324,5.102 11.098,7.457 -1.254,-4.133 -2.871,-8.133 -4.137,-12.265 3.695,-2.516 7.422,-4.989 11.059,-7.571 -4.582,-0.113 -9.164,-0.023 -13.703,-0.043 -1.485,-3.929 -2.7,-7.957 -4.133,-11.863 -0.09,-0.019 -0.278,-0.019 -0.317,-0.019 -1.488,3.925 -2.695,7.953 -4.172,11.902 -4.542,0 -9.125,-0.09 -13.664,0.043 3.633,2.582 7.325,5.062 11.004,7.578 -1.254,4.105 -2.871,8.129 -4.132,12.262"
         style="fill:#facc07;fill-opacity:1;fill-rule:nonzero;stroke:none"
         id="path34" /><path
         d="m 212.457,163.934 c 3.684,2.535 7.324,5.093 11.055,7.562 -1.258,-4.156 -2.871,-8.199 -4.129,-12.355 3.637,-2.493 7.363,-4.899 10.91,-7.547 -4.531,-0.18 -9.07,0 -13.609,-0.071 -1.434,-4.062 -2.739,-8.128 -4.266,-12.148 -1.621,3.969 -2.793,8.129 -4.27,12.148 -4.543,0.051 -9.074,-0.109 -13.617,0.071 3.547,2.695 7.324,5.035 10.922,7.594 -1.355,4.089 -2.883,8.132 -4.137,12.269 3.778,-2.41 7.372,-5.082 11.141,-7.523"
         style="fill:#facc07;fill-opacity:1;fill-rule:nonzero;stroke:none"
         id="path36" /><path
         d="m 276.891,128.273 c 1.484,4.047 2.695,8.227 4.316,12.227 1.434,-4.07 2.871,-8.141 4.223,-12.199 4.582,-0.047 9.16,0.039 13.75,-0.047 -3.645,-2.582 -7.325,-5.078 -11.051,-7.547 1.254,-4.16 2.871,-8.16 4.133,-12.312 -3.778,2.355 -7.371,5.046 -11.102,7.5 -3.73,-2.493 -7.328,-5.118 -11.101,-7.528 1.308,4.09 2.789,8.141 4.183,12.199 -3.64,2.653 -7.414,5.106 -11.14,7.688 4.578,0.086 9.16,0.019 13.789,0.019"
         style="fill:#facc07;fill-opacity:1;fill-rule:nonzero;stroke:none"
         id="path38" /><path
         d="m 246.297,117.98 c 1.75,-3.902 2.828,-8.058 4.312,-12.078 4.536,-0.089 9.071,0.086 13.614,-0.089 -3.508,-2.68 -7.282,-5.036 -10.918,-7.5747 1.304,-4.1094 2.875,-8.1094 4.136,-12.2461 -3.785,2.3867 -7.375,4.9922 -11.058,7.4844 -3.731,-2.4493 -7.32,-5.125 -11.145,-7.5078 1.309,4.1406 2.832,8.1601 4.18,12.25 -3.641,2.5782 -7.461,4.9652 -11.008,7.6362 4.539,0.067 9.121,-0.023 13.699,0.047 1.395,4.039 2.7,8.086 4.188,12.078"
         style="fill:#facc07;fill-opacity:1;fill-rule:nonzero;stroke:none"
         id="path40" /><path
         d="m 160.297,114.996 c 3.773,-2.519 7.457,-5.121 11.187,-7.637 3.723,2.473 7.321,5.118 11.098,7.508 -1.262,-4.14 -2.871,-8.16 -4.137,-12.269 3.688,-2.563 7.457,-5.0355 11.102,-7.6644 -4.582,0.0195 -9.168,0.0195 -13.746,0.0195 -1.535,-4.082 -2.789,-8.2383 -4.36,-12.3281 -1.394,4.1094 -2.836,8.1797 -4.179,12.2891 -4.633,0.0898 -9.305,0.039 -13.934,0.0195 3.735,2.582 7.5,5.1014 11.231,7.6834 -1.43,4.141 -2.871,8.25 -4.262,12.379"
         style="fill:#facc07;fill-opacity:1;fill-rule:nonzero;stroke:none"
         id="path42" /><path
         d="m 201.227,85.3906 c 3.777,-2.4961 7.414,-5.1445 11.23,-7.6211 3.684,2.4961 7.281,5.1055 11.055,7.4844 -1.258,-4.1328 -2.871,-8.1328 -4.172,-12.2656 3.726,-2.5391 7.496,-5.0117 11.14,-7.6367 -4.585,0.039 -9.171,0 -13.753,0.0195 -1.524,-4.0898 -2.832,-8.2656 -4.36,-12.3594 -1.387,4.1172 -2.824,8.1992 -4.219,12.2891 -4.543,0.1406 -9.125,-0.0195 -13.664,0.0898 3.555,2.6992 7.371,5.0352 10.969,7.6407 -1.394,4.1132 -2.832,8.2226 -4.226,12.3593"
         style="fill:#facc07;fill-opacity:1;fill-rule:nonzero;stroke:none"
         id="path44" /><path
         d="m 171.523,67.7734 c 3.684,2.4922 7.375,5.0821 11.102,7.5469 -1.254,-4.0898 -2.875,-8.039 -4.086,-12.1289 3.234,-2.9453 7.414,-4.9844 10.871,-7.793 -4.582,-0.1367 -9.125,0.0235 -13.699,-0.0859 -1.445,-4.0508 -2.609,-8.1797 -4.27,-12.1406 -1.488,4.0273 -2.789,8.1133 -4.222,12.1797 -4.543,0.0468 -9.125,-0.0899 -13.664,0.0468 3.59,2.6289 7.324,5.0508 11.004,7.5938 -1.344,4.1094 -2.918,8.1289 -4.172,12.2617 3.773,-2.3789 7.367,-5.0781 11.136,-7.4805"
         style="fill:#facc07;fill-opacity:1;fill-rule:nonzero;stroke:none"
         id="path46" /><path
         d="m 127.18,56.4961 c 1.441,4.0703 2.699,8.1797 4.273,12.1797 1.527,-4.0195 2.82,-8.1289 4.266,-12.1797 4.586,-0.0469 9.164,0 13.746,-0.0195 -3.633,-2.6289 -7.414,-5.0743 -11.094,-7.6641 1.348,-4.0898 2.871,-8.1289 4.172,-12.2383 -3.766,2.3789 -7.406,5.0039 -11.09,7.4961 -3.73,-2.4648 -7.328,-5.0976 -11.105,-7.4961 1.218,4.1094 2.793,8.1485 4.136,12.2383 -3.644,2.6094 -7.461,4.9883 -11.05,7.6641 4.582,0.039 9.168,-0.0274 13.746,0.0195"
         style="fill:#facc07;fill-opacity:1;fill-rule:nonzero;stroke:none"
         id="path48" /></g></g></svg>
