<?xml version="1.0" encoding="UTF-8" standalone="no"?>
<svg
   xmlns:dc="http://purl.org/dc/elements/1.1/"
   xmlns:cc="http://creativecommons.org/ns#"
   xmlns:rdf="http://www.w3.org/1999/02/22-rdf-syntax-ns#"
   xmlns:svg="http://www.w3.org/2000/svg"
   xmlns="http://www.w3.org/2000/svg"
   version="1.1"
   id="svg2"
   xml:space="preserve"
   width="42.666668"
   height="42.666668"
   viewBox="0 0 42.666668 42.666668"><metadata
     id="metadata8"><rdf:RDF><cc:Work
         rdf:about=""><dc:format>image/svg+xml</dc:format><dc:type
           rdf:resource="http://purl.org/dc/dcmitype/StillImage" /></cc:Work></rdf:RDF></metadata><defs
     id="defs6" /><g
     id="g10"
     transform="matrix(1.3333333,0,0,-1.3333333,0,42.666667)"><g
       id="g12"
       transform="scale(0.1)"><path
         d="M 159.996,319.848 V 159.836 H 0 C 0,71.7266 71.8711,-0.160156 159.996,-0.160156 248.105,-0.160156 320,71.7266 320,159.836 c 0,88.125 -71.895,160.012 -160.004,160.012"
         style="fill:#ed1d24;fill-opacity:1;fill-rule:evenodd;stroke:none"
         id="path14" /><path
         d="M 159.996,319.848 C 71.8711,319.848 0,247.961 0,159.836 h 159.996 v 160.012"
         style="fill:#2b3085;fill-opacity:1;fill-rule:evenodd;stroke:none"
         id="path16" /><path
         d="m 87.2148,202.777 c 13.1252,0 23.7652,10.641 23.7652,23.766 0,13.125 -10.64,23.762 -23.7652,23.762 -13.125,0 -23.7617,-10.637 -23.7617,-23.762 0,-13.125 10.6367,-23.766 23.7617,-23.766"
         style="fill:#ffffff;fill-opacity:1;fill-rule:nonzero;stroke:none"
         id="path18" /><path
         d="m 92.793,253.309 -5.5782,20.808 -5.5898,-20.859 c 2.9414,0.711 7.4141,0.875 11.168,0.051"
         style="fill:#ffffff;fill-opacity:1;fill-rule:nonzero;stroke:none"
         id="path20" /><path
         d="m 78.6641,252.508 -15.2383,15.238 5.5937,-20.863 c 2.1875,2.086 5.9766,4.465 9.6446,5.625"
         style="fill:#ffffff;fill-opacity:1;fill-rule:nonzero;stroke:none"
         id="path22" /><path
         d="m 66.8242,244.754 -20.8086,5.578 15.2696,-15.273 c 0.8554,2.902 2.9453,6.855 5.539,9.695"
         style="fill:#ffffff;fill-opacity:1;fill-rule:nonzero;stroke:none"
         id="path24" /><path
         d="m 60.4492,232.117 -20.8086,-5.574 20.8633,-5.59 c -0.7148,2.942 -0.8789,7.41 -0.0547,11.164"
         style="fill:#ffffff;fill-opacity:1;fill-rule:nonzero;stroke:none"
         id="path26" /><path
         d="m 61.25,217.988 -15.2383,-15.234 20.8633,5.59 c -2.0859,2.191 -4.4648,5.98 -5.625,9.644"
         style="fill:#ffffff;fill-opacity:1;fill-rule:nonzero;stroke:none"
         id="path28" /><path
         d="m 69.0039,206.152 -5.5781,-20.812 15.2734,15.273 c -2.9023,0.852 -6.8554,2.946 -9.6953,5.539"
         style="fill:#ffffff;fill-opacity:1;fill-rule:nonzero;stroke:none"
         id="path30" /><path
         d="m 81.6406,199.777 5.5742,-20.812 5.5899,20.863 c -2.9414,-0.715 -7.4102,-0.879 -11.1641,-0.051"
         style="fill:#ffffff;fill-opacity:1;fill-rule:nonzero;stroke:none"
         id="path32" /><path
         d="m 95.7695,200.574 15.2345,-15.234 -5.59,20.863 c -2.191,-2.09 -5.9804,-4.469 -9.6445,-5.629"
         style="fill:#ffffff;fill-opacity:1;fill-rule:nonzero;stroke:none"
         id="path34" /><path
         d="m 107.605,208.328 20.813,-5.574 -15.273,15.273 c -0.852,-2.906 -2.946,-6.859 -5.54,-9.699"
         style="fill:#ffffff;fill-opacity:1;fill-rule:nonzero;stroke:none"
         id="path36" /><path
         d="m 113.98,220.965 20.813,5.578 -20.863,5.59 c 0.715,-2.942 0.879,-7.41 0.05,-11.168"
         style="fill:#ffffff;fill-opacity:1;fill-rule:nonzero;stroke:none"
         id="path38" /><path
         d="m 113.184,235.094 15.234,15.238 -20.863,-5.59 c 2.09,-2.191 4.468,-5.98 5.629,-9.648"
         style="fill:#ffffff;fill-opacity:1;fill-rule:nonzero;stroke:none"
         id="path40" /><path
         d="m 105.43,246.934 5.574,20.812 -15.2735,-15.273 c 2.9062,-0.852 6.8595,-2.946 9.6995,-5.539"
         style="fill:#ffffff;fill-opacity:1;fill-rule:nonzero;stroke:none"
         id="path42" /></g></g></svg>
