<?xml version="1.0" encoding="UTF-8" standalone="no"?>
<svg
   xmlns:dc="http://purl.org/dc/elements/1.1/"
   xmlns:cc="http://creativecommons.org/ns#"
   xmlns:rdf="http://www.w3.org/1999/02/22-rdf-syntax-ns#"
   xmlns:svg="http://www.w3.org/2000/svg"
   xmlns="http://www.w3.org/2000/svg"
   version="1.1"
   id="svg2"
   xml:space="preserve"
   width="42.666668"
   height="42.666668"
   viewBox="0 0 42.666668 42.666668"><metadata
     id="metadata8"><rdf:RDF><cc:Work
         rdf:about=""><dc:format>image/svg+xml</dc:format><dc:type
           rdf:resource="http://purl.org/dc/dcmitype/StillImage" /></cc:Work></rdf:RDF></metadata><defs
     id="defs6" /><g
     id="g10"
     transform="matrix(1.3333333,0,0,-1.3333333,0,42.666667)"><g
       id="g12"
       transform="scale(0.1)"><path
         d="M 310.516,214.348 H 9.47656 C 3.34766,197.383 0,179.074 0,159.988 0,140.906 3.34766,122.605 9.47656,105.645 H 310.516 c 6.136,16.96 9.484,35.261 9.484,54.343 0,19.086 -3.348,37.395 -9.484,54.36"
         style="fill:#100f0d;fill-opacity:1;fill-rule:evenodd;stroke:none"
         id="path14" /><path
         d="M 310.516,105.645 H 9.47656 C 31.7227,44.0586 90.7188,0.00390625 159.996,0.00390625 c 69.266,0 128.266,44.05469375 150.52,105.64109375"
         style="fill:#39b73e;fill-opacity:1;fill-rule:evenodd;stroke:none"
         id="path16" /><path
         d="m 60.7773,214.348 81.6247,81.609 v 23.059 c -7.414,-0.813 -14.683,-2.118 -21.757,-3.907 L 19.875,214.348 h 40.9023"
         style="fill:#100f0d;fill-opacity:1;fill-rule:evenodd;stroke:none"
         id="path18" /><path
         d="m 159.996,319.996 c -5.957,0 -11.805,-0.437 -17.594,-1.074 V 295.957 L 60.7773,214.348 H 310.52 c -22.258,61.597 -81.258,105.648 -150.524,105.648"
         style="fill:#48a5e1;fill-opacity:1;fill-rule:evenodd;stroke:none"
         id="path20" /><path
         d="M 9.47656,214.348 H 19.875 L 120.578,315.043 C 68.9766,301.953 27.3516,263.844 9.47656,214.348"
         style="fill:#39b73e;fill-opacity:1;fill-rule:evenodd;stroke:none"
         id="path22" /><path
         d="M 105.691,310.527 9.49219,214.348 H 19.875 l 100.77,100.761 c -5.086,-1.289 -10.075,-2.82 -14.954,-4.582"
         style="fill:#f7cf0d;fill-opacity:1;fill-rule:evenodd;stroke:none"
         id="path24" /><path
         d="m 71.1523,214.348 71.2497,71.246 v 10.363 L 60.7773,214.348 h 10.375"
         style="fill:#f7cf0d;fill-opacity:1;fill-rule:evenodd;stroke:none"
         id="path26" /></g></g></svg>
