<?xml version="1.0" encoding="UTF-8" standalone="no"?>
<svg
   xmlns:dc="http://purl.org/dc/elements/1.1/"
   xmlns:cc="http://creativecommons.org/ns#"
   xmlns:rdf="http://www.w3.org/1999/02/22-rdf-syntax-ns#"
   xmlns:svg="http://www.w3.org/2000/svg"
   xmlns="http://www.w3.org/2000/svg"
   version="1.1"
   id="svg2"
   xml:space="preserve"
   width="42.666668"
   height="42.666668"
   viewBox="0 0 42.666668 42.666668"><metadata
     id="metadata8"><rdf:RDF><cc:Work
         rdf:about=""><dc:format>image/svg+xml</dc:format><dc:type
           rdf:resource="http://purl.org/dc/dcmitype/StillImage" /></cc:Work></rdf:RDF></metadata><defs
     id="defs6" /><g
     id="g10"
     transform="matrix(1.3333333,0,0,-1.3333333,0,42.666667)"><g
       id="g12"
       transform="scale(0.1)"><path
         d="M 27.8789,69.7109 C 39.1055,53.3125 53.332,39.0898 69.75,27.8594 L 292.117,250.176 c -11.23,16.441 -25.453,30.644 -41.879,41.875 L 27.8789,69.7109"
         style="fill:#131211;fill-opacity:1;fill-rule:evenodd;stroke:none"
         id="path14" /><path
         d="M 250.238,292.051 C 224.566,309.645 193.484,319.938 160,319.938 71.6211,319.938 0,248.305 0,159.949 0,126.484 10.2891,95.4102 27.8789,69.7109 L 250.238,292.051"
         style="fill:#39b73e;fill-opacity:1;fill-rule:evenodd;stroke:none"
         id="path16" /><path
         d="m 250.27,292.051 c 16.418,-11.231 30.617,-25.457 41.847,-41.875 L 69.75,27.8594 C 95.4414,10.2656 126.527,-0.0234375 160,-0.0234375 c 88.359,0 160,71.6211375 160,159.9724375 0,54.867 -27.641,103.278 -69.73,132.102"
         style="fill:#48a5e1;fill-opacity:1;fill-rule:evenodd;stroke:none"
         id="path18" /><path
         d="M 27.8789,69.7109 250.238,292.051 c -4.207,2.926 -8.625,5.625 -13.144,8.09 L 19.7695,82.8555 c 2.5196,-4.5117 5.2149,-8.8907 8.1094,-13.1446"
         style="fill:#f7cf0d;fill-opacity:1;fill-rule:evenodd;stroke:none"
         id="path20" /><path
         d="M 82.8945,19.7539 300.211,237.051 c -2.488,4.492 -5.195,8.898 -8.094,13.125 L 69.75,27.8594 c 4.2617,-2.8985 8.6289,-5.6211 13.1445,-8.1055"
         style="fill:#f7cf0d;fill-opacity:1;fill-rule:evenodd;stroke:none"
         id="path22" /></g></g></svg>
