<?xml version="1.0" encoding="UTF-8" standalone="no"?>
<svg
   xmlns:dc="http://purl.org/dc/elements/1.1/"
   xmlns:cc="http://creativecommons.org/ns#"
   xmlns:rdf="http://www.w3.org/1999/02/22-rdf-syntax-ns#"
   xmlns:svg="http://www.w3.org/2000/svg"
   xmlns="http://www.w3.org/2000/svg"
   version="1.1"
   id="svg2"
   xml:space="preserve"
   width="42.666668"
   height="42.666668"
   viewBox="0 0 42.666668 42.666668"><metadata
     id="metadata8"><rdf:RDF><cc:Work
         rdf:about=""><dc:format>image/svg+xml</dc:format><dc:type
           rdf:resource="http://purl.org/dc/dcmitype/StillImage" /></cc:Work></rdf:RDF></metadata><defs
     id="defs6" /><g
     id="g10"
     transform="matrix(1.3333333,0,0,-1.3333333,0,42.666667)"><g
       id="g12"
       transform="scale(0.1)"><path
         d="M 9.09375,106.648 C 12.4102,97.2969 16.5313,88.3594 21.418,79.9102 c 5.4961,-9.5 11.9648,-18.3711 19.25,-26.5313 h 238.695 c 7.258,8.1602 13.723,17.0313 19.223,26.5313 4.883,8.4492 9.016,17.3867 12.32,26.7378 H 9.09375"
         style="fill:#f6dc06;fill-opacity:1;fill-rule:evenodd;stroke:none"
         id="path14" /><path
         d="m 40.668,53.3789 c 27.6758,-31 67.254,-51.14843 111.602,-53.269525 h 15.453 C 212.055,2.23047 251.656,22.3789 279.363,53.3789 H 40.668"
         style="fill:#da1e25;fill-opacity:1;fill-rule:evenodd;stroke:none"
         id="path16" /><path
         d="M 9.09375,106.648 H 310.906 c 5.875,16.668 9.094,34.579 9.094,53.258 H 0 c 0,-18.679 3.23047,-36.59 9.09375,-53.258"
         style="fill:#100f0d;fill-opacity:1;fill-rule:evenodd;stroke:none"
         id="path18" /><path
         d="M 9.09375,213.297 H 310.906 C 316.781,196.621 320,178.703 320,159.996 H 0 c 0,18.707 3.23047,36.625 9.09375,53.301"
         style="fill:#da1e25;fill-opacity:1;fill-rule:evenodd;stroke:none"
         id="path20" /><path
         d="m 9.09375,213.297 c 3.31645,9.324 7.43755,18.254 12.32425,26.726 5.4961,9.489 11.9648,18.375 19.25,26.508 h 238.695 c 7.258,-8.133 13.723,-17.019 19.223,-26.508 4.883,-8.472 9.016,-17.402 12.32,-26.726 H 9.09375"
         style="fill:#f6dc06;fill-opacity:1;fill-rule:evenodd;stroke:none"
         id="path22" /><path
         d="m 40.668,266.531 c 27.6758,31.016 67.254,51.16 111.602,53.27 h 15.453 c 44.332,-2.11 83.933,-22.254 111.64,-53.27 H 40.668"
         style="fill:#100f0d;fill-opacity:1;fill-rule:evenodd;stroke:none"
         id="path24" /><path
         d="m 205.289,159.957 c 0,-25.008 -20.293,-45.281 -45.293,-45.281 -25.016,0 -45.285,20.273 -45.285,45.281 0,25.031 20.269,45.289 45.285,45.289 25,0 45.293,-20.258 45.293,-45.289"
         style="fill:#ffffff;fill-opacity:1;fill-rule:evenodd;stroke:none"
         id="path26" /><path
         d="m 160.176,142.695 c -0.813,-0.316 -2.578,0 -2.578,0 l -0.133,5.063 c 2.668,-1.539 3.523,-4.746 2.711,-5.063 z m 2.074,6.836 c 0.109,0.086 0.422,0.231 1.301,0.231 1.976,0 5.179,-0.711 5.215,-0.723 l 0.578,-0.129 -16.293,20.863 c -0.125,0.649 -1.43,7.723 1.562,11.137 3.762,3.11 3.66,6.449 3.489,6.934 -0.012,0.023 -0.02,0.047 -0.032,0.062 -0.418,2.481 -3.062,4.489 -5.933,4.489 -1.496,0 -2.895,-0.547 -4.059,-1.602 -1.797,-2.168 -1.199,-3.965 -0.879,-4.613 -1.379,-0.383 -5.586,-1.629 -5.808,-2.617 -0.032,-0.125 -0.004,-0.247 0.074,-0.344 0.117,-0.145 0.383,-0.317 1.398,-0.317 1.567,0 4.059,0.395 4.903,0.536 l -0.582,-4.204 c -0.653,-0.613 -6.563,-6.39 -6.77,-13.132 -0.101,-3.317 1.172,-6.36 3.785,-9.043 l 0.11,-0.114 0.14,0.071 c 0.031,0.015 0.102,0.05 0.25,0.277 0.785,-0.914 3.789,-4.207 7.004,-5.07 2.07,-2.125 2.762,-2.762 3.035,-2.953 0.211,-1.832 0.481,-5.239 0.117,-6.243 -0.933,0.164 -4.179,0.321 -6.89,0.321 -1.496,0 -3.402,-0.047 -3.988,-0.27 -0.133,-0.043 -0.325,-0.074 -0.543,-0.117 -1.688,-0.309 -5.196,-0.949 -4.172,-7.625 l 0.109,-0.731 0.293,0.68 c 0.484,1.113 0.934,2.156 1.242,2.86 0.063,-0.899 0.285,-2.172 1,-2.797 l 0.387,-0.34 -0.031,0.512 c -0.117,1.765 0.347,3.175 0.683,3.941 0.118,-0.996 0.383,-2.594 0.93,-2.957 0.063,-0.039 0.129,-0.063 0.195,-0.063 0.328,0 0.461,0.403 0.703,1.129 0.454,1.371 1.231,3.707 3.625,3.422 2.313,-0.281 4.231,-0.34 5.434,-0.34 0.395,0 0.688,0.008 0.867,0.016 0.473,-4.012 1.059,-9.918 0.891,-11.148 -0.559,0.105 -1.266,0.164 -2.059,0.164 -2.937,0 -7.207,-0.789 -7.574,-2.266 l -0.07,-0.281 0.289,0.019 c 0.703,0.043 1.383,0.063 2.023,0.063 1.547,0 2.563,-0.121 3.074,-0.207 -0.781,-0.766 -2.703,-2.864 -1.859,-4.274 l 0.152,-0.25 0.192,0.219 c 0.039,0.047 4.051,4.531 11.68,4.531 0.863,0 1.753,-0.058 2.644,-0.172 l 0.441,-0.054 -0.234,0.379 c -1.215,1.976 -4.492,2.187 -5.844,2.187 -0.097,0 -0.183,0 -0.254,-0.004 -0.668,5.16 -1.015,10.828 -0.41,11.121 0.199,0.094 0.672,0.207 1.809,0.207 1.746,0 3.973,-0.269 4.023,-0.273 0.442,0 0.887,0.508 1.133,1.012 0.375,0.773 0.336,1.574 -0.109,2.132 -0.805,1.016 -2.692,4.176 -2.543,5.422 0.019,0.16 0.07,0.27 0.156,0.336"
         style="fill:#100f0d;fill-opacity:1;fill-rule:nonzero;stroke:none"
         id="path28" /><path
         d="m 148.285,190.703 -2.574,4.746 c 0.992,0.996 2.668,1.766 5.332,1.766 0,-0.184 -0.27,-5.199 -0.27,-5.199 l -2.488,-1.313"
         style="fill:#da1e25;fill-opacity:1;fill-rule:nonzero;stroke:none"
         id="path30" /><path
         d="m 145.973,195.41 2.398,-4.422 2.195,1.157 c 0.094,1.726 0.223,4.125 0.258,4.855 -2.101,-0.035 -3.769,-0.586 -4.851,-1.59 z m 2.226,-4.992 -2.754,5.07 0.114,0.114 c 1.195,1.195 3.089,1.824 5.484,1.824 h 0.215 v -0.211 c 0,-0.184 -0.246,-4.699 -0.274,-5.211 l -0.007,-0.121 -2.778,-1.465"
         style="fill:#100f0d;fill-opacity:1;fill-rule:nonzero;stroke:none"
         id="path32" /><path
         d="m 150.773,191.969 0.364,5.246 c 0,0 5.332,0.316 8.226,-3.164 0.043,0.043 -2.847,-4.071 -2.847,-4.071 l -5.743,1.989"
         style="fill:#f6dc06;fill-opacity:1;fill-rule:nonzero;stroke:none"
         id="path34" /><path
         d="m 150.996,192.117 5.438,-1.883 c 0.972,1.383 2.32,3.305 2.664,3.805 -2.489,2.883 -6.817,2.984 -7.766,2.969 z m 5.602,-2.39 -6.047,2.093 0.383,5.594 0.187,0.012 c 0,0 0.133,0.008 0.363,0.008 1.254,0 5.536,-0.235 8.043,-3.25 l 0.024,-0.036 c 0.066,-0.125 0.066,-0.125 -2.863,-4.289 l -0.09,-0.132"
         style="fill:#100f0d;fill-opacity:1;fill-rule:nonzero;stroke:none"
         id="path36" /><path
         d="m 156.605,190.027 2.622,4.067 c 1.761,-1.852 2.488,-3.164 2.757,-5.153 0.043,-0.046 -4.16,-1.039 -4.16,-0.996 0,0.047 -1.176,2.035 -1.219,2.082"
         style="fill:#da1e25;fill-opacity:1;fill-rule:nonzero;stroke:none"
         id="path38" /><path
         d="m 156.852,190.02 c 0.242,-0.387 0.847,-1.383 1.086,-1.844 0.613,0.117 3.164,0.726 3.812,0.91 -0.27,1.754 -0.922,2.977 -2.492,4.664 z m 0.98,-2.29 h -0.215 l -0.004,0.168 c -0.136,0.266 -1.101,1.895 -1.175,1.997 l -0.122,0.121 0.11,0.125 2.769,4.297 0.184,-0.2 c 1.809,-1.898 2.523,-3.218 2.805,-5.199 l 0.05,-0.051 -0.054,-0.129 c -0.106,-0.261 -4.309,-1.129 -4.348,-1.129"
         style="fill:#100f0d;fill-opacity:1;fill-rule:nonzero;stroke:none"
         id="path40" /><path
         d="m 151.121,180.816 c 0,0 -9.406,-10.371 -5.348,-18.304 0.215,1.105 0.122,1.801 0.258,1.754 -0.226,0.136 1.164,-0.953 1.059,-0.743 0.031,0.575 -0.422,1.805 -0.422,1.805 0.422,-0.105 0.848,-0.211 1.27,-0.316 -0.247,0.457 -0.493,0.918 -0.743,1.379 0.602,-0.075 1.203,-0.145 1.805,-0.215 0,0 -0.637,1.699 -0.426,1.699 0.215,0 1.489,-0.105 1.489,-0.105 -2.676,4.8 -0.153,8.785 1.058,13.046"
         style="fill:#97a495;fill-opacity:1;fill-rule:nonzero;stroke:none"
         id="path42" /><path
         d="m 154.391,189.711 c 0,0 0.496,-3.574 -1.45,-4.613 -0.316,-0.227 -1.535,-0.633 -1.355,-1.356 0.227,-0.996 0.769,-0.812 1.539,-0.633 2.031,0.36 4.383,4.7 1.266,6.602"
         style="fill:#97a495;fill-opacity:1;fill-rule:nonzero;stroke:none"
         id="path44" /><path
         d="m 150.191,187.387 c 0.422,0 0.762,-0.344 0.762,-0.766 0,-0.422 -0.34,-0.766 -0.762,-0.766 -0.421,0 -0.765,0.344 -0.765,0.766 0,0.422 0.344,0.766 0.765,0.766"
         style="fill:#ffffff;fill-opacity:1;fill-rule:nonzero;stroke:none"
         id="path46" /><path
         d="m 147.879,183.652 c -0.496,-0.406 -3.117,-3.121 -0.543,-4.117 2.668,0.727 1.945,1.223 2.531,1.813 0.016,1.218 -1.324,1.535 -1.988,2.304"
         style="fill:#da1e25;fill-opacity:1;fill-rule:nonzero;stroke:none"
         id="path48" /><path
         d="m 147.867,183.355 c -0.535,-0.5 -1.566,-1.742 -1.422,-2.652 0.067,-0.41 0.364,-0.719 0.907,-0.941 1.753,0.484 1.894,0.84 2.031,1.183 0.058,0.149 0.125,0.313 0.273,0.485 -0.031,0.644 -0.519,0.988 -1.086,1.379 -0.242,0.168 -0.492,0.343 -0.703,0.546 z m -0.543,-4.042 -0.062,0.027 c -0.727,0.277 -1.141,0.715 -1.235,1.297 -0.207,1.289 1.328,2.859 1.719,3.179 l 0.16,0.129 0.133,-0.156 c 0.203,-0.234 0.481,-0.426 0.777,-0.633 0.598,-0.414 1.278,-0.886 1.266,-1.812 l -0.004,-0.086 -0.058,-0.063 c -0.133,-0.132 -0.184,-0.257 -0.243,-0.406 -0.211,-0.531 -0.504,-0.945 -2.382,-1.457 l -0.071,-0.019"
         style="fill:#100f0d;fill-opacity:1;fill-rule:nonzero;stroke:none"
         id="path50" /><path
         d="m 153.574,158.02 c -0.133,-0.59 -0.722,-2.758 0.09,-4.43 2.262,0.949 3.301,0.676 4.07,0.18 -1.851,1.492 -2.578,2.125 -4.16,4.25"
         style="fill:#97a495;fill-opacity:1;fill-rule:nonzero;stroke:none"
         id="path52" /><path
         d="m 153.574,158.02 c -0.133,-0.59 -0.722,-2.758 0.09,-4.43 2.262,0.949 3.301,0.676 4.07,0.18 -1.851,1.492 -2.578,2.125 -4.16,4.25 z"
         style="fill:none;stroke:#97a495;stroke-width:10;stroke-linecap:butt;stroke-linejoin:miter;stroke-miterlimit:4;stroke-dasharray:none;stroke-opacity:1"
         id="path54" /><path
         d="m 170.258,147.125 c 0,0 -3.254,7.863 -11.574,9.855 -8.317,1.989 -7.235,10.848 -6.555,11.391 0.363,0.77 0.633,1.945 3.027,0.813 2.399,-1.129 13.43,-6.688 15.012,-6.961 1.582,-0.27 0.227,-15.282 0.09,-15.098"
         style="fill:#97a495;fill-opacity:1;fill-rule:nonzero;stroke:none"
         id="path56" /><path
         d="m 153.527,169.441 c -0.691,0 -0.898,-0.468 -1.117,-0.968 -0.031,-0.067 -0.058,-0.129 -0.09,-0.192 l -0.019,-0.047 -0.039,-0.031 c -0.223,-0.195 -0.684,-2.332 -0.063,-4.781 0.574,-2.27 2.172,-5.195 6.535,-6.234 6.954,-1.665 10.446,-7.458 11.426,-9.368 0.301,2.621 1.028,12.543 0.09,14.075 -0.062,0.101 -0.105,0.117 -0.117,0.121 -1.25,0.211 -7.879,3.461 -12.266,5.613 -1.242,0.609 -2.25,1.105 -2.801,1.363 -0.628,0.297 -1.148,0.449 -1.539,0.449 z m 16.735,-22.531 h -0.11 l -0.089,0.133 c -0.036,0.078 -3.317,7.789 -11.426,9.73 -4.707,1.125 -6.36,4.332 -6.918,6.825 -0.492,2.211 -0.203,4.425 0.234,4.898 0.024,0.051 0.043,0.098 0.067,0.152 0.226,0.512 0.539,1.215 1.507,1.215 0.461,0 1.024,-0.156 1.723,-0.484 0.551,-0.262 1.559,-0.758 2.805,-1.367 4.101,-2.012 10.961,-5.375 12.148,-5.578 1.465,-0.254 0.875,-9.063 0.555,-12.84 -0.231,-2.684 -0.266,-2.684 -0.496,-2.684"
         style="fill:#100f0d;fill-opacity:1;fill-rule:nonzero;stroke:none"
         id="path58" /><path
         d="m 162.348,157.023 c -0.137,-0.089 11.121,-6.644 7.726,-12.296 3.211,2.125 2.172,5.832 2.172,5.832 0,0 2.621,-6.825 -3.754,-10.172 0.68,-0.586 1.133,-0.449 1.133,-0.449 l -1.086,-1.086 c 0,0 -0.496,-0.817 3.797,1.265 -1.176,-0.949 -1.266,-1.629 -1.266,-1.629 0,0 0.317,-0.902 3.121,1.539 -2.261,-2.441 -2.757,-3.707 -2.757,-3.664 6.101,0.543 19.39,20.391 -4.207,26.266 1.269,-1.309 1.086,-1.129 1.086,-1.129 l -5.965,-4.477"
         style="fill:#da1e25;fill-opacity:1;fill-rule:nonzero;stroke:none"
         id="path60" /><path
         d="m 174.051,140.188 0.297,-0.305 c -1.118,-1.203 -1.996,-2.34 -2.52,-3.242 3.18,0.711 8.164,6.297 8.637,12.379 0.48,6.214 -3.973,10.886 -12.563,13.214 0.196,-0.203 0.332,-0.347 0.43,-0.457 v 0.004 l 0.133,-0.133 -0.012,-0.011 c 0.106,-0.133 0.09,-0.168 0.067,-0.227 l -0.055,-0.129 -0.094,-0.004 -5.68,-4.257 c 0.079,-0.051 0.164,-0.114 0.254,-0.176 7.618,-5.254 8.571,-9 7.707,-11.395 2.196,2.031 1.426,4.922 1.391,5.055 l 0.402,0.133 c 0.028,-0.071 2.535,-6.832 -3.562,-10.282 0.406,-0.265 0.683,-0.214 0.683,-0.214 l 0.739,0.179 -1.371,-1.375 c 0.437,0.094 1.347,0.414 3.308,1.364 l 0.227,-0.356 c -0.832,-0.676 -1.086,-1.199 -1.16,-1.402 0.152,-0.043 0.82,-0.039 2.742,1.637 z m -3.078,-4.079 0.246,0.325 v 0.125 l 0.082,0.007 c 0.32,0.602 0.793,1.297 1.39,2.043 -0.535,-0.328 -0.961,-0.496 -1.281,-0.496 -0.422,0 -0.527,0.274 -0.539,0.305 l -0.016,0.051 0.004,0.047 c 0.008,0.054 0.067,0.382 0.457,0.886 -1.343,-0.613 -2.222,-0.922 -2.617,-0.922 -0.172,0 -0.293,0.059 -0.351,0.168 -0.067,0.114 -0.035,0.235 0.011,0.313 l 0.032,0.039 0.757,0.762 c -0.218,0.066 -0.488,0.199 -0.793,0.465 l -0.234,0.203 0.274,0.144 c 3.808,2 4.304,5.309 4.128,7.547 -0.199,-1.183 -0.796,-2.555 -2.332,-3.57 l -0.296,0.285 c 1.296,2.16 1.101,5.937 -7.188,11.656 -0.566,0.391 -0.574,0.399 -0.574,0.531 v 0.114 l 0.094,0.062 5.769,4.328 c -0.144,0.153 -0.418,0.434 -0.922,0.953 l -0.511,0.536 0.718,-0.18 c 12.532,-3.121 13.903,-10.016 13.606,-13.848 -0.5,-6.484 -6.047,-12.425 -9.34,-12.824 l -0.008,-0.012 h -0.109 l -0.457,-0.043"
         style="fill:#100f0d;fill-opacity:1;fill-rule:nonzero;stroke:none"
         id="path62" /><path
         d="m 162.844,158.969 c 1.535,-1.086 2.078,-1.446 2.258,-1.989 -1.399,0.317 -2.664,0.223 -2.664,0.223 0,0 -3.032,2.895 -3.575,3.121 -0.406,0 -2.758,1.492 -2.758,1.492 -1.171,0.586 -2.257,4.657 2.083,3.481 4.472,-2.125 5.109,-2.305 5.109,-2.305 1.777,-0.558 3.555,-1.117 5.332,-1.672 1.027,-1.144 2.051,-2.293 3.074,-3.437 0,0 -5.469,2.715 -6.148,2.758 1.492,-1.219 2.351,-2.895 2.351,-2.895 -1.734,0.5 -3.238,0.949 -5.062,1.223"
         style="fill:#ffffff;fill-opacity:1;fill-rule:nonzero;stroke:none"
         id="path64" /><path
         d="m 162.883,157.43 c 0.445,0 1.094,-0.028 1.805,-0.153 -0.274,0.325 -0.797,0.696 -1.754,1.368 l -0.211,0.152 0.152,0.383 c 1.656,-0.246 3.023,-0.633 4.582,-1.082 -0.355,0.57 -1.059,1.582 -2.035,2.379 l -0.516,0.421 0.664,-0.046 c 0.539,-0.036 3.61,-1.5 5.246,-2.297 l -2.304,2.578 -5.282,1.656 c -0.019,0.008 -0.695,0.207 -5.132,2.316 -0.469,0.122 -0.914,0.192 -1.293,0.192 -0.836,0 -1.336,-0.32 -1.485,-0.949 -0.203,-0.86 0.332,-2.067 0.883,-2.34 1.11,-0.703 2.43,-1.457 2.664,-1.473 l 0.078,-0.015 c 0.535,-0.223 3.047,-2.598 3.571,-3.098 0.082,0.004 0.207,0.008 0.367,0.008 z m 2.543,-0.742 -0.367,0.085 c -0.856,0.192 -1.657,0.231 -2.176,0.231 -0.266,0 -0.43,-0.012 -0.434,-0.012 l -0.09,-0.004 -0.07,0.063 c -1.137,1.086 -3.059,2.851 -3.48,3.066 -0.524,0.086 -2.274,1.176 -2.817,1.52 -0.679,0.34 -1.34,1.734 -1.086,2.808 0.114,0.477 0.508,1.278 1.899,1.278 0.418,0 0.898,-0.075 1.437,-0.219 4.387,-2.078 5.086,-2.301 5.113,-2.309 l 5.395,-1.691 3.113,-3.481 -0.254,-0.332 c -1.558,0.774 -3.886,1.887 -5.175,2.426 1.046,-1.086 1.632,-2.215 1.664,-2.273 l 0.222,-0.438 -0.812,0.235 c -1.313,0.379 -2.481,0.714 -3.778,0.961 0.997,-0.711 1.411,-1.055 1.575,-1.555 l 0.121,-0.359"
         style="fill:#100f0d;fill-opacity:1;fill-rule:nonzero;stroke:none"
         id="path66" /><path
         d="m 141.551,183.246 c 0,0 5.246,1.266 5.879,1.082"
         style="fill:#100f0d;fill-opacity:1;fill-rule:nonzero;stroke:none"
         id="path68" /><path
         d="m 141.602,183.039 -0.102,0.41 c 0.887,0.215 5.336,1.278 5.984,1.086 l -0.117,-0.41 c -0.375,0.109 -3.25,-0.48 -5.765,-1.086"
         style="fill:#ffffff;fill-opacity:1;fill-rule:nonzero;stroke:none"
         id="path70" /></g></g></svg>
