<?xml version="1.0" encoding="UTF-8" standalone="no"?>
<svg
   xmlns:dc="http://purl.org/dc/elements/1.1/"
   xmlns:cc="http://creativecommons.org/ns#"
   xmlns:rdf="http://www.w3.org/1999/02/22-rdf-syntax-ns#"
   xmlns:svg="http://www.w3.org/2000/svg"
   xmlns="http://www.w3.org/2000/svg"
   version="1.1"
   id="svg2"
   xml:space="preserve"
   width="42.666668"
   height="42.666668"
   viewBox="0 0 42.666668 42.666668"><metadata
     id="metadata8"><rdf:RDF><cc:Work
         rdf:about=""><dc:format>image/svg+xml</dc:format><dc:type
           rdf:resource="http://purl.org/dc/dcmitype/StillImage" /></cc:Work></rdf:RDF></metadata><defs
     id="defs6" /><g
     id="g10"
     transform="matrix(1.3333333,0,0,-1.3333333,0,42.666667)"><g
       id="g12"
       transform="scale(0.1)"><path
         d="m 117.379,217.129 v 96.875 C 87.5078,305.707 61.1445,288.922 41,266.461 l 76.379,-49.332"
         style="fill:#273375;fill-opacity:1;fill-rule:evenodd;stroke:none"
         id="path14" /><path
         d="M 48.5117,202.578 14.0352,224.953 C 10.8047,217.746 8.03125,210.297 5.88281,202.578 H 48.5234 48.5117"
         style="fill:#273375;fill-opacity:1;fill-rule:evenodd;stroke:none"
         id="path16" /><path
         d="m 271.148,202.578 h -0.027 42.992 c -2.187,7.86 -5.027,15.445 -8.34,22.774 l -34.625,-22.774"
         style="fill:#273375;fill-opacity:1;fill-rule:evenodd;stroke:none"
         id="path18" /><path
         d="m 202.621,219.582 74.508,48.856 c -19.902,21.445 -45.539,37.507 -74.508,45.558 v -94.414"
         style="fill:#273375;fill-opacity:1;fill-rule:evenodd;stroke:none"
         id="path20" /><path
         d="M 202.621,102.723 V 5.91797 c 29.848,8.29683 56.188,25.07033 76.328,47.50783 l -76.328,49.2972"
         style="fill:#273375;fill-opacity:1;fill-rule:evenodd;stroke:none"
         id="path22" /><path
         d="M 271.395,117.336 305.93,94.918 c 3.242,7.219 6.023,14.684 8.175,22.418 h -42.718 0.008"
         style="fill:#273375;fill-opacity:1;fill-rule:evenodd;stroke:none"
         id="path24" /><path
         d="m 126.504,316.395 c -0.965,-0.207 -1.918,-0.442 -2.879,-0.668 -1.57,-0.364 -3.133,-0.739 -4.687,-1.149 l -1.559,-0.445 V 217.129 L 40.8633,266.547 C 29.8594,254.262 20.7422,240.27 13.918,225.031 L 48.5117,202.578 H 48.5234 5.75781 C 4.23438,196.984 2.98438,191.281 2.0625,185.465 h 115.3165 17.113 v 17.113 115.317 c -2.687,-0.426 -5.347,-0.942 -7.988,-1.5"
         style="fill:#ffffff;fill-opacity:1;fill-rule:nonzero;stroke:none"
         id="path26" /><path
         d="m 314.242,202.578 h -43.121 0.031 l 34.746,22.852 c -7.183,15.918 -16.878,30.461 -28.605,43.117 l -74.672,-48.965 v 94.543 c -5.59,1.551 -11.297,2.824 -17.113,3.766 V 202.578 185.465 h 17.113 115.317 c -0.922,5.816 -2.172,11.519 -3.696,17.113"
         style="fill:#ffffff;fill-opacity:1;fill-rule:nonzero;stroke:none"
         id="path28" /><path
         d="M 317.934,134.449 H 185.508 V 2.02344 l 0.222,0.03906 c 2.567,0.41406 5.11,0.90234 7.633,1.43359 1.16,0.25 2.313,0.53125 3.465,0.80469 1.352,0.31641 2.699,0.63672 4.039,0.98828 l 1.754,0.5 V 102.723 l 76.422,-49.3558 c 11.004,12.2851 20.121,26.2773 26.949,41.5156 l -34.597,22.4532 h -0.008 42.847 c 1.528,5.59 2.778,11.297 3.7,17.113"
         style="fill:#ffffff;fill-opacity:1;fill-rule:nonzero;stroke:none"
         id="path30" /><path
         d="M 117.379,134.449 H 2.06641 c 0.92187,-5.816 2.17187,-11.523 3.69531,-17.113 H 48.7695 l -0.0117,-0.004 -34.75,-22.8515 C 21.1914,78.5664 30.8867,64.0195 42.6133,51.3672 l 74.6717,48.9648 0.094,0.469 V 5.78125 l 1.652,-0.47266 c 1.449,-0.3789 2.907,-0.73046 4.367,-1.07031 1.051,-0.24609 2.098,-0.5039 3.161,-0.73047 2.625,-0.55859 5.261,-1.0664 7.933,-1.48828 V 117.336 134.449 h -17.113"
         style="fill:#ffffff;fill-opacity:1;fill-rule:nonzero;stroke:none"
         id="path32" /><path
         d="M 48.7578,117.336 H 48.7734 5.89063 c 2.18359,-7.844 5.01567,-15.41 8.31637,-22.7266 l 34.5508,22.7266"
         style="fill:#273375;fill-opacity:1;fill-rule:evenodd;stroke:none"
         id="path34" /><path
         d="M 117.379,100.801 117.285,100.332 42.8359,51.5117 C 62.7383,30.043 88.3906,13.9648 117.379,5.91016 V 100.801"
         style="fill:#273375;fill-opacity:1;fill-rule:evenodd;stroke:none"
         id="path36" /><path
         d="m 320,159.965 c 0,8.68 -0.723,17.191 -2.062,25.5 h -132.43 v 132.39 c -3.957,0.649 -7.969,1.133 -12.016,1.489 l -1.441,0.109 c -3.988,0.313 -8.008,0.504 -12.071,0.504 -4.054,0 -8.062,-0.191 -12.039,-0.504 l -1.464,-0.109 c -4.036,-0.352 -8.036,-0.836 -11.985,-1.481 V 185.465 H 2.0625 C 0.722656,177.156 0,168.645 0,159.965 0,151.281 0.722656,142.766 2.06641,134.449 H 134.492 V 2.01953 c 8.305,-1.343749 16.813,-2.0624988 25.488,-2.0624988 8.688,0 17.208,0.7226568 25.528,2.0664088 V 134.449 h 132.426 c 1.343,8.317 2.066,16.832 2.066,25.516"
         style="fill:#d11d2c;fill-opacity:1;fill-rule:nonzero;stroke:none"
         id="path38" /><path
         d="m 17.957,233.395 46.4063,-30.817 c 10.7344,0 21.0547,0 30,0 l -67.6914,45.625 c -3.1641,-4.762 -6.0625,-9.711 -8.7149,-14.808"
         style="fill:#d11d2c;fill-opacity:1;fill-rule:nonzero;stroke:none"
         id="path40" /><path
         d="m 284.184,260.609 -81.563,-53.093 c 0,-1.762 0,-3.414 0,-4.938 5.156,0 13.137,0 22.727,0 l 68.519,44.766 c -3.008,4.59 -6.23,9.019 -9.683,13.265"
         style="fill:#d11d2c;fill-opacity:1;fill-rule:nonzero;stroke:none"
         id="path42" /><path
         d="m 301.949,86.5195 -46.402,30.8165 c -10.738,0 -21.059,0 -30.008,0 l 67.695,-45.6251 c 3.164,4.7618 6.067,9.7071 8.715,14.8086"
         style="fill:#d11d2c;fill-opacity:1;fill-rule:nonzero;stroke:none"
         id="path44" /><path
         d="m 35.7227,59.3047 81.5623,53.0933 c 0,1.758 0,3.415 0,4.938 -5.156,0 -13.133,0 -22.7264,0 L 26.0391,72.5664 c 3.0078,-4.5859 6.2304,-9.0156 9.6836,-13.2617"
         style="fill:#d11d2c;fill-opacity:1;fill-rule:nonzero;stroke:none"
         id="path46" /></g></g></svg>
