<?xml version="1.0" encoding="UTF-8" standalone="no"?>
<svg
   xmlns:dc="http://purl.org/dc/elements/1.1/"
   xmlns:cc="http://creativecommons.org/ns#"
   xmlns:rdf="http://www.w3.org/1999/02/22-rdf-syntax-ns#"
   xmlns:svg="http://www.w3.org/2000/svg"
   xmlns="http://www.w3.org/2000/svg"
   version="1.1"
   id="svg2"
   xml:space="preserve"
   width="42.666668"
   height="42.666668"
   viewBox="0 0 42.666668 42.666668"><metadata
     id="metadata8"><rdf:RDF><cc:Work
         rdf:about=""><dc:format>image/svg+xml</dc:format><dc:type
           rdf:resource="http://purl.org/dc/dcmitype/StillImage" /></cc:Work></rdf:RDF></metadata><defs
     id="defs6" /><g
     id="g10"
     transform="matrix(1.3333333,0,0,-1.3333333,0,42.666667)"><g
       id="g12"
       transform="scale(0.1)"><path
         d="m 160.012,319.961 c -31.211,0 -60.3831,-9.027 -85.0511,-24.59 C 63.9297,288.402 53.8008,280.141 44.8008,270.785 37.5469,263.254 31.0273,255.027 25.3438,246.203 20.3633,238.438 16.0195,230.219 12.4023,221.613 9.08984,213.711 6.39063,205.492 4.37109,197.02 2.47656,189.039 1.14844,180.848 0.492188,172.43 0.171875,168.352 0.0117188,164.223 0.0117188,160.063 H 0 L 0.0117188,160.004 0,159.934 h 0.0117188 c 0,-4.051 0.1601562,-8.09 0.4609372,-12.086 H 160.012 v 172.113"
         style="fill:#212d5d;fill-opacity:1;fill-rule:nonzero;stroke:none"
         id="path14" /><path
         d="m 141.891,165.07 c -2.422,-0.019 -4.852,0 -7.274,-0.031 1.938,-1.457 3.938,-2.836 5.875,-4.305 -0.711,-2.308 -1.48,-4.613 -2.226,-6.929 1.996,1.398 3.949,2.851 5.945,4.242 1.949,-1.391 3.879,-2.856 5.887,-4.207 -0.735,2.316 -1.504,4.59 -2.215,6.894 1.957,1.457 3.922,2.848 5.863,4.317 -2.41,0.019 -4.812,0.019 -7.234,-0.012 -0.832,2.309 -1.524,4.645 -2.324,6.969 -0.782,-2.305 -1.508,-4.625 -2.297,-6.938 z m -48.7113,-0.019 c 1.9375,-1.434 3.9141,-2.848 5.8867,-4.27 -0.6875,-2.34 -1.4453,-4.636 -2.2031,-6.961 1.9805,1.364 3.9217,2.785 5.8517,4.227 2.043,-1.363 3.984,-2.856 5.973,-4.266 -0.704,2.313 -1.461,4.578 -2.243,6.883 1.922,1.539 3.961,2.918 5.946,4.375 -2.446,0.012 -4.891,0.012 -7.332,0.031 -0.766,2.313 -1.504,4.614 -2.262,6.938 -0.805,-2.305 -1.527,-4.625 -2.285,-6.938 -2.4534,-0.019 -4.8948,-0.019 -7.3323,-0.019 z m -41.3906,0 c 1.9336,-1.446 3.9257,-2.848 5.875,-4.317 -0.6953,-2.304 -1.4805,-4.578 -2.1797,-6.894 1.9844,1.351 3.8984,2.816 5.875,4.207 1.9844,-1.391 3.9297,-2.856 5.9101,-4.227 -0.7304,2.313 -1.4961,4.606 -2.2109,6.914 1.9453,1.457 3.9297,2.871 5.8711,4.317 -2.4219,0 -4.8438,0 -7.2617,0.019 -0.8047,2.313 -1.5313,4.61 -2.3008,6.922 -0.7891,-2.312 -1.5,-4.637 -2.3047,-6.941 -2.4297,0 -4.8633,0 -7.2734,0 z m -34.1368,0.019 c -2.4218,-0.019 -4.832,-0.019 -7.2656,-0.019 1.9414,-1.469 3.9414,-2.86 5.875,-4.317 -0.7187,-2.308 -1.4922,-4.601 -2.2148,-6.914 1.9961,1.371 3.9375,2.836 5.9101,4.227 1.961,-1.391 3.9024,-2.856 5.8868,-4.207 -0.711,2.316 -1.4922,4.59 -2.1836,6.894 1.9414,1.469 3.9336,2.871 5.8906,4.317 -2.4336,0 -4.8555,0 -7.2774,0 -0.8125,2.304 -1.539,4.629 -2.3281,6.941 -0.7734,-2.312 -1.4922,-4.609 -2.293,-6.922 z m 96.2577,17.75 c 1.957,-1.468 3.942,-2.875 5.879,-4.343 -0.723,-2.321 -1.488,-4.606 -2.223,-6.93 1.997,1.414 3.934,2.879 5.954,4.262 1.953,-1.418 3.902,-2.864 5.875,-4.274 -0.715,2.336 -1.493,4.621 -2.211,6.953 1.937,1.457 3.933,2.864 5.882,4.332 -2.437,0.004 -4.875,0 -7.32,0.02 -0.758,2.324 -1.48,4.625 -2.262,6.922 -0.793,-2.297 -1.511,-4.625 -2.281,-6.922 -2.445,-0.02 -4.855,-0.016 -7.293,-0.02 z m -41.4217,-0.011 c 1.9492,-1.457 3.9609,-2.864 5.8945,-4.356 -0.7422,-2.297 -1.5078,-4.598 -2.2109,-6.918 1.9648,1.41 3.9101,2.86 5.8867,4.274 1.9844,-1.399 3.9375,-2.848 5.9102,-4.25 -0.7149,2.316 -1.4766,4.601 -2.2149,6.929 1.957,1.457 3.9492,2.864 5.8867,4.332 -2.4414,0.004 -4.8476,0 -7.2851,0.02 -0.7696,2.297 -1.5,4.609 -2.2657,6.914 -0.8085,-2.289 -1.5195,-4.59 -2.2656,-6.895 -2.4531,-0.039 -4.9023,-0.035 -7.3359,-0.05 z m -41.3945,0 c 1.9453,-1.477 3.9218,-2.875 5.8671,-4.321 -0.7226,-2.328 -1.4882,-4.613 -2.2148,-6.929 1.9844,1.402 3.9375,2.836 5.9141,4.25 1.9843,-1.414 3.9336,-2.848 5.914,-4.25 -0.7344,2.316 -1.5,4.601 -2.2187,6.929 1.9336,1.446 3.9336,2.844 5.8711,4.321 -2.4532,0.015 -4.8868,0.011 -7.3321,0.07 -0.6757,2.117 -1.3359,4.258 -2.0547,6.375 -1.3984,-1.832 -1.5585,-4.293 -2.414,-6.375 -2.4492,-0.059 -4.8945,-0.055 -7.332,-0.07 z m -29.41021,0.05 c -0.38671,-2.683 -0.718746,-5.386 -0.960934,-8.125 1.480474,-1.05 2.949224,-2.136 4.429684,-3.199 -0.70703,2.32 -1.48046,4.621 -2.20312,6.918 1.92969,1.492 3.92578,2.899 5.875,4.356 -2.375,0.015 -4.75391,0.011 -7.14063,0.05 z M 141.902,200.594 c -2.422,-0.039 -4.847,-0.004 -7.273,-0.039 1.926,-1.453 3.898,-2.856 5.851,-4.278 -0.687,-2.351 -1.492,-4.66 -2.214,-6.992 1.996,1.414 3.937,2.879 5.933,4.262 1.973,-1.395 3.914,-2.848 5.903,-4.211 -0.727,2.309 -1.52,4.609 -2.196,6.965 1.961,1.398 3.899,2.801 5.828,4.254 -2.429,0.035 -4.851,0 -7.285,0.039 -0.758,2.312 -1.461,4.621 -2.25,6.902 -0.793,-2.293 -1.519,-4.613 -2.297,-6.902 z M 93.1797,200.59 c 1.9766,-1.488 3.9648,-2.891 5.9219,-4.383 -0.7696,-2.309 -1.5274,-4.605 -2.2383,-6.922 1.9609,1.399 3.9027,2.852 5.8637,4.262 2.031,-1.356 3.98,-2.848 5.976,-4.262 -0.719,2.317 -1.484,4.613 -2.234,6.922 1.929,1.512 3.945,2.895 5.91,4.383 -2.445,0 -4.879,-0.035 -7.32,0.004 -0.766,2.289 -1.52,4.609 -2.262,6.914 -0.805,-2.293 -1.527,-4.602 -2.285,-6.914 -2.4417,-0.039 -4.8831,-0.004 -7.3323,-0.004 z m -41.3516,-0.039 c 1.8985,-1.449 3.875,-2.852 5.8203,-4.266 -0.6601,-2.351 -1.4765,-4.64 -2.1875,-6.949 1.9805,1.363 3.9219,2.816 5.8985,4.211 2.0078,-1.383 3.9297,-2.848 5.9219,-4.227 -0.7266,2.313 -1.5079,4.606 -2.2149,6.926 1.9492,1.453 3.9102,2.856 5.8516,4.305 -2.4297,0.039 -4.8555,0.004 -7.2891,0.062 -0.7656,2.293 -1.4922,4.59 -2.2617,6.883 -0.7813,-2.293 -1.5117,-4.613 -2.2813,-6.902 -2.4179,-0.039 -4.8476,-0.004 -7.2578,-0.043 z m -34.1406,0.062 c -2.4258,-0.058 -4.8477,-0.023 -7.2891,-0.062 1.9336,-1.449 3.9063,-2.852 5.8633,-4.305 -0.7187,-2.32 -1.5078,-4.613 -2.2148,-6.926 1.9844,1.379 3.9258,2.844 5.9101,4.227 1.9727,-1.395 3.918,-2.848 5.8985,-4.211 -0.711,2.309 -1.5157,4.598 -2.1797,6.949 1.9492,1.414 3.9101,2.817 5.8281,4.266 -2.4336,0.039 -4.8476,0.004 -7.2656,0.043 -0.7656,2.289 -1.5039,4.609 -2.293,6.902 -0.7695,-2.293 -1.4922,-4.59 -2.2578,-6.883 z M 121.18,218.34 c -2.434,-0.016 -4.856,0 -7.278,-0.02 1.942,-1.468 3.938,-2.871 5.887,-4.328 -0.723,-2.308 -1.488,-4.613 -2.215,-6.906 2.012,1.387 3.926,2.84 5.91,4.234 1.989,-1.402 3.926,-2.867 5.911,-4.261 -0.711,2.304 -1.485,4.617 -2.211,6.933 1.937,1.481 3.933,2.86 5.882,4.332 -2.437,0.016 -4.882,0 -7.32,0.016 -0.758,2.312 -1.469,4.64 -2.269,6.933 -0.758,-2.308 -1.504,-4.636 -2.297,-6.933 z m -48.6917,-0.02 c 1.9492,-1.48 3.9609,-2.847 5.8945,-4.328 -0.7305,-2.316 -1.5078,-4.613 -2.2109,-6.918 1.9765,1.379 3.914,2.844 5.8867,4.246 1.9844,-1.394 3.9141,-2.847 5.9102,-4.226 -0.7149,2.32 -1.4688,4.59 -2.2149,6.898 1.957,1.481 3.9492,2.86 5.9102,4.328 -2.4297,0.02 -4.8711,0.004 -7.3047,0.02 -0.7735,2.312 -1.5078,4.625 -2.2696,6.926 -0.7968,-2.286 -1.5195,-4.606 -2.2773,-6.926 -2.4453,-0.016 -4.9023,-0.016 -7.3242,-0.02 z m -41.3906,0 c 1.9296,-1.484 3.9179,-2.871 5.8632,-4.316 -0.7109,-2.32 -1.4882,-4.625 -2.1992,-6.93 1.9844,1.379 3.9219,2.852 5.8985,4.246 1.9843,-1.394 3.9218,-2.867 5.9023,-4.246 -0.7187,2.305 -1.4883,4.61 -2.207,6.93 1.9336,1.445 3.9336,2.832 5.8633,4.316 -2.4219,0.219 -5.0274,-0.386 -7.3477,0.305 -0.8242,2.027 -1.3125,4.16 -2.0625,6.211 -1.5039,-1.871 -1.2148,-4.664 -2.7148,-6.438 -2.3243,-0.183 -4.6563,-0.007 -6.9961,-0.078 z m 20.7304,17.762 c 1.8203,-1.613 4.1836,-2.672 5.7305,-4.543 -0.5586,-2.273 -1.4648,-4.457 -2.0859,-6.715 1.9843,1.387 3.9101,2.848 5.8945,4.27 1.9766,-1.422 3.9101,-2.883 5.9141,-4.258 -0.7422,2.332 -1.5157,4.648 -2.2149,6.965 1.9609,1.418 3.9219,2.812 5.8516,4.269 -2.4102,0.231 -5.0157,-0.379 -7.3203,0.297 -0.8672,2.137 -1.4024,4.422 -2.2227,6.582 -0.8203,-2.254 -1.5312,-4.566 -2.2539,-6.844 -2.4375,-0.023 -4.875,-0.023 -7.293,-0.023 z M 14.0469,224.836 c 1.9961,1.375 3.9375,2.836 5.8984,4.258 1.9844,-1.422 3.9219,-2.883 5.9102,-4.27 -0.625,2.258 -1.5391,4.442 -2.0782,6.715 1.504,1.871 3.9141,2.922 5.7266,4.543 -2.4453,0 -4.8711,0 -7.3008,0.023 -0.3398,1.094 -0.6836,2.141 -1.0195,3.219 -2.375,-4.148 -4.5781,-8.394 -6.5859,-12.754 z m 127.8361,11.246 c -2.422,0 -4.828,0.008 -7.254,0 1.918,-1.469 3.883,-2.863 5.851,-4.281 -0.675,-2.317 -1.468,-4.633 -2.214,-6.965 2.007,1.375 3.949,2.836 5.933,4.246 1.961,-1.41 3.899,-2.871 5.899,-4.246 -0.723,2.281 -1.434,4.559 -2.215,6.828 1.894,1.559 3.914,2.922 5.84,4.418 -2.418,0 -4.832,0 -7.274,0.023 -0.758,2.278 -1.48,4.598 -2.25,6.883 -0.804,-2.293 -1.519,-4.613 -2.316,-6.906 z M 93.2148,236.07 c 1.9454,-1.457 3.9297,-2.871 5.8868,-4.336 -0.7539,-2.32 -1.5274,-4.601 -2.2461,-6.945 1.9687,1.41 3.9215,2.848 5.8595,4.274 2.043,-1.356 3.984,-2.852 5.973,-4.274 -0.704,2.328 -1.469,4.641 -2.208,6.953 1.938,1.457 3.915,2.871 5.844,4.328 -2.414,0.02 -4.824,0.012 -7.25,0.012 -0.808,2.293 -1.519,4.621 -2.277,6.93 -0.805,-2.293 -1.527,-4.629 -2.309,-6.93 -2.4294,0 -4.8513,0.008 -7.2732,-0.012 z m -58.4687,6.504 c 2,1.406 3.9375,2.84 5.9141,4.239 1.9843,-1.399 3.9336,-2.833 5.9023,-4.239 -0.7187,2.332 -1.4883,4.621 -2.1992,6.934 1.9414,1.441 3.9258,2.855 5.8437,4.332 -2.4101,0.012 -4.8281,0 -7.2422,0.012 -0.8164,2.273 -1.5156,4.589 -2.3046,6.886 -0.7813,-2.297 -1.4961,-4.613 -2.3086,-6.886 -2.418,-0.012 -4.8321,0 -7.2539,0 1.9296,-1.489 3.914,-2.903 5.8515,-4.344 -0.7226,-2.313 -1.4765,-4.602 -2.2031,-6.934 z m 86.4569,11.297 c -2.445,-0.031 -4.879,-0.019 -7.32,-0.031 1.972,-1.457 3.957,-2.86 5.906,-4.356 -0.738,-2.3 -1.504,-4.578 -2.215,-6.879 1.996,1.375 3.949,2.813 5.91,4.208 1.989,-1.399 3.903,-2.852 5.911,-4.208 -0.735,2.313 -1.493,4.59 -2.211,6.918 1.968,1.434 3.945,2.86 5.894,4.317 -2.449,0.012 -4.887,0 -7.32,0.031 -0.77,2.281 -1.492,4.598 -2.293,6.899 -0.746,-2.309 -1.492,-4.625 -2.262,-6.899 z M 72.4883,253.84 c 1.9492,-1.457 3.9258,-2.883 5.8945,-4.332 -0.7305,-2.313 -1.5078,-4.59 -2.2031,-6.903 1.9726,1.356 3.9062,2.809 5.8789,4.208 1.9961,-1.395 3.9375,-2.852 5.9102,-4.25 -0.6993,2.312 -1.4688,4.609 -2.2149,6.921 1.957,1.496 3.9492,2.891 5.9102,4.356 -2.4297,0.012 -4.8711,0 -7.3047,0.031 -0.7852,2.274 -1.5196,4.59 -2.2696,6.902 -0.7968,-2.277 -1.5351,-4.605 -2.2656,-6.902 -2.4531,-0.031 -4.9023,-0.019 -7.3359,-0.031 z m 69.4027,17.769 c -2.411,0 -4.813,0 -7.215,-0.046 1.902,-1.469 3.887,-2.864 5.816,-4.325 -0.734,-2.289 -1.515,-4.59 -2.226,-6.906 1.996,1.398 3.949,2.836 5.933,4.219 1.961,-1.387 3.938,-2.821 5.903,-4.219 -0.727,2.293 -1.485,4.606 -2.196,6.891 1.903,1.504 3.895,2.879 5.828,4.355 -2.421,0.031 -4.843,0.02 -7.285,0.043 -0.746,2.277 -1.461,4.59 -2.273,6.848 -0.781,-2.293 -1.496,-4.594 -2.285,-6.86 z m -90.0629,-0.023 c 1.918,-1.473 3.8946,-2.859 5.8203,-4.348 -0.7031,-2.289 -1.4765,-4.59 -2.1875,-6.906 1.9805,1.398 3.9219,2.832 5.8985,4.219 1.9844,-1.383 3.9453,-2.821 5.9219,-4.219 -0.7422,2.293 -1.4883,4.617 -2.2227,6.914 1.9453,1.453 3.9062,2.848 5.832,4.317 -2.4179,0.046 -4.8164,0.046 -7.2383,0.046 -0.789,2.266 -1.5156,4.567 -2.2773,6.86 -0.7969,-2.258 -1.5195,-4.571 -2.2656,-6.848 -2.4414,-0.023 -4.8711,-0.012 -7.2813,-0.035 z m 41.4102,0 c 1.9219,-1.484 3.8867,-2.875 5.8398,-4.348 -0.7461,-2.312 -1.5039,-4.64 -2.2383,-6.965 1.9766,1.438 3.9372,2.891 5.9102,4.297 2.008,-1.402 3.977,-2.859 5.969,-4.289 -0.746,2.332 -1.516,4.657 -2.25,6.992 1.949,1.438 3.937,2.821 5.84,4.313 -2.399,0.023 -4.809,0.012 -7.235,0.012 -0.789,2.289 -1.535,4.621 -2.289,6.929 -0.793,-2.297 -1.504,-4.629 -2.289,-6.918 -2.4257,-0.011 -4.8476,0 -7.2577,-0.023 z m 27.9647,17.773 c -2.445,-0.007 -4.867,-0.007 -7.32,-0.023 1.949,-1.457 3.933,-2.859 5.894,-4.313 -0.726,-2.328 -1.492,-4.625 -2.211,-6.968 1.985,1.414 3.922,2.898 5.93,4.246 1.977,-1.383 3.914,-2.832 5.899,-4.219 -0.715,2.332 -1.493,4.648 -2.211,6.969 1.968,1.426 3.957,2.828 5.894,4.301 -2.441,0 -4.887,-0.016 -7.32,0.007 -0.758,2.321 -1.481,4.621 -2.309,6.911 -0.73,-2.305 -1.469,-4.622 -2.246,-6.911 z m -48.7147,0 c 1.9297,-1.48 3.914,-2.875 5.8789,-4.308 -0.6992,-2.321 -1.4844,-4.617 -2.1875,-6.938 1.9726,1.356 3.9023,2.805 5.875,4.215 2.0156,-1.375 3.9531,-2.859 5.9258,-4.273 -0.7266,2.343 -1.4883,4.64 -2.2032,6.968 1.9532,1.461 3.9375,2.856 5.8868,4.313 -2.4297,0.016 -4.8711,0.016 -7.3086,0.023 -0.7813,2.289 -1.5039,4.606 -2.2852,6.911 -0.7773,-2.29 -1.5,-4.59 -2.2578,-6.911 -2.4453,-0.023 -4.8906,-0.007 -7.3242,0 z m 69.4027,17.758 c -2.422,-0.012 -4.852,-0.012 -7.286,-0.012 1.942,-1.476 3.938,-2.878 5.887,-4.324 -0.722,-2.324 -1.48,-4.629 -2.226,-6.941 1.996,1.379 3.949,2.844 5.933,4.238 1.973,-1.394 3.914,-2.859 5.903,-4.246 -0.727,2.32 -1.497,4.613 -2.219,6.926 1.937,1.488 3.945,2.902 5.918,4.347 -2.465,0 -4.903,0 -7.352,0.02 -0.746,2.305 -1.461,4.605 -2.261,6.883 -0.758,-2.285 -1.508,-4.61 -2.297,-6.891 z m -40.899,1.5 c 1.055,0.422 2.113,0.86 3.168,1.238 0.301,-0.902 0.598,-1.82 0.914,-2.75 2.438,0 4.871,0.012 7.305,0 -1.965,-1.46 -3.961,-2.878 -5.899,-4.347 0.723,-2.313 1.493,-4.613 2.208,-6.926 -1.981,1.367 -3.918,2.828 -5.864,4.266 -2.039,-1.391 -3.9802,-2.879 -5.9842,-4.266 0.7461,2.313 1.5079,4.613 2.2266,6.93 -1.4258,1.086 -2.8984,2.148 -4.3437,3.199 l 2.6211,1.144 c 1.0351,0 2.1054,0 3.1522,0 l 0.496,1.512"
         style="fill:#ffffff;fill-opacity:1;fill-rule:nonzero;stroke:none"
         id="path16" /><path
         d="m 160.012,221.613 c 49.191,0 98.383,0 147.578,0 -3.629,8.606 -7.945,16.825 -12.949,24.59 -44.879,0 -89.754,0 -134.629,0 v -24.59"
         style="fill:#ffffff;fill-opacity:1;fill-rule:nonzero;stroke:none"
         id="path18" /><path
         d="m 160.012,172.43 c 53.16,0 106.316,0 159.484,0 -0.668,8.418 -1.953,16.629 -3.867,24.59 -51.867,0 -103.746,0 -155.617,0 v -24.59"
         style="fill:#ffffff;fill-opacity:1;fill-rule:nonzero;stroke:none"
         id="path20" /><path
         d="m 160.012,270.785 c 38.394,0 76.793,0 115.187,0 -8.996,9.356 -19.129,17.617 -30.164,24.586 -28.34,0 -56.683,0 -85.023,0 v -24.586"
         style="fill:#ffffff;fill-opacity:1;fill-rule:nonzero;stroke:none"
         id="path22" /><path
         d="m 25.1523,74.0898 c 89.8987,0 179.7967,0 269.6957,0 4.957,7.7735 9.269,16 12.875,24.5977 -98.485,0 -196.961,0 -295.4378,0 3.5937,-8.5977 7.9023,-16.8242 12.8671,-24.5977"
         style="fill:#ffffff;fill-opacity:1;fill-rule:nonzero;stroke:none"
         id="path24" /><path
         d="m 160.012,147.848 c -53.18,0 -106.3597,0 -159.539344,0 0.632814,-8.364 1.925784,-16.582 3.832034,-24.586 103.79331,0 207.59731,0 311.39031,0 1.899,8.004 3.168,16.222 3.813,24.586 -53.168,0 -106.332,0 -159.496,0"
         style="fill:#ffffff;fill-opacity:1;fill-rule:nonzero;stroke:none"
         id="path26" /><path
         d="m 74.4883,24.9258 c 57.0037,0 114.0157,0 171.0317,0 10.964,6.9765 21.027,15.25 29.968,24.5898 -76.988,0 -154,0 -230.9802,0 8.9453,-9.3398 19.0156,-17.6133 29.9805,-24.5898"
         style="fill:#ffffff;fill-opacity:1;fill-rule:nonzero;stroke:none"
         id="path28" /><path
         d="m 160.012,246.203 c 44.875,0 89.75,0 134.629,0 -5.664,8.824 -12.192,17.051 -19.442,24.582 -38.394,0 -76.793,0 -115.187,0 v -24.582"
         style="fill:#bc183e;fill-opacity:1;fill-rule:nonzero;stroke:none"
         id="path30" /><path
         d="m 160.012,295.371 c 28.34,0 56.683,0 85.023,0 -24.652,15.563 -53.828,24.59 -85.023,24.59 v -24.59"
         style="fill:#bc183e;fill-opacity:1;fill-rule:nonzero;stroke:none"
         id="path32" /><path
         d="m 160.012,197.02 c 51.871,0 103.75,0 155.617,0 -2.024,8.492 -4.738,16.691 -8.039,24.593 -49.195,0 -98.387,0 -147.578,0 V 197.02"
         style="fill:#bc183e;fill-opacity:1;fill-rule:nonzero;stroke:none"
         id="path34" /><path
         d="m 319.965,163.438 -0.078,2.253 -0.028,0.645 -0.011,-0.012 c -0.067,2.067 -0.207,4.098 -0.352,6.106 -53.168,0 -106.324,0 -159.484,0 v -24.582 c 53.164,0 106.328,0 159.496,0 0.148,1.949 0.273,3.882 0.34,5.824 h 0.011 l 0.028,0.613 0.078,2.278 c 0.023,1.128 0.035,2.265 0.035,3.371 v 0.039 0.09 c 0,1.128 -0.012,2.253 -0.035,3.375"
         style="fill:#bc183e;fill-opacity:1;fill-rule:nonzero;stroke:none"
         id="path36" /><path
         d="m 12.2852,98.6875 c 98.4768,0 196.9528,0 295.4378,0 3.293,7.8825 5.972,16.1095 7.972,24.5745 -103.793,0 -207.597,0 -311.39031,0 1.99609,-8.465 4.6914,-16.692 7.98051,-24.5745"
         style="fill:#bc183e;fill-opacity:1;fill-rule:nonzero;stroke:none"
         id="path38" /><path
         d="m 44.5078,49.5156 c 76.9802,0 153.9922,0 230.9802,0 7.215,7.5352 13.707,15.7696 19.36,24.5742 -89.899,0 -179.797,0 -269.6957,0 5.6485,-8.8046 12.1446,-17.0429 19.3555,-24.5742"
         style="fill:#bc183e;fill-opacity:1;fill-rule:nonzero;stroke:none"
         id="path40" /><path
         d="m 160.012,0.0390625 c 31.418,0 60.738,9.1523475 85.508,24.8867375 -57.016,0 -114.024,0 -171.0317,0 C 99.25,9.19141 128.586,0.0390625 160.012,0.0390625"
         style="fill:#bc183e;fill-opacity:1;fill-rule:nonzero;stroke:none"
         id="path42" /></g></g></svg>
