<?xml version="1.0" encoding="UTF-8" standalone="no"?>
<svg
   xmlns:dc="http://purl.org/dc/elements/1.1/"
   xmlns:cc="http://creativecommons.org/ns#"
   xmlns:rdf="http://www.w3.org/1999/02/22-rdf-syntax-ns#"
   xmlns:svg="http://www.w3.org/2000/svg"
   xmlns="http://www.w3.org/2000/svg"
   version="1.1"
   id="svg2"
   xml:space="preserve"
   width="42.666668"
   height="42.666668"
   viewBox="0 0 42.666668 42.666668"><metadata
     id="metadata8"><rdf:RDF><cc:Work
         rdf:about=""><dc:format>image/svg+xml</dc:format><dc:type
           rdf:resource="http://purl.org/dc/dcmitype/StillImage" /></cc:Work></rdf:RDF></metadata><defs
     id="defs6" /><g
     id="g10"
     transform="matrix(1.3333333,0,0,-1.3333333,0,42.666667)"><g
       id="g12"
       transform="scale(0.1)"><path
         d="M 0.988281,142.219 C 2.36719,129.902 5.15625,117.992 9.16797,106.664 H 310.844 c 4.027,11.328 6.804,23.238 8.183,35.555 H 0.988281"
         style="fill:#29409d;fill-opacity:1;fill-rule:evenodd;stroke:none"
         id="path14" /><path
         d="m 318.992,142.219 c 0.649,5.84 1.008,11.769 1.008,17.781 0,6.016 -0.359,11.945 -1.008,17.789 H 160.004 v 35.516 h 150.863 c -4.398,12.453 -10.289,24.199 -17.469,35.023 H 160.004 v 35.516 H 261.293 C 233.703,306.434 198.441,320 160,320 71.6328,320 0,248.367 0,160 0,153.988 0.359375,148.059 1.00781,142.219 H 318.992"
         style="fill:#ffffff;fill-opacity:1;fill-rule:nonzero;stroke:none"
         id="path16" /><path
         d="M 59.4492,35.5742 C 86.9297,13.3398 121.898,0 160,0 198.102,0 233.07,13.3398 260.551,35.5742 H 59.4492"
         style="fill:#ffffff;fill-opacity:1;fill-rule:nonzero;stroke:none"
         id="path18" /><path
         d="M 9.12891,106.703 C 13.6055,94.0234 19.6172,82.0742 26.9727,71.0898 H 293.023 c 7.36,10.9844 13.372,22.9336 17.848,35.6132 H 9.12891"
         style="fill:#ffffff;fill-opacity:1;fill-rule:nonzero;stroke:none"
         id="path20" /><path
         d="M 59.6016,35.5508 H 260.422 c 12.543,10.1484 23.523,22.1367 32.519,35.5625 H 27.0742 C 36.0781,57.6875 47.0586,45.6992 59.6016,35.5508"
         style="fill:#29409d;fill-opacity:1;fill-rule:evenodd;stroke:none"
         id="path22" /><path
         d="m 310.844,213.293 c 4.027,-11.305 6.793,-23.215 8.152,-35.516 H 160.004 v 35.539 l 150.84,-0.023"
         style="fill:#29409d;fill-opacity:1;fill-rule:evenodd;stroke:none"
         id="path24" /><path
         d="m 260.957,283.883 h 0.117 c 12.418,-10.164 23.309,-22.164 32.223,-35.555 H 160.004 v 35.516 h 101.023 l -0.07,0.039"
         style="fill:#29409d;fill-opacity:1;fill-rule:evenodd;stroke:none"
         id="path26" /><path
         d="m 88.9844,201.777 4.5234,-6.75 c -18.582,-13.449 -7.2383,-21.398 -20.4062,-25.703 8.1914,7.992 -1.2891,8.664 5.6132,25.324"
         style="fill:#f7cf0d;fill-opacity:1;fill-rule:nonzero;stroke:none"
         id="path28" /><path
         d="m 72.6367,169.043 0.3789,0.367 c 4.0508,3.953 3.7344,6.082 3.2539,9.309 -0.4765,3.215 -1.1328,7.617 2.3282,15.976 l 0.0468,0.114 0.2305,-0.094 -0.0469,-0.113 c -3.4375,-8.297 -2.789,-12.661 -2.3164,-15.848 0.4766,-3.195 0.7969,-5.34 -2.9492,-9.145 5.6953,2 6.4219,4.735 7.4102,8.481 1.164,4.402 2.6093,9.879 12.3671,16.969 l -4.5234,6.754 0.2031,0.136 4.6563,-6.953 -0.0977,-0.07 c -9.7695,-7.071 -11.2109,-12.52 -12.3672,-16.903 -1.039,-3.925 -1.789,-6.761 -8.0703,-8.816 l -0.5039,-0.164"
         style="fill:#100f0d;fill-opacity:1;fill-rule:nonzero;stroke:none"
         id="path30" /><path
         d="m 73.1563,169.215 -0.1055,0.219 c 4.6015,2.199 5.1133,5.625 5.8828,10.816 0.7148,4.809 1.6914,11.398 6.7148,19.68 l 0.211,-0.129 c -5,-8.235 -5.9336,-14.531 -6.6836,-19.586 -0.7813,-5.27 -1.2969,-8.746 -6.0195,-11"
         style="fill:#100f0d;fill-opacity:1;fill-rule:nonzero;stroke:none"
         id="path32" /><path
         d="m 92.0781,215.137 h 9.0159 l -9.0159,-49.586 -9.0156,49.586 h 9.0156 v -49.586"
         style="fill:#f7cf0d;fill-opacity:1;fill-rule:nonzero;stroke:none"
         id="path34" /><path
         d="m 83.2109,215.012 8.7461,-48.098 v 48.098 z m 8.9922,0 v -48.098 l 8.7419,48.098 z m -0.125,-50.149 -9.164,50.395 h 18.3279 l -0.027,-0.145 -9.1369,-50.25"
         style="fill:#100f0d;fill-opacity:1;fill-rule:nonzero;stroke:none"
         id="path36" /><path
         d="m 80.4453,207.879 -1.5742,-7.973 c -22.6484,3.629 -20.25,-10.011 -32.6055,-3.746 11.4414,-0.14 5.2149,7.039 21.875,13.942"
         style="fill:#f7cf0d;fill-opacity:1;fill-rule:nonzero;stroke:none"
         id="path38" /><path
         d="m 52.0313,194.355 c -1.5782,0 -3.4219,0.477 -5.8204,1.696 l -0.4726,0.238 0.5273,-0.008 c 5.6563,-0.054 6.9414,1.664 8.8828,4.282 1.9336,2.613 4.586,6.187 12.9454,9.652 l 0.1132,0.047 0.0938,-0.227 -0.1133,-0.047 c -8.2969,-3.437 -10.9219,-6.984 -12.8398,-9.57 -1.9258,-2.598 -3.2188,-4.34 -8.5547,-4.383 5.4414,-2.613 7.8867,-1.191 11.2343,0.758 3.9375,2.289 8.8321,5.141 20.7461,3.254 l 1.5743,7.976 0.2421,-0.046 -1.621,-8.211 -0.1211,0.019 c -11.9063,1.91 -16.7813,-0.926 -20.6954,-3.207 -2.082,-1.211 -3.8203,-2.223 -6.121,-2.223"
         style="fill:#100f0d;fill-opacity:1;fill-rule:nonzero;stroke:none"
         id="path40" /><path
         d="m 49.582,195.41 c -1.0234,0 -2.125,0.199 -3.3554,0.637 l 0.082,0.23 c 4.8086,-1.703 7.5937,0.36 11.8047,3.485 3.9062,2.898 9.2578,6.867 18.664,9.168 l 0.0586,-0.239 c -9.3554,-2.289 -14.4687,-6.082 -18.5742,-9.125 -3.2109,-2.378 -5.6015,-4.156 -8.6797,-4.156"
         style="fill:#100f0d;fill-opacity:1;fill-rule:nonzero;stroke:none"
         id="path42" /><path
         d="m 92.0781,215.137 6.375,-6.375 -41.4375,-28.688 28.6875,41.438 6.375,-6.375 -35.0625,-35.063"
         style="fill:#f7cf0d;fill-opacity:1;fill-rule:nonzero;stroke:none"
         id="path44" /><path
         d="m 85.7188,221.32 -27.8282,-40.195 34.0157,34.012 z m 6.3593,-6.359 -34.0117,-34.012 40.1953,27.828 z m -35.5508,-35.375 0.3868,0.559 28.7734,41.558 12.957,-12.961 -0.1211,-0.082 -41.9961,-29.074"
         style="fill:#100f0d;fill-opacity:1;fill-rule:nonzero;stroke:none"
         id="path46" /><path
         d="m 78.7227,218.23 -6.7539,-4.523 c -13.4454,18.582 -21.3985,7.238 -25.7032,20.406 7.9922,-8.191 8.668,1.289 25.3242,-5.613"
         style="fill:#f7cf0d;fill-opacity:1;fill-rule:nonzero;stroke:none"
         id="path48" /><path
         d="m 71.9375,213.539 -0.0664,0.098 c -7.0742,9.769 -12.5234,11.211 -16.9063,12.367 -3.9257,1.039 -6.7617,1.789 -8.8164,8.07 l -0.164,0.504 0.3711,-0.379 c 3.9492,-4.051 6.0781,-3.734 9.3047,-3.254 3.2148,0.477 7.6171,1.133 15.9765,-2.332 l 0.1133,-0.047 -0.0937,-0.226 -0.1133,0.047 c -8.2969,3.437 -12.6602,2.789 -15.8477,2.316 -3.1914,-0.476 -5.3398,-0.797 -9.1445,2.949 2,-5.695 4.7344,-6.422 8.4805,-7.41 4.4023,-1.164 9.8789,-2.609 16.9687,-12.367 l 6.7539,4.523 0.1367,-0.203 -6.9531,-4.656"
         style="fill:#100f0d;fill-opacity:1;fill-rule:nonzero;stroke:none"
         id="path50" /><path
         d="m 76.7422,221.355 c -8.2344,5 -14.5313,5.934 -19.5899,6.684 -5.2656,0.781 -8.7421,1.297 -10.996,6.02 l 0.2187,0.105 c 2.1992,-4.605 5.6289,-5.113 10.8164,-5.883 4.8125,-0.715 11.4024,-1.691 19.6797,-6.715 l -0.1289,-0.211"
         style="fill:#100f0d;fill-opacity:1;fill-rule:nonzero;stroke:none"
         id="path52" /><path
         d="m 92.0781,215.137 v -9.016 l -49.5859,9.016 49.5859,9.015 v -9.015 H 42.4922"
         style="fill:#f7cf0d;fill-opacity:1;fill-rule:nonzero;stroke:none"
         id="path54" /><path
         d="M 43.8555,215.258 H 91.957 v 8.746 z m 0,-0.246 48.1015,-8.742 v 8.742 z m 48.3476,-9.039 -0.1484,0.027 -50.25,9.137 50.3984,9.164 v -18.328"
         style="fill:#100f0d;fill-opacity:1;fill-rule:nonzero;stroke:none"
         id="path56" /><path
         d="m 84.8203,226.77 -7.9726,1.574 c 3.6328,22.648 -10.0118,20.25 -3.7461,32.605 -0.1407,-11.445 7.039,-5.219 13.9414,-21.875"
         style="fill:#f7cf0d;fill-opacity:1;fill-rule:nonzero;stroke:none"
         id="path58" /><path
         d="m 84.918,226.625 -8.211,1.621 0.0196,0.117 c 1.9101,11.91 -0.9258,16.785 -3.2032,20.7 -2.0429,3.511 -3.5195,6.046 -0.5312,11.941 l 0.2383,0.473 -0.0039,-0.532 c -0.0703,-5.656 1.6601,-6.937 4.2773,-8.879 2.6133,-1.933 6.1875,-4.586 9.6524,-12.945 l 0.0468,-0.113 -0.2265,-0.094 -0.0469,0.113 c -3.4375,8.297 -6.9805,10.922 -9.5703,12.84 -2.5977,1.926 -4.3399,3.215 -4.3828,8.551 -2.6133,-5.438 -1.1914,-7.883 0.7578,-11.23 2.289,-3.938 5.1406,-8.833 3.2539,-20.747 l 7.9765,-1.578 -0.0468,-0.238"
         style="fill:#100f0d;fill-opacity:1;fill-rule:nonzero;stroke:none"
         id="path60" /><path
         d="m 85.6328,230.379 c -2.289,9.355 -6.082,14.469 -9.125,18.574 -3.1719,4.277 -5.2656,7.102 -3.5234,12.035 l 0.2344,-0.082 c -1.7032,-4.808 0.3593,-7.593 3.4843,-11.804 2.8985,-3.907 6.8672,-9.258 9.168,-18.664 l -0.2383,-0.059"
         style="fill:#100f0d;fill-opacity:1;fill-rule:nonzero;stroke:none"
         id="path62" /><path
         d="m 92.0781,215.137 -6.375,-6.375 -28.6875,41.437 41.4375,-28.687 -6.375,-6.375 -35.0625,35.062"
         style="fill:#f7cf0d;fill-opacity:1;fill-rule:nonzero;stroke:none"
         id="path64" /><path
         d="m 58.0664,249.32 34.0117,-34.011 6.1836,6.183 z m -0.1758,-0.172 27.8282,-40.195 6.1875,6.184 z m 27.7969,-40.578 -0.0859,0.121 -29.0743,41.993 42.1172,-29.157 -12.957,-12.957"
         style="fill:#100f0d;fill-opacity:1;fill-rule:nonzero;stroke:none"
         id="path66" /><path
         d="m 95.1719,228.492 -4.5235,6.754 c 18.5816,13.445 7.2383,21.399 20.4066,25.703 -8.192,-7.992 1.289,-8.668 -5.614,-25.324"
         style="fill:#f7cf0d;fill-opacity:1;fill-rule:nonzero;stroke:none"
         id="path68" /><path
         d="m 95.1367,228.324 -4.6562,6.953 0.0976,0.067 c 9.7699,7.074 11.2109,12.523 12.3669,16.902 1.039,3.93 1.789,6.766 8.071,8.82 l 0.504,0.164 -0.379,-0.371 c -4.051,-3.949 -3.735,-6.082 -3.254,-9.304 0.476,-3.215 1.133,-7.617 -2.328,-15.977 l -0.047,-0.117 -0.231,0.094 0.047,0.117 c 3.438,8.297 2.789,12.66 2.317,15.848 -0.477,3.195 -0.797,5.339 2.949,9.144 -5.696,-2 -6.418,-4.734 -7.41,-8.48 -1.164,-4.403 -2.61,-9.879 -12.3676,-16.969 l 4.5234,-6.754 -0.2031,-0.137"
         style="fill:#100f0d;fill-opacity:1;fill-rule:nonzero;stroke:none"
         id="path70" /><path
         d="m 98.5078,230.344 -0.2109,0.129 c 5.0001,8.234 5.9331,14.531 6.6831,19.586 0.782,5.269 1.297,8.746 6.024,11 l 0.101,-0.223 c -4.601,-2.195 -5.113,-5.625 -5.882,-10.813 -0.711,-4.812 -1.692,-11.402 -6.7152,-19.679"
         style="fill:#100f0d;fill-opacity:1;fill-rule:nonzero;stroke:none"
         id="path72" /><path
         d="m 92.0781,215.137 h -9.0156 l 9.0156,49.586 9.0159,-49.586 h -9.0159 v 49.586"
         style="fill:#f7cf0d;fill-opacity:1;fill-rule:nonzero;stroke:none"
         id="path74" /><path
         d="m 83.2109,215.258 h 8.7461 v 48.101 z m 8.9922,0 h 8.7419 l -8.7419,48.101 z m 9.0389,-0.246 H 82.9141 l 0.0273,0.144 9.1367,50.254 9.1639,-50.398"
         style="fill:#100f0d;fill-opacity:1;fill-rule:nonzero;stroke:none"
         id="path76" /><path
         d="m 103.711,222.395 1.574,7.972 c 22.649,-3.633 20.25,10.012 32.606,3.746 -11.442,0.141 -5.215,-7.039 -21.875,-13.941"
         style="fill:#f7cf0d;fill-opacity:1;fill-rule:nonzero;stroke:none"
         id="path78" /><path
         d="m 115.949,220.012 -0.094,0.226 0.114,0.047 c 8.297,3.438 10.922,6.981 12.84,9.57 1.925,2.598 3.218,4.34 8.554,4.383 -5.441,2.614 -7.886,1.192 -11.234,-0.758 -3.938,-2.289 -8.832,-5.14 -20.742,-3.253 l -1.578,-7.977 -0.243,0.047 1.622,8.211 0.121,-0.02 c 11.906,-1.91 16.781,0.926 20.695,3.203 3.512,2.043 6.051,3.52 11.941,0.532 l 0.473,-0.239 -0.527,0.004 c -5.672,0.067 -6.942,-1.66 -8.883,-4.281 -1.934,-2.609 -4.586,-6.184 -12.945,-9.648 l -0.114,-0.047"
         style="fill:#100f0d;fill-opacity:1;fill-rule:nonzero;stroke:none"
         id="path80" /><path
         d="m 107.379,221.344 -0.059,0.238 c 9.36,2.289 14.469,6.082 18.575,9.125 4.277,3.172 7.105,5.266 12.035,3.52 l -0.078,-0.231 c -4.813,1.703 -7.594,-0.363 -11.809,-3.484 -3.906,-2.899 -9.258,-6.867 -18.664,-9.168"
         style="fill:#100f0d;fill-opacity:1;fill-rule:nonzero;stroke:none"
         id="path82" /><path
         d="m 92.0781,215.137 -6.375,6.375 41.4379,28.687 -28.6879,-41.437 -6.375,6.375 35.0629,35.062"
         style="fill:#f7cf0d;fill-opacity:1;fill-rule:nonzero;stroke:none"
         id="path84" /><path
         d="m 85.8945,221.492 6.1836,-6.183 34.0119,34.011 z m 6.3594,-6.355 6.1836,-6.184 27.8285,40.195 z m 6.2149,-6.567 -12.9571,12.957 0.1211,0.086 41.9962,29.071 -0.387,-0.555 -28.7732,-41.559"
         style="fill:#100f0d;fill-opacity:1;fill-rule:nonzero;stroke:none"
         id="path86" /><path
         d="m 105.434,212.043 6.754,4.523 c 13.445,-18.582 21.398,-7.238 25.703,-20.406 -7.993,8.192 -8.668,-1.289 -25.325,5.61"
         style="fill:#f7cf0d;fill-opacity:1;fill-rule:nonzero;stroke:none"
         id="path88" /><path
         d="m 138.172,195.695 -0.371,0.379 c -3.949,4.051 -6.078,3.735 -9.305,3.254 -3.215,-0.476 -7.617,-1.133 -15.976,2.328 l -0.114,0.047 0.094,0.231 0.113,-0.047 c 8.297,-3.442 12.66,-2.789 15.848,-2.317 3.195,0.477 5.34,0.797 9.144,-2.949 -2,5.695 -4.734,6.418 -8.476,7.41 -4.406,1.164 -9.883,2.61 -16.973,12.367 l -6.754,-4.527 -0.136,0.207 6.953,4.656 0.066,-0.097 c 7.074,-9.77 12.524,-11.211 16.906,-12.367 3.926,-1.04 6.762,-1.79 8.817,-8.071 l 0.164,-0.504"
         style="fill:#100f0d;fill-opacity:1;fill-rule:nonzero;stroke:none"
         id="path90" /><path
         d="m 137.781,196.105 c -2.199,4.61 -5.629,5.118 -10.816,5.887 -4.813,0.711 -11.402,1.692 -19.68,6.715 l 0.129,0.207 c 8.234,-4.996 14.531,-5.93 19.59,-6.68 5.266,-0.781 8.742,-1.296 10.996,-6.019 l -0.219,-0.11"
         style="fill:#100f0d;fill-opacity:1;fill-rule:nonzero;stroke:none"
         id="path92" /><path
         d="m 92.0781,215.137 v 9.015 l 49.5859,-9.015 -49.5859,-9.016 v 9.016 h 49.5859"
         style="fill:#f7cf0d;fill-opacity:1;fill-rule:nonzero;stroke:none"
         id="path94" /><path
         d="m 92.2031,215.258 h 48.0979 l -48.0979,8.746 z m 0,-0.246 v -8.742 l 48.0979,8.742 z m -0.2461,-9.039 v 18.328 l 0.1446,-0.028 50.2504,-9.136 -50.395,-9.164"
         style="fill:#100f0d;fill-opacity:1;fill-rule:nonzero;stroke:none"
         id="path96" /><path
         d="m 99.3359,203.504 7.9731,-1.578 c -3.633,-22.645 10.011,-20.246 3.746,-32.602 0.14,11.442 -7.039,5.215 -13.9417,21.875"
         style="fill:#f7cf0d;fill-opacity:1;fill-rule:nonzero;stroke:none"
         id="path98" /><path
         d="m 110.926,168.797 0.008,0.527 c 0.066,5.66 -1.664,6.942 -4.282,8.883 -2.613,1.934 -6.187,4.582 -9.652,12.945 l -0.0469,0.114 0.2266,0.093 0.0469,-0.113 c 3.4374,-8.297 6.9844,-10.926 9.5704,-12.84 2.598,-1.926 4.34,-3.215 4.383,-8.554 2.613,5.441 1.191,7.886 -0.758,11.234 -2.289,3.937 -5.141,8.832 -3.254,20.742 l -7.9766,1.578 0.0469,0.242 8.2107,-1.625 -0.019,-0.117 c -1.91,-11.906 0.925,-16.781 3.207,-20.695 2.043,-3.512 3.515,-6.051 0.527,-11.941 l -0.238,-0.473"
         style="fill:#100f0d;fill-opacity:1;fill-rule:nonzero;stroke:none"
         id="path100" /><path
         d="m 111.172,169.281 -0.234,0.082 c 1.703,4.813 -0.36,7.598 -3.485,11.809 -2.898,3.906 -6.867,9.258 -9.1678,18.664 l 0.2382,0.059 c 2.2896,-9.36 6.0816,-14.469 9.1246,-18.579 3.172,-4.273 5.266,-7.097 3.524,-12.035"
         style="fill:#100f0d;fill-opacity:1;fill-rule:nonzero;stroke:none"
         id="path102" /><path
         d="m 92.0781,215.137 6.375,6.375 28.6879,-41.438 -41.4379,28.688 6.375,6.375 35.0629,-35.063"
         style="fill:#f7cf0d;fill-opacity:1;fill-rule:nonzero;stroke:none"
         id="path104" /><path
         d="M 92.2539,215.137 126.266,181.125 98.4375,221.32 Z m -6.3594,-6.36 40.1955,-27.828 -34.0119,34.012 z m 41.7345,-29.191 -42.1173,29.156 0.1055,0.106 12.8516,12.855 0.0859,-0.121 29.0743,-41.996"
         style="fill:#100f0d;fill-opacity:1;fill-rule:nonzero;stroke:none"
         id="path106" /><path
         d="m 92.0781,231.664 c 9.1289,0 16.5269,-7.398 16.5269,-16.527 0,-9.129 -7.398,-16.532 -16.5269,-16.532 -9.1289,0 -16.5273,7.403 -16.5273,16.532 0,9.129 7.3984,16.527 16.5273,16.527"
         style="fill:#f7cf0d;fill-opacity:1;fill-rule:nonzero;stroke:none"
         id="path108" /><path
         d="m 92.0781,231.543 c -9.0468,0 -16.4062,-7.359 -16.4062,-16.406 0,-9.047 7.3594,-16.407 16.4062,-16.407 9.0469,0 16.4059,7.36 16.4059,16.407 0,9.047 -7.359,16.406 -16.4059,16.406 z m 0,-33.059 c -9.1797,0 -16.6523,7.469 -16.6523,16.653 0,9.179 7.4726,16.652 16.6523,16.652 9.1839,0 16.6519,-7.473 16.6519,-16.652 0,-9.184 -7.468,-16.653 -16.6519,-16.653"
         style="fill:#100f0d;fill-opacity:1;fill-rule:nonzero;stroke:none"
         id="path110" /><path
         d="m 99.8906,220.395 c 1.0544,-0.903 0.1524,-2.856 -0.8984,-2.856 -1.0547,0 -3.0078,1.805 -2.1055,3.008 m 7.3633,1.199 c -1.051,-1.199 -1.652,0.902 -5.4102,0.902 -3.7578,0 -4.3593,-2.253 -4.957,-1.8 -0.6015,0.449 3.1524,3.152 4.3555,3.304 1.2031,0.149 4.6597,-1.05 6.0117,-2.406"
         style="fill:#100f0d;fill-opacity:1;fill-rule:nonzero;stroke:none"
         id="path112" /><path
         d="m 95.3828,218.594 c 0.6016,0.898 1.3516,-0.903 3.0078,-0.903 1.6524,0 2.5544,0.45 3.6054,1.204 1.051,0.75 -1.504,-1.805 -3.1562,-1.805 -1.6523,0 -3.9062,0.902 -3.457,1.504 m -0.4492,0.449 c 0.1484,1.805 1.6523,2.105 4.0586,2.105 2.4028,0 3.4528,-1.804 4.3558,-2.253 -1.051,0 -1.953,1.5 -4.3558,1.5 -2.4063,0 -2.4063,0 -4.0586,-1.5"
         style="fill:#100f0d;fill-opacity:1;fill-rule:nonzero;stroke:none"
         id="path114" /><path
         d="m 92.0781,210.629 c 1.0508,0 1.3516,0.75 2.5547,0.75 1.2031,0 2.8555,-0.449 3.6055,-1.051 0.1523,-0.148 -0.4492,1.203 -1.6524,1.352 -1.2031,0.148 -0.75,2.105 -2.1054,2.406 0,-0.602 0.4531,-0.453 0.6015,-1.356 h -1.6523 c 0.3008,-1.199 -0.6016,-1.199 -1.3516,-1.199 m 0,-6.461 c 3.7578,0 3.1563,0.75 8.1129,2.856 -3.6051,-0.453 -4.3551,-1.656 -8.1129,-1.656 h -0.75 m 9.4649,0.3 c -0.602,1.051 -0.449,0.754 -1.6524,2.407 1.2034,-0.903 1.5044,-1.356 1.6524,-2.407 m -8.7149,2.106 c 0.9024,0 1.2032,0.301 2.4024,0.301 1.2031,0 4.0586,-1.653 5.7105,-1.051 -3.4566,-1.356 -2.1012,-0.453 -8.1129,-0.453 h -0.75 m 9.1639,10.218 c 1.953,1.051 0.75,2.555 0,2.856 0.301,-0.301 1.504,-1.805 0,-2.856"
         style="fill:#100f0d;fill-opacity:1;fill-rule:nonzero;stroke:none"
         id="path116" /><path
         d="m 84.2656,220.395 c -1.0547,-0.903 -0.1523,-2.856 0.9024,-2.856 1.0508,0 3.0039,1.805 2.1015,3.008 m -7.3632,1.199 c 1.0507,-1.199 1.6523,0.902 5.4101,0.902 3.7578,0 4.3594,-2.253 4.957,-1.8 0.6016,0.449 -3.1523,3.152 -4.3554,3.304 -1.2032,0.149 -4.6602,-1.05 -6.0117,-2.406"
         style="fill:#100f0d;fill-opacity:1;fill-rule:nonzero;stroke:none"
         id="path118" /><path
         d="m 88.7734,218.594 c -0.6015,0.898 -1.3515,-0.903 -3.0078,-0.903 -1.6523,0 -2.5547,0.45 -3.6054,1.204 -1.0508,0.75 1.5039,-1.805 3.1562,-1.805 1.6524,0 3.9063,0.902 3.457,1.504 m 0.4493,0.449 c -0.1485,1.805 -1.6524,2.105 -4.0547,2.105 -2.4063,0 -3.4571,-1.804 -4.3594,-2.253 1.0508,0 1.9531,1.5 4.3594,1.5 2.4023,0 2.4023,0 4.0547,-1.5"
         style="fill:#100f0d;fill-opacity:1;fill-rule:nonzero;stroke:none"
         id="path120" /><path
         d="m 92.0781,210.629 c -1.0508,0 -1.3515,0.75 -2.5547,0.75 -1.2031,0 -2.8554,-0.449 -3.6054,-1.051 -0.1524,-0.148 0.4492,1.203 1.6523,1.352 1.2031,0.148 0.75,2.105 2.1055,2.406 0,-0.602 -0.4531,-0.453 -0.6016,-1.356 h 1.6524 c -0.3008,-1.199 0.6015,-1.199 1.3515,-1.199 m 0,-6.461 c -3.7578,0 -3.1562,0.75 -8.1133,2.856 3.6055,-0.453 4.3555,-1.656 8.1133,-1.656 h 0.75 m -9.4648,0.3 c 0.6015,1.051 0.4492,0.754 1.6523,2.407 -1.2031,-0.903 -1.5039,-1.356 -1.6523,-2.407 m 8.7148,2.106 c -0.9023,0 -1.2031,0.301 -2.4023,0.301 -1.2031,0 -4.0586,-1.653 -5.711,-1.051 3.4571,-1.356 2.1016,-0.453 8.1133,-0.453 h 0.75 m -9.164,10.218 c -1.9532,1.051 -0.75,2.555 0,2.856 -0.3008,-0.301 -1.5039,-1.805 0,-2.856"
         style="fill:#100f0d;fill-opacity:1;fill-rule:nonzero;stroke:none"
         id="path122" /><path
         d="m 92.0781,203.715 c -0.75,0 -2.7031,-0.449 0,-0.449 2.7032,0 0.75,0.449 0,0.449"
         style="fill:#100f0d;fill-opacity:1;fill-rule:nonzero;stroke:none"
         id="path124" /></g></g></svg>
