<?xml version="1.0" encoding="UTF-8" standalone="no"?>
<svg
   xmlns:dc="http://purl.org/dc/elements/1.1/"
   xmlns:cc="http://creativecommons.org/ns#"
   xmlns:rdf="http://www.w3.org/1999/02/22-rdf-syntax-ns#"
   xmlns:svg="http://www.w3.org/2000/svg"
   xmlns="http://www.w3.org/2000/svg"
   version="1.1"
   id="svg2"
   xml:space="preserve"
   width="42.666668"
   height="42.666668"
   viewBox="0 0 42.666668 42.666668"><metadata
     id="metadata8"><rdf:RDF><cc:Work
         rdf:about=""><dc:format>image/svg+xml</dc:format><dc:type
           rdf:resource="http://purl.org/dc/dcmitype/StillImage" /></cc:Work></rdf:RDF></metadata><defs
     id="defs6" /><g
     id="g10"
     transform="matrix(1.3333333,0,0,-1.3333333,0,42.666667)"><g
       id="g12"
       transform="scale(0.1)"><path
         d="m 320,159.965 c 0,16.988 -2.578,33.437 -7.363,48.84 H 7.36719 C 2.58203,193.402 0,176.953 0,159.965 0,142.941 2.58203,126.531 7.36719,111.078 H 312.637 c 4.785,15.453 7.363,31.863 7.363,48.887"
         style="fill:#ffffff;fill-opacity:1;fill-rule:evenodd;stroke:none"
         id="path14" /><path
         d="M 310.52,214.289 H 9.48438 C 31.7227,275.895 90.7227,319.957 159.992,319.957 c 69.266,0 128.266,-44.062 150.528,-105.668"
         style="fill:#3b9ab7;fill-opacity:1;fill-rule:evenodd;stroke:none"
         id="path16" /><path
         d="M 9.48438,105.617 H 310.52 C 288.258,44.0078 229.258,-0.046875 159.992,-0.046875 90.7227,-0.046875 31.7227,44.0078 9.48438,105.617"
         style="fill:#39b73e;fill-opacity:1;fill-rule:evenodd;stroke:none"
         id="path18" /><path
         d="m 312.371,208.805 c -0.59,1.84 -1.195,3.675 -1.851,5.484 H 9.45703 C 8.80469,212.48 8.20313,210.645 7.61328,208.805 H 312.371"
         style="fill:#d01e27;fill-opacity:1;fill-rule:evenodd;stroke:none"
         id="path20" /><path
         d="m 7.62109,111.078 c 0.58594,-1.832 1.1875,-3.656 1.83594,-5.461 H 310.52 c 0.652,1.805 1.257,3.629 1.843,5.461 H 7.62109"
         style="fill:#d01e27;fill-opacity:1;fill-rule:evenodd;stroke:none"
         id="path22" /><path
         d="m 64.832,252.777 c 0,11.977 8.711,21.914 20.1407,23.832 -1.3086,0.219 -2.6563,0.34 -4.0274,0.34 -13.3476,0 -24.1719,-10.82 -24.1719,-24.172 0,-13.347 10.8243,-24.168 24.1719,-24.168 1.3711,0 2.7188,0.121 4.0274,0.34 -11.4297,1.918 -20.1407,11.856 -20.1407,23.828"
         style="fill:#ffffff;fill-opacity:1;fill-rule:nonzero;stroke:none"
         id="path24" /><path
         d="m 97.2031,232.871 2.8439,2.067 h -3.5157 l -1.086,3.339 -1.082,-3.339 h -3.5117 l 2.8398,-2.067 -1.0859,-3.34 2.8437,2.067 2.8399,-2.067 -1.086,3.34"
         style="fill:#ffffff;fill-opacity:1;fill-rule:nonzero;stroke:none"
         id="path26" /><path
         d="m 116.539,232.871 2.84,2.067 h -3.512 l -1.082,3.339 -1.086,-3.339 h -3.511 l 2.839,-2.067 -1.086,-3.34 2.84,2.067 2.844,-2.067 -1.086,3.34"
         style="fill:#ffffff;fill-opacity:1;fill-rule:nonzero;stroke:none"
         id="path28" /><path
         d="m 135.875,232.871 2.84,2.067 h -3.508 l -1.086,3.339 -1.086,-3.339 h -3.512 l 2.84,-2.067 -1.082,-3.34 2.84,2.067 2.84,-2.067 -1.086,3.34"
         style="fill:#ffffff;fill-opacity:1;fill-rule:nonzero;stroke:none"
         id="path30" /><path
         d="m 155.215,232.871 2.84,2.067 h -3.512 l -1.086,3.339 -1.086,-3.339 h -3.512 l 2.84,-2.067 -1.082,-3.34 2.84,2.063 2.84,-2.063 -1.082,3.34"
         style="fill:#ffffff;fill-opacity:1;fill-rule:nonzero;stroke:none"
         id="path32" /><path
         d="m 174.551,232.871 2.84,2.067 h -3.512 l -1.086,3.339 -1.086,-3.339 h -3.508 l 2.84,-2.067 -1.086,-3.34 2.84,2.067 2.84,-2.067 -1.082,3.34"
         style="fill:#ffffff;fill-opacity:1;fill-rule:nonzero;stroke:none"
         id="path34" /><path
         d="m 116.539,252.207 2.84,2.066 h -3.512 l -1.082,3.34 -1.086,-3.34 h -3.511 l 2.839,-2.066 -1.086,-3.34 2.84,2.067 2.844,-2.067 -1.086,3.34"
         style="fill:#ffffff;fill-opacity:1;fill-rule:nonzero;stroke:none"
         id="path36" /><path
         d="m 135.875,252.207 2.84,2.066 h -3.508 l -1.086,3.34 -1.086,-3.34 h -3.512 l 2.84,-2.066 -1.082,-3.34 2.84,2.067 2.84,-2.067 -1.086,3.34"
         style="fill:#ffffff;fill-opacity:1;fill-rule:nonzero;stroke:none"
         id="path38" /><path
         d="m 155.215,252.207 2.84,2.066 h -3.512 l -1.086,3.34 -1.086,-3.34 h -3.512 l 2.84,-2.066 -1.082,-3.34 2.84,2.067 2.84,-2.067 -1.082,3.34"
         style="fill:#ffffff;fill-opacity:1;fill-rule:nonzero;stroke:none"
         id="path40" /><path
         d="m 174.551,252.207 2.84,2.066 h -3.512 l -1.086,3.34 -1.086,-3.34 h -3.508 l 2.84,-2.066 -1.086,-3.34 2.84,2.067 2.84,-2.067 -1.082,3.34"
         style="fill:#ffffff;fill-opacity:1;fill-rule:nonzero;stroke:none"
         id="path42" /><path
         d="m 135.875,271.547 2.84,2.062 h -3.508 l -1.086,3.34 -1.086,-3.34 h -3.512 l 2.84,-2.062 -1.082,-3.344 2.84,2.067 2.84,-2.067 -1.086,3.344"
         style="fill:#ffffff;fill-opacity:1;fill-rule:nonzero;stroke:none"
         id="path44" /><path
         d="m 155.215,271.547 2.84,2.062 h -3.512 l -1.086,3.34 -1.086,-3.34 h -3.512 l 2.84,-2.062 -1.082,-3.344 2.84,2.063 2.84,-2.063 -1.082,3.344"
         style="fill:#ffffff;fill-opacity:1;fill-rule:nonzero;stroke:none"
         id="path46" /><path
         d="m 174.551,271.547 2.84,2.062 h -3.512 l -1.086,3.34 -1.086,-3.34 h -3.508 l 2.84,-2.062 -1.086,-3.344 2.84,2.067 2.84,-2.067 -1.082,3.344"
         style="fill:#ffffff;fill-opacity:1;fill-rule:nonzero;stroke:none"
         id="path48" /></g></g></svg>
