<?xml version="1.0" encoding="UTF-8" standalone="no"?>
<svg
   xmlns:dc="http://purl.org/dc/elements/1.1/"
   xmlns:cc="http://creativecommons.org/ns#"
   xmlns:rdf="http://www.w3.org/1999/02/22-rdf-syntax-ns#"
   xmlns:svg="http://www.w3.org/2000/svg"
   xmlns="http://www.w3.org/2000/svg"
   version="1.1"
   id="svg2"
   xml:space="preserve"
   width="42.666668"
   height="42.666668"
   viewBox="0 0 42.666668 42.666668"><metadata
     id="metadata8"><rdf:RDF><cc:Work
         rdf:about=""><dc:format>image/svg+xml</dc:format><dc:type
           rdf:resource="http://purl.org/dc/dcmitype/StillImage" /></cc:Work></rdf:RDF></metadata><defs
     id="defs6" /><g
     id="g10"
     transform="matrix(1.3333333,0,0,-1.3333333,0,42.666667)"><g
       id="g12"
       transform="scale(0.1)"><path
         d="m 160.004,320.023 c -31.258,0 -60.4454,-9.05 -85.129,-24.644 V 24.5898 c 24.6836,-15.58199 53.871,-24.6132375 85.129,-24.6132375 31.238,0 60.426,9.0312475 85.117,24.6132375 V 295.379 c -24.691,15.594 -53.879,24.644 -85.117,24.644"
         style="fill:#f7cf0d;fill-opacity:1;fill-rule:evenodd;stroke:none"
         id="path14" /><path
         d="M 245.121,295.379 V 24.5898 C 290.047,52.9883 320,103.098 320,159.984 320,216.883 290.047,267 245.121,295.379"
         style="fill:#2ea25c;fill-opacity:1;fill-rule:nonzero;stroke:none"
         id="path16" /><path
         d="M 74.875,24.5898 V 295.379 C 29.9453,267 0,216.883 0,159.984 0,103.098 29.9453,52.9883 74.875,24.5898"
         style="fill:#396dbe;fill-opacity:1;fill-rule:nonzero;stroke:none"
         id="path18" /><path
         d="m 98.4141,194.305 c 9.2069,18.129 18.0309,36.457 27.4409,54.437 9.118,-18.133 18.176,-36.308 27.293,-54.437 -9.117,-18.274 -18.125,-36.555 -27.441,-54.727 -9.016,18.274 -18.277,36.453 -27.2929,54.727"
         style="fill:#2ea25c;fill-opacity:1;fill-rule:nonzero;stroke:none"
         id="path20" /><path
         d="m 194.129,248.789 c 9.418,-18.027 18.23,-36.355 27.449,-54.484 -9.023,-18.274 -18.234,-36.453 -27.289,-54.68 -9.324,18.125 -18.332,36.406 -27.453,54.68 9.121,18.129 18.184,36.304 27.293,54.484"
         style="fill:#2ea25c;fill-opacity:1;fill-rule:nonzero;stroke:none"
         id="path22" /><path
         d="m 132.652,125.871 c 9.121,18.184 18.145,36.406 27.352,54.543 9.207,-18.137 18.223,-36.359 27.332,-54.543 C 178.27,107.602 169.152,89.375 160.004,71.1914 150.84,89.375 141.73,107.602 132.652,125.871"
         style="fill:#2ea25c;fill-opacity:1;fill-rule:nonzero;stroke:none"
         id="path24" /></g></g></svg>
