<?xml version="1.0" encoding="UTF-8" standalone="no"?>
<svg
   xmlns:dc="http://purl.org/dc/elements/1.1/"
   xmlns:cc="http://creativecommons.org/ns#"
   xmlns:rdf="http://www.w3.org/1999/02/22-rdf-syntax-ns#"
   xmlns:svg="http://www.w3.org/2000/svg"
   xmlns="http://www.w3.org/2000/svg"
   version="1.1"
   id="svg2"
   xml:space="preserve"
   width="42.666668"
   height="42.666668"
   viewBox="0 0 42.666668 42.666668"><metadata
     id="metadata8"><rdf:RDF><cc:Work
         rdf:about=""><dc:format>image/svg+xml</dc:format><dc:type
           rdf:resource="http://purl.org/dc/dcmitype/StillImage" /></cc:Work></rdf:RDF></metadata><defs
     id="defs6" /><g
     id="g10"
     transform="matrix(1.3333333,0,0,-1.3333333,0,42.666667)"><g
       id="g12"
       transform="scale(0.1)"><path
         d="M 310.523,105.645 H 9.47656 C 3.34766,122.617 0,140.914 0,160 c 0,19.086 3.34766,37.383 9.47656,54.355 H 310.523 C 316.652,197.383 320,179.086 320,160 c 0,-19.086 -3.348,-37.383 -9.477,-54.355"
         style="fill:#273375;fill-opacity:1;fill-rule:evenodd;stroke:none"
         id="path14" /><path
         d="M 310.523,105.645 H 9.47656 C 31.7344,44.0313 90.7305,-0.0234375 159.992,-0.0234375 c 69.274,0 128.274,44.0547375 150.531,105.6684375"
         style="fill:#d11d2c;fill-opacity:1;fill-rule:evenodd;stroke:none"
         id="path16" /><path
         d="M 9.47656,214.355 H 310.523 C 288.266,275.969 229.266,320.023 159.992,320.023 90.7305,320.023 31.7344,275.969 9.47656,214.355"
         style="fill:#fbc907;fill-opacity:1;fill-rule:evenodd;stroke:none"
         id="path18" /><path
         d="m 239.801,134.852 c -3.547,-0.18 -7.086,-0.219 -10.637,-0.399 2.887,-2.039 5.852,-3.992 8.774,-5.933 -0.844,-3.461 -1.989,-6.829 -2.833,-10.29 2.797,2.137 5.536,4.348 8.333,6.516 3.011,-1.902 5.851,-3.988 8.863,-5.891 -1.113,3.372 -2.485,6.649 -3.551,10.055 2.75,2.129 5.547,4.258 8.285,6.469 -3.535,0 -7.082,-0.215 -10.586,-0.301 -1.281,3.277 -2.258,6.649 -3.719,9.836 -1.019,-3.324 -1.953,-6.738 -2.929,-10.062 z m -176.8518,0.527 c 2.7539,-2.211 5.5469,-4.34 8.3321,-6.469 -1.1094,-3.406 -2.4805,-6.683 -3.5782,-10.055 3.0078,1.903 5.8828,3.989 8.8594,5.891 2.7852,-2.168 5.5352,-4.379 8.332,-6.516 -0.8437,3.461 -2,6.829 -2.8437,10.29 2.9219,1.941 5.8945,3.894 8.7695,5.933 -3.5351,0.18 -7.0859,0.219 -10.6328,0.399 -0.9766,3.324 -1.8984,6.738 -2.918,10.062 -1.4609,-3.187 -2.4375,-6.559 -3.6836,-9.836 -3.539,0.086 -7.0859,0.301 -10.6367,0.301 z m 160.1528,24.684 c -3.247,-1.415 -6.602,-2.567 -9.801,-4.079 3.414,-0.925 6.871,-1.632 10.285,-2.609 0.223,-3.543 0.48,-7.094 0.754,-10.637 1.906,3.016 3.715,6.071 5.668,9.043 3.414,-0.797 6.828,-1.73 10.242,-2.484 -2.133,2.793 -4.527,5.41 -6.738,8.152 1.863,3.016 3.808,5.938 5.582,8.996 -3.324,-1.242 -6.559,-2.656 -9.836,-3.894 -2.305,2.652 -4.481,5.406 -6.875,8.062 0.18,-3.543 0.496,-7.047 0.719,-10.55 z m -142.2075,6.382 c 1.7735,-3.058 3.7305,-5.98 5.5938,-8.996 -2.2227,-2.742 -4.6172,-5.359 -6.7383,-8.152 3.4141,0.754 6.8281,1.687 10.2305,2.484 1.9531,-2.972 3.7734,-6.027 5.6797,-9.043 0.2617,3.543 0.5273,7.094 0.7539,10.637 3.4023,0.977 6.8589,1.684 10.2739,2.609 -3.188,1.512 -6.555,2.664 -9.7896,4.079 0.2227,3.503 0.5274,7.007 0.7071,10.55 -2.3946,-2.656 -4.5586,-5.41 -6.875,-8.062 -3.2657,1.238 -6.5117,2.652 -9.836,3.894 z m 113.6175,21.274 c 1.336,-3.278 2.886,-6.465 4.258,-9.746 -2.618,-2.399 -5.313,-4.707 -7.883,-7.141 3.582,0.313 7.129,0.84 10.679,1.02 1.368,-3.235 2.782,-6.469 4.289,-9.614 0.762,3.41 1.516,6.867 2.176,10.321 3.504,0.535 7.086,0.707 10.59,1.203 -3.008,1.902 -6.164,3.543 -9.172,5.355 0.707,3.457 1.547,6.918 2.164,10.371 -2.691,-2.258 -5.218,-4.699 -7.883,-7.047 -3.097,1.731 -6.117,3.594 -9.218,5.278 z m -83.973,-8.602 c -3.008,-1.812 -6.152,-3.453 -9.16,-5.312 3.492,-0.539 7.086,-0.711 10.59,-1.246 0.66,-3.454 1.414,-6.911 2.164,-10.321 1.508,3.145 2.922,6.379 4.301,9.614 3.55,-0.18 7.086,-0.707 10.679,-1.02 -2.57,2.434 -5.277,4.742 -7.894,7.141 1.383,3.281 2.929,6.468 4.258,9.746 -3.102,-1.684 -6.11,-3.547 -9.219,-5.278 -2.653,2.348 -5.18,4.789 -7.887,7.047 0.621,-3.453 1.461,-6.914 2.168,-10.371 z m 51.891,15.113 c 2.39,-2.613 4.918,-5.093 7.355,-7.621 -1.594,-3.191 -3.367,-6.246 -4.918,-9.441 3.192,1.469 6.344,3.152 9.578,4.609 2.438,-2.523 4.875,-5.097 7.356,-7.578 -0.36,3.547 -1.067,7.055 -1.379,10.551 3.152,1.461 6.207,3.016 9.351,4.52 -3.367,1.015 -6.918,1.234 -10.32,1.992 -0.539,3.5 -0.976,7 -1.515,10.504 -1.762,-3.059 -3.325,-6.254 -5.043,-9.352 -3.5,0.617 -6.961,1.238 -10.465,1.816 z m -20.379,7.536 c 1.773,-3.059 3.32,-6.254 5.051,-9.352 3.503,0.617 6.953,1.238 10.457,1.816 -2.395,-2.613 -4.918,-5.093 -7.356,-7.621 1.594,-3.191 3.367,-6.246 4.918,-9.441 -3.187,1.469 -6.336,3.152 -9.566,4.609 -2.438,-2.523 -4.875,-5.097 -7.356,-7.578 0.348,3.547 1.055,7.055 1.367,10.59 -3.14,1.512 -6.332,2.887 -9.351,4.613 3.414,0.707 6.871,1.192 10.332,1.86 0.527,3.5 0.976,7 1.504,10.504"
         style="fill:#ffffff;fill-opacity:1;fill-rule:nonzero;stroke:none"
         id="path20" /></g></g></svg>
