<?xml version="1.0" encoding="UTF-8" standalone="no"?>
<svg
   xmlns:dc="http://purl.org/dc/elements/1.1/"
   xmlns:cc="http://creativecommons.org/ns#"
   xmlns:rdf="http://www.w3.org/1999/02/22-rdf-syntax-ns#"
   xmlns:svg="http://www.w3.org/2000/svg"
   xmlns="http://www.w3.org/2000/svg"
   version="1.1"
   id="svg2"
   xml:space="preserve"
   width="42.666668"
   height="42.666668"
   viewBox="0 0 42.666668 42.666668"><metadata
     id="metadata8"><rdf:RDF><cc:Work
         rdf:about=""><dc:format>image/svg+xml</dc:format><dc:type
           rdf:resource="http://purl.org/dc/dcmitype/StillImage" /></cc:Work></rdf:RDF></metadata><defs
     id="defs6"><clipPath
       clipPathUnits="userSpaceOnUse"
       id="clipPath42"><path
         d="m 206.262,211.414 c 0.246,1.195 0.699,1.402 1.191,2.926 0.082,1.48 -1.191,1.316 -0.82,2.262 0.656,1.031 0.328,2.015 -0.906,2.8 0.246,-1.359 -1.606,-2.636 -1.606,-3.746 0,-1.113 0.945,-0.867 0.82,-2.554 0.082,-0.989 -0.246,-0.739 -0.328,-1.688 z"
         id="path40" /></clipPath><linearGradient
       x1="0"
       y1="0"
       x2="1"
       y2="0"
       gradientUnits="userSpaceOnUse"
       gradientTransform="matrix(-3.85611,2.90771,-1.28587,-8.71973,205.375,215.263)"
       spreadMethod="pad"
       id="linearGradient48"><stop
         style="stop-opacity:1;stop-color:#ed1e24"
         offset="0"
         id="stop44" /><stop
         style="stop-opacity:1;stop-color:#efee0e"
         offset="1"
         id="stop46" /></linearGradient><clipPath
       clipPathUnits="userSpaceOnUse"
       id="clipPath66"><path
         d="m 205.977,196.234 c 0.246,1.192 0.699,1.399 1.195,2.922 0.082,1.481 -1.195,1.317 -0.824,2.266 0.66,1.027 0.328,2.016 -0.907,2.797 0.247,-1.36 -1.605,-2.633 -1.605,-3.746 0,-1.11 0.945,-0.864 0.824,-2.551 0.082,-0.988 -0.25,-0.742 -0.332,-1.688 z"
         id="path64" /></clipPath><linearGradient
       x1="0"
       y1="0"
       x2="1"
       y2="0"
       gradientUnits="userSpaceOnUse"
       gradientTransform="matrix(-3.85611,2.90771,-1.28587,-8.71973,205.091,200.081)"
       spreadMethod="pad"
       id="linearGradient72"><stop
         style="stop-opacity:1;stop-color:#ed1e24"
         offset="0"
         id="stop68" /><stop
         style="stop-opacity:1;stop-color:#efee0e"
         offset="1"
         id="stop70" /></linearGradient><clipPath
       clipPathUnits="userSpaceOnUse"
       id="clipPath90"><path
         d="m 205.859,181.27 c 0.246,1.195 0.7,1.402 1.196,2.925 0.082,1.481 -1.196,1.317 -0.825,2.262 0.661,1.031 0.329,2.02 -0.906,2.801 0.246,-1.36 -1.605,-2.637 -1.605,-3.746 0,-1.114 0.945,-0.867 0.824,-2.551 0.082,-0.988 -0.246,-0.742 -0.328,-1.691 z"
         id="path88" /></clipPath><linearGradient
       x1="0"
       y1="0"
       x2="1"
       y2="0"
       gradientUnits="userSpaceOnUse"
       gradientTransform="matrix(-3.85611,2.90771,-1.28587,-8.71973,204.974,185.119)"
       spreadMethod="pad"
       id="linearGradient96"><stop
         style="stop-opacity:1;stop-color:#ed1e24"
         offset="0"
         id="stop92" /><stop
         style="stop-opacity:1;stop-color:#efee0e"
         offset="1"
         id="stop94" /></linearGradient><clipPath
       clipPathUnits="userSpaceOnUse"
       id="clipPath114"><path
         d="m 215.68,165.066 c 0.246,1.196 0.699,1.399 1.191,2.922 0.086,1.485 -1.191,1.321 -0.82,2.266 0.66,1.027 0.328,2.016 -0.906,2.801 0.246,-1.36 -1.606,-2.637 -1.606,-3.746 0,-1.114 0.945,-0.868 0.824,-2.555 0.082,-0.988 -0.25,-0.742 -0.332,-1.688 z"
         id="path112" /></clipPath><linearGradient
       x1="0"
       y1="0"
       x2="1"
       y2="0"
       gradientUnits="userSpaceOnUse"
       gradientTransform="matrix(-3.85611,2.90771,-1.28587,-8.71973,214.794,168.914)"
       spreadMethod="pad"
       id="linearGradient120"><stop
         style="stop-opacity:1;stop-color:#ed1e24"
         offset="0"
         id="stop116" /><stop
         style="stop-opacity:1;stop-color:#efee0e"
         offset="1"
         id="stop118" /></linearGradient><clipPath
       clipPathUnits="userSpaceOnUse"
       id="clipPath138"><path
         d="m 204.578,151.813 c 0.246,1.191 0.699,1.398 1.195,2.921 0.082,1.481 -1.195,1.317 -0.824,2.262 0.66,1.031 0.328,2.02 -0.906,2.801 0.246,-1.359 -1.605,-2.633 -1.605,-3.746 0,-1.11 0.949,-0.863 0.824,-2.551 0.082,-0.988 -0.246,-0.742 -0.328,-1.687 z"
         id="path136" /></clipPath><linearGradient
       x1="0"
       y1="0"
       x2="1"
       y2="0"
       gradientUnits="userSpaceOnUse"
       gradientTransform="matrix(-3.85611,2.90771,-1.28587,-8.71973,203.693,155.659)"
       spreadMethod="pad"
       id="linearGradient144"><stop
         style="stop-opacity:1;stop-color:#ed1e24"
         offset="0"
         id="stop140" /><stop
         style="stop-opacity:1;stop-color:#efee0e"
         offset="1"
         id="stop142" /></linearGradient><clipPath
       clipPathUnits="userSpaceOnUse"
       id="clipPath162"><path
         d="m 204.871,136.148 c 0.246,1.196 0.699,1.403 1.192,2.926 0.082,1.481 -1.192,1.317 -0.821,2.262 0.656,1.031 0.328,2.019 -0.906,2.801 0.246,-1.36 -1.606,-2.633 -1.606,-3.746 0,-1.114 0.946,-0.868 0.825,-2.551 0.082,-0.988 -0.25,-0.742 -0.332,-1.692 z"
         id="path160" /></clipPath><linearGradient
       x1="0"
       y1="0"
       x2="1"
       y2="0"
       gradientUnits="userSpaceOnUse"
       gradientTransform="matrix(-3.85611,2.90771,-1.28587,-8.71973,203.985,139.998)"
       spreadMethod="pad"
       id="linearGradient168"><stop
         style="stop-opacity:1;stop-color:#ed1e24"
         offset="0"
         id="stop164" /><stop
         style="stop-opacity:1;stop-color:#efee0e"
         offset="1"
         id="stop166" /></linearGradient><clipPath
       clipPathUnits="userSpaceOnUse"
       id="clipPath186"><path
         d="m 260.027,211.168 c 0.246,1.195 0.7,1.398 1.192,2.922 0.082,1.484 -1.192,1.316 -0.821,2.265 0.657,1.028 0.329,2.016 -0.906,2.801 0.246,-1.359 -1.605,-2.636 -1.605,-3.75 0,-1.109 0.945,-0.863 0.824,-2.551 0.082,-0.988 -0.25,-0.742 -0.332,-1.687 z"
         id="path184" /></clipPath><linearGradient
       x1="0"
       y1="0"
       x2="1"
       y2="0"
       gradientUnits="userSpaceOnUse"
       gradientTransform="matrix(-3.85611,2.90771,-1.28587,-8.71973,259.14,215.016)"
       spreadMethod="pad"
       id="linearGradient192"><stop
         style="stop-opacity:1;stop-color:#ed1e24"
         offset="0"
         id="stop188" /><stop
         style="stop-opacity:1;stop-color:#efee0e"
         offset="1"
         id="stop190" /></linearGradient><clipPath
       clipPathUnits="userSpaceOnUse"
       id="clipPath210"><path
         d="m 259.531,196.266 c 0.246,1.195 0.699,1.398 1.196,2.922 0.082,1.484 -1.196,1.316 -0.825,2.265 0.661,1.027 0.328,2.016 -0.906,2.801 0.246,-1.359 -1.605,-2.637 -1.605,-3.75 0,-1.109 0.949,-0.863 0.824,-2.551 0.082,-0.988 -0.246,-0.742 -0.328,-1.687 z"
         id="path208" /></clipPath><linearGradient
       x1="0"
       y1="0"
       x2="1"
       y2="0"
       gradientUnits="userSpaceOnUse"
       gradientTransform="matrix(-3.85611,2.90771,-1.28587,-8.71973,258.646,200.113)"
       spreadMethod="pad"
       id="linearGradient216"><stop
         style="stop-opacity:1;stop-color:#ed1e24"
         offset="0"
         id="stop212" /><stop
         style="stop-opacity:1;stop-color:#efee0e"
         offset="1"
         id="stop214" /></linearGradient><clipPath
       clipPathUnits="userSpaceOnUse"
       id="clipPath234"><path
         d="m 258.871,181.031 c 0.25,1.196 0.703,1.403 1.195,2.926 0.082,1.481 -1.195,1.316 -0.824,2.262 0.66,1.031 0.332,2.019 -0.902,2.801 0.246,-1.36 -1.606,-2.637 -1.606,-3.747 0,-1.113 0.946,-0.867 0.821,-2.554 0.082,-0.989 -0.246,-0.739 -0.328,-1.688 z"
         id="path232" /></clipPath><linearGradient
       x1="0"
       y1="0"
       x2="1"
       y2="0"
       gradientUnits="userSpaceOnUse"
       gradientTransform="matrix(-3.85611,2.90771,-1.28587,-8.71973,257.988,184.88)"
       spreadMethod="pad"
       id="linearGradient240"><stop
         style="stop-opacity:1;stop-color:#ed1e24"
         offset="0"
         id="stop236" /><stop
         style="stop-opacity:1;stop-color:#efee0e"
         offset="1"
         id="stop238" /></linearGradient><clipPath
       clipPathUnits="userSpaceOnUse"
       id="clipPath258"><path
         d="m 259.613,166.047 c 0.246,1.195 0.7,1.398 1.196,2.922 0.082,1.484 -1.196,1.32 -0.825,2.265 0.661,1.032 0.329,2.02 -0.906,2.801 0.246,-1.359 -1.605,-2.637 -1.605,-3.746 0,-1.113 0.949,-0.867 0.824,-2.555 0.082,-0.988 -0.246,-0.742 -0.328,-1.687 z"
         id="path256" /></clipPath><linearGradient
       x1="0"
       y1="0"
       x2="1"
       y2="0"
       gradientUnits="userSpaceOnUse"
       gradientTransform="matrix(-3.85611,2.90771,-1.28587,-8.71973,258.729,169.895)"
       spreadMethod="pad"
       id="linearGradient264"><stop
         style="stop-opacity:1;stop-color:#ed1e24"
         offset="0"
         id="stop260" /><stop
         style="stop-opacity:1;stop-color:#efee0e"
         offset="1"
         id="stop262" /></linearGradient><clipPath
       clipPathUnits="userSpaceOnUse"
       id="clipPath282"><path
         d="m 259.449,151.063 c 0.246,1.195 0.699,1.398 1.196,2.921 0.082,1.485 -1.196,1.317 -0.825,2.266 0.66,1.027 0.328,2.016 -0.906,2.801 0.246,-1.36 -1.605,-2.637 -1.605,-3.75 0,-1.11 0.949,-0.863 0.824,-2.551 0.082,-0.988 -0.246,-0.742 -0.328,-1.687 z"
         id="path280" /></clipPath><linearGradient
       x1="0"
       y1="0"
       x2="1"
       y2="0"
       gradientUnits="userSpaceOnUse"
       gradientTransform="matrix(-3.85611,2.90771,-1.28587,-8.71973,258.564,154.91)"
       spreadMethod="pad"
       id="linearGradient288"><stop
         style="stop-opacity:1;stop-color:#ed1e24"
         offset="0"
         id="stop284" /><stop
         style="stop-opacity:1;stop-color:#efee0e"
         offset="1"
         id="stop286" /></linearGradient><clipPath
       clipPathUnits="userSpaceOnUse"
       id="clipPath306"><path
         d="m 259.531,135.996 c 0.246,1.192 0.699,1.399 1.196,2.922 0.082,1.48 -1.196,1.316 -0.825,2.266 0.661,1.027 0.328,2.015 -0.906,2.796 0.246,-1.359 -1.605,-2.632 -1.605,-3.746 0,-1.113 0.949,-0.863 0.824,-2.55 0.082,-0.989 -0.246,-0.743 -0.328,-1.688 z"
         id="path304" /></clipPath><linearGradient
       x1="0"
       y1="0"
       x2="1"
       y2="0"
       gradientUnits="userSpaceOnUse"
       gradientTransform="matrix(-3.85611,2.90771,-1.28587,-8.71973,258.646,139.843)"
       spreadMethod="pad"
       id="linearGradient312"><stop
         style="stop-opacity:1;stop-color:#ed1e24"
         offset="0"
         id="stop308" /><stop
         style="stop-opacity:1;stop-color:#efee0e"
         offset="1"
         id="stop310" /></linearGradient></defs><g
     id="g10"
     transform="matrix(1.3333333,0,0,-1.3333333,0,42.666667)"><g
       id="g12"
       transform="scale(0.1)"><path
         d="M 160.012,-0.0390625 C 248.133,-0.0390625 320,71.8477 320,159.977 320,248.117 248.133,320.012 160.012,320.012 71.8906,320.012 0,248.117 0,159.977 0,71.8477 71.8906,-0.0390625 160.012,-0.0390625"
         style="fill:#273375;fill-opacity:1;fill-rule:evenodd;stroke:none"
         id="path14" /><path
         d="m 50.168,272.699 c 0,1.172 0,2.367 0,3.528 -1.2266,-1.161 -2.4219,-2.332 -3.625,-3.528 1.2304,0 2.4453,0 3.625,0"
         style="fill:#ffffff;fill-opacity:1;fill-rule:nonzero;stroke:none"
         id="path16" /><path
         d="m 159.684,199.996 0.269,-0.047 c -0.031,3.215 0.051,6.485 -0.066,9.676 -15.77,9.676 -31.524,19.289 -47.27,28.953 -1.445,0.813 -2.855,2.02 -4.547,1.973 -4.769,-0.082 -9.5778,0.09 -14.3395,-0.141 21.8945,-13.742 44.0505,-26.738 65.9535,-40.414 z M 42.1133,240.41 c -4.711,0.231 -9.5117,0.059 -14.2539,0.141 -1.3399,0.09 -2.5547,-0.715 -3.75,-1.43 -1.5821,-0.996 -3.1563,-1.941 -4.7305,-2.937 -2.4531,-4.469 -4.6797,-9.071 -6.6992,-13.793 9.8476,5.933 19.668,11.906 29.4336,18.019 z m 97.1097,78.281 c -20.473,-12.582 -41.0589,-24.8 -61.4535,-37.515 4.6016,-0.184 9.25,0 13.8633,-0.098 1.168,-0.086 2.336,0.27 3.3828,0.973 20.6094,12.726 41.3904,25.16 61.9884,37.961 -6.024,-0.094 -11.945,-0.551 -17.781,-1.321 z M 50.168,276.227 c 6.0976,5.75 12.6406,11.031 19.5547,15.769 0,-6.418 0,-12.871 0.0117,-19.297 30.0312,0 60.1206,0 90.1876,0 0.031,-7.933 0.031,-15.836 -0.035,-23.765 -30.032,0 -60.1214,0 -90.1526,0 -0.043,-16.313 0,-32.668 -0.043,-48.985 -6.4844,0 -12.9805,0 -19.5234,0 -0.0313,16.317 0,32.672 0,48.985 -7.6953,0 -15.3867,0 -23.086,0 5.7227,8.531 12.2657,16.519 19.461,23.765 1.2304,0 2.4453,0 3.625,0 0,1.172 0,2.367 0,3.528"
         style="fill:#d11d2c;fill-opacity:1;fill-rule:nonzero;stroke:none"
         id="path18" /><path
         d="m 19.3789,236.184 c 1.5742,0.996 3.1484,1.941 4.7305,2.937 1.1953,0.715 2.4101,1.52 3.75,1.43 4.7422,-0.082 9.5429,0.09 14.2539,-0.141 -9.7656,-6.113 -19.586,-12.086 -29.4336,-18.019 -0.9102,-2.172 -1.8047,-4.375 -2.6289,-6.602 10.9687,6.656 21.9961,13.32 32.9961,19.961 0.0312,-11.945 0,-23.871 0.0312,-35.801 2.3516,0 4.7266,0 7.0899,0 -0.0313,16.317 0,32.672 0,48.985 -7.6953,0 -15.3867,0 -23.086,0 -2.7695,-4.114 -5.3242,-8.364 -7.7031,-12.75"
         style="fill:#ffffff;fill-opacity:1;fill-rule:nonzero;stroke:none"
         id="path20" /><path
         d="m 112.617,238.578 c 15.746,-9.664 31.5,-19.277 47.27,-28.953 l 0.019,5.148 c -14.019,8.625 -28.179,16.879 -42.113,25.696 14,0.172 28.094,0 42.113,0.082 v 8.383 h -0.019 c -6.934,0 -13.864,0 -20.793,0 -23.121,0 -46.2542,0 -69.3596,0 -0.043,-16.313 0,-32.668 -0.043,-48.985 2.2109,0 4.4649,0 6.6641,0 0,11.93 -0.043,23.856 0.0429,35.801 18.6172,-11.195 37.1646,-22.516 55.7616,-33.742 1.528,-0.891 2.996,-2.258 4.785,-2.059 7.575,0.047 15.16,-0.051 22.739,0.047 -21.903,13.676 -44.059,26.672 -65.9535,40.414 4.7617,0.231 9.5705,0.059 14.3395,0.141 1.692,0.047 3.102,-1.16 4.547,-1.973"
         style="fill:#ffffff;fill-opacity:1;fill-rule:nonzero;stroke:none"
         id="path22" /><path
         d="m 159.906,281.133 c -14.019,0.086 -28.113,-0.141 -42.113,0.086 13.918,8.863 28.211,16.886 42.094,25.855 l 0.019,2.231 v 10.734 h -0.515 l -2.387,-0.027 c -20.598,-12.801 -41.379,-25.235 -61.9884,-37.961 -1.0468,-0.703 -2.2148,-1.059 -3.3828,-0.973 -4.6133,0.098 -9.2617,-0.086 -13.8633,0.098 20.3946,12.715 40.9805,24.933 61.4535,37.515 h -0.051 c -1.93,-0.265 -3.817,-0.543 -5.762,-0.843 l -0.504,-0.102 c -1.953,-0.355 -3.886,-0.715 -5.832,-1.109 -16.844,-10.321 -33.781,-20.504 -50.6756,-30.742 -0.0195,3.507 -0.0195,6.968 -0.0195,10.468 l -0.0234,-0.031 c -2.25,-1.394 -4.4532,-2.828 -6.6328,-4.336 0,-6.418 0,-12.871 0.0117,-19.297 23.0898,0 46.2226,0 69.3596,0 6.937,0 13.875,0 20.812,0 v 8.434"
         style="fill:#ffffff;fill-opacity:1;fill-rule:nonzero;stroke:none"
         id="path24" /><path
         d="m 194.02,225.297 92.035,0.344 -0.168,-81.961 c 0,0 3.242,-12.465 -38.59,-31.418 15.023,1.535 31.418,17.586 31.418,17.586 0,0 6.656,8.539 9.902,3.757 3.246,-4.781 6.317,-7.171 8.707,-9.05 2.395,-1.879 4.27,-7 0.684,-10.758 -3.586,-3.758 -9.219,-4.27 -10.754,0.34 -2.395,-1.196 -17.078,-18.9534 -47.129,-19.805 -30.566,0.5118 -47.301,19.977 -47.301,19.977 0,0 -4.097,-6.489 -9.902,-1.368 -5.637,6.661 -1.367,10.93 -1.367,10.93 0,0 4.781,2.731 6.148,4.609 2.219,2.563 2.902,5.977 6.66,5.977 4.438,-0.34 6.145,-3.926 6.145,-3.926 0,0 15.371,-16.222 31.933,-18.269 -37.394,17.929 -38.761,29.027 -38.589,31.758 l 0.171,81.281 -0.003,-0.004"
         style="fill:#ffffff;fill-opacity:1;fill-rule:nonzero;stroke:none"
         id="path26" /><path
         d="m 196.238,223.078 87.77,0.512 v -78.887 c 0.172,-10.246 -17.074,-20.66 -44.055,-33.98 -27.832,14.343 -43.883,23.05 -44.055,34.152 l 0.34,78.203 v 0"
         style="fill:#1e5e2e;fill-opacity:1;fill-rule:nonzero;stroke:none"
         id="path28" /><path
         d="m 218.285,211.207 -4.922,7.207 -4.89,-7.191 -0.575,0.39 5.465,8.032 5.492,-8.047 -0.57,-0.391"
         style="fill:#f3c30a;fill-opacity:1;fill-rule:nonzero;stroke:none"
         id="path30" /><path
         d="m 214.406,214.266 -1.031,-1.032 -1.027,1.032 1.027,1.027 1.031,-1.027"
         style="fill:#f3c30a;fill-opacity:1;fill-rule:nonzero;stroke:none"
         id="path32" /><path
         d="m 209.156,205.801 8.032,-0.024 c 0,0 0.128,1.043 -0.836,1.676 4.207,0.578 3.113,4.289 6.636,4.5 l -1.84,-1.578 c 0,0 -2.125,-1.5 -1.16,-2.262 l 1.211,1.106 c 0.106,0.734 3.418,1.207 2.946,3.312 -0.79,1.735 -5.418,-1.16 -5.418,-1.16 l -3.301,0.02 c -0.203,0.371 -1.113,1.855 -2.055,1.863 -1.113,-0.039 -1.898,-1.883 -1.898,-1.883 h -4.785 -2.684 c 0,0 -0.258,-1.914 3.531,-2.281 0.852,-1.113 1.512,-1.426 2.254,-1.711 l -0.633,-1.578"
         style="fill:#f3c30a;fill-opacity:1;fill-rule:nonzero;stroke:none"
         id="path34" /><g
         id="g36"><g
           id="g38"
           clip-path="url(#clipPath42)"><path
             d="m 206.262,211.414 c 0.246,1.195 0.699,1.402 1.191,2.926 0.082,1.48 -1.191,1.316 -0.82,2.262 0.656,1.031 0.328,2.015 -0.906,2.8 0.246,-1.359 -1.606,-2.636 -1.606,-3.746 0,-1.113 0.945,-0.867 0.82,-2.554 0.082,-0.989 -0.246,-0.739 -0.328,-1.688 h 1.649"
             style="fill:url(#linearGradient48);fill-opacity:1;fill-rule:nonzero;stroke:none"
             id="path50" /></g></g><path
         d="m 214.32,218.836 -0.945,-0.949 -0.945,0.949 0.945,0.945 0.945,-0.945"
         style="fill:#f3c30a;fill-opacity:1;fill-rule:nonzero;stroke:none"
         id="path52" /><path
         d="m 218,196.027 -4.918,7.203 -4.894,-7.187 -0.575,0.391 5.465,8.027 5.496,-8.043 -0.574,-0.391"
         style="fill:#f3c30a;fill-opacity:1;fill-rule:nonzero;stroke:none"
         id="path54" /><path
         d="m 214.121,199.082 -1.027,-1.027 -1.031,1.027 1.031,1.031 1.027,-1.031"
         style="fill:#f3c30a;fill-opacity:1;fill-rule:nonzero;stroke:none"
         id="path56" /><path
         d="m 208.875,190.617 8.031,-0.023 c 0,0 0.125,1.043 -0.84,1.676 4.207,0.578 3.114,4.289 6.637,4.5 l -1.84,-1.579 c 0,0 -2.125,-1.496 -1.156,-2.257 l 1.207,1.101 c 0.106,0.738 3.422,1.211 2.945,3.313 -0.789,1.738 -5.414,-1.157 -5.414,-1.157 l -3.3,0.02 c -0.207,0.371 -1.118,1.855 -2.055,1.863 -1.117,-0.043 -1.902,-1.883 -1.902,-1.883 h -4.786 -2.679 c 0,0 -0.258,-1.914 3.527,-2.285 0.852,-1.109 1.516,-1.422 2.254,-1.711 l -0.629,-1.578"
         style="fill:#f3c30a;fill-opacity:1;fill-rule:nonzero;stroke:none"
         id="path58" /><g
         id="g60"><g
           id="g62"
           clip-path="url(#clipPath66)"><path
             d="m 205.977,196.234 c 0.246,1.192 0.699,1.399 1.195,2.922 0.082,1.481 -1.195,1.317 -0.824,2.266 0.66,1.027 0.328,2.016 -0.907,2.797 0.247,-1.36 -1.605,-2.633 -1.605,-3.746 0,-1.11 0.945,-0.864 0.824,-2.551 0.082,-0.988 -0.25,-0.742 -0.332,-1.688 h 1.649"
             style="fill:url(#linearGradient72);fill-opacity:1;fill-rule:nonzero;stroke:none"
             id="path74" /></g></g><path
         d="m 214.039,203.652 -0.945,-0.949 -0.949,0.949 0.949,0.946 0.945,-0.946"
         style="fill:#f3c30a;fill-opacity:1;fill-rule:nonzero;stroke:none"
         id="path76" /><path
         d="m 217.883,181.063 -4.918,7.207 -4.895,-7.192 -0.574,0.391 5.469,8.031 5.492,-8.047 -0.574,-0.39"
         style="fill:#f3c30a;fill-opacity:1;fill-rule:nonzero;stroke:none"
         id="path78" /><path
         d="m 214.004,184.121 -1.027,-1.031 -1.032,1.031 1.032,1.027 1.027,-1.027"
         style="fill:#f3c30a;fill-opacity:1;fill-rule:nonzero;stroke:none"
         id="path80" /><path
         d="m 208.758,175.656 8.031,-0.023 c 0,0 0.125,1.043 -0.84,1.676 4.207,0.578 3.114,4.289 6.637,4.5 l -1.84,-1.579 c 0,0 -2.125,-1.5 -1.156,-2.261 l 1.211,1.105 c 0.105,0.735 3.418,1.207 2.941,3.313 -0.789,1.734 -5.414,-1.157 -5.414,-1.157 l -3.301,0.016 c -0.207,0.371 -1.117,1.859 -2.054,1.863 -1.118,-0.039 -1.903,-1.879 -1.903,-1.879 h -4.785 -2.68 c 0,0 -0.257,-1.917 3.528,-2.285 0.855,-1.113 1.515,-1.425 2.254,-1.711 l -0.629,-1.578"
         style="fill:#f3c30a;fill-opacity:1;fill-rule:nonzero;stroke:none"
         id="path82" /><g
         id="g84"><g
           id="g86"
           clip-path="url(#clipPath90)"><path
             d="m 205.859,181.27 c 0.246,1.195 0.7,1.402 1.196,2.925 0.082,1.481 -1.196,1.317 -0.825,2.262 0.661,1.031 0.329,2.02 -0.906,2.801 0.246,-1.36 -1.605,-2.637 -1.605,-3.746 0,-1.114 0.945,-0.867 0.824,-2.551 0.082,-0.988 -0.246,-0.742 -0.328,-1.691 h 1.644"
             style="fill:url(#linearGradient96);fill-opacity:1;fill-rule:nonzero;stroke:none"
             id="path98" /></g></g><path
         d="m 213.922,188.688 -0.945,-0.946 -0.95,0.946 0.95,0.949 0.945,-0.949"
         style="fill:#f3c30a;fill-opacity:1;fill-rule:nonzero;stroke:none"
         id="path100" /><path
         d="m 227.703,164.859 -4.918,7.204 -4.894,-7.188 -0.575,0.391 5.465,8.031 5.496,-8.047 -0.574,-0.391"
         style="fill:#f3c30a;fill-opacity:1;fill-rule:nonzero;stroke:none"
         id="path102" /><path
         d="m 223.824,167.914 -1.027,-1.027 -1.031,1.027 1.031,1.031 1.027,-1.031"
         style="fill:#f3c30a;fill-opacity:1;fill-rule:nonzero;stroke:none"
         id="path104" /><path
         d="m 218.578,159.449 8.031,-0.019 c 0,0 0.125,1.043 -0.839,1.675 4.207,0.579 3.113,4.29 6.636,4.5 l -1.84,-1.578 c 0,0 -2.125,-1.5 -1.156,-2.261 l 1.207,1.101 c 0.106,0.738 3.418,1.211 2.946,3.317 -0.79,1.734 -5.415,-1.161 -5.415,-1.161 l -3.3,0.02 c -0.207,0.371 -1.118,1.855 -2.059,1.863 -1.113,-0.039 -1.898,-1.883 -1.898,-1.883 h -4.786 -2.679 c 0,0 -0.258,-1.914 3.527,-2.281 0.852,-1.113 1.516,-1.426 2.254,-1.715 l -0.629,-1.578"
         style="fill:#f3c30a;fill-opacity:1;fill-rule:nonzero;stroke:none"
         id="path106" /><g
         id="g108"><g
           id="g110"
           clip-path="url(#clipPath114)"><path
             d="m 215.68,165.066 c 0.246,1.196 0.699,1.399 1.191,2.922 0.086,1.485 -1.191,1.321 -0.82,2.266 0.66,1.027 0.328,2.016 -0.906,2.801 0.246,-1.36 -1.606,-2.637 -1.606,-3.746 0,-1.114 0.945,-0.868 0.824,-2.555 0.082,-0.988 -0.25,-0.742 -0.332,-1.688 h 1.649"
             style="fill:url(#linearGradient120);fill-opacity:1;fill-rule:nonzero;stroke:none"
             id="path122" /></g></g><path
         d="m 223.742,172.484 -0.945,-0.945 -0.949,0.945 0.949,0.95 0.945,-0.95"
         style="fill:#f3c30a;fill-opacity:1;fill-rule:nonzero;stroke:none"
         id="path124" /><path
         d="m 216.602,151.605 -4.918,7.204 -4.895,-7.188 -0.574,0.391 5.469,8.027 5.492,-8.043 -0.574,-0.391"
         style="fill:#f3c30a;fill-opacity:1;fill-rule:nonzero;stroke:none"
         id="path126" /><path
         d="m 212.723,154.66 -1.028,-1.027 -1.027,1.027 1.027,1.028 1.028,-1.028"
         style="fill:#f3c30a;fill-opacity:1;fill-rule:nonzero;stroke:none"
         id="path128" /><path
         d="m 207.477,146.195 8.031,-0.023 c 0,0 0.125,1.043 -0.84,1.676 4.207,0.578 3.113,4.289 6.637,4.5 l -1.84,-1.578 c 0,0 -2.121,-1.497 -1.156,-2.258 l 1.211,1.101 c 0.105,0.739 3.418,1.211 2.945,3.313 -0.789,1.734 -5.418,-1.156 -5.418,-1.156 l -3.301,0.019 c -0.207,0.371 -1.117,1.856 -2.055,1.863 -1.117,-0.043 -1.902,-1.882 -1.902,-1.882 h -4.785 -2.68 c 0,0 -0.258,-1.915 3.528,-2.286 0.855,-1.113 1.515,-1.421 2.253,-1.711 l -0.628,-1.578"
         style="fill:#f3c30a;fill-opacity:1;fill-rule:nonzero;stroke:none"
         id="path130" /><g
         id="g132"><g
           id="g134"
           clip-path="url(#clipPath138)"><path
             d="m 204.578,151.813 c 0.246,1.191 0.699,1.398 1.195,2.921 0.082,1.481 -1.195,1.317 -0.824,2.262 0.66,1.031 0.328,2.02 -0.906,2.801 0.246,-1.359 -1.605,-2.633 -1.605,-3.746 0,-1.11 0.949,-0.863 0.824,-2.551 0.082,-0.988 -0.246,-0.742 -0.328,-1.687 h 1.644"
             style="fill:url(#linearGradient144);fill-opacity:1;fill-rule:nonzero;stroke:none"
             id="path146" /></g></g><path
         d="m 212.641,159.23 -0.946,-0.949 -0.949,0.949 0.949,0.946 0.946,-0.946"
         style="fill:#f3c30a;fill-opacity:1;fill-rule:nonzero;stroke:none"
         id="path148" /><path
         d="m 216.895,135.941 -4.918,7.207 -4.899,-7.187 -0.57,0.387 5.465,8.031 5.492,-8.043 -0.57,-0.395"
         style="fill:#f3c30a;fill-opacity:1;fill-rule:nonzero;stroke:none"
         id="path150" /><path
         d="m 213.016,139 -1.032,-1.031 -1.027,1.031 1.027,1.027 1.032,-1.027"
         style="fill:#f3c30a;fill-opacity:1;fill-rule:nonzero;stroke:none"
         id="path152" /><path
         d="m 207.77,130.535 8.031,-0.023 c 0,0 0.125,1.043 -0.84,1.676 4.207,0.578 3.113,4.289 6.637,4.5 l -1.84,-1.579 c 0,0 -2.125,-1.5 -1.156,-2.261 l 1.207,1.105 c 0.105,0.735 3.418,1.207 2.945,3.313 -0.789,1.734 -5.414,-1.157 -5.414,-1.157 l -3.305,0.02 c -0.203,0.367 -1.113,1.855 -2.055,1.859 -1.113,-0.039 -1.898,-1.879 -1.898,-1.879 h -4.785 -2.684 c 0,0 -0.254,-1.918 3.532,-2.285 0.851,-1.113 1.511,-1.426 2.253,-1.711 l -0.628,-1.578"
         style="fill:#f3c30a;fill-opacity:1;fill-rule:nonzero;stroke:none"
         id="path154" /><g
         id="g156"><g
           id="g158"
           clip-path="url(#clipPath162)"><path
             d="m 204.871,136.148 c 0.246,1.196 0.699,1.403 1.192,2.926 0.082,1.481 -1.192,1.317 -0.821,2.262 0.656,1.031 0.328,2.019 -0.906,2.801 0.246,-1.36 -1.606,-2.633 -1.606,-3.746 0,-1.114 0.946,-0.868 0.825,-2.551 0.082,-0.988 -0.25,-0.742 -0.332,-1.692 h 1.648"
             style="fill:url(#linearGradient168);fill-opacity:1;fill-rule:nonzero;stroke:none"
             id="path170" /></g></g><path
         d="m 212.934,143.566 -0.95,-0.945 -0.945,0.945 0.945,0.95 0.95,-0.95"
         style="fill:#f3c30a;fill-opacity:1;fill-rule:nonzero;stroke:none"
         id="path172" /><path
         d="m 272.051,210.961 -4.922,7.203 -4.895,-7.187 -0.57,0.39 5.465,8.031 5.492,-8.046 -0.57,-0.391"
         style="fill:#f3c30a;fill-opacity:1;fill-rule:nonzero;stroke:none"
         id="path174" /><path
         d="m 268.172,214.016 -1.031,-1.028 -1.028,1.028 1.028,1.031 1.031,-1.031"
         style="fill:#f3c30a;fill-opacity:1;fill-rule:nonzero;stroke:none"
         id="path176" /><path
         d="m 262.922,205.551 8.031,-0.02 c 0,0 0.129,1.039 -0.836,1.676 4.207,0.578 3.113,4.289 6.637,4.496 l -1.84,-1.574 c 0,0 -2.125,-1.5 -1.156,-2.262 l 1.207,1.102 c 0.105,0.738 3.418,1.211 2.945,3.312 -0.789,1.739 -5.418,-1.156 -5.418,-1.156 l -3.301,0.02 c -0.203,0.371 -1.113,1.855 -2.054,1.863 -1.114,-0.039 -1.899,-1.883 -1.899,-1.883 h -4.785 -2.683 c 0,0 -0.254,-1.914 3.531,-2.281 0.851,-1.114 1.512,-1.426 2.254,-1.715 l -0.633,-1.578"
         style="fill:#f3c30a;fill-opacity:1;fill-rule:nonzero;stroke:none"
         id="path178" /><g
         id="g180"><g
           id="g182"
           clip-path="url(#clipPath186)"><path
             d="m 260.027,211.168 c 0.246,1.195 0.7,1.398 1.192,2.922 0.082,1.484 -1.192,1.316 -0.821,2.265 0.657,1.028 0.329,2.016 -0.906,2.801 0.246,-1.359 -1.605,-2.636 -1.605,-3.75 0,-1.109 0.945,-0.863 0.824,-2.551 0.082,-0.988 -0.25,-0.742 -0.332,-1.687 h 1.648"
             style="fill:url(#linearGradient192);fill-opacity:1;fill-rule:nonzero;stroke:none"
             id="path194" /></g></g><path
         d="m 268.09,218.586 -0.949,-0.945 -0.946,0.945 0.946,0.945 0.949,-0.945"
         style="fill:#f3c30a;fill-opacity:1;fill-rule:nonzero;stroke:none"
         id="path196" /><path
         d="m 271.555,196.059 -4.918,7.203 -4.895,-7.188 -0.574,0.391 5.469,8.027 5.492,-8.043 -0.574,-0.39"
         style="fill:#f3c30a;fill-opacity:1;fill-rule:nonzero;stroke:none"
         id="path198" /><path
         d="m 267.676,199.113 -1.028,-1.027 -1.031,1.027 1.031,1.032 1.028,-1.032"
         style="fill:#f3c30a;fill-opacity:1;fill-rule:nonzero;stroke:none"
         id="path200" /><path
         d="m 262.43,190.648 8.031,-0.019 c 0,0 0.125,1.039 -0.84,1.676 4.207,0.578 3.113,4.289 6.637,4.496 l -1.84,-1.578 c 0,0 -2.121,-1.496 -1.156,-2.258 l 1.211,1.101 c 0.105,0.739 3.418,1.211 2.945,3.313 -0.789,1.738 -5.418,-1.156 -5.418,-1.156 l -3.301,0.019 c -0.207,0.371 -1.117,1.856 -2.054,1.863 -1.118,-0.039 -1.903,-1.882 -1.903,-1.882 h -4.785 -2.68 c 0,0 -0.257,-1.914 3.528,-2.282 0.855,-1.117 1.515,-1.425 2.258,-1.714 l -0.633,-1.579"
         style="fill:#f3c30a;fill-opacity:1;fill-rule:nonzero;stroke:none"
         id="path202" /><g
         id="g204"><g
           id="g206"
           clip-path="url(#clipPath210)"><path
             d="m 259.531,196.266 c 0.246,1.195 0.699,1.398 1.196,2.922 0.082,1.484 -1.196,1.316 -0.825,2.265 0.661,1.027 0.328,2.016 -0.906,2.801 0.246,-1.359 -1.605,-2.637 -1.605,-3.75 0,-1.109 0.949,-0.863 0.824,-2.551 0.082,-0.988 -0.246,-0.742 -0.328,-1.687 h 1.644"
             style="fill:url(#linearGradient216);fill-opacity:1;fill-rule:nonzero;stroke:none"
             id="path218" /></g></g><path
         d="m 267.594,203.684 -0.946,-0.946 -0.949,0.946 0.949,0.949 0.946,-0.949"
         style="fill:#f3c30a;fill-opacity:1;fill-rule:nonzero;stroke:none"
         id="path220" /><path
         d="m 270.898,180.824 -4.921,7.207 -4.891,-7.187 -0.574,0.386 5.465,8.032 5.492,-8.043 -0.571,-0.395"
         style="fill:#f3c30a;fill-opacity:1;fill-rule:nonzero;stroke:none"
         id="path222" /><path
         d="m 267.02,183.883 -1.032,-1.031 -1.027,1.031 1.027,1.027 1.032,-1.027"
         style="fill:#f3c30a;fill-opacity:1;fill-rule:nonzero;stroke:none"
         id="path224" /><path
         d="m 261.77,175.418 8.031,-0.023 c 0,0 0.129,1.043 -0.836,1.675 4.207,0.578 3.113,4.289 6.637,4.5 l -1.84,-1.578 c 0,0 -2.125,-1.5 -1.16,-2.262 l 1.211,1.106 c 0.105,0.734 3.417,1.207 2.945,3.312 -0.789,1.735 -5.418,-1.156 -5.418,-1.156 l -3.301,0.016 c -0.203,0.371 -1.113,1.859 -2.055,1.863 -1.113,-0.039 -1.898,-1.879 -1.898,-1.879 h -4.785 -2.684 c 0,0 -0.258,-1.918 3.531,-2.285 0.852,-1.113 1.512,-1.426 2.254,-1.715 l -0.632,-1.574"
         style="fill:#f3c30a;fill-opacity:1;fill-rule:nonzero;stroke:none"
         id="path226" /><g
         id="g228"><g
           id="g230"
           clip-path="url(#clipPath234)"><path
             d="m 258.871,181.031 c 0.25,1.196 0.703,1.403 1.195,2.926 0.082,1.481 -1.195,1.316 -0.824,2.262 0.66,1.031 0.332,2.019 -0.902,2.801 0.246,-1.36 -1.606,-2.637 -1.606,-3.747 0,-1.113 0.946,-0.867 0.821,-2.554 0.082,-0.989 -0.246,-0.739 -0.328,-1.688 h 1.644"
             style="fill:url(#linearGradient240);fill-opacity:1;fill-rule:nonzero;stroke:none"
             id="path242" /></g></g><path
         d="m 266.934,188.449 -0.946,-0.945 -0.945,0.945 0.945,0.949 0.946,-0.949"
         style="fill:#f3c30a;fill-opacity:1;fill-rule:nonzero;stroke:none"
         id="path244" /><path
         d="m 271.637,165.84 -4.918,7.207 -4.895,-7.192 -0.574,0.391 5.469,8.031 5.492,-8.047 -0.574,-0.39"
         style="fill:#f3c30a;fill-opacity:1;fill-rule:nonzero;stroke:none"
         id="path246" /><path
         d="m 267.758,168.895 -1.028,-1.028 -1.031,1.028 1.031,1.031 1.028,-1.031"
         style="fill:#f3c30a;fill-opacity:1;fill-rule:nonzero;stroke:none"
         id="path248" /><path
         d="m 262.512,160.434 8.031,-0.024 c 0,0 0.125,1.039 -0.84,1.676 4.207,0.578 3.113,4.289 6.641,4.5 l -1.844,-1.578 c 0,0 -2.121,-1.5 -1.156,-2.262 l 1.211,1.106 c 0.105,0.734 3.418,1.207 2.945,3.312 -0.789,1.734 -5.418,-1.156 -5.418,-1.156 l -3.301,0.015 c -0.207,0.372 -1.117,1.86 -2.054,1.864 -1.118,-0.039 -1.903,-1.879 -1.903,-1.879 h -4.785 -2.68 c 0,0 -0.257,-1.918 3.532,-2.285 0.851,-1.114 1.511,-1.426 2.254,-1.715 l -0.633,-1.574"
         style="fill:#f3c30a;fill-opacity:1;fill-rule:nonzero;stroke:none"
         id="path250" /><g
         id="g252"><g
           id="g254"
           clip-path="url(#clipPath258)"><path
             d="m 259.613,166.047 c 0.246,1.195 0.7,1.398 1.196,2.922 0.082,1.484 -1.196,1.32 -0.825,2.265 0.661,1.032 0.329,2.02 -0.906,2.801 0.246,-1.359 -1.605,-2.637 -1.605,-3.746 0,-1.113 0.949,-0.867 0.824,-2.555 0.082,-0.988 -0.246,-0.742 -0.328,-1.687 h 1.644"
             style="fill:url(#linearGradient264);fill-opacity:1;fill-rule:nonzero;stroke:none"
             id="path266" /></g></g><path
         d="m 267.676,173.465 -0.946,-0.945 -0.949,0.945 0.949,0.949 0.946,-0.949"
         style="fill:#f3c30a;fill-opacity:1;fill-rule:nonzero;stroke:none"
         id="path268" /><path
         d="m 271.473,150.855 -4.918,7.204 -4.895,-7.188 -0.574,0.391 5.469,8.027 5.492,-8.043 -0.574,-0.391"
         style="fill:#f3c30a;fill-opacity:1;fill-rule:nonzero;stroke:none"
         id="path270" /><path
         d="m 267.594,153.91 -1.028,-1.027 -1.031,1.027 1.031,1.031 1.028,-1.031"
         style="fill:#f3c30a;fill-opacity:1;fill-rule:nonzero;stroke:none"
         id="path272" /><path
         d="m 262.348,145.445 8.031,-0.019 c 0,0 0.125,1.039 -0.84,1.676 4.207,0.578 3.113,4.289 6.637,4.496 l -1.84,-1.575 c 0,0 -2.125,-1.5 -1.156,-2.261 l 1.211,1.101 c 0.101,0.739 3.418,1.211 2.945,3.313 -0.789,1.738 -5.418,-1.156 -5.418,-1.156 l -3.301,0.019 c -0.207,0.371 -1.117,1.856 -2.054,1.863 -1.118,-0.039 -1.903,-1.882 -1.903,-1.882 h -4.785 -2.68 c 0,0 -0.257,-1.915 3.528,-2.282 0.851,-1.117 1.515,-1.425 2.254,-1.715 l -0.629,-1.578"
         style="fill:#f3c30a;fill-opacity:1;fill-rule:nonzero;stroke:none"
         id="path274" /><g
         id="g276"><g
           id="g278"
           clip-path="url(#clipPath282)"><path
             d="m 259.449,151.063 c 0.246,1.195 0.699,1.398 1.196,2.921 0.082,1.485 -1.196,1.317 -0.825,2.266 0.66,1.027 0.328,2.016 -0.906,2.801 0.246,-1.36 -1.605,-2.637 -1.605,-3.75 0,-1.11 0.949,-0.863 0.824,-2.551 0.082,-0.988 -0.246,-0.742 -0.328,-1.687 h 1.644"
             style="fill:url(#linearGradient288);fill-opacity:1;fill-rule:nonzero;stroke:none"
             id="path290" /></g></g><path
         d="m 267.512,158.48 -0.946,-0.945 -0.949,0.945 0.949,0.95 0.946,-0.95"
         style="fill:#f3c30a;fill-opacity:1;fill-rule:nonzero;stroke:none"
         id="path292" /><path
         d="m 271.555,135.785 -4.918,7.207 -4.895,-7.187 -0.574,0.39 5.469,8.028 5.492,-8.043 -0.574,-0.395"
         style="fill:#f3c30a;fill-opacity:1;fill-rule:nonzero;stroke:none"
         id="path294" /><path
         d="m 267.676,138.844 -1.028,-1.031 -1.031,1.031 1.031,1.027 1.028,-1.027"
         style="fill:#f3c30a;fill-opacity:1;fill-rule:nonzero;stroke:none"
         id="path296" /><path
         d="m 262.43,130.379 8.031,-0.024 c 0,0 0.125,1.043 -0.84,1.676 4.207,0.578 3.113,4.289 6.637,4.5 l -1.84,-1.578 c 0,0 -2.121,-1.5 -1.156,-2.262 l 1.211,1.106 c 0.105,0.734 3.418,1.211 2.945,3.312 -0.789,1.735 -5.418,-1.156 -5.418,-1.156 l -3.301,0.02 c -0.207,0.371 -1.117,1.855 -2.054,1.863 -1.118,-0.043 -1.903,-1.883 -1.903,-1.883 h -4.785 -2.68 c 0,0 -0.257,-1.918 3.528,-2.285 0.855,-1.113 1.515,-1.422 2.258,-1.711 l -0.633,-1.578"
         style="fill:#f3c30a;fill-opacity:1;fill-rule:nonzero;stroke:none"
         id="path298" /><g
         id="g300"><g
           id="g302"
           clip-path="url(#clipPath306)"><path
             d="m 259.531,135.996 c 0.246,1.192 0.699,1.399 1.196,2.922 0.082,1.48 -1.196,1.316 -0.825,2.266 0.661,1.027 0.328,2.015 -0.906,2.796 0.246,-1.359 -1.605,-2.632 -1.605,-3.746 0,-1.113 0.949,-0.863 0.824,-2.55 0.082,-0.989 -0.246,-0.743 -0.328,-1.688 h 1.644"
             style="fill:url(#linearGradient312);fill-opacity:1;fill-rule:nonzero;stroke:none"
             id="path314" /></g></g><path
         d="m 267.594,143.414 -0.946,-0.949 -0.949,0.949 0.949,0.945 0.946,-0.945"
         style="fill:#f3c30a;fill-opacity:1;fill-rule:nonzero;stroke:none"
         id="path316" /><path
         d="m 245.324,128.91 c 0,0 2.098,-4.836 4.485,-1.863 2.386,2.969 1.511,4.25 1.511,4.25 l -5.355,2.91 -1.57,-3.32 0.929,-1.977 v 0"
         style="fill:#f3c30a;fill-opacity:1;fill-rule:nonzero;stroke:none"
         id="path318" /><path
         d="m 244.496,130.887 0.91,-1.938 c 0.016,-0.031 1.227,-2.777 2.789,-2.777 v 0 l 1.539,0.93 c 2.172,2.703 1.61,3.968 1.524,4.125 l -5.25,2.851 z m 3.699,-4.899 v 0 c -1.683,0 -2.906,2.766 -2.957,2.883 l -0.949,2.016 1.637,3.449 5.472,-2.988 c 0.036,-0.055 0.883,-1.371 -1.519,-4.36 l -1.684,-1"
         style="fill:#100f0d;fill-opacity:1;fill-rule:nonzero;stroke:none"
         id="path320" /><path
         d="m 249.926,129.551 0.64,0.465 -1.05,1.339 -0.465,-0.933 0.875,-0.871"
         style="fill:#fabbae;fill-opacity:1;fill-rule:nonzero;stroke:none"
         id="path322" /><path
         d="m 249.164,130.441 0.801,-0.8 0.519,0.418 -0.425,0.671 -0.524,0.454 z m 0.793,-0.984 v 0 l -0.047,0.004 -0.027,0.004 -0.024,0.019 -0.921,0.918 0.566,1.129 0.09,-0.125 0.574,-0.527 0.477,-0.91 -0.688,-0.512"
         style="fill:#100f0d;fill-opacity:1;fill-rule:nonzero;stroke:none"
         id="path324" /><path
         d="m 237.813,130.828 -4.715,-2.558 h -2.504 c -0.172,0.464 0.058,0.871 1.281,0.929 1.223,0.059 4.543,3.086 4.543,3.086 l 1.395,-1.457 v 0"
         style="fill:#fabbae;fill-opacity:1;fill-rule:nonzero;stroke:none"
         id="path326" /><path
         d="m 236.41,132.156 c -0.488,-0.437 -3.371,-2.992 -4.531,-3.047 l -1.184,-0.379 -0.015,-0.429 0.64,-0.149 1.746,0.203 4.598,2.497 z m -5.09,-4.187 -0.812,0.265 0.035,0.598 1.328,0.461 c 1.176,0.055 4.449,3.031 4.484,3.059 l 0.067,0.062 1.543,-1.605 -4.848,-2.629 -1.797,-0.211"
         style="fill:#100f0d;fill-opacity:1;fill-rule:nonzero;stroke:none"
         id="path328" /><path
         d="m 237.871,214.609 0.176,-1.687 -0.988,-1.746 -0.465,-0.41 0.754,-0.465 v -1.281 -1.981 l 2.621,-0.812 v -2.274 l -1.629,-3.492 8.965,0.934 -1.864,2.968 c 0,0 -0.875,0.582 -0.64,2.27 0.234,1.687 -0.117,9.316 -0.117,9.316 l -6.403,0.871 -0.41,-2.211"
         style="fill:#fabbae;fill-opacity:1;fill-rule:nonzero;stroke:none"
         id="path330" /><path
         d="m 240.008,206.32 0.195,-0.097 -0.144,-2.289 -1.571,-3.364 8.66,0.899 -1.777,2.832 c -0.129,0.094 -0.883,0.73 -0.66,2.344 0.215,1.574 -0.078,8.418 -0.113,9.222 l -6.243,0.852 -0.39,-2.114 0.176,-1.675 -0.864,-1.692 -0.214,-0.156 h -0.04 l -0.015,0.016 -0.278,-0.129 -0.046,-0.188 0.679,-0.39 0.098,-0.016 -0.023,-0.094 -0.086,-1.156 0.117,-0.086 -0.102,-0.582 0.024,-1.336 2.39,-0.82 0.168,0.015 z m -1.82,-5.965 1.699,3.637 0.172,2.117 -0.051,0.028 -0.227,-0.02 -2.476,0.844 -0.114,1.555 0.118,0.422 -0.114,0.085 0.043,1.207 -0.738,0.524 0.09,0.332 0.465,0.187 0.902,1.637 -0.176,1.692 v 0.011 0.012 l 0.426,2.301 6.566,-0.899 0.004,-0.074 c 0.012,-0.312 0.344,-7.656 0.114,-9.332 -0.219,-1.605 0.57,-2.16 0.601,-2.183 l 0.028,-0.028 1.941,-3.094 -9.273,-0.961"
         style="fill:#100f0d;fill-opacity:1;fill-rule:nonzero;stroke:none"
         id="path332" /><path
         d="m 236.242,201.336 c 0,0 -2.91,-1.34 -2.797,-4.949 -0.754,-3.492 -1.164,-6.989 -1.164,-6.989 0,0 -3.433,-3.898 -4.48,-5.296 -1.047,-1.399 -2.621,-4.25 -3.203,-5.008 -0.582,-0.754 -2.852,-3.258 -2.793,-4.192 0.058,-0.929 -0.528,-5.062 1.746,-5.531 l 2.445,4.774 -0.523,2.562 1.394,1.805 4.778,3.551 3.257,3.378 1.34,15.895 v 0"
         style="fill:#fabbae;fill-opacity:1;fill-rule:nonzero;stroke:none"
         id="path334" /><path
         d="m 236.137,201.176 c -0.578,-0.328 -2.696,-1.746 -2.598,-4.785 -0.75,-3.473 -1.16,-6.965 -1.164,-7 l -0.004,-0.032 -0.019,-0.019 c -0.036,-0.039 -3.446,-3.914 -4.481,-5.293 -0.582,-0.777 -1.324,-2.008 -1.98,-3.086 l -1.219,-1.922 -0.488,-0.598 c -0.817,-0.984 -2.332,-2.812 -2.289,-3.531 l -0.008,-0.695 c -0.047,-1.531 -0.141,-4.379 1.679,-4.754 l 0.028,-0.004 c 0.347,0 1.449,2.391 2.308,4.707 l -0.48,2.469 -0.168,0.285 1.562,1.672 4.77,3.547 3.227,3.343 z m -12.543,-31.903 v 0 l -0.078,0.012 c -1.957,0.403 -1.86,3.461 -1.813,4.934 l 0.008,0.679 c -0.051,0.79 1.441,2.586 2.328,3.661 l 0.484,0.593 1.207,1.903 c 0.661,1.086 1.407,2.316 1.997,3.101 1,1.332 4.191,4.969 4.468,5.285 0.039,0.34 0.45,3.672 1.164,6.965 -0.121,3.606 2.817,5 2.844,5.012 l 0.145,0.066 -1.356,-16.082 -0.019,-0.023 -3.274,-3.387 -4.777,-3.554 -1.484,-1.516 0.082,-0.137 0.566,-2.644 -0.004,-0.028 -2.488,-4.84"
         style="fill:#100f0d;fill-opacity:1;fill-rule:nonzero;stroke:none"
         id="path336" /><path
         d="m 239.563,204.07 c 0,0 0.753,-2.035 2.445,-1.687 1.687,0.351 3.668,1.922 3.668,1.922 l 1.804,-0.176 c 0.231,-0.231 4.25,-4.133 4.133,-5.356 -0.117,-1.222 -1.863,-0.875 -2.504,-1.687 -0.64,-0.816 -1.687,-2.856 -1.398,-4.367 0.293,-1.516 1.164,-3.492 1.051,-4.25 l -0.758,-1.399 0.523,-1.863 -0.582,-2.617 0.172,-2.973 -0.172,-10.246 0.641,-0.93 3.957,-17.527 -0.582,-0.465 1.633,-3.375 1.976,-7.511 -0.523,-2.676 1.047,-4.313 -2.617,-0.523 -0.641,0.117 -0.406,-0.813 -3.903,0.172 -1.574,-1.453 -1.512,0.93 0.348,-1.453 c -0.172,-0.293 -3.144,-0.934 -3.726,0.465 -0.583,1.394 0.351,1.047 0.175,1.339 l -1.922,0.813 0.993,-1.164 -1.746,-1.453 c -0.469,0 -1.575,2.152 -3.204,1.918 -1.632,-0.231 -2.679,-0.641 -2.679,-0.641 l -2.735,-0.64 -1.164,1.167 0.524,2.329 -0.524,1.629 1.336,3.085 -0.054,10.711 -1.282,0.758 c -0.058,0.758 1.864,16.942 2.153,17.992 0.293,1.047 1.046,4.774 1.046,4.774 h -0.929 l 2.621,9.664 c 0,0 0.465,4.598 0.465,5.82 0,1.227 -0.235,2.914 -0.235,2.914 0,0 -2.39,1.012 -2.445,2.563 -0.219,2.465 2.27,3.84 2.563,4.656 l 1.164,3.262 c 0,0 1.281,2.211 3.379,2.558"
         style="fill:#ffffff;fill-opacity:1;fill-rule:nonzero;stroke:none"
         id="path338" /><path
         d="m 240.52,132.305 1.796,-0.903 0.032,-0.156 -0.157,-0.137 -0.043,-1.058 1.805,-0.813 c 0.91,0 1.688,0.254 1.758,0.36 l -0.199,0.726 -0.137,0.746 0.117,0.047 0.547,-0.363 0.926,-0.59 h 0.023 l 1.461,1.414 0.031,0.047 0.051,-0.004 c 0.028,-0.004 2.727,-0.183 3.641,-0.183 l 0.242,0.007 0.328,0.715 -0.008,0.121 0.754,-0.136 h 0.164 c 1.321,0 2.243,0.179 2.36,0.464 0.125,0.317 -0.364,1.84 -0.684,2.848 -0.426,1.34 -0.453,1.469 -0.308,1.516 l 0.46,2.597 c 0.032,0.45 -0.628,2.684 -1.16,4.477 -0.425,1.441 -0.793,2.687 -0.82,3.019 l -0.992,1.985 c -0.567,0.941 -0.754,1.285 -0.672,1.426 l 0.113,0.066 0.028,-0.004 0.472,0.383 c -0.23,1.004 -3.898,16.933 -3.957,17.508 l -0.594,0.863 -0.046,0.027 v 0.051 l 0.175,10.25 -0.172,2.953 0.293,1.481 0.286,1.152 -0.313,1.172 -0.211,0.691 0.305,0.567 0.453,0.843 c 0.066,0.422 -0.203,1.282 -0.488,2.192 l -0.559,2.027 c -0.308,1.606 0.82,3.688 1.414,4.442 l 1.238,0.644 1.247,0.996 c 0.07,0.703 -1.446,2.66 -4.051,5.231 l -0.055,0.054 -1.32,0.153 -0.387,-0.004 c -0.242,-0.192 -2.07,-1.59 -3.684,-1.922 l -0.402,-0.043 c -1.312,0 -1.976,1.383 -2.117,1.719 -1.988,-0.379 -3.227,-2.485 -3.238,-2.504 l -1.161,-3.246 -0.757,-0.949 c -0.825,-0.844 -1.946,-1.997 -1.797,-3.668 0.051,-1.481 2.363,-2.477 2.387,-2.489 l 0.05,-0.019 0.004,-0.051 c 0.004,-0.016 0.235,-1.707 0.235,-2.926 0,-1.211 -0.461,-5.781 -0.465,-5.828 -1.071,-3.711 -2.649,-9.32 -2.621,-9.644 l 0.175,-0.102 0.625,0.172 0.168,0.078 -0.039,-0.18 c -0.007,-0.035 -0.757,-3.742 -1.047,-4.777 -0.285,-1.027 -2.214,-17.137 -2.152,-17.961 l 1.192,-0.672 h 0.089 v -0.094 l 0.059,-10.734 -0.012,-0.02 -1.328,-3.042 0.297,-0.997 0.227,-0.621 -0.309,-1.472 -0.215,-0.868 1.094,-1.078 0.246,-0.019 2.434,0.656 c 0.011,0.004 1.078,0.414 2.703,0.649 l 0.257,0.015 c 1.008,0 1.782,-0.816 2.344,-1.414 l 0.614,-0.523 1.652,1.375 -0.637,0.66 -0.426,0.402 0.121,0.172 z m 3.433,-3.25 c -1.023,0 -1.726,0.328 -1.973,0.925 -0.378,0.903 -0.16,1.157 0.133,1.293 l 0.047,0.028 -1.64,0.82 -0.157,-0.031 -0.027,-0.024 0.34,-0.238 0.722,-0.832 -1.835,-1.539 -0.747,0.582 c -0.539,0.57 -1.281,1.356 -2.211,1.356 l -0.234,-0.016 c -1.598,-0.227 -2.648,-0.633 -2.656,-0.637 -0.063,-0.023 -1.594,-0.668 -2.504,-0.668 l -0.285,0.028 -1.238,1.253 0.222,0.918 0.301,1.399 -0.207,0.562 -0.316,1.079 1.339,3.109 -0.058,10.601 -1.281,0.836 c -0.063,0.829 1.871,16.996 2.156,18.024 0.254,0.906 0.863,3.859 1.011,4.597 l -0.539,-0.121 -0.355,0.262 c -0.063,0.414 2.348,8.75 2.621,9.699 0,0.032 0.461,4.594 0.461,5.797 0,1.086 -0.188,2.559 -0.223,2.848 -0.355,0.16 -2.402,1.14 -2.453,2.625 -0.156,1.75 1,2.941 1.848,3.808 l 0.719,0.883 1.164,3.258 c 0.058,0.109 1.332,2.27 3.449,2.621 l 0.074,0.016 0.027,-0.071 c 0.004,-0.019 0.637,-1.671 1.973,-1.671 l 0.367,0.039 c 1.649,0.34 3.61,1.886 3.629,1.902 l 0.024,0.02 h 0.031 l 0.422,0.007 c 1.242,0 1.398,-0.156 1.449,-0.207 l 0.055,-0.054 c 1.269,-1.25 4.211,-4.286 4.105,-5.375 l -1.375,-1.157 -1.148,-0.582 c -0.711,-0.906 -1.645,-2.898 -1.379,-4.293 l 0.554,-2.007 c 0.305,-0.973 0.567,-1.813 0.497,-2.274 l -0.5,-0.937 -0.258,-0.446 0.195,-0.621 0.328,-1.242 -0.293,-1.211 -0.289,-1.394 0.176,-2.981 -0.176,-10.199 0.641,-0.973 3.957,-17.511 0.008,-0.028 -0.008,-0.023 -0.61,-0.532 v 0 h -0.011 l 0.652,-1.21 1.02,-2.063 c 0.023,-0.316 0.406,-1.609 0.812,-2.98 0.59,-1.997 1.203,-4.063 1.168,-4.543 l -0.539,-2.727 0.379,-1.316 c 0.469,-1.473 0.816,-2.625 0.676,-2.973 l -2.528,-0.582 h -0.179 l -0.543,0.098 -0.492,-0.797 -0.266,-0.008 -3.598,0.18 -1.629,-1.454 -1.027,0.637 -0.426,0.317 0.192,-0.536 0.183,-0.898 -1.914,-0.445"
         style="fill:#100f0d;fill-opacity:1;fill-rule:nonzero;stroke:none"
         id="path340" /><path
         d="m 238.688,130.133 -6.461,-3.203 -0.528,1.222 2.098,0.348 -1.863,1.574 2.679,0.989 1.336,-1.399 2.039,1.281 0.7,-0.812"
         style="fill:#f3c30a;fill-opacity:1;fill-rule:nonzero;stroke:none"
         id="path342" /><path
         d="m 232.074,130.039 1.778,-1.465 0.183,-0.144 -0.23,-0.02 -2.078,-0.347 -0.336,-0.497 0.629,-0.574 0.179,0.024 6.348,3.144 -0.57,0.66 -2.004,-1.246 -0.082,-0.008 -1.211,1.235 -0.102,0.16 z m -0.054,-3.23 -0.813,0.734 0.469,0.695 1.887,0.332 c -1.715,1.356 -1.719,1.45 -1.723,1.493 v 0.042 l 0.027,0.032 2.746,1.019 0.227,-0.258 1.051,-1.148 0.039,0.004 2.004,1.266 0.066,0.05 0.059,-0.062 0.687,-0.805 0.008,-0.008 h -0.004 l 0.031,-0.113 -0.023,-0.051 h -0.067 l -6.441,-3.191 -0.23,-0.031"
         style="fill:#100f0d;fill-opacity:1;fill-rule:nonzero;stroke:none"
         id="path344" /><path
         d="m 246.645,128.5 c 0.535,-0.687 0.742,-1.883 1.964,-1.184 1.223,0.7 -0.625,1.997 -0.625,1.997 l -1.339,-0.813 v 0"
         style="fill:#fabbae;fill-opacity:1;fill-rule:nonzero;stroke:none"
         id="path346" /><path
         d="m 246.777,128.477 0.274,-0.45 0.902,-0.832 0.61,0.2 0.371,0.5 -0.957,1.308 z m 1.176,-1.465 v 0 l -1.058,0.926 -0.325,0.507 -0.062,0.082 1.48,0.895 0.047,-0.035 1.082,-1.5 -0.461,-0.649 -0.703,-0.226"
         style="fill:#100f0d;fill-opacity:1;fill-rule:nonzero;stroke:none"
         id="path348" /><path
         d="m 248.875,128.617 1.105,0.059 -1.046,1.629 -0.758,-0.871 0.699,-0.817"
         style="fill:#fabbae;fill-opacity:1;fill-rule:nonzero;stroke:none"
         id="path350" /><path
         d="m 248.945,128.68 0.481,-0.16 0.492,0.222 0.078,0.219 -1.047,1.223 -0.648,-0.75 z m 0.481,-0.344 v 0 l -0.606,0.211 -0.765,0.887 0.863,0.996 0.07,-0.047 1.192,-1.406 -0.133,-0.368 -0.621,-0.273"
         style="fill:#100f0d;fill-opacity:1;fill-rule:nonzero;stroke:none"
         id="path352" /><path
         d="m 251.379,198.508 c 0.059,0 1.922,-5.766 2.156,-7.223 0.231,-1.453 0.988,-7.273 0.699,-8.09 -0.293,-0.816 -3.261,-4.715 -3.613,-5.707 -0.348,-0.988 -2.441,-4.773 -2.441,-4.773 l -0.758,-3.902 0.523,-1.395 -2.386,-1.805 -1.864,1.746 0.582,3.899 3.434,7.512 2.562,6.347 -1.546,3.633 c -1.832,5.395 -1.114,8.645 2.652,9.758 v 0"
         style="fill:#fabbae;fill-opacity:1;fill-rule:nonzero;stroke:none"
         id="path354" /><path
         d="m 248.805,188.801 1.558,-3.692 c -0.043,-0.691 -1.383,-3.742 -2.386,-5.976 l -0.18,-0.399 -0.051,-0.121 c -1.082,-2.539 -2.961,-6.875 -3.398,-7.414 l -0.563,-3.832 1.793,-1.668 0.094,-0.008 2.183,1.754 -0.277,0.618 -0.215,0.824 c 0.141,0.156 0.477,2.093 0.723,3.84 l 0.012,0.035 c 0.019,0.035 2.093,3.785 2.437,4.758 0.188,0.531 1.094,1.851 1.965,3.125 0.777,1.132 1.512,2.207 1.645,2.582 0.281,0.777 -0.446,6.433 -0.704,8.046 -0.218,1.387 -1.875,6.5 -2.113,7.122 -1.414,-0.434 -2.371,-1.165 -2.926,-2.235 -0.851,-1.64 -0.718,-4.047 0.403,-7.359 z m -3.133,-23.293 -0.137,0.015 -1.933,1.829 0.605,3.964 c 0.309,0.379 1.535,3.067 3.367,7.372 l 0.055,0.117 0.18,0.406 c 0.574,1.277 2.324,5.172 2.375,5.91 l -1.52,3.559 -0.019,0.015 -0.004,0.024 c -1.149,3.375 -1.278,5.836 -0.403,7.527 0.582,1.121 1.629,1.91 3.117,2.348 l 0.024,0.004 c 0.07,0 0.133,0 1.101,-3.129 0.368,-1.196 1.008,-3.328 1.145,-4.168 0.195,-1.231 1.004,-7.27 0.695,-8.137 -0.144,-0.398 -0.882,-1.48 -1.668,-2.625 -0.867,-1.262 -1.761,-2.57 -1.941,-3.082 -0.344,-0.965 -2.281,-4.477 -2.445,-4.773 -0.161,-1.141 -0.555,-3.766 -0.789,-3.942 l 0.257,-0.586 0.301,-0.761 -2.363,-1.887"
         style="fill:#100f0d;fill-opacity:1;fill-rule:nonzero;stroke:none"
         id="path356" /><path
         d="m 237.699,214.961 1.977,0.23 2.097,-0.23 0.989,-0.758 v -2.387 l 1.34,-0.527 -0.524,-1.223 0.699,-0.871 -0.351,-1.457 1.051,-1.164 c 0.347,0 0.117,-1.457 1.164,-1.105 1.047,0.347 0.988,1.281 0.988,1.281 0,0 1.105,0.176 1.398,1.164 0.289,0.988 0.989,1.223 0.989,1.223 0,0 1.398,0.758 -0.465,1.922 0,8.152 -5.356,7.277 -5.356,7.277 0,0 -0.64,1.453 -1.687,1.281 -1.051,-0.176 -1.11,-1.398 -1.863,-1.281 l -0.993,0.582 -0.699,-1.516 c 0,-0.289 -2.035,0.411 -1.863,-1.105 0.176,-1.512 1.168,-1.453 1.109,-1.336 v 0"
         style="fill:#97471d;fill-opacity:1;fill-rule:nonzero;stroke:none"
         id="path358" /><path
         d="m 242.902,214.316 -0.054,-0.148 -0.301,-2.063 0.238,-0.203 0.574,-0.136 0.832,-0.457 -0.281,-0.598 -0.262,-0.586 0.27,-0.297 0.449,-0.609 -0.172,-0.653 -0.195,-0.769 0.148,-0.219 0.829,-0.91 0.324,-0.477 0.543,-0.683 0.265,0.047 c 0.969,0.324 0.93,1.179 0.93,1.187 l -0.008,0.086 0.082,0.012 c 0.012,0.004 1.055,0.18 1.325,1.101 0.3,1.024 1.015,1.274 1.05,1.282 l 0.438,0.64 -0.922,1.117 -0.043,0.028 v 0.051 c 0,6.507 -3.375,7.211 -4.824,7.211 l -0.426,-0.024 -0.07,-0.012 -0.032,0.067 c -0.004,0.012 -0.621,1.39 -1.589,1.226 l -0.997,-0.734 -0.894,-0.547 -0.953,0.539 -0.629,-1.383 -0.387,-0.172 h -0.156 l -1.176,-0.269 -0.144,-0.652 c 0.117,-1.028 0.629,-1.305 0.89,-1.313 l -0.035,0.078 0.172,-0.023 0.625,-0.035 1.297,0.254 c 0.933,0.546 1.703,0.457 2.215,-0.258 l 0.894,-0.719 z m 2.942,-8.992 -0.723,0.821 -0.144,0.339 -0.985,0.993 -0.14,0.207 0.171,0.949 0.165,0.539 -0.407,0.531 -0.273,0.309 0.254,0.808 0.25,0.453 -0.696,0.313 -0.578,0.141 -0.355,0.296 0.25,2.098 -0.934,0.785 -1.976,0.207 -1.387,-0.285 -0.586,0.031 -0.168,-0.046 c -0.34,0 -0.949,0.312 -1.082,1.476 l 0.191,0.793 1.317,0.332 h 0.152 l 0.203,0.016 0.727,1.554 0.023,0.028 0.051,0.004 0.149,-0.11 0.843,-0.48 0.723,0.48 1.113,0.801 0.188,0.016 1.57,-1.289 0.387,0.019 c 1.172,0 4.988,-0.527 5.004,-7.344 l 0.968,-1.254 -0.55,-0.8 c -0.039,-0.016 -0.672,-0.239 -0.946,-1.168 l -1.394,-1.211 c -0.012,-0.246 -0.133,-0.988 -1.051,-1.293 l -0.324,-0.059"
         style="fill:#100f0d;fill-opacity:1;fill-rule:nonzero;stroke:none"
         id="path360" /><path
         d="m 241.973,197.309 c -0.118,1.187 4.574,4.226 5.105,4.57 l 0.102,-0.156 c -1.43,-0.914 -5.114,-3.489 -5.024,-4.395 l -0.183,-0.019"
         style="fill:#100f0d;fill-opacity:1;fill-rule:nonzero;stroke:none"
         id="path362" /><path
         d="m 247.07,199.848 v 0.09 l -0.039,0.082 1.196,1.261 0.136,-0.125 c -1.191,-1.308 -1.242,-1.308 -1.293,-1.308"
         style="fill:#100f0d;fill-opacity:1;fill-rule:nonzero;stroke:none"
         id="path364" /><path
         d="m 247.625,196.359 c -0.422,1.383 2.074,3.446 2.184,3.536 l 0.117,-0.145 c -0.028,-0.02 -2.512,-2.07 -2.125,-3.336 l -0.176,-0.055"
         style="fill:#100f0d;fill-opacity:1;fill-rule:nonzero;stroke:none"
         id="path366" /><path
         d="m 238.895,194.156 -0.18,0.035 c 0,0.008 0.168,0.875 0,2.067 l -1.188,2.82 -0.441,0.891 0.586,2.164 0.168,-0.082 -0.578,-2.028 0.426,-0.859 1.207,-2.883 c 0.175,-1.222 0.007,-2.09 0,-2.125"
         style="fill:#100f0d;fill-opacity:1;fill-rule:nonzero;stroke:none"
         id="path368" /><path
         d="m 238.305,194.391 -1.371,2.511 -0.61,2.27 0.184,0.019 0.555,-2.156 1.425,-2.609 -0.183,-0.035"
         style="fill:#100f0d;fill-opacity:1;fill-rule:nonzero;stroke:none"
         id="path370" /><path
         d="m 236.418,191.258 -0.508,0.097 0.082,0.165 0.906,0.007 c 0.684,0.235 1.332,0.965 1.883,2.106 l 0.164,-0.082 c -0.578,-1.207 -1.25,-1.946 -1.992,-2.203 l -0.535,-0.09"
         style="fill:#100f0d;fill-opacity:1;fill-rule:nonzero;stroke:none"
         id="path372" /><path
         d="m 244.742,190.797 c -0.75,0 -1.73,0.195 -2.898,0.851 -1.535,0.864 -1.137,2.895 -0.981,3.497 l 0.27,0.578 v -0.094 l 0.066,-0.059 c -0.082,-0.129 -0.492,-1.382 -0.234,-2.441 l 0.969,-1.32 c 1.953,-1.098 3.343,-0.868 4,-0.633 l 1.671,0.804 0.094,-0.156 -1.703,-0.82 -1.254,-0.207"
         style="fill:#100f0d;fill-opacity:1;fill-rule:nonzero;stroke:none"
         id="path374" /><path
         d="m 246.031,184.434 c -5.621,3.765 -5.804,7.66 -5.804,7.699 l 0.183,0.008 c 0,-0.039 0.188,-3.844 5.723,-7.555 l -0.102,-0.152"
         style="fill:#100f0d;fill-opacity:1;fill-rule:nonzero;stroke:none"
         id="path376" /><path
         d="m 242.652,183.563 c -2.226,1.523 -2.195,4.929 -2.191,4.964 h 0.18 c 0,-0.035 -0.028,-3.347 2.117,-4.816 l -0.106,-0.148"
         style="fill:#100f0d;fill-opacity:1;fill-rule:nonzero;stroke:none"
         id="path378" /><path
         d="m 236.391,186.871 -0.067,0.168 c 1.285,0.504 2.957,5.426 2.977,5.477 l 0.172,-0.059 c -0.071,-0.207 -1.719,-5.055 -3.082,-5.586"
         style="fill:#100f0d;fill-opacity:1;fill-rule:nonzero;stroke:none"
         id="path380" /><path
         d="m 238.426,183.895 -0.172,0.066 c 0.453,1.25 0.516,4.824 0.516,4.859 l 0.183,-0.004 c 0,-0.148 -0.062,-3.64 -0.527,-4.921"
         style="fill:#100f0d;fill-opacity:1;fill-rule:nonzero;stroke:none"
         id="path382" /><path
         d="m 240.168,181.617 c -1.246,0 -2.32,1.321 -2.367,1.379 l 0.144,0.113 c 0.008,-0.011 1.153,-1.414 2.364,-1.3 l 1.445,0.808 1.266,0.582 0.71,-0.258 c 0.668,-0.277 1.5,-0.621 2.985,-0.496 l 0.015,-0.179 c -1.527,-0.133 -2.382,0.222 -3.07,0.507 l -0.687,0.25 -1.094,-0.543 -1.555,-0.855 -0.156,-0.008"
         style="fill:#100f0d;fill-opacity:1;fill-rule:nonzero;stroke:none"
         id="path384" /><path
         d="m 244.719,174.547 -0.184,0.016 c 0.086,1.035 0.102,2.746 -0.246,2.937 l -0.57,3.344 h 0.183 c 0,-1.129 0.129,-2.989 0.477,-3.184 l 0.34,-3.113"
         style="fill:#100f0d;fill-opacity:1;fill-rule:nonzero;stroke:none"
         id="path386" /><path
         d="m 235.277,174.313 c -0.105,1.308 0.442,2.808 0.805,3.804 l 0.133,0.367 c 0.34,0.965 0.398,3.731 0.402,3.758 l 0.184,-0.004 c -0.004,-0.117 -0.063,-2.824 -0.414,-3.812 l -0.133,-0.371 c -0.356,-0.981 -0.895,-2.457 -0.793,-3.727 l -0.184,-0.015"
         style="fill:#100f0d;fill-opacity:1;fill-rule:nonzero;stroke:none"
         id="path388" /><path
         d="m 233.191,172.605 -0.07,0.172 1.258,0.973 0.117,-0.137 -1.305,-1.008"
         style="fill:#100f0d;fill-opacity:1;fill-rule:nonzero;stroke:none"
         id="path390" /><path
         d="m 233.066,155.914 c -0.695,6.348 1.782,17.039 1.805,17.149 l 0.18,-0.043 c -0.024,-0.11 -2.492,-10.774 -1.805,-17.086 l -0.18,-0.02"
         style="fill:#100f0d;fill-opacity:1;fill-rule:nonzero;stroke:none"
         id="path392" /><path
         d="m 234.758,162.934 c -0.582,1.519 0.64,9.265 0.695,9.597 l 0.18,-0.027 c -0.012,-0.082 -1.27,-8.031 -0.703,-9.504 l -0.172,-0.066"
         style="fill:#100f0d;fill-opacity:1;fill-rule:nonzero;stroke:none"
         id="path394" /><path
         d="m 239.785,172.309 c -1.652,0.121 -4.801,0.343 -4.883,0.347 v 0.184 l 4.899,-0.348 -0.016,-0.183"
         style="fill:#100f0d;fill-opacity:1;fill-rule:nonzero;stroke:none"
         id="path396" /><path
         d="m 243.27,172.352 c -1.637,0 -2.77,0.582 -2.821,0.605 l 0.086,0.164 c 0.012,-0.008 1.344,-0.687 3.153,-0.57 l 0.011,-0.184 -0.429,-0.015"
         style="fill:#100f0d;fill-opacity:1;fill-rule:nonzero;stroke:none"
         id="path398" /><path
         d="m 239.418,152.359 -0.18,0.024 c 0.344,2.988 0.578,16.621 0.578,16.758 l 0.188,-0.004 C 240,169 239.766,155.359 239.418,152.359"
         style="fill:#100f0d;fill-opacity:1;fill-rule:nonzero;stroke:none"
         id="path400" /><path
         d="m 249.387,152.781 c -0.879,1.114 -2.344,12.711 -2.407,13.203 l 0.184,0.024 c 0.016,-0.121 1.52,-12.039 2.367,-13.113 l -0.144,-0.114"
         style="fill:#100f0d;fill-opacity:1;fill-rule:nonzero;stroke:none"
         id="path402" /><path
         d="m 245.535,152.852 c -0.527,0.937 -1.43,11.187 -1.465,11.621 l 0.184,0.015 c 0.008,-0.105 0.934,-10.644 1.441,-11.547 l -0.16,-0.089"
         style="fill:#100f0d;fill-opacity:1;fill-rule:nonzero;stroke:none"
         id="path404" /><path
         d="m 230.973,149.082 -0.059,0.176 c 0.02,0.004 1.805,0.597 3.399,2.305 l 0.074,0.078 0.066,-0.086 1.75,-1.09 c 1.438,-0.168 2.82,0.976 2.832,0.988 l 0.055,0.043 0.058,-0.039 c 0.024,-0.016 2.368,-1.598 4.348,-1.152 l 1.926,1.472 0.047,0.082 0.082,-0.05 c 2.91,-1.903 4.351,0.175 4.414,0.265 l 0.078,0.114 0.074,-0.114 1.824,-1.476 0.039,-0.18 -1.945,1.449 c -0.355,-0.429 -1.875,-1.933 -4.508,-0.265 l -1.988,-1.477 c -1.918,-0.426 -4.055,0.895 -4.437,1.145 -0.282,-0.219 -1.551,-1.149 -2.922,-0.989 l -1.809,1.074 c -1.609,-1.679 -3.379,-2.265 -3.398,-2.273"
         style="fill:#100f0d;fill-opacity:1;fill-rule:nonzero;stroke:none"
         id="path406" /><path
         d="m 252.715,135.594 c -3.36,3.011 -5.582,13.297 -5.676,13.73 l 0.18,0.039 c 0.023,-0.105 2.304,-10.66 5.621,-13.633 l -0.125,-0.136"
         style="fill:#100f0d;fill-opacity:1;fill-rule:nonzero;stroke:none"
         id="path408" /><path
         d="m 236.152,135.246 c -0.519,6.219 -0.812,15.113 -0.816,15.203 l 0.184,0.004 c 0.003,-0.09 0.296,-8.976 0.816,-15.191 l -0.184,-0.016"
         style="fill:#100f0d;fill-opacity:1;fill-rule:nonzero;stroke:none"
         id="path410" /><path
         d="m 234.449,134.09 -0.14,0.117 c 0.242,0.281 0.507,3.938 0.621,6.176 l 0.183,-0.008 -0.664,-6.285"
         style="fill:#100f0d;fill-opacity:1;fill-rule:nonzero;stroke:none"
         id="path412" /><path
         d="m 239.777,130.492 -0.066,0.004 -0.953,1.504 -0.039,0.141 -0.047,0.234 -0.902,1.691 c -0.532,0.219 -1.301,-0.031 -2.29,-0.75 -1.207,-0.878 -2.203,-1.183 -2.96,-0.914 l -1.024,1.141 0.18,0.047 0.906,-1.016 c 0.695,-0.246 1.637,0.051 2.789,0.891 1.043,0.758 1.871,1.015 2.469,0.769 l 1.012,-1.832 0.039,-0.203 0.043,-0.148 0.8,-1.371 0.852,0.777 0.16,-0.09 -0.969,-0.875"
         style="fill:#100f0d;fill-opacity:1;fill-rule:nonzero;stroke:none"
         id="path414" /><path
         d="m 244.602,131.977 -0.598,0.14 c -1.074,0.574 -0.875,2.653 -0.867,2.738 l 0.183,-0.015 c -0.004,-0.024 -0.191,-2.043 0.77,-2.563 0.664,-0.351 1.723,0.067 3.156,1.243 1.742,1.433 3.129,1.953 4.125,1.543 1.156,-0.477 1.434,-2.055 1.496,-2.711 l -0.179,-0.016 c -0.067,0.621 -0.325,2.117 -1.383,2.555 -0.93,0.382 -2.258,-0.125 -3.942,-1.512 -1.136,-0.934 -2.058,-1.402 -2.761,-1.402"
         style="fill:#100f0d;fill-opacity:1;fill-rule:nonzero;stroke:none"
         id="path416" /><path
         d="m 246.277,212.664 c -0.011,0.004 -1.05,0.484 -0.777,1.844 l -1.809,0.582 -0.496,1.863 0.184,-0.027 0.445,-1.715 1.785,-0.512 0.125,0.012 -0.031,-0.121 c -0.324,-1.305 0.61,-1.742 0.649,-1.758 l -0.075,-0.168"
         style="fill:#100f0d;fill-opacity:1;fill-rule:nonzero;stroke:none"
         id="path418" /><path
         d="m 248.348,209.41 -0.11,0.153 0.559,0.89 -0.469,0.633 0.024,0.062 v 0.118 l 0.593,-0.641 -0.597,-1.215"
         style="fill:#100f0d;fill-opacity:1;fill-rule:nonzero;stroke:none"
         id="path420" /><path
         d="m 248.098,207.711 -0.825,0.176 -0.027,0.011 -1.605,0.625 -1.317,0.555 0.141,0.117 1.129,-0.496 1.754,-0.644 0.871,-0.145 0.152,-0.105 -0.273,-0.094"
         style="fill:#100f0d;fill-opacity:1;fill-rule:nonzero;stroke:none"
         id="path422" /><path
         d="m 241.363,206.758 -0.554,0.082 0.066,0.172 c 0.074,-0.032 1.91,-0.684 3.141,2.336 l 0.172,-0.071 c -0.883,-2.168 -2.118,-2.519 -2.825,-2.519"
         style="fill:#100f0d;fill-opacity:1;fill-rule:nonzero;stroke:none"
         id="path424" /><path
         d="m 238.336,210.094 -1.168,0.058 0.012,0.184 1.164,-0.059 -0.008,-0.183"
         style="fill:#100f0d;fill-opacity:1;fill-rule:nonzero;stroke:none"
         id="path426" /><path
         d="m 224.258,170.973 -0.094,2.55 0.184,0.008 0.093,-2.554 -0.183,-0.004"
         style="fill:#100f0d;fill-opacity:1;fill-rule:nonzero;stroke:none"
         id="path428" /><path
         d="m 223.453,169.512 -0.183,0.019 c 0.132,1.41 -1.469,4.11 -1.485,4.137 l 0.156,0.094 c 0.071,-0.114 1.653,-2.778 1.512,-4.25"
         style="fill:#100f0d;fill-opacity:1;fill-rule:nonzero;stroke:none"
         id="path430" /><path
         d="m 237.504,208.586 -0.074,0.168 0.527,0.234 h -0.609 v 0.184 h 1.05 l 0.09,-0.074 -0.054,-0.102 -0.93,-0.41"
         style="fill:#100f0d;fill-opacity:1;fill-rule:nonzero;stroke:none"
         id="path432" /><path
         d="m 244.973,165.992 -0.012,0.004 -0.078,0.09 -0.465,1.586 -0.617,0.238 -0.024,0.18 0.762,-0.281 0.508,-1.231 c 0.828,2.113 2.23,2.195 2.293,2.195 l 0.008,-0.183 c -0.016,0 -1.535,-0.094 -2.285,-2.531 l -0.09,-0.067"
         style="fill:#100f0d;fill-opacity:1;fill-rule:nonzero;stroke:none"
         id="path434" /><path
         d="m 239.137,212.309 0.129,-0.008 0.363,0.062 -0.086,0.008 z m 0.129,-0.192 -0.528,0.156 -0.019,0.102 0.086,0.055 0.242,0.047 0.496,0.078 0.27,-0.106 0.007,-0.152 -0.554,-0.18"
         style="fill:#100f0d;fill-opacity:1;fill-rule:nonzero;stroke:none"
         id="path436" /><path
         d="m 239.609,109.699 c 24.59,0.684 40.469,18.442 40.301,18.614 -0.172,0.167 3.242,4.949 5.977,4.265 2.73,-0.68 6.66,-8.707 11.437,-10.414 2.395,-3.758 -0.679,-7.172 -1.707,-7.855 -1.023,-0.684 -5.633,-2.563 -6.316,0.171 -0.684,2.731 -2.047,2.219 -2.047,2.219 0,0 -21.859,-21.3435 -47.129,-20.4881 C 214,96.0391 192.484,116.699 192.484,116.699 l -1.879,-2.047 c 0,0 -2.05,-2.222 -3.074,-2.05 -1.023,0.171 -5.465,3.074 -5.804,5.976 -0.34,2.902 2.73,4.781 2.73,4.781 0,0 7.516,5.805 8.367,8.879 1.707,1.707 4.953,-1.195 4.953,-1.195 0,0 19.809,-22.711 41.836,-21.344 h -0.004"
         style="fill:#f3c30a;fill-opacity:1;fill-rule:nonzero;stroke:none"
         id="path438" /><path
         d="m 209.973,117.484 -0.778,-0.066 -2.066,-0.875 c -2.258,-1.313 -4.512,-2.629 -6.77,-3.945 l -0.117,0.445 c 0.602,2.816 1.227,5.629 1.813,8.449 l -0.227,1.465 0.242,0.164 c 1.153,-0.824 2.309,-1.644 3.461,-2.469 l -0.504,0.036 -1.043,-0.547 c -0.414,-1.856 -0.812,-3.715 -1.218,-5.575 1.531,0.911 3.078,1.793 4.593,2.727 l 0.379,1.418 -0.215,0.519 2.45,-1.746"
         style="fill:#100f0d;fill-opacity:1;fill-rule:nonzero;stroke:none"
         id="path440" /><path
         d="m 212.402,105.727 -0.336,-0.106 c -1.359,0.742 -2.714,1.484 -4.074,2.227 l 0.34,0.105 1.238,0.094 1.493,2.668 c 0.675,1.258 1.382,2.5 2.042,3.765 l -0.476,1.196 -0.18,0.316 0.414,-0.156 c 1.301,-0.711 2.602,-1.422 3.903,-2.133 l -0.34,-0.105 -1.242,-0.09 -1.493,-2.664 c -0.679,-1.258 -1.386,-2.5 -2.043,-3.77 l 0.485,-1.195 0.269,-0.152"
         style="fill:#100f0d;fill-opacity:1;fill-rule:nonzero;stroke:none"
         id="path442" /><path
         d="m 228.066,109.402 c -0.371,-1.035 -0.738,-2.07 -1.105,-3.105 l -0.293,0.933 c -0.164,1.399 -1.191,2.704 -2.598,3 -1.07,0.293 -2.203,-0.257 -2.836,-1.132 -0.949,-1.301 -1.531,-2.887 -1.609,-4.496 -0.055,-0.914 0.363,-1.856 1.164,-2.336 l 2.156,-0.567 0.801,2.348 -0.871,0.949 0.273,0.172 c 1.352,-0.48 2.704,-0.965 4.055,-1.445 l -0.922,-0.16 -0.734,-1.227 -0.492,-1.387 c -1.821,-0.129 -3.692,0.254 -5.274,1.172 -1.539,0.969 -2.578,2.84 -2.277,4.676 0.234,1.57 1.215,3.043 2.66,3.734 1.332,0.707 2.957,0.703 4.34,0.145 l 1.988,-1.254 1.332,0.066 0.242,-0.086"
         style="fill:#100f0d;fill-opacity:1;fill-rule:nonzero;stroke:none"
         id="path444" /><path
         d="m 234.664,98.8125 -0.226,-0.2266 c -1.547,0.2344 -3.094,0.4688 -4.645,0.7032 l 0.227,0.2265 1.136,0.3594 0.348,1.914 c 0.266,1.785 0.551,3.57 0.805,5.356 l -0.434,0.968 -0.719,0.164 0.223,0.227 c 1.551,-0.234 3.098,-0.473 4.644,-0.707 l -0.222,-0.223 -1.145,-0.359 -0.347,-1.914 c -0.266,-1.785 -0.551,-3.571 -0.805,-5.3557 l 0.437,-0.9726 0.723,-0.1602 v 0"
         style="fill:#100f0d;fill-opacity:1;fill-rule:nonzero;stroke:none"
         id="path446" /><path
         d="m 247.203,101.855 c -0.062,-1.097 -0.121,-2.1948 -0.183,-3.2925 -2.762,-0.1406 -5.524,-0.2812 -8.286,-0.4219 l 0.219,0.2657 1.008,0.6445 -0.082,2.4572 c -0.09,1.633 -0.152,3.265 -0.262,4.894 l -0.851,0.832 -0.504,0.114 0.359,0.144 c 1.539,0.078 3.074,0.156 4.613,0.235 l -0.222,-0.266 -1.098,-0.582 0.051,-2.133 c 0.094,-1.699 0.156,-3.398 0.269,-5.0976 l 0.786,-0.7539 2.015,0.1758 c 0.922,0.2422 1.422,1.1567 1.676,2.0077 l 0.394,0.774 0.098,0.003"
         style="fill:#100f0d;fill-opacity:1;fill-rule:nonzero;stroke:none"
         id="path448" /><path
         d="m 253.641,106.535 2.25,-2.687 -2.7,-0.805 c 0.153,1.164 0.301,2.328 0.45,3.492 z m 0.023,3.297 -0.18,-0.434 c -0.367,-2.746 -0.714,-5.496 -1.093,-8.242 l -0.844,-1.6287 0.176,-0.2304 c 0.922,0.2734 1.843,0.5508 2.769,0.8281 l -0.863,0.125 -0.645,1.254 0.118,0.976 c 1.054,0.317 2.113,0.633 3.168,0.954 l 1.218,-1.528 -0.781,-0.855 0.141,-0.223 c 1.39,0.418 2.777,0.832 4.168,1.25 l -0.871,0.344 -1.985,2.125 c -1.5,1.762 -3,3.523 -4.496,5.285 v 0"
         style="fill:#100f0d;fill-opacity:1;fill-rule:nonzero;stroke:none"
         id="path450" /><path
         d="m 267.84,116.02 1.199,-2.227 -0.906,0.535 -2.004,0.16 -0.754,-0.402 c 1.203,-2.231 2.391,-4.473 3.609,-6.695 l 1.34,-0.356 0.391,-0.07 -1.914,-1.039 -2.395,-1.285 0.153,0.371 0.402,1.383 c -1.176,2.214 -2.371,4.418 -3.559,6.628 l -1.668,-1.515 0.086,-1.594 -0.351,0.227 -1.024,1.906 c 2.465,1.324 4.93,2.648 7.395,3.973 v 0"
         style="fill:#100f0d;fill-opacity:1;fill-rule:nonzero;stroke:none"
         id="path452" /><path
         d="m 273.445,119.344 c 0.766,-1.012 1.528,-2.024 2.289,-3.035 l 0.817,1.597 -0.422,1.461 0.402,-0.383 c 0.871,-1.16 1.746,-2.312 2.617,-3.468 l -0.949,0.488 -1.769,0.144 -0.114,-0.609 1.84,-2.379 1.239,0.285 c 0.878,0.598 1.648,1.532 1.601,2.653 l -0.246,1.445 0.367,-0.277 1.235,-2.235 c -2.149,-1.621 -4.297,-3.242 -6.446,-4.863 l 0.172,0.449 -0.031,1.551 c -1.379,1.812 -2.734,3.648 -4.129,5.449 l -1.375,-0.109 -0.102,0.242 c 2.028,1.531 4.055,3.059 6.082,4.59 l 1.665,-2.207 -1.168,0.523 -2.411,-0.441 -1.164,-0.871"
         style="fill:#100f0d;fill-opacity:1;fill-rule:nonzero;stroke:none"
         id="path454" /></g></g></svg>
