<?xml version="1.0" encoding="UTF-8" standalone="no"?>
<svg
   xmlns:dc="http://purl.org/dc/elements/1.1/"
   xmlns:cc="http://creativecommons.org/ns#"
   xmlns:rdf="http://www.w3.org/1999/02/22-rdf-syntax-ns#"
   xmlns:svg="http://www.w3.org/2000/svg"
   xmlns="http://www.w3.org/2000/svg"
   version="1.1"
   id="svg2"
   xml:space="preserve"
   width="42.666668"
   height="42.666668"
   viewBox="0 0 42.666668 42.666668"><metadata
     id="metadata8"><rdf:RDF><cc:Work
         rdf:about=""><dc:format>image/svg+xml</dc:format><dc:type
           rdf:resource="http://purl.org/dc/dcmitype/StillImage" /></cc:Work></rdf:RDF></metadata><defs
     id="defs6" /><g
     id="g10"
     transform="matrix(1.3333333,0,0,-1.3333333,0,42.666667)"><g
       id="g12"
       transform="scale(0.1)"><path
         d="m 160,-0.0351563 c 88.129,0 160,71.8671563 160,159.9761563 0,88.133 -71.871,160.004 -160,160.004 C 71.8906,319.945 0,248.074 0,159.941 0,71.832 71.8906,-0.0351563 160,-0.0351563"
         style="fill:#dc2225;fill-opacity:1;fill-rule:evenodd;stroke:none"
         id="path14" /><path
         d="m 143.895,175.25 c 5.82,15.828 10.386,32.168 16.093,47.996 5.364,-15.918 10.477,-31.902 15.657,-47.91 16.976,-0.356 33.847,-0.176 50.734,-0.176 -13.449,-10.297 -27.43,-19.867 -40.883,-30.226 5.188,-16.102 10.367,-32.176 15.461,-48.2699 -13.715,9.8589 -27.258,20.0389 -41.141,29.7229 -13.625,-9.766 -27.078,-19.778 -40.793,-29.3714 4.766,16.1874 10.543,31.9964 15.215,48.2654 -13.539,9.922 -27.258,19.688 -40.6169,29.879 16.7109,0 33.4959,0.09 50.2739,0.09"
         style="fill:#efee0e;fill-opacity:1;fill-rule:nonzero;stroke:none"
         id="path16" /></g></g></svg>
