<?xml version="1.0" encoding="UTF-8" standalone="no"?>
<svg
   xmlns:dc="http://purl.org/dc/elements/1.1/"
   xmlns:cc="http://creativecommons.org/ns#"
   xmlns:rdf="http://www.w3.org/1999/02/22-rdf-syntax-ns#"
   xmlns:svg="http://www.w3.org/2000/svg"
   xmlns="http://www.w3.org/2000/svg"
   version="1.1"
   id="svg2"
   xml:space="preserve"
   width="42.666668"
   height="42.666668"
   viewBox="0 0 42.666668 42.666668"><metadata
     id="metadata8"><rdf:RDF><cc:Work
         rdf:about=""><dc:format>image/svg+xml</dc:format><dc:type
           rdf:resource="http://purl.org/dc/dcmitype/StillImage" /></cc:Work></rdf:RDF></metadata><defs
     id="defs6" /><g
     id="g10"
     transform="matrix(1.3333333,0,0,-1.3333333,0,42.666667)"><g
       id="g12"
       transform="scale(0.1)"><path
         d="m 310.523,214.348 c -22.285,61.597 -81.269,105.632 -150.5,105.632 -42.625,0 -81.2613,-16.753 -109.9058,-43.945 L 157.848,191.504 h 159.05 c -1.57,7.832 -3.726,15.469 -6.375,22.844"
         style="fill:#d41b34;fill-opacity:1;fill-rule:nonzero;stroke:none"
         id="path14" /><path
         d="M 310.531,105.992 C 288.266,44.0977 229.34,-0.15625 160.18,-0.15625 117.598,-0.15625 78.9961,16.6797 50.3789,44.0039 L 158.004,128.945 h 158.894 c -1.566,-7.867 -3.722,-15.539 -6.367,-22.953"
         style="fill:#2a9840;fill-opacity:1;fill-rule:nonzero;stroke:none"
         id="path16" /><path
         d="M 39.0391,264.43 C 35.043,259.746 31.2656,254.828 27.8086,249.754 L 142.953,159.309 28.4336,69.3555 c 3.5078,-5.0508 7.2852,-9.9492 11.375,-14.6016 l 122.1444,95.9611 -0.043,0.047 h 10.059 v 0.011 H 319.73 c 0.176,3.055 0.27,6.129 0.27,9.231 0,3.109 -0.133,6.191 -0.27,9.254 H 160.199 L 39.0391,264.43"
         style="fill:#f9cc0c;fill-opacity:1;fill-rule:evenodd;stroke:none"
         id="path18" /><path
         d="m 160.199,169.258 h 159.512 c -0.438,7.566 -1.371,14.996 -2.813,22.238 H 157.859 L 50.0938,276.055 c -3.8594,-3.657 -7.5313,-7.571 -11.0352,-11.641 L 160.199,169.258"
         style="fill:#100f0d;fill-opacity:1;fill-rule:evenodd;stroke:none"
         id="path20" /><path
         d="m 27.8086,249.754 v 0 l -0.0078,-0.004 c -0.2149,-0.312 -0.4531,-0.613 -0.6641,-0.926 C 15.6367,231.734 7.37109,212.34 3.1875,191.496 H 3.14453 c -0.03906,-0.305 -0.08984,-0.617 -0.17578,-0.937 -0.09766,-0.477 -0.18359,-0.965 -0.27344,-1.446 -0.18359,-1.109 -0.40234,-2.226 -0.58203,-3.336 -0.26953,-1.722 -0.53515,-3.48 -0.76562,-5.246 0,-0.234 -0.04297,-0.457 -0.08985,-0.695 C 0.453125,173.34 0,166.723 0,160.016 c 0,-6.715 0.453125,-13.332 1.25781,-19.832 0.04688,-0.25 0.08985,-0.5 0.08985,-0.743 0.23047,-1.742 0.49609,-3.464 0.76562,-5.195 0.17969,-1.117 0.39844,-2.242 0.58203,-3.367 0.08985,-0.473 0.17578,-0.941 0.27344,-1.414 0.03906,-0.313 0.13672,-0.629 0.17578,-0.945 H 3.1875 c 4.18359,-20.844 12.4492,-40.2505 23.9492,-57.3208 0.418,-0.625 0.8789,-1.2187 1.3047,-1.8359 L 142.953,159.309 27.8086,249.754"
         style="fill:#100f0d;fill-opacity:1;fill-rule:evenodd;stroke:none"
         id="path22" /><path
         d="m 171.969,150.773 v -0.011 H 161.91 l 0.047,-0.047 L 39.8164,54.7578 C 43.0938,51 46.5039,47.3672 50.0938,43.9727 l 77.8942,61.7033 29.871,22.844 h 159.039 c 1.442,7.25 2.379,14.687 2.813,22.253 H 171.969"
         style="fill:#100f0d;fill-opacity:1;fill-rule:evenodd;stroke:none"
         id="path24" /><path
         d="m 43.957,132.793 c 0,0 0,-10.121 0,-15.961 13.8868,0 41.1407,10.641 41.1407,44.902 0,34.258 -29.0704,40.618 -37.7657,40.618 -8.6953,0 -35.5547,-6.231 -35.5547,-34.258 0,-28.031 26.3438,-30.629 31.5313,-30.629 5.1914,0 24.6562,4.672 22.4531,25.695 0,-5.969 -6.75,-18.558 -20.8945,-18.558 -14.1445,0 -22.9688,10.511 -22.9688,20.894 0,10.383 8.5625,24.266 23.4883,24.266 14.9219,0 25.8242,-13.235 25.8242,-26.602 0,-13.367 -10.5117,-30.367 -27.2539,-30.367"
         style="fill:#f9cc0c;fill-opacity:1;fill-rule:nonzero;stroke:none"
         id="path26" /><path
         d="m 31.793,153.574 0.8281,-0.535 c 0,0 6.5703,14.988 24.2344,25.645 -2.2383,-1.215 -14.0625,-7.106 -25.0625,-25.11"
         style="fill:#f9cc0c;fill-opacity:1;fill-rule:nonzero;stroke:none"
         id="path28" /><path
         d="m 32.3242,153.695 0.1328,-0.09 c 0.1875,0.379 0.5039,1.004 0.9649,1.829 -0.3828,-0.594 -0.75,-1.172 -1.0977,-1.739 z m 0.4688,-1.23 -1.5313,0.988 0.1992,0.324 c 4.8633,7.961 13.1368,18.778 24.9336,25.102 l 0.2735,0.148 0.3867,-0.675 C 39.6992,167.879 33.043,153.031 32.9766,152.883 l -0.1836,-0.418"
         style="fill:#f9cc0c;fill-opacity:1;fill-rule:nonzero;stroke:none"
         id="path30" /><path
         d="m 33.4961,156.152 c 0,0 -2.043,4.188 -0.2422,6.036 1.8008,1.847 0.9727,-4.915 0.9727,-4.915 l 0.7773,1.118 c 0,0 -1.2148,5.109 0.1484,6.179 1.3594,1.071 0.6797,-4.914 0.6797,-4.914 l 0.8282,1.071 c 0,0 -0.875,4.964 0.4375,5.89 1.3125,0.922 0.4882,-4.672 0.4882,-4.672 l 0.9727,1.118 c 0,0 -0.7305,4.718 0.875,5.839 1.6055,1.121 0.1953,-4.476 0.1953,-4.476 l 1.0703,1.168 c 0,0 -0.4883,4.332 0.875,5.304 1.3633,0.973 0.1953,-4.089 0.1953,-4.089 l 0.9727,1.023 c 0,0 -0.293,4.039 1.0234,4.965 1.3125,0.922 0.0977,-3.848 0.0977,-3.848 l 1.0195,0.977 c 0,0 -0.2422,4.039 1.4102,4.816 1.6562,0.778 -0.2891,-3.797 -0.2891,-3.797 l 1.1172,0.977 c 0,0 0.3398,4.719 1.7539,5.156 1.4102,0.438 -0.6328,-4.183 -0.6328,-4.183 l 1.0195,0.824 c 0,0 0.5352,4.043 2.0938,4.527 1.5586,0.488 -0.9727,-3.699 -0.9727,-3.699 l 1.0235,0.777 c 0,0 1.1171,4.039 2.5781,4.481 1.4609,0.437 -1.5078,-3.797 -1.5078,-3.797 l 0.9726,0.68 c 0,0 1.6055,3.652 2.918,3.894 1.3164,0.242 -1.4609,-3.016 -1.4609,-3.016 l 1.2187,0.731 c 0,0 2.0938,3.793 2.8242,2.625 0.7266,-1.168 -2.9219,-2.871 -2.9219,-2.871 l -1.2148,-0.68 c 0,0 4.4258,2.094 4.9609,1.02 0.5352,-1.071 -6.082,-1.75 -6.082,-1.75 l -1.0703,-0.731 c 0,0 4.4297,1.219 3.8945,0.098 -0.5351,-1.121 -4.9179,-0.875 -4.9179,-0.875 l -1.0196,-0.731 c 0,0 4.4258,1.071 3.8438,0.047 -0.586,-1.019 -4.9141,-0.922 -4.9141,-0.922 l -1.0703,-0.879 c 0,0 4.3281,1.122 3.6953,-0.195 -0.6328,-1.312 -5.5469,-1.262 -5.5469,-1.262 l -1.2148,-1.121 c 0,0 4.5742,1.559 4.1836,0.34 -0.3906,-1.215 -5.5977,-1.847 -5.5977,-1.847 l -1.164,-1.168 c 0,0 4.914,1.652 3.4531,0.144 -1.4609,-1.508 -5.0117,-1.898 -5.0117,-1.898 l -1.4102,-1.703 c 0,0 4.8633,2.921 4.1836,1.265 -0.6797,-1.652 -5.4492,-2.773 -5.4492,-2.773 l -0.9727,-1.168 c 0,0 4.3789,2.531 3.9414,1.121 -0.4375,-1.414 -5.1132,-2.922 -5.1132,-2.922 l -0.7774,-1.07 c 0,0 5.1602,3.066 4.7227,1.507 -0.4414,-1.554 -5.3555,-2.675 -5.3555,-2.675 l -0.6328,-0.973 c 0,0 4.7695,2.727 4.8203,1.41 0.0469,-1.312 -5.5976,-2.629 -5.5976,-2.629 l -0.0977,1.121"
         style="fill:#f9cc0c;fill-opacity:1;fill-rule:nonzero;stroke:none"
         id="path32" /><path
         d="m 59.8281,153.574 -0.8242,-0.535 c 0,0 -6.5703,14.988 -24.2383,25.645 2.2422,-1.215 14.0664,-7.106 25.0625,-25.11"
         style="fill:#f9cc0c;fill-opacity:1;fill-rule:nonzero;stroke:none"
         id="path34" /><path
         d="m 58.1992,155.434 c 0.4649,-0.825 0.7813,-1.45 0.9649,-1.829 l 0.1367,0.09 c -0.3516,0.567 -0.7149,1.145 -1.1016,1.739 z m 0.6289,-2.969 -0.1836,0.418 c -0.0625,0.148 -6.7304,15.004 -24.0781,25.469 l 0.3867,0.675 0.2735,-0.148 c 11.7968,-6.324 20.0703,-17.141 24.9336,-25.102 l 0.1992,-0.324 -1.5313,-0.988"
         style="fill:#f9cc0c;fill-opacity:1;fill-rule:nonzero;stroke:none"
         id="path36" /><path
         d="m 58.125,156.152 c 0,0 2.0469,4.188 0.2461,6.036 -1.8008,1.847 -0.9766,-4.915 -0.9766,-4.915 l -0.7773,1.118 c 0,0 1.2187,5.109 -0.1445,6.179 -1.3633,1.071 -0.6836,-4.914 -0.6836,-4.914 l -0.8243,1.071 c 0,0 0.875,4.964 -0.4414,5.89 -1.3125,0.922 -0.4843,-4.672 -0.4843,-4.672 l -0.9727,1.118 c 0,0 0.7266,4.718 -0.8789,5.839 -1.6055,1.121 -0.1914,-4.476 -0.1914,-4.476 l -1.0703,1.168 c 0,0 0.4844,4.332 -0.8789,5.304 -1.3633,0.973 -0.1953,-4.089 -0.1953,-4.089 l -0.9727,1.023 c 0,0 0.293,4.039 -1.0195,4.965 -1.3164,0.922 -0.0977,-3.848 -0.0977,-3.848 l -1.0234,0.977 c 0,0 0.2422,4.039 -1.4102,4.816 -1.6562,0.778 0.293,-3.797 0.293,-3.797 L 44.5,171.922 c 0,0 -0.3398,4.719 -1.75,5.156 -1.4141,0.438 0.6289,-4.183 0.6289,-4.183 l -1.0195,0.824 c 0,0 -0.5352,4.043 -2.0938,4.527 -1.5547,0.488 0.9727,-3.699 0.9727,-3.699 l -1.0195,0.777 c 0,0 -1.1211,4.039 -2.5782,4.481 -1.4609,0.437 1.5078,-3.797 1.5078,-3.797 l -0.9726,0.68 c 0,0 -1.6094,3.652 -2.9219,3.894 -1.3125,0.242 1.4609,-3.016 1.4609,-3.016 l -1.2187,0.731 c 0,0 -2.0898,3.793 -2.8203,2.625 -0.7305,-1.168 2.918,-2.871 2.918,-2.871 l 1.2187,-0.68 c 0,0 -4.4297,2.094 -4.9648,1.02 -0.5352,-1.071 6.082,-1.75 6.082,-1.75 L 39,175.91 c 0,0 -4.4258,1.219 -3.8906,0.098 0.5351,-1.121 4.914,-0.875 4.914,-0.875 l 1.0235,-0.731 c 0,0 -4.4297,1.071 -3.8477,0.047 0.586,-1.019 4.918,-0.922 4.918,-0.922 l 1.0703,-0.879 c 0,0 -4.332,1.122 -3.6992,-0.195 0.6328,-1.312 5.5469,-1.262 5.5469,-1.262 l 1.2187,-1.121 c 0,0 -4.5742,1.559 -4.1875,0.34 0.3906,-1.215 5.5977,-1.847 5.5977,-1.847 l 1.1679,-1.168 c 0,0 -4.914,1.652 -3.457,0.144 1.4609,-1.508 5.0117,-1.898 5.0117,-1.898 l 1.4141,-1.703 c 0,0 -4.8672,2.921 -4.1875,1.265 0.6836,-1.652 5.4531,-2.773 5.4531,-2.773 l 0.9727,-1.168 c 0,0 -4.3789,2.531 -3.9414,1.121 0.4375,-1.414 5.1093,-2.922 5.1093,-2.922 l 0.7774,-1.07 c 0,0 -5.1563,3.066 -4.7188,1.507 0.4375,-1.554 5.3516,-2.675 5.3516,-2.675 L 57.25,156.25 c 0,0 -4.7695,2.727 -4.8164,1.41 -0.0508,-1.312 5.5937,-2.629 5.5937,-2.629 l 0.0977,1.121"
         style="fill:#f9cc0c;fill-opacity:1;fill-rule:nonzero;stroke:none"
         id="path38" /></g></g></svg>
