<?xml version="1.0" encoding="UTF-8" standalone="no"?>
<svg
   xmlns:dc="http://purl.org/dc/elements/1.1/"
   xmlns:cc="http://creativecommons.org/ns#"
   xmlns:rdf="http://www.w3.org/1999/02/22-rdf-syntax-ns#"
   xmlns:svg="http://www.w3.org/2000/svg"
   xmlns="http://www.w3.org/2000/svg"
   version="1.1"
   id="svg2"
   xml:space="preserve"
   width="42.666668"
   height="42.666668"
   viewBox="0 0 42.666668 42.666668"><metadata
     id="metadata8"><rdf:RDF><cc:Work
         rdf:about=""><dc:format>image/svg+xml</dc:format><dc:type
           rdf:resource="http://purl.org/dc/dcmitype/StillImage" /></cc:Work></rdf:RDF></metadata><defs
     id="defs6" /><g
     id="g10"
     transform="matrix(1.3333333,0,0,-1.3333333,0,42.666667)"><g
       id="g12"
       transform="scale(0.1)"><path
         d="M 162.125,319.801 V 196.102 H 4.20703 C 1.48438,184.438 0,172.309 0,159.836 0,71.707 71.8594,-0.167969 159.98,-0.167969 248.145,-0.167969 320,71.707 320,159.836 c 0,87.426 -70.695,158.805 -157.875,159.965"
         style="fill:#ec1e37;fill-opacity:1;fill-rule:evenodd;stroke:none"
         id="path14" /><path
         d="m 103.043,287.641 c -0.254,-0.118 -0.523,-0.235 -0.777,-0.36 0.254,0.125 0.523,0.242 0.777,0.36"
         style="fill:#bababa;fill-opacity:1;fill-rule:evenodd;stroke:none"
         id="path16" /><path
         d="M 56.3555,281.59 C 31.6367,260.516 13.3906,232.09 5.03516,199.742 v -3.531 H 56.3555 v 85.379"
         style="fill:#2b368b;fill-opacity:1;fill-rule:nonzero;stroke:none"
         id="path18" /><path
         d="M 56.3555,281.59 V 196.211 H 107.676 V 311.047 C 88.707,304.445 71.3633,294.379 56.3555,281.59"
         style="fill:#ffffff;fill-opacity:1;fill-rule:nonzero;stroke:none"
         id="path20" /><path
         d="M 107.676,311.047 V 196.211 h 51.32 v 123.644 c -17.937,-0.109 -35.191,-3.214 -51.32,-8.808"
         style="fill:#ec1e37;fill-opacity:1;fill-rule:nonzero;stroke:none"
         id="path22" /><path
         d="m 206.676,208.547 c 24.351,0 48.715,0 73.066,0 -12.179,-12.18 -24.312,-24.379 -36.531,-36.492 -12.223,12.113 -24.414,24.312 -36.535,36.492"
         style="fill:#ffffff;fill-opacity:1;fill-rule:nonzero;stroke:none"
         id="path24" /><path
         d="m 194.441,196.102 c 12.364,-11.754 24.227,-24.067 36.356,-36.071 -0.078,-0.195 -0.266,-0.582 -0.356,-0.758 -12.043,-11.839 -23.726,-24.066 -36,-35.683 0,24.176 0,48.332 0,72.512"
         style="fill:#ffffff;fill-opacity:1;fill-rule:nonzero;stroke:none"
         id="path26" /><path
         d="m 255.918,160.414 c 12.051,11.82 23.773,24.066 35.996,35.664 0.039,-24.156 0.039,-48.312 0,-72.488 -12.359,11.726 -24.172,24.062 -36.305,36.047 0.09,0.199 0.219,0.574 0.309,0.777"
         style="fill:#ffffff;fill-opacity:1;fill-rule:nonzero;stroke:none"
         id="path28" /><path
         d="m 206.676,111.145 c 12.121,12.175 24.312,24.355 36.535,36.468 12.219,-12.113 24.352,-24.293 36.48,-36.468 -24.3,0 -48.664,0 -73.015,0"
         style="fill:#ffffff;fill-opacity:1;fill-rule:nonzero;stroke:none"
         id="path30" /><path
         d="m 159.98,319.855 c -0.324,0 -0.64,-0.023 -0.964,-0.023 V 199.211 H 4.92578 C 4.66406,198.18 4.44922,197.137 4.20703,196.102 h 154.80897 1.992 1.117 v 123.699 c -0.715,0.008 -1.426,0.054 -2.145,0.054"
         style="fill:#ffffff;fill-opacity:1;fill-rule:nonzero;stroke:none"
         id="path32" /></g></g></svg>
