<?xml version="1.0" encoding="UTF-8" standalone="no"?>
<svg
   xmlns:dc="http://purl.org/dc/elements/1.1/"
   xmlns:cc="http://creativecommons.org/ns#"
   xmlns:rdf="http://www.w3.org/1999/02/22-rdf-syntax-ns#"
   xmlns:svg="http://www.w3.org/2000/svg"
   xmlns="http://www.w3.org/2000/svg"
   version="1.1"
   id="svg2"
   xml:space="preserve"
   width="42.666668"
   height="42.666668"
   viewBox="0 0 42.666668 42.666668"><metadata
     id="metadata8"><rdf:RDF><cc:Work
         rdf:about=""><dc:format>image/svg+xml</dc:format><dc:type
           rdf:resource="http://purl.org/dc/dcmitype/StillImage" /></cc:Work></rdf:RDF></metadata><defs
     id="defs6" /><g
     id="g10"
     transform="matrix(1.3333333,0,0,-1.3333333,0,42.666667)"><g
       id="g12"
       transform="scale(0.1)"><path
         d="M 0,160.012 V 160 H 159.996 V 320.012 C 71.8438,320.012 0,248.145 0,160.012"
         style="fill:#273679;fill-opacity:1;fill-rule:nonzero;stroke:none"
         id="path14" /><path
         d="m 85.7617,272.766 c 0.9961,2.902 1.8789,5.882 2.9258,8.793 1.0547,-2.911 1.9375,-5.891 2.9961,-8.793 3.1406,0 6.2461,0 9.3904,0 -2.4842,-1.887 -5.1365,-3.625 -7.6287,-5.563 1,-2.926 1.9375,-5.832 2.8789,-8.789 -2.5469,1.77 -5.0351,3.649 -7.6367,5.449 -2.5469,-1.8 -5.0312,-3.679 -7.6211,-5.449 0.9336,2.93 1.8711,5.863 2.8633,8.789 -2.4844,1.938 -5.082,3.676 -7.6211,5.563 3.1523,0 6.3008,0 9.4531,0"
         style="fill:#ffffff;fill-opacity:1;fill-rule:nonzero;stroke:none"
         id="path16" /><path
         d="m 120.867,250.121 c 0.949,2.707 1.781,5.469 2.766,8.18 0.941,-2.711 1.777,-5.473 2.715,-8.18 2.98,-0.062 5.906,0 8.902,-0.062 -2.375,-1.715 -4.812,-3.391 -7.187,-5.114 0.824,-2.757 1.878,-5.465 2.71,-8.257 -2.382,1.652 -4.757,3.39 -7.14,5.058 -2.438,-1.629 -4.75,-3.406 -7.188,-5.058 0.832,2.753 1.887,5.5 2.707,8.257 -2.375,1.746 -4.8,3.399 -7.132,5.114 2.937,0.062 5.871,0 8.847,0.062"
         style="fill:#ffffff;fill-opacity:1;fill-rule:nonzero;stroke:none"
         id="path18" /><path
         d="m 54.5742,253.684 c 0.9922,-2.926 1.9375,-5.914 2.9297,-8.84 3.1524,-0.039 6.2461,0.023 9.3984,-0.039 -2.4882,-1.871 -5.0898,-3.61 -7.5742,-5.473 0.9375,-2.953 1.9336,-5.883 2.8789,-8.844 -2.5507,1.774 -5.0898,3.629 -7.6328,5.422 -2.5937,-1.746 -5.082,-3.648 -7.6289,-5.422 0.8828,2.961 1.9297,5.891 2.8789,8.821 -2.5469,1.886 -5.1484,3.648 -7.6367,5.496 3.1563,0.062 6.3008,0 9.3984,0.039 1.0547,2.926 2,5.914 2.9883,8.84"
         style="fill:#ffffff;fill-opacity:1;fill-rule:nonzero;stroke:none"
         id="path20" /><path
         d="m 103.891,224.047 c 0.668,1.851 1.226,3.738 1.886,5.562 0.61,-1.855 1.219,-3.711 1.825,-5.535 1.992,-0.027 3.925,0 5.918,-0.027 -1.606,-1.188 -3.211,-2.293 -4.758,-3.484 0.554,-1.879 1.211,-3.727 1.769,-5.614 -1.605,1.141 -3.148,2.328 -4.754,3.453 -1.609,-1.125 -3.152,-2.312 -4.757,-3.398 0.558,1.855 1.218,3.68 1.769,5.531 -1.547,1.219 -3.207,2.324 -4.7577,3.512 1.9414,0.027 3.9257,0 5.8597,0"
         style="fill:#ffffff;fill-opacity:1;fill-rule:nonzero;stroke:none"
         id="path22" /><path
         d="m 88.4727,208.066 c 0.1054,-0.023 0.332,-0.023 0.4414,-0.054 1.2148,-3.485 2.2656,-7.024 3.4218,-10.539 3.9336,-0.024 7.9061,0.039 11.8321,-0.024 -3.148,-2.344 -6.3516,-4.586 -9.5078,-6.937 1.1601,-3.766 2.4336,-7.465 3.5976,-11.223 -3.207,2.266 -6.3594,4.641 -9.5703,6.91 -3.2031,-2.269 -6.3008,-4.644 -9.5625,-6.91 1.2188,3.758 2.4297,7.457 3.6484,11.223 -3.1484,2.351 -6.4101,4.593 -9.5078,6.937 3.9219,0.063 7.8477,0 11.7813,0.024 1.1562,3.515 2.2656,7.086 3.4258,10.593"
         style="fill:#ffffff;fill-opacity:1;fill-rule:nonzero;stroke:none"
         id="path24" /><path
         d="M 159.996,320.012 V 160 H 0 C 0.0078125,71.8711 71.8477,-0.0117188 159.996,-0.0117188 248.109,-0.0117188 320,71.875 320,160.012 c 0,88.133 -71.891,160 -160.004,160"
         style="fill:#d01e27;fill-opacity:1;fill-rule:evenodd;stroke:none"
         id="path26" /></g></g></svg>
