<?xml version="1.0" encoding="UTF-8" standalone="no"?>
<svg
   xmlns:dc="http://purl.org/dc/elements/1.1/"
   xmlns:cc="http://creativecommons.org/ns#"
   xmlns:rdf="http://www.w3.org/1999/02/22-rdf-syntax-ns#"
   xmlns:svg="http://www.w3.org/2000/svg"
   xmlns="http://www.w3.org/2000/svg"
   version="1.1"
   id="svg2"
   xml:space="preserve"
   width="42.666668"
   height="42.666668"
   viewBox="0 0 42.666668 42.666668"><metadata
     id="metadata8"><rdf:RDF><cc:Work
         rdf:about=""><dc:format>image/svg+xml</dc:format><dc:type
           rdf:resource="http://purl.org/dc/dcmitype/StillImage" /></cc:Work></rdf:RDF></metadata><defs
     id="defs6" /><g
     id="g10"
     transform="matrix(1.3333333,0,0,-1.3333333,0,42.666667)"><g
       id="g12"
       transform="scale(0.1)"><path
         d="M 159.988,-0.0234375 C 248.121,-0.0234375 320,71.8633 320,160.012 320,248.129 248.121,320.023 159.988,320.023 71.8633,320.023 0,248.129 0,160.012 0,71.8633 71.8633,-0.0234375 159.988,-0.0234375"
         style="fill:#3047a3;fill-opacity:1;fill-rule:evenodd;stroke:none"
         id="path14" /><path
         d="m 131.969,256.242 c 1.488,4.043 2.695,8.223 4.226,12.297 1.582,-4.074 2.754,-8.297 4.278,-12.336 4.484,-0.066 8.918,0.09 13.406,-0.066 -3.426,-2.864 -7.277,-5.059 -10.824,-7.824 1.328,-4.071 2.851,-8.055 4.062,-12.196 -3.793,2.285 -7.23,5.028 -10.922,7.508 -3.64,-2.52 -7.175,-5.223 -10.922,-7.598 1.258,4.176 2.739,8.215 4.11,12.356 -3.539,2.625 -7.391,4.851 -10.754,7.754 4.422,0.156 8.914,0 13.34,0.105"
         style="fill:#ffffff;fill-opacity:1;fill-rule:evenodd;stroke:none"
         id="path16" /><path
         d="m 179.32,268.488 c 1.688,-4.023 2.735,-8.289 4.332,-12.285 4.496,0 8.977,0.039 13.414,-0.066 -3.437,-2.813 -7.3,-5.059 -10.832,-7.824 1.266,-4.11 2.907,-8.11 4.075,-12.286 -3.704,2.422 -7.278,5.078 -10.879,7.598 -3.703,-2.434 -7.184,-5.223 -10.989,-7.559 1.286,4.137 2.747,8.176 4.075,12.247 -3.438,2.765 -7.395,4.878 -10.676,7.824 4.445,0.156 8.875,-0.071 13.324,0.105 1.418,4.043 2.738,8.184 4.156,12.246"
         style="fill:#ffffff;fill-opacity:1;fill-rule:evenodd;stroke:none"
         id="path18" /><path
         d="m 96.9766,260.242 c 1.7382,-3.91 2.7929,-8.129 4.2814,-12.172 4.426,-0.187 8.863,0.039 13.34,-0.117 -3.364,-2.808 -7.118,-5.012 -10.657,-7.613 1.168,-4.149 2.911,-8.18 3.969,-12.34 -3.332,2.051 -6.394,4.473 -9.6639,6.656 l -1.8555,0.426 c -3.4804,-2.383 -6.8047,-4.922 -10.3398,-7.23 1.2656,4.171 2.793,8.265 4.168,12.406 -3.5352,2.644 -7.3477,4.93 -10.7696,7.625 4.4375,0.226 8.8672,0.07 13.3516,0.113 1.4375,4.067 2.6914,8.207 4.1758,12.246"
         style="fill:#ffffff;fill-opacity:1;fill-rule:evenodd;stroke:none"
         id="path20" /><path
         d="m 214.844,247.953 c 1.597,4.07 2.691,8.34 4.289,12.402 1.613,-4.062 2.738,-8.292 4.308,-12.359 4.45,-0.043 8.879,0.113 13.301,-0.113 -3.476,-2.695 -7.23,-4.981 -10.758,-7.586 1.371,-4.18 2.856,-8.274 4.118,-12.445 -3.692,2.464 -7.286,5.164 -10.969,7.628 -3.664,-2.464 -7.145,-5.164 -10.875,-7.539 1.097,4.219 2.738,8.25 4.066,12.356 -3.597,2.605 -7.347,4.891 -10.836,7.586 4.43,0.226 8.883,0.113 13.356,0.07"
         style="fill:#ffffff;fill-opacity:1;fill-rule:evenodd;stroke:none"
         id="path22" /><path
         d="m 55.9609,236.23 c 1.5352,4.11 2.6993,8.329 4.2813,12.415 1.5312,-4.086 2.7422,-8.305 4.2695,-12.415 4.4883,0 8.9141,0.063 13.418,0 -3.4844,-2.675 -7.1875,-5.171 -10.8789,-7.667 1.2148,-4.149 2.9531,-8.106 4.0664,-12.34 -3.8086,2.277 -7.1914,5.07 -10.9336,7.441 -3.6367,-2.371 -7.1328,-5.164 -10.8672,-7.441 1.0508,4.16 3.0078,8.191 3.9024,12.34 -3.4883,2.656 -7.293,4.925 -10.7188,7.667 4.4883,0.063 8.9805,0 13.4609,0"
         style="fill:#ffffff;fill-opacity:1;fill-rule:evenodd;stroke:none"
         id="path24" /><path
         d="m 255.488,236.23 c 1.59,3.911 2.485,8.329 4.289,11.926 1.801,-3.527 2.696,-8.074 4.266,-11.926 4.496,0 8.969,0.063 13.457,0 -3.484,-2.742 -7.234,-5.011 -10.715,-7.667 0.938,-4.149 2.856,-8.18 3.91,-12.34 -3.75,2.277 -7.234,5.07 -10.875,7.441 -3.746,-2.371 -7.168,-5.164 -10.925,-7.441 1.109,4.234 2.859,8.191 4.074,12.34 -3.711,2.496 -7.395,4.992 -10.875,7.667 4.476,0.063 8.918,0 13.394,0"
         style="fill:#ffffff;fill-opacity:1;fill-rule:evenodd;stroke:none"
         id="path26" /><path
         d="m 154.613,216.789 c 1,0.969 2.285,1.801 3.75,1.602 3.586,-2.118 6.598,-5.606 6.914,-9.864 -1.64,-0.586 -3.211,-1.257 -4.695,-2.105 6.289,0.387 10.246,-7.512 16.781,-4.731 0.95,-1.3 3.239,-2.668 3.707,-0.242 0.785,2.539 2.899,0.067 3.575,-1.222 0.699,-1.629 3.39,-0.688 3.554,-2.579 0.516,-3.324 1.055,-6.687 2.535,-9.707 0.985,0.836 1.996,2.317 3.528,1.891 1.328,-1.098 2.379,-2.644 2.965,-4.273 0.16,-2.149 -0.973,-4.493 0,-6.563 0.828,-1.25 1.843,-2.351 2.937,-3.367 2.746,-0.219 7.242,0.476 7.078,-3.582 2.43,-0.102 4.813,0 7.235,0.031 1.168,-2.937 -1.434,-5.211 -2.489,-7.676 0.742,-2.23 1.008,-4.656 0.067,-6.871 3.644,0.305 6.965,-0.906 10.289,-2.207 2.269,0.449 4.586,1.098 6.961,0.789 0.16,-1.441 0.121,-2.863 0,-4.343 1.847,-0.2 4.07,-0.422 4.812,-2.473 2.43,1.644 5.488,1.308 8.172,2.316 2.277,-0.742 3.215,-3.211 4.231,-5.164 0.316,-4.109 -4.848,-6.808 -3.325,-11.144 -1.011,-1.489 -2.273,-2.785 -3.531,-4.071 -2.109,-1.73 -1.75,-4.804 -3.078,-7.004 -0.981,-1.289 -2.469,-2.031 -3.836,-2.808 2.109,-3.102 -0.23,-6.184 -1.172,-9.242 -1.207,0 -2.379,0.05 -3.527,0.172 l -1.055,-1.422 c -1.367,0.09 -2.973,1.054 -4.223,0.152 -0.539,-1.684 0.582,-3.324 0.938,-4.918 3.953,-0.898 4.742,-5.594 7.867,-7.7031 -3.277,-1.8007 -6.965,0 -10.445,-0.7461 -0.317,2.3832 -2.656,3.0862 -4.692,3.2342 -1.492,-1.4373 -1.8,-3.324 -1.378,-5.2342 -1.477,-0.1562 -2.801,0.5196 -3.911,1.4141 -2.152,-0.4062 -2.492,-2.6719 -3.164,-4.418 l -1.843,-0.6757 c -0.54,-2.4961 -2.965,-4.1797 -3.278,-6.6524 0.692,-1.6015 2.375,-2.8125 1.957,-4.7578 -3.172,-2.2227 -7.394,-1.6484 -10.832,-0.3672 -1.957,1.1016 -0.246,4.0664 -1.844,5.4883 -1.253,1.207 -2.578,2.4219 -3.375,4.0117 -1.476,0.6328 -2.804,1.8906 -4.378,2.2774 -3.75,-3.1641 -7.774,-6.6133 -12.829,-7.3047 -4.336,0.2226 -5.339,-6.6836 -10.043,-5.0117 -1.773,-1.0547 -4,-0.9415 -5.91,-1.6719 -3.363,-3.7656 -5.062,-10.5235 -0.355,-14.0117 l -1.43,-2.5196 c 0.949,-3.9726 -3.277,-6.914 -6.285,-8.6679 -1.637,-1.2969 -3.434,-0.3125 -4.852,0.7421 -0.949,-1.4062 -2.804,-2.7812 -4.543,-1.7968 -2.793,1.957 -2.793,5.6601 -3.64,8.6758 1.793,1.3671 5.008,2.4726 4.539,5.207 -1.109,2.3359 -1.742,4.8555 -2.328,7.3515 -0.473,2.1954 -2.688,3.3633 -3.692,5.2852 -1.214,2.2578 1.481,4.4648 0.211,6.7305 -1.312,2.8515 -2.371,5.8633 -3.265,8.9218 -2.696,3.0704 -4.442,7.8162 -9.25,7.9802 -2.153,1.946 -4.637,3.391 -7.172,4.844 -2.805,-0.828 -5.641,0.113 -8.496,0.07 -0.797,3.375 0.785,8.129 -3.43,9.664 0.105,1.254 1.789,2.739 0.57,3.793 -2.2653,1.883 -2.105,5.122 -3.695,7.438 -2.6797,2.973 -7.4883,3.211 -9.3867,7.023 1.2148,1.629 1.8398,3.536 0.7851,5.442 -1.1523,2.273 0.586,4.07 1.8555,5.761 -0.6406,1.473 -2.5781,1.883 -4.0703,2.149 -2.4219,0.273 -4.3242,1.855 -6.332,3.055 -3.0118,1.914 1.5195,4.652 0.582,7.355 2.3281,1.008 4.4805,2.43 6.8711,3.258 3.6328,0.648 6.3281,-2.629 9.8125,-2.957 1.3711,0.121 2.6878,0.328 4.0708,0.441 0.472,2.782 2.367,5.078 4.425,6.801 1.95,1.645 4.532,0.047 6.707,0.902 3.11,1.102 6.43,2.856 9.715,1.375 1.684,2.11 5.27,0.782 6.5,3.313 1.203,2.07 -1.496,3.176 -2.492,4.641 -1.422,2.683 0.848,6.714 3.949,6.875 4.488,-0.43 2.063,7.91 7.125,5.902 l 0.43,-2.223 c 3.855,1.395 3.691,5.442 3.949,8.828 0.965,0.477 1.961,1.059 2.91,1.594 -0.261,2.363 -2.218,3.953 -4.586,3.258 -0.531,1.996 -1.164,4.066 -2.531,5.707 0.356,1.531 0.844,3.051 1.313,4.543 2.117,0.516 4.437,0.785 6.281,2.105 2.476,1.778 5.914,1.778 8.23,3.887"
         style="fill:#cca23b;fill-opacity:1;fill-rule:evenodd;stroke:none"
         id="path28" /></g></g></svg>
