<?xml version="1.0" encoding="UTF-8" standalone="no"?>
<svg
   xmlns:dc="http://purl.org/dc/elements/1.1/"
   xmlns:cc="http://creativecommons.org/ns#"
   xmlns:rdf="http://www.w3.org/1999/02/22-rdf-syntax-ns#"
   xmlns:svg="http://www.w3.org/2000/svg"
   xmlns="http://www.w3.org/2000/svg"
   version="1.1"
   id="svg2"
   xml:space="preserve"
   width="42.666668"
   height="42.666668"
   viewBox="0 0 42.666668 42.666668"><metadata
     id="metadata8"><rdf:RDF><cc:Work
         rdf:about=""><dc:format>image/svg+xml</dc:format><dc:type
           rdf:resource="http://purl.org/dc/dcmitype/StillImage" /></cc:Work></rdf:RDF></metadata><defs
     id="defs6" /><g
     id="g10"
     transform="matrix(1.3333333,0,0,-1.3333333,0,42.666667)"><g
       id="g12"
       transform="scale(0.1)"><path
         d="M 9.46094,214.305 H 310.523 c 6.129,-16.992 9.477,-35.278 9.477,-54.352 0,-19.094 -3.348,-37.387 -9.477,-54.371 H 9.46094 C 3.32422,122.566 0,140.859 0,159.953 c 0,19.074 3.32422,37.36 9.46094,54.352"
         style="fill:#ffffff;fill-opacity:1;fill-rule:evenodd;stroke:none"
         id="path14" /><path
         d="M 310.523,214.305 H 9.48047 c 22.24223,61.601 81.24223,105.66 150.50753,105.66 69.285,0 128.289,-44.059 150.535,-105.66"
         style="fill:#d01e27;fill-opacity:1;fill-rule:evenodd;stroke:none"
         id="path16" /><path
         d="M 9.48047,105.582 H 310.523 C 288.277,43.9766 229.273,-0.0585938 159.988,-0.0585938 90.7227,-0.0585938 31.7227,43.9766 9.48047,105.582"
         style="fill:#131210;fill-opacity:1;fill-rule:evenodd;stroke:none"
         id="path18" /></g></g></svg>
