<?xml version="1.0" encoding="UTF-8" standalone="no"?>
<svg
   xmlns:dc="http://purl.org/dc/elements/1.1/"
   xmlns:cc="http://creativecommons.org/ns#"
   xmlns:rdf="http://www.w3.org/1999/02/22-rdf-syntax-ns#"
   xmlns:svg="http://www.w3.org/2000/svg"
   xmlns="http://www.w3.org/2000/svg"
   version="1.1"
   id="svg2"
   xml:space="preserve"
   width="42.666668"
   height="42.666668"
   viewBox="0 0 42.666668 42.666668"><metadata
     id="metadata8"><rdf:RDF><cc:Work
         rdf:about=""><dc:format>image/svg+xml</dc:format><dc:type
           rdf:resource="http://purl.org/dc/dcmitype/StillImage" /></cc:Work></rdf:RDF></metadata><defs
     id="defs6" /><g
     id="g10"
     transform="matrix(1.3333333,0,0,-1.3333333,0,42.666667)"><g
       id="g12"
       transform="scale(0.1)"><path
         d="m 102.254,289.367 c -0.266,-0.117 -0.527,-0.238 -0.785,-0.359 0.258,0.121 0.519,0.242 0.785,0.359"
         style="fill:#b9babb;fill-opacity:1;fill-rule:evenodd;stroke:none"
         id="path14" /><path
         d="m 102.254,289.359 c -0.266,-0.109 -0.527,-0.23 -0.785,-0.351 0.258,0.121 0.519,0.242 0.785,0.351"
         style="fill:#b9babb;fill-opacity:1;fill-rule:evenodd;stroke:none"
         id="path16" /><path
         d="M 177.445,185.813 C 133.949,214.848 90.3945,243.781 46.9063,272.855 34.9297,260.859 24.8398,247.02 17.1211,231.785 52.7617,208.012 88.4258,184.238 124.066,160.523 c 0.27,-0.175 0.493,-0.464 0.672,-0.73 C 88.8438,135.891 52.9453,111.984 17.0781,88.0352 24.75,72.8047 34.8203,58.9297 46.7695,46.9648 90.4531,76.0469 134.133,105.207 177.777,134.277 c 0.481,0.364 1.039,0.364 1.598,0.364 46.215,0 92.406,0 138.625,0 1.309,8.214 2,16.625 2,25.199 0,8.633 -0.691,17.125 -2.02,25.394 -46.199,0 -92.406,0 -138.605,0 -0.715,-0.05 -1.367,0.129 -1.93,0.579"
         style="fill:#24784b;fill-opacity:1;fill-rule:nonzero;stroke:none"
         id="path18" /><path
         d="m 314.313,202.121 c -43.333,0 -86.657,0 -129.997,0 -0.652,-0.047 -1.265,0.223 -1.746,0.547 -40.898,27.312 -81.836,54.512 -122.6755,81.824 -4.539,-3.637 -8.9023,-7.547 -12.9882,-11.637 43.4882,-29.074 87.0427,-58.007 130.5387,-87.042 0.563,-0.45 1.215,-0.629 1.93,-0.579 46.199,0 92.406,0 138.605,0 -0.921,5.75 -2.16,11.368 -3.667,16.887"
         style="fill:#ffffff;fill-opacity:1;fill-rule:nonzero;stroke:none"
         id="path20" /><path
         d="m 17.0781,88.0352 c 35.8672,23.9488 71.7657,47.8558 107.6599,71.7578 -0.179,0.266 -0.402,0.555 -0.672,0.73 -35.6402,23.715 -71.3043,47.489 -106.9449,71.262 -2.5703,-5.078 -4.8594,-10.328 -6.9063,-15.68 27.2227,-18.156 54.3985,-36.269 81.5665,-54.375 0.8632,-0.578 1.8593,-1.07 2.5312,-1.89 -28.0391,-18.684 -56.0937,-37.383 -84.1484,-56.117 2.0273,-5.3519 4.3164,-10.6058 6.914,-15.6878"
         style="fill:#f9ad10;fill-opacity:1;fill-rule:nonzero;stroke:none"
         id="path22" /><path
         d="M 91.7813,161.73 C 64.6133,179.836 37.4375,197.949 10.2148,216.105 3.61719,198.582 0,179.613 0,159.84 c 0,-19.715 3.58594,-38.649 10.1641,-56.117 28.0547,18.734 56.1093,37.433 84.1484,56.117 -0.6719,0.82 -1.668,1.312 -2.5312,1.89"
         style="fill:#100f0d;fill-opacity:1;fill-rule:nonzero;stroke:none"
         id="path24" /><path
         d="m 318,134.641 c -46.219,0 -92.41,0 -138.625,0 -0.559,0 -1.117,0 -1.598,-0.364 -43.644,-29.07 -87.3239,-58.2301 -131.0075,-87.3122 4.0899,-4.121 8.4258,-7.9921 12.9493,-11.6445 1.1679,0.7695 2.3515,1.4805 3.4648,2.3086 39.9104,26.5977 79.7964,53.2031 119.7464,79.7581 0.355,0.312 0.847,0.351 1.347,0.351 43.364,0 86.723,0 130.071,0 1.511,5.535 2.726,11.153 3.652,16.903"
         style="fill:#ffffff;fill-opacity:1;fill-rule:nonzero;stroke:none"
         id="path26" /><path
         d="m 182.57,202.668 c 0.481,-0.324 1.094,-0.594 1.746,-0.547 43.34,0 86.664,0 129.997,0 0.355,-1.34 0.714,-2.73 1.054,-4.082 -17.203,69.785 -80.406,121.813 -155.383,121.813 -37.812,0 -72.6559,-13.25 -100.0895,-35.36 C 100.734,257.18 141.672,229.98 182.57,202.668"
         style="fill:#df2a2d;fill-opacity:1;fill-rule:evenodd;stroke:none"
         id="path28" /><path
         d="m 184.277,117.738 c -0.5,0 -0.992,-0.039 -1.347,-0.351 C 142.98,90.832 103.094,64.2266 63.1836,37.6289 c -1.1133,-0.8281 -2.2969,-1.5391 -3.4648,-2.3086 -1.125,0.9063 -2.25,1.8516 -3.3321,2.7539 27.9492,-23.8281 64.1213,-38.238263 103.5973,-38.238263 73.555,0 135.793,50.101563 154.364,117.902063 -43.348,0 -86.707,0 -130.071,0"
         style="fill:#2b358a;fill-opacity:1;fill-rule:evenodd;stroke:none"
         id="path30" /></g></g></svg>
