<?xml version="1.0" encoding="UTF-8" standalone="no"?>
<svg
   xmlns:dc="http://purl.org/dc/elements/1.1/"
   xmlns:cc="http://creativecommons.org/ns#"
   xmlns:rdf="http://www.w3.org/1999/02/22-rdf-syntax-ns#"
   xmlns:svg="http://www.w3.org/2000/svg"
   xmlns="http://www.w3.org/2000/svg"
   version="1.1"
   id="svg2"
   xml:space="preserve"
   width="42.666668"
   height="42.666668"
   viewBox="0 0 42.666668 42.666668"><metadata
     id="metadata8"><rdf:RDF><cc:Work
         rdf:about=""><dc:format>image/svg+xml</dc:format><dc:type
           rdf:resource="http://purl.org/dc/dcmitype/StillImage" /></cc:Work></rdf:RDF></metadata><defs
     id="defs6"><radialGradient
       fx="0"
       fy="0"
       cx="0"
       cy="0"
       r="1"
       gradientUnits="userSpaceOnUse"
       gradientTransform="matrix(162.13,0,0,-162.13,160,95.952)"
       spreadMethod="pad"
       id="radialGradient18"><stop
         style="stop-opacity:1;stop-color:#4bb839"
         offset="0"
         id="stop14" /><stop
         style="stop-opacity:1;stop-color:#368939"
         offset="1"
         id="stop16" /></radialGradient></defs><g
     id="g10"
     transform="matrix(1.3333333,0,0,-1.3333333,0,42.666667)"><g
       id="g12"
       transform="scale(0.1)"><path
         d="M 159.984,-0.0546875 C 248.133,-0.0546875 320,71.8125 320,159.949 320,248.07 248.133,319.965 159.984,319.965 71.8477,319.965 0,248.07 0,159.949 0,71.8125 71.8477,-0.0546875 159.984,-0.0546875"
         style="fill:url(#radialGradient18);fill-opacity:1;fill-rule:evenodd;stroke:none"
         id="path20" /><path
         d="M 159.984,-0.0546875 C 248.133,-0.0546875 320,71.8125 320,159.949 320,248.07 248.133,319.965 159.984,319.965 71.8477,319.965 0,248.07 0,159.949 0,71.8125 71.8477,-0.0546875 159.984,-0.0546875"
         style="fill:#2d8c3b;fill-opacity:1;fill-rule:evenodd;stroke:none"
         id="path22" /><path
         d="m 319.98,157.941 c 0,1.372 0,2.747 0,4.149 -0.121,8.945 -0.976,17.723 -2.515,26.273 -14.969,0.039 -29.926,0.039 -44.891,-0.031 -0.019,-47.297 -0.019,-94.6172 0,-141.9023 28.828,28.5781 46.867,67.9843 47.406,111.5113"
         style="fill:#ee6d17;fill-opacity:1;fill-rule:nonzero;stroke:none"
         id="path24" /><path
         d="m 225.145,188.332 c -0.04,-58.164 -0.02,-116.3398 0,-174.4843 17.722,7.9296 33.765,19.0273 47.41,32.5586 0,47.289 0,94.6097 -0.024,141.9257 -15.793,0.07 -31.593,0.07 -47.386,0"
         style="fill:#100f0d;fill-opacity:1;fill-rule:nonzero;stroke:none"
         id="path26" /><path
         d="m 177.688,188.332 c -0.04,-62.484 0,-124.9492 0,-187.402312 16.691,1.832032 32.628,6.269532 47.398,12.898412 0.039,58.1641 0.039,116.3399 0,174.5039 -15.805,0.07 -31.606,0.07 -47.398,0"
         style="fill:#df2125;fill-opacity:1;fill-rule:nonzero;stroke:none"
         id="path28" /><path
         d="m 278.887,229.379 c 0,0 13.504,5.289 14.808,6.383 0.598,-0.657 -5.41,-7.313 -17.066,-9.766 10.586,2.289 19.625,9.492 21.469,9.274 0.535,-0.11 0.418,-7.04 -23.848,-13.04 16.77,4.04 26.523,11.458 26.406,10.641 0.117,-0.164 -1.668,-5.84 -16.355,-10.258 4.101,0.875 15.222,7.094 15.105,5.891 0.356,-0.488 -10.765,-13.582 -30.867,-9.328 16.059,-3.817 26.465,5.402 27.953,5.238 0.297,-0.055 -2.972,-8.074 -23.195,-8.562 9.695,0.925 6.898,0.05 6.898,0.05 0,0 -5.707,-4.089 -12.605,-1.308 5.41,-1.364 6.004,-1.418 6.125,-1.856 -0.36,-0.543 -4.82,-1.359 -9.102,0.766 3.45,-1.309 6.543,-1.527 6.602,-2.02 -0.059,-0.164 -2.258,-1.308 -4.223,-0.488 -1.961,0.817 -20.043,11.02 -20.043,11.02 l 30.809,7.746 1.129,-0.383"
         style="fill:#ee6d17;fill-opacity:1;fill-rule:nonzero;stroke:none"
         id="path30" /><path
         d="m 247.422,221.949 c 2.633,-1.48 17.867,-10.051 19.641,-10.793 0.441,-0.183 0.933,-0.277 1.457,-0.277 1.113,0 2.121,0.43 2.453,0.633 -0.25,0.14 -1.016,0.316 -1.758,0.488 l -0.102,0.023 c -1.625,0.176 -3.164,0.622 -4.578,1.325 -0.086,0.039 -0.121,0.14 -0.082,0.226 0.035,0.086 0.137,0.129 0.223,0.094 1.738,-0.656 3.398,-1.043 4.5,-1.297 0.469,-0.051 0.945,-0.074 1.41,-0.074 1.637,0 2.637,0.305 2.91,0.48 -0.144,0.168 -0.656,0.325 -2.324,0.743 -1.238,0.128 -2.469,0.433 -3.649,0.91 -0.085,0.035 -0.132,0.133 -0.101,0.218 0.027,0.09 0.121,0.141 0.211,0.118 1.004,-0.254 1.844,-0.461 2.547,-0.637 0.394,-0.098 0.742,-0.184 1.054,-0.262 0.43,-0.043 0.868,-0.066 1.301,-0.066 4.367,0 7.528,2.222 7.559,2.246 0.015,0.012 0.031,0.019 0.051,0.027 0.003,0 0.007,0 0.007,0 -0.132,0.016 -0.336,0.028 -0.636,0.028 h -0.032 c -1.929,-0.235 -4.007,-0.375 -6.183,-0.43 -0.098,0 -0.172,0.07 -0.18,0.168 -0.004,0.094 0.067,0.176 0.16,0.187 2.922,0.278 5,0.422 6.184,0.426 7.316,0.875 11.484,2.891 13.691,4.43 2.145,1.492 2.938,2.855 3.129,3.328 -0.375,-0.102 -1.07,-0.484 -1.918,-0.949 -1.019,-0.559 -2.289,-1.254 -3.859,-1.973 -1.973,-0.945 -4.067,-1.691 -6.219,-2.211 -2.629,-0.668 -5.316,-1.004 -7.988,-1.004 -2.578,0 -5.199,0.313 -7.801,0.93 -0.094,0.023 -0.152,0.117 -0.133,0.211 0.02,0.094 0.113,0.156 0.207,0.137 2.653,-0.563 5.289,-0.848 7.84,-0.848 h 0.004 c 2.66,0 5.281,0.309 7.785,0.918 2.067,0.523 4.082,1.238 6.16,2.187 5.825,2.793 8.742,6.391 8.871,6.856 0,0.004 0,0.008 -0.004,0.015 -0.007,0 -0.019,0 -0.039,0 -0.613,0 -2.769,-0.964 -4.746,-1.871 -2.109,-1.218 -4.644,-2.339 -7.535,-3.339 -1.082,-0.418 -1.926,-0.692 -2.574,-0.829 -0.094,-0.019 -0.184,0.036 -0.207,0.129 -0.024,0.09 0.031,0.184 0.121,0.211 0.871,0.266 1.73,0.539 2.547,0.824 1.883,0.727 4.219,1.809 6.281,2.762 0.41,0.188 0.817,0.375 1.207,0.555 4.887,2.82 5.965,5.211 6.16,5.789 -0.312,-0.129 -0.996,-0.508 -1.769,-0.938 -1.711,-0.953 -4.574,-2.546 -8.367,-4.242 -3.301,-1.633 -7.512,-3.164 -12.508,-4.551 -1.16,-0.328 -2.34,-0.636 -3.512,-0.921 -0.094,-0.02 -0.187,0.035 -0.211,0.132 -0.023,0.094 0.035,0.188 0.129,0.211 v 0 0 0 c 1.203,0.297 2.379,0.606 3.5,0.918 4.231,1.2 8.422,2.723 12.457,4.532 6.516,3.218 7.637,5.918 7.824,6.668 0.082,0.328 0.059,0.511 0.035,0.578 -0.003,0 -0.007,0 -0.011,0 -0.684,0 -2.383,-0.953 -4.535,-2.157 -2.278,-1.277 -5.11,-2.863 -8.364,-4.293 -2.621,-1.246 -5.465,-2.195 -8.449,-2.824 -0.094,-0.019 -0.187,0.039 -0.211,0.137 -0.019,0.094 0.043,0.187 0.137,0.207 2.656,0.574 5.398,1.492 8.383,2.801 5.32,2.527 8.14,5.527 8.543,6.453 -2.332,-1.41 -14.039,-6.004 -14.563,-6.207 -0.039,-0.016 -0.082,-0.016 -0.121,-0.004 l -1.082,0.363 z m 21.098,-11.422 c -0.571,0 -1.11,0.102 -1.594,0.305 -1.949,0.813 -19.324,10.609 -20.063,11.027 -0.062,0.036 -0.097,0.106 -0.09,0.18 0.012,0.07 0.063,0.129 0.133,0.145 l 30.809,7.746 c 0.031,0.008 0.066,0.008 0.101,-0.004 l 1.067,-0.36 c 0.98,0.387 13.472,5.305 14.703,6.329 0.07,0.062 0.18,0.054 0.242,-0.016 0.055,-0.059 0.11,-0.172 0.074,-0.359 -0.144,-0.731 -1.648,-2.469 -4.336,-4.321 1.368,0.723 2.622,1.422 3.739,2.047 2.48,1.395 4.09,2.285 4.812,2.199 0.098,-0.019 0.235,-0.09 0.274,-0.375 0.113,-0.89 -0.746,-2.91 -4.223,-5.308 1.836,0.929 3.301,1.742 4.336,2.32 1.375,0.762 1.859,1.027 2.09,1.027 0.097,0 0.156,-0.043 0.187,-0.078 0.02,-0.023 0.051,-0.07 0.051,-0.14 0.012,-0.051 0.004,-0.11 -0.008,-0.164 -0.008,-0.024 -0.496,-2.114 -4.304,-4.801 1.355,0.586 2.25,0.91 2.671,0.91 0.145,0 0.25,-0.039 0.321,-0.113 0.031,-0.039 0.07,-0.098 0.074,-0.188 0.008,-0.043 0.008,-0.094 -0.008,-0.144 -0.121,-0.485 -1.562,-2.246 -4.176,-4.176 0.524,0.265 0.879,0.398 1.11,0.375 0.09,-0.016 0.179,-0.086 0.176,-0.227 -0.028,-0.793 -3.168,-6.265 -15.981,-8.101 0.02,-0.032 0.031,-0.067 0.039,-0.106 0.016,-0.105 -0.016,-0.265 -0.473,-0.414 -0.296,-0.203 -3.316,-2.203 -7.457,-2.289 0.801,-0.234 0.989,-0.383 1.067,-0.668 0.015,-0.047 0.008,-0.097 -0.024,-0.14 -0.242,-0.372 -1.543,-0.668 -3.019,-0.7 0.351,-0.125 0.527,-0.254 0.551,-0.437 0.004,-0.028 0,-0.055 -0.008,-0.082 -0.094,-0.254 -1.449,-0.899 -2.863,-0.899"
         style="fill:#100f0d;fill-opacity:1;fill-rule:nonzero;stroke:none"
         id="path32" /><path
         d="m 242.672,201.785 c -2.711,0 -2.785,-2.211 -2.785,-2.211 0,0 -0.223,-0.16 -0.074,-1.23 0.445,0.726 0.671,0.957 0.671,0.957 0.297,-0.047 1.539,-0.387 3.504,1.023 -1.789,-1.707 -0.722,-2.347 -0.722,-2.347 0,0 -0.422,-1.344 0.945,-1.618 -0.422,0.547 -0.176,1.028 -0.176,1.028 0,0 1.914,0.179 1.793,2.324 0.074,-1.938 1.219,-2.418 1.219,-2.418 0,0 0,-1.07 1.238,-1.16 -0.668,0.547 -0.519,1.39 -0.519,1.39 0,0 1.617,1.071 0.25,2.895 0.82,0.434 1.488,1.641 1.488,1.641 0,0 -1.117,0.433 -1.641,0.796 -0.246,0.481 -0.023,3.102 -0.023,3.102 l -0.672,3.398 -1.914,-5.289 c 0.074,0.75 0.125,-2.281 -2.582,-2.281"
         style="fill:#ee6d17;fill-opacity:1;fill-rule:nonzero;stroke:none"
         id="path34" /><path
         d="m 245.828,199.887 c 0.094,0 0.168,-0.074 0.176,-0.168 0,-0.028 0.004,-0.055 0.004,-0.082 0.094,-1.739 1.094,-2.176 1.105,-2.18 0.067,-0.027 0.11,-0.094 0.11,-0.164 0,-0.027 0.011,-0.609 0.582,-0.867 -0.313,0.535 -0.219,1.097 -0.211,1.129 0.008,0.047 0.035,0.09 0.074,0.113 0.004,0.004 0.582,0.398 0.699,1.082 0.082,0.488 -0.086,1.016 -0.496,1.563 -0.031,0.039 -0.043,0.093 -0.031,0.144 0.012,0.051 0.047,0.094 0.09,0.117 0.586,0.309 1.105,1.059 1.316,1.399 -0.348,0.14 -1.078,0.457 -1.48,0.738 -0.028,0.016 -0.043,0.039 -0.059,0.062 -0.254,0.493 -0.086,2.676 -0.047,3.172 l -0.543,2.75 -1.668,-4.617 c -0.035,-0.262 -0.386,-2.469 -2.777,-2.469 -2.5,0 -2.606,-1.957 -2.609,-2.043 0,-0.046 -0.02,-0.089 -0.055,-0.121 -0.012,-0.019 -0.082,-0.152 -0.067,-0.574 0.27,0.402 0.407,0.543 0.414,0.555 0.043,0.039 0.098,0.058 0.157,0.051 0.019,-0.004 0.043,-0.008 0.07,-0.016 0.113,-0.02 0.305,-0.055 0.559,-0.055 0.839,0 1.765,0.36 2.742,1.063 0.078,0.054 0.18,0.043 0.238,-0.031 0.063,-0.071 0.055,-0.176 -0.012,-0.239 -0.871,-0.832 -1.011,-1.363 -0.976,-1.664 0.031,-0.281 0.222,-0.402 0.222,-0.402 0.071,-0.043 0.106,-0.129 0.079,-0.207 0,-0.004 -0.161,-0.539 0.082,-0.942 0.074,-0.129 0.183,-0.234 0.328,-0.312 -0.141,0.441 0.027,0.777 0.039,0.797 0.023,0.051 0.078,0.086 0.137,0.094 0.07,0.003 1.699,0.191 1.632,2.062 l -0.004,0.078 c -0.003,0.098 0.075,0.18 0.168,0.184 0.004,0 0.008,0 0.012,0 z m 2.457,-3.934 c -0.004,0 -0.008,0 -0.012,0 -1.136,0.086 -1.355,0.922 -1.394,1.231 -0.223,0.125 -0.746,0.504 -1.035,1.379 -0.387,-1.004 -1.348,-1.274 -1.676,-1.336 -0.039,-0.129 -0.07,-0.414 0.168,-0.739 0.031,-0.031 0.055,-0.078 0.055,-0.129 0,-0.097 -0.078,-0.175 -0.176,-0.175 h -0.004 c -0.012,0 -0.023,0 -0.035,0.004 -0.449,0.089 -0.778,0.296 -0.965,0.617 -0.242,0.41 -0.188,0.886 -0.145,1.105 -0.101,0.102 -0.253,0.289 -0.285,0.586 -0.039,0.324 0.074,0.688 0.332,1.086 -0.683,-0.352 -1.347,-0.527 -1.972,-0.527 -0.266,0 -0.461,0.031 -0.59,0.054 -0.09,-0.113 -0.289,-0.371 -0.59,-0.859 -0.039,-0.062 -0.113,-0.098 -0.184,-0.078 -0.074,0.012 -0.129,0.07 -0.14,0.144 -0.117,0.844 -0.016,1.188 0.078,1.329 0.039,0.378 0.375,2.316 2.957,2.316 1.918,0 2.332,1.617 2.41,2.062 -0.004,0.02 -0.004,0.04 -0.004,0.059 0.008,0.078 0.02,0.184 0.082,0.238 l 1.844,5.094 c 0.027,0.074 0.098,0.121 0.18,0.117 0.078,-0.008 0.144,-0.066 0.16,-0.144 l 0.668,-3.395 c 0.004,-0.015 0.004,-0.031 0.004,-0.051 -0.082,-0.961 -0.153,-2.574 -0.008,-2.968 0.512,-0.34 1.551,-0.746 1.562,-0.75 0.047,-0.02 0.082,-0.055 0.102,-0.106 0.016,-0.047 0.012,-0.097 -0.012,-0.144 -0.027,-0.047 -0.617,-1.102 -1.39,-1.61 0.386,-0.574 0.535,-1.136 0.445,-1.675 -0.121,-0.692 -0.602,-1.122 -0.781,-1.262 -0.02,-0.192 -0.02,-0.75 0.449,-1.145 0.051,-0.027 0.086,-0.086 0.086,-0.148 0,-0.098 -0.082,-0.18 -0.18,-0.18 h -0.004"
         style="fill:#100f0d;fill-opacity:1;fill-rule:nonzero;stroke:none"
         id="path36" /><path
         d="m 256.051,209.414 c 0.058,-0.055 2.019,-2.074 3.926,-1.965 0.711,0.543 -1.489,1.746 -1.489,2.02 0.774,-0.656 4.043,-3.219 6.125,-2.293 0.832,1.09 -1.484,0.929 -4.043,3.875 1.785,-1.094 6.246,-3.492 8.325,-2.567 0.894,0.875 -4.637,3.602 -6.481,5.731 l -4.758,2.234 -6.484,-4.855 4.879,-2.18"
         style="fill:#ee6d17;fill-opacity:1;fill-rule:nonzero;stroke:none"
         id="path38" /><path
         d="m 258.488,209.645 c 0.039,0 0.082,-0.016 0.114,-0.043 0.484,-0.411 2.996,-2.45 5.007,-2.45 0.329,0 0.625,0.059 0.891,0.168 0.086,0.121 0.121,0.215 0.105,0.293 -0.035,0.188 -0.41,0.407 -0.878,0.68 -0.805,0.469 -2.016,1.176 -3.289,2.641 -0.059,0.066 -0.059,0.164 -0.004,0.23 0.058,0.066 0.152,0.082 0.226,0.035 0.75,-0.457 4.617,-2.746 7.106,-2.746 0.398,0 0.742,0.063 1.027,0.18 0.02,0.027 0.027,0.055 0.023,0.09 -0.043,0.484 -1.492,1.492 -2.89,2.468 -1.321,0.918 -2.809,1.957 -3.621,2.879 l -4.629,2.176 -6.156,-4.613 4.601,-2.059 c 0.02,-0.008 0.035,-0.019 0.047,-0.031 l 0.023,-0.02 c 0.321,-0.32 2.012,-1.902 3.633,-1.902 v 0 c 0.028,0 0.055,0 0.082,0 0.032,0.035 0.035,0.067 0.035,0.09 0.004,0.281 -0.64,0.793 -1.023,1.102 -0.434,0.339 -0.605,0.488 -0.605,0.656 0,0.066 0.039,0.129 0.101,0.16 0.024,0.012 0.051,0.016 0.074,0.016 z m 5.121,-2.844 c -1.129,0 -2.382,0.586 -3.39,1.203 0.047,-0.102 0.078,-0.199 0.074,-0.297 0,-0.109 -0.039,-0.266 -0.211,-0.398 -0.027,-0.024 -0.062,-0.036 -0.098,-0.036 -0.05,-0.003 -0.105,-0.003 -0.16,-0.003 v 0 c -1.707,0 -3.39,1.519 -3.875,1.996 l -4.847,2.168 c -0.059,0.027 -0.098,0.078 -0.106,0.14 -0.004,0.063 0.02,0.125 0.07,0.16 l 6.485,4.856 c 0.051,0.039 0.121,0.047 0.179,0.019 l 4.758,-2.238 c 0.024,-0.008 0.043,-0.023 0.059,-0.043 0.777,-0.894 2.266,-1.93 3.578,-2.848 1.852,-1.289 2.992,-2.109 3.043,-2.726 0.012,-0.152 -0.039,-0.289 -0.148,-0.395 -0.016,-0.015 -0.032,-0.027 -0.051,-0.035 -0.332,-0.148 -0.739,-0.222 -1.203,-0.222 -1.942,0 -4.582,1.273 -6.184,2.156 0.902,-0.832 1.727,-1.313 2.32,-1.66 0.594,-0.344 0.981,-0.571 1.051,-0.918 0.039,-0.192 -0.023,-0.383 -0.199,-0.61 -0.016,-0.023 -0.039,-0.043 -0.066,-0.054 -0.321,-0.145 -0.684,-0.215 -1.079,-0.215"
         style="fill:#100f0d;fill-opacity:1;fill-rule:nonzero;stroke:none"
         id="path40" /><path
         d="m 248.734,225.996 c 0,0 2.2,1.199 11.004,0.602 0.95,-0.11 6.004,1.582 7.614,2.07 2.554,0.437 10.703,2.074 12.906,3.602 1.543,0.164 -0.418,-2.618 -2.379,-3.274 -2.082,-0.871 -9.637,-3.273 -12.313,-2.945 3.211,-0.055 1.426,-2.453 -3.925,-1.309 2.558,-1.308 1.605,-1.527 1.605,-1.527 0,0 -4.519,-0.219 -5.711,0.707 3.035,-1.035 1.785,-1.418 1.785,-1.418 0,0 -3.093,-0.274 -4.519,0.328 2.199,-0.602 1.07,-0.98 1.07,-0.98 0,0 -1.785,-0.274 -3.269,0.218 -1.489,0.489 -3.747,3.926 -3.868,3.926"
         style="fill:#ee6d17;fill-opacity:1;fill-rule:nonzero;stroke:none"
         id="path42" /><path
         d="m 249.035,225.93 c 0.067,-0.086 0.156,-0.203 0.274,-0.36 0.742,-0.965 2.277,-2.98 3.347,-3.336 0.571,-0.187 1.258,-0.281 2.035,-0.281 0.594,0 1.047,0.059 1.137,0.07 0.07,0.028 0.149,0.079 0.156,0.106 v 0 c 0,0 -0.05,0.137 -0.636,0.348 -0.235,0.054 -0.442,0.117 -0.618,0.191 -0.082,0.039 -0.125,0.133 -0.097,0.223 0.031,0.086 0.125,0.136 0.215,0.113 0.226,-0.063 0.425,-0.125 0.597,-0.188 0.582,-0.128 1.352,-0.195 2.285,-0.195 0.786,0 1.43,0.047 1.555,0.059 0.059,0.023 0.113,0.062 0.113,0.082 0,0 -0.007,0.187 -0.75,0.535 -0.562,0.125 -0.96,0.285 -1.218,0.488 -0.071,0.051 -0.09,0.145 -0.047,0.223 0.039,0.074 0.129,0.109 0.211,0.082 0.465,-0.156 0.855,-0.313 1.168,-0.453 1.023,-0.223 2.386,-0.27 3.351,-0.27 0.578,0 1.004,0.02 1.102,0.024 0.012,0.004 0.027,0.011 0.031,0.015 -0.004,0.008 -0.004,0.317 -1.687,1.18 -0.079,0.039 -0.114,0.133 -0.086,0.215 0.031,0.082 0.117,0.133 0.203,0.113 0.949,-0.203 1.84,-0.305 2.644,-0.305 1.832,0 2.653,0.532 2.668,0.801 0.008,0.156 -0.281,0.36 -0.941,0.434 -0.184,0.004 -0.352,0.011 -0.504,0.031 -0.094,0.012 -0.16,0.094 -0.152,0.188 0.004,0.093 0.082,0.164 0.175,0.164 0,0 0,0 0.004,0 0.176,-0.004 0.344,-0.012 0.496,-0.032 h 0.063 c 2.996,0 9.629,2.106 11.68,2.965 1.523,0.508 2.91,2.262 2.824,2.801 -0.008,0.047 -0.024,0.137 -0.254,0.137 -0.02,0 -0.039,0 -0.063,0 -2.257,-1.524 -10.265,-3.145 -12.925,-3.602 -0.282,-0.086 -0.661,-0.207 -1.106,-0.348 -2.18,-0.691 -5.469,-1.734 -6.445,-1.734 -0.047,0 -0.086,0.004 -0.121,0.008 -1.625,0.109 -3.145,0.164 -4.504,0.164 -3.902,0 -5.621,-0.461 -6.18,-0.656 z m 5.656,-4.332 c -0.816,0 -1.539,0.101 -2.144,0.304 -1.176,0.387 -2.758,2.461 -3.52,3.457 -0.16,0.211 -0.328,0.426 -0.379,0.485 -0.043,0.023 -0.074,0.062 -0.085,0.109 -0.02,0.078 0.015,0.16 0.085,0.199 0.063,0.032 1.508,0.789 6.567,0.789 1.371,0 2.894,-0.058 4.535,-0.168 0.031,-0.003 0.059,-0.003 0.09,-0.003 0.922,0 4.312,1.074 6.336,1.714 0.453,0.145 0.84,0.266 1.121,0.352 0.008,0.004 0.016,0.008 0.023,0.008 2.645,0.449 10.68,2.074 12.836,3.57 0.024,0.016 0.051,0.027 0.082,0.031 0.598,0.063 0.719,-0.285 0.742,-0.425 0.133,-0.813 -1.48,-2.668 -3.046,-3.192 -1.868,-0.781 -7.563,-2.601 -10.875,-2.933 0.257,-0.18 0.289,-0.387 0.281,-0.504 -0.031,-0.563 -1.078,-1.137 -3.02,-1.137 -0.523,0 -1.086,0.043 -1.672,0.129 0.864,-0.535 0.969,-0.828 0.946,-1.028 -0.024,-0.195 -0.207,-0.289 -0.309,-0.312 -0.012,-0.004 -0.019,-0.004 -0.031,-0.004 -0.004,0 -0.473,-0.023 -1.141,-0.023 -0.726,0 -1.683,0.027 -2.558,0.132 0.14,-0.14 0.207,-0.273 0.195,-0.41 -0.02,-0.285 -0.34,-0.39 -0.379,-0.402 -0.012,-0.004 -0.023,-0.008 -0.035,-0.008 -0.008,0 -0.719,-0.062 -1.606,-0.062 -0.539,0 -1.027,0.023 -1.457,0.066 0.043,-0.066 0.067,-0.137 0.067,-0.211 -0.004,-0.293 -0.371,-0.426 -0.41,-0.437 -0.012,-0.004 -0.024,-0.008 -0.032,-0.008 -0.019,-0.004 -0.515,-0.078 -1.207,-0.078"
         style="fill:#100f0d;fill-opacity:1;fill-rule:nonzero;stroke:none"
         id="path44" /><path
         d="m 252.266,208.281 0.32,-5.332 c 0,0 -0.172,-0.273 -0.32,-0.433 -0.153,-0.161 -4.129,0.57 -3.582,-2.211 0,-1.141 0.027,-1.438 0.871,-2.075 -0.223,0.75 -0.149,1.274 -0.149,1.274 0,0 1.117,-0.613 2.211,1.074 -0.746,-1.664 -0.222,-2.258 -0.051,-2.305 0.176,-0.296 -0.296,-1.64 1.196,-1.617 -0.571,0.5 -0.297,1.231 -0.297,1.231 0,0 1.562,0.226 1.015,2.828 0.575,0.523 0.797,0.019 0.797,0.019 0,0 0.172,-1.546 1.539,-1.23 0.625,-0.316 -0.097,-1.16 -0.097,-1.16 0,0 0.996,-0.024 1.293,0.75 0.297,0.777 0.644,2.168 -0.996,2.738 -0.2,0.547 0.648,0.59 0.648,0.59 0,0 1.043,-0.317 1.34,-0.797 0.301,-0.477 0.199,1.254 -1.094,1.438 -1.59,0.042 -1.687,0.339 -1.687,0.41 0,0.066 -0.274,3.875 -0.399,4.968 l -2.558,-0.16"
         style="fill:#ee6d17;fill-opacity:1;fill-rule:nonzero;stroke:none"
         id="path46" /><path
         d="m 251.617,200.754 c 0.028,0 0.059,-0.008 0.086,-0.024 0.078,-0.042 0.113,-0.14 0.074,-0.226 -0.472,-1.063 -0.394,-1.613 -0.304,-1.848 0.054,-0.144 0.125,-0.203 0.144,-0.215 0.047,-0.011 0.078,-0.039 0.102,-0.078 0.066,-0.113 0.07,-0.269 0.078,-0.468 0.008,-0.422 0.016,-0.891 0.566,-1.024 -0.273,0.508 -0.078,1.051 -0.066,1.078 0.023,0.059 0.078,0.102 0.141,0.114 0.015,0 0.398,0.066 0.683,0.48 0.32,0.465 0.383,1.203 0.188,2.133 -0.012,0.062 0.007,0.125 0.054,0.168 0.207,0.187 0.407,0.285 0.59,0.285 0.27,0 0.434,-0.203 0.485,-0.32 0.007,-0.016 0.011,-0.036 0.015,-0.051 0.004,-0.047 0.141,-1.117 1.012,-1.117 0.098,0 0.203,0.011 0.312,0.035 0.043,0.012 0.086,0.004 0.121,-0.016 0.184,-0.094 0.301,-0.238 0.336,-0.422 0.047,-0.23 -0.046,-0.48 -0.152,-0.675 0.273,0.066 0.621,0.218 0.766,0.597 0.273,0.719 0.312,1.278 0.113,1.707 -0.164,0.356 -0.5,0.621 -1,0.797 -0.051,0.016 -0.094,0.055 -0.109,0.106 -0.082,0.226 -0.024,0.39 0.039,0.488 0.199,0.305 0.707,0.34 0.761,0.344 0.024,0 0.043,-0.004 0.063,-0.008 0.094,-0.031 0.762,-0.242 1.187,-0.598 -0.035,0.109 -0.089,0.227 -0.172,0.348 -0.14,0.211 -0.398,0.476 -0.832,0.543 -1.246,0.035 -1.851,0.226 -1.851,0.586 -0.004,0.117 -0.25,3.531 -0.379,4.781 l -2.219,-0.137 0.317,-5.16 c 0,-0.035 -0.008,-0.074 -0.032,-0.105 -0.004,-0.012 -0.183,-0.289 -0.339,-0.457 -0.094,-0.098 -0.25,-0.086 -0.594,-0.082 -0.098,0.003 -0.211,0.003 -0.328,0.003 -0.785,0 -1.887,-0.07 -2.391,-0.683 -0.258,-0.313 -0.332,-0.746 -0.223,-1.297 0,-0.012 0,-0.02 0,-0.031 0,-0.883 0.02,-1.215 0.407,-1.602 -0.082,0.492 -0.036,0.809 -0.036,0.828 0.008,0.059 0.043,0.106 0.098,0.133 0.051,0.024 0.113,0.024 0.164,-0.004 0,0 0.168,-0.09 0.426,-0.09 0.383,0 0.961,0.192 1.551,1.102 0.035,0.051 0.09,0.082 0.148,0.082 z m 1.106,-4.274 c -1.25,0 -1.27,0.915 -1.282,1.407 0,0.086 -0.003,0.199 -0.015,0.258 -0.094,0.058 -0.184,0.168 -0.25,0.304 -0.117,0.242 -0.196,0.645 -0.043,1.278 -0.653,-0.575 -1.246,-0.543 -1.563,-0.465 0,-0.207 0.028,-0.543 0.145,-0.953 0.012,-0.024 0.019,-0.051 0.019,-0.079 0,-0.097 -0.078,-0.179 -0.175,-0.179 h -0.004 c -0.035,0 -0.075,0.012 -0.106,0.039 -0.894,0.676 -0.941,1.043 -0.941,2.195 -0.125,0.653 -0.024,1.18 0.301,1.57 0.597,0.731 1.804,0.817 2.664,0.817 0.121,0 0.234,-0.004 0.336,-0.004 0.078,-0.004 0.148,-0.004 0.207,-0.004 0.082,0 0.125,0 0.148,0.004 0.094,0.109 0.195,0.254 0.242,0.328 l -0.316,5.274 c -0.008,0.097 0.066,0.183 0.164,0.191 l 2.559,0.156 c 0.097,0.008 0.175,-0.062 0.187,-0.156 0.117,-1.047 0.379,-4.598 0.398,-4.961 0.04,-0.039 0.293,-0.227 1.52,-0.262 0.008,0 0.012,0 0.02,0 1.039,-0.148 1.41,-1.211 1.382,-1.609 -0.015,-0.25 -0.191,-0.262 -0.226,-0.262 -0.133,0 -0.211,0.125 -0.239,0.164 -0.207,0.336 -0.917,0.617 -1.21,0.715 -0.137,-0.016 -0.383,-0.07 -0.461,-0.183 -0.008,-0.012 -0.028,-0.043 -0.02,-0.098 0.547,-0.207 0.922,-0.527 1.117,-0.949 0.242,-0.524 0.207,-1.172 -0.105,-1.985 -0.324,-0.84 -1.332,-0.867 -1.449,-0.867 -0.067,0 -0.133,0.043 -0.164,0.106 -0.028,0.062 -0.024,0.136 0.023,0.187 0.094,0.109 0.352,0.481 0.305,0.715 -0.008,0.039 -0.028,0.094 -0.102,0.144 -0.113,-0.019 -0.219,-0.031 -0.324,-0.031 -0.93,0 -1.289,0.895 -1.36,1.399 -0.019,0.031 -0.07,0.093 -0.152,0.093 -0.074,0 -0.172,-0.047 -0.277,-0.129 0.195,-1.003 0.101,-1.781 -0.27,-2.316 -0.273,-0.391 -0.625,-0.539 -0.801,-0.594 -0.046,-0.183 -0.097,-0.625 0.274,-0.949 0.055,-0.051 0.074,-0.125 0.047,-0.195 -0.024,-0.067 -0.09,-0.114 -0.16,-0.114 h -0.043"
         style="fill:#100f0d;fill-opacity:1;fill-rule:nonzero;stroke:none"
         id="path48" /><path
         d="m 257.797,203.734 c 0.019,0.246 -2.715,3.621 -2.02,4.059 0.692,-0.133 1.828,-1.668 2.75,-1.168 -0.281,0.598 -1.101,0.262 -2.035,1.793 -0.933,1.73 -1.07,4.332 -4.344,7.168 2.118,-3 6.922,-4.762 7.125,-3.887 0.204,0.875 -4.226,4.184 -4,4.985 0.879,-1.641 5.332,-5.289 8.614,-4.989 0.222,0.703 -2.688,2.121 -3.438,3.446 -2.094,1.293 -7.703,5.726 -7.812,6.754 -2.043,2.73 -3.317,3.554 -3.91,3.867 -0.227,0.25 -0.286,0.484 -0.329,0.636 -1.269,2.739 0.411,3.629 1.391,3.758 0.809,0.082 1.043,-0.027 1.625,0.231 -0.687,0.25 -1.379,0.48 -2.066,0.726 0.898,-0.605 3.191,-0.074 2.695,-1.812 1.004,0.351 3.145,2.683 -2.426,3.211 -1.812,1.906 -9.262,3.004 -11.129,-5.321 0.149,-0.113 0.227,-0.211 0.703,-0.535 -2.355,1.047 -8.703,1.852 -10.988,2.192 -6.18,1.636 -12.598,5.574 -13.215,5.09 -0.824,-0.336 3.735,-4.223 3.496,-4.313 -3.953,2.117 -7.562,3.613 -10.921,4.977 -2.364,0.808 -4.731,2.695 -4.993,2.339 -0.871,-1.656 3.789,-5.808 4.657,-6.296 0.867,-0.469 7.683,-3.368 7.582,-3.407 -10.266,4.274 -11.989,5.051 -12.504,5.543 -0.907,0.188 -3.11,2.918 -3.723,2.742 -0.336,-0.304 0.336,-4.617 5.238,-6.554 0.797,-0.531 10.5,-3.727 10.407,-3.977 -0.024,-0.062 -11.114,4.199 -11.547,4.352 -2.137,0.769 -4.762,3.465 -5.25,3.16 -0.469,-0.274 1.207,-3.191 3.371,-4.106 1.129,-0.46 5.472,-2.433 9.387,-3.687 0.25,-0.086 -7.036,2.531 -10.536,3.875 -1.589,0.809 -2.336,1.816 -2.578,1.598 -0.359,-0.215 0.578,-4.528 11.832,-6.957 0.297,-0.118 3.961,0.796 3.782,0.675 -0.043,-0.031 -3.641,-0.75 -3.989,-0.722 -0.312,0.043 -2.281,-0.215 -2.316,-0.309 -0.121,-0.293 0.711,-1.836 6.523,-1.516 0.742,0.043 4.778,1.348 4.438,1.067 -0.172,-0.141 -5.492,-1.727 -5.899,-1.758 -0.347,-0.043 -2.218,-0.223 -2.289,-0.406 -0.082,-0.25 1.383,-1.348 4.504,-1.524 2.766,-0.132 8.016,1.551 7.91,1.442 -0.105,-0.11 -5.062,-1.668 -5.191,-1.762 -0.18,-0.094 -1.996,-0.184 -2.059,-0.312 -0.148,-0.317 2.618,-2.692 10.797,-0.161 -0.82,-1.015 -4.785,-1.711 -4.777,-1.894 -0.02,-0.137 0.871,-0.926 2.258,-1.207 0.691,-0.141 1.64,-0.113 2.507,0.012 1.559,0.285 3.2,0.851 5.286,2.617 0.246,-0.555 -5.211,-3.086 -4.953,-3.328 1.183,-1.008 5.113,0.129 5.371,0.261 0.257,0.133 7.57,3.914 7.543,4.352 0.113,-0.563 -9.426,-5.316 -9.321,-5.512 0.61,-0.894 3.871,0.047 4.024,0.129 0.156,0.082 4.16,2.067 4.269,2.125 0.11,0.059 -4.703,-2.582 -4.273,-2.984 -0.211,-1.719 7.515,1.183 8.125,1.543 0.301,0.183 -3.715,-1.617 -3.727,-2.473 1.293,-2.004 5.434,-1.367 6.074,-0.926 0.317,0.219 -0.378,-1.492 -0.152,-1.336 0.078,0.032 0.899,0.926 1.215,1.571 -0.102,-0.563 -0.555,-1.442 -0.82,-2.457 -0.262,-1.012 -0.34,-2.153 -0.703,-3.368 -0.083,-0.531 2.55,1.043 2.167,4.809 0.227,-1.957 -0.832,-5.621 -0.554,-5.812 0.554,-0.379 2.082,1.824 2.238,3.316 0.453,-0.754 1.406,-2.324 2.227,-2.688 -0.09,1.141 0.015,1.086 -0.352,2.207 0.211,1.489 0.242,3.543 0.293,5.868 2.231,-3.914 3.117,-5.571 2.496,-8.571 0.66,-0.254 1.719,2.094 1.637,3.301 0.848,-3.355 4.523,-3.855 4.582,-3.762"
         style="fill:#ee6d17;fill-opacity:1;fill-rule:nonzero;stroke:none"
         id="path50" /><path
         d="m 253.215,207.676 c 0.078,0 0.148,-0.055 0.168,-0.133 0.68,-2.676 3.234,-3.484 4.121,-3.621 -0.109,0.172 -0.27,0.406 -0.422,0.629 -0.934,1.371 -1.699,2.554 -1.582,3.117 0.023,0.121 0.086,0.215 0.184,0.273 0.035,0.024 0.082,0.032 0.125,0.024 0.293,-0.055 0.609,-0.293 0.976,-0.567 0.434,-0.328 0.926,-0.695 1.348,-0.695 0.039,0 0.078,0 0.113,0.008 -0.082,0.07 -0.195,0.125 -0.351,0.199 -0.407,0.188 -0.961,0.445 -1.555,1.414 -0.262,0.485 -0.457,1.028 -0.668,1.602 -0.41,1.113 -0.871,2.379 -1.938,3.75 -0.703,0.57 -1.285,1.179 -1.73,1.808 -0.051,0.075 -0.039,0.172 0.027,0.235 0.067,0.058 0.168,0.058 0.235,0 0.656,-0.571 1.238,-1.172 1.722,-1.793 1.836,-1.485 3.965,-2.274 4.801,-2.274 0.203,0 0.305,0.043 0.313,0.09 0.082,0.344 -1.122,1.528 -2,2.395 -1.329,1.301 -2.133,2.125 -2,2.593 0.019,0.071 0.078,0.122 0.152,0.129 0.07,0.008 0.141,-0.031 0.172,-0.093 0.883,-1.637 4.988,-4.911 8.066,-4.911 0.071,0 0.145,0.004 0.211,0.008 -0.117,0.293 -0.828,0.84 -1.367,1.254 -0.766,0.582 -1.625,1.242 -2.016,1.899 -1.89,1.175 -7.562,5.547 -7.851,6.804 -1.453,1.938 -2.739,3.211 -3.824,3.785 -0.016,0.012 -0.032,0.024 -0.047,0.04 -0.243,0.261 -0.317,0.519 -0.36,0.671 l -0.008,0.02 c -0.542,1.18 -0.613,2.148 -0.21,2.883 0.488,0.883 1.46,1.074 1.746,1.113 0.277,0.027 0.48,0.035 0.664,0.039 0.16,0.008 0.289,0.012 0.418,0.031 -0.172,0.059 -0.348,0.121 -0.52,0.18 l -0.238,0.082 c -0.262,0.055 -0.594,0.137 -0.84,0.301 -0.074,0.051 -0.098,0.148 -0.059,0.226 0.039,0.082 0.133,0.118 0.215,0.086 0.258,-0.089 0.52,-0.179 0.778,-0.269 0.129,-0.028 0.265,-0.051 0.402,-0.07 0.625,-0.106 1.273,-0.211 1.559,-0.665 0.117,-0.183 0.164,-0.402 0.136,-0.66 0.442,0.274 0.891,0.793 0.832,1.266 -0.05,0.426 -0.574,1.18 -3.511,1.457 -0.043,0.004 -0.082,0.023 -0.114,0.055 -0.59,0.625 -2.047,1.297 -3.84,1.297 -1.652,0 -5.617,-0.629 -6.96,-6.426 0.007,-0.012 0.019,-0.02 0.031,-0.028 0.101,-0.089 0.23,-0.199 0.57,-0.433 0.074,-0.051 0.102,-0.153 0.055,-0.231 -0.043,-0.082 -0.141,-0.113 -0.227,-0.074 -2.047,0.91 -7.187,1.641 -9.953,2.035 -0.379,0.055 -0.711,0.102 -0.988,0.141 -0.004,0 -0.012,0.004 -0.02,0.004 -3.461,0.918 -6.976,2.543 -9.543,3.73 -1.683,0.782 -3.015,1.399 -3.461,1.399 -0.043,0 -0.058,-0.008 -0.058,-0.008 -0.012,-0.008 -0.02,-0.012 -0.031,-0.02 -0.032,-0.386 1.738,-2.129 2.496,-2.879 1.05,-1.035 1.14,-1.144 1.105,-1.3 -0.012,-0.059 -0.062,-0.118 -0.117,-0.137 -0.047,-0.016 -0.102,-0.012 -0.145,0.012 -3.879,2.074 -7.375,3.531 -10.906,4.965 -1.211,0.414 -2.398,1.097 -3.355,1.648 -0.629,0.359 -1.223,0.699 -1.442,0.719 -0.644,-1.508 3.723,-5.504 4.614,-6.008 0.433,-0.234 2.468,-1.125 4.265,-1.91 2.16,-0.949 2.953,-1.293 3.242,-1.461 0.02,-0.008 0.039,-0.016 0.059,-0.024 l -0.008,-0.007 c 0.117,-0.075 0.117,-0.11 0.117,-0.161 -0.004,-0.07 -0.05,-0.136 -0.121,-0.16 -0.039,-0.015 -0.086,-0.015 -0.125,0 -9.922,4.133 -11.929,5.016 -12.523,5.547 -0.485,0.133 -1.188,0.781 -1.93,1.469 -0.574,0.531 -1.285,1.183 -1.594,1.258 -0.031,-0.184 0,-0.7 0.258,-1.426 0.352,-0.992 1.539,-3.449 4.93,-4.789 0.012,-0.004 0.023,-0.008 0.035,-0.016 0.062,-0.043 0.25,-0.14 0.77,-0.347 l 1.21,-0.461 c 0.942,-0.348 2.125,-0.77 3.27,-1.18 4.508,-1.606 5.133,-1.867 5.219,-2.051 0.019,-0.043 0.019,-0.105 0.004,-0.148 -0.028,-0.067 -0.094,-0.114 -0.168,-0.114 -0.094,0 -0.754,0.227 -8.45,3.161 -0.503,0.187 -0.902,0.339 -1.214,0.464 -0.957,0.364 -1.825,0.696 -1.938,0.735 -1.148,0.414 -2.422,1.363 -3.441,2.121 -0.692,0.516 -1.407,1.047 -1.653,1.055 -0.007,-0.043 0,-0.164 0.082,-0.387 0.375,-1.008 1.715,-2.75 3.258,-3.406 0.231,-0.09 0.598,-0.25 1.063,-0.45 0.949,-0.406 2.379,-1.019 3.953,-1.648 1.332,-0.484 2.539,-0.922 3.347,-1.215 l 0.754,-0.273 c 0.098,-0.035 0.172,-0.063 0.231,-0.086 0.008,-0.004 0.019,-0.008 0.027,-0.008 v -0.004 c 0.133,-0.059 0.145,-0.098 0.129,-0.199 -0.016,-0.082 -0.09,-0.145 -0.176,-0.145 -0.019,0 -0.043,0.004 -0.062,0.012 -1.278,0.41 -2.75,0.945 -4.379,1.59 -2.754,1.008 -4.828,1.777 -6.164,2.289 -0.008,0 -0.012,0.004 -0.02,0.008 -0.824,0.418 -1.414,0.879 -1.843,1.218 -0.204,0.157 -0.426,0.336 -0.536,0.379 -0.007,-0.097 0.02,-0.351 0.231,-0.757 0.598,-1.145 2.91,-4.012 11.523,-5.872 0.008,-0.003 0.02,-0.003 0.028,-0.007 0,0 0.007,0.004 0.023,0 0.031,0 0.07,0.004 0.113,0.007 0.266,0.04 0.653,0.106 1.145,0.196 0.394,0.082 0.828,0.176 1.215,0.258 0.797,0.171 1.109,0.238 1.211,0.238 0.105,0 0.164,-0.067 0.183,-0.129 0.024,-0.074 -0.011,-0.164 -0.078,-0.207 -0.101,-0.066 -2.445,-0.504 -2.469,-0.508 -0.558,-0.113 -0.945,-0.176 -1.171,-0.199 -0.278,-0.043 -0.379,-0.047 -0.426,-0.047 -0.008,0 -0.024,0 -0.031,0 -0.032,0.004 -0.059,0.008 -0.09,0.008 -0.446,0 -1.68,-0.168 -2.035,-0.254 0.015,-0.047 0.05,-0.113 0.121,-0.191 0.289,-0.325 1.316,-1.075 4.718,-1.075 0.469,0 0.973,0.016 1.496,0.047 0.34,0.016 1.489,0.34 2.5,0.621 1.067,0.301 1.731,0.485 1.926,0.485 0.145,0 0.192,-0.09 0.203,-0.129 0.012,-0.032 0.039,-0.133 -0.074,-0.227 -0.258,-0.215 -5.687,-1.773 -5.992,-1.797 -0.047,-0.004 -0.137,-0.015 -0.254,-0.027 -0.98,-0.113 -1.594,-0.207 -1.828,-0.277 0.273,-0.313 1.633,-1.121 4.293,-1.274 0.101,-0.004 0.211,-0.008 0.32,-0.008 2.121,0 5.426,0.895 6.832,1.274 0.563,0.152 0.676,0.179 0.742,0.179 0.071,0 0.141,-0.042 0.168,-0.109 0.028,-0.062 0.012,-0.144 -0.039,-0.195 -0.062,-0.067 -0.218,-0.133 -2.988,-1.039 -0.988,-0.324 -2.109,-0.692 -2.234,-0.75 -0.004,0 -0.008,-0.004 -0.012,-0.004 -0.102,-0.055 -0.344,-0.082 -0.961,-0.145 -0.305,-0.031 -0.734,-0.074 -0.949,-0.117 0.277,-0.316 1.5,-1.031 4,-1.031 1.863,0 4.054,0.387 6.515,1.148 0.075,0.024 0.157,-0.008 0.2,-0.07 0.043,-0.066 0.039,-0.152 -0.008,-0.211 -0.594,-0.73 -2.559,-1.266 -3.863,-1.621 -0.305,-0.082 -0.622,-0.172 -0.797,-0.231 0.246,-0.234 0.965,-0.75 2.035,-0.968 0.297,-0.059 0.648,-0.09 1.055,-0.09 0.433,0 0.917,0.035 1.394,0.105 1.422,0.262 3.043,0.754 5.191,2.578 0.043,0.036 0.102,0.047 0.157,0.036 0.05,-0.012 0.097,-0.047 0.121,-0.098 0.179,-0.402 -0.582,-0.906 -3.121,-2.328 -0.664,-0.371 -1.473,-0.82 -1.75,-1.031 0.297,-0.184 0.769,-0.278 1.402,-0.278 1.566,0 3.504,0.582 3.645,0.653 2.457,1.261 7.132,3.781 7.453,4.23 0.015,0.074 0.074,0.129 0.148,0.141 0.094,0.011 0.18,-0.051 0.199,-0.141 0,-0.016 0.004,-0.027 0.004,-0.043 0,-0.031 -0.004,-0.07 -0.039,-0.129 -0.226,-0.398 -1.527,-1.191 -6.265,-3.754 -1.254,-0.672 -2.539,-1.367 -2.942,-1.629 0.184,-0.129 0.504,-0.199 0.945,-0.199 1.125,0 2.622,0.438 2.747,0.496 0.082,0.043 1.222,0.61 2.328,1.157 0.925,0.46 1.886,0.941 1.937,0.964 0.098,0.051 0.227,-0.004 0.254,-0.109 0.031,-0.109 -0.039,-0.168 -0.09,-0.199 v 0 c 0,-0.004 -0.004,-0.004 -0.004,-0.004 -0.007,-0.008 -0.015,-0.012 -0.023,-0.016 -2.691,-1.5 -4.031,-2.457 -4.172,-2.734 0.016,-0.031 0.02,-0.067 0.016,-0.102 -0.012,-0.101 0.019,-0.148 0.047,-0.179 0.05,-0.059 0.21,-0.161 0.671,-0.161 1.692,0 5.239,1.274 6.461,1.762 0.692,0.336 0.758,0.336 0.786,0.336 0.082,0 0.152,-0.055 0.171,-0.133 0.008,-0.027 0.028,-0.136 -0.093,-0.207 -0.141,-0.082 -0.52,-0.238 -0.731,-0.324 -1.89,-0.922 -2.812,-1.644 -2.898,-1.957 0.746,-1.086 2.402,-1.25 3.332,-1.25 1.183,0 2.203,0.25 2.453,0.426 0.113,0.078 0.242,0.058 0.312,-0.031 0.094,-0.129 0.047,-0.336 -0.113,-0.907 -0.004,-0.011 -0.004,-0.027 -0.012,-0.043 0.274,0.313 0.637,0.774 0.821,1.149 0.039,0.078 0.129,0.117 0.211,0.09 0.086,-0.028 0.136,-0.114 0.121,-0.2 -0.055,-0.293 -0.192,-0.652 -0.352,-1.066 -0.156,-0.422 -0.34,-0.895 -0.472,-1.402 -0.114,-0.43 -0.192,-0.887 -0.274,-1.371 -0.101,-0.59 -0.203,-1.2 -0.383,-1.836 0.43,0.211 1.492,1.242 1.75,3.093 0.051,0.512 0.067,0.946 0.047,1.313 -0.008,0.086 -0.015,0.176 -0.023,0.265 -0.008,0.098 0.058,0.184 0.156,0.196 0.098,0.012 0.184,-0.059 0.195,-0.156 0.008,-0.09 0.02,-0.188 0.024,-0.286 0.031,-0.472 0.015,-0.937 -0.047,-1.382 -0.078,-0.832 -0.238,-1.739 -0.363,-2.465 -0.114,-0.641 -0.239,-1.364 -0.211,-1.567 0,0 0.007,0 0.011,0 0.485,0 1.778,1.86 1.918,3.203 0.008,0.075 0.063,0.137 0.137,0.153 0.074,0.015 0.148,-0.016 0.188,-0.082 0.367,-0.602 1.164,-1.922 1.878,-2.453 -0.007,0.125 -0.011,0.23 -0.015,0.328 -0.028,0.519 -0.035,0.676 -0.305,1.5 -0.012,0.023 -0.012,0.051 -0.008,0.078 0.196,1.363 0.235,3.199 0.282,5.324 l 0.011,0.524 c 0,0.078 0.055,0.148 0.133,0.168 0.074,0.019 0.156,-0.016 0.195,-0.083 2.121,-3.726 3.118,-5.476 2.563,-8.464 0.058,0.035 0.129,0.093 0.203,0.172 0.563,0.601 1.094,2.105 1.035,2.921 -0.004,0.094 0.059,0.172 0.149,0.188 0.011,0.004 0.019,0.004 0.031,0.004 z m 4.515,-4.125 c -0.523,0 -3.312,0.594 -4.414,3.105 -0.171,-0.851 -0.601,-1.843 -1.058,-2.336 -0.258,-0.277 -0.52,-0.375 -0.742,-0.289 -0.082,0.032 -0.129,0.117 -0.114,0.203 0.567,2.719 -0.101,4.25 -2.16,7.887 -0.043,-2.066 -0.086,-3.851 -0.273,-5.207 0.273,-0.836 0.281,-1.035 0.308,-1.555 0.008,-0.164 0.016,-0.359 0.039,-0.621 0.004,-0.015 0.004,-0.031 0.004,-0.047 0,-0.097 -0.078,-0.175 -0.175,-0.175 h -0.004 c -0.024,0 -0.047,0.004 -0.071,0.015 -0.746,0.328 -1.554,1.532 -2.066,2.36 -0.344,-1.368 -1.5,-3.047 -2.184,-3.047 -0.09,0 -0.172,0.023 -0.246,0.074 -0.191,0.133 -0.156,0.453 0.098,1.902 0.023,0.153 0.055,0.313 0.082,0.477 -0.547,-0.988 -1.27,-1.508 -1.606,-1.508 -0.085,0 -0.156,0.031 -0.207,0.09 -0.027,0.031 -0.07,0.101 -0.054,0.215 0.004,0.008 0.004,0.015 0.008,0.023 0.203,0.676 0.312,1.328 0.421,1.961 0.082,0.492 0.164,0.953 0.282,1.402 0.121,0.461 0.277,0.891 0.422,1.278 -0.235,-0.281 -0.454,-0.512 -0.551,-0.582 v 0 c -0.039,-0.028 -0.078,-0.043 -0.121,-0.043 -0.059,0 -0.121,0.035 -0.157,0.078 -0.082,0.109 -0.046,0.258 0.09,0.746 0.035,0.125 0.086,0.301 0.117,0.438 -0.48,-0.196 -1.421,-0.372 -2.429,-0.372 -1.016,0 -2.844,0.188 -3.664,1.465 -0.02,0.028 -0.032,0.063 -0.032,0.098 0.004,0.355 0.489,0.797 1.153,1.234 -1.528,-0.507 -3.375,-1.023 -4.485,-1.023 -0.464,0 -0.769,0.09 -0.937,0.277 -0.094,0.106 -0.141,0.239 -0.137,0.391 -0.019,0.043 -0.027,0.094 -0.019,0.144 0.023,0.188 0.324,0.493 0.902,0.914 -0.34,-0.171 -0.578,-0.289 -0.609,-0.304 -0.137,-0.074 -1.731,-0.535 -2.911,-0.535 -0.683,0 -1.136,0.156 -1.347,0.461 -0.004,0.003 -0.004,0.011 -0.012,0.015 -0.078,0.153 -0.105,0.203 0.859,0.746 -0.757,-0.176 -1.761,-0.355 -2.648,-0.355 -0.812,0 -1.406,0.152 -1.758,0.457 -0.054,0.051 -0.078,0.113 -0.07,0.18 0.019,0.148 0.176,0.289 0.934,0.73 -0.372,-0.105 -0.719,-0.18 -1.047,-0.238 -0.5,-0.075 -1,-0.114 -1.453,-0.114 -0.43,0 -0.809,0.036 -1.125,0.098 -1.262,0.262 -2.379,1.027 -2.403,1.375 v 0 c -0.004,0.199 0.149,0.242 1.141,0.512 0.789,0.215 1.933,0.527 2.762,0.898 -2.047,-0.554 -3.899,-0.84 -5.512,-0.84 -2.903,0 -4.121,0.914 -4.344,1.266 -0.09,0.137 -0.074,0.238 -0.047,0.301 0.07,0.144 0.231,0.179 1.305,0.289 0.32,0.031 0.758,0.078 0.84,0.105 v 0 c 0.09,0.047 0.379,0.149 1.289,0.45 -1.379,-0.29 -2.852,-0.516 -3.942,-0.461 -2.832,0.16 -4.328,1.066 -4.605,1.476 -0.067,0.102 -0.086,0.195 -0.059,0.281 0.071,0.176 0.305,0.282 2.176,0.493 0.117,0.015 0.207,0.023 0.262,0.031 0.101,0.008 0.601,0.14 1.269,0.328 -0.449,-0.02 -0.882,-0.031 -1.293,-0.031 -3.785,0 -4.812,0.922 -5.078,1.316 -0.121,0.176 -0.16,0.356 -0.105,0.485 0.035,0.097 0.058,0.156 1.07,0.296 0.16,0.024 0.336,0.043 0.508,0.063 -3.649,0.879 -6.492,2.039 -8.465,3.461 -1.648,1.187 -2.359,2.355 -2.477,3.058 -0.054,0.313 0.028,0.45 0.114,0.508 0.051,0.043 0.117,0.067 0.187,0.067 0.196,0 0.407,-0.164 0.789,-0.465 0.418,-0.328 0.989,-0.778 1.778,-1.18 0.07,-0.023 0.14,-0.051 0.211,-0.078 -1.543,1.02 -2.711,2.855 -2.758,3.598 -0.016,0.234 0.082,0.343 0.164,0.39 0.051,0.032 0.113,0.051 0.183,0.051 0.34,0 0.875,-0.387 1.868,-1.125 0.504,-0.375 1.066,-0.797 1.644,-1.172 -1.597,1.344 -2.422,2.985 -2.648,4.254 -0.067,0.359 -0.106,0.824 0.078,0.988 0.019,0.02 0.043,0.032 0.066,0.039 0.387,0.114 0.996,-0.418 1.996,-1.343 0.668,-0.618 1.426,-1.313 1.813,-1.395 0.031,-0.004 0.062,-0.019 0.086,-0.043 0.312,-0.301 1.187,-0.746 4.168,-2.027 -1.508,1.199 -5.004,4.578 -4.18,6.14 0.004,0.008 0.008,0.012 0.012,0.02 0.039,0.055 0.117,0.117 0.254,0.117 0.281,0 0.754,-0.262 1.636,-0.769 0.942,-0.543 2.118,-1.215 3.301,-1.621 3.301,-1.34 6.559,-2.696 10.129,-4.555 -0.141,0.14 -0.293,0.289 -0.437,0.433 -1.829,1.805 -2.684,2.747 -2.59,3.215 0.019,0.102 0.086,0.184 0.183,0.231 0.063,0.043 0.145,0.062 0.25,0.062 0.524,0 1.75,-0.566 3.61,-1.429 2.554,-1.18 6.047,-2.797 9.476,-3.707 0.274,-0.04 0.606,-0.086 0.977,-0.141 2.422,-0.344 6.664,-0.949 9.101,-1.715 -0.003,0.024 -0.003,0.047 0,0.066 1.379,6.145 5.586,6.809 7.332,6.809 1.622,0 3.235,-0.543 4.051,-1.355 2.387,-0.235 3.653,-0.829 3.766,-1.762 0.101,-0.836 -0.82,-1.598 -1.363,-1.789 -0.063,-0.02 -0.133,-0.004 -0.18,0.039 -0.051,0.047 -0.067,0.113 -0.051,0.18 0.094,0.32 0.086,0.558 -0.023,0.73 -0.063,0.098 -0.157,0.172 -0.274,0.234 -0.015,-0.039 -0.047,-0.07 -0.09,-0.089 -0.421,-0.188 -0.683,-0.196 -1.046,-0.207 -0.172,-0.004 -0.372,-0.012 -0.629,-0.04 -0.243,-0.031 -1.075,-0.195 -1.477,-0.933 -0.348,-0.633 -0.273,-1.5 0.227,-2.574 0,-0.008 0.004,-0.016 0.007,-0.024 l 0.008,-0.035 c 0.039,-0.133 0.094,-0.316 0.266,-0.508 1.133,-0.613 2.457,-1.926 3.937,-3.906 0.02,-0.027 0.032,-0.055 0.036,-0.086 0.089,-0.855 5.371,-5.168 7.73,-6.621 0.023,-0.016 0.047,-0.039 0.062,-0.063 0.34,-0.609 1.192,-1.257 1.946,-1.832 0.961,-0.738 1.656,-1.273 1.504,-1.753 -0.024,-0.071 -0.082,-0.118 -0.153,-0.125 -0.132,-0.012 -0.269,-0.016 -0.41,-0.016 -1.734,0 -3.785,1 -5.441,2.187 0.953,-0.964 1.492,-1.613 1.394,-2.031 -0.035,-0.164 -0.183,-0.359 -0.656,-0.359 -0.859,0 -2.566,0.637 -4.16,1.711 0.68,-1.074 1.043,-2.067 1.375,-2.965 0.203,-0.563 0.398,-1.094 0.641,-1.543 0.535,-0.875 1.011,-1.098 1.398,-1.274 0.262,-0.121 0.508,-0.238 0.645,-0.531 0.039,-0.086 0.003,-0.183 -0.079,-0.23 -0.144,-0.078 -0.308,-0.121 -0.476,-0.121 -0.539,0 -1.082,0.41 -1.563,0.769 -0.269,0.203 -0.523,0.395 -0.726,0.473 -0.082,-0.473 0.965,-2.012 1.531,-2.84 0.508,-0.746 0.605,-0.902 0.598,-1.027 -0.004,-0.028 -0.012,-0.055 -0.024,-0.078 -0.058,-0.094 -0.172,-0.094 -0.219,-0.094"
         style="fill:#100f0d;fill-opacity:1;fill-rule:nonzero;stroke:none"
         id="path52" /><path
         d="m 220.672,228.602 c 0,0 -1.52,-1.051 -3.406,-0.993 0.472,-1.73 4.382,-0.402 4.382,-0.402 0,0 -1.886,-1.914 -3.238,-2.223 0.813,-0.621 4.215,-0.402 4.789,-0.093 0.574,0.308 1.586,1.515 1.586,1.515 0,0 -3.508,-3.711 -4.012,-3.679 -0.07,-0.434 3.672,-0.282 4.45,0.371 0.773,0.648 2.73,1.605 2.73,1.605 0,0 -5.125,-3.277 -5.359,-3.277 1.922,-0.465 5.765,0.558 8.226,1.949 -3.644,-2.227 -3.98,-2.629 -5.836,-3.371 1.653,-0.34 2.496,-1.359 8.094,0.867 3.203,1.391 5.024,3.926 5.024,3.926 -1.989,-2.442 -5.125,-4.516 -8.598,-6.555 -0.203,-0.371 3.707,-1.887 8.699,2.875"
         style="fill:#ee6d17;fill-opacity:1;fill-rule:nonzero;stroke:none"
         id="path54" /><path
         d="m 231.301,217.543 c -0.981,0 -1.621,0.246 -1.817,0.398 -0.226,0.172 -0.16,0.336 -0.136,0.383 0.015,0.031 0.039,0.055 0.066,0.071 1.238,0.726 2.484,1.488 3.664,2.285 -4.68,-1.852 -6.043,-1.446 -7.367,-1.051 -0.254,0.074 -0.496,0.148 -0.762,0.203 -0.074,0.016 -0.133,0.078 -0.14,0.156 -0.004,0.078 0.039,0.153 0.113,0.18 1.277,0.512 1.82,0.855 3.269,1.773 0.09,0.059 0.184,0.118 0.286,0.18 -2.114,-0.766 -4.489,-1.215 -5.926,-0.867 -0.086,0.023 -0.145,0.105 -0.133,0.195 0.008,0.078 0.07,0.141 0.148,0.153 0.133,0.043 0.754,0.41 1.567,0.91 -1.25,-0.254 -2.969,-0.274 -3.375,-0.047 -0.168,0.098 -0.168,0.234 -0.16,0.289 0.015,0.09 0.097,0.152 0.183,0.148 0.199,0.032 0.996,0.735 1.965,1.68 -1.18,-0.223 -3.707,-0.301 -4.441,0.262 -0.055,0.039 -0.078,0.109 -0.067,0.176 0.016,0.066 0.067,0.121 0.133,0.136 0.863,0.196 1.977,1.098 2.625,1.68 -0.894,-0.227 -2.406,-0.5 -3.273,-0.039 -0.325,0.172 -0.535,0.43 -0.629,0.766 -0.016,0.054 0,0.113 0.035,0.156 0.031,0.047 0.086,0.07 0.141,0.07 1.812,-0.062 3.285,0.945 3.3,0.957 0.078,0.055 0.192,0.035 0.246,-0.043 0.055,-0.082 0.036,-0.191 -0.046,-0.246 -0.059,-0.043 -1.446,-0.988 -3.239,-1.023 0.082,-0.137 0.199,-0.243 0.356,-0.329 1.125,-0.593 3.679,0.262 3.703,0.27 0.078,0.027 0.164,-0.004 0.207,-0.07 0.047,-0.071 0.035,-0.16 -0.024,-0.219 -0.07,-0.074 -1.578,-1.594 -2.886,-2.133 1.121,-0.348 3.734,-0.176 4.23,0.094 0.102,0.055 0.223,0.141 0.348,0.246 0.394,0.402 0.801,0.82 1.191,1.234 0.067,0.071 0.172,0.075 0.246,0.008 0.071,-0.062 0.078,-0.172 0.016,-0.242 -0.031,-0.039 -0.637,-0.758 -1.184,-1.23 -0.918,-0.93 -1.992,-1.961 -2.593,-2.352 0.793,-0.137 3.343,0 3.968,0.519 0.782,0.657 2.684,1.594 2.766,1.633 0.086,0.039 0.188,0.008 0.23,-0.074 0.047,-0.078 0.024,-0.184 -0.058,-0.234 -2.457,-1.571 -4.098,-2.59 -4.899,-3.039 1.899,-0.176 5.247,0.691 7.582,2.011 0.086,0.047 0.192,0.02 0.243,-0.062 0.047,-0.082 0.019,-0.192 -0.063,-0.242 -1.101,-0.672 -1.894,-1.176 -2.531,-1.578 -1.27,-0.805 -1.852,-1.176 -2.832,-1.598 0.09,-0.027 0.18,-0.055 0.266,-0.078 1.269,-0.379 2.582,-0.77 7.199,1.066 1.109,0.481 2.051,1.106 2.808,1.711 0.801,0.688 1.528,1.406 2.145,2.164 0.058,0.074 0.168,0.086 0.242,0.028 0.078,-0.059 0.094,-0.168 0.035,-0.243 -0.047,-0.07 -0.851,-1.175 -2.316,-2.32 -1.817,-1.535 -4,-2.91 -6.172,-4.191 0.141,-0.082 0.441,-0.204 0.941,-0.258 1.047,-0.121 3.868,-0.035 7.383,3.32 0.07,0.067 0.184,0.063 0.25,-0.008 0.07,-0.07 0.067,-0.179 -0.004,-0.25 -2.926,-2.789 -5.422,-3.445 -7.023,-3.445"
         style="fill:#100f0d;fill-opacity:1;fill-rule:nonzero;stroke:none"
         id="path56" /><path
         d="m 247.777,218.273 c 0,0 0.336,-1.453 1.684,-2.566 1.352,-1.113 1.449,-2.195 1.449,-2.195"
         style="fill:#ee6d17;fill-opacity:1;fill-rule:nonzero;stroke:none"
         id="path58" /><path
         d="m 250.91,213.336 c -0.09,0 -0.164,0.066 -0.176,0.156 0,0.012 -0.117,1.031 -1.382,2.078 -1.379,1.137 -1.735,2.602 -1.747,2.66 -0.023,0.098 0.036,0.192 0.129,0.215 0.098,0.02 0.192,-0.039 0.215,-0.132 0.004,-0.012 0.344,-1.411 1.625,-2.469 1.391,-1.149 1.508,-2.27 1.516,-2.317 0.008,-0.097 -0.063,-0.183 -0.16,-0.191 -0.008,0 -0.012,0 -0.02,0"
         style="fill:#100f0d;fill-opacity:1;fill-rule:nonzero;stroke:none"
         id="path60" /><path
         d="m 247.102,227.734 c 0,0 0.472,-1.296 1.855,-2.132 1.414,-0.836 3.539,-3.465 3.707,-3.926 0.164,-0.563 0.981,-4.61 0.91,-5.043"
         style="fill:#ee6d17;fill-opacity:1;fill-rule:nonzero;stroke:none"
         id="path62" /><path
         d="m 253.574,216.457 c -0.008,0 -0.015,0 -0.027,0.004 -0.094,0.012 -0.16,0.102 -0.145,0.199 0.059,0.379 -0.73,4.36 -0.906,4.965 -0.156,0.43 -2.262,3.02 -3.629,3.824 -1.422,0.86 -1.91,2.168 -1.929,2.227 -0.036,0.09 0.011,0.191 0.105,0.226 0.09,0.032 0.191,-0.015 0.227,-0.105 0.003,-0.016 0.468,-1.254 1.777,-2.043 1.453,-0.859 3.609,-3.539 3.785,-4.02 0.141,-0.492 0.996,-4.632 0.918,-5.129 -0.012,-0.085 -0.09,-0.148 -0.176,-0.148"
         style="fill:#100f0d;fill-opacity:1;fill-rule:nonzero;stroke:none"
         id="path64" /><path
         d="m 238.508,225.727 c 0.097,-0.497 -1.992,-3 0.875,-5.938 -2.598,-2.906 -2.598,-3.277 -2.598,-3.277 0,0 1.449,-0.742 4.047,1.297 4.281,-4.825 2.856,-7.032 2.856,-7.032"
         style="fill:#ee6d17;fill-opacity:1;fill-rule:nonzero;stroke:none"
         id="path66" /><path
         d="m 243.688,210.602 c -0.036,0 -0.067,0.007 -0.098,0.027 -0.082,0.055 -0.106,0.16 -0.051,0.242 0.012,0.024 1.254,2.145 -2.73,6.695 -2.575,-1.957 -4.039,-1.246 -4.102,-1.214 -0.062,0.031 -0.098,0.089 -0.098,0.16 0,0.269 0.922,1.461 2.532,3.273 -2.192,2.34 -1.364,4.422 -0.965,5.426 0.074,0.187 0.164,0.418 0.156,0.48 -0.012,0.094 0.051,0.188 0.145,0.204 0.093,0.015 0.183,-0.043 0.203,-0.133 0.031,-0.16 -0.047,-0.356 -0.176,-0.68 -0.41,-1.027 -1.168,-2.941 1.004,-5.172 0.066,-0.066 0.066,-0.172 0.008,-0.238 -1.782,-1.992 -2.325,-2.777 -2.489,-3.059 0.434,-0.105 1.719,-0.218 3.696,1.336 0.074,0.055 0.179,0.047 0.242,-0.023 4.32,-4.867 2.93,-7.149 2.871,-7.246 -0.035,-0.051 -0.094,-0.078 -0.148,-0.078"
         style="fill:#100f0d;fill-opacity:1;fill-rule:nonzero;stroke:none"
         id="path68" /><path
         d="m 243.344,214.184 c 0,0 -0.395,0.515 0.308,2.453 0.633,-0.699 1.34,-0.852 1.649,-1.133 0.308,-0.281 3.539,-0.715 3.746,-2.695"
         style="fill:#ee6d17;fill-opacity:1;fill-rule:nonzero;stroke:none"
         id="path70" /><path
         d="m 249.047,212.633 c -0.09,0 -0.168,0.066 -0.176,0.156 -0.144,1.399 -1.996,1.984 -2.992,2.301 -0.402,0.129 -0.602,0.195 -0.699,0.285 -0.094,0.086 -0.254,0.168 -0.434,0.262 -0.285,0.144 -0.656,0.34 -1.019,0.672 -0.516,-1.551 -0.243,-2.016 -0.243,-2.02 0.063,-0.078 0.047,-0.187 -0.031,-0.246 -0.078,-0.059 -0.187,-0.047 -0.25,0.031 -0.047,0.063 -0.43,0.653 0.285,2.621 0.02,0.059 0.071,0.102 0.133,0.114 0.059,0.011 0.121,-0.008 0.164,-0.055 0.379,-0.418 0.789,-0.633 1.121,-0.805 0.207,-0.105 0.383,-0.195 0.512,-0.316 0.055,-0.043 0.328,-0.129 0.57,-0.207 1.071,-0.34 3.067,-0.973 3.235,-2.598 0.007,-0.098 -0.063,-0.183 -0.157,-0.195 -0.007,0 -0.015,0 -0.019,0"
         style="fill:#100f0d;fill-opacity:1;fill-rule:nonzero;stroke:none"
         id="path72" /><path
         d="m 247.145,232.344 c 0,0.148 -0.649,1.429 -3.079,-0.172 1.301,-0.074 2.586,-0.758 3.079,0.172"
         style="fill:#ee6d17;fill-opacity:1;fill-rule:nonzero;stroke:none"
         id="path74" /><path
         d="m 244.598,232.289 c 0.215,-0.031 0.425,-0.07 0.636,-0.113 0.364,-0.071 0.711,-0.141 1,-0.141 v 0 c 0.356,0 0.575,0.102 0.719,0.332 -0.058,0.125 -0.293,0.426 -0.84,0.426 -0.418,0 -0.929,-0.168 -1.515,-0.504 z m 1.636,-0.605 v 0 c -0.324,0 -0.687,0.07 -1.07,0.144 -0.359,0.07 -0.734,0.145 -1.109,0.168 -0.075,0.004 -0.141,0.055 -0.16,0.129 -0.02,0.074 0.011,0.152 0.074,0.191 0.832,0.551 1.554,0.829 2.144,0.829 0.836,0 1.207,-0.579 1.207,-0.801 0,-0.028 -0.004,-0.055 -0.019,-0.082 -0.203,-0.387 -0.555,-0.578 -1.067,-0.578"
         style="fill:#100f0d;fill-opacity:1;fill-rule:nonzero;stroke:none"
         id="path76" /><path
         d="m 270.324,226.488 c 0.117,-0.054 7.254,-1.472 9.633,-0.765 -3.031,-3.707 -9.098,-1.2 -9.098,-1.2 2.973,-0.82 3.094,-0.765 4.043,-1.527 0.297,-0.711 -5.472,-0.383 -7.375,0.602 5.293,-1.528 5.414,-1.422 5.59,-2.02 0.238,-0.82 -8.679,0.219 -9.453,1.309 2.379,-1.692 3.688,-2.02 4.992,-2.782 -1.601,-0.656 -4.578,-1.308 -10.051,2.235 7.2,-6 13.68,-5.617 14.692,-6.707 -2.496,-3.383 -12.192,2.015 -16.652,4.746 -4.461,2.726 9.753,-6.602 11.062,-6.438 -0.652,-0.929 -5.352,-0.109 -5.648,0.329"
         style="fill:#ee6d17;fill-opacity:1;fill-rule:nonzero;stroke:none"
         id="path78" /><path
         d="m 266.02,213.34 c -0.028,0 -0.051,0 -0.075,0 -1.457,0.012 -3.765,0.43 -4.035,0.828 -0.055,0.082 -0.031,0.191 0.047,0.246 0.082,0.055 0.191,0.035 0.246,-0.047 0.192,-0.219 2.508,-0.758 4.199,-0.664 0.422,0.024 0.696,0.082 0.871,0.149 -0.921,0.308 -2.937,1.41 -6.015,3.293 -1.52,0.925 -5.547,3.457 -5.637,3.656 -0.031,0.07 -0.016,0.156 0.043,0.207 0.117,0.105 0.117,0.105 1.074,-0.481 4.078,-2.492 13.739,-7.906 16.317,-4.918 -0.356,0.246 -1.125,0.426 -2.153,0.668 -2.765,0.657 -7.394,1.75 -12.41,5.93 -0.07,0.059 -0.082,0.164 -0.027,0.238 0.055,0.075 0.16,0.094 0.238,0.043 4.961,-3.215 7.797,-2.965 9.539,-2.351 -0.332,0.176 -0.668,0.332 -1.023,0.5 -0.879,0.414 -1.864,0.879 -3.223,1.804 -0.23,0.11 -0.394,0.227 -0.476,0.344 -0.051,0.07 -0.043,0.164 0.019,0.227 0.059,0.062 0.156,0.07 0.227,0.019 0.164,-0.117 0.324,-0.226 0.476,-0.332 0.969,-0.437 3.301,-0.914 5.742,-1.14 1.86,-0.172 2.758,-0.09 2.954,0.015 -0.102,0.324 -0.219,0.367 -2.801,1.098 -0.09,0.023 -0.188,0.051 -0.285,0.078 -0.969,0.168 -1.848,0.402 -2.407,0.688 -0.078,0.042 -0.113,0.14 -0.082,0.222 0.035,0.086 0.125,0.129 0.215,0.106 0.969,-0.282 1.766,-0.504 2.422,-0.692 1.98,-0.328 4.258,-0.355 4.691,-0.136 -0.507,0.402 -0.785,0.55 -1.574,0.781 -1.344,0.242 -2.301,0.633 -2.328,0.64 -0.086,0.036 -0.129,0.133 -0.098,0.223 0.032,0.086 0.125,0.137 0.215,0.109 0.434,-0.117 0.809,-0.218 1.129,-0.304 0.496,-0.133 0.875,-0.239 1.188,-0.328 1.867,-0.332 4.468,-0.368 6.234,1.375 -2.809,-0.422 -9.004,0.8 -9.207,0.894 -0.09,0.039 -0.129,0.145 -0.086,0.235 0.039,0.082 0.137,0.121 0.223,0.089 0.332,-0.097 7.265,-1.433 9.519,-0.761 0.078,0.023 0.157,-0.004 0.199,-0.071 0.043,-0.062 0.04,-0.148 -0.011,-0.211 -1.504,-1.839 -3.746,-2.187 -5.653,-2.054 0.176,-0.114 0.356,-0.246 0.571,-0.422 0.023,-0.02 0.043,-0.043 0.054,-0.07 0.051,-0.122 0.02,-0.25 -0.082,-0.344 -0.285,-0.266 -1.519,-0.328 -2.945,-0.231 1.039,-0.324 1.129,-0.457 1.25,-0.859 0.016,-0.059 0.051,-0.25 -0.199,-0.371 -0.809,-0.391 -5.082,0.027 -7.656,0.695 0.742,-0.433 1.363,-0.726 1.937,-0.996 0.477,-0.227 0.93,-0.437 1.375,-0.699 0.059,-0.035 0.094,-0.098 0.09,-0.164 -0.008,-0.071 -0.047,-0.129 -0.109,-0.153 -1.493,-0.605 -3.836,-1.093 -7.766,0.844 4.066,-2.754 7.707,-3.613 10.023,-4.164 1.262,-0.297 2.094,-0.492 2.442,-0.867 0.058,-0.066 0.062,-0.16 0.015,-0.227 -0.597,-0.804 -1.574,-1.14 -2.785,-1.14 -2.547,0 -6.144,1.484 -9.441,3.195 2.887,-1.762 5.976,-3.531 6.469,-3.465 0.074,0.008 0.14,-0.027 0.175,-0.086 0.036,-0.058 0.032,-0.136 -0.007,-0.191 -0.235,-0.332 -0.852,-0.5 -1.832,-0.5"
         style="fill:#100f0d;fill-opacity:1;fill-rule:nonzero;stroke:none"
         id="path80" /><path
         d="m 272.168,220.215 c -0.832,-0.11 -3.332,-0.11 -3.688,-0.055"
         style="fill:#ee6d17;fill-opacity:1;fill-rule:nonzero;stroke:none"
         id="path82" /><path
         d="m 269.781,219.945 c -0.636,0 -1.176,0.016 -1.328,0.039 -0.098,0.016 -0.164,0.106 -0.148,0.204 0.015,0.093 0.105,0.16 0.203,0.144 0.336,-0.051 2.816,-0.051 3.637,0.059 0.097,0.011 0.183,-0.059 0.199,-0.153 0.011,-0.097 -0.059,-0.187 -0.153,-0.199 -0.5,-0.066 -1.543,-0.094 -2.41,-0.094"
         style="fill:#100f0d;fill-opacity:1;fill-rule:nonzero;stroke:none"
         id="path84" /><path
         d="m 218.582,229.59 c 0,0 5.426,-2.629 7.719,-2.442 -0.606,-0.527 -1.516,-0.742 -1.516,-0.742 0.57,-0.218 2.156,-0.992 4.551,-0.496 -0.574,-0.527 -1.316,-1.113 -1.316,-1.113 0,0 2.058,-0.711 4.382,0.402 -0.707,-0.804 -1.109,-1.39 -1.109,-1.39 l 1.617,-0.094"
         style="fill:#ee6d17;fill-opacity:1;fill-rule:nonzero;stroke:none"
         id="path86" /><path
         d="m 232.91,223.539 c -0.004,0 -0.008,0 -0.008,0 l -1.621,0.094 c -0.062,0.004 -0.121,0.039 -0.148,0.097 -0.028,0.059 -0.024,0.125 0.012,0.176 0.011,0.02 0.242,0.352 0.652,0.852 -2.067,-0.719 -3.758,-0.156 -3.832,-0.129 -0.063,0.023 -0.11,0.074 -0.117,0.137 -0.012,0.066 0.011,0.129 0.062,0.168 0.004,0.007 0.41,0.324 0.848,0.699 -1.914,-0.242 -3.262,0.297 -3.867,0.539 -0.067,0.027 -0.121,0.051 -0.168,0.066 -0.075,0.028 -0.121,0.102 -0.114,0.176 0.004,0.078 0.059,0.145 0.133,0.164 0.008,0 0.508,0.121 0.996,0.395 -2.511,0.183 -7.027,2.359 -7.234,2.457 -0.09,0.043 -0.125,0.148 -0.082,0.238 0.043,0.086 0.148,0.125 0.234,0.082 0.055,-0.027 5.41,-2.605 7.629,-2.426 0.078,0.008 0.149,-0.039 0.18,-0.109 0.027,-0.07 0.008,-0.152 -0.047,-0.203 -0.348,-0.297 -0.781,-0.5 -1.105,-0.625 0.769,-0.293 2.113,-0.692 3.988,-0.305 0.078,0.016 0.156,-0.019 0.191,-0.09 0.035,-0.07 0.02,-0.16 -0.039,-0.211 -0.355,-0.328 -0.777,-0.679 -1.051,-0.902 0.661,-0.141 2.227,-0.332 3.926,0.48 0.074,0.036 0.164,0.012 0.215,-0.054 0.051,-0.067 0.047,-0.16 -0.008,-0.223 -0.418,-0.473 -0.726,-0.871 -0.91,-1.117 l 1.293,-0.074 c 0.098,-0.004 0.172,-0.09 0.168,-0.188 -0.008,-0.094 -0.082,-0.164 -0.176,-0.164"
         style="fill:#100f0d;fill-opacity:1;fill-rule:nonzero;stroke:none"
         id="path88" /></g></g></svg>
