<?xml version="1.0" encoding="UTF-8" standalone="no"?>
<svg
   xmlns:dc="http://purl.org/dc/elements/1.1/"
   xmlns:cc="http://creativecommons.org/ns#"
   xmlns:rdf="http://www.w3.org/1999/02/22-rdf-syntax-ns#"
   xmlns:svg="http://www.w3.org/2000/svg"
   xmlns="http://www.w3.org/2000/svg"
   version="1.1"
   id="svg2"
   xml:space="preserve"
   width="42.666668"
   height="42.666668"
   viewBox="0 0 42.666668 42.666668"><metadata
     id="metadata8"><rdf:RDF><cc:Work
         rdf:about=""><dc:format>image/svg+xml</dc:format><dc:type
           rdf:resource="http://purl.org/dc/dcmitype/StillImage" /></cc:Work></rdf:RDF></metadata><defs
     id="defs6" /><g
     id="g10"
     transform="matrix(1.3333333,0,0,-1.3333333,0,42.666667)"><g
       id="g12"
       transform="scale(0.1)"><path
         d="m 160.035,319.938 c -43.246,0 -82.4842,-17.2 -111.2811,-45.161 H 271.316 c -28.793,27.961 -68.039,45.161 -111.281,45.161"
         style="fill:#36953b;fill-opacity:1;fill-rule:evenodd;stroke:none"
         id="path14" /><path
         d="m 156.309,-0.0234375 h 7.453 C 205.906,0.953125 243.977,18.2305 272.008,45.7695 H 48.0859 C 76.0938,18.2305 114.168,0.953125 156.309,-0.0234375"
         style="fill:#36953b;fill-opacity:1;fill-rule:evenodd;stroke:none"
         id="path16" /><path
         d="M 0.0195313,159.957 C 0.0195313,126.84 10.082,96.0703 27.3164,70.5469 72.0273,100.406 116.742,130.258 161.5,160.082 116.813,189.879 72.1289,219.723 27.4531,249.563 10.1367,223.996 0.0195313,193.16 0.0195313,159.957"
         style="fill:#ffffff;fill-opacity:1;fill-rule:nonzero;stroke:none"
         id="path18" /><path
         d="M 58.8516,91.5859 C 48.4102,84.6172 37.9609,77.6563 27.5234,70.6836 33.5703,61.7148 40.3984,53.3203 48.0859,45.7695 H 272.008 c 13.379,13.1524 24.476,28.6368 32.594,45.8164 H 58.8516"
         style="fill:#fad007;fill-opacity:1;fill-rule:evenodd;stroke:none"
         id="path20" /><path
         d="M 127.527,137.41 C 104.652,122.156 81.7852,106.898 58.9258,91.6367 H 304.602 c 0.433,0.9063 0.902,1.8242 1.308,2.7813 h 0.024 c 0,0.0312 0,0.0508 0.027,0.0703 0.777,1.7734 1.57,3.5703 2.309,5.4023 0.015,0.0899 0.062,0.2114 0.113,0.3204 0.738,1.797 1.406,3.602 2.09,5.426 0.011,0.058 0.039,0.109 0.07,0.179 0.02,0.071 0.031,0.11 0.031,0.161 0.645,1.722 1.227,3.476 1.781,5.222 0.043,0.16 0.09,0.289 0.129,0.418 0.594,1.824 1.125,3.668 1.645,5.543 0.019,0.024 0.019,0.039 0.019,0.063 1.844,6.578 3.243,13.3 4.227,20.187 H 127.527"
         style="fill:#df2125;fill-opacity:1;fill-rule:evenodd;stroke:none"
         id="path22" /><path
         d="M 318.262,183.18 H 126.898 c 11.536,-7.7 23.067,-15.407 34.602,-23.098 -11.348,-7.562 -22.676,-15.137 -34.02,-22.699 h 190.985 c 1.015,7.277 1.555,14.687 1.555,22.234 0,8.008 -0.614,15.895 -1.758,23.563"
         style="fill:#100f0d;fill-opacity:1;fill-rule:evenodd;stroke:none"
         id="path24" /><path
         d="m 5.90234,202.688 c -0.0039,-0.004 0,-0.008 -0.0039,-0.008 -0.01563,-0.051 -0.02735,-0.106 -0.03906,-0.157 0.01562,0.055 0.02734,0.11 0.04296,0.165"
         style="fill:#df2125;fill-opacity:1;fill-rule:evenodd;stroke:none"
         id="path26" /><path
         d="m 126.898,183.18 h 191.364 c -0.953,6.636 -2.336,13.148 -4.114,19.5 v 0.031 c -0.511,1.883 -1.07,3.75 -1.683,5.625 -0.02,0.09 -0.047,0.176 -0.078,0.269 -0.586,1.844 -1.196,3.668 -1.844,5.485 -1.848,5.094 -3.938,10.047 -6.254,14.914 H 58.25 c 22.8828,-15.281 45.766,-30.555 68.648,-45.824"
         style="fill:#df2125;fill-opacity:1;fill-rule:evenodd;stroke:none"
         id="path28" /><path
         d="m 58.25,229.004 h 246.039 c -8.242,17.168 -19.445,32.684 -32.973,45.773 H 48.7539 C 40.8477,267.129 33.8555,258.57 27.668,249.418 37.8594,242.609 48.0586,235.813 58.25,229.004"
         style="fill:#fad007;fill-opacity:1;fill-rule:evenodd;stroke:none"
         id="path30" /><path
         d="M 31.5078,64.6484 C 79.2305,96.5156 126.91,128.379 174.684,160.176 127.055,191.941 79.4297,223.73 31.8203,255.516 30.3477,253.547 28.9844,251.5 27.6172,249.453 72.2344,219.652 116.867,189.84 161.5,160.082 116.742,130.258 72.0273,100.406 27.3164,70.5469 28.668,68.543 30.0703,66.582 31.5078,64.6484"
         style="fill:#100f0d;fill-opacity:1;fill-rule:nonzero;stroke:none"
         id="path32" /><path
         d="M 78.7656,148.324 105.82,167.477 74.6875,172 60.7617,200.215 46.8359,172 l -31.1328,-4.523 27.0547,-19.153 -5.9297,-28.429 23.9336,13.691 23.9297,-13.691 -5.9258,28.429"
         style="fill:#df2125;fill-opacity:1;fill-rule:nonzero;stroke:none"
         id="path34" /><path
         d="m 52.8164,164.52 c 2.9258,-6.375 3.6602,-6.793 10.9727,-9.301 7.3164,-2.508 27.9804,-4.887 30.0195,-5.121 -1.332,1.332 -24.6094,18.574 -29.3906,22.023 -4.7813,3.449 -6.1133,5.016 -6.1133,5.016 0,0 -4.3086,7.758 -5.8008,10.031 -1.4883,2.273 -4.2305,5.488 -7.8359,5.488 -3.6055,0 -5.7969,-2.117 -6.8438,-5.879 -0.5742,-0.156 -3.6562,-2.039 -3.5547,-3.972 0.8907,0.105 6.4805,1.672 8.4141,-4.649 1.9336,-6.324 2.0391,-16.668 0.0508,-21.789 -1.9844,-5.121 -5.0664,-8.988 -5.0664,-13.48 0,-0.625 0.4179,-1.879 1.4609,-1.879 0.3672,-1.988 3.293,-16.145 3.293,-16.145 h 41.6953 l 6.6211,25.602"
         style="fill:#fbc210;fill-opacity:1;fill-rule:nonzero;stroke:none"
         id="path36" /><path
         d="m 62.1445,145.852 c 0.8282,0 1.5039,-0.672 1.5039,-1.504 0,-0.828 -0.6757,-1.504 -1.5039,-1.504 -0.8281,0 -1.5039,0.676 -1.5039,1.504 0,0.832 0.6758,1.504 1.5039,1.504 z m 0,-3.239 c 0.9571,0 1.7383,0.778 1.7383,1.735 0,0.957 -0.7812,1.738 -1.7383,1.738 -0.957,0 -1.7343,-0.781 -1.7343,-1.738 0,-0.957 0.7773,-1.735 1.7343,-1.735"
         style="fill:#100f0d;fill-opacity:1;fill-rule:nonzero;stroke:none"
         id="path38" /><path
         d="m 68.9844,145.395 c 0.8281,0 1.5,-0.676 1.5,-1.504 0,-0.828 -0.6719,-1.504 -1.5,-1.504 -0.8281,0 -1.5039,0.676 -1.5039,1.504 0,0.828 0.6758,1.504 1.5039,1.504 z m 0,-3.243 c 0.957,0 1.7344,0.782 1.7344,1.739 0,0.957 -0.7774,1.738 -1.7344,1.738 -0.9571,0 -1.7383,-0.781 -1.7383,-1.738 0,-0.957 0.7812,-1.739 1.7383,-1.739"
         style="fill:#100f0d;fill-opacity:1;fill-rule:nonzero;stroke:none"
         id="path40" /><path
         d="m 42.3945,187.637 c 0,0.629 0.5078,1.136 1.1368,1.136 0.6289,0 1.1367,-0.507 1.1367,-1.136 0,-0.625 -0.5078,-1.137 -1.1367,-1.137 -0.629,0 -1.1368,0.512 -1.1368,1.137 z m 2.5078,0 c 0,0.758 -0.6171,1.371 -1.371,1.371 -0.754,0 -1.3711,-0.613 -1.3711,-1.371 0,-0.754 0.6171,-1.371 1.3711,-1.371 0.7539,0 1.371,0.617 1.371,1.371"
         style="fill:#100f0d;fill-opacity:1;fill-rule:nonzero;stroke:none"
         id="path42" /><path
         d="m 63.8281,155.328 c -7.2383,2.481 -7.9922,2.891 -10.9023,9.238 l -0.2149,-0.097 c 2.9414,-6.406 3.711,-6.848 10.9493,-9.332 -0.3164,-2.723 -6.3672,-6.289 -8.793,-7.02 -7.5664,-2.82 -7.4102,-6.094 -7.3438,-6.558 -1.6445,-0.071 -3.5937,-0.172 -5.1992,-0.258 -0.1523,0.219 -0.75,1.246 -0.2617,3.07 0.1641,0.606 0.8203,1.524 1.6484,2.684 2.0704,2.898 5.1993,7.281 5.1993,12.863 h -0.2305 c 0,-5.508 -3.1055,-9.852 -5.1602,-12.727 -0.8437,-1.179 -1.5078,-2.113 -1.6836,-2.761 -0.457,-1.707 -0.0117,-2.75 0.2188,-3.145 -1.5547,-0.086 -2.7305,-0.152 -2.9063,-0.164 h -0.0195 c -0.9492,0 -1.3437,1.149 -1.3437,1.766 0,2.953 1.375,5.699 2.832,8.605 0.7656,1.528 1.5547,3.102 2.2266,4.832 1.2695,3.274 1.6992,8.856 1.2968,14.125 0.9297,0.446 11.9297,5.692 14.1328,6.547 0.2969,-0.324 1.8086,-1.891 6.0782,-4.969 4.4687,-3.226 26.1718,-19.297 29.1015,-21.773 -4.5195,0.527 -22.8633,2.754 -29.625,5.074 z m 6.6367,-1.894 c -0.7265,-1.996 -2.3984,-2.856 -3.6875,-3.223 -0.4453,-0.129 -1.8593,-0.164 -3.3671,-0.16 0.9492,0.554 3.3125,2.105 3.9453,4.054 0.9648,-0.226 2.0078,-0.449 3.1093,-0.671 z m -6.5781,1.629 c 0.9063,-0.305 2.0039,-0.606 3.2422,-0.903 -0.7305,-2.207 -3.8906,-3.949 -4.1914,-4.109 -1.4648,0.008 -2.9258,0.047 -3.5898,0.066 2.1914,1.414 4.3086,3.262 4.539,4.946 z m 25.211,-10.473 c -13.8243,2.777 -31.0391,3.148 -34.4375,3.195 0.0937,0.035 0.1836,0.074 0.2812,0.11 0.8672,0.261 2.4531,1.007 4.0547,2.003 0.2812,-0.011 2.4844,-0.082 4.5156,-0.082 1.4844,0 2.8711,0.039 3.3281,0.168 1.3516,0.387 3.1016,1.293 3.8555,3.407 6.6055,-1.305 15.0625,-2.43 19.8985,-3.028 z M 84.0273,124.977 H 52.1875 c -0.0898,0.64 -0.6211,4.386 -1.0977,8.5 0.3907,0.003 1.6446,0.003 3.5157,-0.016 l 0.0429,-0.043 0.043,0.043 c 1.9063,-0.023 4.4297,-0.066 7.3242,-0.16 l 0.0391,-0.039 0.0469,0.039 c 2.3515,-0.078 4.9453,-0.184 7.6484,-0.332 l 0.0391,-0.043 0.0429,0.039 c 2.4532,-0.141 4.9883,-0.313 7.5078,-0.531 l 0.0391,-0.047 0.0508,0.039 c 2.8281,-0.246 5.6367,-0.551 8.2812,-0.93 z m -1.9179,14.543 c 1.9336,-0.286 3.7617,-0.614 5.4219,-0.993 l -0.8633,-3.336 z m -7.5821,0.882 c 2.3672,-0.214 4.711,-0.472 6.9336,-0.789 l -3.8593,-2.789 z m -7.8515,0.563 c 2.3711,-0.133 4.8398,-0.297 7.289,-0.512 l -3.8906,-3.308 z m -7.8906,0.32 c 2.2148,-0.062 4.7031,-0.156 7.3164,-0.293 l -3.9219,-3.328 z m -8.2618,0.125 c 1.3047,0 4.0938,-0.015 7.6875,-0.109 l -3.9531,-3.457 z m 11.2579,-7.867 c -2.6797,0.082 -5.0352,0.125 -6.8594,0.148 l 3.4101,3.411 z m 7.7343,-0.328 c -2.5195,0.137 -4.9414,0.238 -7.1601,0.308 l 3.7265,3.297 z m 7.6094,-0.527 c -2.3594,0.199 -4.7305,0.363 -7.0273,0.492 l 3.8671,3.195 z m 4.4375,3.191 -4.1484,-3.172 -3.4219,3.992 -4.1836,-3.457 -3.7109,3.903 -4.0274,-3.563 -3.7344,3.852 -3.6914,-3.696 -3.9687,3.614 c -0.1328,1.386 -0.2461,2.722 -0.3125,3.886 l 3.8867,-3.711 4.2539,3.719 3.6563,-3.902 4.2304,3.586 3.6602,-4.114 4.1875,3.563 3.3281,-3.867 4.1875,3.027 4.8477,-4.609 -0.7383,-2.852 z m -30.8516,1.125 3.6329,-3.309 c -1.7696,0.02 -2.9375,0.016 -3.2774,0.016 -0.1289,1.094 -0.2461,2.207 -0.3555,3.293 z m 35.0586,-5.277 c -2.5742,0.367 -5.3086,0.664 -8.0664,0.91 l 3.8477,2.941 4.2461,-3.754 z m -31.6836,15.832 c 0.8243,-0.008 19.9024,-0.172 34.9532,-3.196 l -1.4493,-5.609 c -1.7578,0.402 -3.7109,0.746 -5.7734,1.047 l -0.043,0.039 -0.039,-0.027 c -2.3711,0.339 -4.8867,0.617 -7.4258,0.843 l -0.0469,0.051 -0.0508,-0.043 c -2.6054,0.231 -5.2343,0.406 -7.7539,0.543 l -0.0429,0.051 -0.0508,-0.047 c -2.8008,0.152 -5.461,0.25 -7.8008,0.312 l -0.043,0.047 -0.0507,-0.043 c -3.8165,0.102 -6.7657,0.118 -8.0508,0.118 -0.043,0 -0.0938,0 -0.1407,0 l -0.1796,0.168 0.0117,-0.172 c -0.5821,-0.008 -1.4102,-0.036 -2.3516,-0.075 -0.0351,0.239 -0.3242,3.262 6.3281,5.993 z m -14.8164,-6.664 c 1.0625,0.062 8.3125,0.48 10.8516,0.511 0.3047,-5.574 1.6523,-15.183 1.832,-16.429 h -9.4375 c -0.25,1.207 -2.8203,13.66 -3.2461,15.918 z m -4.7187,42.074 c -0.0625,-0.008 -0.1172,-0.02 -0.1641,-0.028 0.043,1.789 2.9141,3.571 3.4688,3.723 l 0.0625,0.02 0.0195,0.062 c 1.0664,3.844 3.332,5.793 6.7305,5.793 3.4531,0 6.1172,-2.953 7.7383,-5.434 1.3671,-2.085 5.1562,-8.878 5.7343,-9.91 -2.2656,-0.89 -12.6679,-5.847 -14.0234,-6.496 -0.2188,2.711 -0.6602,5.324 -1.3242,7.492 -1.1992,3.922 -3.9727,5.528 -8.2422,4.778 z M 93.8906,150.18 c -1.3359,1.332 -24.2383,18.304 -29.4023,22.035 -4.7031,3.39 -6.0781,4.976 -6.0781,4.976 -0.0469,0.079 -4.3321,7.789 -5.8086,10.043 -1.6524,2.528 -4.375,5.536 -7.9336,5.536 -3.5,0 -5.8321,-1.985 -6.9375,-5.903 -0.7461,-0.265 -3.6797,-2.14 -3.5782,-4.066 l 0.0079,-0.125 0.125,0.015 c 0.0742,0.008 0.1757,0.028 0.3086,0.047 1.539,0.274 6.2304,1.098 7.9765,-4.617 1.957,-6.394 1.9844,-16.742 0.0547,-21.711 -0.6641,-1.722 -1.4531,-3.293 -2.2148,-4.812 -1.4688,-2.934 -2.8594,-5.703 -2.8594,-8.711 0,-0.676 0.4375,-1.922 1.4805,-1.992 0.4296,-2.274 3.246,-15.918 3.2773,-16.055 l 0.0195,-0.094 H 84.207 l 6.6172,25.59 c 1.3242,-0.164 2.3516,-0.285 2.9688,-0.356 l 0.332,-0.039 -0.2344,0.239"
         style="fill:#100f0d;fill-opacity:1;fill-rule:nonzero;stroke:none"
         id="path44" /></g></g></svg>
