<svg xmlns="http://www.w3.org/2000/svg" width="22" height="20" viewBox="0 0 22 20">
    <path fill="#FFF" fill-rule="evenodd" d="M20 7.042l-2.651-.855a3.966 3.966 0 0 0-.82-.187c-.28.028-.555.09-.819.187l-4.766 1.51c-.396.138-.62.263-.675.374a.95.95 0 0 0-.267.73L10.057 13H1a1 1 0 0 1-1-1V4h20v3.042zM20 2H0V1a1 1 0 0 1 1-1h18a1 1 0 0 1 1 1v1zm1.178 6.47h.034c.191.063.372.154.538.271.187.171.278.43.242.686l-.025 3.622-.035.505a6.564 6.564 0 0 1-1.733 3.738l-.121.162a17.63 17.63 0 0 0-.538.506c-.512.475-1.063.904-1.646 1.282l-1.196.722a.295.295 0 0 1-.138.036h-.035a.205.205 0 0 1-.121-.036l-.607-.307a12.584 12.584 0 0 1-2.288-1.661l-.728-.722a11.744 11.744 0 0 1-.762-1.084 7.778 7.778 0 0 1-.607-1.21 4.617 4.617 0 0 1-.277-1.173 5.336 5.336 0 0 1-.087-.722l-.046-3.658a.836.836 0 0 1 .225-.632c.046-.096.237-.204.572-.325l4.033-1.308c.223-.083.456-.138.693-.162.247.03.473.085.693.162l3.96 1.308zM16 14l-2-2-1 1 3 2.939 4-4.97-.936-.969L16 14z"/>
</svg>
